<?xml version="1.0" encoding="UTF-8" standalone="no"?>
<!DOCTYPE svg PUBLIC "-//W3C//DTD SVG 1.1//EN"
 "http://www.w3.org/Graphics/SVG/1.1/DTD/svg11.dtd">
<!-- Generated by graphviz version 2.43.0 (0)
 -->
<!-- Title: src/app/seamlyme/dialogs/dialognewmeasurements.cpp Pages: 1 -->
<svg width="901pt" height="218pt"
 viewBox="0.00 0.00 900.50 218.00" xmlns="http://www.w3.org/2000/svg" xmlns:xlink="http://www.w3.org/1999/xlink">
<g id="graph0" class="graph" transform="scale(1 1) rotate(0) translate(4 214)">
<title>src/app/seamlyme/dialogs/dialognewmeasurements.cpp</title>
<polygon fill="white" stroke="transparent" points="-4,4 -4,-214 896.5,-214 896.5,4 -4,4"/>
<!-- Node1 -->
<g id="node1" class="node">
<title>Node1</title>
<g id="a_node1"><a xlink:title=" ">
<polygon fill="#bfbfbf" stroke="black" points="431.5,-179.5 431.5,-209.5 595.5,-209.5 595.5,-179.5 431.5,-179.5"/>
<text text-anchor="start" x="439.5" y="-197.5" font-family="Helvetica,sans-Serif" font-size="10.00">src/app/seamlyme/dialogs</text>
<text text-anchor="middle" x="513.5" y="-186.5" font-family="Helvetica,sans-Serif" font-size="10.00">/dialognewmeasurements.cpp</text>
</a>
</g>
</g>
<!-- Node2 -->
<g id="node2" class="node">
<title>Node2</title>
<g id="a_node2"><a xlink:href="../../db/deb/dialognewmeasurements_8h.html" target="_top" xlink:title=" ">
<polygon fill="white" stroke="black" points="0,-118 0,-137 149,-137 149,-118 0,-118"/>
<text text-anchor="middle" x="74.5" y="-125" font-family="Helvetica,sans-Serif" font-size="10.00">dialognewmeasurements.h</text>
</a>
</g>
</g>
<!-- Node1&#45;&gt;Node2 -->
<g id="edge1" class="edge">
<title>Node1&#45;&gt;Node2</title>
<path fill="none" stroke="midnightblue" d="M431.44,-181.35C347.96,-168.99 220.09,-150.06 142.2,-138.52"/>
<polygon fill="midnightblue" stroke="midnightblue" points="142.43,-135.02 132.02,-137.02 141.4,-141.94 142.43,-135.02"/>
</g>
<!-- Node5 -->
<g id="node5" class="node">
<title>Node5</title>
<g id="a_node5"><a xlink:title=" ">
<polygon fill="white" stroke="#bfbfbf" points="486.5,-118 486.5,-137 650.5,-137 650.5,-118 486.5,-118"/>
<text text-anchor="middle" x="568.5" y="-125" font-family="Helvetica,sans-Serif" font-size="10.00">ui_dialognewmeasurements.h</text>
</a>
</g>
</g>
<!-- Node1&#45;&gt;Node5 -->
<g id="edge4" class="edge">
<title>Node1&#45;&gt;Node5</title>
<path fill="none" stroke="midnightblue" d="M525.43,-179.4C534.01,-169.26 545.6,-155.57 554.59,-144.94"/>
<polygon fill="midnightblue" stroke="midnightblue" points="557.36,-147.09 561.14,-137.19 552.01,-142.57 557.36,-147.09"/>
</g>
<!-- Node6 -->
<g id="node6" class="node">
<title>Node6</title>
<g id="a_node6"><a xlink:title=" ">
<polygon fill="white" stroke="#bfbfbf" points="669,-112.5 669,-142.5 796,-142.5 796,-112.5 669,-112.5"/>
<text text-anchor="start" x="677" y="-130.5" font-family="Helvetica,sans-Serif" font-size="10.00">../vpatterndb/variables</text>
<text text-anchor="middle" x="732.5" y="-119.5" font-family="Helvetica,sans-Serif" font-size="10.00">/vmeasurement.h</text>
</a>
</g>
</g>
<!-- Node1&#45;&gt;Node6 -->
<g id="edge5" class="edge">
<title>Node1&#45;&gt;Node6</title>
<path fill="none" stroke="midnightblue" d="M560.75,-179.48C594.31,-169.51 639.56,-156.09 675.18,-145.51"/>
<polygon fill="midnightblue" stroke="midnightblue" points="676.37,-148.81 684.96,-142.61 674.37,-142.1 676.37,-148.81"/>
</g>
<!-- Node7 -->
<g id="node7" class="node">
<title>Node7</title>
<g id="a_node7"><a xlink:title=" ">
<polygon fill="white" stroke="#bfbfbf" points="665.5,-56.5 665.5,-75.5 829.5,-75.5 829.5,-56.5 665.5,-56.5"/>
<text text-anchor="middle" x="747.5" y="-63.5" font-family="Helvetica,sans-Serif" font-size="10.00">../vmisc/vseamlymesettings.h</text>
</a>
</g>
</g>
<!-- Node1&#45;&gt;Node7 -->
<g id="edge6" class="edge">
<title>Node1&#45;&gt;Node7</title>
<path fill="none" stroke="midnightblue" d="M498.86,-179.49C482.47,-162.11 460.3,-132.3 477.5,-112 489.14,-98.26 581.7,-85.01 655.25,-76.49"/>
<polygon fill="midnightblue" stroke="midnightblue" points="655.95,-79.93 665.49,-75.32 655.16,-72.98 655.95,-79.93"/>
</g>
<!-- Node8 -->
<g id="node8" class="node">
<title>Node8</title>
<g id="a_node8"><a xlink:href="../../df/da4/mapplication_8h.html" target="_top" xlink:title=" ">
<polygon fill="white" stroke="black" points="332.5,-118 332.5,-137 430.5,-137 430.5,-118 332.5,-118"/>
<text text-anchor="middle" x="381.5" y="-125" font-family="Helvetica,sans-Serif" font-size="10.00">../mapplication.h</text>
</a>
</g>
</g>
<!-- Node1&#45;&gt;Node8 -->
<g id="edge7" class="edge">
<title>Node1&#45;&gt;Node8</title>
<path fill="none" stroke="midnightblue" d="M484.86,-179.4C462,-168.14 430.24,-152.5 407.98,-141.54"/>
<polygon fill="midnightblue" stroke="midnightblue" points="409.29,-138.28 398.78,-137.01 406.2,-144.56 409.29,-138.28"/>
</g>
<!-- Node12 -->
<g id="node12" class="node">
<title>Node12</title>
<g id="a_node12"><a xlink:title=" ">
<polygon fill="white" stroke="#bfbfbf" points="814.5,-118 814.5,-137 892.5,-137 892.5,-118 814.5,-118"/>
<text text-anchor="middle" x="853.5" y="-125" font-family="Helvetica,sans-Serif" font-size="10.00">QShowEvent</text>
</a>
</g>
</g>
<!-- Node1&#45;&gt;Node12 -->
<g id="edge14" class="edge">
<title>Node1&#45;&gt;Node12</title>
<path fill="none" stroke="midnightblue" d="M595.54,-182.05C654.36,-173.18 735.28,-159.61 805.5,-143 809.39,-142.08 813.43,-141.02 817.44,-139.91"/>
<polygon fill="midnightblue" stroke="midnightblue" points="818.62,-143.21 827.25,-137.06 816.67,-136.49 818.62,-143.21"/>
</g>
<!-- Node3 -->
<g id="node3" class="node">
<title>Node3</title>
<g id="a_node3"><a xlink:title=" ">
<polygon fill="white" stroke="#bfbfbf" points="78.5,-0.5 78.5,-19.5 134.5,-19.5 134.5,-0.5 78.5,-0.5"/>
<text text-anchor="middle" x="106.5" y="-7.5" font-family="Helvetica,sans-Serif" font-size="10.00">QDialog</text>
</a>
</g>
</g>
<!-- Node2&#45;&gt;Node3 -->
<g id="edge2" class="edge">
<title>Node2&#45;&gt;Node3</title>
<path fill="none" stroke="midnightblue" d="M60.58,-117.91C41.39,-104.94 10.67,-79.37 24.5,-56 34.18,-39.65 52.15,-28.84 68.8,-21.93"/>
<polygon fill="midnightblue" stroke="midnightblue" points="70.27,-25.11 78.38,-18.29 67.79,-18.57 70.27,-25.11"/>
</g>
<!-- Node4 -->
<g id="node4" class="node">
<title>Node4</title>
<g id="a_node4"><a xlink:title=" ">
<polygon fill="white" stroke="#bfbfbf" points="33.5,-56.5 33.5,-75.5 115.5,-75.5 115.5,-56.5 33.5,-56.5"/>
<text text-anchor="middle" x="74.5" y="-63.5" font-family="Helvetica,sans-Serif" font-size="10.00">../vmisc/def.h</text>
</a>
</g>
</g>
<!-- Node2&#45;&gt;Node4 -->
<g id="edge3" class="edge">
<title>Node2&#45;&gt;Node4</title>
<path fill="none" stroke="midnightblue" d="M74.5,-117.98C74.5,-109.58 74.5,-96.48 74.5,-85.66"/>
<polygon fill="midnightblue" stroke="midnightblue" points="78,-85.51 74.5,-75.51 71,-85.51 78,-85.51"/>
</g>
<!-- Node8&#45;&gt;Node4 -->
<g id="edge9" class="edge">
<title>Node8&#45;&gt;Node4</title>
<path fill="none" stroke="midnightblue" d="M337.51,-117.98C281.56,-107.13 185.1,-88.44 125.84,-76.95"/>
<polygon fill="midnightblue" stroke="midnightblue" points="126.43,-73.5 115.95,-75.03 125.1,-80.37 126.43,-73.5"/>
</g>
<!-- Node8&#45;&gt;Node7 -->
<g id="edge10" class="edge">
<title>Node8&#45;&gt;Node7</title>
<path fill="none" stroke="midnightblue" d="M416.39,-117.95C425.51,-115.86 435.35,-113.73 444.5,-112 520.61,-97.61 608.19,-85.03 669.55,-76.86"/>
<polygon fill="midnightblue" stroke="midnightblue" points="670.1,-80.32 679.55,-75.53 669.18,-73.38 670.1,-80.32"/>
</g>
<!-- Node9 -->
<g id="node9" class="node">
<title>Node9</title>
<g id="a_node9"><a xlink:title=" ">
<polygon fill="white" stroke="#bfbfbf" points="301,-56.5 301,-75.5 462,-75.5 462,-56.5 301,-56.5"/>
<text text-anchor="middle" x="381.5" y="-63.5" font-family="Helvetica,sans-Serif" font-size="10.00">../vpatterndb/vtranslatevars.h</text>
</a>
</g>
</g>
<!-- Node8&#45;&gt;Node9 -->
<g id="edge8" class="edge">
<title>Node8&#45;&gt;Node9</title>
<path fill="none" stroke="midnightblue" d="M381.5,-117.98C381.5,-109.58 381.5,-96.48 381.5,-85.66"/>
<polygon fill="midnightblue" stroke="midnightblue" points="385,-85.51 381.5,-75.51 378,-85.51 385,-85.51"/>
</g>
<!-- Node10 -->
<g id="node10" class="node">
<title>Node10</title>
<g id="a_node10"><a xlink:title=" ">
<polygon fill="white" stroke="#bfbfbf" points="480,-56.5 480,-75.5 647,-75.5 647,-56.5 480,-56.5"/>
<text text-anchor="middle" x="563.5" y="-63.5" font-family="Helvetica,sans-Serif" font-size="10.00">../vmisc/vabstractapplication.h</text>
</a>
</g>
</g>
<!-- Node8&#45;&gt;Node10 -->
<g id="edge11" class="edge">
<title>Node8&#45;&gt;Node10</title>
<path fill="none" stroke="midnightblue" d="M407.58,-117.98C439.07,-107.68 492.2,-90.31 527.56,-78.75"/>
<polygon fill="midnightblue" stroke="midnightblue" points="529.05,-81.94 537.47,-75.51 526.88,-75.29 529.05,-81.94"/>
</g>
<!-- Node11 -->
<g id="node11" class="node">
<title>Node11</title>
<g id="a_node11"><a xlink:href="../../d0/d0b/dialogmdatabase_8h.html" target="_top" xlink:title=" ">
<polygon fill="white" stroke="black" points="134,-56.5 134,-75.5 283,-75.5 283,-56.5 134,-56.5"/>
<text text-anchor="middle" x="208.5" y="-63.5" font-family="Helvetica,sans-Serif" font-size="10.00">dialogs/dialogmdatabase.h</text>
</a>
</g>
</g>
<!-- Node8&#45;&gt;Node11 -->
<g id="edge12" class="edge">
<title>Node8&#45;&gt;Node11</title>
<path fill="none" stroke="midnightblue" d="M356.71,-117.98C326.91,-107.72 276.71,-90.46 243.1,-78.9"/>
<polygon fill="midnightblue" stroke="midnightblue" points="243.84,-75.45 233.24,-75.51 241.56,-82.07 243.84,-75.45"/>
</g>
<!-- Node11&#45;&gt;Node3 -->
<g id="edge13" class="edge">
<title>Node11&#45;&gt;Node3</title>
<path fill="none" stroke="midnightblue" d="M192.11,-56.32C175.83,-47.7 150.63,-34.36 131.78,-24.39"/>
<polygon fill="midnightblue" stroke="midnightblue" points="133.32,-21.24 122.85,-19.65 130.05,-27.43 133.32,-21.24"/>
</g>
</g>
</svg>
