<?xml version="1.0" encoding="UTF-8" standalone="no"?>
<!DOCTYPE svg PUBLIC "-//W3C//DTD SVG 1.1//EN"
 "http://www.w3.org/Graphics/SVG/1.1/DTD/svg11.dtd">
<!-- Generated by graphviz version 2.43.0 (0)
 -->
<!-- Title: src/libs/vtools/undocommands/label/movelabel.h Pages: 1 -->
<svg width="1038pt" height="207pt"
 viewBox="0.00 0.00 1038.00 207.00" xmlns="http://www.w3.org/2000/svg" xmlns:xlink="http://www.w3.org/1999/xlink">
<g id="graph0" class="graph" transform="scale(1 1) rotate(0) translate(4 203)">
<title>src/libs/vtools/undocommands/label/movelabel.h</title>
<polygon fill="white" stroke="transparent" points="-4,4 -4,-203 1034,-203 1034,4 -4,4"/>
<!-- Node1 -->
<g id="node1" class="node">
<title>Node1</title>
<g id="a_node1"><a xlink:title=" ">
<polygon fill="#bfbfbf" stroke="black" points="702.5,-168.5 702.5,-198.5 867.5,-198.5 867.5,-168.5 702.5,-168.5"/>
<text text-anchor="start" x="710.5" y="-186.5" font-family="Helvetica,sans-Serif" font-size="10.00">src/libs/vtools/undocommands</text>
<text text-anchor="middle" x="785" y="-175.5" font-family="Helvetica,sans-Serif" font-size="10.00">/label/movelabel.h</text>
</a>
</g>
</g>
<!-- Node2 -->
<g id="node2" class="node">
<title>Node2</title>
<g id="a_node2"><a xlink:title=" ">
<polygon fill="white" stroke="#bfbfbf" points="74,-0.5 74,-19.5 194,-19.5 194,-0.5 74,-0.5"/>
<text text-anchor="middle" x="134" y="-7.5" font-family="Helvetica,sans-Serif" font-size="10.00">qcompilerdetection.h</text>
</a>
</g>
</g>
<!-- Node1&#45;&gt;Node2 -->
<g id="edge1" class="edge">
<title>Node1&#45;&gt;Node2</title>
<path fill="none" stroke="midnightblue" d="M731.73,-168.47C605.56,-135.23 290.58,-52.25 176.28,-22.14"/>
<polygon fill="midnightblue" stroke="midnightblue" points="177.05,-18.72 166.49,-19.56 175.27,-25.49 177.05,-18.72"/>
</g>
<!-- Node3 -->
<g id="node3" class="node">
<title>Node3</title>
<g id="a_node3"><a xlink:title=" ">
<polygon fill="white" stroke="#bfbfbf" points="950,-0.5 950,-19.5 1030,-19.5 1030,-0.5 950,-0.5"/>
<text text-anchor="middle" x="990" y="-7.5" font-family="Helvetica,sans-Serif" font-size="10.00">QMetaObject</text>
</a>
</g>
</g>
<!-- Node1&#45;&gt;Node3 -->
<g id="edge2" class="edge">
<title>Node1&#45;&gt;Node3</title>
<path fill="none" stroke="midnightblue" d="M802.12,-168.38C814.36,-158.28 831.22,-144.33 846,-132 891.48,-94.07 944.8,-49.15 972.02,-26.18"/>
<polygon fill="midnightblue" stroke="midnightblue" points="974.51,-28.66 979.9,-19.53 970,-23.31 974.51,-28.66"/>
</g>
<!-- Node4 -->
<g id="node4" class="node">
<title>Node4</title>
<g id="a_node4"><a xlink:title=" ">
<polygon fill="white" stroke="#bfbfbf" points="0,-0.5 0,-19.5 56,-19.5 56,-0.5 0,-0.5"/>
<text text-anchor="middle" x="28" y="-7.5" font-family="Helvetica,sans-Serif" font-size="10.00">QObject</text>
</a>
</g>
</g>
<!-- Node1&#45;&gt;Node4 -->
<g id="edge3" class="edge">
<title>Node1&#45;&gt;Node4</title>
<path fill="none" stroke="midnightblue" d="M707.73,-168.48C655.91,-158.83 586.2,-145.39 525,-132 352.82,-94.34 148.89,-42.35 65.93,-20.88"/>
<polygon fill="midnightblue" stroke="midnightblue" points="66.75,-17.48 56.19,-18.36 64.99,-24.25 66.75,-17.48"/>
</g>
<!-- Node5 -->
<g id="node5" class="node">
<title>Node5</title>
<g id="a_node5"><a xlink:title=" ">
<polygon fill="white" stroke="#bfbfbf" points="878.5,-0.5 878.5,-19.5 931.5,-19.5 931.5,-0.5 878.5,-0.5"/>
<text text-anchor="middle" x="905" y="-7.5" font-family="Helvetica,sans-Serif" font-size="10.00">QString</text>
</a>
</g>
</g>
<!-- Node1&#45;&gt;Node5 -->
<g id="edge4" class="edge">
<title>Node1&#45;&gt;Node5</title>
<path fill="none" stroke="midnightblue" d="M797.25,-168.23C805.62,-158.28 816.82,-144.59 826,-132 852.12,-96.19 879.81,-52.18 894.47,-28.34"/>
<polygon fill="midnightblue" stroke="midnightblue" points="897.51,-30.07 899.74,-19.71 891.54,-26.42 897.51,-30.07"/>
</g>
<!-- Node6 -->
<g id="node6" class="node">
<title>Node6</title>
<g id="a_node6"><a xlink:title=" ">
<polygon fill="white" stroke="#bfbfbf" points="801.5,-0.5 801.5,-19.5 860.5,-19.5 860.5,-0.5 801.5,-0.5"/>
<text text-anchor="middle" x="831" y="-7.5" font-family="Helvetica,sans-Serif" font-size="10.00">QtGlobal</text>
</a>
</g>
</g>
<!-- Node1&#45;&gt;Node6 -->
<g id="edge5" class="edge">
<title>Node1&#45;&gt;Node6</title>
<path fill="none" stroke="midnightblue" d="M793.37,-168.38C798.87,-158.51 805.81,-144.83 810,-132 821.44,-96.99 827,-54.14 829.41,-29.96"/>
<polygon fill="midnightblue" stroke="midnightblue" points="832.92,-29.99 830.35,-19.71 825.95,-29.35 832.92,-29.99"/>
</g>
<!-- Node7 -->
<g id="node7" class="node">
<title>Node7</title>
<g id="a_node7"><a xlink:href="../../db/d21/moveabstractlabel_8h.html" target="_top" xlink:title=" ">
<polygon fill="white" stroke="black" points="683.5,-112.5 683.5,-131.5 800.5,-131.5 800.5,-112.5 683.5,-112.5"/>
<text text-anchor="middle" x="742" y="-119.5" font-family="Helvetica,sans-Serif" font-size="10.00">moveabstractlabel.h</text>
</a>
</g>
</g>
<!-- Node1&#45;&gt;Node7 -->
<g id="edge6" class="edge">
<title>Node1&#45;&gt;Node7</title>
<path fill="none" stroke="midnightblue" d="M774.81,-168.4C768.63,-159.84 760.7,-148.87 754.18,-139.86"/>
<polygon fill="midnightblue" stroke="midnightblue" points="756.95,-137.71 748.26,-131.66 751.28,-141.81 756.95,-137.71"/>
</g>
<!-- Node7&#45;&gt;Node2 -->
<g id="edge7" class="edge">
<title>Node7&#45;&gt;Node2</title>
<path fill="none" stroke="midnightblue" d="M710.81,-112.45C660.47,-98.91 558.07,-72.38 470,-56 457.09,-53.6 298.83,-32.67 204.19,-20.22"/>
<polygon fill="midnightblue" stroke="midnightblue" points="204.48,-16.72 194.11,-18.89 203.57,-23.66 204.48,-16.72"/>
</g>
<!-- Node7&#45;&gt;Node3 -->
<g id="edge8" class="edge">
<title>Node7&#45;&gt;Node3</title>
<path fill="none" stroke="midnightblue" d="M761.46,-112.37C805.01,-93.05 910.51,-46.26 961.48,-23.65"/>
<polygon fill="midnightblue" stroke="midnightblue" points="962.91,-26.85 970.63,-19.59 960.07,-20.45 962.91,-26.85"/>
</g>
<!-- Node7&#45;&gt;Node4 -->
<g id="edge9" class="edge">
<title>Node7&#45;&gt;Node4</title>
<path fill="none" stroke="midnightblue" d="M683.29,-114.06C567.15,-99.93 299.83,-65.46 66.27,-20.11"/>
<polygon fill="midnightblue" stroke="midnightblue" points="66.71,-16.63 56.22,-18.14 65.37,-23.5 66.71,-16.63"/>
</g>
<!-- Node7&#45;&gt;Node5 -->
<g id="edge10" class="edge">
<title>Node7&#45;&gt;Node5</title>
<path fill="none" stroke="midnightblue" d="M754.79,-112.37C782.76,-93.49 849.6,-48.38 883.9,-25.24"/>
<polygon fill="midnightblue" stroke="midnightblue" points="885.94,-28.09 892.27,-19.59 882.02,-22.28 885.94,-28.09"/>
</g>
<!-- Node7&#45;&gt;Node6 -->
<g id="edge11" class="edge">
<title>Node7&#45;&gt;Node6</title>
<path fill="none" stroke="midnightblue" d="M745.04,-112.33C749.93,-99.19 760.48,-73.88 775,-56 784.55,-44.23 797.65,-33.5 808.78,-25.47"/>
<polygon fill="midnightblue" stroke="midnightblue" points="810.96,-28.21 817.18,-19.64 806.97,-22.46 810.96,-28.21"/>
</g>
<!-- Node8 -->
<g id="node8" class="node">
<title>Node8</title>
<g id="a_node8"><a xlink:href="../../d6/dbe/vundocommand_8h.html" target="_top" xlink:title=" ">
<polygon fill="white" stroke="black" points="603.5,-56.5 603.5,-75.5 716.5,-75.5 716.5,-56.5 603.5,-56.5"/>
<text text-anchor="middle" x="660" y="-63.5" font-family="Helvetica,sans-Serif" font-size="10.00">../vundocommand.h</text>
</a>
</g>
</g>
<!-- Node7&#45;&gt;Node8 -->
<g id="edge12" class="edge">
<title>Node7&#45;&gt;Node8</title>
<path fill="none" stroke="midnightblue" d="M728.83,-112.32C716.15,-103.98 696.77,-91.21 681.79,-81.35"/>
<polygon fill="midnightblue" stroke="midnightblue" points="683.42,-78.23 673.14,-75.65 679.57,-84.08 683.42,-78.23"/>
</g>
<!-- Node8&#45;&gt;Node2 -->
<g id="edge13" class="edge">
<title>Node8&#45;&gt;Node2</title>
<path fill="none" stroke="midnightblue" d="M603.26,-59.64C502.53,-50.09 295.27,-30.26 204.2,-20.1"/>
<polygon fill="midnightblue" stroke="midnightblue" points="204.53,-16.61 194.2,-18.97 203.74,-23.57 204.53,-16.61"/>
</g>
<!-- Node8&#45;&gt;Node3 -->
<g id="edge15" class="edge">
<title>Node8&#45;&gt;Node3</title>
<path fill="none" stroke="midnightblue" d="M715.51,-56.49C770.08,-48.04 856,-34.51 939.94,-20.15"/>
<polygon fill="midnightblue" stroke="midnightblue" points="940.64,-23.58 949.9,-18.44 939.45,-16.68 940.64,-23.58"/>
</g>
<!-- Node8&#45;&gt;Node4 -->
<g id="edge16" class="edge">
<title>Node8&#45;&gt;Node4</title>
<path fill="none" stroke="midnightblue" d="M603.17,-61.89C478.84,-54.9 184.98,-37.3 66.12,-19.88"/>
<polygon fill="midnightblue" stroke="midnightblue" points="66.6,-16.41 56.19,-18.36 65.54,-23.33 66.6,-16.41"/>
</g>
<!-- Node8&#45;&gt;Node5 -->
<g id="edge17" class="edge">
<title>Node8&#45;&gt;Node5</title>
<path fill="none" stroke="midnightblue" d="M702.35,-56.45C742.68,-48.19 805.35,-35.06 868.19,-20.36"/>
<polygon fill="midnightblue" stroke="midnightblue" points="869.34,-23.69 878.27,-17.99 867.74,-16.87 869.34,-23.69"/>
</g>
<!-- Node8&#45;&gt;Node6 -->
<g id="edge20" class="edge">
<title>Node8&#45;&gt;Node6</title>
<path fill="none" stroke="midnightblue" d="M687.1,-56.44C715.99,-47.32 761.92,-32.81 794.11,-22.65"/>
<polygon fill="midnightblue" stroke="midnightblue" points="795.55,-25.87 804.03,-19.52 793.44,-19.19 795.55,-25.87"/>
</g>
<!-- Node9 -->
<g id="node9" class="node">
<title>Node9</title>
<g id="a_node9"><a xlink:title=" ">
<polygon fill="white" stroke="#bfbfbf" points="504,-0.5 504,-19.5 592,-19.5 592,-0.5 504,-0.5"/>
<text text-anchor="middle" x="548" y="-7.5" font-family="Helvetica,sans-Serif" font-size="10.00">QDomElement</text>
</a>
</g>
</g>
<!-- Node8&#45;&gt;Node9 -->
<g id="edge14" class="edge">
<title>Node8&#45;&gt;Node9</title>
<path fill="none" stroke="midnightblue" d="M642.01,-56.32C623.96,-47.62 595.95,-34.12 575.2,-24.11"/>
<polygon fill="midnightblue" stroke="midnightblue" points="576.48,-20.84 565.95,-19.65 573.44,-27.15 576.48,-20.84"/>
</g>
<!-- Node10 -->
<g id="node10" class="node">
<title>Node10</title>
<g id="a_node10"><a xlink:title=" ">
<polygon fill="white" stroke="#bfbfbf" points="610,-0.5 610,-19.5 710,-19.5 710,-0.5 610,-0.5"/>
<text text-anchor="middle" x="660" y="-7.5" font-family="Helvetica,sans-Serif" font-size="10.00">QUndoCommand</text>
</a>
</g>
</g>
<!-- Node8&#45;&gt;Node10 -->
<g id="edge18" class="edge">
<title>Node8&#45;&gt;Node10</title>
<path fill="none" stroke="midnightblue" d="M660,-56.08C660,-49.01 660,-38.86 660,-29.99"/>
<polygon fill="midnightblue" stroke="midnightblue" points="663.5,-29.75 660,-19.75 656.5,-29.75 663.5,-29.75"/>
</g>
<!-- Node11 -->
<g id="node11" class="node">
<title>Node11</title>
<g id="a_node11"><a xlink:title=" ">
<polygon fill="white" stroke="#bfbfbf" points="728.5,-0.5 728.5,-19.5 783.5,-19.5 783.5,-0.5 728.5,-0.5"/>
<text text-anchor="middle" x="756" y="-7.5" font-family="Helvetica,sans-Serif" font-size="10.00">QVector</text>
</a>
</g>
</g>
<!-- Node8&#45;&gt;Node11 -->
<g id="edge19" class="edge">
<title>Node8&#45;&gt;Node11</title>
<path fill="none" stroke="midnightblue" d="M675.42,-56.32C690.54,-47.82 713.82,-34.73 731.47,-24.8"/>
<polygon fill="midnightblue" stroke="midnightblue" points="733.61,-27.61 740.61,-19.65 730.18,-21.51 733.61,-27.61"/>
</g>
<!-- Node12 -->
<g id="node12" class="node">
<title>Node12</title>
<g id="a_node12"><a xlink:title=" ">
<polygon fill="white" stroke="#bfbfbf" points="212,-0.5 212,-19.5 364,-19.5 364,-0.5 212,-0.5"/>
<text text-anchor="middle" x="288" y="-7.5" font-family="Helvetica,sans-Serif" font-size="10.00">../ifc/xml/vabstractpattern.h</text>
</a>
</g>
</g>
<!-- Node8&#45;&gt;Node12 -->
<g id="edge21" class="edge">
<title>Node8&#45;&gt;Node12</title>
<path fill="none" stroke="midnightblue" d="M603.1,-56.74C536.95,-47.14 427.81,-31.29 356.91,-21"/>
<polygon fill="midnightblue" stroke="midnightblue" points="357.14,-17.5 346.74,-19.53 356.13,-24.43 357.14,-17.5"/>
</g>
<!-- Node13 -->
<g id="node13" class="node">
<title>Node13</title>
<g id="a_node13"><a xlink:title=" ">
<polygon fill="white" stroke="#bfbfbf" points="382.5,-0.5 382.5,-19.5 485.5,-19.5 485.5,-0.5 382.5,-0.5"/>
<text text-anchor="middle" x="434" y="-7.5" font-family="Helvetica,sans-Serif" font-size="10.00">../vmisc/logging.h</text>
</a>
</g>
</g>
<!-- Node8&#45;&gt;Node13 -->
<g id="edge22" class="edge">
<title>Node8&#45;&gt;Node13</title>
<path fill="none" stroke="midnightblue" d="M624.19,-56.44C585.01,-47.08 522.12,-32.06 479.48,-21.87"/>
<polygon fill="midnightblue" stroke="midnightblue" points="480.18,-18.44 469.64,-19.52 478.56,-25.24 480.18,-18.44"/>
</g>
</g>
</svg>
