<?xml version="1.0" encoding="UTF-8" standalone="no"?>
<!DOCTYPE svg PUBLIC "-//W3C//DTD SVG 1.1//EN"
 "http://www.w3.org/Graphics/SVG/1.1/DTD/svg11.dtd">
<!-- Generated by graphviz version 2.43.0 (0)
 -->
<!-- Title: src/libs/vpropertyexplorer/plugins/vstringproperty.cpp Pages: 1 -->
<svg width="1424pt" height="203pt"
 viewBox="0.00 0.00 1423.50 203.00" xmlns="http://www.w3.org/2000/svg" xmlns:xlink="http://www.w3.org/1999/xlink">
<g id="graph0" class="graph" transform="scale(1 1) rotate(0) translate(4 199)">
<title>src/libs/vpropertyexplorer/plugins/vstringproperty.cpp</title>
<!-- Node1 -->
<g id="Node000001" class="node">
<title>Node1</title>
<g id="a_Node000001"><a xlink:title=" ">
<polygon fill="#999999" stroke="#666666" points="1059,-195 907,-195 907,-165 1059,-165 1059,-195"/>
<text text-anchor="start" x="915" y="-183" font-family="Helvetica,sans-Serif" font-size="10.00">src/libs/vpropertyexplorer</text>
<text text-anchor="middle" x="983" y="-172" font-family="Helvetica,sans-Serif" font-size="10.00">/plugins/vstringproperty.cpp</text>
</a>
</g>
</g>
<!-- Node2 -->
<g id="Node000002" class="node">
<title>Node2</title>
<g id="a_Node000002"><a xlink:href="../../d3/dc0/vstringproperty_8h.html" target="_top" xlink:title=" ">
<polygon fill="white" stroke="#666666" points="541.5,-129 442.5,-129 442.5,-110 541.5,-110 541.5,-129"/>
<text text-anchor="middle" x="492" y="-117" font-family="Helvetica,sans-Serif" font-size="10.00">vstringproperty.h</text>
</a>
</g>
</g>
<!-- Node1&#45;&gt;Node2 -->
<g id="edge1_Node000001_Node000002" class="edge">
<title>Node1&#45;&gt;Node2</title>
<g id="a_edge1_Node000001_Node000002"><a xlink:title=" ">
<path fill="none" stroke="#63b8ff" d="M906.82,-169.92C808.91,-158.26 640.94,-138.25 551.74,-127.62"/>
<polygon fill="#63b8ff" stroke="#63b8ff" points="552.13,-124.14 541.79,-126.43 551.3,-131.09 552.13,-124.14"/>
</a>
</g>
</g>
<!-- Node7 -->
<g id="Node000007" class="node">
<title>Node7</title>
<g id="a_Node000007"><a xlink:title=" ">
<polygon fill="#e0e0e0" stroke="#999999" points="1115.5,-19 1062.5,-19 1062.5,0 1115.5,0 1115.5,-19"/>
<text text-anchor="middle" x="1089" y="-7" font-family="Helvetica,sans-Serif" font-size="10.00">QString</text>
</a>
</g>
</g>
<!-- Node1&#45;&gt;Node7 -->
<g id="edge30_Node000001_Node000007" class="edge">
<title>Node1&#45;&gt;Node7</title>
<g id="a_edge30_Node000001_Node000007"><a xlink:title=" ">
<path fill="none" stroke="#63b8ff" d="M906.97,-171.47C851.68,-164.24 783.57,-151.08 766,-129 745.52,-103.27 744.23,-79.66 766,-55 806.77,-8.82 974.5,-28.62 1052,-18.89"/>
<polygon fill="#63b8ff" stroke="#63b8ff" points="1052.96,-22.29 1062.31,-17.31 1051.9,-15.37 1052.96,-22.29"/>
</a>
</g>
</g>
<!-- Node10 -->
<g id="Node000010" class="node">
<title>Node10</title>
<g id="a_Node000010"><a xlink:title=" ">
<polygon fill="#e0e0e0" stroke="#999999" points="1192.5,-19 1133.5,-19 1133.5,0 1192.5,0 1192.5,-19"/>
<text text-anchor="middle" x="1163" y="-7" font-family="Helvetica,sans-Serif" font-size="10.00">QVariant</text>
</a>
</g>
</g>
<!-- Node1&#45;&gt;Node10 -->
<g id="edge31_Node000001_Node000010" class="edge">
<title>Node1&#45;&gt;Node10</title>
<g id="a_edge31_Node000001_Node000010"><a xlink:title=" ">
<path fill="none" stroke="#63b8ff" d="M906.84,-175.1C842.82,-168.83 766.55,-152.51 799,-110 809.07,-96.81 1031.3,-42.15 1123.48,-19.94"/>
<polygon fill="#63b8ff" stroke="#63b8ff" points="1124.38,-23.33 1133.28,-17.59 1122.74,-16.52 1124.38,-23.33"/>
</a>
</g>
</g>
<!-- Node17 -->
<g id="Node000017" class="node">
<title>Node17</title>
<g id="a_Node000017"><a xlink:title=" ">
<polygon fill="#e0e0e0" stroke="#999999" points="878,-129 808,-129 808,-110 878,-110 878,-129"/>
<text text-anchor="middle" x="843" y="-117" font-family="Helvetica,sans-Serif" font-size="10.00">QKeyEvent</text>
</a>
</g>
</g>
<!-- Node1&#45;&gt;Node17 -->
<g id="edge25_Node000001_Node000017" class="edge">
<title>Node1&#45;&gt;Node17</title>
<g id="a_edge25_Node000001_Node000017"><a xlink:title=" ">
<path fill="none" stroke="#63b8ff" d="M949.47,-164.99C926.21,-155.27 895.51,-142.44 873.05,-133.06"/>
<polygon fill="#63b8ff" stroke="#63b8ff" points="874.25,-129.77 863.68,-129.14 871.55,-136.22 874.25,-129.77"/>
</a>
</g>
</g>
<!-- Node18 -->
<g id="Node000018" class="node">
<title>Node18</title>
<g id="a_Node000018"><a xlink:title=" ">
<polygon fill="#e0e0e0" stroke="#999999" points="979.5,-129 896.5,-129 896.5,-110 979.5,-110 979.5,-129"/>
<text text-anchor="middle" x="938" y="-117" font-family="Helvetica,sans-Serif" font-size="10.00">QLatin1String</text>
</a>
</g>
</g>
<!-- Node1&#45;&gt;Node18 -->
<g id="edge26_Node000001_Node000018" class="edge">
<title>Node1&#45;&gt;Node18</title>
<g id="a_edge26_Node000001_Node000018"><a xlink:title=" ">
<path fill="none" stroke="#63b8ff" d="M972.11,-164.84C965.71,-156.52 957.58,-145.96 950.87,-137.23"/>
<polygon fill="#63b8ff" stroke="#63b8ff" points="953.61,-135.06 944.74,-129.27 948.07,-139.33 953.61,-135.06"/>
</a>
</g>
</g>
<!-- Node19 -->
<g id="Node000019" class="node">
<title>Node19</title>
<g id="a_Node000019"><a xlink:title=" ">
<polygon fill="#e0e0e0" stroke="#999999" points="1060.5,-129 997.5,-129 997.5,-110 1060.5,-110 1060.5,-129"/>
<text text-anchor="middle" x="1029" y="-117" font-family="Helvetica,sans-Serif" font-size="10.00">QLineEdit</text>
</a>
</g>
</g>
<!-- Node1&#45;&gt;Node19 -->
<g id="edge27_Node000001_Node000019" class="edge">
<title>Node1&#45;&gt;Node19</title>
<g id="a_edge27_Node000001_Node000019"><a xlink:title=" ">
<path fill="none" stroke="#63b8ff" d="M994.14,-164.84C1000.68,-156.52 1008.98,-145.96 1015.84,-137.23"/>
<polygon fill="#63b8ff" stroke="#63b8ff" points="1018.68,-139.29 1022.11,-129.27 1013.17,-134.96 1018.68,-139.29"/>
</a>
</g>
</g>
<!-- Node20 -->
<g id="Node000020" class="node">
<title>Node20</title>
<g id="a_Node000020"><a xlink:title=" ">
<polygon fill="#e0e0e0" stroke="#999999" points="1135,-129 1079,-129 1079,-110 1135,-110 1135,-129"/>
<text text-anchor="middle" x="1107" y="-117" font-family="Helvetica,sans-Serif" font-size="10.00">QLocale</text>
</a>
</g>
</g>
<!-- Node1&#45;&gt;Node20 -->
<g id="edge28_Node000001_Node000020" class="edge">
<title>Node1&#45;&gt;Node20</title>
<g id="a_edge28_Node000001_Node000020"><a xlink:title=" ">
<path fill="none" stroke="#63b8ff" d="M1012.7,-164.99C1033.02,-155.4 1059.76,-142.79 1079.58,-133.44"/>
<polygon fill="#63b8ff" stroke="#63b8ff" points="1081.14,-136.57 1088.69,-129.14 1078.15,-130.24 1081.14,-136.57"/>
</a>
</g>
</g>
<!-- Node21 -->
<g id="Node000021" class="node">
<title>Node21</title>
<g id="a_Node000021"><a xlink:title=" ">
<polygon fill="#e0e0e0" stroke="#999999" points="1227,-129 1153,-129 1153,-110 1227,-110 1227,-129"/>
<text text-anchor="middle" x="1190" y="-117" font-family="Helvetica,sans-Serif" font-size="10.00">QSizePolicy</text>
</a>
</g>
</g>
<!-- Node1&#45;&gt;Node21 -->
<g id="edge29_Node000001_Node000021" class="edge">
<title>Node1&#45;&gt;Node21</title>
<g id="a_edge29_Node000001_Node000021"><a xlink:title=" ">
<path fill="none" stroke="#63b8ff" d="M1032.58,-164.99C1068.46,-154.85 1116.33,-141.32 1149.83,-131.85"/>
<polygon fill="#63b8ff" stroke="#63b8ff" points="1151.06,-135.14 1159.73,-129.05 1149.16,-128.41 1151.06,-135.14"/>
</a>
</g>
</g>
<!-- Node22 -->
<g id="Node000022" class="node">
<title>Node22</title>
<g id="a_Node000022"><a xlink:title=" ">
<polygon fill="#e0e0e0" stroke="#999999" points="1304.5,-129 1245.5,-129 1245.5,-110 1304.5,-110 1304.5,-129"/>
<text text-anchor="middle" x="1275" y="-117" font-family="Helvetica,sans-Serif" font-size="10.00">QWidget</text>
</a>
</g>
</g>
<!-- Node1&#45;&gt;Node22 -->
<g id="edge32_Node000001_Node000022" class="edge">
<title>Node1&#45;&gt;Node22</title>
<g id="a_edge32_Node000001_Node000022"><a xlink:title=" ">
<path fill="none" stroke="#63b8ff" d="M1055.87,-164.99C1104.09,-155.63 1168.97,-142.86 1235.39,-129.09"/>
<polygon fill="#63b8ff" stroke="#63b8ff" points="1236.12,-132.52 1245.2,-127.06 1234.7,-125.66 1236.12,-132.52"/>
</a>
</g>
</g>
<!-- Node23 -->
<g id="Node000023" class="node">
<title>Node23</title>
<g id="a_Node000023"><a xlink:href="../../d1/de6/vproperty__p_8h.html" target="_top" xlink:title=" ">
<polygon fill="white" stroke="#666666" points="1415.5,-129 1322.5,-129 1322.5,-110 1415.5,-110 1415.5,-129"/>
<text text-anchor="middle" x="1369" y="-117" font-family="Helvetica,sans-Serif" font-size="10.00">../vproperty_p.h</text>
</a>
</g>
</g>
<!-- Node1&#45;&gt;Node23 -->
<g id="edge33_Node000001_Node000023" class="edge">
<title>Node1&#45;&gt;Node23</title>
<g id="a_edge33_Node000001_Node000023"><a xlink:title=" ">
<path fill="none" stroke="#63b8ff" d="M1059.26,-167.56C1124,-157.82 1219.66,-143.4 1312.37,-129.25"/>
<polygon fill="#63b8ff" stroke="#63b8ff" points="1313.13,-132.67 1322.49,-127.7 1312.08,-125.75 1313.13,-132.67"/>
</a>
</g>
</g>
<!-- Node3 -->
<g id="Node000003" class="node">
<title>Node3</title>
<g id="a_Node000003"><a xlink:title=" ">
<polygon fill="#e0e0e0" stroke="#999999" points="120,-19 0,-19 0,0 120,0 120,-19"/>
<text text-anchor="middle" x="60" y="-7" font-family="Helvetica,sans-Serif" font-size="10.00">qcompilerdetection.h</text>
</a>
</g>
</g>
<!-- Node2&#45;&gt;Node3 -->
<g id="edge2_Node000002_Node000003" class="edge">
<title>Node2&#45;&gt;Node3</title>
<g id="a_edge2_Node000002_Node000003"><a xlink:title=" ">
<path fill="none" stroke="#63b8ff" d="M449.86,-109.96C408.69,-101.46 344.33,-87.72 289,-74 221.62,-57.29 143.88,-35.11 98.51,-21.87"/>
<polygon fill="#63b8ff" stroke="#63b8ff" points="99.37,-18.48 88.79,-19.03 97.4,-25.2 99.37,-18.48"/>
</a>
</g>
</g>
<!-- Node4 -->
<g id="Node000004" class="node">
<title>Node4</title>
<g id="a_Node000004"><a xlink:title=" ">
<polygon fill="#e0e0e0" stroke="#999999" points="183.5,-19 138.5,-19 138.5,0 183.5,0 183.5,-19"/>
<text text-anchor="middle" x="161" y="-7" font-family="Helvetica,sans-Serif" font-size="10.00">QMap</text>
</a>
</g>
</g>
<!-- Node2&#45;&gt;Node4 -->
<g id="edge3_Node000002_Node000004" class="edge">
<title>Node2&#45;&gt;Node4</title>
<g id="a_edge3_Node000002_Node000004"><a xlink:title=" ">
<path fill="none" stroke="#63b8ff" d="M463.72,-109.92C434.82,-101.1 388.69,-86.88 349,-74 294.19,-56.22 230.74,-34.56 193.34,-21.69"/>
<polygon fill="#63b8ff" stroke="#63b8ff" points="194.11,-18.25 183.51,-18.3 191.83,-24.87 194.11,-18.25"/>
</a>
</g>
</g>
<!-- Node5 -->
<g id="Node000005" class="node">
<title>Node5</title>
<g id="a_Node000005"><a xlink:title=" ">
<polygon fill="#e0e0e0" stroke="#999999" points="282,-19 202,-19 202,0 282,0 282,-19"/>
<text text-anchor="middle" x="242" y="-7" font-family="Helvetica,sans-Serif" font-size="10.00">QMetaObject</text>
</a>
</g>
</g>
<!-- Node2&#45;&gt;Node5 -->
<g id="edge4_Node000002_Node000005" class="edge">
<title>Node2&#45;&gt;Node5</title>
<g id="a_edge4_Node000002_Node000005"><a xlink:title=" ">
<path fill="none" stroke="#63b8ff" d="M471.96,-109.84C427.88,-90.8 322.32,-45.2 271,-23.03"/>
<polygon fill="#63b8ff" stroke="#63b8ff" points="272.35,-19.8 261.78,-19.05 269.58,-26.23 272.35,-19.8"/>
</a>
</g>
</g>
<!-- Node6 -->
<g id="Node000006" class="node">
<title>Node6</title>
<g id="a_Node000006"><a xlink:title=" ">
<polygon fill="#e0e0e0" stroke="#999999" points="356,-19 300,-19 300,0 356,0 356,-19"/>
<text text-anchor="middle" x="328" y="-7" font-family="Helvetica,sans-Serif" font-size="10.00">QObject</text>
</a>
</g>
</g>
<!-- Node2&#45;&gt;Node6 -->
<g id="edge5_Node000002_Node000006" class="edge">
<title>Node2&#45;&gt;Node6</title>
<g id="a_edge5_Node000002_Node000006"><a xlink:title=" ">
<path fill="none" stroke="#63b8ff" d="M478.86,-109.84C450.67,-91.28 384.17,-47.49 349.64,-24.75"/>
<polygon fill="#63b8ff" stroke="#63b8ff" points="351.48,-21.77 341.21,-19.2 347.63,-27.62 351.48,-21.77"/>
</a>
</g>
</g>
<!-- Node2&#45;&gt;Node7 -->
<g id="edge6_Node000002_Node000007" class="edge">
<title>Node2&#45;&gt;Node7</title>
<g id="a_edge6_Node000002_Node000007"><a xlink:title=" ">
<path fill="none" stroke="#63b8ff" d="M524.94,-109.95C555.94,-101.64 603.54,-88.23 644,-74 664.87,-66.66 668.54,-60.37 690,-55 844.47,-16.36 891.8,-45.02 1052.11,-19.09"/>
<polygon fill="#63b8ff" stroke="#63b8ff" points="1053.04,-22.48 1062.33,-17.38 1051.89,-15.57 1053.04,-22.48"/>
</a>
</g>
</g>
<!-- Node8 -->
<g id="Node000008" class="node">
<title>Node8</title>
<g id="a_Node000008"><a xlink:title=" ">
<polygon fill="#e0e0e0" stroke="#999999" points="444,-19 374,-19 374,0 444,0 444,-19"/>
<text text-anchor="middle" x="409" y="-7" font-family="Helvetica,sans-Serif" font-size="10.00">QStringList</text>
</a>
</g>
</g>
<!-- Node2&#45;&gt;Node8 -->
<g id="edge7_Node000002_Node000008" class="edge">
<title>Node2&#45;&gt;Node8</title>
<g id="a_edge7_Node000002_Node000008"><a xlink:title=" ">
<path fill="none" stroke="#63b8ff" d="M485.21,-109.66C471.4,-91.69 439.85,-50.64 421.98,-27.38"/>
<polygon fill="#63b8ff" stroke="#63b8ff" points="424.52,-24.95 415.65,-19.16 418.97,-29.22 424.52,-24.95"/>
</a>
</g>
</g>
<!-- Node9 -->
<g id="Node000009" class="node">
<title>Node9</title>
<g id="a_Node000009"><a xlink:title=" ">
<polygon fill="#e0e0e0" stroke="#999999" points="590,-19 462,-19 462,0 590,0 590,-19"/>
<text text-anchor="middle" x="526" y="-7" font-family="Helvetica,sans-Serif" font-size="10.00">QStyleOptionViewItem</text>
</a>
</g>
</g>
<!-- Node2&#45;&gt;Node9 -->
<g id="edge8_Node000002_Node000009" class="edge">
<title>Node2&#45;&gt;Node9</title>
<g id="a_edge8_Node000002_Node000009"><a xlink:title=" ">
<path fill="none" stroke="#63b8ff" d="M494.49,-109.84C498.03,-97.59 504.79,-74.52 511,-55 513.78,-46.25 517.02,-36.58 519.78,-28.5"/>
<polygon fill="#63b8ff" stroke="#63b8ff" points="523.1,-29.6 523.04,-19 516.48,-27.32 523.1,-29.6"/>
</a>
</g>
</g>
<!-- Node2&#45;&gt;Node10 -->
<g id="edge9_Node000002_Node000010" class="edge">
<title>Node2&#45;&gt;Node10</title>
<g id="a_edge9_Node000002_Node000010"><a xlink:title=" ">
<path fill="none" stroke="#63b8ff" d="M528.15,-109.99C599.85,-93.14 754.2,-56.95 766,-55 920.96,-29.38 964.9,-43.92 1123.11,-19.13"/>
<polygon fill="#63b8ff" stroke="#63b8ff" points="1123.87,-22.55 1133.19,-17.52 1122.77,-15.64 1123.87,-22.55"/>
</a>
</g>
</g>
<!-- Node11 -->
<g id="Node000011" class="node">
<title>Node11</title>
<g id="a_Node000011"><a xlink:title=" ">
<polygon fill="#e0e0e0" stroke="#999999" points="1044.5,-19 985.5,-19 985.5,0 1044.5,0 1044.5,-19"/>
<text text-anchor="middle" x="1015" y="-7" font-family="Helvetica,sans-Serif" font-size="10.00">QtGlobal</text>
</a>
</g>
</g>
<!-- Node2&#45;&gt;Node11 -->
<g id="edge10_Node000002_Node000011" class="edge">
<title>Node2&#45;&gt;Node11</title>
<g id="a_edge10_Node000002_Node000011"><a xlink:title=" ">
<path fill="none" stroke="#63b8ff" d="M515.45,-109.99C539.17,-101.29 576.84,-87.21 609,-74 628.33,-66.06 631.83,-60.44 652,-55 789.17,-18.04 831.74,-41.78 975.14,-19.13"/>
<polygon fill="#63b8ff" stroke="#63b8ff" points="975.88,-22.55 985.19,-17.49 974.76,-15.65 975.88,-22.55"/>
</a>
</g>
</g>
<!-- Node12 -->
<g id="Node000012" class="node">
<title>Node12</title>
<g id="a_Node000012"><a xlink:href="../../d2/d6e/vproperty_8h.html" target="_top" xlink:title=" ">
<polygon fill="white" stroke="#666666" points="600,-74 520,-74 520,-55 600,-55 600,-74"/>
<text text-anchor="middle" x="560" y="-62" font-family="Helvetica,sans-Serif" font-size="10.00">../vproperty.h</text>
</a>
</g>
</g>
<!-- Node2&#45;&gt;Node12 -->
<g id="edge11_Node000002_Node000012" class="edge">
<title>Node2&#45;&gt;Node12</title>
<g id="a_edge11_Node000002_Node000012"><a xlink:title=" ">
<path fill="none" stroke="#63b8ff" d="M502.93,-109.98C513.08,-102.07 528.42,-90.11 540.65,-80.58"/>
<polygon fill="#63b8ff" stroke="#63b8ff" points="543.14,-83.08 548.88,-74.17 538.84,-77.56 543.14,-83.08"/>
</a>
</g>
</g>
<!-- Node12&#45;&gt;Node3 -->
<g id="edge12_Node000012_Node000003" class="edge">
<title>Node12&#45;&gt;Node3</title>
<g id="a_edge12_Node000012_Node000003"><a xlink:title=" ">
<path fill="none" stroke="#63b8ff" d="M519.86,-59.62C445.35,-52.37 280.33,-36.02 130.5,-19.15"/>
<polygon fill="#63b8ff" stroke="#63b8ff" points="130.53,-15.63 120.2,-17.99 129.75,-22.59 130.53,-15.63"/>
</a>
</g>
</g>
<!-- Node12&#45;&gt;Node4 -->
<g id="edge15_Node000012_Node000004" class="edge">
<title>Node12&#45;&gt;Node4</title>
<g id="a_edge15_Node000012_Node000004"><a xlink:title=" ">
<path fill="none" stroke="#63b8ff" d="M519.8,-60.47C453.77,-55.08 318.1,-42.35 193.71,-18.86"/>
<polygon fill="#63b8ff" stroke="#63b8ff" points="194.12,-15.37 183.64,-16.93 192.8,-22.25 194.12,-15.37"/>
</a>
</g>
</g>
<!-- Node12&#45;&gt;Node5 -->
<g id="edge16_Node000012_Node000005" class="edge">
<title>Node12&#45;&gt;Node5</title>
<g id="a_edge16_Node000012_Node000005"><a xlink:title=" ">
<path fill="none" stroke="#63b8ff" d="M519.88,-56.96C469.25,-48.69 379.21,-33.91 292.16,-19.19"/>
<polygon fill="#63b8ff" stroke="#63b8ff" points="292.55,-15.7 282.11,-17.48 291.38,-22.6 292.55,-15.7"/>
</a>
</g>
</g>
<!-- Node12&#45;&gt;Node6 -->
<g id="edge17_Node000012_Node000006" class="edge">
<title>Node12&#45;&gt;Node6</title>
<g id="a_edge17_Node000012_Node000006"><a xlink:title=" ">
<path fill="none" stroke="#63b8ff" d="M522.61,-54.99C485.43,-46.51 426.47,-33.07 366.33,-19.3"/>
<polygon fill="#63b8ff" stroke="#63b8ff" points="366.81,-15.82 356.28,-17 365.25,-22.64 366.81,-15.82"/>
</a>
</g>
</g>
<!-- Node12&#45;&gt;Node7 -->
<g id="edge19_Node000012_Node000007" class="edge">
<title>Node12&#45;&gt;Node7</title>
<g id="a_edge19_Node000012_Node000007"><a xlink:title=" ">
<path fill="none" stroke="#63b8ff" d="M600.3,-59.75C616.38,-58.26 635.07,-56.54 652,-55 827.42,-39.04 875.3,-47.91 1052.42,-19.04"/>
<polygon fill="#63b8ff" stroke="#63b8ff" points="1053.03,-22.49 1062.33,-17.41 1051.9,-15.58 1053.03,-22.49"/>
</a>
</g>
</g>
<!-- Node12&#45;&gt;Node8 -->
<g id="edge20_Node000012_Node000008" class="edge">
<title>Node12&#45;&gt;Node8</title>
<g id="a_edge20_Node000012_Node000008"><a xlink:title=" ">
<path fill="none" stroke="#63b8ff" d="M535.74,-54.98C510.68,-46.19 471.37,-32.39 443.17,-22.49"/>
<polygon fill="#63b8ff" stroke="#63b8ff" points="444.3,-19.18 433.7,-19.17 441.98,-25.78 444.3,-19.18"/>
</a>
</g>
</g>
<!-- Node12&#45;&gt;Node9 -->
<g id="edge21_Node000012_Node000009" class="edge">
<title>Node12&#45;&gt;Node9</title>
<g id="a_edge21_Node000012_Node000009"><a xlink:title=" ">
<path fill="none" stroke="#63b8ff" d="M554.39,-54.75C549.68,-47.42 542.83,-36.73 537.03,-27.7"/>
<polygon fill="#63b8ff" stroke="#63b8ff" points="539.86,-25.62 531.51,-19.09 533.96,-29.4 539.86,-25.62"/>
</a>
</g>
</g>
<!-- Node12&#45;&gt;Node10 -->
<g id="edge22_Node000012_Node000010" class="edge">
<title>Node12&#45;&gt;Node10</title>
<g id="a_edge22_Node000012_Node000010"><a xlink:title=" ">
<path fill="none" stroke="#63b8ff" d="M600.19,-60.67C714.99,-52.53 1040.92,-29.09 1122.93,-18.98"/>
<polygon fill="#63b8ff" stroke="#63b8ff" points="1123.76,-22.39 1133.2,-17.58 1122.82,-15.46 1123.76,-22.39"/>
</a>
</g>
</g>
<!-- Node12&#45;&gt;Node11 -->
<g id="edge24_Node000012_Node000011" class="edge">
<title>Node12&#45;&gt;Node11</title>
<g id="a_edge24_Node000012_Node000011"><a xlink:title=" ">
<path fill="none" stroke="#63b8ff" d="M600.07,-56.93C604.76,-56.24 609.48,-55.58 614,-55 771.51,-34.81 815.15,-44.33 975,-19.15"/>
<polygon fill="#63b8ff" stroke="#63b8ff" points="975.87,-22.56 985.2,-17.53 974.77,-15.65 975.87,-22.56"/>
</a>
</g>
</g>
<!-- Node13 -->
<g id="Node000013" class="node">
<title>Node13</title>
<g id="a_Node000013"><a xlink:title=" ">
<polygon fill="#e0e0e0" stroke="#999999" points="739.5,-19 608.5,-19 608.5,0 739.5,0 739.5,-19"/>
<text text-anchor="middle" x="674" y="-7" font-family="Helvetica,sans-Serif" font-size="10.00">QAbstractItemDelegate</text>
</a>
</g>
</g>
<!-- Node12&#45;&gt;Node13 -->
<g id="edge13_Node000012_Node000013" class="edge">
<title>Node12&#45;&gt;Node13</title>
<g id="a_edge13_Node000012_Node000013"><a xlink:title=" ">
<path fill="none" stroke="#63b8ff" d="M578.32,-54.98C596.66,-46.46 625.11,-33.23 646.23,-23.41"/>
<polygon fill="#63b8ff" stroke="#63b8ff" points="647.76,-26.56 655.35,-19.17 644.81,-20.21 647.76,-26.56"/>
</a>
</g>
</g>
<!-- Node14 -->
<g id="Node000014" class="node">
<title>Node14</title>
<g id="a_Node000014"><a xlink:title=" ">
<polygon fill="#e0e0e0" stroke="#999999" points="810,-19 758,-19 758,0 810,0 810,-19"/>
<text text-anchor="middle" x="784" y="-7" font-family="Helvetica,sans-Serif" font-size="10.00">QEvent</text>
</a>
</g>
</g>
<!-- Node12&#45;&gt;Node14 -->
<g id="edge14_Node000012_Node000014" class="edge">
<title>Node12&#45;&gt;Node14</title>
<g id="a_edge14_Node000012_Node000014"><a xlink:title=" ">
<path fill="none" stroke="#63b8ff" d="M596.6,-54.96C632.68,-46.53 689.64,-33.17 747.89,-19.25"/>
<polygon fill="#63b8ff" stroke="#63b8ff" points="748.72,-22.65 757.63,-16.92 747.09,-15.85 748.72,-22.65"/>
</a>
</g>
</g>
<!-- Node15 -->
<g id="Node000015" class="node">
<title>Node15</title>
<g id="a_Node000015"><a xlink:title=" ">
<polygon fill="#e0e0e0" stroke="#999999" points="920,-19 828,-19 828,0 920,0 920,-19"/>
<text text-anchor="middle" x="874" y="-7" font-family="Helvetica,sans-Serif" font-size="10.00">QSharedPointer</text>
</a>
</g>
</g>
<!-- Node12&#45;&gt;Node15 -->
<g id="edge18_Node000012_Node000015" class="edge">
<title>Node12&#45;&gt;Node15</title>
<g id="a_edge18_Node000012_Node000015"><a xlink:title=" ">
<path fill="none" stroke="#63b8ff" d="M600.09,-56.73C655.29,-47.42 754.99,-30.59 817.67,-20.01"/>
<polygon fill="#63b8ff" stroke="#63b8ff" points="818.5,-23.42 827.78,-18.3 817.34,-16.51 818.5,-23.42"/>
</a>
</g>
</g>
<!-- Node16 -->
<g id="Node000016" class="node">
<title>Node16</title>
<g id="a_Node000016"><a xlink:title=" ">
<polygon fill="#e0e0e0" stroke="#999999" points="967.5,-19 938.5,-19 938.5,0 967.5,0 967.5,-19"/>
<text text-anchor="middle" x="953" y="-7" font-family="Helvetica,sans-Serif" font-size="10.00">Qt</text>
</a>
</g>
</g>
<!-- Node12&#45;&gt;Node16 -->
<g id="edge23_Node000012_Node000016" class="edge">
<title>Node12&#45;&gt;Node16</title>
<g id="a_edge23_Node000012_Node000016"><a xlink:title=" ">
<path fill="none" stroke="#63b8ff" d="M600.08,-57C604.77,-56.29 609.49,-55.61 614,-55 750.36,-36.48 789.87,-50.05 928.29,-18.59"/>
<polygon fill="#63b8ff" stroke="#63b8ff" points="929.48,-21.91 938.43,-16.25 927.9,-15.09 929.48,-21.91"/>
</a>
</g>
</g>
<!-- Node23&#45;&gt;Node7 -->
<g id="edge35_Node000023_Node000007" class="edge">
<title>Node23&#45;&gt;Node7</title>
<g id="a_edge35_Node000023_Node000007"><a xlink:title=" ">
<path fill="none" stroke="#63b8ff" d="M1345.49,-109.96C1321.25,-101.11 1282.4,-86.82 1249,-74 1203.74,-56.63 1151.59,-35.78 1119.46,-22.83"/>
<polygon fill="#63b8ff" stroke="#63b8ff" points="1120.75,-19.57 1110.16,-19.08 1118.13,-26.06 1120.75,-19.57"/>
</a>
</g>
</g>
<!-- Node23&#45;&gt;Node10 -->
<g id="edge34_Node000023_Node000010" class="edge">
<title>Node23&#45;&gt;Node10</title>
<g id="a_edge34_Node000023_Node000010"><a xlink:title=" ">
<path fill="none" stroke="#63b8ff" d="M1352.49,-109.84C1316.54,-91 1230.99,-46.14 1188.23,-23.73"/>
<polygon fill="#63b8ff" stroke="#63b8ff" points="1189.78,-20.59 1179.3,-19.05 1186.53,-26.79 1189.78,-20.59"/>
</a>
</g>
</g>
<!-- Node23&#45;&gt;Node12 -->
<g id="edge36_Node000023_Node000012" class="edge">
<title>Node23&#45;&gt;Node12</title>
<g id="a_edge36_Node000023_Node000012"><a xlink:title=" ">
<path fill="none" stroke="#63b8ff" d="M1322.23,-110.96C1319.45,-110.61 1316.69,-110.29 1314,-110 1049.83,-81.85 731.56,-70.39 610.26,-66.83"/>
<polygon fill="#63b8ff" stroke="#63b8ff" points="610.26,-63.33 600.16,-66.54 610.06,-70.32 610.26,-63.33"/>
</a>
</g>
</g>
</g>
</svg>
