<?xml version="1.0" encoding="UTF-8" standalone="no"?>
<!DOCTYPE svg PUBLIC "-//W3C//DTD SVG 1.1//EN"
 "http://www.w3.org/Graphics/SVG/1.1/DTD/svg11.dtd">
<!-- Generated by graphviz version 2.43.0 (0)
 -->
<!-- Title: TST_VPiece Pages: 1 -->
<svg width="125pt" height="353pt"
 viewBox="0.00 0.00 125.00 353.00" xmlns="http://www.w3.org/2000/svg" xmlns:xlink="http://www.w3.org/1999/xlink">
<g id="graph0" class="graph" transform="scale(1 1) rotate(0) translate(4 349)">
<title>TST_VPiece</title>
<polygon fill="white" stroke="transparent" points="-4,4 -4,-349 121,-349 121,4 -4,4"/>
<!-- Node1 -->
<g id="node1" class="node">
<title>Node1</title>
<g id="a_node1"><a xlink:title=" ">
<polygon fill="#bfbfbf" stroke="black" points="12.5,-0.5 12.5,-79.5 104.5,-79.5 104.5,-0.5 12.5,-0.5"/>
<text text-anchor="middle" x="58.5" y="-67.5" font-family="Helvetica,sans-Serif" font-size="10.00">TST_VPiece</text>
<polyline fill="none" stroke="black" points="12.5,-60.5 104.5,-60.5 "/>
<text text-anchor="middle" x="58.5" y="-48.5" font-family="Helvetica,sans-Serif" font-size="10.00"> </text>
<polyline fill="none" stroke="black" points="12.5,-41.5 104.5,-41.5 "/>
<text text-anchor="start" x="20.5" y="-29.5" font-family="Helvetica,sans-Serif" font-size="10.00">+ TST_VPiece()</text>
<text text-anchor="start" x="20.5" y="-18.5" font-family="Helvetica,sans-Serif" font-size="10.00">&#45; ClearLoop()</text>
<text text-anchor="start" x="20.5" y="-7.5" font-family="Helvetica,sans-Serif" font-size="10.00">&#45; Issue620()</text>
</a>
</g>
</g>
<!-- Node2 -->
<g id="node2" class="node">
<title>Node2</title>
<g id="a_node2"><a xlink:href="../../d0/d9b/classAbstractTest.html" target="_top" xlink:title=" ">
<polygon fill="white" stroke="black" points="0,-116.5 0,-250.5 117,-250.5 117,-116.5 0,-116.5"/>
<text text-anchor="middle" x="58.5" y="-238.5" font-family="Helvetica,sans-Serif" font-size="10.00">AbstractTest</text>
<polyline fill="none" stroke="black" points="0,-231.5 117,-231.5 "/>
<text text-anchor="middle" x="58.5" y="-219.5" font-family="Helvetica,sans-Serif" font-size="10.00"> </text>
<polyline fill="none" stroke="black" points="0,-212.5 117,-212.5 "/>
<text text-anchor="start" x="8" y="-200.5" font-family="Helvetica,sans-Serif" font-size="10.00">+ AbstractTest()</text>
<text text-anchor="start" x="8" y="-189.5" font-family="Helvetica,sans-Serif" font-size="10.00"># Comparison()</text>
<text text-anchor="start" x="8" y="-178.5" font-family="Helvetica,sans-Serif" font-size="10.00"># Comparison()</text>
<text text-anchor="start" x="8" y="-167.5" font-family="Helvetica,sans-Serif" font-size="10.00"># Seamly2DPath()</text>
<text text-anchor="start" x="8" y="-156.5" font-family="Helvetica,sans-Serif" font-size="10.00"># SeamlyMePath()</text>
<text text-anchor="start" x="8" y="-145.5" font-family="Helvetica,sans-Serif" font-size="10.00"># TranslationsPath()</text>
<text text-anchor="start" x="8" y="-134.5" font-family="Helvetica,sans-Serif" font-size="10.00"># Run()</text>
<text text-anchor="start" x="8" y="-123.5" font-family="Helvetica,sans-Serif" font-size="10.00"># CopyRecursively()</text>
</a>
</g>
</g>
<!-- Node2&#45;&gt;Node1 -->
<g id="edge1" class="edge">
<title>Node2&#45;&gt;Node1</title>
<path fill="none" stroke="midnightblue" d="M58.5,-106.03C58.5,-96.95 58.5,-87.99 58.5,-79.76"/>
<polygon fill="none" stroke="midnightblue" points="55,-106.31 58.5,-116.31 62,-106.31 55,-106.31"/>
</g>
<!-- Node3 -->
<g id="node3" class="node">
<title>Node3</title>
<g id="a_node3"><a xlink:title=" ">
<polygon fill="white" stroke="#bfbfbf" points="30.5,-287.5 30.5,-344.5 86.5,-344.5 86.5,-287.5 30.5,-287.5"/>
<text text-anchor="middle" x="58.5" y="-332.5" font-family="Helvetica,sans-Serif" font-size="10.00">QObject</text>
<polyline fill="none" stroke="#bfbfbf" points="30.5,-325.5 86.5,-325.5 "/>
<text text-anchor="middle" x="58.5" y="-313.5" font-family="Helvetica,sans-Serif" font-size="10.00"> </text>
<polyline fill="none" stroke="#bfbfbf" points="30.5,-306.5 86.5,-306.5 "/>
<text text-anchor="middle" x="58.5" y="-294.5" font-family="Helvetica,sans-Serif" font-size="10.00"> </text>
</a>
</g>
</g>
<!-- Node3&#45;&gt;Node2 -->
<g id="edge2" class="edge">
<title>Node3&#45;&gt;Node2</title>
<path fill="none" stroke="midnightblue" d="M58.5,-277.16C58.5,-268.78 58.5,-259.67 58.5,-250.53"/>
<polygon fill="none" stroke="midnightblue" points="55,-277.32 58.5,-287.32 62,-277.32 55,-277.32"/>
</g>
</g>
</svg>
