<?xml version="1.0" encoding="UTF-8" standalone="no"?>
<!DOCTYPE svg PUBLIC "-//W3C//DTD SVG 1.1//EN"
 "http://www.w3.org/Graphics/SVG/1.1/DTD/svg11.dtd">
<!-- Generated by graphviz version 2.43.0 (0)
 -->
<!-- Title: VisToolEllipticalArc Pages: 1 -->
<!--zoomable 953 -->
<svg id="main" version="1.1" xmlns="http://www.w3.org/2000/svg" xmlns:xlink="http://www.w3.org/1999/xlink" xml:space="preserve" onload="init(evt)">
<style type="text/css"><![CDATA[
.edge:hover path { stroke: red; }
.edge:hover polygon { stroke: red; fill: red; }
]]></style>
<script type="text/javascript"><![CDATA[
var edges = document.getElementsByTagName('g');
if (edges && edges.length) {
  for (var i=0;i<edges.length;i++) {
    if (edges[i].id.substr(0,4)=='edge') {
      edges[i].setAttribute('class','edge');
    }
  }
}
]]></script>
        <defs>
                <circle id="rim" cx="0" cy="0" r="7"/>
                <circle id="rim2" cx="0" cy="0" r="3.5"/>
                <g id="zoomPlus">
                        <use xlink:href="#rim" fill="#404040">
                                <set attributeName="fill" to="#808080" begin="zoomplus.mouseover" end="zoomplus.mouseout"/>
                        </use>
                        <path d="M-4,0h8M0,-4v8" fill="none" stroke="white" stroke-width="1.5" pointer-events="none"/>
                </g>
                <g id="zoomMin">
                        <use xlink:href="#rim" fill="#404040">
                                <set attributeName="fill" to="#808080" begin="zoomminus.mouseover" end="zoomminus.mouseout"/>
                        </use>
                        <path d="M-4,0h8" fill="none" stroke="white" stroke-width="1.5" pointer-events="none"/>
                </g>
                <g id="dirArrow">
                        <path fill="none" stroke="white" stroke-width="1.5" d="M0,-3.0v7 M-2.5,-0.5L0,-3.0L2.5,-0.5"/>
                </g>
               <g id="resetDef">
                       <use xlink:href="#rim2" fill="#404040">
                               <set attributeName="fill" to="#808080" begin="reset.mouseover" end="reset.mouseout"/>
                       </use>
               </g>
        </defs>

<script type="text/javascript">
var viewWidth = 278;
var viewHeight = 953;
var sectionId = 'dynsection-0';
</script>
<script xlink:href="../../svgpan.js"/>
<svg id="graph" class="graph">
<g id="viewport">
<title>VisToolEllipticalArc</title>
<polygon fill="white" stroke="transparent" points="-4,4 -4,-949 273.5,-949 273.5,4 -4,4"/>
<!-- Node1 -->
<g id="node1" class="node">
<title>Node1</title>
<g id="a_node1"><a xlink:title=" ">
<polygon fill="#bfbfbf" stroke="black" points="65,-0.5 65,-200.5 201,-200.5 201,-0.5 65,-0.5"/>
<text text-anchor="middle" x="133" y="-188.5" font-family="Helvetica,sans-Serif" font-size="10.00">VisToolEllipticalArc</text>
<polyline fill="none" stroke="black" points="65,-181.5 201,-181.5 "/>
<text text-anchor="start" x="73" y="-169.5" font-family="Helvetica,sans-Serif" font-size="10.00">&#45; arcCenter</text>
<text text-anchor="start" x="73" y="-158.5" font-family="Helvetica,sans-Serif" font-size="10.00">&#45; radius1</text>
<text text-anchor="start" x="73" y="-147.5" font-family="Helvetica,sans-Serif" font-size="10.00">&#45; radius2</text>
<text text-anchor="start" x="73" y="-136.5" font-family="Helvetica,sans-Serif" font-size="10.00">&#45; f1</text>
<text text-anchor="start" x="73" y="-125.5" font-family="Helvetica,sans-Serif" font-size="10.00">&#45; f2</text>
<text text-anchor="start" x="73" y="-114.5" font-family="Helvetica,sans-Serif" font-size="10.00">&#45; rotationAngle</text>
<polyline fill="none" stroke="black" points="65,-107.5 201,-107.5 "/>
<text text-anchor="start" x="73" y="-95.5" font-family="Helvetica,sans-Serif" font-size="10.00">+ VisToolEllipticalArc()</text>
<text text-anchor="start" x="73" y="-84.5" font-family="Helvetica,sans-Serif" font-size="10.00">+ ~VisToolEllipticalArc()</text>
<text text-anchor="start" x="73" y="-73.5" font-family="Helvetica,sans-Serif" font-size="10.00">+ RefreshGeometry()</text>
<text text-anchor="start" x="73" y="-62.5" font-family="Helvetica,sans-Serif" font-size="10.00">+ setRadius1()</text>
<text text-anchor="start" x="73" y="-51.5" font-family="Helvetica,sans-Serif" font-size="10.00">+ setRadius2()</text>
<text text-anchor="start" x="73" y="-40.5" font-family="Helvetica,sans-Serif" font-size="10.00">+ setF1()</text>
<text text-anchor="start" x="73" y="-29.5" font-family="Helvetica,sans-Serif" font-size="10.00">+ setF2()</text>
<text text-anchor="start" x="73" y="-18.5" font-family="Helvetica,sans-Serif" font-size="10.00">+ setRotationAngle()</text>
<text text-anchor="start" x="73" y="-7.5" font-family="Helvetica,sans-Serif" font-size="10.00">+ type()</text>
</a>
</g>
</g>
<!-- Node2 -->
<g id="node2" class="node">
<title>Node2</title>
<g id="a_node2"><a xlink:href="../../db/d76/classVisPath.html" target="_top" xlink:title=" ">
<polygon fill="white" stroke="black" points="84.5,-237.5 84.5,-349.5 181.5,-349.5 181.5,-237.5 84.5,-237.5"/>
<text text-anchor="middle" x="133" y="-337.5" font-family="Helvetica,sans-Serif" font-size="10.00">VisPath</text>
<polyline fill="none" stroke="black" points="84.5,-330.5 181.5,-330.5 "/>
<text text-anchor="middle" x="133" y="-318.5" font-family="Helvetica,sans-Serif" font-size="10.00"> </text>
<polyline fill="none" stroke="black" points="84.5,-311.5 181.5,-311.5 "/>
<text text-anchor="start" x="92.5" y="-299.5" font-family="Helvetica,sans-Serif" font-size="10.00">+ VisPath()</text>
<text text-anchor="start" x="92.5" y="-288.5" font-family="Helvetica,sans-Serif" font-size="10.00">+ ~VisPath()</text>
<text text-anchor="start" x="92.5" y="-277.5" font-family="Helvetica,sans-Serif" font-size="10.00">+ type()</text>
<text text-anchor="start" x="92.5" y="-266.5" font-family="Helvetica,sans-Serif" font-size="10.00"># initPen()</text>
<text text-anchor="start" x="92.5" y="-255.5" font-family="Helvetica,sans-Serif" font-size="10.00"># AddOnScene()</text>
<text text-anchor="start" x="92.5" y="-244.5" font-family="Helvetica,sans-Serif" font-size="10.00"># GetPoint()</text>
</a>
</g>
</g>
<!-- Node2&#45;&gt;Node1 -->
<g id="edge1" class="edge">
<title>Node2&#45;&gt;Node1</title>
<path fill="none" stroke="midnightblue" d="M133,-227C133,-218.43 133,-209.51 133,-200.54"/>
<polygon fill="none" stroke="midnightblue" points="129.5,-227.25 133,-237.25 136.5,-227.25 129.5,-227.25"/>
</g>
<!-- Node3 -->
<g id="node3" class="node">
<title>Node3</title>
<g id="a_node3"><a xlink:href="../../d7/d24/classVisualization.html" target="_top" xlink:title=" ">
<polygon fill="white" stroke="black" points="0,-386.5 0,-850.5 122,-850.5 122,-386.5 0,-386.5"/>
<text text-anchor="middle" x="61" y="-838.5" font-family="Helvetica,sans-Serif" font-size="10.00">Visualization</text>
<polyline fill="none" stroke="black" points="0,-831.5 122,-831.5 "/>
<text text-anchor="start" x="8" y="-819.5" font-family="Helvetica,sans-Serif" font-size="10.00"># data</text>
<text text-anchor="start" x="8" y="-808.5" font-family="Helvetica,sans-Serif" font-size="10.00"># scenePos</text>
<text text-anchor="start" x="8" y="-797.5" font-family="Helvetica,sans-Serif" font-size="10.00"># mainColor</text>
<text text-anchor="start" x="8" y="-786.5" font-family="Helvetica,sans-Serif" font-size="10.00"># supportColor</text>
<text text-anchor="start" x="8" y="-775.5" font-family="Helvetica,sans-Serif" font-size="10.00"># lineStyle</text>
<text text-anchor="start" x="8" y="-764.5" font-family="Helvetica,sans-Serif" font-size="10.00"># lineWeight</text>
<text text-anchor="start" x="8" y="-753.5" font-family="Helvetica,sans-Serif" font-size="10.00"># object1Id</text>
<text text-anchor="start" x="8" y="-742.5" font-family="Helvetica,sans-Serif" font-size="10.00"># toolTip</text>
<text text-anchor="start" x="8" y="-731.5" font-family="Helvetica,sans-Serif" font-size="10.00"># mode</text>
<polyline fill="none" stroke="black" points="0,-724.5 122,-724.5 "/>
<text text-anchor="start" x="8" y="-712.5" font-family="Helvetica,sans-Serif" font-size="10.00">+ Visualization()</text>
<text text-anchor="start" x="8" y="-701.5" font-family="Helvetica,sans-Serif" font-size="10.00">+ ~Visualization()</text>
<text text-anchor="start" x="8" y="-690.5" font-family="Helvetica,sans-Serif" font-size="10.00">+ RefreshGeometry()</text>
<text text-anchor="start" x="8" y="-679.5" font-family="Helvetica,sans-Serif" font-size="10.00">+ setObject1Id()</text>
<text text-anchor="start" x="8" y="-668.5" font-family="Helvetica,sans-Serif" font-size="10.00">+ setLineStyle()</text>
<text text-anchor="start" x="8" y="-657.5" font-family="Helvetica,sans-Serif" font-size="10.00">+ setLineWeight()</text>
<text text-anchor="start" x="8" y="-646.5" font-family="Helvetica,sans-Serif" font-size="10.00">+ setScenePos()</text>
<text text-anchor="start" x="8" y="-635.5" font-family="Helvetica,sans-Serif" font-size="10.00">+ VisualMode()</text>
<text text-anchor="start" x="8" y="-624.5" font-family="Helvetica,sans-Serif" font-size="10.00">+ setMainColor()</text>
<text text-anchor="start" x="8" y="-613.5" font-family="Helvetica,sans-Serif" font-size="10.00">+ getData()</text>
<text text-anchor="start" x="8" y="-602.5" font-family="Helvetica,sans-Serif" font-size="10.00">+ setData()</text>
<text text-anchor="start" x="8" y="-591.5" font-family="Helvetica,sans-Serif" font-size="10.00">+ GetMode()</text>
<text text-anchor="start" x="8" y="-580.5" font-family="Helvetica,sans-Serif" font-size="10.00">+ SetMode()</text>
<text text-anchor="start" x="8" y="-569.5" font-family="Helvetica,sans-Serif" font-size="10.00">+ CurrentToolTip()</text>
<text text-anchor="start" x="8" y="-558.5" font-family="Helvetica,sans-Serif" font-size="10.00">+ FindLength()</text>
<text text-anchor="start" x="8" y="-547.5" font-family="Helvetica,sans-Serif" font-size="10.00">+ FindVal()</text>
<text text-anchor="start" x="8" y="-536.5" font-family="Helvetica,sans-Serif" font-size="10.00">+ mousePos()</text>
<text text-anchor="start" x="8" y="-525.5" font-family="Helvetica,sans-Serif" font-size="10.00"># initPen()</text>
<text text-anchor="start" x="8" y="-514.5" font-family="Helvetica,sans-Serif" font-size="10.00"># AddOnScene()</text>
<text text-anchor="start" x="8" y="-503.5" font-family="Helvetica,sans-Serif" font-size="10.00"># InitPoint()</text>
<text text-anchor="start" x="8" y="-492.5" font-family="Helvetica,sans-Serif" font-size="10.00"># DrawPoint()</text>
<text text-anchor="start" x="8" y="-481.5" font-family="Helvetica,sans-Serif" font-size="10.00"># DrawLine()</text>
<text text-anchor="start" x="8" y="-470.5" font-family="Helvetica,sans-Serif" font-size="10.00"># DrawPath()</text>
<text text-anchor="start" x="8" y="-459.5" font-family="Helvetica,sans-Serif" font-size="10.00"># DrawPath()</text>
<text text-anchor="start" x="8" y="-448.5" font-family="Helvetica,sans-Serif" font-size="10.00"># drawArrowedLine()</text>
<text text-anchor="start" x="8" y="-437.5" font-family="Helvetica,sans-Serif" font-size="10.00"># drawArrow()</text>
<text text-anchor="start" x="8" y="-426.5" font-family="Helvetica,sans-Serif" font-size="10.00"># addItem()</text>
<text text-anchor="start" x="8" y="-415.5" font-family="Helvetica,sans-Serif" font-size="10.00"># InitItem()</text>
<text text-anchor="start" x="8" y="-404.5" font-family="Helvetica,sans-Serif" font-size="10.00"># GetPointItem()</text>
<text text-anchor="start" x="8" y="-393.5" font-family="Helvetica,sans-Serif" font-size="10.00">&#45; initPointItem()</text>
</a>
</g>
</g>
<!-- Node3&#45;&gt;Node2 -->
<g id="edge2" class="edge">
<title>Node3&#45;&gt;Node2</title>
<path fill="none" stroke="midnightblue" d="M114.79,-376.19C116.9,-366.75 118.89,-357.79 120.74,-349.51"/>
<polygon fill="none" stroke="midnightblue" points="111.32,-375.67 112.56,-386.19 118.15,-377.2 111.32,-375.67"/>
</g>
<!-- Node4 -->
<g id="node4" class="node">
<title>Node4</title>
<g id="a_node4"><a xlink:title=" ">
<polygon fill="white" stroke="#bfbfbf" points="33,-887.5 33,-944.5 89,-944.5 89,-887.5 33,-887.5"/>
<text text-anchor="middle" x="61" y="-932.5" font-family="Helvetica,sans-Serif" font-size="10.00">QObject</text>
<polyline fill="none" stroke="#bfbfbf" points="33,-925.5 89,-925.5 "/>
<text text-anchor="middle" x="61" y="-913.5" font-family="Helvetica,sans-Serif" font-size="10.00"> </text>
<polyline fill="none" stroke="#bfbfbf" points="33,-906.5 89,-906.5 "/>
<text text-anchor="middle" x="61" y="-894.5" font-family="Helvetica,sans-Serif" font-size="10.00"> </text>
</a>
</g>
</g>
<!-- Node4&#45;&gt;Node3 -->
<g id="edge3" class="edge">
<title>Node4&#45;&gt;Node3</title>
<path fill="none" stroke="midnightblue" d="M61,-877.27C61,-869.33 61,-860.42 61,-850.79"/>
<polygon fill="none" stroke="midnightblue" points="57.5,-877.47 61,-887.47 64.5,-877.47 57.5,-877.47"/>
</g>
<!-- Node5 -->
<g id="node5" class="node">
<title>Node5</title>
<g id="a_node5"><a xlink:href="../../d3/d85/classVCurvePathItem.html" target="_top" xlink:title=" ">
<polygon fill="white" stroke="black" points="140.5,-546 140.5,-691 269.5,-691 269.5,-546 140.5,-546"/>
<text text-anchor="middle" x="205" y="-679" font-family="Helvetica,sans-Serif" font-size="10.00">VCurvePathItem</text>
<polyline fill="none" stroke="black" points="140.5,-672 269.5,-672 "/>
<text text-anchor="start" x="148.5" y="-660" font-family="Helvetica,sans-Serif" font-size="10.00">&#45; m_directionArrows</text>
<text text-anchor="start" x="148.5" y="-649" font-family="Helvetica,sans-Serif" font-size="10.00">&#45; m_points</text>
<polyline fill="none" stroke="black" points="140.5,-642 269.5,-642 "/>
<text text-anchor="start" x="148.5" y="-630" font-family="Helvetica,sans-Serif" font-size="10.00">+ VCurvePathItem()</text>
<text text-anchor="start" x="148.5" y="-619" font-family="Helvetica,sans-Serif" font-size="10.00">+ ~VCurvePathItem()</text>
<text text-anchor="start" x="148.5" y="-608" font-family="Helvetica,sans-Serif" font-size="10.00">+ shape()</text>
<text text-anchor="start" x="148.5" y="-597" font-family="Helvetica,sans-Serif" font-size="10.00">+ paint()</text>
<text text-anchor="start" x="148.5" y="-586" font-family="Helvetica,sans-Serif" font-size="10.00">+ type()</text>
<text text-anchor="start" x="148.5" y="-575" font-family="Helvetica,sans-Serif" font-size="10.00">+ SetDirectionArrows()</text>
<text text-anchor="start" x="148.5" y="-564" font-family="Helvetica,sans-Serif" font-size="10.00">+ SetPoints()</text>
<text text-anchor="start" x="148.5" y="-553" font-family="Helvetica,sans-Serif" font-size="10.00"># ScalePenWidth()</text>
</a>
</g>
</g>
<!-- Node5&#45;&gt;Node2 -->
<g id="edge4" class="edge">
<title>Node5&#45;&gt;Node2</title>
<path fill="none" stroke="midnightblue" d="M186.81,-535.9C173.83,-477.65 156.71,-400.86 145.3,-349.69"/>
<polygon fill="none" stroke="midnightblue" points="183.43,-536.82 189.02,-545.82 190.26,-535.29 183.43,-536.82"/>
</g>
<!-- Node6 -->
<g id="node6" class="node">
<title>Node6</title>
<g id="a_node6"><a xlink:title=" ">
<polygon fill="white" stroke="#bfbfbf" points="150,-887.5 150,-944.5 260,-944.5 260,-887.5 150,-887.5"/>
<text text-anchor="middle" x="205" y="-932.5" font-family="Helvetica,sans-Serif" font-size="10.00">QGraphicsPathItem</text>
<polyline fill="none" stroke="#bfbfbf" points="150,-925.5 260,-925.5 "/>
<text text-anchor="middle" x="205" y="-913.5" font-family="Helvetica,sans-Serif" font-size="10.00"> </text>
<polyline fill="none" stroke="#bfbfbf" points="150,-906.5 260,-906.5 "/>
<text text-anchor="middle" x="205" y="-894.5" font-family="Helvetica,sans-Serif" font-size="10.00"> </text>
</a>
</g>
</g>
<!-- Node6&#45;&gt;Node5 -->
<g id="edge5" class="edge">
<title>Node6&#45;&gt;Node5</title>
<path fill="none" stroke="midnightblue" d="M205,-877.18C205,-830.44 205,-749.9 205,-691.28"/>
<polygon fill="none" stroke="midnightblue" points="201.5,-877.47 205,-887.47 208.5,-877.47 201.5,-877.47"/>
</g>
</g>
</svg>
        <g id="navigator" transform="translate(0 0)" fill="#404254">
                <rect fill="#f2f5e9" fill-opacity="0.5" stroke="#606060" stroke-width=".5" x="0" y="0" width="60" height="60"/>
                <use id="zoomplus" xlink:href="#zoomPlus" x="17" y="9" onmousedown="handleZoom(evt,'in')"/>
                <use id="zoomminus" xlink:href="#zoomMin" x="42" y="9" onmousedown="handleZoom(evt,'out')"/>
                <use id="reset" xlink:href="#resetDef" x="30" y="36" onmousedown="handleReset()"/>
                <g id="arrowUp" xlink:href="#dirArrow" transform="translate(30 24)" onmousedown="handlePan(0,-1)">
                  <use xlink:href="#rim" fill="#404040">
                        <set attributeName="fill" to="#808080" begin="arrowUp.mouseover" end="arrowUp.mouseout"/>
                  </use>
                  <path fill="none" stroke="white" stroke-width="1.5" d="M0,-3.0v7 M-2.5,-0.5L0,-3.0L2.5,-0.5"/>
                </g>
                <g id="arrowRight" xlink:href="#dirArrow" transform="rotate(90) translate(36 -43)" onmousedown="handlePan(1,0)">
                  <use xlink:href="#rim" fill="#404040">
                        <set attributeName="fill" to="#808080" begin="arrowRight.mouseover" end="arrowRight.mouseout"/>
                  </use>
                  <path fill="none" stroke="white" stroke-width="1.5" d="M0,-3.0v7 M-2.5,-0.5L0,-3.0L2.5,-0.5"/>
                </g>
                <g id="arrowDown" xlink:href="#dirArrow" transform="rotate(180) translate(-30 -48)" onmousedown="handlePan(0,1)">
                  <use xlink:href="#rim" fill="#404040">
                        <set attributeName="fill" to="#808080" begin="arrowDown.mouseover" end="arrowDown.mouseout"/>
                  </use>
                  <path fill="none" stroke="white" stroke-width="1.5" d="M0,-3.0v7 M-2.5,-0.5L0,-3.0L2.5,-0.5"/>
                </g>
                <g id="arrowLeft" xlink:href="#dirArrow" transform="rotate(270) translate(-36 17)" onmousedown="handlePan(-1,0)">
                  <use xlink:href="#rim" fill="#404040">
                        <set attributeName="fill" to="#808080" begin="arrowLeft.mouseover" end="arrowLeft.mouseout"/>
                  </use>
                  <path fill="none" stroke="white" stroke-width="1.5" d="M0,-3.0v7 M-2.5,-0.5L0,-3.0L2.5,-0.5"/>
                </g>
        </g>
        <svg viewBox="0 0 15 15" width="100%" height="30px" preserveAspectRatio="xMaxYMin meet">
         <g id="arrow_out" transform="scale(0.3 0.3)">
          <a xlink:href="classVisToolEllipticalArc__inherit__graph_org.svg" target="_base">
           <rect id="button" ry="5" rx="5" y="6" x="6" height="38" width="38"
                fill="#f2f5e9" fill-opacity="0.5" stroke="#606060" stroke-width="1.0"/>
           <path id="arrow"
             d="M 11.500037,31.436501 C 11.940474,20.09759 22.043105,11.32322 32.158766,21.979434 L 37.068811,17.246167 C 37.068811,17.246167 37.088388,32 37.088388,32 L 22.160133,31.978069 C 22.160133,31.978069 26.997745,27.140456 26.997745,27.140456 C 18.528582,18.264221 13.291696,25.230495 11.500037,31.436501 z"
             style="fill:#404040;"/>
          </a>
         </g>
        </svg>
</svg>
