<?xml version="1.0" encoding="UTF-8" standalone="no"?>
<!DOCTYPE svg PUBLIC "-//W3C//DTD SVG 1.1//EN"
 "http://www.w3.org/Graphics/SVG/1.1/DTD/svg11.dtd">
<!-- Generated by graphviz version 2.43.0 (0)
 -->
<!-- Title: src/libs/xerces&#45;c/mingw/include/xercesc/validators/datatype/DatatypeValidator.hpp Pages: 1 -->
<svg width="1569pt" height="117pt"
 viewBox="0.00 0.00 1569.00 117.00" xmlns="http://www.w3.org/2000/svg" xmlns:xlink="http://www.w3.org/1999/xlink">
<g id="graph0" class="graph" transform="scale(1 1) rotate(0) translate(4 113)">
<title>src/libs/xerces&#45;c/mingw/include/xercesc/validators/datatype/DatatypeValidator.hpp</title>
<polygon fill="white" stroke="transparent" points="-4,4 -4,-113 1565,-113 1565,4 -4,4"/>
<!-- Node1 -->
<g id="node1" class="node">
<title>Node1</title>
<g id="a_node1"><a xlink:title=" ">
<polygon fill="#bfbfbf" stroke="black" points="669,-67.5 669,-108.5 844,-108.5 844,-67.5 669,-67.5"/>
<text text-anchor="start" x="677" y="-96.5" font-family="Helvetica,sans-Serif" font-size="10.00">src/libs/xerces&#45;c/mingw</text>
<text text-anchor="start" x="677" y="-85.5" font-family="Helvetica,sans-Serif" font-size="10.00">/include/xercesc/validators</text>
<text text-anchor="middle" x="756.5" y="-74.5" font-family="Helvetica,sans-Serif" font-size="10.00">/datatype/DatatypeValidator.hpp</text>
</a>
</g>
</g>
<!-- Node2 -->
<g id="node2" class="node">
<title>Node2</title>
<g id="a_node2"><a xlink:title=" ">
<polygon fill="white" stroke="#bfbfbf" points="0,-6 0,-25 161,-25 161,-6 0,-6"/>
<text text-anchor="middle" x="80.5" y="-13" font-family="Helvetica,sans-Serif" font-size="10.00">xercesc/util/PlatformUtils.hpp</text>
</a>
</g>
</g>
<!-- Node1&#45;&gt;Node2 -->
<g id="edge1" class="edge">
<title>Node1&#45;&gt;Node2</title>
<path fill="none" stroke="midnightblue" d="M668.94,-80.4C554.21,-71.36 346.88,-53.61 170.5,-31 160.61,-29.73 150.14,-28.21 139.97,-26.64"/>
<polygon fill="midnightblue" stroke="midnightblue" points="140.36,-23.15 129.93,-25.05 139.26,-30.07 140.36,-23.15"/>
</g>
<!-- Node3 -->
<g id="node3" class="node">
<title>Node3</title>
<g id="a_node3"><a xlink:title=" ">
<polygon fill="white" stroke="#bfbfbf" points="179.5,-0.5 179.5,-30.5 321.5,-30.5 321.5,-0.5 179.5,-0.5"/>
<text text-anchor="start" x="187.5" y="-18.5" font-family="Helvetica,sans-Serif" font-size="10.00">xercesc/util/RefHashTable</text>
<text text-anchor="middle" x="250.5" y="-7.5" font-family="Helvetica,sans-Serif" font-size="10.00">Of.hpp</text>
</a>
</g>
</g>
<!-- Node1&#45;&gt;Node3 -->
<g id="edge2" class="edge">
<title>Node1&#45;&gt;Node3</title>
<path fill="none" stroke="midnightblue" d="M668.61,-76.71C584.63,-66.59 454.23,-50.12 331.52,-31.12"/>
<polygon fill="midnightblue" stroke="midnightblue" points="331.99,-27.65 321.57,-29.57 330.91,-34.56 331.99,-27.65"/>
</g>
<!-- Node4 -->
<g id="node4" class="node">
<title>Node4</title>
<g id="a_node4"><a xlink:title=" ">
<polygon fill="white" stroke="#bfbfbf" points="340,-6 340,-25 495,-25 495,-6 340,-6"/>
<text text-anchor="middle" x="417.5" y="-13" font-family="Helvetica,sans-Serif" font-size="10.00">xercesc/util/KVStringPair.hpp</text>
</a>
</g>
</g>
<!-- Node1&#45;&gt;Node4 -->
<g id="edge3" class="edge">
<title>Node1&#45;&gt;Node4</title>
<path fill="none" stroke="midnightblue" d="M668.76,-68.75C605.17,-55.53 521.41,-38.11 468.49,-27.1"/>
<polygon fill="midnightblue" stroke="midnightblue" points="469.16,-23.67 458.65,-25.06 467.73,-30.52 469.16,-23.67"/>
</g>
<!-- Node5 -->
<g id="node5" class="node">
<title>Node5</title>
<g id="a_node5"><a xlink:title=" ">
<polygon fill="white" stroke="#bfbfbf" points="513.5,-6 513.5,-25 669.5,-25 669.5,-6 513.5,-6"/>
<text text-anchor="middle" x="591.5" y="-13" font-family="Helvetica,sans-Serif" font-size="10.00">xercesc/util/XMLUniDefs.hpp</text>
</a>
</g>
</g>
<!-- Node1&#45;&gt;Node5 -->
<g id="edge4" class="edge">
<title>Node1&#45;&gt;Node5</title>
<path fill="none" stroke="midnightblue" d="M710.54,-67.36C681.92,-55.13 645.94,-39.76 621.07,-29.14"/>
<polygon fill="midnightblue" stroke="midnightblue" points="622.37,-25.88 611.8,-25.17 619.62,-32.32 622.37,-25.88"/>
</g>
<!-- Node6 -->
<g id="node6" class="node">
<title>Node6</title>
<g id="a_node6"><a xlink:title=" ">
<polygon fill="white" stroke="#bfbfbf" points="688,-0.5 688,-30.5 825,-30.5 825,-0.5 688,-0.5"/>
<text text-anchor="start" x="696" y="-18.5" font-family="Helvetica,sans-Serif" font-size="10.00">xercesc/util/regx/Regular</text>
<text text-anchor="middle" x="756.5" y="-7.5" font-family="Helvetica,sans-Serif" font-size="10.00">Expression.hpp</text>
</a>
</g>
</g>
<!-- Node1&#45;&gt;Node6 -->
<g id="edge5" class="edge">
<title>Node1&#45;&gt;Node6</title>
<path fill="none" stroke="midnightblue" d="M756.5,-67.36C756.5,-59.23 756.5,-49.7 756.5,-41.11"/>
<polygon fill="midnightblue" stroke="midnightblue" points="760,-40.89 756.5,-30.89 753,-40.89 760,-40.89"/>
</g>
<!-- Node7 -->
<g id="node7" class="node">
<title>Node7</title>
<g id="a_node7"><a xlink:title=" ">
<polygon fill="white" stroke="#bfbfbf" points="843,-0.5 843,-30.5 1006,-30.5 1006,-0.5 843,-0.5"/>
<text text-anchor="start" x="851" y="-18.5" font-family="Helvetica,sans-Serif" font-size="10.00">xercesc/validators</text>
<text text-anchor="middle" x="924.5" y="-7.5" font-family="Helvetica,sans-Serif" font-size="10.00">/schema/SchemaSymbols.hpp</text>
</a>
</g>
</g>
<!-- Node1&#45;&gt;Node7 -->
<g id="edge6" class="edge">
<title>Node1&#45;&gt;Node7</title>
<path fill="none" stroke="midnightblue" d="M803.3,-67.36C827.79,-57.08 857.57,-44.59 881.48,-34.55"/>
<polygon fill="midnightblue" stroke="midnightblue" points="883.13,-37.66 891,-30.56 880.42,-31.2 883.13,-37.66"/>
</g>
<!-- Node8 -->
<g id="node8" class="node">
<title>Node8</title>
<g id="a_node8"><a xlink:title=" ">
<polygon fill="white" stroke="#bfbfbf" points="1024.5,-6 1024.5,-25 1206.5,-25 1206.5,-6 1024.5,-6"/>
<text text-anchor="middle" x="1115.5" y="-13" font-family="Helvetica,sans-Serif" font-size="10.00">xercesc/internal/XSerializable.hpp</text>
</a>
</g>
</g>
<!-- Node1&#45;&gt;Node8 -->
<g id="edge7" class="edge">
<title>Node1&#45;&gt;Node8</title>
<path fill="none" stroke="midnightblue" d="M844.32,-69.75C912.47,-56.37 1004.71,-38.26 1062.14,-26.98"/>
<polygon fill="midnightblue" stroke="midnightblue" points="1062.95,-30.39 1072.09,-25.02 1061.6,-23.52 1062.95,-30.39"/>
</g>
<!-- Node9 -->
<g id="node9" class="node">
<title>Node9</title>
<g id="a_node9"><a xlink:title=" ">
<polygon fill="white" stroke="#bfbfbf" points="1225,-0.5 1225,-30.5 1382,-30.5 1382,-0.5 1225,-0.5"/>
<text text-anchor="start" x="1233" y="-18.5" font-family="Helvetica,sans-Serif" font-size="10.00">xercesc/framework/psvi</text>
<text text-anchor="middle" x="1303.5" y="-7.5" font-family="Helvetica,sans-Serif" font-size="10.00">/XSSimpleTypeDefinition.hpp</text>
</a>
</g>
</g>
<!-- Node1&#45;&gt;Node9 -->
<g id="edge8" class="edge">
<title>Node1&#45;&gt;Node9</title>
<path fill="none" stroke="midnightblue" d="M844.21,-77.4C934.43,-67.28 1079.28,-50.33 1214.7,-31.08"/>
<polygon fill="midnightblue" stroke="midnightblue" points="1215.44,-34.51 1224.84,-29.63 1214.45,-27.58 1215.44,-34.51"/>
</g>
<!-- Node10 -->
<g id="node10" class="node">
<title>Node10</title>
<g id="a_node10"><a xlink:title=" ">
<polygon fill="white" stroke="#bfbfbf" points="1400,-0.5 1400,-30.5 1561,-30.5 1561,-0.5 1400,-0.5"/>
<text text-anchor="start" x="1408" y="-18.5" font-family="Helvetica,sans-Serif" font-size="10.00">xercesc/framework/Validation</text>
<text text-anchor="middle" x="1480.5" y="-7.5" font-family="Helvetica,sans-Serif" font-size="10.00">Context.hpp</text>
</a>
</g>
</g>
<!-- Node1&#45;&gt;Node10 -->
<g id="edge9" class="edge">
<title>Node1&#45;&gt;Node10</title>
<path fill="none" stroke="midnightblue" d="M844.02,-81.33C964.65,-73.05 1188.98,-56.02 1389.4,-31.21"/>
<polygon fill="midnightblue" stroke="midnightblue" points="1390.04,-34.66 1399.53,-29.95 1389.17,-27.71 1390.04,-34.66"/>
</g>
</g>
</svg>
