<?xml version="1.0" encoding="UTF-8" standalone="no"?>
<!DOCTYPE svg PUBLIC "-//W3C//DTD SVG 1.1//EN"
 "http://www.w3.org/Graphics/SVG/1.1/DTD/svg11.dtd">
<!-- Generated by graphviz version 2.43.0 (0)
 -->
<!-- Title: src/libs/vpatterndb/floatItemData/floatitemdef.h Pages: 1 -->
<svg width="1811pt" height="296pt"
 viewBox="0.00 0.00 1811.00 296.00" xmlns="http://www.w3.org/2000/svg" xmlns:xlink="http://www.w3.org/1999/xlink">
<g id="graph0" class="graph" transform="scale(1 1) rotate(0) translate(4 292)">
<title>src/libs/vpatterndb/floatItemData/floatitemdef.h</title>
<polygon fill="white" stroke="transparent" points="-4,4 -4,-292 1807,-292 1807,4 -4,4"/>
<!-- Node1 -->
<g id="node1" class="node">
<title>Node1</title>
<g id="a_node1"><a xlink:title=" ">
<polygon fill="#bfbfbf" stroke="black" points="512.5,-257.5 512.5,-287.5 670.5,-287.5 670.5,-257.5 512.5,-257.5"/>
<text text-anchor="start" x="520.5" y="-275.5" font-family="Helvetica,sans-Serif" font-size="10.00">src/libs/vpatterndb</text>
<text text-anchor="middle" x="591.5" y="-264.5" font-family="Helvetica,sans-Serif" font-size="10.00">/floatItemData/floatitemdef.h</text>
</a>
</g>
</g>
<!-- Node2 -->
<g id="node2" class="node">
<title>Node2</title>
<g id="a_node2"><a xlink:href="../../d3/d4a/vgrainlinedata_8h.html" target="_top" xlink:title=" ">
<polygon fill="white" stroke="black" points="368.5,-190.5 368.5,-220.5 538.5,-220.5 538.5,-190.5 368.5,-190.5"/>
<text text-anchor="start" x="376.5" y="-208.5" font-family="Helvetica,sans-Serif" font-size="10.00">src/libs/vpatterndb</text>
<text text-anchor="middle" x="453.5" y="-197.5" font-family="Helvetica,sans-Serif" font-size="10.00">/floatItemData/vgrainlinedata.h</text>
</a>
</g>
</g>
<!-- Node1&#45;&gt;Node2 -->
<g id="edge1" class="edge">
<title>Node1&#45;&gt;Node2</title>
<path fill="none" stroke="midnightblue" d="M552.5,-253.13C530.57,-242.8 503.63,-230.11 483.39,-220.58"/>
<polygon fill="midnightblue" stroke="midnightblue" points="551.02,-256.3 561.56,-257.4 554,-249.97 551.02,-256.3"/>
</g>
<!-- Node10 -->
<g id="node10" class="node">
<title>Node10</title>
<g id="a_node10"><a xlink:href="../../dd/d58/vgrainlinedata__p_8h.html" target="_top" xlink:title=" ">
<polygon fill="white" stroke="black" points="85,-190.5 85,-220.5 266,-220.5 266,-190.5 85,-190.5"/>
<text text-anchor="start" x="93" y="-208.5" font-family="Helvetica,sans-Serif" font-size="10.00">src/libs/vpatterndb</text>
<text text-anchor="middle" x="175.5" y="-197.5" font-family="Helvetica,sans-Serif" font-size="10.00">/floatItemData/vgrainlinedata_p.h</text>
</a>
</g>
</g>
<!-- Node1&#45;&gt;Node10 -->
<g id="edge9" class="edge">
<title>Node1&#45;&gt;Node10</title>
<path fill="none" stroke="midnightblue" d="M502.15,-257.54C432.2,-246.61 335.33,-231.47 265.26,-220.53"/>
<polygon fill="midnightblue" stroke="midnightblue" points="501.85,-261.04 512.27,-259.12 502.93,-254.12 501.85,-261.04"/>
</g>
<!-- Node11 -->
<g id="node11" class="node">
<title>Node11</title>
<g id="a_node11"><a xlink:href="../../d8/dbc/vpiecelabeldata_8h.html" target="_top" xlink:title=" ">
<polygon fill="white" stroke="black" points="641,-190.5 641,-220.5 818,-220.5 818,-190.5 641,-190.5"/>
<text text-anchor="start" x="649" y="-208.5" font-family="Helvetica,sans-Serif" font-size="10.00">src/libs/vpatterndb</text>
<text text-anchor="middle" x="729.5" y="-197.5" font-family="Helvetica,sans-Serif" font-size="10.00">/floatItemData/vpiecelabeldata.h</text>
</a>
</g>
</g>
<!-- Node1&#45;&gt;Node11 -->
<g id="edge11" class="edge">
<title>Node1&#45;&gt;Node11</title>
<path fill="none" stroke="midnightblue" d="M630.5,-253.13C652.43,-242.8 679.37,-230.11 699.61,-220.58"/>
<polygon fill="midnightblue" stroke="midnightblue" points="629,-249.97 621.44,-257.4 631.98,-256.3 629,-249.97"/>
</g>
<!-- Node23 -->
<g id="node23" class="node">
<title>Node23</title>
<g id="a_node23"><a xlink:href="../../d1/dd3/vpiecelabeldata__p_8h.html" target="_top" xlink:title=" ">
<polygon fill="white" stroke="black" points="988.5,-190.5 988.5,-220.5 1176.5,-220.5 1176.5,-190.5 988.5,-190.5"/>
<text text-anchor="start" x="996.5" y="-208.5" font-family="Helvetica,sans-Serif" font-size="10.00">src/libs/vpatterndb</text>
<text text-anchor="middle" x="1082.5" y="-197.5" font-family="Helvetica,sans-Serif" font-size="10.00">/floatItemData/vpiecelabeldata_p.h</text>
</a>
</g>
</g>
<!-- Node1&#45;&gt;Node23 -->
<g id="edge29" class="edge">
<title>Node1&#45;&gt;Node23</title>
<path fill="none" stroke="midnightblue" d="M680.78,-259.68C767.83,-248.16 899.71,-230.7 988.38,-218.96"/>
<polygon fill="midnightblue" stroke="midnightblue" points="680.11,-256.24 670.66,-261.02 681.03,-263.18 680.11,-256.24"/>
</g>
<!-- Node3 -->
<g id="node3" class="node">
<title>Node3</title>
<g id="a_node3"><a xlink:href="../../d6/d2f/vlayoutpiece__p_8h.html" target="_top" xlink:title=" ">
<polygon fill="white" stroke="black" points="525,-129 525,-148 702,-148 702,-129 525,-129"/>
<text text-anchor="middle" x="613.5" y="-136" font-family="Helvetica,sans-Serif" font-size="10.00">src/libs/vlayout/vlayoutpiece_p.h</text>
</a>
</g>
</g>
<!-- Node2&#45;&gt;Node3 -->
<g id="edge2" class="edge">
<title>Node2&#45;&gt;Node3</title>
<path fill="none" stroke="midnightblue" d="M497.51,-186.62C528.48,-174.04 568.54,-157.77 592.56,-148.01"/>
<polygon fill="midnightblue" stroke="midnightblue" points="496.16,-183.39 488.22,-190.4 498.8,-189.87 496.16,-183.39"/>
</g>
<!-- Node5 -->
<g id="node5" class="node">
<title>Node5</title>
<g id="a_node5"><a xlink:href="../../de/d65/vgrainlinedata_8cpp.html" target="_top" xlink:title=" ">
<polygon fill="white" stroke="black" points="0,-123.5 0,-153.5 181,-153.5 181,-123.5 0,-123.5"/>
<text text-anchor="start" x="8" y="-141.5" font-family="Helvetica,sans-Serif" font-size="10.00">src/libs/vpatterndb</text>
<text text-anchor="middle" x="90.5" y="-130.5" font-family="Helvetica,sans-Serif" font-size="10.00">/floatItemData/vgrainlinedata.cpp</text>
</a>
</g>
</g>
<!-- Node2&#45;&gt;Node5 -->
<g id="edge4" class="edge">
<title>Node2&#45;&gt;Node5</title>
<path fill="none" stroke="midnightblue" d="M364.98,-188.65C305.08,-177.92 226.66,-163.88 168.99,-153.55"/>
<polygon fill="midnightblue" stroke="midnightblue" points="364.72,-192.16 375.18,-190.48 365.95,-185.27 364.72,-192.16"/>
</g>
<!-- Node6 -->
<g id="node6" class="node">
<title>Node6</title>
<g id="a_node6"><a xlink:href="../../d8/da5/vpiece__p_8h.html" target="_top" xlink:title=" ">
<polygon fill="white" stroke="black" points="400,-123.5 400,-153.5 507,-153.5 507,-123.5 400,-123.5"/>
<text text-anchor="start" x="408" y="-141.5" font-family="Helvetica,sans-Serif" font-size="10.00">src/libs/vpatterndb</text>
<text text-anchor="middle" x="453.5" y="-130.5" font-family="Helvetica,sans-Serif" font-size="10.00">/vpiece_p.h</text>
</a>
</g>
</g>
<!-- Node2&#45;&gt;Node6 -->
<g id="edge5" class="edge">
<title>Node2&#45;&gt;Node6</title>
<path fill="none" stroke="midnightblue" d="M453.5,-180.11C453.5,-171.15 453.5,-161.32 453.5,-153.58"/>
<polygon fill="midnightblue" stroke="midnightblue" points="450,-180.4 453.5,-190.4 457,-180.4 450,-180.4"/>
</g>
<!-- Node8 -->
<g id="node8" class="node">
<title>Node8</title>
<g id="a_node8"><a xlink:href="../../de/d1b/vgrainlineitem_8h.html" target="_top" xlink:title=" ">
<polygon fill="white" stroke="black" points="199.5,-129 199.5,-148 381.5,-148 381.5,-129 199.5,-129"/>
<text text-anchor="middle" x="290.5" y="-136" font-family="Helvetica,sans-Serif" font-size="10.00">src/libs/vwidgets/vgrainlineitem.h</text>
</a>
</g>
</g>
<!-- Node2&#45;&gt;Node8 -->
<g id="edge7" class="edge">
<title>Node2&#45;&gt;Node8</title>
<path fill="none" stroke="midnightblue" d="M408.67,-186.62C377.12,-174.04 336.31,-157.77 311.83,-148.01"/>
<polygon fill="midnightblue" stroke="midnightblue" points="407.55,-189.94 418.13,-190.4 410.14,-183.44 407.55,-189.94"/>
</g>
<!-- Node4 -->
<g id="node4" class="node">
<title>Node4</title>
<g id="a_node4"><a xlink:href="../../dd/d70/vlayoutpiece_8cpp.html" target="_top" xlink:title=" ">
<polygon fill="white" stroke="black" points="492,-62 492,-81 669,-81 669,-62 492,-62"/>
<text text-anchor="middle" x="580.5" y="-69" font-family="Helvetica,sans-Serif" font-size="10.00">src/libs/vlayout/vlayoutpiece.cpp</text>
</a>
</g>
</g>
<!-- Node3&#45;&gt;Node4 -->
<g id="edge3" class="edge">
<title>Node3&#45;&gt;Node4</title>
<path fill="none" stroke="midnightblue" d="M604.44,-119.66C598.08,-107.13 589.85,-90.91 584.88,-81.13"/>
<polygon fill="midnightblue" stroke="midnightblue" points="601.4,-121.4 609.05,-128.73 607.64,-118.23 601.4,-121.4"/>
</g>
<!-- Node7 -->
<g id="node7" class="node">
<title>Node7</title>
<g id="a_node7"><a xlink:href="../../df/d7a/vpiece_8cpp.html" target="_top" xlink:title=" ">
<polygon fill="white" stroke="black" points="367,-56.5 367,-86.5 474,-86.5 474,-56.5 367,-56.5"/>
<text text-anchor="start" x="375" y="-74.5" font-family="Helvetica,sans-Serif" font-size="10.00">src/libs/vpatterndb</text>
<text text-anchor="middle" x="420.5" y="-63.5" font-family="Helvetica,sans-Serif" font-size="10.00">/vpiece.cpp</text>
</a>
</g>
</g>
<!-- Node6&#45;&gt;Node7 -->
<g id="edge6" class="edge">
<title>Node6&#45;&gt;Node7</title>
<path fill="none" stroke="midnightblue" d="M441.71,-114.28C437.01,-105.02 431.75,-94.66 427.65,-86.58"/>
<polygon fill="midnightblue" stroke="midnightblue" points="438.69,-116.06 446.34,-123.4 444.93,-112.89 438.69,-116.06"/>
</g>
<!-- Node9 -->
<g id="node9" class="node">
<title>Node9</title>
<g id="a_node9"><a xlink:href="../../d1/d90/vgrainlineitem_8cpp.html" target="_top" xlink:title=" ">
<polygon fill="white" stroke="black" points="156,-62 156,-81 349,-81 349,-62 156,-62"/>
<text text-anchor="middle" x="252.5" y="-69" font-family="Helvetica,sans-Serif" font-size="10.00">src/libs/vwidgets/vgrainlineitem.cpp</text>
</a>
</g>
</g>
<!-- Node8&#45;&gt;Node9 -->
<g id="edge8" class="edge">
<title>Node8&#45;&gt;Node9</title>
<path fill="none" stroke="midnightblue" d="M280.29,-120.03C272.93,-107.45 263.32,-91.01 257.54,-81.13"/>
<polygon fill="midnightblue" stroke="midnightblue" points="277.31,-121.87 285.38,-128.73 283.35,-118.33 277.31,-121.87"/>
</g>
<!-- Node10&#45;&gt;Node5 -->
<g id="edge10" class="edge">
<title>Node10&#45;&gt;Node5</title>
<path fill="none" stroke="midnightblue" d="M148.91,-184.17C135.91,-174.23 120.6,-162.51 108.91,-153.58"/>
<polygon fill="midnightblue" stroke="midnightblue" points="146.99,-187.1 157.06,-190.4 151.24,-181.54 146.99,-187.1"/>
</g>
<!-- Node11&#45;&gt;Node3 -->
<g id="edge24" class="edge">
<title>Node11&#45;&gt;Node3</title>
<path fill="none" stroke="midnightblue" d="M695.54,-185.47C673.4,-173.06 645.57,-157.47 628.68,-148.01"/>
<polygon fill="midnightblue" stroke="midnightblue" points="693.9,-188.56 704.33,-190.4 697.32,-182.45 693.9,-188.56"/>
</g>
<!-- Node11&#45;&gt;Node4 -->
<g id="edge25" class="edge">
<title>Node11&#45;&gt;Node4</title>
<path fill="none" stroke="midnightblue" d="M729.98,-180.16C729.06,-162.39 725.03,-138.74 711.5,-123 692.19,-100.54 661.7,-88.03 635,-81.08"/>
<polygon fill="midnightblue" stroke="midnightblue" points="726.48,-180.43 730.2,-190.35 733.48,-180.27 726.48,-180.43"/>
</g>
<!-- Node11&#45;&gt;Node6 -->
<g id="edge28" class="edge">
<title>Node11&#45;&gt;Node6</title>
<path fill="none" stroke="midnightblue" d="M660.08,-188.15C612.74,-177 550.96,-162.45 507.33,-152.18"/>
<polygon fill="midnightblue" stroke="midnightblue" points="659.42,-191.59 669.95,-190.48 661.02,-184.78 659.42,-191.59"/>
</g>
<!-- Node12 -->
<g id="node12" class="node">
<title>Node12</title>
<g id="a_node12"><a xlink:href="../../d6/de0/vlayoutpiece_8h.html" target="_top" xlink:title=" ">
<polygon fill="white" stroke="black" points="822.5,-129 822.5,-148 988.5,-148 988.5,-129 822.5,-129"/>
<text text-anchor="middle" x="905.5" y="-136" font-family="Helvetica,sans-Serif" font-size="10.00">src/libs/vlayout/vlayoutpiece.h</text>
</a>
</g>
</g>
<!-- Node11&#45;&gt;Node12 -->
<g id="edge12" class="edge">
<title>Node11&#45;&gt;Node12</title>
<path fill="none" stroke="midnightblue" d="M777.47,-186.78C811.6,-174.18 855.93,-157.81 882.47,-148.01"/>
<polygon fill="midnightblue" stroke="midnightblue" points="775.86,-183.65 767.69,-190.4 778.28,-190.21 775.86,-183.65"/>
</g>
<!-- Node21 -->
<g id="node21" class="node">
<title>Node21</title>
<g id="a_node21"><a xlink:href="../../d8/d70/vtextmanager_8cpp.html" target="_top" xlink:title=" ">
<polygon fill="white" stroke="black" points="1006.5,-129 1006.5,-148 1188.5,-148 1188.5,-129 1006.5,-129"/>
<text text-anchor="middle" x="1097.5" y="-136" font-family="Helvetica,sans-Serif" font-size="10.00">src/libs/vlayout/vtextmanager.cpp</text>
</a>
</g>
</g>
<!-- Node11&#45;&gt;Node21 -->
<g id="edge26" class="edge">
<title>Node11&#45;&gt;Node21</title>
<path fill="none" stroke="midnightblue" d="M818.94,-188.7C891.45,-175.9 990.85,-158.34 1049.21,-148.03"/>
<polygon fill="midnightblue" stroke="midnightblue" points="818.14,-185.29 808.9,-190.48 819.35,-192.18 818.14,-185.29"/>
</g>
<!-- Node22 -->
<g id="node22" class="node">
<title>Node22</title>
<g id="a_node22"><a xlink:href="../../de/d4a/vpiecelabeldata_8cpp.html" target="_top" xlink:title=" ">
<polygon fill="white" stroke="black" points="1206.5,-123.5 1206.5,-153.5 1394.5,-153.5 1394.5,-123.5 1206.5,-123.5"/>
<text text-anchor="start" x="1214.5" y="-141.5" font-family="Helvetica,sans-Serif" font-size="10.00">src/libs/vpatterndb</text>
<text text-anchor="middle" x="1300.5" y="-130.5" font-family="Helvetica,sans-Serif" font-size="10.00">/floatItemData/vpiecelabeldata.cpp</text>
</a>
</g>
</g>
<!-- Node11&#45;&gt;Node22 -->
<g id="edge27" class="edge">
<title>Node11&#45;&gt;Node22</title>
<path fill="none" stroke="midnightblue" d="M828.16,-194.79C922.95,-185.24 1070.15,-169.83 1197.5,-154 1200.46,-153.63 1203.46,-153.25 1206.49,-152.86"/>
<polygon fill="midnightblue" stroke="midnightblue" points="827.61,-191.33 818.01,-195.81 828.31,-198.29 827.61,-191.33"/>
</g>
<!-- Node12&#45;&gt;Node4 -->
<g id="edge23" class="edge">
<title>Node12&#45;&gt;Node4</title>
<path fill="none" stroke="midnightblue" d="M852.79,-126.96C788.82,-114.16 682.22,-92.84 623.16,-81.03"/>
<polygon fill="midnightblue" stroke="midnightblue" points="852.19,-130.41 862.68,-128.94 853.56,-123.54 852.19,-130.41"/>
</g>
<!-- Node13 -->
<g id="node13" class="node">
<title>Node13</title>
<g id="a_node13"><a xlink:href="../../dd/d66/vdxfengine_8cpp.html" target="_top" xlink:title=" ">
<polygon fill="white" stroke="black" points="687.5,-62 687.5,-81 841.5,-81 841.5,-62 687.5,-62"/>
<text text-anchor="middle" x="764.5" y="-69" font-family="Helvetica,sans-Serif" font-size="10.00">src/libs/vdxf/vdxfengine.cpp</text>
</a>
</g>
</g>
<!-- Node12&#45;&gt;Node13 -->
<g id="edge13" class="edge">
<title>Node12&#45;&gt;Node13</title>
<path fill="none" stroke="midnightblue" d="M877.54,-124.61C849.62,-111.74 807.46,-92.31 783.3,-81.17"/>
<polygon fill="midnightblue" stroke="midnightblue" points="876.23,-127.86 886.78,-128.87 879.16,-121.5 876.23,-127.86"/>
</g>
<!-- Node14 -->
<g id="node14" class="node">
<title>Node14</title>
<g id="a_node14"><a xlink:href="../../df/d5d/vcontour_8cpp.html" target="_top" xlink:title=" ">
<polygon fill="white" stroke="black" points="859.5,-62 859.5,-81 1015.5,-81 1015.5,-62 859.5,-62"/>
<text text-anchor="middle" x="937.5" y="-69" font-family="Helvetica,sans-Serif" font-size="10.00">src/libs/vlayout/vcontour.cpp</text>
</a>
</g>
</g>
<!-- Node12&#45;&gt;Node14 -->
<g id="edge14" class="edge">
<title>Node12&#45;&gt;Node14</title>
<path fill="none" stroke="midnightblue" d="M914.28,-119.66C920.45,-107.13 928.44,-90.91 933.25,-81.13"/>
<polygon fill="midnightblue" stroke="midnightblue" points="911.09,-118.22 909.82,-128.73 917.37,-121.31 911.09,-118.22"/>
</g>
<!-- Node15 -->
<g id="node15" class="node">
<title>Node15</title>
<g id="a_node15"><a xlink:href="../../d3/d39/vlayoutgenerator_8cpp.html" target="_top" xlink:title=" ">
<polygon fill="white" stroke="black" points="1034,-62 1034,-81 1231,-81 1231,-62 1034,-62"/>
<text text-anchor="middle" x="1132.5" y="-69" font-family="Helvetica,sans-Serif" font-size="10.00">src/libs/vlayout/vlayoutgenerator.cpp</text>
</a>
</g>
</g>
<!-- Node12&#45;&gt;Node15 -->
<g id="edge15" class="edge">
<title>Node12&#45;&gt;Node15</title>
<path fill="none" stroke="midnightblue" d="M945.34,-126.09C990.25,-113.23 1062.24,-92.62 1102.59,-81.06"/>
<polygon fill="midnightblue" stroke="midnightblue" points="944.29,-122.75 935.64,-128.87 946.22,-129.48 944.29,-122.75"/>
</g>
<!-- Node16 -->
<g id="node16" class="node">
<title>Node16</title>
<g id="a_node16"><a xlink:href="../../de/da8/vbank_8cpp.html" target="_top" xlink:title=" ">
<polygon fill="white" stroke="black" points="1249.5,-62 1249.5,-81 1393.5,-81 1393.5,-62 1249.5,-62"/>
<text text-anchor="middle" x="1321.5" y="-69" font-family="Helvetica,sans-Serif" font-size="10.00">src/libs/vlayout/vbank.cpp</text>
</a>
</g>
</g>
<!-- Node12&#45;&gt;Node16 -->
<g id="edge16" class="edge">
<title>Node12&#45;&gt;Node16</title>
<path fill="none" stroke="midnightblue" d="M968.89,-127.43C978.47,-125.93 988.25,-124.41 997.5,-123 1105.42,-106.5 1132.75,-104.62 1240.5,-87 1251.78,-85.16 1263.92,-83.05 1275.28,-81.02"/>
<polygon fill="midnightblue" stroke="midnightblue" points="968.34,-123.97 959,-128.98 969.42,-130.89 968.34,-123.97"/>
</g>
<!-- Node17 -->
<g id="node17" class="node">
<title>Node17</title>
<g id="a_node17"><a xlink:href="../../d1/dd1/vlayoutpaper_8cpp.html" target="_top" xlink:title=" ">
<polygon fill="white" stroke="black" points="1448.5,-0.5 1448.5,-19.5 1626.5,-19.5 1626.5,-0.5 1448.5,-0.5"/>
<text text-anchor="middle" x="1537.5" y="-7.5" font-family="Helvetica,sans-Serif" font-size="10.00">src/libs/vlayout/vlayoutpaper.cpp</text>
</a>
</g>
</g>
<!-- Node12&#45;&gt;Node17 -->
<g id="edge17" class="edge">
<title>Node12&#45;&gt;Node17</title>
<path fill="none" stroke="midnightblue" d="M965.59,-127.43C976.2,-125.82 987.16,-124.27 997.5,-123 1176.86,-100.92 1234.69,-154.05 1402.5,-87 1423.06,-78.78 1422.68,-67.67 1441.5,-56 1465.59,-41.06 1495.44,-27.81 1515.4,-19.63"/>
<polygon fill="midnightblue" stroke="midnightblue" points="964.9,-124 955.55,-128.98 965.97,-130.91 964.9,-124"/>
</g>
<!-- Node18 -->
<g id="node18" class="node">
<title>Node18</title>
<g id="a_node18"><a xlink:href="../../d2/d2d/vlayoutpaper__p_8h.html" target="_top" xlink:title=" ">
<polygon fill="white" stroke="black" points="1450,-62 1450,-81 1629,-81 1629,-62 1450,-62"/>
<text text-anchor="middle" x="1539.5" y="-69" font-family="Helvetica,sans-Serif" font-size="10.00">src/libs/vlayout/vlayoutpaper_p.h</text>
</a>
</g>
</g>
<!-- Node12&#45;&gt;Node18 -->
<g id="edge18" class="edge">
<title>Node12&#45;&gt;Node18</title>
<path fill="none" stroke="midnightblue" d="M965.21,-127.43C975.94,-125.81 987.04,-124.25 997.5,-123 1191.44,-99.78 1241.36,-108.49 1435.5,-87 1450.81,-85.3 1467.35,-83.15 1482.63,-81.02"/>
<polygon fill="midnightblue" stroke="midnightblue" points="964.41,-124.01 955.06,-129 965.48,-130.93 964.41,-124.01"/>
</g>
<!-- Node19 -->
<g id="node19" class="node">
<title>Node19</title>
<g id="a_node19"><a xlink:href="../../db/d5c/vposition_8h.html" target="_top" xlink:title=" ">
<polygon fill="white" stroke="black" points="1647.5,-62 1647.5,-81 1795.5,-81 1795.5,-62 1647.5,-62"/>
<text text-anchor="middle" x="1721.5" y="-69" font-family="Helvetica,sans-Serif" font-size="10.00">src/libs/vlayout/vposition.h</text>
</a>
</g>
</g>
<!-- Node12&#45;&gt;Node19 -->
<g id="edge20" class="edge">
<title>Node12&#45;&gt;Node19</title>
<path fill="none" stroke="midnightblue" d="M963.72,-127.42C974.9,-125.74 986.54,-124.17 997.5,-123 1281.23,-92.75 1355.03,-119.61 1638.5,-87 1651.43,-85.51 1665.41,-83.31 1678.13,-81.06"/>
<polygon fill="midnightblue" stroke="midnightblue" points="962.95,-124 953.6,-128.99 964.02,-130.92 962.95,-124"/>
</g>
<!-- Node18&#45;&gt;Node17 -->
<g id="edge19" class="edge">
<title>Node18&#45;&gt;Node17</title>
<path fill="none" stroke="midnightblue" d="M1538.87,-51.82C1538.51,-41 1538.07,-27.9 1537.79,-19.51"/>
<polygon fill="midnightblue" stroke="midnightblue" points="1535.38,-52.1 1539.21,-61.98 1542.38,-51.86 1535.38,-52.1"/>
</g>
<!-- Node19&#45;&gt;Node17 -->
<g id="edge21" class="edge">
<title>Node19&#45;&gt;Node17</title>
<path fill="none" stroke="midnightblue" d="M1685.57,-58.88C1649.8,-47.32 1595.76,-29.84 1563.81,-19.51"/>
<polygon fill="midnightblue" stroke="midnightblue" points="1684.55,-62.23 1695.14,-61.98 1686.7,-55.57 1684.55,-62.23"/>
</g>
<!-- Node20 -->
<g id="node20" class="node">
<title>Node20</title>
<g id="a_node20"><a xlink:href="../../df/d76/vposition_8cpp.html" target="_top" xlink:title=" ">
<polygon fill="white" stroke="black" points="1644,-0.5 1644,-19.5 1803,-19.5 1803,-0.5 1644,-0.5"/>
<text text-anchor="middle" x="1723.5" y="-7.5" font-family="Helvetica,sans-Serif" font-size="10.00">src/libs/vlayout/vposition.cpp</text>
</a>
</g>
</g>
<!-- Node19&#45;&gt;Node20 -->
<g id="edge22" class="edge">
<title>Node19&#45;&gt;Node20</title>
<path fill="none" stroke="midnightblue" d="M1722.13,-51.82C1722.49,-41 1722.93,-27.9 1723.21,-19.51"/>
<polygon fill="midnightblue" stroke="midnightblue" points="1718.62,-51.86 1721.79,-61.98 1725.62,-52.1 1718.62,-51.86"/>
</g>
<!-- Node23&#45;&gt;Node22 -->
<g id="edge30" class="edge">
<title>Node23&#45;&gt;Node22</title>
<path fill="none" stroke="midnightblue" d="M1139.25,-187.58C1174.66,-177.02 1219.7,-163.59 1253.17,-153.61"/>
<polygon fill="midnightblue" stroke="midnightblue" points="1138.12,-184.26 1129.53,-190.48 1140.12,-190.97 1138.12,-184.26"/>
</g>
</g>
</svg>
