<?xml version="1.0" encoding="UTF-8" standalone="no"?>
<!DOCTYPE svg PUBLIC "-//W3C//DTD SVG 1.1//EN"
 "http://www.w3.org/Graphics/SVG/1.1/DTD/svg11.dtd">
<!-- Generated by graphviz version 2.43.0 (0)
 -->
<!-- Title: src/app/seamly2d/dialogs/abstractlayout_dialog.h Pages: 1 -->
<svg width="4178pt" height="307pt"
 viewBox="0.00 0.00 4177.50 307.00" xmlns="http://www.w3.org/2000/svg" xmlns:xlink="http://www.w3.org/1999/xlink">
<g id="graph0" class="graph" transform="scale(1 1) rotate(0) translate(4 303)">
<title>src/app/seamly2d/dialogs/abstractlayout_dialog.h</title>
<polygon fill="white" stroke="transparent" points="-4,4 -4,-303 4173.5,-303 4173.5,4 -4,4"/>
<!-- Node1 -->
<g id="node1" class="node">
<title>Node1</title>
<g id="a_node1"><a xlink:title=" ">
<polygon fill="#bfbfbf" stroke="black" points="276.5,-268.5 276.5,-298.5 417.5,-298.5 417.5,-268.5 276.5,-268.5"/>
<text text-anchor="start" x="284.5" y="-286.5" font-family="Helvetica,sans-Serif" font-size="10.00">src/app/seamly2d/dialogs</text>
<text text-anchor="middle" x="347" y="-275.5" font-family="Helvetica,sans-Serif" font-size="10.00">/abstractlayout_dialog.h</text>
</a>
</g>
</g>
<!-- Node2 -->
<g id="node2" class="node">
<title>Node2</title>
<g id="a_node2"><a xlink:href="../../dd/db4/abstractlayout__dialog_8cpp.html" target="_top" xlink:title=" ">
<polygon fill="white" stroke="black" points="0,-0.5 0,-30.5 146,-30.5 146,-0.5 0,-0.5"/>
<text text-anchor="start" x="8" y="-18.5" font-family="Helvetica,sans-Serif" font-size="10.00">src/app/seamly2d/dialogs</text>
<text text-anchor="middle" x="73" y="-7.5" font-family="Helvetica,sans-Serif" font-size="10.00">/abstractlayout_dialog.cpp</text>
</a>
</g>
</g>
<!-- Node1&#45;&gt;Node2 -->
<g id="edge1" class="edge">
<title>Node1&#45;&gt;Node2</title>
<path fill="none" stroke="midnightblue" d="M312.15,-263.36C297.57,-254.64 280.83,-243.66 267,-232 187.91,-165.32 110.79,-66.83 83.44,-30.56"/>
<polygon fill="midnightblue" stroke="midnightblue" points="310.51,-266.45 320.91,-268.48 314.05,-260.41 310.51,-266.45"/>
</g>
<!-- Node3 -->
<g id="node3" class="node">
<title>Node3</title>
<g id="a_node3"><a xlink:href="../../d1/d8e/export__layout__dialog_8h.html" target="_top" xlink:title=" ">
<polygon fill="white" stroke="black" points="276.5,-201.5 276.5,-231.5 417.5,-231.5 417.5,-201.5 276.5,-201.5"/>
<text text-anchor="start" x="284.5" y="-219.5" font-family="Helvetica,sans-Serif" font-size="10.00">src/app/seamly2d/dialogs</text>
<text text-anchor="middle" x="347" y="-208.5" font-family="Helvetica,sans-Serif" font-size="10.00">/export_layout_dialog.h</text>
</a>
</g>
</g>
<!-- Node1&#45;&gt;Node3 -->
<g id="edge2" class="edge">
<title>Node1&#45;&gt;Node3</title>
<path fill="none" stroke="midnightblue" d="M347,-258.11C347,-249.15 347,-239.32 347,-231.58"/>
<polygon fill="midnightblue" stroke="midnightblue" points="343.5,-258.4 347,-268.4 350.5,-258.4 343.5,-258.4"/>
</g>
<!-- Node11 -->
<g id="node11" class="node">
<title>Node11</title>
<g id="a_node11"><a xlink:href="../../d3/dd8/layoutsettings__dialog_8h.html" target="_top" xlink:title=" ">
<polygon fill="white" stroke="black" points="1800.5,-201.5 1800.5,-231.5 1941.5,-231.5 1941.5,-201.5 1800.5,-201.5"/>
<text text-anchor="start" x="1808.5" y="-219.5" font-family="Helvetica,sans-Serif" font-size="10.00">src/app/seamly2d/dialogs</text>
<text text-anchor="middle" x="1871" y="-208.5" font-family="Helvetica,sans-Serif" font-size="10.00">/layoutsettings_dialog.h</text>
</a>
</g>
</g>
<!-- Node1&#45;&gt;Node11 -->
<g id="edge11" class="edge">
<title>Node1&#45;&gt;Node11</title>
<path fill="none" stroke="midnightblue" d="M427.72,-279.06C695.03,-267.66 1548.68,-231.25 1800.46,-220.51"/>
<polygon fill="midnightblue" stroke="midnightblue" points="427.54,-275.56 417.7,-279.48 427.84,-282.56 427.54,-275.56"/>
</g>
<!-- Node4 -->
<g id="node4" class="node">
<title>Node4</title>
<g id="a_node4"><a xlink:href="../../dd/d54/export__layout__dialog_8cpp.html" target="_top" xlink:title=" ">
<polygon fill="white" stroke="black" points="403.5,-0.5 403.5,-30.5 546.5,-30.5 546.5,-0.5 403.5,-0.5"/>
<text text-anchor="start" x="411.5" y="-18.5" font-family="Helvetica,sans-Serif" font-size="10.00">src/app/seamly2d/dialogs</text>
<text text-anchor="middle" x="475" y="-7.5" font-family="Helvetica,sans-Serif" font-size="10.00">/export_layout_dialog.cpp</text>
</a>
</g>
</g>
<!-- Node3&#45;&gt;Node4 -->
<g id="edge3" class="edge">
<title>Node3&#45;&gt;Node4</title>
<path fill="none" stroke="midnightblue" d="M349.32,-191.33C351.7,-174.47 356.49,-151.89 366,-134 389.11,-90.51 432.37,-50.99 456.87,-30.74"/>
<polygon fill="midnightblue" stroke="midnightblue" points="345.82,-191.12 348.07,-201.47 352.76,-191.97 345.82,-191.12"/>
</g>
<!-- Node5 -->
<g id="node5" class="node">
<title>Node5</title>
<g id="a_node5"><a xlink:href="../../d8/de8/mainwindowsnogui_8cpp.html" target="_top" xlink:title=" ">
<polygon fill="white" stroke="black" points="164.5,-6 164.5,-25 385.5,-25 385.5,-6 164.5,-6"/>
<text text-anchor="middle" x="275" y="-13" font-family="Helvetica,sans-Serif" font-size="10.00">src/app/seamly2d/mainwindowsnogui.cpp</text>
</a>
</g>
</g>
<!-- Node3&#45;&gt;Node5 -->
<g id="edge4" class="edge">
<title>Node3&#45;&gt;Node5</title>
<path fill="none" stroke="midnightblue" d="M338.33,-191.53C322.29,-147.21 288.7,-54.38 278.21,-25.36"/>
<polygon fill="midnightblue" stroke="midnightblue" points="335.13,-192.98 341.82,-201.19 341.71,-190.59 335.13,-192.98"/>
</g>
<!-- Node6 -->
<g id="node6" class="node">
<title>Node6</title>
<g id="a_node6"><a xlink:href="../../d1/d82/mainwindowsnogui_8h.html" target="_top" xlink:title=" ">
<polygon fill="white" stroke="black" points="375.5,-140 375.5,-159 584.5,-159 584.5,-140 375.5,-140"/>
<text text-anchor="middle" x="480" y="-147" font-family="Helvetica,sans-Serif" font-size="10.00">src/app/seamly2d/mainwindowsnogui.h</text>
</a>
</g>
</g>
<!-- Node3&#45;&gt;Node6 -->
<g id="edge5" class="edge">
<title>Node3&#45;&gt;Node6</title>
<path fill="none" stroke="midnightblue" d="M384.92,-196.97C410.47,-184.48 442.97,-168.6 462.59,-159.01"/>
<polygon fill="midnightblue" stroke="midnightblue" points="383.31,-193.86 375.86,-201.4 386.38,-200.15 383.31,-193.86"/>
</g>
<!-- Node6&#45;&gt;Node5 -->
<g id="edge10" class="edge">
<title>Node6&#45;&gt;Node5</title>
<path fill="none" stroke="midnightblue" d="M458.02,-134.35C415.4,-106.9 322.68,-47.2 288.23,-25.02"/>
<polygon fill="midnightblue" stroke="midnightblue" points="456.25,-137.37 466.55,-139.84 460.04,-131.48 456.25,-137.37"/>
</g>
<!-- Node7 -->
<g id="node7" class="node">
<title>Node7</title>
<g id="a_node7"><a xlink:href="../../d9/d53/mainwindow_8h.html" target="_top" xlink:title=" ">
<polygon fill="white" stroke="black" points="697,-73 697,-92 873,-92 873,-73 697,-73"/>
<text text-anchor="middle" x="785" y="-80" font-family="Helvetica,sans-Serif" font-size="10.00">src/app/seamly2d/mainwindow.h</text>
</a>
</g>
</g>
<!-- Node6&#45;&gt;Node7 -->
<g id="edge6" class="edge">
<title>Node6&#45;&gt;Node7</title>
<path fill="none" stroke="midnightblue" d="M530.19,-137.8C590.21,-125.01 689.48,-103.86 744.72,-92.08"/>
<polygon fill="midnightblue" stroke="midnightblue" points="529.24,-134.43 520.19,-139.94 530.7,-141.27 529.24,-134.43"/>
</g>
<!-- Node8 -->
<g id="node8" class="node">
<title>Node8</title>
<g id="a_node8"><a xlink:href="../../d3/dd8/vapplication_8cpp.html" target="_top" xlink:title=" ">
<polygon fill="white" stroke="black" points="564.5,-0.5 564.5,-30.5 691.5,-30.5 691.5,-0.5 564.5,-0.5"/>
<text text-anchor="start" x="572.5" y="-18.5" font-family="Helvetica,sans-Serif" font-size="10.00">src/app/seamly2d/core</text>
<text text-anchor="middle" x="628" y="-7.5" font-family="Helvetica,sans-Serif" font-size="10.00">/vapplication.cpp</text>
</a>
</g>
</g>
<!-- Node7&#45;&gt;Node8 -->
<g id="edge7" class="edge">
<title>Node7&#45;&gt;Node8</title>
<path fill="none" stroke="midnightblue" d="M754.6,-68.91C728.01,-57.91 689.45,-41.94 661.88,-30.53"/>
<polygon fill="midnightblue" stroke="midnightblue" points="753.57,-72.28 764.15,-72.87 756.25,-65.81 753.57,-72.28"/>
</g>
<!-- Node9 -->
<g id="node9" class="node">
<title>Node9</title>
<g id="a_node9"><a xlink:href="../../dc/d14/app_2seamly2d_2main_8cpp.html" target="_top" xlink:title=" ">
<polygon fill="white" stroke="black" points="709.5,-6 709.5,-25 860.5,-25 860.5,-6 709.5,-6"/>
<text text-anchor="middle" x="785" y="-13" font-family="Helvetica,sans-Serif" font-size="10.00">src/app/seamly2d/main.cpp</text>
</a>
</g>
</g>
<!-- Node7&#45;&gt;Node9 -->
<g id="edge8" class="edge">
<title>Node7&#45;&gt;Node9</title>
<path fill="none" stroke="midnightblue" d="M785,-62.54C785,-50.17 785,-34.62 785,-25.13"/>
<polygon fill="midnightblue" stroke="midnightblue" points="781.5,-62.73 785,-72.73 788.5,-62.73 781.5,-62.73"/>
</g>
<!-- Node10 -->
<g id="node10" class="node">
<title>Node10</title>
<g id="a_node10"><a xlink:href="../../d8/dd9/mainwindow_8cpp.html" target="_top" xlink:title=" ">
<polygon fill="white" stroke="black" points="879,-6 879,-25 1067,-25 1067,-6 879,-6"/>
<text text-anchor="middle" x="973" y="-13" font-family="Helvetica,sans-Serif" font-size="10.00">src/app/seamly2d/mainwindow.cpp</text>
</a>
</g>
</g>
<!-- Node7&#45;&gt;Node10 -->
<g id="edge9" class="edge">
<title>Node7&#45;&gt;Node10</title>
<path fill="none" stroke="midnightblue" d="M819.89,-69.44C857.19,-56.54 915.37,-36.42 948.23,-25.06"/>
<polygon fill="midnightblue" stroke="midnightblue" points="818.27,-66.29 809.96,-72.87 820.56,-72.91 818.27,-66.29"/>
</g>
<!-- Node11&#45;&gt;Node5 -->
<g id="edge41" class="edge">
<title>Node11&#45;&gt;Node5</title>
<path fill="none" stroke="midnightblue" d="M1790.38,-210.17C1598.6,-196.91 1100.44,-159.03 688,-98 548.29,-77.32 384.16,-41.42 312.09,-25.06"/>
<polygon fill="midnightblue" stroke="midnightblue" points="1790.16,-213.66 1800.37,-210.86 1790.64,-206.68 1790.16,-213.66"/>
</g>
<!-- Node12 -->
<g id="node12" class="node">
<title>Node12</title>
<g id="a_node12"><a xlink:href="../../df/d9b/vcmdexport_8cpp.html" target="_top" xlink:title=" ">
<polygon fill="white" stroke="black" points="1952.5,-67.5 1952.5,-97.5 2079.5,-97.5 2079.5,-67.5 1952.5,-67.5"/>
<text text-anchor="start" x="1960.5" y="-85.5" font-family="Helvetica,sans-Serif" font-size="10.00">src/app/seamly2d/core</text>
<text text-anchor="middle" x="2016" y="-74.5" font-family="Helvetica,sans-Serif" font-size="10.00">/vcmdexport.cpp</text>
</a>
</g>
</g>
<!-- Node11&#45;&gt;Node12 -->
<g id="edge12" class="edge">
<title>Node11&#45;&gt;Node12</title>
<path fill="none" stroke="midnightblue" d="M1902.4,-195.76C1915.47,-186.98 1930.48,-176.12 1943,-165 1967.15,-143.56 1991.42,-114.66 2005,-97.65"/>
<polygon fill="midnightblue" stroke="midnightblue" points="1900.14,-193.06 1893.72,-201.49 1903.99,-198.91 1900.14,-193.06"/>
</g>
<!-- Node13 -->
<g id="node13" class="node">
<title>Node13</title>
<g id="a_node13"><a xlink:href="../../dd/d57/vcmdexport_8h.html" target="_top" xlink:title=" ">
<polygon fill="white" stroke="black" points="1807.5,-134.5 1807.5,-164.5 1934.5,-164.5 1934.5,-134.5 1807.5,-134.5"/>
<text text-anchor="start" x="1815.5" y="-152.5" font-family="Helvetica,sans-Serif" font-size="10.00">src/app/seamly2d/core</text>
<text text-anchor="middle" x="1871" y="-141.5" font-family="Helvetica,sans-Serif" font-size="10.00">/vcmdexport.h</text>
</a>
</g>
</g>
<!-- Node11&#45;&gt;Node13 -->
<g id="edge13" class="edge">
<title>Node11&#45;&gt;Node13</title>
<path fill="none" stroke="midnightblue" d="M1871,-191.11C1871,-182.15 1871,-172.32 1871,-164.58"/>
<polygon fill="midnightblue" stroke="midnightblue" points="1867.5,-191.4 1871,-201.4 1874.5,-191.4 1867.5,-191.4"/>
</g>
<!-- Node28 -->
<g id="node28" class="node">
<title>Node28</title>
<g id="a_node28"><a xlink:href="../../d0/dfa/layoutsettings__dialog_8cpp.html" target="_top" xlink:title=" ">
<polygon fill="white" stroke="black" points="4024.5,-0.5 4024.5,-30.5 4169.5,-30.5 4169.5,-0.5 4024.5,-0.5"/>
<text text-anchor="start" x="4032.5" y="-18.5" font-family="Helvetica,sans-Serif" font-size="10.00">src/app/seamly2d/dialogs</text>
<text text-anchor="middle" x="4097" y="-7.5" font-family="Helvetica,sans-Serif" font-size="10.00">/layoutsettings_dialog.cpp</text>
</a>
</g>
</g>
<!-- Node11&#45;&gt;Node28 -->
<g id="edge40" class="edge">
<title>Node11&#45;&gt;Node28</title>
<path fill="none" stroke="midnightblue" d="M1951.83,-211.22C2235.87,-195.6 3214.41,-137 4016,-31 4018.69,-30.64 4021.43,-30.26 4024.19,-29.86"/>
<polygon fill="midnightblue" stroke="midnightblue" points="1951.41,-207.73 1941.62,-211.78 1951.79,-214.72 1951.41,-207.73"/>
</g>
<!-- Node13&#45;&gt;Node7 -->
<g id="edge39" class="edge">
<title>Node13&#45;&gt;Node7</title>
<path fill="none" stroke="midnightblue" d="M1797.05,-144.07C1603.43,-132.49 1082.26,-101.29 873.37,-88.79"/>
<polygon fill="midnightblue" stroke="midnightblue" points="1796.93,-147.57 1807.12,-144.68 1797.35,-140.59 1796.93,-147.57"/>
</g>
<!-- Node13&#45;&gt;Node12 -->
<g id="edge38" class="edge">
<title>Node13&#45;&gt;Node12</title>
<path fill="none" stroke="midnightblue" d="M1911.67,-130.27C1934.76,-119.92 1963.24,-107.15 1984.6,-97.58"/>
<polygon fill="midnightblue" stroke="midnightblue" points="1910.16,-127.11 1902.46,-134.4 1913.02,-133.5 1910.16,-127.11"/>
</g>
<!-- Node14 -->
<g id="node14" class="node">
<title>Node14</title>
<g id="a_node14"><a xlink:href="../../d9/d02/vapplication_8h.html" target="_top" xlink:title=" ">
<polygon fill="white" stroke="black" points="1807.5,-67.5 1807.5,-97.5 1934.5,-97.5 1934.5,-67.5 1807.5,-67.5"/>
<text text-anchor="start" x="1815.5" y="-85.5" font-family="Helvetica,sans-Serif" font-size="10.00">src/app/seamly2d/core</text>
<text text-anchor="middle" x="1871" y="-74.5" font-family="Helvetica,sans-Serif" font-size="10.00">/vapplication.h</text>
</a>
</g>
</g>
<!-- Node13&#45;&gt;Node14 -->
<g id="edge14" class="edge">
<title>Node13&#45;&gt;Node14</title>
<path fill="none" stroke="midnightblue" d="M1871,-124.11C1871,-115.15 1871,-105.32 1871,-97.58"/>
<polygon fill="midnightblue" stroke="midnightblue" points="1867.5,-124.4 1871,-134.4 1874.5,-124.4 1867.5,-124.4"/>
</g>
<!-- Node14&#45;&gt;Node2 -->
<g id="edge16" class="edge">
<title>Node14&#45;&gt;Node2</title>
<path fill="none" stroke="midnightblue" d="M1797.25,-80.76C1512.01,-77.68 480.82,-64.42 155,-31 152.12,-30.7 149.2,-30.37 146.24,-30"/>
<polygon fill="midnightblue" stroke="midnightblue" points="1797.44,-84.26 1807.48,-80.87 1797.52,-77.26 1797.44,-84.26"/>
</g>
<!-- Node14&#45;&gt;Node4 -->
<g id="edge29" class="edge">
<title>Node14&#45;&gt;Node4</title>
<path fill="none" stroke="midnightblue" d="M1797.41,-80.04C1557.38,-75.08 798.68,-57.62 555,-31 552.33,-30.71 549.62,-30.38 546.89,-30.02"/>
<polygon fill="midnightblue" stroke="midnightblue" points="1797.36,-83.54 1807.43,-80.25 1797.5,-76.54 1797.36,-83.54"/>
</g>
<!-- Node14&#45;&gt;Node5 -->
<g id="edge35" class="edge">
<title>Node14&#45;&gt;Node5</title>
<path fill="none" stroke="midnightblue" d="M1796.91,-81.25C1580.55,-80.01 931.02,-72.82 394,-31 375.22,-29.54 354.85,-27.3 336.35,-25.01"/>
<polygon fill="midnightblue" stroke="midnightblue" points="1797.17,-84.75 1807.19,-81.3 1797.21,-77.75 1797.17,-84.75"/>
</g>
<!-- Node14&#45;&gt;Node8 -->
<g id="edge15" class="edge">
<title>Node14&#45;&gt;Node8</title>
<path fill="none" stroke="midnightblue" d="M1797.07,-82.29C1611.69,-83.41 1112.37,-81.11 700,-31 697.22,-30.66 694.38,-30.27 691.52,-29.85"/>
<polygon fill="midnightblue" stroke="midnightblue" points="1797.27,-85.79 1807.25,-82.22 1797.23,-78.79 1797.27,-85.79"/>
</g>
<!-- Node14&#45;&gt;Node9 -->
<g id="edge34" class="edge">
<title>Node14&#45;&gt;Node9</title>
<path fill="none" stroke="midnightblue" d="M1797.15,-80.77C1631.03,-78.46 1215.39,-69.04 870,-31 856.61,-29.53 842.13,-27.3 828.98,-25.02"/>
<polygon fill="midnightblue" stroke="midnightblue" points="1797.21,-84.27 1807.26,-80.9 1797.31,-77.27 1797.21,-84.27"/>
</g>
<!-- Node14&#45;&gt;Node10 -->
<g id="edge36" class="edge">
<title>Node14&#45;&gt;Node10</title>
<path fill="none" stroke="midnightblue" d="M1797.27,-78.7C1656.7,-72.95 1340.76,-58.01 1076,-31 1060.37,-29.41 1043.47,-27.22 1027.96,-25.03"/>
<polygon fill="midnightblue" stroke="midnightblue" points="1797.35,-82.21 1807.49,-79.12 1797.64,-75.21 1797.35,-82.21"/>
</g>
<!-- Node15 -->
<g id="node15" class="node">
<title>Node15</title>
<g id="a_node15"><a xlink:href="../../d7/dfa/calculator__dialog_8cpp.html" target="_top" xlink:title=" ">
<polygon fill="white" stroke="black" points="2911.5,-0.5 2911.5,-30.5 3052.5,-30.5 3052.5,-0.5 2911.5,-0.5"/>
<text text-anchor="start" x="2919.5" y="-18.5" font-family="Helvetica,sans-Serif" font-size="10.00">src/app/seamly2d/dialogs</text>
<text text-anchor="middle" x="2982" y="-7.5" font-family="Helvetica,sans-Serif" font-size="10.00">/calculator_dialog.cpp</text>
</a>
</g>
</g>
<!-- Node14&#45;&gt;Node15 -->
<g id="edge17" class="edge">
<title>Node14&#45;&gt;Node15</title>
<path fill="none" stroke="midnightblue" d="M1944.58,-66.95C2368.31,-17.67 2481.29,-76.79 2902,-31 2905.09,-30.66 2908.23,-30.28 2911.41,-29.85"/>
<polygon fill="midnightblue" stroke="midnightblue" points="1944.04,-63.49 1934.51,-68.13 1944.85,-70.44 1944.04,-63.49"/>
</g>
<!-- Node16 -->
<g id="node16" class="node">
<title>Node16</title>
<g id="a_node16"><a xlink:href="../../d2/d00/vtooloptionspropertybrowser_8cpp.html" target="_top" xlink:title=" ">
<polygon fill="white" stroke="black" points="3071,-0.5 3071,-30.5 3251,-30.5 3251,-0.5 3071,-0.5"/>
<text text-anchor="start" x="3079" y="-18.5" font-family="Helvetica,sans-Serif" font-size="10.00">src/app/seamly2d/core</text>
<text text-anchor="middle" x="3161" y="-7.5" font-family="Helvetica,sans-Serif" font-size="10.00">/vtooloptionspropertybrowser.cpp</text>
</a>
</g>
</g>
<!-- Node14&#45;&gt;Node16 -->
<g id="edge18" class="edge">
<title>Node14&#45;&gt;Node16</title>
<path fill="none" stroke="midnightblue" d="M1944.77,-66.93C2439.06,-10.57 2569.76,-74.82 3062,-31 3064.94,-30.74 3067.93,-30.45 3070.94,-30.13"/>
<polygon fill="midnightblue" stroke="midnightblue" points="1944.05,-63.49 1934.51,-68.11 1944.85,-70.45 1944.05,-63.49"/>
</g>
<!-- Node17 -->
<g id="node17" class="node">
<title>Node17</title>
<g id="a_node17"><a xlink:href="../../d2/d2d/preferencesconfigurationpage_8cpp.html" target="_top" xlink:title=" ">
<polygon fill="white" stroke="black" points="3269.5,-0.5 3269.5,-30.5 3516.5,-30.5 3516.5,-0.5 3269.5,-0.5"/>
<text text-anchor="start" x="3277.5" y="-18.5" font-family="Helvetica,sans-Serif" font-size="10.00">src/app/seamly2d/dialogs</text>
<text text-anchor="middle" x="3393" y="-7.5" font-family="Helvetica,sans-Serif" font-size="10.00">/configpages/preferencesconfigurationpage.cpp</text>
</a>
</g>
</g>
<!-- Node14&#45;&gt;Node17 -->
<g id="edge19" class="edge">
<title>Node14&#45;&gt;Node17</title>
<path fill="none" stroke="midnightblue" d="M1944.84,-66.93C2526.6,-1.77 2679.22,-70.53 3260,-31 3263.13,-30.79 3266.3,-30.56 3269.49,-30.31"/>
<polygon fill="midnightblue" stroke="midnightblue" points="1944.05,-63.5 1934.51,-68.1 1944.84,-70.45 1944.05,-63.5"/>
</g>
<!-- Node18 -->
<g id="node18" class="node">
<title>Node18</title>
<g id="a_node18"><a xlink:href="../../d9/d70/preferencesgraphicsviewpage_8cpp.html" target="_top" xlink:title=" ">
<polygon fill="white" stroke="black" points="3535,-0.5 3535,-30.5 3783,-30.5 3783,-0.5 3535,-0.5"/>
<text text-anchor="start" x="3543" y="-18.5" font-family="Helvetica,sans-Serif" font-size="10.00">src/app/seamly2d/dialogs</text>
<text text-anchor="middle" x="3659" y="-7.5" font-family="Helvetica,sans-Serif" font-size="10.00">/configpages/preferencesgraphicsviewpage.cpp</text>
</a>
</g>
</g>
<!-- Node14&#45;&gt;Node18 -->
<g id="edge20" class="edge">
<title>Node14&#45;&gt;Node18</title>
<path fill="none" stroke="midnightblue" d="M1944.58,-66.97C2644.17,9.93 2827.12,-76.96 3526,-31 3528.9,-30.81 3531.83,-30.6 3534.78,-30.38"/>
<polygon fill="midnightblue" stroke="midnightblue" points="1944.06,-63.5 1934.51,-68.08 1944.83,-70.46 1944.06,-63.5"/>
</g>
<!-- Node19 -->
<g id="node19" class="node">
<title>Node19</title>
<g id="a_node19"><a xlink:href="../../dc/d20/preferencespathpage_8cpp.html" target="_top" xlink:title=" ">
<polygon fill="white" stroke="black" points="3801.5,-0.5 3801.5,-30.5 4006.5,-30.5 4006.5,-0.5 3801.5,-0.5"/>
<text text-anchor="start" x="3809.5" y="-18.5" font-family="Helvetica,sans-Serif" font-size="10.00">src/app/seamly2d/dialogs</text>
<text text-anchor="middle" x="3904" y="-7.5" font-family="Helvetica,sans-Serif" font-size="10.00">/configpages/preferencespathpage.cpp</text>
</a>
</g>
</g>
<!-- Node14&#45;&gt;Node19 -->
<g id="edge21" class="edge">
<title>Node14&#45;&gt;Node19</title>
<path fill="none" stroke="midnightblue" d="M1944.45,-66.98C2761.77,21.58 2975.62,-91.61 3792,-31 3795.03,-30.77 3798.1,-30.52 3801.21,-30.25"/>
<polygon fill="midnightblue" stroke="midnightblue" points="1944.07,-63.51 1934.51,-68.07 1944.83,-70.46 1944.07,-63.51"/>
</g>
<!-- Node20 -->
<g id="node20" class="node">
<title>Node20</title>
<g id="a_node20"><a xlink:href="../../dc/d63/preferencespatternpage_8cpp.html" target="_top" xlink:title=" ">
<polygon fill="white" stroke="black" points="1085,-0.5 1085,-30.5 1303,-30.5 1303,-0.5 1085,-0.5"/>
<text text-anchor="start" x="1093" y="-18.5" font-family="Helvetica,sans-Serif" font-size="10.00">src/app/seamly2d/dialogs</text>
<text text-anchor="middle" x="1194" y="-7.5" font-family="Helvetica,sans-Serif" font-size="10.00">/configpages/preferencespatternpage.cpp</text>
</a>
</g>
</g>
<!-- Node14&#45;&gt;Node20 -->
<g id="edge22" class="edge">
<title>Node14&#45;&gt;Node20</title>
<path fill="none" stroke="midnightblue" d="M1797.17,-75.59C1690.13,-66.85 1485.65,-49.51 1312,-31 1309.13,-30.69 1306.21,-30.38 1303.28,-30.05"/>
<polygon fill="midnightblue" stroke="midnightblue" points="1796.97,-79.09 1807.22,-76.41 1797.54,-72.11 1796.97,-79.09"/>
</g>
<!-- Node21 -->
<g id="node21" class="node">
<title>Node21</title>
<g id="a_node21"><a xlink:href="../../dd/dc2/decimalchart__dialog_8cpp.html" target="_top" xlink:title=" ">
<polygon fill="white" stroke="black" points="1321.5,-0.5 1321.5,-30.5 1462.5,-30.5 1462.5,-0.5 1321.5,-0.5"/>
<text text-anchor="start" x="1329.5" y="-18.5" font-family="Helvetica,sans-Serif" font-size="10.00">src/app/seamly2d/dialogs</text>
<text text-anchor="middle" x="1392" y="-7.5" font-family="Helvetica,sans-Serif" font-size="10.00">/decimalchart_dialog.cpp</text>
</a>
</g>
</g>
<!-- Node14&#45;&gt;Node21 -->
<g id="edge23" class="edge">
<title>Node14&#45;&gt;Node21</title>
<path fill="none" stroke="midnightblue" d="M1797.44,-73.46C1717.06,-64.39 1584.6,-48.58 1471,-31 1468.24,-30.57 1465.44,-30.13 1462.6,-29.66"/>
<polygon fill="midnightblue" stroke="midnightblue" points="1797.13,-76.95 1807.46,-74.59 1797.91,-69.99 1797.13,-76.95"/>
</g>
<!-- Node22 -->
<g id="node22" class="node">
<title>Node22</title>
<g id="a_node22"><a xlink:href="../../dd/d64/dialogaboutapp_8cpp.html" target="_top" xlink:title=" ">
<polygon fill="white" stroke="black" points="1480.5,-0.5 1480.5,-30.5 1621.5,-30.5 1621.5,-0.5 1480.5,-0.5"/>
<text text-anchor="start" x="1488.5" y="-18.5" font-family="Helvetica,sans-Serif" font-size="10.00">src/app/seamly2d/dialogs</text>
<text text-anchor="middle" x="1551" y="-7.5" font-family="Helvetica,sans-Serif" font-size="10.00">/dialogaboutapp.cpp</text>
</a>
</g>
</g>
<!-- Node14&#45;&gt;Node22 -->
<g id="edge24" class="edge">
<title>Node14&#45;&gt;Node22</title>
<path fill="none" stroke="midnightblue" d="M1797.31,-66.53C1743.94,-55.69 1672.29,-41.14 1620.03,-30.52"/>
<polygon fill="midnightblue" stroke="midnightblue" points="1796.9,-70.02 1807.4,-68.58 1798.29,-63.16 1796.9,-70.02"/>
</g>
<!-- Node23 -->
<g id="node23" class="node">
<title>Node23</title>
<g id="a_node23"><a xlink:href="../../d6/d89/dialoglayoutprogress_8cpp.html" target="_top" xlink:title=" ">
<polygon fill="white" stroke="black" points="1639.5,-0.5 1639.5,-30.5 1782.5,-30.5 1782.5,-0.5 1639.5,-0.5"/>
<text text-anchor="start" x="1647.5" y="-18.5" font-family="Helvetica,sans-Serif" font-size="10.00">src/app/seamly2d/dialogs</text>
<text text-anchor="middle" x="1711" y="-7.5" font-family="Helvetica,sans-Serif" font-size="10.00">/dialoglayoutprogress.cpp</text>
</a>
</g>
</g>
<!-- Node14&#45;&gt;Node23 -->
<g id="edge25" class="edge">
<title>Node14&#45;&gt;Node23</title>
<path fill="none" stroke="midnightblue" d="M1826.8,-63.54C1801.2,-53.14 1769.43,-40.24 1745.65,-30.58"/>
<polygon fill="midnightblue" stroke="midnightblue" points="1825.7,-66.87 1836.28,-67.4 1828.34,-60.39 1825.7,-66.87"/>
</g>
<!-- Node24 -->
<g id="node24" class="node">
<title>Node24</title>
<g id="a_node24"><a xlink:href="../../de/d87/dialognewpattern_8cpp.html" target="_top" xlink:title=" ">
<polygon fill="white" stroke="black" points="1800.5,-0.5 1800.5,-30.5 1941.5,-30.5 1941.5,-0.5 1800.5,-0.5"/>
<text text-anchor="start" x="1808.5" y="-18.5" font-family="Helvetica,sans-Serif" font-size="10.00">src/app/seamly2d/dialogs</text>
<text text-anchor="middle" x="1871" y="-7.5" font-family="Helvetica,sans-Serif" font-size="10.00">/dialognewpattern.cpp</text>
</a>
</g>
</g>
<!-- Node14&#45;&gt;Node24 -->
<g id="edge26" class="edge">
<title>Node14&#45;&gt;Node24</title>
<path fill="none" stroke="midnightblue" d="M1871,-57.11C1871,-48.15 1871,-38.32 1871,-30.58"/>
<polygon fill="midnightblue" stroke="midnightblue" points="1867.5,-57.4 1871,-67.4 1874.5,-57.4 1867.5,-57.4"/>
</g>
<!-- Node25 -->
<g id="node25" class="node">
<title>Node25</title>
<g id="a_node25"><a xlink:href="../../d5/d18/dialogpatternproperties_8cpp.html" target="_top" xlink:title=" ">
<polygon fill="white" stroke="black" points="1959.5,-0.5 1959.5,-30.5 2114.5,-30.5 2114.5,-0.5 1959.5,-0.5"/>
<text text-anchor="start" x="1967.5" y="-18.5" font-family="Helvetica,sans-Serif" font-size="10.00">src/app/seamly2d/dialogs</text>
<text text-anchor="middle" x="2037" y="-7.5" font-family="Helvetica,sans-Serif" font-size="10.00">/dialogpatternproperties.cpp</text>
</a>
</g>
</g>
<!-- Node14&#45;&gt;Node25 -->
<g id="edge27" class="edge">
<title>Node14&#45;&gt;Node25</title>
<path fill="none" stroke="midnightblue" d="M1916.51,-63.68C1943.13,-53.26 1976.27,-40.28 2001.05,-30.58"/>
<polygon fill="midnightblue" stroke="midnightblue" points="1915.05,-60.49 1907.02,-67.4 1917.61,-67.01 1915.05,-60.49"/>
</g>
<!-- Node26 -->
<g id="node26" class="node">
<title>Node26</title>
<g id="a_node26"><a xlink:href="../../d5/dc5/dialogpreferences_8cpp.html" target="_top" xlink:title=" ">
<polygon fill="white" stroke="black" points="2132.5,-0.5 2132.5,-30.5 2273.5,-30.5 2273.5,-0.5 2132.5,-0.5"/>
<text text-anchor="start" x="2140.5" y="-18.5" font-family="Helvetica,sans-Serif" font-size="10.00">src/app/seamly2d/dialogs</text>
<text text-anchor="middle" x="2203" y="-7.5" font-family="Helvetica,sans-Serif" font-size="10.00">/dialogpreferences.cpp</text>
</a>
</g>
</g>
<!-- Node14&#45;&gt;Node26 -->
<g id="edge28" class="edge">
<title>Node14&#45;&gt;Node26</title>
<path fill="none" stroke="midnightblue" d="M1944.79,-66.65C2013.85,-53.01 2082.5,-39.7 2132.35,-30.09"/>
<polygon fill="midnightblue" stroke="midnightblue" points="1943.73,-63.29 1934.6,-68.67 1945.09,-70.16 1943.73,-63.29"/>
</g>
<!-- Node27 -->
<g id="node27" class="node">
<title>Node27</title>
<g id="a_node27"><a xlink:href="../../db/d5c/groups__widget_8cpp.html" target="_top" xlink:title=" ">
<polygon fill="white" stroke="black" points="2291.5,-0.5 2291.5,-30.5 2432.5,-30.5 2432.5,-0.5 2291.5,-0.5"/>
<text text-anchor="start" x="2299.5" y="-18.5" font-family="Helvetica,sans-Serif" font-size="10.00">src/app/seamly2d/dialogs</text>
<text text-anchor="middle" x="2362" y="-7.5" font-family="Helvetica,sans-Serif" font-size="10.00">/groups_widget.cpp</text>
</a>
</g>
</g>
<!-- Node14&#45;&gt;Node27 -->
<g id="edge30" class="edge">
<title>Node14&#45;&gt;Node27</title>
<path fill="none" stroke="midnightblue" d="M1944.58,-66.84C2094.5,-44.37 2135.25,-52.06 2282,-31 2285.07,-30.56 2288.21,-30.09 2291.38,-29.59"/>
<polygon fill="midnightblue" stroke="midnightblue" points="1943.91,-63.41 1934.55,-68.37 1944.96,-70.33 1943.91,-63.41"/>
</g>
<!-- Node14&#45;&gt;Node28 -->
<g id="edge31" class="edge">
<title>Node14&#45;&gt;Node28</title>
<path fill="none" stroke="midnightblue" d="M1944.64,-66.97C2860.86,31.25 3102.24,-120.14 4016,-31 4018.7,-30.74 4021.45,-30.43 4024.22,-30.09"/>
<polygon fill="midnightblue" stroke="midnightblue" points="1944.07,-63.51 1934.51,-68.06 1944.82,-70.47 1944.07,-63.51"/>
</g>
<!-- Node29 -->
<g id="node29" class="node">
<title>Node29</title>
<g id="a_node29"><a xlink:href="../../dd/d84/shortcuts__dialog_8cpp.html" target="_top" xlink:title=" ">
<polygon fill="white" stroke="black" points="2450.5,-0.5 2450.5,-30.5 2591.5,-30.5 2591.5,-0.5 2450.5,-0.5"/>
<text text-anchor="start" x="2458.5" y="-18.5" font-family="Helvetica,sans-Serif" font-size="10.00">src/app/seamly2d/dialogs</text>
<text text-anchor="middle" x="2521" y="-7.5" font-family="Helvetica,sans-Serif" font-size="10.00">/shortcuts_dialog.cpp</text>
</a>
</g>
</g>
<!-- Node14&#45;&gt;Node29 -->
<g id="edge32" class="edge">
<title>Node14&#45;&gt;Node29</title>
<path fill="none" stroke="midnightblue" d="M1944.46,-66.91C2164.61,-37.66 2224.07,-58.42 2441,-31 2444.08,-30.61 2447.22,-30.18 2450.39,-29.72"/>
<polygon fill="midnightblue" stroke="midnightblue" points="1943.97,-63.45 1934.53,-68.25 1944.91,-70.38 1943.97,-63.45"/>
</g>
<!-- Node30 -->
<g id="node30" class="node">
<title>Node30</title>
<g id="a_node30"><a xlink:href="../../d2/df4/show__info__dialog_8cpp.html" target="_top" xlink:title=" ">
<polygon fill="white" stroke="black" points="2609.5,-0.5 2609.5,-30.5 2750.5,-30.5 2750.5,-0.5 2609.5,-0.5"/>
<text text-anchor="start" x="2617.5" y="-18.5" font-family="Helvetica,sans-Serif" font-size="10.00">src/app/seamly2d/dialogs</text>
<text text-anchor="middle" x="2680" y="-7.5" font-family="Helvetica,sans-Serif" font-size="10.00">/show_info_dialog.cpp</text>
</a>
</g>
</g>
<!-- Node14&#45;&gt;Node30 -->
<g id="edge33" class="edge">
<title>Node14&#45;&gt;Node30</title>
<path fill="none" stroke="midnightblue" d="M1944.5,-66.93C2234.84,-30.82 2312.82,-64.76 2600,-31 2603.08,-30.64 2606.23,-30.23 2609.4,-29.79"/>
<polygon fill="midnightblue" stroke="midnightblue" points="1944,-63.47 1934.52,-68.19 1944.88,-70.41 1944,-63.47"/>
</g>
<!-- Node31 -->
<g id="node31" class="node">
<title>Node31</title>
<g id="a_node31"><a xlink:href="../../d3/d49/vpattern_8cpp.html" target="_top" xlink:title=" ">
<polygon fill="white" stroke="black" points="2768.5,-0.5 2768.5,-30.5 2893.5,-30.5 2893.5,-0.5 2768.5,-0.5"/>
<text text-anchor="start" x="2776.5" y="-18.5" font-family="Helvetica,sans-Serif" font-size="10.00">src/app/seamly2d/xml</text>
<text text-anchor="middle" x="2831" y="-7.5" font-family="Helvetica,sans-Serif" font-size="10.00">/vpattern.cpp</text>
</a>
</g>
</g>
<!-- Node14&#45;&gt;Node31 -->
<g id="edge37" class="edge">
<title>Node14&#45;&gt;Node31</title>
<path fill="none" stroke="midnightblue" d="M1944.45,-66.96C2305.09,-23.96 2401.91,-74.57 2759,-31 2762.04,-30.63 2765.14,-30.2 2768.26,-29.73"/>
<polygon fill="midnightblue" stroke="midnightblue" points="1944.02,-63.48 1934.52,-68.15 1944.86,-70.43 1944.02,-63.48"/>
</g>
</g>
</svg>
