<?xml version="1.0" encoding="UTF-8" standalone="no"?>
<!DOCTYPE svg PUBLIC "-//W3C//DTD SVG 1.1//EN"
 "http://www.w3.org/Graphics/SVG/1.1/DTD/svg11.dtd">
<!-- Generated by graphviz version 2.43.0 (0)
 -->
<!-- Title: src/app/seamly2d/dialogs/abstractlayout_dialog.h Pages: 1 -->
<svg width="4017pt" height="307pt"
 viewBox="0.00 0.00 4016.50 307.00" xmlns="http://www.w3.org/2000/svg" xmlns:xlink="http://www.w3.org/1999/xlink">
<g id="graph0" class="graph" transform="scale(1 1) rotate(0) translate(4 303)">
<title>src/app/seamly2d/dialogs/abstractlayout_dialog.h</title>
<polygon fill="white" stroke="transparent" points="-4,4 -4,-303 4012.5,-303 4012.5,4 -4,4"/>
<!-- Node1 -->
<g id="node1" class="node">
<title>Node1</title>
<g id="a_node1"><a xlink:title=" ">
<polygon fill="#bfbfbf" stroke="black" points="2216.5,-268.5 2216.5,-298.5 2357.5,-298.5 2357.5,-268.5 2216.5,-268.5"/>
<text text-anchor="start" x="2224.5" y="-286.5" font-family="Helvetica,sans-Serif" font-size="10.00">src/app/seamly2d/dialogs</text>
<text text-anchor="middle" x="2287" y="-275.5" font-family="Helvetica,sans-Serif" font-size="10.00">/abstractlayout_dialog.h</text>
</a>
</g>
</g>
<!-- Node2 -->
<g id="node2" class="node">
<title>Node2</title>
<g id="a_node2"><a xlink:href="../../dd/db4/abstractlayout__dialog_8cpp.html" target="_top" xlink:title=" ">
<polygon fill="white" stroke="black" points="0,-0.5 0,-30.5 146,-30.5 146,-0.5 0,-0.5"/>
<text text-anchor="start" x="8" y="-18.5" font-family="Helvetica,sans-Serif" font-size="10.00">src/app/seamly2d/dialogs</text>
<text text-anchor="middle" x="73" y="-7.5" font-family="Helvetica,sans-Serif" font-size="10.00">/abstractlayout_dialog.cpp</text>
</a>
</g>
</g>
<!-- Node1&#45;&gt;Node2 -->
<g id="edge1" class="edge">
<title>Node1&#45;&gt;Node2</title>
<path fill="none" stroke="midnightblue" d="M2206.04,-278.41C1948.98,-264.55 1128.88,-213.63 460,-98 343.63,-77.88 208.93,-48.01 133.07,-30.57"/>
<polygon fill="midnightblue" stroke="midnightblue" points="2206.23,-281.92 2216.4,-278.96 2206.6,-274.93 2206.23,-281.92"/>
</g>
<!-- Node3 -->
<g id="node3" class="node">
<title>Node3</title>
<g id="a_node3"><a xlink:href="../../d1/d8e/export__layout__dialog_8h.html" target="_top" xlink:title=" ">
<polygon fill="white" stroke="black" points="2216.5,-201.5 2216.5,-231.5 2357.5,-231.5 2357.5,-201.5 2216.5,-201.5"/>
<text text-anchor="start" x="2224.5" y="-219.5" font-family="Helvetica,sans-Serif" font-size="10.00">src/app/seamly2d/dialogs</text>
<text text-anchor="middle" x="2287" y="-208.5" font-family="Helvetica,sans-Serif" font-size="10.00">/export_layout_dialog.h</text>
</a>
</g>
</g>
<!-- Node1&#45;&gt;Node3 -->
<g id="edge2" class="edge">
<title>Node1&#45;&gt;Node3</title>
<path fill="none" stroke="midnightblue" d="M2287,-258.11C2287,-249.15 2287,-239.32 2287,-231.58"/>
<polygon fill="midnightblue" stroke="midnightblue" points="2283.5,-258.4 2287,-268.4 2290.5,-258.4 2283.5,-258.4"/>
</g>
<!-- Node11 -->
<g id="node11" class="node">
<title>Node11</title>
<g id="a_node11"><a xlink:href="../../d3/dd8/layoutsettings__dialog_8h.html" target="_top" xlink:title=" ">
<polygon fill="white" stroke="black" points="2375.5,-201.5 2375.5,-231.5 2516.5,-231.5 2516.5,-201.5 2375.5,-201.5"/>
<text text-anchor="start" x="2383.5" y="-219.5" font-family="Helvetica,sans-Serif" font-size="10.00">src/app/seamly2d/dialogs</text>
<text text-anchor="middle" x="2446" y="-208.5" font-family="Helvetica,sans-Serif" font-size="10.00">/layoutsettings_dialog.h</text>
</a>
</g>
</g>
<!-- Node1&#45;&gt;Node11 -->
<g id="edge11" class="edge">
<title>Node1&#45;&gt;Node11</title>
<path fill="none" stroke="midnightblue" d="M2330.92,-264.54C2356.37,-254.14 2387.93,-241.24 2411.57,-231.58"/>
<polygon fill="midnightblue" stroke="midnightblue" points="2329.43,-261.37 2321.5,-268.4 2332.08,-267.85 2329.43,-261.37"/>
</g>
<!-- Node4 -->
<g id="node4" class="node">
<title>Node4</title>
<g id="a_node4"><a xlink:href="../../dd/d54/export__layout__dialog_8cpp.html" target="_top" xlink:title=" ">
<polygon fill="white" stroke="black" points="164.5,-0.5 164.5,-30.5 307.5,-30.5 307.5,-0.5 164.5,-0.5"/>
<text text-anchor="start" x="172.5" y="-18.5" font-family="Helvetica,sans-Serif" font-size="10.00">src/app/seamly2d/dialogs</text>
<text text-anchor="middle" x="236" y="-7.5" font-family="Helvetica,sans-Serif" font-size="10.00">/export_layout_dialog.cpp</text>
</a>
</g>
</g>
<!-- Node3&#45;&gt;Node4 -->
<g id="edge3" class="edge">
<title>Node3&#45;&gt;Node4</title>
<path fill="none" stroke="midnightblue" d="M2206.26,-213.45C1966.2,-206.56 1236.24,-179.88 637,-98 513.29,-81.1 370.45,-48.99 293.04,-30.52"/>
<polygon fill="midnightblue" stroke="midnightblue" points="2206.21,-216.95 2216.3,-213.73 2206.41,-209.95 2206.21,-216.95"/>
</g>
<!-- Node5 -->
<g id="node5" class="node">
<title>Node5</title>
<g id="a_node5"><a xlink:href="../../d1/d82/mainwindowsnogui_8h.html" target="_top" xlink:title=" ">
<polygon fill="white" stroke="black" points="2189.5,-140 2189.5,-159 2398.5,-159 2398.5,-140 2189.5,-140"/>
<text text-anchor="middle" x="2294" y="-147" font-family="Helvetica,sans-Serif" font-size="10.00">src/app/seamly2d/mainwindowsnogui.h</text>
</a>
</g>
</g>
<!-- Node3&#45;&gt;Node5 -->
<g id="edge4" class="edge">
<title>Node3&#45;&gt;Node5</title>
<path fill="none" stroke="midnightblue" d="M2289.61,-191.25C2290.82,-180.02 2292.18,-167.38 2293.06,-159.19"/>
<polygon fill="midnightblue" stroke="midnightblue" points="2286.11,-191.08 2288.52,-201.4 2293.07,-191.83 2286.11,-191.08"/>
</g>
<!-- Node10 -->
<g id="node10" class="node">
<title>Node10</title>
<g id="a_node10"><a xlink:href="../../d8/de8/mainwindowsnogui_8cpp.html" target="_top" xlink:title=" ">
<polygon fill="white" stroke="black" points="3624.5,-6 3624.5,-25 3845.5,-25 3845.5,-6 3624.5,-6"/>
<text text-anchor="middle" x="3735" y="-13" font-family="Helvetica,sans-Serif" font-size="10.00">src/app/seamly2d/mainwindowsnogui.cpp</text>
</a>
</g>
</g>
<!-- Node3&#45;&gt;Node10 -->
<g id="edge10" class="edge">
<title>Node3&#45;&gt;Node10</title>
<path fill="none" stroke="midnightblue" d="M2367.58,-200.79C2643.05,-157.51 3433.64,-55.25 3668.49,-25.04"/>
<polygon fill="midnightblue" stroke="midnightblue" points="2366.94,-197.35 2357.61,-202.37 2368.03,-204.26 2366.94,-197.35"/>
</g>
<!-- Node6 -->
<g id="node6" class="node">
<title>Node6</title>
<g id="a_node6"><a xlink:href="../../d9/d53/mainwindow_8h.html" target="_top" xlink:title=" ">
<polygon fill="white" stroke="black" points="646,-73 646,-92 822,-92 822,-73 646,-73"/>
<text text-anchor="middle" x="734" y="-80" font-family="Helvetica,sans-Serif" font-size="10.00">src/app/seamly2d/mainwindow.h</text>
</a>
</g>
</g>
<!-- Node5&#45;&gt;Node6 -->
<g id="edge5" class="edge">
<title>Node5&#45;&gt;Node6</title>
<path fill="none" stroke="midnightblue" d="M2225.1,-138.7C2210.25,-136.88 2194.62,-135.18 2180,-134 1666.73,-92.48 1048.24,-85.07 822.19,-83.77"/>
<polygon fill="midnightblue" stroke="midnightblue" points="2224.87,-142.2 2235.23,-139.98 2225.75,-135.26 2224.87,-142.2"/>
</g>
<!-- Node5&#45;&gt;Node10 -->
<g id="edge9" class="edge">
<title>Node5&#45;&gt;Node10</title>
<path fill="none" stroke="midnightblue" d="M2363.07,-138.54C2484.12,-121.42 2742.62,-86.41 2962,-67 3251.53,-41.39 3325.45,-56.45 3615,-31 3633.19,-29.4 3652.87,-27.21 3670.94,-25.02"/>
<polygon fill="midnightblue" stroke="midnightblue" points="2362.25,-135.12 2352.84,-139.99 2363.23,-142.05 2362.25,-135.12"/>
</g>
<!-- Node7 -->
<g id="node7" class="node">
<title>Node7</title>
<g id="a_node7"><a xlink:href="../../d3/dd8/vapplication_8cpp.html" target="_top" xlink:title=" ">
<polygon fill="white" stroke="black" points="325.5,-0.5 325.5,-30.5 452.5,-30.5 452.5,-0.5 325.5,-0.5"/>
<text text-anchor="start" x="333.5" y="-18.5" font-family="Helvetica,sans-Serif" font-size="10.00">src/app/seamly2d/core</text>
<text text-anchor="middle" x="389" y="-7.5" font-family="Helvetica,sans-Serif" font-size="10.00">/vapplication.cpp</text>
</a>
</g>
</g>
<!-- Node6&#45;&gt;Node7 -->
<g id="edge6" class="edge">
<title>Node6&#45;&gt;Node7</title>
<path fill="none" stroke="midnightblue" d="M676.66,-71.16C621.38,-61.14 535.4,-45.37 461,-31 458.25,-30.47 455.43,-29.92 452.59,-29.36"/>
<polygon fill="midnightblue" stroke="midnightblue" points="676.15,-74.63 686.61,-72.97 677.4,-67.74 676.15,-74.63"/>
</g>
<!-- Node8 -->
<g id="node8" class="node">
<title>Node8</title>
<g id="a_node8"><a xlink:href="../../dc/d14/app_2seamly2d_2main_8cpp.html" target="_top" xlink:title=" ">
<polygon fill="white" stroke="black" points="470.5,-6 470.5,-25 621.5,-25 621.5,-6 470.5,-6"/>
<text text-anchor="middle" x="546" y="-13" font-family="Helvetica,sans-Serif" font-size="10.00">src/app/seamly2d/main.cpp</text>
</a>
</g>
</g>
<!-- Node6&#45;&gt;Node8 -->
<g id="edge7" class="edge">
<title>Node6&#45;&gt;Node8</title>
<path fill="none" stroke="midnightblue" d="M699.11,-69.44C661.81,-56.54 603.63,-36.42 570.77,-25.06"/>
<polygon fill="midnightblue" stroke="midnightblue" points="698.44,-72.91 709.04,-72.87 700.73,-66.29 698.44,-72.91"/>
</g>
<!-- Node9 -->
<g id="node9" class="node">
<title>Node9</title>
<g id="a_node9"><a xlink:href="../../d8/dd9/mainwindow_8cpp.html" target="_top" xlink:title=" ">
<polygon fill="white" stroke="black" points="640,-6 640,-25 828,-25 828,-6 640,-6"/>
<text text-anchor="middle" x="734" y="-13" font-family="Helvetica,sans-Serif" font-size="10.00">src/app/seamly2d/mainwindow.cpp</text>
</a>
</g>
</g>
<!-- Node6&#45;&gt;Node9 -->
<g id="edge8" class="edge">
<title>Node6&#45;&gt;Node9</title>
<path fill="none" stroke="midnightblue" d="M734,-62.54C734,-50.17 734,-34.62 734,-25.13"/>
<polygon fill="midnightblue" stroke="midnightblue" points="730.5,-62.73 734,-72.73 737.5,-62.73 730.5,-62.73"/>
</g>
<!-- Node11&#45;&gt;Node10 -->
<g id="edge40" class="edge">
<title>Node11&#45;&gt;Node10</title>
<path fill="none" stroke="midnightblue" d="M2526.73,-210.64C2633.23,-203.63 2826.33,-188.84 2990,-165 3265.04,-124.93 3592.14,-50.19 3699.18,-25.02"/>
<polygon fill="midnightblue" stroke="midnightblue" points="2526.45,-207.15 2516.7,-211.3 2526.9,-214.14 2526.45,-207.15"/>
</g>
<!-- Node12 -->
<g id="node12" class="node">
<title>Node12</title>
<g id="a_node12"><a xlink:href="../../dd/d57/vcmdexport_8h.html" target="_top" xlink:title=" ">
<polygon fill="white" stroke="black" points="2044.5,-134.5 2044.5,-164.5 2171.5,-164.5 2171.5,-134.5 2044.5,-134.5"/>
<text text-anchor="start" x="2052.5" y="-152.5" font-family="Helvetica,sans-Serif" font-size="10.00">src/app/seamly2d/core</text>
<text text-anchor="middle" x="2108" y="-141.5" font-family="Helvetica,sans-Serif" font-size="10.00">/vcmdexport.h</text>
</a>
</g>
</g>
<!-- Node11&#45;&gt;Node12 -->
<g id="edge12" class="edge">
<title>Node11&#45;&gt;Node12</title>
<path fill="none" stroke="midnightblue" d="M2365.42,-200.44C2312.65,-190.52 2242.19,-177.17 2180,-165 2177.25,-164.46 2174.44,-163.91 2171.6,-163.35"/>
<polygon fill="midnightblue" stroke="midnightblue" points="2364.92,-203.91 2375.39,-202.32 2366.21,-197.03 2364.92,-203.91"/>
</g>
<!-- Node25 -->
<g id="node25" class="node">
<title>Node25</title>
<g id="a_node25"><a xlink:href="../../d0/dfa/layoutsettings__dialog_8cpp.html" target="_top" xlink:title=" ">
<polygon fill="white" stroke="black" points="3863.5,-0.5 3863.5,-30.5 4008.5,-30.5 4008.5,-0.5 3863.5,-0.5"/>
<text text-anchor="start" x="3871.5" y="-18.5" font-family="Helvetica,sans-Serif" font-size="10.00">src/app/seamly2d/dialogs</text>
<text text-anchor="middle" x="3936" y="-7.5" font-family="Helvetica,sans-Serif" font-size="10.00">/layoutsettings_dialog.cpp</text>
</a>
</g>
</g>
<!-- Node11&#45;&gt;Node25 -->
<g id="edge39" class="edge">
<title>Node11&#45;&gt;Node25</title>
<path fill="none" stroke="midnightblue" d="M2526.66,-211.7C2649.32,-205.36 2889.97,-190.71 3093,-165 3434.14,-121.79 3516.42,-91.07 3855,-31 3857.67,-30.53 3860.39,-30.04 3863.14,-29.55"/>
<polygon fill="midnightblue" stroke="midnightblue" points="2526.4,-208.21 2516.59,-212.22 2526.76,-215.2 2526.4,-208.21"/>
</g>
<!-- Node30 -->
<g id="node30" class="node">
<title>Node30</title>
<g id="a_node30"><a xlink:href="../../df/d9b/vcmdexport_8cpp.html" target="_top" xlink:title=" ">
<polygon fill="white" stroke="black" points="2283.5,-67.5 2283.5,-97.5 2410.5,-97.5 2410.5,-67.5 2283.5,-67.5"/>
<text text-anchor="start" x="2291.5" y="-85.5" font-family="Helvetica,sans-Serif" font-size="10.00">src/app/seamly2d/core</text>
<text text-anchor="middle" x="2347" y="-74.5" font-family="Helvetica,sans-Serif" font-size="10.00">/vcmdexport.cpp</text>
</a>
</g>
</g>
<!-- Node11&#45;&gt;Node30 -->
<g id="edge38" class="edge">
<title>Node11&#45;&gt;Node30</title>
<path fill="none" stroke="midnightblue" d="M2437.63,-191.45C2430.96,-174.37 2420.52,-151.46 2407,-134 2396,-119.79 2380.39,-106.81 2367.85,-97.56"/>
<polygon fill="midnightblue" stroke="midnightblue" points="2434.5,-193.08 2441.28,-201.23 2441.06,-190.63 2434.5,-193.08"/>
</g>
<!-- Node12&#45;&gt;Node6 -->
<g id="edge37" class="edge">
<title>Node12&#45;&gt;Node6</title>
<path fill="none" stroke="midnightblue" d="M2034.39,-145.02C1800.63,-133.96 1075.69,-99.66 822.42,-87.68"/>
<polygon fill="midnightblue" stroke="midnightblue" points="2034.33,-148.52 2044.48,-145.5 2034.66,-141.53 2034.33,-148.52"/>
</g>
<!-- Node13 -->
<g id="node13" class="node">
<title>Node13</title>
<g id="a_node13"><a xlink:href="../../d9/d02/vapplication_8h.html" target="_top" xlink:title=" ">
<polygon fill="white" stroke="black" points="2044.5,-67.5 2044.5,-97.5 2171.5,-97.5 2171.5,-67.5 2044.5,-67.5"/>
<text text-anchor="start" x="2052.5" y="-85.5" font-family="Helvetica,sans-Serif" font-size="10.00">src/app/seamly2d/core</text>
<text text-anchor="middle" x="2108" y="-74.5" font-family="Helvetica,sans-Serif" font-size="10.00">/vapplication.h</text>
</a>
</g>
</g>
<!-- Node12&#45;&gt;Node13 -->
<g id="edge13" class="edge">
<title>Node12&#45;&gt;Node13</title>
<path fill="none" stroke="midnightblue" d="M2108,-124.11C2108,-115.15 2108,-105.32 2108,-97.58"/>
<polygon fill="midnightblue" stroke="midnightblue" points="2104.5,-124.4 2108,-134.4 2111.5,-124.4 2104.5,-124.4"/>
</g>
<!-- Node12&#45;&gt;Node30 -->
<g id="edge36" class="edge">
<title>Node12&#45;&gt;Node30</title>
<path fill="none" stroke="midnightblue" d="M2169.22,-131.85C2208.19,-121.25 2258.1,-107.68 2295.12,-97.61"/>
<polygon fill="midnightblue" stroke="midnightblue" points="2168.3,-128.47 2159.57,-134.48 2170.13,-135.23 2168.3,-128.47"/>
</g>
<!-- Node13&#45;&gt;Node2 -->
<g id="edge15" class="edge">
<title>Node13&#45;&gt;Node2</title>
<path fill="none" stroke="midnightblue" d="M2034.05,-81.06C1724.28,-79.01 529.76,-68.77 155,-31 152.12,-30.71 149.2,-30.38 146.24,-30.01"/>
<polygon fill="midnightblue" stroke="midnightblue" points="2034.24,-84.57 2044.26,-81.13 2034.29,-77.57 2034.24,-84.57"/>
</g>
<!-- Node13&#45;&gt;Node4 -->
<g id="edge27" class="edge">
<title>Node13&#45;&gt;Node4</title>
<path fill="none" stroke="midnightblue" d="M2034.4,-80.91C1741.43,-78.33 657.5,-66.55 316,-31 313.33,-30.72 310.62,-30.41 307.88,-30.06"/>
<polygon fill="midnightblue" stroke="midnightblue" points="2034.46,-84.41 2044.49,-81 2034.52,-77.41 2034.46,-84.41"/>
</g>
<!-- Node13&#45;&gt;Node7 -->
<g id="edge14" class="edge">
<title>Node13&#45;&gt;Node7</title>
<path fill="none" stroke="midnightblue" d="M2033.98,-80.88C1755.69,-78.31 772.1,-66.84 461,-31 458.21,-30.68 455.37,-30.31 452.51,-29.89"/>
<polygon fill="midnightblue" stroke="midnightblue" points="2034.34,-84.39 2044.37,-80.98 2034.4,-77.39 2034.34,-84.39"/>
</g>
<!-- Node13&#45;&gt;Node8 -->
<g id="edge31" class="edge">
<title>Node13&#45;&gt;Node8</title>
<path fill="none" stroke="midnightblue" d="M2034.36,-80.3C1775.46,-75.86 907.76,-59.21 631,-31 617.3,-29.6 602.47,-27.34 589.09,-25.01"/>
<polygon fill="midnightblue" stroke="midnightblue" points="2034.35,-83.8 2044.41,-80.47 2034.47,-76.8 2034.35,-83.8"/>
</g>
<!-- Node13&#45;&gt;Node9 -->
<g id="edge35" class="edge">
<title>Node13&#45;&gt;Node9</title>
<path fill="none" stroke="midnightblue" d="M2034.22,-81.15C1838.63,-79.66 1290.76,-71.85 837,-31 820.72,-29.53 803.08,-27.29 787.08,-25.01"/>
<polygon fill="midnightblue" stroke="midnightblue" points="2034.35,-84.65 2044.37,-81.22 2034.4,-77.65 2034.35,-84.65"/>
</g>
<!-- Node13&#45;&gt;Node10 -->
<g id="edge33" class="edge">
<title>Node13&#45;&gt;Node10</title>
<path fill="none" stroke="midnightblue" d="M2181.76,-74.1C2210.51,-71.46 2243.77,-68.72 2274,-67 2869.25,-33.04 3020.4,-74.81 3615,-31 3634.15,-29.59 3654.94,-27.33 3673.75,-25.02"/>
<polygon fill="midnightblue" stroke="midnightblue" points="2181.42,-70.61 2171.79,-75.02 2182.07,-77.58 2181.42,-70.61"/>
</g>
<!-- Node14 -->
<g id="node14" class="node">
<title>Node14</title>
<g id="a_node14"><a xlink:href="../../d7/dfa/calculator__dialog_8cpp.html" target="_top" xlink:title=" ">
<polygon fill="white" stroke="black" points="846.5,-0.5 846.5,-30.5 987.5,-30.5 987.5,-0.5 846.5,-0.5"/>
<text text-anchor="start" x="854.5" y="-18.5" font-family="Helvetica,sans-Serif" font-size="10.00">src/app/seamly2d/dialogs</text>
<text text-anchor="middle" x="917" y="-7.5" font-family="Helvetica,sans-Serif" font-size="10.00">/calculator_dialog.cpp</text>
</a>
</g>
</g>
<!-- Node13&#45;&gt;Node14 -->
<g id="edge16" class="edge">
<title>Node13&#45;&gt;Node14</title>
<path fill="none" stroke="midnightblue" d="M2034.37,-81.61C1855.75,-81.13 1385.43,-75.37 996,-31 993.23,-30.68 990.41,-30.33 987.56,-29.94"/>
<polygon fill="midnightblue" stroke="midnightblue" points="2034.44,-85.11 2044.44,-81.63 2034.45,-78.11 2034.44,-85.11"/>
</g>
<!-- Node15 -->
<g id="node15" class="node">
<title>Node15</title>
<g id="a_node15"><a xlink:href="../../d2/d2d/preferencesconfigurationpage_8cpp.html" target="_top" xlink:title=" ">
<polygon fill="white" stroke="black" points="1005.5,-0.5 1005.5,-30.5 1252.5,-30.5 1252.5,-0.5 1005.5,-0.5"/>
<text text-anchor="start" x="1013.5" y="-18.5" font-family="Helvetica,sans-Serif" font-size="10.00">src/app/seamly2d/dialogs</text>
<text text-anchor="middle" x="1129" y="-7.5" font-family="Helvetica,sans-Serif" font-size="10.00">/configpages/preferencesconfigurationpage.cpp</text>
</a>
</g>
</g>
<!-- Node13&#45;&gt;Node15 -->
<g id="edge17" class="edge">
<title>Node13&#45;&gt;Node15</title>
<path fill="none" stroke="midnightblue" d="M2034.17,-78.34C1886.95,-71.76 1546.43,-55.17 1261,-31 1258.24,-30.77 1255.46,-30.52 1252.64,-30.27"/>
<polygon fill="midnightblue" stroke="midnightblue" points="2034.29,-81.85 2044.44,-78.79 2034.6,-74.85 2034.29,-81.85"/>
</g>
<!-- Node16 -->
<g id="node16" class="node">
<title>Node16</title>
<g id="a_node16"><a xlink:href="../../dc/d20/preferencespathpage_8cpp.html" target="_top" xlink:title=" ">
<polygon fill="white" stroke="black" points="1270.5,-0.5 1270.5,-30.5 1475.5,-30.5 1475.5,-0.5 1270.5,-0.5"/>
<text text-anchor="start" x="1278.5" y="-18.5" font-family="Helvetica,sans-Serif" font-size="10.00">src/app/seamly2d/dialogs</text>
<text text-anchor="middle" x="1373" y="-7.5" font-family="Helvetica,sans-Serif" font-size="10.00">/configpages/preferencespathpage.cpp</text>
</a>
</g>
</g>
<!-- Node13&#45;&gt;Node16 -->
<g id="edge18" class="edge">
<title>Node13&#45;&gt;Node16</title>
<path fill="none" stroke="midnightblue" d="M2033.86,-76.68C1916.85,-68.82 1682.3,-51.96 1484,-31 1481.29,-30.71 1478.55,-30.42 1475.79,-30.11"/>
<polygon fill="midnightblue" stroke="midnightblue" points="2033.91,-80.19 2044.12,-77.37 2034.38,-73.21 2033.91,-80.19"/>
</g>
<!-- Node17 -->
<g id="node17" class="node">
<title>Node17</title>
<g id="a_node17"><a xlink:href="../../d9/d70/preferencesgraphicsviewpage_8cpp.html" target="_top" xlink:title=" ">
<polygon fill="white" stroke="black" points="1493,-0.5 1493,-30.5 1741,-30.5 1741,-0.5 1493,-0.5"/>
<text text-anchor="start" x="1501" y="-18.5" font-family="Helvetica,sans-Serif" font-size="10.00">src/app/seamly2d/dialogs</text>
<text text-anchor="middle" x="1617" y="-7.5" font-family="Helvetica,sans-Serif" font-size="10.00">/configpages/preferencesgraphicsviewpage.cpp</text>
</a>
</g>
</g>
<!-- Node13&#45;&gt;Node17 -->
<g id="edge19" class="edge">
<title>Node13&#45;&gt;Node17</title>
<path fill="none" stroke="midnightblue" d="M2034.26,-71.74C1951.67,-60.8 1817.11,-42.99 1723.2,-30.56"/>
<polygon fill="midnightblue" stroke="midnightblue" points="2033.94,-75.23 2044.31,-73.07 2034.86,-68.29 2033.94,-75.23"/>
</g>
<!-- Node18 -->
<g id="node18" class="node">
<title>Node18</title>
<g id="a_node18"><a xlink:href="../../d2/d00/vtooloptionspropertybrowser_8cpp.html" target="_top" xlink:title=" ">
<polygon fill="white" stroke="black" points="1759,-0.5 1759,-30.5 1939,-30.5 1939,-0.5 1759,-0.5"/>
<text text-anchor="start" x="1767" y="-18.5" font-family="Helvetica,sans-Serif" font-size="10.00">src/app/seamly2d/core</text>
<text text-anchor="middle" x="1849" y="-7.5" font-family="Helvetica,sans-Serif" font-size="10.00">/vtooloptionspropertybrowser.cpp</text>
</a>
</g>
</g>
<!-- Node13&#45;&gt;Node18 -->
<g id="edge20" class="edge">
<title>Node13&#45;&gt;Node18</title>
<path fill="none" stroke="midnightblue" d="M2042.19,-64.98C1999.89,-54.37 1945.51,-40.72 1905.23,-30.61"/>
<polygon fill="midnightblue" stroke="midnightblue" points="2041.57,-68.44 2052.12,-67.48 2043.27,-61.65 2041.57,-68.44"/>
</g>
<!-- Node19 -->
<g id="node19" class="node">
<title>Node19</title>
<g id="a_node19"><a xlink:href="../../dc/d63/preferencespatternpage_8cpp.html" target="_top" xlink:title=" ">
<polygon fill="white" stroke="black" points="1957,-0.5 1957,-30.5 2175,-30.5 2175,-0.5 1957,-0.5"/>
<text text-anchor="start" x="1965" y="-18.5" font-family="Helvetica,sans-Serif" font-size="10.00">src/app/seamly2d/dialogs</text>
<text text-anchor="middle" x="2066" y="-7.5" font-family="Helvetica,sans-Serif" font-size="10.00">/configpages/preferencespatternpage.cpp</text>
</a>
</g>
</g>
<!-- Node13&#45;&gt;Node19 -->
<g id="edge21" class="edge">
<title>Node13&#45;&gt;Node19</title>
<path fill="none" stroke="midnightblue" d="M2093.38,-58.87C2087.3,-49.46 2080.43,-38.83 2075.1,-30.58"/>
<polygon fill="midnightblue" stroke="midnightblue" points="2090.52,-60.9 2098.89,-67.4 2096.4,-57.1 2090.52,-60.9"/>
</g>
<!-- Node20 -->
<g id="node20" class="node">
<title>Node20</title>
<g id="a_node20"><a xlink:href="../../dd/dc2/decimalchart__dialog_8cpp.html" target="_top" xlink:title=" ">
<polygon fill="white" stroke="black" points="2193.5,-0.5 2193.5,-30.5 2334.5,-30.5 2334.5,-0.5 2193.5,-0.5"/>
<text text-anchor="start" x="2201.5" y="-18.5" font-family="Helvetica,sans-Serif" font-size="10.00">src/app/seamly2d/dialogs</text>
<text text-anchor="middle" x="2264" y="-7.5" font-family="Helvetica,sans-Serif" font-size="10.00">/decimalchart_dialog.cpp</text>
</a>
</g>
</g>
<!-- Node13&#45;&gt;Node20 -->
<g id="edge22" class="edge">
<title>Node13&#45;&gt;Node20</title>
<path fill="none" stroke="midnightblue" d="M2151.09,-63.54C2176.06,-53.14 2207.03,-40.24 2230.22,-30.58"/>
<polygon fill="midnightblue" stroke="midnightblue" points="2149.73,-60.32 2141.85,-67.4 2152.43,-66.78 2149.73,-60.32"/>
</g>
<!-- Node21 -->
<g id="node21" class="node">
<title>Node21</title>
<g id="a_node21"><a xlink:href="../../dd/d64/dialogaboutapp_8cpp.html" target="_top" xlink:title=" ">
<polygon fill="white" stroke="black" points="2352.5,-0.5 2352.5,-30.5 2493.5,-30.5 2493.5,-0.5 2352.5,-0.5"/>
<text text-anchor="start" x="2360.5" y="-18.5" font-family="Helvetica,sans-Serif" font-size="10.00">src/app/seamly2d/dialogs</text>
<text text-anchor="middle" x="2423" y="-7.5" font-family="Helvetica,sans-Serif" font-size="10.00">/dialogaboutapp.cpp</text>
</a>
</g>
</g>
<!-- Node13&#45;&gt;Node21 -->
<g id="edge23" class="edge">
<title>Node13&#45;&gt;Node21</title>
<path fill="none" stroke="midnightblue" d="M2181.65,-66.3C2234.04,-55.49 2303.91,-41.07 2354.99,-30.53"/>
<polygon fill="midnightblue" stroke="midnightblue" points="2180.83,-62.9 2171.74,-68.35 2182.25,-69.75 2180.83,-62.9"/>
</g>
<!-- Node22 -->
<g id="node22" class="node">
<title>Node22</title>
<g id="a_node22"><a xlink:href="../../d6/d89/dialoglayoutprogress_8cpp.html" target="_top" xlink:title=" ">
<polygon fill="white" stroke="black" points="2511.5,-0.5 2511.5,-30.5 2654.5,-30.5 2654.5,-0.5 2511.5,-0.5"/>
<text text-anchor="start" x="2519.5" y="-18.5" font-family="Helvetica,sans-Serif" font-size="10.00">src/app/seamly2d/dialogs</text>
<text text-anchor="middle" x="2583" y="-7.5" font-family="Helvetica,sans-Serif" font-size="10.00">/dialoglayoutprogress.cpp</text>
</a>
</g>
</g>
<!-- Node13&#45;&gt;Node22 -->
<g id="edge24" class="edge">
<title>Node13&#45;&gt;Node22</title>
<path fill="none" stroke="midnightblue" d="M2181.97,-73.13C2261.27,-63.9 2390.77,-48.07 2502,-31 2505.11,-30.52 2508.28,-30.02 2511.48,-29.5"/>
<polygon fill="midnightblue" stroke="midnightblue" points="2181.13,-69.7 2171.6,-74.33 2181.94,-76.66 2181.13,-69.7"/>
</g>
<!-- Node23 -->
<g id="node23" class="node">
<title>Node23</title>
<g id="a_node23"><a xlink:href="../../d5/d18/dialogpatternproperties_8cpp.html" target="_top" xlink:title=" ">
<polygon fill="white" stroke="black" points="2672.5,-0.5 2672.5,-30.5 2827.5,-30.5 2827.5,-0.5 2672.5,-0.5"/>
<text text-anchor="start" x="2680.5" y="-18.5" font-family="Helvetica,sans-Serif" font-size="10.00">src/app/seamly2d/dialogs</text>
<text text-anchor="middle" x="2750" y="-7.5" font-family="Helvetica,sans-Serif" font-size="10.00">/dialogpatternproperties.cpp</text>
</a>
</g>
</g>
<!-- Node13&#45;&gt;Node23 -->
<g id="edge25" class="edge">
<title>Node13&#45;&gt;Node23</title>
<path fill="none" stroke="midnightblue" d="M2181.74,-74.94C2327.28,-61.96 2639.51,-34.02 2663,-31 2666.04,-30.61 2669.13,-30.19 2672.25,-29.75"/>
<polygon fill="midnightblue" stroke="midnightblue" points="2181.2,-71.47 2171.55,-75.84 2181.83,-78.44 2181.2,-71.47"/>
</g>
<!-- Node24 -->
<g id="node24" class="node">
<title>Node24</title>
<g id="a_node24"><a xlink:href="../../d5/dc5/dialogpreferences_8cpp.html" target="_top" xlink:title=" ">
<polygon fill="white" stroke="black" points="2845.5,-0.5 2845.5,-30.5 2986.5,-30.5 2986.5,-0.5 2845.5,-0.5"/>
<text text-anchor="start" x="2853.5" y="-18.5" font-family="Helvetica,sans-Serif" font-size="10.00">src/app/seamly2d/dialogs</text>
<text text-anchor="middle" x="2916" y="-7.5" font-family="Helvetica,sans-Serif" font-size="10.00">/dialogpreferences.cpp</text>
</a>
</g>
</g>
<!-- Node13&#45;&gt;Node24 -->
<g id="edge26" class="edge">
<title>Node13&#45;&gt;Node24</title>
<path fill="none" stroke="midnightblue" d="M2181.8,-74.68C2210.56,-72.13 2243.81,-69.29 2274,-67 2523.58,-48.11 2587.56,-61.37 2836,-31 2839.08,-30.62 2842.23,-30.2 2845.4,-29.75"/>
<polygon fill="midnightblue" stroke="midnightblue" points="2181.47,-71.2 2171.82,-75.58 2182.09,-78.17 2181.47,-71.2"/>
</g>
<!-- Node13&#45;&gt;Node25 -->
<g id="edge28" class="edge">
<title>Node13&#45;&gt;Node25</title>
<path fill="none" stroke="midnightblue" d="M2181.75,-74.03C2210.51,-71.39 2243.77,-68.66 2274,-67 2975.79,-28.4 3155.66,-101.13 3855,-31 3857.7,-30.73 3860.45,-30.42 3863.22,-30.08"/>
<polygon fill="midnightblue" stroke="midnightblue" points="2181.41,-70.55 2171.78,-74.96 2182.06,-77.52 2181.41,-70.55"/>
</g>
<!-- Node26 -->
<g id="node26" class="node">
<title>Node26</title>
<g id="a_node26"><a xlink:href="../../db/d5c/groups__widget_8cpp.html" target="_top" xlink:title=" ">
<polygon fill="white" stroke="black" points="3004.5,-0.5 3004.5,-30.5 3145.5,-30.5 3145.5,-0.5 3004.5,-0.5"/>
<text text-anchor="start" x="3012.5" y="-18.5" font-family="Helvetica,sans-Serif" font-size="10.00">src/app/seamly2d/dialogs</text>
<text text-anchor="middle" x="3075" y="-7.5" font-family="Helvetica,sans-Serif" font-size="10.00">/groups_widget.cpp</text>
</a>
</g>
</g>
<!-- Node13&#45;&gt;Node26 -->
<g id="edge29" class="edge">
<title>Node13&#45;&gt;Node26</title>
<path fill="none" stroke="midnightblue" d="M2181.78,-74.46C2210.54,-71.87 2243.79,-69.07 2274,-67 2594.09,-45.04 2676.26,-67.69 2995,-31 2998.08,-30.64 3001.23,-30.24 3004.4,-29.81"/>
<polygon fill="midnightblue" stroke="midnightblue" points="2181.45,-70.98 2171.81,-75.37 2182.08,-77.95 2181.45,-70.98"/>
</g>
<!-- Node27 -->
<g id="node27" class="node">
<title>Node27</title>
<g id="a_node27"><a xlink:href="../../dd/d84/shortcuts__dialog_8cpp.html" target="_top" xlink:title=" ">
<polygon fill="white" stroke="black" points="3163.5,-0.5 3163.5,-30.5 3304.5,-30.5 3304.5,-0.5 3163.5,-0.5"/>
<text text-anchor="start" x="3171.5" y="-18.5" font-family="Helvetica,sans-Serif" font-size="10.00">src/app/seamly2d/dialogs</text>
<text text-anchor="middle" x="3234" y="-7.5" font-family="Helvetica,sans-Serif" font-size="10.00">/shortcuts_dialog.cpp</text>
</a>
</g>
</g>
<!-- Node13&#45;&gt;Node27 -->
<g id="edge30" class="edge">
<title>Node13&#45;&gt;Node27</title>
<path fill="none" stroke="midnightblue" d="M2181.77,-74.32C2210.53,-71.71 2243.78,-68.94 2274,-67 2664.64,-41.96 2764.93,-74.01 3154,-31 3157.09,-30.66 3160.23,-30.27 3163.41,-29.84"/>
<polygon fill="midnightblue" stroke="midnightblue" points="2181.44,-70.84 2171.8,-75.23 2182.08,-77.81 2181.44,-70.84"/>
</g>
<!-- Node28 -->
<g id="node28" class="node">
<title>Node28</title>
<g id="a_node28"><a xlink:href="../../d2/df4/show__info__dialog_8cpp.html" target="_top" xlink:title=" ">
<polygon fill="white" stroke="black" points="3322.5,-0.5 3322.5,-30.5 3463.5,-30.5 3463.5,-0.5 3322.5,-0.5"/>
<text text-anchor="start" x="3330.5" y="-18.5" font-family="Helvetica,sans-Serif" font-size="10.00">src/app/seamly2d/dialogs</text>
<text text-anchor="middle" x="3393" y="-7.5" font-family="Helvetica,sans-Serif" font-size="10.00">/show_info_dialog.cpp</text>
</a>
</g>
</g>
<!-- Node13&#45;&gt;Node28 -->
<g id="edge32" class="edge">
<title>Node13&#45;&gt;Node28</title>
<path fill="none" stroke="midnightblue" d="M2181.76,-74.22C2210.52,-71.6 2243.78,-68.84 2274,-67 2735.2,-38.89 2853.59,-80.33 3313,-31 3316.09,-30.67 3319.24,-30.29 3322.41,-29.87"/>
<polygon fill="midnightblue" stroke="midnightblue" points="2181.43,-70.74 2171.79,-75.14 2182.07,-77.71 2181.43,-70.74"/>
</g>
<!-- Node29 -->
<g id="node29" class="node">
<title>Node29</title>
<g id="a_node29"><a xlink:href="../../d3/d49/vpattern_8cpp.html" target="_top" xlink:title=" ">
<polygon fill="white" stroke="black" points="3481.5,-0.5 3481.5,-30.5 3606.5,-30.5 3606.5,-0.5 3481.5,-0.5"/>
<text text-anchor="start" x="3489.5" y="-18.5" font-family="Helvetica,sans-Serif" font-size="10.00">src/app/seamly2d/xml</text>
<text text-anchor="middle" x="3544" y="-7.5" font-family="Helvetica,sans-Serif" font-size="10.00">/vpattern.cpp</text>
</a>
</g>
</g>
<!-- Node13&#45;&gt;Node29 -->
<g id="edge34" class="edge">
<title>Node13&#45;&gt;Node29</title>
<path fill="none" stroke="midnightblue" d="M2181.76,-74.15C2210.52,-71.52 2243.77,-68.77 2274,-67 2805.77,-35.81 2942.8,-91.8 3472,-31 3475.04,-30.65 3478.14,-30.24 3481.27,-29.78"/>
<polygon fill="midnightblue" stroke="midnightblue" points="2181.42,-70.66 2171.79,-75.07 2182.07,-77.63 2181.42,-70.66"/>
</g>
</g>
</svg>
