<?xml version="1.0" encoding="UTF-8" standalone="no"?>
<!DOCTYPE svg PUBLIC "-//W3C//DTD SVG 1.1//EN"
 "http://www.w3.org/Graphics/SVG/1.1/DTD/svg11.dtd">
<!-- Generated by graphviz version 2.43.0 (0)
 -->
<!-- Title: src/app/seamly2d/dialogs/abstractlayout_dialog.h Pages: 1 -->
<!--zoomable 307 -->
<svg id="main" version="1.1" xmlns="http://www.w3.org/2000/svg" xmlns:xlink="http://www.w3.org/1999/xlink" xml:space="preserve" onload="init(evt)">
<style type="text/css"><![CDATA[
.edge:hover path { stroke: red; }
.edge:hover polygon { stroke: red; fill: red; }
]]></style>
<script type="text/javascript"><![CDATA[
var edges = document.getElementsByTagName('g');
if (edges && edges.length) {
  for (var i=0;i<edges.length;i++) {
    if (edges[i].id.substr(0,4)=='edge') {
      edges[i].setAttribute('class','edge');
    }
  }
}
]]></script>
        <defs>
                <circle id="rim" cx="0" cy="0" r="7"/>
                <circle id="rim2" cx="0" cy="0" r="3.5"/>
                <g id="zoomPlus">
                        <use xlink:href="#rim" fill="#404040">
                                <set attributeName="fill" to="#808080" begin="zoomplus.mouseover" end="zoomplus.mouseout"/>
                        </use>
                        <path d="M-4,0h8M0,-4v8" fill="none" stroke="white" stroke-width="1.5" pointer-events="none"/>
                </g>
                <g id="zoomMin">
                        <use xlink:href="#rim" fill="#404040">
                                <set attributeName="fill" to="#808080" begin="zoomminus.mouseover" end="zoomminus.mouseout"/>
                        </use>
                        <path d="M-4,0h8" fill="none" stroke="white" stroke-width="1.5" pointer-events="none"/>
                </g>
                <g id="dirArrow">
                        <path fill="none" stroke="white" stroke-width="1.5" d="M0,-3.0v7 M-2.5,-0.5L0,-3.0L2.5,-0.5"/>
                </g>
               <g id="resetDef">
                       <use xlink:href="#rim2" fill="#404040">
                               <set attributeName="fill" to="#808080" begin="reset.mouseover" end="reset.mouseout"/>
                       </use>
               </g>
        </defs>

<script type="text/javascript">
var viewWidth = 4472;
var viewHeight = 307;
var sectionId = 'dynsection-1';
</script>
<script xlink:href="../../svgpan.js"/>
<svg id="graph" class="graph">
<g id="viewport">
<title>src/app/seamly2d/dialogs/abstractlayout_dialog.h</title>
<polygon fill="white" stroke="transparent" points="-4,4 -4,-303 4467.5,-303 4467.5,4 -4,4"/>
<!-- Node1 -->
<g id="node1" class="node">
<title>Node1</title>
<g id="a_node1"><a xlink:title=" ">
<polygon fill="#bfbfbf" stroke="black" points="2534.5,-268.5 2534.5,-298.5 2675.5,-298.5 2675.5,-268.5 2534.5,-268.5"/>
<text text-anchor="start" x="2542.5" y="-286.5" font-family="Helvetica,sans-Serif" font-size="10.00">src/app/seamly2d/dialogs</text>
<text text-anchor="middle" x="2605" y="-275.5" font-family="Helvetica,sans-Serif" font-size="10.00">/abstractlayout_dialog.h</text>
</a>
</g>
</g>
<!-- Node2 -->
<g id="node2" class="node">
<title>Node2</title>
<g id="a_node2"><a xlink:href="../../dd/db4/abstractlayout__dialog_8cpp.html" target="_top" xlink:title=" ">
<polygon fill="white" stroke="black" points="0,-0.5 0,-30.5 146,-30.5 146,-0.5 0,-0.5"/>
<text text-anchor="start" x="8" y="-18.5" font-family="Helvetica,sans-Serif" font-size="10.00">src/app/seamly2d/dialogs</text>
<text text-anchor="middle" x="73" y="-7.5" font-family="Helvetica,sans-Serif" font-size="10.00">/abstractlayout_dialog.cpp</text>
</a>
</g>
</g>
<!-- Node1&#45;&gt;Node2 -->
<g id="edge1" class="edge">
<title>Node1&#45;&gt;Node2</title>
<path fill="none" stroke="midnightblue" d="M2523.85,-280.33C2238.75,-271.7 1257.15,-233.38 460,-98 343.23,-78.17 208.11,-48.06 132.39,-30.53"/>
<polygon fill="midnightblue" stroke="midnightblue" points="2524,-283.84 2534.1,-280.64 2524.21,-276.84 2524,-283.84"/>
</g>
<!-- Node3 -->
<g id="node3" class="node">
<title>Node3</title>
<g id="a_node3"><a xlink:href="../../d1/d8e/export__layout__dialog_8h.html" target="_top" xlink:title=" ">
<polygon fill="white" stroke="black" points="2534.5,-201.5 2534.5,-231.5 2675.5,-231.5 2675.5,-201.5 2534.5,-201.5"/>
<text text-anchor="start" x="2542.5" y="-219.5" font-family="Helvetica,sans-Serif" font-size="10.00">src/app/seamly2d/dialogs</text>
<text text-anchor="middle" x="2605" y="-208.5" font-family="Helvetica,sans-Serif" font-size="10.00">/export_layout_dialog.h</text>
</a>
</g>
</g>
<!-- Node1&#45;&gt;Node3 -->
<g id="edge2" class="edge">
<title>Node1&#45;&gt;Node3</title>
<path fill="none" stroke="midnightblue" d="M2605,-258.11C2605,-249.15 2605,-239.32 2605,-231.58"/>
<polygon fill="midnightblue" stroke="midnightblue" points="2601.5,-258.4 2605,-268.4 2608.5,-258.4 2601.5,-258.4"/>
</g>
<!-- Node11 -->
<g id="node11" class="node">
<title>Node11</title>
<g id="a_node11"><a xlink:href="../../d3/dd8/layoutsettings__dialog_8h.html" target="_top" xlink:title=" ">
<polygon fill="white" stroke="black" points="2693.5,-201.5 2693.5,-231.5 2834.5,-231.5 2834.5,-201.5 2693.5,-201.5"/>
<text text-anchor="start" x="2701.5" y="-219.5" font-family="Helvetica,sans-Serif" font-size="10.00">src/app/seamly2d/dialogs</text>
<text text-anchor="middle" x="2764" y="-208.5" font-family="Helvetica,sans-Serif" font-size="10.00">/layoutsettings_dialog.h</text>
</a>
</g>
</g>
<!-- Node1&#45;&gt;Node11 -->
<g id="edge11" class="edge">
<title>Node1&#45;&gt;Node11</title>
<path fill="none" stroke="midnightblue" d="M2648.92,-264.54C2674.37,-254.14 2705.93,-241.24 2729.57,-231.58"/>
<polygon fill="midnightblue" stroke="midnightblue" points="2647.43,-261.37 2639.5,-268.4 2650.08,-267.85 2647.43,-261.37"/>
</g>
<!-- Node4 -->
<g id="node4" class="node">
<title>Node4</title>
<g id="a_node4"><a xlink:href="../../dd/d54/export__layout__dialog_8cpp.html" target="_top" xlink:title=" ">
<polygon fill="white" stroke="black" points="164.5,-0.5 164.5,-30.5 307.5,-30.5 307.5,-0.5 164.5,-0.5"/>
<text text-anchor="start" x="172.5" y="-18.5" font-family="Helvetica,sans-Serif" font-size="10.00">src/app/seamly2d/dialogs</text>
<text text-anchor="middle" x="236" y="-7.5" font-family="Helvetica,sans-Serif" font-size="10.00">/export_layout_dialog.cpp</text>
</a>
</g>
</g>
<!-- Node3&#45;&gt;Node4 -->
<g id="edge3" class="edge">
<title>Node3&#45;&gt;Node4</title>
<path fill="none" stroke="midnightblue" d="M2523.98,-214.74C2254.61,-211.37 1364.95,-193.22 637,-98 512.85,-81.76 369.57,-49.25 292.36,-30.57"/>
<polygon fill="midnightblue" stroke="midnightblue" points="2524.02,-218.25 2534.06,-214.87 2524.1,-211.25 2524.02,-218.25"/>
</g>
<!-- Node5 -->
<g id="node5" class="node">
<title>Node5</title>
<g id="a_node5"><a xlink:href="../../d1/d82/mainwindowsnogui_8h.html" target="_top" xlink:title=" ">
<polygon fill="white" stroke="black" points="2507.5,-140 2507.5,-159 2716.5,-159 2716.5,-140 2507.5,-140"/>
<text text-anchor="middle" x="2612" y="-147" font-family="Helvetica,sans-Serif" font-size="10.00">src/app/seamly2d/mainwindowsnogui.h</text>
</a>
</g>
</g>
<!-- Node3&#45;&gt;Node5 -->
<g id="edge4" class="edge">
<title>Node3&#45;&gt;Node5</title>
<path fill="none" stroke="midnightblue" d="M2607.61,-191.25C2608.82,-180.02 2610.18,-167.38 2611.06,-159.19"/>
<polygon fill="midnightblue" stroke="midnightblue" points="2604.11,-191.08 2606.52,-201.4 2611.07,-191.83 2604.11,-191.08"/>
</g>
<!-- Node10 -->
<g id="node10" class="node">
<title>Node10</title>
<g id="a_node10"><a xlink:href="../../d8/de8/mainwindowsnogui_8cpp.html" target="_top" xlink:title=" ">
<polygon fill="white" stroke="black" points="4079.5,-6 4079.5,-25 4300.5,-25 4300.5,-6 4079.5,-6"/>
<text text-anchor="middle" x="4190" y="-13" font-family="Helvetica,sans-Serif" font-size="10.00">src/app/seamly2d/mainwindowsnogui.cpp</text>
</a>
</g>
</g>
<!-- Node3&#45;&gt;Node10 -->
<g id="edge10" class="edge">
<title>Node3&#45;&gt;Node10</title>
<path fill="none" stroke="midnightblue" d="M2685.53,-200.78C2891.28,-167.17 2944.94,-162.92 3148,-134 3359.94,-103.81 3412.21,-90.51 3625,-67 3822.66,-45.16 3873.14,-51.03 4071,-31 4088.19,-29.26 4106.74,-27.12 4123.96,-25.03"/>
<polygon fill="midnightblue" stroke="midnightblue" points="2684.92,-197.33 2675.61,-202.4 2686.05,-204.24 2684.92,-197.33"/>
</g>
<!-- Node6 -->
<g id="node6" class="node">
<title>Node6</title>
<g id="a_node6"><a xlink:href="../../d9/d53/mainwindow_8h.html" target="_top" xlink:title=" ">
<polygon fill="white" stroke="black" points="646,-73 646,-92 822,-92 822,-73 646,-73"/>
<text text-anchor="middle" x="734" y="-80" font-family="Helvetica,sans-Serif" font-size="10.00">src/app/seamly2d/mainwindow.h</text>
</a>
</g>
</g>
<!-- Node5&#45;&gt;Node6 -->
<g id="edge5" class="edge">
<title>Node5&#45;&gt;Node6</title>
<path fill="none" stroke="midnightblue" d="M2543.6,-138.69C2528.6,-136.85 2512.79,-135.15 2498,-134 1856.55,-84.14 1080.46,-82.1 822.26,-82.98"/>
<polygon fill="midnightblue" stroke="midnightblue" points="2543.47,-142.21 2553.83,-139.99 2544.34,-135.26 2543.47,-142.21"/>
</g>
<!-- Node5&#45;&gt;Node10 -->
<g id="edge9" class="edge">
<title>Node5&#45;&gt;Node10</title>
<path fill="none" stroke="midnightblue" d="M2645.25,-136.4C2703.1,-115.56 2820.2,-74.43 2863,-67 3127.61,-21.07 3803.2,-51.26 4071,-31 4089.89,-29.57 4110.38,-27.33 4128.96,-25.03"/>
<polygon fill="midnightblue" stroke="midnightblue" points="2643.71,-133.23 2635.5,-139.92 2646.09,-139.82 2643.71,-133.23"/>
</g>
<!-- Node7 -->
<g id="node7" class="node">
<title>Node7</title>
<g id="a_node7"><a xlink:href="../../df/d3e/application__2d_8cpp.html" target="_top" xlink:title=" ">
<polygon fill="white" stroke="black" points="325.5,-0.5 325.5,-30.5 452.5,-30.5 452.5,-0.5 325.5,-0.5"/>
<text text-anchor="start" x="333.5" y="-18.5" font-family="Helvetica,sans-Serif" font-size="10.00">src/app/seamly2d/core</text>
<text text-anchor="middle" x="389" y="-7.5" font-family="Helvetica,sans-Serif" font-size="10.00">/application_2d.cpp</text>
</a>
</g>
</g>
<!-- Node6&#45;&gt;Node7 -->
<g id="edge6" class="edge">
<title>Node6&#45;&gt;Node7</title>
<path fill="none" stroke="midnightblue" d="M676.66,-71.16C621.38,-61.14 535.4,-45.37 461,-31 458.25,-30.47 455.43,-29.92 452.59,-29.36"/>
<polygon fill="midnightblue" stroke="midnightblue" points="676.15,-74.63 686.61,-72.97 677.4,-67.74 676.15,-74.63"/>
</g>
<!-- Node8 -->
<g id="node8" class="node">
<title>Node8</title>
<g id="a_node8"><a xlink:href="../../dc/d14/app_2seamly2d_2main_8cpp.html" target="_top" xlink:title=" ">
<polygon fill="white" stroke="black" points="470.5,-6 470.5,-25 621.5,-25 621.5,-6 470.5,-6"/>
<text text-anchor="middle" x="546" y="-13" font-family="Helvetica,sans-Serif" font-size="10.00">src/app/seamly2d/main.cpp</text>
</a>
</g>
</g>
<!-- Node6&#45;&gt;Node8 -->
<g id="edge7" class="edge">
<title>Node6&#45;&gt;Node8</title>
<path fill="none" stroke="midnightblue" d="M699.11,-69.44C661.81,-56.54 603.63,-36.42 570.77,-25.06"/>
<polygon fill="midnightblue" stroke="midnightblue" points="698.44,-72.91 709.04,-72.87 700.73,-66.29 698.44,-72.91"/>
</g>
<!-- Node9 -->
<g id="node9" class="node">
<title>Node9</title>
<g id="a_node9"><a xlink:href="../../d8/dd9/mainwindow_8cpp.html" target="_top" xlink:title=" ">
<polygon fill="white" stroke="black" points="640,-6 640,-25 828,-25 828,-6 640,-6"/>
<text text-anchor="middle" x="734" y="-13" font-family="Helvetica,sans-Serif" font-size="10.00">src/app/seamly2d/mainwindow.cpp</text>
</a>
</g>
</g>
<!-- Node6&#45;&gt;Node9 -->
<g id="edge8" class="edge">
<title>Node6&#45;&gt;Node9</title>
<path fill="none" stroke="midnightblue" d="M734,-62.54C734,-50.17 734,-34.62 734,-25.13"/>
<polygon fill="midnightblue" stroke="midnightblue" points="730.5,-62.73 734,-72.73 737.5,-62.73 730.5,-62.73"/>
</g>
<!-- Node11&#45;&gt;Node10 -->
<g id="edge43" class="edge">
<title>Node11&#45;&gt;Node10</title>
<path fill="none" stroke="midnightblue" d="M2844.75,-204.23C3102.46,-168.27 3901.67,-56.74 4129.07,-25"/>
<polygon fill="midnightblue" stroke="midnightblue" points="2844.14,-200.78 2834.72,-205.63 2845.1,-207.72 2844.14,-200.78"/>
</g>
<!-- Node12 -->
<g id="node12" class="node">
<title>Node12</title>
<g id="a_node12"><a xlink:href="../../dd/d57/vcmdexport_8h.html" target="_top" xlink:title=" ">
<polygon fill="white" stroke="black" points="2362.5,-134.5 2362.5,-164.5 2489.5,-164.5 2489.5,-134.5 2362.5,-134.5"/>
<text text-anchor="start" x="2370.5" y="-152.5" font-family="Helvetica,sans-Serif" font-size="10.00">src/app/seamly2d/core</text>
<text text-anchor="middle" x="2426" y="-141.5" font-family="Helvetica,sans-Serif" font-size="10.00">/vcmdexport.h</text>
</a>
</g>
</g>
<!-- Node11&#45;&gt;Node12 -->
<g id="edge12" class="edge">
<title>Node11&#45;&gt;Node12</title>
<path fill="none" stroke="midnightblue" d="M2683.42,-200.44C2630.65,-190.52 2560.19,-177.17 2498,-165 2495.25,-164.46 2492.44,-163.91 2489.6,-163.35"/>
<polygon fill="midnightblue" stroke="midnightblue" points="2682.92,-203.91 2693.39,-202.32 2684.21,-197.03 2682.92,-203.91"/>
</g>
<!-- Node27 -->
<g id="node27" class="node">
<title>Node27</title>
<g id="a_node27"><a xlink:href="../../d0/dfa/layoutsettings__dialog_8cpp.html" target="_top" xlink:title=" ">
<polygon fill="white" stroke="black" points="4318.5,-0.5 4318.5,-30.5 4463.5,-30.5 4463.5,-0.5 4318.5,-0.5"/>
<text text-anchor="start" x="4326.5" y="-18.5" font-family="Helvetica,sans-Serif" font-size="10.00">src/app/seamly2d/dialogs</text>
<text text-anchor="middle" x="4391" y="-7.5" font-family="Helvetica,sans-Serif" font-size="10.00">/layoutsettings_dialog.cpp</text>
</a>
</g>
</g>
<!-- Node11&#45;&gt;Node27 -->
<g id="edge42" class="edge">
<title>Node11&#45;&gt;Node27</title>
<path fill="none" stroke="midnightblue" d="M2844.53,-207.76C2941.5,-198.31 3109.28,-181.53 3253,-165 3723.44,-110.9 3841.89,-102.52 4310,-31 4312.68,-30.59 4315.41,-30.16 4318.17,-29.72"/>
<polygon fill="midnightblue" stroke="midnightblue" points="2844.12,-204.28 2834.51,-208.74 2844.8,-211.25 2844.12,-204.28"/>
</g>
<!-- Node33 -->
<g id="node33" class="node">
<title>Node33</title>
<g id="a_node33"><a xlink:href="../../df/d9b/vcmdexport_8cpp.html" target="_top" xlink:title=" ">
<polygon fill="white" stroke="black" points="2612.5,-67.5 2612.5,-97.5 2739.5,-97.5 2739.5,-67.5 2612.5,-67.5"/>
<text text-anchor="start" x="2620.5" y="-85.5" font-family="Helvetica,sans-Serif" font-size="10.00">src/app/seamly2d/core</text>
<text text-anchor="middle" x="2676" y="-74.5" font-family="Helvetica,sans-Serif" font-size="10.00">/vcmdexport.cpp</text>
</a>
</g>
</g>
<!-- Node11&#45;&gt;Node33 -->
<g id="edge41" class="edge">
<title>Node11&#45;&gt;Node33</title>
<path fill="none" stroke="midnightblue" d="M2755.08,-191.85C2748.15,-174.96 2737.62,-152.12 2725,-134 2715.64,-120.57 2702.66,-107.36 2692.4,-97.82"/>
<polygon fill="midnightblue" stroke="midnightblue" points="2751.97,-193.49 2758.91,-201.5 2758.47,-190.91 2751.97,-193.49"/>
</g>
<!-- Node12&#45;&gt;Node6 -->
<g id="edge40" class="edge">
<title>Node12&#45;&gt;Node6</title>
<path fill="none" stroke="midnightblue" d="M2352.01,-145.66C2077.58,-135.12 1118.59,-98.27 822.05,-86.88"/>
<polygon fill="midnightblue" stroke="midnightblue" points="2352.12,-149.16 2362.25,-146.05 2352.39,-142.17 2352.12,-149.16"/>
</g>
<!-- Node13 -->
<g id="node13" class="node">
<title>Node13</title>
<g id="a_node13"><a xlink:href="../../d7/d61/application__2d_8h.html" target="_top" xlink:title=" ">
<polygon fill="white" stroke="black" points="2362.5,-67.5 2362.5,-97.5 2489.5,-97.5 2489.5,-67.5 2362.5,-67.5"/>
<text text-anchor="start" x="2370.5" y="-85.5" font-family="Helvetica,sans-Serif" font-size="10.00">src/app/seamly2d/core</text>
<text text-anchor="middle" x="2426" y="-74.5" font-family="Helvetica,sans-Serif" font-size="10.00">/application_2d.h</text>
</a>
</g>
</g>
<!-- Node12&#45;&gt;Node13 -->
<g id="edge13" class="edge">
<title>Node12&#45;&gt;Node13</title>
<path fill="none" stroke="midnightblue" d="M2426,-124.11C2426,-115.15 2426,-105.32 2426,-97.58"/>
<polygon fill="midnightblue" stroke="midnightblue" points="2422.5,-124.4 2426,-134.4 2429.5,-124.4 2422.5,-124.4"/>
</g>
<!-- Node12&#45;&gt;Node33 -->
<g id="edge39" class="edge">
<title>Node12&#45;&gt;Node33</title>
<path fill="none" stroke="midnightblue" d="M2489.78,-131.92C2530.58,-121.31 2582.93,-107.7 2621.73,-97.61"/>
<polygon fill="midnightblue" stroke="midnightblue" points="2488.74,-128.57 2479.94,-134.48 2490.5,-135.35 2488.74,-128.57"/>
</g>
<!-- Node13&#45;&gt;Node2 -->
<g id="edge15" class="edge">
<title>Node13&#45;&gt;Node2</title>
<path fill="none" stroke="midnightblue" d="M2352.1,-81.38C2012.09,-80.57 595.87,-74.62 155,-31 152.12,-30.72 149.19,-30.39 146.24,-30.02"/>
<polygon fill="midnightblue" stroke="midnightblue" points="2352.31,-84.88 2362.32,-81.4 2352.33,-77.88 2352.31,-84.88"/>
</g>
<!-- Node13&#45;&gt;Node4 -->
<g id="edge27" class="edge">
<title>Node13&#45;&gt;Node4</title>
<path fill="none" stroke="midnightblue" d="M2352.09,-81.27C2027.1,-80.03 723.27,-72.53 316,-31 313.33,-30.73 310.62,-30.42 307.88,-30.07"/>
<polygon fill="midnightblue" stroke="midnightblue" points="2352.31,-84.77 2362.32,-81.31 2352.34,-77.77 2352.31,-84.77"/>
</g>
<!-- Node13&#45;&gt;Node7 -->
<g id="edge14" class="edge">
<title>Node13&#45;&gt;Node7</title>
<path fill="none" stroke="midnightblue" d="M2352.09,-81.31C2041.14,-80.26 837.8,-73.46 461,-31 458.21,-30.69 455.37,-30.32 452.51,-29.91"/>
<polygon fill="midnightblue" stroke="midnightblue" points="2352.33,-84.81 2362.34,-81.35 2352.35,-77.81 2352.33,-84.81"/>
</g>
<!-- Node13&#45;&gt;Node8 -->
<g id="edge33" class="edge">
<title>Node13&#45;&gt;Node8</title>
<path fill="none" stroke="midnightblue" d="M2352.29,-80.81C2058.87,-77.86 973.25,-64.84 631,-31 617.29,-29.64 602.46,-27.39 589.08,-25.06"/>
<polygon fill="midnightblue" stroke="midnightblue" points="2352.35,-84.31 2362.39,-80.91 2352.42,-77.31 2352.35,-84.31"/>
</g>
<!-- Node13&#45;&gt;Node9 -->
<g id="edge37" class="edge">
<title>Node13&#45;&gt;Node9</title>
<path fill="none" stroke="midnightblue" d="M2352.16,-81.99C2125.43,-82.87 1419.28,-81.09 837,-31 820.54,-29.58 802.68,-27.33 786.54,-25.01"/>
<polygon fill="midnightblue" stroke="midnightblue" points="2352.29,-85.48 2362.28,-81.94 2352.26,-78.48 2352.29,-85.48"/>
</g>
<!-- Node13&#45;&gt;Node10 -->
<g id="edge35" class="edge">
<title>Node13&#45;&gt;Node10</title>
<path fill="none" stroke="midnightblue" d="M2499.92,-74.49C2531.63,-71.74 2569.11,-68.8 2603,-67 3254.72,-32.34 3420.09,-78.53 4071,-31 4090.1,-29.61 4110.84,-27.34 4129.57,-25.01"/>
<polygon fill="midnightblue" stroke="midnightblue" points="2499.5,-71.02 2489.84,-75.38 2500.11,-77.99 2499.5,-71.02"/>
</g>
<!-- Node14 -->
<g id="node14" class="node">
<title>Node14</title>
<g id="a_node14"><a xlink:href="../../d7/dfa/calculator__dialog_8cpp.html" target="_top" xlink:title=" ">
<polygon fill="white" stroke="black" points="846.5,-0.5 846.5,-30.5 987.5,-30.5 987.5,-0.5 846.5,-0.5"/>
<text text-anchor="start" x="854.5" y="-18.5" font-family="Helvetica,sans-Serif" font-size="10.00">src/app/seamly2d/dialogs</text>
<text text-anchor="middle" x="917" y="-7.5" font-family="Helvetica,sans-Serif" font-size="10.00">/calculator_dialog.cpp</text>
</a>
</g>
</g>
<!-- Node13&#45;&gt;Node14 -->
<g id="edge16" class="edge">
<title>Node13&#45;&gt;Node14</title>
<path fill="none" stroke="midnightblue" d="M2352.16,-80.32C2098.38,-76.04 1262.88,-60.05 996,-31 993.23,-30.7 990.41,-30.36 987.56,-29.98"/>
<polygon fill="midnightblue" stroke="midnightblue" points="2352.32,-83.82 2362.38,-80.49 2352.44,-76.82 2352.32,-83.82"/>
</g>
<!-- Node15 -->
<g id="node15" class="node">
<title>Node15</title>
<g id="a_node15"><a xlink:href="../../d2/d2d/preferencesconfigurationpage_8cpp.html" target="_top" xlink:title=" ">
<polygon fill="white" stroke="black" points="1005.5,-0.5 1005.5,-30.5 1252.5,-30.5 1252.5,-0.5 1005.5,-0.5"/>
<text text-anchor="start" x="1013.5" y="-18.5" font-family="Helvetica,sans-Serif" font-size="10.00">src/app/seamly2d/dialogs</text>
<text text-anchor="middle" x="1129" y="-7.5" font-family="Helvetica,sans-Serif" font-size="10.00">/configpages/preferencesconfigurationpage.cpp</text>
</a>
</g>
</g>
<!-- Node13&#45;&gt;Node15 -->
<g id="edge17" class="edge">
<title>Node13&#45;&gt;Node15</title>
<path fill="none" stroke="midnightblue" d="M2352.34,-80C2168.16,-75.87 1672.82,-62.51 1261,-31 1258.24,-30.79 1255.45,-30.57 1252.64,-30.33"/>
<polygon fill="midnightblue" stroke="midnightblue" points="2352.38,-83.5 2362.45,-80.22 2352.53,-76.5 2352.38,-83.5"/>
</g>
<!-- Node16 -->
<g id="node16" class="node">
<title>Node16</title>
<g id="a_node16"><a xlink:href="../../d9/d7f/about2d__dialog_8cpp.html" target="_top" xlink:title=" ">
<polygon fill="white" stroke="black" points="1270.5,-0.5 1270.5,-30.5 1411.5,-30.5 1411.5,-0.5 1270.5,-0.5"/>
<text text-anchor="start" x="1278.5" y="-18.5" font-family="Helvetica,sans-Serif" font-size="10.00">src/app/seamly2d/dialogs</text>
<text text-anchor="middle" x="1341" y="-7.5" font-family="Helvetica,sans-Serif" font-size="10.00">/about2d_dialog.cpp</text>
</a>
</g>
</g>
<!-- Node13&#45;&gt;Node16 -->
<g id="edge18" class="edge">
<title>Node13&#45;&gt;Node16</title>
<path fill="none" stroke="midnightblue" d="M2352.14,-81.05C2185.49,-79.31 1767.78,-70.97 1421,-31 1417.92,-30.64 1414.77,-30.24 1411.6,-29.81"/>
<polygon fill="midnightblue" stroke="midnightblue" points="2352.24,-84.55 2362.27,-81.15 2352.31,-77.55 2352.24,-84.55"/>
</g>
<!-- Node17 -->
<g id="node17" class="node">
<title>Node17</title>
<g id="a_node17"><a xlink:href="../../d9/d70/preferencesgraphicsviewpage_8cpp.html" target="_top" xlink:title=" ">
<polygon fill="white" stroke="black" points="1430,-0.5 1430,-30.5 1678,-30.5 1678,-0.5 1430,-0.5"/>
<text text-anchor="start" x="1438" y="-18.5" font-family="Helvetica,sans-Serif" font-size="10.00">src/app/seamly2d/dialogs</text>
<text text-anchor="middle" x="1554" y="-7.5" font-family="Helvetica,sans-Serif" font-size="10.00">/configpages/preferencesgraphicsviewpage.cpp</text>
</a>
</g>
</g>
<!-- Node13&#45;&gt;Node17 -->
<g id="edge19" class="edge">
<title>Node13&#45;&gt;Node17</title>
<path fill="none" stroke="midnightblue" d="M2352.09,-77.44C2218.97,-69.91 1930.13,-52.55 1687,-31 1684.11,-30.74 1681.18,-30.48 1678.23,-30.2"/>
<polygon fill="midnightblue" stroke="midnightblue" points="2351.99,-80.94 2362.17,-78.01 2352.39,-73.95 2351.99,-80.94"/>
</g>
<!-- Node18 -->
<g id="node18" class="node">
<title>Node18</title>
<g id="a_node18"><a xlink:href="../../d2/d00/vtooloptionspropertybrowser_8cpp.html" target="_top" xlink:title=" ">
<polygon fill="white" stroke="black" points="1696,-0.5 1696,-30.5 1876,-30.5 1876,-0.5 1696,-0.5"/>
<text text-anchor="start" x="1704" y="-18.5" font-family="Helvetica,sans-Serif" font-size="10.00">src/app/seamly2d/core</text>
<text text-anchor="middle" x="1786" y="-7.5" font-family="Helvetica,sans-Serif" font-size="10.00">/vtooloptionspropertybrowser.cpp</text>
</a>
</g>
</g>
<!-- Node13&#45;&gt;Node18 -->
<g id="edge20" class="edge">
<title>Node13&#45;&gt;Node18</title>
<path fill="none" stroke="midnightblue" d="M2352.06,-75.83C2247.77,-67.56 2051.56,-50.96 1885,-31 1882.07,-30.65 1879.09,-30.28 1876.08,-29.9"/>
<polygon fill="midnightblue" stroke="midnightblue" points="2351.93,-79.33 2362.17,-76.63 2352.48,-72.35 2351.93,-79.33"/>
</g>
<!-- Node19 -->
<g id="node19" class="node">
<title>Node19</title>
<g id="a_node19"><a xlink:href="../../dc/d20/preferencespathpage_8cpp.html" target="_top" xlink:title=" ">
<polygon fill="white" stroke="black" points="1894.5,-0.5 1894.5,-30.5 2099.5,-30.5 2099.5,-0.5 1894.5,-0.5"/>
<text text-anchor="start" x="1902.5" y="-18.5" font-family="Helvetica,sans-Serif" font-size="10.00">src/app/seamly2d/dialogs</text>
<text text-anchor="middle" x="1997" y="-7.5" font-family="Helvetica,sans-Serif" font-size="10.00">/configpages/preferencespathpage.cpp</text>
</a>
</g>
</g>
<!-- Node13&#45;&gt;Node19 -->
<g id="edge21" class="edge">
<title>Node13&#45;&gt;Node19</title>
<path fill="none" stroke="midnightblue" d="M2352.25,-70.33C2279.58,-59.31 2168.32,-42.46 2089.7,-30.55"/>
<polygon fill="midnightblue" stroke="midnightblue" points="2351.83,-73.8 2362.24,-71.84 2352.87,-66.88 2351.83,-73.8"/>
</g>
<!-- Node20 -->
<g id="node20" class="node">
<title>Node20</title>
<g id="a_node20"><a xlink:href="../../dc/d63/preferencespatternpage_8cpp.html" target="_top" xlink:title=" ">
<polygon fill="white" stroke="black" points="2118,-0.5 2118,-30.5 2336,-30.5 2336,-0.5 2118,-0.5"/>
<text text-anchor="start" x="2126" y="-18.5" font-family="Helvetica,sans-Serif" font-size="10.00">src/app/seamly2d/dialogs</text>
<text text-anchor="middle" x="2227" y="-7.5" font-family="Helvetica,sans-Serif" font-size="10.00">/configpages/preferencespatternpage.cpp</text>
</a>
</g>
</g>
<!-- Node13&#45;&gt;Node20 -->
<g id="edge22" class="edge">
<title>Node13&#45;&gt;Node20</title>
<path fill="none" stroke="midnightblue" d="M2373.12,-64.23C2340.93,-53.71 2300.33,-40.45 2270.1,-30.58"/>
<polygon fill="midnightblue" stroke="midnightblue" points="2372.23,-67.62 2382.82,-67.4 2374.4,-60.96 2372.23,-67.62"/>
</g>
<!-- Node21 -->
<g id="node21" class="node">
<title>Node21</title>
<g id="a_node21"><a xlink:href="../../d6/d89/dialoglayoutprogress_8cpp.html" target="_top" xlink:title=" ">
<polygon fill="white" stroke="black" points="2354.5,-0.5 2354.5,-30.5 2497.5,-30.5 2497.5,-0.5 2354.5,-0.5"/>
<text text-anchor="start" x="2362.5" y="-18.5" font-family="Helvetica,sans-Serif" font-size="10.00">src/app/seamly2d/dialogs</text>
<text text-anchor="middle" x="2426" y="-7.5" font-family="Helvetica,sans-Serif" font-size="10.00">/dialoglayoutprogress.cpp</text>
</a>
</g>
</g>
<!-- Node13&#45;&gt;Node21 -->
<g id="edge23" class="edge">
<title>Node13&#45;&gt;Node21</title>
<path fill="none" stroke="midnightblue" d="M2426,-57.11C2426,-48.15 2426,-38.32 2426,-30.58"/>
<polygon fill="midnightblue" stroke="midnightblue" points="2422.5,-57.4 2426,-67.4 2429.5,-57.4 2422.5,-57.4"/>
</g>
<!-- Node22 -->
<g id="node22" class="node">
<title>Node22</title>
<g id="a_node22"><a xlink:href="../../de/d87/dialognewpattern_8cpp.html" target="_top" xlink:title=" ">
<polygon fill="white" stroke="black" points="2515.5,-0.5 2515.5,-30.5 2656.5,-30.5 2656.5,-0.5 2515.5,-0.5"/>
<text text-anchor="start" x="2523.5" y="-18.5" font-family="Helvetica,sans-Serif" font-size="10.00">src/app/seamly2d/dialogs</text>
<text text-anchor="middle" x="2586" y="-7.5" font-family="Helvetica,sans-Serif" font-size="10.00">/dialognewpattern.cpp</text>
</a>
</g>
</g>
<!-- Node13&#45;&gt;Node22 -->
<g id="edge24" class="edge">
<title>Node13&#45;&gt;Node22</title>
<path fill="none" stroke="midnightblue" d="M2470.2,-63.54C2495.8,-53.14 2527.57,-40.24 2551.35,-30.58"/>
<polygon fill="midnightblue" stroke="midnightblue" points="2468.66,-60.39 2460.72,-67.4 2471.3,-66.87 2468.66,-60.39"/>
</g>
<!-- Node23 -->
<g id="node23" class="node">
<title>Node23</title>
<g id="a_node23"><a xlink:href="../../dd/dc2/decimalchart__dialog_8cpp.html" target="_top" xlink:title=" ">
<polygon fill="white" stroke="black" points="2674.5,-0.5 2674.5,-30.5 2815.5,-30.5 2815.5,-0.5 2674.5,-0.5"/>
<text text-anchor="start" x="2682.5" y="-18.5" font-family="Helvetica,sans-Serif" font-size="10.00">src/app/seamly2d/dialogs</text>
<text text-anchor="middle" x="2745" y="-7.5" font-family="Helvetica,sans-Serif" font-size="10.00">/decimalchart_dialog.cpp</text>
</a>
</g>
</g>
<!-- Node13&#45;&gt;Node23 -->
<g id="edge25" class="edge">
<title>Node13&#45;&gt;Node23</title>
<path fill="none" stroke="midnightblue" d="M2499.82,-66.46C2552.95,-55.63 2624.11,-41.13 2676.07,-30.54"/>
<polygon fill="midnightblue" stroke="midnightblue" points="2498.89,-63.08 2489.79,-68.5 2500.29,-69.94 2498.89,-63.08"/>
</g>
<!-- Node24 -->
<g id="node24" class="node">
<title>Node24</title>
<g id="a_node24"><a xlink:href="../../d5/dc5/dialogpreferences_8cpp.html" target="_top" xlink:title=" ">
<polygon fill="white" stroke="black" points="2833.5,-0.5 2833.5,-30.5 2974.5,-30.5 2974.5,-0.5 2833.5,-0.5"/>
<text text-anchor="start" x="2841.5" y="-18.5" font-family="Helvetica,sans-Serif" font-size="10.00">src/app/seamly2d/dialogs</text>
<text text-anchor="middle" x="2904" y="-7.5" font-family="Helvetica,sans-Serif" font-size="10.00">/dialogpreferences.cpp</text>
</a>
</g>
</g>
<!-- Node13&#45;&gt;Node24 -->
<g id="edge26" class="edge">
<title>Node13&#45;&gt;Node24</title>
<path fill="none" stroke="midnightblue" d="M2499.54,-73.35C2579.54,-64.22 2711.11,-48.38 2824,-31 2827.07,-30.53 2830.2,-30.03 2833.36,-29.51"/>
<polygon fill="midnightblue" stroke="midnightblue" points="2499.1,-69.88 2489.56,-74.49 2499.89,-76.84 2499.1,-69.88"/>
</g>
<!-- Node25 -->
<g id="node25" class="node">
<title>Node25</title>
<g id="a_node25"><a xlink:href="../../d5/d18/dialogpatternproperties_8cpp.html" target="_top" xlink:title=" ">
<polygon fill="white" stroke="black" points="2992.5,-0.5 2992.5,-30.5 3147.5,-30.5 3147.5,-0.5 2992.5,-0.5"/>
<text text-anchor="start" x="3000.5" y="-18.5" font-family="Helvetica,sans-Serif" font-size="10.00">src/app/seamly2d/dialogs</text>
<text text-anchor="middle" x="3070" y="-7.5" font-family="Helvetica,sans-Serif" font-size="10.00">/dialogpatternproperties.cpp</text>
</a>
</g>
</g>
<!-- Node13&#45;&gt;Node25 -->
<g id="edge28" class="edge">
<title>Node13&#45;&gt;Node25</title>
<path fill="none" stroke="midnightblue" d="M2500.02,-75.48C2629.4,-64.85 2891.58,-42.75 2983,-31 2986.04,-30.61 2989.13,-30.19 2992.25,-29.75"/>
<polygon fill="midnightblue" stroke="midnightblue" points="2499.49,-72.01 2489.81,-76.32 2500.06,-78.99 2499.49,-72.01"/>
</g>
<!-- Node26 -->
<g id="node26" class="node">
<title>Node26</title>
<g id="a_node26"><a xlink:href="../../db/d5c/groups__widget_8cpp.html" target="_top" xlink:title=" ">
<polygon fill="white" stroke="black" points="3165.5,-0.5 3165.5,-30.5 3306.5,-30.5 3306.5,-0.5 3165.5,-0.5"/>
<text text-anchor="start" x="3173.5" y="-18.5" font-family="Helvetica,sans-Serif" font-size="10.00">src/app/seamly2d/dialogs</text>
<text text-anchor="middle" x="3236" y="-7.5" font-family="Helvetica,sans-Serif" font-size="10.00">/groups_widget.cpp</text>
</a>
</g>
</g>
<!-- Node13&#45;&gt;Node26 -->
<g id="edge29" class="edge">
<title>Node13&#45;&gt;Node26</title>
<path fill="none" stroke="midnightblue" d="M2499.97,-75.16C2531.68,-72.52 2569.15,-69.49 2603,-67 2848.64,-48.94 2911.54,-61.01 3156,-31 3159.08,-30.62 3162.23,-30.2 3165.4,-29.75"/>
<polygon fill="midnightblue" stroke="midnightblue" points="2499.56,-71.68 2489.88,-76.01 2500.14,-78.66 2499.56,-71.68"/>
</g>
<!-- Node13&#45;&gt;Node27 -->
<g id="edge30" class="edge">
<title>Node13&#45;&gt;Node27</title>
<path fill="none" stroke="midnightblue" d="M2499.92,-74.44C2531.63,-71.67 2569.1,-68.74 2603,-67 3360.83,-28 3554.89,-106.09 4310,-31 4312.7,-30.73 4315.45,-30.42 4318.22,-30.08"/>
<polygon fill="midnightblue" stroke="midnightblue" points="2499.49,-70.96 2489.84,-75.33 2500.11,-77.93 2499.49,-70.96"/>
</g>
<!-- Node28 -->
<g id="node28" class="node">
<title>Node28</title>
<g id="a_node28"><a xlink:href="../../df/d69/welcome__dialog_8cpp.html" target="_top" xlink:title=" ">
<polygon fill="white" stroke="black" points="3324.5,-0.5 3324.5,-30.5 3465.5,-30.5 3465.5,-0.5 3324.5,-0.5"/>
<text text-anchor="start" x="3332.5" y="-18.5" font-family="Helvetica,sans-Serif" font-size="10.00">src/app/seamly2d/dialogs</text>
<text text-anchor="middle" x="3395" y="-7.5" font-family="Helvetica,sans-Serif" font-size="10.00">/welcome_dialog.cpp</text>
</a>
</g>
</g>
<!-- Node13&#45;&gt;Node28 -->
<g id="edge31" class="edge">
<title>Node13&#45;&gt;Node28</title>
<path fill="none" stroke="midnightblue" d="M2499.95,-74.92C2531.66,-72.24 2569.13,-69.24 2603,-67 2919.16,-46.06 3000.24,-67.33 3315,-31 3318.08,-30.64 3321.23,-30.24 3324.4,-29.8"/>
<polygon fill="midnightblue" stroke="midnightblue" points="2499.53,-71.45 2489.87,-75.78 2500.13,-78.42 2499.53,-71.45"/>
</g>
<!-- Node29 -->
<g id="node29" class="node">
<title>Node29</title>
<g id="a_node29"><a xlink:href="../../dd/d84/shortcuts__dialog_8cpp.html" target="_top" xlink:title=" ">
<polygon fill="white" stroke="black" points="3483.5,-0.5 3483.5,-30.5 3624.5,-30.5 3624.5,-0.5 3483.5,-0.5"/>
<text text-anchor="start" x="3491.5" y="-18.5" font-family="Helvetica,sans-Serif" font-size="10.00">src/app/seamly2d/dialogs</text>
<text text-anchor="middle" x="3554" y="-7.5" font-family="Helvetica,sans-Serif" font-size="10.00">/shortcuts_dialog.cpp</text>
</a>
</g>
</g>
<!-- Node13&#45;&gt;Node29 -->
<g id="edge32" class="edge">
<title>Node13&#45;&gt;Node29</title>
<path fill="none" stroke="midnightblue" d="M2499.94,-74.77C2531.65,-72.06 2569.12,-69.09 2603,-67 2989.71,-43.18 3088.91,-73.65 3474,-31 3477.09,-30.66 3480.23,-30.27 3483.41,-29.84"/>
<polygon fill="midnightblue" stroke="midnightblue" points="2499.52,-71.29 2489.86,-75.64 2500.12,-78.27 2499.52,-71.29"/>
</g>
<!-- Node30 -->
<g id="node30" class="node">
<title>Node30</title>
<g id="a_node30"><a xlink:href="../../d2/df4/show__info__dialog_8cpp.html" target="_top" xlink:title=" ">
<polygon fill="white" stroke="black" points="3642.5,-0.5 3642.5,-30.5 3783.5,-30.5 3783.5,-0.5 3642.5,-0.5"/>
<text text-anchor="start" x="3650.5" y="-18.5" font-family="Helvetica,sans-Serif" font-size="10.00">src/app/seamly2d/dialogs</text>
<text text-anchor="middle" x="3713" y="-7.5" font-family="Helvetica,sans-Serif" font-size="10.00">/show_info_dialog.cpp</text>
</a>
</g>
</g>
<!-- Node13&#45;&gt;Node30 -->
<g id="edge34" class="edge">
<title>Node13&#45;&gt;Node30</title>
<path fill="none" stroke="midnightblue" d="M2499.93,-74.67C2531.64,-71.94 2569.12,-68.98 2603,-67 3060.28,-40.29 3177.57,-79.97 3633,-31 3636.09,-30.67 3639.24,-30.29 3642.41,-29.86"/>
<polygon fill="midnightblue" stroke="midnightblue" points="2499.51,-71.19 2489.85,-75.54 2500.12,-78.16 2499.51,-71.19"/>
</g>
<!-- Node31 -->
<g id="node31" class="node">
<title>Node31</title>
<g id="a_node31"><a xlink:href="../../d3/d49/vpattern_8cpp.html" target="_top" xlink:title=" ">
<polygon fill="white" stroke="black" points="3801.5,-0.5 3801.5,-30.5 3926.5,-30.5 3926.5,-0.5 3801.5,-0.5"/>
<text text-anchor="start" x="3809.5" y="-18.5" font-family="Helvetica,sans-Serif" font-size="10.00">src/app/seamly2d/xml</text>
<text text-anchor="middle" x="3864" y="-7.5" font-family="Helvetica,sans-Serif" font-size="10.00">/vpattern.cpp</text>
</a>
</g>
</g>
<!-- Node13&#45;&gt;Node31 -->
<g id="edge36" class="edge">
<title>Node13&#45;&gt;Node31</title>
<path fill="none" stroke="midnightblue" d="M2499.93,-74.59C2531.64,-71.85 2569.11,-68.9 2603,-67 3130.86,-37.41 3266.78,-91.4 3792,-31 3795.04,-30.65 3798.14,-30.24 3801.27,-29.78"/>
<polygon fill="midnightblue" stroke="midnightblue" points="2499.51,-71.11 2489.85,-75.47 2500.12,-78.09 2499.51,-71.11"/>
</g>
<!-- Node32 -->
<g id="node32" class="node">
<title>Node32</title>
<g id="a_node32"><a xlink:href="../../d9/da3/image__tool_8cpp.html" target="_top" xlink:title=" ">
<polygon fill="white" stroke="black" points="3944.5,-0.5 3944.5,-30.5 4061.5,-30.5 4061.5,-0.5 3944.5,-0.5"/>
<text text-anchor="start" x="3952.5" y="-18.5" font-family="Helvetica,sans-Serif" font-size="10.00">src/libs/tools/images</text>
<text text-anchor="middle" x="4003" y="-7.5" font-family="Helvetica,sans-Serif" font-size="10.00">/image_tool.cpp</text>
</a>
</g>
</g>
<!-- Node13&#45;&gt;Node32 -->
<g id="edge38" class="edge">
<title>Node13&#45;&gt;Node32</title>
<path fill="none" stroke="midnightblue" d="M2499.93,-74.54C2531.63,-71.78 2569.11,-68.84 2603,-67 3194.34,-34.81 3346.94,-101.05 3935,-31 3938,-30.64 3941.06,-30.22 3944.14,-29.74"/>
<polygon fill="midnightblue" stroke="midnightblue" points="2499.5,-71.06 2489.85,-75.42 2500.11,-78.03 2499.5,-71.06"/>
</g>
</g>
</svg>
        <g id="navigator" transform="translate(0 0)" fill="#404254">
                <rect fill="#f2f5e9" fill-opacity="0.5" stroke="#606060" stroke-width=".5" x="0" y="0" width="60" height="60"/>
                <use id="zoomplus" xlink:href="#zoomPlus" x="17" y="9" onmousedown="handleZoom(evt,'in')"/>
                <use id="zoomminus" xlink:href="#zoomMin" x="42" y="9" onmousedown="handleZoom(evt,'out')"/>
                <use id="reset" xlink:href="#resetDef" x="30" y="36" onmousedown="handleReset()"/>
                <g id="arrowUp" xlink:href="#dirArrow" transform="translate(30 24)" onmousedown="handlePan(0,-1)">
                  <use xlink:href="#rim" fill="#404040">
                        <set attributeName="fill" to="#808080" begin="arrowUp.mouseover" end="arrowUp.mouseout"/>
                  </use>
                  <path fill="none" stroke="white" stroke-width="1.5" d="M0,-3.0v7 M-2.5,-0.5L0,-3.0L2.5,-0.5"/>
                </g>
                <g id="arrowRight" xlink:href="#dirArrow" transform="rotate(90) translate(36 -43)" onmousedown="handlePan(1,0)">
                  <use xlink:href="#rim" fill="#404040">
                        <set attributeName="fill" to="#808080" begin="arrowRight.mouseover" end="arrowRight.mouseout"/>
                  </use>
                  <path fill="none" stroke="white" stroke-width="1.5" d="M0,-3.0v7 M-2.5,-0.5L0,-3.0L2.5,-0.5"/>
                </g>
                <g id="arrowDown" xlink:href="#dirArrow" transform="rotate(180) translate(-30 -48)" onmousedown="handlePan(0,1)">
                  <use xlink:href="#rim" fill="#404040">
                        <set attributeName="fill" to="#808080" begin="arrowDown.mouseover" end="arrowDown.mouseout"/>
                  </use>
                  <path fill="none" stroke="white" stroke-width="1.5" d="M0,-3.0v7 M-2.5,-0.5L0,-3.0L2.5,-0.5"/>
                </g>
                <g id="arrowLeft" xlink:href="#dirArrow" transform="rotate(270) translate(-36 17)" onmousedown="handlePan(-1,0)">
                  <use xlink:href="#rim" fill="#404040">
                        <set attributeName="fill" to="#808080" begin="arrowLeft.mouseover" end="arrowLeft.mouseout"/>
                  </use>
                  <path fill="none" stroke="white" stroke-width="1.5" d="M0,-3.0v7 M-2.5,-0.5L0,-3.0L2.5,-0.5"/>
                </g>
        </g>
        <svg viewBox="0 0 15 15" width="100%" height="30px" preserveAspectRatio="xMaxYMin meet">
         <g id="arrow_out" transform="scale(0.3 0.3)">
          <a xlink:href="abstractlayout__dialog_8h__dep__incl_org.svg" target="_base">
           <rect id="button" ry="5" rx="5" y="6" x="6" height="38" width="38"
                fill="#f2f5e9" fill-opacity="0.5" stroke="#606060" stroke-width="1.0"/>
           <path id="arrow"
             d="M 11.500037,31.436501 C 11.940474,20.09759 22.043105,11.32322 32.158766,21.979434 L 37.068811,17.246167 C 37.068811,17.246167 37.088388,32 37.088388,32 L 22.160133,31.978069 C 22.160133,31.978069 26.997745,27.140456 26.997745,27.140456 C 18.528582,18.264221 13.291696,25.230495 11.500037,31.436501 z"
             style="fill:#404040;"/>
          </a>
         </g>
        </svg>
</svg>
