<?xml version="1.0" encoding="UTF-8" standalone="no"?>
<!DOCTYPE svg PUBLIC "-//W3C//DTD SVG 1.1//EN"
 "http://www.w3.org/Graphics/SVG/1.1/DTD/svg11.dtd">
<!-- Generated by graphviz version 2.43.0 (0)
 -->
<!-- Title: src/libs/vwidgets/export_format_combobox.h Pages: 1 -->
<svg width="2420pt" height="207pt"
 viewBox="0.00 0.00 2420.00 207.00" xmlns="http://www.w3.org/2000/svg" xmlns:xlink="http://www.w3.org/1999/xlink">
<g id="graph0" class="graph" transform="scale(1 1) rotate(0) translate(4 203)">
<title>src/libs/vwidgets/export_format_combobox.h</title>
<polygon fill="white" stroke="transparent" points="-4,4 -4,-203 2416,-203 2416,4 -4,4"/>
<!-- Node1 -->
<g id="node1" class="node">
<title>Node1</title>
<g id="a_node1"><a xlink:title=" ">
<polygon fill="#bfbfbf" stroke="black" points="271,-168.5 271,-198.5 404,-198.5 404,-168.5 271,-168.5"/>
<text text-anchor="start" x="279" y="-186.5" font-family="Helvetica,sans-Serif" font-size="10.00">src/libs/vwidgets/export</text>
<text text-anchor="middle" x="337.5" y="-175.5" font-family="Helvetica,sans-Serif" font-size="10.00">_format_combobox.h</text>
</a>
</g>
</g>
<!-- Node2 -->
<g id="node2" class="node">
<title>Node2</title>
<g id="a_node2"><a xlink:title=" ">
<polygon fill="white" stroke="#bfbfbf" points="169,-112.5 169,-131.5 246,-131.5 246,-112.5 169,-112.5"/>
<text text-anchor="middle" x="207.5" y="-119.5" font-family="Helvetica,sans-Serif" font-size="10.00">QComboBox</text>
</a>
</g>
</g>
<!-- Node1&#45;&gt;Node2 -->
<g id="edge1" class="edge">
<title>Node1&#45;&gt;Node2</title>
<path fill="none" stroke="midnightblue" d="M306.69,-168.4C285.17,-158.55 256.66,-145.5 235.73,-135.92"/>
<polygon fill="midnightblue" stroke="midnightblue" points="236.97,-132.64 226.42,-131.66 234.05,-139 236.97,-132.64"/>
</g>
<!-- Node3 -->
<g id="node3" class="node">
<title>Node3</title>
<g id="a_node3"><a xlink:title=" ">
<polygon fill="white" stroke="#bfbfbf" points="264,-112.5 264,-131.5 323,-131.5 323,-112.5 264,-112.5"/>
<text text-anchor="middle" x="293.5" y="-119.5" font-family="Helvetica,sans-Serif" font-size="10.00">QWidget</text>
</a>
</g>
</g>
<!-- Node1&#45;&gt;Node3 -->
<g id="edge2" class="edge">
<title>Node1&#45;&gt;Node3</title>
<path fill="none" stroke="midnightblue" d="M327.07,-168.4C320.74,-159.84 312.63,-148.87 305.97,-139.86"/>
<polygon fill="midnightblue" stroke="midnightblue" points="308.66,-137.62 299.9,-131.66 303.03,-141.78 308.66,-137.62"/>
</g>
<!-- Node4 -->
<g id="node4" class="node">
<title>Node4</title>
<g id="a_node4"><a xlink:href="../../d4/da4/def_8h.html" target="_top" xlink:title=" ">
<polygon fill="white" stroke="black" points="341.5,-112.5 341.5,-131.5 423.5,-131.5 423.5,-112.5 341.5,-112.5"/>
<text text-anchor="middle" x="382.5" y="-119.5" font-family="Helvetica,sans-Serif" font-size="10.00">../vmisc/def.h</text>
</a>
</g>
</g>
<!-- Node1&#45;&gt;Node4 -->
<g id="edge3" class="edge">
<title>Node1&#45;&gt;Node4</title>
<path fill="none" stroke="midnightblue" d="M348.16,-168.4C354.64,-159.84 362.93,-148.87 369.75,-139.86"/>
<polygon fill="midnightblue" stroke="midnightblue" points="372.71,-141.74 375.95,-131.66 367.13,-137.52 372.71,-141.74"/>
</g>
<!-- Node16 -->
<g id="node16" class="node">
<title>Node16</title>
<g id="a_node16"><a xlink:href="../../d0/d89/vabstractpattern_8h.html" target="_top" xlink:title=" ">
<polygon fill="white" stroke="black" points="1020.5,-112.5 1020.5,-131.5 1172.5,-131.5 1172.5,-112.5 1020.5,-112.5"/>
<text text-anchor="middle" x="1096.5" y="-119.5" font-family="Helvetica,sans-Serif" font-size="10.00">../ifc/xml/vabstractpattern.h</text>
</a>
</g>
</g>
<!-- Node1&#45;&gt;Node16 -->
<g id="edge15" class="edge">
<title>Node1&#45;&gt;Node16</title>
<path fill="none" stroke="midnightblue" d="M404.19,-177.27C541.83,-166.48 857.26,-141.75 1010.2,-129.77"/>
<polygon fill="midnightblue" stroke="midnightblue" points="1010.79,-133.23 1020.48,-128.96 1010.24,-126.25 1010.79,-133.23"/>
</g>
<!-- Node5 -->
<g id="node5" class="node">
<title>Node5</title>
<g id="a_node5"><a xlink:title=" ">
<polygon fill="white" stroke="#bfbfbf" points="527.5,-56.5 527.5,-75.5 647.5,-75.5 647.5,-56.5 527.5,-56.5"/>
<text text-anchor="middle" x="587.5" y="-63.5" font-family="Helvetica,sans-Serif" font-size="10.00">qcompilerdetection.h</text>
</a>
</g>
</g>
<!-- Node4&#45;&gt;Node5 -->
<g id="edge4" class="edge">
<title>Node4&#45;&gt;Node5</title>
<path fill="none" stroke="midnightblue" d="M414.98,-112.44C450.22,-103.16 506.6,-88.31 545.26,-78.13"/>
<polygon fill="midnightblue" stroke="midnightblue" points="546.39,-81.45 555.17,-75.52 544.61,-74.68 546.39,-81.45"/>
</g>
<!-- Node6 -->
<g id="node6" class="node">
<title>Node6</title>
<g id="a_node6"><a xlink:title=" ">
<polygon fill="white" stroke="#bfbfbf" points="170,-56.5 170,-75.5 243,-75.5 243,-56.5 170,-56.5"/>
<text text-anchor="middle" x="206.5" y="-63.5" font-family="Helvetica,sans-Serif" font-size="10.00">QFileDialog</text>
</a>
</g>
</g>
<!-- Node4&#45;&gt;Node6 -->
<g id="edge5" class="edge">
<title>Node4&#45;&gt;Node6</title>
<path fill="none" stroke="midnightblue" d="M354.61,-112.44C324.75,-103.28 277.19,-88.69 244.04,-78.52"/>
<polygon fill="midnightblue" stroke="midnightblue" points="244.84,-75.1 234.26,-75.52 242.79,-81.8 244.84,-75.1"/>
</g>
<!-- Node7 -->
<g id="node7" class="node">
<title>Node7</title>
<g id="a_node7"><a xlink:title=" ">
<polygon fill="white" stroke="#bfbfbf" points="261.5,-56.5 261.5,-75.5 311.5,-75.5 311.5,-56.5 261.5,-56.5"/>
<text text-anchor="middle" x="286.5" y="-63.5" font-family="Helvetica,sans-Serif" font-size="10.00">QLineF</text>
</a>
</g>
</g>
<!-- Node4&#45;&gt;Node7 -->
<g id="edge6" class="edge">
<title>Node4&#45;&gt;Node7</title>
<path fill="none" stroke="midnightblue" d="M367.08,-112.32C351.96,-103.82 328.68,-90.73 311.03,-80.8"/>
<polygon fill="midnightblue" stroke="midnightblue" points="312.32,-77.51 301.89,-75.65 308.89,-83.61 312.32,-77.51"/>
</g>
<!-- Node8 -->
<g id="node8" class="node">
<title>Node8</title>
<g id="a_node8"><a xlink:title=" ">
<polygon fill="white" stroke="#bfbfbf" points="760,-0.5 760,-19.5 813,-19.5 813,-0.5 760,-0.5"/>
<text text-anchor="middle" x="786.5" y="-7.5" font-family="Helvetica,sans-Serif" font-size="10.00">QString</text>
</a>
</g>
</g>
<!-- Node4&#45;&gt;Node8 -->
<g id="edge7" class="edge">
<title>Node4&#45;&gt;Node8</title>
<path fill="none" stroke="midnightblue" d="M374.36,-112.37C362.57,-98.83 343.69,-72.45 358.5,-56 384.49,-27.14 650.6,-15.47 749.63,-12.11"/>
<polygon fill="midnightblue" stroke="midnightblue" points="749.9,-15.6 759.78,-11.78 749.67,-8.61 749.9,-15.6"/>
</g>
<!-- Node9 -->
<g id="node9" class="node">
<title>Node9</title>
<g id="a_node9"><a xlink:title=" ">
<polygon fill="white" stroke="#bfbfbf" points="665.5,-56.5 665.5,-75.5 735.5,-75.5 735.5,-56.5 665.5,-56.5"/>
<text text-anchor="middle" x="700.5" y="-63.5" font-family="Helvetica,sans-Serif" font-size="10.00">QStringList</text>
</a>
</g>
</g>
<!-- Node4&#45;&gt;Node9 -->
<g id="edge8" class="edge">
<title>Node4&#45;&gt;Node9</title>
<path fill="none" stroke="midnightblue" d="M423.9,-114.72C475.69,-106.74 567.32,-92.26 655.55,-76.12"/>
<polygon fill="midnightblue" stroke="midnightblue" points="656.26,-79.55 665.46,-74.3 654.99,-72.66 656.26,-79.55"/>
</g>
<!-- Node10 -->
<g id="node10" class="node">
<title>Node10</title>
<g id="a_node10"><a xlink:title=" ">
<polygon fill="white" stroke="#bfbfbf" points="368,-56.5 368,-75.5 397,-75.5 397,-56.5 368,-56.5"/>
<text text-anchor="middle" x="382.5" y="-63.5" font-family="Helvetica,sans-Serif" font-size="10.00">Qt</text>
</a>
</g>
</g>
<!-- Node4&#45;&gt;Node10 -->
<g id="edge9" class="edge">
<title>Node4&#45;&gt;Node10</title>
<path fill="none" stroke="midnightblue" d="M382.5,-112.08C382.5,-105.01 382.5,-94.86 382.5,-85.99"/>
<polygon fill="midnightblue" stroke="midnightblue" points="386,-85.75 382.5,-75.75 379,-85.75 386,-85.75"/>
</g>
<!-- Node11 -->
<g id="node11" class="node">
<title>Node11</title>
<g id="a_node11"><a xlink:title=" ">
<polygon fill="white" stroke="#bfbfbf" points="855,-0.5 855,-19.5 914,-19.5 914,-0.5 855,-0.5"/>
<text text-anchor="middle" x="884.5" y="-7.5" font-family="Helvetica,sans-Serif" font-size="10.00">QtGlobal</text>
</a>
</g>
</g>
<!-- Node4&#45;&gt;Node11 -->
<g id="edge10" class="edge">
<title>Node4&#45;&gt;Node11</title>
<path fill="none" stroke="midnightblue" d="M402.17,-112.34C422.06,-103.5 453.63,-89.23 480.5,-76 497.62,-67.57 500.27,-61.66 518.5,-56 648.43,-15.64 687.61,-37.77 822.5,-20 829.77,-19.04 837.5,-17.97 844.96,-16.9"/>
<polygon fill="midnightblue" stroke="midnightblue" points="845.48,-20.36 854.88,-15.46 844.48,-13.43 845.48,-20.36"/>
</g>
<!-- Node12 -->
<g id="node12" class="node">
<title>Node12</title>
<g id="a_node12"><a xlink:title=" ">
<polygon fill="white" stroke="#bfbfbf" points="415.5,-56.5 415.5,-75.5 471.5,-75.5 471.5,-56.5 415.5,-56.5"/>
<text text-anchor="middle" x="443.5" y="-63.5" font-family="Helvetica,sans-Serif" font-size="10.00">QPrinter</text>
</a>
</g>
</g>
<!-- Node4&#45;&gt;Node12 -->
<g id="edge11" class="edge">
<title>Node4&#45;&gt;Node12</title>
<path fill="none" stroke="midnightblue" d="M392.3,-112.32C401.32,-104.34 414.91,-92.31 425.82,-82.65"/>
<polygon fill="midnightblue" stroke="midnightblue" points="428.35,-85.08 433.52,-75.83 423.71,-79.84 428.35,-85.08"/>
</g>
<!-- Node13 -->
<g id="node13" class="node">
<title>Node13</title>
<g id="a_node13"><a xlink:title=" ">
<polygon fill="white" stroke="#bfbfbf" points="0,-56.5 0,-75.5 51,-75.5 51,-56.5 0,-56.5"/>
<text text-anchor="middle" x="25.5" y="-63.5" font-family="Helvetica,sans-Serif" font-size="10.00">csignal</text>
</a>
</g>
</g>
<!-- Node4&#45;&gt;Node13 -->
<g id="edge12" class="edge">
<title>Node4&#45;&gt;Node13</title>
<path fill="none" stroke="midnightblue" d="M341.33,-113.58C338.01,-113.03 334.7,-112.49 331.5,-112 214.16,-93.89 180.87,-99.34 60.97,-76.09"/>
<polygon fill="midnightblue" stroke="midnightblue" points="61.53,-72.63 51.04,-74.13 60.18,-79.5 61.53,-72.63"/>
</g>
<!-- Node14 -->
<g id="node14" class="node">
<title>Node14</title>
<g id="a_node14"><a xlink:href="../../d4/d82/debugbreak_8h.html" target="_top" xlink:title=" ">
<polygon fill="white" stroke="black" points="69,-56.5 69,-75.5 152,-75.5 152,-56.5 69,-56.5"/>
<text text-anchor="middle" x="110.5" y="-63.5" font-family="Helvetica,sans-Serif" font-size="10.00">debugbreak.h</text>
</a>
</g>
</g>
<!-- Node4&#45;&gt;Node14 -->
<g id="edge13" class="edge">
<title>Node4&#45;&gt;Node14</title>
<path fill="none" stroke="midnightblue" d="M341.48,-112.86C293.62,-103.36 214.41,-87.63 162.33,-77.29"/>
<polygon fill="midnightblue" stroke="midnightblue" points="162.79,-73.81 152.3,-75.3 161.42,-80.68 162.79,-73.81"/>
</g>
<!-- Node15 -->
<g id="node15" class="node">
<title>Node15</title>
<g id="a_node15"><a xlink:title=" ">
<polygon fill="white" stroke="#bfbfbf" points="83,-0.5 83,-19.5 138,-19.5 138,-0.5 83,-0.5"/>
<text text-anchor="middle" x="110.5" y="-7.5" font-family="Helvetica,sans-Serif" font-size="10.00">signal.h</text>
</a>
</g>
</g>
<!-- Node14&#45;&gt;Node15 -->
<g id="edge14" class="edge">
<title>Node14&#45;&gt;Node15</title>
<path fill="none" stroke="midnightblue" d="M110.5,-56.08C110.5,-49.01 110.5,-38.86 110.5,-29.99"/>
<polygon fill="midnightblue" stroke="midnightblue" points="114,-29.75 110.5,-19.75 107,-29.75 114,-29.75"/>
</g>
<!-- Node16&#45;&gt;Node5 -->
<g id="edge16" class="edge">
<title>Node16&#45;&gt;Node5</title>
<path fill="none" stroke="midnightblue" d="M1020.12,-113.84C934.45,-105.66 791.09,-91.53 657.69,-76.11"/>
<polygon fill="midnightblue" stroke="midnightblue" points="658.04,-72.63 647.7,-74.95 657.23,-79.58 658.04,-72.63"/>
</g>
<!-- Node16&#45;&gt;Node8 -->
<g id="edge22" class="edge">
<title>Node16&#45;&gt;Node8</title>
<path fill="none" stroke="midnightblue" d="M1020.2,-121.03C937.57,-119.24 813.52,-110.64 783.5,-76 772.65,-63.48 775.22,-43.98 779.39,-29.6"/>
<polygon fill="midnightblue" stroke="midnightblue" points="782.81,-30.4 782.69,-19.8 776.18,-28.16 782.81,-30.4"/>
</g>
<!-- Node16&#45;&gt;Node9 -->
<g id="edge23" class="edge">
<title>Node16&#45;&gt;Node9</title>
<path fill="none" stroke="midnightblue" d="M1021.88,-112.48C951.5,-104.16 843.13,-90.66 749.5,-76 748.23,-75.8 746.93,-75.59 745.63,-75.38"/>
<polygon fill="midnightblue" stroke="midnightblue" points="745.97,-71.89 735.53,-73.66 744.8,-78.79 745.97,-71.89"/>
</g>
<!-- Node16&#45;&gt;Node11 -->
<g id="edge25" class="edge">
<title>Node16&#45;&gt;Node11</title>
<path fill="none" stroke="midnightblue" d="M1091.33,-112.44C1082.47,-98.51 1063.05,-70.99 1039.5,-56 1004.2,-33.53 957.34,-21.97 924.41,-16.23"/>
<polygon fill="midnightblue" stroke="midnightblue" points="924.68,-12.72 914.25,-14.56 923.55,-19.63 924.68,-12.72"/>
</g>
<!-- Node17 -->
<g id="node17" class="node">
<title>Node17</title>
<g id="a_node17"><a xlink:title=" ">
<polygon fill="white" stroke="#bfbfbf" points="1080,-0.5 1080,-19.5 1129,-19.5 1129,-0.5 1080,-0.5"/>
<text text-anchor="middle" x="1104.5" y="-7.5" font-family="Helvetica,sans-Serif" font-size="10.00">QHash</text>
</a>
</g>
</g>
<!-- Node16&#45;&gt;Node17 -->
<g id="edge17" class="edge">
<title>Node16&#45;&gt;Node17</title>
<path fill="none" stroke="midnightblue" d="M1172.72,-117.54C1280.08,-111.88 1465.09,-98.91 1485.5,-76 1491.41,-69.36 1491.45,-62.6 1485.5,-56 1435.51,-0.56 1230.77,-31.45 1139.33,-19.6"/>
<polygon fill="midnightblue" stroke="midnightblue" points="1139.7,-16.12 1129.28,-18.04 1138.62,-23.04 1139.7,-16.12"/>
</g>
<!-- Node18 -->
<g id="node18" class="node">
<title>Node18</title>
<g id="a_node18"><a xlink:title=" ">
<polygon fill="white" stroke="#bfbfbf" points="1125,-56.5 1125,-75.5 1170,-75.5 1170,-56.5 1125,-56.5"/>
<text text-anchor="middle" x="1147.5" y="-63.5" font-family="Helvetica,sans-Serif" font-size="10.00">QMap</text>
</a>
</g>
</g>
<!-- Node16&#45;&gt;Node18 -->
<g id="edge18" class="edge">
<title>Node16&#45;&gt;Node18</title>
<path fill="none" stroke="midnightblue" d="M1104.92,-112.08C1112.35,-104.22 1123.35,-92.57 1132.31,-83.08"/>
<polygon fill="midnightblue" stroke="midnightblue" points="1134.91,-85.42 1139.24,-75.75 1129.82,-80.62 1134.91,-85.42"/>
</g>
<!-- Node19 -->
<g id="node19" class="node">
<title>Node19</title>
<g id="a_node19"><a xlink:title=" ">
<polygon fill="white" stroke="#bfbfbf" points="1188.5,-56.5 1188.5,-75.5 1268.5,-75.5 1268.5,-56.5 1188.5,-56.5"/>
<text text-anchor="middle" x="1228.5" y="-63.5" font-family="Helvetica,sans-Serif" font-size="10.00">QMetaObject</text>
</a>
</g>
</g>
<!-- Node16&#45;&gt;Node19 -->
<g id="edge19" class="edge">
<title>Node16&#45;&gt;Node19</title>
<path fill="none" stroke="midnightblue" d="M1117.42,-112.44C1139.24,-103.52 1173.65,-89.44 1198.39,-79.32"/>
<polygon fill="midnightblue" stroke="midnightblue" points="1199.75,-82.54 1207.68,-75.52 1197.1,-76.06 1199.75,-82.54"/>
</g>
<!-- Node20 -->
<g id="node20" class="node">
<title>Node20</title>
<g id="a_node20"><a xlink:title=" ">
<polygon fill="white" stroke="#bfbfbf" points="1286.5,-56.5 1286.5,-75.5 1342.5,-75.5 1342.5,-56.5 1286.5,-56.5"/>
<text text-anchor="middle" x="1314.5" y="-63.5" font-family="Helvetica,sans-Serif" font-size="10.00">QObject</text>
</a>
</g>
</g>
<!-- Node16&#45;&gt;Node20 -->
<g id="edge20" class="edge">
<title>Node16&#45;&gt;Node20</title>
<path fill="none" stroke="midnightblue" d="M1131.04,-112.44C1170.67,-102.63 1235.43,-86.59 1276.47,-76.42"/>
<polygon fill="midnightblue" stroke="midnightblue" points="1277.49,-79.77 1286.36,-73.97 1275.81,-72.98 1277.49,-79.77"/>
</g>
<!-- Node21 -->
<g id="node21" class="node">
<title>Node21</title>
<g id="a_node21"><a xlink:title=" ">
<polygon fill="white" stroke="#bfbfbf" points="1360.5,-56.5 1360.5,-75.5 1402.5,-75.5 1402.5,-56.5 1360.5,-56.5"/>
<text text-anchor="middle" x="1381.5" y="-63.5" font-family="Helvetica,sans-Serif" font-size="10.00">QPair</text>
</a>
</g>
</g>
<!-- Node16&#45;&gt;Node21 -->
<g id="edge21" class="edge">
<title>Node16&#45;&gt;Node21</title>
<path fill="none" stroke="midnightblue" d="M1156.16,-112.49C1205.76,-104.96 1278.35,-92.88 1350.15,-76.1"/>
<polygon fill="midnightblue" stroke="midnightblue" points="1351.35,-79.41 1360.28,-73.7 1349.74,-72.6 1351.35,-79.41"/>
</g>
<!-- Node22 -->
<g id="node22" class="node">
<title>Node22</title>
<g id="a_node22"><a xlink:title=" ">
<polygon fill="white" stroke="#bfbfbf" points="1421,-56.5 1421,-75.5 1476,-75.5 1476,-56.5 1421,-56.5"/>
<text text-anchor="middle" x="1448.5" y="-63.5" font-family="Helvetica,sans-Serif" font-size="10.00">QVector</text>
</a>
</g>
</g>
<!-- Node16&#45;&gt;Node22 -->
<g id="edge24" class="edge">
<title>Node16&#45;&gt;Node22</title>
<path fill="none" stroke="midnightblue" d="M1170.35,-112.5C1232.09,-104.92 1322.62,-92.72 1410.78,-75.97"/>
<polygon fill="midnightblue" stroke="midnightblue" points="1411.52,-79.4 1420.68,-74.07 1410.2,-72.52 1411.52,-79.4"/>
</g>
<!-- Node23 -->
<g id="node23" class="node">
<title>Node23</title>
<g id="a_node23"><a xlink:href="../../d8/da5/vdomdocument_8h.html" target="_top" xlink:title=" ">
<polygon fill="white" stroke="black" points="1532.5,-56.5 1532.5,-75.5 1634.5,-75.5 1634.5,-56.5 1532.5,-56.5"/>
<text text-anchor="middle" x="1583.5" y="-63.5" font-family="Helvetica,sans-Serif" font-size="10.00">vdomdocument.h</text>
</a>
</g>
</g>
<!-- Node16&#45;&gt;Node23 -->
<g id="edge26" class="edge">
<title>Node16&#45;&gt;Node23</title>
<path fill="none" stroke="midnightblue" d="M1172.82,-113.59C1257.4,-105.2 1397.83,-90.78 1518.5,-76 1519.77,-75.84 1521.06,-75.68 1522.35,-75.52"/>
<polygon fill="midnightblue" stroke="midnightblue" points="1522.95,-78.97 1532.43,-74.23 1522.06,-72.03 1522.95,-78.97"/>
</g>
<!-- Node34 -->
<g id="node34" class="node">
<title>Node34</title>
<g id="a_node34"><a xlink:title=" ">
<polygon fill="white" stroke="#bfbfbf" points="979.5,-0.5 979.5,-19.5 1061.5,-19.5 1061.5,-0.5 979.5,-0.5"/>
<text text-anchor="middle" x="1020.5" y="-7.5" font-family="Helvetica,sans-Serif" font-size="10.00">../vmisc/def.h</text>
</a>
</g>
</g>
<!-- Node16&#45;&gt;Node34 -->
<g id="edge47" class="edge">
<title>Node16&#45;&gt;Node34</title>
<path fill="none" stroke="midnightblue" d="M1094.77,-112.36C1091.84,-99.26 1084.96,-74 1072.5,-56 1064.32,-44.19 1052.35,-33.54 1041.95,-25.57"/>
<polygon fill="midnightblue" stroke="midnightblue" points="1043.84,-22.62 1033.7,-19.54 1039.71,-28.27 1043.84,-22.62"/>
</g>
<!-- Node37 -->
<g id="node37" class="node">
<title>Node37</title>
<g id="a_node37"><a xlink:href="../../d9/d47/vtoolrecord_8h.html" target="_top" xlink:title=" ">
<polygon fill="white" stroke="black" points="792,-56.5 792,-75.5 873,-75.5 873,-56.5 792,-56.5"/>
<text text-anchor="middle" x="832.5" y="-63.5" font-family="Helvetica,sans-Serif" font-size="10.00">vtoolrecord.h</text>
</a>
</g>
</g>
<!-- Node16&#45;&gt;Node37 -->
<g id="edge43" class="edge">
<title>Node16&#45;&gt;Node37</title>
<path fill="none" stroke="midnightblue" d="M1054.67,-112.44C1008.15,-102.93 933.01,-87.56 883.19,-77.37"/>
<polygon fill="midnightblue" stroke="midnightblue" points="883.77,-73.91 873.27,-75.34 882.36,-80.77 883.77,-73.91"/>
</g>
<!-- Node38 -->
<g id="node38" class="node">
<title>Node38</title>
<g id="a_node38"><a xlink:title=" ">
<polygon fill="white" stroke="#bfbfbf" points="891,-56.5 891,-75.5 1030,-75.5 1030,-56.5 891,-56.5"/>
<text text-anchor="middle" x="960.5" y="-63.5" font-family="Helvetica,sans-Serif" font-size="10.00">../vwidgets/pen_toolbar.h</text>
</a>
</g>
</g>
<!-- Node16&#45;&gt;Node38 -->
<g id="edge48" class="edge">
<title>Node16&#45;&gt;Node38</title>
<path fill="none" stroke="midnightblue" d="M1074.95,-112.44C1052.47,-103.52 1017.01,-89.44 991.52,-79.32"/>
<polygon fill="midnightblue" stroke="midnightblue" points="992.53,-75.95 981.95,-75.52 989.95,-82.46 992.53,-75.95"/>
</g>
<!-- Node23&#45;&gt;Node8 -->
<g id="edge34" class="edge">
<title>Node23&#45;&gt;Node8</title>
<path fill="none" stroke="midnightblue" d="M1532.41,-59.96C1517.31,-58.57 1500.75,-57.13 1485.5,-56 1201.83,-34.99 1129.45,-49.13 846.5,-20 838.85,-19.21 830.68,-18.14 822.92,-17.01"/>
<polygon fill="midnightblue" stroke="midnightblue" points="823.43,-13.55 813.02,-15.52 822.38,-20.47 823.43,-13.55"/>
</g>
<!-- Node23&#45;&gt;Node11 -->
<g id="edge37" class="edge">
<title>Node23&#45;&gt;Node11</title>
<path fill="none" stroke="midnightblue" d="M1532.4,-60.09C1517.3,-58.7 1500.74,-57.23 1485.5,-56 1256.8,-37.51 1199.08,-39.94 970.5,-20 955.46,-18.69 938.96,-17.02 924.47,-15.47"/>
<polygon fill="midnightblue" stroke="midnightblue" points="924.64,-11.97 914.33,-14.38 923.89,-18.93 924.64,-11.97"/>
</g>
<!-- Node23&#45;&gt;Node17 -->
<g id="edge31" class="edge">
<title>Node23&#45;&gt;Node17</title>
<path fill="none" stroke="midnightblue" d="M1532.43,-57.72C1527.73,-57.11 1523.03,-56.53 1518.5,-56 1353.2,-36.74 1307.25,-49.31 1139.2,-19.83"/>
<polygon fill="midnightblue" stroke="midnightblue" points="1139.74,-16.37 1129.28,-18.06 1138.51,-23.26 1139.74,-16.37"/>
</g>
<!-- Node24 -->
<g id="node24" class="node">
<title>Node24</title>
<g id="a_node24"><a xlink:title=" ">
<polygon fill="white" stroke="#bfbfbf" points="1896,-0.5 1896,-19.5 1997,-19.5 1997,-0.5 1896,-0.5"/>
<text text-anchor="middle" x="1946.5" y="-7.5" font-family="Helvetica,sans-Serif" font-size="10.00">QCoreApplication</text>
</a>
</g>
</g>
<!-- Node23&#45;&gt;Node24 -->
<g id="edge27" class="edge">
<title>Node23&#45;&gt;Node24</title>
<path fill="none" stroke="midnightblue" d="M1634.61,-57.5C1692.96,-48.93 1791.57,-34.4 1885.97,-20.23"/>
<polygon fill="midnightblue" stroke="midnightblue" points="1886.6,-23.67 1895.97,-18.72 1885.56,-16.75 1886.6,-23.67"/>
</g>
<!-- Node25 -->
<g id="node25" class="node">
<title>Node25</title>
<g id="a_node25"><a xlink:title=" ">
<polygon fill="white" stroke="#bfbfbf" points="2015.5,-0.5 2015.5,-19.5 2113.5,-19.5 2113.5,-0.5 2015.5,-0.5"/>
<text text-anchor="middle" x="2064.5" y="-7.5" font-family="Helvetica,sans-Serif" font-size="10.00">QDomDocument</text>
</a>
</g>
</g>
<!-- Node23&#45;&gt;Node25 -->
<g id="edge28" class="edge">
<title>Node23&#45;&gt;Node25</title>
<path fill="none" stroke="midnightblue" d="M1634.71,-60.35C1712.49,-53.12 1865.3,-38.21 2005.41,-20.09"/>
<polygon fill="midnightblue" stroke="midnightblue" points="2006.01,-23.54 2015.48,-18.78 2005.11,-16.6 2006.01,-23.54"/>
</g>
<!-- Node26 -->
<g id="node26" class="node">
<title>Node26</title>
<g id="a_node26"><a xlink:title=" ">
<polygon fill="white" stroke="#bfbfbf" points="2131.5,-0.5 2131.5,-19.5 2219.5,-19.5 2219.5,-0.5 2131.5,-0.5"/>
<text text-anchor="middle" x="2175.5" y="-7.5" font-family="Helvetica,sans-Serif" font-size="10.00">QDomElement</text>
</a>
</g>
</g>
<!-- Node23&#45;&gt;Node26 -->
<g id="edge29" class="edge">
<title>Node23&#45;&gt;Node26</title>
<path fill="none" stroke="midnightblue" d="M1634.56,-62.19C1728.7,-56.68 1936.19,-43.09 2121.11,-20.07"/>
<polygon fill="midnightblue" stroke="midnightblue" points="2121.81,-23.51 2131.3,-18.8 2120.94,-16.57 2121.81,-23.51"/>
</g>
<!-- Node27 -->
<g id="node27" class="node">
<title>Node27</title>
<g id="a_node27"><a xlink:title=" ">
<polygon fill="white" stroke="#bfbfbf" points="2238,-0.5 2238,-19.5 2311,-19.5 2311,-0.5 2238,-0.5"/>
<text text-anchor="middle" x="2274.5" y="-7.5" font-family="Helvetica,sans-Serif" font-size="10.00">QDomNode</text>
</a>
</g>
</g>
<!-- Node23&#45;&gt;Node27 -->
<g id="edge30" class="edge">
<title>Node23&#45;&gt;Node27</title>
<path fill="none" stroke="midnightblue" d="M1634.72,-63.58C1742.55,-60.11 2001,-49.38 2227.81,-19.91"/>
<polygon fill="midnightblue" stroke="midnightblue" points="2228.45,-23.36 2237.91,-18.58 2227.54,-16.42 2228.45,-23.36"/>
</g>
<!-- Node28 -->
<g id="node28" class="node">
<title>Node28</title>
<g id="a_node28"><a xlink:title=" ">
<polygon fill="white" stroke="#bfbfbf" points="2329,-0.5 2329,-19.5 2412,-19.5 2412,-0.5 2329,-0.5"/>
<text text-anchor="middle" x="2370.5" y="-7.5" font-family="Helvetica,sans-Serif" font-size="10.00">QLatin1String</text>
</a>
</g>
</g>
<!-- Node23&#45;&gt;Node28 -->
<g id="edge32" class="edge">
<title>Node23&#45;&gt;Node28</title>
<path fill="none" stroke="midnightblue" d="M1634.62,-63.94C1753.18,-61.03 2056.22,-51.06 2318.71,-20.09"/>
<polygon fill="midnightblue" stroke="midnightblue" points="2319.3,-23.54 2328.81,-18.88 2318.47,-16.59 2319.3,-23.54"/>
</g>
<!-- Node29 -->
<g id="node29" class="node">
<title>Node29</title>
<g id="a_node29"><a xlink:title=" ">
<polygon fill="white" stroke="#bfbfbf" points="1147.5,-0.5 1147.5,-19.5 1251.5,-19.5 1251.5,-0.5 1147.5,-0.5"/>
<text text-anchor="middle" x="1199.5" y="-7.5" font-family="Helvetica,sans-Serif" font-size="10.00">QStaticStringData</text>
</a>
</g>
</g>
<!-- Node23&#45;&gt;Node29 -->
<g id="edge33" class="edge">
<title>Node23&#45;&gt;Node29</title>
<path fill="none" stroke="midnightblue" d="M1532.48,-57.91C1454.67,-47.11 1310.95,-27.13 1261.86,-20.18"/>
<polygon fill="midnightblue" stroke="midnightblue" points="1262.13,-16.68 1251.74,-18.74 1261.15,-23.61 1262.13,-16.68"/>
</g>
<!-- Node30 -->
<g id="node30" class="node">
<title>Node30</title>
<g id="a_node30"><a xlink:title=" ">
<polygon fill="white" stroke="#bfbfbf" points="1269.5,-0.5 1269.5,-19.5 1345.5,-19.5 1345.5,-0.5 1269.5,-0.5"/>
<text text-anchor="middle" x="1307.5" y="-7.5" font-family="Helvetica,sans-Serif" font-size="10.00">QStringData</text>
</a>
</g>
</g>
<!-- Node23&#45;&gt;Node30 -->
<g id="edge35" class="edge">
<title>Node23&#45;&gt;Node30</title>
<path fill="none" stroke="midnightblue" d="M1539.77,-56.44C1489.61,-46.63 1407.62,-30.59 1355.67,-20.42"/>
<polygon fill="midnightblue" stroke="midnightblue" points="1356.18,-16.96 1345.7,-18.47 1354.84,-23.83 1356.18,-16.96"/>
</g>
<!-- Node31 -->
<g id="node31" class="node">
<title>Node31</title>
<g id="a_node31"><a xlink:title=" ">
<polygon fill="white" stroke="#bfbfbf" points="1364,-0.5 1364,-19.5 1453,-19.5 1453,-0.5 1364,-0.5"/>
<text text-anchor="middle" x="1408.5" y="-7.5" font-family="Helvetica,sans-Serif" font-size="10.00">QStringDataPtr</text>
</a>
</g>
</g>
<!-- Node23&#45;&gt;Node31 -->
<g id="edge36" class="edge">
<title>Node23&#45;&gt;Node31</title>
<path fill="none" stroke="midnightblue" d="M1555.77,-56.44C1526.07,-47.28 1478.78,-32.69 1445.83,-22.52"/>
<polygon fill="midnightblue" stroke="midnightblue" points="1446.69,-19.12 1436.1,-19.52 1444.62,-25.81 1446.69,-19.12"/>
</g>
<!-- Node32 -->
<g id="node32" class="node">
<title>Node32</title>
<g id="a_node32"><a xlink:title=" ">
<polygon fill="white" stroke="#bfbfbf" points="1470.5,-0.5 1470.5,-19.5 1526.5,-19.5 1526.5,-0.5 1470.5,-0.5"/>
<text text-anchor="middle" x="1498.5" y="-7.5" font-family="Helvetica,sans-Serif" font-size="10.00">QLocale</text>
</a>
</g>
</g>
<!-- Node23&#45;&gt;Node32 -->
<g id="edge38" class="edge">
<title>Node23&#45;&gt;Node32</title>
<path fill="none" stroke="midnightblue" d="M1569.84,-56.32C1556.58,-47.9 1536.23,-34.97 1520.65,-25.07"/>
<polygon fill="midnightblue" stroke="midnightblue" points="1522.44,-22.06 1512.12,-19.65 1518.69,-27.97 1522.44,-22.06"/>
</g>
<!-- Node33 -->
<g id="node33" class="node">
<title>Node33</title>
<g id="a_node33"><a xlink:title=" ">
<polygon fill="white" stroke="#bfbfbf" points="1545,-0.5 1545,-19.5 1622,-19.5 1622,-0.5 1545,-0.5"/>
<text text-anchor="middle" x="1583.5" y="-7.5" font-family="Helvetica,sans-Serif" font-size="10.00">../ifc/ifcdef.h</text>
</a>
</g>
</g>
<!-- Node23&#45;&gt;Node33 -->
<g id="edge39" class="edge">
<title>Node23&#45;&gt;Node33</title>
<path fill="none" stroke="midnightblue" d="M1583.5,-56.08C1583.5,-49.01 1583.5,-38.86 1583.5,-29.99"/>
<polygon fill="midnightblue" stroke="midnightblue" points="1587,-29.75 1583.5,-19.75 1580,-29.75 1587,-29.75"/>
</g>
<!-- Node23&#45;&gt;Node34 -->
<g id="edge40" class="edge">
<title>Node23&#45;&gt;Node34</title>
<path fill="none" stroke="midnightblue" d="M1532.39,-60.26C1517.29,-58.87 1500.73,-57.36 1485.5,-56 1304.77,-39.84 1256.31,-43.92 1071.69,-19.9"/>
<polygon fill="midnightblue" stroke="midnightblue" points="1072.02,-16.41 1061.65,-18.58 1071.11,-23.35 1072.02,-16.41"/>
</g>
<!-- Node35 -->
<g id="node35" class="node">
<title>Node35</title>
<g id="a_node35"><a xlink:title=" ">
<polygon fill="white" stroke="#bfbfbf" points="1640,-0.5 1640,-19.5 1757,-19.5 1757,-0.5 1640,-0.5"/>
<text text-anchor="middle" x="1698.5" y="-7.5" font-family="Helvetica,sans-Serif" font-size="10.00">../vmisc/diagnostic.h</text>
</a>
</g>
</g>
<!-- Node23&#45;&gt;Node35 -->
<g id="edge41" class="edge">
<title>Node23&#45;&gt;Node35</title>
<path fill="none" stroke="midnightblue" d="M1601.72,-56.44C1620.4,-47.68 1649.66,-33.94 1671.12,-23.86"/>
<polygon fill="midnightblue" stroke="midnightblue" points="1672.8,-26.93 1680.36,-19.52 1669.82,-20.6 1672.8,-26.93"/>
</g>
<!-- Node36 -->
<g id="node36" class="node">
<title>Node36</title>
<g id="a_node36"><a xlink:title=" ">
<polygon fill="white" stroke="#bfbfbf" points="1775,-0.5 1775,-19.5 1878,-19.5 1878,-0.5 1775,-0.5"/>
<text text-anchor="middle" x="1826.5" y="-7.5" font-family="Helvetica,sans-Serif" font-size="10.00">../vmisc/logging.h</text>
</a>
</g>
</g>
<!-- Node23&#45;&gt;Node36 -->
<g id="edge42" class="edge">
<title>Node23&#45;&gt;Node36</title>
<path fill="none" stroke="midnightblue" d="M1622,-56.44C1664.31,-47.04 1732.32,-31.93 1778.17,-21.74"/>
<polygon fill="midnightblue" stroke="midnightblue" points="1779.17,-25.1 1788.18,-19.52 1777.65,-18.27 1779.17,-25.1"/>
</g>
<!-- Node37&#45;&gt;Node8 -->
<g id="edge44" class="edge">
<title>Node37&#45;&gt;Node8</title>
<path fill="none" stroke="midnightblue" d="M824.9,-56.08C818.27,-48.3 808.48,-36.8 800.44,-27.37"/>
<polygon fill="midnightblue" stroke="midnightblue" points="803.1,-25.09 793.95,-19.75 797.77,-29.63 803.1,-25.09"/>
</g>
<!-- Node37&#45;&gt;Node11 -->
<g id="edge45" class="edge">
<title>Node37&#45;&gt;Node11</title>
<path fill="none" stroke="midnightblue" d="M841.09,-56.08C848.66,-48.22 859.88,-36.57 869.01,-27.08"/>
<polygon fill="midnightblue" stroke="midnightblue" points="871.66,-29.38 876.07,-19.75 866.62,-24.53 871.66,-29.38"/>
</g>
<!-- Node37&#45;&gt;Node34 -->
<g id="edge46" class="edge">
<title>Node37&#45;&gt;Node34</title>
<path fill="none" stroke="midnightblue" d="M862.29,-56.44C894.33,-47.24 945.43,-32.56 980.85,-22.39"/>
<polygon fill="midnightblue" stroke="midnightblue" points="982.21,-25.64 990.85,-19.52 980.27,-18.91 982.21,-25.64"/>
</g>
</g>
</svg>
