<?xml version="1.0" encoding="UTF-8" standalone="no"?>
<!DOCTYPE svg PUBLIC "-//W3C//DTD SVG 1.1//EN"
 "http://www.w3.org/Graphics/SVG/1.1/DTD/svg11.dtd">
<!-- Generated by graphviz version 2.43.0 (0)
 -->
<!-- Title: src/libs/vwidgets/export_format_combobox.h Pages: 1 -->
<!--zoomable 280 -->

<svg id="main" version="1.1" xmlns="http://www.w3.org/2000/svg" xmlns:xlink="http://www.w3.org/1999/xlink" xml:space="preserve" onload="init(evt)">
<style type="text/css"><![CDATA[
.node, .edge {opacity: 0.7;}
.node.selected, .edge.selected {opacity: 1;}
.edge:hover path { stroke: red; }
.edge:hover polygon { stroke: red; fill: red; }
]]></style>

<defs>
  <circle id="rim" cx="0" cy="0" r="7"/>
  <circle id="rim2" cx="0" cy="0" r="3.5"/>
  <g id="zoomPlus">
    <use xlink:href="#rim" fill="#404040"><set attributeName="fill" to="#808080" begin="zoomplus.mouseover" end="zoomplus.mouseout"/></use>
    <path d="M-4,0h8M0,-4v8" fill="none" stroke="white" stroke-width="1.5" pointer-events="none"/>
  </g>
  <g id="zoomMin">
    <use xlink:href="#rim" fill="#404040"><set attributeName="fill" to="#808080" begin="zoomminus.mouseover" end="zoomminus.mouseout"/></use>
    <path d="M-4,0h8" fill="none" stroke="white" stroke-width="1.5" pointer-events="none"/>
  </g>
  <g id="arrowUp" transform="translate(30 24)">
    <use xlink:href="#rim"/>
    <path pointer-events="none" fill="none" stroke="white" stroke-width="1.5" d="M0,-3.0v7 M-2.5,-0.5L0,-3.0L2.5,-0.5"/>
  </g>
  <g id="arrowRight" transform="rotate(90) translate(36 -43)">
    <use xlink:href="#rim"/>
    <path pointer-events="none" fill="none" stroke="white" stroke-width="1.5" d="M0,-3.0v7 M-2.5,-0.5L0,-3.0L2.5,-0.5"/>
  </g>
  <g id="arrowDown" transform="rotate(180) translate(-30 -48)">
    <use xlink:href="#rim"/>
    <path pointer-events="none" fill="none" stroke="white" stroke-width="1.5" d="M0,-3.0v7 M-2.5,-0.5L0,-3.0L2.5,-0.5"/>
  </g>
  <g id="arrowLeft" transform="rotate(270) translate(-36 17)">
    <use xlink:href="#rim"/>
    <path pointer-events="none" fill="none" stroke="white" stroke-width="1.5" d="M0,-3.0v7 M-2.5,-0.5L0,-3.0L2.5,-0.5"/>
  </g>
  <g id="resetDef">
    <use xlink:href="#rim2" fill="#404040"><set attributeName="fill" to="#808080" begin="reset.mouseover" end="reset.mouseout"/></use>
  </g>
</defs>
<script type="application/ecmascript">
var viewWidth = 3019;
var viewHeight = 280;
var sectionId = 'dynsection-0';
</script>
<script type="application/ecmascript" xlink:href="../../svg.min.js"/>
<svg id="graph" class="graph">
<g id="viewport">
<title>src/libs/vwidgets/export_format_combobox.h</title>
<!-- Node1 -->
<g id="Node000001" class="node">
<title>Node1</title>
<g id="a_Node000001"><a xlink:title=" ">
<polygon fill="#999999" stroke="#666666" points="659,-272 526,-272 526,-242 659,-242 659,-272"/>
<text text-anchor="start" x="534" y="-260" font-family="Helvetica,sans-Serif" font-size="10.00">src/libs/vwidgets/export</text>
<text text-anchor="middle" x="592.5" y="-249" font-family="Helvetica,sans-Serif" font-size="10.00">_format_combobox.h</text>
</a>
</g>
</g>
<!-- Node2 -->
<g id="Node000002" class="node">
<title>Node2</title>
<g id="a_Node000002"><a xlink:title=" ">
<polygon fill="#e0e0e0" stroke="#999999" points="516,-206 439,-206 439,-187 516,-187 516,-206"/>
<text text-anchor="middle" x="477.5" y="-194" font-family="Helvetica,sans-Serif" font-size="10.00">QComboBox</text>
</a>
</g>
</g>
<!-- Node1&#45;&gt;Node2 -->
<g id="edge1_Node000001_Node000002" class="edge">
<title>Node1&#45;&gt;Node2</title>
<g id="a_edge1_Node000001_Node000002"><a xlink:title=" ">
<path fill="none" stroke="#63b8ff" d="M564.95,-241.99C546.28,-232.49 521.76,-220.02 503.44,-210.69"/>
<polygon fill="#63b8ff" stroke="#63b8ff" points="504.98,-207.55 494.48,-206.14 501.81,-213.79 504.98,-207.55"/>
</a>
</g>
</g>
<!-- Node3 -->
<g id="Node000003" class="node">
<title>Node3</title>
<g id="a_Node000003"><a xlink:title=" ">
<polygon fill="#e0e0e0" stroke="#999999" points="593,-206 534,-206 534,-187 593,-187 593,-206"/>
<text text-anchor="middle" x="563.5" y="-194" font-family="Helvetica,sans-Serif" font-size="10.00">QWidget</text>
</a>
</g>
</g>
<!-- Node1&#45;&gt;Node3 -->
<g id="edge2_Node000001_Node000003" class="edge">
<title>Node1&#45;&gt;Node3</title>
<g id="a_edge2_Node000001_Node000003"><a xlink:title=" ">
<path fill="none" stroke="#63b8ff" d="M585.48,-241.84C581.53,-233.87 576.56,-223.84 572.34,-215.33"/>
<polygon fill="#63b8ff" stroke="#63b8ff" points="575.42,-213.67 567.85,-206.27 569.15,-216.78 575.42,-213.67"/>
</a>
</g>
</g>
<!-- Node4 -->
<g id="Node000004" class="node">
<title>Node4</title>
<g id="a_Node000004"><a xlink:href="../../d4/da4/def_8h.html" target="_top" xlink:title=" ">
<polygon fill="white" stroke="#666666" points="470.5,-145.5 388.5,-145.5 388.5,-126.5 470.5,-126.5 470.5,-145.5"/>
<text text-anchor="middle" x="429.5" y="-133.5" font-family="Helvetica,sans-Serif" font-size="10.00">../vmisc/def.h</text>
</a>
</g>
</g>
<!-- Node1&#45;&gt;Node4 -->
<g id="edge3_Node000001_Node000004" class="edge">
<title>Node1&#45;&gt;Node4</title>
<g id="a_edge3_Node000001_Node000004"><a xlink:title=" ">
<path fill="none" stroke="#63b8ff" d="M600.07,-241.82C606.97,-226.72 614.43,-202.87 602.5,-187 587.78,-167.43 526.3,-153.09 480.79,-144.9"/>
<polygon fill="#63b8ff" stroke="#63b8ff" points="481.22,-141.43 470.77,-143.15 480.02,-148.32 481.22,-141.43"/>
</a>
</g>
</g>
<!-- Node17 -->
<g id="Node000017" class="node">
<title>Node17</title>
<g id="a_Node000017"><a xlink:href="../../d0/d89/vabstractpattern_8h.html" target="_top" xlink:title=" ">
<polygon fill="white" stroke="#666666" points="1069.5,-206 917.5,-206 917.5,-187 1069.5,-187 1069.5,-206"/>
<text text-anchor="middle" x="993.5" y="-194" font-family="Helvetica,sans-Serif" font-size="10.00">../ifc/xml/vabstractpattern.h</text>
</a>
</g>
</g>
<!-- Node1&#45;&gt;Node17 -->
<g id="edge16_Node000001_Node000017" class="edge">
<title>Node1&#45;&gt;Node17</title>
<g id="a_edge16_Node000001_Node000017"><a xlink:title=" ">
<path fill="none" stroke="#63b8ff" d="M659.17,-246.27C732.76,-235.54 850.63,-218.34 924.97,-207.5"/>
<polygon fill="#63b8ff" stroke="#63b8ff" points="925.77,-210.92 935.16,-206.01 924.76,-203.99 925.77,-210.92"/>
</a>
</g>
</g>
<!-- Node5 -->
<g id="Node000005" class="node">
<title>Node5</title>
<g id="a_Node000005"><a xlink:title=" ">
<polygon fill="#e0e0e0" stroke="#999999" points="739.5,-79.5 619.5,-79.5 619.5,-60.5 739.5,-60.5 739.5,-79.5"/>
<text text-anchor="middle" x="679.5" y="-67.5" font-family="Helvetica,sans-Serif" font-size="10.00">qcompilerdetection.h</text>
</a>
</g>
</g>
<!-- Node4&#45;&gt;Node5 -->
<g id="edge4_Node000004_Node000005" class="edge">
<title>Node4&#45;&gt;Node5</title>
<g id="a_edge4_Node000004_Node000005"><a xlink:title=" ">
<path fill="none" stroke="#63b8ff" d="M462.96,-126.44C507.77,-114.96 587.33,-94.6 636.53,-82"/>
<polygon fill="#63b8ff" stroke="#63b8ff" points="637.42,-85.38 646.24,-79.51 635.69,-78.6 637.42,-85.38"/>
</a>
</g>
</g>
<!-- Node6 -->
<g id="Node000006" class="node">
<title>Node6</title>
<g id="a_Node000006"><a xlink:title=" ">
<polygon fill="#e0e0e0" stroke="#999999" points="73,-79.5 0,-79.5 0,-60.5 73,-60.5 73,-79.5"/>
<text text-anchor="middle" x="36.5" y="-67.5" font-family="Helvetica,sans-Serif" font-size="10.00">QFileDialog</text>
</a>
</g>
</g>
<!-- Node4&#45;&gt;Node6 -->
<g id="edge5_Node000004_Node000006" class="edge">
<title>Node4&#45;&gt;Node6</title>
<g id="a_edge5_Node000004_Node000006"><a xlink:title=" ">
<path fill="none" stroke="#63b8ff" d="M388.27,-131.11C322.89,-124.49 191.66,-109.33 82.5,-85 79.05,-84.23 75.49,-83.34 71.95,-82.38"/>
<polygon fill="#63b8ff" stroke="#63b8ff" points="72.68,-78.95 62.1,-79.55 70.75,-85.67 72.68,-78.95"/>
</a>
</g>
</g>
<!-- Node7 -->
<g id="Node000007" class="node">
<title>Node7</title>
<g id="a_Node000007"><a xlink:title=" ">
<polygon fill="#e0e0e0" stroke="#999999" points="141.5,-79.5 91.5,-79.5 91.5,-60.5 141.5,-60.5 141.5,-79.5"/>
<text text-anchor="middle" x="116.5" y="-67.5" font-family="Helvetica,sans-Serif" font-size="10.00">QLineF</text>
</a>
</g>
</g>
<!-- Node4&#45;&gt;Node7 -->
<g id="edge6_Node000004_Node000007" class="edge">
<title>Node4&#45;&gt;Node7</title>
<g id="a_edge6_Node000004_Node000007"><a xlink:title=" ">
<path fill="none" stroke="#63b8ff" d="M388.39,-130.25C333.61,-123.33 233.99,-108.65 151.5,-85 149.57,-84.45 147.59,-83.82 145.61,-83.15"/>
<polygon fill="#63b8ff" stroke="#63b8ff" points="146.47,-79.74 135.88,-79.56 144.05,-86.31 146.47,-79.74"/>
</a>
</g>
</g>
<!-- Node8 -->
<g id="Node000008" class="node">
<title>Node8</title>
<g id="a_Node000008"><a xlink:title=" ">
<polygon fill="#e0e0e0" stroke="#999999" points="955,-79.5 902,-79.5 902,-60.5 955,-60.5 955,-79.5"/>
<text text-anchor="middle" x="928.5" y="-67.5" font-family="Helvetica,sans-Serif" font-size="10.00">QString</text>
</a>
</g>
</g>
<!-- Node4&#45;&gt;Node8 -->
<g id="edge7_Node000004_Node000008" class="edge">
<title>Node4&#45;&gt;Node8</title>
<g id="a_edge7_Node000004_Node000008"><a xlink:title=" ">
<path fill="none" stroke="#63b8ff" d="M470.81,-134.31C552.67,-132.13 740.77,-123.01 893.5,-85 895.8,-84.43 898.16,-83.73 900.5,-82.97"/>
<polygon fill="#63b8ff" stroke="#63b8ff" points="901.73,-86.25 909.92,-79.52 899.33,-79.67 901.73,-86.25"/>
</a>
</g>
</g>
<!-- Node9 -->
<g id="Node000009" class="node">
<title>Node9</title>
<g id="a_Node000009"><a xlink:title=" ">
<polygon fill="#e0e0e0" stroke="#999999" points="601.5,-79.5 531.5,-79.5 531.5,-60.5 601.5,-60.5 601.5,-79.5"/>
<text text-anchor="middle" x="566.5" y="-67.5" font-family="Helvetica,sans-Serif" font-size="10.00">QStringList</text>
</a>
</g>
</g>
<!-- Node4&#45;&gt;Node9 -->
<g id="edge8_Node000004_Node000009" class="edge">
<title>Node4&#45;&gt;Node9</title>
<g id="a_edge8_Node000004_Node000009"><a xlink:title=" ">
<path fill="none" stroke="#63b8ff" d="M447.98,-126.37C471.26,-115.49 511.51,-96.69 538.56,-84.05"/>
<polygon fill="#63b8ff" stroke="#63b8ff" points="540.3,-87.1 547.88,-79.7 537.34,-80.76 540.3,-87.1"/>
</a>
</g>
</g>
<!-- Node10 -->
<g id="Node000010" class="node">
<title>Node10</title>
<g id="a_Node000010"><a xlink:title=" ">
<polygon fill="#e0e0e0" stroke="#999999" points="189,-79.5 160,-79.5 160,-60.5 189,-60.5 189,-79.5"/>
<text text-anchor="middle" x="174.5" y="-67.5" font-family="Helvetica,sans-Serif" font-size="10.00">Qt</text>
</a>
</g>
</g>
<!-- Node4&#45;&gt;Node10 -->
<g id="edge9_Node000004_Node000010" class="edge">
<title>Node4&#45;&gt;Node10</title>
<g id="a_edge9_Node000004_Node000010"><a xlink:title=" ">
<path fill="none" stroke="#63b8ff" d="M388.31,-130.07C341.21,-123.53 262.37,-109.82 198.5,-85 197.94,-84.78 197.37,-84.55 196.81,-84.31"/>
<polygon fill="#63b8ff" stroke="#63b8ff" points="198.34,-81.16 187.83,-79.77 195.18,-87.41 198.34,-81.16"/>
</a>
</g>
</g>
<!-- Node11 -->
<g id="Node000011" class="node">
<title>Node11</title>
<g id="a_Node000011"><a xlink:title=" ">
<polygon fill="#e0e0e0" stroke="#999999" points="817,-79.5 758,-79.5 758,-60.5 817,-60.5 817,-79.5"/>
<text text-anchor="middle" x="787.5" y="-67.5" font-family="Helvetica,sans-Serif" font-size="10.00">QtGlobal</text>
</a>
</g>
</g>
<!-- Node4&#45;&gt;Node11 -->
<g id="edge10_Node000004_Node000011" class="edge">
<title>Node4&#45;&gt;Node11</title>
<g id="a_edge10_Node000004_Node000011"><a xlink:title=" ">
<path fill="none" stroke="#63b8ff" d="M470.54,-131.08C531.76,-124.67 650.33,-110.07 748.5,-85 751,-84.36 753.57,-83.63 756.13,-82.84"/>
<polygon fill="#63b8ff" stroke="#63b8ff" points="757.48,-86.07 765.86,-79.59 755.27,-79.43 757.48,-86.07"/>
</a>
</g>
</g>
<!-- Node12 -->
<g id="Node000012" class="node">
<title>Node12</title>
<g id="a_Node000012"><a xlink:title=" ">
<polygon fill="#e0e0e0" stroke="#999999" points="263.5,-79.5 207.5,-79.5 207.5,-60.5 263.5,-60.5 263.5,-79.5"/>
<text text-anchor="middle" x="235.5" y="-67.5" font-family="Helvetica,sans-Serif" font-size="10.00">QPrinter</text>
</a>
</g>
</g>
<!-- Node4&#45;&gt;Node12 -->
<g id="edge11_Node000004_Node000012" class="edge">
<title>Node4&#45;&gt;Node12</title>
<g id="a_edge11_Node000004_Node000012"><a xlink:title=" ">
<path fill="none" stroke="#63b8ff" d="M401.48,-126.42C370.17,-116.73 318.01,-100.32 273.5,-85 271.66,-84.36 269.76,-83.7 267.86,-83.03"/>
<polygon fill="#63b8ff" stroke="#63b8ff" points="268.95,-79.7 258.35,-79.6 266.57,-86.28 268.95,-79.7"/>
</a>
</g>
</g>
<!-- Node13 -->
<g id="Node000013" class="node">
<title>Node13</title>
<g id="a_Node000013"><a xlink:title=" ">
<polygon fill="#e0e0e0" stroke="#999999" points="343,-79.5 282,-79.5 282,-60.5 343,-60.5 343,-79.5"/>
<text text-anchor="middle" x="312.5" y="-67.5" font-family="Helvetica,sans-Serif" font-size="10.00">QPixmap</text>
</a>
</g>
</g>
<!-- Node4&#45;&gt;Node13 -->
<g id="edge12_Node000004_Node000013" class="edge">
<title>Node4&#45;&gt;Node13</title>
<g id="a_edge12_Node000004_Node000013"><a xlink:title=" ">
<path fill="none" stroke="#63b8ff" d="M413.72,-126.37C394.09,-115.63 360.36,-97.18 337.27,-84.55"/>
<polygon fill="#63b8ff" stroke="#63b8ff" points="338.86,-81.43 328.4,-79.7 335.5,-87.57 338.86,-81.43"/>
</a>
</g>
</g>
<!-- Node14 -->
<g id="Node000014" class="node">
<title>Node14</title>
<g id="a_Node000014"><a xlink:title=" ">
<polygon fill="#e0e0e0" stroke="#999999" points="412,-79.5 361,-79.5 361,-60.5 412,-60.5 412,-79.5"/>
<text text-anchor="middle" x="386.5" y="-67.5" font-family="Helvetica,sans-Serif" font-size="10.00">csignal</text>
</a>
</g>
</g>
<!-- Node4&#45;&gt;Node14 -->
<g id="edge13_Node000004_Node000014" class="edge">
<title>Node4&#45;&gt;Node14</title>
<g id="a_edge13_Node000004_Node000014"><a xlink:title=" ">
<path fill="none" stroke="#63b8ff" d="M423.7,-126.37C417.2,-116.69 406.48,-100.74 398.22,-88.44"/>
<polygon fill="#63b8ff" stroke="#63b8ff" points="400.97,-86.25 392.48,-79.91 395.15,-90.16 400.97,-86.25"/>
</a>
</g>
</g>
<!-- Node15 -->
<g id="Node000015" class="node">
<title>Node15</title>
<g id="a_Node000015"><a xlink:href="../../d4/d82/debugbreak_8h.html" target="_top" xlink:title=" ">
<polygon fill="white" stroke="#666666" points="513,-79.5 430,-79.5 430,-60.5 513,-60.5 513,-79.5"/>
<text text-anchor="middle" x="471.5" y="-67.5" font-family="Helvetica,sans-Serif" font-size="10.00">debugbreak.h</text>
</a>
</g>
</g>
<!-- Node4&#45;&gt;Node15 -->
<g id="edge14_Node000004_Node000015" class="edge">
<title>Node4&#45;&gt;Node15</title>
<g id="a_edge14_Node000004_Node000015"><a xlink:title=" ">
<path fill="none" stroke="#63b8ff" d="M435.16,-126.37C441.52,-116.69 451.98,-100.74 460.06,-88.44"/>
<polygon fill="#63b8ff" stroke="#63b8ff" points="463.1,-90.19 465.66,-79.91 457.24,-86.35 463.1,-90.19"/>
</a>
</g>
</g>
<!-- Node16 -->
<g id="Node000016" class="node">
<title>Node16</title>
<g id="a_Node000016"><a xlink:title=" ">
<polygon fill="#e0e0e0" stroke="#999999" points="499,-19 444,-19 444,0 499,0 499,-19"/>
<text text-anchor="middle" x="471.5" y="-7" font-family="Helvetica,sans-Serif" font-size="10.00">signal.h</text>
</a>
</g>
</g>
<!-- Node15&#45;&gt;Node16 -->
<g id="edge15_Node000015_Node000016" class="edge">
<title>Node15&#45;&gt;Node16</title>
<g id="a_edge15_Node000015_Node000016"><a xlink:title=" ">
<path fill="none" stroke="#63b8ff" d="M471.5,-60.37C471.5,-52.25 471.5,-39.81 471.5,-29.39"/>
<polygon fill="#63b8ff" stroke="#63b8ff" points="475,-29.17 471.5,-19.17 468,-29.17 475,-29.17"/>
</a>
</g>
</g>
<!-- Node17&#45;&gt;Node5 -->
<g id="edge17_Node000017_Node000005" class="edge">
<title>Node17&#45;&gt;Node5</title>
<g id="a_edge17_Node000017_Node000005"><a xlink:title=" ">
<path fill="none" stroke="#63b8ff" d="M917.46,-192.61C843.09,-188.25 736.62,-177.47 705.5,-151 687.63,-135.8 681.95,-108.17 680.2,-89.7"/>
<polygon fill="#63b8ff" stroke="#63b8ff" points="683.68,-89.33 679.54,-79.57 676.69,-89.78 683.68,-89.33"/>
</a>
</g>
</g>
<!-- Node17&#45;&gt;Node8 -->
<g id="edge23_Node000017_Node000008" class="edge">
<title>Node17&#45;&gt;Node8</title>
<g id="a_edge23_Node000017_Node000008"><a xlink:title=" ">
<path fill="none" stroke="#63b8ff" d="M1027.72,-186.93C1046.21,-180.37 1067.46,-169.24 1078.5,-151 1085.4,-139.59 1086.38,-131.75 1078.5,-121 1047.09,-78.14 1014.62,-102.64 964.5,-85 962.85,-84.42 961.16,-83.81 959.45,-83.19"/>
<polygon fill="#63b8ff" stroke="#63b8ff" points="960.33,-79.77 949.74,-79.52 957.86,-86.32 960.33,-79.77"/>
</a>
</g>
</g>
<!-- Node17&#45;&gt;Node9 -->
<g id="edge24_Node000017_Node000009" class="edge">
<title>Node17&#45;&gt;Node9</title>
<g id="a_edge24_Node000017_Node000009"><a xlink:title=" ">
<path fill="none" stroke="#63b8ff" d="M917.21,-194.28C852.68,-191 758.82,-180.86 682.5,-151 643.28,-135.66 604.35,-104.77 583.06,-86.19"/>
<polygon fill="#63b8ff" stroke="#63b8ff" points="585.35,-83.54 575.55,-79.5 580.69,-88.77 585.35,-83.54"/>
</a>
</g>
</g>
<!-- Node17&#45;&gt;Node11 -->
<g id="edge26_Node000017_Node000011" class="edge">
<title>Node17&#45;&gt;Node11</title>
<g id="a_edge26_Node000017_Node000011"><a xlink:title=" ">
<path fill="none" stroke="#63b8ff" d="M925.73,-186.93C879.35,-179.7 823.31,-167.82 806.5,-151 790.53,-135.02 787.04,-108.23 786.71,-90.1"/>
<polygon fill="#63b8ff" stroke="#63b8ff" points="790.21,-89.91 786.84,-79.87 783.21,-89.82 790.21,-89.91"/>
</a>
</g>
</g>
<!-- Node18 -->
<g id="Node000018" class="node">
<title>Node18</title>
<g id="a_Node000018"><a xlink:title=" ">
<polygon fill="#e0e0e0" stroke="#999999" points="884,-79.5 835,-79.5 835,-60.5 884,-60.5 884,-79.5"/>
<text text-anchor="middle" x="859.5" y="-67.5" font-family="Helvetica,sans-Serif" font-size="10.00">QHash</text>
</a>
</g>
</g>
<!-- Node17&#45;&gt;Node18 -->
<g id="edge18_Node000017_Node000018" class="edge">
<title>Node17&#45;&gt;Node18</title>
<g id="a_edge18_Node000017_Node000018"><a xlink:title=" ">
<path fill="none" stroke="#63b8ff" d="M988.88,-186.84C980.65,-172.02 962.28,-141.4 940.5,-121 924.57,-106.08 903.52,-93.24 886.87,-84.32"/>
<polygon fill="#63b8ff" stroke="#63b8ff" points="888.13,-81.03 877.64,-79.52 884.9,-87.24 888.13,-81.03"/>
</a>
</g>
</g>
<!-- Node19 -->
<g id="Node000019" class="node">
<title>Node19</title>
<g id="a_Node000019"><a xlink:title=" ">
<polygon fill="#e0e0e0" stroke="#999999" points="759,-145.5 714,-145.5 714,-126.5 759,-126.5 759,-145.5"/>
<text text-anchor="middle" x="736.5" y="-133.5" font-family="Helvetica,sans-Serif" font-size="10.00">QMap</text>
</a>
</g>
</g>
<!-- Node17&#45;&gt;Node19 -->
<g id="edge19_Node000017_Node000019" class="edge">
<title>Node17&#45;&gt;Node19</title>
<g id="a_edge19_Node000017_Node000019"><a xlink:title=" ">
<path fill="none" stroke="#63b8ff" d="M938.66,-186.95C893.79,-179.35 828.92,-166.97 773.5,-151 771.36,-150.38 769.16,-149.69 766.96,-148.97"/>
<polygon fill="#63b8ff" stroke="#63b8ff" points="768.03,-145.63 757.43,-145.59 765.69,-152.23 768.03,-145.63"/>
</a>
</g>
</g>
<!-- Node20 -->
<g id="Node000020" class="node">
<title>Node20</title>
<g id="a_Node000020"><a xlink:title=" ">
<polygon fill="#e0e0e0" stroke="#999999" points="2258.5,-79.5 2178.5,-79.5 2178.5,-60.5 2258.5,-60.5 2258.5,-79.5"/>
<text text-anchor="middle" x="2218.5" y="-67.5" font-family="Helvetica,sans-Serif" font-size="10.00">QMetaObject</text>
</a>
</g>
</g>
<!-- Node17&#45;&gt;Node20 -->
<g id="edge20_Node000017_Node000020" class="edge">
<title>Node17&#45;&gt;Node20</title>
<g id="a_edge20_Node000017_Node000020"><a xlink:title=" ">
<path fill="none" stroke="#63b8ff" d="M1069.75,-193.39C1205.81,-189.09 1499.24,-177.39 1745.5,-151 1935.13,-130.68 1983.23,-125.94 2169.5,-85 2173.33,-84.16 2177.3,-83.19 2181.25,-82.16"/>
<polygon fill="#63b8ff" stroke="#63b8ff" points="2182.2,-85.53 2190.92,-79.53 2180.36,-78.78 2182.2,-85.53"/>
</a>
</g>
</g>
<!-- Node21 -->
<g id="Node000021" class="node">
<title>Node21</title>
<g id="a_Node000021"><a xlink:title=" ">
<polygon fill="#e0e0e0" stroke="#999999" points="871.5,-145.5 815.5,-145.5 815.5,-126.5 871.5,-126.5 871.5,-145.5"/>
<text text-anchor="middle" x="843.5" y="-133.5" font-family="Helvetica,sans-Serif" font-size="10.00">QObject</text>
</a>
</g>
</g>
<!-- Node17&#45;&gt;Node21 -->
<g id="edge21_Node000017_Node000021" class="edge">
<title>Node17&#45;&gt;Node21</title>
<g id="a_edge21_Node000017_Node000021"><a xlink:title=" ">
<path fill="none" stroke="#63b8ff" d="M971.69,-186.99C946.25,-177.07 903.99,-160.59 874.99,-149.28"/>
<polygon fill="#63b8ff" stroke="#63b8ff" points="875.93,-145.89 865.34,-145.52 873.38,-152.41 875.93,-145.89"/>
</a>
</g>
</g>
<!-- Node22 -->
<g id="Node000022" class="node">
<title>Node22</title>
<g id="a_Node000022"><a xlink:title=" ">
<polygon fill="#e0e0e0" stroke="#999999" points="931.5,-145.5 889.5,-145.5 889.5,-126.5 931.5,-126.5 931.5,-145.5"/>
<text text-anchor="middle" x="910.5" y="-133.5" font-family="Helvetica,sans-Serif" font-size="10.00">QPair</text>
</a>
</g>
</g>
<!-- Node17&#45;&gt;Node22 -->
<g id="edge22_Node000017_Node000022" class="edge">
<title>Node17&#45;&gt;Node22</title>
<g id="a_edge22_Node000017_Node000022"><a xlink:title=" ">
<path fill="none" stroke="#63b8ff" d="M981.25,-186.87C968.14,-177.62 947.08,-162.78 931.35,-151.69"/>
<polygon fill="#63b8ff" stroke="#63b8ff" points="932.99,-148.57 922.8,-145.67 928.95,-154.29 932.99,-148.57"/>
</a>
</g>
</g>
<!-- Node23 -->
<g id="Node000023" class="node">
<title>Node23</title>
<g id="a_Node000023"><a xlink:title=" ">
<polygon fill="#e0e0e0" stroke="#999999" points="2332,-79.5 2277,-79.5 2277,-60.5 2332,-60.5 2332,-79.5"/>
<text text-anchor="middle" x="2304.5" y="-67.5" font-family="Helvetica,sans-Serif" font-size="10.00">QVector</text>
</a>
</g>
</g>
<!-- Node17&#45;&gt;Node23 -->
<g id="edge25_Node000017_Node000023" class="edge">
<title>Node17&#45;&gt;Node23</title>
<g id="a_edge25_Node000017_Node000023"><a xlink:title=" ">
<path fill="none" stroke="#63b8ff" d="M1069.59,-194.71C1223.16,-192.44 1580.97,-183.77 1879.5,-151 2053.38,-131.91 2098.69,-130.83 2267.5,-85 2269.79,-84.38 2272.14,-83.67 2274.49,-82.91"/>
<polygon fill="#63b8ff" stroke="#63b8ff" points="2275.72,-86.18 2283.99,-79.57 2273.39,-79.58 2275.72,-86.18"/>
</a>
</g>
</g>
<!-- Node24 -->
<g id="Node000024" class="node">
<title>Node24</title>
<g id="a_Node000024"><a xlink:href="../../d8/da5/vdomdocument_8h.html" target="_top" xlink:title=" ">
<polygon fill="white" stroke="#666666" points="1307.5,-145.5 1205.5,-145.5 1205.5,-126.5 1307.5,-126.5 1307.5,-145.5"/>
<text text-anchor="middle" x="1256.5" y="-133.5" font-family="Helvetica,sans-Serif" font-size="10.00">vdomdocument.h</text>
</a>
</g>
</g>
<!-- Node17&#45;&gt;Node24 -->
<g id="edge27_Node000017_Node000024" class="edge">
<title>Node17&#45;&gt;Node24</title>
<g id="a_edge27_Node000017_Node000024"><a xlink:title=" ">
<path fill="none" stroke="#63b8ff" d="M1031.74,-186.99C1078.49,-176.6 1157.63,-158.99 1208.44,-147.69"/>
<polygon fill="#63b8ff" stroke="#63b8ff" points="1209.21,-151.1 1218.21,-145.52 1207.69,-144.27 1209.21,-151.1"/>
</a>
</g>
</g>
<!-- Node33 -->
<g id="Node000033" class="node">
<title>Node33</title>
<g id="a_Node000033"><a xlink:title=" ">
<polygon fill="#e0e0e0" stroke="#999999" points="2160.5,-79.5 2078.5,-79.5 2078.5,-60.5 2160.5,-60.5 2160.5,-79.5"/>
<text text-anchor="middle" x="2119.5" y="-67.5" font-family="Helvetica,sans-Serif" font-size="10.00">../vmisc/def.h</text>
</a>
</g>
</g>
<!-- Node17&#45;&gt;Node33 -->
<g id="edge46_Node000017_Node000033" class="edge">
<title>Node17&#45;&gt;Node33</title>
<g id="a_edge46_Node000017_Node000033"><a xlink:title=" ">
<path fill="none" stroke="#63b8ff" d="M1069.52,-192.37C1246.4,-184.06 1698.73,-156.98 2069.5,-85 2073.68,-84.19 2078.02,-83.2 2082.32,-82.13"/>
<polygon fill="#63b8ff" stroke="#63b8ff" points="2083.41,-85.46 2092.18,-79.51 2081.62,-78.69 2083.41,-85.46"/>
</a>
</g>
</g>
<!-- Node36 -->
<g id="Node000036" class="node">
<title>Node36</title>
<g id="a_Node000036"><a xlink:href="../../d9/d47/vtoolrecord_8h.html" target="_top" xlink:title=" ">
<polygon fill="white" stroke="#666666" points="1069,-145.5 988,-145.5 988,-126.5 1069,-126.5 1069,-145.5"/>
<text text-anchor="middle" x="1028.5" y="-133.5" font-family="Helvetica,sans-Serif" font-size="10.00">vtoolrecord.h</text>
</a>
</g>
</g>
<!-- Node17&#45;&gt;Node36 -->
<g id="edge42_Node000017_Node000036" class="edge">
<title>Node17&#45;&gt;Node36</title>
<g id="a_edge42_Node000017_Node000036"><a xlink:title=" ">
<path fill="none" stroke="#63b8ff" d="M998.66,-186.87C1003.73,-178.4 1011.6,-165.24 1017.99,-154.57"/>
<polygon fill="#63b8ff" stroke="#63b8ff" points="1021.18,-156.05 1023.31,-145.67 1015.18,-152.45 1021.18,-156.05"/>
</a>
</g>
</g>
<!-- Node37 -->
<g id="Node000037" class="node">
<title>Node37</title>
<g id="a_Node000037"><a xlink:title=" ">
<polygon fill="#e0e0e0" stroke="#999999" points="1465,-145.5 1326,-145.5 1326,-126.5 1465,-126.5 1465,-145.5"/>
<text text-anchor="middle" x="1395.5" y="-133.5" font-family="Helvetica,sans-Serif" font-size="10.00">../vwidgets/pen_toolbar.h</text>
</a>
</g>
</g>
<!-- Node17&#45;&gt;Node37 -->
<g id="edge47_Node000017_Node000037" class="edge">
<title>Node17&#45;&gt;Node37</title>
<g id="a_edge47_Node000017_Node000037"><a xlink:title=" ">
<path fill="none" stroke="#63b8ff" d="M1061.04,-186.96C1126.47,-178.51 1228.43,-164.87 1316.5,-151 1323.87,-149.84 1331.61,-148.55 1339.24,-147.24"/>
<polygon fill="#63b8ff" stroke="#63b8ff" points="1339.93,-150.68 1349.18,-145.52 1338.73,-143.78 1339.93,-150.68"/>
</a>
</g>
</g>
<!-- Node38 -->
<g id="Node000038" class="node">
<title>Node38</title>
<g id="a_Node000038"><a xlink:href="../../d1/d8d/image__item_8h.html" target="_top" xlink:title=" ">
<polygon fill="white" stroke="#666666" points="2379.5,-151 2281.5,-151 2281.5,-121 2379.5,-121 2379.5,-151"/>
<text text-anchor="start" x="2289.5" y="-139" font-family="Helvetica,sans-Serif" font-size="10.00">../../tools/images</text>
<text text-anchor="middle" x="2330.5" y="-128" font-family="Helvetica,sans-Serif" font-size="10.00">/image_item.h</text>
</a>
</g>
</g>
<!-- Node17&#45;&gt;Node38 -->
<g id="edge48_Node000017_Node000038" class="edge">
<title>Node17&#45;&gt;Node38</title>
<g id="a_edge48_Node000017_Node000038"><a xlink:title=" ">
<path fill="none" stroke="#63b8ff" d="M1069.79,-194.42C1306.61,-190.8 2027.1,-177.82 2259.5,-151 2263.39,-150.55 2267.39,-150 2271.4,-149.39"/>
<polygon fill="#63b8ff" stroke="#63b8ff" points="2272.09,-152.82 2281.39,-147.74 2270.95,-145.92 2272.09,-152.82"/>
</a>
</g>
</g>
<!-- Node24&#45;&gt;Node8 -->
<g id="edge34_Node000024_Node000008" class="edge">
<title>Node24&#45;&gt;Node8</title>
<g id="a_edge34_Node000024_Node000008"><a xlink:title=" ">
<path fill="none" stroke="#63b8ff" d="M1205.44,-129.42C1146.61,-122.26 1047.4,-107.96 964.5,-85 962.35,-84.4 960.14,-83.73 957.94,-83"/>
<polygon fill="#63b8ff" stroke="#63b8ff" points="959.04,-79.67 948.44,-79.58 956.66,-86.26 959.04,-79.67"/>
</a>
</g>
</g>
<!-- Node24&#45;&gt;Node11 -->
<g id="edge35_Node000024_Node000011" class="edge">
<title>Node24&#45;&gt;Node11</title>
<g id="a_edge35_Node000024_Node000011"><a xlink:title=" ">
<path fill="none" stroke="#63b8ff" d="M1205.16,-130.52C1107.28,-121.72 897.39,-101.61 826.5,-85 823.83,-84.38 821.1,-83.63 818.37,-82.81"/>
<polygon fill="#63b8ff" stroke="#63b8ff" points="819.28,-79.42 808.69,-79.6 817.08,-86.07 819.28,-79.42"/>
</a>
</g>
</g>
<!-- Node24&#45;&gt;Node18 -->
<g id="edge32_Node000024_Node000018" class="edge">
<title>Node24&#45;&gt;Node18</title>
<g id="a_edge32_Node000024_Node000018"><a xlink:title=" ">
<path fill="none" stroke="#63b8ff" d="M1205.49,-132.06C1134.49,-127.06 1002.36,-114.4 893.5,-85 891.56,-84.48 889.58,-83.87 887.6,-83.21"/>
<polygon fill="#63b8ff" stroke="#63b8ff" points="888.5,-79.81 877.91,-79.57 886.05,-86.36 888.5,-79.81"/>
</a>
</g>
</g>
<!-- Node25 -->
<g id="Node000025" class="node">
<title>Node25</title>
<g id="a_Node000025"><a xlink:title=" ">
<polygon fill="#e0e0e0" stroke="#999999" points="1944,-79.5 1843,-79.5 1843,-60.5 1944,-60.5 1944,-79.5"/>
<text text-anchor="middle" x="1893.5" y="-67.5" font-family="Helvetica,sans-Serif" font-size="10.00">QCoreApplication</text>
</a>
</g>
</g>
<!-- Node24&#45;&gt;Node25 -->
<g id="edge28_Node000024_Node000025" class="edge">
<title>Node24&#45;&gt;Node25</title>
<g id="a_edge28_Node000024_Node000025"><a xlink:title=" ">
<path fill="none" stroke="#63b8ff" d="M1289.25,-126.5C1298.34,-124.4 1308.26,-122.37 1317.5,-121 1545.33,-87.13 1606.8,-119.71 1834.5,-85 1840.09,-84.15 1845.94,-83.04 1851.69,-81.81"/>
<polygon fill="#63b8ff" stroke="#63b8ff" points="1852.86,-85.13 1861.84,-79.52 1851.32,-78.31 1852.86,-85.13"/>
</a>
</g>
</g>
<!-- Node26 -->
<g id="Node000026" class="node">
<title>Node26</title>
<g id="a_Node000026"><a xlink:title=" ">
<polygon fill="#e0e0e0" stroke="#999999" points="2060.5,-79.5 1962.5,-79.5 1962.5,-60.5 2060.5,-60.5 2060.5,-79.5"/>
<text text-anchor="middle" x="2011.5" y="-67.5" font-family="Helvetica,sans-Serif" font-size="10.00">QDomDocument</text>
</a>
</g>
</g>
<!-- Node24&#45;&gt;Node26 -->
<g id="edge29_Node000024_Node000026" class="edge">
<title>Node24&#45;&gt;Node26</title>
<g id="a_edge29_Node000024_Node000026"><a xlink:title=" ">
<path fill="none" stroke="#63b8ff" d="M1288.92,-126.49C1298.1,-124.37 1308.14,-122.33 1317.5,-121 1597.81,-81.19 1673.42,-126.38 1953.5,-85 1959.07,-84.18 1964.89,-83.07 1970.61,-81.84"/>
<polygon fill="#63b8ff" stroke="#63b8ff" points="1971.73,-85.17 1980.7,-79.53 1970.17,-78.35 1971.73,-85.17"/>
</a>
</g>
</g>
<!-- Node27 -->
<g id="Node000027" class="node">
<title>Node27</title>
<g id="a_Node000027"><a xlink:title=" ">
<polygon fill="#e0e0e0" stroke="#999999" points="1061.5,-79.5 973.5,-79.5 973.5,-60.5 1061.5,-60.5 1061.5,-79.5"/>
<text text-anchor="middle" x="1017.5" y="-67.5" font-family="Helvetica,sans-Serif" font-size="10.00">QDomElement</text>
</a>
</g>
</g>
<!-- Node24&#45;&gt;Node27 -->
<g id="edge30_Node000024_Node000027" class="edge">
<title>Node24&#45;&gt;Node27</title>
<g id="a_edge30_Node000024_Node000027"><a xlink:title=" ">
<path fill="none" stroke="#63b8ff" d="M1224.27,-126.37C1181.65,-114.96 1106.48,-94.83 1059.47,-82.24"/>
<polygon fill="#63b8ff" stroke="#63b8ff" points="1060.17,-78.8 1049.6,-79.6 1058.36,-85.56 1060.17,-78.8"/>
</a>
</g>
</g>
<!-- Node28 -->
<g id="Node000028" class="node">
<title>Node28</title>
<g id="a_Node000028"><a xlink:title=" ">
<polygon fill="#e0e0e0" stroke="#999999" points="1153,-79.5 1080,-79.5 1080,-60.5 1153,-60.5 1153,-79.5"/>
<text text-anchor="middle" x="1116.5" y="-67.5" font-family="Helvetica,sans-Serif" font-size="10.00">QDomNode</text>
</a>
</g>
</g>
<!-- Node24&#45;&gt;Node28 -->
<g id="edge31_Node000024_Node000028" class="edge">
<title>Node24&#45;&gt;Node28</title>
<g id="a_edge31_Node000024_Node000028"><a xlink:title=" ">
<path fill="none" stroke="#63b8ff" d="M1237.62,-126.37C1213.72,-115.44 1172.33,-96.52 1144.68,-83.88"/>
<polygon fill="#63b8ff" stroke="#63b8ff" points="1146.08,-80.67 1135.53,-79.7 1143.17,-87.04 1146.08,-80.67"/>
</a>
</g>
</g>
<!-- Node29 -->
<g id="Node000029" class="node">
<title>Node29</title>
<g id="a_Node000029"><a xlink:title=" ">
<polygon fill="#e0e0e0" stroke="#999999" points="1254,-79.5 1171,-79.5 1171,-60.5 1254,-60.5 1254,-79.5"/>
<text text-anchor="middle" x="1212.5" y="-67.5" font-family="Helvetica,sans-Serif" font-size="10.00">QLatin1String</text>
</a>
</g>
</g>
<!-- Node24&#45;&gt;Node29 -->
<g id="edge33_Node000024_Node000029" class="edge">
<title>Node24&#45;&gt;Node29</title>
<g id="a_edge33_Node000024_Node000029"><a xlink:title=" ">
<path fill="none" stroke="#63b8ff" d="M1250.57,-126.37C1243.91,-116.69 1232.94,-100.74 1224.49,-88.44"/>
<polygon fill="#63b8ff" stroke="#63b8ff" points="1227.17,-86.16 1218.62,-79.91 1221.4,-90.13 1227.17,-86.16"/>
</a>
</g>
</g>
<!-- Node30 -->
<g id="Node000030" class="node">
<title>Node30</title>
<g id="a_Node000030"><a xlink:title=" ">
<polygon fill="#e0e0e0" stroke="#999999" points="1328.5,-79.5 1272.5,-79.5 1272.5,-60.5 1328.5,-60.5 1328.5,-79.5"/>
<text text-anchor="middle" x="1300.5" y="-67.5" font-family="Helvetica,sans-Serif" font-size="10.00">QLocale</text>
</a>
</g>
</g>
<!-- Node24&#45;&gt;Node30 -->
<g id="edge36_Node000024_Node000030" class="edge">
<title>Node24&#45;&gt;Node30</title>
<g id="a_edge36_Node000024_Node000030"><a xlink:title=" ">
<path fill="none" stroke="#63b8ff" d="M1262.43,-126.37C1269.09,-116.69 1280.06,-100.74 1288.51,-88.44"/>
<polygon fill="#63b8ff" stroke="#63b8ff" points="1291.6,-90.13 1294.38,-79.91 1285.83,-86.16 1291.6,-90.13"/>
</a>
</g>
</g>
<!-- Node31 -->
<g id="Node000031" class="node">
<title>Node31</title>
<g id="a_Node000031"><a xlink:title=" ">
<polygon fill="#e0e0e0" stroke="#999999" points="1424,-79.5 1347,-79.5 1347,-60.5 1424,-60.5 1424,-79.5"/>
<text text-anchor="middle" x="1385.5" y="-67.5" font-family="Helvetica,sans-Serif" font-size="10.00">../ifc/ifcdef.h</text>
</a>
</g>
</g>
<!-- Node24&#45;&gt;Node31 -->
<g id="edge37_Node000024_Node000031" class="edge">
<title>Node24&#45;&gt;Node31</title>
<g id="a_edge37_Node000024_Node000031"><a xlink:title=" ">
<path fill="none" stroke="#63b8ff" d="M1273.9,-126.37C1295.73,-115.54 1333.39,-96.85 1358.86,-84.22"/>
<polygon fill="#63b8ff" stroke="#63b8ff" points="1360.56,-87.28 1367.97,-79.7 1357.45,-81.01 1360.56,-87.28"/>
</a>
</g>
</g>
<!-- Node32 -->
<g id="Node000032" class="node">
<title>Node32</title>
<g id="a_Node000032"><a xlink:title=" ">
<polygon fill="#e0e0e0" stroke="#999999" points="1569,-79.5 1442,-79.5 1442,-60.5 1569,-60.5 1569,-79.5"/>
<text text-anchor="middle" x="1505.5" y="-67.5" font-family="Helvetica,sans-Serif" font-size="10.00">../qmuparser/qmudef.h</text>
</a>
</g>
</g>
<!-- Node24&#45;&gt;Node32 -->
<g id="edge38_Node000024_Node000032" class="edge">
<title>Node24&#45;&gt;Node32</title>
<g id="a_edge38_Node000024_Node000032"><a xlink:title=" ">
<path fill="none" stroke="#63b8ff" d="M1289.82,-126.44C1334.36,-114.99 1413.36,-94.68 1462.39,-82.08"/>
<polygon fill="#63b8ff" stroke="#63b8ff" points="1463.56,-85.39 1472.37,-79.51 1461.82,-78.61 1463.56,-85.39"/>
</a>
</g>
</g>
<!-- Node24&#45;&gt;Node33 -->
<g id="edge39_Node000024_Node000033" class="edge">
<title>Node24&#45;&gt;Node33</title>
<g id="a_edge39_Node000024_Node000033"><a xlink:title=" ">
<path fill="none" stroke="#63b8ff" d="M1288.91,-126.44C1298.09,-124.32 1308.14,-122.29 1317.5,-121 1648.98,-75.4 1739.19,-138.45 2069.5,-85 2074.03,-84.27 2078.73,-83.27 2083.36,-82.15"/>
<polygon fill="#63b8ff" stroke="#63b8ff" points="2084.5,-85.47 2093.28,-79.54 2082.72,-78.7 2084.5,-85.47"/>
</a>
</g>
</g>
<!-- Node34 -->
<g id="Node000034" class="node">
<title>Node34</title>
<g id="a_Node000034"><a xlink:title=" ">
<polygon fill="#e0e0e0" stroke="#999999" points="1704,-79.5 1587,-79.5 1587,-60.5 1704,-60.5 1704,-79.5"/>
<text text-anchor="middle" x="1645.5" y="-67.5" font-family="Helvetica,sans-Serif" font-size="10.00">../vmisc/diagnostic.h</text>
</a>
</g>
</g>
<!-- Node24&#45;&gt;Node34 -->
<g id="edge40_Node000024_Node000034" class="edge">
<title>Node24&#45;&gt;Node34</title>
<g id="a_edge40_Node000024_Node000034"><a xlink:title=" ">
<path fill="none" stroke="#63b8ff" d="M1291.23,-126.47C1299.79,-124.52 1308.95,-122.57 1317.5,-121 1432.68,-99.88 1463.12,-104.99 1578.5,-85 1584.43,-83.97 1590.63,-82.81 1596.76,-81.59"/>
<polygon fill="#63b8ff" stroke="#63b8ff" points="1597.86,-84.94 1606.97,-79.53 1596.47,-78.08 1597.86,-84.94"/>
</a>
</g>
</g>
<!-- Node35 -->
<g id="Node000035" class="node">
<title>Node35</title>
<g id="a_Node000035"><a xlink:title=" ">
<polygon fill="#e0e0e0" stroke="#999999" points="1825,-79.5 1722,-79.5 1722,-60.5 1825,-60.5 1825,-79.5"/>
<text text-anchor="middle" x="1773.5" y="-67.5" font-family="Helvetica,sans-Serif" font-size="10.00">../vmisc/logging.h</text>
</a>
</g>
</g>
<!-- Node24&#45;&gt;Node35 -->
<g id="edge41_Node000024_Node000035" class="edge">
<title>Node24&#45;&gt;Node35</title>
<g id="a_edge41_Node000024_Node000035"><a xlink:title=" ">
<path fill="none" stroke="#63b8ff" d="M1289.9,-126.48C1298.82,-124.44 1308.49,-122.44 1317.5,-121 1492.02,-93.17 1539.03,-113.15 1713.5,-85 1719.04,-84.11 1724.84,-82.99 1730.54,-81.78"/>
<polygon fill="#63b8ff" stroke="#63b8ff" points="1731.65,-85.12 1740.65,-79.53 1730.13,-78.29 1731.65,-85.12"/>
</a>
</g>
</g>
<!-- Node36&#45;&gt;Node8 -->
<g id="edge43_Node000036_Node000008" class="edge">
<title>Node36&#45;&gt;Node8</title>
<g id="a_edge43_Node000036_Node000008"><a xlink:title=" ">
<path fill="none" stroke="#63b8ff" d="M1015.01,-126.37C998.54,-115.82 970.43,-97.84 950.74,-85.23"/>
<polygon fill="#63b8ff" stroke="#63b8ff" points="952.4,-82.14 942.09,-79.7 948.63,-88.04 952.4,-82.14"/>
</a>
</g>
</g>
<!-- Node36&#45;&gt;Node11 -->
<g id="edge44_Node000036_Node000011" class="edge">
<title>Node36&#45;&gt;Node11</title>
<g id="a_edge44_Node000036_Node000011"><a xlink:title=" ">
<path fill="none" stroke="#63b8ff" d="M989.08,-126.49C948.12,-117.37 882.35,-101.89 826.5,-85 824.23,-84.31 821.91,-83.57 819.57,-82.8"/>
<polygon fill="#63b8ff" stroke="#63b8ff" points="820.65,-79.47 810.05,-79.54 818.38,-86.1 820.65,-79.47"/>
</a>
</g>
</g>
<!-- Node36&#45;&gt;Node33 -->
<g id="edge45_Node000036_Node000033" class="edge">
<title>Node36&#45;&gt;Node33</title>
<g id="a_edge45_Node000036_Node000033"><a xlink:title=" ">
<path fill="none" stroke="#63b8ff" d="M1069.2,-131.13C1103.2,-128.01 1152.98,-123.71 1196.5,-121 1584.08,-96.87 1685.95,-145.76 2069.5,-85 2074.03,-84.28 2078.73,-83.3 2083.36,-82.18"/>
<polygon fill="#63b8ff" stroke="#63b8ff" points="2084.5,-85.5 2093.29,-79.57 2082.72,-78.73 2084.5,-85.5"/>
</a>
</g>
</g>
<!-- Node38&#45;&gt;Node5 -->
<g id="edge49_Node000038_Node000005" class="edge">
<title>Node38&#45;&gt;Node5</title>
<g id="a_edge49_Node000038_Node000005"><a xlink:title=" ">
<path fill="none" stroke="#63b8ff" d="M2281.24,-134.54C2048.41,-132.21 1056.93,-120.36 749.5,-85 741.97,-84.13 734.04,-82.88 726.33,-81.48"/>
<polygon fill="#63b8ff" stroke="#63b8ff" points="726.85,-78.02 716.37,-79.56 725.53,-84.89 726.85,-78.02"/>
</a>
</g>
</g>
<!-- Node38&#45;&gt;Node8 -->
<g id="edge55_Node000038_Node000008" class="edge">
<title>Node38&#45;&gt;Node8</title>
<g id="a_edge55_Node000038_Node000008"><a xlink:title=" ">
<path fill="none" stroke="#63b8ff" d="M2281.39,-134.17C2052.43,-130.19 1095.3,-112.02 964.5,-85 961.97,-84.48 959.39,-83.8 956.83,-83.01"/>
<polygon fill="#63b8ff" stroke="#63b8ff" points="957.79,-79.64 947.2,-79.63 955.47,-86.25 957.79,-79.64"/>
</a>
</g>
</g>
<!-- Node38&#45;&gt;Node20 -->
<g id="edge53_Node000038_Node000020" class="edge">
<title>Node38&#45;&gt;Node20</title>
<g id="a_edge53_Node000038_Node000020"><a xlink:title=" ">
<path fill="none" stroke="#63b8ff" d="M2305.92,-120.95C2286.97,-110.13 2260.92,-95.24 2242.2,-84.54"/>
<polygon fill="#63b8ff" stroke="#63b8ff" points="2243.82,-81.44 2233.41,-79.52 2240.35,-87.52 2243.82,-81.44"/>
</a>
</g>
</g>
<!-- Node38&#45;&gt;Node23 -->
<g id="edge57_Node000038_Node000023" class="edge">
<title>Node38&#45;&gt;Node23</title>
<g id="a_edge57_Node000038_Node000023"><a xlink:title=" ">
<path fill="none" stroke="#63b8ff" d="M2324.73,-120.8C2320.95,-111.5 2315.99,-99.27 2311.92,-89.26"/>
<polygon fill="#63b8ff" stroke="#63b8ff" points="2315.1,-87.79 2308.09,-79.84 2308.61,-90.43 2315.1,-87.79"/>
</a>
</g>
</g>
<!-- Node38&#45;&gt;Node33 -->
<g id="edge50_Node000038_Node000033" class="edge">
<title>Node38&#45;&gt;Node33</title>
<g id="a_edge50_Node000038_Node000033"><a xlink:title=" ">
<path fill="none" stroke="#63b8ff" d="M2284.2,-120.95C2246.21,-109.43 2193.1,-93.32 2157.56,-82.54"/>
<polygon fill="#63b8ff" stroke="#63b8ff" points="2158.17,-79.07 2147.58,-79.52 2156.13,-85.77 2158.17,-79.07"/>
</a>
</g>
</g>
<!-- Node39 -->
<g id="Node000039" class="node">
<title>Node39</title>
<g id="a_Node000039"><a xlink:title=" ">
<polygon fill="#e0e0e0" stroke="#999999" points="2752.5,-85 2650.5,-85 2650.5,-55 2752.5,-55 2752.5,-85"/>
<text text-anchor="start" x="2658.5" y="-73" font-family="Helvetica,sans-Serif" font-size="10.00">../vwidgets/resize</text>
<text text-anchor="middle" x="2701.5" y="-62" font-family="Helvetica,sans-Serif" font-size="10.00">_handle.h</text>
</a>
</g>
</g>
<!-- Node38&#45;&gt;Node39 -->
<g id="edge51_Node000038_Node000039" class="edge">
<title>Node38&#45;&gt;Node39</title>
<g id="a_edge51_Node000038_Node000039"><a xlink:title=" ">
<path fill="none" stroke="#63b8ff" d="M2379.61,-128.28C2439.19,-119.87 2542.91,-104.41 2640.37,-85.35"/>
<polygon fill="#63b8ff" stroke="#63b8ff" points="2641.25,-88.74 2650.38,-83.37 2639.9,-81.88 2641.25,-88.74"/>
</a>
</g>
</g>
<!-- Node40 -->
<g id="Node000040" class="node">
<title>Node40</title>
<g id="a_Node000040"><a xlink:title=" ">
<polygon fill="#e0e0e0" stroke="#999999" points="2938,-79.5 2771,-79.5 2771,-60.5 2938,-60.5 2938,-79.5"/>
<text text-anchor="middle" x="2854.5" y="-67.5" font-family="Helvetica,sans-Serif" font-size="10.00">../vmisc/vabstractapplication.h</text>
</a>
</g>
</g>
<!-- Node38&#45;&gt;Node40 -->
<g id="edge52_Node000038_Node000040" class="edge">
<title>Node38&#45;&gt;Node40</title>
<g id="a_edge52_Node000038_Node000040"><a xlink:title=" ">
<path fill="none" stroke="#63b8ff" d="M2379.69,-129.84C2459.8,-121.32 2623.36,-103.4 2761.5,-85 2770.65,-83.78 2780.3,-82.42 2789.77,-81.03"/>
<polygon fill="#63b8ff" stroke="#63b8ff" points="2790.58,-84.45 2799.96,-79.53 2789.55,-77.53 2790.58,-84.45"/>
</a>
</g>
</g>
<!-- Node41 -->
<g id="Node000041" class="node">
<title>Node41</title>
<g id="a_Node000041"><a xlink:title=" ">
<polygon fill="#e0e0e0" stroke="#999999" points="3011,-79.5 2956,-79.5 2956,-60.5 3011,-60.5 3011,-79.5"/>
<text text-anchor="middle" x="2983.5" y="-67.5" font-family="Helvetica,sans-Serif" font-size="10.00">QPointF</text>
</a>
</g>
</g>
<!-- Node38&#45;&gt;Node41 -->
<g id="edge54_Node000038_Node000041" class="edge">
<title>Node38&#45;&gt;Node41</title>
<g id="a_edge54_Node000038_Node000041"><a xlink:title=" ">
<path fill="none" stroke="#63b8ff" d="M2379.63,-135.8C2485.08,-136.49 2740.38,-132.6 2947.5,-85 2949.87,-84.46 2952.29,-83.78 2954.7,-83.03"/>
<polygon fill="#63b8ff" stroke="#63b8ff" points="2956.13,-86.24 2964.39,-79.61 2953.8,-79.64 2956.13,-86.24"/>
</a>
</g>
</g>
<!-- Node42 -->
<g id="Node000042" class="node">
<title>Node42</title>
<g id="a_Node000042"><a xlink:title=" ">
<polygon fill="#e0e0e0" stroke="#999999" points="2409,-79.5 2350,-79.5 2350,-60.5 2409,-60.5 2409,-79.5"/>
<text text-anchor="middle" x="2379.5" y="-67.5" font-family="Helvetica,sans-Serif" font-size="10.00">QVariant</text>
</a>
</g>
</g>
<!-- Node38&#45;&gt;Node42 -->
<g id="edge56_Node000038_Node000042" class="edge">
<title>Node38&#45;&gt;Node42</title>
<g id="a_edge56_Node000038_Node000042"><a xlink:title=" ">
<path fill="none" stroke="#63b8ff" d="M2341.37,-120.8C2348.79,-111.11 2358.64,-98.24 2366.48,-88.01"/>
<polygon fill="#63b8ff" stroke="#63b8ff" points="2369.43,-89.91 2372.73,-79.84 2363.87,-85.66 2369.43,-89.91"/>
</a>
</g>
</g>
<!-- Node43 -->
<g id="Node000043" class="node">
<title>Node43</title>
<g id="a_Node000043"><a xlink:title=" ">
<polygon fill="#e0e0e0" stroke="#999999" points="2525.5,-79.5 2427.5,-79.5 2427.5,-60.5 2525.5,-60.5 2525.5,-79.5"/>
<text text-anchor="middle" x="2476.5" y="-67.5" font-family="Helvetica,sans-Serif" font-size="10.00">QtCore/qglobal.h</text>
</a>
</g>
</g>
<!-- Node38&#45;&gt;Node43 -->
<g id="edge58_Node000038_Node000043" class="edge">
<title>Node38&#45;&gt;Node43</title>
<g id="a_edge58_Node000038_Node000043"><a xlink:title=" ">
<path fill="none" stroke="#63b8ff" d="M2362.54,-120.95C2387.92,-109.83 2423.06,-94.42 2447.59,-83.67"/>
<polygon fill="#63b8ff" stroke="#63b8ff" points="2449.32,-86.74 2457.07,-79.52 2446.51,-80.33 2449.32,-86.74"/>
</a>
</g>
</g>
<!-- Node44 -->
<g id="Node000044" class="node">
<title>Node44</title>
<g id="a_Node000044"><a xlink:title=" ">
<polygon fill="#e0e0e0" stroke="#999999" points="2633,-79.5 2544,-79.5 2544,-60.5 2633,-60.5 2633,-79.5"/>
<text text-anchor="middle" x="2588.5" y="-67.5" font-family="Helvetica,sans-Serif" font-size="10.00">QGraphicsItem</text>
</a>
</g>
</g>
<!-- Node38&#45;&gt;Node44 -->
<g id="edge59_Node000038_Node000044" class="edge">
<title>Node38&#45;&gt;Node44</title>
<g id="a_edge59_Node000038_Node000044"><a xlink:title=" ">
<path fill="none" stroke="#63b8ff" d="M2379.6,-123.16C2420.95,-113.14 2481.64,-98.33 2534.5,-85 2538.3,-84.04 2542.25,-83.04 2546.2,-82.02"/>
<polygon fill="#63b8ff" stroke="#63b8ff" points="2547.15,-85.39 2555.96,-79.51 2545.41,-78.61 2547.15,-85.39"/>
</a>
</g>
</g>
</g>
</svg>

<g id="navigator" transform="translate(0 0)" fill="#404254">
  <rect fill="#f2f5e9" fill-opacity="0.5" stroke="#606060" stroke-width=".5" x="0" y="0" width="60" height="60"/>
  <use id="zoomplus" xlink:href="#zoomPlus" x="17" y="9" onmousedown="handleZoom(evt,'in')"/>
  <use id="zoomminus" xlink:href="#zoomMin" x="42" y="9" onmousedown="handleZoom(evt,'out')"/>
  <use id="reset" xlink:href="#resetDef" x="30" y="36" onmousedown="handleReset()"/>
   <use id="arrowup" xlink:href="#arrowUp" x="0" y="0" onmousedown="handlePan(0,-1)"/>
  <use id="arrowright" xlink:href="#arrowRight" x="0" y="0" onmousedown="handlePan(1,0)"/>
  <use id="arrowdown" xlink:href="#arrowDown" x="0" y="0" onmousedown="handlePan(0,1)"/>
  <use id="arrowleft" xlink:href="#arrowLeft" x="0" y="0" onmousedown="handlePan(-1,0)"/>
</g>
<svg viewBox="0 0 15 15" width="100%" height="30px" preserveAspectRatio="xMaxYMin meet">
 <g id="arrow_out" transform="scale(0.3 0.3)">
  <a xlink:href="export__format__combobox_8h__incl_org.svg" target="_base">
   <rect id="button" ry="5" rx="5" y="6" x="6" height="38" width="38"
        fill="#f2f5e9" fill-opacity="0.5" stroke="#606060" stroke-width="1.0"/>
   <path id="arrow"
     d="M 11.500037,31.436501 C 11.940474,20.09759 22.043105,11.32322 32.158766,21.979434 L 37.068811,17.246167 C 37.068811,17.246167 37.088388,32 37.088388,32 L 22.160133,31.978069 C 22.160133,31.978069 26.997745,27.140456 26.997745,27.140456 C 18.528582,18.264221 13.291696,25.230495 11.500037,31.436501 z"
     style="fill:#404040;"/>
  </a>
 </g>
</svg>

<style type='text/css'>
<![CDATA[
[data-mouse-over-selected='false'] { opacity: 0.7; }
[data-mouse-over-selected='true']  { opacity: 1.0; }
]]>
</style>
<script type="application/ecmascript"><![CDATA[
document.addEventListener('DOMContentLoaded', (event) => {
  highlightEdges();
  highlightAdjacentNodes();
});
]]></script>
</svg>
