<?xml version="1.0" encoding="UTF-8" standalone="no"?>
<!DOCTYPE svg PUBLIC "-//W3C//DTD SVG 1.1//EN"
 "http://www.w3.org/Graphics/SVG/1.1/DTD/svg11.dtd">
<!-- Generated by graphviz version 2.43.0 (0)
 -->
<!-- Title: src/libs/vpatterndb/vtranslatevars.h Pages: 1 -->
<svg width="469pt" height="207pt"
 viewBox="0.00 0.00 469.00 207.00" xmlns="http://www.w3.org/2000/svg" xmlns:xlink="http://www.w3.org/1999/xlink">
<g id="graph0" class="graph" transform="scale(1 1) rotate(0) translate(4 203)">
<title>src/libs/vpatterndb/vtranslatevars.h</title>
<polygon fill="white" stroke="transparent" points="-4,4 -4,-203 465,-203 465,4 -4,4"/>
<!-- Node1 -->
<g id="node1" class="node">
<title>Node1</title>
<g id="a_node1"><a xlink:title=" ">
<polygon fill="#bfbfbf" stroke="black" points="94.5,-168.5 94.5,-198.5 201.5,-198.5 201.5,-168.5 94.5,-168.5"/>
<text text-anchor="start" x="102.5" y="-186.5" font-family="Helvetica,sans-Serif" font-size="10.00">src/libs/vpatterndb</text>
<text text-anchor="middle" x="148" y="-175.5" font-family="Helvetica,sans-Serif" font-size="10.00">/vtranslatevars.h</text>
</a>
</g>
</g>
<!-- Node2 -->
<g id="node2" class="node">
<title>Node2</title>
<g id="a_node2"><a xlink:title=" ">
<polygon fill="white" stroke="#bfbfbf" points="0,-112.5 0,-131.5 120,-131.5 120,-112.5 0,-112.5"/>
<text text-anchor="middle" x="60" y="-119.5" font-family="Helvetica,sans-Serif" font-size="10.00">qcompilerdetection.h</text>
</a>
</g>
</g>
<!-- Node1&#45;&gt;Node2 -->
<g id="edge1" class="edge">
<title>Node1&#45;&gt;Node2</title>
<path fill="none" stroke="midnightblue" d="M127.15,-168.4C113.3,-159.04 95.19,-146.79 81.26,-137.38"/>
<polygon fill="midnightblue" stroke="midnightblue" points="83.05,-134.36 72.8,-131.66 79.13,-140.16 83.05,-134.36"/>
</g>
<!-- Node3 -->
<g id="node3" class="node">
<title>Node3</title>
<g id="a_node3"><a xlink:title=" ">
<polygon fill="white" stroke="#bfbfbf" points="118.5,-56.5 118.5,-75.5 177.5,-75.5 177.5,-56.5 118.5,-56.5"/>
<text text-anchor="middle" x="148" y="-63.5" font-family="Helvetica,sans-Serif" font-size="10.00">QtGlobal</text>
</a>
</g>
</g>
<!-- Node1&#45;&gt;Node3 -->
<g id="edge2" class="edge">
<title>Node1&#45;&gt;Node3</title>
<path fill="none" stroke="midnightblue" d="M148,-168.34C148,-147.62 148,-109.02 148,-85.9"/>
<polygon fill="midnightblue" stroke="midnightblue" points="151.5,-85.67 148,-75.67 144.5,-85.67 151.5,-85.67"/>
</g>
<!-- Node4 -->
<g id="node4" class="node">
<title>Node4</title>
<g id="a_node4"><a xlink:href="../../d0/de0/vtranslatemeasurements_8h.html" target="_top" xlink:title=" ">
<polygon fill="white" stroke="black" points="175.5,-112.5 175.5,-131.5 324.5,-131.5 324.5,-112.5 175.5,-112.5"/>
<text text-anchor="middle" x="250" y="-119.5" font-family="Helvetica,sans-Serif" font-size="10.00">vtranslatemeasurements.h</text>
</a>
</g>
</g>
<!-- Node1&#45;&gt;Node4 -->
<g id="edge3" class="edge">
<title>Node1&#45;&gt;Node4</title>
<path fill="none" stroke="midnightblue" d="M172.17,-168.4C188.52,-158.86 210.01,-146.32 226.27,-136.84"/>
<polygon fill="midnightblue" stroke="midnightblue" points="228.28,-139.72 235.16,-131.66 224.76,-133.67 228.28,-139.72"/>
</g>
<!-- Node4&#45;&gt;Node3 -->
<g id="edge6" class="edge">
<title>Node4&#45;&gt;Node3</title>
<path fill="none" stroke="midnightblue" d="M233.61,-112.32C217.33,-103.7 192.13,-90.36 173.28,-80.39"/>
<polygon fill="midnightblue" stroke="midnightblue" points="174.82,-77.24 164.35,-75.65 171.55,-83.43 174.82,-77.24"/>
</g>
<!-- Node5 -->
<g id="node5" class="node">
<title>Node5</title>
<g id="a_node5"><a xlink:title=" ">
<polygon fill="white" stroke="#bfbfbf" points="195.5,-56.5 195.5,-75.5 240.5,-75.5 240.5,-56.5 195.5,-56.5"/>
<text text-anchor="middle" x="218" y="-63.5" font-family="Helvetica,sans-Serif" font-size="10.00">QMap</text>
</a>
</g>
</g>
<!-- Node4&#45;&gt;Node5 -->
<g id="edge4" class="edge">
<title>Node4&#45;&gt;Node5</title>
<path fill="none" stroke="midnightblue" d="M244.72,-112.08C240.29,-104.61 233.84,-93.72 228.38,-84.52"/>
<polygon fill="midnightblue" stroke="midnightblue" points="231.29,-82.57 223.19,-75.75 225.27,-86.14 231.29,-82.57"/>
</g>
<!-- Node6 -->
<g id="node6" class="node">
<title>Node6</title>
<g id="a_node6"><a xlink:title=" ">
<polygon fill="white" stroke="#bfbfbf" points="297.5,-0.5 297.5,-19.5 350.5,-19.5 350.5,-0.5 297.5,-0.5"/>
<text text-anchor="middle" x="324" y="-7.5" font-family="Helvetica,sans-Serif" font-size="10.00">QString</text>
</a>
</g>
</g>
<!-- Node4&#45;&gt;Node6 -->
<g id="edge5" class="edge">
<title>Node4&#45;&gt;Node6</title>
<path fill="none" stroke="midnightblue" d="M254.54,-112.34C261.3,-99.65 274.68,-75.39 288,-56 294.73,-46.21 302.96,-35.82 309.85,-27.49"/>
<polygon fill="midnightblue" stroke="midnightblue" points="312.67,-29.58 316.43,-19.67 307.32,-25.07 312.67,-29.58"/>
</g>
<!-- Node7 -->
<g id="node7" class="node">
<title>Node7</title>
<g id="a_node7"><a xlink:href="../../da/da3/qmutranslation_8h.html" target="_top" xlink:title="The VTranslation class help store string for translation.">
<polygon fill="white" stroke="black" points="297,-56.5 297,-75.5 461,-75.5 461,-56.5 297,-56.5"/>
<text text-anchor="middle" x="379" y="-63.5" font-family="Helvetica,sans-Serif" font-size="10.00">../qmuparser/qmutranslation.h</text>
</a>
</g>
</g>
<!-- Node4&#45;&gt;Node7 -->
<g id="edge7" class="edge">
<title>Node4&#45;&gt;Node7</title>
<path fill="none" stroke="midnightblue" d="M270.44,-112.44C291.67,-103.56 325.1,-89.56 349.25,-79.45"/>
<polygon fill="midnightblue" stroke="midnightblue" points="350.78,-82.61 358.66,-75.52 348.08,-76.15 350.78,-82.61"/>
</g>
<!-- Node7&#45;&gt;Node6 -->
<g id="edge8" class="edge">
<title>Node7&#45;&gt;Node6</title>
<path fill="none" stroke="midnightblue" d="M369.92,-56.08C361.83,-48.14 349.8,-36.34 340.09,-26.8"/>
<polygon fill="midnightblue" stroke="midnightblue" points="342.5,-24.26 332.91,-19.75 337.6,-29.25 342.5,-24.26"/>
</g>
</g>
</svg>
