<?xml version="1.0" encoding="UTF-8" standalone="no"?>
<!DOCTYPE svg PUBLIC "-//W3C//DTD SVG 1.1//EN"
 "http://www.w3.org/Graphics/SVG/1.1/DTD/svg11.dtd">
<!-- Generated by graphviz version 2.43.0 (0)
 -->
<!-- Title: src/libs/vtest/abstracttest.h Pages: 1 -->
<svg width="234pt" height="84pt"
 viewBox="0.00 0.00 233.50 84.00" xmlns="http://www.w3.org/2000/svg" xmlns:xlink="http://www.w3.org/1999/xlink">
<g id="graph0" class="graph" transform="scale(1 1) rotate(0) translate(4 80)">
<title>src/libs/vtest/abstracttest.h</title>
<polygon fill="white" stroke="transparent" points="-4,4 -4,-80 229.5,-80 229.5,4 -4,4"/>
<!-- Node1 -->
<g id="node1" class="node">
<title>Node1</title>
<g id="a_node1"><a xlink:title=" ">
<polygon fill="#bfbfbf" stroke="black" points="51.5,-56.5 51.5,-75.5 200.5,-75.5 200.5,-56.5 51.5,-56.5"/>
<text text-anchor="middle" x="126" y="-63.5" font-family="Helvetica,sans-Serif" font-size="10.00">src/libs/vtest/abstracttest.h</text>
</a>
</g>
</g>
<!-- Node2 -->
<g id="node2" class="node">
<title>Node2</title>
<g id="a_node2"><a xlink:title=" ">
<polygon fill="white" stroke="#bfbfbf" points="0,-0.5 0,-19.5 80,-19.5 80,-0.5 0,-0.5"/>
<text text-anchor="middle" x="40" y="-7.5" font-family="Helvetica,sans-Serif" font-size="10.00">QMetaObject</text>
</a>
</g>
</g>
<!-- Node1&#45;&gt;Node2 -->
<g id="edge1" class="edge">
<title>Node1&#45;&gt;Node2</title>
<path fill="none" stroke="midnightblue" d="M112.18,-56.32C98.77,-47.9 78.18,-34.97 62.41,-25.07"/>
<polygon fill="midnightblue" stroke="midnightblue" points="64.11,-22.01 53.78,-19.65 60.39,-27.94 64.11,-22.01"/>
</g>
<!-- Node3 -->
<g id="node3" class="node">
<title>Node3</title>
<g id="a_node3"><a xlink:title=" ">
<polygon fill="white" stroke="#bfbfbf" points="98,-0.5 98,-19.5 154,-19.5 154,-0.5 98,-0.5"/>
<text text-anchor="middle" x="126" y="-7.5" font-family="Helvetica,sans-Serif" font-size="10.00">QObject</text>
</a>
</g>
</g>
<!-- Node1&#45;&gt;Node3 -->
<g id="edge2" class="edge">
<title>Node1&#45;&gt;Node3</title>
<path fill="none" stroke="midnightblue" d="M126,-56.08C126,-49.01 126,-38.86 126,-29.99"/>
<polygon fill="midnightblue" stroke="midnightblue" points="129.5,-29.75 126,-19.75 122.5,-29.75 129.5,-29.75"/>
</g>
<!-- Node4 -->
<g id="node4" class="node">
<title>Node4</title>
<g id="a_node4"><a xlink:title=" ">
<polygon fill="white" stroke="#bfbfbf" points="172.5,-0.5 172.5,-19.5 225.5,-19.5 225.5,-0.5 172.5,-0.5"/>
<text text-anchor="middle" x="199" y="-7.5" font-family="Helvetica,sans-Serif" font-size="10.00">QString</text>
</a>
</g>
</g>
<!-- Node1&#45;&gt;Node4 -->
<g id="edge3" class="edge">
<title>Node1&#45;&gt;Node4</title>
<path fill="none" stroke="midnightblue" d="M137.73,-56.32C148.84,-48.11 165.74,-35.6 178.98,-25.81"/>
<polygon fill="midnightblue" stroke="midnightblue" points="181.1,-28.59 187.06,-19.83 176.94,-22.97 181.1,-28.59"/>
</g>
</g>
</svg>
