<?xml version="1.0" encoding="UTF-8" standalone="no"?>
<!DOCTYPE svg PUBLIC "-//W3C//DTD SVG 1.1//EN"
 "http://www.w3.org/Graphics/SVG/1.1/DTD/svg11.dtd">
<!-- Generated by graphviz version 2.43.0 (0)
 -->
<!-- Title: src/libs/ifc/xml/individual_size_converter.h Pages: 1 -->
<!--zoomable 263 -->
<svg id="main" version="1.1" xmlns="http://www.w3.org/2000/svg" xmlns:xlink="http://www.w3.org/1999/xlink" xml:space="preserve" onload="init(evt)">
<style type="text/css"><![CDATA[
.edge:hover path { stroke: red; }
.edge:hover polygon { stroke: red; fill: red; }
]]></style>
<script type="text/javascript"><![CDATA[
var edges = document.getElementsByTagName('g');
if (edges && edges.length) {
  for (var i=0;i<edges.length;i++) {
    if (edges[i].id.substr(0,4)=='edge') {
      edges[i].setAttribute('class','edge');
    }
  }
}
]]></script>
        <defs>
                <circle id="rim" cx="0" cy="0" r="7"/>
                <circle id="rim2" cx="0" cy="0" r="3.5"/>
                <g id="zoomPlus">
                        <use xlink:href="#rim" fill="#404040">
                                <set attributeName="fill" to="#808080" begin="zoomplus.mouseover" end="zoomplus.mouseout"/>
                        </use>
                        <path d="M-4,0h8M0,-4v8" fill="none" stroke="white" stroke-width="1.5" pointer-events="none"/>
                </g>
                <g id="zoomMin">
                        <use xlink:href="#rim" fill="#404040">
                                <set attributeName="fill" to="#808080" begin="zoomminus.mouseover" end="zoomminus.mouseout"/>
                        </use>
                        <path d="M-4,0h8" fill="none" stroke="white" stroke-width="1.5" pointer-events="none"/>
                </g>
                <g id="dirArrow">
                        <path fill="none" stroke="white" stroke-width="1.5" d="M0,-3.0v7 M-2.5,-0.5L0,-3.0L2.5,-0.5"/>
                </g>
               <g id="resetDef">
                       <use xlink:href="#rim2" fill="#404040">
                               <set attributeName="fill" to="#808080" begin="reset.mouseover" end="reset.mouseout"/>
                       </use>
               </g>
        </defs>

<script type="text/javascript">
var viewWidth = 1589;
var viewHeight = 263;
var sectionId = 'dynsection-0';
</script>
<script xlink:href="../../svgpan.js"/>
<svg id="graph" class="graph">
<g id="viewport">
<title>src/libs/ifc/xml/individual_size_converter.h</title>
<polygon fill="white" stroke="transparent" points="-4,4 -4,-259 1585,-259 1585,4 -4,4"/>
<!-- Node1 -->
<g id="node1" class="node">
<title>Node1</title>
<g id="a_node1"><a xlink:title=" ">
<polygon fill="#bfbfbf" stroke="black" points="841,-224.5 841,-254.5 980,-254.5 980,-224.5 841,-224.5"/>
<text text-anchor="start" x="849" y="-242.5" font-family="Helvetica,sans-Serif" font-size="10.00">src/libs/ifc/xml/individual</text>
<text text-anchor="middle" x="910.5" y="-231.5" font-family="Helvetica,sans-Serif" font-size="10.00">_size_converter.h</text>
</a>
</g>
</g>
<!-- Node2 -->
<g id="node2" class="node">
<title>Node2</title>
<g id="a_node2"><a xlink:title=" ">
<polygon fill="white" stroke="#bfbfbf" points="636.5,-56.5 636.5,-75.5 756.5,-75.5 756.5,-56.5 636.5,-56.5"/>
<text text-anchor="middle" x="696.5" y="-63.5" font-family="Helvetica,sans-Serif" font-size="10.00">qcompilerdetection.h</text>
</a>
</g>
</g>
<!-- Node1&#45;&gt;Node2 -->
<g id="edge1" class="edge">
<title>Node1&#45;&gt;Node2</title>
<path fill="none" stroke="midnightblue" d="M842.76,-224.45C793.54,-210.26 730.5,-182.88 700.5,-132 692.33,-118.15 692.01,-99.64 693.33,-85.91"/>
<polygon fill="midnightblue" stroke="midnightblue" points="696.83,-86.09 694.69,-75.71 689.9,-85.16 696.83,-86.09"/>
</g>
<!-- Node3 -->
<g id="node3" class="node">
<title>Node3</title>
<g id="a_node3"><a xlink:title=" ">
<polygon fill="white" stroke="#bfbfbf" points="1480,-0.5 1480,-19.5 1581,-19.5 1581,-0.5 1480,-0.5"/>
<text text-anchor="middle" x="1530.5" y="-7.5" font-family="Helvetica,sans-Serif" font-size="10.00">QCoreApplication</text>
</a>
</g>
</g>
<!-- Node1&#45;&gt;Node3 -->
<g id="edge2" class="edge">
<title>Node1&#45;&gt;Node3</title>
<path fill="none" stroke="midnightblue" d="M955.16,-224.45C986,-214.61 1027.89,-200.95 1064.5,-188 1229.65,-129.59 1424.97,-52.89 1499.5,-23.34"/>
<polygon fill="midnightblue" stroke="midnightblue" points="1500.79,-26.6 1508.8,-19.65 1498.21,-20.09 1500.79,-26.6"/>
</g>
<!-- Node4 -->
<g id="node4" class="node">
<title>Node4</title>
<g id="a_node4"><a xlink:title=" ">
<polygon fill="white" stroke="#bfbfbf" points="0,-0.5 0,-19.5 53,-19.5 53,-0.5 0,-0.5"/>
<text text-anchor="middle" x="26.5" y="-7.5" font-family="Helvetica,sans-Serif" font-size="10.00">QString</text>
</a>
</g>
</g>
<!-- Node1&#45;&gt;Node4 -->
<g id="edge3" class="edge">
<title>Node1&#45;&gt;Node4</title>
<path fill="none" stroke="midnightblue" d="M844.44,-224.42C722.44,-198.03 453.84,-138.18 230.5,-76 170.42,-59.27 101.46,-36.55 61.08,-22.88"/>
<polygon fill="midnightblue" stroke="midnightblue" points="62.04,-19.51 51.45,-19.61 59.79,-26.14 62.04,-19.51"/>
</g>
<!-- Node5 -->
<g id="node5" class="node">
<title>Node5</title>
<g id="a_node5"><a xlink:title=" ">
<polygon fill="white" stroke="#bfbfbf" points="1403,-0.5 1403,-19.5 1462,-19.5 1462,-0.5 1403,-0.5"/>
<text text-anchor="middle" x="1432.5" y="-7.5" font-family="Helvetica,sans-Serif" font-size="10.00">QtGlobal</text>
</a>
</g>
</g>
<!-- Node1&#45;&gt;Node5 -->
<g id="edge4" class="edge">
<title>Node1&#45;&gt;Node5</title>
<path fill="none" stroke="midnightblue" d="M942.76,-224.44C1037.35,-183.22 1313.02,-63.07 1403.42,-23.68"/>
<polygon fill="midnightblue" stroke="midnightblue" points="1405.01,-26.8 1412.78,-19.59 1402.22,-20.38 1405.01,-26.8"/>
</g>
<!-- Node6 -->
<g id="node6" class="node">
<title>Node6</title>
<g id="a_node6"><a xlink:href="../../da/d2c/abstract__m__converter_8h.html" target="_top" xlink:title=" ">
<polygon fill="white" stroke="black" points="798,-168.5 798,-187.5 929,-187.5 929,-168.5 798,-168.5"/>
<text text-anchor="middle" x="863.5" y="-175.5" font-family="Helvetica,sans-Serif" font-size="10.00">abstract_m_converter.h</text>
</a>
</g>
</g>
<!-- Node1&#45;&gt;Node6 -->
<g id="edge5" class="edge">
<title>Node1&#45;&gt;Node6</title>
<path fill="none" stroke="midnightblue" d="M899.36,-224.4C892.53,-215.75 883.76,-204.64 876.59,-195.58"/>
<polygon fill="midnightblue" stroke="midnightblue" points="879.28,-193.34 870.34,-187.66 873.79,-197.67 879.28,-193.34"/>
</g>
<!-- Node9 -->
<g id="node9" class="node">
<title>Node9</title>
<g id="a_node9"><a xlink:href="../../d0/da1/abstract__converter_8h.html" target="_top" xlink:title=" ">
<polygon fill="white" stroke="black" points="899.5,-112.5 899.5,-131.5 1015.5,-131.5 1015.5,-112.5 899.5,-112.5"/>
<text text-anchor="middle" x="957.5" y="-119.5" font-family="Helvetica,sans-Serif" font-size="10.00">abstract_converter.h</text>
</a>
</g>
</g>
<!-- Node1&#45;&gt;Node9 -->
<g id="edge34" class="edge">
<title>Node1&#45;&gt;Node9</title>
<path fill="none" stroke="midnightblue" d="M919.06,-224.28C924.79,-214.35 932.22,-200.66 937.5,-188 943.89,-172.67 949.29,-154.57 952.87,-141.37"/>
<polygon fill="midnightblue" stroke="midnightblue" points="956.28,-142.16 955.42,-131.6 949.5,-140.39 956.28,-142.16"/>
</g>
<!-- Node6&#45;&gt;Node2 -->
<g id="edge6" class="edge">
<title>Node6&#45;&gt;Node2</title>
<path fill="none" stroke="midnightblue" d="M864.71,-168.2C866.07,-154.42 866.52,-127.71 852.5,-112 839.53,-97.47 795.13,-85.52 756.99,-77.59"/>
<polygon fill="midnightblue" stroke="midnightblue" points="757.44,-74.11 746.95,-75.57 756.06,-80.98 757.44,-74.11"/>
</g>
<!-- Node6&#45;&gt;Node4 -->
<g id="edge9" class="edge">
<title>Node6&#45;&gt;Node4</title>
<path fill="none" stroke="midnightblue" d="M815.47,-168.48C692.19,-146.41 354.44,-84.75 63.11,-20.04"/>
<polygon fill="midnightblue" stroke="midnightblue" points="63.72,-16.59 53.2,-17.84 62.2,-23.43 63.72,-16.59"/>
</g>
<!-- Node6&#45;&gt;Node5 -->
<g id="edge10" class="edge">
<title>Node6&#45;&gt;Node5</title>
<path fill="none" stroke="midnightblue" d="M894.71,-168.43C927.17,-159.49 979.46,-144.97 1024.5,-132 1160.85,-92.73 1322.25,-44.28 1394.37,-22.53"/>
<polygon fill="midnightblue" stroke="midnightblue" points="1395.79,-25.75 1404.35,-19.51 1393.77,-19.05 1395.79,-25.75"/>
</g>
<!-- Node7 -->
<g id="node7" class="node">
<title>Node7</title>
<g id="a_node7"><a xlink:title=" ">
<polygon fill="white" stroke="#bfbfbf" points="710,-112.5 710,-131.5 755,-131.5 755,-112.5 710,-112.5"/>
<text text-anchor="middle" x="732.5" y="-119.5" font-family="Helvetica,sans-Serif" font-size="10.00">QMap</text>
</a>
</g>
</g>
<!-- Node6&#45;&gt;Node7 -->
<g id="edge7" class="edge">
<title>Node6&#45;&gt;Node7</title>
<path fill="none" stroke="midnightblue" d="M842.74,-168.44C821.18,-159.56 787.24,-145.56 762.71,-135.45"/>
<polygon fill="midnightblue" stroke="midnightblue" points="763.74,-132.09 753.16,-131.52 761.07,-138.56 763.74,-132.09"/>
</g>
<!-- Node8 -->
<g id="node8" class="node">
<title>Node8</title>
<g id="a_node8"><a xlink:title=" ">
<polygon fill="white" stroke="#bfbfbf" points="773.5,-112.5 773.5,-131.5 843.5,-131.5 843.5,-112.5 773.5,-112.5"/>
<text text-anchor="middle" x="808.5" y="-119.5" font-family="Helvetica,sans-Serif" font-size="10.00">QMultiMap</text>
</a>
</g>
</g>
<!-- Node6&#45;&gt;Node8 -->
<g id="edge8" class="edge">
<title>Node6&#45;&gt;Node8</title>
<path fill="none" stroke="midnightblue" d="M854.42,-168.08C846.33,-160.14 834.3,-148.34 824.59,-138.8"/>
<polygon fill="midnightblue" stroke="midnightblue" points="827,-136.26 817.41,-131.75 822.1,-141.25 827,-136.26"/>
</g>
<!-- Node6&#45;&gt;Node9 -->
<g id="edge11" class="edge">
<title>Node6&#45;&gt;Node9</title>
<path fill="none" stroke="midnightblue" d="M878.6,-168.32C893.4,-159.82 916.19,-146.73 933.48,-136.8"/>
<polygon fill="midnightblue" stroke="midnightblue" points="935.51,-139.67 942.43,-131.65 932.02,-133.6 935.51,-139.67"/>
</g>
<!-- Node9&#45;&gt;Node2 -->
<g id="edge12" class="edge">
<title>Node9&#45;&gt;Node2</title>
<path fill="none" stroke="midnightblue" d="M916.14,-112.44C870.42,-102.98 796.74,-87.74 747.48,-77.55"/>
<polygon fill="midnightblue" stroke="midnightblue" points="748.16,-74.12 737.66,-75.52 746.75,-80.97 748.16,-74.12"/>
</g>
<!-- Node9&#45;&gt;Node3 -->
<g id="edge13" class="edge">
<title>Node9&#45;&gt;Node3</title>
<path fill="none" stroke="midnightblue" d="M1001.99,-112.46C1105.64,-92.56 1362.97,-43.16 1475.9,-21.48"/>
<polygon fill="midnightblue" stroke="midnightblue" points="1476.88,-24.86 1486.04,-19.53 1475.56,-17.98 1476.88,-24.86"/>
</g>
<!-- Node9&#45;&gt;Node4 -->
<g id="edge14" class="edge">
<title>Node9&#45;&gt;Node4</title>
<path fill="none" stroke="midnightblue" d="M920.71,-112.46C889.06,-104.59 842.49,-91.77 803.5,-76 785.81,-68.84 783.9,-61.05 765.5,-56 467.04,25.9 373.93,-64.18 63.32,-19.76"/>
<polygon fill="midnightblue" stroke="midnightblue" points="63.52,-16.25 53.12,-18.27 62.51,-23.18 63.52,-16.25"/>
</g>
<!-- Node9&#45;&gt;Node5 -->
<g id="edge16" class="edge">
<title>Node9&#45;&gt;Node5</title>
<path fill="none" stroke="midnightblue" d="M957.19,-112.19C957.22,-97.89 959.58,-69.85 976.5,-56 1046.31,1.17 1286.28,-32.44 1392.55,-19.9"/>
<polygon fill="midnightblue" stroke="midnightblue" points="1393.29,-23.33 1402.71,-18.49 1392.33,-16.4 1393.29,-23.33"/>
</g>
<!-- Node10 -->
<g id="node10" class="node">
<title>Node10</title>
<g id="a_node10"><a xlink:title=" ">
<polygon fill="white" stroke="#bfbfbf" points="986,-56.5 986,-75.5 1079,-75.5 1079,-56.5 986,-56.5"/>
<text text-anchor="middle" x="1032.5" y="-63.5" font-family="Helvetica,sans-Serif" font-size="10.00">QTemporaryFile</text>
</a>
</g>
</g>
<!-- Node9&#45;&gt;Node10 -->
<g id="edge15" class="edge">
<title>Node9&#45;&gt;Node10</title>
<path fill="none" stroke="midnightblue" d="M969.55,-112.32C980.96,-104.11 998.33,-91.6 1011.93,-81.81"/>
<polygon fill="midnightblue" stroke="midnightblue" points="1014.16,-84.52 1020.23,-75.83 1010.07,-78.84 1014.16,-84.52"/>
</g>
<!-- Node11 -->
<g id="node11" class="node">
<title>Node11</title>
<g id="a_node11"><a xlink:href="../../d8/da5/vdomdocument_8h.html" target="_top" xlink:title=" ">
<polygon fill="white" stroke="black" points="812.5,-56.5 812.5,-75.5 914.5,-75.5 914.5,-56.5 812.5,-56.5"/>
<text text-anchor="middle" x="863.5" y="-63.5" font-family="Helvetica,sans-Serif" font-size="10.00">vdomdocument.h</text>
</a>
</g>
</g>
<!-- Node9&#45;&gt;Node11 -->
<g id="edge17" class="edge">
<title>Node9&#45;&gt;Node11</title>
<path fill="none" stroke="midnightblue" d="M942.4,-112.32C927.6,-103.82 904.81,-90.73 887.52,-80.8"/>
<polygon fill="midnightblue" stroke="midnightblue" points="888.98,-77.6 878.57,-75.65 885.49,-83.67 888.98,-77.6"/>
</g>
<!-- Node11&#45;&gt;Node3 -->
<g id="edge18" class="edge">
<title>Node11&#45;&gt;Node3</title>
<path fill="none" stroke="midnightblue" d="M914.68,-60.85C934.05,-59.3 956.29,-57.54 976.5,-56 1193.11,-39.5 1250.57,-44.49 1469.48,-20.15"/>
<polygon fill="midnightblue" stroke="midnightblue" points="1470.14,-23.6 1479.68,-19.01 1469.36,-16.65 1470.14,-23.6"/>
</g>
<!-- Node11&#45;&gt;Node4 -->
<g id="edge25" class="edge">
<title>Node11&#45;&gt;Node4</title>
<path fill="none" stroke="midnightblue" d="M812.46,-57.5C807.74,-56.94 803.04,-56.42 798.5,-56 475.76,-25.82 388.26,-67.08 63.3,-19.77"/>
<polygon fill="midnightblue" stroke="midnightblue" points="63.52,-16.27 53.12,-18.27 62.5,-23.19 63.52,-16.27"/>
</g>
<!-- Node11&#45;&gt;Node5 -->
<g id="edge28" class="edge">
<title>Node11&#45;&gt;Node5</title>
<path fill="none" stroke="midnightblue" d="M914.69,-58.99C924.26,-57.94 934.18,-56.9 943.5,-56 1140.43,-37.07 1194.14,-50.8 1392.83,-20.06"/>
<polygon fill="midnightblue" stroke="midnightblue" points="1393.38,-23.51 1402.71,-18.51 1392.29,-16.6 1393.38,-23.51"/>
</g>
<!-- Node12 -->
<g id="node12" class="node">
<title>Node12</title>
<g id="a_node12"><a xlink:title=" ">
<polygon fill="white" stroke="#bfbfbf" points="921.5,-0.5 921.5,-19.5 1019.5,-19.5 1019.5,-0.5 921.5,-0.5"/>
<text text-anchor="middle" x="970.5" y="-7.5" font-family="Helvetica,sans-Serif" font-size="10.00">QDomDocument</text>
</a>
</g>
</g>
<!-- Node11&#45;&gt;Node12 -->
<g id="edge19" class="edge">
<title>Node11&#45;&gt;Node12</title>
<path fill="none" stroke="midnightblue" d="M880.69,-56.32C897.85,-47.66 924.45,-34.24 944.25,-24.25"/>
<polygon fill="midnightblue" stroke="midnightblue" points="946,-27.28 953.35,-19.65 942.85,-21.04 946,-27.28"/>
</g>
<!-- Node13 -->
<g id="node13" class="node">
<title>Node13</title>
<g id="a_node13"><a xlink:title=" ">
<polygon fill="white" stroke="#bfbfbf" points="1037.5,-0.5 1037.5,-19.5 1125.5,-19.5 1125.5,-0.5 1037.5,-0.5"/>
<text text-anchor="middle" x="1081.5" y="-7.5" font-family="Helvetica,sans-Serif" font-size="10.00">QDomElement</text>
</a>
</g>
</g>
<!-- Node11&#45;&gt;Node13 -->
<g id="edge20" class="edge">
<title>Node11&#45;&gt;Node13</title>
<path fill="none" stroke="midnightblue" d="M898.04,-56.44C935.75,-47.1 996.24,-32.12 1037.36,-21.93"/>
<polygon fill="midnightblue" stroke="midnightblue" points="1038.25,-25.32 1047.12,-19.52 1036.57,-18.52 1038.25,-25.32"/>
</g>
<!-- Node14 -->
<g id="node14" class="node">
<title>Node14</title>
<g id="a_node14"><a xlink:title=" ">
<polygon fill="white" stroke="#bfbfbf" points="1144,-0.5 1144,-19.5 1217,-19.5 1217,-0.5 1144,-0.5"/>
<text text-anchor="middle" x="1180.5" y="-7.5" font-family="Helvetica,sans-Serif" font-size="10.00">QDomNode</text>
</a>
</g>
</g>
<!-- Node11&#45;&gt;Node14 -->
<g id="edge21" class="edge">
<title>Node11&#45;&gt;Node14</title>
<path fill="none" stroke="midnightblue" d="M914.52,-56.97C966.92,-48.63 1051.1,-34.95 1133.79,-20.09"/>
<polygon fill="midnightblue" stroke="midnightblue" points="1134.64,-23.49 1143.86,-18.27 1133.4,-16.6 1134.64,-23.49"/>
</g>
<!-- Node15 -->
<g id="node15" class="node">
<title>Node15</title>
<g id="a_node15"><a xlink:title=" ">
<polygon fill="white" stroke="#bfbfbf" points="1235,-0.5 1235,-19.5 1284,-19.5 1284,-0.5 1235,-0.5"/>
<text text-anchor="middle" x="1259.5" y="-7.5" font-family="Helvetica,sans-Serif" font-size="10.00">QHash</text>
</a>
</g>
</g>
<!-- Node11&#45;&gt;Node15 -->
<g id="edge22" class="edge">
<title>Node11&#45;&gt;Node15</title>
<path fill="none" stroke="midnightblue" d="M914.61,-59.08C1001.02,-49 1171.17,-28.9 1224.87,-19.95"/>
<polygon fill="midnightblue" stroke="midnightblue" points="1225.51,-23.39 1234.72,-18.17 1224.26,-16.5 1225.51,-23.39"/>
</g>
<!-- Node16 -->
<g id="node16" class="node">
<title>Node16</title>
<g id="a_node16"><a xlink:title=" ">
<polygon fill="white" stroke="#bfbfbf" points="1302,-0.5 1302,-19.5 1385,-19.5 1385,-0.5 1302,-0.5"/>
<text text-anchor="middle" x="1343.5" y="-7.5" font-family="Helvetica,sans-Serif" font-size="10.00">QLatin1String</text>
</a>
</g>
</g>
<!-- Node11&#45;&gt;Node16 -->
<g id="edge23" class="edge">
<title>Node11&#45;&gt;Node16</title>
<path fill="none" stroke="midnightblue" d="M914.7,-59.17C924.27,-58.1 934.19,-57 943.5,-56 1095.64,-39.62 1136.9,-41.76 1291.45,-20.2"/>
<polygon fill="midnightblue" stroke="midnightblue" points="1292.38,-23.61 1301.8,-18.75 1291.41,-16.68 1292.38,-23.61"/>
</g>
<!-- Node17 -->
<g id="node17" class="node">
<title>Node17</title>
<g id="a_node17"><a xlink:title=" ">
<polygon fill="white" stroke="#bfbfbf" points="71.5,-0.5 71.5,-19.5 175.5,-19.5 175.5,-0.5 71.5,-0.5"/>
<text text-anchor="middle" x="123.5" y="-7.5" font-family="Helvetica,sans-Serif" font-size="10.00">QStaticStringData</text>
</a>
</g>
</g>
<!-- Node11&#45;&gt;Node17 -->
<g id="edge24" class="edge">
<title>Node11&#45;&gt;Node17</title>
<path fill="none" stroke="midnightblue" d="M812.45,-57.54C807.74,-56.97 803.04,-56.45 798.5,-56 529.78,-29.56 458.16,-47.53 185.89,-20.05"/>
<polygon fill="midnightblue" stroke="midnightblue" points="186.01,-16.54 175.71,-19.01 185.3,-23.51 186.01,-16.54"/>
</g>
<!-- Node18 -->
<g id="node18" class="node">
<title>Node18</title>
<g id="a_node18"><a xlink:title=" ">
<polygon fill="white" stroke="#bfbfbf" points="193.5,-0.5 193.5,-19.5 269.5,-19.5 269.5,-0.5 193.5,-0.5"/>
<text text-anchor="middle" x="231.5" y="-7.5" font-family="Helvetica,sans-Serif" font-size="10.00">QStringData</text>
</a>
</g>
</g>
<!-- Node11&#45;&gt;Node18 -->
<g id="edge26" class="edge">
<title>Node11&#45;&gt;Node18</title>
<path fill="none" stroke="midnightblue" d="M812.45,-57.59C807.74,-57.01 803.03,-56.47 798.5,-56 571.33,-32.44 509.96,-49.34 279.69,-20"/>
<polygon fill="midnightblue" stroke="midnightblue" points="280.02,-16.51 269.66,-18.7 279.13,-23.45 280.02,-16.51"/>
</g>
<!-- Node19 -->
<g id="node19" class="node">
<title>Node19</title>
<g id="a_node19"><a xlink:title=" ">
<polygon fill="white" stroke="#bfbfbf" points="288,-0.5 288,-19.5 377,-19.5 377,-0.5 288,-0.5"/>
<text text-anchor="middle" x="332.5" y="-7.5" font-family="Helvetica,sans-Serif" font-size="10.00">QStringDataPtr</text>
</a>
</g>
</g>
<!-- Node11&#45;&gt;Node19 -->
<g id="edge27" class="edge">
<title>Node11&#45;&gt;Node19</title>
<path fill="none" stroke="midnightblue" d="M812.44,-57.68C807.73,-57.08 803.03,-56.51 798.5,-56 618.63,-35.72 569.95,-43.17 387.22,-20.13"/>
<polygon fill="midnightblue" stroke="midnightblue" points="387.64,-16.66 377.28,-18.87 386.76,-23.6 387.64,-16.66"/>
</g>
<!-- Node20 -->
<g id="node20" class="node">
<title>Node20</title>
<g id="a_node20"><a xlink:title=" ">
<polygon fill="white" stroke="#bfbfbf" points="394.5,-0.5 394.5,-19.5 450.5,-19.5 450.5,-0.5 394.5,-0.5"/>
<text text-anchor="middle" x="422.5" y="-7.5" font-family="Helvetica,sans-Serif" font-size="10.00">QLocale</text>
</a>
</g>
</g>
<!-- Node11&#45;&gt;Node20 -->
<g id="edge29" class="edge">
<title>Node11&#45;&gt;Node20</title>
<path fill="none" stroke="midnightblue" d="M812.43,-57.77C807.72,-57.15 803.02,-56.55 798.5,-56 651.34,-38 610.51,-45.62 460.73,-20"/>
<polygon fill="midnightblue" stroke="midnightblue" points="461.15,-16.53 450.7,-18.27 459.96,-23.42 461.15,-16.53"/>
</g>
<!-- Node21 -->
<g id="node21" class="node">
<title>Node21</title>
<g id="a_node21"><a xlink:title=" ">
<polygon fill="white" stroke="#bfbfbf" points="469,-0.5 469,-19.5 546,-19.5 546,-0.5 469,-0.5"/>
<text text-anchor="middle" x="507.5" y="-7.5" font-family="Helvetica,sans-Serif" font-size="10.00">../ifc/ifcdef.h</text>
</a>
</g>
</g>
<!-- Node11&#45;&gt;Node21 -->
<g id="edge30" class="edge">
<title>Node11&#45;&gt;Node21</title>
<path fill="none" stroke="midnightblue" d="M812.41,-57.79C742.17,-47.84 618.32,-30.13 556.36,-20.07"/>
<polygon fill="midnightblue" stroke="midnightblue" points="556.68,-16.58 546.25,-18.4 555.55,-23.48 556.68,-16.58"/>
</g>
<!-- Node22 -->
<g id="node22" class="node">
<title>Node22</title>
<g id="a_node22"><a xlink:title=" ">
<polygon fill="white" stroke="#bfbfbf" points="564.5,-0.5 564.5,-19.5 646.5,-19.5 646.5,-0.5 564.5,-0.5"/>
<text text-anchor="middle" x="605.5" y="-7.5" font-family="Helvetica,sans-Serif" font-size="10.00">../vmisc/def.h</text>
</a>
</g>
</g>
<!-- Node11&#45;&gt;Node22 -->
<g id="edge31" class="edge">
<title>Node11&#45;&gt;Node22</title>
<path fill="none" stroke="midnightblue" d="M822.62,-56.44C777.52,-47 704.89,-31.8 656.2,-21.61"/>
<polygon fill="midnightblue" stroke="midnightblue" points="656.69,-18.14 646.19,-19.52 655.26,-24.99 656.69,-18.14"/>
</g>
<!-- Node23 -->
<g id="node23" class="node">
<title>Node23</title>
<g id="a_node23"><a xlink:title=" ">
<polygon fill="white" stroke="#bfbfbf" points="665,-0.5 665,-19.5 782,-19.5 782,-0.5 665,-0.5"/>
<text text-anchor="middle" x="723.5" y="-7.5" font-family="Helvetica,sans-Serif" font-size="10.00">../vmisc/diagnostic.h</text>
</a>
</g>
</g>
<!-- Node11&#45;&gt;Node23 -->
<g id="edge32" class="edge">
<title>Node11&#45;&gt;Node23</title>
<path fill="none" stroke="midnightblue" d="M841.32,-56.44C818.07,-47.48 781.35,-33.31 755.08,-23.18"/>
<polygon fill="midnightblue" stroke="midnightblue" points="756.17,-19.85 745.58,-19.52 753.65,-26.38 756.17,-19.85"/>
</g>
<!-- Node24 -->
<g id="node24" class="node">
<title>Node24</title>
<g id="a_node24"><a xlink:title=" ">
<polygon fill="white" stroke="#bfbfbf" points="800,-0.5 800,-19.5 903,-19.5 903,-0.5 800,-0.5"/>
<text text-anchor="middle" x="851.5" y="-7.5" font-family="Helvetica,sans-Serif" font-size="10.00">../vmisc/logging.h</text>
</a>
</g>
</g>
<!-- Node11&#45;&gt;Node24 -->
<g id="edge33" class="edge">
<title>Node11&#45;&gt;Node24</title>
<path fill="none" stroke="midnightblue" d="M861.52,-56.08C859.93,-48.93 857.64,-38.64 855.65,-29.69"/>
<polygon fill="midnightblue" stroke="midnightblue" points="859.03,-28.75 853.44,-19.75 852.2,-30.27 859.03,-28.75"/>
</g>
</g>
</svg>
        <g id="navigator" transform="translate(0 0)" fill="#404254">
                <rect fill="#f2f5e9" fill-opacity="0.5" stroke="#606060" stroke-width=".5" x="0" y="0" width="60" height="60"/>
                <use id="zoomplus" xlink:href="#zoomPlus" x="17" y="9" onmousedown="handleZoom(evt,'in')"/>
                <use id="zoomminus" xlink:href="#zoomMin" x="42" y="9" onmousedown="handleZoom(evt,'out')"/>
                <use id="reset" xlink:href="#resetDef" x="30" y="36" onmousedown="handleReset()"/>
                <g id="arrowUp" xlink:href="#dirArrow" transform="translate(30 24)" onmousedown="handlePan(0,-1)">
                  <use xlink:href="#rim" fill="#404040">
                        <set attributeName="fill" to="#808080" begin="arrowUp.mouseover" end="arrowUp.mouseout"/>
                  </use>
                  <path fill="none" stroke="white" stroke-width="1.5" d="M0,-3.0v7 M-2.5,-0.5L0,-3.0L2.5,-0.5"/>
                </g>
                <g id="arrowRight" xlink:href="#dirArrow" transform="rotate(90) translate(36 -43)" onmousedown="handlePan(1,0)">
                  <use xlink:href="#rim" fill="#404040">
                        <set attributeName="fill" to="#808080" begin="arrowRight.mouseover" end="arrowRight.mouseout"/>
                  </use>
                  <path fill="none" stroke="white" stroke-width="1.5" d="M0,-3.0v7 M-2.5,-0.5L0,-3.0L2.5,-0.5"/>
                </g>
                <g id="arrowDown" xlink:href="#dirArrow" transform="rotate(180) translate(-30 -48)" onmousedown="handlePan(0,1)">
                  <use xlink:href="#rim" fill="#404040">
                        <set attributeName="fill" to="#808080" begin="arrowDown.mouseover" end="arrowDown.mouseout"/>
                  </use>
                  <path fill="none" stroke="white" stroke-width="1.5" d="M0,-3.0v7 M-2.5,-0.5L0,-3.0L2.5,-0.5"/>
                </g>
                <g id="arrowLeft" xlink:href="#dirArrow" transform="rotate(270) translate(-36 17)" onmousedown="handlePan(-1,0)">
                  <use xlink:href="#rim" fill="#404040">
                        <set attributeName="fill" to="#808080" begin="arrowLeft.mouseover" end="arrowLeft.mouseout"/>
                  </use>
                  <path fill="none" stroke="white" stroke-width="1.5" d="M0,-3.0v7 M-2.5,-0.5L0,-3.0L2.5,-0.5"/>
                </g>
        </g>
        <svg viewBox="0 0 15 15" width="100%" height="30px" preserveAspectRatio="xMaxYMin meet">
         <g id="arrow_out" transform="scale(0.3 0.3)">
          <a xlink:href="individual__size__converter_8h__incl_org.svg" target="_base">
           <rect id="button" ry="5" rx="5" y="6" x="6" height="38" width="38"
                fill="#f2f5e9" fill-opacity="0.5" stroke="#606060" stroke-width="1.0"/>
           <path id="arrow"
             d="M 11.500037,31.436501 C 11.940474,20.09759 22.043105,11.32322 32.158766,21.979434 L 37.068811,17.246167 C 37.068811,17.246167 37.088388,32 37.088388,32 L 22.160133,31.978069 C 22.160133,31.978069 26.997745,27.140456 26.997745,27.140456 C 18.528582,18.264221 13.291696,25.230495 11.500037,31.436501 z"
             style="fill:#404040;"/>
          </a>
         </g>
        </svg>
</svg>
