<?xml version="1.0" encoding="UTF-8" standalone="no"?>
<!DOCTYPE svg PUBLIC "-//W3C//DTD SVG 1.1//EN"
 "http://www.w3.org/Graphics/SVG/1.1/DTD/svg11.dtd">
<!-- Generated by graphviz version 2.43.0 (0)
 -->
<!-- Title: src/libs/vpatterndb/floatItemData/vpiecelabeldata.h Pages: 1 -->
<svg width="1657pt" height="229pt"
 viewBox="0.00 0.00 1656.50 229.00" xmlns="http://www.w3.org/2000/svg" xmlns:xlink="http://www.w3.org/1999/xlink">
<g id="graph0" class="graph" transform="scale(1 1) rotate(0) translate(4 225)">
<title>src/libs/vpatterndb/floatItemData/vpiecelabeldata.h</title>
<polygon fill="white" stroke="transparent" points="-4,4 -4,-225 1652.5,-225 1652.5,4 -4,4"/>
<!-- Node1 -->
<g id="node1" class="node">
<title>Node1</title>
<g id="a_node1"><a xlink:title=" ">
<polygon fill="#bfbfbf" stroke="black" points="1040.5,-190.5 1040.5,-220.5 1217.5,-220.5 1217.5,-190.5 1040.5,-190.5"/>
<text text-anchor="start" x="1048.5" y="-208.5" font-family="Helvetica,sans-Serif" font-size="10.00">src/libs/vpatterndb</text>
<text text-anchor="middle" x="1129" y="-197.5" font-family="Helvetica,sans-Serif" font-size="10.00">/floatItemData/vpiecelabeldata.h</text>
</a>
</g>
</g>
<!-- Node2 -->
<g id="node2" class="node">
<title>Node2</title>
<g id="a_node2"><a xlink:href="../../d6/de0/vlayoutpiece_8h.html" target="_top" xlink:title=" ">
<polygon fill="white" stroke="black" points="717,-129 717,-148 883,-148 883,-129 717,-129"/>
<text text-anchor="middle" x="800" y="-136" font-family="Helvetica,sans-Serif" font-size="10.00">src/libs/vlayout/vlayoutpiece.h</text>
</a>
</g>
</g>
<!-- Node1&#45;&gt;Node2 -->
<g id="edge1" class="edge">
<title>Node1&#45;&gt;Node2</title>
<path fill="none" stroke="midnightblue" d="M1047.84,-188.47C983.13,-175.68 895.03,-158.27 843.17,-148.03"/>
<polygon fill="midnightblue" stroke="midnightblue" points="1047.53,-191.97 1058.02,-190.48 1048.88,-185.1 1047.53,-191.97"/>
</g>
<!-- Node11 -->
<g id="node11" class="node">
<title>Node11</title>
<g id="a_node11"><a xlink:href="../../dd/d70/vlayoutpiece_8cpp.html" target="_top" xlink:title=" ">
<polygon fill="white" stroke="black" points="1126.5,-62 1126.5,-81 1303.5,-81 1303.5,-62 1126.5,-62"/>
<text text-anchor="middle" x="1215" y="-69" font-family="Helvetica,sans-Serif" font-size="10.00">src/libs/vlayout/vlayoutpiece.cpp</text>
</a>
</g>
</g>
<!-- Node1&#45;&gt;Node11 -->
<g id="edge16" class="edge">
<title>Node1&#45;&gt;Node11</title>
<path fill="none" stroke="midnightblue" d="M1030.31,-195.33C964.18,-185.27 895.09,-164.64 930,-123 933.73,-118.55 1080.51,-94.22 1161.92,-81.02"/>
<polygon fill="midnightblue" stroke="midnightblue" points="1030.06,-198.83 1040.46,-196.79 1031.06,-191.9 1030.06,-198.83"/>
</g>
<!-- Node12 -->
<g id="node12" class="node">
<title>Node12</title>
<g id="a_node12"><a xlink:href="../../d8/d70/vtextmanager_8cpp.html" target="_top" xlink:title=" ">
<polygon fill="white" stroke="black" points="939,-129 939,-148 1121,-148 1121,-129 939,-129"/>
<text text-anchor="middle" x="1030" y="-136" font-family="Helvetica,sans-Serif" font-size="10.00">src/libs/vlayout/vtextmanager.cpp</text>
</a>
</g>
</g>
<!-- Node1&#45;&gt;Node12 -->
<g id="edge13" class="edge">
<title>Node1&#45;&gt;Node12</title>
<path fill="none" stroke="midnightblue" d="M1099.01,-184.81C1080.28,-172.51 1057.12,-157.3 1042.96,-148.01"/>
<polygon fill="midnightblue" stroke="midnightblue" points="1097.24,-187.83 1107.52,-190.4 1101.08,-181.98 1097.24,-187.83"/>
</g>
<!-- Node13 -->
<g id="node13" class="node">
<title>Node13</title>
<g id="a_node13"><a xlink:href="../../d6/d2f/vlayoutpiece__p_8h.html" target="_top" xlink:title=" ">
<polygon fill="white" stroke="black" points="1139.5,-129 1139.5,-148 1316.5,-148 1316.5,-129 1139.5,-129"/>
<text text-anchor="middle" x="1228" y="-136" font-family="Helvetica,sans-Serif" font-size="10.00">src/libs/vlayout/vlayoutpiece_p.h</text>
</a>
</g>
</g>
<!-- Node1&#45;&gt;Node13 -->
<g id="edge14" class="edge">
<title>Node1&#45;&gt;Node13</title>
<path fill="none" stroke="midnightblue" d="M1158.99,-184.81C1177.72,-172.51 1200.88,-157.3 1215.04,-148.01"/>
<polygon fill="midnightblue" stroke="midnightblue" points="1156.92,-181.98 1150.48,-190.4 1160.76,-187.83 1156.92,-181.98"/>
</g>
<!-- Node14 -->
<g id="node14" class="node">
<title>Node14</title>
<g id="a_node14"><a xlink:href="../../de/d4a/vpiecelabeldata_8cpp.html" target="_top" xlink:title=" ">
<polygon fill="white" stroke="black" points="1335,-123.5 1335,-153.5 1523,-153.5 1523,-123.5 1335,-123.5"/>
<text text-anchor="start" x="1343" y="-141.5" font-family="Helvetica,sans-Serif" font-size="10.00">src/libs/vpatterndb</text>
<text text-anchor="middle" x="1429" y="-130.5" font-family="Helvetica,sans-Serif" font-size="10.00">/floatItemData/vpiecelabeldata.cpp</text>
</a>
</g>
</g>
<!-- Node1&#45;&gt;Node14 -->
<g id="edge17" class="edge">
<title>Node1&#45;&gt;Node14</title>
<path fill="none" stroke="midnightblue" d="M1203.7,-188.32C1253,-177.63 1316.96,-163.77 1364.13,-153.55"/>
<polygon fill="midnightblue" stroke="midnightblue" points="1202.76,-184.94 1193.73,-190.48 1204.24,-191.78 1202.76,-184.94"/>
</g>
<!-- Node15 -->
<g id="node15" class="node">
<title>Node15</title>
<g id="a_node15"><a xlink:href="../../d8/da5/vpiece__p_8h.html" target="_top" xlink:title=" ">
<polygon fill="white" stroke="black" points="1541.5,-123.5 1541.5,-153.5 1648.5,-153.5 1648.5,-123.5 1541.5,-123.5"/>
<text text-anchor="start" x="1549.5" y="-141.5" font-family="Helvetica,sans-Serif" font-size="10.00">src/libs/vpatterndb</text>
<text text-anchor="middle" x="1595" y="-130.5" font-family="Helvetica,sans-Serif" font-size="10.00">/vpiece_p.h</text>
</a>
</g>
</g>
<!-- Node1&#45;&gt;Node15 -->
<g id="edge18" class="edge">
<title>Node1&#45;&gt;Node15</title>
<path fill="none" stroke="midnightblue" d="M1227.88,-194.94C1309.72,-186.35 1428.86,-172.28 1532,-154 1535.09,-153.45 1538.27,-152.85 1541.46,-152.21"/>
<polygon fill="midnightblue" stroke="midnightblue" points="1227.42,-191.47 1217.83,-195.99 1228.14,-198.43 1227.42,-191.47"/>
</g>
<!-- Node3 -->
<g id="node3" class="node">
<title>Node3</title>
<g id="a_node3"><a xlink:href="../../dd/d66/vdxfengine_8cpp.html" target="_top" xlink:title=" ">
<polygon fill="white" stroke="black" points="0,-62 0,-81 154,-81 154,-62 0,-62"/>
<text text-anchor="middle" x="77" y="-69" font-family="Helvetica,sans-Serif" font-size="10.00">src/libs/vdxf/vdxfengine.cpp</text>
</a>
</g>
</g>
<!-- Node2&#45;&gt;Node3 -->
<g id="edge2" class="edge">
<title>Node2&#45;&gt;Node3</title>
<path fill="none" stroke="midnightblue" d="M706.55,-132.67C582.17,-125.65 355.49,-110.81 163,-87 150.08,-85.4 136.13,-83.24 123.31,-81.08"/>
<polygon fill="midnightblue" stroke="midnightblue" points="706.62,-136.18 716.8,-133.24 707.01,-129.19 706.62,-136.18"/>
</g>
<!-- Node4 -->
<g id="node4" class="node">
<title>Node4</title>
<g id="a_node4"><a xlink:href="../../de/da8/vbank_8cpp.html" target="_top" xlink:title=" ">
<polygon fill="white" stroke="black" points="172,-62 172,-81 316,-81 316,-62 172,-62"/>
<text text-anchor="middle" x="244" y="-69" font-family="Helvetica,sans-Serif" font-size="10.00">src/libs/vlayout/vbank.cpp</text>
</a>
</g>
</g>
<!-- Node2&#45;&gt;Node4 -->
<g id="edge3" class="edge">
<title>Node2&#45;&gt;Node4</title>
<path fill="none" stroke="midnightblue" d="M707.01,-129.59C611.07,-120.96 457.22,-105.84 325,-87 313.12,-85.31 300.31,-83.16 288.47,-81.05"/>
<polygon fill="midnightblue" stroke="midnightblue" points="706.7,-133.07 716.97,-130.48 707.33,-126.1 706.7,-133.07"/>
</g>
<!-- Node5 -->
<g id="node5" class="node">
<title>Node5</title>
<g id="a_node5"><a xlink:href="../../d3/d39/vlayoutgenerator_8cpp.html" target="_top" xlink:title=" ">
<polygon fill="white" stroke="black" points="334.5,-62 334.5,-81 531.5,-81 531.5,-62 334.5,-62"/>
<text text-anchor="middle" x="433" y="-69" font-family="Helvetica,sans-Serif" font-size="10.00">src/libs/vlayout/vlayoutgenerator.cpp</text>
</a>
</g>
</g>
<!-- Node2&#45;&gt;Node5 -->
<g id="edge4" class="edge">
<title>Node2&#45;&gt;Node5</title>
<path fill="none" stroke="midnightblue" d="M741.37,-127.12C669.24,-114.34 548.14,-92.89 481.17,-81.03"/>
<polygon fill="midnightblue" stroke="midnightblue" points="741.19,-130.64 751.64,-128.94 742.41,-123.75 741.19,-130.64"/>
</g>
<!-- Node6 -->
<g id="node6" class="node">
<title>Node6</title>
<g id="a_node6"><a xlink:href="../../df/d5d/vcontour_8cpp.html" target="_top" xlink:title=" ">
<polygon fill="white" stroke="black" points="550,-62 550,-81 706,-81 706,-62 550,-62"/>
<text text-anchor="middle" x="628" y="-69" font-family="Helvetica,sans-Serif" font-size="10.00">src/libs/vlayout/vcontour.cpp</text>
</a>
</g>
</g>
<!-- Node2&#45;&gt;Node6 -->
<g id="edge5" class="edge">
<title>Node2&#45;&gt;Node6</title>
<path fill="none" stroke="midnightblue" d="M767.64,-125.27C733.5,-112.37 680.59,-92.38 650.66,-81.06"/>
<polygon fill="midnightblue" stroke="midnightblue" points="766.57,-128.61 777.16,-128.87 769.04,-122.06 766.57,-128.61"/>
</g>
<!-- Node7 -->
<g id="node7" class="node">
<title>Node7</title>
<g id="a_node7"><a xlink:href="../../d2/d2d/vlayoutpaper__p_8h.html" target="_top" xlink:title=" ">
<polygon fill="white" stroke="black" points="724.5,-62 724.5,-81 903.5,-81 903.5,-62 724.5,-62"/>
<text text-anchor="middle" x="814" y="-69" font-family="Helvetica,sans-Serif" font-size="10.00">src/libs/vlayout/vlayoutpaper_p.h</text>
</a>
</g>
</g>
<!-- Node2&#45;&gt;Node7 -->
<g id="edge6" class="edge">
<title>Node2&#45;&gt;Node7</title>
<path fill="none" stroke="midnightblue" d="M804,-118.91C806.68,-106.49 810.08,-90.72 812.14,-81.13"/>
<polygon fill="midnightblue" stroke="midnightblue" points="800.57,-118.22 801.89,-128.73 807.42,-119.69 800.57,-118.22"/>
</g>
<!-- Node8 -->
<g id="node8" class="node">
<title>Node8</title>
<g id="a_node8"><a xlink:href="../../d1/dd1/vlayoutpaper_8cpp.html" target="_top" xlink:title=" ">
<polygon fill="white" stroke="black" points="801,-0.5 801,-19.5 979,-19.5 979,-0.5 801,-0.5"/>
<text text-anchor="middle" x="890" y="-7.5" font-family="Helvetica,sans-Serif" font-size="10.00">src/libs/vlayout/vlayoutpaper.cpp</text>
</a>
</g>
</g>
<!-- Node2&#45;&gt;Node8 -->
<g id="edge8" class="edge">
<title>Node2&#45;&gt;Node8</title>
<path fill="none" stroke="midnightblue" d="M856.25,-125.86C877.45,-118.45 899.45,-106.42 912,-87 926.01,-65.31 907.58,-34.49 896.8,-19.65"/>
<polygon fill="midnightblue" stroke="midnightblue" points="855.06,-122.57 846.6,-128.96 857.19,-129.24 855.06,-122.57"/>
</g>
<!-- Node9 -->
<g id="node9" class="node">
<title>Node9</title>
<g id="a_node9"><a xlink:href="../../db/d5c/vposition_8h.html" target="_top" xlink:title=" ">
<polygon fill="white" stroke="black" points="960,-62 960,-81 1108,-81 1108,-62 960,-62"/>
<text text-anchor="middle" x="1034" y="-69" font-family="Helvetica,sans-Serif" font-size="10.00">src/libs/vlayout/vposition.h</text>
</a>
</g>
</g>
<!-- Node2&#45;&gt;Node9 -->
<g id="edge9" class="edge">
<title>Node2&#45;&gt;Node9</title>
<path fill="none" stroke="midnightblue" d="M840.78,-126.17C887.05,-113.32 961.49,-92.64 1003.17,-81.06"/>
<polygon fill="midnightblue" stroke="midnightblue" points="839.77,-122.82 831.07,-128.87 841.65,-129.56 839.77,-122.82"/>
</g>
<!-- Node2&#45;&gt;Node11 -->
<g id="edge12" class="edge">
<title>Node2&#45;&gt;Node11</title>
<path fill="none" stroke="midnightblue" d="M864.8,-127.35C946.18,-114.6 1084.34,-92.96 1160.53,-81.03"/>
<polygon fill="midnightblue" stroke="midnightblue" points="864.02,-123.93 854.68,-128.94 865.1,-130.85 864.02,-123.93"/>
</g>
<!-- Node7&#45;&gt;Node8 -->
<g id="edge7" class="edge">
<title>Node7&#45;&gt;Node8</title>
<path fill="none" stroke="midnightblue" d="M832.78,-55.79C847.36,-44.38 867.06,-28.96 879.13,-19.51"/>
<polygon fill="midnightblue" stroke="midnightblue" points="830.61,-53.05 824.89,-61.98 834.92,-58.57 830.61,-53.05"/>
</g>
<!-- Node9&#45;&gt;Node8 -->
<g id="edge10" class="edge">
<title>Node9&#45;&gt;Node8</title>
<path fill="none" stroke="midnightblue" d="M1004.07,-58.13C976.09,-46.57 935.06,-29.62 910.59,-19.51"/>
<polygon fill="midnightblue" stroke="midnightblue" points="1002.79,-61.39 1013.37,-61.98 1005.46,-54.92 1002.79,-61.39"/>
</g>
<!-- Node10 -->
<g id="node10" class="node">
<title>Node10</title>
<g id="a_node10"><a xlink:href="../../df/d76/vposition_8cpp.html" target="_top" xlink:title=" ">
<polygon fill="white" stroke="black" points="996.5,-0.5 996.5,-19.5 1155.5,-19.5 1155.5,-0.5 996.5,-0.5"/>
<text text-anchor="middle" x="1076" y="-7.5" font-family="Helvetica,sans-Serif" font-size="10.00">src/libs/vlayout/vposition.cpp</text>
</a>
</g>
</g>
<!-- Node9&#45;&gt;Node10 -->
<g id="edge11" class="edge">
<title>Node9&#45;&gt;Node10</title>
<path fill="none" stroke="midnightblue" d="M1046,-53.51C1053.84,-42.39 1063.76,-28.34 1069.99,-19.51"/>
<polygon fill="midnightblue" stroke="midnightblue" points="1042.93,-51.79 1040.02,-61.98 1048.64,-55.82 1042.93,-51.79"/>
</g>
<!-- Node13&#45;&gt;Node11 -->
<g id="edge15" class="edge">
<title>Node13&#45;&gt;Node11</title>
<path fill="none" stroke="midnightblue" d="M1224.28,-118.91C1221.8,-106.49 1218.64,-90.72 1216.73,-81.13"/>
<polygon fill="midnightblue" stroke="midnightblue" points="1220.85,-119.61 1226.25,-128.73 1227.72,-118.24 1220.85,-119.61"/>
</g>
<!-- Node16 -->
<g id="node16" class="node">
<title>Node16</title>
<g id="a_node16"><a xlink:href="../../df/d7a/vpiece_8cpp.html" target="_top" xlink:title=" ">
<polygon fill="white" stroke="black" points="1541.5,-56.5 1541.5,-86.5 1648.5,-86.5 1648.5,-56.5 1541.5,-56.5"/>
<text text-anchor="start" x="1549.5" y="-74.5" font-family="Helvetica,sans-Serif" font-size="10.00">src/libs/vpatterndb</text>
<text text-anchor="middle" x="1595" y="-63.5" font-family="Helvetica,sans-Serif" font-size="10.00">/vpiece.cpp</text>
</a>
</g>
</g>
<!-- Node15&#45;&gt;Node16 -->
<g id="edge19" class="edge">
<title>Node15&#45;&gt;Node16</title>
<path fill="none" stroke="midnightblue" d="M1595,-113.11C1595,-104.15 1595,-94.32 1595,-86.58"/>
<polygon fill="midnightblue" stroke="midnightblue" points="1591.5,-113.4 1595,-123.4 1598.5,-113.4 1591.5,-113.4"/>
</g>
</g>
</svg>
