<?xml version="1.0" encoding="UTF-8" standalone="no"?>
<!DOCTYPE svg PUBLIC "-//W3C//DTD SVG 1.1//EN"
 "http://www.w3.org/Graphics/SVG/1.1/DTD/svg11.dtd">
<!-- Generated by graphviz version 2.43.0 (0)
 -->
<!-- Title: src/app/seamly2d/core/vtooloptionspropertybrowser.cpp Pages: 1 -->
<svg width="3233pt" height="352pt"
 viewBox="0.00 0.00 3232.85 352.00" xmlns="http://www.w3.org/2000/svg" xmlns:xlink="http://www.w3.org/1999/xlink">
<g id="graph0" class="graph" transform="scale(1 1) rotate(0) translate(4 348)">
<title>src/app/seamly2d/core/vtooloptionspropertybrowser.cpp</title>
<polygon fill="white" stroke="transparent" points="-4,4 -4,-348 3228.85,-348 3228.85,4 -4,4"/>
<!-- Node1 -->
<g id="node1" class="node">
<title>Node1</title>
<g id="a_node1"><a xlink:title=" ">
<polygon fill="#bfbfbf" stroke="black" points="1521.35,-313.5 1521.35,-343.5 1701.35,-343.5 1701.35,-313.5 1521.35,-313.5"/>
<text text-anchor="start" x="1529.35" y="-331.5" font-family="Helvetica,sans-Serif" font-size="10.00">src/app/seamly2d/core</text>
<text text-anchor="middle" x="1611.35" y="-320.5" font-family="Helvetica,sans-Serif" font-size="10.00">/vtooloptionspropertybrowser.cpp</text>
</a>
</g>
</g>
<!-- Node2 -->
<g id="node2" class="node">
<title>Node2</title>
<g id="a_node2"><a xlink:href="../../db/dfd/vtooloptionspropertybrowser_8h.html" target="_top" xlink:title=" ">
<polygon fill="white" stroke="black" points="347.35,-252 347.35,-271 513.35,-271 513.35,-252 347.35,-252"/>
<text text-anchor="middle" x="430.35" y="-259" font-family="Helvetica,sans-Serif" font-size="10.00">vtooloptionspropertybrowser.h</text>
</a>
</g>
</g>
<!-- Node1&#45;&gt;Node2 -->
<g id="edge1" class="edge">
<title>Node1&#45;&gt;Node2</title>
<path fill="none" stroke="midnightblue" d="M1521.26,-325.49C1337.85,-320.91 908.02,-307.6 548.35,-277 533.56,-275.74 517.77,-274.05 502.71,-272.26"/>
<polygon fill="midnightblue" stroke="midnightblue" points="502.77,-268.74 492.42,-271.01 501.93,-275.69 502.77,-268.74"/>
</g>
<!-- Node10 -->
<g id="node10" class="node">
<title>Node10</title>
<g id="a_node10"><a xlink:href="../../dd/de8/vformulaproperty_8h.html" target="_top" xlink:title=" ">
<polygon fill="white" stroke="black" points="557.35,-252 557.35,-271 667.35,-271 667.35,-252 557.35,-252"/>
<text text-anchor="middle" x="612.35" y="-259" font-family="Helvetica,sans-Serif" font-size="10.00">vformulaproperty.h</text>
</a>
</g>
</g>
<!-- Node1&#45;&gt;Node10 -->
<g id="edge9" class="edge">
<title>Node1&#45;&gt;Node10</title>
<path fill="none" stroke="midnightblue" d="M1521.09,-325.26C1358.31,-320.6 1004.91,-307.62 708.35,-277 696.94,-275.82 684.81,-274.25 673.15,-272.57"/>
<polygon fill="midnightblue" stroke="midnightblue" points="673.46,-269.07 663.06,-271.07 672.44,-276 673.46,-269.07"/>
</g>
<!-- Node11 -->
<g id="node11" class="node">
<title>Node11</title>
<g id="a_node11"><a xlink:href="../../d9/d02/vapplication_8h.html" target="_top" xlink:title=" ">
<polygon fill="white" stroke="black" points="774.85,-252 774.85,-271 893.85,-271 893.85,-252 774.85,-252"/>
<text text-anchor="middle" x="834.35" y="-259" font-family="Helvetica,sans-Serif" font-size="10.00">../core/vapplication.h</text>
</a>
</g>
</g>
<!-- Node1&#45;&gt;Node11 -->
<g id="edge11" class="edge">
<title>Node1&#45;&gt;Node11</title>
<path fill="none" stroke="midnightblue" d="M1521.11,-324.53C1386.97,-319.33 1127.28,-306.2 908.35,-277 900.23,-275.92 891.66,-274.5 883.35,-272.97"/>
<polygon fill="midnightblue" stroke="midnightblue" points="883.86,-269.5 873.38,-271.07 882.55,-276.38 883.86,-269.5"/>
</g>
<!-- Node12 -->
<g id="node12" class="node">
<title>Node12</title>
<g id="a_node12"><a xlink:title=" ">
<polygon fill="white" stroke="#bfbfbf" points="626.85,-185 626.85,-204 793.85,-204 793.85,-185 626.85,-185"/>
<text text-anchor="middle" x="710.35" y="-192" font-family="Helvetica,sans-Serif" font-size="10.00">../vmisc/vabstractapplication.h</text>
</a>
</g>
</g>
<!-- Node1&#45;&gt;Node12 -->
<g id="edge55" class="edge">
<title>Node1&#45;&gt;Node12</title>
<path fill="none" stroke="midnightblue" d="M1521.02,-326.6C1316.29,-323.91 829.7,-313.7 765.35,-277 740.83,-263.01 725.04,-233.09 716.93,-213.65"/>
<polygon fill="midnightblue" stroke="midnightblue" points="720.1,-212.15 713.21,-204.1 713.58,-214.69 720.1,-212.15"/>
</g>
<!-- Node14 -->
<g id="node14" class="node">
<title>Node14</title>
<g id="a_node14"><a xlink:title=" ">
<polygon fill="white" stroke="#bfbfbf" points="198.85,-56.5 198.85,-75.5 275.85,-75.5 275.85,-56.5 198.85,-56.5"/>
<text text-anchor="middle" x="237.35" y="-63.5" font-family="Helvetica,sans-Serif" font-size="10.00">../ifc/ifcdef.h</text>
</a>
</g>
</g>
<!-- Node1&#45;&gt;Node14 -->
<g id="edge51" class="edge">
<title>Node1&#45;&gt;Node14</title>
<path fill="none" stroke="midnightblue" d="M1521.21,-327.65C1217.3,-327.71 241.89,-324.21 109.35,-277 30.66,-248.97 -33.41,-176.76 19.35,-112 40.31,-86.28 131.21,-74.82 188.81,-70.06"/>
<polygon fill="midnightblue" stroke="midnightblue" points="189.11,-73.55 198.81,-69.27 188.56,-66.57 189.11,-73.55"/>
</g>
<!-- Node16 -->
<g id="node16" class="node">
<title>Node16</title>
<g id="a_node16"><a xlink:title=" ">
<polygon fill="white" stroke="#bfbfbf" points="407.35,-56.5 407.35,-75.5 489.35,-75.5 489.35,-56.5 407.35,-56.5"/>
<text text-anchor="middle" x="448.35" y="-63.5" font-family="Helvetica,sans-Serif" font-size="10.00">../vmisc/def.h</text>
</a>
</g>
</g>
<!-- Node1&#45;&gt;Node16 -->
<g id="edge54" class="edge">
<title>Node1&#45;&gt;Node16</title>
<path fill="none" stroke="midnightblue" d="M1521.09,-328.16C1201.22,-329.5 135.85,-325.25 42.35,-210 14.91,-176.17 12.29,-144.45 41.35,-112 53.09,-98.9 289.93,-79.16 396.81,-70.88"/>
<polygon fill="midnightblue" stroke="midnightblue" points="397.34,-74.35 407.04,-70.09 396.8,-67.37 397.34,-74.35"/>
</g>
<!-- Node17 -->
<g id="node17" class="node">
<title>Node17</title>
<g id="a_node17"><a xlink:title=" ">
<polygon fill="white" stroke="#bfbfbf" points="1661.35,-185 1661.35,-204 1837.35,-204 1837.35,-185 1661.35,-185"/>
<text text-anchor="middle" x="1749.35" y="-192" font-family="Helvetica,sans-Serif" font-size="10.00">../vwidgets/vmaingraphicsview.h</text>
</a>
</g>
</g>
<!-- Node1&#45;&gt;Node17 -->
<g id="edge60" class="edge">
<title>Node1&#45;&gt;Node17</title>
<path fill="none" stroke="midnightblue" d="M1521.28,-327.36C1347.58,-326.15 979.97,-318.64 941.35,-277 931.98,-266.9 931.86,-255.99 941.35,-246 968.6,-217.34 1613,-213.93 1652.35,-210 1664.2,-208.82 1676.81,-207.2 1688.89,-205.47"/>
<polygon fill="midnightblue" stroke="midnightblue" points="1689.49,-208.92 1698.87,-204 1688.47,-201.99 1689.49,-208.92"/>
</g>
<!-- Node54 -->
<g id="node36" class="node">
<title>Node54</title>
<g id="a_node36"><a xlink:title=" ">
<polygon fill="white" stroke="#bfbfbf" points="950.35,-252 950.35,-271 1102.35,-271 1102.35,-252 950.35,-252"/>
<text text-anchor="middle" x="1026.35" y="-259" font-family="Helvetica,sans-Serif" font-size="10.00">../vgeometry/vcubicbezier.h</text>
</a>
</g>
</g>
<!-- Node1&#45;&gt;Node54 -->
<g id="edge52" class="edge">
<title>Node1&#45;&gt;Node54</title>
<path fill="none" stroke="midnightblue" d="M1521.26,-320.27C1420.98,-311.78 1254.22,-296.38 1111.35,-277 1102.2,-275.76 1092.53,-274.27 1083.11,-272.73"/>
<polygon fill="midnightblue" stroke="midnightblue" points="1083.47,-269.25 1073.03,-271.05 1082.32,-276.15 1083.47,-269.25"/>
</g>
<!-- Node55 -->
<g id="node37" class="node">
<title>Node55</title>
<g id="a_node37"><a xlink:title=" ">
<polygon fill="white" stroke="#bfbfbf" points="1120.35,-252 1120.35,-271 1294.35,-271 1294.35,-252 1120.35,-252"/>
<text text-anchor="middle" x="1207.35" y="-259" font-family="Helvetica,sans-Serif" font-size="10.00">../vgeometry/vcubicbezierpath.h</text>
</a>
</g>
</g>
<!-- Node1&#45;&gt;Node55 -->
<g id="edge53" class="edge">
<title>Node1&#45;&gt;Node55</title>
<path fill="none" stroke="midnightblue" d="M1524.19,-313.48C1447.85,-301.19 1338.74,-283.64 1270.53,-272.67"/>
<polygon fill="midnightblue" stroke="midnightblue" points="1270.79,-269.16 1260.36,-271.03 1269.68,-276.07 1270.79,-269.16"/>
</g>
<!-- Node56 -->
<g id="node38" class="node">
<title>Node56</title>
<g id="a_node38"><a xlink:title=" ">
<polygon fill="white" stroke="#bfbfbf" points="1312.35,-252 1312.35,-271 1454.35,-271 1454.35,-252 1312.35,-252"/>
<text text-anchor="middle" x="1383.35" y="-259" font-family="Helvetica,sans-Serif" font-size="10.00">../vpatterndb/vcontainer.h</text>
</a>
</g>
</g>
<!-- Node1&#45;&gt;Node56 -->
<g id="edge56" class="edge">
<title>Node1&#45;&gt;Node56</title>
<path fill="none" stroke="midnightblue" d="M1562.16,-313.48C1520.58,-301.62 1461.78,-284.86 1423.12,-273.84"/>
<polygon fill="midnightblue" stroke="midnightblue" points="1423.85,-270.4 1413.27,-271.03 1421.93,-277.14 1423.85,-270.4"/>
</g>
<!-- Node57 -->
<g id="node39" class="node">
<title>Node57</title>
<g id="a_node39"><a xlink:title=" ">
<polygon fill="white" stroke="#bfbfbf" points="1472.85,-252 1472.85,-271 1607.85,-271 1607.85,-252 1472.85,-252"/>
<text text-anchor="middle" x="1540.35" y="-259" font-family="Helvetica,sans-Serif" font-size="10.00">../vpatterndb/vformula.h</text>
</a>
</g>
</g>
<!-- Node1&#45;&gt;Node57 -->
<g id="edge57" class="edge">
<title>Node1&#45;&gt;Node57</title>
<path fill="none" stroke="midnightblue" d="M1595.95,-313.4C1584.55,-302.96 1569.03,-288.75 1557.28,-278"/>
<polygon fill="midnightblue" stroke="midnightblue" points="1559.59,-275.37 1549.85,-271.19 1554.86,-280.53 1559.59,-275.37"/>
</g>
<!-- Node58 -->
<g id="node40" class="node">
<title>Node58</title>
<g id="a_node40"><a xlink:title=" ">
<polygon fill="white" stroke="#bfbfbf" points="1625.85,-246.5 1625.85,-276.5 1738.85,-276.5 1738.85,-246.5 1625.85,-246.5"/>
<text text-anchor="start" x="1633.85" y="-264.5" font-family="Helvetica,sans-Serif" font-size="10.00">../vpropertyexplorer</text>
<text text-anchor="middle" x="1682.35" y="-253.5" font-family="Helvetica,sans-Serif" font-size="10.00">/vproperties.h</text>
</a>
</g>
</g>
<!-- Node1&#45;&gt;Node58 -->
<g id="edge58" class="edge">
<title>Node1&#45;&gt;Node58</title>
<path fill="none" stroke="midnightblue" d="M1626.76,-313.4C1636.34,-304.62 1648.84,-293.18 1659.55,-283.37"/>
<polygon fill="midnightblue" stroke="midnightblue" points="1661.96,-285.91 1666.98,-276.58 1657.24,-280.75 1661.96,-285.91"/>
</g>
<!-- Node59 -->
<g id="node41" class="node">
<title>Node59</title>
<g id="a_node41"><a xlink:title=" ">
<polygon fill="white" stroke="#bfbfbf" points="1757.35,-246.5 1757.35,-276.5 1891.35,-276.5 1891.35,-246.5 1757.35,-246.5"/>
<text text-anchor="start" x="1765.35" y="-264.5" font-family="Helvetica,sans-Serif" font-size="10.00">../vtools/tools/drawTools</text>
<text text-anchor="middle" x="1824.35" y="-253.5" font-family="Helvetica,sans-Serif" font-size="10.00">/drawtools.h</text>
</a>
</g>
</g>
<!-- Node1&#45;&gt;Node59 -->
<g id="edge59" class="edge">
<title>Node1&#45;&gt;Node59</title>
<path fill="none" stroke="midnightblue" d="M1657.31,-313.48C1689.81,-303.56 1733.58,-290.2 1768.16,-279.65"/>
<polygon fill="midnightblue" stroke="midnightblue" points="1769.57,-282.88 1778.11,-276.61 1767.53,-276.18 1769.57,-282.88"/>
</g>
<!-- Node60 -->
<g id="node42" class="node">
<title>Node60</title>
<g id="a_node42"><a xlink:title=" ">
<polygon fill="white" stroke="#bfbfbf" points="1909.35,-252 1909.35,-271 2113.35,-271 2113.35,-252 1909.35,-252"/>
<text text-anchor="middle" x="2011.35" y="-259" font-family="Helvetica,sans-Serif" font-size="10.00">../vwidgets/vgraphicssimpletextitem.h</text>
</a>
</g>
</g>
<!-- Node1&#45;&gt;Node60 -->
<g id="edge61" class="edge">
<title>Node1&#45;&gt;Node60</title>
<path fill="none" stroke="midnightblue" d="M1697.65,-313.48C1773.24,-301.19 1881.27,-283.64 1948.8,-272.67"/>
<polygon fill="midnightblue" stroke="midnightblue" points="1949.56,-276.09 1958.87,-271.03 1948.44,-269.18 1949.56,-276.09"/>
</g>
<!-- Node61 -->
<g id="node43" class="node">
<title>Node61</title>
<g id="a_node43"><a xlink:title=" ">
<polygon fill="white" stroke="#bfbfbf" points="2131.35,-252 2131.35,-271 2307.35,-271 2307.35,-252 2131.35,-252"/>
<text text-anchor="middle" x="2219.35" y="-259" font-family="Helvetica,sans-Serif" font-size="10.00">../vwidgets/vcontrolpointspline.h</text>
</a>
</g>
</g>
<!-- Node1&#45;&gt;Node61 -->
<g id="edge62" class="edge">
<title>Node1&#45;&gt;Node61</title>
<path fill="none" stroke="midnightblue" d="M1701.5,-319.96C1803.72,-311.09 1975.27,-295.25 2122.35,-277 2133.09,-275.67 2144.47,-274.1 2155.52,-272.5"/>
<polygon fill="midnightblue" stroke="midnightblue" points="2156.16,-275.95 2165.55,-271.03 2155.14,-269.02 2156.16,-275.95"/>
</g>
<!-- Node62 -->
<g id="node44" class="node">
<title>Node62</title>
<g id="a_node44"><a xlink:title=" ">
<polygon fill="white" stroke="#bfbfbf" points="2325.35,-252 2325.35,-271 2471.35,-271 2471.35,-252 2325.35,-252"/>
<text text-anchor="middle" x="2398.35" y="-259" font-family="Helvetica,sans-Serif" font-size="10.00">../vwidgets/vsimplepoint.h</text>
</a>
</g>
</g>
<!-- Node1&#45;&gt;Node62 -->
<g id="edge63" class="edge">
<title>Node1&#45;&gt;Node62</title>
<path fill="none" stroke="midnightblue" d="M1701.51,-324.03C1835.86,-318.19 2096.39,-304.25 2316.35,-277 2325.62,-275.85 2335.44,-274.36 2344.94,-272.77"/>
<polygon fill="midnightblue" stroke="midnightblue" points="2345.81,-276.17 2355.07,-271.02 2344.62,-269.27 2345.81,-276.17"/>
</g>
<!-- Node63 -->
<g id="node45" class="node">
<title>Node63</title>
<g id="a_node45"><a xlink:title=" ">
<polygon fill="white" stroke="#bfbfbf" points="2489.35,-252 2489.35,-271 2637.35,-271 2637.35,-252 2489.35,-252"/>
<text text-anchor="middle" x="2563.35" y="-259" font-family="Helvetica,sans-Serif" font-size="10.00">../vwidgets/vsimplecurve.h</text>
</a>
</g>
</g>
<!-- Node1&#45;&gt;Node63 -->
<g id="edge64" class="edge">
<title>Node1&#45;&gt;Node63</title>
<path fill="none" stroke="midnightblue" d="M1701.41,-325.67C1859.53,-321.71 2197.2,-309.85 2480.35,-277 2489.95,-275.89 2500.12,-274.38 2509.93,-272.76"/>
<polygon fill="midnightblue" stroke="midnightblue" points="2510.72,-276.18 2519.98,-271.05 2509.54,-269.28 2510.72,-276.18"/>
</g>
<!-- Node64 -->
<g id="node46" class="node">
<title>Node64</title>
<g id="a_node46"><a xlink:title=" ">
<polygon fill="white" stroke="#bfbfbf" points="2655.85,-252 2655.85,-271 2814.85,-271 2814.85,-252 2655.85,-252"/>
<text text-anchor="middle" x="2735.35" y="-259" font-family="Helvetica,sans-Serif" font-size="10.00">../vwidgets/vcurvepathitem.h</text>
</a>
</g>
</g>
<!-- Node1&#45;&gt;Node64 -->
<g id="edge65" class="edge">
<title>Node1&#45;&gt;Node64</title>
<path fill="none" stroke="midnightblue" d="M1701.6,-326.51C1881.71,-323.79 2298.38,-313.72 2646.35,-277 2657.08,-275.87 2668.48,-274.29 2679.42,-272.6"/>
<polygon fill="midnightblue" stroke="midnightblue" points="2679.97,-276.06 2689.29,-271.02 2678.87,-269.14 2679.97,-276.06"/>
</g>
<!-- Node65 -->
<g id="node47" class="node">
<title>Node65</title>
<g id="a_node47"><a xlink:title=" ">
<polygon fill="white" stroke="#bfbfbf" points="2832.85,-252 2832.85,-271 2915.85,-271 2915.85,-252 2832.85,-252"/>
<text text-anchor="middle" x="2874.35" y="-259" font-family="Helvetica,sans-Serif" font-size="10.00">QDockWidget</text>
</a>
</g>
</g>
<!-- Node1&#45;&gt;Node65 -->
<g id="edge66" class="edge">
<title>Node1&#45;&gt;Node65</title>
<path fill="none" stroke="midnightblue" d="M1701.79,-326.55C1944.86,-323.55 2608.41,-312.28 2824.35,-277 2829.28,-276.2 2834.41,-275.06 2839.42,-273.78"/>
<polygon fill="midnightblue" stroke="midnightblue" points="2840.74,-277.05 2849.44,-271 2838.87,-270.3 2840.74,-277.05"/>
</g>
<!-- Node66 -->
<g id="node48" class="node">
<title>Node66</title>
<g id="a_node48"><a xlink:title=" ">
<polygon fill="white" stroke="#bfbfbf" points="2933.85,-252 2933.85,-271 3016.85,-271 3016.85,-252 2933.85,-252"/>
<text text-anchor="middle" x="2975.35" y="-259" font-family="Helvetica,sans-Serif" font-size="10.00">QHBoxLayout</text>
</a>
</g>
</g>
<!-- Node1&#45;&gt;Node66 -->
<g id="edge67" class="edge">
<title>Node1&#45;&gt;Node66</title>
<path fill="none" stroke="midnightblue" d="M1701.38,-326.89C1957.85,-324.71 2689,-315.22 2925.35,-277 2930.28,-276.2 2935.41,-275.08 2940.42,-273.8"/>
<polygon fill="midnightblue" stroke="midnightblue" points="2941.74,-277.06 2950.45,-271.02 2939.87,-270.32 2941.74,-277.06"/>
</g>
<!-- Node67 -->
<g id="node49" class="node">
<title>Node67</title>
<g id="a_node49"><a xlink:title=" ">
<polygon fill="white" stroke="#bfbfbf" points="3035.35,-252 3035.35,-271 3091.35,-271 3091.35,-252 3035.35,-252"/>
<text text-anchor="middle" x="3063.35" y="-259" font-family="Helvetica,sans-Serif" font-size="10.00">QDebug</text>
</a>
</g>
</g>
<!-- Node1&#45;&gt;Node67 -->
<g id="edge68" class="edge">
<title>Node1&#45;&gt;Node67</title>
<path fill="none" stroke="midnightblue" d="M1701.44,-326.05C1992.67,-321.11 2897.4,-303.76 3026.35,-277 3029.36,-276.38 3032.45,-275.53 3035.49,-274.56"/>
<polygon fill="midnightblue" stroke="midnightblue" points="3036.7,-277.84 3044.91,-271.14 3034.31,-271.26 3036.7,-277.84"/>
</g>
<!-- Node68 -->
<g id="node50" class="node">
<title>Node68</title>
<g id="a_node50"><a xlink:title=" ">
<polygon fill="white" stroke="#bfbfbf" points="3109.85,-252 3109.85,-271 3224.85,-271 3224.85,-252 3109.85,-252"/>
<text text-anchor="middle" x="3167.35" y="-259" font-family="Helvetica,sans-Serif" font-size="10.00">QRegularExpression</text>
</a>
</g>
</g>
<!-- Node1&#45;&gt;Node68 -->
<g id="edge69" class="edge">
<title>Node1&#45;&gt;Node68</title>
<path fill="none" stroke="midnightblue" d="M1701.6,-326.56C1980.71,-323.32 2827.46,-310.88 3100.35,-277 3107.91,-276.06 3115.87,-274.69 3123.57,-273.15"/>
<polygon fill="midnightblue" stroke="midnightblue" points="3124.41,-276.55 3133.47,-271.07 3122.96,-269.7 3124.41,-276.55"/>
</g>
<!-- Node3 -->
<g id="node3" class="node">
<title>Node3</title>
<g id="a_node3"><a xlink:title=" ">
<polygon fill="white" stroke="#bfbfbf" points="323.35,-185 323.35,-204 375.35,-204 375.35,-185 323.35,-185"/>
<text text-anchor="middle" x="349.35" y="-192" font-family="Helvetica,sans-Serif" font-size="10.00">QEvent</text>
</a>
</g>
</g>
<!-- Node2&#45;&gt;Node3 -->
<g id="edge2" class="edge">
<title>Node2&#45;&gt;Node3</title>
<path fill="none" stroke="midnightblue" d="M419.43,-251.73C406.31,-241.21 384.09,-223.38 368.19,-210.62"/>
<polygon fill="midnightblue" stroke="midnightblue" points="370.09,-207.66 360.1,-204.13 365.71,-213.12 370.09,-207.66"/>
</g>
<!-- Node4 -->
<g id="node4" class="node">
<title>Node4</title>
<g id="a_node4"><a xlink:title=" ">
<polygon fill="white" stroke="#bfbfbf" points="1304.35,-56.5 1304.35,-75.5 1360.35,-75.5 1360.35,-56.5 1304.35,-56.5"/>
<text text-anchor="middle" x="1332.35" y="-63.5" font-family="Helvetica,sans-Serif" font-size="10.00">QObject</text>
</a>
</g>
</g>
<!-- Node2&#45;&gt;Node4 -->
<g id="edge3" class="edge">
<title>Node2&#45;&gt;Node4</title>
<path fill="none" stroke="midnightblue" d="M495.53,-252C512.69,-249.89 531.21,-247.74 548.35,-246 860.32,-214.26 969.94,-291.08 1246.35,-143 1275.18,-127.56 1302.4,-100.67 1318.22,-83.37"/>
<polygon fill="midnightblue" stroke="midnightblue" points="1320.98,-85.53 1325.02,-75.73 1315.76,-80.87 1320.98,-85.53"/>
</g>
<!-- Node5 -->
<g id="node5" class="node">
<title>Node5</title>
<g id="a_node5"><a xlink:title=" ">
<polygon fill="white" stroke="#bfbfbf" points="393.85,-185 393.85,-204 438.85,-204 438.85,-185 393.85,-185"/>
<text text-anchor="middle" x="416.35" y="-192" font-family="Helvetica,sans-Serif" font-size="10.00">QMap</text>
</a>
</g>
</g>
<!-- Node2&#45;&gt;Node5 -->
<g id="edge4" class="edge">
<title>Node2&#45;&gt;Node5</title>
<path fill="none" stroke="midnightblue" d="M428.46,-251.73C426.39,-242.09 422.99,-226.3 420.32,-213.91"/>
<polygon fill="midnightblue" stroke="midnightblue" points="423.74,-213.17 418.21,-204.13 416.9,-214.64 423.74,-213.17"/>
</g>
<!-- Node6 -->
<g id="node6" class="node">
<title>Node6</title>
<g id="a_node6"><a xlink:title=" ">
<polygon fill="white" stroke="#bfbfbf" points="50.85,-118 50.85,-137 209.85,-137 209.85,-118 50.85,-118"/>
<text text-anchor="middle" x="130.35" y="-125" font-family="Helvetica,sans-Serif" font-size="10.00">../vgeometry/vgeometrydef.h</text>
</a>
</g>
</g>
<!-- Node2&#45;&gt;Node6 -->
<g id="edge5" class="edge">
<title>Node2&#45;&gt;Node6</title>
<path fill="none" stroke="midnightblue" d="M436.39,-251.72C446.8,-235.4 465.37,-200.11 447.35,-179 446.84,-178.4 287.38,-153.21 194.85,-138.64"/>
<polygon fill="midnightblue" stroke="midnightblue" points="195.16,-135.15 184.74,-137.05 194.07,-142.06 195.16,-135.15"/>
</g>
<!-- Node7 -->
<g id="node7" class="node">
<title>Node7</title>
<g id="a_node7"><a xlink:title=" ">
<polygon fill="white" stroke="#bfbfbf" points="495.85,-179.5 495.85,-209.5 608.85,-209.5 608.85,-179.5 495.85,-179.5"/>
<text text-anchor="start" x="503.85" y="-197.5" font-family="Helvetica,sans-Serif" font-size="10.00">../vpropertyexplorer</text>
<text text-anchor="middle" x="552.35" y="-186.5" font-family="Helvetica,sans-Serif" font-size="10.00">/vproperty.h</text>
</a>
</g>
</g>
<!-- Node2&#45;&gt;Node7 -->
<g id="edge6" class="edge">
<title>Node2&#45;&gt;Node7</title>
<path fill="none" stroke="midnightblue" d="M446.55,-251.87C464.41,-242.36 493.67,-226.77 516.9,-214.39"/>
<polygon fill="midnightblue" stroke="midnightblue" points="518.61,-217.44 525.79,-209.65 515.32,-211.26 518.61,-217.44"/>
</g>
<!-- Node8 -->
<g id="node8" class="node">
<title>Node8</title>
<g id="a_node8"><a xlink:title=" ">
<polygon fill="white" stroke="#bfbfbf" points="51.85,-179.5 51.85,-209.5 164.85,-209.5 164.85,-179.5 51.85,-179.5"/>
<text text-anchor="start" x="59.85" y="-197.5" font-family="Helvetica,sans-Serif" font-size="10.00">../vpropertyexplorer</text>
<text text-anchor="middle" x="108.35" y="-186.5" font-family="Helvetica,sans-Serif" font-size="10.00">/vpropertymodel.h</text>
</a>
</g>
</g>
<!-- Node2&#45;&gt;Node8 -->
<g id="edge7" class="edge">
<title>Node2&#45;&gt;Node8</title>
<path fill="none" stroke="midnightblue" d="M385.44,-251.94C336.37,-242.53 255.19,-226.75 175.13,-210.13"/>
<polygon fill="midnightblue" stroke="midnightblue" points="175.36,-206.61 164.86,-208 173.94,-213.46 175.36,-206.61"/>
</g>
<!-- Node9 -->
<g id="node9" class="node">
<title>Node9</title>
<g id="a_node9"><a xlink:title=" ">
<polygon fill="white" stroke="#bfbfbf" points="183.35,-179.5 183.35,-209.5 305.35,-209.5 305.35,-179.5 183.35,-179.5"/>
<text text-anchor="start" x="191.35" y="-197.5" font-family="Helvetica,sans-Serif" font-size="10.00">../vpropertyexplorer</text>
<text text-anchor="middle" x="244.35" y="-186.5" font-family="Helvetica,sans-Serif" font-size="10.00">/vpropertyformview.h</text>
</a>
</g>
</g>
<!-- Node2&#45;&gt;Node9 -->
<g id="edge8" class="edge">
<title>Node2&#45;&gt;Node9</title>
<path fill="none" stroke="midnightblue" d="M405.65,-251.87C377.38,-241.99 330.34,-225.55 294.33,-212.97"/>
<polygon fill="midnightblue" stroke="midnightblue" points="295.09,-209.52 284.49,-209.53 292.78,-216.13 295.09,-209.52"/>
</g>
<!-- Node10&#45;&gt;Node7 -->
<g id="edge10" class="edge">
<title>Node10&#45;&gt;Node7</title>
<path fill="none" stroke="midnightblue" d="M604.26,-251.73C596.07,-242.86 583.1,-228.81 572.17,-216.97"/>
<polygon fill="midnightblue" stroke="midnightblue" points="574.71,-214.56 565.36,-209.59 569.57,-219.31 574.71,-214.56"/>
</g>
<!-- Node11&#45;&gt;Node12 -->
<g id="edge12" class="edge">
<title>Node11&#45;&gt;Node12</title>
<path fill="none" stroke="midnightblue" d="M817.89,-251.87C796.95,-240.89 760.57,-221.82 735.99,-208.94"/>
<polygon fill="midnightblue" stroke="midnightblue" points="737.37,-205.71 726.89,-204.17 734.12,-211.91 737.37,-205.71"/>
</g>
<!-- Node13 -->
<g id="node13" class="node">
<title>Node13</title>
<g id="a_node13"><a xlink:href="../../d7/d5b/options_8h.html" target="_top" xlink:title=" ">
<polygon fill="white" stroke="black" points="811.85,-185 811.85,-204 882.85,-204 882.85,-185 811.85,-185"/>
<text text-anchor="middle" x="847.35" y="-192" font-family="Helvetica,sans-Serif" font-size="10.00">../options.h</text>
</a>
</g>
</g>
<!-- Node11&#45;&gt;Node13 -->
<g id="edge13" class="edge">
<title>Node11&#45;&gt;Node13</title>
<path fill="none" stroke="midnightblue" d="M836.11,-251.73C838.02,-242.18 841.13,-226.62 843.6,-214.28"/>
<polygon fill="midnightblue" stroke="midnightblue" points="847.1,-214.62 845.63,-204.13 840.23,-213.25 847.1,-214.62"/>
</g>
<!-- Node11&#45;&gt;Node17 -->
<g id="edge18" class="edge">
<title>Node11&#45;&gt;Node17</title>
<path fill="none" stroke="midnightblue" d="M872.21,-251.98C883.76,-249.68 896.53,-247.44 908.35,-246 1236.99,-206.07 1322.9,-242.51 1652.35,-210 1664.2,-208.83 1676.81,-207.22 1688.89,-205.49"/>
<polygon fill="midnightblue" stroke="midnightblue" points="1689.49,-208.94 1698.88,-204.02 1688.47,-202.02 1689.49,-208.94"/>
</g>
<!-- Node18 -->
<g id="node18" class="node">
<title>Node18</title>
<g id="a_node18"><a xlink:title=" ">
<polygon fill="white" stroke="#bfbfbf" points="1481.85,-185 1481.85,-204 1642.85,-204 1642.85,-185 1481.85,-185"/>
<text text-anchor="middle" x="1562.35" y="-192" font-family="Helvetica,sans-Serif" font-size="10.00">../vpatterndb/vtranslatevars.h</text>
</a>
</g>
</g>
<!-- Node11&#45;&gt;Node18 -->
<g id="edge19" class="edge">
<title>Node11&#45;&gt;Node18</title>
<path fill="none" stroke="midnightblue" d="M872.99,-251.95C884.33,-249.7 896.8,-247.49 908.35,-246 1157.9,-213.74 1223.33,-238.26 1473.35,-210 1483.73,-208.83 1494.74,-207.28 1505.34,-205.64"/>
<polygon fill="midnightblue" stroke="midnightblue" points="1506.04,-209.07 1515.36,-204.04 1504.93,-202.16 1506.04,-209.07"/>
</g>
<!-- Node19 -->
<g id="node19" class="node">
<title>Node19</title>
<g id="a_node19"><a xlink:href="../../dd/db2/vsettings_8h.html" target="_top" xlink:title=" ">
<polygon fill="white" stroke="black" points="1392.85,-185 1392.85,-204 1463.85,-204 1463.85,-185 1392.85,-185"/>
<text text-anchor="middle" x="1428.35" y="-192" font-family="Helvetica,sans-Serif" font-size="10.00">vsettings.h</text>
</a>
</g>
</g>
<!-- Node11&#45;&gt;Node19 -->
<g id="edge20" class="edge">
<title>Node11&#45;&gt;Node19</title>
<path fill="none" stroke="midnightblue" d="M873.77,-251.95C884.91,-249.76 897.07,-247.58 908.35,-246 1096.97,-219.65 1146.26,-232.68 1335.35,-210 1350.78,-208.15 1367.57,-205.67 1382.59,-203.29"/>
<polygon fill="midnightblue" stroke="midnightblue" points="1383.35,-206.72 1392.66,-201.67 1382.23,-199.8 1383.35,-206.72"/>
</g>
<!-- Node42 -->
<g id="node28" class="node">
<title>Node42</title>
<g id="a_node28"><a xlink:href="../../dd/d57/vcmdexport_8h.html" target="_top" xlink:title=" ">
<polygon fill="white" stroke="black" points="901.35,-185 901.35,-204 985.35,-204 985.35,-185 901.35,-185"/>
<text text-anchor="middle" x="943.35" y="-192" font-family="Helvetica,sans-Serif" font-size="10.00">vcmdexport.h</text>
</a>
</g>
</g>
<!-- Node11&#45;&gt;Node42 -->
<g id="edge39" class="edge">
<title>Node11&#45;&gt;Node42</title>
<path fill="none" stroke="midnightblue" d="M849.05,-251.73C867.28,-240.87 898.55,-222.22 920.06,-209.39"/>
<polygon fill="midnightblue" stroke="midnightblue" points="922.09,-212.26 928.89,-204.13 918.5,-206.24 922.09,-212.26"/>
</g>
<!-- Node13&#45;&gt;Node6 -->
<g id="edge15" class="edge">
<title>Node13&#45;&gt;Node6</title>
<path fill="none" stroke="midnightblue" d="M824.75,-185C817.67,-182.67 809.77,-180.4 802.35,-179 549.01,-131.09 479.67,-170.89 223.35,-143 212.41,-141.81 200.78,-140.24 189.59,-138.58"/>
<polygon fill="midnightblue" stroke="midnightblue" points="189.88,-135.08 179.47,-137.03 188.83,-142 189.88,-135.08"/>
</g>
<!-- Node13&#45;&gt;Node14 -->
<g id="edge14" class="edge">
<title>Node13&#45;&gt;Node14</title>
<path fill="none" stroke="midnightblue" d="M824.28,-184.88C817.32,-182.61 809.61,-180.4 802.35,-179 688.61,-157.08 380.94,-203.81 282.35,-143 261.5,-130.14 249.15,-103.74 242.81,-85.7"/>
<polygon fill="midnightblue" stroke="midnightblue" points="246.08,-84.43 239.69,-75.98 239.41,-86.57 246.08,-84.43"/>
</g>
<!-- Node15 -->
<g id="node15" class="node">
<title>Node15</title>
<g id="a_node15"><a xlink:title=" ">
<polygon fill="white" stroke="#bfbfbf" points="303.85,-118 303.85,-137 430.85,-137 430.85,-118 303.85,-118"/>
<text text-anchor="middle" x="367.35" y="-125" font-family="Helvetica,sans-Serif" font-size="10.00">../qmuparser/qmudef.h</text>
</a>
</g>
</g>
<!-- Node13&#45;&gt;Node15 -->
<g id="edge16" class="edge">
<title>Node13&#45;&gt;Node15</title>
<path fill="none" stroke="midnightblue" d="M823.79,-184.87C816.95,-182.65 809.42,-180.47 802.35,-179 644.07,-146.02 600.28,-166.78 440.35,-143 432.62,-141.85 424.47,-140.44 416.53,-138.94"/>
<polygon fill="midnightblue" stroke="midnightblue" points="417.11,-135.49 406.63,-137.03 415.79,-142.36 417.11,-135.49"/>
</g>
<!-- Node13&#45;&gt;Node16 -->
<g id="edge17" class="edge">
<title>Node13&#45;&gt;Node16</title>
<path fill="none" stroke="midnightblue" d="M824.28,-184.89C817.32,-182.61 809.61,-180.4 802.35,-179 746.8,-168.24 332.93,-184.4 294.35,-143 259.65,-105.75 339.75,-84.38 396.95,-74.28"/>
<polygon fill="midnightblue" stroke="midnightblue" points="397.7,-77.7 406.97,-72.58 396.53,-70.8 397.7,-77.7"/>
</g>
<!-- Node19&#45;&gt;Node4 -->
<g id="edge22" class="edge">
<title>Node19&#45;&gt;Node4</title>
<path fill="none" stroke="midnightblue" d="M1418.44,-184.8C1407.82,-175.19 1390.8,-158.96 1378.35,-143 1363.88,-124.44 1350.32,-101.01 1341.72,-85.1"/>
<polygon fill="midnightblue" stroke="midnightblue" points="1344.61,-83.07 1336.83,-75.87 1338.42,-86.34 1344.61,-83.07"/>
</g>
<!-- Node20 -->
<g id="node20" class="node">
<title>Node20</title>
<g id="a_node20"><a xlink:title=" ">
<polygon fill="white" stroke="#bfbfbf" points="1730.35,-56.5 1730.35,-75.5 1810.35,-75.5 1810.35,-56.5 1730.35,-56.5"/>
<text text-anchor="middle" x="1770.35" y="-63.5" font-family="Helvetica,sans-Serif" font-size="10.00">QMetaObject</text>
</a>
</g>
</g>
<!-- Node19&#45;&gt;Node20 -->
<g id="edge21" class="edge">
<title>Node19&#45;&gt;Node20</title>
<path fill="none" stroke="midnightblue" d="M1452.44,-184.97C1459.15,-182.8 1466.49,-180.63 1473.35,-179 1574.45,-154.99 1613.42,-193.28 1704.35,-143 1729.13,-129.3 1748.98,-102.5 1760.21,-84.67"/>
<polygon fill="midnightblue" stroke="midnightblue" points="1763.38,-86.2 1765.55,-75.83 1757.38,-82.59 1763.38,-86.2"/>
</g>
<!-- Node21 -->
<g id="node21" class="node">
<title>Node21</title>
<g id="a_node21"><a xlink:title=" ">
<polygon fill="white" stroke="#bfbfbf" points="1648.35,-56.5 1648.35,-75.5 1712.35,-75.5 1712.35,-56.5 1648.35,-56.5"/>
<text text-anchor="middle" x="1680.35" y="-63.5" font-family="Helvetica,sans-Serif" font-size="10.00">QSettings</text>
</a>
</g>
</g>
<!-- Node19&#45;&gt;Node21 -->
<g id="edge23" class="edge">
<title>Node19&#45;&gt;Node21</title>
<path fill="none" stroke="midnightblue" d="M1452.93,-184.87C1459.51,-182.76 1466.66,-180.64 1473.35,-179 1519.99,-167.61 1655.37,-179.66 1686.35,-143 1699.8,-127.09 1694.45,-102.03 1688.33,-85.08"/>
<polygon fill="midnightblue" stroke="midnightblue" points="1691.55,-83.7 1684.58,-75.72 1685.05,-86.3 1691.55,-83.7"/>
</g>
<!-- Node22 -->
<g id="node22" class="node">
<title>Node22</title>
<g id="a_node22"><a xlink:title=" ">
<polygon fill="white" stroke="#bfbfbf" points="1416.85,-56.5 1416.85,-75.5 1469.85,-75.5 1469.85,-56.5 1416.85,-56.5"/>
<text text-anchor="middle" x="1443.35" y="-63.5" font-family="Helvetica,sans-Serif" font-size="10.00">QString</text>
</a>
</g>
</g>
<!-- Node19&#45;&gt;Node22 -->
<g id="edge24" class="edge">
<title>Node19&#45;&gt;Node22</title>
<path fill="none" stroke="midnightblue" d="M1441.46,-184.89C1453.63,-176.04 1470.94,-161.03 1478.35,-143 1483.59,-130.26 1482.82,-125.03 1478.35,-112 1474.63,-101.16 1467.12,-90.92 1460,-82.96"/>
<polygon fill="midnightblue" stroke="midnightblue" points="1462.35,-80.35 1452.91,-75.55 1457.3,-85.19 1462.35,-80.35"/>
</g>
<!-- Node23 -->
<g id="node23" class="node">
<title>Node23</title>
<g id="a_node23"><a xlink:title=" ">
<polygon fill="white" stroke="#bfbfbf" points="1550.85,-0.5 1550.85,-19.5 1609.85,-19.5 1609.85,-0.5 1550.85,-0.5"/>
<text text-anchor="middle" x="1580.35" y="-7.5" font-family="Helvetica,sans-Serif" font-size="10.00">QtGlobal</text>
</a>
</g>
</g>
<!-- Node19&#45;&gt;Node23 -->
<g id="edge25" class="edge">
<title>Node19&#45;&gt;Node23</title>
<path fill="none" stroke="midnightblue" d="M1452.42,-184.89C1459.13,-182.72 1466.47,-180.57 1473.35,-179 1629.79,-143.34 1749.74,-220.56 1819.35,-76 1823.21,-67.99 1825.03,-62.84 1819.35,-56 1794.51,-26.04 1681.53,-15.9 1620.21,-12.56"/>
<polygon fill="midnightblue" stroke="midnightblue" points="1620.28,-9.06 1610.12,-12.05 1619.93,-16.05 1620.28,-9.06"/>
</g>
<!-- Node24 -->
<g id="node24" class="node">
<title>Node24</title>
<g id="a_node24"><a xlink:title=" ">
<polygon fill="white" stroke="#bfbfbf" points="552.85,-56.5 552.85,-75.5 615.85,-75.5 615.85,-56.5 552.85,-56.5"/>
<text text-anchor="middle" x="584.35" y="-63.5" font-family="Helvetica,sans-Serif" font-size="10.00">QMargins</text>
</a>
</g>
</g>
<!-- Node19&#45;&gt;Node24 -->
<g id="edge26" class="edge">
<title>Node19&#45;&gt;Node24</title>
<path fill="none" stroke="midnightblue" d="M1413.9,-184.87C1383.9,-167.47 1312.19,-128.42 1246.35,-112 1127.99,-82.48 752.36,-71 626.16,-67.92"/>
<polygon fill="midnightblue" stroke="midnightblue" points="626.2,-64.42 616.12,-67.68 626.04,-71.42 626.2,-64.42"/>
</g>
<!-- Node25 -->
<g id="node25" class="node">
<title>Node25</title>
<g id="a_node25"><a xlink:href="../../d4/da4/def_8h.html" target="_top" xlink:title=" ">
<polygon fill="white" stroke="red" points="1387.35,-118 1387.35,-137 1469.35,-137 1469.35,-118 1387.35,-118"/>
<text text-anchor="middle" x="1428.35" y="-125" font-family="Helvetica,sans-Serif" font-size="10.00">../vmisc/def.h</text>
</a>
</g>
</g>
<!-- Node19&#45;&gt;Node25 -->
<g id="edge27" class="edge">
<title>Node19&#45;&gt;Node25</title>
<path fill="none" stroke="midnightblue" d="M1428.35,-184.73C1428.35,-175.18 1428.35,-159.62 1428.35,-147.28"/>
<polygon fill="midnightblue" stroke="midnightblue" points="1431.85,-147.13 1428.35,-137.13 1424.85,-147.13 1431.85,-147.13"/>
</g>
<!-- Node35 -->
<g id="node26" class="node">
<title>Node35</title>
<g id="a_node26"><a xlink:href="../../de/dec/vbank_8h.html" target="_top" xlink:title=" ">
<polygon fill="white" stroke="red" points="1488.35,-56.5 1488.35,-75.5 1592.35,-75.5 1592.35,-56.5 1488.35,-56.5"/>
<text text-anchor="middle" x="1540.35" y="-63.5" font-family="Helvetica,sans-Serif" font-size="10.00">../vlayout/vbank.h</text>
</a>
</g>
</g>
<!-- Node19&#45;&gt;Node35 -->
<g id="edge30" class="edge">
<title>Node19&#45;&gt;Node35</title>
<path fill="none" stroke="midnightblue" d="M1442.21,-184.87C1456.23,-175.67 1477.97,-160.11 1493.35,-143 1509.5,-125.04 1523.39,-100.81 1531.8,-84.59"/>
<polygon fill="midnightblue" stroke="midnightblue" points="1534.93,-86.15 1536.29,-75.65 1528.67,-83.01 1534.93,-86.15"/>
</g>
<!-- Node39 -->
<g id="node27" class="node">
<title>Node39</title>
<g id="a_node27"><a xlink:href="../../d4/d5c/vcommonsettings_8h.html" target="_top" xlink:title=" ">
<polygon fill="white" stroke="red" points="1563.85,-118 1563.85,-137 1676.85,-137 1676.85,-118 1563.85,-118"/>
<text text-anchor="middle" x="1620.35" y="-125" font-family="Helvetica,sans-Serif" font-size="10.00">vcommonsettings.h</text>
</a>
</g>
</g>
<!-- Node19&#45;&gt;Node39 -->
<g id="edge32" class="edge">
<title>Node19&#45;&gt;Node39</title>
<path fill="none" stroke="midnightblue" d="M1453.85,-184.87C1487.65,-173.42 1547.45,-153.18 1585.43,-140.32"/>
<polygon fill="midnightblue" stroke="midnightblue" points="1586.71,-143.59 1595.06,-137.06 1584.46,-136.96 1586.71,-143.59"/>
</g>
<!-- Node25&#45;&gt;Node22 -->
<g id="edge28" class="edge">
<title>Node25&#45;&gt;Node22</title>
<path fill="none" stroke="midnightblue" d="M1430.5,-117.98C1432.64,-109.49 1435.99,-96.2 1438.73,-85.32"/>
<polygon fill="midnightblue" stroke="midnightblue" points="1442.16,-86.06 1441.21,-75.51 1435.37,-84.35 1442.16,-86.06"/>
</g>
<!-- Node25&#45;&gt;Node23 -->
<g id="edge29" class="edge">
<title>Node25&#45;&gt;Node23</title>
<path fill="none" stroke="midnightblue" d="M1421.44,-117.77C1411,-103.46 1393.89,-74.73 1408.35,-56 1424.36,-35.26 1494.79,-22.24 1540.41,-15.82"/>
<polygon fill="midnightblue" stroke="midnightblue" points="1541.14,-19.25 1550.58,-14.44 1540.2,-12.31 1541.14,-19.25"/>
</g>
<!-- Node35&#45;&gt;Node23 -->
<g id="edge31" class="edge">
<title>Node35&#45;&gt;Node23</title>
<path fill="none" stroke="midnightblue" d="M1546.96,-56.08C1552.61,-48.46 1560.9,-37.26 1567.8,-27.94"/>
<polygon fill="midnightblue" stroke="midnightblue" points="1570.73,-29.87 1573.87,-19.75 1565.11,-25.7 1570.73,-29.87"/>
</g>
<!-- Node39&#45;&gt;Node4 -->
<g id="edge34" class="edge">
<title>Node39&#45;&gt;Node4</title>
<path fill="none" stroke="midnightblue" d="M1579.09,-117.98C1523.27,-106.44 1424.48,-86.03 1370.38,-74.86"/>
<polygon fill="midnightblue" stroke="midnightblue" points="1371.01,-71.41 1360.5,-72.82 1369.59,-78.27 1371.01,-71.41"/>
</g>
<!-- Node39&#45;&gt;Node20 -->
<g id="edge33" class="edge">
<title>Node39&#45;&gt;Node20</title>
<path fill="none" stroke="midnightblue" d="M1641.84,-117.98C1667.46,-107.81 1710.46,-90.76 1739.6,-79.2"/>
<polygon fill="midnightblue" stroke="midnightblue" points="1740.9,-82.45 1748.9,-75.51 1738.32,-75.94 1740.9,-82.45"/>
</g>
<!-- Node39&#45;&gt;Node21 -->
<g id="edge35" class="edge">
<title>Node39&#45;&gt;Node21</title>
<path fill="none" stroke="midnightblue" d="M1628.95,-117.98C1638.22,-108.78 1653.17,-93.96 1664.57,-82.66"/>
<polygon fill="midnightblue" stroke="midnightblue" points="1667.14,-85.04 1671.77,-75.51 1662.21,-80.07 1667.14,-85.04"/>
</g>
<!-- Node39&#45;&gt;Node22 -->
<g id="edge36" class="edge">
<title>Node39&#45;&gt;Node22</title>
<path fill="none" stroke="midnightblue" d="M1594.99,-117.98C1564.37,-107.68 1512.7,-90.31 1478.31,-78.75"/>
<polygon fill="midnightblue" stroke="midnightblue" points="1479.26,-75.38 1468.67,-75.51 1477.03,-82.01 1479.26,-75.38"/>
</g>
<!-- Node39&#45;&gt;Node23 -->
<g id="edge37" class="edge">
<title>Node39&#45;&gt;Node23</title>
<path fill="none" stroke="midnightblue" d="M1618.49,-117.67C1615.53,-104.16 1609.26,-77.67 1601.35,-56 1598.03,-46.89 1593.57,-37.1 1589.62,-28.98"/>
<polygon fill="midnightblue" stroke="midnightblue" points="1592.61,-27.14 1585,-19.77 1586.35,-30.28 1592.61,-27.14"/>
</g>
<!-- Node39&#45;&gt;Node35 -->
<g id="edge38" class="edge">
<title>Node39&#45;&gt;Node35</title>
<path fill="none" stroke="midnightblue" d="M1608.89,-117.98C1596.18,-108.52 1575.44,-93.1 1560.1,-81.69"/>
<polygon fill="midnightblue" stroke="midnightblue" points="1561.91,-78.67 1551.79,-75.51 1557.73,-84.29 1561.91,-78.67"/>
</g>
<!-- Node42&#45;&gt;Node16 -->
<g id="edge49" class="edge">
<title>Node42&#45;&gt;Node16</title>
<path fill="none" stroke="midnightblue" d="M985.66,-194.15C1080.68,-194.34 1297.35,-186.83 1226.35,-112 1200.2,-84.43 581.25,-78.79 543.35,-76 529.13,-74.95 513.72,-73.59 499.55,-72.25"/>
<polygon fill="midnightblue" stroke="midnightblue" points="499.76,-68.75 489.47,-71.27 499.09,-75.72 499.76,-68.75"/>
</g>
<!-- Node43 -->
<g id="node29" class="node">
<title>Node43</title>
<g id="a_node29"><a xlink:title=" ">
<polygon fill="white" stroke="#bfbfbf" points="995.35,-118 995.35,-137 1053.35,-137 1053.35,-118 995.35,-118"/>
<text text-anchor="middle" x="1024.35" y="-125" font-family="Helvetica,sans-Serif" font-size="10.00">memory</text>
</a>
</g>
</g>
<!-- Node42&#45;&gt;Node43 -->
<g id="edge40" class="edge">
<title>Node42&#45;&gt;Node43</title>
<path fill="none" stroke="midnightblue" d="M954.28,-184.73C967.39,-174.21 989.61,-156.38 1005.51,-143.62"/>
<polygon fill="midnightblue" stroke="midnightblue" points="1007.99,-146.12 1013.6,-137.13 1003.61,-140.66 1007.99,-146.12"/>
</g>
<!-- Node44 -->
<g id="node30" class="node">
<title>Node44</title>
<g id="a_node30"><a xlink:title=" ">
<polygon fill="white" stroke="#bfbfbf" points="1071.85,-118 1071.85,-137 1118.85,-137 1118.85,-118 1071.85,-118"/>
<text text-anchor="middle" x="1095.35" y="-125" font-family="Helvetica,sans-Serif" font-size="10.00">vector</text>
</a>
</g>
</g>
<!-- Node42&#45;&gt;Node44 -->
<g id="edge41" class="edge">
<title>Node42&#45;&gt;Node44</title>
<path fill="none" stroke="midnightblue" d="M963.6,-185C987.31,-175.03 1027.74,-157.95 1062.35,-143 1063.72,-142.41 1065.11,-141.81 1066.52,-141.19"/>
<polygon fill="midnightblue" stroke="midnightblue" points="1068.06,-144.34 1075.83,-137.13 1065.26,-137.92 1068.06,-144.34"/>
</g>
<!-- Node45 -->
<g id="node31" class="node">
<title>Node45</title>
<g id="a_node31"><a xlink:title=" ">
<polygon fill="white" stroke="#bfbfbf" points="1137.35,-118 1137.35,-137 1217.35,-137 1217.35,-118 1137.35,-118"/>
<text text-anchor="middle" x="1177.35" y="-125" font-family="Helvetica,sans-Serif" font-size="10.00">QTextStream</text>
</a>
</g>
</g>
<!-- Node42&#45;&gt;Node45 -->
<g id="edge42" class="edge">
<title>Node42&#45;&gt;Node45</title>
<path fill="none" stroke="midnightblue" d="M975.49,-184.95C1012.44,-175.07 1074.87,-158.21 1128.35,-143 1131.89,-141.99 1135.56,-140.93 1139.24,-139.86"/>
<polygon fill="midnightblue" stroke="midnightblue" points="1140.27,-143.21 1148.88,-137.04 1138.3,-136.49 1140.27,-143.21"/>
</g>
<!-- Node46 -->
<g id="node32" class="node">
<title>Node46</title>
<g id="a_node32"><a xlink:title=" ">
<polygon fill="white" stroke="#bfbfbf" points="744.85,-118 744.85,-137 845.85,-137 845.85,-118 744.85,-118"/>
<text text-anchor="middle" x="795.35" y="-125" font-family="Helvetica,sans-Serif" font-size="10.00">QCoreApplication</text>
</a>
</g>
</g>
<!-- Node42&#45;&gt;Node46 -->
<g id="edge43" class="edge">
<title>Node42&#45;&gt;Node46</title>
<path fill="none" stroke="midnightblue" d="M923.7,-184.87C898.27,-173.7 853.75,-154.15 824.41,-141.26"/>
<polygon fill="midnightblue" stroke="midnightblue" points="825.65,-137.98 815.09,-137.17 822.84,-144.39 825.65,-137.98"/>
</g>
<!-- Node47 -->
<g id="node33" class="node">
<title>Node47</title>
<g id="a_node33"><a xlink:title=" ">
<polygon fill="white" stroke="#bfbfbf" points="601.85,-118 601.85,-137 726.85,-137 726.85,-118 601.85,-118"/>
<text text-anchor="middle" x="664.35" y="-125" font-family="Helvetica,sans-Serif" font-size="10.00">QCommandLineParser</text>
</a>
</g>
</g>
<!-- Node42&#45;&gt;Node47 -->
<g id="edge44" class="edge">
<title>Node42&#45;&gt;Node47</title>
<path fill="none" stroke="midnightblue" d="M914.57,-185C907.34,-182.95 899.58,-180.83 892.35,-179 832.3,-163.83 762.71,-148.78 716.36,-139.11"/>
<polygon fill="midnightblue" stroke="midnightblue" points="717.05,-135.68 706.55,-137.07 715.63,-142.53 717.05,-135.68"/>
</g>
<!-- Node48 -->
<g id="node34" class="node">
<title>Node48</title>
<g id="a_node34"><a xlink:href="../../d3/dd8/layoutsettings__dialog_8h.html" target="_top" xlink:title=" ">
<polygon fill="white" stroke="red" points="449.35,-112.5 449.35,-142.5 583.35,-142.5 583.35,-112.5 449.35,-112.5"/>
<text text-anchor="start" x="457.35" y="-130.5" font-family="Helvetica,sans-Serif" font-size="10.00">../dialogs/layoutsettings</text>
<text text-anchor="middle" x="516.35" y="-119.5" font-family="Helvetica,sans-Serif" font-size="10.00">_dialog.h</text>
</a>
</g>
</g>
<!-- Node42&#45;&gt;Node48 -->
<g id="edge45" class="edge">
<title>Node42&#45;&gt;Node48</title>
<path fill="none" stroke="midnightblue" d="M916.29,-184.95C908.61,-182.76 900.2,-180.58 892.35,-179 763.91,-153.2 726.85,-163.08 593.63,-143.12"/>
<polygon fill="midnightblue" stroke="midnightblue" points="593.86,-139.61 583.45,-141.56 592.8,-146.53 593.86,-139.61"/>
</g>
<!-- Node53 -->
<g id="node35" class="node">
<title>Node53</title>
<g id="a_node35"><a xlink:title=" ">
<polygon fill="white" stroke="#bfbfbf" points="863.85,-118 863.85,-137 976.85,-137 976.85,-118 863.85,-118"/>
<text text-anchor="middle" x="920.35" y="-125" font-family="Helvetica,sans-Serif" font-size="10.00">../vmisc/vsysexits.h</text>
</a>
</g>
</g>
<!-- Node42&#45;&gt;Node53 -->
<g id="edge50" class="edge">
<title>Node42&#45;&gt;Node53</title>
<path fill="none" stroke="midnightblue" d="M940.25,-184.73C936.84,-175.09 931.25,-159.3 926.87,-146.91"/>
<polygon fill="midnightblue" stroke="midnightblue" points="930.04,-145.39 923.41,-137.13 923.44,-147.72 930.04,-145.39"/>
</g>
<!-- Node48&#45;&gt;Node14 -->
<g id="edge47" class="edge">
<title>Node48&#45;&gt;Node14</title>
<path fill="none" stroke="midnightblue" d="M450.59,-112.47C400.11,-101.71 331.57,-87.09 285.96,-77.37"/>
<polygon fill="midnightblue" stroke="midnightblue" points="286.54,-73.91 276.03,-75.25 285.08,-80.76 286.54,-73.91"/>
</g>
<!-- Node48&#45;&gt;Node16 -->
<g id="edge46" class="edge">
<title>Node48&#45;&gt;Node16</title>
<path fill="none" stroke="midnightblue" d="M500.24,-112.4C489.95,-103.4 476.61,-91.72 466.03,-82.47"/>
<polygon fill="midnightblue" stroke="midnightblue" points="468.08,-79.61 458.25,-75.66 463.47,-84.88 468.08,-79.61"/>
</g>
<!-- Node48&#45;&gt;Node24 -->
<g id="edge48" class="edge">
<title>Node48&#45;&gt;Node24</title>
<path fill="none" stroke="midnightblue" d="M532.47,-112.4C542.76,-103.4 556.1,-91.72 566.68,-82.47"/>
<polygon fill="midnightblue" stroke="midnightblue" points="569.24,-84.88 574.46,-75.66 564.63,-79.61 569.24,-84.88"/>
</g>
</g>
</svg>
