<?xml version="1.0" encoding="UTF-8" standalone="no"?>
<!DOCTYPE svg PUBLIC "-//W3C//DTD SVG 1.1//EN"
 "http://www.w3.org/Graphics/SVG/1.1/DTD/svg11.dtd">
<!-- Generated by graphviz version 2.43.0 (0)
 -->
<!-- Title: XMLElementDecl Pages: 1 -->
<!--zoomable 1761 -->
<svg id="main" version="1.1" xmlns="http://www.w3.org/2000/svg" xmlns:xlink="http://www.w3.org/1999/xlink" xml:space="preserve" onload="init(evt)">
<style type="text/css"><![CDATA[
.edge:hover path { stroke: red; }
.edge:hover polygon { stroke: red; fill: red; }
]]></style>
<script type="text/javascript"><![CDATA[
var edges = document.getElementsByTagName('g');
if (edges && edges.length) {
  for (var i=0;i<edges.length;i++) {
    if (edges[i].id.substr(0,4)=='edge') {
      edges[i].setAttribute('class','edge');
    }
  }
}
]]></script>
        <defs>
                <circle id="rim" cx="0" cy="0" r="7"/>
                <circle id="rim2" cx="0" cy="0" r="3.5"/>
                <g id="zoomPlus">
                        <use xlink:href="#rim" fill="#404040">
                                <set attributeName="fill" to="#808080" begin="zoomplus.mouseover" end="zoomplus.mouseout"/>
                        </use>
                        <path d="M-4,0h8M0,-4v8" fill="none" stroke="white" stroke-width="1.5" pointer-events="none"/>
                </g>
                <g id="zoomMin">
                        <use xlink:href="#rim" fill="#404040">
                                <set attributeName="fill" to="#808080" begin="zoomminus.mouseover" end="zoomminus.mouseout"/>
                        </use>
                        <path d="M-4,0h8" fill="none" stroke="white" stroke-width="1.5" pointer-events="none"/>
                </g>
                <g id="dirArrow">
                        <path fill="none" stroke="white" stroke-width="1.5" d="M0,-3.0v7 M-2.5,-0.5L0,-3.0L2.5,-0.5"/>
                </g>
               <g id="resetDef">
                       <use xlink:href="#rim2" fill="#404040">
                               <set attributeName="fill" to="#808080" begin="reset.mouseover" end="reset.mouseout"/>
                       </use>
               </g>
        </defs>

<script type="text/javascript">
var viewWidth = 444;
var viewHeight = 1761;
var sectionId = 'dynsection-1';
</script>
<script xlink:href="../../svgpan.js"/>
<svg id="graph" class="graph">
<g id="viewport">
<title>XMLElementDecl</title>
<polygon fill="white" stroke="transparent" points="-4,4 -4,-1757 439.5,-1757 439.5,4 -4,4"/>
<!-- Node1 -->
<g id="node1" class="node">
<title>Node1</title>
<g id="a_node1"><a xlink:title=" ">
<polygon fill="#bfbfbf" stroke="black" points="106.5,-0.5 106.5,-981.5 278.5,-981.5 278.5,-0.5 106.5,-0.5"/>
<text text-anchor="middle" x="192.5" y="-969.5" font-family="Helvetica,sans-Serif" font-size="10.00">XMLElementDecl</text>
<polyline fill="none" stroke="black" points="106.5,-962.5 278.5,-962.5 "/>
<text text-anchor="start" x="114.5" y="-950.5" font-family="Helvetica,sans-Serif" font-size="10.00">+ fgInvalidElemId</text>
<text text-anchor="start" x="114.5" y="-939.5" font-family="Helvetica,sans-Serif" font-size="10.00">+ fgPCDataElemId</text>
<text text-anchor="start" x="114.5" y="-928.5" font-family="Helvetica,sans-Serif" font-size="10.00">+ fgPCDataElemName</text>
<polyline fill="none" stroke="black" points="106.5,-921.5 278.5,-921.5 "/>
<text text-anchor="start" x="114.5" y="-909.5" font-family="Helvetica,sans-Serif" font-size="10.00">+ ~XMLElementDecl()</text>
<text text-anchor="start" x="114.5" y="-898.5" font-family="Helvetica,sans-Serif" font-size="10.00">+ ~XMLElementDecl()</text>
<text text-anchor="start" x="114.5" y="-887.5" font-family="Helvetica,sans-Serif" font-size="10.00">+ ~XMLElementDecl()</text>
<text text-anchor="start" x="114.5" y="-876.5" font-family="Helvetica,sans-Serif" font-size="10.00">+ getAttDefList()</text>
<text text-anchor="start" x="114.5" y="-865.5" font-family="Helvetica,sans-Serif" font-size="10.00">+ getCharDataOpts()</text>
<text text-anchor="start" x="114.5" y="-854.5" font-family="Helvetica,sans-Serif" font-size="10.00">+ hasAttDefs()</text>
<text text-anchor="start" x="114.5" y="-843.5" font-family="Helvetica,sans-Serif" font-size="10.00">+ getContentSpec()</text>
<text text-anchor="start" x="114.5" y="-832.5" font-family="Helvetica,sans-Serif" font-size="10.00">+ getContentSpec()</text>
<text text-anchor="start" x="114.5" y="-821.5" font-family="Helvetica,sans-Serif" font-size="10.00">+ setContentSpec()</text>
<text text-anchor="start" x="114.5" y="-810.5" font-family="Helvetica,sans-Serif" font-size="10.00">+ getContentModel()</text>
<text text-anchor="start" x="114.5" y="-799.5" font-family="Helvetica,sans-Serif" font-size="10.00">+ setContentModel()</text>
<text text-anchor="start" x="114.5" y="-788.5" font-family="Helvetica,sans-Serif" font-size="10.00">+ getFormattedContentModel()</text>
<text text-anchor="start" x="114.5" y="-777.5" font-family="Helvetica,sans-Serif" font-size="10.00">+ getAttDefList()</text>
<text text-anchor="start" x="114.5" y="-766.5" font-family="Helvetica,sans-Serif" font-size="10.00">and 17 more...</text>
<text text-anchor="start" x="114.5" y="-755.5" font-family="Helvetica,sans-Serif" font-size="10.00">+ getBaseName()</text>
<text text-anchor="start" x="114.5" y="-744.5" font-family="Helvetica,sans-Serif" font-size="10.00">+ getBaseName()</text>
<text text-anchor="start" x="114.5" y="-733.5" font-family="Helvetica,sans-Serif" font-size="10.00">+ getURI()</text>
<text text-anchor="start" x="114.5" y="-722.5" font-family="Helvetica,sans-Serif" font-size="10.00">+ getElementName()</text>
<text text-anchor="start" x="114.5" y="-711.5" font-family="Helvetica,sans-Serif" font-size="10.00">+ getElementName()</text>
<text text-anchor="start" x="114.5" y="-700.5" font-family="Helvetica,sans-Serif" font-size="10.00">+ getFullName()</text>
<text text-anchor="start" x="114.5" y="-689.5" font-family="Helvetica,sans-Serif" font-size="10.00">+ getCreateReason()</text>
<text text-anchor="start" x="114.5" y="-678.5" font-family="Helvetica,sans-Serif" font-size="10.00">+ getId()</text>
<text text-anchor="start" x="114.5" y="-667.5" font-family="Helvetica,sans-Serif" font-size="10.00">+ isDeclared()</text>
<text text-anchor="start" x="114.5" y="-656.5" font-family="Helvetica,sans-Serif" font-size="10.00">+ isExternal()</text>
<text text-anchor="start" x="114.5" y="-645.5" font-family="Helvetica,sans-Serif" font-size="10.00">and 23 more...</text>
<text text-anchor="start" x="114.5" y="-634.5" font-family="Helvetica,sans-Serif" font-size="10.00">+ setElementName()</text>
<text text-anchor="start" x="114.5" y="-623.5" font-family="Helvetica,sans-Serif" font-size="10.00">+ setElementName()</text>
<text text-anchor="start" x="114.5" y="-612.5" font-family="Helvetica,sans-Serif" font-size="10.00">+ setElementName()</text>
<text text-anchor="start" x="114.5" y="-601.5" font-family="Helvetica,sans-Serif" font-size="10.00">+ setCreateReason()</text>
<text text-anchor="start" x="114.5" y="-590.5" font-family="Helvetica,sans-Serif" font-size="10.00">+ setId()</text>
<text text-anchor="start" x="114.5" y="-579.5" font-family="Helvetica,sans-Serif" font-size="10.00">+ setExternalElemDeclaration()</text>
<text text-anchor="start" x="114.5" y="-568.5" font-family="Helvetica,sans-Serif" font-size="10.00">+ setElementName()</text>
<text text-anchor="start" x="114.5" y="-557.5" font-family="Helvetica,sans-Serif" font-size="10.00">+ setElementName()</text>
<text text-anchor="start" x="114.5" y="-546.5" font-family="Helvetica,sans-Serif" font-size="10.00">+ setElementName()</text>
<text text-anchor="start" x="114.5" y="-535.5" font-family="Helvetica,sans-Serif" font-size="10.00">+ setCreateReason()</text>
<text text-anchor="start" x="114.5" y="-524.5" font-family="Helvetica,sans-Serif" font-size="10.00">and 8 more...</text>
<text text-anchor="start" x="114.5" y="-513.5" font-family="Helvetica,sans-Serif" font-size="10.00">* objectType</text>
<text text-anchor="start" x="114.5" y="-502.5" font-family="Helvetica,sans-Serif" font-size="10.00">* objectType</text>
<text text-anchor="start" x="114.5" y="-491.5" font-family="Helvetica,sans-Serif" font-size="10.00">* objectType</text>
<text text-anchor="start" x="114.5" y="-480.5" font-family="Helvetica,sans-Serif" font-size="10.00">* fCreateReason</text>
<text text-anchor="start" x="114.5" y="-469.5" font-family="Helvetica,sans-Serif" font-size="10.00">* fId</text>
<text text-anchor="start" x="114.5" y="-458.5" font-family="Helvetica,sans-Serif" font-size="10.00">* fExternalElement</text>
<text text-anchor="start" x="114.5" y="-447.5" font-family="Helvetica,sans-Serif" font-size="10.00">* getObjectType()</text>
<text text-anchor="start" x="114.5" y="-436.5" font-family="Helvetica,sans-Serif" font-size="10.00">* getObjectType()</text>
<text text-anchor="start" x="114.5" y="-425.5" font-family="Helvetica,sans-Serif" font-size="10.00">* getObjectType()</text>
<text text-anchor="start" x="114.5" y="-414.5" font-family="Helvetica,sans-Serif" font-size="10.00">* storeElementDecl()</text>
<text text-anchor="start" x="114.5" y="-403.5" font-family="Helvetica,sans-Serif" font-size="10.00">and 14 more...</text>
<text text-anchor="start" x="114.5" y="-392.5" font-family="Helvetica,sans-Serif" font-size="10.00">* ~XMLElementDecl()</text>
<text text-anchor="start" x="114.5" y="-381.5" font-family="Helvetica,sans-Serif" font-size="10.00">* ~XMLElementDecl()</text>
<text text-anchor="start" x="114.5" y="-370.5" font-family="Helvetica,sans-Serif" font-size="10.00">* ~XMLElementDecl()</text>
<text text-anchor="start" x="114.5" y="-359.5" font-family="Helvetica,sans-Serif" font-size="10.00">* getAttDefList()</text>
<text text-anchor="start" x="114.5" y="-348.5" font-family="Helvetica,sans-Serif" font-size="10.00">* getCharDataOpts()</text>
<text text-anchor="start" x="114.5" y="-337.5" font-family="Helvetica,sans-Serif" font-size="10.00">* hasAttDefs()</text>
<text text-anchor="start" x="114.5" y="-326.5" font-family="Helvetica,sans-Serif" font-size="10.00">* getContentSpec()</text>
<text text-anchor="start" x="114.5" y="-315.5" font-family="Helvetica,sans-Serif" font-size="10.00">* getContentSpec()</text>
<text text-anchor="start" x="114.5" y="-304.5" font-family="Helvetica,sans-Serif" font-size="10.00">* setContentSpec()</text>
<text text-anchor="start" x="114.5" y="-293.5" font-family="Helvetica,sans-Serif" font-size="10.00">* getContentModel()</text>
<text text-anchor="start" x="114.5" y="-282.5" font-family="Helvetica,sans-Serif" font-size="10.00">* setContentModel()</text>
<text text-anchor="start" x="114.5" y="-271.5" font-family="Helvetica,sans-Serif" font-size="10.00">* getFormattedContentModel()</text>
<text text-anchor="start" x="114.5" y="-260.5" font-family="Helvetica,sans-Serif" font-size="10.00">* getAttDefList()</text>
<text text-anchor="start" x="114.5" y="-249.5" font-family="Helvetica,sans-Serif" font-size="10.00">and 17 more...</text>
<text text-anchor="start" x="114.5" y="-238.5" font-family="Helvetica,sans-Serif" font-size="10.00">* getBaseName()</text>
<text text-anchor="start" x="114.5" y="-227.5" font-family="Helvetica,sans-Serif" font-size="10.00">* getBaseName()</text>
<text text-anchor="start" x="114.5" y="-216.5" font-family="Helvetica,sans-Serif" font-size="10.00">* getURI()</text>
<text text-anchor="start" x="114.5" y="-205.5" font-family="Helvetica,sans-Serif" font-size="10.00">* getElementName()</text>
<text text-anchor="start" x="114.5" y="-194.5" font-family="Helvetica,sans-Serif" font-size="10.00">* getElementName()</text>
<text text-anchor="start" x="114.5" y="-183.5" font-family="Helvetica,sans-Serif" font-size="10.00">* getFullName()</text>
<text text-anchor="start" x="114.5" y="-172.5" font-family="Helvetica,sans-Serif" font-size="10.00">* getCreateReason()</text>
<text text-anchor="start" x="114.5" y="-161.5" font-family="Helvetica,sans-Serif" font-size="10.00">* getId()</text>
<text text-anchor="start" x="114.5" y="-150.5" font-family="Helvetica,sans-Serif" font-size="10.00">* isDeclared()</text>
<text text-anchor="start" x="114.5" y="-139.5" font-family="Helvetica,sans-Serif" font-size="10.00">* isExternal()</text>
<text text-anchor="start" x="114.5" y="-128.5" font-family="Helvetica,sans-Serif" font-size="10.00">and 23 more...</text>
<text text-anchor="start" x="114.5" y="-117.5" font-family="Helvetica,sans-Serif" font-size="10.00">* setElementName()</text>
<text text-anchor="start" x="114.5" y="-106.5" font-family="Helvetica,sans-Serif" font-size="10.00">* setElementName()</text>
<text text-anchor="start" x="114.5" y="-95.5" font-family="Helvetica,sans-Serif" font-size="10.00">* setElementName()</text>
<text text-anchor="start" x="114.5" y="-84.5" font-family="Helvetica,sans-Serif" font-size="10.00">* setCreateReason()</text>
<text text-anchor="start" x="114.5" y="-73.5" font-family="Helvetica,sans-Serif" font-size="10.00">* setId()</text>
<text text-anchor="start" x="114.5" y="-62.5" font-family="Helvetica,sans-Serif" font-size="10.00">* setExternalElemDeclaration()</text>
<text text-anchor="start" x="114.5" y="-51.5" font-family="Helvetica,sans-Serif" font-size="10.00">* setElementName()</text>
<text text-anchor="start" x="114.5" y="-40.5" font-family="Helvetica,sans-Serif" font-size="10.00">* setElementName()</text>
<text text-anchor="start" x="114.5" y="-29.5" font-family="Helvetica,sans-Serif" font-size="10.00">* setElementName()</text>
<text text-anchor="start" x="114.5" y="-18.5" font-family="Helvetica,sans-Serif" font-size="10.00">* setCreateReason()</text>
<text text-anchor="start" x="114.5" y="-7.5" font-family="Helvetica,sans-Serif" font-size="10.00">and 8 more...</text>
</a>
</g>
</g>
<!-- Node2 -->
<g id="node2" class="node">
<title>Node2</title>
<g id="a_node2"><a xlink:href="../../da/d19/classXSerializable.html" target="_top" xlink:title=" ">
<polygon fill="white" stroke="black" points="0,-1409.5 0,-1686.5 107,-1686.5 107,-1409.5 0,-1409.5"/>
<text text-anchor="middle" x="53.5" y="-1674.5" font-family="Helvetica,sans-Serif" font-size="10.00">XSerializable</text>
<polyline fill="none" stroke="black" points="0,-1667.5 107,-1667.5 "/>
<text text-anchor="middle" x="53.5" y="-1655.5" font-family="Helvetica,sans-Serif" font-size="10.00"> </text>
<polyline fill="none" stroke="black" points="0,-1648.5 107,-1648.5 "/>
<text text-anchor="start" x="8" y="-1636.5" font-family="Helvetica,sans-Serif" font-size="10.00">+ ~XSerializable()</text>
<text text-anchor="start" x="8" y="-1625.5" font-family="Helvetica,sans-Serif" font-size="10.00">+ isSerializable()</text>
<text text-anchor="start" x="8" y="-1614.5" font-family="Helvetica,sans-Serif" font-size="10.00">+ serialize()</text>
<text text-anchor="start" x="8" y="-1603.5" font-family="Helvetica,sans-Serif" font-size="10.00">+ getProtoType()</text>
<text text-anchor="start" x="8" y="-1592.5" font-family="Helvetica,sans-Serif" font-size="10.00">+ ~XSerializable()</text>
<text text-anchor="start" x="8" y="-1581.5" font-family="Helvetica,sans-Serif" font-size="10.00">+ isSerializable()</text>
<text text-anchor="start" x="8" y="-1570.5" font-family="Helvetica,sans-Serif" font-size="10.00">+ serialize()</text>
<text text-anchor="start" x="8" y="-1559.5" font-family="Helvetica,sans-Serif" font-size="10.00">+ getProtoType()</text>
<text text-anchor="start" x="8" y="-1548.5" font-family="Helvetica,sans-Serif" font-size="10.00">+ ~XSerializable()</text>
<text text-anchor="start" x="8" y="-1537.5" font-family="Helvetica,sans-Serif" font-size="10.00">+ isSerializable()</text>
<text text-anchor="start" x="8" y="-1526.5" font-family="Helvetica,sans-Serif" font-size="10.00">+ serialize()</text>
<text text-anchor="start" x="8" y="-1515.5" font-family="Helvetica,sans-Serif" font-size="10.00">+ getProtoType()</text>
<text text-anchor="start" x="8" y="-1504.5" font-family="Helvetica,sans-Serif" font-size="10.00"># XSerializable()</text>
<text text-anchor="start" x="8" y="-1493.5" font-family="Helvetica,sans-Serif" font-size="10.00"># XSerializable()</text>
<text text-anchor="start" x="8" y="-1482.5" font-family="Helvetica,sans-Serif" font-size="10.00"># XSerializable()</text>
<text text-anchor="start" x="8" y="-1471.5" font-family="Helvetica,sans-Serif" font-size="10.00"># XSerializable()</text>
<text text-anchor="start" x="8" y="-1460.5" font-family="Helvetica,sans-Serif" font-size="10.00"># XSerializable()</text>
<text text-anchor="start" x="8" y="-1449.5" font-family="Helvetica,sans-Serif" font-size="10.00"># XSerializable()</text>
<text text-anchor="start" x="8" y="-1438.5" font-family="Helvetica,sans-Serif" font-size="10.00">&#45; operator=()</text>
<text text-anchor="start" x="8" y="-1427.5" font-family="Helvetica,sans-Serif" font-size="10.00">&#45; operator=()</text>
<text text-anchor="start" x="8" y="-1416.5" font-family="Helvetica,sans-Serif" font-size="10.00">&#45; operator=()</text>
</a>
</g>
</g>
<!-- Node2&#45;&gt;Node1 -->
<g id="edge1" class="edge">
<title>Node2&#45;&gt;Node1</title>
<path fill="none" stroke="midnightblue" d="M43.93,-1399.16C46.1,-1295.29 55.33,-1153.25 71.5,-1029 80.55,-959.46 92.96,-885.33 106.46,-815.06"/>
<polygon fill="none" stroke="midnightblue" points="40.43,-1399.34 43.74,-1409.41 47.43,-1399.48 40.43,-1399.34"/>
</g>
<!-- Node2&#45;&gt;Node1 -->
<g id="edge3" class="edge">
<title>Node2&#45;&gt;Node1</title>
<path fill="none" stroke="midnightblue" d="M59.05,-1399.16C64.1,-1295.29 73.33,-1153.25 89.5,-1029 94.34,-991.82 100.14,-953.32 106.49,-914.81"/>
<polygon fill="none" stroke="midnightblue" points="55.54,-1399.25 58.56,-1409.41 62.53,-1399.59 55.54,-1399.25"/>
</g>
<!-- Node2&#45;&gt;Node1 -->
<g id="edge5" class="edge">
<title>Node2&#45;&gt;Node1</title>
<path fill="none" stroke="midnightblue" d="M74.17,-1399.16C82.1,-1295.29 91.33,-1153.25 107.5,-1029 109.52,-1013.47 111.71,-997.71 114.03,-981.81"/>
<polygon fill="none" stroke="midnightblue" points="70.66,-1399.17 73.38,-1409.41 77.64,-1399.71 70.66,-1399.17"/>
</g>
<!-- Node5 -->
<g id="node5" class="node">
<title>Node5</title>
<g id="a_node5"><a xlink:href="../../dd/d8c/classQName.html" target="_top" xlink:title=" ">
<polygon fill="white" stroke="black" points="99,-1029.5 99,-1295.5 204,-1295.5 204,-1029.5 99,-1029.5"/>
<text text-anchor="middle" x="151.5" y="-1283.5" font-family="Helvetica,sans-Serif" font-size="10.00">QName</text>
<polyline fill="none" stroke="black" points="99,-1276.5 204,-1276.5 "/>
<text text-anchor="start" x="107" y="-1264.5" font-family="Helvetica,sans-Serif" font-size="10.00">&#45; fPrefixBufSz</text>
<text text-anchor="start" x="107" y="-1253.5" font-family="Helvetica,sans-Serif" font-size="10.00">&#45; fLocalPartBufSz</text>
<text text-anchor="start" x="107" y="-1242.5" font-family="Helvetica,sans-Serif" font-size="10.00">&#45; fRawNameBufSz</text>
<text text-anchor="start" x="107" y="-1231.5" font-family="Helvetica,sans-Serif" font-size="10.00">&#45; fURIId</text>
<text text-anchor="start" x="107" y="-1220.5" font-family="Helvetica,sans-Serif" font-size="10.00">&#45; fPrefix</text>
<text text-anchor="start" x="107" y="-1209.5" font-family="Helvetica,sans-Serif" font-size="10.00">&#45; fLocalPart</text>
<text text-anchor="start" x="107" y="-1198.5" font-family="Helvetica,sans-Serif" font-size="10.00">&#45; fRawName</text>
<polyline fill="none" stroke="black" points="99,-1191.5 204,-1191.5 "/>
<text text-anchor="start" x="107" y="-1179.5" font-family="Helvetica,sans-Serif" font-size="10.00">+ QName()</text>
<text text-anchor="start" x="107" y="-1168.5" font-family="Helvetica,sans-Serif" font-size="10.00">+ QName()</text>
<text text-anchor="start" x="107" y="-1157.5" font-family="Helvetica,sans-Serif" font-size="10.00">+ QName()</text>
<text text-anchor="start" x="107" y="-1146.5" font-family="Helvetica,sans-Serif" font-size="10.00">+ QName()</text>
<text text-anchor="start" x="107" y="-1135.5" font-family="Helvetica,sans-Serif" font-size="10.00">+ ~QName()</text>
<text text-anchor="start" x="107" y="-1124.5" font-family="Helvetica,sans-Serif" font-size="10.00">+ getPrefix()</text>
<text text-anchor="start" x="107" y="-1113.5" font-family="Helvetica,sans-Serif" font-size="10.00">+ getPrefix()</text>
<text text-anchor="start" x="107" y="-1102.5" font-family="Helvetica,sans-Serif" font-size="10.00">+ getLocalPart()</text>
<text text-anchor="start" x="107" y="-1091.5" font-family="Helvetica,sans-Serif" font-size="10.00">+ getLocalPart()</text>
<text text-anchor="start" x="107" y="-1080.5" font-family="Helvetica,sans-Serif" font-size="10.00">+ getURI()</text>
<text text-anchor="start" x="107" y="-1069.5" font-family="Helvetica,sans-Serif" font-size="10.00">and 59 more...</text>
<text text-anchor="start" x="107" y="-1058.5" font-family="Helvetica,sans-Serif" font-size="10.00">&#45; operator=()</text>
<text text-anchor="start" x="107" y="-1047.5" font-family="Helvetica,sans-Serif" font-size="10.00">&#45; operator=()</text>
<text text-anchor="start" x="107" y="-1036.5" font-family="Helvetica,sans-Serif" font-size="10.00">&#45; operator=()</text>
</a>
</g>
</g>
<!-- Node2&#45;&gt;Node5 -->
<g id="edge9" class="edge">
<title>Node2&#45;&gt;Node5</title>
<path fill="none" stroke="midnightblue" d="M78.06,-1399.31C86.29,-1365.14 95.61,-1329.01 104.85,-1295.56"/>
<polygon fill="none" stroke="midnightblue" points="74.58,-1398.82 75.66,-1409.36 81.39,-1400.45 74.58,-1398.82"/>
</g>
<!-- Node2&#45;&gt;Node5 -->
<g id="edge11" class="edge">
<title>Node2&#45;&gt;Node5</title>
<path fill="none" stroke="midnightblue" d="M91.24,-1399.31C99.97,-1365.14 109.21,-1329.01 117.75,-1295.56"/>
<polygon fill="none" stroke="midnightblue" points="87.76,-1398.81 88.67,-1409.36 94.54,-1400.54 87.76,-1398.81"/>
</g>
<!-- Node2&#45;&gt;Node5 -->
<g id="edge13" class="edge">
<title>Node2&#45;&gt;Node5</title>
<path fill="none" stroke="midnightblue" d="M104.42,-1399.31C113.66,-1365.14 122.8,-1329.01 130.65,-1295.56"/>
<polygon fill="none" stroke="midnightblue" points="100.93,-1398.79 101.68,-1409.36 107.69,-1400.63 100.93,-1398.79"/>
</g>
<!-- Node3 -->
<g id="node3" class="node">
<title>Node3</title>
<g id="a_node3"><a xlink:href="../../d5/d80/classXMemory.html" target="_top" xlink:title=" ">
<polygon fill="white" stroke="black" points="325.5,-1371 325.5,-1725 435.5,-1725 435.5,-1371 325.5,-1371"/>
<text text-anchor="middle" x="380.5" y="-1713" font-family="Helvetica,sans-Serif" font-size="10.00">XMemory</text>
<polyline fill="none" stroke="black" points="325.5,-1706 435.5,-1706 "/>
<text text-anchor="middle" x="380.5" y="-1694" font-family="Helvetica,sans-Serif" font-size="10.00"> </text>
<polyline fill="none" stroke="black" points="325.5,-1687 435.5,-1687 "/>
<text text-anchor="start" x="333.5" y="-1675" font-family="Helvetica,sans-Serif" font-size="10.00">+ operator new()</text>
<text text-anchor="start" x="333.5" y="-1664" font-family="Helvetica,sans-Serif" font-size="10.00">+ operator new()</text>
<text text-anchor="start" x="333.5" y="-1653" font-family="Helvetica,sans-Serif" font-size="10.00">+ operator new()</text>
<text text-anchor="start" x="333.5" y="-1642" font-family="Helvetica,sans-Serif" font-size="10.00">+ operator delete()</text>
<text text-anchor="start" x="333.5" y="-1631" font-family="Helvetica,sans-Serif" font-size="10.00">+ operator delete()</text>
<text text-anchor="start" x="333.5" y="-1620" font-family="Helvetica,sans-Serif" font-size="10.00">+ operator delete()</text>
<text text-anchor="start" x="333.5" y="-1609" font-family="Helvetica,sans-Serif" font-size="10.00">+ operator new()</text>
<text text-anchor="start" x="333.5" y="-1598" font-family="Helvetica,sans-Serif" font-size="10.00">+ operator new()</text>
<text text-anchor="start" x="333.5" y="-1587" font-family="Helvetica,sans-Serif" font-size="10.00">+ operator new()</text>
<text text-anchor="start" x="333.5" y="-1576" font-family="Helvetica,sans-Serif" font-size="10.00">+ operator delete()</text>
<text text-anchor="start" x="333.5" y="-1565" font-family="Helvetica,sans-Serif" font-size="10.00">and 8 more...</text>
<text text-anchor="start" x="333.5" y="-1554" font-family="Helvetica,sans-Serif" font-size="10.00"># XMemory()</text>
<text text-anchor="start" x="333.5" y="-1543" font-family="Helvetica,sans-Serif" font-size="10.00"># XMemory()</text>
<text text-anchor="start" x="333.5" y="-1532" font-family="Helvetica,sans-Serif" font-size="10.00"># XMemory()</text>
<text text-anchor="start" x="333.5" y="-1521" font-family="Helvetica,sans-Serif" font-size="10.00">* operator new()</text>
<text text-anchor="start" x="333.5" y="-1510" font-family="Helvetica,sans-Serif" font-size="10.00">* operator new()</text>
<text text-anchor="start" x="333.5" y="-1499" font-family="Helvetica,sans-Serif" font-size="10.00">* operator new()</text>
<text text-anchor="start" x="333.5" y="-1488" font-family="Helvetica,sans-Serif" font-size="10.00">* operator delete()</text>
<text text-anchor="start" x="333.5" y="-1477" font-family="Helvetica,sans-Serif" font-size="10.00">* operator delete()</text>
<text text-anchor="start" x="333.5" y="-1466" font-family="Helvetica,sans-Serif" font-size="10.00">* operator delete()</text>
<text text-anchor="start" x="333.5" y="-1455" font-family="Helvetica,sans-Serif" font-size="10.00">* operator new()</text>
<text text-anchor="start" x="333.5" y="-1444" font-family="Helvetica,sans-Serif" font-size="10.00">* operator new()</text>
<text text-anchor="start" x="333.5" y="-1433" font-family="Helvetica,sans-Serif" font-size="10.00">* operator new()</text>
<text text-anchor="start" x="333.5" y="-1422" font-family="Helvetica,sans-Serif" font-size="10.00">* operator delete()</text>
<text text-anchor="start" x="333.5" y="-1411" font-family="Helvetica,sans-Serif" font-size="10.00">and 8 more...</text>
<text text-anchor="start" x="333.5" y="-1400" font-family="Helvetica,sans-Serif" font-size="10.00">* XMemory()</text>
<text text-anchor="start" x="333.5" y="-1389" font-family="Helvetica,sans-Serif" font-size="10.00">* XMemory()</text>
<text text-anchor="start" x="333.5" y="-1378" font-family="Helvetica,sans-Serif" font-size="10.00">* XMemory()</text>
</a>
</g>
</g>
<!-- Node3&#45;&gt;Node1 -->
<g id="edge2" class="edge">
<title>Node3&#45;&gt;Node1</title>
<path fill="none" stroke="midnightblue" d="M362.91,-1360.72C357.59,-1261.6 349.46,-1137.99 330.5,-1029 317.73,-955.59 298.6,-877.93 278.55,-805.17"/>
<polygon fill="none" stroke="midnightblue" points="359.42,-1361.04 363.45,-1370.84 366.41,-1360.67 359.42,-1361.04"/>
</g>
<!-- Node3&#45;&gt;Node1 -->
<g id="edge4" class="edge">
<title>Node3&#45;&gt;Node1</title>
<path fill="none" stroke="midnightblue" d="M378.92,-1360.72C375.59,-1261.6 367.46,-1137.99 348.5,-1029 332.15,-935.03 305.38,-834.09 278.58,-745.37"/>
<polygon fill="none" stroke="midnightblue" points="375.43,-1360.96 379.25,-1370.84 382.43,-1360.74 375.43,-1360.96"/>
</g>
<!-- Node3&#45;&gt;Node1 -->
<g id="edge6" class="edge">
<title>Node3&#45;&gt;Node1</title>
<path fill="none" stroke="midnightblue" d="M394.94,-1360.72C393.59,-1261.6 385.46,-1137.99 366.5,-1029 346.83,-915.9 312.04,-792.7 278.53,-692.88"/>
<polygon fill="none" stroke="midnightblue" points="391.44,-1360.88 395.05,-1370.84 398.44,-1360.8 391.44,-1360.88"/>
</g>
<!-- Node3&#45;&gt;Node5 -->
<g id="edge10" class="edge">
<title>Node3&#45;&gt;Node5</title>
<path fill="none" stroke="midnightblue" d="M320.88,-1377.07C314.42,-1364.92 307.03,-1353.39 298.5,-1343 281.47,-1322.24 269.79,-1325.45 245.5,-1314 226.02,-1304.81 216.38,-1310.55 200.5,-1296 200.4,-1295.91 200.31,-1295.83 200.22,-1295.74"/>
<polygon fill="none" stroke="midnightblue" points="317.78,-1378.68 325.43,-1386.01 324.02,-1375.51 317.78,-1378.68"/>
</g>
<!-- Node3&#45;&gt;Node5 -->
<g id="edge12" class="edge">
<title>Node3&#45;&gt;Node5</title>
<path fill="none" stroke="midnightblue" d="M330.28,-1362.22C326.05,-1355.49 321.47,-1349.05 316.5,-1343 299.47,-1322.24 287.79,-1325.45 263.5,-1314 244.02,-1304.81 234.38,-1310.55 218.5,-1296 213.37,-1291.3 208.57,-1286.12 204.1,-1280.6"/>
<polygon fill="none" stroke="midnightblue" points="327.31,-1364.08 335.44,-1370.88 333.32,-1360.5 327.31,-1364.08"/>
</g>
<!-- Node3&#45;&gt;Node5 -->
<g id="edge14" class="edge">
<title>Node3&#45;&gt;Node5</title>
<path fill="none" stroke="midnightblue" d="M348.27,-1362.22C344.05,-1355.49 339.47,-1349.05 334.5,-1343 317.47,-1322.24 305.79,-1325.45 281.5,-1314 262.02,-1304.81 252.38,-1310.55 236.5,-1296 223.86,-1284.42 213.27,-1269.92 204.19,-1254.79"/>
<polygon fill="none" stroke="midnightblue" points="345.3,-1364.07 353.42,-1370.88 351.31,-1360.49 345.3,-1364.07"/>
</g>
<!-- Node4 -->
<g id="node4" class="node">
<title>Node4</title>
<g id="a_node4"><a xlink:href="../../d6/d9a/classMemoryManager.html" target="_top" xlink:title=" ">
<polygon fill="white" stroke="black" points="125.5,-1343.5 125.5,-1752.5 307.5,-1752.5 307.5,-1343.5 125.5,-1343.5"/>
<text text-anchor="middle" x="216.5" y="-1740.5" font-family="Helvetica,sans-Serif" font-size="10.00">MemoryManager</text>
<polyline fill="none" stroke="black" points="125.5,-1733.5 307.5,-1733.5 "/>
<text text-anchor="middle" x="216.5" y="-1721.5" font-family="Helvetica,sans-Serif" font-size="10.00"> </text>
<polyline fill="none" stroke="black" points="125.5,-1714.5 307.5,-1714.5 "/>
<text text-anchor="start" x="133.5" y="-1702.5" font-family="Helvetica,sans-Serif" font-size="10.00">+ ~MemoryManager()</text>
<text text-anchor="start" x="133.5" y="-1691.5" font-family="Helvetica,sans-Serif" font-size="10.00">+ getExceptionMemoryManager()</text>
<text text-anchor="start" x="133.5" y="-1680.5" font-family="Helvetica,sans-Serif" font-size="10.00">+ ~MemoryManager()</text>
<text text-anchor="start" x="133.5" y="-1669.5" font-family="Helvetica,sans-Serif" font-size="10.00">+ getExceptionMemoryManager()</text>
<text text-anchor="start" x="133.5" y="-1658.5" font-family="Helvetica,sans-Serif" font-size="10.00">+ ~MemoryManager()</text>
<text text-anchor="start" x="133.5" y="-1647.5" font-family="Helvetica,sans-Serif" font-size="10.00">+ getExceptionMemoryManager()</text>
<text text-anchor="start" x="133.5" y="-1636.5" font-family="Helvetica,sans-Serif" font-size="10.00">+ allocate()</text>
<text text-anchor="start" x="133.5" y="-1625.5" font-family="Helvetica,sans-Serif" font-size="10.00">+ deallocate()</text>
<text text-anchor="start" x="133.5" y="-1614.5" font-family="Helvetica,sans-Serif" font-size="10.00">+ allocate()</text>
<text text-anchor="start" x="133.5" y="-1603.5" font-family="Helvetica,sans-Serif" font-size="10.00">+ deallocate()</text>
<text text-anchor="start" x="133.5" y="-1592.5" font-family="Helvetica,sans-Serif" font-size="10.00">+ allocate()</text>
<text text-anchor="start" x="133.5" y="-1581.5" font-family="Helvetica,sans-Serif" font-size="10.00">+ deallocate()</text>
<text text-anchor="start" x="133.5" y="-1570.5" font-family="Helvetica,sans-Serif" font-size="10.00">* ~MemoryManager()</text>
<text text-anchor="start" x="133.5" y="-1559.5" font-family="Helvetica,sans-Serif" font-size="10.00">* getExceptionMemoryManager()</text>
<text text-anchor="start" x="133.5" y="-1548.5" font-family="Helvetica,sans-Serif" font-size="10.00">* ~MemoryManager()</text>
<text text-anchor="start" x="133.5" y="-1537.5" font-family="Helvetica,sans-Serif" font-size="10.00">* getExceptionMemoryManager()</text>
<text text-anchor="start" x="133.5" y="-1526.5" font-family="Helvetica,sans-Serif" font-size="10.00">* ~MemoryManager()</text>
<text text-anchor="start" x="133.5" y="-1515.5" font-family="Helvetica,sans-Serif" font-size="10.00">* getExceptionMemoryManager()</text>
<text text-anchor="start" x="133.5" y="-1504.5" font-family="Helvetica,sans-Serif" font-size="10.00">* allocate()</text>
<text text-anchor="start" x="133.5" y="-1493.5" font-family="Helvetica,sans-Serif" font-size="10.00">* deallocate()</text>
<text text-anchor="start" x="133.5" y="-1482.5" font-family="Helvetica,sans-Serif" font-size="10.00">* allocate()</text>
<text text-anchor="start" x="133.5" y="-1471.5" font-family="Helvetica,sans-Serif" font-size="10.00">* deallocate()</text>
<text text-anchor="start" x="133.5" y="-1460.5" font-family="Helvetica,sans-Serif" font-size="10.00">* allocate()</text>
<text text-anchor="start" x="133.5" y="-1449.5" font-family="Helvetica,sans-Serif" font-size="10.00">* deallocate()</text>
<text text-anchor="start" x="133.5" y="-1438.5" font-family="Helvetica,sans-Serif" font-size="10.00">* MemoryManager()</text>
<text text-anchor="start" x="133.5" y="-1427.5" font-family="Helvetica,sans-Serif" font-size="10.00">* MemoryManager()</text>
<text text-anchor="start" x="133.5" y="-1416.5" font-family="Helvetica,sans-Serif" font-size="10.00">* MemoryManager()</text>
<text text-anchor="start" x="133.5" y="-1405.5" font-family="Helvetica,sans-Serif" font-size="10.00">* MemoryManager()</text>
<text text-anchor="start" x="133.5" y="-1394.5" font-family="Helvetica,sans-Serif" font-size="10.00">* operator=()</text>
<text text-anchor="start" x="133.5" y="-1383.5" font-family="Helvetica,sans-Serif" font-size="10.00">* MemoryManager()</text>
<text text-anchor="start" x="133.5" y="-1372.5" font-family="Helvetica,sans-Serif" font-size="10.00">* operator=()</text>
<text text-anchor="start" x="133.5" y="-1361.5" font-family="Helvetica,sans-Serif" font-size="10.00">* MemoryManager()</text>
<text text-anchor="start" x="133.5" y="-1350.5" font-family="Helvetica,sans-Serif" font-size="10.00">* operator=()</text>
</a>
</g>
</g>
<!-- Node4&#45;&gt;Node1 -->
<g id="edge7" class="edge">
<title>Node4&#45;&gt;Node1</title>
<path fill="none" stroke="#404040" d="M257.51,-1343.38C258.25,-1337.19 258.92,-1331.06 259.5,-1325 259.97,-1320.13 260.16,-1318.84 259.5,-1314 258.38,-1305.77 255.94,-1304.18 254.5,-1296 248.56,-1262.18 238.06,-1136.18 227.38,-993.63"/>
<polygon fill="none" stroke="#404040" points="227.37,-993.53 222.93,-987.85 226.48,-981.57 230.91,-987.25 227.37,-993.53"/>
<text text-anchor="middle" x="301.5" y="-1160" font-family="Helvetica,sans-Serif" font-size="10.00"> &#45;fMemoryManager</text>
</g>
<!-- Node4&#45;&gt;Node5 -->
<g id="edge15" class="edge">
<title>Node4&#45;&gt;Node5</title>
<path fill="none" stroke="#404040" d="M168.56,-1343.37C167.48,-1337.19 166.45,-1331.06 165.5,-1325 164.62,-1319.39 163.79,-1313.66 163,-1307.86"/>
<polygon fill="none" stroke="#404040" points="162.99,-1307.79 158.26,-1302.35 161.47,-1295.89 166.2,-1301.33 162.99,-1307.79"/>
<text text-anchor="middle" x="212.5" y="-1317" font-family="Helvetica,sans-Serif" font-size="10.00"> &#45;fMemoryManager</text>
</g>
<!-- Node5&#45;&gt;Node1 -->
<g id="edge8" class="edge">
<title>Node5&#45;&gt;Node1</title>
<path fill="none" stroke="#404040" d="M145.93,-1029.37C145.77,-1023.16 145.62,-1017.01 145.5,-1011 145.38,-1005.23 145.3,-999.42 145.26,-993.58"/>
<polygon fill="none" stroke="#404040" points="145.26,-993.56 141.23,-987.57 145.21,-981.56 149.23,-987.54 145.26,-993.56"/>
<text text-anchor="middle" x="186" y="-1003" font-family="Helvetica,sans-Serif" font-size="10.00"> &#45;fElementName</text>
</g>
</g>
</svg>
        <g id="navigator" transform="translate(0 0)" fill="#404254">
                <rect fill="#f2f5e9" fill-opacity="0.5" stroke="#606060" stroke-width=".5" x="0" y="0" width="60" height="60"/>
                <use id="zoomplus" xlink:href="#zoomPlus" x="17" y="9" onmousedown="handleZoom(evt,'in')"/>
                <use id="zoomminus" xlink:href="#zoomMin" x="42" y="9" onmousedown="handleZoom(evt,'out')"/>
                <use id="reset" xlink:href="#resetDef" x="30" y="36" onmousedown="handleReset()"/>
                <g id="arrowUp" xlink:href="#dirArrow" transform="translate(30 24)" onmousedown="handlePan(0,-1)">
                  <use xlink:href="#rim" fill="#404040">
                        <set attributeName="fill" to="#808080" begin="arrowUp.mouseover" end="arrowUp.mouseout"/>
                  </use>
                  <path fill="none" stroke="white" stroke-width="1.5" d="M0,-3.0v7 M-2.5,-0.5L0,-3.0L2.5,-0.5"/>
                </g>
                <g id="arrowRight" xlink:href="#dirArrow" transform="rotate(90) translate(36 -43)" onmousedown="handlePan(1,0)">
                  <use xlink:href="#rim" fill="#404040">
                        <set attributeName="fill" to="#808080" begin="arrowRight.mouseover" end="arrowRight.mouseout"/>
                  </use>
                  <path fill="none" stroke="white" stroke-width="1.5" d="M0,-3.0v7 M-2.5,-0.5L0,-3.0L2.5,-0.5"/>
                </g>
                <g id="arrowDown" xlink:href="#dirArrow" transform="rotate(180) translate(-30 -48)" onmousedown="handlePan(0,1)">
                  <use xlink:href="#rim" fill="#404040">
                        <set attributeName="fill" to="#808080" begin="arrowDown.mouseover" end="arrowDown.mouseout"/>
                  </use>
                  <path fill="none" stroke="white" stroke-width="1.5" d="M0,-3.0v7 M-2.5,-0.5L0,-3.0L2.5,-0.5"/>
                </g>
                <g id="arrowLeft" xlink:href="#dirArrow" transform="rotate(270) translate(-36 17)" onmousedown="handlePan(-1,0)">
                  <use xlink:href="#rim" fill="#404040">
                        <set attributeName="fill" to="#808080" begin="arrowLeft.mouseover" end="arrowLeft.mouseout"/>
                  </use>
                  <path fill="none" stroke="white" stroke-width="1.5" d="M0,-3.0v7 M-2.5,-0.5L0,-3.0L2.5,-0.5"/>
                </g>
        </g>
        <svg viewBox="0 0 15 15" width="100%" height="30px" preserveAspectRatio="xMaxYMin meet">
         <g id="arrow_out" transform="scale(0.3 0.3)">
          <a xlink:href="classXMLElementDecl__coll__graph_org.svg" target="_base">
           <rect id="button" ry="5" rx="5" y="6" x="6" height="38" width="38"
                fill="#f2f5e9" fill-opacity="0.5" stroke="#606060" stroke-width="1.0"/>
           <path id="arrow"
             d="M 11.500037,31.436501 C 11.940474,20.09759 22.043105,11.32322 32.158766,21.979434 L 37.068811,17.246167 C 37.068811,17.246167 37.088388,32 37.088388,32 L 22.160133,31.978069 C 22.160133,31.978069 26.997745,27.140456 26.997745,27.140456 C 18.528582,18.264221 13.291696,25.230495 11.500037,31.436501 z"
             style="fill:#404040;"/>
          </a>
         </g>
        </svg>
</svg>
