<?xml version="1.0" encoding="UTF-8" standalone="no"?>
<!DOCTYPE svg PUBLIC "-//W3C//DTD SVG 1.1//EN"
 "http://www.w3.org/Graphics/SVG/1.1/DTD/svg11.dtd">
<!-- Generated by graphviz version 2.43.0 (0)
 -->
<!-- Title: ShowDoublePointName Pages: 1 -->
<!--zoomable 1840 -->
<svg id="main" version="1.1" xmlns="http://www.w3.org/2000/svg" xmlns:xlink="http://www.w3.org/1999/xlink" xml:space="preserve" onload="init(evt)">
<style type="text/css"><![CDATA[
.edge:hover path { stroke: red; }
.edge:hover polygon { stroke: red; fill: red; }
]]></style>
<script type="text/javascript"><![CDATA[
var edges = document.getElementsByTagName('g');
if (edges && edges.length) {
  for (var i=0;i<edges.length;i++) {
    if (edges[i].id.substr(0,4)=='edge') {
      edges[i].setAttribute('class','edge');
    }
  }
}
]]></script>
        <defs>
                <circle id="rim" cx="0" cy="0" r="7"/>
                <circle id="rim2" cx="0" cy="0" r="3.5"/>
                <g id="zoomPlus">
                        <use xlink:href="#rim" fill="#404040">
                                <set attributeName="fill" to="#808080" begin="zoomplus.mouseover" end="zoomplus.mouseout"/>
                        </use>
                        <path d="M-4,0h8M0,-4v8" fill="none" stroke="white" stroke-width="1.5" pointer-events="none"/>
                </g>
                <g id="zoomMin">
                        <use xlink:href="#rim" fill="#404040">
                                <set attributeName="fill" to="#808080" begin="zoomminus.mouseover" end="zoomminus.mouseout"/>
                        </use>
                        <path d="M-4,0h8" fill="none" stroke="white" stroke-width="1.5" pointer-events="none"/>
                </g>
                <g id="dirArrow">
                        <path fill="none" stroke="white" stroke-width="1.5" d="M0,-3.0v7 M-2.5,-0.5L0,-3.0L2.5,-0.5"/>
                </g>
               <g id="resetDef">
                       <use xlink:href="#rim2" fill="#404040">
                               <set attributeName="fill" to="#808080" begin="reset.mouseover" end="reset.mouseout"/>
                       </use>
               </g>
        </defs>

<script type="text/javascript">
var viewWidth = 933;
var viewHeight = 1840;
var sectionId = 'dynsection-1';
</script>
<script xlink:href="../../svgpan.js"/>
<svg id="graph" class="graph">
<g id="viewport">
<title>ShowDoublePointName</title>
<polygon fill="white" stroke="transparent" points="-4,4 -4,-1836 928.5,-1836 928.5,4 -4,4"/>
<!-- Node1 -->
<g id="node1" class="node">
<title>Node1</title>
<g id="a_node1"><a xlink:title=" ">
<polygon fill="#bfbfbf" stroke="black" points="257,-0.5 257,-145.5 415,-145.5 415,-0.5 257,-0.5"/>
<text text-anchor="middle" x="336" y="-133.5" font-family="Helvetica,sans-Serif" font-size="10.00">ShowDoublePointName</text>
<polyline fill="none" stroke="black" points="257,-126.5 415,-126.5 "/>
<text text-anchor="start" x="265" y="-114.5" font-family="Helvetica,sans-Serif" font-size="10.00">&#45; m_visible</text>
<text text-anchor="start" x="265" y="-103.5" font-family="Helvetica,sans-Serif" font-size="10.00">&#45; m_oldVisible</text>
<text text-anchor="start" x="265" y="-92.5" font-family="Helvetica,sans-Serif" font-size="10.00">&#45; m_scene</text>
<text text-anchor="start" x="265" y="-81.5" font-family="Helvetica,sans-Serif" font-size="10.00">&#45; m_type</text>
<text text-anchor="start" x="265" y="-70.5" font-family="Helvetica,sans-Serif" font-size="10.00">&#45; m_idTool</text>
<polyline fill="none" stroke="black" points="257,-63.5 415,-63.5 "/>
<text text-anchor="start" x="265" y="-51.5" font-family="Helvetica,sans-Serif" font-size="10.00">+ ShowDoublePointName()</text>
<text text-anchor="start" x="265" y="-40.5" font-family="Helvetica,sans-Serif" font-size="10.00">+ ~ShowDoublePointName()</text>
<text text-anchor="start" x="265" y="-29.5" font-family="Helvetica,sans-Serif" font-size="10.00">+ undo()</text>
<text text-anchor="start" x="265" y="-18.5" font-family="Helvetica,sans-Serif" font-size="10.00">+ redo()</text>
<text text-anchor="start" x="265" y="-7.5" font-family="Helvetica,sans-Serif" font-size="10.00">&#45; setVisibility()</text>
</a>
</g>
</g>
<!-- Node2 -->
<g id="node2" class="node">
<title>Node2</title>
<g id="a_node2"><a xlink:href="../../de/d04/classVUndoCommand.html" target="_top" xlink:title=" ">
<polygon fill="white" stroke="black" points="261.5,-183.5 261.5,-372.5 410.5,-372.5 410.5,-183.5 261.5,-183.5"/>
<text text-anchor="middle" x="336" y="-360.5" font-family="Helvetica,sans-Serif" font-size="10.00">VUndoCommand</text>
<polyline fill="none" stroke="black" points="261.5,-353.5 410.5,-353.5 "/>
<text text-anchor="start" x="269.5" y="-341.5" font-family="Helvetica,sans-Serif" font-size="10.00"># xml</text>
<text text-anchor="start" x="269.5" y="-330.5" font-family="Helvetica,sans-Serif" font-size="10.00"># nodeId</text>
<text text-anchor="start" x="269.5" y="-319.5" font-family="Helvetica,sans-Serif" font-size="10.00"># redoFlag</text>
<polyline fill="none" stroke="black" points="261.5,-312.5 410.5,-312.5 "/>
<text text-anchor="start" x="269.5" y="-300.5" font-family="Helvetica,sans-Serif" font-size="10.00">+ VUndoCommand()</text>
<text text-anchor="start" x="269.5" y="-289.5" font-family="Helvetica,sans-Serif" font-size="10.00">+ ~VUndoCommand()</text>
<text text-anchor="start" x="269.5" y="-278.5" font-family="Helvetica,sans-Serif" font-size="10.00"># RedoFullParsing()</text>
<text text-anchor="start" x="269.5" y="-267.5" font-family="Helvetica,sans-Serif" font-size="10.00"># UndoDeleteAfterSibling()</text>
<text text-anchor="start" x="269.5" y="-256.5" font-family="Helvetica,sans-Serif" font-size="10.00"># IncrementReferences()</text>
<text text-anchor="start" x="269.5" y="-245.5" font-family="Helvetica,sans-Serif" font-size="10.00"># DecrementReferences()</text>
<text text-anchor="start" x="269.5" y="-234.5" font-family="Helvetica,sans-Serif" font-size="10.00"># IncrementReferences()</text>
<text text-anchor="start" x="269.5" y="-223.5" font-family="Helvetica,sans-Serif" font-size="10.00"># DecrementReferences()</text>
<text text-anchor="start" x="269.5" y="-212.5" font-family="Helvetica,sans-Serif" font-size="10.00"># IncrementReferences()</text>
<text text-anchor="start" x="269.5" y="-201.5" font-family="Helvetica,sans-Serif" font-size="10.00"># DecrementReferences()</text>
<text text-anchor="start" x="269.5" y="-190.5" font-family="Helvetica,sans-Serif" font-size="10.00"># getDestinationObject()</text>
</a>
</g>
</g>
<!-- Node2&#45;&gt;Node1 -->
<g id="edge1" class="edge">
<title>Node2&#45;&gt;Node1</title>
<path fill="none" stroke="midnightblue" d="M336,-173.11C336,-163.78 336,-154.47 336,-145.51"/>
<polygon fill="none" stroke="midnightblue" points="332.5,-173.22 336,-183.22 339.5,-173.22 332.5,-173.22"/>
</g>
<!-- Node3 -->
<g id="node3" class="node">
<title>Node3</title>
<g id="a_node3"><a xlink:title=" ">
<polygon fill="white" stroke="#bfbfbf" points="0,-1466 0,-1523 56,-1523 56,-1466 0,-1466"/>
<text text-anchor="middle" x="28" y="-1511" font-family="Helvetica,sans-Serif" font-size="10.00">QObject</text>
<polyline fill="none" stroke="#bfbfbf" points="0,-1504 56,-1504 "/>
<text text-anchor="middle" x="28" y="-1492" font-family="Helvetica,sans-Serif" font-size="10.00"> </text>
<polyline fill="none" stroke="#bfbfbf" points="0,-1485 56,-1485 "/>
<text text-anchor="middle" x="28" y="-1473" font-family="Helvetica,sans-Serif" font-size="10.00"> </text>
</a>
</g>
</g>
<!-- Node3&#45;&gt;Node2 -->
<g id="edge2" class="edge">
<title>Node3&#45;&gt;Node2</title>
<path fill="none" stroke="midnightblue" d="M33.38,-1455.9C40.09,-1410.01 52.25,-1330.11 65,-1262 135.45,-885.77 100.5,-774.04 246,-420 252.51,-404.15 260.8,-388.12 269.71,-372.83"/>
<polygon fill="none" stroke="midnightblue" points="29.89,-1455.58 31.91,-1465.98 36.82,-1456.59 29.89,-1455.58"/>
</g>
<!-- Node5 -->
<g id="node5" class="node">
<title>Node5</title>
<g id="a_node5"><a xlink:href="../../d8/dba/classVAbstractPattern.html" target="_top" xlink:title=" ">
<polygon fill="white" stroke="black" points="255,-420.5 255,-1214.5 417,-1214.5 417,-420.5 255,-420.5"/>
<text text-anchor="middle" x="336" y="-1202.5" font-family="Helvetica,sans-Serif" font-size="10.00">VAbstractPattern</text>
<polyline fill="none" stroke="black" points="255,-1195.5 417,-1195.5 "/>
<text text-anchor="start" x="263" y="-1183.5" font-family="Helvetica,sans-Serif" font-size="10.00">+ TagPattern</text>
<text text-anchor="start" x="263" y="-1172.5" font-family="Helvetica,sans-Serif" font-size="10.00">+ TagCalculation</text>
<text text-anchor="start" x="263" y="-1161.5" font-family="Helvetica,sans-Serif" font-size="10.00">+ TagModeling</text>
<text text-anchor="start" x="263" y="-1150.5" font-family="Helvetica,sans-Serif" font-size="10.00">+ TagPieces</text>
<text text-anchor="start" x="263" y="-1139.5" font-family="Helvetica,sans-Serif" font-size="10.00">+ TagPiece</text>
<text text-anchor="start" x="263" y="-1128.5" font-family="Helvetica,sans-Serif" font-size="10.00">+ TagDescription</text>
<text text-anchor="start" x="263" y="-1117.5" font-family="Helvetica,sans-Serif" font-size="10.00">+ TagImage</text>
<text text-anchor="start" x="263" y="-1106.5" font-family="Helvetica,sans-Serif" font-size="10.00">+ TagNotes</text>
<text text-anchor="start" x="263" y="-1095.5" font-family="Helvetica,sans-Serif" font-size="10.00">+ TagMeasurements</text>
<text text-anchor="start" x="263" y="-1084.5" font-family="Helvetica,sans-Serif" font-size="10.00">+ TagIncrements</text>
<text text-anchor="start" x="263" y="-1073.5" font-family="Helvetica,sans-Serif" font-size="10.00">and 128 more...</text>
<text text-anchor="start" x="263" y="-1062.5" font-family="Helvetica,sans-Serif" font-size="10.00"># activeDraftBlock</text>
<text text-anchor="start" x="263" y="-1051.5" font-family="Helvetica,sans-Serif" font-size="10.00"># m_DefaultLineColor</text>
<text text-anchor="start" x="263" y="-1040.5" font-family="Helvetica,sans-Serif" font-size="10.00"># m_DefaultLineWeight</text>
<text text-anchor="start" x="263" y="-1029.5" font-family="Helvetica,sans-Serif" font-size="10.00"># m_DefaultLineType</text>
<text text-anchor="start" x="263" y="-1018.5" font-family="Helvetica,sans-Serif" font-size="10.00"># lastSavedExportFormat</text>
<text text-anchor="start" x="263" y="-1007.5" font-family="Helvetica,sans-Serif" font-size="10.00"># cursor</text>
<text text-anchor="start" x="263" y="-996.5" font-family="Helvetica,sans-Serif" font-size="10.00"># patternPieces</text>
<text text-anchor="start" x="263" y="-985.5" font-family="Helvetica,sans-Serif" font-size="10.00"># modified</text>
<text text-anchor="start" x="263" y="-974.5" font-family="Helvetica,sans-Serif" font-size="10.00"># patternLabelWasChanged</text>
<polyline fill="none" stroke="black" points="255,-967.5 417,-967.5 "/>
<text text-anchor="start" x="263" y="-955.5" font-family="Helvetica,sans-Serif" font-size="10.00">+ VAbstractPattern()</text>
<text text-anchor="start" x="263" y="-944.5" font-family="Helvetica,sans-Serif" font-size="10.00">+ ~VAbstractPattern()</text>
<text text-anchor="start" x="263" y="-933.5" font-family="Helvetica,sans-Serif" font-size="10.00">+ ListMeasurements()</text>
<text text-anchor="start" x="263" y="-922.5" font-family="Helvetica,sans-Serif" font-size="10.00">+ ListExpressions()</text>
<text text-anchor="start" x="263" y="-911.5" font-family="Helvetica,sans-Serif" font-size="10.00">+ ListIncrementExpressions()</text>
<text text-anchor="start" x="263" y="-900.5" font-family="Helvetica,sans-Serif" font-size="10.00">+ CreateEmptyFile()</text>
<text text-anchor="start" x="263" y="-889.5" font-family="Helvetica,sans-Serif" font-size="10.00">+ changeActiveDraftBlock()</text>
<text text-anchor="start" x="263" y="-878.5" font-family="Helvetica,sans-Serif" font-size="10.00">+ getActiveDraftBlockName()</text>
<text text-anchor="start" x="263" y="-867.5" font-family="Helvetica,sans-Serif" font-size="10.00">+ draftBlockNameExists()</text>
<text text-anchor="start" x="263" y="-856.5" font-family="Helvetica,sans-Serif" font-size="10.00">+ draftBlockCount()</text>
<text text-anchor="start" x="263" y="-845.5" font-family="Helvetica,sans-Serif" font-size="10.00">and 89 more...</text>
<text text-anchor="start" x="263" y="-834.5" font-family="Helvetica,sans-Serif" font-size="10.00">+ getTool()</text>
<text text-anchor="start" x="263" y="-823.5" font-family="Helvetica,sans-Serif" font-size="10.00">+ AddTool()</text>
<text text-anchor="start" x="263" y="-812.5" font-family="Helvetica,sans-Serif" font-size="10.00">+ RemoveTool()</text>
<text text-anchor="start" x="263" y="-801.5" font-family="Helvetica,sans-Serif" font-size="10.00">+ ParsePieceNodes()</text>
<text text-anchor="start" x="263" y="-790.5" font-family="Helvetica,sans-Serif" font-size="10.00">+ ParsePieceCSARecords()</text>
<text text-anchor="start" x="263" y="-779.5" font-family="Helvetica,sans-Serif" font-size="10.00">+ ParsePieceInternalPaths()</text>
<text text-anchor="start" x="263" y="-768.5" font-family="Helvetica,sans-Serif" font-size="10.00">+ ParsePieceAnchors()</text>
<text text-anchor="start" x="263" y="-757.5" font-family="Helvetica,sans-Serif" font-size="10.00">+ LiteParseTree()</text>
<text text-anchor="start" x="263" y="-746.5" font-family="Helvetica,sans-Serif" font-size="10.00">+ haveLiteChange()</text>
<text text-anchor="start" x="263" y="-735.5" font-family="Helvetica,sans-Serif" font-size="10.00">+ NeedFullParsing()</text>
<text text-anchor="start" x="263" y="-724.5" font-family="Helvetica,sans-Serif" font-size="10.00">+ ClearScene()</text>
<text text-anchor="start" x="263" y="-713.5" font-family="Helvetica,sans-Serif" font-size="10.00">+ updatePieceList()</text>
<text text-anchor="start" x="263" y="-702.5" font-family="Helvetica,sans-Serif" font-size="10.00">+ selectedPiece()</text>
<text text-anchor="start" x="263" y="-691.5" font-family="Helvetica,sans-Serif" font-size="10.00"># setActiveDraftBlock()</text>
<text text-anchor="start" x="263" y="-680.5" font-family="Helvetica,sans-Serif" font-size="10.00"># CheckTagExists()</text>
<text text-anchor="start" x="263" y="-669.5" font-family="Helvetica,sans-Serif" font-size="10.00"># InsertTag()</text>
<text text-anchor="start" x="263" y="-658.5" font-family="Helvetica,sans-Serif" font-size="10.00"># SetChildTag()</text>
<text text-anchor="start" x="263" y="-647.5" font-family="Helvetica,sans-Serif" font-size="10.00"># getActiveDraftBlockIndex()</text>
<text text-anchor="start" x="263" y="-636.5" font-family="Helvetica,sans-Serif" font-size="10.00"># getActiveDraftElement()</text>
<text text-anchor="start" x="263" y="-625.5" font-family="Helvetica,sans-Serif" font-size="10.00"># hasGroupItem()</text>
<text text-anchor="start" x="263" y="-614.5" font-family="Helvetica,sans-Serif" font-size="10.00"># ToolExists()</text>
<text text-anchor="start" x="263" y="-603.5" font-family="Helvetica,sans-Serif" font-size="10.00"># ParsePathNodes()</text>
<text text-anchor="start" x="263" y="-592.5" font-family="Helvetica,sans-Serif" font-size="10.00"># ParseSANode()</text>
<text text-anchor="start" x="263" y="-581.5" font-family="Helvetica,sans-Serif" font-size="10.00">&#45; ListIncrements()</text>
<text text-anchor="start" x="263" y="-570.5" font-family="Helvetica,sans-Serif" font-size="10.00">&#45; ListPointExpressions()</text>
<text text-anchor="start" x="263" y="-559.5" font-family="Helvetica,sans-Serif" font-size="10.00">&#45; ListArcExpressions()</text>
<text text-anchor="start" x="263" y="-548.5" font-family="Helvetica,sans-Serif" font-size="10.00">&#45; ListElArcExpressions()</text>
<text text-anchor="start" x="263" y="-537.5" font-family="Helvetica,sans-Serif" font-size="10.00">&#45; ListSplineExpressions()</text>
<text text-anchor="start" x="263" y="-526.5" font-family="Helvetica,sans-Serif" font-size="10.00">&#45; ListPathPointExpressions()</text>
<text text-anchor="start" x="263" y="-515.5" font-family="Helvetica,sans-Serif" font-size="10.00">&#45; ListOperationExpressions()</text>
<text text-anchor="start" x="263" y="-504.5" font-family="Helvetica,sans-Serif" font-size="10.00">&#45; ListNodesExpressions()</text>
<text text-anchor="start" x="263" y="-493.5" font-family="Helvetica,sans-Serif" font-size="10.00">&#45; ListPathExpressions()</text>
<text text-anchor="start" x="263" y="-482.5" font-family="Helvetica,sans-Serif" font-size="10.00">&#45; ListGrainlineExpressions()</text>
<text text-anchor="start" x="263" y="-471.5" font-family="Helvetica,sans-Serif" font-size="10.00">&#45; ListPieceExpressions()</text>
<text text-anchor="start" x="263" y="-460.5" font-family="Helvetica,sans-Serif" font-size="10.00">&#45; IsVariable()</text>
<text text-anchor="start" x="263" y="-449.5" font-family="Helvetica,sans-Serif" font-size="10.00">&#45; IsPostfixOperator()</text>
<text text-anchor="start" x="263" y="-438.5" font-family="Helvetica,sans-Serif" font-size="10.00">&#45; IsFunction()</text>
<text text-anchor="start" x="263" y="-427.5" font-family="Helvetica,sans-Serif" font-size="10.00">&#45; ParseItemElement()</text>
</a>
</g>
</g>
<!-- Node3&#45;&gt;Node5 -->
<g id="edge5" class="edge">
<title>Node3&#45;&gt;Node5</title>
<path fill="none" stroke="midnightblue" d="M21.95,-1455.85C16.06,-1404.58 14.27,-1313.31 65,-1262 98.29,-1228.33 133.31,-1273.93 170,-1244 205.25,-1215.24 233.04,-1178 254.94,-1137.52"/>
<polygon fill="none" stroke="midnightblue" points="18.49,-1456.37 23.22,-1465.85 25.44,-1455.5 18.49,-1456.37"/>
</g>
<!-- Node4 -->
<g id="node4" class="node">
<title>Node4</title>
<g id="a_node4"><a xlink:title=" ">
<polygon fill="white" stroke="#bfbfbf" points="435,-789 435,-846 535,-846 535,-789 435,-789"/>
<text text-anchor="middle" x="485" y="-834" font-family="Helvetica,sans-Serif" font-size="10.00">QUndoCommand</text>
<polyline fill="none" stroke="#bfbfbf" points="435,-827 535,-827 "/>
<text text-anchor="middle" x="485" y="-815" font-family="Helvetica,sans-Serif" font-size="10.00"> </text>
<polyline fill="none" stroke="#bfbfbf" points="435,-808 535,-808 "/>
<text text-anchor="middle" x="485" y="-796" font-family="Helvetica,sans-Serif" font-size="10.00"> </text>
</a>
</g>
</g>
<!-- Node4&#45;&gt;Node2 -->
<g id="edge3" class="edge">
<title>Node4&#45;&gt;Node2</title>
<path fill="none" stroke="midnightblue" d="M484.56,-778.17C482.61,-705.84 472.84,-545.24 426,-420 420.05,-404.09 412.12,-388.08 403.42,-372.86"/>
<polygon fill="none" stroke="midnightblue" points="481.07,-778.68 484.81,-788.59 488.07,-778.51 481.07,-778.68"/>
</g>
<!-- Node5&#45;&gt;Node2 -->
<g id="edge4" class="edge">
<title>Node5&#45;&gt;Node2</title>
<path fill="none" stroke="#404040" d="M336,-420.22C336,-407.99 336,-396.22 336,-385.04"/>
<polygon fill="none" stroke="#404040" points="336,-384.69 332,-378.69 336,-372.69 340,-378.69 336,-384.69"/>
<text text-anchor="middle" x="350.5" y="-394" font-family="Helvetica,sans-Serif" font-size="10.00"> #doc</text>
</g>
<!-- Node6 -->
<g id="node6" class="node">
<title>Node6</title>
<g id="a_node6"><a xlink:href="../../d6/deb/classVDomDocument.html" target="_top" xlink:title="The VDomDocument class represents a Seamly2D document (.val file).">
<polygon fill="white" stroke="black" points="74.5,-1262.5 74.5,-1726.5 231.5,-1726.5 231.5,-1262.5 74.5,-1262.5"/>
<text text-anchor="middle" x="153" y="-1714.5" font-family="Helvetica,sans-Serif" font-size="10.00">VDomDocument</text>
<polyline fill="none" stroke="black" points="74.5,-1707.5 231.5,-1707.5 "/>
<text text-anchor="start" x="82.5" y="-1695.5" font-family="Helvetica,sans-Serif" font-size="10.00">+ AttrId</text>
<text text-anchor="start" x="82.5" y="-1684.5" font-family="Helvetica,sans-Serif" font-size="10.00">+ AttrText</text>
<text text-anchor="start" x="82.5" y="-1673.5" font-family="Helvetica,sans-Serif" font-size="10.00">+ AttrBold</text>
<text text-anchor="start" x="82.5" y="-1662.5" font-family="Helvetica,sans-Serif" font-size="10.00">+ AttrItalic</text>
<text text-anchor="start" x="82.5" y="-1651.5" font-family="Helvetica,sans-Serif" font-size="10.00">+ AttrAlignment</text>
<text text-anchor="start" x="82.5" y="-1640.5" font-family="Helvetica,sans-Serif" font-size="10.00">+ AttrFSIncrement</text>
<text text-anchor="start" x="82.5" y="-1629.5" font-family="Helvetica,sans-Serif" font-size="10.00">+ TagVersion</text>
<text text-anchor="start" x="82.5" y="-1618.5" font-family="Helvetica,sans-Serif" font-size="10.00">+ TagUnit</text>
<text text-anchor="start" x="82.5" y="-1607.5" font-family="Helvetica,sans-Serif" font-size="10.00">+ TagLine</text>
<polyline fill="none" stroke="black" points="74.5,-1600.5 231.5,-1600.5 "/>
<text text-anchor="start" x="82.5" y="-1588.5" font-family="Helvetica,sans-Serif" font-size="10.00">+ VDomDocument()</text>
<text text-anchor="start" x="82.5" y="-1577.5" font-family="Helvetica,sans-Serif" font-size="10.00">+ ~VDomDocument()</text>
<text text-anchor="start" x="82.5" y="-1566.5" font-family="Helvetica,sans-Serif" font-size="10.00">+ elementById()</text>
<text text-anchor="start" x="82.5" y="-1555.5" font-family="Helvetica,sans-Serif" font-size="10.00">+ SetAttribute()</text>
<text text-anchor="start" x="82.5" y="-1544.5" font-family="Helvetica,sans-Serif" font-size="10.00">+ MUnit()</text>
<text text-anchor="start" x="82.5" y="-1533.5" font-family="Helvetica,sans-Serif" font-size="10.00">+ setXMLContent()</text>
<text text-anchor="start" x="82.5" y="-1522.5" font-family="Helvetica,sans-Serif" font-size="10.00">+ SaveDocument()</text>
<text text-anchor="start" x="82.5" y="-1511.5" font-family="Helvetica,sans-Serif" font-size="10.00">+ Major()</text>
<text text-anchor="start" x="82.5" y="-1500.5" font-family="Helvetica,sans-Serif" font-size="10.00">+ Minor()</text>
<text text-anchor="start" x="82.5" y="-1489.5" font-family="Helvetica,sans-Serif" font-size="10.00">+ Patch()</text>
<text text-anchor="start" x="82.5" y="-1478.5" font-family="Helvetica,sans-Serif" font-size="10.00">and 8 more...</text>
<text text-anchor="start" x="82.5" y="-1467.5" font-family="Helvetica,sans-Serif" font-size="10.00">+ GetParametrUInt()</text>
<text text-anchor="start" x="82.5" y="-1456.5" font-family="Helvetica,sans-Serif" font-size="10.00">+ getParameterBool()</text>
<text text-anchor="start" x="82.5" y="-1445.5" font-family="Helvetica,sans-Serif" font-size="10.00">+ GetParametrUsage()</text>
<text text-anchor="start" x="82.5" y="-1434.5" font-family="Helvetica,sans-Serif" font-size="10.00">+ SetParametrUsage()</text>
<text text-anchor="start" x="82.5" y="-1423.5" font-family="Helvetica,sans-Serif" font-size="10.00">+ GetParametrString()</text>
<text text-anchor="start" x="82.5" y="-1412.5" font-family="Helvetica,sans-Serif" font-size="10.00">+ GetParametrEmptyString()</text>
<text text-anchor="start" x="82.5" y="-1401.5" font-family="Helvetica,sans-Serif" font-size="10.00">+ GetParametrDouble()</text>
<text text-anchor="start" x="82.5" y="-1390.5" font-family="Helvetica,sans-Serif" font-size="10.00">+ getParameterId()</text>
<text text-anchor="start" x="82.5" y="-1379.5" font-family="Helvetica,sans-Serif" font-size="10.00">+ ValidateXML()</text>
<text text-anchor="start" x="82.5" y="-1368.5" font-family="Helvetica,sans-Serif" font-size="10.00">+ UnitsHelpString()</text>
<text text-anchor="start" x="82.5" y="-1357.5" font-family="Helvetica,sans-Serif" font-size="10.00">+ RemoveAllChildren()</text>
<text text-anchor="start" x="82.5" y="-1346.5" font-family="Helvetica,sans-Serif" font-size="10.00">+ SafeCopy()</text>
<text text-anchor="start" x="82.5" y="-1335.5" font-family="Helvetica,sans-Serif" font-size="10.00"># setTagText()</text>
<text text-anchor="start" x="82.5" y="-1324.5" font-family="Helvetica,sans-Serif" font-size="10.00"># setTagText()</text>
<text text-anchor="start" x="82.5" y="-1313.5" font-family="Helvetica,sans-Serif" font-size="10.00"># UniqueTagText()</text>
<text text-anchor="start" x="82.5" y="-1302.5" font-family="Helvetica,sans-Serif" font-size="10.00"># TestUniqueId()</text>
<text text-anchor="start" x="82.5" y="-1291.5" font-family="Helvetica,sans-Serif" font-size="10.00"># CollectId()</text>
<text text-anchor="start" x="82.5" y="-1280.5" font-family="Helvetica,sans-Serif" font-size="10.00">&#45; find()</text>
<text text-anchor="start" x="82.5" y="-1269.5" font-family="Helvetica,sans-Serif" font-size="10.00">&#45; SaveCanonicalXML()</text>
</a>
</g>
</g>
<!-- Node6&#45;&gt;Node5 -->
<g id="edge6" class="edge">
<title>Node6&#45;&gt;Node5</title>
<path fill="none" stroke="midnightblue" d="M218.4,-1252.28C230.23,-1208.62 242.71,-1162.62 254.93,-1117.54"/>
<polygon fill="none" stroke="midnightblue" points="214.96,-1251.58 215.72,-1262.15 221.72,-1253.41 214.96,-1251.58"/>
</g>
<!-- Node7 -->
<g id="node7" class="node">
<title>Node7</title>
<g id="a_node7"><a xlink:title=" ">
<polygon fill="white" stroke="#bfbfbf" points="24,-1774.5 24,-1831.5 122,-1831.5 122,-1774.5 24,-1774.5"/>
<text text-anchor="middle" x="73" y="-1819.5" font-family="Helvetica,sans-Serif" font-size="10.00">QDomDocument</text>
<polyline fill="none" stroke="#bfbfbf" points="24,-1812.5 122,-1812.5 "/>
<text text-anchor="middle" x="73" y="-1800.5" font-family="Helvetica,sans-Serif" font-size="10.00"> </text>
<polyline fill="none" stroke="#bfbfbf" points="24,-1793.5 122,-1793.5 "/>
<text text-anchor="middle" x="73" y="-1781.5" font-family="Helvetica,sans-Serif" font-size="10.00"> </text>
</a>
</g>
</g>
<!-- Node7&#45;&gt;Node6 -->
<g id="edge7" class="edge">
<title>Node7&#45;&gt;Node6</title>
<path fill="none" stroke="midnightblue" d="M82.82,-1764.38C85.67,-1753.45 89.01,-1740.65 92.66,-1726.67"/>
<polygon fill="none" stroke="midnightblue" points="79.38,-1763.7 80.24,-1774.26 86.15,-1765.47 79.38,-1763.7"/>
</g>
<!-- Node8 -->
<g id="node8" class="node">
<title>Node8</title>
<g id="a_node8"><a xlink:href="../../da/da1/classQHash.html" target="_top" xlink:title=" ">
<polygon fill="white" stroke="black" points="140.5,-1774.5 140.5,-1831.5 325.5,-1831.5 325.5,-1774.5 140.5,-1774.5"/>
<text text-anchor="middle" x="233" y="-1819.5" font-family="Helvetica,sans-Serif" font-size="10.00">QHash&lt; quint32, QDomElement &gt;</text>
<polyline fill="none" stroke="black" points="140.5,-1812.5 325.5,-1812.5 "/>
<text text-anchor="middle" x="233" y="-1800.5" font-family="Helvetica,sans-Serif" font-size="10.00"> </text>
<polyline fill="none" stroke="black" points="140.5,-1793.5 325.5,-1793.5 "/>
<text text-anchor="middle" x="233" y="-1781.5" font-family="Helvetica,sans-Serif" font-size="10.00"> </text>
</a>
</g>
</g>
<!-- Node8&#45;&gt;Node6 -->
<g id="edge8" class="edge">
<title>Node8&#45;&gt;Node6</title>
<path fill="none" stroke="#404040" d="M225.76,-1774.26C223.16,-1764.3 219.98,-1752.12 216.42,-1738.46"/>
<polygon fill="none" stroke="#404040" points="216.37,-1738.28 210.98,-1733.48 213.34,-1726.67 218.72,-1731.46 216.37,-1738.28"/>
<text text-anchor="middle" x="234.5" y="-1748" font-family="Helvetica,sans-Serif" font-size="10.00"> &#45;map</text>
</g>
<!-- Node9 -->
<g id="node9" class="node">
<title>Node9</title>
<g id="a_node9"><a xlink:href="../../da/da1/classQHash.html" target="_top" xlink:title=" ">
<polygon fill="white" stroke="black" points="250,-1466 250,-1523 422,-1523 422,-1466 250,-1466"/>
<text text-anchor="middle" x="336" y="-1511" font-family="Helvetica,sans-Serif" font-size="10.00">QHash&lt; quint32, VDataTool * &gt;</text>
<polyline fill="none" stroke="black" points="250,-1504 422,-1504 "/>
<text text-anchor="middle" x="336" y="-1492" font-family="Helvetica,sans-Serif" font-size="10.00"> </text>
<polyline fill="none" stroke="black" points="250,-1485 422,-1485 "/>
<text text-anchor="middle" x="336" y="-1473" font-family="Helvetica,sans-Serif" font-size="10.00"> </text>
</a>
</g>
</g>
<!-- Node9&#45;&gt;Node5 -->
<g id="edge9" class="edge">
<title>Node9&#45;&gt;Node5</title>
<path fill="none" stroke="#404040" d="M336,-1465.78C336,-1421.28 336,-1328.49 336,-1226.73"/>
<polygon fill="none" stroke="#404040" points="336,-1226.6 332,-1220.6 336,-1214.6 340,-1220.6 336,-1226.6"/>
<text text-anchor="middle" x="354" y="-1236" font-family="Helvetica,sans-Serif" font-size="10.00"> #tools</text>
</g>
<!-- Node10 -->
<g id="node10" class="node">
<title>Node10</title>
<g id="a_node10"><a xlink:href="../../d5/dc2/classQVector.html" target="_top" xlink:title=" ">
<polygon fill="white" stroke="black" points="440,-1466 440,-1523 616,-1523 616,-1466 440,-1466"/>
<text text-anchor="middle" x="528" y="-1511" font-family="Helvetica,sans-Serif" font-size="10.00">QVector&lt; VLabelTemplateLine &gt;</text>
<polyline fill="none" stroke="black" points="440,-1504 616,-1504 "/>
<text text-anchor="middle" x="528" y="-1492" font-family="Helvetica,sans-Serif" font-size="10.00"> </text>
<polyline fill="none" stroke="black" points="440,-1485 616,-1485 "/>
<text text-anchor="middle" x="528" y="-1473" font-family="Helvetica,sans-Serif" font-size="10.00"> </text>
</a>
</g>
</g>
<!-- Node10&#45;&gt;Node5 -->
<g id="edge10" class="edge">
<title>Node10&#45;&gt;Node5</title>
<path fill="none" stroke="#404040" d="M516.52,-1465.83C496.25,-1416.22 453.63,-1308.58 426,-1215 424.11,-1208.6 422.24,-1202.13 420.38,-1195.61"/>
<polygon fill="none" stroke="#404040" points="420.31,-1195.37 414.84,-1190.68 417.06,-1183.82 422.54,-1188.51 420.31,-1195.37"/>
<text text-anchor="middle" x="481.5" y="-1236" font-family="Helvetica,sans-Serif" font-size="10.00"> #patternLabelLines</text>
</g>
<!-- Node11 -->
<g id="node11" class="node">
<title>Node11</title>
<g id="a_node11"><a xlink:href="../../d5/dc2/classQVector.html" target="_top" xlink:title=" ">
<polygon fill="white" stroke="black" points="634.5,-1466 634.5,-1523 769.5,-1523 769.5,-1466 634.5,-1466"/>
<text text-anchor="middle" x="702" y="-1511" font-family="Helvetica,sans-Serif" font-size="10.00">QVector&lt; VDataTool * &gt;</text>
<polyline fill="none" stroke="black" points="634.5,-1504 769.5,-1504 "/>
<text text-anchor="middle" x="702" y="-1492" font-family="Helvetica,sans-Serif" font-size="10.00"> </text>
<polyline fill="none" stroke="black" points="634.5,-1485 769.5,-1485 "/>
<text text-anchor="middle" x="702" y="-1473" font-family="Helvetica,sans-Serif" font-size="10.00"> </text>
</a>
</g>
</g>
<!-- Node11&#45;&gt;Node5 -->
<g id="edge11" class="edge">
<title>Node11&#45;&gt;Node5</title>
<path fill="none" stroke="#404040" d="M700.62,-1465.81C696.74,-1417.67 681.87,-1318.34 625,-1262 595.14,-1232.42 575.84,-1242.9 535,-1233 487.28,-1221.44 461.74,-1248.67 426,-1215 425.9,-1214.91 425.81,-1214.82 425.71,-1214.73"/>
<polygon fill="none" stroke="#404040" points="425.52,-1214.53 418.45,-1213.12 417.03,-1206.05 424.11,-1207.46 425.52,-1214.53"/>
<text text-anchor="middle" x="643" y="-1236" font-family="Helvetica,sans-Serif" font-size="10.00"> #toolsOnRemove</text>
</g>
<!-- Node12 -->
<g id="node12" class="node">
<title>Node12</title>
<g id="a_node12"><a xlink:href="../../d5/dc2/classQVector.html" target="_top" xlink:title=" ">
<polygon fill="white" stroke="black" points="787.5,-1466 787.5,-1523 924.5,-1523 924.5,-1466 787.5,-1466"/>
<text text-anchor="middle" x="856" y="-1511" font-family="Helvetica,sans-Serif" font-size="10.00">QVector&lt; VToolRecord &gt;</text>
<polyline fill="none" stroke="black" points="787.5,-1504 924.5,-1504 "/>
<text text-anchor="middle" x="856" y="-1492" font-family="Helvetica,sans-Serif" font-size="10.00"> </text>
<polyline fill="none" stroke="black" points="787.5,-1485 924.5,-1485 "/>
<text text-anchor="middle" x="856" y="-1473" font-family="Helvetica,sans-Serif" font-size="10.00"> </text>
</a>
</g>
</g>
<!-- Node12&#45;&gt;Node5 -->
<g id="edge12" class="edge">
<title>Node12&#45;&gt;Node5</title>
<path fill="none" stroke="#404040" d="M854.57,-1465.86C850.59,-1417.82 835.59,-1318.62 779,-1262 750.19,-1233.17 731.99,-1240.88 692,-1233 662.94,-1227.27 448.51,-1234.25 426,-1215 425.9,-1214.92 425.81,-1214.84 425.71,-1214.75"/>
<polygon fill="none" stroke="#404040" points="425.9,-1214.92 418.77,-1213.84 417.02,-1206.85 424.15,-1207.93 425.9,-1214.92"/>
<text text-anchor="middle" x="776" y="-1236" font-family="Helvetica,sans-Serif" font-size="10.00"> #history</text>
</g>
</g>
</svg>
        <g id="navigator" transform="translate(0 0)" fill="#404254">
                <rect fill="#f2f5e9" fill-opacity="0.5" stroke="#606060" stroke-width=".5" x="0" y="0" width="60" height="60"/>
                <use id="zoomplus" xlink:href="#zoomPlus" x="17" y="9" onmousedown="handleZoom(evt,'in')"/>
                <use id="zoomminus" xlink:href="#zoomMin" x="42" y="9" onmousedown="handleZoom(evt,'out')"/>
                <use id="reset" xlink:href="#resetDef" x="30" y="36" onmousedown="handleReset()"/>
                <g id="arrowUp" xlink:href="#dirArrow" transform="translate(30 24)" onmousedown="handlePan(0,-1)">
                  <use xlink:href="#rim" fill="#404040">
                        <set attributeName="fill" to="#808080" begin="arrowUp.mouseover" end="arrowUp.mouseout"/>
                  </use>
                  <path fill="none" stroke="white" stroke-width="1.5" d="M0,-3.0v7 M-2.5,-0.5L0,-3.0L2.5,-0.5"/>
                </g>
                <g id="arrowRight" xlink:href="#dirArrow" transform="rotate(90) translate(36 -43)" onmousedown="handlePan(1,0)">
                  <use xlink:href="#rim" fill="#404040">
                        <set attributeName="fill" to="#808080" begin="arrowRight.mouseover" end="arrowRight.mouseout"/>
                  </use>
                  <path fill="none" stroke="white" stroke-width="1.5" d="M0,-3.0v7 M-2.5,-0.5L0,-3.0L2.5,-0.5"/>
                </g>
                <g id="arrowDown" xlink:href="#dirArrow" transform="rotate(180) translate(-30 -48)" onmousedown="handlePan(0,1)">
                  <use xlink:href="#rim" fill="#404040">
                        <set attributeName="fill" to="#808080" begin="arrowDown.mouseover" end="arrowDown.mouseout"/>
                  </use>
                  <path fill="none" stroke="white" stroke-width="1.5" d="M0,-3.0v7 M-2.5,-0.5L0,-3.0L2.5,-0.5"/>
                </g>
                <g id="arrowLeft" xlink:href="#dirArrow" transform="rotate(270) translate(-36 17)" onmousedown="handlePan(-1,0)">
                  <use xlink:href="#rim" fill="#404040">
                        <set attributeName="fill" to="#808080" begin="arrowLeft.mouseover" end="arrowLeft.mouseout"/>
                  </use>
                  <path fill="none" stroke="white" stroke-width="1.5" d="M0,-3.0v7 M-2.5,-0.5L0,-3.0L2.5,-0.5"/>
                </g>
        </g>
        <svg viewBox="0 0 15 15" width="100%" height="30px" preserveAspectRatio="xMaxYMin meet">
         <g id="arrow_out" transform="scale(0.3 0.3)">
          <a xlink:href="classShowDoublePointName__coll__graph_org.svg" target="_base">
           <rect id="button" ry="5" rx="5" y="6" x="6" height="38" width="38"
                fill="#f2f5e9" fill-opacity="0.5" stroke="#606060" stroke-width="1.0"/>
           <path id="arrow"
             d="M 11.500037,31.436501 C 11.940474,20.09759 22.043105,11.32322 32.158766,21.979434 L 37.068811,17.246167 C 37.068811,17.246167 37.088388,32 37.088388,32 L 22.160133,31.978069 C 22.160133,31.978069 26.997745,27.140456 26.997745,27.140456 C 18.528582,18.264221 13.291696,25.230495 11.500037,31.436501 z"
             style="fill:#404040;"/>
          </a>
         </g>
        </svg>
</svg>
