<?xml version="1.0" encoding="UTF-8" standalone="no"?>
<!DOCTYPE svg PUBLIC "-//W3C//DTD SVG 1.1//EN"
 "http://www.w3.org/Graphics/SVG/1.1/DTD/svg11.dtd">
<!-- Generated by graphviz version 2.43.0 (0)
 -->
<!-- Title: src/libs/vmisc/vsettings.h Pages: 1 -->
<svg width="7560pt" height="229pt"
 viewBox="0.00 0.00 7559.50 229.00" xmlns="http://www.w3.org/2000/svg" xmlns:xlink="http://www.w3.org/1999/xlink">
<g id="graph0" class="graph" transform="scale(1 1) rotate(0) translate(4 225)">
<title>src/libs/vmisc/vsettings.h</title>
<polygon fill="white" stroke="transparent" points="-4,4 -4,-225 7555.5,-225 7555.5,4 -4,4"/>
<!-- Node1 -->
<g id="node1" class="node">
<title>Node1</title>
<g id="a_node1"><a xlink:title=" ">
<polygon fill="#bfbfbf" stroke="black" points="5704.5,-201.5 5704.5,-220.5 5844.5,-220.5 5844.5,-201.5 5704.5,-201.5"/>
<text text-anchor="middle" x="5774.5" y="-208.5" font-family="Helvetica,sans-Serif" font-size="10.00">src/libs/vmisc/vsettings.h</text>
</a>
</g>
</g>
<!-- Node2 -->
<g id="node2" class="node">
<title>Node2</title>
<g id="a_node2"><a xlink:href="../../d9/d02/vapplication_8h.html" target="_top" xlink:title=" ">
<polygon fill="white" stroke="black" points="2145,-134.5 2145,-164.5 2272,-164.5 2272,-134.5 2145,-134.5"/>
<text text-anchor="start" x="2153" y="-152.5" font-family="Helvetica,sans-Serif" font-size="10.00">src/app/seamly2d/core</text>
<text text-anchor="middle" x="2208.5" y="-141.5" font-family="Helvetica,sans-Serif" font-size="10.00">/vapplication.h</text>
</a>
</g>
</g>
<!-- Node1&#45;&gt;Node2 -->
<g id="edge1" class="edge">
<title>Node1&#45;&gt;Node2</title>
<path fill="none" stroke="midnightblue" d="M5694.12,-208.66C5211.48,-200.61 2704.68,-158.78 2272.11,-151.56"/>
<polygon fill="midnightblue" stroke="midnightblue" points="5694.41,-212.16 5704.47,-208.83 5694.53,-205.17 5694.41,-212.16"/>
</g>
<!-- Node25 -->
<g id="node25" class="node">
<title>Node25</title>
<g id="a_node25"><a xlink:href="../../d5/d74/vabstractapplication_8h.html" target="_top" xlink:title=" ">
<polygon fill="white" stroke="red" points="5615,-140 5615,-159 5810,-159 5810,-140 5615,-140"/>
<text text-anchor="middle" x="5712.5" y="-147" font-family="Helvetica,sans-Serif" font-size="10.00">src/libs/vmisc/vabstractapplication.h</text>
</a>
</g>
</g>
<!-- Node1&#45;&gt;Node25 -->
<g id="edge24" class="edge">
<title>Node1&#45;&gt;Node25</title>
<path fill="none" stroke="midnightblue" d="M5758.17,-194.32C5746.39,-183.02 5730.94,-168.19 5721.37,-159.01"/>
<polygon fill="midnightblue" stroke="midnightblue" points="5755.98,-197.08 5765.62,-201.48 5760.83,-192.03 5755.98,-197.08"/>
</g>
<!-- Node63 -->
<g id="node49" class="node">
<title>Node63</title>
<g id="a_node49"><a xlink:href="../../d2/d31/vmaingraphicsview_8cpp.html" target="_top" xlink:title=" ">
<polygon fill="white" stroke="black" points="7335.5,-73 7335.5,-92 7551.5,-92 7551.5,-73 7335.5,-73"/>
<text text-anchor="middle" x="7443.5" y="-80" font-family="Helvetica,sans-Serif" font-size="10.00">src/libs/vwidgets/vmaingraphicsview.cpp</text>
</a>
</g>
</g>
<!-- Node1&#45;&gt;Node63 -->
<g id="edge51" class="edge">
<title>Node1&#45;&gt;Node63</title>
<path fill="none" stroke="midnightblue" d="M5790.1,-194.4C5811.56,-173.13 5848.45,-137.27 5856.5,-134 5932.13,-103.27 7244.08,-103.99 7325.5,-98 7344.44,-96.61 7365,-94.34 7383.58,-92.01"/>
<polygon fill="midnightblue" stroke="midnightblue" points="5787.6,-191.96 5782.98,-201.49 5792.53,-196.92 5787.6,-191.96"/>
</g>
<!-- Node66 -->
<g id="node50" class="node">
<title>Node66</title>
<g id="a_node50"><a xlink:href="../../db/d28/vsettings_8cpp.html" target="_top" xlink:title=" ">
<polygon fill="white" stroke="black" points="5865.5,-140 5865.5,-159 6017.5,-159 6017.5,-140 5865.5,-140"/>
<text text-anchor="middle" x="5941.5" y="-147" font-family="Helvetica,sans-Serif" font-size="10.00">src/libs/vmisc/vsettings.cpp</text>
</a>
</g>
</g>
<!-- Node1&#45;&gt;Node66 -->
<g id="edge50" class="edge">
<title>Node1&#45;&gt;Node66</title>
<path fill="none" stroke="midnightblue" d="M5807.95,-198.08C5840.41,-186.52 5888.87,-169.25 5917.62,-159.01"/>
<polygon fill="midnightblue" stroke="midnightblue" points="5806.67,-194.82 5798.43,-201.48 5809.02,-201.42 5806.67,-194.82"/>
</g>
<!-- Node3 -->
<g id="node3" class="node">
<title>Node3</title>
<g id="a_node3"><a xlink:href="../../d3/dd8/vapplication_8cpp.html" target="_top" xlink:title=" ">
<polygon fill="white" stroke="black" points="0,-67.5 0,-97.5 127,-97.5 127,-67.5 0,-67.5"/>
<text text-anchor="start" x="8" y="-85.5" font-family="Helvetica,sans-Serif" font-size="10.00">src/app/seamly2d/core</text>
<text text-anchor="middle" x="63.5" y="-74.5" font-family="Helvetica,sans-Serif" font-size="10.00">/vapplication.cpp</text>
</a>
</g>
</g>
<!-- Node2&#45;&gt;Node3 -->
<g id="edge2" class="edge">
<title>Node2&#45;&gt;Node3</title>
<path fill="none" stroke="midnightblue" d="M2134.84,-148.4C1813.86,-147.71 535.63,-142.17 136.5,-98 133.42,-97.66 130.27,-97.25 127.1,-96.8"/>
<polygon fill="midnightblue" stroke="midnightblue" points="2134.94,-151.9 2144.95,-148.42 2134.96,-144.9 2134.94,-151.9"/>
</g>
<!-- Node4 -->
<g id="node4" class="node">
<title>Node4</title>
<g id="a_node4"><a xlink:href="../../dd/db4/abstractlayout__dialog_8cpp.html" target="_top" xlink:title=" ">
<polygon fill="white" stroke="black" points="145.5,-67.5 145.5,-97.5 291.5,-97.5 291.5,-67.5 145.5,-67.5"/>
<text text-anchor="start" x="153.5" y="-85.5" font-family="Helvetica,sans-Serif" font-size="10.00">src/app/seamly2d/dialogs</text>
<text text-anchor="middle" x="218.5" y="-74.5" font-family="Helvetica,sans-Serif" font-size="10.00">/abstractlayout_dialog.cpp</text>
</a>
</g>
</g>
<!-- Node2&#45;&gt;Node4 -->
<g id="edge3" class="edge">
<title>Node2&#45;&gt;Node4</title>
<path fill="none" stroke="midnightblue" d="M2134.73,-148.01C1829.73,-145.78 666.01,-134.95 300.5,-98 297.62,-97.71 294.7,-97.38 291.74,-97.01"/>
<polygon fill="midnightblue" stroke="midnightblue" points="2134.77,-151.51 2144.79,-148.09 2134.82,-144.51 2134.77,-151.51"/>
</g>
<!-- Node5 -->
<g id="node5" class="node">
<title>Node5</title>
<g id="a_node5"><a xlink:href="../../d7/dfa/calculator__dialog_8cpp.html" target="_top" xlink:title=" ">
<polygon fill="white" stroke="black" points="310,-67.5 310,-97.5 451,-97.5 451,-67.5 310,-67.5"/>
<text text-anchor="start" x="318" y="-85.5" font-family="Helvetica,sans-Serif" font-size="10.00">src/app/seamly2d/dialogs</text>
<text text-anchor="middle" x="380.5" y="-74.5" font-family="Helvetica,sans-Serif" font-size="10.00">/calculator_dialog.cpp</text>
</a>
</g>
</g>
<!-- Node2&#45;&gt;Node5 -->
<g id="edge4" class="edge">
<title>Node2&#45;&gt;Node5</title>
<path fill="none" stroke="midnightblue" d="M2134.3,-147.87C1844.94,-145.17 791.85,-133.09 459.5,-98 456.73,-97.71 453.9,-97.37 451.06,-97"/>
<polygon fill="midnightblue" stroke="midnightblue" points="2134.65,-151.37 2144.68,-147.96 2134.71,-144.37 2134.65,-151.37"/>
</g>
<!-- Node6 -->
<g id="node6" class="node">
<title>Node6</title>
<g id="a_node6"><a xlink:href="../../d2/d2d/preferencesconfigurationpage_8cpp.html" target="_top" xlink:title=" ">
<polygon fill="white" stroke="black" points="469,-67.5 469,-97.5 716,-97.5 716,-67.5 469,-67.5"/>
<text text-anchor="start" x="477" y="-85.5" font-family="Helvetica,sans-Serif" font-size="10.00">src/app/seamly2d/dialogs</text>
<text text-anchor="middle" x="592.5" y="-74.5" font-family="Helvetica,sans-Serif" font-size="10.00">/configpages/preferencesconfigurationpage.cpp</text>
</a>
</g>
</g>
<!-- Node2&#45;&gt;Node6 -->
<g id="edge5" class="edge">
<title>Node2&#45;&gt;Node6</title>
<path fill="none" stroke="midnightblue" d="M2134.51,-147.93C1917.73,-145.84 1265.27,-136.56 725.5,-98 722.37,-97.78 719.2,-97.54 716.01,-97.28"/>
<polygon fill="midnightblue" stroke="midnightblue" points="2134.78,-151.43 2144.81,-148.03 2134.85,-144.43 2134.78,-151.43"/>
</g>
<!-- Node7 -->
<g id="node7" class="node">
<title>Node7</title>
<g id="a_node7"><a xlink:href="../../d9/d70/preferencesgraphicsviewpage_8cpp.html" target="_top" xlink:title=" ">
<polygon fill="white" stroke="black" points="734.5,-67.5 734.5,-97.5 982.5,-97.5 982.5,-67.5 734.5,-67.5"/>
<text text-anchor="start" x="742.5" y="-85.5" font-family="Helvetica,sans-Serif" font-size="10.00">src/app/seamly2d/dialogs</text>
<text text-anchor="middle" x="858.5" y="-74.5" font-family="Helvetica,sans-Serif" font-size="10.00">/configpages/preferencesgraphicsviewpage.cpp</text>
</a>
</g>
</g>
<!-- Node2&#45;&gt;Node7 -->
<g id="edge6" class="edge">
<title>Node2&#45;&gt;Node7</title>
<path fill="none" stroke="midnightblue" d="M2134.6,-147.16C1944.66,-143.34 1424,-130.51 991.5,-98 988.6,-97.78 985.68,-97.55 982.72,-97.31"/>
<polygon fill="midnightblue" stroke="midnightblue" points="2134.67,-150.66 2144.74,-147.36 2134.81,-143.66 2134.67,-150.66"/>
</g>
<!-- Node8 -->
<g id="node8" class="node">
<title>Node8</title>
<g id="a_node8"><a xlink:href="../../d2/d00/vtooloptionspropertybrowser_8cpp.html" target="_top" xlink:title=" ">
<polygon fill="white" stroke="black" points="1000.5,-67.5 1000.5,-97.5 1180.5,-97.5 1180.5,-67.5 1000.5,-67.5"/>
<text text-anchor="start" x="1008.5" y="-85.5" font-family="Helvetica,sans-Serif" font-size="10.00">src/app/seamly2d/core</text>
<text text-anchor="middle" x="1090.5" y="-74.5" font-family="Helvetica,sans-Serif" font-size="10.00">/vtooloptionspropertybrowser.cpp</text>
</a>
</g>
</g>
<!-- Node2&#45;&gt;Node8 -->
<g id="edge7" class="edge">
<title>Node2&#45;&gt;Node8</title>
<path fill="none" stroke="midnightblue" d="M2134.63,-147.27C1966.48,-143.93 1542.4,-132.51 1189.5,-98 1186.56,-97.71 1183.58,-97.4 1180.56,-97.07"/>
<polygon fill="midnightblue" stroke="midnightblue" points="2134.78,-150.77 2144.85,-147.47 2134.92,-143.77 2134.78,-150.77"/>
</g>
<!-- Node9 -->
<g id="node9" class="node">
<title>Node9</title>
<g id="a_node9"><a xlink:href="../../dc/d20/preferencespathpage_8cpp.html" target="_top" xlink:title=" ">
<polygon fill="white" stroke="black" points="1199,-67.5 1199,-97.5 1404,-97.5 1404,-67.5 1199,-67.5"/>
<text text-anchor="start" x="1207" y="-85.5" font-family="Helvetica,sans-Serif" font-size="10.00">src/app/seamly2d/dialogs</text>
<text text-anchor="middle" x="1301.5" y="-74.5" font-family="Helvetica,sans-Serif" font-size="10.00">/configpages/preferencespathpage.cpp</text>
</a>
</g>
</g>
<!-- Node2&#45;&gt;Node9 -->
<g id="edge8" class="edge">
<title>Node2&#45;&gt;Node9</title>
<path fill="none" stroke="midnightblue" d="M2134.7,-145.46C1993.99,-139.3 1677.73,-123.71 1412.5,-98 1409.79,-97.74 1407.05,-97.46 1404.28,-97.17"/>
<polygon fill="midnightblue" stroke="midnightblue" points="2134.79,-148.97 2144.93,-145.91 2135.09,-141.97 2134.79,-148.97"/>
</g>
<!-- Node10 -->
<g id="node10" class="node">
<title>Node10</title>
<g id="a_node10"><a xlink:href="../../dd/dc2/decimalchart__dialog_8cpp.html" target="_top" xlink:title=" ">
<polygon fill="white" stroke="black" points="1422,-67.5 1422,-97.5 1563,-97.5 1563,-67.5 1422,-67.5"/>
<text text-anchor="start" x="1430" y="-85.5" font-family="Helvetica,sans-Serif" font-size="10.00">src/app/seamly2d/dialogs</text>
<text text-anchor="middle" x="1492.5" y="-74.5" font-family="Helvetica,sans-Serif" font-size="10.00">/decimalchart_dialog.cpp</text>
</a>
</g>
</g>
<!-- Node2&#45;&gt;Node10 -->
<g id="edge9" class="edge">
<title>Node2&#45;&gt;Node10</title>
<path fill="none" stroke="midnightblue" d="M2134.56,-145.04C2015.73,-138.93 1775.02,-124.33 1572.5,-98 1569.42,-97.6 1566.28,-97.16 1563.11,-96.69"/>
<polygon fill="midnightblue" stroke="midnightblue" points="2134.47,-148.54 2144.64,-145.55 2134.83,-141.54 2134.47,-148.54"/>
</g>
<!-- Node11 -->
<g id="node11" class="node">
<title>Node11</title>
<g id="a_node11"><a xlink:href="../../dc/d63/preferencespatternpage_8cpp.html" target="_top" xlink:title=" ">
<polygon fill="white" stroke="black" points="1581.5,-67.5 1581.5,-97.5 1799.5,-97.5 1799.5,-67.5 1581.5,-67.5"/>
<text text-anchor="start" x="1589.5" y="-85.5" font-family="Helvetica,sans-Serif" font-size="10.00">src/app/seamly2d/dialogs</text>
<text text-anchor="middle" x="1690.5" y="-74.5" font-family="Helvetica,sans-Serif" font-size="10.00">/configpages/preferencespatternpage.cpp</text>
</a>
</g>
</g>
<!-- Node2&#45;&gt;Node11 -->
<g id="edge10" class="edge">
<title>Node2&#45;&gt;Node11</title>
<path fill="none" stroke="midnightblue" d="M2134.88,-139.26C2047.38,-128.28 1900.57,-109.86 1799.8,-97.22"/>
<polygon fill="midnightblue" stroke="midnightblue" points="2134.63,-142.76 2144.98,-140.53 2135.5,-135.81 2134.63,-142.76"/>
</g>
<!-- Node12 -->
<g id="node12" class="node">
<title>Node12</title>
<g id="a_node12"><a xlink:href="../../dd/d64/dialogaboutapp_8cpp.html" target="_top" xlink:title=" ">
<polygon fill="white" stroke="black" points="1818,-67.5 1818,-97.5 1959,-97.5 1959,-67.5 1818,-67.5"/>
<text text-anchor="start" x="1826" y="-85.5" font-family="Helvetica,sans-Serif" font-size="10.00">src/app/seamly2d/dialogs</text>
<text text-anchor="middle" x="1888.5" y="-74.5" font-family="Helvetica,sans-Serif" font-size="10.00">/dialogaboutapp.cpp</text>
</a>
</g>
</g>
<!-- Node2&#45;&gt;Node12 -->
<g id="edge11" class="edge">
<title>Node2&#45;&gt;Node12</title>
<path fill="none" stroke="midnightblue" d="M2134.81,-133.53C2081.44,-122.69 2009.79,-108.14 1957.53,-97.52"/>
<polygon fill="midnightblue" stroke="midnightblue" points="2134.4,-137.02 2144.9,-135.58 2135.79,-130.16 2134.4,-137.02"/>
</g>
<!-- Node13 -->
<g id="node13" class="node">
<title>Node13</title>
<g id="a_node13"><a xlink:href="../../d6/d89/dialoglayoutprogress_8cpp.html" target="_top" xlink:title=" ">
<polygon fill="white" stroke="black" points="1977,-67.5 1977,-97.5 2120,-97.5 2120,-67.5 1977,-67.5"/>
<text text-anchor="start" x="1985" y="-85.5" font-family="Helvetica,sans-Serif" font-size="10.00">src/app/seamly2d/dialogs</text>
<text text-anchor="middle" x="2048.5" y="-74.5" font-family="Helvetica,sans-Serif" font-size="10.00">/dialoglayoutprogress.cpp</text>
</a>
</g>
</g>
<!-- Node2&#45;&gt;Node13 -->
<g id="edge12" class="edge">
<title>Node2&#45;&gt;Node13</title>
<path fill="none" stroke="midnightblue" d="M2164.3,-130.54C2138.7,-120.14 2106.93,-107.24 2083.15,-97.58"/>
<polygon fill="midnightblue" stroke="midnightblue" points="2163.2,-133.87 2173.78,-134.4 2165.84,-127.39 2163.2,-133.87"/>
</g>
<!-- Node14 -->
<g id="node14" class="node">
<title>Node14</title>
<g id="a_node14"><a xlink:href="../../d5/dc5/dialogpreferences_8cpp.html" target="_top" xlink:title=" ">
<polygon fill="white" stroke="black" points="2138,-67.5 2138,-97.5 2279,-97.5 2279,-67.5 2138,-67.5"/>
<text text-anchor="start" x="2146" y="-85.5" font-family="Helvetica,sans-Serif" font-size="10.00">src/app/seamly2d/dialogs</text>
<text text-anchor="middle" x="2208.5" y="-74.5" font-family="Helvetica,sans-Serif" font-size="10.00">/dialogpreferences.cpp</text>
</a>
</g>
</g>
<!-- Node2&#45;&gt;Node14 -->
<g id="edge13" class="edge">
<title>Node2&#45;&gt;Node14</title>
<path fill="none" stroke="midnightblue" d="M2208.5,-124.11C2208.5,-115.15 2208.5,-105.32 2208.5,-97.58"/>
<polygon fill="midnightblue" stroke="midnightblue" points="2205,-124.4 2208.5,-134.4 2212,-124.4 2205,-124.4"/>
</g>
<!-- Node15 -->
<g id="node15" class="node">
<title>Node15</title>
<g id="a_node15"><a xlink:href="../../d5/d18/dialogpatternproperties_8cpp.html" target="_top" xlink:title=" ">
<polygon fill="white" stroke="black" points="2297,-67.5 2297,-97.5 2452,-97.5 2452,-67.5 2297,-67.5"/>
<text text-anchor="start" x="2305" y="-85.5" font-family="Helvetica,sans-Serif" font-size="10.00">src/app/seamly2d/dialogs</text>
<text text-anchor="middle" x="2374.5" y="-74.5" font-family="Helvetica,sans-Serif" font-size="10.00">/dialogpatternproperties.cpp</text>
</a>
</g>
</g>
<!-- Node2&#45;&gt;Node15 -->
<g id="edge14" class="edge">
<title>Node2&#45;&gt;Node15</title>
<path fill="none" stroke="midnightblue" d="M2254.01,-130.68C2280.63,-120.26 2313.77,-107.28 2338.55,-97.58"/>
<polygon fill="midnightblue" stroke="midnightblue" points="2252.55,-127.49 2244.52,-134.4 2255.11,-134.01 2252.55,-127.49"/>
</g>
<!-- Node16 -->
<g id="node16" class="node">
<title>Node16</title>
<g id="a_node16"><a xlink:href="../../db/d5c/groups__widget_8cpp.html" target="_top" xlink:title=" ">
<polygon fill="white" stroke="black" points="2470,-67.5 2470,-97.5 2611,-97.5 2611,-67.5 2470,-67.5"/>
<text text-anchor="start" x="2478" y="-85.5" font-family="Helvetica,sans-Serif" font-size="10.00">src/app/seamly2d/dialogs</text>
<text text-anchor="middle" x="2540.5" y="-74.5" font-family="Helvetica,sans-Serif" font-size="10.00">/groups_widget.cpp</text>
</a>
</g>
</g>
<!-- Node2&#45;&gt;Node16 -->
<g id="edge15" class="edge">
<title>Node2&#45;&gt;Node16</title>
<path fill="none" stroke="midnightblue" d="M2281.98,-134.11C2337.98,-123.15 2414.63,-108.14 2469.91,-97.32"/>
<polygon fill="midnightblue" stroke="midnightblue" points="2281.26,-130.69 2272.12,-136.04 2282.61,-137.56 2281.26,-130.69"/>
</g>
<!-- Node17 -->
<g id="node17" class="node">
<title>Node17</title>
<g id="a_node17"><a xlink:href="../../d0/dfa/layoutsettings__dialog_8cpp.html" target="_top" xlink:title=" ">
<polygon fill="white" stroke="black" points="2629,-67.5 2629,-97.5 2774,-97.5 2774,-67.5 2629,-67.5"/>
<text text-anchor="start" x="2637" y="-85.5" font-family="Helvetica,sans-Serif" font-size="10.00">src/app/seamly2d/dialogs</text>
<text text-anchor="middle" x="2701.5" y="-74.5" font-family="Helvetica,sans-Serif" font-size="10.00">/layoutsettings_dialog.cpp</text>
</a>
</g>
</g>
<!-- Node2&#45;&gt;Node17 -->
<g id="edge16" class="edge">
<title>Node2&#45;&gt;Node17</title>
<path fill="none" stroke="midnightblue" d="M2282.02,-140.65C2364.38,-131.58 2501.77,-115.63 2619.5,-98 2622.5,-97.55 2625.56,-97.08 2628.66,-96.59"/>
<polygon fill="midnightblue" stroke="midnightblue" points="2281.57,-137.18 2272.01,-141.75 2282.33,-144.14 2281.57,-137.18"/>
</g>
<!-- Node18 -->
<g id="node18" class="node">
<title>Node18</title>
<g id="a_node18"><a xlink:href="../../dd/d54/export__layout__dialog_8cpp.html" target="_top" xlink:title=" ">
<polygon fill="white" stroke="black" points="2792,-67.5 2792,-97.5 2935,-97.5 2935,-67.5 2792,-67.5"/>
<text text-anchor="start" x="2800" y="-85.5" font-family="Helvetica,sans-Serif" font-size="10.00">src/app/seamly2d/dialogs</text>
<text text-anchor="middle" x="2863.5" y="-74.5" font-family="Helvetica,sans-Serif" font-size="10.00">/export_layout_dialog.cpp</text>
</a>
</g>
</g>
<!-- Node2&#45;&gt;Node18 -->
<g id="edge17" class="edge">
<title>Node2&#45;&gt;Node18</title>
<path fill="none" stroke="midnightblue" d="M2282.69,-144.1C2392.3,-137.12 2603.82,-121.8 2782.5,-98 2785.47,-97.6 2788.5,-97.18 2791.56,-96.72"/>
<polygon fill="midnightblue" stroke="midnightblue" points="2282.17,-140.63 2272.41,-144.75 2282.61,-147.61 2282.17,-140.63"/>
</g>
<!-- Node19 -->
<g id="node19" class="node">
<title>Node19</title>
<g id="a_node19"><a xlink:href="../../dd/d84/shortcuts__dialog_8cpp.html" target="_top" xlink:title=" ">
<polygon fill="white" stroke="black" points="2953,-67.5 2953,-97.5 3094,-97.5 3094,-67.5 2953,-67.5"/>
<text text-anchor="start" x="2961" y="-85.5" font-family="Helvetica,sans-Serif" font-size="10.00">src/app/seamly2d/dialogs</text>
<text text-anchor="middle" x="3023.5" y="-74.5" font-family="Helvetica,sans-Serif" font-size="10.00">/shortcuts_dialog.cpp</text>
</a>
</g>
</g>
<!-- Node2&#45;&gt;Node19 -->
<g id="edge18" class="edge">
<title>Node2&#45;&gt;Node19</title>
<path fill="none" stroke="midnightblue" d="M2282.19,-146.14C2414.88,-141.28 2702.59,-128.01 2943.5,-98 2946.58,-97.62 2949.72,-97.19 2952.89,-96.73"/>
<polygon fill="midnightblue" stroke="midnightblue" points="2282.01,-142.64 2272.14,-146.5 2282.26,-149.64 2282.01,-142.64"/>
</g>
<!-- Node20 -->
<g id="node20" class="node">
<title>Node20</title>
<g id="a_node20"><a xlink:href="../../d2/df4/show__info__dialog_8cpp.html" target="_top" xlink:title=" ">
<polygon fill="white" stroke="black" points="3112,-67.5 3112,-97.5 3253,-97.5 3253,-67.5 3112,-67.5"/>
<text text-anchor="start" x="3120" y="-85.5" font-family="Helvetica,sans-Serif" font-size="10.00">src/app/seamly2d/dialogs</text>
<text text-anchor="middle" x="3182.5" y="-74.5" font-family="Helvetica,sans-Serif" font-size="10.00">/show_info_dialog.cpp</text>
</a>
</g>
</g>
<!-- Node2&#45;&gt;Node20 -->
<g id="edge19" class="edge">
<title>Node2&#45;&gt;Node20</title>
<path fill="none" stroke="midnightblue" d="M2282.38,-147.39C2435.73,-144.42 2799.55,-133.87 3102.5,-98 3105.58,-97.63 3108.73,-97.23 3111.9,-96.78"/>
<polygon fill="midnightblue" stroke="midnightblue" points="2282.08,-143.9 2272.14,-147.59 2282.21,-150.9 2282.08,-143.9"/>
</g>
<!-- Node21 -->
<g id="node21" class="node">
<title>Node21</title>
<g id="a_node21"><a xlink:href="../../dc/d14/app_2seamly2d_2main_8cpp.html" target="_top" xlink:title=" ">
<polygon fill="white" stroke="black" points="3271,-73 3271,-92 3422,-92 3422,-73 3271,-73"/>
<text text-anchor="middle" x="3346.5" y="-80" font-family="Helvetica,sans-Serif" font-size="10.00">src/app/seamly2d/main.cpp</text>
</a>
</g>
</g>
<!-- Node2&#45;&gt;Node21 -->
<g id="edge20" class="edge">
<title>Node2&#45;&gt;Node21</title>
<path fill="none" stroke="midnightblue" d="M2282.42,-148.03C2454.6,-146.25 2895.53,-137.84 3261.5,-98 3274.89,-96.54 3289.38,-94.32 3302.53,-92.04"/>
<polygon fill="midnightblue" stroke="midnightblue" points="2282.18,-144.53 2272.21,-148.13 2282.25,-151.53 2282.18,-144.53"/>
</g>
<!-- Node22 -->
<g id="node22" class="node">
<title>Node22</title>
<g id="a_node22"><a xlink:href="../../d8/de8/mainwindowsnogui_8cpp.html" target="_top" xlink:title=" ">
<polygon fill="white" stroke="black" points="3440,-73 3440,-92 3661,-92 3661,-73 3440,-73"/>
<text text-anchor="middle" x="3550.5" y="-80" font-family="Helvetica,sans-Serif" font-size="10.00">src/app/seamly2d/mainwindowsnogui.cpp</text>
</a>
</g>
</g>
<!-- Node2&#45;&gt;Node22 -->
<g id="edge21" class="edge">
<title>Node2&#45;&gt;Node22</title>
<path fill="none" stroke="midnightblue" d="M2282.39,-147.48C2472.88,-144.4 2996.16,-133.16 3430.5,-98 3449.12,-96.49 3469.29,-94.28 3487.69,-92.04"/>
<polygon fill="midnightblue" stroke="midnightblue" points="2282.16,-143.98 2272.22,-147.64 2282.27,-150.98 2282.16,-143.98"/>
</g>
<!-- Node23 -->
<g id="node23" class="node">
<title>Node23</title>
<g id="a_node23"><a xlink:href="../../d3/d49/vpattern_8cpp.html" target="_top" xlink:title=" ">
<polygon fill="white" stroke="black" points="3679,-67.5 3679,-97.5 3804,-97.5 3804,-67.5 3679,-67.5"/>
<text text-anchor="start" x="3687" y="-85.5" font-family="Helvetica,sans-Serif" font-size="10.00">src/app/seamly2d/xml</text>
<text text-anchor="middle" x="3741.5" y="-74.5" font-family="Helvetica,sans-Serif" font-size="10.00">/vpattern.cpp</text>
</a>
</g>
</g>
<!-- Node2&#45;&gt;Node23 -->
<g id="edge22" class="edge">
<title>Node2&#45;&gt;Node23</title>
<path fill="none" stroke="midnightblue" d="M2282.63,-147.55C2540.37,-143.98 3396.63,-129.97 3669.5,-98 3672.54,-97.64 3675.64,-97.23 3678.77,-96.76"/>
<polygon fill="midnightblue" stroke="midnightblue" points="2282.21,-144.05 2272.26,-147.69 2282.31,-151.05 2282.21,-144.05"/>
</g>
<!-- Node24 -->
<g id="node24" class="node">
<title>Node24</title>
<g id="a_node24"><a xlink:href="../../d8/dd9/mainwindow_8cpp.html" target="_top" xlink:title=" ">
<polygon fill="white" stroke="black" points="3822.5,-73 3822.5,-92 4010.5,-92 4010.5,-73 3822.5,-73"/>
<text text-anchor="middle" x="3916.5" y="-80" font-family="Helvetica,sans-Serif" font-size="10.00">src/app/seamly2d/mainwindow.cpp</text>
</a>
</g>
</g>
<!-- Node2&#45;&gt;Node24 -->
<g id="edge23" class="edge">
<title>Node2&#45;&gt;Node24</title>
<path fill="none" stroke="midnightblue" d="M2282.23,-148.98C2510.24,-149.87 3224,-148.14 3812.5,-98 3829.12,-96.58 3847.15,-94.33 3863.45,-92.01"/>
<polygon fill="midnightblue" stroke="midnightblue" points="2282.08,-145.48 2272.07,-148.94 2282.05,-152.48 2282.08,-145.48"/>
</g>
<!-- Node26 -->
<g id="node26" class="node">
<title>Node26</title>
<g id="a_node26"><a xlink:href="../../d4/d90/fvupdater_8cpp.html" target="_top" xlink:title=" ">
<polygon fill="white" stroke="black" points="4029,-73 4029,-92 4182,-92 4182,-73 4029,-73"/>
<text text-anchor="middle" x="4105.5" y="-80" font-family="Helvetica,sans-Serif" font-size="10.00">src/libs/fervor/fvupdater.cpp</text>
</a>
</g>
</g>
<!-- Node25&#45;&gt;Node26 -->
<g id="edge25" class="edge">
<title>Node25&#45;&gt;Node26</title>
<path fill="none" stroke="midnightblue" d="M5604.52,-146.83C5304.55,-141.87 4465.15,-125.85 4190.5,-98 4176.8,-96.61 4161.97,-94.35 4148.59,-92.02"/>
<polygon fill="midnightblue" stroke="midnightblue" points="5604.91,-150.33 5614.96,-147 5605.02,-143.33 5604.91,-150.33"/>
</g>
<!-- Node27 -->
<g id="node27" class="node">
<title>Node27</title>
<g id="a_node27"><a xlink:href="../../d9/dc8/dxiface_8cpp.html" target="_top" xlink:title=" ">
<polygon fill="white" stroke="black" points="4200,-73 4200,-92 4335,-92 4335,-73 4200,-73"/>
<text text-anchor="middle" x="4267.5" y="-80" font-family="Helvetica,sans-Serif" font-size="10.00">src/libs/vdxf/dxiface.cpp</text>
</a>
</g>
</g>
<!-- Node25&#45;&gt;Node27 -->
<g id="edge26" class="edge">
<title>Node25&#45;&gt;Node27</title>
<path fill="none" stroke="midnightblue" d="M5604.4,-146.63C5325.6,-141.47 4587.01,-125.56 4343.5,-98 4331.22,-96.61 4317.95,-94.35 4305.99,-92.02"/>
<polygon fill="midnightblue" stroke="midnightblue" points="5604.47,-150.13 5614.53,-146.82 5604.59,-143.13 5604.47,-150.13"/>
</g>
<!-- Node28 -->
<g id="node28" class="node">
<title>Node28</title>
<g id="a_node28"><a xlink:href="../../da/d75/vabstractarc__p_8h.html" target="_top" xlink:title=" ">
<polygon fill="white" stroke="red" points="4353,-67.5 4353,-97.5 4460,-97.5 4460,-67.5 4353,-67.5"/>
<text text-anchor="start" x="4361" y="-85.5" font-family="Helvetica,sans-Serif" font-size="10.00">src/libs/vgeometry</text>
<text text-anchor="middle" x="4406.5" y="-74.5" font-family="Helvetica,sans-Serif" font-size="10.00">/vabstractarc_p.h</text>
</a>
</g>
</g>
<!-- Node25&#45;&gt;Node28 -->
<g id="edge27" class="edge">
<title>Node25&#45;&gt;Node28</title>
<path fill="none" stroke="midnightblue" d="M5604.62,-146.74C5344.17,-142.07 4686.46,-127.64 4468.5,-98 4465.76,-97.63 4462.97,-97.19 4460.15,-96.7"/>
<polygon fill="midnightblue" stroke="midnightblue" points="5604.78,-150.24 5614.84,-146.92 5604.9,-143.25 5604.78,-150.24"/>
</g>
<!-- Node30 -->
<g id="node29" class="node">
<title>Node30</title>
<g id="a_node29"><a xlink:href="../../dc/da3/varc__p_8h.html" target="_top" xlink:title=" ">
<polygon fill="white" stroke="red" points="4478,-67.5 4478,-97.5 4585,-97.5 4585,-67.5 4478,-67.5"/>
<text text-anchor="start" x="4486" y="-85.5" font-family="Helvetica,sans-Serif" font-size="10.00">src/libs/vgeometry</text>
<text text-anchor="middle" x="4531.5" y="-74.5" font-family="Helvetica,sans-Serif" font-size="10.00">/varc_p.h</text>
</a>
</g>
</g>
<!-- Node25&#45;&gt;Node30 -->
<g id="edge28" class="edge">
<title>Node25&#45;&gt;Node30</title>
<path fill="none" stroke="midnightblue" d="M5604.74,-146.17C5363.61,-140.56 4786.61,-124.71 4593.5,-98 4590.76,-97.62 4587.97,-97.18 4585.15,-96.69"/>
<polygon fill="midnightblue" stroke="midnightblue" points="5604.84,-149.68 5614.92,-146.41 5605,-142.68 5604.84,-149.68"/>
</g>
<!-- Node32 -->
<g id="node30" class="node">
<title>Node32</title>
<g id="a_node30"><a xlink:href="../../d5/d8e/vcubicbezier__p_8h.html" target="_top" xlink:title=" ">
<polygon fill="white" stroke="red" points="4603,-67.5 4603,-97.5 4710,-97.5 4710,-67.5 4603,-67.5"/>
<text text-anchor="start" x="4611" y="-85.5" font-family="Helvetica,sans-Serif" font-size="10.00">src/libs/vgeometry</text>
<text text-anchor="middle" x="4656.5" y="-74.5" font-family="Helvetica,sans-Serif" font-size="10.00">/vcubicbezier_p.h</text>
</a>
</g>
</g>
<!-- Node25&#45;&gt;Node32 -->
<g id="edge29" class="edge">
<title>Node25&#45;&gt;Node32</title>
<path fill="none" stroke="midnightblue" d="M5604.81,-148.58C5422.7,-147.48 5042.67,-139.78 4724.5,-98 4719.83,-97.39 4715.01,-96.62 4710.18,-95.77"/>
<polygon fill="midnightblue" stroke="midnightblue" points="5604.9,-152.08 5614.92,-148.64 5604.94,-145.08 5604.9,-152.08"/>
</g>
<!-- Node34 -->
<g id="node31" class="node">
<title>Node34</title>
<g id="a_node31"><a xlink:href="../../d6/dfb/vellipticalarc_8cpp.html" target="_top" xlink:title=" ">
<polygon fill="white" stroke="black" points="4726,-0.5 4726,-30.5 4833,-30.5 4833,-0.5 4726,-0.5"/>
<text text-anchor="start" x="4734" y="-18.5" font-family="Helvetica,sans-Serif" font-size="10.00">src/libs/vgeometry</text>
<text text-anchor="middle" x="4779.5" y="-7.5" font-family="Helvetica,sans-Serif" font-size="10.00">/vellipticalarc.cpp</text>
</a>
</g>
</g>
<!-- Node25&#45;&gt;Node34 -->
<g id="edge30" class="edge">
<title>Node25&#45;&gt;Node34</title>
<path fill="none" stroke="midnightblue" d="M5604.48,-146.72C5360.6,-142.19 4786.26,-128.32 4757.5,-98 4739.95,-79.5 4756.42,-48.5 4768.77,-30.53"/>
<polygon fill="midnightblue" stroke="midnightblue" points="5604.72,-150.23 5614.78,-146.91 5604.84,-143.23 5604.72,-150.23"/>
</g>
<!-- Node35 -->
<g id="node32" class="node">
<title>Node35</title>
<g id="a_node32"><a xlink:href="../../df/dde/vellipticalarc__p_8h.html" target="_top" xlink:title=" ">
<polygon fill="white" stroke="black" points="4767,-67.5 4767,-97.5 4874,-97.5 4874,-67.5 4767,-67.5"/>
<text text-anchor="start" x="4775" y="-85.5" font-family="Helvetica,sans-Serif" font-size="10.00">src/libs/vgeometry</text>
<text text-anchor="middle" x="4820.5" y="-74.5" font-family="Helvetica,sans-Serif" font-size="10.00">/vellipticalarc_p.h</text>
</a>
</g>
</g>
<!-- Node25&#45;&gt;Node35 -->
<g id="edge31" class="edge">
<title>Node25&#45;&gt;Node35</title>
<path fill="none" stroke="midnightblue" d="M5604.59,-147.74C5445.66,-145.3 5139.69,-135.62 4882.5,-98 4879.77,-97.6 4876.97,-97.14 4874.16,-96.64"/>
<polygon fill="midnightblue" stroke="midnightblue" points="5604.79,-151.24 5614.84,-147.89 5604.89,-144.24 5604.79,-151.24"/>
</g>
<!-- Node36 -->
<g id="node33" class="node">
<title>Node36</title>
<g id="a_node33"><a xlink:href="../../d1/d76/vspline__p_8h.html" target="_top" xlink:title=" ">
<polygon fill="white" stroke="red" points="4892,-67.5 4892,-97.5 4999,-97.5 4999,-67.5 4892,-67.5"/>
<text text-anchor="start" x="4900" y="-85.5" font-family="Helvetica,sans-Serif" font-size="10.00">src/libs/vgeometry</text>
<text text-anchor="middle" x="4945.5" y="-74.5" font-family="Helvetica,sans-Serif" font-size="10.00">/vspline_p.h</text>
</a>
</g>
</g>
<!-- Node25&#45;&gt;Node36 -->
<g id="edge33" class="edge">
<title>Node25&#45;&gt;Node36</title>
<path fill="none" stroke="midnightblue" d="M5604.7,-145.94C5466.07,-141.46 5218.2,-129.46 5008.5,-98 5005.39,-97.53 5002.21,-97 4999.01,-96.41"/>
<polygon fill="midnightblue" stroke="midnightblue" points="5604.79,-149.44 5614.9,-146.26 5605.01,-142.45 5604.79,-149.44"/>
</g>
<!-- Node38 -->
<g id="node34" class="node">
<title>Node38</title>
<g id="a_node34"><a xlink:href="../../d9/d15/vabstractpiece_8cpp.html" target="_top" xlink:title=" ">
<polygon fill="white" stroke="black" points="5017.5,-73 5017.5,-92 5203.5,-92 5203.5,-73 5017.5,-73"/>
<text text-anchor="middle" x="5110.5" y="-80" font-family="Helvetica,sans-Serif" font-size="10.00">src/libs/vlayout/vabstractpiece.cpp</text>
</a>
</g>
</g>
<!-- Node25&#45;&gt;Node38 -->
<g id="edge34" class="edge">
<title>Node25&#45;&gt;Node38</title>
<path fill="none" stroke="midnightblue" d="M5606.28,-139.03C5504.97,-129.7 5348.15,-114.49 5212.5,-98 5197.94,-96.23 5182.24,-94.11 5167.63,-92.04"/>
<polygon fill="midnightblue" stroke="midnightblue" points="5606.24,-142.54 5616.52,-139.97 5606.88,-135.57 5606.24,-142.54"/>
</g>
<!-- Node39 -->
<g id="node35" class="node">
<title>Node39</title>
<g id="a_node35"><a xlink:href="../../d8/d70/vtextmanager_8cpp.html" target="_top" xlink:title=" ">
<polygon fill="white" stroke="black" points="5221.5,-73 5221.5,-92 5403.5,-92 5403.5,-73 5221.5,-73"/>
<text text-anchor="middle" x="5312.5" y="-80" font-family="Helvetica,sans-Serif" font-size="10.00">src/libs/vlayout/vtextmanager.cpp</text>
</a>
</g>
</g>
<!-- Node25&#45;&gt;Node39 -->
<g id="edge35" class="edge">
<title>Node25&#45;&gt;Node39</title>
<path fill="none" stroke="midnightblue" d="M5649.56,-138.27C5571.06,-125.52 5438.29,-103.94 5365,-92.03"/>
<polygon fill="midnightblue" stroke="midnightblue" points="5649.36,-141.79 5659.8,-139.94 5650.49,-134.88 5649.36,-141.79"/>
</g>
<!-- Node40 -->
<g id="node36" class="node">
<title>Node40</title>
<g id="a_node36"><a xlink:href="../../db/d65/dialogexporttocsv_8cpp.html" target="_top" xlink:title=" ">
<polygon fill="white" stroke="black" points="5422,-67.5 5422,-97.5 5549,-97.5 5549,-67.5 5422,-67.5"/>
<text text-anchor="start" x="5430" y="-85.5" font-family="Helvetica,sans-Serif" font-size="10.00">src/libs/vmisc/dialogs</text>
<text text-anchor="middle" x="5485.5" y="-74.5" font-family="Helvetica,sans-Serif" font-size="10.00">/dialogexporttocsv.cpp</text>
</a>
</g>
</g>
<!-- Node25&#45;&gt;Node40 -->
<g id="edge36" class="edge">
<title>Node25&#45;&gt;Node40</title>
<path fill="none" stroke="midnightblue" d="M5672.54,-137.06C5634.05,-126.04 5575.76,-109.34 5534.49,-97.53"/>
<polygon fill="midnightblue" stroke="midnightblue" points="5671.78,-140.48 5682.36,-139.87 5673.71,-133.75 5671.78,-140.48"/>
</g>
<!-- Node41 -->
<g id="node37" class="node">
<title>Node41</title>
<g id="a_node37"><a xlink:href="../../d6/d0b/def_8cpp.html" target="_top" xlink:title=" ">
<polygon fill="white" stroke="black" points="5567.5,-73 5567.5,-92 5689.5,-92 5689.5,-73 5567.5,-73"/>
<text text-anchor="middle" x="5628.5" y="-80" font-family="Helvetica,sans-Serif" font-size="10.00">src/libs/vmisc/def.cpp</text>
</a>
</g>
</g>
<!-- Node25&#45;&gt;Node41 -->
<g id="edge37" class="edge">
<title>Node25&#45;&gt;Node41</title>
<path fill="none" stroke="midnightblue" d="M5693.2,-133.57C5676.62,-120.74 5653.29,-102.69 5639.65,-92.13"/>
<polygon fill="midnightblue" stroke="midnightblue" points="5691.12,-136.38 5701.17,-139.73 5695.4,-130.85 5691.12,-136.38"/>
</g>
<!-- Node42 -->
<g id="node38" class="node">
<title>Node42</title>
<g id="a_node38"><a xlink:href="../../dd/d70/vlayoutpiece_8cpp.html" target="_top" xlink:title=" ">
<polygon fill="white" stroke="black" points="5708,-73 5708,-92 5885,-92 5885,-73 5708,-73"/>
<text text-anchor="middle" x="5796.5" y="-80" font-family="Helvetica,sans-Serif" font-size="10.00">src/libs/vlayout/vlayoutpiece.cpp</text>
</a>
</g>
</g>
<!-- Node25&#45;&gt;Node42 -->
<g id="edge38" class="edge">
<title>Node25&#45;&gt;Node42</title>
<path fill="none" stroke="midnightblue" d="M5731.8,-133.57C5748.38,-120.74 5771.71,-102.69 5785.35,-92.13"/>
<polygon fill="midnightblue" stroke="midnightblue" points="5729.6,-130.85 5723.83,-139.73 5733.88,-136.38 5729.6,-130.85"/>
</g>
<!-- Node43 -->
<g id="node39" class="node">
<title>Node43</title>
<g id="a_node39"><a xlink:href="../../d0/df6/vabstractapplication_8cpp.html" target="_top" xlink:title=" ">
<polygon fill="white" stroke="black" points="5903.5,-73 5903.5,-92 6109.5,-92 6109.5,-73 5903.5,-73"/>
<text text-anchor="middle" x="6006.5" y="-80" font-family="Helvetica,sans-Serif" font-size="10.00">src/libs/vmisc/vabstractapplication.cpp</text>
</a>
</g>
</g>
<!-- Node25&#45;&gt;Node43 -->
<g id="edge39" class="edge">
<title>Node25&#45;&gt;Node43</title>
<path fill="none" stroke="midnightblue" d="M5761.24,-137.72C5819.13,-124.92 5914.53,-103.83 5967.68,-92.08"/>
<polygon fill="midnightblue" stroke="midnightblue" points="5760.25,-134.36 5751.24,-139.94 5761.76,-141.19 5760.25,-134.36"/>
</g>
<!-- Node44 -->
<g id="node40" class="node">
<title>Node44</title>
<g id="a_node40"><a xlink:href="../../d4/d4f/pmsystems_8cpp.html" target="_top" xlink:title=" ">
<polygon fill="white" stroke="black" points="6128,-67.5 6128,-97.5 6235,-97.5 6235,-67.5 6128,-67.5"/>
<text text-anchor="start" x="6136" y="-85.5" font-family="Helvetica,sans-Serif" font-size="10.00">src/libs/vpatterndb</text>
<text text-anchor="middle" x="6181.5" y="-74.5" font-family="Helvetica,sans-Serif" font-size="10.00">/pmsystems.cpp</text>
</a>
</g>
</g>
<!-- Node25&#45;&gt;Node44 -->
<g id="edge40" class="edge">
<title>Node25&#45;&gt;Node44</title>
<path fill="none" stroke="midnightblue" d="M5787.16,-138.66C5799.31,-137.08 5811.75,-135.48 5823.5,-134 5954.54,-117.45 5988.41,-120.84 6118.5,-98 6121.6,-97.46 6124.77,-96.86 6127.96,-96.22"/>
<polygon fill="midnightblue" stroke="midnightblue" points="5786.52,-135.21 5777.05,-139.97 5787.42,-142.15 5786.52,-135.21"/>
</g>
<!-- Node45 -->
<g id="node41" class="node">
<title>Node45</title>
<g id="a_node41"><a xlink:href="../../db/d11/vformula_8cpp.html" target="_top" xlink:title=" ">
<polygon fill="white" stroke="black" points="6253,-67.5 6253,-97.5 6360,-97.5 6360,-67.5 6253,-67.5"/>
<text text-anchor="start" x="6261" y="-85.5" font-family="Helvetica,sans-Serif" font-size="10.00">src/libs/vpatterndb</text>
<text text-anchor="middle" x="6306.5" y="-74.5" font-family="Helvetica,sans-Serif" font-size="10.00">/vformula.cpp</text>
</a>
</g>
</g>
<!-- Node25&#45;&gt;Node45 -->
<g id="edge41" class="edge">
<title>Node25&#45;&gt;Node45</title>
<path fill="none" stroke="midnightblue" d="M5783.78,-138.71C5796.97,-137.04 5810.64,-135.39 5823.5,-134 6009.77,-113.86 6058.42,-127.08 6243.5,-98 6246.6,-97.51 6249.78,-96.96 6252.98,-96.36"/>
<polygon fill="midnightblue" stroke="midnightblue" points="5783.27,-135.25 5773.8,-140 5784.16,-142.19 5783.27,-135.25"/>
</g>
<!-- Node46 -->
<g id="node42" class="node">
<title>Node46</title>
<g id="a_node42"><a xlink:href="../../d6/d46/vcontainer_8cpp.html" target="_top" xlink:title=" ">
<polygon fill="white" stroke="black" points="6378,-67.5 6378,-97.5 6485,-97.5 6485,-67.5 6378,-67.5"/>
<text text-anchor="start" x="6386" y="-85.5" font-family="Helvetica,sans-Serif" font-size="10.00">src/libs/vpatterndb</text>
<text text-anchor="middle" x="6431.5" y="-74.5" font-family="Helvetica,sans-Serif" font-size="10.00">/vcontainer.cpp</text>
</a>
</g>
</g>
<!-- Node25&#45;&gt;Node46 -->
<g id="edge42" class="edge">
<title>Node25&#45;&gt;Node46</title>
<path fill="none" stroke="midnightblue" d="M5782.57,-138.66C5796.13,-136.95 5810.25,-135.3 5823.5,-134 6065.09,-110.27 6128.34,-133.34 6368.5,-98 6371.61,-97.54 6374.79,-97.01 6377.99,-96.43"/>
<polygon fill="midnightblue" stroke="midnightblue" points="5781.8,-135.23 5772.33,-139.97 5782.7,-142.17 5781.8,-135.23"/>
</g>
<!-- Node47 -->
<g id="node43" class="node">
<title>Node47</title>
<g id="a_node43"><a xlink:href="../../df/dba/vpiecenode__p_8h.html" target="_top" xlink:title=" ">
<polygon fill="white" stroke="red" points="6503,-67.5 6503,-97.5 6610,-97.5 6610,-67.5 6503,-67.5"/>
<text text-anchor="start" x="6511" y="-85.5" font-family="Helvetica,sans-Serif" font-size="10.00">src/libs/vpatterndb</text>
<text text-anchor="middle" x="6556.5" y="-74.5" font-family="Helvetica,sans-Serif" font-size="10.00">/vpiecenode_p.h</text>
</a>
</g>
</g>
<!-- Node25&#45;&gt;Node47 -->
<g id="edge43" class="edge">
<title>Node25&#45;&gt;Node47</title>
<path fill="none" stroke="midnightblue" d="M5781.21,-138.69C5795.18,-136.93 5809.8,-135.26 5823.5,-134 6120.45,-106.67 6198.21,-139.6 6493.5,-98 6496.5,-97.58 6499.57,-97.08 6502.66,-96.54"/>
<polygon fill="midnightblue" stroke="midnightblue" points="5780.64,-135.24 5771.17,-139.99 5781.53,-142.18 5780.64,-135.24"/>
</g>
<!-- Node49 -->
<g id="node44" class="node">
<title>Node49</title>
<g id="a_node44"><a xlink:href="../../df/d7a/vpiece_8cpp.html" target="_top" xlink:title=" ">
<polygon fill="white" stroke="black" points="6628,-67.5 6628,-97.5 6735,-97.5 6735,-67.5 6628,-67.5"/>
<text text-anchor="start" x="6636" y="-85.5" font-family="Helvetica,sans-Serif" font-size="10.00">src/libs/vpatterndb</text>
<text text-anchor="middle" x="6681.5" y="-74.5" font-family="Helvetica,sans-Serif" font-size="10.00">/vpiece.cpp</text>
</a>
</g>
</g>
<!-- Node25&#45;&gt;Node49 -->
<g id="edge44" class="edge">
<title>Node25&#45;&gt;Node49</title>
<path fill="none" stroke="midnightblue" d="M5780.72,-138.66C5794.84,-136.89 5809.63,-135.22 5823.5,-134 6175.84,-103.07 6268.06,-145.86 6618.5,-98 6621.5,-97.59 6624.57,-97.11 6627.66,-96.57"/>
<polygon fill="midnightblue" stroke="midnightblue" points="5780.05,-135.22 5770.58,-139.97 5780.95,-142.16 5780.05,-135.22"/>
</g>
<!-- Node50 -->
<g id="node45" class="node">
<title>Node50</title>
<g id="a_node45"><a xlink:href="../../de/d3e/vtranslatevars_8cpp.html" target="_top" xlink:title=" ">
<polygon fill="white" stroke="black" points="6753.5,-67.5 6753.5,-97.5 6863.5,-97.5 6863.5,-67.5 6753.5,-67.5"/>
<text text-anchor="start" x="6761.5" y="-85.5" font-family="Helvetica,sans-Serif" font-size="10.00">src/libs/vpatterndb</text>
<text text-anchor="middle" x="6808.5" y="-74.5" font-family="Helvetica,sans-Serif" font-size="10.00">/vtranslatevars.cpp</text>
</a>
</g>
</g>
<!-- Node25&#45;&gt;Node50 -->
<g id="edge45" class="edge">
<title>Node25&#45;&gt;Node50</title>
<path fill="none" stroke="midnightblue" d="M5780.24,-138.66C5794.5,-136.86 5809.48,-135.19 5823.5,-134 6231.24,-99.46 6337.71,-150.76 6743.5,-98 6746.71,-97.58 6750,-97.08 6753.3,-96.52"/>
<polygon fill="midnightblue" stroke="midnightblue" points="5779.47,-135.23 5770,-139.98 5780.37,-142.17 5779.47,-135.23"/>
</g>
<!-- Node51 -->
<g id="node46" class="node">
<title>Node51</title>
<g id="a_node46"><a xlink:href="../../df/d40/export__format__combobox_8cpp.html" target="_top" xlink:title=" ">
<polygon fill="white" stroke="black" points="6882,-67.5 6882,-97.5 7015,-97.5 7015,-67.5 6882,-67.5"/>
<text text-anchor="start" x="6890" y="-85.5" font-family="Helvetica,sans-Serif" font-size="10.00">src/libs/vwidgets/export</text>
<text text-anchor="middle" x="6948.5" y="-74.5" font-family="Helvetica,sans-Serif" font-size="10.00">_format_combobox.cpp</text>
</a>
</g>
</g>
<!-- Node25&#45;&gt;Node51 -->
<g id="edge46" class="edge">
<title>Node25&#45;&gt;Node51</title>
<path fill="none" stroke="midnightblue" d="M5780,-138.64C5794.33,-136.83 5809.39,-135.16 5823.5,-134 6288.43,-95.74 6408.9,-149.87 6872.5,-98 6875.57,-97.66 6878.7,-97.26 6881.86,-96.82"/>
<polygon fill="midnightblue" stroke="midnightblue" points="5779.18,-135.21 5769.71,-139.96 5780.08,-142.15 5779.18,-135.21"/>
</g>
<!-- Node52 -->
<g id="node47" class="node">
<title>Node52</title>
<g id="a_node47"><a xlink:href="../../d3/d4f/mouse__coordinates_8cpp.html" target="_top" xlink:title=" ">
<polygon fill="white" stroke="black" points="7033.5,-67.5 7033.5,-97.5 7167.5,-97.5 7167.5,-67.5 7033.5,-67.5"/>
<text text-anchor="start" x="7041.5" y="-85.5" font-family="Helvetica,sans-Serif" font-size="10.00">src/libs/vwidgets/mouse</text>
<text text-anchor="middle" x="7100.5" y="-74.5" font-family="Helvetica,sans-Serif" font-size="10.00">_coordinates.cpp</text>
</a>
</g>
</g>
<!-- Node25&#45;&gt;Node52 -->
<g id="edge47" class="edge">
<title>Node25&#45;&gt;Node52</title>
<path fill="none" stroke="midnightblue" d="M5779.1,-138.7C5793.7,-136.86 5809.1,-135.15 5823.5,-134 6355.37,-91.39 6493.04,-155.55 7023.5,-98 7026.75,-97.65 7030.06,-97.23 7033.4,-96.77"/>
<polygon fill="midnightblue" stroke="midnightblue" points="5778.61,-135.24 5769.14,-139.99 5779.51,-142.18 5778.61,-135.24"/>
</g>
<!-- Node53 -->
<g id="node48" class="node">
<title>Node53</title>
<g id="a_node48"><a xlink:href="../../d2/d28/page__format__combobox_8cpp.html" target="_top" xlink:title=" ">
<polygon fill="white" stroke="black" points="7186,-67.5 7186,-97.5 7317,-97.5 7317,-67.5 7186,-67.5"/>
<text text-anchor="start" x="7194" y="-85.5" font-family="Helvetica,sans-Serif" font-size="10.00">src/libs/vwidgets/page</text>
<text text-anchor="middle" x="7251.5" y="-74.5" font-family="Helvetica,sans-Serif" font-size="10.00">_format_combobox.cpp</text>
</a>
</g>
</g>
<!-- Node25&#45;&gt;Node53 -->
<g id="edge48" class="edge">
<title>Node25&#45;&gt;Node53</title>
<path fill="none" stroke="midnightblue" d="M5778.86,-138.69C5793.53,-136.84 5809.02,-135.14 5823.5,-134 6423.21,-86.98 6578.51,-163.31 7176.5,-98 7179.53,-97.67 7182.62,-97.28 7185.74,-96.85"/>
<polygon fill="midnightblue" stroke="midnightblue" points="5778.32,-135.24 5768.85,-139.99 5779.22,-142.18 5778.32,-135.24"/>
</g>
<!-- Node25&#45;&gt;Node63 -->
<g id="edge49" class="edge">
<title>Node25&#45;&gt;Node63</title>
<path fill="none" stroke="midnightblue" d="M5778.85,-138.67C5793.53,-136.82 5809.02,-135.12 5823.5,-134 6489.27,-82.68 6659.54,-146.78 7325.5,-98 7344.44,-96.61 7365,-94.35 7383.58,-92.02"/>
<polygon fill="midnightblue" stroke="midnightblue" points="5778.31,-135.21 5768.85,-139.96 5779.22,-142.15 5778.31,-135.21"/>
</g>
<!-- Node35&#45;&gt;Node34 -->
<g id="edge32" class="edge">
<title>Node35&#45;&gt;Node34</title>
<path fill="none" stroke="midnightblue" d="M4806.22,-58.87C4800.29,-49.46 4793.59,-38.83 4788.38,-30.58"/>
<polygon fill="midnightblue" stroke="midnightblue" points="4803.31,-60.81 4811.6,-67.4 4809.23,-57.07 4803.31,-60.81"/>
</g>
</g>
</svg>
