<?xml version="1.0" encoding="UTF-8" standalone="no"?>
<!DOCTYPE svg PUBLIC "-//W3C//DTD SVG 1.1//EN"
 "http://www.w3.org/Graphics/SVG/1.1/DTD/svg11.dtd">
<!-- Generated by graphviz version 2.43.0 (0)
 -->
<!-- Title: VPE::VShortcutProperty Pages: 1 -->
<svg width="140pt" height="474pt"
 viewBox="0.00 0.00 140.00 474.00" xmlns="http://www.w3.org/2000/svg" xmlns:xlink="http://www.w3.org/1999/xlink">
<g id="graph0" class="graph" transform="scale(1 1) rotate(0) translate(4 470)">
<title>VPE::VShortcutProperty</title>
<polygon fill="white" stroke="transparent" points="-4,4 -4,-470 136,-470 136,4 -4,4"/>
<!-- Node1 -->
<g id="node1" class="node">
<title>Node1</title>
<g id="a_node1"><a xlink:title="This property can be used to handle key shortcuts.">
<polygon fill="#bfbfbf" stroke="black" points="0,-0.5 0,-145.5 132,-145.5 132,-0.5 0,-0.5"/>
<text text-anchor="middle" x="66" y="-133.5" font-family="Helvetica,sans-Serif" font-size="10.00">VPE::VShortcutProperty</text>
<polyline fill="none" stroke="black" points="0,-126.5 132,-126.5 "/>
<text text-anchor="middle" x="66" y="-114.5" font-family="Helvetica,sans-Serif" font-size="10.00"> </text>
<polyline fill="none" stroke="black" points="0,-107.5 132,-107.5 "/>
<text text-anchor="start" x="8" y="-95.5" font-family="Helvetica,sans-Serif" font-size="10.00">+ VShortcutProperty()</text>
<text text-anchor="start" x="8" y="-84.5" font-family="Helvetica,sans-Serif" font-size="10.00">+ ~VShortcutProperty()</text>
<text text-anchor="start" x="8" y="-73.5" font-family="Helvetica,sans-Serif" font-size="10.00">+ data()</text>
<text text-anchor="start" x="8" y="-62.5" font-family="Helvetica,sans-Serif" font-size="10.00">+ createEditor()</text>
<text text-anchor="start" x="8" y="-51.5" font-family="Helvetica,sans-Serif" font-size="10.00">+ setEditorData()</text>
<text text-anchor="start" x="8" y="-40.5" font-family="Helvetica,sans-Serif" font-size="10.00">+ getEditorData()</text>
<text text-anchor="start" x="8" y="-29.5" font-family="Helvetica,sans-Serif" font-size="10.00">+ type()</text>
<text text-anchor="start" x="8" y="-18.5" font-family="Helvetica,sans-Serif" font-size="10.00">+ clone()</text>
<text text-anchor="start" x="8" y="-7.5" font-family="Helvetica,sans-Serif" font-size="10.00">+ setValue()</text>
</a>
</g>
</g>
<!-- Node2 -->
<g id="node2" class="node">
<title>Node2</title>
<g id="a_node2"><a xlink:href="../../db/df9/classVPE_1_1VProperty.html" target="_top" xlink:title=" ">
<polygon fill="white" stroke="black" points="2,-182.5 2,-371.5 130,-371.5 130,-182.5 2,-182.5"/>
<text text-anchor="middle" x="66" y="-359.5" font-family="Helvetica,sans-Serif" font-size="10.00">VPE::VProperty</text>
<polyline fill="none" stroke="black" points="2,-352.5 130,-352.5 "/>
<text text-anchor="start" x="10" y="-340.5" font-family="Helvetica,sans-Serif" font-size="10.00"># d_ptr</text>
<polyline fill="none" stroke="black" points="2,-333.5 130,-333.5 "/>
<text text-anchor="start" x="10" y="-321.5" font-family="Helvetica,sans-Serif" font-size="10.00">+ VProperty()</text>
<text text-anchor="start" x="10" y="-310.5" font-family="Helvetica,sans-Serif" font-size="10.00">+ ~VProperty()</text>
<text text-anchor="start" x="10" y="-299.5" font-family="Helvetica,sans-Serif" font-size="10.00">+ type()</text>
<text text-anchor="start" x="10" y="-288.5" font-family="Helvetica,sans-Serif" font-size="10.00">+ data()</text>
<text text-anchor="start" x="10" y="-277.5" font-family="Helvetica,sans-Serif" font-size="10.00">+ setData()</text>
<text text-anchor="start" x="10" y="-266.5" font-family="Helvetica,sans-Serif" font-size="10.00">+ paint()</text>
<text text-anchor="start" x="10" y="-255.5" font-family="Helvetica,sans-Serif" font-size="10.00">+ createEditor()</text>
<text text-anchor="start" x="10" y="-244.5" font-family="Helvetica,sans-Serif" font-size="10.00">+ setEditorData()</text>
<text text-anchor="start" x="10" y="-233.5" font-family="Helvetica,sans-Serif" font-size="10.00">+ getEditorData()</text>
<text text-anchor="start" x="10" y="-222.5" font-family="Helvetica,sans-Serif" font-size="10.00">+ flags()</text>
<text text-anchor="start" x="10" y="-211.5" font-family="Helvetica,sans-Serif" font-size="10.00">and 29 more...</text>
<text text-anchor="start" x="10" y="-200.5" font-family="Helvetica,sans-Serif" font-size="10.00">+ childValueChanged()</text>
<text text-anchor="start" x="10" y="-189.5" font-family="Helvetica,sans-Serif" font-size="10.00"># VProperty()</text>
</a>
</g>
</g>
<!-- Node2&#45;&gt;Node1 -->
<g id="edge1" class="edge">
<title>Node2&#45;&gt;Node1</title>
<path fill="none" stroke="midnightblue" d="M66,-172.21C66,-163.2 66,-154.21 66,-145.54"/>
<polygon fill="none" stroke="midnightblue" points="62.5,-172.39 66,-182.39 69.5,-172.39 62.5,-172.39"/>
</g>
<!-- Node3 -->
<g id="node3" class="node">
<title>Node3</title>
<g id="a_node3"><a xlink:title=" ">
<polygon fill="white" stroke="#bfbfbf" points="38,-408.5 38,-465.5 94,-465.5 94,-408.5 38,-408.5"/>
<text text-anchor="middle" x="66" y="-453.5" font-family="Helvetica,sans-Serif" font-size="10.00">QObject</text>
<polyline fill="none" stroke="#bfbfbf" points="38,-446.5 94,-446.5 "/>
<text text-anchor="middle" x="66" y="-434.5" font-family="Helvetica,sans-Serif" font-size="10.00"> </text>
<polyline fill="none" stroke="#bfbfbf" points="38,-427.5 94,-427.5 "/>
<text text-anchor="middle" x="66" y="-415.5" font-family="Helvetica,sans-Serif" font-size="10.00"> </text>
</a>
</g>
</g>
<!-- Node3&#45;&gt;Node2 -->
<g id="edge2" class="edge">
<title>Node3&#45;&gt;Node2</title>
<path fill="none" stroke="midnightblue" d="M66,-398.22C66,-390.01 66,-380.99 66,-371.68"/>
<polygon fill="none" stroke="midnightblue" points="62.5,-398.48 66,-408.48 69.5,-398.48 62.5,-398.48"/>
</g>
</g>
</svg>
