<?xml version="1.0" encoding="UTF-8" standalone="no"?>
<!DOCTYPE svg PUBLIC "-//W3C//DTD SVG 1.1//EN"
 "http://www.w3.org/Graphics/SVG/1.1/DTD/svg11.dtd">
<!-- Generated by graphviz version 2.43.0 (0)
 -->
<!-- Title: src/libs/vdxf/vdxfengine.cpp Pages: 1 -->
<svg width="3287pt" height="274pt"
 viewBox="0.00 0.00 3287.00 274.00" xmlns="http://www.w3.org/2000/svg" xmlns:xlink="http://www.w3.org/1999/xlink">
<g id="graph0" class="graph" transform="scale(1 1) rotate(0) translate(4 270)">
<title>src/libs/vdxf/vdxfengine.cpp</title>
<polygon fill="white" stroke="transparent" points="-4,4 -4,-270 3283,-270 3283,4 -4,4"/>
<!-- Node1 -->
<g id="node1" class="node">
<title>Node1</title>
<g id="a_node1"><a xlink:title=" ">
<polygon fill="#bfbfbf" stroke="black" points="2255,-246.5 2255,-265.5 2409,-265.5 2409,-246.5 2255,-246.5"/>
<text text-anchor="middle" x="2332" y="-253.5" font-family="Helvetica,sans-Serif" font-size="10.00">src/libs/vdxf/vdxfengine.cpp</text>
</a>
</g>
</g>
<!-- Node2 -->
<g id="node2" class="node">
<title>Node2</title>
<g id="a_node2"><a xlink:href="../../d8/d96/vdxfengine_8h.html" target="_top" xlink:title=" ">
<polygon fill="white" stroke="black" points="1286,-190.5 1286,-209.5 1366,-209.5 1366,-190.5 1286,-190.5"/>
<text text-anchor="middle" x="1326" y="-197.5" font-family="Helvetica,sans-Serif" font-size="10.00">vdxfengine.h</text>
</a>
</g>
</g>
<!-- Node1&#45;&gt;Node2 -->
<g id="edge1" class="edge">
<title>Node1&#45;&gt;Node2</title>
<path fill="none" stroke="midnightblue" d="M2254.73,-250.85C2057.65,-240.27 1540.29,-212.5 1376.49,-203.71"/>
<polygon fill="midnightblue" stroke="midnightblue" points="1376.4,-200.2 1366.22,-203.16 1376.02,-207.19 1376.4,-200.2"/>
</g>
<!-- Node12 -->
<g id="node12" class="node">
<title>Node12</title>
<g id="a_node12"><a xlink:href="../../d4/da4/def_8h.html" target="_top" xlink:title=" ">
<polygon fill="white" stroke="black" points="1788,-129 1788,-148 1870,-148 1870,-129 1788,-129"/>
<text text-anchor="middle" x="1829" y="-136" font-family="Helvetica,sans-Serif" font-size="10.00">../vmisc/def.h</text>
</a>
</g>
</g>
<!-- Node1&#45;&gt;Node12 -->
<g id="edge42" class="edge">
<title>Node1&#45;&gt;Node12</title>
<path fill="none" stroke="midnightblue" d="M2254.61,-253.16C2147.4,-249.56 1960.02,-239.19 1899,-210 1874.06,-198.07 1852.9,-173.43 1840.57,-156.68"/>
<polygon fill="midnightblue" stroke="midnightblue" points="1843.29,-154.47 1834.66,-148.32 1837.58,-158.51 1843.29,-154.47"/>
</g>
<!-- Node14 -->
<g id="node14" class="node">
<title>Node14</title>
<g id="a_node14"><a xlink:title=" ">
<polygon fill="white" stroke="#bfbfbf" points="1015,-62 1015,-81 1065,-81 1065,-62 1015,-62"/>
<text text-anchor="middle" x="1040" y="-69" font-family="Helvetica,sans-Serif" font-size="10.00">QLineF</text>
</a>
</g>
</g>
<!-- Node1&#45;&gt;Node14 -->
<g id="edge32" class="edge">
<title>Node1&#45;&gt;Node14</title>
<path fill="none" stroke="midnightblue" d="M2254.69,-255.02C2044.1,-254.56 1463.62,-249.61 1277,-210 1210.64,-195.92 1193.11,-189.02 1135,-154 1104.01,-135.32 1073.15,-106.47 1055.35,-88.57"/>
<polygon fill="midnightblue" stroke="midnightblue" points="1057.64,-85.9 1048.14,-81.2 1052.63,-90.79 1057.64,-85.9"/>
</g>
<!-- Node16 -->
<g id="node16" class="node">
<title>Node16</title>
<g id="a_node16"><a xlink:title=" ">
<polygon fill="white" stroke="#bfbfbf" points="2092.5,-62 2092.5,-81 2121.5,-81 2121.5,-62 2092.5,-62"/>
<text text-anchor="middle" x="2107" y="-69" font-family="Helvetica,sans-Serif" font-size="10.00">Qt</text>
</a>
</g>
</g>
<!-- Node1&#45;&gt;Node16 -->
<g id="edge40" class="edge">
<title>Node1&#45;&gt;Node16</title>
<path fill="none" stroke="midnightblue" d="M2254.71,-255.05C2171.82,-253.26 2048.03,-244.64 2018,-210 2012.18,-203.28 2012.55,-197.02 2018,-190 2057.37,-139.23 2118.63,-204.77 2158,-154 2174.99,-132.09 2148.46,-104.3 2127.73,-87.48"/>
<polygon fill="midnightblue" stroke="midnightblue" points="2129.67,-84.56 2119.62,-81.2 2125.39,-90.09 2129.67,-84.56"/>
</g>
<!-- Node24 -->
<g id="node23" class="node">
<title>Node24</title>
<g id="a_node23"><a xlink:title=" ">
<polygon fill="white" stroke="#bfbfbf" points="2026.5,-190.5 2026.5,-209.5 2099.5,-209.5 2099.5,-190.5 2026.5,-190.5"/>
<text text-anchor="middle" x="2063" y="-197.5" font-family="Helvetica,sans-Serif" font-size="10.00">QByteArray</text>
</a>
</g>
</g>
<!-- Node1&#45;&gt;Node24 -->
<g id="edge26" class="edge">
<title>Node1&#45;&gt;Node24</title>
<path fill="none" stroke="midnightblue" d="M2289.38,-246.44C2240.45,-236.62 2160.46,-220.56 2109.83,-210.4"/>
<polygon fill="midnightblue" stroke="midnightblue" points="2110.3,-206.93 2099.81,-208.39 2108.92,-213.79 2110.3,-206.93"/>
</g>
<!-- Node25 -->
<g id="node24" class="node">
<title>Node25</title>
<g id="a_node24"><a xlink:title=" ">
<polygon fill="white" stroke="#bfbfbf" points="2118,-190.5 2118,-209.5 2168,-209.5 2168,-190.5 2118,-190.5"/>
<text text-anchor="middle" x="2143" y="-197.5" font-family="Helvetica,sans-Serif" font-size="10.00">QColor</text>
</a>
</g>
</g>
<!-- Node1&#45;&gt;Node25 -->
<g id="edge27" class="edge">
<title>Node1&#45;&gt;Node25</title>
<path fill="none" stroke="midnightblue" d="M2302.05,-246.44C2268.42,-236.83 2213.9,-221.26 2178.24,-211.07"/>
<polygon fill="midnightblue" stroke="midnightblue" points="2178.85,-207.6 2168.27,-208.22 2176.92,-214.33 2178.85,-207.6"/>
</g>
<!-- Node26 -->
<g id="node25" class="node">
<title>Node26</title>
<g id="a_node25"><a xlink:title=" ">
<polygon fill="white" stroke="#bfbfbf" points="2186,-190.5 2186,-209.5 2258,-209.5 2258,-190.5 2186,-190.5"/>
<text text-anchor="middle" x="2222" y="-197.5" font-family="Helvetica,sans-Serif" font-size="10.00">QDateTime</text>
</a>
</g>
</g>
<!-- Node1&#45;&gt;Node26 -->
<g id="edge28" class="edge">
<title>Node1&#45;&gt;Node26</title>
<path fill="none" stroke="midnightblue" d="M2314.33,-246.32C2296.61,-237.62 2269.1,-224.12 2248.71,-214.11"/>
<polygon fill="midnightblue" stroke="midnightblue" points="2250.15,-210.92 2239.63,-209.65 2247.06,-217.2 2250.15,-210.92"/>
</g>
<!-- Node27 -->
<g id="node26" class="node">
<title>Node27</title>
<g id="a_node26"><a xlink:title=" ">
<polygon fill="white" stroke="#bfbfbf" points="2276.5,-190.5 2276.5,-209.5 2321.5,-209.5 2321.5,-190.5 2276.5,-190.5"/>
<text text-anchor="middle" x="2299" y="-197.5" font-family="Helvetica,sans-Serif" font-size="10.00">QFlag</text>
</a>
</g>
</g>
<!-- Node1&#45;&gt;Node27 -->
<g id="edge29" class="edge">
<title>Node1&#45;&gt;Node27</title>
<path fill="none" stroke="midnightblue" d="M2326.55,-246.08C2321.99,-238.61 2315.33,-227.72 2309.71,-218.52"/>
<polygon fill="midnightblue" stroke="midnightblue" points="2312.55,-216.46 2304.35,-209.75 2306.58,-220.11 2312.55,-216.46"/>
</g>
<!-- Node28 -->
<g id="node27" class="node">
<title>Node28</title>
<g id="a_node27"><a xlink:title=" ">
<polygon fill="white" stroke="#bfbfbf" points="2340,-190.5 2340,-209.5 2390,-209.5 2390,-190.5 2340,-190.5"/>
<text text-anchor="middle" x="2365" y="-197.5" font-family="Helvetica,sans-Serif" font-size="10.00">QFlags</text>
</a>
</g>
</g>
<!-- Node1&#45;&gt;Node28 -->
<g id="edge30" class="edge">
<title>Node1&#45;&gt;Node28</title>
<path fill="none" stroke="midnightblue" d="M2337.45,-246.08C2342.01,-238.61 2348.67,-227.72 2354.29,-218.52"/>
<polygon fill="midnightblue" stroke="midnightblue" points="2357.42,-220.11 2359.65,-209.75 2351.45,-216.46 2357.42,-220.11"/>
</g>
<!-- Node29 -->
<g id="node28" class="node">
<title>Node29</title>
<g id="a_node28"><a xlink:title=" ">
<polygon fill="white" stroke="#bfbfbf" points="2408.5,-190.5 2408.5,-209.5 2453.5,-209.5 2453.5,-190.5 2408.5,-190.5"/>
<text text-anchor="middle" x="2431" y="-197.5" font-family="Helvetica,sans-Serif" font-size="10.00">QFont</text>
</a>
</g>
</g>
<!-- Node1&#45;&gt;Node29 -->
<g id="edge31" class="edge">
<title>Node1&#45;&gt;Node29</title>
<path fill="none" stroke="midnightblue" d="M2347.91,-246.32C2363.64,-237.74 2387.94,-224.49 2406.21,-214.52"/>
<polygon fill="midnightblue" stroke="midnightblue" points="2408.03,-217.52 2415.13,-209.65 2404.68,-211.37 2408.03,-217.52"/>
</g>
<!-- Node30 -->
<g id="node29" class="node">
<title>Node30</title>
<g id="a_node29"><a xlink:title=" ">
<polygon fill="white" stroke="#bfbfbf" points="2471.5,-190.5 2471.5,-209.5 2512.5,-209.5 2512.5,-190.5 2471.5,-190.5"/>
<text text-anchor="middle" x="2492" y="-197.5" font-family="Helvetica,sans-Serif" font-size="10.00">QList</text>
</a>
</g>
</g>
<!-- Node1&#45;&gt;Node30 -->
<g id="edge33" class="edge">
<title>Node1&#45;&gt;Node30</title>
<path fill="none" stroke="midnightblue" d="M2357.35,-246.44C2385.69,-236.88 2431.56,-221.4 2461.76,-211.21"/>
<polygon fill="midnightblue" stroke="midnightblue" points="2462.99,-214.49 2471.35,-207.97 2460.75,-207.85 2462.99,-214.49"/>
</g>
<!-- Node31 -->
<g id="node30" class="node">
<title>Node31</title>
<g id="a_node30"><a xlink:title=" ">
<polygon fill="white" stroke="#bfbfbf" points="2530.5,-190.5 2530.5,-209.5 2631.5,-209.5 2631.5,-190.5 2530.5,-190.5"/>
<text text-anchor="middle" x="2581" y="-197.5" font-family="Helvetica,sans-Serif" font-size="10.00">QMessageLogger</text>
</a>
</g>
</g>
<!-- Node1&#45;&gt;Node31 -->
<g id="edge34" class="edge">
<title>Node1&#45;&gt;Node31</title>
<path fill="none" stroke="midnightblue" d="M2371.45,-246.44C2414.89,-237.02 2484.79,-221.87 2531.78,-211.68"/>
<polygon fill="midnightblue" stroke="midnightblue" points="2532.7,-215.06 2541.73,-209.52 2531.22,-208.22 2532.7,-215.06"/>
</g>
<!-- Node32 -->
<g id="node31" class="node">
<title>Node32</title>
<g id="a_node31"><a xlink:title=" ">
<polygon fill="white" stroke="#bfbfbf" points="2649.5,-190.5 2649.5,-209.5 2756.5,-209.5 2756.5,-190.5 2649.5,-190.5"/>
<text text-anchor="middle" x="2703" y="-197.5" font-family="Helvetica,sans-Serif" font-size="10.00">QPaintEngineState</text>
</a>
</g>
</g>
<!-- Node1&#45;&gt;Node32 -->
<g id="edge35" class="edge">
<title>Node1&#45;&gt;Node32</title>
<path fill="none" stroke="midnightblue" d="M2390.79,-246.44C2458.56,-236.58 2569.55,-220.42 2639.32,-210.27"/>
<polygon fill="midnightblue" stroke="midnightblue" points="2639.92,-213.72 2649.31,-208.82 2638.91,-206.79 2639.92,-213.72"/>
</g>
<!-- Node33 -->
<g id="node32" class="node">
<title>Node33</title>
<g id="a_node32"><a xlink:title=" ">
<polygon fill="white" stroke="#bfbfbf" points="2774.5,-190.5 2774.5,-209.5 2853.5,-209.5 2853.5,-190.5 2774.5,-190.5"/>
<text text-anchor="middle" x="2814" y="-197.5" font-family="Helvetica,sans-Serif" font-size="10.00">QPainterPath</text>
</a>
</g>
</g>
<!-- Node1&#45;&gt;Node33 -->
<g id="edge36" class="edge">
<title>Node1&#45;&gt;Node33</title>
<path fill="none" stroke="midnightblue" d="M2409.07,-248.93C2493.81,-241.82 2634.21,-228.77 2764.34,-210.14"/>
<polygon fill="midnightblue" stroke="midnightblue" points="2765.09,-213.57 2774.49,-208.67 2764.09,-206.64 2765.09,-213.57"/>
</g>
<!-- Node34 -->
<g id="node33" class="node">
<title>Node34</title>
<g id="a_node33"><a xlink:title=" ">
<polygon fill="white" stroke="#bfbfbf" points="2871,-190.5 2871,-209.5 2913,-209.5 2913,-190.5 2871,-190.5"/>
<text text-anchor="middle" x="2892" y="-197.5" font-family="Helvetica,sans-Serif" font-size="10.00">QPen</text>
</a>
</g>
</g>
<!-- Node1&#45;&gt;Node34 -->
<g id="edge37" class="edge">
<title>Node1&#45;&gt;Node34</title>
<path fill="none" stroke="midnightblue" d="M2409.22,-253.68C2511.19,-250.77 2696.23,-241.47 2861.09,-210.03"/>
<polygon fill="midnightblue" stroke="midnightblue" points="2861.76,-213.46 2870.91,-208.12 2860.43,-206.59 2861.76,-213.46"/>
</g>
<!-- Node35 -->
<g id="node34" class="node">
<title>Node35</title>
<g id="a_node34"><a xlink:title=" ">
<polygon fill="white" stroke="#bfbfbf" points="2931.5,-190.5 2931.5,-209.5 3000.5,-209.5 3000.5,-190.5 2931.5,-190.5"/>
<text text-anchor="middle" x="2966" y="-197.5" font-family="Helvetica,sans-Serif" font-size="10.00">QPolygonF</text>
</a>
</g>
</g>
<!-- Node1&#45;&gt;Node35 -->
<g id="edge38" class="edge">
<title>Node1&#45;&gt;Node35</title>
<path fill="none" stroke="midnightblue" d="M2409.17,-252.21C2520.2,-247.5 2731.53,-235.99 2921.32,-209.9"/>
<polygon fill="midnightblue" stroke="midnightblue" points="2922.06,-213.33 2931.48,-208.49 2921.1,-206.4 2922.06,-213.33"/>
</g>
<!-- Node36 -->
<g id="node35" class="node">
<title>Node36</title>
<g id="a_node35"><a xlink:title=" ">
<polygon fill="white" stroke="#bfbfbf" points="3018.5,-190.5 3018.5,-209.5 3085.5,-209.5 3085.5,-190.5 3018.5,-190.5"/>
<text text-anchor="middle" x="3052" y="-197.5" font-family="Helvetica,sans-Serif" font-size="10.00">QTextItem</text>
</a>
</g>
</g>
<!-- Node1&#45;&gt;Node36 -->
<g id="edge39" class="edge">
<title>Node1&#45;&gt;Node36</title>
<path fill="none" stroke="midnightblue" d="M2409.14,-253.51C2533.43,-250.31 2785.78,-240.51 3007.93,-210.11"/>
<polygon fill="midnightblue" stroke="midnightblue" points="3008.72,-213.53 3018.15,-208.69 3007.76,-206.6 3008.72,-213.53"/>
</g>
<!-- Node37 -->
<g id="node36" class="node">
<title>Node37</title>
<g id="a_node36"><a xlink:title=" ">
<polygon fill="white" stroke="#bfbfbf" points="3103.5,-190.5 3103.5,-209.5 3162.5,-209.5 3162.5,-190.5 3103.5,-190.5"/>
<text text-anchor="middle" x="3133" y="-197.5" font-family="Helvetica,sans-Serif" font-size="10.00">QtDebug</text>
</a>
</g>
</g>
<!-- Node1&#45;&gt;Node37 -->
<g id="edge41" class="edge">
<title>Node1&#45;&gt;Node37</title>
<path fill="none" stroke="midnightblue" d="M2409.07,-254.86C2545.45,-253.65 2838.19,-246.73 3093.03,-210.05"/>
<polygon fill="midnightblue" stroke="midnightblue" points="3093.83,-213.47 3103.22,-208.57 3092.82,-206.55 3093.83,-213.47"/>
</g>
<!-- Node38 -->
<g id="node37" class="node">
<title>Node38</title>
<g id="a_node37"><a xlink:href="../../d6/dcd/diagnostic_8h.html" target="_top" xlink:title=" ">
<polygon fill="white" stroke="black" points="1652.5,-129 1652.5,-148 1769.5,-148 1769.5,-129 1652.5,-129"/>
<text text-anchor="middle" x="1711" y="-136" font-family="Helvetica,sans-Serif" font-size="10.00">../vmisc/diagnostic.h</text>
</a>
</g>
</g>
<!-- Node1&#45;&gt;Node38 -->
<g id="edge43" class="edge">
<title>Node1&#45;&gt;Node38</title>
<path fill="none" stroke="midnightblue" d="M2254.93,-255.2C2161.57,-253.7 2000.23,-245.51 1867,-210 1817.76,-196.88 1764.51,-169.71 1734.7,-153.2"/>
<polygon fill="midnightblue" stroke="midnightblue" points="1736.31,-150.09 1725.88,-148.24 1732.88,-156.19 1736.31,-150.09"/>
</g>
<!-- Node39 -->
<g id="node38" class="node">
<title>Node39</title>
<g id="a_node38"><a xlink:href="../../db/db3/vmath_8h.html" target="_top" xlink:title=" ">
<polygon fill="white" stroke="black" points="3181,-190.5 3181,-209.5 3279,-209.5 3279,-190.5 3181,-190.5"/>
<text text-anchor="middle" x="3230" y="-197.5" font-family="Helvetica,sans-Serif" font-size="10.00">../vmisc/vmath.h</text>
</a>
</g>
</g>
<!-- Node1&#45;&gt;Node39 -->
<g id="edge45" class="edge">
<title>Node1&#45;&gt;Node39</title>
<path fill="none" stroke="midnightblue" d="M2409.22,-253.45C2555.71,-249.96 2884.2,-239.4 3170.82,-210.01"/>
<polygon fill="midnightblue" stroke="midnightblue" points="3171.41,-213.47 3181,-208.96 3170.69,-206.51 3171.41,-213.47"/>
</g>
<!-- Node41 -->
<g id="node40" class="node">
<title>Node41</title>
<g id="a_node40"><a xlink:href="../../dd/d78/dxiface_8h.html" target="_top" xlink:title=" ">
<polygon fill="white" stroke="black" points="1908,-190.5 1908,-209.5 1970,-209.5 1970,-190.5 1908,-190.5"/>
<text text-anchor="middle" x="1939" y="-197.5" font-family="Helvetica,sans-Serif" font-size="10.00">dxiface.h</text>
</a>
</g>
</g>
<!-- Node1&#45;&gt;Node41 -->
<g id="edge47" class="edge">
<title>Node1&#45;&gt;Node41</title>
<path fill="none" stroke="midnightblue" d="M2254.72,-246.55C2184.05,-238.46 2076.72,-225.25 1984,-210 1982.9,-209.82 1981.78,-209.63 1980.66,-209.44"/>
<polygon fill="midnightblue" stroke="midnightblue" points="1980.89,-205.92 1970.42,-207.57 1979.63,-212.81 1980.89,-205.92"/>
</g>
<!-- Node44 -->
<g id="node43" class="node">
<title>Node44</title>
<g id="a_node43"><a xlink:href="../../d6/de0/vlayoutpiece_8h.html" target="_top" xlink:title=" ">
<polygon fill="white" stroke="red" points="477.5,-190.5 477.5,-209.5 614.5,-209.5 614.5,-190.5 477.5,-190.5"/>
<text text-anchor="middle" x="546" y="-197.5" font-family="Helvetica,sans-Serif" font-size="10.00">../vlayout/vlayoutpiece.h</text>
</a>
</g>
</g>
<!-- Node1&#45;&gt;Node44 -->
<g id="edge51" class="edge">
<title>Node1&#45;&gt;Node44</title>
<path fill="none" stroke="midnightblue" d="M2254.97,-252.67C1962.25,-243.82 920.56,-212.32 624.81,-203.38"/>
<polygon fill="midnightblue" stroke="midnightblue" points="624.71,-199.88 614.61,-203.07 624.5,-206.88 624.71,-199.88"/>
</g>
<!-- Node3 -->
<g id="node3" class="node">
<title>Node3</title>
<g id="a_node3"><a xlink:title=" ">
<polygon fill="white" stroke="#bfbfbf" points="719,-62 719,-81 839,-81 839,-62 719,-62"/>
<text text-anchor="middle" x="779" y="-69" font-family="Helvetica,sans-Serif" font-size="10.00">qcompilerdetection.h</text>
</a>
</g>
</g>
<!-- Node2&#45;&gt;Node3 -->
<g id="edge2" class="edge">
<title>Node2&#45;&gt;Node3</title>
<path fill="none" stroke="midnightblue" d="M1285.74,-194.2C1246.03,-188.4 1184.28,-176.48 1135,-154 1113.57,-144.22 1113.77,-132.01 1092,-123 1070.01,-113.9 934.84,-94.04 849.48,-82.12"/>
<polygon fill="midnightblue" stroke="midnightblue" points="849.71,-78.62 839.33,-80.71 848.75,-85.55 849.71,-78.62"/>
</g>
<!-- Node4 -->
<g id="node4" class="node">
<title>Node4</title>
<g id="a_node4"><a xlink:title=" ">
<polygon fill="white" stroke="#bfbfbf" points="956,-129 956,-148 1012,-148 1012,-129 956,-129"/>
<text text-anchor="middle" x="984" y="-136" font-family="Helvetica,sans-Serif" font-size="10.00">QMatrix</text>
</a>
</g>
</g>
<!-- Node2&#45;&gt;Node4 -->
<g id="edge3" class="edge">
<title>Node2&#45;&gt;Node4</title>
<path fill="none" stroke="midnightblue" d="M1285.58,-192.18C1234.1,-183.46 1142.4,-167.84 1064,-154 1050.4,-151.6 1035.51,-148.92 1022.3,-146.52"/>
<polygon fill="midnightblue" stroke="midnightblue" points="1022.59,-143.01 1012.13,-144.66 1021.34,-149.9 1022.59,-143.01"/>
</g>
<!-- Node5 -->
<g id="node5" class="node">
<title>Node5</title>
<g id="a_node5"><a xlink:title=" ">
<polygon fill="white" stroke="#bfbfbf" points="1354.5,-129 1354.5,-148 1435.5,-148 1435.5,-129 1354.5,-129"/>
<text text-anchor="middle" x="1395" y="-136" font-family="Helvetica,sans-Serif" font-size="10.00">QPaintEngine</text>
</a>
</g>
</g>
<!-- Node2&#45;&gt;Node5 -->
<g id="edge4" class="edge">
<title>Node2&#45;&gt;Node5</title>
<path fill="none" stroke="midnightblue" d="M1335.89,-190.48C1346.65,-181.2 1364.07,-166.17 1377.22,-154.83"/>
<polygon fill="midnightblue" stroke="midnightblue" points="1379.84,-157.19 1385.13,-148.01 1375.27,-151.89 1379.84,-157.19"/>
</g>
<!-- Node6 -->
<g id="node6" class="node">
<title>Node6</title>
<g id="a_node6"><a xlink:title=" ">
<polygon fill="white" stroke="#bfbfbf" points="340.5,-0.5 340.5,-19.5 395.5,-19.5 395.5,-0.5 340.5,-0.5"/>
<text text-anchor="middle" x="368" y="-7.5" font-family="Helvetica,sans-Serif" font-size="10.00">QPointF</text>
</a>
</g>
</g>
<!-- Node2&#45;&gt;Node6 -->
<g id="edge5" class="edge">
<title>Node2&#45;&gt;Node6</title>
<path fill="none" stroke="midnightblue" d="M1321.65,-190.38C1313.33,-174.73 1293.7,-141.57 1268,-123 1194.06,-69.57 1163.44,-73.95 1074,-56 944.29,-29.96 532.88,-15.88 405.78,-12.07"/>
<polygon fill="midnightblue" stroke="midnightblue" points="405.84,-8.57 395.74,-11.77 405.64,-15.57 405.84,-8.57"/>
</g>
<!-- Node7 -->
<g id="node7" class="node">
<title>Node7</title>
<g id="a_node7"><a xlink:title=" ">
<polygon fill="white" stroke="#bfbfbf" points="886,-129 886,-148 938,-148 938,-129 886,-129"/>
<text text-anchor="middle" x="912" y="-136" font-family="Helvetica,sans-Serif" font-size="10.00">QRectF</text>
</a>
</g>
</g>
<!-- Node2&#45;&gt;Node7 -->
<g id="edge6" class="edge">
<title>Node2&#45;&gt;Node7</title>
<path fill="none" stroke="midnightblue" d="M1285.77,-197.84C1215.82,-195.02 1067.69,-185.52 947,-154 944.55,-153.36 942.05,-152.58 939.56,-151.73"/>
<polygon fill="midnightblue" stroke="midnightblue" points="940.79,-148.45 930.2,-148.15 938.29,-154.99 940.79,-148.45"/>
</g>
<!-- Node8 -->
<g id="node8" class="node">
<title>Node8</title>
<g id="a_node8"><a xlink:title=" ">
<polygon fill="white" stroke="#bfbfbf" points="1454,-129 1454,-148 1498,-148 1498,-129 1454,-129"/>
<text text-anchor="middle" x="1476" y="-136" font-family="Helvetica,sans-Serif" font-size="10.00">QSize</text>
</a>
</g>
</g>
<!-- Node2&#45;&gt;Node8 -->
<g id="edge7" class="edge">
<title>Node2&#45;&gt;Node8</title>
<path fill="none" stroke="midnightblue" d="M1349.68,-190.46C1373.62,-181.7 1411.62,-167.5 1444,-154 1445.37,-153.43 1446.77,-152.83 1448.19,-152.23"/>
<polygon fill="midnightblue" stroke="midnightblue" points="1449.74,-155.37 1457.47,-148.13 1446.91,-148.96 1449.74,-155.37"/>
</g>
<!-- Node9 -->
<g id="node9" class="node">
<title>Node9</title>
<g id="a_node9"><a xlink:title=" ">
<polygon fill="white" stroke="#bfbfbf" points="623.5,-62 623.5,-81 676.5,-81 676.5,-62 623.5,-62"/>
<text text-anchor="middle" x="650" y="-69" font-family="Helvetica,sans-Serif" font-size="10.00">QString</text>
</a>
</g>
</g>
<!-- Node2&#45;&gt;Node9 -->
<g id="edge8" class="edge">
<title>Node2&#45;&gt;Node9</title>
<path fill="none" stroke="midnightblue" d="M1285.59,-194C1238.41,-187.54 1158.38,-174.59 1092,-154 1059.11,-143.8 1054.24,-131.97 1021,-123 886.66,-86.76 846.99,-111.39 710,-87 702.37,-85.64 694.26,-83.89 686.56,-82.08"/>
<polygon fill="midnightblue" stroke="midnightblue" points="687.28,-78.66 676.73,-79.7 685.63,-85.46 687.28,-78.66"/>
</g>
<!-- Node10 -->
<g id="node10" class="node">
<title>Node10</title>
<g id="a_node10"><a xlink:title=" ">
<polygon fill="white" stroke="#bfbfbf" points="1424.5,-62 1424.5,-81 1483.5,-81 1483.5,-62 1424.5,-62"/>
<text text-anchor="middle" x="1454" y="-69" font-family="Helvetica,sans-Serif" font-size="10.00">QtGlobal</text>
</a>
</g>
</g>
<!-- Node2&#45;&gt;Node10 -->
<g id="edge9" class="edge">
<title>Node2&#45;&gt;Node10</title>
<path fill="none" stroke="midnightblue" d="M1325.85,-190.42C1326.04,-175.13 1328.53,-142.91 1345,-123 1362.56,-101.76 1391.03,-89 1414.47,-81.61"/>
<polygon fill="midnightblue" stroke="midnightblue" points="1415.55,-84.94 1424.16,-78.77 1413.58,-78.23 1415.55,-84.94"/>
</g>
<!-- Node11 -->
<g id="node11" class="node">
<title>Node11</title>
<g id="a_node11"><a xlink:title=" ">
<polygon fill="white" stroke="#bfbfbf" points="1516,-129 1516,-148 1560,-148 1560,-129 1516,-129"/>
<text text-anchor="middle" x="1538" y="-136" font-family="Helvetica,sans-Serif" font-size="10.00">string</text>
</a>
</g>
</g>
<!-- Node2&#45;&gt;Node11 -->
<g id="edge10" class="edge">
<title>Node2&#45;&gt;Node11</title>
<path fill="none" stroke="midnightblue" d="M1366.2,-191.34C1403.32,-183.73 1459.69,-170.77 1507,-154 1508.62,-153.43 1510.26,-152.8 1511.91,-152.13"/>
<polygon fill="midnightblue" stroke="midnightblue" points="1513.43,-155.29 1521.19,-148.08 1510.63,-148.88 1513.43,-155.29"/>
</g>
<!-- Node2&#45;&gt;Node12 -->
<g id="edge11" class="edge">
<title>Node2&#45;&gt;Node12</title>
<path fill="none" stroke="midnightblue" d="M1366.25,-197.39C1445.63,-193.7 1627.71,-182.61 1778,-154 1782.78,-153.09 1787.76,-151.94 1792.65,-150.68"/>
<polygon fill="midnightblue" stroke="midnightblue" points="1793.75,-154.01 1802.48,-148 1791.91,-147.26 1793.75,-154.01"/>
</g>
<!-- Node22 -->
<g id="node21" class="node">
<title>Node22</title>
<g id="a_node21"><a xlink:href="../../d7/de8/dxfdef_8h.html" target="_top" xlink:title=" ">
<polygon fill="white" stroke="black" points="1578,-129 1578,-148 1634,-148 1634,-129 1578,-129"/>
<text text-anchor="middle" x="1606" y="-136" font-family="Helvetica,sans-Serif" font-size="10.00">dxfdef.h</text>
</a>
</g>
</g>
<!-- Node2&#45;&gt;Node22 -->
<g id="edge23" class="edge">
<title>Node2&#45;&gt;Node22</title>
<path fill="none" stroke="midnightblue" d="M1366.1,-193.96C1414.72,-187.31 1498.87,-174.04 1569,-154 1571.59,-153.26 1574.24,-152.41 1576.88,-151.5"/>
<polygon fill="midnightblue" stroke="midnightblue" points="1578.1,-154.78 1586.27,-148.03 1575.68,-148.22 1578.1,-154.78"/>
</g>
<!-- Node23 -->
<g id="node22" class="node">
<title>Node23</title>
<g id="a_node22"><a xlink:title=" ">
<polygon fill="white" stroke="#bfbfbf" points="1144.5,-129 1144.5,-148 1259.5,-148 1259.5,-129 1144.5,-129"/>
<text text-anchor="middle" x="1202" y="-136" font-family="Helvetica,sans-Serif" font-size="10.00">libdxfrw/drw_base.h</text>
</a>
</g>
</g>
<!-- Node2&#45;&gt;Node23 -->
<g id="edge25" class="edge">
<title>Node2&#45;&gt;Node23</title>
<path fill="none" stroke="midnightblue" d="M1308.23,-190.48C1287.52,-180.53 1253.05,-163.99 1229.01,-152.46"/>
<polygon fill="midnightblue" stroke="midnightblue" points="1230.26,-149.18 1219.73,-148.01 1227.23,-155.49 1230.26,-149.18"/>
</g>
<!-- Node12&#45;&gt;Node3 -->
<g id="edge12" class="edge">
<title>Node12&#45;&gt;Node3</title>
<path fill="none" stroke="midnightblue" d="M1803.58,-129C1795.49,-126.64 1786.45,-124.35 1778,-123 1390.18,-60.86 1286.43,-119.39 895,-87 880.21,-85.78 864.4,-84.07 849.37,-82.25"/>
<polygon fill="midnightblue" stroke="midnightblue" points="849.46,-78.74 839.11,-80.98 848.6,-85.68 849.46,-78.74"/>
</g>
<!-- Node12&#45;&gt;Node9 -->
<g id="edge15" class="edge">
<title>Node12&#45;&gt;Node9</title>
<path fill="none" stroke="midnightblue" d="M1803.59,-128.96C1795.5,-126.6 1786.46,-124.32 1778,-123 1308.78,-49.52 1180.59,-151.11 710,-87 702.32,-85.95 694.19,-84.34 686.48,-82.57"/>
<polygon fill="midnightblue" stroke="midnightblue" points="687.2,-79.14 676.66,-80.17 685.55,-85.94 687.2,-79.14"/>
</g>
<!-- Node12&#45;&gt;Node10 -->
<g id="edge18" class="edge">
<title>Node12&#45;&gt;Node10</title>
<path fill="none" stroke="midnightblue" d="M1801.36,-128.98C1793.83,-126.84 1785.64,-124.68 1778,-123 1676.54,-100.76 1555.14,-84.57 1493.75,-77.1"/>
<polygon fill="midnightblue" stroke="midnightblue" points="1494.06,-73.61 1483.71,-75.9 1493.22,-80.56 1494.06,-73.61"/>
</g>
<!-- Node13 -->
<g id="node13" class="node">
<title>Node13</title>
<g id="a_node13"><a xlink:title=" ">
<polygon fill="white" stroke="#bfbfbf" points="1709.5,-62 1709.5,-81 1782.5,-81 1782.5,-62 1709.5,-62"/>
<text text-anchor="middle" x="1746" y="-69" font-family="Helvetica,sans-Serif" font-size="10.00">QFileDialog</text>
</a>
</g>
</g>
<!-- Node12&#45;&gt;Node13 -->
<g id="edge13" class="edge">
<title>Node12&#45;&gt;Node13</title>
<path fill="none" stroke="midnightblue" d="M1817.81,-128.73C1804.37,-118.21 1781.6,-100.38 1765.3,-87.62"/>
<polygon fill="midnightblue" stroke="midnightblue" points="1767.05,-84.54 1757.02,-81.13 1762.73,-90.05 1767.05,-84.54"/>
</g>
<!-- Node12&#45;&gt;Node14 -->
<g id="edge14" class="edge">
<title>Node12&#45;&gt;Node14</title>
<path fill="none" stroke="midnightblue" d="M1803.04,-128.99C1795.08,-126.69 1786.25,-124.44 1778,-123 1640.32,-98.99 1203.27,-79.3 1075.44,-73.94"/>
<polygon fill="midnightblue" stroke="midnightblue" points="1075.21,-70.43 1065.07,-73.51 1074.91,-77.42 1075.21,-70.43"/>
</g>
<!-- Node15 -->
<g id="node15" class="node">
<title>Node15</title>
<g id="a_node15"><a xlink:title=" ">
<polygon fill="white" stroke="#bfbfbf" points="904,-62 904,-81 974,-81 974,-62 904,-62"/>
<text text-anchor="middle" x="939" y="-69" font-family="Helvetica,sans-Serif" font-size="10.00">QStringList</text>
</a>
</g>
</g>
<!-- Node12&#45;&gt;Node15 -->
<g id="edge16" class="edge">
<title>Node12&#45;&gt;Node15</title>
<path fill="none" stroke="midnightblue" d="M1803.32,-128.95C1795.3,-126.62 1786.36,-124.36 1778,-123 1439,-67.67 1346.59,-131.48 1006,-87 998.53,-86.02 990.66,-84.65 983.05,-83.12"/>
<polygon fill="midnightblue" stroke="midnightblue" points="983.74,-79.69 973.24,-81.06 982.3,-86.54 983.74,-79.69"/>
</g>
<!-- Node12&#45;&gt;Node16 -->
<g id="edge17" class="edge">
<title>Node12&#45;&gt;Node16</title>
<path fill="none" stroke="midnightblue" d="M1858.05,-128.93C1865.2,-126.9 1872.86,-124.81 1880,-123 1953.27,-104.45 2040.77,-86.03 2082.5,-77.46"/>
<polygon fill="midnightblue" stroke="midnightblue" points="2083.23,-80.89 2092.32,-75.46 2081.83,-74.03 2083.23,-80.89"/>
</g>
<!-- Node17 -->
<g id="node17" class="node">
<title>Node17</title>
<g id="a_node17"><a xlink:title=" ">
<polygon fill="white" stroke="#bfbfbf" points="1801,-62 1801,-81 1857,-81 1857,-62 1801,-62"/>
<text text-anchor="middle" x="1829" y="-69" font-family="Helvetica,sans-Serif" font-size="10.00">QPrinter</text>
</a>
</g>
</g>
<!-- Node12&#45;&gt;Node17 -->
<g id="edge19" class="edge">
<title>Node12&#45;&gt;Node17</title>
<path fill="none" stroke="midnightblue" d="M1829,-128.73C1829,-119.18 1829,-103.62 1829,-91.28"/>
<polygon fill="midnightblue" stroke="midnightblue" points="1832.5,-91.13 1829,-81.13 1825.5,-91.13 1832.5,-91.13"/>
</g>
<!-- Node18 -->
<g id="node18" class="node">
<title>Node18</title>
<g id="a_node18"><a xlink:title=" ">
<polygon fill="white" stroke="#bfbfbf" points="1875.5,-62 1875.5,-81 1936.5,-81 1936.5,-62 1875.5,-62"/>
<text text-anchor="middle" x="1906" y="-69" font-family="Helvetica,sans-Serif" font-size="10.00">QPixmap</text>
</a>
</g>
</g>
<!-- Node12&#45;&gt;Node18 -->
<g id="edge20" class="edge">
<title>Node12&#45;&gt;Node18</title>
<path fill="none" stroke="midnightblue" d="M1839.38,-128.73C1851.85,-118.21 1872.97,-100.38 1888.09,-87.62"/>
<polygon fill="midnightblue" stroke="midnightblue" points="1890.4,-90.25 1895.78,-81.13 1885.88,-84.9 1890.4,-90.25"/>
</g>
<!-- Node19 -->
<g id="node19" class="node">
<title>Node19</title>
<g id="a_node19"><a xlink:title=" ">
<polygon fill="white" stroke="#bfbfbf" points="1954.5,-62 1954.5,-81 2005.5,-81 2005.5,-62 1954.5,-62"/>
<text text-anchor="middle" x="1980" y="-69" font-family="Helvetica,sans-Serif" font-size="10.00">csignal</text>
</a>
</g>
</g>
<!-- Node12&#45;&gt;Node19 -->
<g id="edge21" class="edge">
<title>Node12&#45;&gt;Node19</title>
<path fill="none" stroke="midnightblue" d="M1849.05,-128.87C1875,-117.7 1920.42,-98.15 1950.36,-85.26"/>
<polygon fill="midnightblue" stroke="midnightblue" points="1952.06,-88.34 1959.87,-81.17 1949.3,-81.91 1952.06,-88.34"/>
</g>
<!-- Node20 -->
<g id="node20" class="node">
<title>Node20</title>
<g id="a_node20"><a xlink:href="../../d4/d82/debugbreak_8h.html" target="_top" xlink:title=" ">
<polygon fill="white" stroke="red" points="1608.5,-62 1608.5,-81 1691.5,-81 1691.5,-62 1608.5,-62"/>
<text text-anchor="middle" x="1650" y="-69" font-family="Helvetica,sans-Serif" font-size="10.00">debugbreak.h</text>
</a>
</g>
</g>
<!-- Node12&#45;&gt;Node20 -->
<g id="edge22" class="edge">
<title>Node12&#45;&gt;Node20</title>
<path fill="none" stroke="midnightblue" d="M1805.23,-128.87C1773.85,-117.47 1718.44,-97.35 1683.01,-84.49"/>
<polygon fill="midnightblue" stroke="midnightblue" points="1684.18,-81.19 1673.58,-81.06 1681.79,-87.77 1684.18,-81.19"/>
</g>
<!-- Node22&#45;&gt;Node10 -->
<g id="edge24" class="edge">
<title>Node22&#45;&gt;Node10</title>
<path fill="none" stroke="midnightblue" d="M1585.82,-128.87C1559.7,-117.7 1513.97,-98.15 1483.84,-85.26"/>
<polygon fill="midnightblue" stroke="midnightblue" points="1484.84,-81.88 1474.27,-81.17 1482.09,-88.32 1484.84,-81.88"/>
</g>
<!-- Node38&#45;&gt;Node10 -->
<g id="edge44" class="edge">
<title>Node38&#45;&gt;Node10</title>
<path fill="none" stroke="midnightblue" d="M1677.14,-128.94C1629.7,-116.94 1543.66,-95.18 1493.41,-82.47"/>
<polygon fill="midnightblue" stroke="midnightblue" points="1494.11,-79.03 1483.55,-79.97 1492.39,-85.82 1494.11,-79.03"/>
</g>
<!-- Node40 -->
<g id="node39" class="node">
<title>Node40</title>
<g id="a_node39"><a xlink:title=" ">
<polygon fill="white" stroke="#bfbfbf" points="3203.5,-129 3203.5,-148 3256.5,-148 3256.5,-129 3203.5,-129"/>
<text text-anchor="middle" x="3230" y="-136" font-family="Helvetica,sans-Serif" font-size="10.00">QtMath</text>
</a>
</g>
</g>
<!-- Node39&#45;&gt;Node40 -->
<g id="edge46" class="edge">
<title>Node39&#45;&gt;Node40</title>
<path fill="none" stroke="midnightblue" d="M3230,-190.48C3230,-182.08 3230,-168.98 3230,-158.16"/>
<polygon fill="midnightblue" stroke="midnightblue" points="3233.5,-158.01 3230,-148.01 3226.5,-158.01 3233.5,-158.01"/>
</g>
<!-- Node41&#45;&gt;Node22 -->
<g id="edge50" class="edge">
<title>Node41&#45;&gt;Node22</title>
<path fill="none" stroke="midnightblue" d="M1907.85,-196.56C1853.39,-191.79 1737.63,-179.4 1643,-154 1640.34,-153.29 1637.62,-152.44 1634.91,-151.53"/>
<polygon fill="midnightblue" stroke="midnightblue" points="1635.91,-148.17 1625.31,-148 1633.49,-154.74 1635.91,-148.17"/>
</g>
<!-- Node42 -->
<g id="node41" class="node">
<title>Node42</title>
<g id="a_node41"><a xlink:title=" ">
<polygon fill="white" stroke="#bfbfbf" points="1888.5,-129 1888.5,-148 2023.5,-148 2023.5,-129 1888.5,-129"/>
<text text-anchor="middle" x="1956" y="-136" font-family="Helvetica,sans-Serif" font-size="10.00">libdxfrw/drw_interface.h</text>
</a>
</g>
</g>
<!-- Node41&#45;&gt;Node42 -->
<g id="edge48" class="edge">
<title>Node41&#45;&gt;Node42</title>
<path fill="none" stroke="midnightblue" d="M1941.44,-190.48C1943.86,-181.99 1947.66,-168.7 1950.77,-157.82"/>
<polygon fill="midnightblue" stroke="midnightblue" points="1954.19,-158.59 1953.57,-148.01 1947.46,-156.66 1954.19,-158.59"/>
</g>
<!-- Node43 -->
<g id="node42" class="node">
<title>Node43</title>
<g id="a_node42"><a xlink:title=" ">
<polygon fill="white" stroke="#bfbfbf" points="2041.5,-129 2041.5,-148 2148.5,-148 2148.5,-129 2041.5,-129"/>
<text text-anchor="middle" x="2095" y="-136" font-family="Helvetica,sans-Serif" font-size="10.00">libdxfrw/libdxfrw.h</text>
</a>
</g>
</g>
<!-- Node41&#45;&gt;Node43 -->
<g id="edge49" class="edge">
<title>Node41&#45;&gt;Node43</title>
<path fill="none" stroke="midnightblue" d="M1961.35,-190.48C1987.99,-180.31 2032.71,-163.26 2063.01,-151.7"/>
<polygon fill="midnightblue" stroke="midnightblue" points="2064.59,-154.84 2072.69,-148.01 2062.1,-148.3 2064.59,-154.84"/>
</g>
<!-- Node44&#45;&gt;Node3 -->
<g id="edge52" class="edge">
<title>Node44&#45;&gt;Node3</title>
<path fill="none" stroke="midnightblue" d="M545.48,-190.32C545.03,-174.57 546.51,-141.25 565,-123 576.2,-111.94 661.82,-94.17 721.3,-82.92"/>
<polygon fill="midnightblue" stroke="midnightblue" points="722.16,-86.32 731.35,-81.04 720.87,-79.44 722.16,-86.32"/>
</g>
<!-- Node44&#45;&gt;Node4 -->
<g id="edge55" class="edge">
<title>Node44&#45;&gt;Node4</title>
<path fill="none" stroke="midnightblue" d="M614.72,-196.74C695.35,-192.85 832.58,-182.32 947,-154 949.83,-153.3 952.72,-152.44 955.6,-151.49"/>
<polygon fill="midnightblue" stroke="midnightblue" points="956.92,-154.73 965.11,-148 954.51,-148.15 956.92,-154.73"/>
</g>
<!-- Node44&#45;&gt;Node6 -->
<g id="edge56" class="edge">
<title>Node44&#45;&gt;Node6</title>
<path fill="none" stroke="midnightblue" d="M477.45,-194.3C414.75,-188.62 328.06,-176.82 303,-154 270.2,-124.12 261.21,-94.07 284,-56 294.25,-38.87 313.5,-27.89 330.99,-21.07"/>
<polygon fill="midnightblue" stroke="midnightblue" points="332.21,-24.35 340.45,-17.7 329.86,-17.76 332.21,-24.35"/>
</g>
<!-- Node44&#45;&gt;Node7 -->
<g id="edge57" class="edge">
<title>Node44&#45;&gt;Node7</title>
<path fill="none" stroke="midnightblue" d="M614.53,-193.77C681.06,-187.7 784.51,-175.64 872,-154 875.06,-153.24 878.2,-152.34 881.33,-151.35"/>
<polygon fill="midnightblue" stroke="midnightblue" points="882.75,-154.57 891.08,-148.02 880.49,-147.94 882.75,-154.57"/>
</g>
<!-- Node44&#45;&gt;Node9 -->
<g id="edge59" class="edge">
<title>Node44&#45;&gt;Node9</title>
<path fill="none" stroke="midnightblue" d="M540.62,-190.22C532.17,-175.17 518.11,-144.05 532,-123 549.9,-95.87 585.71,-83.26 613.21,-77.43"/>
<polygon fill="midnightblue" stroke="midnightblue" points="614.12,-80.82 623.29,-75.52 612.81,-73.95 614.12,-80.82"/>
</g>
<!-- Node44&#45;&gt;Node10 -->
<g id="edge62" class="edge">
<title>Node44&#45;&gt;Node10</title>
<path fill="none" stroke="midnightblue" d="M614.79,-197.74C675.24,-194.47 764.46,-184.31 836,-154 857.04,-145.09 855.68,-131.2 877,-123 975.51,-85.09 1300.52,-75.4 1414.26,-73.13"/>
<polygon fill="midnightblue" stroke="midnightblue" points="1414.35,-76.63 1424.28,-72.94 1414.22,-69.63 1414.35,-76.63"/>
</g>
<!-- Node44&#45;&gt;Node14 -->
<g id="edge54" class="edge">
<title>Node44&#45;&gt;Node14</title>
<path fill="none" stroke="midnightblue" d="M614.58,-194.98C667.03,-190.01 740.26,-178.88 800,-154 822.08,-144.8 822.29,-133.04 844,-123 845.86,-122.14 948.92,-95.76 1004.83,-81.48"/>
<polygon fill="midnightblue" stroke="midnightblue" points="1005.86,-84.83 1014.68,-78.96 1004.13,-78.05 1005.86,-84.83"/>
</g>
<!-- Node45 -->
<g id="node44" class="node">
<title>Node45</title>
<g id="a_node44"><a xlink:title=" ">
<polygon fill="white" stroke="#bfbfbf" points="744.5,-129 744.5,-148 791.5,-148 791.5,-129 744.5,-129"/>
<text text-anchor="middle" x="768" y="-136" font-family="Helvetica,sans-Serif" font-size="10.00">QDate</text>
</a>
</g>
</g>
<!-- Node44&#45;&gt;Node45 -->
<g id="edge53" class="edge">
<title>Node44&#45;&gt;Node45</title>
<path fill="none" stroke="midnightblue" d="M592.09,-190.45C630.77,-182.7 687.2,-170.05 735,-154 736.87,-153.37 738.78,-152.68 740.69,-151.95"/>
<polygon fill="midnightblue" stroke="midnightblue" points="742.17,-155.12 750.08,-148.08 739.5,-148.65 742.17,-155.12"/>
</g>
<!-- Node46 -->
<g id="node45" class="node">
<title>Node46</title>
<g id="a_node45"><a xlink:title=" ">
<polygon fill="white" stroke="#bfbfbf" points="0,-129 0,-148 116,-148 116,-129 0,-129"/>
<text text-anchor="middle" x="58" y="-136" font-family="Helvetica,sans-Serif" font-size="10.00">QSharedDataPointer</text>
</a>
</g>
</g>
<!-- Node44&#45;&gt;Node46 -->
<g id="edge58" class="edge">
<title>Node44&#45;&gt;Node46</title>
<path fill="none" stroke="midnightblue" d="M477.16,-193.91C393.54,-187.2 248.37,-173.88 125,-154 118.21,-152.91 111.07,-151.57 104.09,-150.15"/>
<polygon fill="midnightblue" stroke="midnightblue" points="104.53,-146.67 94.03,-148.04 103.1,-153.52 104.53,-146.67"/>
</g>
<!-- Node47 -->
<g id="node46" class="node">
<title>Node47</title>
<g id="a_node46"><a xlink:title=" ">
<polygon fill="white" stroke="#bfbfbf" points="134.5,-129 134.5,-148 199.5,-148 199.5,-129 134.5,-129"/>
<text text-anchor="middle" x="167" y="-136" font-family="Helvetica,sans-Serif" font-size="10.00">QTypeInfo</text>
</a>
</g>
</g>
<!-- Node44&#45;&gt;Node47 -->
<g id="edge60" class="edge">
<title>Node44&#45;&gt;Node47</title>
<path fill="none" stroke="midnightblue" d="M477.39,-193.03C409.85,-186.37 304.03,-173.85 214,-154 210.08,-153.14 206.01,-152.1 201.98,-150.98"/>
<polygon fill="midnightblue" stroke="midnightblue" points="202.74,-147.56 192.16,-148.1 200.77,-154.28 202.74,-147.56"/>
</g>
<!-- Node48 -->
<g id="node47" class="node">
<title>Node48</title>
<g id="a_node47"><a xlink:title=" ">
<polygon fill="white" stroke="#bfbfbf" points="505.5,-62 505.5,-81 560.5,-81 560.5,-62 505.5,-62"/>
<text text-anchor="middle" x="533" y="-69" font-family="Helvetica,sans-Serif" font-size="10.00">QVector</text>
</a>
</g>
</g>
<!-- Node44&#45;&gt;Node48 -->
<g id="edge61" class="edge">
<title>Node44&#45;&gt;Node48</title>
<path fill="none" stroke="midnightblue" d="M477.44,-194.57C418.98,-189.19 341.42,-177.7 322,-154 313.27,-143.34 313.47,-133.82 322,-123 332.76,-109.37 437.52,-89.17 495.27,-78.94"/>
<polygon fill="midnightblue" stroke="midnightblue" points="495.88,-82.38 505.13,-77.21 494.67,-75.49 495.88,-82.38"/>
</g>
<!-- Node49 -->
<g id="node48" class="node">
<title>Node49</title>
<g id="a_node48"><a xlink:href="../../d0/d89/vabstractpattern_8h.html" target="_top" xlink:title=" ">
<polygon fill="white" stroke="red" points="574,-129 574,-148 726,-148 726,-129 574,-129"/>
<text text-anchor="middle" x="650" y="-136" font-family="Helvetica,sans-Serif" font-size="10.00">../ifc/xml/vabstractpattern.h</text>
</a>
</g>
</g>
<!-- Node44&#45;&gt;Node49 -->
<g id="edge63" class="edge">
<title>Node44&#45;&gt;Node49</title>
<path fill="none" stroke="midnightblue" d="M560.9,-190.48C577.97,-180.71 606.16,-164.58 626.26,-153.08"/>
<polygon fill="midnightblue" stroke="midnightblue" points="628.19,-156.01 635.13,-148.01 624.71,-149.94 628.19,-156.01"/>
</g>
<!-- Node77 -->
<g id="node49" class="node">
<title>Node77</title>
<g id="a_node49"><a xlink:href="../../de/d1f/vpatternlabeldata_8h.html" target="_top" xlink:title=" ">
<polygon fill="white" stroke="red" points="293.5,-56.5 293.5,-86.5 442.5,-86.5 442.5,-56.5 293.5,-56.5"/>
<text text-anchor="start" x="301.5" y="-74.5" font-family="Helvetica,sans-Serif" font-size="10.00">../vpatterndb/floatItemData</text>
<text text-anchor="middle" x="368" y="-63.5" font-family="Helvetica,sans-Serif" font-size="10.00">/vpatternlabeldata.h</text>
</a>
</g>
</g>
<!-- Node44&#45;&gt;Node77 -->
<g id="edge69" class="edge">
<title>Node44&#45;&gt;Node77</title>
<path fill="none" stroke="midnightblue" d="M477.36,-195.25C416.01,-190.29 332.68,-179.04 312,-154 295.62,-134.17 317.6,-109.62 338.65,-92.68"/>
<polygon fill="midnightblue" stroke="midnightblue" points="340.79,-95.46 346.59,-86.59 336.53,-89.9 340.79,-95.46"/>
</g>
<!-- Node79 -->
<g id="node50" class="node">
<title>Node79</title>
<g id="a_node50"><a xlink:href="../../d8/dbc/vpiecelabeldata_8h.html" target="_top" xlink:title=" ">
<polygon fill="white" stroke="red" points="331.5,-123.5 331.5,-153.5 480.5,-153.5 480.5,-123.5 331.5,-123.5"/>
<text text-anchor="start" x="339.5" y="-141.5" font-family="Helvetica,sans-Serif" font-size="10.00">../vpatterndb/floatItemData</text>
<text text-anchor="middle" x="406" y="-130.5" font-family="Helvetica,sans-Serif" font-size="10.00">/vpiecelabeldata.h</text>
</a>
</g>
</g>
<!-- Node44&#45;&gt;Node79 -->
<g id="edge71" class="edge">
<title>Node44&#45;&gt;Node79</title>
<path fill="none" stroke="midnightblue" d="M525.94,-190.48C505.83,-181.93 474.24,-168.5 448.53,-157.57"/>
<polygon fill="midnightblue" stroke="midnightblue" points="449.57,-154.21 439,-153.52 446.83,-160.66 449.57,-154.21"/>
</g>
<!-- Node49&#45;&gt;Node3 -->
<g id="edge64" class="edge">
<title>Node49&#45;&gt;Node3</title>
<path fill="none" stroke="midnightblue" d="M667.13,-128.87C689.01,-117.84 727.09,-98.66 752.67,-85.77"/>
<polygon fill="midnightblue" stroke="midnightblue" points="754.44,-88.79 761.8,-81.17 751.29,-82.54 754.44,-88.79"/>
</g>
<!-- Node49&#45;&gt;Node9 -->
<g id="edge65" class="edge">
<title>Node49&#45;&gt;Node9</title>
<path fill="none" stroke="midnightblue" d="M650,-128.73C650,-119.18 650,-103.62 650,-91.28"/>
<polygon fill="midnightblue" stroke="midnightblue" points="653.5,-91.13 650,-81.13 646.5,-91.13 653.5,-91.13"/>
</g>
<!-- Node49&#45;&gt;Node10 -->
<g id="edge68" class="edge">
<title>Node49&#45;&gt;Node10</title>
<path fill="none" stroke="midnightblue" d="M694.87,-128.99C707.79,-126.78 721.92,-124.57 735,-123 992.91,-92.02 1305.32,-78.08 1414.26,-73.91"/>
<polygon fill="midnightblue" stroke="midnightblue" points="1414.59,-77.4 1424.45,-73.53 1414.33,-70.41 1414.59,-77.4"/>
</g>
<!-- Node49&#45;&gt;Node15 -->
<g id="edge66" class="edge">
<title>Node49&#45;&gt;Node15</title>
<path fill="none" stroke="midnightblue" d="M688.08,-128.94C741.03,-117.03 836.78,-95.49 893.45,-82.74"/>
<polygon fill="midnightblue" stroke="midnightblue" points="894.57,-86.08 903.56,-80.47 893.03,-79.25 894.57,-86.08"/>
</g>
<!-- Node49&#45;&gt;Node48 -->
<g id="edge67" class="edge">
<title>Node49&#45;&gt;Node48</title>
<path fill="none" stroke="midnightblue" d="M634.22,-128.73C614.49,-117.77 580.49,-98.88 557.39,-86.05"/>
<polygon fill="midnightblue" stroke="midnightblue" points="558.97,-82.92 548.53,-81.13 555.57,-89.04 558.97,-82.92"/>
</g>
<!-- Node77&#45;&gt;Node6 -->
<g id="edge70" class="edge">
<title>Node77&#45;&gt;Node6</title>
<path fill="none" stroke="midnightblue" d="M368,-56.4C368,-48.47 368,-38.46 368,-29.86"/>
<polygon fill="midnightblue" stroke="midnightblue" points="371.5,-29.66 368,-19.66 364.5,-29.66 371.5,-29.66"/>
</g>
<!-- Node79&#45;&gt;Node9 -->
<g id="edge72" class="edge">
<title>Node79&#45;&gt;Node9</title>
<path fill="none" stroke="midnightblue" d="M458.64,-123.48C505.4,-111.02 572.5,-93.15 613.56,-82.21"/>
<polygon fill="midnightblue" stroke="midnightblue" points="614.65,-85.54 623.41,-79.58 612.85,-78.78 614.65,-85.54"/>
</g>
<!-- Node79&#45;&gt;Node77 -->
<g id="edge73" class="edge">
<title>Node79&#45;&gt;Node77</title>
<path fill="none" stroke="midnightblue" d="M397.75,-123.4C392.97,-115.22 386.84,-104.73 381.38,-95.39"/>
<polygon fill="midnightblue" stroke="midnightblue" points="384.3,-93.44 376.23,-86.58 378.25,-96.98 384.3,-93.44"/>
</g>
</g>
</svg>
