<?xml version="1.0" encoding="UTF-8" standalone="no"?>
<!DOCTYPE svg PUBLIC "-//W3C//DTD SVG 1.1//EN"
 "http://www.w3.org/Graphics/SVG/1.1/DTD/svg11.dtd">
<!-- Generated by graphviz version 2.43.0 (0)
 -->
<!-- Title: VLabelTemplate Pages: 1 -->
<svg width="310pt" height="728pt"
 viewBox="0.00 0.00 309.50 728.00" xmlns="http://www.w3.org/2000/svg" xmlns:xlink="http://www.w3.org/1999/xlink">
<g id="graph0" class="graph" transform="scale(1 1) rotate(0) translate(4 724)">
<title>VLabelTemplate</title>
<polygon fill="white" stroke="transparent" points="-4,4 -4,-724 305.5,-724 305.5,4 -4,4"/>
<!-- Node1 -->
<g id="node1" class="node">
<title>Node1</title>
<g id="a_node1"><a xlink:title=" ">
<polygon fill="#bfbfbf" stroke="black" points="57,-0.5 57,-112.5 201,-112.5 201,-0.5 57,-0.5"/>
<text text-anchor="middle" x="129" y="-100.5" font-family="Helvetica,sans-Serif" font-size="10.00">VLabelTemplate</text>
<polyline fill="none" stroke="black" points="57,-93.5 201,-93.5 "/>
<text text-anchor="start" x="65" y="-81.5" font-family="Helvetica,sans-Serif" font-size="10.00">+ TagTemplate</text>
<text text-anchor="start" x="65" y="-70.5" font-family="Helvetica,sans-Serif" font-size="10.00">+ TagLines</text>
<polyline fill="none" stroke="black" points="57,-63.5 201,-63.5 "/>
<text text-anchor="start" x="65" y="-51.5" font-family="Helvetica,sans-Serif" font-size="10.00">+ VLabelTemplate()</text>
<text text-anchor="start" x="65" y="-40.5" font-family="Helvetica,sans-Serif" font-size="10.00">+ ~VLabelTemplate()</text>
<text text-anchor="start" x="65" y="-29.5" font-family="Helvetica,sans-Serif" font-size="10.00">+ CreateEmptyTemplate()</text>
<text text-anchor="start" x="65" y="-18.5" font-family="Helvetica,sans-Serif" font-size="10.00">+ AddLines()</text>
<text text-anchor="start" x="65" y="-7.5" font-family="Helvetica,sans-Serif" font-size="10.00">+ ReadLines()</text>
</a>
</g>
</g>
<!-- Node2 -->
<g id="node2" class="node">
<title>Node2</title>
<g id="a_node2"><a xlink:href="../../d6/deb/classVDomDocument.html" target="_top" xlink:title="The VDomDocument class represents a Seamly2D document (.val file).">
<polygon fill="white" stroke="black" points="50.5,-150.5 50.5,-614.5 207.5,-614.5 207.5,-150.5 50.5,-150.5"/>
<text text-anchor="middle" x="129" y="-602.5" font-family="Helvetica,sans-Serif" font-size="10.00">VDomDocument</text>
<polyline fill="none" stroke="black" points="50.5,-595.5 207.5,-595.5 "/>
<text text-anchor="start" x="58.5" y="-583.5" font-family="Helvetica,sans-Serif" font-size="10.00">+ AttrId</text>
<text text-anchor="start" x="58.5" y="-572.5" font-family="Helvetica,sans-Serif" font-size="10.00">+ AttrText</text>
<text text-anchor="start" x="58.5" y="-561.5" font-family="Helvetica,sans-Serif" font-size="10.00">+ AttrBold</text>
<text text-anchor="start" x="58.5" y="-550.5" font-family="Helvetica,sans-Serif" font-size="10.00">+ AttrItalic</text>
<text text-anchor="start" x="58.5" y="-539.5" font-family="Helvetica,sans-Serif" font-size="10.00">+ AttrAlignment</text>
<text text-anchor="start" x="58.5" y="-528.5" font-family="Helvetica,sans-Serif" font-size="10.00">+ AttrFSIncrement</text>
<text text-anchor="start" x="58.5" y="-517.5" font-family="Helvetica,sans-Serif" font-size="10.00">+ TagVersion</text>
<text text-anchor="start" x="58.5" y="-506.5" font-family="Helvetica,sans-Serif" font-size="10.00">+ TagUnit</text>
<text text-anchor="start" x="58.5" y="-495.5" font-family="Helvetica,sans-Serif" font-size="10.00">+ TagLine</text>
<polyline fill="none" stroke="black" points="50.5,-488.5 207.5,-488.5 "/>
<text text-anchor="start" x="58.5" y="-476.5" font-family="Helvetica,sans-Serif" font-size="10.00">+ VDomDocument()</text>
<text text-anchor="start" x="58.5" y="-465.5" font-family="Helvetica,sans-Serif" font-size="10.00">+ ~VDomDocument()</text>
<text text-anchor="start" x="58.5" y="-454.5" font-family="Helvetica,sans-Serif" font-size="10.00">+ elementById()</text>
<text text-anchor="start" x="58.5" y="-443.5" font-family="Helvetica,sans-Serif" font-size="10.00">+ SetAttribute()</text>
<text text-anchor="start" x="58.5" y="-432.5" font-family="Helvetica,sans-Serif" font-size="10.00">+ measurementUnits()</text>
<text text-anchor="start" x="58.5" y="-421.5" font-family="Helvetica,sans-Serif" font-size="10.00">+ setXMLContent()</text>
<text text-anchor="start" x="58.5" y="-410.5" font-family="Helvetica,sans-Serif" font-size="10.00">+ SaveDocument()</text>
<text text-anchor="start" x="58.5" y="-399.5" font-family="Helvetica,sans-Serif" font-size="10.00">+ Major()</text>
<text text-anchor="start" x="58.5" y="-388.5" font-family="Helvetica,sans-Serif" font-size="10.00">+ Minor()</text>
<text text-anchor="start" x="58.5" y="-377.5" font-family="Helvetica,sans-Serif" font-size="10.00">+ Patch()</text>
<text text-anchor="start" x="58.5" y="-366.5" font-family="Helvetica,sans-Serif" font-size="10.00">and 8 more...</text>
<text text-anchor="start" x="58.5" y="-355.5" font-family="Helvetica,sans-Serif" font-size="10.00">+ GetParametrUInt()</text>
<text text-anchor="start" x="58.5" y="-344.5" font-family="Helvetica,sans-Serif" font-size="10.00">+ getParameterBool()</text>
<text text-anchor="start" x="58.5" y="-333.5" font-family="Helvetica,sans-Serif" font-size="10.00">+ GetParametrUsage()</text>
<text text-anchor="start" x="58.5" y="-322.5" font-family="Helvetica,sans-Serif" font-size="10.00">+ SetParametrUsage()</text>
<text text-anchor="start" x="58.5" y="-311.5" font-family="Helvetica,sans-Serif" font-size="10.00">+ GetParametrString()</text>
<text text-anchor="start" x="58.5" y="-300.5" font-family="Helvetica,sans-Serif" font-size="10.00">+ GetParametrEmptyString()</text>
<text text-anchor="start" x="58.5" y="-289.5" font-family="Helvetica,sans-Serif" font-size="10.00">+ GetParametrDouble()</text>
<text text-anchor="start" x="58.5" y="-278.5" font-family="Helvetica,sans-Serif" font-size="10.00">+ getParameterId()</text>
<text text-anchor="start" x="58.5" y="-267.5" font-family="Helvetica,sans-Serif" font-size="10.00">+ ValidateXML()</text>
<text text-anchor="start" x="58.5" y="-256.5" font-family="Helvetica,sans-Serif" font-size="10.00">+ UnitsHelpString()</text>
<text text-anchor="start" x="58.5" y="-245.5" font-family="Helvetica,sans-Serif" font-size="10.00">+ RemoveAllChildren()</text>
<text text-anchor="start" x="58.5" y="-234.5" font-family="Helvetica,sans-Serif" font-size="10.00">+ SafeCopy()</text>
<text text-anchor="start" x="58.5" y="-223.5" font-family="Helvetica,sans-Serif" font-size="10.00"># setTagText()</text>
<text text-anchor="start" x="58.5" y="-212.5" font-family="Helvetica,sans-Serif" font-size="10.00"># setTagText()</text>
<text text-anchor="start" x="58.5" y="-201.5" font-family="Helvetica,sans-Serif" font-size="10.00"># UniqueTagText()</text>
<text text-anchor="start" x="58.5" y="-190.5" font-family="Helvetica,sans-Serif" font-size="10.00"># TestUniqueId()</text>
<text text-anchor="start" x="58.5" y="-179.5" font-family="Helvetica,sans-Serif" font-size="10.00"># CollectId()</text>
<text text-anchor="start" x="58.5" y="-168.5" font-family="Helvetica,sans-Serif" font-size="10.00">&#45; find()</text>
<text text-anchor="start" x="58.5" y="-157.5" font-family="Helvetica,sans-Serif" font-size="10.00">&#45; SaveCanonicalXML()</text>
</a>
</g>
</g>
<!-- Node2&#45;&gt;Node1 -->
<g id="edge1" class="edge">
<title>Node2&#45;&gt;Node1</title>
<path fill="none" stroke="midnightblue" d="M129,-140.07C129,-130.38 129,-121.19 129,-112.71"/>
<polygon fill="none" stroke="midnightblue" points="125.5,-140.35 129,-150.35 132.5,-140.35 125.5,-140.35"/>
</g>
<!-- Node3 -->
<g id="node3" class="node">
<title>Node3</title>
<g id="a_node3"><a xlink:title=" ">
<polygon fill="white" stroke="#bfbfbf" points="0,-662.5 0,-719.5 98,-719.5 98,-662.5 0,-662.5"/>
<text text-anchor="middle" x="49" y="-707.5" font-family="Helvetica,sans-Serif" font-size="10.00">QDomDocument</text>
<polyline fill="none" stroke="#bfbfbf" points="0,-700.5 98,-700.5 "/>
<text text-anchor="middle" x="49" y="-688.5" font-family="Helvetica,sans-Serif" font-size="10.00"> </text>
<polyline fill="none" stroke="#bfbfbf" points="0,-681.5 98,-681.5 "/>
<text text-anchor="middle" x="49" y="-669.5" font-family="Helvetica,sans-Serif" font-size="10.00"> </text>
</a>
</g>
</g>
<!-- Node3&#45;&gt;Node2 -->
<g id="edge2" class="edge">
<title>Node3&#45;&gt;Node2</title>
<path fill="none" stroke="midnightblue" d="M58.82,-652.38C61.67,-641.45 65.01,-628.65 68.66,-614.67"/>
<polygon fill="none" stroke="midnightblue" points="55.38,-651.7 56.24,-662.26 62.15,-653.47 55.38,-651.7"/>
</g>
<!-- Node4 -->
<g id="node4" class="node">
<title>Node4</title>
<g id="a_node4"><a xlink:href="../../da/da1/classQHash.html" target="_top" xlink:title=" ">
<polygon fill="white" stroke="black" points="116.5,-662.5 116.5,-719.5 301.5,-719.5 301.5,-662.5 116.5,-662.5"/>
<text text-anchor="middle" x="209" y="-707.5" font-family="Helvetica,sans-Serif" font-size="10.00">QHash&lt; quint32, QDomElement &gt;</text>
<polyline fill="none" stroke="black" points="116.5,-700.5 301.5,-700.5 "/>
<text text-anchor="middle" x="209" y="-688.5" font-family="Helvetica,sans-Serif" font-size="10.00"> </text>
<polyline fill="none" stroke="black" points="116.5,-681.5 301.5,-681.5 "/>
<text text-anchor="middle" x="209" y="-669.5" font-family="Helvetica,sans-Serif" font-size="10.00"> </text>
</a>
</g>
</g>
<!-- Node4&#45;&gt;Node2 -->
<g id="edge3" class="edge">
<title>Node4&#45;&gt;Node2</title>
<path fill="none" stroke="#404040" d="M201.76,-662.26C199.16,-652.3 195.98,-640.12 192.42,-626.46"/>
<polygon fill="none" stroke="#404040" points="192.37,-626.28 186.98,-621.48 189.34,-614.67 194.72,-619.46 192.37,-626.28"/>
<text text-anchor="middle" x="209.5" y="-636" font-family="Helvetica,sans-Serif" font-size="10.00"> &#45;map</text>
</g>
</g>
</svg>
