<?xml version="1.0" encoding="UTF-8" standalone="no"?>
<!DOCTYPE svg PUBLIC "-//W3C//DTD SVG 1.1//EN"
 "http://www.w3.org/Graphics/SVG/1.1/DTD/svg11.dtd">
<!-- Generated by graphviz version 2.43.0 (0)
 -->
<!-- Title: ContentSpecNode Pages: 1 -->
<!--zoomable 2119 -->
<svg id="main" version="1.1" xmlns="http://www.w3.org/2000/svg" xmlns:xlink="http://www.w3.org/1999/xlink" xml:space="preserve" onload="init(evt)">
<style type="text/css"><![CDATA[
.edge:hover path { stroke: red; }
.edge:hover polygon { stroke: red; fill: red; }
]]></style>
<script type="text/javascript"><![CDATA[
var edges = document.getElementsByTagName('g');
if (edges && edges.length) {
  for (var i=0;i<edges.length;i++) {
    if (edges[i].id.substr(0,4)=='edge') {
      edges[i].setAttribute('class','edge');
    }
  }
}
]]></script>
        <defs>
                <circle id="rim" cx="0" cy="0" r="7"/>
                <circle id="rim2" cx="0" cy="0" r="3.5"/>
                <g id="zoomPlus">
                        <use xlink:href="#rim" fill="#404040">
                                <set attributeName="fill" to="#808080" begin="zoomplus.mouseover" end="zoomplus.mouseout"/>
                        </use>
                        <path d="M-4,0h8M0,-4v8" fill="none" stroke="white" stroke-width="1.5" pointer-events="none"/>
                </g>
                <g id="zoomMin">
                        <use xlink:href="#rim" fill="#404040">
                                <set attributeName="fill" to="#808080" begin="zoomminus.mouseover" end="zoomminus.mouseout"/>
                        </use>
                        <path d="M-4,0h8" fill="none" stroke="white" stroke-width="1.5" pointer-events="none"/>
                </g>
                <g id="dirArrow">
                        <path fill="none" stroke="white" stroke-width="1.5" d="M0,-3.0v7 M-2.5,-0.5L0,-3.0L2.5,-0.5"/>
                </g>
               <g id="resetDef">
                       <use xlink:href="#rim2" fill="#404040">
                               <set attributeName="fill" to="#808080" begin="reset.mouseover" end="reset.mouseout"/>
                       </use>
               </g>
        </defs>

<script type="text/javascript">
var viewWidth = 750;
var viewHeight = 2119;
var sectionId = 'dynsection-1';
</script>
<script xlink:href="../../svgpan.js"/>
<svg id="graph" class="graph">
<g id="viewport">
<title>ContentSpecNode</title>
<polygon fill="white" stroke="transparent" points="-4,4 -4,-2115 745.89,-2115 745.89,4 -4,4"/>
<!-- Node1 -->
<g id="node1" class="node">
<title>Node1</title>
<g id="a_node1"><a xlink:title=" ">
<polygon fill="#bfbfbf" stroke="black" points="296.39,-0.5 296.39,-310.5 427.39,-310.5 427.39,-0.5 296.39,-0.5"/>
<text text-anchor="middle" x="361.89" y="-298.5" font-family="Helvetica,sans-Serif" font-size="10.00">ContentSpecNode</text>
<polyline fill="none" stroke="black" points="296.39,-291.5 427.39,-291.5 "/>
<text text-anchor="start" x="304.39" y="-279.5" font-family="Helvetica,sans-Serif" font-size="10.00">&#45; fType</text>
<text text-anchor="start" x="304.39" y="-268.5" font-family="Helvetica,sans-Serif" font-size="10.00">&#45; fAdoptFirst</text>
<text text-anchor="start" x="304.39" y="-257.5" font-family="Helvetica,sans-Serif" font-size="10.00">&#45; fAdoptSecond</text>
<text text-anchor="start" x="304.39" y="-246.5" font-family="Helvetica,sans-Serif" font-size="10.00">&#45; fMinOccurs</text>
<text text-anchor="start" x="304.39" y="-235.5" font-family="Helvetica,sans-Serif" font-size="10.00">&#45; fMaxOccurs</text>
<polyline fill="none" stroke="black" points="296.39,-228.5 427.39,-228.5 "/>
<text text-anchor="start" x="304.39" y="-216.5" font-family="Helvetica,sans-Serif" font-size="10.00">+ ContentSpecNode()</text>
<text text-anchor="start" x="304.39" y="-205.5" font-family="Helvetica,sans-Serif" font-size="10.00">+ ContentSpecNode()</text>
<text text-anchor="start" x="304.39" y="-194.5" font-family="Helvetica,sans-Serif" font-size="10.00">+ ContentSpecNode()</text>
<text text-anchor="start" x="304.39" y="-183.5" font-family="Helvetica,sans-Serif" font-size="10.00">+ ContentSpecNode()</text>
<text text-anchor="start" x="304.39" y="-172.5" font-family="Helvetica,sans-Serif" font-size="10.00">+ ContentSpecNode()</text>
<text text-anchor="start" x="304.39" y="-161.5" font-family="Helvetica,sans-Serif" font-size="10.00">+ ContentSpecNode()</text>
<text text-anchor="start" x="304.39" y="-150.5" font-family="Helvetica,sans-Serif" font-size="10.00">+ ~ContentSpecNode()</text>
<text text-anchor="start" x="304.39" y="-139.5" font-family="Helvetica,sans-Serif" font-size="10.00">+ getElement()</text>
<text text-anchor="start" x="304.39" y="-128.5" font-family="Helvetica,sans-Serif" font-size="10.00">+ getElement()</text>
<text text-anchor="start" x="304.39" y="-117.5" font-family="Helvetica,sans-Serif" font-size="10.00">+ getElementDecl()</text>
<text text-anchor="start" x="304.39" y="-106.5" font-family="Helvetica,sans-Serif" font-size="10.00">and 92 more...</text>
<text text-anchor="start" x="304.39" y="-95.5" font-family="Helvetica,sans-Serif" font-size="10.00">&#45; operator=()</text>
<text text-anchor="start" x="304.39" y="-84.5" font-family="Helvetica,sans-Serif" font-size="10.00">&#45; cleanup()</text>
<text text-anchor="start" x="304.39" y="-73.5" font-family="Helvetica,sans-Serif" font-size="10.00">&#45; deleteChildNode()</text>
<text text-anchor="start" x="304.39" y="-62.5" font-family="Helvetica,sans-Serif" font-size="10.00">&#45; operator=()</text>
<text text-anchor="start" x="304.39" y="-51.5" font-family="Helvetica,sans-Serif" font-size="10.00">&#45; cleanup()</text>
<text text-anchor="start" x="304.39" y="-40.5" font-family="Helvetica,sans-Serif" font-size="10.00">&#45; deleteChildNode()</text>
<text text-anchor="start" x="304.39" y="-29.5" font-family="Helvetica,sans-Serif" font-size="10.00">&#45; operator=()</text>
<text text-anchor="start" x="304.39" y="-18.5" font-family="Helvetica,sans-Serif" font-size="10.00">&#45; cleanup()</text>
<text text-anchor="start" x="304.39" y="-7.5" font-family="Helvetica,sans-Serif" font-size="10.00">&#45; deleteChildNode()</text>
</a>
</g>
</g>
<!-- Node1&#45;&gt;Node1 -->
<g id="edge25" class="edge">
<title>Node1&#45;&gt;Node1</title>
<path fill="none" stroke="#404040" d="M427.7,-186.23C438.2,-181.74 445.39,-171.49 445.39,-155.5 445.39,-145.26 442.44,-137.37 437.56,-131.84"/>
<polygon fill="none" stroke="#404040" points="437.45,-131.76 430.24,-131.51 427.7,-124.77 434.91,-125.01 437.45,-131.76"/>
<text text-anchor="middle" x="466.89" y="-158.5" font-family="Helvetica,sans-Serif" font-size="10.00"> &#45;fFirst</text>
<text text-anchor="middle" x="466.89" y="-147.5" font-family="Helvetica,sans-Serif" font-size="10.00">&#45;fSecond</text>
</g>
<!-- Node2 -->
<g id="node2" class="node">
<title>Node2</title>
<g id="a_node2"><a xlink:href="../../da/d19/classXSerializable.html" target="_top" xlink:title=" ">
<polygon fill="white" stroke="black" points="110.39,-1767.5 110.39,-2044.5 217.39,-2044.5 217.39,-1767.5 110.39,-1767.5"/>
<text text-anchor="middle" x="163.89" y="-2032.5" font-family="Helvetica,sans-Serif" font-size="10.00">XSerializable</text>
<polyline fill="none" stroke="black" points="110.39,-2025.5 217.39,-2025.5 "/>
<text text-anchor="middle" x="163.89" y="-2013.5" font-family="Helvetica,sans-Serif" font-size="10.00"> </text>
<polyline fill="none" stroke="black" points="110.39,-2006.5 217.39,-2006.5 "/>
<text text-anchor="start" x="118.39" y="-1994.5" font-family="Helvetica,sans-Serif" font-size="10.00">+ ~XSerializable()</text>
<text text-anchor="start" x="118.39" y="-1983.5" font-family="Helvetica,sans-Serif" font-size="10.00">+ isSerializable()</text>
<text text-anchor="start" x="118.39" y="-1972.5" font-family="Helvetica,sans-Serif" font-size="10.00">+ serialize()</text>
<text text-anchor="start" x="118.39" y="-1961.5" font-family="Helvetica,sans-Serif" font-size="10.00">+ getProtoType()</text>
<text text-anchor="start" x="118.39" y="-1950.5" font-family="Helvetica,sans-Serif" font-size="10.00">+ ~XSerializable()</text>
<text text-anchor="start" x="118.39" y="-1939.5" font-family="Helvetica,sans-Serif" font-size="10.00">+ isSerializable()</text>
<text text-anchor="start" x="118.39" y="-1928.5" font-family="Helvetica,sans-Serif" font-size="10.00">+ serialize()</text>
<text text-anchor="start" x="118.39" y="-1917.5" font-family="Helvetica,sans-Serif" font-size="10.00">+ getProtoType()</text>
<text text-anchor="start" x="118.39" y="-1906.5" font-family="Helvetica,sans-Serif" font-size="10.00">+ ~XSerializable()</text>
<text text-anchor="start" x="118.39" y="-1895.5" font-family="Helvetica,sans-Serif" font-size="10.00">+ isSerializable()</text>
<text text-anchor="start" x="118.39" y="-1884.5" font-family="Helvetica,sans-Serif" font-size="10.00">+ serialize()</text>
<text text-anchor="start" x="118.39" y="-1873.5" font-family="Helvetica,sans-Serif" font-size="10.00">+ getProtoType()</text>
<text text-anchor="start" x="118.39" y="-1862.5" font-family="Helvetica,sans-Serif" font-size="10.00"># XSerializable()</text>
<text text-anchor="start" x="118.39" y="-1851.5" font-family="Helvetica,sans-Serif" font-size="10.00"># XSerializable()</text>
<text text-anchor="start" x="118.39" y="-1840.5" font-family="Helvetica,sans-Serif" font-size="10.00"># XSerializable()</text>
<text text-anchor="start" x="118.39" y="-1829.5" font-family="Helvetica,sans-Serif" font-size="10.00"># XSerializable()</text>
<text text-anchor="start" x="118.39" y="-1818.5" font-family="Helvetica,sans-Serif" font-size="10.00"># XSerializable()</text>
<text text-anchor="start" x="118.39" y="-1807.5" font-family="Helvetica,sans-Serif" font-size="10.00"># XSerializable()</text>
<text text-anchor="start" x="118.39" y="-1796.5" font-family="Helvetica,sans-Serif" font-size="10.00">&#45; operator=()</text>
<text text-anchor="start" x="118.39" y="-1785.5" font-family="Helvetica,sans-Serif" font-size="10.00">&#45; operator=()</text>
<text text-anchor="start" x="118.39" y="-1774.5" font-family="Helvetica,sans-Serif" font-size="10.00">&#45; operator=()</text>
</a>
</g>
</g>
<!-- Node2&#45;&gt;Node1 -->
<g id="edge1" class="edge">
<title>Node2&#45;&gt;Node1</title>
<path fill="none" stroke="midnightblue" d="M111.22,-1757.46C29.79,-1472.29 -94.68,-831.83 117.89,-358 153.29,-279.1 236.51,-218.4 296.26,-185.09"/>
<polygon fill="none" stroke="midnightblue" points="107.97,-1758.81 114.1,-1767.45 114.69,-1756.88 107.97,-1758.81"/>
</g>
<!-- Node2&#45;&gt;Node1 -->
<g id="edge3" class="edge">
<title>Node2&#45;&gt;Node1</title>
<path fill="none" stroke="midnightblue" d="M121.47,-1757.46C47.79,-1472.29 -76.68,-831.83 135.89,-358 168.54,-285.22 241.9,-227.92 296.22,-193.32"/>
<polygon fill="none" stroke="midnightblue" points="118.16,-1758.66 124.06,-1767.45 124.93,-1756.89 118.16,-1758.66"/>
</g>
<!-- Node2&#45;&gt;Node1 -->
<g id="edge5" class="edge">
<title>Node2&#45;&gt;Node1</title>
<path fill="none" stroke="midnightblue" d="M131.71,-1757.46C65.79,-1472.29 -58.68,-831.83 153.89,-358 183.58,-291.81 246.94,-238.43 296.21,-203.28"/>
<polygon fill="none" stroke="midnightblue" points="128.36,-1758.5 134.03,-1767.45 135.18,-1756.92 128.36,-1758.5"/>
</g>
<!-- Node5 -->
<g id="node5" class="node">
<title>Node5</title>
<g id="a_node5"><a xlink:href="../../dd/d8c/classQName.html" target="_top" xlink:title=" ">
<polygon fill="white" stroke="black" points="210.39,-1387.5 210.39,-1653.5 315.39,-1653.5 315.39,-1387.5 210.39,-1387.5"/>
<text text-anchor="middle" x="262.89" y="-1641.5" font-family="Helvetica,sans-Serif" font-size="10.00">QName</text>
<polyline fill="none" stroke="black" points="210.39,-1634.5 315.39,-1634.5 "/>
<text text-anchor="start" x="218.39" y="-1622.5" font-family="Helvetica,sans-Serif" font-size="10.00">&#45; fPrefixBufSz</text>
<text text-anchor="start" x="218.39" y="-1611.5" font-family="Helvetica,sans-Serif" font-size="10.00">&#45; fLocalPartBufSz</text>
<text text-anchor="start" x="218.39" y="-1600.5" font-family="Helvetica,sans-Serif" font-size="10.00">&#45; fRawNameBufSz</text>
<text text-anchor="start" x="218.39" y="-1589.5" font-family="Helvetica,sans-Serif" font-size="10.00">&#45; fURIId</text>
<text text-anchor="start" x="218.39" y="-1578.5" font-family="Helvetica,sans-Serif" font-size="10.00">&#45; fPrefix</text>
<text text-anchor="start" x="218.39" y="-1567.5" font-family="Helvetica,sans-Serif" font-size="10.00">&#45; fLocalPart</text>
<text text-anchor="start" x="218.39" y="-1556.5" font-family="Helvetica,sans-Serif" font-size="10.00">&#45; fRawName</text>
<polyline fill="none" stroke="black" points="210.39,-1549.5 315.39,-1549.5 "/>
<text text-anchor="start" x="218.39" y="-1537.5" font-family="Helvetica,sans-Serif" font-size="10.00">+ QName()</text>
<text text-anchor="start" x="218.39" y="-1526.5" font-family="Helvetica,sans-Serif" font-size="10.00">+ QName()</text>
<text text-anchor="start" x="218.39" y="-1515.5" font-family="Helvetica,sans-Serif" font-size="10.00">+ QName()</text>
<text text-anchor="start" x="218.39" y="-1504.5" font-family="Helvetica,sans-Serif" font-size="10.00">+ QName()</text>
<text text-anchor="start" x="218.39" y="-1493.5" font-family="Helvetica,sans-Serif" font-size="10.00">+ ~QName()</text>
<text text-anchor="start" x="218.39" y="-1482.5" font-family="Helvetica,sans-Serif" font-size="10.00">+ getPrefix()</text>
<text text-anchor="start" x="218.39" y="-1471.5" font-family="Helvetica,sans-Serif" font-size="10.00">+ getPrefix()</text>
<text text-anchor="start" x="218.39" y="-1460.5" font-family="Helvetica,sans-Serif" font-size="10.00">+ getLocalPart()</text>
<text text-anchor="start" x="218.39" y="-1449.5" font-family="Helvetica,sans-Serif" font-size="10.00">+ getLocalPart()</text>
<text text-anchor="start" x="218.39" y="-1438.5" font-family="Helvetica,sans-Serif" font-size="10.00">+ getURI()</text>
<text text-anchor="start" x="218.39" y="-1427.5" font-family="Helvetica,sans-Serif" font-size="10.00">and 59 more...</text>
<text text-anchor="start" x="218.39" y="-1416.5" font-family="Helvetica,sans-Serif" font-size="10.00">&#45; operator=()</text>
<text text-anchor="start" x="218.39" y="-1405.5" font-family="Helvetica,sans-Serif" font-size="10.00">&#45; operator=()</text>
<text text-anchor="start" x="218.39" y="-1394.5" font-family="Helvetica,sans-Serif" font-size="10.00">&#45; operator=()</text>
</a>
</g>
</g>
<!-- Node2&#45;&gt;Node5 -->
<g id="edge9" class="edge">
<title>Node2&#45;&gt;Node5</title>
<path fill="none" stroke="midnightblue" d="M188.84,-1757.31C197.15,-1723.14 206.57,-1687.01 215.9,-1653.56"/>
<polygon fill="none" stroke="midnightblue" points="185.36,-1756.82 186.41,-1767.36 192.16,-1758.46 185.36,-1756.82"/>
</g>
<!-- Node2&#45;&gt;Node5 -->
<g id="edge11" class="edge">
<title>Node2&#45;&gt;Node5</title>
<path fill="none" stroke="midnightblue" d="M202.02,-1757.31C210.84,-1723.14 220.17,-1687.01 228.8,-1653.56"/>
<polygon fill="none" stroke="midnightblue" points="198.53,-1756.8 199.42,-1767.36 205.31,-1758.55 198.53,-1756.8"/>
</g>
<!-- Node2&#45;&gt;Node5 -->
<g id="edge13" class="edge">
<title>Node2&#45;&gt;Node5</title>
<path fill="none" stroke="midnightblue" d="M215.2,-1757.31C224.52,-1723.14 233.76,-1687.01 241.7,-1653.56"/>
<polygon fill="none" stroke="midnightblue" points="211.71,-1756.79 212.43,-1767.36 218.46,-1758.65 211.71,-1756.79"/>
</g>
<!-- Node6 -->
<g id="node6" class="node">
<title>Node6</title>
<g id="a_node6"><a xlink:href="../../de/d1b/classXMLElementDecl.html" target="_top" xlink:title=" ">
<polygon fill="white" stroke="black" points="275.89,-358.5 275.89,-1339.5 447.89,-1339.5 447.89,-358.5 275.89,-358.5"/>
<text text-anchor="middle" x="361.89" y="-1327.5" font-family="Helvetica,sans-Serif" font-size="10.00">XMLElementDecl</text>
<polyline fill="none" stroke="black" points="275.89,-1320.5 447.89,-1320.5 "/>
<text text-anchor="start" x="283.89" y="-1308.5" font-family="Helvetica,sans-Serif" font-size="10.00">+ fgInvalidElemId</text>
<text text-anchor="start" x="283.89" y="-1297.5" font-family="Helvetica,sans-Serif" font-size="10.00">+ fgPCDataElemId</text>
<text text-anchor="start" x="283.89" y="-1286.5" font-family="Helvetica,sans-Serif" font-size="10.00">+ fgPCDataElemName</text>
<polyline fill="none" stroke="black" points="275.89,-1279.5 447.89,-1279.5 "/>
<text text-anchor="start" x="283.89" y="-1267.5" font-family="Helvetica,sans-Serif" font-size="10.00">+ ~XMLElementDecl()</text>
<text text-anchor="start" x="283.89" y="-1256.5" font-family="Helvetica,sans-Serif" font-size="10.00">+ ~XMLElementDecl()</text>
<text text-anchor="start" x="283.89" y="-1245.5" font-family="Helvetica,sans-Serif" font-size="10.00">+ ~XMLElementDecl()</text>
<text text-anchor="start" x="283.89" y="-1234.5" font-family="Helvetica,sans-Serif" font-size="10.00">+ getAttDefList()</text>
<text text-anchor="start" x="283.89" y="-1223.5" font-family="Helvetica,sans-Serif" font-size="10.00">+ getCharDataOpts()</text>
<text text-anchor="start" x="283.89" y="-1212.5" font-family="Helvetica,sans-Serif" font-size="10.00">+ hasAttDefs()</text>
<text text-anchor="start" x="283.89" y="-1201.5" font-family="Helvetica,sans-Serif" font-size="10.00">+ getContentSpec()</text>
<text text-anchor="start" x="283.89" y="-1190.5" font-family="Helvetica,sans-Serif" font-size="10.00">+ getContentSpec()</text>
<text text-anchor="start" x="283.89" y="-1179.5" font-family="Helvetica,sans-Serif" font-size="10.00">+ setContentSpec()</text>
<text text-anchor="start" x="283.89" y="-1168.5" font-family="Helvetica,sans-Serif" font-size="10.00">+ getContentModel()</text>
<text text-anchor="start" x="283.89" y="-1157.5" font-family="Helvetica,sans-Serif" font-size="10.00">+ setContentModel()</text>
<text text-anchor="start" x="283.89" y="-1146.5" font-family="Helvetica,sans-Serif" font-size="10.00">+ getFormattedContentModel()</text>
<text text-anchor="start" x="283.89" y="-1135.5" font-family="Helvetica,sans-Serif" font-size="10.00">+ getAttDefList()</text>
<text text-anchor="start" x="283.89" y="-1124.5" font-family="Helvetica,sans-Serif" font-size="10.00">and 17 more...</text>
<text text-anchor="start" x="283.89" y="-1113.5" font-family="Helvetica,sans-Serif" font-size="10.00">+ getBaseName()</text>
<text text-anchor="start" x="283.89" y="-1102.5" font-family="Helvetica,sans-Serif" font-size="10.00">+ getBaseName()</text>
<text text-anchor="start" x="283.89" y="-1091.5" font-family="Helvetica,sans-Serif" font-size="10.00">+ getURI()</text>
<text text-anchor="start" x="283.89" y="-1080.5" font-family="Helvetica,sans-Serif" font-size="10.00">+ getElementName()</text>
<text text-anchor="start" x="283.89" y="-1069.5" font-family="Helvetica,sans-Serif" font-size="10.00">+ getElementName()</text>
<text text-anchor="start" x="283.89" y="-1058.5" font-family="Helvetica,sans-Serif" font-size="10.00">+ getFullName()</text>
<text text-anchor="start" x="283.89" y="-1047.5" font-family="Helvetica,sans-Serif" font-size="10.00">+ getCreateReason()</text>
<text text-anchor="start" x="283.89" y="-1036.5" font-family="Helvetica,sans-Serif" font-size="10.00">+ getId()</text>
<text text-anchor="start" x="283.89" y="-1025.5" font-family="Helvetica,sans-Serif" font-size="10.00">+ isDeclared()</text>
<text text-anchor="start" x="283.89" y="-1014.5" font-family="Helvetica,sans-Serif" font-size="10.00">+ isExternal()</text>
<text text-anchor="start" x="283.89" y="-1003.5" font-family="Helvetica,sans-Serif" font-size="10.00">and 23 more...</text>
<text text-anchor="start" x="283.89" y="-992.5" font-family="Helvetica,sans-Serif" font-size="10.00">+ setElementName()</text>
<text text-anchor="start" x="283.89" y="-981.5" font-family="Helvetica,sans-Serif" font-size="10.00">+ setElementName()</text>
<text text-anchor="start" x="283.89" y="-970.5" font-family="Helvetica,sans-Serif" font-size="10.00">+ setElementName()</text>
<text text-anchor="start" x="283.89" y="-959.5" font-family="Helvetica,sans-Serif" font-size="10.00">+ setCreateReason()</text>
<text text-anchor="start" x="283.89" y="-948.5" font-family="Helvetica,sans-Serif" font-size="10.00">+ setId()</text>
<text text-anchor="start" x="283.89" y="-937.5" font-family="Helvetica,sans-Serif" font-size="10.00">+ setExternalElemDeclaration()</text>
<text text-anchor="start" x="283.89" y="-926.5" font-family="Helvetica,sans-Serif" font-size="10.00">+ setElementName()</text>
<text text-anchor="start" x="283.89" y="-915.5" font-family="Helvetica,sans-Serif" font-size="10.00">+ setElementName()</text>
<text text-anchor="start" x="283.89" y="-904.5" font-family="Helvetica,sans-Serif" font-size="10.00">+ setElementName()</text>
<text text-anchor="start" x="283.89" y="-893.5" font-family="Helvetica,sans-Serif" font-size="10.00">+ setCreateReason()</text>
<text text-anchor="start" x="283.89" y="-882.5" font-family="Helvetica,sans-Serif" font-size="10.00">and 8 more...</text>
<text text-anchor="start" x="283.89" y="-871.5" font-family="Helvetica,sans-Serif" font-size="10.00">* objectType</text>
<text text-anchor="start" x="283.89" y="-860.5" font-family="Helvetica,sans-Serif" font-size="10.00">* objectType</text>
<text text-anchor="start" x="283.89" y="-849.5" font-family="Helvetica,sans-Serif" font-size="10.00">* objectType</text>
<text text-anchor="start" x="283.89" y="-838.5" font-family="Helvetica,sans-Serif" font-size="10.00">* fCreateReason</text>
<text text-anchor="start" x="283.89" y="-827.5" font-family="Helvetica,sans-Serif" font-size="10.00">* fId</text>
<text text-anchor="start" x="283.89" y="-816.5" font-family="Helvetica,sans-Serif" font-size="10.00">* fExternalElement</text>
<text text-anchor="start" x="283.89" y="-805.5" font-family="Helvetica,sans-Serif" font-size="10.00">* getObjectType()</text>
<text text-anchor="start" x="283.89" y="-794.5" font-family="Helvetica,sans-Serif" font-size="10.00">* getObjectType()</text>
<text text-anchor="start" x="283.89" y="-783.5" font-family="Helvetica,sans-Serif" font-size="10.00">* getObjectType()</text>
<text text-anchor="start" x="283.89" y="-772.5" font-family="Helvetica,sans-Serif" font-size="10.00">* storeElementDecl()</text>
<text text-anchor="start" x="283.89" y="-761.5" font-family="Helvetica,sans-Serif" font-size="10.00">and 14 more...</text>
<text text-anchor="start" x="283.89" y="-750.5" font-family="Helvetica,sans-Serif" font-size="10.00">* ~XMLElementDecl()</text>
<text text-anchor="start" x="283.89" y="-739.5" font-family="Helvetica,sans-Serif" font-size="10.00">* ~XMLElementDecl()</text>
<text text-anchor="start" x="283.89" y="-728.5" font-family="Helvetica,sans-Serif" font-size="10.00">* ~XMLElementDecl()</text>
<text text-anchor="start" x="283.89" y="-717.5" font-family="Helvetica,sans-Serif" font-size="10.00">* getAttDefList()</text>
<text text-anchor="start" x="283.89" y="-706.5" font-family="Helvetica,sans-Serif" font-size="10.00">* getCharDataOpts()</text>
<text text-anchor="start" x="283.89" y="-695.5" font-family="Helvetica,sans-Serif" font-size="10.00">* hasAttDefs()</text>
<text text-anchor="start" x="283.89" y="-684.5" font-family="Helvetica,sans-Serif" font-size="10.00">* getContentSpec()</text>
<text text-anchor="start" x="283.89" y="-673.5" font-family="Helvetica,sans-Serif" font-size="10.00">* getContentSpec()</text>
<text text-anchor="start" x="283.89" y="-662.5" font-family="Helvetica,sans-Serif" font-size="10.00">* setContentSpec()</text>
<text text-anchor="start" x="283.89" y="-651.5" font-family="Helvetica,sans-Serif" font-size="10.00">* getContentModel()</text>
<text text-anchor="start" x="283.89" y="-640.5" font-family="Helvetica,sans-Serif" font-size="10.00">* setContentModel()</text>
<text text-anchor="start" x="283.89" y="-629.5" font-family="Helvetica,sans-Serif" font-size="10.00">* getFormattedContentModel()</text>
<text text-anchor="start" x="283.89" y="-618.5" font-family="Helvetica,sans-Serif" font-size="10.00">* getAttDefList()</text>
<text text-anchor="start" x="283.89" y="-607.5" font-family="Helvetica,sans-Serif" font-size="10.00">and 17 more...</text>
<text text-anchor="start" x="283.89" y="-596.5" font-family="Helvetica,sans-Serif" font-size="10.00">* getBaseName()</text>
<text text-anchor="start" x="283.89" y="-585.5" font-family="Helvetica,sans-Serif" font-size="10.00">* getBaseName()</text>
<text text-anchor="start" x="283.89" y="-574.5" font-family="Helvetica,sans-Serif" font-size="10.00">* getURI()</text>
<text text-anchor="start" x="283.89" y="-563.5" font-family="Helvetica,sans-Serif" font-size="10.00">* getElementName()</text>
<text text-anchor="start" x="283.89" y="-552.5" font-family="Helvetica,sans-Serif" font-size="10.00">* getElementName()</text>
<text text-anchor="start" x="283.89" y="-541.5" font-family="Helvetica,sans-Serif" font-size="10.00">* getFullName()</text>
<text text-anchor="start" x="283.89" y="-530.5" font-family="Helvetica,sans-Serif" font-size="10.00">* getCreateReason()</text>
<text text-anchor="start" x="283.89" y="-519.5" font-family="Helvetica,sans-Serif" font-size="10.00">* getId()</text>
<text text-anchor="start" x="283.89" y="-508.5" font-family="Helvetica,sans-Serif" font-size="10.00">* isDeclared()</text>
<text text-anchor="start" x="283.89" y="-497.5" font-family="Helvetica,sans-Serif" font-size="10.00">* isExternal()</text>
<text text-anchor="start" x="283.89" y="-486.5" font-family="Helvetica,sans-Serif" font-size="10.00">and 23 more...</text>
<text text-anchor="start" x="283.89" y="-475.5" font-family="Helvetica,sans-Serif" font-size="10.00">* setElementName()</text>
<text text-anchor="start" x="283.89" y="-464.5" font-family="Helvetica,sans-Serif" font-size="10.00">* setElementName()</text>
<text text-anchor="start" x="283.89" y="-453.5" font-family="Helvetica,sans-Serif" font-size="10.00">* setElementName()</text>
<text text-anchor="start" x="283.89" y="-442.5" font-family="Helvetica,sans-Serif" font-size="10.00">* setCreateReason()</text>
<text text-anchor="start" x="283.89" y="-431.5" font-family="Helvetica,sans-Serif" font-size="10.00">* setId()</text>
<text text-anchor="start" x="283.89" y="-420.5" font-family="Helvetica,sans-Serif" font-size="10.00">* setExternalElemDeclaration()</text>
<text text-anchor="start" x="283.89" y="-409.5" font-family="Helvetica,sans-Serif" font-size="10.00">* setElementName()</text>
<text text-anchor="start" x="283.89" y="-398.5" font-family="Helvetica,sans-Serif" font-size="10.00">* setElementName()</text>
<text text-anchor="start" x="283.89" y="-387.5" font-family="Helvetica,sans-Serif" font-size="10.00">* setElementName()</text>
<text text-anchor="start" x="283.89" y="-376.5" font-family="Helvetica,sans-Serif" font-size="10.00">* setCreateReason()</text>
<text text-anchor="start" x="283.89" y="-365.5" font-family="Helvetica,sans-Serif" font-size="10.00">and 8 more...</text>
</a>
</g>
</g>
<!-- Node2&#45;&gt;Node6 -->
<g id="edge17" class="edge">
<title>Node2&#45;&gt;Node6</title>
<path fill="none" stroke="midnightblue" d="M128.03,-1757.24C116.62,-1648.14 121.11,-1499.67 183.89,-1387 194.58,-1367.82 205.66,-1370.24 223.89,-1358 236.49,-1349.54 244.33,-1352.52 252.89,-1340 261.19,-1327.86 268.79,-1315.16 275.75,-1302.05"/>
<polygon fill="none" stroke="midnightblue" points="124.56,-1757.78 129.14,-1767.34 131.52,-1757.02 124.56,-1757.78"/>
</g>
<!-- Node2&#45;&gt;Node6 -->
<g id="edge19" class="edge">
<title>Node2&#45;&gt;Node6</title>
<path fill="none" stroke="midnightblue" d="M142.89,-1757.24C134.62,-1648.14 139.11,-1499.67 201.89,-1387 212.58,-1367.82 223.66,-1370.24 241.89,-1358 254.49,-1349.54 262.33,-1352.52 270.89,-1340 272.54,-1337.59 274.16,-1335.16 275.75,-1332.7"/>
<polygon fill="none" stroke="midnightblue" points="139.41,-1757.65 143.7,-1767.34 146.39,-1757.09 139.41,-1757.65"/>
</g>
<!-- Node2&#45;&gt;Node6 -->
<g id="edge21" class="edge">
<title>Node2&#45;&gt;Node6</title>
<path fill="none" stroke="midnightblue" d="M157.75,-1757.24C152.62,-1648.14 157.11,-1499.67 219.89,-1387 230.58,-1367.82 241.66,-1370.24 259.89,-1358 272.49,-1349.54 280.33,-1352.52 288.89,-1340 288.95,-1339.91 289.01,-1339.82 289.07,-1339.73"/>
<polygon fill="none" stroke="midnightblue" points="154.26,-1757.53 158.25,-1767.34 161.25,-1757.18 154.26,-1757.53"/>
</g>
<!-- Node3 -->
<g id="node3" class="node">
<title>Node3</title>
<g id="a_node3"><a xlink:href="../../d5/d80/classXMemory.html" target="_top" xlink:title=" ">
<polygon fill="white" stroke="black" points="291.89,-1729 291.89,-2083 401.89,-2083 401.89,-1729 291.89,-1729"/>
<text text-anchor="middle" x="346.89" y="-2071" font-family="Helvetica,sans-Serif" font-size="10.00">XMemory</text>
<polyline fill="none" stroke="black" points="291.89,-2064 401.89,-2064 "/>
<text text-anchor="middle" x="346.89" y="-2052" font-family="Helvetica,sans-Serif" font-size="10.00"> </text>
<polyline fill="none" stroke="black" points="291.89,-2045 401.89,-2045 "/>
<text text-anchor="start" x="299.89" y="-2033" font-family="Helvetica,sans-Serif" font-size="10.00">+ operator new()</text>
<text text-anchor="start" x="299.89" y="-2022" font-family="Helvetica,sans-Serif" font-size="10.00">+ operator new()</text>
<text text-anchor="start" x="299.89" y="-2011" font-family="Helvetica,sans-Serif" font-size="10.00">+ operator new()</text>
<text text-anchor="start" x="299.89" y="-2000" font-family="Helvetica,sans-Serif" font-size="10.00">+ operator delete()</text>
<text text-anchor="start" x="299.89" y="-1989" font-family="Helvetica,sans-Serif" font-size="10.00">+ operator delete()</text>
<text text-anchor="start" x="299.89" y="-1978" font-family="Helvetica,sans-Serif" font-size="10.00">+ operator delete()</text>
<text text-anchor="start" x="299.89" y="-1967" font-family="Helvetica,sans-Serif" font-size="10.00">+ operator new()</text>
<text text-anchor="start" x="299.89" y="-1956" font-family="Helvetica,sans-Serif" font-size="10.00">+ operator new()</text>
<text text-anchor="start" x="299.89" y="-1945" font-family="Helvetica,sans-Serif" font-size="10.00">+ operator new()</text>
<text text-anchor="start" x="299.89" y="-1934" font-family="Helvetica,sans-Serif" font-size="10.00">+ operator delete()</text>
<text text-anchor="start" x="299.89" y="-1923" font-family="Helvetica,sans-Serif" font-size="10.00">and 8 more...</text>
<text text-anchor="start" x="299.89" y="-1912" font-family="Helvetica,sans-Serif" font-size="10.00"># XMemory()</text>
<text text-anchor="start" x="299.89" y="-1901" font-family="Helvetica,sans-Serif" font-size="10.00"># XMemory()</text>
<text text-anchor="start" x="299.89" y="-1890" font-family="Helvetica,sans-Serif" font-size="10.00"># XMemory()</text>
<text text-anchor="start" x="299.89" y="-1879" font-family="Helvetica,sans-Serif" font-size="10.00">* operator new()</text>
<text text-anchor="start" x="299.89" y="-1868" font-family="Helvetica,sans-Serif" font-size="10.00">* operator new()</text>
<text text-anchor="start" x="299.89" y="-1857" font-family="Helvetica,sans-Serif" font-size="10.00">* operator new()</text>
<text text-anchor="start" x="299.89" y="-1846" font-family="Helvetica,sans-Serif" font-size="10.00">* operator delete()</text>
<text text-anchor="start" x="299.89" y="-1835" font-family="Helvetica,sans-Serif" font-size="10.00">* operator delete()</text>
<text text-anchor="start" x="299.89" y="-1824" font-family="Helvetica,sans-Serif" font-size="10.00">* operator delete()</text>
<text text-anchor="start" x="299.89" y="-1813" font-family="Helvetica,sans-Serif" font-size="10.00">* operator new()</text>
<text text-anchor="start" x="299.89" y="-1802" font-family="Helvetica,sans-Serif" font-size="10.00">* operator new()</text>
<text text-anchor="start" x="299.89" y="-1791" font-family="Helvetica,sans-Serif" font-size="10.00">* operator new()</text>
<text text-anchor="start" x="299.89" y="-1780" font-family="Helvetica,sans-Serif" font-size="10.00">* operator delete()</text>
<text text-anchor="start" x="299.89" y="-1769" font-family="Helvetica,sans-Serif" font-size="10.00">and 8 more...</text>
<text text-anchor="start" x="299.89" y="-1758" font-family="Helvetica,sans-Serif" font-size="10.00">* XMemory()</text>
<text text-anchor="start" x="299.89" y="-1747" font-family="Helvetica,sans-Serif" font-size="10.00">* XMemory()</text>
<text text-anchor="start" x="299.89" y="-1736" font-family="Helvetica,sans-Serif" font-size="10.00">* XMemory()</text>
</a>
</g>
</g>
<!-- Node3&#45;&gt;Node1 -->
<g id="edge2" class="edge">
<title>Node3&#45;&gt;Node1</title>
<path fill="none" stroke="midnightblue" d="M407.31,-1779.6C423.93,-1753.34 442.17,-1726.03 459.89,-1701 465.75,-1692.73 470.6,-1692.59 473.89,-1683 475.48,-1678.38 473.96,-1676.89 473.89,-1672 466.11,-1087.84 574.12,-926.34 438.89,-358 435.15,-342.29 430.11,-326.35 424.36,-310.66"/>
<polygon fill="none" stroke="midnightblue" points="404.33,-1777.76 401.97,-1788.09 410.26,-1781.49 404.33,-1777.76"/>
</g>
<!-- Node3&#45;&gt;Node1 -->
<g id="edge4" class="edge">
<title>Node3&#45;&gt;Node1</title>
<path fill="none" stroke="midnightblue" d="M407.34,-1806.93C428.95,-1772.95 453.91,-1734.89 477.89,-1701 483.75,-1692.73 488.6,-1692.59 491.89,-1683 493.48,-1678.38 491.96,-1676.89 491.89,-1672 484.11,-1087.84 592.12,-926.34 456.89,-358 450.24,-330.06 439.46,-301.38 427.5,-274.74"/>
<polygon fill="none" stroke="midnightblue" points="404.32,-1805.16 401.92,-1815.48 410.23,-1808.91 404.32,-1805.16"/>
</g>
<!-- Node3&#45;&gt;Node1 -->
<g id="edge6" class="edge">
<title>Node3&#45;&gt;Node1</title>
<path fill="none" stroke="midnightblue" d="M407.89,-1831.42C434.48,-1792.15 465.94,-1743.32 495.89,-1701 501.75,-1692.73 506.6,-1692.59 509.89,-1683 511.48,-1678.38 509.96,-1676.89 509.89,-1672 502.11,-1087.84 610.12,-926.34 474.89,-358 465.27,-317.55 446.97,-275.54 427.66,-240.42"/>
<polygon fill="none" stroke="midnightblue" points="404.68,-1829.92 401.95,-1840.16 410.47,-1833.86 404.68,-1829.92"/>
</g>
<!-- Node3&#45;&gt;Node5 -->
<g id="edge10" class="edge">
<title>Node3&#45;&gt;Node5</title>
<path fill="none" stroke="midnightblue" d="M292.69,-1719.16C287.81,-1697.07 283.14,-1674.86 278.95,-1653.73"/>
<polygon fill="none" stroke="midnightblue" points="289.29,-1719.96 294.87,-1728.96 296.12,-1718.44 289.29,-1719.96"/>
</g>
<!-- Node3&#45;&gt;Node5 -->
<g id="edge12" class="edge">
<title>Node3&#45;&gt;Node5</title>
<path fill="none" stroke="midnightblue" d="M306.19,-1719.16C301.35,-1697.07 296.48,-1674.86 291.86,-1653.73"/>
<polygon fill="none" stroke="midnightblue" points="302.78,-1719.94 308.33,-1728.96 309.61,-1718.45 302.78,-1719.94"/>
</g>
<!-- Node3&#45;&gt;Node5 -->
<g id="edge14" class="edge">
<title>Node3&#45;&gt;Node5</title>
<path fill="none" stroke="midnightblue" d="M319.68,-1719.16C314.88,-1697.07 309.82,-1674.86 304.76,-1653.73"/>
<polygon fill="none" stroke="midnightblue" points="316.27,-1719.93 321.79,-1728.96 323.11,-1718.45 316.27,-1719.93"/>
</g>
<!-- Node3&#45;&gt;Node6 -->
<g id="edge18" class="edge">
<title>Node3&#45;&gt;Node6</title>
<path fill="none" stroke="midnightblue" d="M338.95,-1718.56C338.32,-1612.55 339.32,-1474.39 341.46,-1339.54"/>
<polygon fill="none" stroke="midnightblue" points="335.46,-1718.74 339.02,-1728.71 342.46,-1718.69 335.46,-1718.74"/>
</g>
<!-- Node3&#45;&gt;Node6 -->
<g id="edge20" class="edge">
<title>Node3&#45;&gt;Node6</title>
<path fill="none" stroke="midnightblue" d="M349.54,-1718.56C351.05,-1612.55 353.01,-1474.39 354.93,-1339.54"/>
<polygon fill="none" stroke="midnightblue" points="346.04,-1718.67 349.4,-1728.71 353.04,-1718.76 346.04,-1718.67"/>
</g>
<!-- Node3&#45;&gt;Node6 -->
<g id="edge22" class="edge">
<title>Node3&#45;&gt;Node6</title>
<path fill="none" stroke="midnightblue" d="M360.13,-1718.56C363.78,-1612.55 366.7,-1474.39 368.4,-1339.54"/>
<polygon fill="none" stroke="midnightblue" points="356.63,-1718.6 359.78,-1728.71 363.62,-1718.84 356.63,-1718.6"/>
</g>
<!-- Node4 -->
<g id="node4" class="node">
<title>Node4</title>
<g id="a_node4"><a xlink:href="../../d6/d9a/classMemoryManager.html" target="_top" xlink:title=" ">
<polygon fill="white" stroke="black" points="486.89,-1701.5 486.89,-2110.5 668.89,-2110.5 668.89,-1701.5 486.89,-1701.5"/>
<text text-anchor="middle" x="577.89" y="-2098.5" font-family="Helvetica,sans-Serif" font-size="10.00">MemoryManager</text>
<polyline fill="none" stroke="black" points="486.89,-2091.5 668.89,-2091.5 "/>
<text text-anchor="middle" x="577.89" y="-2079.5" font-family="Helvetica,sans-Serif" font-size="10.00"> </text>
<polyline fill="none" stroke="black" points="486.89,-2072.5 668.89,-2072.5 "/>
<text text-anchor="start" x="494.89" y="-2060.5" font-family="Helvetica,sans-Serif" font-size="10.00">+ ~MemoryManager()</text>
<text text-anchor="start" x="494.89" y="-2049.5" font-family="Helvetica,sans-Serif" font-size="10.00">+ getExceptionMemoryManager()</text>
<text text-anchor="start" x="494.89" y="-2038.5" font-family="Helvetica,sans-Serif" font-size="10.00">+ ~MemoryManager()</text>
<text text-anchor="start" x="494.89" y="-2027.5" font-family="Helvetica,sans-Serif" font-size="10.00">+ getExceptionMemoryManager()</text>
<text text-anchor="start" x="494.89" y="-2016.5" font-family="Helvetica,sans-Serif" font-size="10.00">+ ~MemoryManager()</text>
<text text-anchor="start" x="494.89" y="-2005.5" font-family="Helvetica,sans-Serif" font-size="10.00">+ getExceptionMemoryManager()</text>
<text text-anchor="start" x="494.89" y="-1994.5" font-family="Helvetica,sans-Serif" font-size="10.00">+ allocate()</text>
<text text-anchor="start" x="494.89" y="-1983.5" font-family="Helvetica,sans-Serif" font-size="10.00">+ deallocate()</text>
<text text-anchor="start" x="494.89" y="-1972.5" font-family="Helvetica,sans-Serif" font-size="10.00">+ allocate()</text>
<text text-anchor="start" x="494.89" y="-1961.5" font-family="Helvetica,sans-Serif" font-size="10.00">+ deallocate()</text>
<text text-anchor="start" x="494.89" y="-1950.5" font-family="Helvetica,sans-Serif" font-size="10.00">+ allocate()</text>
<text text-anchor="start" x="494.89" y="-1939.5" font-family="Helvetica,sans-Serif" font-size="10.00">+ deallocate()</text>
<text text-anchor="start" x="494.89" y="-1928.5" font-family="Helvetica,sans-Serif" font-size="10.00">* ~MemoryManager()</text>
<text text-anchor="start" x="494.89" y="-1917.5" font-family="Helvetica,sans-Serif" font-size="10.00">* getExceptionMemoryManager()</text>
<text text-anchor="start" x="494.89" y="-1906.5" font-family="Helvetica,sans-Serif" font-size="10.00">* ~MemoryManager()</text>
<text text-anchor="start" x="494.89" y="-1895.5" font-family="Helvetica,sans-Serif" font-size="10.00">* getExceptionMemoryManager()</text>
<text text-anchor="start" x="494.89" y="-1884.5" font-family="Helvetica,sans-Serif" font-size="10.00">* ~MemoryManager()</text>
<text text-anchor="start" x="494.89" y="-1873.5" font-family="Helvetica,sans-Serif" font-size="10.00">* getExceptionMemoryManager()</text>
<text text-anchor="start" x="494.89" y="-1862.5" font-family="Helvetica,sans-Serif" font-size="10.00">* allocate()</text>
<text text-anchor="start" x="494.89" y="-1851.5" font-family="Helvetica,sans-Serif" font-size="10.00">* deallocate()</text>
<text text-anchor="start" x="494.89" y="-1840.5" font-family="Helvetica,sans-Serif" font-size="10.00">* allocate()</text>
<text text-anchor="start" x="494.89" y="-1829.5" font-family="Helvetica,sans-Serif" font-size="10.00">* deallocate()</text>
<text text-anchor="start" x="494.89" y="-1818.5" font-family="Helvetica,sans-Serif" font-size="10.00">* allocate()</text>
<text text-anchor="start" x="494.89" y="-1807.5" font-family="Helvetica,sans-Serif" font-size="10.00">* deallocate()</text>
<text text-anchor="start" x="494.89" y="-1796.5" font-family="Helvetica,sans-Serif" font-size="10.00">* MemoryManager()</text>
<text text-anchor="start" x="494.89" y="-1785.5" font-family="Helvetica,sans-Serif" font-size="10.00">* MemoryManager()</text>
<text text-anchor="start" x="494.89" y="-1774.5" font-family="Helvetica,sans-Serif" font-size="10.00">* MemoryManager()</text>
<text text-anchor="start" x="494.89" y="-1763.5" font-family="Helvetica,sans-Serif" font-size="10.00">* MemoryManager()</text>
<text text-anchor="start" x="494.89" y="-1752.5" font-family="Helvetica,sans-Serif" font-size="10.00">* operator=()</text>
<text text-anchor="start" x="494.89" y="-1741.5" font-family="Helvetica,sans-Serif" font-size="10.00">* MemoryManager()</text>
<text text-anchor="start" x="494.89" y="-1730.5" font-family="Helvetica,sans-Serif" font-size="10.00">* operator=()</text>
<text text-anchor="start" x="494.89" y="-1719.5" font-family="Helvetica,sans-Serif" font-size="10.00">* MemoryManager()</text>
<text text-anchor="start" x="494.89" y="-1708.5" font-family="Helvetica,sans-Serif" font-size="10.00">* operator=()</text>
</a>
</g>
</g>
<!-- Node4&#45;&gt;Node1 -->
<g id="edge7" class="edge">
<title>Node4&#45;&gt;Node1</title>
<path fill="none" stroke="#404040" d="M641.43,-1701.23C644.82,-1685.36 647.71,-1669.49 649.89,-1654 666.41,-1536.49 657.17,-1505.44 649.89,-1387 621.62,-927.06 701.69,-782.7 522.89,-358 502.79,-310.25 467.97,-264.51 435.85,-228.71"/>
<polygon fill="none" stroke="#404040" points="435.84,-228.69 428.84,-226.95 427.75,-219.82 434.75,-221.56 435.84,-228.69"/>
<text text-anchor="middle" x="694.89" y="-1361" font-family="Helvetica,sans-Serif" font-size="10.00"> &#45;fMemoryManager</text>
</g>
<!-- Node4&#45;&gt;Node5 -->
<g id="edge15" class="edge">
<title>Node4&#45;&gt;Node5</title>
<path fill="none" stroke="#404040" d="M486.74,-1793.51C462.14,-1763.46 435.52,-1730.97 410.89,-1701 382.19,-1666.06 350.29,-1627.36 323.47,-1594.86"/>
<polygon fill="none" stroke="#404040" points="323.33,-1594.68 316.42,-1592.6 315.69,-1585.42 322.59,-1587.51 323.33,-1594.68"/>
<text text-anchor="middle" x="440.89" y="-1675" font-family="Helvetica,sans-Serif" font-size="10.00"> &#45;fMemoryManager</text>
</g>
<!-- Node4&#45;&gt;Node6 -->
<g id="edge23" class="edge">
<title>Node4&#45;&gt;Node6</title>
<path fill="none" stroke="#404040" d="M561.27,-1701.46C559.92,-1691.49 558.46,-1681.62 556.89,-1672 530.1,-1507.46 488.66,-1326.98 450.86,-1177.16"/>
<polygon fill="none" stroke="#404040" points="450.85,-1177.15 445.5,-1172.31 447.91,-1165.52 453.26,-1170.35 450.85,-1177.15"/>
<text text-anchor="middle" x="598.89" y="-1518" font-family="Helvetica,sans-Serif" font-size="10.00"> &#45;fMemoryManager</text>
</g>
<!-- Node5&#45;&gt;Node1 -->
<g id="edge8" class="edge">
<title>Node5&#45;&gt;Node1</title>
<path fill="none" stroke="#404040" d="M223.42,-1387.46C219.92,-1371.59 216.93,-1355.51 214.89,-1340 158.03,-907.28 79.62,-772.95 214.89,-358 229.86,-312.08 259.69,-267.93 288.59,-232.72"/>
<polygon fill="none" stroke="#404040" points="288.6,-232.7 289.38,-225.53 296.3,-223.49 295.52,-230.66 288.6,-232.7"/>
<text text-anchor="middle" x="240.89" y="-846.5" font-family="Helvetica,sans-Serif" font-size="10.00"> &#45;fElement</text>
</g>
<!-- Node5&#45;&gt;Node6 -->
<g id="edge24" class="edge">
<title>Node5&#45;&gt;Node6</title>
<path fill="none" stroke="#404040" d="M242.83,-1387.19C243.92,-1377.2 245.86,-1367.37 248.89,-1358 251.93,-1348.61 257.93,-1349.04 261.89,-1340 265.17,-1332.52 268.35,-1324.93 271.42,-1317.25"/>
<polygon fill="none" stroke="#404040" points="271.48,-1317.1 269.94,-1310.05 275.85,-1305.92 277.39,-1312.97 271.48,-1317.1"/>
<text text-anchor="middle" x="289.39" y="-1361" font-family="Helvetica,sans-Serif" font-size="10.00"> &#45;fElementName</text>
</g>
<!-- Node6&#45;&gt;Node1 -->
<g id="edge16" class="edge">
<title>Node6&#45;&gt;Node1</title>
<path fill="none" stroke="#404040" d="M361.89,-358.37C361.89,-346.24 361.89,-334.39 361.89,-322.91"/>
<polygon fill="none" stroke="#404040" points="361.89,-322.61 357.89,-316.61 361.89,-310.61 365.89,-316.61 361.89,-322.61"/>
<text text-anchor="middle" x="398.39" y="-332" font-family="Helvetica,sans-Serif" font-size="10.00"> &#45;fElementDecl</text>
</g>
</g>
</svg>
        <g id="navigator" transform="translate(0 0)" fill="#404254">
                <rect fill="#f2f5e9" fill-opacity="0.5" stroke="#606060" stroke-width=".5" x="0" y="0" width="60" height="60"/>
                <use id="zoomplus" xlink:href="#zoomPlus" x="17" y="9" onmousedown="handleZoom(evt,'in')"/>
                <use id="zoomminus" xlink:href="#zoomMin" x="42" y="9" onmousedown="handleZoom(evt,'out')"/>
                <use id="reset" xlink:href="#resetDef" x="30" y="36" onmousedown="handleReset()"/>
                <g id="arrowUp" xlink:href="#dirArrow" transform="translate(30 24)" onmousedown="handlePan(0,-1)">
                  <use xlink:href="#rim" fill="#404040">
                        <set attributeName="fill" to="#808080" begin="arrowUp.mouseover" end="arrowUp.mouseout"/>
                  </use>
                  <path fill="none" stroke="white" stroke-width="1.5" d="M0,-3.0v7 M-2.5,-0.5L0,-3.0L2.5,-0.5"/>
                </g>
                <g id="arrowRight" xlink:href="#dirArrow" transform="rotate(90) translate(36 -43)" onmousedown="handlePan(1,0)">
                  <use xlink:href="#rim" fill="#404040">
                        <set attributeName="fill" to="#808080" begin="arrowRight.mouseover" end="arrowRight.mouseout"/>
                  </use>
                  <path fill="none" stroke="white" stroke-width="1.5" d="M0,-3.0v7 M-2.5,-0.5L0,-3.0L2.5,-0.5"/>
                </g>
                <g id="arrowDown" xlink:href="#dirArrow" transform="rotate(180) translate(-30 -48)" onmousedown="handlePan(0,1)">
                  <use xlink:href="#rim" fill="#404040">
                        <set attributeName="fill" to="#808080" begin="arrowDown.mouseover" end="arrowDown.mouseout"/>
                  </use>
                  <path fill="none" stroke="white" stroke-width="1.5" d="M0,-3.0v7 M-2.5,-0.5L0,-3.0L2.5,-0.5"/>
                </g>
                <g id="arrowLeft" xlink:href="#dirArrow" transform="rotate(270) translate(-36 17)" onmousedown="handlePan(-1,0)">
                  <use xlink:href="#rim" fill="#404040">
                        <set attributeName="fill" to="#808080" begin="arrowLeft.mouseover" end="arrowLeft.mouseout"/>
                  </use>
                  <path fill="none" stroke="white" stroke-width="1.5" d="M0,-3.0v7 M-2.5,-0.5L0,-3.0L2.5,-0.5"/>
                </g>
        </g>
        <svg viewBox="0 0 15 15" width="100%" height="30px" preserveAspectRatio="xMaxYMin meet">
         <g id="arrow_out" transform="scale(0.3 0.3)">
          <a xlink:href="classContentSpecNode__coll__graph_org.svg" target="_base">
           <rect id="button" ry="5" rx="5" y="6" x="6" height="38" width="38"
                fill="#f2f5e9" fill-opacity="0.5" stroke="#606060" stroke-width="1.0"/>
           <path id="arrow"
             d="M 11.500037,31.436501 C 11.940474,20.09759 22.043105,11.32322 32.158766,21.979434 L 37.068811,17.246167 C 37.068811,17.246167 37.088388,32 37.088388,32 L 22.160133,31.978069 C 22.160133,31.978069 26.997745,27.140456 26.997745,27.140456 C 18.528582,18.264221 13.291696,25.230495 11.500037,31.436501 z"
             style="fill:#404040;"/>
          </a>
         </g>
        </svg>
</svg>
