<?xml version="1.0" encoding="UTF-8" standalone="no"?>
<!DOCTYPE svg PUBLIC "-//W3C//DTD SVG 1.1//EN"
 "http://www.w3.org/Graphics/SVG/1.1/DTD/svg11.dtd">
<!-- Generated by graphviz version 2.43.0 (0)
 -->
<!-- Title: src/libs/vgeometry/vabstractcubicbezier.h Pages: 1 -->
<svg width="1106pt" height="296pt"
 viewBox="0.00 0.00 1106.00 296.00" xmlns="http://www.w3.org/2000/svg" xmlns:xlink="http://www.w3.org/1999/xlink">
<g id="graph0" class="graph" transform="scale(1 1) rotate(0) translate(4 292)">
<title>src/libs/vgeometry/vabstractcubicbezier.h</title>
<polygon fill="white" stroke="transparent" points="-4,4 -4,-292 1102,-292 1102,4 -4,4"/>
<!-- Node1 -->
<g id="node1" class="node">
<title>Node1</title>
<g id="a_node1"><a xlink:title=" ">
<polygon fill="#bfbfbf" stroke="black" points="208,-257.5 208,-287.5 337,-287.5 337,-257.5 208,-257.5"/>
<text text-anchor="start" x="216" y="-275.5" font-family="Helvetica,sans-Serif" font-size="10.00">src/libs/vgeometry</text>
<text text-anchor="middle" x="272.5" y="-264.5" font-family="Helvetica,sans-Serif" font-size="10.00">/vabstractcubicbezier.h</text>
</a>
</g>
</g>
<!-- Node2 -->
<g id="node2" class="node">
<title>Node2</title>
<g id="a_node2"><a xlink:href="../../d5/d5a/vabstractcubicbezier_8cpp.html" target="_top" xlink:title=" ">
<polygon fill="white" stroke="black" points="60.5,-190.5 60.5,-220.5 200.5,-220.5 200.5,-190.5 60.5,-190.5"/>
<text text-anchor="start" x="68.5" y="-208.5" font-family="Helvetica,sans-Serif" font-size="10.00">src/libs/vgeometry</text>
<text text-anchor="middle" x="130.5" y="-197.5" font-family="Helvetica,sans-Serif" font-size="10.00">/vabstractcubicbezier.cpp</text>
</a>
</g>
</g>
<!-- Node1&#45;&gt;Node2 -->
<g id="edge1" class="edge">
<title>Node1&#45;&gt;Node2</title>
<path fill="none" stroke="midnightblue" d="M232.37,-253.13C209.81,-242.8 182.08,-230.11 161.25,-220.58"/>
<polygon fill="midnightblue" stroke="midnightblue" points="231.14,-256.42 241.69,-257.4 234.05,-250.05 231.14,-256.42"/>
</g>
<!-- Node3 -->
<g id="node3" class="node">
<title>Node3</title>
<g id="a_node3"><a xlink:href="../../d5/dd5/vcubicbezier_8h.html" target="_top" xlink:title=" ">
<polygon fill="white" stroke="black" points="219,-190.5 219,-220.5 326,-220.5 326,-190.5 219,-190.5"/>
<text text-anchor="start" x="227" y="-208.5" font-family="Helvetica,sans-Serif" font-size="10.00">src/libs/vgeometry</text>
<text text-anchor="middle" x="272.5" y="-197.5" font-family="Helvetica,sans-Serif" font-size="10.00">/vcubicbezier.h</text>
</a>
</g>
</g>
<!-- Node1&#45;&gt;Node3 -->
<g id="edge2" class="edge">
<title>Node1&#45;&gt;Node3</title>
<path fill="none" stroke="midnightblue" d="M272.5,-247.11C272.5,-238.15 272.5,-228.32 272.5,-220.58"/>
<polygon fill="midnightblue" stroke="midnightblue" points="269,-247.4 272.5,-257.4 276,-247.4 269,-247.4"/>
</g>
<!-- Node5 -->
<g id="node5" class="node">
<title>Node5</title>
<g id="a_node5"><a xlink:href="../../d8/dfd/vspline_8h.html" target="_top" xlink:title=" ">
<polygon fill="white" stroke="black" points="564,-190.5 564,-220.5 671,-220.5 671,-190.5 564,-190.5"/>
<text text-anchor="start" x="572" y="-208.5" font-family="Helvetica,sans-Serif" font-size="10.00">src/libs/vgeometry</text>
<text text-anchor="middle" x="617.5" y="-197.5" font-family="Helvetica,sans-Serif" font-size="10.00">/vspline.h</text>
</a>
</g>
</g>
<!-- Node1&#45;&gt;Node5 -->
<g id="edge4" class="edge">
<title>Node1&#45;&gt;Node5</title>
<path fill="none" stroke="midnightblue" d="M347.22,-257.42C412.55,-245.11 505.8,-227.54 563.94,-216.59"/>
<polygon fill="midnightblue" stroke="midnightblue" points="346.57,-253.98 337.39,-259.27 347.87,-260.86 346.57,-253.98"/>
</g>
<!-- Node4 -->
<g id="node4" class="node">
<title>Node4</title>
<g id="a_node4"><a xlink:href="../../d2/d26/vcubicbezier_8cpp.html" target="_top" xlink:title=" ">
<polygon fill="white" stroke="black" points="0,-123.5 0,-153.5 107,-153.5 107,-123.5 0,-123.5"/>
<text text-anchor="start" x="8" y="-141.5" font-family="Helvetica,sans-Serif" font-size="10.00">src/libs/vgeometry</text>
<text text-anchor="middle" x="53.5" y="-130.5" font-family="Helvetica,sans-Serif" font-size="10.00">/vcubicbezier.cpp</text>
</a>
</g>
</g>
<!-- Node3&#45;&gt;Node4 -->
<g id="edge3" class="edge">
<title>Node3&#45;&gt;Node4</title>
<path fill="none" stroke="midnightblue" d="M215.49,-187.58C179.92,-177.02 134.67,-163.59 101.04,-153.61"/>
<polygon fill="midnightblue" stroke="midnightblue" points="214.67,-190.99 225.25,-190.48 216.66,-184.28 214.67,-190.99"/>
</g>
<!-- Node6 -->
<g id="node6" class="node">
<title>Node6</title>
<g id="a_node6"><a xlink:href="../../db/d0a/vabstractcubicbezierpath_8cpp.html" target="_top" xlink:title=" ">
<polygon fill="white" stroke="black" points="125,-123.5 125,-153.5 288,-153.5 288,-123.5 125,-123.5"/>
<text text-anchor="start" x="133" y="-141.5" font-family="Helvetica,sans-Serif" font-size="10.00">src/libs/vgeometry</text>
<text text-anchor="middle" x="206.5" y="-130.5" font-family="Helvetica,sans-Serif" font-size="10.00">/vabstractcubicbezierpath.cpp</text>
</a>
</g>
</g>
<!-- Node5&#45;&gt;Node6 -->
<g id="edge5" class="edge">
<title>Node5&#45;&gt;Node6</title>
<path fill="none" stroke="midnightblue" d="M553.76,-194.54C488.98,-184.41 385.74,-168.21 296.5,-154 293.84,-153.58 291.14,-153.15 288.41,-152.71"/>
<polygon fill="midnightblue" stroke="midnightblue" points="553.4,-198.03 563.82,-196.12 554.48,-191.11 553.4,-198.03"/>
</g>
<!-- Node7 -->
<g id="node7" class="node">
<title>Node7</title>
<g id="a_node7"><a xlink:href="../../d5/ded/varc_8cpp.html" target="_top" xlink:title=" ">
<polygon fill="white" stroke="black" points="306,-123.5 306,-153.5 413,-153.5 413,-123.5 306,-123.5"/>
<text text-anchor="start" x="314" y="-141.5" font-family="Helvetica,sans-Serif" font-size="10.00">src/libs/vgeometry</text>
<text text-anchor="middle" x="359.5" y="-130.5" font-family="Helvetica,sans-Serif" font-size="10.00">/varc.cpp</text>
</a>
</g>
</g>
<!-- Node5&#45;&gt;Node7 -->
<g id="edge6" class="edge">
<title>Node5&#45;&gt;Node7</title>
<path fill="none" stroke="midnightblue" d="M553.89,-188.47C510.67,-177.59 454.15,-163.35 413.2,-153.03"/>
<polygon fill="midnightblue" stroke="midnightblue" points="553.18,-191.9 563.73,-190.95 554.89,-185.12 553.18,-191.9"/>
</g>
<!-- Node8 -->
<g id="node8" class="node">
<title>Node8</title>
<g id="a_node8"><a xlink:href="../../d6/dfb/vellipticalarc_8cpp.html" target="_top" xlink:title=" ">
<polygon fill="white" stroke="black" points="431,-123.5 431,-153.5 538,-153.5 538,-123.5 431,-123.5"/>
<text text-anchor="start" x="439" y="-141.5" font-family="Helvetica,sans-Serif" font-size="10.00">src/libs/vgeometry</text>
<text text-anchor="middle" x="484.5" y="-130.5" font-family="Helvetica,sans-Serif" font-size="10.00">/vellipticalarc.cpp</text>
</a>
</g>
</g>
<!-- Node5&#45;&gt;Node8 -->
<g id="edge7" class="edge">
<title>Node5&#45;&gt;Node8</title>
<path fill="none" stroke="midnightblue" d="M579.63,-185.99C558.55,-175.69 532.72,-163.07 513.3,-153.58"/>
<polygon fill="midnightblue" stroke="midnightblue" points="578.12,-189.15 588.64,-190.4 581.19,-182.86 578.12,-189.15"/>
</g>
<!-- Node9 -->
<g id="node9" class="node">
<title>Node9</title>
<g id="a_node9"><a xlink:href="../../de/df0/vcubicbezierpath_8cpp.html" target="_top" xlink:title=" ">
<polygon fill="white" stroke="black" points="556,-123.5 556,-153.5 679,-153.5 679,-123.5 556,-123.5"/>
<text text-anchor="start" x="564" y="-141.5" font-family="Helvetica,sans-Serif" font-size="10.00">src/libs/vgeometry</text>
<text text-anchor="middle" x="617.5" y="-130.5" font-family="Helvetica,sans-Serif" font-size="10.00">/vcubicbezierpath.cpp</text>
</a>
</g>
</g>
<!-- Node5&#45;&gt;Node9 -->
<g id="edge8" class="edge">
<title>Node5&#45;&gt;Node9</title>
<path fill="none" stroke="midnightblue" d="M617.5,-180.11C617.5,-171.15 617.5,-161.32 617.5,-153.58"/>
<polygon fill="midnightblue" stroke="midnightblue" points="614,-180.4 617.5,-190.4 621,-180.4 614,-180.4"/>
</g>
<!-- Node10 -->
<g id="node10" class="node">
<title>Node10</title>
<g id="a_node10"><a xlink:href="../../d5/dd2/vspline_8cpp.html" target="_top" xlink:title=" ">
<polygon fill="white" stroke="black" points="697,-123.5 697,-153.5 804,-153.5 804,-123.5 697,-123.5"/>
<text text-anchor="start" x="705" y="-141.5" font-family="Helvetica,sans-Serif" font-size="10.00">src/libs/vgeometry</text>
<text text-anchor="middle" x="750.5" y="-130.5" font-family="Helvetica,sans-Serif" font-size="10.00">/vspline.cpp</text>
</a>
</g>
</g>
<!-- Node5&#45;&gt;Node10 -->
<g id="edge9" class="edge">
<title>Node5&#45;&gt;Node10</title>
<path fill="none" stroke="midnightblue" d="M655.37,-185.99C676.45,-175.69 702.28,-163.07 721.7,-153.58"/>
<polygon fill="midnightblue" stroke="midnightblue" points="653.81,-182.86 646.36,-190.4 656.88,-189.15 653.81,-182.86"/>
</g>
<!-- Node11 -->
<g id="node11" class="node">
<title>Node11</title>
<g id="a_node11"><a xlink:href="../../d0/d39/vsplinepath_8h.html" target="_top" xlink:title=" ">
<polygon fill="white" stroke="black" points="822,-123.5 822,-153.5 929,-153.5 929,-123.5 822,-123.5"/>
<text text-anchor="start" x="830" y="-141.5" font-family="Helvetica,sans-Serif" font-size="10.00">src/libs/vgeometry</text>
<text text-anchor="middle" x="875.5" y="-130.5" font-family="Helvetica,sans-Serif" font-size="10.00">/vsplinepath.h</text>
</a>
</g>
</g>
<!-- Node5&#45;&gt;Node11 -->
<g id="edge10" class="edge">
<title>Node5&#45;&gt;Node11</title>
<path fill="none" stroke="midnightblue" d="M681.11,-188.47C724.33,-177.59 780.85,-163.35 821.8,-153.03"/>
<polygon fill="midnightblue" stroke="midnightblue" points="680.11,-185.12 671.27,-190.95 681.82,-191.9 680.11,-185.12"/>
</g>
<!-- Node13 -->
<g id="node13" class="node">
<title>Node13</title>
<g id="a_node13"><a xlink:href="../../d1/d3a/abstracttest_8cpp.html" target="_top" xlink:title=" ">
<polygon fill="white" stroke="black" points="937,-62 937,-81 1098,-81 1098,-62 937,-62"/>
<text text-anchor="middle" x="1017.5" y="-69" font-family="Helvetica,sans-Serif" font-size="10.00">src/libs/vtest/abstracttest.cpp</text>
</a>
</g>
</g>
<!-- Node5&#45;&gt;Node13 -->
<g id="edge16" class="edge">
<title>Node5&#45;&gt;Node13</title>
<path fill="none" stroke="midnightblue" d="M681.05,-199.3C761.48,-191.9 894.8,-176.67 938.5,-154 955.99,-144.93 994.37,-100.29 1010.32,-81.19"/>
<polygon fill="midnightblue" stroke="midnightblue" points="680.68,-195.82 671.04,-200.21 681.31,-202.79 680.68,-195.82"/>
</g>
<!-- Node16 -->
<g id="node16" class="node">
<title>Node16</title>
<g id="a_node16"><a xlink:href="../../d6/d46/vcontainer_8cpp.html" target="_top" xlink:title=" ">
<polygon fill="white" stroke="black" points="986,-123.5 986,-153.5 1093,-153.5 1093,-123.5 986,-123.5"/>
<text text-anchor="start" x="994" y="-141.5" font-family="Helvetica,sans-Serif" font-size="10.00">src/libs/vpatterndb</text>
<text text-anchor="middle" x="1039.5" y="-130.5" font-family="Helvetica,sans-Serif" font-size="10.00">/vcontainer.cpp</text>
</a>
</g>
</g>
<!-- Node5&#45;&gt;Node16 -->
<g id="edge15" class="edge">
<title>Node5&#45;&gt;Node16</title>
<path fill="none" stroke="midnightblue" d="M681.19,-196.75C752.22,-187.79 870.42,-171.96 971.5,-154 976.14,-153.18 980.94,-152.27 985.74,-151.32"/>
<polygon fill="midnightblue" stroke="midnightblue" points="680.54,-193.3 671.06,-198.02 681.42,-200.25 680.54,-193.3"/>
</g>
<!-- Node12 -->
<g id="node12" class="node">
<title>Node12</title>
<g id="a_node12"><a xlink:href="../../db/d6a/vsplinepath_8cpp.html" target="_top" xlink:title=" ">
<polygon fill="white" stroke="black" points="589,-56.5 589,-86.5 696,-86.5 696,-56.5 589,-56.5"/>
<text text-anchor="start" x="597" y="-74.5" font-family="Helvetica,sans-Serif" font-size="10.00">src/libs/vgeometry</text>
<text text-anchor="middle" x="642.5" y="-63.5" font-family="Helvetica,sans-Serif" font-size="10.00">/vsplinepath.cpp</text>
</a>
</g>
</g>
<!-- Node11&#45;&gt;Node12 -->
<g id="edge11" class="edge">
<title>Node11&#45;&gt;Node12</title>
<path fill="none" stroke="midnightblue" d="M815.33,-120.71C777.42,-110.14 729.01,-96.63 693.08,-86.61"/>
<polygon fill="midnightblue" stroke="midnightblue" points="814.66,-124.16 825.23,-123.48 816.54,-117.42 814.66,-124.16"/>
</g>
<!-- Node11&#45;&gt;Node13 -->
<g id="edge12" class="edge">
<title>Node11&#45;&gt;Node13</title>
<path fill="none" stroke="midnightblue" d="M915.63,-119.13C942.96,-106.62 977.87,-90.64 998.92,-81.01"/>
<polygon fill="midnightblue" stroke="midnightblue" points="913.95,-116.05 906.31,-123.4 916.86,-122.42 913.95,-116.05"/>
</g>
<!-- Node14 -->
<g id="node14" class="node">
<title>Node14</title>
<g id="a_node14"><a xlink:href="../../d8/d13/vcontrolpointspline_8h.html" target="_top" xlink:title=" ">
<polygon fill="white" stroke="black" points="714.5,-62 714.5,-81 918.5,-81 918.5,-62 714.5,-62"/>
<text text-anchor="middle" x="816.5" y="-69" font-family="Helvetica,sans-Serif" font-size="10.00">src/libs/vwidgets/vcontrolpointspline.h</text>
</a>
</g>
</g>
<!-- Node11&#45;&gt;Node14 -->
<g id="edge13" class="edge">
<title>Node11&#45;&gt;Node14</title>
<path fill="none" stroke="midnightblue" d="M855.67,-115.66C844.97,-103.86 832.35,-89.97 824.39,-81.19"/>
<polygon fill="midnightblue" stroke="midnightblue" points="853.39,-118.34 862.7,-123.4 858.57,-113.64 853.39,-118.34"/>
</g>
<!-- Node15 -->
<g id="node15" class="node">
<title>Node15</title>
<g id="a_node15"><a xlink:href="../../de/d45/vcontrolpointspline_8cpp.html" target="_top" xlink:title=" ">
<polygon fill="white" stroke="black" points="709,-0.5 709,-19.5 924,-19.5 924,-0.5 709,-0.5"/>
<text text-anchor="middle" x="816.5" y="-7.5" font-family="Helvetica,sans-Serif" font-size="10.00">src/libs/vwidgets/vcontrolpointspline.cpp</text>
</a>
</g>
</g>
<!-- Node14&#45;&gt;Node15 -->
<g id="edge14" class="edge">
<title>Node14&#45;&gt;Node15</title>
<path fill="none" stroke="midnightblue" d="M816.5,-51.82C816.5,-41 816.5,-27.9 816.5,-19.51"/>
<polygon fill="midnightblue" stroke="midnightblue" points="813,-51.98 816.5,-61.98 820,-51.98 813,-51.98"/>
</g>
</g>
</svg>
