<?xml version="1.0" encoding="UTF-8" standalone="no"?>
<!DOCTYPE svg PUBLIC "-//W3C//DTD SVG 1.1//EN"
 "http://www.w3.org/Graphics/SVG/1.1/DTD/svg11.dtd">
<!-- Generated by graphviz version 2.43.0 (0)
 -->
<!-- Title: VisToolSplinePath Pages: 1 -->
<svg width="1104pt" height="2101pt"
 viewBox="0.00 0.00 1104.00 2101.00" xmlns="http://www.w3.org/2000/svg" xmlns:xlink="http://www.w3.org/1999/xlink">
<g id="graph0" class="graph" transform="scale(1 1) rotate(0) translate(4 2097)">
<title>VisToolSplinePath</title>
<polygon fill="white" stroke="transparent" points="-4,4 -4,-2097 1100,-2097 1100,4 -4,4"/>
<!-- Node1 -->
<g id="node1" class="node">
<title>Node1</title>
<g id="a_node1"><a xlink:title=" ">
<polygon fill="#bfbfbf" stroke="black" points="604.5,-0.5 604.5,-178.5 735.5,-178.5 735.5,-0.5 604.5,-0.5"/>
<text text-anchor="middle" x="670" y="-166.5" font-family="Helvetica,sans-Serif" font-size="10.00">VisToolSplinePath</text>
<polyline fill="none" stroke="black" points="604.5,-159.5 735.5,-159.5 "/>
<text text-anchor="start" x="612.5" y="-147.5" font-family="Helvetica,sans-Serif" font-size="10.00"># isLeftMousePressed</text>
<text text-anchor="start" x="612.5" y="-136.5" font-family="Helvetica,sans-Serif" font-size="10.00"># pointIsSelected</text>
<text text-anchor="start" x="612.5" y="-125.5" font-family="Helvetica,sans-Serif" font-size="10.00"># ctrlPoint</text>
<polyline fill="none" stroke="black" points="604.5,-118.5 735.5,-118.5 "/>
<text text-anchor="start" x="612.5" y="-106.5" font-family="Helvetica,sans-Serif" font-size="10.00">+ VisToolSplinePath()</text>
<text text-anchor="start" x="612.5" y="-95.5" font-family="Helvetica,sans-Serif" font-size="10.00">+ ~VisToolSplinePath()</text>
<text text-anchor="start" x="612.5" y="-84.5" font-family="Helvetica,sans-Serif" font-size="10.00">+ RefreshGeometry()</text>
<text text-anchor="start" x="612.5" y="-73.5" font-family="Helvetica,sans-Serif" font-size="10.00">+ setPath()</text>
<text text-anchor="start" x="612.5" y="-62.5" font-family="Helvetica,sans-Serif" font-size="10.00">+ getPath()</text>
<text text-anchor="start" x="612.5" y="-51.5" font-family="Helvetica,sans-Serif" font-size="10.00">+ type()</text>
<text text-anchor="start" x="612.5" y="-40.5" font-family="Helvetica,sans-Serif" font-size="10.00">+ MouseLeftPressed()</text>
<text text-anchor="start" x="612.5" y="-29.5" font-family="Helvetica,sans-Serif" font-size="10.00">+ MouseLeftReleased()</text>
<text text-anchor="start" x="612.5" y="-18.5" font-family="Helvetica,sans-Serif" font-size="10.00"># getPoint()</text>
<text text-anchor="start" x="612.5" y="-7.5" font-family="Helvetica,sans-Serif" font-size="10.00"># Creating()</text>
</a>
</g>
</g>
<!-- Node2 -->
<g id="node2" class="node">
<title>Node2</title>
<g id="a_node2"><a xlink:href="../../db/d76/classVisPath.html" target="_top" xlink:title=" ">
<polygon fill="white" stroke="black" points="363.5,-254 363.5,-366 460.5,-366 460.5,-254 363.5,-254"/>
<text text-anchor="middle" x="412" y="-354" font-family="Helvetica,sans-Serif" font-size="10.00">VisPath</text>
<polyline fill="none" stroke="black" points="363.5,-347 460.5,-347 "/>
<text text-anchor="middle" x="412" y="-335" font-family="Helvetica,sans-Serif" font-size="10.00"> </text>
<polyline fill="none" stroke="black" points="363.5,-328 460.5,-328 "/>
<text text-anchor="start" x="371.5" y="-316" font-family="Helvetica,sans-Serif" font-size="10.00">+ VisPath()</text>
<text text-anchor="start" x="371.5" y="-305" font-family="Helvetica,sans-Serif" font-size="10.00">+ ~VisPath()</text>
<text text-anchor="start" x="371.5" y="-294" font-family="Helvetica,sans-Serif" font-size="10.00">+ type()</text>
<text text-anchor="start" x="371.5" y="-283" font-family="Helvetica,sans-Serif" font-size="10.00"># initPen()</text>
<text text-anchor="start" x="371.5" y="-272" font-family="Helvetica,sans-Serif" font-size="10.00"># AddOnScene()</text>
<text text-anchor="start" x="371.5" y="-261" font-family="Helvetica,sans-Serif" font-size="10.00"># GetPoint()</text>
</a>
</g>
</g>
<!-- Node2&#45;&gt;Node1 -->
<g id="edge1" class="edge">
<title>Node2&#45;&gt;Node1</title>
<path fill="none" stroke="midnightblue" d="M445.08,-245.01C455.71,-228.13 468.53,-210.8 483,-197 518.15,-163.48 565.82,-136.54 604.23,-118.14"/>
<polygon fill="none" stroke="midnightblue" points="441.95,-243.41 439.72,-253.77 447.92,-247.06 441.95,-243.41"/>
</g>
<!-- Node3 -->
<g id="node3" class="node">
<title>Node3</title>
<g id="a_node3"><a xlink:href="../../d7/d24/classVisualization.html" target="_top" xlink:title=" ">
<polygon fill="white" stroke="black" points="103,-431.5 103,-884.5 225,-884.5 225,-431.5 103,-431.5"/>
<text text-anchor="middle" x="164" y="-872.5" font-family="Helvetica,sans-Serif" font-size="10.00">Visualization</text>
<polyline fill="none" stroke="black" points="103,-865.5 225,-865.5 "/>
<text text-anchor="start" x="111" y="-853.5" font-family="Helvetica,sans-Serif" font-size="10.00"># scenePos</text>
<text text-anchor="start" x="111" y="-842.5" font-family="Helvetica,sans-Serif" font-size="10.00"># mainColor</text>
<text text-anchor="start" x="111" y="-831.5" font-family="Helvetica,sans-Serif" font-size="10.00"># supportColor</text>
<text text-anchor="start" x="111" y="-820.5" font-family="Helvetica,sans-Serif" font-size="10.00"># lineStyle</text>
<text text-anchor="start" x="111" y="-809.5" font-family="Helvetica,sans-Serif" font-size="10.00"># lineWeight</text>
<text text-anchor="start" x="111" y="-798.5" font-family="Helvetica,sans-Serif" font-size="10.00"># object1Id</text>
<text text-anchor="start" x="111" y="-787.5" font-family="Helvetica,sans-Serif" font-size="10.00"># toolTip</text>
<text text-anchor="start" x="111" y="-776.5" font-family="Helvetica,sans-Serif" font-size="10.00"># mode</text>
<polyline fill="none" stroke="black" points="103,-769.5 225,-769.5 "/>
<text text-anchor="start" x="111" y="-757.5" font-family="Helvetica,sans-Serif" font-size="10.00">+ Visualization()</text>
<text text-anchor="start" x="111" y="-746.5" font-family="Helvetica,sans-Serif" font-size="10.00">+ ~Visualization()</text>
<text text-anchor="start" x="111" y="-735.5" font-family="Helvetica,sans-Serif" font-size="10.00">+ RefreshGeometry()</text>
<text text-anchor="start" x="111" y="-724.5" font-family="Helvetica,sans-Serif" font-size="10.00">+ setObject1Id()</text>
<text text-anchor="start" x="111" y="-713.5" font-family="Helvetica,sans-Serif" font-size="10.00">+ setLineStyle()</text>
<text text-anchor="start" x="111" y="-702.5" font-family="Helvetica,sans-Serif" font-size="10.00">+ setLineWeight()</text>
<text text-anchor="start" x="111" y="-691.5" font-family="Helvetica,sans-Serif" font-size="10.00">+ setScenePos()</text>
<text text-anchor="start" x="111" y="-680.5" font-family="Helvetica,sans-Serif" font-size="10.00">+ VisualMode()</text>
<text text-anchor="start" x="111" y="-669.5" font-family="Helvetica,sans-Serif" font-size="10.00">+ setMainColor()</text>
<text text-anchor="start" x="111" y="-658.5" font-family="Helvetica,sans-Serif" font-size="10.00">+ getData()</text>
<text text-anchor="start" x="111" y="-647.5" font-family="Helvetica,sans-Serif" font-size="10.00">+ setData()</text>
<text text-anchor="start" x="111" y="-636.5" font-family="Helvetica,sans-Serif" font-size="10.00">+ GetMode()</text>
<text text-anchor="start" x="111" y="-625.5" font-family="Helvetica,sans-Serif" font-size="10.00">+ SetMode()</text>
<text text-anchor="start" x="111" y="-614.5" font-family="Helvetica,sans-Serif" font-size="10.00">+ CurrentToolTip()</text>
<text text-anchor="start" x="111" y="-603.5" font-family="Helvetica,sans-Serif" font-size="10.00">+ FindLength()</text>
<text text-anchor="start" x="111" y="-592.5" font-family="Helvetica,sans-Serif" font-size="10.00">+ FindVal()</text>
<text text-anchor="start" x="111" y="-581.5" font-family="Helvetica,sans-Serif" font-size="10.00">+ mousePos()</text>
<text text-anchor="start" x="111" y="-570.5" font-family="Helvetica,sans-Serif" font-size="10.00"># initPen()</text>
<text text-anchor="start" x="111" y="-559.5" font-family="Helvetica,sans-Serif" font-size="10.00"># AddOnScene()</text>
<text text-anchor="start" x="111" y="-548.5" font-family="Helvetica,sans-Serif" font-size="10.00"># InitPoint()</text>
<text text-anchor="start" x="111" y="-537.5" font-family="Helvetica,sans-Serif" font-size="10.00"># DrawPoint()</text>
<text text-anchor="start" x="111" y="-526.5" font-family="Helvetica,sans-Serif" font-size="10.00"># DrawLine()</text>
<text text-anchor="start" x="111" y="-515.5" font-family="Helvetica,sans-Serif" font-size="10.00"># DrawPath()</text>
<text text-anchor="start" x="111" y="-504.5" font-family="Helvetica,sans-Serif" font-size="10.00"># DrawPath()</text>
<text text-anchor="start" x="111" y="-493.5" font-family="Helvetica,sans-Serif" font-size="10.00"># drawArrowedLine()</text>
<text text-anchor="start" x="111" y="-482.5" font-family="Helvetica,sans-Serif" font-size="10.00"># drawArrow()</text>
<text text-anchor="start" x="111" y="-471.5" font-family="Helvetica,sans-Serif" font-size="10.00"># addItem()</text>
<text text-anchor="start" x="111" y="-460.5" font-family="Helvetica,sans-Serif" font-size="10.00"># InitItem()</text>
<text text-anchor="start" x="111" y="-449.5" font-family="Helvetica,sans-Serif" font-size="10.00"># GetPointItem()</text>
<text text-anchor="start" x="111" y="-438.5" font-family="Helvetica,sans-Serif" font-size="10.00">&#45; initPointItem()</text>
</a>
</g>
</g>
<!-- Node3&#45;&gt;Node2 -->
<g id="edge2" class="edge">
<title>Node3&#45;&gt;Node2</title>
<path fill="none" stroke="midnightblue" d="M231.31,-563.09C276.53,-500.01 334.55,-419.05 372.48,-366.14"/>
<polygon fill="none" stroke="midnightblue" points="228.28,-561.31 225.3,-571.47 233.97,-565.38 228.28,-561.31"/>
</g>
<!-- Node4 -->
<g id="node4" class="node">
<title>Node4</title>
<g id="a_node4"><a xlink:title=" ">
<polygon fill="white" stroke="#bfbfbf" points="0,-1119.5 0,-1176.5 56,-1176.5 56,-1119.5 0,-1119.5"/>
<text text-anchor="middle" x="28" y="-1164.5" font-family="Helvetica,sans-Serif" font-size="10.00">QObject</text>
<polyline fill="none" stroke="#bfbfbf" points="0,-1157.5 56,-1157.5 "/>
<text text-anchor="middle" x="28" y="-1145.5" font-family="Helvetica,sans-Serif" font-size="10.00"> </text>
<polyline fill="none" stroke="#bfbfbf" points="0,-1138.5 56,-1138.5 "/>
<text text-anchor="middle" x="28" y="-1126.5" font-family="Helvetica,sans-Serif" font-size="10.00"> </text>
</a>
</g>
</g>
<!-- Node4&#45;&gt;Node3 -->
<g id="edge3" class="edge">
<title>Node4&#45;&gt;Node3</title>
<path fill="none" stroke="midnightblue" d="M32.45,-1109.09C38.02,-1065.79 48.82,-993.05 65,-932 75.4,-892.77 89.05,-851.22 102.87,-812.68"/>
<polygon fill="none" stroke="midnightblue" points="28.96,-1108.81 31.18,-1119.17 35.91,-1109.69 28.96,-1108.81"/>
</g>
<!-- Node5 -->
<g id="node5" class="node">
<title>Node5</title>
<g id="a_node5"><a xlink:href="../../d2/d83/classVContainer.html" target="_top" xlink:title="The VContainer class container of all variables.">
<polygon fill="white" stroke="black" points="74.5,-932.5 74.5,-1363.5 253.5,-1363.5 253.5,-932.5 74.5,-932.5"/>
<text text-anchor="middle" x="164" y="-1351.5" font-family="Helvetica,sans-Serif" font-size="10.00">VContainer</text>
<polyline fill="none" stroke="black" points="74.5,-1344.5 253.5,-1344.5 "/>
<text text-anchor="start" x="82.5" y="-1332.5" font-family="Helvetica,sans-Serif" font-size="10.00">&#45; d</text>
<text text-anchor="start" x="82.5" y="-1321.5" font-family="Helvetica,sans-Serif" font-size="10.00">&#45; _id</text>
<text text-anchor="start" x="82.5" y="-1310.5" font-family="Helvetica,sans-Serif" font-size="10.00">&#45; _size</text>
<text text-anchor="start" x="82.5" y="-1299.5" font-family="Helvetica,sans-Serif" font-size="10.00">&#45; _height</text>
<text text-anchor="start" x="82.5" y="-1288.5" font-family="Helvetica,sans-Serif" font-size="10.00">&#45; uniqueNames</text>
<polyline fill="none" stroke="black" points="74.5,-1281.5 253.5,-1281.5 "/>
<text text-anchor="start" x="82.5" y="-1269.5" font-family="Helvetica,sans-Serif" font-size="10.00">+ VContainer()</text>
<text text-anchor="start" x="82.5" y="-1258.5" font-family="Helvetica,sans-Serif" font-size="10.00">+ VContainer()</text>
<text text-anchor="start" x="82.5" y="-1247.5" font-family="Helvetica,sans-Serif" font-size="10.00">+ ~VContainer()</text>
<text text-anchor="start" x="82.5" y="-1236.5" font-family="Helvetica,sans-Serif" font-size="10.00">+ operator=()</text>
<text text-anchor="start" x="82.5" y="-1225.5" font-family="Helvetica,sans-Serif" font-size="10.00">+ Swap()</text>
<text text-anchor="start" x="82.5" y="-1214.5" font-family="Helvetica,sans-Serif" font-size="10.00">+ GeometricObject()</text>
<text text-anchor="start" x="82.5" y="-1203.5" font-family="Helvetica,sans-Serif" font-size="10.00">+ GetGObject()</text>
<text text-anchor="start" x="82.5" y="-1192.5" font-family="Helvetica,sans-Serif" font-size="10.00">+ GetPiece()</text>
<text text-anchor="start" x="82.5" y="-1181.5" font-family="Helvetica,sans-Serif" font-size="10.00">+ GetPiecePath()</text>
<text text-anchor="start" x="82.5" y="-1170.5" font-family="Helvetica,sans-Serif" font-size="10.00">+ GetVariable()</text>
<text text-anchor="start" x="82.5" y="-1159.5" font-family="Helvetica,sans-Serif" font-size="10.00">and 34 more...</text>
<text text-anchor="start" x="82.5" y="-1148.5" font-family="Helvetica,sans-Serif" font-size="10.00">+ GetFakeGObject()</text>
<text text-anchor="start" x="82.5" y="-1137.5" font-family="Helvetica,sans-Serif" font-size="10.00">+ getId()</text>
<text text-anchor="start" x="82.5" y="-1126.5" font-family="Helvetica,sans-Serif" font-size="10.00">+ getNextId()</text>
<text text-anchor="start" x="82.5" y="-1115.5" font-family="Helvetica,sans-Serif" font-size="10.00">+ UpdateId()</text>
<text text-anchor="start" x="82.5" y="-1104.5" font-family="Helvetica,sans-Serif" font-size="10.00">+ ClearUniqueNames()</text>
<text text-anchor="start" x="82.5" y="-1093.5" font-family="Helvetica,sans-Serif" font-size="10.00">+ ClearUniqueIncrementNames()</text>
<text text-anchor="start" x="82.5" y="-1082.5" font-family="Helvetica,sans-Serif" font-size="10.00">+ setSize()</text>
<text text-anchor="start" x="82.5" y="-1071.5" font-family="Helvetica,sans-Serif" font-size="10.00">+ setHeight()</text>
<text text-anchor="start" x="82.5" y="-1060.5" font-family="Helvetica,sans-Serif" font-size="10.00">+ size()</text>
<text text-anchor="start" x="82.5" y="-1049.5" font-family="Helvetica,sans-Serif" font-size="10.00">+ rsize()</text>
<text text-anchor="start" x="82.5" y="-1038.5" font-family="Helvetica,sans-Serif" font-size="10.00">+ height()</text>
<text text-anchor="start" x="82.5" y="-1027.5" font-family="Helvetica,sans-Serif" font-size="10.00">+ rheight()</text>
<text text-anchor="start" x="82.5" y="-1016.5" font-family="Helvetica,sans-Serif" font-size="10.00">+ IsUnique()</text>
<text text-anchor="start" x="82.5" y="-1005.5" font-family="Helvetica,sans-Serif" font-size="10.00">+ AllUniqueNames()</text>
<text text-anchor="start" x="82.5" y="-994.5" font-family="Helvetica,sans-Serif" font-size="10.00">&#45; AddCurve()</text>
<text text-anchor="start" x="82.5" y="-983.5" font-family="Helvetica,sans-Serif" font-size="10.00">&#45; qHash()</text>
<text text-anchor="start" x="82.5" y="-972.5" font-family="Helvetica,sans-Serif" font-size="10.00">&#45; GetObject()</text>
<text text-anchor="start" x="82.5" y="-961.5" font-family="Helvetica,sans-Serif" font-size="10.00">&#45; UpdateObject()</text>
<text text-anchor="start" x="82.5" y="-950.5" font-family="Helvetica,sans-Serif" font-size="10.00">&#45; DataVar()</text>
<text text-anchor="start" x="82.5" y="-939.5" font-family="Helvetica,sans-Serif" font-size="10.00">&#45; AddObject()</text>
</a>
</g>
</g>
<!-- Node5&#45;&gt;Node3 -->
<g id="edge4" class="edge">
<title>Node5&#45;&gt;Node3</title>
<path fill="none" stroke="#404040" d="M164,-932.25C164,-920.57 164,-908.81 164,-897.07"/>
<polygon fill="none" stroke="#404040" points="164,-896.84 160,-890.84 164,-884.84 168,-890.84 164,-896.84"/>
<text text-anchor="middle" x="181" y="-906" font-family="Helvetica,sans-Serif" font-size="10.00"> #data</text>
</g>
<!-- Node6 -->
<g id="node6" class="node">
<title>Node6</title>
<g id="a_node6"><a xlink:href="../../d3/d85/classVCurvePathItem.html" target="_top" xlink:title=" ">
<polygon fill="white" stroke="black" points="405.5,-591 405.5,-725 534.5,-725 534.5,-591 405.5,-591"/>
<text text-anchor="middle" x="470" y="-713" font-family="Helvetica,sans-Serif" font-size="10.00">VCurvePathItem</text>
<polyline fill="none" stroke="black" points="405.5,-706 534.5,-706 "/>
<text text-anchor="middle" x="470" y="-694" font-family="Helvetica,sans-Serif" font-size="10.00"> </text>
<polyline fill="none" stroke="black" points="405.5,-687 534.5,-687 "/>
<text text-anchor="start" x="413.5" y="-675" font-family="Helvetica,sans-Serif" font-size="10.00">+ VCurvePathItem()</text>
<text text-anchor="start" x="413.5" y="-664" font-family="Helvetica,sans-Serif" font-size="10.00">+ ~VCurvePathItem()</text>
<text text-anchor="start" x="413.5" y="-653" font-family="Helvetica,sans-Serif" font-size="10.00">+ shape()</text>
<text text-anchor="start" x="413.5" y="-642" font-family="Helvetica,sans-Serif" font-size="10.00">+ paint()</text>
<text text-anchor="start" x="413.5" y="-631" font-family="Helvetica,sans-Serif" font-size="10.00">+ type()</text>
<text text-anchor="start" x="413.5" y="-620" font-family="Helvetica,sans-Serif" font-size="10.00">+ SetDirectionArrows()</text>
<text text-anchor="start" x="413.5" y="-609" font-family="Helvetica,sans-Serif" font-size="10.00">+ SetPoints()</text>
<text text-anchor="start" x="413.5" y="-598" font-family="Helvetica,sans-Serif" font-size="10.00"># ScalePenWidth()</text>
</a>
</g>
</g>
<!-- Node6&#45;&gt;Node1 -->
<g id="edge9" class="edge">
<title>Node6&#45;&gt;Node1</title>
<path fill="none" stroke="#404040" d="M469.34,-590.98C469.32,-486.29 473.73,-287.72 506,-226 525.85,-188.03 561.39,-156.65 594.31,-133.69"/>
<polygon fill="none" stroke="#404040" points="594.5,-133.56 597.22,-126.89 604.43,-126.83 601.71,-133.51 594.5,-133.56"/>
<text text-anchor="middle" x="558" y="-307.5" font-family="Helvetica,sans-Serif" font-size="10.00"> #newCurveSegment</text>
</g>
<!-- Node6&#45;&gt;Node2 -->
<g id="edge5" class="edge">
<title>Node6&#45;&gt;Node2</title>
<path fill="none" stroke="midnightblue" d="M457.18,-580.53C446.31,-515.67 430.97,-424.19 421.26,-366.25"/>
<polygon fill="none" stroke="midnightblue" points="453.78,-581.41 458.89,-590.7 460.68,-580.26 453.78,-581.41"/>
</g>
<!-- Node7 -->
<g id="node7" class="node">
<title>Node7</title>
<g id="a_node7"><a xlink:title=" ">
<polygon fill="white" stroke="#bfbfbf" points="272,-1119.5 272,-1176.5 382,-1176.5 382,-1119.5 272,-1119.5"/>
<text text-anchor="middle" x="327" y="-1164.5" font-family="Helvetica,sans-Serif" font-size="10.00">QGraphicsPathItem</text>
<polyline fill="none" stroke="#bfbfbf" points="272,-1157.5 382,-1157.5 "/>
<text text-anchor="middle" x="327" y="-1145.5" font-family="Helvetica,sans-Serif" font-size="10.00"> </text>
<polyline fill="none" stroke="#bfbfbf" points="272,-1138.5 382,-1138.5 "/>
<text text-anchor="middle" x="327" y="-1126.5" font-family="Helvetica,sans-Serif" font-size="10.00"> </text>
</a>
</g>
</g>
<!-- Node7&#45;&gt;Node6 -->
<g id="edge6" class="edge">
<title>Node7&#45;&gt;Node6</title>
<path fill="none" stroke="midnightblue" d="M337.93,-1109.68C362.06,-1027.37 420.1,-829.3 450.57,-725.3"/>
<polygon fill="none" stroke="midnightblue" points="334.55,-1108.78 335.1,-1119.36 341.27,-1110.75 334.55,-1108.78"/>
</g>
<!-- Node8 -->
<g id="node8" class="node">
<title>Node8</title>
<g id="a_node8"><a xlink:href="../../d5/dc2/classQVector.html" target="_top" xlink:title=" ">
<polygon fill="white" stroke="black" points="400,-1114 400,-1182 540,-1182 540,-1114 400,-1114"/>
<text text-anchor="start" x="408" y="-1170" font-family="Helvetica,sans-Serif" font-size="10.00">QVector&lt; QPair&lt; QLineF,</text>
<text text-anchor="middle" x="470" y="-1159" font-family="Helvetica,sans-Serif" font-size="10.00"> QLineF &gt; &gt;</text>
<polyline fill="none" stroke="black" points="400,-1152 540,-1152 "/>
<text text-anchor="middle" x="470" y="-1140" font-family="Helvetica,sans-Serif" font-size="10.00"> </text>
<polyline fill="none" stroke="black" points="400,-1133 540,-1133 "/>
<text text-anchor="middle" x="470" y="-1121" font-family="Helvetica,sans-Serif" font-size="10.00"> </text>
</a>
</g>
</g>
<!-- Node8&#45;&gt;Node6 -->
<g id="edge7" class="edge">
<title>Node8&#45;&gt;Node6</title>
<path fill="none" stroke="#404040" d="M470,-1113.84C470,-1037.21 470,-846.09 470,-737.55"/>
<polygon fill="none" stroke="#404040" points="470,-737.38 466,-731.38 470,-725.38 474,-731.38 470,-737.38"/>
<text text-anchor="middle" x="519.5" y="-906" font-family="Helvetica,sans-Serif" font-size="10.00"> &#45;m_directionArrows</text>
</g>
<!-- Node9 -->
<g id="node9" class="node">
<title>Node9</title>
<g id="a_node9"><a xlink:href="../../d5/dc2/classQVector.html" target="_top" xlink:title=" ">
<polygon fill="white" stroke="black" points="558,-1119.5 558,-1176.5 674,-1176.5 674,-1119.5 558,-1119.5"/>
<text text-anchor="middle" x="616" y="-1164.5" font-family="Helvetica,sans-Serif" font-size="10.00">QVector&lt; QPointF &gt;</text>
<polyline fill="none" stroke="black" points="558,-1157.5 674,-1157.5 "/>
<text text-anchor="middle" x="616" y="-1145.5" font-family="Helvetica,sans-Serif" font-size="10.00"> </text>
<polyline fill="none" stroke="black" points="558,-1138.5 674,-1138.5 "/>
<text text-anchor="middle" x="616" y="-1126.5" font-family="Helvetica,sans-Serif" font-size="10.00"> </text>
</a>
</g>
</g>
<!-- Node9&#45;&gt;Node6 -->
<g id="edge8" class="edge">
<title>Node9&#45;&gt;Node6</title>
<path fill="none" stroke="#404040" d="M613.19,-1119.46C608.08,-1073.77 595.64,-979.73 573,-903 556.04,-845.54 529.66,-783.35 507.85,-736.15"/>
<polygon fill="none" stroke="#404040" points="507.76,-735.97 501.6,-732.22 502.69,-725.09 508.85,-728.84 507.76,-735.97"/>
<text text-anchor="middle" x="601" y="-906" font-family="Helvetica,sans-Serif" font-size="10.00"> &#45;m_points</text>
</g>
<!-- Node10 -->
<g id="node10" class="node">
<title>Node10</title>
<g id="a_node10"><a xlink:href="../../d9/da4/classVSplinePath.html" target="_top" xlink:title="The VSplinePath class keep information about splinePath.">
<polygon fill="white" stroke="black" points="619.5,-226.5 619.5,-393.5 720.5,-393.5 720.5,-226.5 619.5,-226.5"/>
<text text-anchor="middle" x="670" y="-381.5" font-family="Helvetica,sans-Serif" font-size="10.00">VSplinePath</text>
<polyline fill="none" stroke="black" points="619.5,-374.5 720.5,-374.5 "/>
<text text-anchor="start" x="627.5" y="-362.5" font-family="Helvetica,sans-Serif" font-size="10.00">&#45; d</text>
<polyline fill="none" stroke="black" points="619.5,-355.5 720.5,-355.5 "/>
<text text-anchor="start" x="627.5" y="-343.5" font-family="Helvetica,sans-Serif" font-size="10.00">+ VSplinePath()</text>
<text text-anchor="start" x="627.5" y="-332.5" font-family="Helvetica,sans-Serif" font-size="10.00">+ VSplinePath()</text>
<text text-anchor="start" x="627.5" y="-321.5" font-family="Helvetica,sans-Serif" font-size="10.00">+ VSplinePath()</text>
<text text-anchor="start" x="627.5" y="-310.5" font-family="Helvetica,sans-Serif" font-size="10.00">+ VSplinePath()</text>
<text text-anchor="start" x="627.5" y="-299.5" font-family="Helvetica,sans-Serif" font-size="10.00">+ Rotate()</text>
<text text-anchor="start" x="627.5" y="-288.5" font-family="Helvetica,sans-Serif" font-size="10.00">+ Flip()</text>
<text text-anchor="start" x="627.5" y="-277.5" font-family="Helvetica,sans-Serif" font-size="10.00">+ Move()</text>
<text text-anchor="start" x="627.5" y="-266.5" font-family="Helvetica,sans-Serif" font-size="10.00">+ ~VSplinePath()</text>
<text text-anchor="start" x="627.5" y="-255.5" font-family="Helvetica,sans-Serif" font-size="10.00">+ operator[]()</text>
<text text-anchor="start" x="627.5" y="-244.5" font-family="Helvetica,sans-Serif" font-size="10.00">+ operator=()</text>
<text text-anchor="start" x="627.5" y="-233.5" font-family="Helvetica,sans-Serif" font-size="10.00">and 17 more...</text>
</a>
</g>
</g>
<!-- Node10&#45;&gt;Node1 -->
<g id="edge10" class="edge">
<title>Node10&#45;&gt;Node1</title>
<path fill="none" stroke="#404040" d="M670,-226.39C670,-214.82 670,-202.83 670,-190.97"/>
<polygon fill="none" stroke="#404040" points="670,-190.69 666,-184.69 670,-178.69 674,-184.69 670,-190.69"/>
<text text-anchor="middle" x="687" y="-200" font-family="Helvetica,sans-Serif" font-size="10.00"> #path</text>
</g>
<!-- Node11 -->
<g id="node11" class="node">
<title>Node11</title>
<g id="a_node11"><a xlink:href="../../d8/d7a/classVAbstractCubicBezierPath.html" target="_top" xlink:title=" ">
<polygon fill="white" stroke="black" points="621.5,-569 621.5,-747 790.5,-747 790.5,-569 621.5,-569"/>
<text text-anchor="middle" x="706" y="-735" font-family="Helvetica,sans-Serif" font-size="10.00">VAbstractCubicBezierPath</text>
<polyline fill="none" stroke="black" points="621.5,-728 790.5,-728 "/>
<text text-anchor="middle" x="706" y="-716" font-family="Helvetica,sans-Serif" font-size="10.00"> </text>
<polyline fill="none" stroke="black" points="621.5,-709 790.5,-709 "/>
<text text-anchor="start" x="629.5" y="-697" font-family="Helvetica,sans-Serif" font-size="10.00">+ VAbstractCubicBezierPath()</text>
<text text-anchor="start" x="629.5" y="-686" font-family="Helvetica,sans-Serif" font-size="10.00">+ VAbstractCubicBezierPath()</text>
<text text-anchor="start" x="629.5" y="-675" font-family="Helvetica,sans-Serif" font-size="10.00">+ operator=()</text>
<text text-anchor="start" x="629.5" y="-664" font-family="Helvetica,sans-Serif" font-size="10.00">+ ~VAbstractCubicBezierPath()</text>
<text text-anchor="start" x="629.5" y="-653" font-family="Helvetica,sans-Serif" font-size="10.00">+ CountSubSpl()</text>
<text text-anchor="start" x="629.5" y="-642" font-family="Helvetica,sans-Serif" font-size="10.00">+ CountPoints()</text>
<text text-anchor="start" x="629.5" y="-631" font-family="Helvetica,sans-Serif" font-size="10.00">+ Clear()</text>
<text text-anchor="start" x="629.5" y="-620" font-family="Helvetica,sans-Serif" font-size="10.00">+ GetSpline()</text>
<text text-anchor="start" x="629.5" y="-609" font-family="Helvetica,sans-Serif" font-size="10.00">+ GetSplinePath()</text>
<text text-anchor="start" x="629.5" y="-598" font-family="Helvetica,sans-Serif" font-size="10.00">+ GetPath()</text>
<text text-anchor="start" x="629.5" y="-587" font-family="Helvetica,sans-Serif" font-size="10.00">and 8 more...</text>
<text text-anchor="start" x="629.5" y="-576" font-family="Helvetica,sans-Serif" font-size="10.00"># CreateName()</text>
</a>
</g>
</g>
<!-- Node11&#45;&gt;Node10 -->
<g id="edge11" class="edge">
<title>Node11&#45;&gt;Node10</title>
<path fill="none" stroke="midnightblue" d="M695.75,-558.53C690.34,-506.44 683.76,-443.21 678.6,-393.69"/>
<polygon fill="none" stroke="midnightblue" points="692.31,-559.21 696.82,-568.79 699.27,-558.49 692.31,-559.21"/>
</g>
<!-- Node12 -->
<g id="node12" class="node">
<title>Node12</title>
<g id="a_node12"><a xlink:href="../../dd/dc4/classVAbstractBezier.html" target="_top" xlink:title=" ">
<polygon fill="white" stroke="black" points="692.5,-1092 692.5,-1204 813.5,-1204 813.5,-1092 692.5,-1092"/>
<text text-anchor="middle" x="753" y="-1192" font-family="Helvetica,sans-Serif" font-size="10.00">VAbstractBezier</text>
<polyline fill="none" stroke="black" points="692.5,-1185 813.5,-1185 "/>
<text text-anchor="middle" x="753" y="-1173" font-family="Helvetica,sans-Serif" font-size="10.00"> </text>
<polyline fill="none" stroke="black" points="692.5,-1166 813.5,-1166 "/>
<text text-anchor="start" x="700.5" y="-1154" font-family="Helvetica,sans-Serif" font-size="10.00">+ VAbstractBezier()</text>
<text text-anchor="start" x="700.5" y="-1143" font-family="Helvetica,sans-Serif" font-size="10.00">+ VAbstractBezier()</text>
<text text-anchor="start" x="700.5" y="-1132" font-family="Helvetica,sans-Serif" font-size="10.00">+ operator=()</text>
<text text-anchor="start" x="700.5" y="-1121" font-family="Helvetica,sans-Serif" font-size="10.00">+ ~VAbstractBezier()</text>
<text text-anchor="start" x="700.5" y="-1110" font-family="Helvetica,sans-Serif" font-size="10.00">+ GetC1Length()</text>
<text text-anchor="start" x="700.5" y="-1099" font-family="Helvetica,sans-Serif" font-size="10.00">+ GetC2Length()</text>
</a>
</g>
</g>
<!-- Node12&#45;&gt;Node11 -->
<g id="edge12" class="edge">
<title>Node12&#45;&gt;Node11</title>
<path fill="none" stroke="midnightblue" d="M746.72,-1081.8C738.42,-995.63 723.77,-843.53 714.49,-747.17"/>
<polygon fill="none" stroke="midnightblue" points="743.26,-1082.35 747.7,-1091.97 750.22,-1081.68 743.26,-1082.35"/>
</g>
<!-- Node13 -->
<g id="node13" class="node">
<title>Node13</title>
<g id="a_node13"><a xlink:href="../../dc/d55/classVAbstractCurve.html" target="_top" xlink:title=" ">
<polygon fill="white" stroke="black" points="673,-1401.5 673,-1667.5 833,-1667.5 833,-1401.5 673,-1401.5"/>
<text text-anchor="middle" x="753" y="-1655.5" font-family="Helvetica,sans-Serif" font-size="10.00">VAbstractCurve</text>
<polyline fill="none" stroke="black" points="673,-1648.5 833,-1648.5 "/>
<text text-anchor="start" x="681" y="-1636.5" font-family="Helvetica,sans-Serif" font-size="10.00">+ lengthCurveDirectionArrow</text>
<text text-anchor="start" x="681" y="-1625.5" font-family="Helvetica,sans-Serif" font-size="10.00">&#45; d</text>
<polyline fill="none" stroke="black" points="673,-1618.5 833,-1618.5 "/>
<text text-anchor="start" x="681" y="-1606.5" font-family="Helvetica,sans-Serif" font-size="10.00">+ VAbstractCurve()</text>
<text text-anchor="start" x="681" y="-1595.5" font-family="Helvetica,sans-Serif" font-size="10.00">+ VAbstractCurve()</text>
<text text-anchor="start" x="681" y="-1584.5" font-family="Helvetica,sans-Serif" font-size="10.00">+ ~VAbstractCurve()</text>
<text text-anchor="start" x="681" y="-1573.5" font-family="Helvetica,sans-Serif" font-size="10.00">+ operator=()</text>
<text text-anchor="start" x="681" y="-1562.5" font-family="Helvetica,sans-Serif" font-size="10.00">+ Swap()</text>
<text text-anchor="start" x="681" y="-1551.5" font-family="Helvetica,sans-Serif" font-size="10.00">+ getPoints()</text>
<text text-anchor="start" x="681" y="-1540.5" font-family="Helvetica,sans-Serif" font-size="10.00">+ GetSegmentPoints()</text>
<text text-anchor="start" x="681" y="-1529.5" font-family="Helvetica,sans-Serif" font-size="10.00">+ GetPath()</text>
<text text-anchor="start" x="681" y="-1518.5" font-family="Helvetica,sans-Serif" font-size="10.00">+ GetLength()</text>
<text text-anchor="start" x="681" y="-1507.5" font-family="Helvetica,sans-Serif" font-size="10.00">+ GetLengthByPoint()</text>
<text text-anchor="start" x="681" y="-1496.5" font-family="Helvetica,sans-Serif" font-size="10.00">and 17 more...</text>
<text text-anchor="start" x="681" y="-1485.5" font-family="Helvetica,sans-Serif" font-size="10.00">+ GetSegmentPoints()</text>
<text text-anchor="start" x="681" y="-1474.5" font-family="Helvetica,sans-Serif" font-size="10.00">+ isPointOnCurve()</text>
<text text-anchor="start" x="681" y="-1463.5" font-family="Helvetica,sans-Serif" font-size="10.00">+ PathLength()</text>
<text text-anchor="start" x="681" y="-1452.5" font-family="Helvetica,sans-Serif" font-size="10.00">+ CurveIntersectLine()</text>
<text text-anchor="start" x="681" y="-1441.5" font-family="Helvetica,sans-Serif" font-size="10.00">+ ShowDirection()</text>
<text text-anchor="start" x="681" y="-1430.5" font-family="Helvetica,sans-Serif" font-size="10.00"># CreateName()</text>
<text text-anchor="start" x="681" y="-1419.5" font-family="Helvetica,sans-Serif" font-size="10.00">&#45; FromBegin()</text>
<text text-anchor="start" x="681" y="-1408.5" font-family="Helvetica,sans-Serif" font-size="10.00">&#45; ToEnd()</text>
</a>
</g>
</g>
<!-- Node13&#45;&gt;Node12 -->
<g id="edge13" class="edge">
<title>Node13&#45;&gt;Node12</title>
<path fill="none" stroke="midnightblue" d="M753,-1391.1C753,-1326.19 753,-1253.14 753,-1204.42"/>
<polygon fill="none" stroke="midnightblue" points="749.5,-1391.45 753,-1401.45 756.5,-1391.45 749.5,-1391.45"/>
</g>
<!-- Node14 -->
<g id="node14" class="node">
<title>Node14</title>
<g id="a_node14"><a xlink:href="../../d1/de7/classVGObject.html" target="_top" xlink:title="The VGObject class keep information graphical objects.">
<polygon fill="white" stroke="black" points="680,-1705.5 680,-2092.5 826,-2092.5 826,-1705.5 680,-1705.5"/>
<text text-anchor="middle" x="753" y="-2080.5" font-family="Helvetica,sans-Serif" font-size="10.00">VGObject</text>
<polyline fill="none" stroke="black" points="680,-2073.5 826,-2073.5 "/>
<text text-anchor="start" x="688" y="-2061.5" font-family="Helvetica,sans-Serif" font-size="10.00">+ accuracyPointOnLine</text>
<text text-anchor="start" x="688" y="-2050.5" font-family="Helvetica,sans-Serif" font-size="10.00">&#45; d</text>
<polyline fill="none" stroke="black" points="680,-2043.5 826,-2043.5 "/>
<text text-anchor="start" x="688" y="-2031.5" font-family="Helvetica,sans-Serif" font-size="10.00">+ VGObject()</text>
<text text-anchor="start" x="688" y="-2020.5" font-family="Helvetica,sans-Serif" font-size="10.00">+ VGObject()</text>
<text text-anchor="start" x="688" y="-2009.5" font-family="Helvetica,sans-Serif" font-size="10.00">+ VGObject()</text>
<text text-anchor="start" x="688" y="-1998.5" font-family="Helvetica,sans-Serif" font-size="10.00">+ ~VGObject()</text>
<text text-anchor="start" x="688" y="-1987.5" font-family="Helvetica,sans-Serif" font-size="10.00">+ operator=()</text>
<text text-anchor="start" x="688" y="-1976.5" font-family="Helvetica,sans-Serif" font-size="10.00">+ Swap()</text>
<text text-anchor="start" x="688" y="-1965.5" font-family="Helvetica,sans-Serif" font-size="10.00">+ getIdObject()</text>
<text text-anchor="start" x="688" y="-1954.5" font-family="Helvetica,sans-Serif" font-size="10.00">+ setIdObject()</text>
<text text-anchor="start" x="688" y="-1943.5" font-family="Helvetica,sans-Serif" font-size="10.00">+ name()</text>
<text text-anchor="start" x="688" y="-1932.5" font-family="Helvetica,sans-Serif" font-size="10.00">+ setName()</text>
<text text-anchor="start" x="688" y="-1921.5" font-family="Helvetica,sans-Serif" font-size="10.00">and 7 more...</text>
<text text-anchor="start" x="688" y="-1910.5" font-family="Helvetica,sans-Serif" font-size="10.00">+ BuildLine()</text>
<text text-anchor="start" x="688" y="-1899.5" font-family="Helvetica,sans-Serif" font-size="10.00">+ BuildRay()</text>
<text text-anchor="start" x="688" y="-1888.5" font-family="Helvetica,sans-Serif" font-size="10.00">+ BuildAxis()</text>
<text text-anchor="start" x="688" y="-1877.5" font-family="Helvetica,sans-Serif" font-size="10.00">+ BuildAxis()</text>
<text text-anchor="start" x="688" y="-1866.5" font-family="Helvetica,sans-Serif" font-size="10.00">+ ContactPoints()</text>
<text text-anchor="start" x="688" y="-1855.5" font-family="Helvetica,sans-Serif" font-size="10.00">+ LineIntersectRect()</text>
<text text-anchor="start" x="688" y="-1844.5" font-family="Helvetica,sans-Serif" font-size="10.00">+ IntersectionCircles()</text>
<text text-anchor="start" x="688" y="-1833.5" font-family="Helvetica,sans-Serif" font-size="10.00">+ LineIntersectCircle()</text>
<text text-anchor="start" x="688" y="-1822.5" font-family="Helvetica,sans-Serif" font-size="10.00">+ ClosestPoint()</text>
<text text-anchor="start" x="688" y="-1811.5" font-family="Helvetica,sans-Serif" font-size="10.00">+ addVector()</text>
<text text-anchor="start" x="688" y="-1800.5" font-family="Helvetica,sans-Serif" font-size="10.00">+ LineCoefficients()</text>
<text text-anchor="start" x="688" y="-1789.5" font-family="Helvetica,sans-Serif" font-size="10.00">+ IsPointOnLineSegment()</text>
<text text-anchor="start" x="688" y="-1778.5" font-family="Helvetica,sans-Serif" font-size="10.00">+ IsPointOnLineviaPDP()</text>
<text text-anchor="start" x="688" y="-1767.5" font-family="Helvetica,sans-Serif" font-size="10.00">+ GetReversePoints()</text>
<text text-anchor="start" x="688" y="-1756.5" font-family="Helvetica,sans-Serif" font-size="10.00">+ GetLengthContour()</text>
<text text-anchor="start" x="688" y="-1745.5" font-family="Helvetica,sans-Serif" font-size="10.00"># flipTransform()</text>
<text text-anchor="start" x="688" y="-1734.5" font-family="Helvetica,sans-Serif" font-size="10.00">&#45; PerpDotProduct()</text>
<text text-anchor="start" x="688" y="-1723.5" font-family="Helvetica,sans-Serif" font-size="10.00">&#45; GetEpsilon()</text>
<text text-anchor="start" x="688" y="-1712.5" font-family="Helvetica,sans-Serif" font-size="10.00">&#45; PointInCircle()</text>
</a>
</g>
</g>
<!-- Node14&#45;&gt;Node13 -->
<g id="edge14" class="edge">
<title>Node14&#45;&gt;Node13</title>
<path fill="none" stroke="midnightblue" d="M753,-1695.24C753,-1685.96 753,-1676.76 753,-1667.73"/>
<polygon fill="none" stroke="midnightblue" points="749.5,-1695.34 753,-1705.34 756.5,-1695.34 749.5,-1695.34"/>
</g>
<!-- Node15 -->
<g id="node15" class="node">
<title>Node15</title>
<g id="a_node15"><a xlink:href="../../d5/dc2/classQVector.html" target="_top" xlink:title=" ">
<polygon fill="white" stroke="black" points="738.5,-281.5 738.5,-338.5 895.5,-338.5 895.5,-281.5 738.5,-281.5"/>
<text text-anchor="middle" x="817" y="-326.5" font-family="Helvetica,sans-Serif" font-size="10.00">QVector&lt; VScaledEllipse * &gt;</text>
<polyline fill="none" stroke="black" points="738.5,-319.5 895.5,-319.5 "/>
<text text-anchor="middle" x="817" y="-307.5" font-family="Helvetica,sans-Serif" font-size="10.00"> </text>
<polyline fill="none" stroke="black" points="738.5,-300.5 895.5,-300.5 "/>
<text text-anchor="middle" x="817" y="-288.5" font-family="Helvetica,sans-Serif" font-size="10.00"> </text>
</a>
</g>
</g>
<!-- Node15&#45;&gt;Node1 -->
<g id="edge15" class="edge">
<title>Node15&#45;&gt;Node1</title>
<path fill="none" stroke="#404040" d="M798.38,-281.33C782.56,-257.81 758.86,-222.58 736.11,-188.76"/>
<polygon fill="none" stroke="#404040" points="736.11,-188.76 729.44,-186.02 729.41,-178.8 736.08,-181.55 736.11,-188.76"/>
<text text-anchor="middle" x="769" y="-200" font-family="Helvetica,sans-Serif" font-size="10.00"> #points</text>
</g>
<!-- Node16 -->
<g id="node16" class="node">
<title>Node16</title>
<g id="a_node16"><a xlink:href="../../d5/dc2/classQVector.html" target="_top" xlink:title=" ">
<polygon fill="white" stroke="black" points="914,-281.5 914,-338.5 1096,-338.5 1096,-281.5 914,-281.5"/>
<text text-anchor="middle" x="1005" y="-326.5" font-family="Helvetica,sans-Serif" font-size="10.00">QVector&lt; VControlPointSpline * &gt;</text>
<polyline fill="none" stroke="black" points="914,-319.5 1096,-319.5 "/>
<text text-anchor="middle" x="1005" y="-307.5" font-family="Helvetica,sans-Serif" font-size="10.00"> </text>
<polyline fill="none" stroke="black" points="914,-300.5 1096,-300.5 "/>
<text text-anchor="middle" x="1005" y="-288.5" font-family="Helvetica,sans-Serif" font-size="10.00"> </text>
</a>
</g>
</g>
<!-- Node16&#45;&gt;Node1 -->
<g id="edge16" class="edge">
<title>Node16&#45;&gt;Node1</title>
<path fill="none" stroke="#404040" d="M974.19,-281.46C954.7,-264.61 928.62,-243.07 904,-226 853.27,-190.82 792.91,-156.02 746.2,-130.51"/>
<polygon fill="none" stroke="#404040" points="746.09,-130.44 738.91,-131.09 735.55,-124.72 742.73,-124.07 746.09,-130.44"/>
<text text-anchor="middle" x="903" y="-200" font-family="Helvetica,sans-Serif" font-size="10.00"> #ctrlPoints</text>
</g>
</g>
</svg>
