<?xml version="1.0" encoding="UTF-8" standalone="no"?>
<!DOCTYPE svg PUBLIC "-//W3C//DTD SVG 1.1//EN"
 "http://www.w3.org/Graphics/SVG/1.1/DTD/svg11.dtd">
<!-- Generated by graphviz version 2.43.0 (0)
 -->
<!-- Title: src/app/seamly2d/core/vapplication.cpp Pages: 1 -->
<!--zoomable 319 -->
<svg id="main" version="1.1" xmlns="http://www.w3.org/2000/svg" xmlns:xlink="http://www.w3.org/1999/xlink" xml:space="preserve" onload="init(evt)">
<style type="text/css"><![CDATA[
.edge:hover path { stroke: red; }
.edge:hover polygon { stroke: red; fill: red; }
]]></style>
<script type="text/javascript"><![CDATA[
var edges = document.getElementsByTagName('g');
if (edges && edges.length) {
  for (var i=0;i<edges.length;i++) {
    if (edges[i].id.substr(0,4)=='edge') {
      edges[i].setAttribute('class','edge');
    }
  }
}
]]></script>
        <defs>
                <circle id="rim" cx="0" cy="0" r="7"/>
                <circle id="rim2" cx="0" cy="0" r="3.5"/>
                <g id="zoomPlus">
                        <use xlink:href="#rim" fill="#404040">
                                <set attributeName="fill" to="#808080" begin="zoomplus.mouseover" end="zoomplus.mouseout"/>
                        </use>
                        <path d="M-4,0h8M0,-4v8" fill="none" stroke="white" stroke-width="1.5" pointer-events="none"/>
                </g>
                <g id="zoomMin">
                        <use xlink:href="#rim" fill="#404040">
                                <set attributeName="fill" to="#808080" begin="zoomminus.mouseover" end="zoomminus.mouseout"/>
                        </use>
                        <path d="M-4,0h8" fill="none" stroke="white" stroke-width="1.5" pointer-events="none"/>
                </g>
                <g id="dirArrow">
                        <path fill="none" stroke="white" stroke-width="1.5" d="M0,-3.0v7 M-2.5,-0.5L0,-3.0L2.5,-0.5"/>
                </g>
               <g id="resetDef">
                       <use xlink:href="#rim2" fill="#404040">
                               <set attributeName="fill" to="#808080" begin="reset.mouseover" end="reset.mouseout"/>
                       </use>
               </g>
        </defs>

<script type="text/javascript">
var viewWidth = 3333;
var viewHeight = 319;
var sectionId = 'dynsection-0';
</script>
<script xlink:href="../../svgpan.js"/>
<svg id="graph" class="graph">
<g id="viewport">
<title>src/app/seamly2d/core/vapplication.cpp</title>
<polygon fill="white" stroke="transparent" points="-4,4 -4,-315 3329.34,-315 3329.34,4 -4,4"/>
<!-- Node1 -->
<g id="node1" class="node">
<title>Node1</title>
<g id="a_node1"><a xlink:title=" ">
<polygon fill="#bfbfbf" stroke="black" points="2089.34,-280.5 2089.34,-310.5 2216.34,-310.5 2216.34,-280.5 2089.34,-280.5"/>
<text text-anchor="start" x="2097.34" y="-298.5" font-family="Helvetica,sans-Serif" font-size="10.00">src/app/seamly2d/core</text>
<text text-anchor="middle" x="2152.84" y="-287.5" font-family="Helvetica,sans-Serif" font-size="10.00">/vapplication.cpp</text>
</a>
</g>
</g>
<!-- Node2 -->
<g id="node2" class="node">
<title>Node2</title>
<g id="a_node2"><a xlink:href="../../d9/d02/vapplication_8h.html" target="_top" xlink:title=" ">
<polygon fill="white" stroke="black" points="253.84,-224.5 253.84,-243.5 339.84,-243.5 339.84,-224.5 253.84,-224.5"/>
<text text-anchor="middle" x="296.84" y="-231.5" font-family="Helvetica,sans-Serif" font-size="10.00">vapplication.h</text>
</a>
</g>
</g>
<!-- Node1&#45;&gt;Node2 -->
<g id="edge1" class="edge">
<title>Node1&#45;&gt;Node2</title>
<path fill="none" stroke="midnightblue" d="M2088.9,-293.94C1812.42,-291.34 717.42,-279.04 350.03,-243.94"/>
<polygon fill="midnightblue" stroke="midnightblue" points="350.2,-240.43 339.9,-242.94 349.51,-247.4 350.2,-240.43"/>
</g>
<!-- Node9 -->
<g id="node9" class="node">
<title>Node9</title>
<g id="a_node9"><a xlink:title=" ">
<polygon fill="white" stroke="#bfbfbf" points="19.84,-168.5 19.84,-187.5 195.84,-187.5 195.84,-168.5 19.84,-168.5"/>
<text text-anchor="middle" x="107.84" y="-175.5" font-family="Helvetica,sans-Serif" font-size="10.00">../vwidgets/vmaingraphicsview.h</text>
</a>
</g>
</g>
<!-- Node1&#45;&gt;Node9 -->
<g id="edge36" class="edge">
<title>Node1&#45;&gt;Node9</title>
<path fill="none" stroke="midnightblue" d="M2089.17,-294.38C1778.26,-293.58 427.18,-287.6 244.84,-244 201.74,-233.69 156.09,-208.84 129.87,-193.02"/>
<polygon fill="midnightblue" stroke="midnightblue" points="131.49,-189.91 121.13,-187.65 127.82,-195.87 131.49,-189.91"/>
</g>
<!-- Node22 -->
<g id="node19" class="node">
<title>Node22</title>
<g id="a_node19"><a xlink:title=" ">
<polygon fill="white" stroke="#bfbfbf" points="248.34,-56.5 248.34,-75.5 277.34,-75.5 277.34,-56.5 248.34,-56.5"/>
<text text-anchor="middle" x="262.84" y="-63.5" font-family="Helvetica,sans-Serif" font-size="10.00">Qt</text>
</a>
</g>
</g>
<!-- Node1&#45;&gt;Node22 -->
<g id="edge47" class="edge">
<title>Node1&#45;&gt;Node22</title>
<path fill="none" stroke="midnightblue" d="M2089.18,-293.93C1772.86,-290.97 377.7,-276.15 186.84,-244 105.89,-230.37 59.29,-254.26 10.84,-188 -49.92,-104.9 163,-76.44 237.8,-69.12"/>
<polygon fill="midnightblue" stroke="midnightblue" points="238.54,-72.57 248.17,-68.16 237.89,-65.6 238.54,-72.57"/>
</g>
<!-- Node47 -->
<g id="node23" class="node">
<title>Node47</title>
<g id="a_node23"><a xlink:title=" ">
<polygon fill="white" stroke="#bfbfbf" points="358.34,-224.5 358.34,-243.5 565.34,-243.5 565.34,-224.5 358.34,-224.5"/>
<text text-anchor="middle" x="461.84" y="-231.5" font-family="Helvetica,sans-Serif" font-size="10.00">../ifc/exception/vexceptionobjecterror.h</text>
</a>
</g>
</g>
<!-- Node1&#45;&gt;Node47 -->
<g id="edge31" class="edge">
<title>Node1&#45;&gt;Node47</title>
<path fill="none" stroke="midnightblue" d="M2089.28,-293.55C1876.7,-290.14 1170.88,-276.96 575.65,-244.02"/>
<polygon fill="midnightblue" stroke="midnightblue" points="575.76,-240.52 565.58,-243.46 575.37,-247.5 575.76,-240.52"/>
</g>
<!-- Node48 -->
<g id="node24" class="node">
<title>Node48</title>
<g id="a_node24"><a xlink:title=" ">
<polygon fill="white" stroke="#bfbfbf" points="583.84,-224.5 583.84,-243.5 765.84,-243.5 765.84,-224.5 583.84,-224.5"/>
<text text-anchor="middle" x="674.84" y="-231.5" font-family="Helvetica,sans-Serif" font-size="10.00">../ifc/exception/vexceptionbadid.h</text>
</a>
</g>
</g>
<!-- Node1&#45;&gt;Node48 -->
<g id="edge32" class="edge">
<title>Node1&#45;&gt;Node48</title>
<path fill="none" stroke="midnightblue" d="M2089.25,-293.37C1894.54,-289.66 1289.1,-276.21 776.04,-244.04"/>
<polygon fill="midnightblue" stroke="midnightblue" points="776.04,-240.53 765.84,-243.4 775.6,-247.52 776.04,-240.53"/>
</g>
<!-- Node49 -->
<g id="node25" class="node">
<title>Node49</title>
<g id="a_node25"><a xlink:title=" ">
<polygon fill="white" stroke="#bfbfbf" points="783.84,-224.5 783.84,-243.5 1013.84,-243.5 1013.84,-224.5 783.84,-224.5"/>
<text text-anchor="middle" x="898.84" y="-231.5" font-family="Helvetica,sans-Serif" font-size="10.00">../ifc/exception/vexceptionconversionerror.h</text>
</a>
</g>
</g>
<!-- Node1&#45;&gt;Node49 -->
<g id="edge33" class="edge">
<title>Node1&#45;&gt;Node49</title>
<path fill="none" stroke="midnightblue" d="M2089.09,-292.27C1918.39,-286.17 1436.49,-268.08 1024.04,-244.06"/>
<polygon fill="midnightblue" stroke="midnightblue" points="1024.2,-240.56 1014.01,-243.47 1023.79,-247.55 1024.2,-240.56"/>
</g>
<!-- Node50 -->
<g id="node26" class="node">
<title>Node50</title>
<g id="a_node26"><a xlink:title=" ">
<polygon fill="white" stroke="#bfbfbf" points="1031.84,-224.5 1031.84,-243.5 1267.84,-243.5 1267.84,-224.5 1031.84,-224.5"/>
<text text-anchor="middle" x="1149.84" y="-231.5" font-family="Helvetica,sans-Serif" font-size="10.00">../ifc/exception/vexceptionemptyparameter.h</text>
</a>
</g>
</g>
<!-- Node1&#45;&gt;Node50 -->
<g id="edge34" class="edge">
<title>Node1&#45;&gt;Node50</title>
<path fill="none" stroke="midnightblue" d="M2089.07,-291.11C1946.08,-283.45 1588.67,-263.96 1278.23,-244.08"/>
<polygon fill="midnightblue" stroke="midnightblue" points="1278.34,-240.58 1268.14,-243.43 1277.89,-247.57 1278.34,-240.58"/>
</g>
<!-- Node51 -->
<g id="node27" class="node">
<title>Node51</title>
<g id="a_node27"><a xlink:title=" ">
<polygon fill="white" stroke="#bfbfbf" points="1285.84,-224.5 1285.84,-243.5 1479.84,-243.5 1479.84,-224.5 1285.84,-224.5"/>
<text text-anchor="middle" x="1382.84" y="-231.5" font-family="Helvetica,sans-Serif" font-size="10.00">../ifc/exception/vexceptionwrongid.h</text>
</a>
</g>
</g>
<!-- Node1&#45;&gt;Node51 -->
<g id="edge35" class="edge">
<title>Node1&#45;&gt;Node51</title>
<path fill="none" stroke="midnightblue" d="M2089.19,-289.85C1972.65,-281.28 1716.87,-262.3 1489.98,-244.09"/>
<polygon fill="midnightblue" stroke="midnightblue" points="1490.13,-240.59 1479.88,-243.27 1489.57,-247.56 1490.13,-240.59"/>
</g>
<!-- Node52 -->
<g id="node28" class="node">
<title>Node52</title>
<g id="a_node28"><a xlink:href="../../d1/d9f/seamly2d_2version_8h.html" target="_top" xlink:title=" ">
<polygon fill="white" stroke="black" points="1498.34,-224.5 1498.34,-243.5 1569.34,-243.5 1569.34,-224.5 1498.34,-224.5"/>
<text text-anchor="middle" x="1533.84" y="-231.5" font-family="Helvetica,sans-Serif" font-size="10.00">../version.h</text>
</a>
</g>
</g>
<!-- Node1&#45;&gt;Node52 -->
<g id="edge37" class="edge">
<title>Node1&#45;&gt;Node52</title>
<path fill="none" stroke="midnightblue" d="M2089.17,-291.29C1984.65,-285.49 1770.03,-271.4 1579.7,-244.14"/>
<polygon fill="midnightblue" stroke="midnightblue" points="1580.2,-240.67 1569.8,-242.7 1579.19,-247.6 1580.2,-240.67"/>
</g>
<!-- Node54 -->
<g id="node30" class="node">
<title>Node54</title>
<g id="a_node30"><a xlink:title=" ">
<polygon fill="white" stroke="#bfbfbf" points="1587.34,-224.5 1587.34,-243.5 1690.34,-243.5 1690.34,-224.5 1587.34,-224.5"/>
<text text-anchor="middle" x="1638.84" y="-231.5" font-family="Helvetica,sans-Serif" font-size="10.00">../vmisc/logging.h</text>
</a>
</g>
</g>
<!-- Node1&#45;&gt;Node54 -->
<g id="edge39" class="edge">
<title>Node1&#45;&gt;Node54</title>
<path fill="none" stroke="midnightblue" d="M2088.98,-288.1C2003.17,-279.34 1845.63,-262.7 1700.39,-244.03"/>
<polygon fill="midnightblue" stroke="midnightblue" points="1700.77,-240.55 1690.4,-242.74 1699.87,-247.49 1700.77,-240.55"/>
</g>
<!-- Node55 -->
<g id="node31" class="node">
<title>Node55</title>
<g id="a_node31"><a xlink:title=" ">
<polygon fill="white" stroke="#bfbfbf" points="1708.84,-224.5 1708.84,-243.5 1806.84,-243.5 1806.84,-224.5 1708.84,-224.5"/>
<text text-anchor="middle" x="1757.84" y="-231.5" font-family="Helvetica,sans-Serif" font-size="10.00">../vmisc/vmath.h</text>
</a>
</g>
</g>
<!-- Node1&#45;&gt;Node55 -->
<g id="edge40" class="edge">
<title>Node1&#45;&gt;Node55</title>
<path fill="none" stroke="midnightblue" d="M2089.04,-284.95C2023.63,-275.16 1918.65,-259.41 1817.21,-244.05"/>
<polygon fill="midnightblue" stroke="midnightblue" points="1817.5,-240.56 1807.09,-242.52 1816.45,-247.48 1817.5,-240.56"/>
</g>
<!-- Node56 -->
<g id="node32" class="node">
<title>Node56</title>
<g id="a_node32"><a xlink:title=" ">
<polygon fill="white" stroke="#bfbfbf" points="1825.34,-224.5 1825.34,-243.5 1990.34,-243.5 1990.34,-224.5 1825.34,-224.5"/>
<text text-anchor="middle" x="1907.84" y="-231.5" font-family="Helvetica,sans-Serif" font-size="10.00">../qmuparser/qmuparsererror.h</text>
</a>
</g>
</g>
<!-- Node1&#45;&gt;Node56 -->
<g id="edge41" class="edge">
<title>Node1&#45;&gt;Node56</title>
<path fill="none" stroke="midnightblue" d="M2095.09,-280.47C2051.53,-269.9 1992.64,-255.59 1952.61,-245.87"/>
<polygon fill="midnightblue" stroke="midnightblue" points="1953.41,-242.47 1942.86,-243.51 1951.76,-249.27 1953.41,-242.47"/>
</g>
<!-- Node57 -->
<g id="node33" class="node">
<title>Node57</title>
<g id="a_node33"><a xlink:href="../../d9/d53/mainwindow_8h.html" target="_top" xlink:title=" ">
<polygon fill="white" stroke="black" points="2008.84,-224.5 2008.84,-243.5 2104.84,-243.5 2104.84,-224.5 2008.84,-224.5"/>
<text text-anchor="middle" x="2056.84" y="-231.5" font-family="Helvetica,sans-Serif" font-size="10.00">../mainwindow.h</text>
</a>
</g>
</g>
<!-- Node1&#45;&gt;Node57 -->
<g id="edge42" class="edge">
<title>Node1&#45;&gt;Node57</title>
<path fill="none" stroke="midnightblue" d="M2130.09,-280.4C2114.84,-270.95 2094.85,-258.56 2079.6,-249.11"/>
<polygon fill="midnightblue" stroke="midnightblue" points="2081.15,-245.95 2070.81,-243.66 2077.46,-251.9 2081.15,-245.95"/>
</g>
<!-- Node73 -->
<g id="node37" class="node">
<title>Node73</title>
<g id="a_node37"><a xlink:title=" ">
<polygon fill="white" stroke="#bfbfbf" points="2123.34,-224.5 2123.34,-243.5 2182.34,-243.5 2182.34,-224.5 2123.34,-224.5"/>
<text text-anchor="middle" x="2152.84" y="-231.5" font-family="Helvetica,sans-Serif" font-size="10.00">QtDebug</text>
</a>
</g>
</g>
<!-- Node1&#45;&gt;Node73 -->
<g id="edge48" class="edge">
<title>Node1&#45;&gt;Node73</title>
<path fill="none" stroke="midnightblue" d="M2152.84,-280.4C2152.84,-272.47 2152.84,-262.46 2152.84,-253.86"/>
<polygon fill="midnightblue" stroke="midnightblue" points="2156.34,-253.66 2152.84,-243.66 2149.34,-253.66 2156.34,-253.66"/>
</g>
<!-- Node74 -->
<g id="node38" class="node">
<title>Node74</title>
<g id="a_node38"><a xlink:title=" ">
<polygon fill="white" stroke="#bfbfbf" points="2200.84,-224.5 2200.84,-243.5 2238.84,-243.5 2238.84,-224.5 2200.84,-224.5"/>
<text text-anchor="middle" x="2219.84" y="-231.5" font-family="Helvetica,sans-Serif" font-size="10.00">QDir</text>
</a>
</g>
</g>
<!-- Node1&#45;&gt;Node74 -->
<g id="edge49" class="edge">
<title>Node1&#45;&gt;Node74</title>
<path fill="none" stroke="midnightblue" d="M2168.72,-280.4C2178.85,-271.4 2192,-259.72 2202.42,-250.47"/>
<polygon fill="midnightblue" stroke="midnightblue" points="2204.94,-252.92 2210.09,-243.66 2200.29,-247.68 2204.94,-252.92"/>
</g>
<!-- Node75 -->
<g id="node39" class="node">
<title>Node75</title>
<g id="a_node39"><a xlink:title=" ">
<polygon fill="white" stroke="#bfbfbf" points="2256.84,-224.5 2256.84,-243.5 2318.84,-243.5 2318.84,-224.5 2256.84,-224.5"/>
<text text-anchor="middle" x="2287.84" y="-231.5" font-family="Helvetica,sans-Serif" font-size="10.00">QProcess</text>
</a>
</g>
</g>
<!-- Node1&#45;&gt;Node75 -->
<g id="edge50" class="edge">
<title>Node1&#45;&gt;Node75</title>
<path fill="none" stroke="midnightblue" d="M2184.83,-280.4C2207.28,-270.51 2237.05,-257.38 2258.81,-247.79"/>
<polygon fill="midnightblue" stroke="midnightblue" points="2260.45,-250.89 2268.19,-243.66 2257.63,-244.49 2260.45,-250.89"/>
</g>
<!-- Node76 -->
<g id="node40" class="node">
<title>Node76</title>
<g id="a_node40"><a xlink:title=" ">
<polygon fill="white" stroke="#bfbfbf" points="2337.34,-224.5 2337.34,-243.5 2430.34,-243.5 2430.34,-224.5 2337.34,-224.5"/>
<text text-anchor="middle" x="2383.84" y="-231.5" font-family="Helvetica,sans-Serif" font-size="10.00">QTemporaryFile</text>
</a>
</g>
</g>
<!-- Node1&#45;&gt;Node76 -->
<g id="edge51" class="edge">
<title>Node1&#45;&gt;Node76</title>
<path fill="none" stroke="midnightblue" d="M2207.29,-280.47C2248.01,-269.99 2302.94,-255.84 2340.66,-246.12"/>
<polygon fill="midnightblue" stroke="midnightblue" points="2342,-249.39 2350.81,-243.51 2340.26,-242.61 2342,-249.39"/>
</g>
<!-- Node77 -->
<g id="node41" class="node">
<title>Node77</title>
<g id="a_node41"><a xlink:title=" ">
<polygon fill="white" stroke="#bfbfbf" points="2448.34,-224.5 2448.34,-243.5 2525.34,-243.5 2525.34,-224.5 2448.34,-224.5"/>
<text text-anchor="middle" x="2486.84" y="-231.5" font-family="Helvetica,sans-Serif" font-size="10.00">QUndoStack</text>
</a>
</g>
</g>
<!-- Node1&#45;&gt;Node77 -->
<g id="edge52" class="edge">
<title>Node1&#45;&gt;Node77</title>
<path fill="none" stroke="midnightblue" d="M2216.44,-283.59C2272.36,-273.94 2356.22,-259.3 2438.14,-244.29"/>
<polygon fill="midnightblue" stroke="midnightblue" points="2438.91,-247.71 2448.12,-242.46 2437.65,-240.82 2438.91,-247.71"/>
</g>
<!-- Node78 -->
<g id="node42" class="node">
<title>Node78</title>
<g id="a_node42"><a xlink:title=" ">
<polygon fill="white" stroke="#bfbfbf" points="2543.34,-224.5 2543.34,-243.5 2584.34,-243.5 2584.34,-224.5 2543.34,-224.5"/>
<text text-anchor="middle" x="2563.84" y="-231.5" font-family="Helvetica,sans-Serif" font-size="10.00">QFile</text>
</a>
</g>
</g>
<!-- Node1&#45;&gt;Node78 -->
<g id="edge53" class="edge">
<title>Node1&#45;&gt;Node78</title>
<path fill="none" stroke="midnightblue" d="M2216.61,-289.4C2290.83,-282.72 2417.11,-269.06 2533.27,-244.05"/>
<polygon fill="midnightblue" stroke="midnightblue" points="2534.02,-247.47 2543.04,-241.92 2532.52,-240.63 2534.02,-247.47"/>
</g>
<!-- Node79 -->
<g id="node43" class="node">
<title>Node79</title>
<g id="a_node43"><a xlink:title=" ">
<polygon fill="white" stroke="#bfbfbf" points="2602.84,-224.5 2602.84,-243.5 2696.84,-243.5 2696.84,-224.5 2602.84,-224.5"/>
<text text-anchor="middle" x="2649.84" y="-231.5" font-family="Helvetica,sans-Serif" font-size="10.00">QStandardPaths</text>
</a>
</g>
</g>
<!-- Node1&#45;&gt;Node79 -->
<g id="edge54" class="edge">
<title>Node1&#45;&gt;Node79</title>
<path fill="none" stroke="midnightblue" d="M2216.49,-288.13C2300.3,-279.53 2452.51,-263.22 2592.73,-244.1"/>
<polygon fill="midnightblue" stroke="midnightblue" points="2593.37,-247.54 2602.81,-242.72 2592.42,-240.61 2593.37,-247.54"/>
</g>
<!-- Node80 -->
<g id="node44" class="node">
<title>Node80</title>
<g id="a_node44"><a xlink:title=" ">
<polygon fill="white" stroke="#bfbfbf" points="2714.84,-224.5 2714.84,-243.5 2800.84,-243.5 2800.84,-224.5 2714.84,-224.5"/>
<text text-anchor="middle" x="2757.84" y="-231.5" font-family="Helvetica,sans-Serif" font-size="10.00">QMessageBox</text>
</a>
</g>
</g>
<!-- Node1&#45;&gt;Node80 -->
<g id="edge55" class="edge">
<title>Node1&#45;&gt;Node80</title>
<path fill="none" stroke="midnightblue" d="M2216.47,-290.36C2317.67,-283.4 2521.71,-267.88 2704.67,-244.06"/>
<polygon fill="midnightblue" stroke="midnightblue" points="2705.29,-247.5 2714.75,-242.73 2704.38,-240.56 2705.29,-247.5"/>
</g>
<!-- Node81 -->
<g id="node45" class="node">
<title>Node81</title>
<g id="a_node45"><a xlink:title=" ">
<polygon fill="white" stroke="#bfbfbf" points="2818.84,-224.5 2818.84,-243.5 2876.84,-243.5 2876.84,-224.5 2818.84,-224.5"/>
<text text-anchor="middle" x="2847.84" y="-231.5" font-family="Helvetica,sans-Serif" font-size="10.00">QThread</text>
</a>
</g>
</g>
<!-- Node1&#45;&gt;Node81 -->
<g id="edge56" class="edge">
<title>Node1&#45;&gt;Node81</title>
<path fill="none" stroke="midnightblue" d="M2216.64,-292.9C2332.75,-289.25 2586.37,-277.99 2808.58,-243.97"/>
<polygon fill="midnightblue" stroke="midnightblue" points="2809.12,-247.42 2818.47,-242.43 2808.05,-240.51 2809.12,-247.42"/>
</g>
<!-- Node82 -->
<g id="node46" class="node">
<title>Node82</title>
<g id="a_node46"><a xlink:title=" ">
<polygon fill="white" stroke="#bfbfbf" points="2894.84,-224.5 2894.84,-243.5 2966.84,-243.5 2966.84,-224.5 2894.84,-224.5"/>
<text text-anchor="middle" x="2930.84" y="-231.5" font-family="Helvetica,sans-Serif" font-size="10.00">QDateTime</text>
</a>
</g>
</g>
<!-- Node1&#45;&gt;Node82 -->
<g id="edge57" class="edge">
<title>Node1&#45;&gt;Node82</title>
<path fill="none" stroke="midnightblue" d="M2216.35,-292.87C2342.13,-289.05 2631.84,-277.28 2884.45,-244.02"/>
<polygon fill="midnightblue" stroke="midnightblue" points="2885.1,-247.46 2894.56,-242.67 2884.18,-240.52 2885.1,-247.46"/>
</g>
<!-- Node83 -->
<g id="node47" class="node">
<title>Node83</title>
<g id="a_node47"><a xlink:title=" ">
<polygon fill="white" stroke="#bfbfbf" points="2984.84,-224.5 2984.84,-243.5 3028.84,-243.5 3028.84,-224.5 2984.84,-224.5"/>
<text text-anchor="middle" x="3006.84" y="-231.5" font-family="Helvetica,sans-Serif" font-size="10.00">QIcon</text>
</a>
</g>
</g>
<!-- Node1&#45;&gt;Node83 -->
<g id="edge58" class="edge">
<title>Node1&#45;&gt;Node83</title>
<path fill="none" stroke="midnightblue" d="M2216.37,-295.36C2353.63,-296.19 2687.92,-292.69 2974.45,-243.84"/>
<polygon fill="midnightblue" stroke="midnightblue" points="2975.37,-247.24 2984.62,-242.09 2974.17,-240.34 2975.37,-247.24"/>
</g>
<!-- Node84 -->
<g id="node48" class="node">
<title>Node84</title>
<g id="a_node48"><a xlink:title=" ">
<polygon fill="white" stroke="#bfbfbf" points="3046.84,-224.5 3046.84,-243.5 3122.84,-243.5 3122.84,-224.5 3046.84,-224.5"/>
<text text-anchor="middle" x="3084.84" y="-231.5" font-family="Helvetica,sans-Serif" font-size="10.00">QJsonObject</text>
</a>
</g>
</g>
<!-- Node1&#45;&gt;Node84 -->
<g id="edge59" class="edge">
<title>Node1&#45;&gt;Node84</title>
<path fill="none" stroke="midnightblue" d="M2216.41,-293.75C2360.63,-291.43 2723.7,-282.09 3036.51,-243.99"/>
<polygon fill="midnightblue" stroke="midnightblue" points="3037.19,-247.44 3046.68,-242.74 3036.33,-240.49 3037.19,-247.44"/>
</g>
<!-- Node85 -->
<g id="node49" class="node">
<title>Node85</title>
<g id="a_node49"><a xlink:title=" ">
<polygon fill="white" stroke="#bfbfbf" points="3141.34,-224.5 3141.34,-243.5 3212.34,-243.5 3212.34,-224.5 3141.34,-224.5"/>
<text text-anchor="middle" x="3176.84" y="-231.5" font-family="Helvetica,sans-Serif" font-size="10.00">QJsonValue</text>
</a>
</g>
</g>
<!-- Node1&#45;&gt;Node85 -->
<g id="edge60" class="edge">
<title>Node1&#45;&gt;Node85</title>
<path fill="none" stroke="midnightblue" d="M2216.4,-294.42C2371.27,-293.55 2780.5,-287.09 3130.96,-243.9"/>
<polygon fill="midnightblue" stroke="midnightblue" points="3131.56,-247.35 3141.05,-242.65 3130.7,-240.41 3131.56,-247.35"/>
</g>
<!-- Node86 -->
<g id="node50" class="node">
<title>Node86</title>
<g id="a_node50"><a xlink:title=" ">
<polygon fill="white" stroke="#bfbfbf" points="3230.34,-224.5 3230.34,-243.5 3325.34,-243.5 3325.34,-224.5 3230.34,-224.5"/>
<text text-anchor="middle" x="3277.84" y="-231.5" font-family="Helvetica,sans-Serif" font-size="10.00">QJsonDocument</text>
</a>
</g>
</g>
<!-- Node1&#45;&gt;Node86 -->
<g id="edge61" class="edge">
<title>Node1&#45;&gt;Node86</title>
<path fill="none" stroke="midnightblue" d="M2216.58,-293.98C2381.18,-292.1 2834,-283.54 3220.25,-244.05"/>
<polygon fill="midnightblue" stroke="midnightblue" points="3220.64,-247.53 3230.23,-243.02 3219.92,-240.57 3220.64,-247.53"/>
</g>
<!-- Node3 -->
<g id="node3" class="node">
<title>Node3</title>
<g id="a_node3"><a xlink:title=" ">
<polygon fill="white" stroke="#bfbfbf" points="213.34,-168.5 213.34,-187.5 380.34,-187.5 380.34,-168.5 213.34,-168.5"/>
<text text-anchor="middle" x="296.84" y="-175.5" font-family="Helvetica,sans-Serif" font-size="10.00">../vmisc/vabstractapplication.h</text>
</a>
</g>
</g>
<!-- Node2&#45;&gt;Node3 -->
<g id="edge2" class="edge">
<title>Node2&#45;&gt;Node3</title>
<path fill="none" stroke="midnightblue" d="M296.84,-224.08C296.84,-217.01 296.84,-206.86 296.84,-197.99"/>
<polygon fill="midnightblue" stroke="midnightblue" points="300.34,-197.75 296.84,-187.75 293.34,-197.75 300.34,-197.75"/>
</g>
<!-- Node4 -->
<g id="node4" class="node">
<title>Node4</title>
<g id="a_node4"><a xlink:href="../../d7/d5b/options_8h.html" target="_top" xlink:title=" ">
<polygon fill="white" stroke="black" points="398.34,-168.5 398.34,-187.5 469.34,-187.5 469.34,-168.5 398.34,-168.5"/>
<text text-anchor="middle" x="433.84" y="-175.5" font-family="Helvetica,sans-Serif" font-size="10.00">../options.h</text>
</a>
</g>
</g>
<!-- Node2&#45;&gt;Node4 -->
<g id="edge3" class="edge">
<title>Node2&#45;&gt;Node4</title>
<path fill="none" stroke="midnightblue" d="M318.55,-224.44C341.19,-215.52 376.91,-201.44 402.59,-191.32"/>
<polygon fill="midnightblue" stroke="midnightblue" points="404.21,-194.44 412.23,-187.52 401.64,-187.93 404.21,-194.44"/>
</g>
<!-- Node2&#45;&gt;Node9 -->
<g id="edge8" class="edge">
<title>Node2&#45;&gt;Node9</title>
<path fill="none" stroke="midnightblue" d="M266.89,-224.44C234.68,-215.24 183.3,-200.56 147.7,-190.39"/>
<polygon fill="midnightblue" stroke="midnightblue" points="148.22,-186.9 137.64,-187.52 146.3,-193.63 148.22,-186.9"/>
</g>
<!-- Node10 -->
<g id="node10" class="node">
<title>Node10</title>
<g id="a_node10"><a xlink:title=" ">
<polygon fill="white" stroke="#bfbfbf" points="487.34,-168.5 487.34,-187.5 648.34,-187.5 648.34,-168.5 487.34,-168.5"/>
<text text-anchor="middle" x="567.84" y="-175.5" font-family="Helvetica,sans-Serif" font-size="10.00">../vpatterndb/vtranslatevars.h</text>
</a>
</g>
</g>
<!-- Node2&#45;&gt;Node10 -->
<g id="edge9" class="edge">
<title>Node2&#45;&gt;Node10</title>
<path fill="none" stroke="midnightblue" d="M339.78,-224.44C387.35,-214.96 464.08,-199.67 515.23,-189.48"/>
<polygon fill="midnightblue" stroke="midnightblue" points="515.97,-192.9 525.1,-187.52 514.61,-186.04 515.97,-192.9"/>
</g>
<!-- Node11 -->
<g id="node11" class="node">
<title>Node11</title>
<g id="a_node11"><a xlink:href="../../dd/db2/vsettings_8h.html" target="_top" xlink:title=" ">
<polygon fill="white" stroke="black" points="807.34,-168.5 807.34,-187.5 878.34,-187.5 878.34,-168.5 807.34,-168.5"/>
<text text-anchor="middle" x="842.84" y="-175.5" font-family="Helvetica,sans-Serif" font-size="10.00">vsettings.h</text>
</a>
</g>
</g>
<!-- Node2&#45;&gt;Node11 -->
<g id="edge10" class="edge">
<title>Node2&#45;&gt;Node11</title>
<path fill="none" stroke="midnightblue" d="M339.93,-225.27C342.94,-224.81 345.93,-224.38 348.84,-224 513.13,-202.33 709.55,-187.81 796.97,-181.94"/>
<polygon fill="midnightblue" stroke="midnightblue" points="797.34,-185.42 807.08,-181.27 796.87,-178.44 797.34,-185.42"/>
</g>
<!-- Node34 -->
<g id="node22" class="node">
<title>Node34</title>
<g id="a_node22"><a xlink:href="../../dd/d57/vcmdexport_8h.html" target="_top" xlink:title=" ">
<polygon fill="white" stroke="red" points="1725.84,-168.5 1725.84,-187.5 1809.84,-187.5 1809.84,-168.5 1725.84,-168.5"/>
<text text-anchor="middle" x="1767.84" y="-175.5" font-family="Helvetica,sans-Serif" font-size="10.00">vcmdexport.h</text>
</a>
</g>
</g>
<!-- Node2&#45;&gt;Node34 -->
<g id="edge30" class="edge">
<title>Node2&#45;&gt;Node34</title>
<path fill="none" stroke="midnightblue" d="M339.9,-225.06C342.92,-224.65 345.92,-224.29 348.84,-224 913.79,-167.44 1058.65,-213.96 1625.84,-188 1655.46,-186.64 1688.54,-184.58 1715.3,-182.77"/>
<polygon fill="midnightblue" stroke="midnightblue" points="1715.87,-186.24 1725.61,-182.07 1715.39,-179.26 1715.87,-186.24"/>
</g>
<!-- Node5 -->
<g id="node5" class="node">
<title>Node5</title>
<g id="a_node5"><a xlink:title=" ">
<polygon fill="white" stroke="#bfbfbf" points="190.34,-112.5 190.34,-131.5 267.34,-131.5 267.34,-112.5 190.34,-112.5"/>
<text text-anchor="middle" x="228.84" y="-119.5" font-family="Helvetica,sans-Serif" font-size="10.00">../ifc/ifcdef.h</text>
</a>
</g>
</g>
<!-- Node4&#45;&gt;Node5 -->
<g id="edge4" class="edge">
<title>Node4&#45;&gt;Node5</title>
<path fill="none" stroke="midnightblue" d="M401.35,-168.44C366.12,-159.16 309.73,-144.31 271.08,-134.13"/>
<polygon fill="midnightblue" stroke="midnightblue" points="271.73,-130.68 261.17,-131.52 269.95,-137.45 271.73,-130.68"/>
</g>
<!-- Node6 -->
<g id="node6" class="node">
<title>Node6</title>
<g id="a_node6"><a xlink:title=" ">
<polygon fill="white" stroke="#bfbfbf" points="285.34,-112.5 285.34,-131.5 444.34,-131.5 444.34,-112.5 285.34,-112.5"/>
<text text-anchor="middle" x="364.84" y="-119.5" font-family="Helvetica,sans-Serif" font-size="10.00">../vgeometry/vgeometrydef.h</text>
</a>
</g>
</g>
<!-- Node4&#45;&gt;Node6 -->
<g id="edge5" class="edge">
<title>Node4&#45;&gt;Node6</title>
<path fill="none" stroke="midnightblue" d="M422.75,-168.32C412.35,-160.18 396.58,-147.84 384.12,-138.09"/>
<polygon fill="midnightblue" stroke="midnightblue" points="386.16,-135.24 376.13,-131.83 381.84,-140.75 386.16,-135.24"/>
</g>
<!-- Node7 -->
<g id="node7" class="node">
<title>Node7</title>
<g id="a_node7"><a xlink:title=" ">
<polygon fill="white" stroke="#bfbfbf" points="462.34,-112.5 462.34,-131.5 589.34,-131.5 589.34,-112.5 462.34,-112.5"/>
<text text-anchor="middle" x="525.84" y="-119.5" font-family="Helvetica,sans-Serif" font-size="10.00">../qmuparser/qmudef.h</text>
</a>
</g>
</g>
<!-- Node4&#45;&gt;Node7 -->
<g id="edge6" class="edge">
<title>Node4&#45;&gt;Node7</title>
<path fill="none" stroke="midnightblue" d="M448.62,-168.32C463.1,-159.82 485.41,-146.73 502.33,-136.8"/>
<polygon fill="midnightblue" stroke="midnightblue" points="504.24,-139.74 511.09,-131.65 500.7,-133.7 504.24,-139.74"/>
</g>
<!-- Node8 -->
<g id="node8" class="node">
<title>Node8</title>
<g id="a_node8"><a xlink:title=" ">
<polygon fill="white" stroke="#bfbfbf" points="89.84,-112.5 89.84,-131.5 171.84,-131.5 171.84,-112.5 89.84,-112.5"/>
<text text-anchor="middle" x="130.84" y="-119.5" font-family="Helvetica,sans-Serif" font-size="10.00">../vmisc/def.h</text>
</a>
</g>
</g>
<!-- Node4&#45;&gt;Node8 -->
<g id="edge7" class="edge">
<title>Node4&#45;&gt;Node8</title>
<path fill="none" stroke="midnightblue" d="M397.99,-169.74C394.9,-169.14 391.81,-168.56 388.84,-168 299.76,-151.39 274.91,-148.5 182.14,-132.22"/>
<polygon fill="midnightblue" stroke="midnightblue" points="182.49,-128.73 172.03,-130.44 181.28,-135.62 182.49,-128.73"/>
</g>
<!-- Node12 -->
<g id="node12" class="node">
<title>Node12</title>
<g id="a_node12"><a xlink:title=" ">
<polygon fill="white" stroke="#bfbfbf" points="783.84,-56.5 783.84,-75.5 863.84,-75.5 863.84,-56.5 783.84,-56.5"/>
<text text-anchor="middle" x="823.84" y="-63.5" font-family="Helvetica,sans-Serif" font-size="10.00">QMetaObject</text>
</a>
</g>
</g>
<!-- Node11&#45;&gt;Node12 -->
<g id="edge11" class="edge">
<title>Node11&#45;&gt;Node12</title>
<path fill="none" stroke="midnightblue" d="M836.73,-168.19C831.08,-159.46 823.08,-145.48 819.84,-132 816.15,-116.7 817.66,-98.81 819.8,-85.68"/>
<polygon fill="midnightblue" stroke="midnightblue" points="823.3,-86.03 821.73,-75.55 816.42,-84.72 823.3,-86.03"/>
</g>
<!-- Node13 -->
<g id="node13" class="node">
<title>Node13</title>
<g id="a_node13"><a xlink:title=" ">
<polygon fill="white" stroke="#bfbfbf" points="919.84,-56.5 919.84,-75.5 975.84,-75.5 975.84,-56.5 919.84,-56.5"/>
<text text-anchor="middle" x="947.84" y="-63.5" font-family="Helvetica,sans-Serif" font-size="10.00">QObject</text>
</a>
</g>
</g>
<!-- Node11&#45;&gt;Node13 -->
<g id="edge12" class="edge">
<title>Node11&#45;&gt;Node13</title>
<path fill="none" stroke="midnightblue" d="M878.49,-172.45C903.36,-167.22 934.84,-156 950.84,-132 959.84,-118.5 957.79,-99.69 954.27,-85.78"/>
<polygon fill="midnightblue" stroke="midnightblue" points="957.52,-84.44 951.3,-75.87 950.82,-86.45 957.52,-84.44"/>
</g>
<!-- Node14 -->
<g id="node14" class="node">
<title>Node14</title>
<g id="a_node14"><a xlink:title=" ">
<polygon fill="white" stroke="#bfbfbf" points="1115.84,-56.5 1115.84,-75.5 1179.84,-75.5 1179.84,-56.5 1115.84,-56.5"/>
<text text-anchor="middle" x="1147.84" y="-63.5" font-family="Helvetica,sans-Serif" font-size="10.00">QSettings</text>
</a>
</g>
</g>
<!-- Node11&#45;&gt;Node14 -->
<g id="edge13" class="edge">
<title>Node11&#45;&gt;Node14</title>
<path fill="none" stroke="midnightblue" d="M878.43,-174.65C942.01,-169.86 1071.9,-157.22 1108.84,-132 1125.11,-120.89 1135.68,-100.56 1141.66,-85.58"/>
<polygon fill="midnightblue" stroke="midnightblue" points="1145.08,-86.42 1145.22,-75.83 1138.5,-84.02 1145.08,-86.42"/>
</g>
<!-- Node15 -->
<g id="node15" class="node">
<title>Node15</title>
<g id="a_node15"><a xlink:title=" ">
<polygon fill="white" stroke="#bfbfbf" points="674.34,-56.5 674.34,-75.5 727.34,-75.5 727.34,-56.5 674.34,-56.5"/>
<text text-anchor="middle" x="700.84" y="-63.5" font-family="Helvetica,sans-Serif" font-size="10.00">QString</text>
</a>
</g>
</g>
<!-- Node11&#45;&gt;Node15 -->
<g id="edge14" class="edge">
<title>Node11&#45;&gt;Node15</title>
<path fill="none" stroke="midnightblue" d="M811.93,-168.49C790.46,-161.4 762.16,-149.59 741.84,-132 726.9,-119.07 715.53,-99.35 708.59,-85.03"/>
<polygon fill="midnightblue" stroke="midnightblue" points="711.68,-83.36 704.34,-75.72 705.31,-86.27 711.68,-83.36"/>
</g>
<!-- Node16 -->
<g id="node16" class="node">
<title>Node16</title>
<g id="a_node16"><a xlink:title=" ">
<polygon fill="white" stroke="#bfbfbf" points="794.34,-0.5 794.34,-19.5 853.34,-19.5 853.34,-0.5 794.34,-0.5"/>
<text text-anchor="middle" x="823.84" y="-7.5" font-family="Helvetica,sans-Serif" font-size="10.00">QtGlobal</text>
</a>
</g>
</g>
<!-- Node11&#45;&gt;Node16 -->
<g id="edge15" class="edge">
<title>Node11&#45;&gt;Node16</title>
<path fill="none" stroke="midnightblue" d="M834.43,-168.5C819.01,-152.22 786.69,-114.82 774.84,-76 772.24,-67.5 771.26,-64.14 774.84,-56 780.23,-43.73 790.8,-33.34 800.74,-25.65"/>
<polygon fill="midnightblue" stroke="midnightblue" points="803.09,-28.27 809.18,-19.6 799.01,-22.58 803.09,-28.27"/>
</g>
<!-- Node17 -->
<g id="node17" class="node">
<title>Node17</title>
<g id="a_node17"><a xlink:title=" ">
<polygon fill="white" stroke="#bfbfbf" points="1037.34,-112.5 1037.34,-131.5 1100.34,-131.5 1100.34,-112.5 1037.34,-112.5"/>
<text text-anchor="middle" x="1068.84" y="-119.5" font-family="Helvetica,sans-Serif" font-size="10.00">QMargins</text>
</a>
</g>
</g>
<!-- Node11&#45;&gt;Node17 -->
<g id="edge16" class="edge">
<title>Node11&#45;&gt;Node17</title>
<path fill="none" stroke="midnightblue" d="M878.4,-168.5C918.79,-158.85 984.62,-143.12 1027.33,-132.92"/>
<polygon fill="midnightblue" stroke="midnightblue" points="1028.22,-136.3 1037.13,-130.58 1026.59,-129.5 1028.22,-136.3"/>
</g>
<!-- Node18 -->
<g id="node18" class="node">
<title>Node18</title>
<g id="a_node18"><a xlink:href="../../d4/da4/def_8h.html" target="_top" xlink:title=" ">
<polygon fill="white" stroke="red" points="607.84,-112.5 607.84,-131.5 689.84,-131.5 689.84,-112.5 607.84,-112.5"/>
<text text-anchor="middle" x="648.84" y="-119.5" font-family="Helvetica,sans-Serif" font-size="10.00">../vmisc/def.h</text>
</a>
</g>
</g>
<!-- Node11&#45;&gt;Node18 -->
<g id="edge17" class="edge">
<title>Node11&#45;&gt;Node18</title>
<path fill="none" stroke="midnightblue" d="M812.1,-168.44C778.89,-159.2 725.85,-144.44 689.28,-134.26"/>
<polygon fill="midnightblue" stroke="midnightblue" points="690.01,-130.83 679.43,-131.52 688.13,-137.57 690.01,-130.83"/>
</g>
<!-- Node27 -->
<g id="node20" class="node">
<title>Node27</title>
<g id="a_node20"><a xlink:href="../../de/dec/vbank_8h.html" target="_top" xlink:title=" ">
<polygon fill="white" stroke="red" points="993.84,-56.5 993.84,-75.5 1097.84,-75.5 1097.84,-56.5 993.84,-56.5"/>
<text text-anchor="middle" x="1045.84" y="-63.5" font-family="Helvetica,sans-Serif" font-size="10.00">../vlayout/vbank.h</text>
</a>
</g>
</g>
<!-- Node11&#45;&gt;Node27 -->
<g id="edge21" class="edge">
<title>Node11&#45;&gt;Node27</title>
<path fill="none" stroke="midnightblue" d="M876.89,-168.43C903.1,-161 939.64,-148.8 968.84,-132 992.38,-118.46 1015.69,-97.43 1030.39,-82.99"/>
<polygon fill="midnightblue" stroke="midnightblue" points="1033.04,-85.28 1037.61,-75.72 1028.08,-80.34 1033.04,-85.28"/>
</g>
<!-- Node31 -->
<g id="node21" class="node">
<title>Node31</title>
<g id="a_node21"><a xlink:href="../../d4/d5c/vcommonsettings_8h.html" target="_top" xlink:title=" ">
<polygon fill="white" stroke="red" points="829.34,-112.5 829.34,-131.5 942.34,-131.5 942.34,-112.5 829.34,-112.5"/>
<text text-anchor="middle" x="885.84" y="-119.5" font-family="Helvetica,sans-Serif" font-size="10.00">vcommonsettings.h</text>
</a>
</g>
</g>
<!-- Node11&#45;&gt;Node31 -->
<g id="edge23" class="edge">
<title>Node11&#45;&gt;Node31</title>
<path fill="none" stroke="midnightblue" d="M849.94,-168.08C856.07,-160.38 865.11,-149.03 872.58,-139.65"/>
<polygon fill="midnightblue" stroke="midnightblue" points="875.38,-141.75 878.87,-131.75 869.9,-137.39 875.38,-141.75"/>
</g>
<!-- Node18&#45;&gt;Node15 -->
<g id="edge18" class="edge">
<title>Node18&#45;&gt;Node15</title>
<path fill="none" stroke="midnightblue" d="M657.42,-112.08C665,-104.22 676.22,-92.57 685.35,-83.08"/>
<polygon fill="midnightblue" stroke="midnightblue" points="688,-85.38 692.41,-75.75 682.95,-80.53 688,-85.38"/>
</g>
<!-- Node18&#45;&gt;Node16 -->
<g id="edge20" class="edge">
<title>Node18&#45;&gt;Node16</title>
<path fill="none" stroke="midnightblue" d="M648.4,-112.12C648.21,-98.23 649.98,-71.38 664.84,-56 695.86,-23.89 747.93,-14.19 783.99,-11.52"/>
<polygon fill="midnightblue" stroke="midnightblue" points="784.39,-15 794.16,-10.92 783.98,-8.01 784.39,-15"/>
</g>
<!-- Node18&#45;&gt;Node22 -->
<g id="edge19" class="edge">
<title>Node18&#45;&gt;Node22</title>
<path fill="none" stroke="midnightblue" d="M607.67,-113.58C604.34,-113.03 601.04,-112.5 597.84,-112 482.05,-94.01 343.07,-76.71 287.53,-69.96"/>
<polygon fill="midnightblue" stroke="midnightblue" points="287.91,-66.48 277.56,-68.76 287.07,-73.43 287.91,-66.48"/>
</g>
<!-- Node27&#45;&gt;Node16 -->
<g id="edge22" class="edge">
<title>Node27&#45;&gt;Node16</title>
<path fill="none" stroke="midnightblue" d="M1010.66,-56.44C970.56,-46.69 905.18,-30.79 863.36,-20.61"/>
<polygon fill="midnightblue" stroke="midnightblue" points="864.06,-17.18 853.52,-18.22 862.41,-23.98 864.06,-17.18"/>
</g>
<!-- Node31&#45;&gt;Node12 -->
<g id="edge24" class="edge">
<title>Node31&#45;&gt;Node12</title>
<path fill="none" stroke="midnightblue" d="M875.88,-112.32C866.71,-104.34 852.9,-92.31 841.81,-82.65"/>
<polygon fill="midnightblue" stroke="midnightblue" points="843.82,-79.76 833.98,-75.83 839.22,-85.04 843.82,-79.76"/>
</g>
<!-- Node31&#45;&gt;Node13 -->
<g id="edge25" class="edge">
<title>Node31&#45;&gt;Node13</title>
<path fill="none" stroke="midnightblue" d="M895.8,-112.32C904.96,-104.34 918.77,-92.31 929.87,-82.65"/>
<polygon fill="midnightblue" stroke="midnightblue" points="932.45,-85.04 937.69,-75.83 927.86,-79.76 932.45,-85.04"/>
</g>
<!-- Node31&#45;&gt;Node14 -->
<g id="edge26" class="edge">
<title>Node31&#45;&gt;Node14</title>
<path fill="none" stroke="midnightblue" d="M928.66,-112.48C971.12,-103.99 1038.3,-90.43 1105.68,-76.22"/>
<polygon fill="midnightblue" stroke="midnightblue" points="1106.56,-79.61 1115.62,-74.12 1105.11,-72.76 1106.56,-79.61"/>
</g>
<!-- Node31&#45;&gt;Node15 -->
<g id="edge27" class="edge">
<title>Node31&#45;&gt;Node15</title>
<path fill="none" stroke="midnightblue" d="M856.52,-112.44C824.25,-103.02 772.33,-87.87 737.42,-77.68"/>
<polygon fill="midnightblue" stroke="midnightblue" points="738.19,-74.26 727.61,-74.82 736.23,-80.98 738.19,-74.26"/>
</g>
<!-- Node31&#45;&gt;Node16 -->
<g id="edge28" class="edge">
<title>Node31&#45;&gt;Node16</title>
<path fill="none" stroke="midnightblue" d="M885.78,-112.42C885.35,-99.41 883.11,-74.25 872.84,-56 866.18,-44.17 855.3,-33.71 845.48,-25.86"/>
<polygon fill="midnightblue" stroke="midnightblue" points="847.36,-22.89 837.26,-19.67 843.14,-28.48 847.36,-22.89"/>
</g>
<!-- Node31&#45;&gt;Node27 -->
<g id="edge29" class="edge">
<title>Node31&#45;&gt;Node27</title>
<path fill="none" stroke="midnightblue" d="M911.19,-112.44C938.11,-103.36 980.83,-88.94 1010.92,-78.78"/>
<polygon fill="midnightblue" stroke="midnightblue" points="1012.25,-82.03 1020.6,-75.52 1010.01,-75.4 1012.25,-82.03"/>
</g>
<!-- Node53 -->
<g id="node29" class="node">
<title>Node53</title>
<g id="a_node29"><a xlink:href="../../dc/d73/projectversion_8h.html" target="_top" xlink:title=" ">
<polygon fill="white" stroke="black" points="1450.84,-168.5 1450.84,-187.5 1616.84,-187.5 1616.84,-168.5 1450.84,-168.5"/>
<text text-anchor="middle" x="1533.84" y="-175.5" font-family="Helvetica,sans-Serif" font-size="10.00">../../libs/vmisc/projectversion.h</text>
</a>
</g>
</g>
<!-- Node52&#45;&gt;Node53 -->
<g id="edge38" class="edge">
<title>Node52&#45;&gt;Node53</title>
<path fill="none" stroke="midnightblue" d="M1533.84,-224.08C1533.84,-217.01 1533.84,-206.86 1533.84,-197.99"/>
<polygon fill="midnightblue" stroke="midnightblue" points="1537.34,-197.75 1533.84,-187.75 1530.34,-197.75 1537.34,-197.75"/>
</g>
<!-- Node57&#45;&gt;Node34 -->
<g id="edge44" class="edge">
<title>Node57&#45;&gt;Node34</title>
<path fill="none" stroke="midnightblue" d="M2011.04,-224.44C1959.16,-214.75 1874.75,-198.98 1820.27,-188.8"/>
<polygon fill="midnightblue" stroke="midnightblue" points="1820.6,-185.3 1810.13,-186.9 1819.31,-192.18 1820.6,-185.3"/>
</g>
<!-- Node58 -->
<g id="node34" class="node">
<title>Node58</title>
<g id="a_node34"><a xlink:href="../../d1/d82/mainwindowsnogui_8h.html" target="_top" xlink:title=" ">
<polygon fill="white" stroke="red" points="1996.84,-168.5 1996.84,-187.5 2116.84,-187.5 2116.84,-168.5 1996.84,-168.5"/>
<text text-anchor="middle" x="2056.84" y="-175.5" font-family="Helvetica,sans-Serif" font-size="10.00">mainwindowsnogui.h</text>
</a>
</g>
</g>
<!-- Node57&#45;&gt;Node58 -->
<g id="edge43" class="edge">
<title>Node57&#45;&gt;Node58</title>
<path fill="none" stroke="midnightblue" d="M2056.84,-224.08C2056.84,-217.01 2056.84,-206.86 2056.84,-197.99"/>
<polygon fill="midnightblue" stroke="midnightblue" points="2060.34,-197.75 2056.84,-187.75 2053.34,-197.75 2060.34,-197.75"/>
</g>
<!-- Node71 -->
<g id="node35" class="node">
<title>Node71</title>
<g id="a_node35"><a xlink:title=" ">
<polygon fill="white" stroke="#bfbfbf" points="2135.34,-168.5 2135.34,-187.5 2256.34,-187.5 2256.34,-168.5 2135.34,-168.5"/>
<text text-anchor="middle" x="2195.84" y="-175.5" font-family="Helvetica,sans-Serif" font-size="10.00">../vmisc/vlockguard.h</text>
</a>
</g>
</g>
<!-- Node57&#45;&gt;Node71 -->
<g id="edge45" class="edge">
<title>Node57&#45;&gt;Node71</title>
<path fill="none" stroke="midnightblue" d="M2078.86,-224.44C2101.94,-215.48 2138.4,-201.31 2164.48,-191.18"/>
<polygon fill="midnightblue" stroke="midnightblue" points="2165.86,-194.4 2173.92,-187.52 2163.33,-187.88 2165.86,-194.4"/>
</g>
<!-- Node72 -->
<g id="node36" class="node">
<title>Node72</title>
<g id="a_node36"><a xlink:title=" ">
<polygon fill="white" stroke="#bfbfbf" points="1919.34,-168.5 1919.34,-187.5 1978.34,-187.5 1978.34,-168.5 1919.34,-168.5"/>
<text text-anchor="middle" x="1948.84" y="-175.5" font-family="Helvetica,sans-Serif" font-size="10.00">QPointer</text>
</a>
</g>
</g>
<!-- Node57&#45;&gt;Node72 -->
<g id="edge46" class="edge">
<title>Node57&#45;&gt;Node72</title>
<path fill="none" stroke="midnightblue" d="M2039.49,-224.32C2022.17,-215.66 1995.32,-202.24 1975.34,-192.25"/>
<polygon fill="midnightblue" stroke="midnightblue" points="1976.66,-189 1966.15,-187.65 1973.53,-195.26 1976.66,-189"/>
</g>
</g>
</svg>
        <g id="navigator" transform="translate(0 0)" fill="#404254">
                <rect fill="#f2f5e9" fill-opacity="0.5" stroke="#606060" stroke-width=".5" x="0" y="0" width="60" height="60"/>
                <use id="zoomplus" xlink:href="#zoomPlus" x="17" y="9" onmousedown="handleZoom(evt,'in')"/>
                <use id="zoomminus" xlink:href="#zoomMin" x="42" y="9" onmousedown="handleZoom(evt,'out')"/>
                <use id="reset" xlink:href="#resetDef" x="30" y="36" onmousedown="handleReset()"/>
                <g id="arrowUp" xlink:href="#dirArrow" transform="translate(30 24)" onmousedown="handlePan(0,-1)">
                  <use xlink:href="#rim" fill="#404040">
                        <set attributeName="fill" to="#808080" begin="arrowUp.mouseover" end="arrowUp.mouseout"/>
                  </use>
                  <path fill="none" stroke="white" stroke-width="1.5" d="M0,-3.0v7 M-2.5,-0.5L0,-3.0L2.5,-0.5"/>
                </g>
                <g id="arrowRight" xlink:href="#dirArrow" transform="rotate(90) translate(36 -43)" onmousedown="handlePan(1,0)">
                  <use xlink:href="#rim" fill="#404040">
                        <set attributeName="fill" to="#808080" begin="arrowRight.mouseover" end="arrowRight.mouseout"/>
                  </use>
                  <path fill="none" stroke="white" stroke-width="1.5" d="M0,-3.0v7 M-2.5,-0.5L0,-3.0L2.5,-0.5"/>
                </g>
                <g id="arrowDown" xlink:href="#dirArrow" transform="rotate(180) translate(-30 -48)" onmousedown="handlePan(0,1)">
                  <use xlink:href="#rim" fill="#404040">
                        <set attributeName="fill" to="#808080" begin="arrowDown.mouseover" end="arrowDown.mouseout"/>
                  </use>
                  <path fill="none" stroke="white" stroke-width="1.5" d="M0,-3.0v7 M-2.5,-0.5L0,-3.0L2.5,-0.5"/>
                </g>
                <g id="arrowLeft" xlink:href="#dirArrow" transform="rotate(270) translate(-36 17)" onmousedown="handlePan(-1,0)">
                  <use xlink:href="#rim" fill="#404040">
                        <set attributeName="fill" to="#808080" begin="arrowLeft.mouseover" end="arrowLeft.mouseout"/>
                  </use>
                  <path fill="none" stroke="white" stroke-width="1.5" d="M0,-3.0v7 M-2.5,-0.5L0,-3.0L2.5,-0.5"/>
                </g>
        </g>
        <svg viewBox="0 0 15 15" width="100%" height="30px" preserveAspectRatio="xMaxYMin meet">
         <g id="arrow_out" transform="scale(0.3 0.3)">
          <a xlink:href="vapplication_8cpp__incl_org.svg" target="_base">
           <rect id="button" ry="5" rx="5" y="6" x="6" height="38" width="38"
                fill="#f2f5e9" fill-opacity="0.5" stroke="#606060" stroke-width="1.0"/>
           <path id="arrow"
             d="M 11.500037,31.436501 C 11.940474,20.09759 22.043105,11.32322 32.158766,21.979434 L 37.068811,17.246167 C 37.068811,17.246167 37.088388,32 37.088388,32 L 22.160133,31.978069 C 22.160133,31.978069 26.997745,27.140456 26.997745,27.140456 C 18.528582,18.264221 13.291696,25.230495 11.500037,31.436501 z"
             style="fill:#404040;"/>
          </a>
         </g>
        </svg>
</svg>
