<?xml version="1.0" encoding="UTF-8" standalone="no"?>
<!DOCTYPE svg PUBLIC "-//W3C//DTD SVG 1.1//EN"
 "http://www.w3.org/Graphics/SVG/1.1/DTD/svg11.dtd">
<!-- Generated by graphviz version 2.43.0 (0)
 -->
<!-- Title: src/libs/tools/images/image_item.h Pages: 1 -->
<!--zoomable 296 -->
<svg id="main" version="1.1" xmlns="http://www.w3.org/2000/svg" xmlns:xlink="http://www.w3.org/1999/xlink" xml:space="preserve" onload="init(evt)">
<style type="text/css"><![CDATA[
.edge:hover path { stroke: red; }
.edge:hover polygon { stroke: red; fill: red; }
]]></style>
<script type="text/javascript"><![CDATA[
var edges = document.getElementsByTagName('g');
if (edges && edges.length) {
  for (var i=0;i<edges.length;i++) {
    if (edges[i].id.substr(0,4)=='edge') {
      edges[i].setAttribute('class','edge');
    }
  }
}
]]></script>
        <defs>
                <circle id="rim" cx="0" cy="0" r="7"/>
                <circle id="rim2" cx="0" cy="0" r="3.5"/>
                <g id="zoomPlus">
                        <use xlink:href="#rim" fill="#404040">
                                <set attributeName="fill" to="#808080" begin="zoomplus.mouseover" end="zoomplus.mouseout"/>
                        </use>
                        <path d="M-4,0h8M0,-4v8" fill="none" stroke="white" stroke-width="1.5" pointer-events="none"/>
                </g>
                <g id="zoomMin">
                        <use xlink:href="#rim" fill="#404040">
                                <set attributeName="fill" to="#808080" begin="zoomminus.mouseover" end="zoomminus.mouseout"/>
                        </use>
                        <path d="M-4,0h8" fill="none" stroke="white" stroke-width="1.5" pointer-events="none"/>
                </g>
                <g id="dirArrow">
                        <path fill="none" stroke="white" stroke-width="1.5" d="M0,-3.0v7 M-2.5,-0.5L0,-3.0L2.5,-0.5"/>
                </g>
               <g id="resetDef">
                       <use xlink:href="#rim2" fill="#404040">
                               <set attributeName="fill" to="#808080" begin="reset.mouseover" end="reset.mouseout"/>
                       </use>
               </g>
        </defs>

<script type="text/javascript">
var viewWidth = 1798;
var viewHeight = 296;
var sectionId = 'dynsection-1';
</script>
<script xlink:href="../../svgpan.js"/>
<svg id="graph" class="graph">
<g id="viewport">
<title>src/libs/tools/images/image_item.h</title>
<polygon fill="white" stroke="transparent" points="-4,4 -4,-292 1794,-292 1794,4 -4,4"/>
<!-- Node1 -->
<g id="node1" class="node">
<title>Node1</title>
<g id="a_node1"><a xlink:title=" ">
<polygon fill="#bfbfbf" stroke="black" points="1335.5,-257.5 1335.5,-287.5 1452.5,-287.5 1452.5,-257.5 1335.5,-257.5"/>
<text text-anchor="start" x="1343.5" y="-275.5" font-family="Helvetica,sans-Serif" font-size="10.00">src/libs/tools/images</text>
<text text-anchor="middle" x="1394" y="-264.5" font-family="Helvetica,sans-Serif" font-size="10.00">/image_item.h</text>
</a>
</g>
</g>
<!-- Node2 -->
<g id="node2" class="node">
<title>Node2</title>
<g id="a_node2"><a xlink:href="../../d0/d89/vabstractpattern_8h.html" target="_top" xlink:title=" ">
<polygon fill="white" stroke="black" points="1136.5,-196 1136.5,-215 1317.5,-215 1317.5,-196 1136.5,-196"/>
<text text-anchor="middle" x="1227" y="-203" font-family="Helvetica,sans-Serif" font-size="10.00">src/libs/ifc/xml/vabstractpattern.h</text>
</a>
</g>
</g>
<!-- Node1&#45;&gt;Node2 -->
<g id="edge1" class="edge">
<title>Node1&#45;&gt;Node2</title>
<path fill="none" stroke="midnightblue" d="M1348.07,-253.62C1315.74,-241.04 1273.93,-224.77 1248.86,-215.01"/>
<polygon fill="midnightblue" stroke="midnightblue" points="1347.17,-257.03 1357.76,-257.4 1349.71,-250.51 1347.17,-257.03"/>
</g>
<!-- Node21 -->
<g id="node21" class="node">
<title>Node21</title>
<g id="a_node21"><a xlink:href="../../df/d1e/image__item_8cpp.html" target="_top" xlink:title=" ">
<polygon fill="white" stroke="black" points="1335.5,-190.5 1335.5,-220.5 1452.5,-220.5 1452.5,-190.5 1335.5,-190.5"/>
<text text-anchor="start" x="1343.5" y="-208.5" font-family="Helvetica,sans-Serif" font-size="10.00">src/libs/tools/images</text>
<text text-anchor="middle" x="1394" y="-197.5" font-family="Helvetica,sans-Serif" font-size="10.00">/image_item.cpp</text>
</a>
</g>
</g>
<!-- Node1&#45;&gt;Node21 -->
<g id="edge22" class="edge">
<title>Node1&#45;&gt;Node21</title>
<path fill="none" stroke="midnightblue" d="M1394,-247.11C1394,-238.15 1394,-228.32 1394,-220.58"/>
<polygon fill="midnightblue" stroke="midnightblue" points="1390.5,-247.4 1394,-257.4 1397.5,-247.4 1390.5,-247.4"/>
</g>
<!-- Node22 -->
<g id="node22" class="node">
<title>Node22</title>
<g id="a_node22"><a xlink:href="../../d9/da3/image__tool_8cpp.html" target="_top" xlink:title=" ">
<polygon fill="white" stroke="black" points="1470.5,-190.5 1470.5,-220.5 1587.5,-220.5 1587.5,-190.5 1470.5,-190.5"/>
<text text-anchor="start" x="1478.5" y="-208.5" font-family="Helvetica,sans-Serif" font-size="10.00">src/libs/tools/images</text>
<text text-anchor="middle" x="1529" y="-197.5" font-family="Helvetica,sans-Serif" font-size="10.00">/image_tool.cpp</text>
</a>
</g>
</g>
<!-- Node1&#45;&gt;Node22 -->
<g id="edge23" class="edge">
<title>Node1&#45;&gt;Node22</title>
<path fill="none" stroke="midnightblue" d="M1432.44,-252.99C1453.84,-242.69 1480.05,-230.07 1499.76,-220.58"/>
<polygon fill="midnightblue" stroke="midnightblue" points="1430.78,-249.9 1423.29,-257.4 1433.82,-256.21 1430.78,-249.9"/>
</g>
<!-- Node3 -->
<g id="node3" class="node">
<title>Node3</title>
<g id="a_node3"><a xlink:href="../../de/d7d/vabstractpattern_8cpp.html" target="_top" xlink:title=" ">
<polygon fill="white" stroke="black" points="535,-129 535,-148 727,-148 727,-129 535,-129"/>
<text text-anchor="middle" x="631" y="-136" font-family="Helvetica,sans-Serif" font-size="10.00">src/libs/ifc/xml/vabstractpattern.cpp</text>
</a>
</g>
</g>
<!-- Node2&#45;&gt;Node3 -->
<g id="edge2" class="edge">
<title>Node2&#45;&gt;Node3</title>
<path fill="none" stroke="midnightblue" d="M1126.37,-195.18C1027.04,-185.74 870.9,-170.25 736,-154 721.11,-152.21 705.06,-150.09 690.09,-148.03"/>
<polygon fill="midnightblue" stroke="midnightblue" points="1126.11,-198.67 1136.4,-196.13 1126.77,-191.7 1126.11,-198.67"/>
</g>
<!-- Node4 -->
<g id="node4" class="node">
<title>Node4</title>
<g id="a_node4"><a xlink:href="../../d6/de0/vlayoutpiece_8h.html" target="_top" xlink:title=" ">
<polygon fill="white" stroke="black" points="745,-129 745,-148 911,-148 911,-129 745,-129"/>
<text text-anchor="middle" x="828" y="-136" font-family="Helvetica,sans-Serif" font-size="10.00">src/libs/vlayout/vlayoutpiece.h</text>
</a>
</g>
</g>
<!-- Node2&#45;&gt;Node4 -->
<g id="edge3" class="edge">
<title>Node2&#45;&gt;Node4</title>
<path fill="none" stroke="midnightblue" d="M1164.22,-194.27C1085.92,-181.52 953.47,-159.94 880.37,-148.03"/>
<polygon fill="midnightblue" stroke="midnightblue" points="1163.99,-197.78 1174.43,-195.94 1165.12,-190.87 1163.99,-197.78"/>
</g>
<!-- Node14 -->
<g id="node14" class="node">
<title>Node14</title>
<g id="a_node14"><a xlink:href="../../d8/d70/vtextmanager_8cpp.html" target="_top" xlink:title=" ">
<polygon fill="white" stroke="black" points="960,-129 960,-148 1142,-148 1142,-129 960,-129"/>
<text text-anchor="middle" x="1051" y="-136" font-family="Helvetica,sans-Serif" font-size="10.00">src/libs/vlayout/vtextmanager.cpp</text>
</a>
</g>
</g>
<!-- Node2&#45;&gt;Node14 -->
<g id="edge15" class="edge">
<title>Node2&#45;&gt;Node14</title>
<path fill="none" stroke="midnightblue" d="M1193.89,-192.27C1158.96,-179.37 1104.82,-159.38 1074.19,-148.06"/>
<polygon fill="midnightblue" stroke="midnightblue" points="1193.04,-195.69 1203.63,-195.87 1195.46,-189.12 1193.04,-195.69"/>
</g>
<!-- Node15 -->
<g id="node15" class="node">
<title>Node15</title>
<g id="a_node15"><a xlink:href="../../d0/da5/export__format__combobox_8h.html" target="_top" xlink:title=" ">
<polygon fill="white" stroke="black" points="1160.5,-123.5 1160.5,-153.5 1293.5,-153.5 1293.5,-123.5 1160.5,-123.5"/>
<text text-anchor="start" x="1168.5" y="-141.5" font-family="Helvetica,sans-Serif" font-size="10.00">src/libs/vwidgets/export</text>
<text text-anchor="middle" x="1227" y="-130.5" font-family="Helvetica,sans-Serif" font-size="10.00">_format_combobox.h</text>
</a>
</g>
</g>
<!-- Node2&#45;&gt;Node15 -->
<g id="edge16" class="edge">
<title>Node2&#45;&gt;Node15</title>
<path fill="none" stroke="midnightblue" d="M1227,-185.41C1227,-175.22 1227,-162.9 1227,-153.59"/>
<polygon fill="midnightblue" stroke="midnightblue" points="1223.5,-185.73 1227,-195.73 1230.5,-185.73 1223.5,-185.73"/>
</g>
<!-- Node17 -->
<g id="node17" class="node">
<title>Node17</title>
<g id="a_node17"><a xlink:href="../../d7/df4/group__tablewidgetitem_8cpp.html" target="_top" xlink:title=" ">
<polygon fill="white" stroke="black" points="1311.5,-123.5 1311.5,-153.5 1440.5,-153.5 1440.5,-123.5 1311.5,-123.5"/>
<text text-anchor="start" x="1319.5" y="-141.5" font-family="Helvetica,sans-Serif" font-size="10.00">src/libs/vwidgets/group</text>
<text text-anchor="middle" x="1376" y="-130.5" font-family="Helvetica,sans-Serif" font-size="10.00">_tablewidgetitem.cpp</text>
</a>
</g>
</g>
<!-- Node2&#45;&gt;Node17 -->
<g id="edge18" class="edge">
<title>Node2&#45;&gt;Node17</title>
<path fill="none" stroke="midnightblue" d="M1256.19,-191.77C1281.41,-180.77 1317.79,-164.89 1343.84,-153.53"/>
<polygon fill="midnightblue" stroke="midnightblue" points="1254.55,-188.66 1246.79,-195.87 1257.35,-195.08 1254.55,-188.66"/>
</g>
<!-- Node18 -->
<g id="node18" class="node">
<title>Node18</title>
<g id="a_node18"><a xlink:href="../../d3/d86/page__format__combobox_8h.html" target="_top" xlink:title=" ">
<polygon fill="white" stroke="black" points="1458.5,-123.5 1458.5,-153.5 1583.5,-153.5 1583.5,-123.5 1458.5,-123.5"/>
<text text-anchor="start" x="1466.5" y="-141.5" font-family="Helvetica,sans-Serif" font-size="10.00">src/libs/vwidgets/page</text>
<text text-anchor="middle" x="1521" y="-130.5" font-family="Helvetica,sans-Serif" font-size="10.00">_format_combobox.h</text>
</a>
</g>
</g>
<!-- Node2&#45;&gt;Node18 -->
<g id="edge19" class="edge">
<title>Node2&#45;&gt;Node18</title>
<path fill="none" stroke="midnightblue" d="M1275.65,-193.74C1325.64,-182.69 1403.65,-165.45 1458.25,-153.37"/>
<polygon fill="midnightblue" stroke="midnightblue" points="1274.75,-190.36 1265.74,-195.94 1276.26,-197.19 1274.75,-190.36"/>
</g>
<!-- Node20 -->
<g id="node20" class="node">
<title>Node20</title>
<g id="a_node20"><a xlink:href="../../de/d22/vsimplecurve_8cpp.html" target="_top" xlink:title=" ">
<polygon fill="white" stroke="black" points="1602,-129 1602,-148 1790,-148 1790,-129 1602,-129"/>
<text text-anchor="middle" x="1696" y="-136" font-family="Helvetica,sans-Serif" font-size="10.00">src/libs/vwidgets/vsimplecurve.cpp</text>
</a>
</g>
</g>
<!-- Node2&#45;&gt;Node20 -->
<g id="edge21" class="edge">
<title>Node2&#45;&gt;Node20</title>
<path fill="none" stroke="midnightblue" d="M1295.25,-194.52C1305.87,-192.99 1316.73,-191.44 1327,-190 1445.15,-173.44 1474.82,-170.32 1593,-154 1606.86,-152.09 1621.77,-150 1635.82,-148.03"/>
<polygon fill="midnightblue" stroke="midnightblue" points="1294.55,-191.08 1285.15,-195.97 1295.55,-198.01 1294.55,-191.08"/>
</g>
<!-- Node5 -->
<g id="node5" class="node">
<title>Node5</title>
<g id="a_node5"><a xlink:href="../../dd/d66/vdxfengine_8cpp.html" target="_top" xlink:title=" ">
<polygon fill="white" stroke="black" points="0,-62 0,-81 154,-81 154,-62 0,-62"/>
<text text-anchor="middle" x="77" y="-69" font-family="Helvetica,sans-Serif" font-size="10.00">src/libs/vdxf/vdxfengine.cpp</text>
</a>
</g>
</g>
<!-- Node4&#45;&gt;Node5 -->
<g id="edge4" class="edge">
<title>Node4&#45;&gt;Node5</title>
<path fill="none" stroke="midnightblue" d="M769.4,-127.42C758.33,-125.76 746.83,-124.19 736,-123 482.36,-95.11 416.49,-116.25 163,-87 149.76,-85.47 135.46,-83.28 122.4,-81.06"/>
<polygon fill="midnightblue" stroke="midnightblue" points="769,-130.9 779.41,-128.97 770.07,-123.99 769,-130.9"/>
</g>
<!-- Node6 -->
<g id="node6" class="node">
<title>Node6</title>
<g id="a_node6"><a xlink:href="../../de/da8/vbank_8cpp.html" target="_top" xlink:title=" ">
<polygon fill="white" stroke="black" points="172,-62 172,-81 316,-81 316,-62 172,-62"/>
<text text-anchor="middle" x="244" y="-69" font-family="Helvetica,sans-Serif" font-size="10.00">src/libs/vlayout/vbank.cpp</text>
</a>
</g>
</g>
<!-- Node4&#45;&gt;Node6 -->
<g id="edge5" class="edge">
<title>Node4&#45;&gt;Node6</title>
<path fill="none" stroke="midnightblue" d="M767.91,-127.42C757.3,-125.81 746.34,-124.27 736,-123 553.99,-100.71 506.76,-111.18 325,-87 312.82,-85.38 299.68,-83.21 287.61,-81.05"/>
<polygon fill="midnightblue" stroke="midnightblue" points="767.54,-130.9 777.95,-128.97 768.6,-123.98 767.54,-130.9"/>
</g>
<!-- Node7 -->
<g id="node7" class="node">
<title>Node7</title>
<g id="a_node7"><a xlink:href="../../df/d5d/vcontour_8cpp.html" target="_top" xlink:title=" ">
<polygon fill="white" stroke="black" points="334,-62 334,-81 490,-81 490,-62 334,-62"/>
<text text-anchor="middle" x="412" y="-69" font-family="Helvetica,sans-Serif" font-size="10.00">src/libs/vlayout/vcontour.cpp</text>
</a>
</g>
</g>
<!-- Node4&#45;&gt;Node7 -->
<g id="edge6" class="edge">
<title>Node4&#45;&gt;Node7</title>
<path fill="none" stroke="midnightblue" d="M763.94,-127.36C754.57,-125.89 745.04,-124.4 736,-123 630.71,-106.71 604.22,-103.76 499,-87 487.2,-85.12 474.52,-83.04 462.58,-81.06"/>
<polygon fill="midnightblue" stroke="midnightblue" points="763.59,-130.84 774.01,-128.94 764.67,-123.93 763.59,-130.84"/>
</g>
<!-- Node8 -->
<g id="node8" class="node">
<title>Node8</title>
<g id="a_node8"><a xlink:href="../../d3/d39/vlayoutgenerator_8cpp.html" target="_top" xlink:title=" ">
<polygon fill="white" stroke="black" points="508.5,-62 508.5,-81 705.5,-81 705.5,-62 508.5,-62"/>
<text text-anchor="middle" x="607" y="-69" font-family="Helvetica,sans-Serif" font-size="10.00">src/libs/vlayout/vlayoutgenerator.cpp</text>
</a>
</g>
</g>
<!-- Node4&#45;&gt;Node8 -->
<g id="edge7" class="edge">
<title>Node4&#45;&gt;Node8</title>
<path fill="none" stroke="midnightblue" d="M788.93,-126.01C745.19,-113.15 675.32,-92.59 636.12,-81.06"/>
<polygon fill="midnightblue" stroke="midnightblue" points="788.07,-129.4 798.65,-128.87 790.05,-122.69 788.07,-129.4"/>
</g>
<!-- Node9 -->
<g id="node9" class="node">
<title>Node9</title>
<g id="a_node9"><a xlink:href="../../d2/d2d/vlayoutpaper__p_8h.html" target="_top" xlink:title=" ">
<polygon fill="white" stroke="black" points="723.5,-62 723.5,-81 902.5,-81 902.5,-62 723.5,-62"/>
<text text-anchor="middle" x="813" y="-69" font-family="Helvetica,sans-Serif" font-size="10.00">src/libs/vlayout/vlayoutpaper_p.h</text>
</a>
</g>
</g>
<!-- Node4&#45;&gt;Node9 -->
<g id="edge8" class="edge">
<title>Node4&#45;&gt;Node9</title>
<path fill="none" stroke="midnightblue" d="M823.71,-118.91C820.84,-106.49 817.2,-90.72 814.99,-81.13"/>
<polygon fill="midnightblue" stroke="midnightblue" points="820.32,-119.78 825.98,-128.73 827.14,-118.2 820.32,-119.78"/>
</g>
<!-- Node10 -->
<g id="node10" class="node">
<title>Node10</title>
<g id="a_node10"><a xlink:href="../../d1/dd1/vlayoutpaper_8cpp.html" target="_top" xlink:title=" ">
<polygon fill="white" stroke="black" points="842,-0.5 842,-19.5 1020,-19.5 1020,-0.5 842,-0.5"/>
<text text-anchor="middle" x="931" y="-7.5" font-family="Helvetica,sans-Serif" font-size="10.00">src/libs/vlayout/vlayoutpaper.cpp</text>
</a>
</g>
</g>
<!-- Node4&#45;&gt;Node10 -->
<g id="edge10" class="edge">
<title>Node4&#45;&gt;Node10</title>
<path fill="none" stroke="midnightblue" d="M860.76,-124.78C878.08,-116.48 898.32,-104 911,-87 926.33,-66.44 929.93,-35.09 930.76,-19.89"/>
<polygon fill="midnightblue" stroke="midnightblue" points="859.17,-121.66 851.5,-128.97 862.06,-128.04 859.17,-121.66"/>
</g>
<!-- Node11 -->
<g id="node11" class="node">
<title>Node11</title>
<g id="a_node11"><a xlink:href="../../dd/d70/vlayoutpiece_8cpp.html" target="_top" xlink:title=" ">
<polygon fill="white" stroke="black" points="958.5,-62 958.5,-81 1135.5,-81 1135.5,-62 958.5,-62"/>
<text text-anchor="middle" x="1047" y="-69" font-family="Helvetica,sans-Serif" font-size="10.00">src/libs/vlayout/vlayoutpiece.cpp</text>
</a>
</g>
</g>
<!-- Node4&#45;&gt;Node11 -->
<g id="edge11" class="edge">
<title>Node4&#45;&gt;Node11</title>
<path fill="none" stroke="midnightblue" d="M866.71,-126.01C910.06,-113.15 979.3,-92.59 1018.15,-81.06"/>
<polygon fill="midnightblue" stroke="midnightblue" points="865.67,-122.67 857.08,-128.87 867.66,-129.38 865.67,-122.67"/>
</g>
<!-- Node12 -->
<g id="node12" class="node">
<title>Node12</title>
<g id="a_node12"><a xlink:href="../../db/d5c/vposition_8h.html" target="_top" xlink:title=" ">
<polygon fill="white" stroke="black" points="1154,-62 1154,-81 1302,-81 1302,-62 1154,-62"/>
<text text-anchor="middle" x="1228" y="-69" font-family="Helvetica,sans-Serif" font-size="10.00">src/libs/vlayout/vposition.h</text>
</a>
</g>
</g>
<!-- Node4&#45;&gt;Node12 -->
<g id="edge12" class="edge">
<title>Node4&#45;&gt;Node12</title>
<path fill="none" stroke="midnightblue" d="M892.48,-127.44C956.37,-117.41 1056.99,-101.46 1144,-87 1155.39,-85.11 1167.63,-83.02 1179.16,-81.04"/>
<polygon fill="midnightblue" stroke="midnightblue" points="891.89,-123.99 882.55,-128.99 892.98,-130.9 891.89,-123.99"/>
</g>
<!-- Node9&#45;&gt;Node10 -->
<g id="edge9" class="edge">
<title>Node9&#45;&gt;Node10</title>
<path fill="none" stroke="midnightblue" d="M839.05,-57.37C861.92,-45.83 894.51,-29.4 914.12,-19.51"/>
<polygon fill="midnightblue" stroke="midnightblue" points="837.26,-54.35 829.91,-61.98 840.41,-60.6 837.26,-54.35"/>
</g>
<!-- Node12&#45;&gt;Node10 -->
<g id="edge13" class="edge">
<title>Node12&#45;&gt;Node10</title>
<path fill="none" stroke="midnightblue" d="M1175.46,-59.97C1117.9,-48.44 1026.7,-30.17 973.47,-19.51"/>
<polygon fill="midnightblue" stroke="midnightblue" points="1174.95,-63.44 1185.45,-61.98 1176.33,-56.58 1174.95,-63.44"/>
</g>
<!-- Node13 -->
<g id="node13" class="node">
<title>Node13</title>
<g id="a_node13"><a xlink:href="../../df/d76/vposition_8cpp.html" target="_top" xlink:title=" ">
<polygon fill="white" stroke="black" points="1148.5,-0.5 1148.5,-19.5 1307.5,-19.5 1307.5,-0.5 1148.5,-0.5"/>
<text text-anchor="middle" x="1228" y="-7.5" font-family="Helvetica,sans-Serif" font-size="10.00">src/libs/vlayout/vposition.cpp</text>
</a>
</g>
</g>
<!-- Node12&#45;&gt;Node13 -->
<g id="edge14" class="edge">
<title>Node12&#45;&gt;Node13</title>
<path fill="none" stroke="midnightblue" d="M1228,-51.82C1228,-41 1228,-27.9 1228,-19.51"/>
<polygon fill="midnightblue" stroke="midnightblue" points="1224.5,-51.98 1228,-61.98 1231.5,-51.98 1224.5,-51.98"/>
</g>
<!-- Node16 -->
<g id="node16" class="node">
<title>Node16</title>
<g id="a_node16"><a xlink:href="../../df/d40/export__format__combobox_8cpp.html" target="_top" xlink:title=" ">
<polygon fill="white" stroke="black" points="1320.5,-56.5 1320.5,-86.5 1453.5,-86.5 1453.5,-56.5 1320.5,-56.5"/>
<text text-anchor="start" x="1328.5" y="-74.5" font-family="Helvetica,sans-Serif" font-size="10.00">src/libs/vwidgets/export</text>
<text text-anchor="middle" x="1387" y="-63.5" font-family="Helvetica,sans-Serif" font-size="10.00">_format_combobox.cpp</text>
</a>
</g>
</g>
<!-- Node15&#45;&gt;Node16 -->
<g id="edge17" class="edge">
<title>Node15&#45;&gt;Node16</title>
<path fill="none" stroke="midnightblue" d="M1271.2,-119.54C1296.8,-109.14 1328.57,-96.24 1352.35,-86.58"/>
<polygon fill="midnightblue" stroke="midnightblue" points="1269.66,-116.39 1261.72,-123.4 1272.3,-122.87 1269.66,-116.39"/>
</g>
<!-- Node19 -->
<g id="node19" class="node">
<title>Node19</title>
<g id="a_node19"><a xlink:href="../../d2/d28/page__format__combobox_8cpp.html" target="_top" xlink:title=" ">
<polygon fill="white" stroke="black" points="1471.5,-56.5 1471.5,-86.5 1602.5,-86.5 1602.5,-56.5 1471.5,-56.5"/>
<text text-anchor="start" x="1479.5" y="-74.5" font-family="Helvetica,sans-Serif" font-size="10.00">src/libs/vwidgets/page</text>
<text text-anchor="middle" x="1537" y="-63.5" font-family="Helvetica,sans-Serif" font-size="10.00">_format_combobox.cpp</text>
</a>
</g>
</g>
<!-- Node18&#45;&gt;Node19 -->
<g id="edge20" class="edge">
<title>Node18&#45;&gt;Node19</title>
<path fill="none" stroke="midnightblue" d="M1526.93,-113.4C1529.16,-104.37 1531.61,-94.41 1533.54,-86.58"/>
<polygon fill="midnightblue" stroke="midnightblue" points="1523.46,-112.85 1524.47,-123.4 1530.26,-114.52 1523.46,-112.85"/>
</g>
</g>
</svg>
        <g id="navigator" transform="translate(0 0)" fill="#404254">
                <rect fill="#f2f5e9" fill-opacity="0.5" stroke="#606060" stroke-width=".5" x="0" y="0" width="60" height="60"/>
                <use id="zoomplus" xlink:href="#zoomPlus" x="17" y="9" onmousedown="handleZoom(evt,'in')"/>
                <use id="zoomminus" xlink:href="#zoomMin" x="42" y="9" onmousedown="handleZoom(evt,'out')"/>
                <use id="reset" xlink:href="#resetDef" x="30" y="36" onmousedown="handleReset()"/>
                <g id="arrowUp" xlink:href="#dirArrow" transform="translate(30 24)" onmousedown="handlePan(0,-1)">
                  <use xlink:href="#rim" fill="#404040">
                        <set attributeName="fill" to="#808080" begin="arrowUp.mouseover" end="arrowUp.mouseout"/>
                  </use>
                  <path fill="none" stroke="white" stroke-width="1.5" d="M0,-3.0v7 M-2.5,-0.5L0,-3.0L2.5,-0.5"/>
                </g>
                <g id="arrowRight" xlink:href="#dirArrow" transform="rotate(90) translate(36 -43)" onmousedown="handlePan(1,0)">
                  <use xlink:href="#rim" fill="#404040">
                        <set attributeName="fill" to="#808080" begin="arrowRight.mouseover" end="arrowRight.mouseout"/>
                  </use>
                  <path fill="none" stroke="white" stroke-width="1.5" d="M0,-3.0v7 M-2.5,-0.5L0,-3.0L2.5,-0.5"/>
                </g>
                <g id="arrowDown" xlink:href="#dirArrow" transform="rotate(180) translate(-30 -48)" onmousedown="handlePan(0,1)">
                  <use xlink:href="#rim" fill="#404040">
                        <set attributeName="fill" to="#808080" begin="arrowDown.mouseover" end="arrowDown.mouseout"/>
                  </use>
                  <path fill="none" stroke="white" stroke-width="1.5" d="M0,-3.0v7 M-2.5,-0.5L0,-3.0L2.5,-0.5"/>
                </g>
                <g id="arrowLeft" xlink:href="#dirArrow" transform="rotate(270) translate(-36 17)" onmousedown="handlePan(-1,0)">
                  <use xlink:href="#rim" fill="#404040">
                        <set attributeName="fill" to="#808080" begin="arrowLeft.mouseover" end="arrowLeft.mouseout"/>
                  </use>
                  <path fill="none" stroke="white" stroke-width="1.5" d="M0,-3.0v7 M-2.5,-0.5L0,-3.0L2.5,-0.5"/>
                </g>
        </g>
        <svg viewBox="0 0 15 15" width="100%" height="30px" preserveAspectRatio="xMaxYMin meet">
         <g id="arrow_out" transform="scale(0.3 0.3)">
          <a xlink:href="image__item_8h__dep__incl_org.svg" target="_base">
           <rect id="button" ry="5" rx="5" y="6" x="6" height="38" width="38"
                fill="#f2f5e9" fill-opacity="0.5" stroke="#606060" stroke-width="1.0"/>
           <path id="arrow"
             d="M 11.500037,31.436501 C 11.940474,20.09759 22.043105,11.32322 32.158766,21.979434 L 37.068811,17.246167 C 37.068811,17.246167 37.088388,32 37.088388,32 L 22.160133,31.978069 C 22.160133,31.978069 26.997745,27.140456 26.997745,27.140456 C 18.528582,18.264221 13.291696,25.230495 11.500037,31.436501 z"
             style="fill:#404040;"/>
          </a>
         </g>
        </svg>
</svg>
