<?xml version="1.0" encoding="UTF-8" standalone="no"?>
<!DOCTYPE svg PUBLIC "-//W3C//DTD SVG 1.1//EN"
 "http://www.w3.org/Graphics/SVG/1.1/DTD/svg11.dtd">
<!-- Generated by graphviz version 2.43.0 (0)
 -->
<!-- Title: src/libs/vgeometry/vpointf.h Pages: 1 -->
<!--zoomable 307 -->
<svg id="main" version="1.1" xmlns="http://www.w3.org/2000/svg" xmlns:xlink="http://www.w3.org/1999/xlink" xml:space="preserve" onload="init(evt)">
<style type="text/css"><![CDATA[
.edge:hover path { stroke: red; }
.edge:hover polygon { stroke: red; fill: red; }
]]></style>
<script type="text/javascript"><![CDATA[
var edges = document.getElementsByTagName('g');
if (edges && edges.length) {
  for (var i=0;i<edges.length;i++) {
    if (edges[i].id.substr(0,4)=='edge') {
      edges[i].setAttribute('class','edge');
    }
  }
}
]]></script>
        <defs>
                <circle id="rim" cx="0" cy="0" r="7"/>
                <circle id="rim2" cx="0" cy="0" r="3.5"/>
                <g id="zoomPlus">
                        <use xlink:href="#rim" fill="#404040">
                                <set attributeName="fill" to="#808080" begin="zoomplus.mouseover" end="zoomplus.mouseout"/>
                        </use>
                        <path d="M-4,0h8M0,-4v8" fill="none" stroke="white" stroke-width="1.5" pointer-events="none"/>
                </g>
                <g id="zoomMin">
                        <use xlink:href="#rim" fill="#404040">
                                <set attributeName="fill" to="#808080" begin="zoomminus.mouseover" end="zoomminus.mouseout"/>
                        </use>
                        <path d="M-4,0h8" fill="none" stroke="white" stroke-width="1.5" pointer-events="none"/>
                </g>
                <g id="dirArrow">
                        <path fill="none" stroke="white" stroke-width="1.5" d="M0,-3.0v7 M-2.5,-0.5L0,-3.0L2.5,-0.5"/>
                </g>
               <g id="resetDef">
                       <use xlink:href="#rim2" fill="#404040">
                               <set attributeName="fill" to="#808080" begin="reset.mouseover" end="reset.mouseout"/>
                       </use>
               </g>
        </defs>

<script type="text/javascript">
var viewWidth = 3747;
var viewHeight = 307;
var sectionId = 'dynsection-1';
</script>
<script xlink:href="../../svgpan.js"/>
<svg id="graph" class="graph">
<g id="viewport">
<title>src/libs/vgeometry/vpointf.h</title>
<polygon fill="white" stroke="transparent" points="-4,4 -4,-303 3743,-303 3743,4 -4,4"/>
<!-- Node1 -->
<g id="node1" class="node">
<title>Node1</title>
<g id="a_node1"><a xlink:title=" ">
<polygon fill="#bfbfbf" stroke="black" points="1373,-268.5 1373,-298.5 1480,-298.5 1480,-268.5 1373,-268.5"/>
<text text-anchor="start" x="1381" y="-286.5" font-family="Helvetica,sans-Serif" font-size="10.00">src/libs/vgeometry</text>
<text text-anchor="middle" x="1426.5" y="-275.5" font-family="Helvetica,sans-Serif" font-size="10.00">/vpointf.h</text>
</a>
</g>
</g>
<!-- Node2 -->
<g id="node2" class="node">
<title>Node2</title>
<g id="a_node2"><a xlink:href="../../d4/da1/vabstractarc_8cpp.html" target="_top" xlink:title=" ">
<polygon fill="white" stroke="black" points="0,-123.5 0,-153.5 107,-153.5 107,-123.5 0,-123.5"/>
<text text-anchor="start" x="8" y="-141.5" font-family="Helvetica,sans-Serif" font-size="10.00">src/libs/vgeometry</text>
<text text-anchor="middle" x="53.5" y="-130.5" font-family="Helvetica,sans-Serif" font-size="10.00">/vabstractarc.cpp</text>
</a>
</g>
</g>
<!-- Node1&#45;&gt;Node2 -->
<g id="edge1" class="edge">
<title>Node1&#45;&gt;Node2</title>
<path fill="none" stroke="midnightblue" d="M1362.26,-282.63C1094.4,-282.84 78.22,-280.44 31.5,-232 10.99,-210.73 29.92,-173.98 43.16,-153.8"/>
<polygon fill="midnightblue" stroke="midnightblue" points="1362.59,-286.13 1372.59,-282.62 1362.58,-279.13 1362.59,-286.13"/>
</g>
<!-- Node3 -->
<g id="node3" class="node">
<title>Node3</title>
<g id="a_node3"><a xlink:href="../../da/d75/vabstractarc__p_8h.html" target="_top" xlink:title=" ">
<polygon fill="white" stroke="black" points="41,-196 41,-226 148,-226 148,-196 41,-196"/>
<text text-anchor="start" x="49" y="-214" font-family="Helvetica,sans-Serif" font-size="10.00">src/libs/vgeometry</text>
<text text-anchor="middle" x="94.5" y="-203" font-family="Helvetica,sans-Serif" font-size="10.00">/vabstractarc_p.h</text>
</a>
</g>
</g>
<!-- Node1&#45;&gt;Node3 -->
<g id="edge2" class="edge">
<title>Node1&#45;&gt;Node3</title>
<path fill="none" stroke="midnightblue" d="M1362.55,-282.21C1138.93,-280.85 392.79,-273.26 157.5,-232 149.47,-230.59 141.06,-228.43 133.08,-226.03"/>
<polygon fill="midnightblue" stroke="midnightblue" points="1362.78,-285.71 1372.8,-282.27 1362.82,-278.71 1362.78,-285.71"/>
</g>
<!-- Node4 -->
<g id="node4" class="node">
<title>Node4</title>
<g id="a_node4"><a xlink:href="../../d5/d5a/vabstractcubicbezier_8cpp.html" target="_top" xlink:title=" ">
<polygon fill="white" stroke="black" points="166.5,-196 166.5,-226 306.5,-226 306.5,-196 166.5,-196"/>
<text text-anchor="start" x="174.5" y="-214" font-family="Helvetica,sans-Serif" font-size="10.00">src/libs/vgeometry</text>
<text text-anchor="middle" x="236.5" y="-203" font-family="Helvetica,sans-Serif" font-size="10.00">/vabstractcubicbezier.cpp</text>
</a>
</g>
</g>
<!-- Node1&#45;&gt;Node4 -->
<g id="edge4" class="edge">
<title>Node1&#45;&gt;Node4</title>
<path fill="none" stroke="midnightblue" d="M1362.43,-281.16C1158.17,-276.63 523.84,-260.59 320.5,-232 310.11,-230.54 299.12,-228.38 288.64,-226.02"/>
<polygon fill="midnightblue" stroke="midnightblue" points="1362.62,-284.66 1372.69,-281.38 1362.77,-277.67 1362.62,-284.66"/>
</g>
<!-- Node5 -->
<g id="node5" class="node">
<title>Node5</title>
<g id="a_node5"><a xlink:href="../../de/d12/varc_8h.html" target="_top" xlink:title=" ">
<polygon fill="white" stroke="black" points="652,-196 652,-226 759,-226 759,-196 652,-196"/>
<text text-anchor="start" x="660" y="-214" font-family="Helvetica,sans-Serif" font-size="10.00">src/libs/vgeometry</text>
<text text-anchor="middle" x="705.5" y="-203" font-family="Helvetica,sans-Serif" font-size="10.00">/varc.h</text>
</a>
</g>
</g>
<!-- Node1&#45;&gt;Node5 -->
<g id="edge5" class="edge">
<title>Node1&#45;&gt;Node5</title>
<path fill="none" stroke="midnightblue" d="M1362.42,-281.97C1244.77,-280.01 986.82,-271.17 773.5,-232 765.27,-230.49 756.61,-228.37 748.34,-226.07"/>
<polygon fill="midnightblue" stroke="midnightblue" points="1362.63,-285.47 1372.69,-282.12 1362.74,-278.47 1362.63,-285.47"/>
</g>
<!-- Node7 -->
<g id="node7" class="node">
<title>Node7</title>
<g id="a_node7"><a xlink:href="../../d6/d46/vcontainer_8cpp.html" target="_top" xlink:title=" ">
<polygon fill="white" stroke="black" points="313,-123.5 313,-153.5 420,-153.5 420,-123.5 313,-123.5"/>
<text text-anchor="start" x="321" y="-141.5" font-family="Helvetica,sans-Serif" font-size="10.00">src/libs/vpatterndb</text>
<text text-anchor="middle" x="366.5" y="-130.5" font-family="Helvetica,sans-Serif" font-size="10.00">/vcontainer.cpp</text>
</a>
</g>
</g>
<!-- Node1&#45;&gt;Node7 -->
<g id="edge50" class="edge">
<title>Node1&#45;&gt;Node7</title>
<path fill="none" stroke="midnightblue" d="M1362.7,-281.9C1137.08,-279.47 388.46,-268.65 353.5,-232 333.35,-210.88 347.96,-173.73 358.42,-153.53"/>
<polygon fill="midnightblue" stroke="midnightblue" points="1362.69,-285.4 1372.73,-282.01 1362.77,-278.4 1362.69,-285.4"/>
</g>
<!-- Node8 -->
<g id="node8" class="node">
<title>Node8</title>
<g id="a_node8"><a xlink:href="../../df/d7a/vpiece_8cpp.html" target="_top" xlink:title=" ">
<polygon fill="white" stroke="black" points="563,-123.5 563,-153.5 670,-153.5 670,-123.5 563,-123.5"/>
<text text-anchor="start" x="571" y="-141.5" font-family="Helvetica,sans-Serif" font-size="10.00">src/libs/vpatterndb</text>
<text text-anchor="middle" x="616.5" y="-130.5" font-family="Helvetica,sans-Serif" font-size="10.00">/vpiece.cpp</text>
</a>
</g>
</g>
<!-- Node1&#45;&gt;Node8 -->
<g id="edge52" class="edge">
<title>Node1&#45;&gt;Node8</title>
<path fill="none" stroke="midnightblue" d="M1362.74,-282.55C1185.79,-282.13 697.91,-276.86 642.5,-232 619.03,-213 615.75,-174.63 615.84,-153.77"/>
<polygon fill="midnightblue" stroke="midnightblue" points="1362.93,-286.05 1372.94,-282.57 1362.95,-279.05 1362.93,-286.05"/>
</g>
<!-- Node9 -->
<g id="node9" class="node">
<title>Node9</title>
<g id="a_node9"><a xlink:href="../../db/d0a/vabstractcubicbezierpath_8cpp.html" target="_top" xlink:title=" ">
<polygon fill="white" stroke="black" points="813,-123.5 813,-153.5 976,-153.5 976,-123.5 813,-123.5"/>
<text text-anchor="start" x="821" y="-141.5" font-family="Helvetica,sans-Serif" font-size="10.00">src/libs/vgeometry</text>
<text text-anchor="middle" x="894.5" y="-130.5" font-family="Helvetica,sans-Serif" font-size="10.00">/vabstractcubicbezierpath.cpp</text>
</a>
</g>
</g>
<!-- Node1&#45;&gt;Node9 -->
<g id="edge9" class="edge">
<title>Node1&#45;&gt;Node9</title>
<path fill="none" stroke="midnightblue" d="M1362.74,-282.09C1212.04,-280.45 843.66,-272.31 806.5,-232 793.85,-218.28 797.15,-206.15 806.5,-190 816.21,-173.23 833.82,-161.55 850.75,-153.68"/>
<polygon fill="midnightblue" stroke="midnightblue" points="1362.74,-285.59 1372.78,-282.19 1362.82,-278.59 1362.74,-285.59"/>
</g>
<!-- Node10 -->
<g id="node10" class="node">
<title>Node10</title>
<g id="a_node10"><a xlink:href="../../d5/dd5/vcubicbezier_8h.html" target="_top" xlink:title=" ">
<polygon fill="white" stroke="black" points="1664,-196 1664,-226 1771,-226 1771,-196 1664,-196"/>
<text text-anchor="start" x="1672" y="-214" font-family="Helvetica,sans-Serif" font-size="10.00">src/libs/vgeometry</text>
<text text-anchor="middle" x="1717.5" y="-203" font-family="Helvetica,sans-Serif" font-size="10.00">/vcubicbezier.h</text>
</a>
</g>
</g>
<!-- Node1&#45;&gt;Node10 -->
<g id="edge10" class="edge">
<title>Node1&#45;&gt;Node10</title>
<path fill="none" stroke="midnightblue" d="M1490.09,-270.01C1536.03,-260.59 1599.42,-246.81 1654.5,-232 1661.15,-230.21 1668.14,-228.16 1674.95,-226.07"/>
<polygon fill="midnightblue" stroke="midnightblue" points="1489.37,-266.58 1480.27,-272.01 1490.76,-273.44 1489.37,-266.58"/>
</g>
<!-- Node12 -->
<g id="node12" class="node">
<title>Node12</title>
<g id="a_node12"><a xlink:href="../../d5/d8e/vcubicbezier__p_8h.html" target="_top" xlink:title=" ">
<polygon fill="white" stroke="black" points="1789,-196 1789,-226 1896,-226 1896,-196 1789,-196"/>
<text text-anchor="start" x="1797" y="-214" font-family="Helvetica,sans-Serif" font-size="10.00">src/libs/vgeometry</text>
<text text-anchor="middle" x="1842.5" y="-203" font-family="Helvetica,sans-Serif" font-size="10.00">/vcubicbezier_p.h</text>
</a>
</g>
</g>
<!-- Node1&#45;&gt;Node12 -->
<g id="edge12" class="edge">
<title>Node1&#45;&gt;Node12</title>
<path fill="none" stroke="midnightblue" d="M1490.38,-276.57C1561.54,-269.23 1679.7,-254.82 1779.5,-232 1786.77,-230.34 1794.41,-228.23 1801.77,-226.01"/>
<polygon fill="midnightblue" stroke="midnightblue" points="1489.82,-273.11 1480.23,-277.6 1490.53,-280.07 1489.82,-273.11"/>
</g>
<!-- Node13 -->
<g id="node13" class="node">
<title>Node13</title>
<g id="a_node13"><a xlink:href="../../d7/dbf/vcubicbezierpath__p_8h.html" target="_top" xlink:title=" ">
<polygon fill="white" stroke="black" points="1066,-196 1066,-226 1189,-226 1189,-196 1066,-196"/>
<text text-anchor="start" x="1074" y="-214" font-family="Helvetica,sans-Serif" font-size="10.00">src/libs/vgeometry</text>
<text text-anchor="middle" x="1127.5" y="-203" font-family="Helvetica,sans-Serif" font-size="10.00">/vcubicbezierpath_p.h</text>
</a>
</g>
</g>
<!-- Node1&#45;&gt;Node13 -->
<g id="edge14" class="edge">
<title>Node1&#45;&gt;Node13</title>
<path fill="none" stroke="midnightblue" d="M1363.06,-269.45C1317.19,-259.78 1253.81,-245.9 1198.5,-232 1191.17,-230.16 1183.45,-228.1 1175.91,-226.03"/>
<polygon fill="midnightblue" stroke="midnightblue" points="1362.35,-272.88 1372.86,-271.51 1363.79,-266.03 1362.35,-272.88"/>
</g>
<!-- Node15 -->
<g id="node15" class="node">
<title>Node15</title>
<g id="a_node15"><a xlink:href="../../dd/dbe/vcubicbezierpath_8h.html" target="_top" xlink:title=" ">
<polygon fill="white" stroke="black" points="1207.5,-196 1207.5,-226 1319.5,-226 1319.5,-196 1207.5,-196"/>
<text text-anchor="start" x="1215.5" y="-214" font-family="Helvetica,sans-Serif" font-size="10.00">src/libs/vgeometry</text>
<text text-anchor="middle" x="1263.5" y="-203" font-family="Helvetica,sans-Serif" font-size="10.00">/vcubicbezierpath.h</text>
</a>
</g>
</g>
<!-- Node1&#45;&gt;Node15 -->
<g id="edge16" class="edge">
<title>Node1&#45;&gt;Node15</title>
<path fill="none" stroke="midnightblue" d="M1384.52,-264.34C1356.96,-252.42 1321.45,-237.07 1296.04,-226.07"/>
<polygon fill="midnightblue" stroke="midnightblue" points="1383.34,-267.65 1393.91,-268.4 1386.12,-261.22 1383.34,-267.65"/>
</g>
<!-- Node16 -->
<g id="node16" class="node">
<title>Node16</title>
<g id="a_node16"><a xlink:href="../../da/ddf/vellipticalarc_8h.html" target="_top" xlink:title=" ">
<polygon fill="white" stroke="black" points="363,-196 363,-226 470,-226 470,-196 363,-196"/>
<text text-anchor="start" x="371" y="-214" font-family="Helvetica,sans-Serif" font-size="10.00">src/libs/vgeometry</text>
<text text-anchor="middle" x="416.5" y="-203" font-family="Helvetica,sans-Serif" font-size="10.00">/vellipticalarc.h</text>
</a>
</g>
</g>
<!-- Node1&#45;&gt;Node16 -->
<g id="edge18" class="edge">
<title>Node1&#45;&gt;Node16</title>
<path fill="none" stroke="midnightblue" d="M1362.88,-281.25C1178.96,-277.31 648.9,-263.47 478.5,-232 470.71,-230.56 462.55,-228.42 454.8,-226.05"/>
<polygon fill="midnightblue" stroke="midnightblue" points="1362.86,-284.75 1372.94,-281.47 1363.01,-277.76 1362.86,-284.75"/>
</g>
<!-- Node18 -->
<g id="node18" class="node">
<title>Node18</title>
<g id="a_node18"><a xlink:href="../../df/dde/vellipticalarc__p_8h.html" target="_top" xlink:title=" ">
<polygon fill="white" stroke="black" points="488,-196 488,-226 595,-226 595,-196 488,-196"/>
<text text-anchor="start" x="496" y="-214" font-family="Helvetica,sans-Serif" font-size="10.00">src/libs/vgeometry</text>
<text text-anchor="middle" x="541.5" y="-203" font-family="Helvetica,sans-Serif" font-size="10.00">/vellipticalarc_p.h</text>
</a>
</g>
</g>
<!-- Node1&#45;&gt;Node18 -->
<g id="edge21" class="edge">
<title>Node1&#45;&gt;Node18</title>
<path fill="none" stroke="midnightblue" d="M1362.56,-283.39C1224.12,-284.27 886.76,-280.71 609.5,-232 601.14,-230.53 592.34,-228.4 583.96,-226.07"/>
<polygon fill="midnightblue" stroke="midnightblue" points="1362.99,-286.89 1372.97,-283.32 1362.94,-279.89 1362.99,-286.89"/>
</g>
<!-- Node19 -->
<g id="node19" class="node">
<title>Node19</title>
<g id="a_node19"><a xlink:href="../../dd/da8/vpointf_8cpp.html" target="_top" xlink:title=" ">
<polygon fill="white" stroke="black" points="1914,-196 1914,-226 2021,-226 2021,-196 1914,-196"/>
<text text-anchor="start" x="1922" y="-214" font-family="Helvetica,sans-Serif" font-size="10.00">src/libs/vgeometry</text>
<text text-anchor="middle" x="1967.5" y="-203" font-family="Helvetica,sans-Serif" font-size="10.00">/vpointf.cpp</text>
</a>
</g>
</g>
<!-- Node1&#45;&gt;Node19 -->
<g id="edge23" class="edge">
<title>Node1&#45;&gt;Node19</title>
<path fill="none" stroke="midnightblue" d="M1490.26,-279.97C1582.67,-275.37 1758.83,-263.04 1905.5,-232 1912.91,-230.43 1920.69,-228.31 1928.14,-226.04"/>
<polygon fill="midnightblue" stroke="midnightblue" points="1490.04,-276.48 1480.22,-280.46 1490.38,-283.47 1490.04,-276.48"/>
</g>
<!-- Node20 -->
<g id="node20" class="node">
<title>Node20</title>
<g id="a_node20"><a xlink:href="../../d1/d76/vspline__p_8h.html" target="_top" xlink:title=" ">
<polygon fill="white" stroke="black" points="941,-196 941,-226 1048,-226 1048,-196 941,-196"/>
<text text-anchor="start" x="949" y="-214" font-family="Helvetica,sans-Serif" font-size="10.00">src/libs/vgeometry</text>
<text text-anchor="middle" x="994.5" y="-203" font-family="Helvetica,sans-Serif" font-size="10.00">/vspline_p.h</text>
</a>
</g>
</g>
<!-- Node1&#45;&gt;Node20 -->
<g id="edge24" class="edge">
<title>Node1&#45;&gt;Node20</title>
<path fill="none" stroke="midnightblue" d="M1362.85,-277.25C1288.64,-270.35 1162.61,-256.16 1056.5,-232 1049.33,-230.37 1041.81,-228.28 1034.57,-226.06"/>
<polygon fill="midnightblue" stroke="midnightblue" points="1362.69,-280.75 1372.97,-278.18 1363.33,-273.78 1362.69,-280.75"/>
</g>
<!-- Node22 -->
<g id="node22" class="node">
<title>Node22</title>
<g id="a_node22"><a xlink:href="../../d0/d39/vsplinepath_8h.html" target="_top" xlink:title=" ">
<polygon fill="white" stroke="black" points="1338,-123.5 1338,-153.5 1445,-153.5 1445,-123.5 1338,-123.5"/>
<text text-anchor="start" x="1346" y="-141.5" font-family="Helvetica,sans-Serif" font-size="10.00">src/libs/vgeometry</text>
<text text-anchor="middle" x="1391.5" y="-130.5" font-family="Helvetica,sans-Serif" font-size="10.00">/vsplinepath.h</text>
</a>
</g>
</g>
<!-- Node1&#45;&gt;Node22 -->
<g id="edge26" class="edge">
<title>Node1&#45;&gt;Node22</title>
<path fill="none" stroke="midnightblue" d="M1414.75,-259.14C1410.96,-250.76 1407.08,-241.13 1404.5,-232 1396.83,-204.84 1393.58,-171.87 1392.29,-153.53"/>
<polygon fill="midnightblue" stroke="midnightblue" points="1411.64,-260.75 1419.07,-268.3 1417.97,-257.76 1411.64,-260.75"/>
</g>
<!-- Node24 -->
<g id="node24" class="node">
<title>Node24</title>
<g id="a_node24"><a xlink:href="../../d1/d3a/abstracttest_8cpp.html" target="_top" xlink:title=" ">
<polygon fill="white" stroke="black" points="1086,-62 1086,-81 1247,-81 1247,-62 1086,-62"/>
<text text-anchor="middle" x="1166.5" y="-69" font-family="Helvetica,sans-Serif" font-size="10.00">src/libs/vtest/abstracttest.cpp</text>
</a>
</g>
</g>
<!-- Node1&#45;&gt;Node24 -->
<g id="edge54" class="edge">
<title>Node1&#45;&gt;Node24</title>
<path fill="none" stroke="midnightblue" d="M1409.54,-260.28C1379.54,-221.43 1317.63,-143.31 1289.5,-123 1261.61,-102.87 1224.52,-89.06 1198.39,-81.04"/>
<polygon fill="midnightblue" stroke="midnightblue" points="1406.9,-262.59 1415.77,-268.38 1412.45,-258.32 1406.9,-262.59"/>
</g>
<!-- Node27 -->
<g id="node27" class="node">
<title>Node27</title>
<g id="a_node27"><a xlink:href="../../df/d4b/vsplinepoint_8h.html" target="_top" xlink:title=" ">
<polygon fill="white" stroke="black" points="1414,-196 1414,-226 1521,-226 1521,-196 1414,-196"/>
<text text-anchor="start" x="1422" y="-214" font-family="Helvetica,sans-Serif" font-size="10.00">src/libs/vgeometry</text>
<text text-anchor="middle" x="1467.5" y="-203" font-family="Helvetica,sans-Serif" font-size="10.00">/vsplinepoint.h</text>
</a>
</g>
</g>
<!-- Node1&#45;&gt;Node27 -->
<g id="edge31" class="edge">
<title>Node1&#45;&gt;Node27</title>
<path fill="none" stroke="midnightblue" d="M1439.84,-259.56C1446.22,-248.59 1453.66,-235.8 1459.22,-226.25"/>
<polygon fill="midnightblue" stroke="midnightblue" points="1436.8,-257.83 1434.8,-268.23 1442.85,-261.35 1436.8,-257.83"/>
</g>
<!-- Node30 -->
<g id="node30" class="node">
<title>Node30</title>
<g id="a_node30"><a xlink:href="../../da/db2/vsplinepoint__p_8h.html" target="_top" xlink:title=" ">
<polygon fill="white" stroke="black" points="1539,-196 1539,-226 1646,-226 1646,-196 1539,-196"/>
<text text-anchor="start" x="1547" y="-214" font-family="Helvetica,sans-Serif" font-size="10.00">src/libs/vgeometry</text>
<text text-anchor="middle" x="1592.5" y="-203" font-family="Helvetica,sans-Serif" font-size="10.00">/vsplinepoint_p.h</text>
</a>
</g>
</g>
<!-- Node1&#45;&gt;Node30 -->
<g id="edge37" class="edge">
<title>Node1&#45;&gt;Node30</title>
<path fill="none" stroke="midnightblue" d="M1469.25,-264.34C1497.32,-252.42 1533.48,-237.07 1559.36,-226.07"/>
<polygon fill="midnightblue" stroke="midnightblue" points="1467.53,-261.27 1459.69,-268.4 1470.27,-267.72 1467.53,-261.27"/>
</g>
<!-- Node31 -->
<g id="node31" class="node">
<title>Node31</title>
<g id="a_node31"><a xlink:href="../../d8/dfd/vspline_8h.html" target="_top" xlink:title=" ">
<polygon fill="white" stroke="black" points="816,-196 816,-226 923,-226 923,-196 816,-196"/>
<text text-anchor="start" x="824" y="-214" font-family="Helvetica,sans-Serif" font-size="10.00">src/libs/vgeometry</text>
<text text-anchor="middle" x="869.5" y="-203" font-family="Helvetica,sans-Serif" font-size="10.00">/vspline.h</text>
</a>
</g>
</g>
<!-- Node1&#45;&gt;Node31 -->
<g id="edge39" class="edge">
<title>Node1&#45;&gt;Node31</title>
<path fill="none" stroke="midnightblue" d="M1362.81,-280.28C1267.93,-276.02 1084.24,-264.05 931.5,-232 924.08,-230.44 916.3,-228.33 908.86,-226.06"/>
<polygon fill="midnightblue" stroke="midnightblue" points="1362.68,-283.78 1372.83,-280.72 1362.99,-276.79 1362.68,-283.78"/>
</g>
<!-- Node32 -->
<g id="node32" class="node">
<title>Node32</title>
<g id="a_node32"><a xlink:href="../../d9/d15/vabstractpiece_8cpp.html" target="_top" xlink:title=" ">
<polygon fill="white" stroke="black" points="2039.5,-201.5 2039.5,-220.5 2225.5,-220.5 2225.5,-201.5 2039.5,-201.5"/>
<text text-anchor="middle" x="2132.5" y="-208.5" font-family="Helvetica,sans-Serif" font-size="10.00">src/libs/vlayout/vabstractpiece.cpp</text>
</a>
</g>
</g>
<!-- Node1&#45;&gt;Node32 -->
<g id="edge48" class="edge">
<title>Node1&#45;&gt;Node32</title>
<path fill="none" stroke="midnightblue" d="M1490.35,-279.48C1600.83,-273.74 1834.63,-259.31 2030.5,-232 2051.77,-229.03 2075.3,-224.5 2094.4,-220.51"/>
<polygon fill="midnightblue" stroke="midnightblue" points="1489.85,-276 1480.04,-280.01 1490.21,-282.99 1489.85,-276"/>
</g>
<!-- Node33 -->
<g id="node33" class="node">
<title>Node33</title>
<g id="a_node33"><a xlink:href="../../dd/d70/vlayoutpiece_8cpp.html" target="_top" xlink:title=" ">
<polygon fill="white" stroke="black" points="2243,-201.5 2243,-220.5 2420,-220.5 2420,-201.5 2243,-201.5"/>
<text text-anchor="middle" x="2331.5" y="-208.5" font-family="Helvetica,sans-Serif" font-size="10.00">src/libs/vlayout/vlayoutpiece.cpp</text>
</a>
</g>
</g>
<!-- Node1&#45;&gt;Node33 -->
<g id="edge49" class="edge">
<title>Node1&#45;&gt;Node33</title>
<path fill="none" stroke="midnightblue" d="M1490.48,-281.56C1627.5,-278.88 1959.22,-268.8 2234.5,-232 2255.12,-229.24 2277.92,-224.62 2296.23,-220.52"/>
<polygon fill="midnightblue" stroke="midnightblue" points="1490.1,-278.07 1480.17,-281.75 1490.24,-285.06 1490.1,-278.07"/>
</g>
<!-- Node34 -->
<g id="node34" class="node">
<title>Node34</title>
<g id="a_node34"><a xlink:href="../../d6/d91/vnodedetail_8cpp.html" target="_top" xlink:title=" ">
<polygon fill="white" stroke="black" points="2438,-196 2438,-226 2545,-226 2545,-196 2438,-196"/>
<text text-anchor="start" x="2446" y="-214" font-family="Helvetica,sans-Serif" font-size="10.00">src/libs/vpatterndb</text>
<text text-anchor="middle" x="2491.5" y="-203" font-family="Helvetica,sans-Serif" font-size="10.00">/vnodedetail.cpp</text>
</a>
</g>
</g>
<!-- Node1&#45;&gt;Node34 -->
<g id="edge51" class="edge">
<title>Node1&#45;&gt;Node34</title>
<path fill="none" stroke="midnightblue" d="M1490.49,-281.46C1681.93,-278.02 2248.15,-265.22 2429.5,-232 2437.29,-230.57 2445.45,-228.43 2453.2,-226.07"/>
<polygon fill="midnightblue" stroke="midnightblue" points="1490.24,-277.97 1480.31,-281.64 1490.37,-284.97 1490.24,-277.97"/>
</g>
<!-- Node35 -->
<g id="node35" class="node">
<title>Node35</title>
<g id="a_node35"><a xlink:href="../../da/de1/vpiecepath_8cpp.html" target="_top" xlink:title=" ">
<polygon fill="white" stroke="black" points="2563,-196 2563,-226 2670,-226 2670,-196 2563,-196"/>
<text text-anchor="start" x="2571" y="-214" font-family="Helvetica,sans-Serif" font-size="10.00">src/libs/vpatterndb</text>
<text text-anchor="middle" x="2616.5" y="-203" font-family="Helvetica,sans-Serif" font-size="10.00">/vpiecepath.cpp</text>
</a>
</g>
</g>
<!-- Node1&#45;&gt;Node35 -->
<g id="edge53" class="edge">
<title>Node1&#45;&gt;Node35</title>
<path fill="none" stroke="midnightblue" d="M1490.21,-281.88C1696.96,-279.53 2347.83,-269.26 2554.5,-232 2562.4,-230.58 2570.69,-228.4 2578.54,-226.01"/>
<polygon fill="midnightblue" stroke="midnightblue" points="1490.08,-278.38 1480.12,-281.99 1490.16,-285.38 1490.08,-278.38"/>
</g>
<!-- Node36 -->
<g id="node36" class="node">
<title>Node36</title>
<g id="a_node36"><a xlink:href="../../d3/d22/insert__nodes__dialog_8cpp.html" target="_top" xlink:title=" ">
<polygon fill="white" stroke="black" points="2688.5,-196 2688.5,-226 2852.5,-226 2852.5,-196 2688.5,-196"/>
<text text-anchor="start" x="2696.5" y="-214" font-family="Helvetica,sans-Serif" font-size="10.00">src/libs/vtools/dialogs</text>
<text text-anchor="middle" x="2770.5" y="-203" font-family="Helvetica,sans-Serif" font-size="10.00">/tools/insert_nodes_dialog.cpp</text>
</a>
</g>
</g>
<!-- Node1&#45;&gt;Node36 -->
<g id="edge55" class="edge">
<title>Node1&#45;&gt;Node36</title>
<path fill="none" stroke="midnightblue" d="M1490.28,-281.41C1711.62,-277.42 2445.83,-262.15 2679.5,-232 2690.73,-230.55 2702.62,-228.4 2713.98,-226.04"/>
<polygon fill="midnightblue" stroke="midnightblue" points="1490.07,-277.92 1480.13,-281.6 1490.19,-284.92 1490.07,-277.92"/>
</g>
<!-- Node37 -->
<g id="node37" class="node">
<title>Node37</title>
<g id="a_node37"><a xlink:href="../../de/d46/pattern__piece__dialog_8cpp.html" target="_top" xlink:title=" ">
<polygon fill="white" stroke="black" points="2871,-190.5 2871,-231.5 3014,-231.5 3014,-190.5 2871,-190.5"/>
<text text-anchor="start" x="2879" y="-219.5" font-family="Helvetica,sans-Serif" font-size="10.00">src/libs/vtools/dialogs</text>
<text text-anchor="start" x="2879" y="-208.5" font-family="Helvetica,sans-Serif" font-size="10.00">/tools/piece/pattern_piece</text>
<text text-anchor="middle" x="2942.5" y="-197.5" font-family="Helvetica,sans-Serif" font-size="10.00">_dialog.cpp</text>
</a>
</g>
</g>
<!-- Node1&#45;&gt;Node37 -->
<g id="edge56" class="edge">
<title>Node1&#45;&gt;Node37</title>
<path fill="none" stroke="midnightblue" d="M1490.07,-282.01C1731.41,-279.88 2590.87,-269.76 2861.5,-232 2864.51,-231.58 2867.58,-231.09 2870.66,-230.56"/>
<polygon fill="midnightblue" stroke="midnightblue" points="1490.03,-278.51 1480.06,-282.1 1490.09,-285.51 1490.03,-278.51"/>
</g>
<!-- Node38 -->
<g id="node38" class="node">
<title>Node38</title>
<g id="a_node38"><a xlink:href="../../d4/d7b/vnodepoint_8cpp.html" target="_top" xlink:title=" ">
<polygon fill="white" stroke="black" points="3032.5,-196 3032.5,-226 3188.5,-226 3188.5,-196 3032.5,-196"/>
<text text-anchor="start" x="3040.5" y="-214" font-family="Helvetica,sans-Serif" font-size="10.00">src/libs/vtools/tools</text>
<text text-anchor="middle" x="3110.5" y="-203" font-family="Helvetica,sans-Serif" font-size="10.00">/nodeDetails/vnodepoint.cpp</text>
</a>
</g>
</g>
<!-- Node1&#45;&gt;Node38 -->
<g id="edge57" class="edge">
<title>Node1&#45;&gt;Node38</title>
<path fill="none" stroke="midnightblue" d="M1490.63,-282.14C1749.67,-280.4 2719.43,-271.38 3023.5,-232 3034.41,-230.59 3045.96,-228.42 3056.96,-226.02"/>
<polygon fill="midnightblue" stroke="midnightblue" points="1490.25,-278.64 1480.27,-282.2 1490.29,-285.64 1490.25,-278.64"/>
</g>
<!-- Node39 -->
<g id="node39" class="node">
<title>Node39</title>
<g id="a_node39"><a xlink:href="../../d8/d76/scene__rect_8cpp.html" target="_top" xlink:title=" ">
<polygon fill="white" stroke="black" points="3206.5,-196 3206.5,-226 3336.5,-226 3336.5,-196 3206.5,-196"/>
<text text-anchor="start" x="3214.5" y="-214" font-family="Helvetica,sans-Serif" font-size="10.00">src/libs/vwidgets/scene</text>
<text text-anchor="middle" x="3271.5" y="-203" font-family="Helvetica,sans-Serif" font-size="10.00">_rect.cpp</text>
</a>
</g>
</g>
<!-- Node1&#45;&gt;Node39 -->
<g id="edge58" class="edge">
<title>Node1&#45;&gt;Node39</title>
<path fill="none" stroke="midnightblue" d="M1490.26,-282.69C1766.11,-283.2 2858.19,-281.98 3197.5,-232 3206.85,-230.62 3216.7,-228.47 3226.06,-226.08"/>
<polygon fill="midnightblue" stroke="midnightblue" points="1490.03,-279.19 1480.02,-282.67 1490.02,-286.19 1490.03,-279.19"/>
</g>
<!-- Node40 -->
<g id="node40" class="node">
<title>Node40</title>
<g id="a_node40"><a xlink:href="../../d0/d5d/vscenepoint_8cpp.html" target="_top" xlink:title=" ">
<polygon fill="white" stroke="black" points="3355,-201.5 3355,-220.5 3536,-220.5 3536,-201.5 3355,-201.5"/>
<text text-anchor="middle" x="3445.5" y="-208.5" font-family="Helvetica,sans-Serif" font-size="10.00">src/libs/vwidgets/vscenepoint.cpp</text>
</a>
</g>
</g>
<!-- Node1&#45;&gt;Node40 -->
<g id="edge59" class="edge">
<title>Node1&#45;&gt;Node40</title>
<path fill="none" stroke="midnightblue" d="M1490.68,-282.29C1781.1,-281.1 2974.19,-273.71 3345.5,-232 3367.32,-229.55 3391.46,-224.78 3410.56,-220.51"/>
<polygon fill="midnightblue" stroke="midnightblue" points="1490.31,-278.79 1480.33,-282.33 1490.34,-285.79 1490.31,-278.79"/>
</g>
<!-- Node41 -->
<g id="node41" class="node">
<title>Node41</title>
<g id="a_node41"><a xlink:href="../../df/d38/vsimplepoint_8cpp.html" target="_top" xlink:title=" ">
<polygon fill="white" stroke="black" points="3554,-201.5 3554,-220.5 3739,-220.5 3739,-201.5 3554,-201.5"/>
<text text-anchor="middle" x="3646.5" y="-208.5" font-family="Helvetica,sans-Serif" font-size="10.00">src/libs/vwidgets/vsimplepoint.cpp</text>
</a>
</g>
</g>
<!-- Node1&#45;&gt;Node41 -->
<g id="edge60" class="edge">
<title>Node1&#45;&gt;Node41</title>
<path fill="none" stroke="midnightblue" d="M1490.22,-282.46C1797.95,-282.02 3132.29,-277.49 3545.5,-232 3567.53,-229.57 3591.92,-224.81 3611.21,-220.53"/>
<polygon fill="midnightblue" stroke="midnightblue" points="1490.13,-278.96 1480.14,-282.47 1490.14,-285.96 1490.13,-278.96"/>
</g>
<!-- Node3&#45;&gt;Node2 -->
<g id="edge3" class="edge">
<title>Node3&#45;&gt;Node2</title>
<path fill="none" stroke="midnightblue" d="M81.16,-187.06C74.78,-176.09 67.34,-163.3 61.78,-153.75"/>
<polygon fill="midnightblue" stroke="midnightblue" points="78.15,-188.85 86.2,-195.73 84.2,-185.33 78.15,-188.85"/>
</g>
<!-- Node6 -->
<g id="node6" class="node">
<title>Node6</title>
<g id="a_node6"><a xlink:href="../../d5/ded/varc_8cpp.html" target="_top" xlink:title=" ">
<polygon fill="white" stroke="black" points="688,-123.5 688,-153.5 795,-153.5 795,-123.5 688,-123.5"/>
<text text-anchor="start" x="696" y="-141.5" font-family="Helvetica,sans-Serif" font-size="10.00">src/libs/vgeometry</text>
<text text-anchor="middle" x="741.5" y="-130.5" font-family="Helvetica,sans-Serif" font-size="10.00">/varc.cpp</text>
</a>
</g>
</g>
<!-- Node5&#45;&gt;Node6 -->
<g id="edge6" class="edge">
<title>Node5&#45;&gt;Node6</title>
<path fill="none" stroke="midnightblue" d="M717.38,-186.73C722.95,-175.83 729.4,-163.2 734.23,-153.75"/>
<polygon fill="midnightblue" stroke="midnightblue" points="714.22,-185.24 712.79,-195.73 720.45,-188.42 714.22,-185.24"/>
</g>
<!-- Node5&#45;&gt;Node7 -->
<g id="edge7" class="edge">
<title>Node5&#45;&gt;Node7</title>
<path fill="none" stroke="midnightblue" d="M642.01,-197.4C573.35,-183.73 468.37,-162.69 428.5,-154 425.8,-153.41 423.04,-152.8 420.25,-152.17"/>
<polygon fill="midnightblue" stroke="midnightblue" points="641.38,-200.84 651.87,-199.36 642.74,-193.97 641.38,-200.84"/>
</g>
<!-- Node5&#45;&gt;Node8 -->
<g id="edge8" class="edge">
<title>Node5&#45;&gt;Node8</title>
<path fill="none" stroke="midnightblue" d="M679.35,-189.29C664.81,-177.77 647.09,-163.73 634.18,-153.5"/>
<polygon fill="midnightblue" stroke="midnightblue" points="677.48,-192.27 687.49,-195.73 681.82,-186.78 677.48,-192.27"/>
</g>
<!-- Node11 -->
<g id="node11" class="node">
<title>Node11</title>
<g id="a_node11"><a xlink:href="../../d2/d26/vcubicbezier_8cpp.html" target="_top" xlink:title=" ">
<polygon fill="white" stroke="black" points="1754,-123.5 1754,-153.5 1861,-153.5 1861,-123.5 1754,-123.5"/>
<text text-anchor="start" x="1762" y="-141.5" font-family="Helvetica,sans-Serif" font-size="10.00">src/libs/vgeometry</text>
<text text-anchor="middle" x="1807.5" y="-130.5" font-family="Helvetica,sans-Serif" font-size="10.00">/vcubicbezier.cpp</text>
</a>
</g>
</g>
<!-- Node10&#45;&gt;Node11 -->
<g id="edge11" class="edge">
<title>Node10&#45;&gt;Node11</title>
<path fill="none" stroke="midnightblue" d="M1743.94,-189.29C1758.65,-177.77 1776.56,-163.73 1789.62,-153.5"/>
<polygon fill="midnightblue" stroke="midnightblue" points="1741.43,-186.81 1735.71,-195.73 1745.74,-192.32 1741.43,-186.81"/>
</g>
<!-- Node12&#45;&gt;Node11 -->
<g id="edge13" class="edge">
<title>Node12&#45;&gt;Node11</title>
<path fill="none" stroke="midnightblue" d="M1830.95,-186.73C1825.54,-175.83 1819.27,-163.2 1814.57,-153.75"/>
<polygon fill="midnightblue" stroke="midnightblue" points="1827.84,-188.33 1835.42,-195.73 1834.11,-185.22 1827.84,-188.33"/>
</g>
<!-- Node14 -->
<g id="node14" class="node">
<title>Node14</title>
<g id="a_node14"><a xlink:href="../../de/df0/vcubicbezierpath_8cpp.html" target="_top" xlink:title=" ">
<polygon fill="white" stroke="black" points="1158,-123.5 1158,-153.5 1281,-153.5 1281,-123.5 1158,-123.5"/>
<text text-anchor="start" x="1166" y="-141.5" font-family="Helvetica,sans-Serif" font-size="10.00">src/libs/vgeometry</text>
<text text-anchor="middle" x="1219.5" y="-130.5" font-family="Helvetica,sans-Serif" font-size="10.00">/vcubicbezierpath.cpp</text>
</a>
</g>
</g>
<!-- Node13&#45;&gt;Node14 -->
<g id="edge15" class="edge">
<title>Node13&#45;&gt;Node14</title>
<path fill="none" stroke="midnightblue" d="M1154.11,-189.61C1169.22,-178.03 1187.75,-163.83 1201.22,-153.5"/>
<polygon fill="midnightblue" stroke="midnightblue" points="1151.93,-186.87 1146.12,-195.73 1156.18,-192.43 1151.93,-186.87"/>
</g>
<!-- Node15&#45;&gt;Node14 -->
<g id="edge17" class="edge">
<title>Node15&#45;&gt;Node14</title>
<path fill="none" stroke="midnightblue" d="M1249.18,-187.06C1242.33,-176.09 1234.35,-163.3 1228.39,-153.75"/>
<polygon fill="midnightblue" stroke="midnightblue" points="1246.33,-189.1 1254.6,-195.73 1252.27,-185.4 1246.33,-189.1"/>
</g>
<!-- Node16&#45;&gt;Node7 -->
<g id="edge20" class="edge">
<title>Node16&#45;&gt;Node7</title>
<path fill="none" stroke="midnightblue" d="M400.46,-187.39C392.63,-176.34 383.44,-163.39 376.6,-153.75"/>
<polygon fill="midnightblue" stroke="midnightblue" points="397.74,-189.6 406.38,-195.73 403.45,-185.55 397.74,-189.6"/>
</g>
<!-- Node17 -->
<g id="node17" class="node">
<title>Node17</title>
<g id="a_node17"><a xlink:href="../../d6/dfb/vellipticalarc_8cpp.html" target="_top" xlink:title=" ">
<polygon fill="white" stroke="black" points="438,-123.5 438,-153.5 545,-153.5 545,-123.5 438,-123.5"/>
<text text-anchor="start" x="446" y="-141.5" font-family="Helvetica,sans-Serif" font-size="10.00">src/libs/vgeometry</text>
<text text-anchor="middle" x="491.5" y="-130.5" font-family="Helvetica,sans-Serif" font-size="10.00">/vellipticalarc.cpp</text>
</a>
</g>
</g>
<!-- Node16&#45;&gt;Node17 -->
<g id="edge19" class="edge">
<title>Node16&#45;&gt;Node17</title>
<path fill="none" stroke="midnightblue" d="M439.22,-188.64C451.35,-177.24 465.92,-163.54 476.6,-153.5"/>
<polygon fill="midnightblue" stroke="midnightblue" points="436.57,-186.33 431.68,-195.73 441.36,-191.43 436.57,-186.33"/>
</g>
<!-- Node18&#45;&gt;Node17 -->
<g id="edge22" class="edge">
<title>Node18&#45;&gt;Node17</title>
<path fill="none" stroke="midnightblue" d="M525.46,-187.39C517.63,-176.34 508.44,-163.39 501.6,-153.75"/>
<polygon fill="midnightblue" stroke="midnightblue" points="522.74,-189.6 531.38,-195.73 528.45,-185.55 522.74,-189.6"/>
</g>
<!-- Node21 -->
<g id="node21" class="node">
<title>Node21</title>
<g id="a_node21"><a xlink:href="../../d5/dd2/vspline_8cpp.html" target="_top" xlink:title=" ">
<polygon fill="white" stroke="black" points="1033,-123.5 1033,-153.5 1140,-153.5 1140,-123.5 1033,-123.5"/>
<text text-anchor="start" x="1041" y="-141.5" font-family="Helvetica,sans-Serif" font-size="10.00">src/libs/vgeometry</text>
<text text-anchor="middle" x="1086.5" y="-130.5" font-family="Helvetica,sans-Serif" font-size="10.00">/vspline.cpp</text>
</a>
</g>
</g>
<!-- Node20&#45;&gt;Node21 -->
<g id="edge25" class="edge">
<title>Node20&#45;&gt;Node21</title>
<path fill="none" stroke="midnightblue" d="M1021.11,-189.61C1036.22,-178.03 1054.75,-163.83 1068.22,-153.5"/>
<polygon fill="midnightblue" stroke="midnightblue" points="1018.93,-186.87 1013.12,-195.73 1023.18,-192.43 1018.93,-186.87"/>
</g>
<!-- Node23 -->
<g id="node23" class="node">
<title>Node23</title>
<g id="a_node23"><a xlink:href="../../db/d6a/vsplinepath_8cpp.html" target="_top" xlink:title=" ">
<polygon fill="white" stroke="black" points="1487,-56.5 1487,-86.5 1594,-86.5 1594,-56.5 1487,-56.5"/>
<text text-anchor="start" x="1495" y="-74.5" font-family="Helvetica,sans-Serif" font-size="10.00">src/libs/vgeometry</text>
<text text-anchor="middle" x="1540.5" y="-63.5" font-family="Helvetica,sans-Serif" font-size="10.00">/vsplinepath.cpp</text>
</a>
</g>
</g>
<!-- Node22&#45;&gt;Node23 -->
<g id="edge27" class="edge">
<title>Node22&#45;&gt;Node23</title>
<path fill="none" stroke="midnightblue" d="M1433.29,-119.27C1457.02,-108.92 1486.28,-96.15 1508.23,-86.58"/>
<polygon fill="midnightblue" stroke="midnightblue" points="1431.6,-116.19 1423.83,-123.4 1434.4,-122.61 1431.6,-116.19"/>
</g>
<!-- Node22&#45;&gt;Node24 -->
<g id="edge28" class="edge">
<title>Node22&#45;&gt;Node24</title>
<path fill="none" stroke="midnightblue" d="M1333.24,-120.67C1289.27,-107.97 1230.76,-91.06 1196.02,-81.03"/>
<polygon fill="midnightblue" stroke="midnightblue" points="1332.38,-124.06 1342.96,-123.48 1334.32,-117.34 1332.38,-124.06"/>
</g>
<!-- Node25 -->
<g id="node25" class="node">
<title>Node25</title>
<g id="a_node25"><a xlink:href="../../d8/d13/vcontrolpointspline_8h.html" target="_top" xlink:title=" ">
<polygon fill="white" stroke="black" points="1265.5,-62 1265.5,-81 1469.5,-81 1469.5,-62 1265.5,-62"/>
<text text-anchor="middle" x="1367.5" y="-69" font-family="Helvetica,sans-Serif" font-size="10.00">src/libs/vwidgets/vcontrolpointspline.h</text>
</a>
</g>
</g>
<!-- Node22&#45;&gt;Node25 -->
<g id="edge29" class="edge">
<title>Node22&#45;&gt;Node25</title>
<path fill="none" stroke="midnightblue" d="M1382.8,-113.94C1378.59,-102.54 1373.79,-89.55 1370.71,-81.19"/>
<polygon fill="midnightblue" stroke="midnightblue" points="1379.55,-115.23 1386.29,-123.4 1386.11,-112.8 1379.55,-115.23"/>
</g>
<!-- Node26 -->
<g id="node26" class="node">
<title>Node26</title>
<g id="a_node26"><a xlink:href="../../de/d45/vcontrolpointspline_8cpp.html" target="_top" xlink:title=" ">
<polygon fill="white" stroke="black" points="1260,-0.5 1260,-19.5 1475,-19.5 1475,-0.5 1260,-0.5"/>
<text text-anchor="middle" x="1367.5" y="-7.5" font-family="Helvetica,sans-Serif" font-size="10.00">src/libs/vwidgets/vcontrolpointspline.cpp</text>
</a>
</g>
</g>
<!-- Node25&#45;&gt;Node26 -->
<g id="edge30" class="edge">
<title>Node25&#45;&gt;Node26</title>
<path fill="none" stroke="midnightblue" d="M1367.5,-51.82C1367.5,-41 1367.5,-27.9 1367.5,-19.51"/>
<polygon fill="midnightblue" stroke="midnightblue" points="1364,-51.98 1367.5,-61.98 1371,-51.98 1364,-51.98"/>
</g>
<!-- Node27&#45;&gt;Node14 -->
<g id="edge32" class="edge">
<title>Node27&#45;&gt;Node14</title>
<path fill="none" stroke="midnightblue" d="M1408.55,-193.24C1366.04,-181.16 1309.32,-165.03 1269.12,-153.61"/>
<polygon fill="midnightblue" stroke="midnightblue" points="1407.63,-196.62 1418.21,-195.99 1409.54,-189.89 1407.63,-196.62"/>
</g>
<!-- Node27&#45;&gt;Node22 -->
<g id="edge33" class="edge">
<title>Node27&#45;&gt;Node22</title>
<path fill="none" stroke="midnightblue" d="M1444.47,-188.64C1432.19,-177.24 1417.42,-163.54 1406.6,-153.5"/>
<polygon fill="midnightblue" stroke="midnightblue" points="1442.41,-191.5 1452.12,-195.73 1447.17,-186.37 1442.41,-191.5"/>
</g>
<!-- Node28 -->
<g id="node28" class="node">
<title>Node28</title>
<g id="a_node28"><a xlink:href="../../d0/dd8/vsplinepath__p_8h.html" target="_top" xlink:title=" ">
<polygon fill="white" stroke="black" points="1463,-123.5 1463,-153.5 1570,-153.5 1570,-123.5 1463,-123.5"/>
<text text-anchor="start" x="1471" y="-141.5" font-family="Helvetica,sans-Serif" font-size="10.00">src/libs/vgeometry</text>
<text text-anchor="middle" x="1516.5" y="-130.5" font-family="Helvetica,sans-Serif" font-size="10.00">/vsplinepath_p.h</text>
</a>
</g>
</g>
<!-- Node27&#45;&gt;Node28 -->
<g id="edge34" class="edge">
<title>Node27&#45;&gt;Node28</title>
<path fill="none" stroke="midnightblue" d="M1483.22,-187.39C1490.89,-176.34 1499.89,-163.39 1506.6,-153.75"/>
<polygon fill="midnightblue" stroke="midnightblue" points="1480.25,-185.52 1477.42,-195.73 1486,-189.52 1480.25,-185.52"/>
</g>
<!-- Node29 -->
<g id="node29" class="node">
<title>Node29</title>
<g id="a_node29"><a xlink:href="../../d5/d81/vsplinepoint_8cpp.html" target="_top" xlink:title=" ">
<polygon fill="white" stroke="black" points="1588,-123.5 1588,-153.5 1695,-153.5 1695,-123.5 1588,-123.5"/>
<text text-anchor="start" x="1596" y="-141.5" font-family="Helvetica,sans-Serif" font-size="10.00">src/libs/vgeometry</text>
<text text-anchor="middle" x="1641.5" y="-130.5" font-family="Helvetica,sans-Serif" font-size="10.00">/vsplinepoint.cpp</text>
</a>
</g>
</g>
<!-- Node27&#45;&gt;Node29 -->
<g id="edge36" class="edge">
<title>Node27&#45;&gt;Node29</title>
<path fill="none" stroke="midnightblue" d="M1511.93,-192C1541.4,-180.06 1579.52,-164.61 1606.77,-153.57"/>
<polygon fill="midnightblue" stroke="midnightblue" points="1510.25,-188.9 1502.29,-195.9 1512.88,-195.39 1510.25,-188.9"/>
</g>
<!-- Node28&#45;&gt;Node23 -->
<g id="edge35" class="edge">
<title>Node28&#45;&gt;Node23</title>
<path fill="none" stroke="midnightblue" d="M1525.18,-113.99C1528.57,-104.8 1532.35,-94.58 1535.3,-86.58"/>
<polygon fill="midnightblue" stroke="midnightblue" points="1521.89,-112.8 1521.71,-123.4 1528.45,-115.23 1521.89,-112.8"/>
</g>
<!-- Node30&#45;&gt;Node29 -->
<g id="edge38" class="edge">
<title>Node30&#45;&gt;Node29</title>
<path fill="none" stroke="midnightblue" d="M1608.22,-187.39C1615.89,-176.34 1624.89,-163.39 1631.6,-153.75"/>
<polygon fill="midnightblue" stroke="midnightblue" points="1605.25,-185.52 1602.42,-195.73 1611,-189.52 1605.25,-185.52"/>
</g>
<!-- Node31&#45;&gt;Node6 -->
<g id="edge41" class="edge">
<title>Node31&#45;&gt;Node6</title>
<path fill="none" stroke="midnightblue" d="M835.11,-191.06C813.68,-179.26 786.57,-164.33 767.05,-153.57"/>
<polygon fill="midnightblue" stroke="midnightblue" points="833.46,-194.14 843.9,-195.9 836.83,-188.01 833.46,-194.14"/>
</g>
<!-- Node31&#45;&gt;Node7 -->
<g id="edge46" class="edge">
<title>Node31&#45;&gt;Node7</title>
<path fill="none" stroke="midnightblue" d="M805.9,-196.63C793.21,-194.22 779.96,-191.88 767.5,-190 617.68,-167.4 577.89,-179.3 428.5,-154 425.78,-153.54 422.99,-153.03 420.19,-152.48"/>
<polygon fill="midnightblue" stroke="midnightblue" points="805.44,-200.11 815.92,-198.58 806.77,-193.24 805.44,-200.11"/>
</g>
<!-- Node31&#45;&gt;Node9 -->
<g id="edge40" class="edge">
<title>Node31&#45;&gt;Node9</title>
<path fill="none" stroke="midnightblue" d="M877.99,-186.06C881.8,-175.32 886.16,-163.01 889.45,-153.75"/>
<polygon fill="midnightblue" stroke="midnightblue" points="874.6,-185.14 874.56,-195.73 881.2,-187.48 874.6,-185.14"/>
</g>
<!-- Node31&#45;&gt;Node14 -->
<g id="edge42" class="edge">
<title>Node31&#45;&gt;Node14</title>
<path fill="none" stroke="midnightblue" d="M919.93,-193.06C923.82,-191.95 927.71,-190.92 931.5,-190 1026.5,-166.93 1052.37,-171.78 1148.5,-154 1151.59,-153.43 1154.76,-152.83 1157.95,-152.21"/>
<polygon fill="midnightblue" stroke="midnightblue" points="918.88,-189.72 910.28,-195.9 920.86,-196.43 918.88,-189.72"/>
</g>
<!-- Node31&#45;&gt;Node17 -->
<g id="edge43" class="edge">
<title>Node31&#45;&gt;Node17</title>
<path fill="none" stroke="midnightblue" d="M805.8,-197.23C793.12,-194.77 779.9,-192.26 767.5,-190 672.61,-172.72 648.06,-172.99 553.5,-154 550.79,-153.46 548.02,-152.88 545.22,-152.28"/>
<polygon fill="midnightblue" stroke="midnightblue" points="805.34,-200.71 815.82,-199.19 806.68,-193.84 805.34,-200.71"/>
</g>
<!-- Node31&#45;&gt;Node21 -->
<g id="edge44" class="edge">
<title>Node31&#45;&gt;Node21</title>
<path fill="none" stroke="midnightblue" d="M922.26,-192.86C959.32,-180.82 1008.28,-164.91 1043.08,-153.61"/>
<polygon fill="midnightblue" stroke="midnightblue" points="921.06,-189.57 912.63,-195.99 923.22,-196.23 921.06,-189.57"/>
</g>
<!-- Node31&#45;&gt;Node22 -->
<g id="edge45" class="edge">
<title>Node31&#45;&gt;Node22</title>
<path fill="none" stroke="midnightblue" d="M918.76,-193.08C923.04,-191.92 927.33,-190.87 931.5,-190 1088.03,-157.27 1130.75,-173.26 1289.5,-154 1305.21,-152.09 1322.25,-149.77 1337.82,-147.55"/>
<polygon fill="midnightblue" stroke="midnightblue" points="917.5,-189.8 908.85,-195.93 919.43,-196.53 917.5,-189.8"/>
</g>
<!-- Node31&#45;&gt;Node24 -->
<g id="edge47" class="edge">
<title>Node31&#45;&gt;Node24</title>
<path fill="none" stroke="midnightblue" d="M912.41,-191.81C934.56,-181.76 961.65,-168.4 984.5,-154 1003.23,-142.19 1004.13,-133.72 1023.5,-123 1058.63,-103.56 1102.65,-89.36 1132.5,-81.05"/>
<polygon fill="midnightblue" stroke="midnightblue" points="910.94,-188.63 903.24,-195.91 913.8,-195.02 910.94,-188.63"/>
</g>
</g>
</svg>
        <g id="navigator" transform="translate(0 0)" fill="#404254">
                <rect fill="#f2f5e9" fill-opacity="0.5" stroke="#606060" stroke-width=".5" x="0" y="0" width="60" height="60"/>
                <use id="zoomplus" xlink:href="#zoomPlus" x="17" y="9" onmousedown="handleZoom(evt,'in')"/>
                <use id="zoomminus" xlink:href="#zoomMin" x="42" y="9" onmousedown="handleZoom(evt,'out')"/>
                <use id="reset" xlink:href="#resetDef" x="30" y="36" onmousedown="handleReset()"/>
                <g id="arrowUp" xlink:href="#dirArrow" transform="translate(30 24)" onmousedown="handlePan(0,-1)">
                  <use xlink:href="#rim" fill="#404040">
                        <set attributeName="fill" to="#808080" begin="arrowUp.mouseover" end="arrowUp.mouseout"/>
                  </use>
                  <path fill="none" stroke="white" stroke-width="1.5" d="M0,-3.0v7 M-2.5,-0.5L0,-3.0L2.5,-0.5"/>
                </g>
                <g id="arrowRight" xlink:href="#dirArrow" transform="rotate(90) translate(36 -43)" onmousedown="handlePan(1,0)">
                  <use xlink:href="#rim" fill="#404040">
                        <set attributeName="fill" to="#808080" begin="arrowRight.mouseover" end="arrowRight.mouseout"/>
                  </use>
                  <path fill="none" stroke="white" stroke-width="1.5" d="M0,-3.0v7 M-2.5,-0.5L0,-3.0L2.5,-0.5"/>
                </g>
                <g id="arrowDown" xlink:href="#dirArrow" transform="rotate(180) translate(-30 -48)" onmousedown="handlePan(0,1)">
                  <use xlink:href="#rim" fill="#404040">
                        <set attributeName="fill" to="#808080" begin="arrowDown.mouseover" end="arrowDown.mouseout"/>
                  </use>
                  <path fill="none" stroke="white" stroke-width="1.5" d="M0,-3.0v7 M-2.5,-0.5L0,-3.0L2.5,-0.5"/>
                </g>
                <g id="arrowLeft" xlink:href="#dirArrow" transform="rotate(270) translate(-36 17)" onmousedown="handlePan(-1,0)">
                  <use xlink:href="#rim" fill="#404040">
                        <set attributeName="fill" to="#808080" begin="arrowLeft.mouseover" end="arrowLeft.mouseout"/>
                  </use>
                  <path fill="none" stroke="white" stroke-width="1.5" d="M0,-3.0v7 M-2.5,-0.5L0,-3.0L2.5,-0.5"/>
                </g>
        </g>
        <svg viewBox="0 0 15 15" width="100%" height="30px" preserveAspectRatio="xMaxYMin meet">
         <g id="arrow_out" transform="scale(0.3 0.3)">
          <a xlink:href="vpointf_8h__dep__incl_org.svg" target="_base">
           <rect id="button" ry="5" rx="5" y="6" x="6" height="38" width="38"
                fill="#f2f5e9" fill-opacity="0.5" stroke="#606060" stroke-width="1.0"/>
           <path id="arrow"
             d="M 11.500037,31.436501 C 11.940474,20.09759 22.043105,11.32322 32.158766,21.979434 L 37.068811,17.246167 C 37.068811,17.246167 37.088388,32 37.088388,32 L 22.160133,31.978069 C 22.160133,31.978069 26.997745,27.140456 26.997745,27.140456 C 18.528582,18.264221 13.291696,25.230495 11.500037,31.436501 z"
             style="fill:#404040;"/>
          </a>
         </g>
        </svg>
</svg>
