<?xml version="1.0" encoding="UTF-8" standalone="no"?>
<!DOCTYPE svg PUBLIC "-//W3C//DTD SVG 1.1//EN"
 "http://www.w3.org/Graphics/SVG/1.1/DTD/svg11.dtd">
<!-- Generated by graphviz version 2.43.0 (0)
 -->
<!-- Title: src/libs/vpatterndb/vcontainer.h Pages: 1 -->
<svg width="7147pt" height="251pt"
 viewBox="0.00 0.00 7147.00 251.00" xmlns="http://www.w3.org/2000/svg" xmlns:xlink="http://www.w3.org/1999/xlink">
<g id="graph0" class="graph" transform="scale(1 1) rotate(0) translate(4 247)">
<title>src/libs/vpatterndb/vcontainer.h</title>
<polygon fill="white" stroke="transparent" points="-4,4 -4,-247 7143,-247 7143,4 -4,4"/>
<!-- Node1 -->
<g id="node1" class="node">
<title>Node1</title>
<g id="a_node1"><a xlink:title=" ">
<polygon fill="#bfbfbf" stroke="black" points="6120.5,-212.5 6120.5,-242.5 6227.5,-242.5 6227.5,-212.5 6120.5,-212.5"/>
<text text-anchor="start" x="6128.5" y="-230.5" font-family="Helvetica,sans-Serif" font-size="10.00">src/libs/vpatterndb</text>
<text text-anchor="middle" x="6174" y="-219.5" font-family="Helvetica,sans-Serif" font-size="10.00">/vcontainer.h</text>
</a>
</g>
</g>
<!-- Node2 -->
<g id="node2" class="node">
<title>Node2</title>
<g id="a_node2"><a xlink:href="../../dc/db7/measurements_8h.html" target="_top" xlink:title=" ">
<polygon fill="white" stroke="black" points="146.5,-145.5 146.5,-164.5 325.5,-164.5 325.5,-145.5 146.5,-145.5"/>
<text text-anchor="middle" x="236" y="-152.5" font-family="Helvetica,sans-Serif" font-size="10.00">src/libs/vformat/measurements.h</text>
</a>
</g>
</g>
<!-- Node1&#45;&gt;Node2 -->
<g id="edge1" class="edge">
<title>Node1&#45;&gt;Node2</title>
<path fill="none" stroke="midnightblue" d="M6109.89,-226.3C5569.47,-224.51 1766.67,-210.84 622,-176 520.38,-172.91 403.85,-166.47 325.65,-161.73"/>
<polygon fill="midnightblue" stroke="midnightblue" points="6110.2,-229.8 6120.22,-226.33 6110.23,-222.8 6110.2,-229.8"/>
</g>
<!-- Node3 -->
<g id="node3" class="node">
<title>Node3</title>
<g id="a_node3"><a xlink:href="../../d9/de3/measurements_8cpp.html" target="_top" xlink:title=" ">
<polygon fill="white" stroke="black" points="0,-73 0,-92 190,-92 190,-73 0,-73"/>
<text text-anchor="middle" x="95" y="-80" font-family="Helvetica,sans-Serif" font-size="10.00">src/libs/vformat/measurements.cpp</text>
</a>
</g>
</g>
<!-- Node1&#45;&gt;Node3 -->
<g id="edge3" class="edge">
<title>Node1&#45;&gt;Node3</title>
<path fill="none" stroke="midnightblue" d="M6110.08,-226.37C5541.02,-225.13 1351.46,-214.75 796,-176 549.55,-158.81 257.36,-111.48 143.66,-92.02"/>
<polygon fill="midnightblue" stroke="midnightblue" points="6110.14,-229.87 6120.15,-226.39 6110.16,-222.87 6110.14,-229.87"/>
</g>
<!-- Node4 -->
<g id="node4" class="node">
<title>Node4</title>
<g id="a_node4"><a xlink:href="../../d6/de0/vlayoutpiece_8h.html" target="_top" xlink:title=" ">
<polygon fill="white" stroke="black" points="805,-145.5 805,-164.5 971,-164.5 971,-145.5 805,-145.5"/>
<text text-anchor="middle" x="888" y="-152.5" font-family="Helvetica,sans-Serif" font-size="10.00">src/libs/vlayout/vlayoutpiece.h</text>
</a>
</g>
</g>
<!-- Node1&#45;&gt;Node4 -->
<g id="edge4" class="edge">
<title>Node1&#45;&gt;Node4</title>
<path fill="none" stroke="midnightblue" d="M6110.24,-225.65C5558.57,-218.29 1598.18,-165.47 971.45,-157.11"/>
<polygon fill="midnightblue" stroke="midnightblue" points="6110.35,-229.15 6120.39,-225.79 6110.44,-222.15 6110.35,-229.15"/>
</g>
<!-- Node14 -->
<g id="node13" class="node">
<title>Node14</title>
<g id="a_node13"><a xlink:href="../../d8/d70/vtextmanager_8cpp.html" target="_top" xlink:title=" ">
<polygon fill="white" stroke="black" points="1530,-73 1530,-92 1712,-92 1712,-73 1530,-73"/>
<text text-anchor="middle" x="1621" y="-80" font-family="Helvetica,sans-Serif" font-size="10.00">src/libs/vlayout/vtextmanager.cpp</text>
</a>
</g>
</g>
<!-- Node1&#45;&gt;Node14 -->
<g id="edge15" class="edge">
<title>Node1&#45;&gt;Node14</title>
<path fill="none" stroke="midnightblue" d="M6110.14,-225C5864.07,-219.18 4953.73,-197.39 4204,-176 3100.35,-144.52 2820.86,-194.71 1721,-98 1705.01,-96.59 1687.68,-94.34 1672,-92.03"/>
<polygon fill="midnightblue" stroke="midnightblue" points="6110.25,-228.5 6120.33,-225.24 6110.41,-221.5 6110.25,-228.5"/>
</g>
<!-- Node15 -->
<g id="node14" class="node">
<title>Node15</title>
<g id="a_node14"><a xlink:href="../../d5/d74/vabstractapplication_8h.html" target="_top" xlink:title=" ">
<polygon fill="white" stroke="red" points="4213.5,-145.5 4213.5,-164.5 4408.5,-164.5 4408.5,-145.5 4213.5,-145.5"/>
<text text-anchor="middle" x="4311" y="-152.5" font-family="Helvetica,sans-Serif" font-size="10.00">src/libs/vmisc/vabstractapplication.h</text>
</a>
</g>
</g>
<!-- Node1&#45;&gt;Node15 -->
<g id="edge16" class="edge">
<title>Node1&#45;&gt;Node15</title>
<path fill="none" stroke="midnightblue" d="M6110.01,-224.08C5833.82,-213.63 4742.88,-172.34 4408.77,-159.7"/>
<polygon fill="midnightblue" stroke="midnightblue" points="6110.13,-227.59 6120.25,-224.47 6110.39,-220.59 6110.13,-227.59"/>
</g>
<!-- Node33 -->
<g id="node28" class="node">
<title>Node33</title>
<g id="a_node28"><a xlink:href="../../db/d11/vformula_8cpp.html" target="_top" xlink:title=" ">
<polygon fill="white" stroke="black" points="5979.5,-67.5 5979.5,-97.5 6086.5,-97.5 6086.5,-67.5 5979.5,-67.5"/>
<text text-anchor="start" x="5987.5" y="-85.5" font-family="Helvetica,sans-Serif" font-size="10.00">src/libs/vpatterndb</text>
<text text-anchor="middle" x="6033" y="-74.5" font-family="Helvetica,sans-Serif" font-size="10.00">/vformula.cpp</text>
</a>
</g>
</g>
<!-- Node1&#45;&gt;Node33 -->
<g id="edge52" class="edge">
<title>Node1&#45;&gt;Node33</title>
<path fill="none" stroke="midnightblue" d="M6152.7,-204.9C6123.48,-175.26 6071.75,-122.8 6046.98,-97.68"/>
<polygon fill="midnightblue" stroke="midnightblue" points="6150.45,-207.6 6159.96,-212.27 6155.44,-202.69 6150.45,-207.6"/>
</g>
<!-- Node34 -->
<g id="node29" class="node">
<title>Node34</title>
<g id="a_node29"><a xlink:href="../../d6/d46/vcontainer_8cpp.html" target="_top" xlink:title=" ">
<polygon fill="white" stroke="black" points="6104.5,-67.5 6104.5,-97.5 6211.5,-97.5 6211.5,-67.5 6104.5,-67.5"/>
<text text-anchor="start" x="6112.5" y="-85.5" font-family="Helvetica,sans-Serif" font-size="10.00">src/libs/vpatterndb</text>
<text text-anchor="middle" x="6158" y="-74.5" font-family="Helvetica,sans-Serif" font-size="10.00">/vcontainer.cpp</text>
</a>
</g>
</g>
<!-- Node1&#45;&gt;Node34 -->
<g id="edge53" class="edge">
<title>Node1&#45;&gt;Node34</title>
<path fill="none" stroke="midnightblue" d="M6166,-202.37C6163.61,-194.1 6161.28,-184.73 6160,-176 6155.96,-148.51 6156.46,-115.93 6157.22,-97.7"/>
<polygon fill="midnightblue" stroke="midnightblue" points="6162.71,-203.58 6168.98,-212.12 6169.4,-201.53 6162.71,-203.58"/>
</g>
<!-- Node35 -->
<g id="node30" class="node">
<title>Node35</title>
<g id="a_node30"><a xlink:href="../../df/d7a/vpiece_8cpp.html" target="_top" xlink:title=" ">
<polygon fill="white" stroke="black" points="6229.5,-67.5 6229.5,-97.5 6336.5,-97.5 6336.5,-67.5 6229.5,-67.5"/>
<text text-anchor="start" x="6237.5" y="-85.5" font-family="Helvetica,sans-Serif" font-size="10.00">src/libs/vpatterndb</text>
<text text-anchor="middle" x="6283" y="-74.5" font-family="Helvetica,sans-Serif" font-size="10.00">/vpiece.cpp</text>
</a>
</g>
</g>
<!-- Node1&#45;&gt;Node35 -->
<g id="edge55" class="edge">
<title>Node1&#45;&gt;Node35</title>
<path fill="none" stroke="midnightblue" d="M6175.28,-202.03C6177.43,-181.99 6183.12,-153.81 6198,-134 6210.17,-117.81 6229.18,-105.81 6246.14,-97.59"/>
<polygon fill="midnightblue" stroke="midnightblue" points="6171.77,-201.96 6174.41,-212.22 6178.74,-202.55 6171.77,-201.96"/>
</g>
<!-- Node37 -->
<g id="node32" class="node">
<title>Node37</title>
<g id="a_node32"><a xlink:href="../../d8/dba/vpiecenode_8cpp.html" target="_top" xlink:title=" ">
<polygon fill="white" stroke="black" points="5942.5,-0.5 5942.5,-30.5 6049.5,-30.5 6049.5,-0.5 5942.5,-0.5"/>
<text text-anchor="start" x="5950.5" y="-18.5" font-family="Helvetica,sans-Serif" font-size="10.00">src/libs/vpatterndb</text>
<text text-anchor="middle" x="5996" y="-7.5" font-family="Helvetica,sans-Serif" font-size="10.00">/vpiecenode.cpp</text>
</a>
</g>
</g>
<!-- Node1&#45;&gt;Node37 -->
<g id="edge56" class="edge">
<title>Node1&#45;&gt;Node37</title>
<path fill="none" stroke="midnightblue" d="M6185.56,-203.41C6198.05,-179.26 6217.81,-143.56 6230,-134 6272.15,-100.96 6313.29,-141.16 6345,-98 6353.16,-86.9 6354.02,-77.42 6345,-67 6307.43,-23.61 6137.68,-16.69 6049.52,-16.09"/>
<polygon fill="midnightblue" stroke="midnightblue" points="6182.43,-201.83 6181,-212.32 6188.67,-205.01 6182.43,-201.83"/>
</g>
<!-- Node54 -->
<g id="node45" class="node">
<title>Node54</title>
<g id="a_node45"><a xlink:href="../../d3/d02/custom__variable__p_8h.html" target="_top" xlink:title=" ">
<polygon fill="white" stroke="red" points="6239.5,-140 6239.5,-170 6408.5,-170 6408.5,-140 6239.5,-140"/>
<text text-anchor="start" x="6247.5" y="-158" font-family="Helvetica,sans-Serif" font-size="10.00">src/libs/vpatterndb</text>
<text text-anchor="middle" x="6324" y="-147" font-family="Helvetica,sans-Serif" font-size="10.00">/variables/custom_variable_p.h</text>
</a>
</g>
</g>
<!-- Node1&#45;&gt;Node54 -->
<g id="edge50" class="edge">
<title>Node1&#45;&gt;Node54</title>
<path fill="none" stroke="midnightblue" d="M6213.3,-208.03C6238.56,-196.16 6270.87,-180.97 6294.06,-170.07"/>
<polygon fill="midnightblue" stroke="midnightblue" points="6211.56,-204.98 6203.99,-212.4 6214.53,-211.32 6211.56,-204.98"/>
</g>
<!-- Node56 -->
<g id="node46" class="node">
<title>Node56</title>
<g id="a_node46"><a xlink:href="../../d7/d8a/measurement__variable__p_8h.html" target="_top" xlink:title=" ">
<polygon fill="white" stroke="red" points="6427,-134.5 6427,-175.5 6563,-175.5 6563,-134.5 6427,-134.5"/>
<text text-anchor="start" x="6435" y="-163.5" font-family="Helvetica,sans-Serif" font-size="10.00">src/libs/vpatterndb</text>
<text text-anchor="start" x="6435" y="-152.5" font-family="Helvetica,sans-Serif" font-size="10.00">/variables/measurement</text>
<text text-anchor="middle" x="6495" y="-141.5" font-family="Helvetica,sans-Serif" font-size="10.00">_variable_p.h</text>
</a>
</g>
</g>
<!-- Node1&#45;&gt;Node56 -->
<g id="edge51" class="edge">
<title>Node1&#45;&gt;Node56</title>
<path fill="none" stroke="midnightblue" d="M6237.58,-214.12C6286.7,-204.35 6356.33,-190.07 6417,-176 6420.27,-175.24 6423.61,-174.45 6426.98,-173.64"/>
<polygon fill="midnightblue" stroke="midnightblue" points="6236.85,-210.7 6227.72,-216.07 6238.21,-217.56 6236.85,-210.7"/>
</g>
<!-- Node58 -->
<g id="node47" class="node">
<title>Node58</title>
<g id="a_node47"><a xlink:href="../../d6/d91/vnodedetail_8cpp.html" target="_top" xlink:title=" ">
<polygon fill="white" stroke="black" points="6581.5,-140 6581.5,-170 6688.5,-170 6688.5,-140 6581.5,-140"/>
<text text-anchor="start" x="6589.5" y="-158" font-family="Helvetica,sans-Serif" font-size="10.00">src/libs/vpatterndb</text>
<text text-anchor="middle" x="6635" y="-147" font-family="Helvetica,sans-Serif" font-size="10.00">/vnodedetail.cpp</text>
</a>
</g>
</g>
<!-- Node1&#45;&gt;Node58 -->
<g id="edge54" class="edge">
<title>Node1&#45;&gt;Node58</title>
<path fill="none" stroke="midnightblue" d="M6237.93,-221.98C6317.07,-215.56 6455.64,-201.63 6572,-176 6579.4,-174.37 6587.17,-172.25 6594.63,-170.01"/>
<polygon fill="midnightblue" stroke="midnightblue" points="6237.33,-218.51 6227.64,-222.8 6237.88,-225.49 6237.33,-218.51"/>
</g>
<!-- Node59 -->
<g id="node48" class="node">
<title>Node59</title>
<g id="a_node48"><a xlink:href="../../da/de1/vpiecepath_8cpp.html" target="_top" xlink:title=" ">
<polygon fill="white" stroke="black" points="6706.5,-140 6706.5,-170 6813.5,-170 6813.5,-140 6706.5,-140"/>
<text text-anchor="start" x="6714.5" y="-158" font-family="Helvetica,sans-Serif" font-size="10.00">src/libs/vpatterndb</text>
<text text-anchor="middle" x="6760" y="-147" font-family="Helvetica,sans-Serif" font-size="10.00">/vpiecepath.cpp</text>
</a>
</g>
</g>
<!-- Node1&#45;&gt;Node59 -->
<g id="edge57" class="edge">
<title>Node1&#45;&gt;Node59</title>
<path fill="none" stroke="midnightblue" d="M6237.93,-224.78C6337.3,-221.11 6534.42,-209.85 6698,-176 6705.42,-174.46 6713.2,-172.36 6720.65,-170.1"/>
<polygon fill="midnightblue" stroke="midnightblue" points="6237.62,-221.29 6227.75,-225.14 6237.87,-228.28 6237.62,-221.29"/>
</g>
<!-- Node60 -->
<g id="node49" class="node">
<title>Node60</title>
<g id="a_node49"><a xlink:href="../../d1/d3a/abstracttest_8cpp.html" target="_top" xlink:title=" ">
<polygon fill="white" stroke="black" points="6831.5,-145.5 6831.5,-164.5 6992.5,-164.5 6992.5,-145.5 6831.5,-145.5"/>
<text text-anchor="middle" x="6912" y="-152.5" font-family="Helvetica,sans-Serif" font-size="10.00">src/libs/vtest/abstracttest.cpp</text>
</a>
</g>
</g>
<!-- Node1&#45;&gt;Node60 -->
<g id="edge58" class="edge">
<title>Node1&#45;&gt;Node60</title>
<path fill="none" stroke="midnightblue" d="M6237.91,-224.57C6354.68,-220.36 6610.1,-208.03 6823,-176 6841.79,-173.17 6862.52,-168.6 6879.24,-164.54"/>
<polygon fill="midnightblue" stroke="midnightblue" points="6237.59,-221.07 6227.72,-224.92 6237.83,-228.07 6237.59,-221.07"/>
</g>
<!-- Node61 -->
<g id="node50" class="node">
<title>Node61</title>
<g id="a_node50"><a xlink:href="../../da/db4/piece__tablewidgetitem_8cpp.html" target="_top" xlink:title=" ">
<polygon fill="white" stroke="black" points="7011,-140 7011,-170 7139,-170 7139,-140 7011,-140"/>
<text text-anchor="start" x="7019" y="-158" font-family="Helvetica,sans-Serif" font-size="10.00">src/libs/vwidgets/piece</text>
<text text-anchor="middle" x="7075" y="-147" font-family="Helvetica,sans-Serif" font-size="10.00">_tablewidgetitem.cpp</text>
</a>
</g>
</g>
<!-- Node1&#45;&gt;Node61 -->
<g id="edge59" class="edge">
<title>Node1&#45;&gt;Node61</title>
<path fill="none" stroke="midnightblue" d="M6237.8,-227.07C6377.38,-227.35 6719.92,-222.73 7002,-176 7010.95,-174.52 7020.37,-172.38 7029.37,-170.05"/>
<polygon fill="midnightblue" stroke="midnightblue" points="6237.72,-223.57 6227.71,-227.04 6237.7,-230.57 6237.72,-223.57"/>
</g>
<!-- Node2&#45;&gt;Node3 -->
<g id="edge2" class="edge">
<title>Node2&#45;&gt;Node3</title>
<path fill="none" stroke="midnightblue" d="M210,-141C181.45,-126.73 136.45,-104.23 112.07,-92.03"/>
<polygon fill="midnightblue" stroke="midnightblue" points="208.48,-144.15 218.99,-145.5 211.61,-137.89 208.48,-144.15"/>
</g>
<!-- Node5 -->
<g id="node5" class="node">
<title>Node5</title>
<g id="a_node5"><a xlink:href="../../dd/d66/vdxfengine_8cpp.html" target="_top" xlink:title=" ">
<polygon fill="white" stroke="black" points="1162,-73 1162,-92 1316,-92 1316,-73 1162,-73"/>
<text text-anchor="middle" x="1239" y="-80" font-family="Helvetica,sans-Serif" font-size="10.00">src/libs/vdxf/vdxfengine.cpp</text>
</a>
</g>
</g>
<!-- Node4&#45;&gt;Node5 -->
<g id="edge5" class="edge">
<title>Node4&#45;&gt;Node5</title>
<path fill="none" stroke="midnightblue" d="M940.23,-143.51C1009.96,-129.5 1132.12,-104.97 1196.51,-92.03"/>
<polygon fill="midnightblue" stroke="midnightblue" points="939.45,-140.1 930.34,-145.5 940.83,-146.96 939.45,-140.1"/>
</g>
<!-- Node6 -->
<g id="node6" class="node">
<title>Node6</title>
<g id="a_node6"><a xlink:href="../../de/da8/vbank_8cpp.html" target="_top" xlink:title=" ">
<polygon fill="white" stroke="black" points="208,-73 208,-92 352,-92 352,-73 208,-73"/>
<text text-anchor="middle" x="280" y="-80" font-family="Helvetica,sans-Serif" font-size="10.00">src/libs/vlayout/vbank.cpp</text>
</a>
</g>
</g>
<!-- Node4&#45;&gt;Node6 -->
<g id="edge6" class="edge">
<title>Node4&#45;&gt;Node6</title>
<path fill="none" stroke="midnightblue" d="M794.73,-146.11C689.21,-136.72 512.34,-119.56 361,-98 349.12,-96.31 336.31,-94.16 324.47,-92.05"/>
<polygon fill="midnightblue" stroke="midnightblue" points="794.44,-149.6 804.71,-147 795.06,-142.63 794.44,-149.6"/>
</g>
<!-- Node7 -->
<g id="node7" class="node">
<title>Node7</title>
<g id="a_node7"><a xlink:href="../../df/d5d/vcontour_8cpp.html" target="_top" xlink:title=" ">
<polygon fill="white" stroke="black" points="370,-73 370,-92 526,-92 526,-73 370,-73"/>
<text text-anchor="middle" x="448" y="-80" font-family="Helvetica,sans-Serif" font-size="10.00">src/libs/vlayout/vcontour.cpp</text>
</a>
</g>
</g>
<!-- Node4&#45;&gt;Node7 -->
<g id="edge7" class="edge">
<title>Node4&#45;&gt;Node7</title>
<path fill="none" stroke="midnightblue" d="M823.45,-143.91C752.65,-132.82 635.7,-114.38 535,-98 523.21,-96.08 510.53,-93.99 498.59,-92"/>
<polygon fill="midnightblue" stroke="midnightblue" points="823.13,-147.41 833.55,-145.5 824.22,-140.49 823.13,-147.41"/>
</g>
<!-- Node8 -->
<g id="node8" class="node">
<title>Node8</title>
<g id="a_node8"><a xlink:href="../../d3/d39/vlayoutgenerator_8cpp.html" target="_top" xlink:title=" ">
<polygon fill="white" stroke="black" points="544.5,-73 544.5,-92 741.5,-92 741.5,-73 544.5,-73"/>
<text text-anchor="middle" x="643" y="-80" font-family="Helvetica,sans-Serif" font-size="10.00">src/libs/vlayout/vlayoutgenerator.cpp</text>
</a>
</g>
</g>
<!-- Node4&#45;&gt;Node8 -->
<g id="edge8" class="edge">
<title>Node4&#45;&gt;Node8</title>
<path fill="none" stroke="midnightblue" d="M848.81,-142.72C799.74,-128.6 716.77,-104.73 672.66,-92.03"/>
<polygon fill="midnightblue" stroke="midnightblue" points="847.87,-146.09 858.45,-145.5 849.81,-139.37 847.87,-146.09"/>
</g>
<!-- Node9 -->
<g id="node9" class="node">
<title>Node9</title>
<g id="a_node9"><a xlink:href="../../d2/d2d/vlayoutpaper__p_8h.html" target="_top" xlink:title=" ">
<polygon fill="white" stroke="black" points="798.5,-73 798.5,-92 977.5,-92 977.5,-73 798.5,-73"/>
<text text-anchor="middle" x="888" y="-80" font-family="Helvetica,sans-Serif" font-size="10.00">src/libs/vlayout/vlayoutpaper_p.h</text>
</a>
</g>
</g>
<!-- Node4&#45;&gt;Node9 -->
<g id="edge9" class="edge">
<title>Node4&#45;&gt;Node9</title>
<path fill="none" stroke="midnightblue" d="M888,-134.94C888,-121.03 888,-102.82 888,-92.22"/>
<polygon fill="midnightblue" stroke="midnightblue" points="884.5,-135.36 888,-145.36 891.5,-135.36 884.5,-135.36"/>
</g>
<!-- Node10 -->
<g id="node10" class="node">
<title>Node10</title>
<g id="a_node10"><a xlink:href="../../d1/dd1/vlayoutpaper_8cpp.html" target="_top" xlink:title=" ">
<polygon fill="white" stroke="black" points="799,-6 799,-25 977,-25 977,-6 799,-6"/>
<text text-anchor="middle" x="888" y="-13" font-family="Helvetica,sans-Serif" font-size="10.00">src/libs/vlayout/vlayoutpaper.cpp</text>
</a>
</g>
</g>
<!-- Node4&#45;&gt;Node10 -->
<g id="edge11" class="edge">
<title>Node4&#45;&gt;Node10</title>
<path fill="none" stroke="midnightblue" d="M846.91,-141.92C825.61,-133.34 801.51,-119.45 789,-98 782.06,-86.1 781.8,-78.75 789,-67 802.4,-45.12 828.6,-32.34 850.68,-25.12"/>
<polygon fill="midnightblue" stroke="midnightblue" points="845.85,-145.26 856.44,-145.5 848.31,-138.71 845.85,-145.26"/>
</g>
<!-- Node11 -->
<g id="node11" class="node">
<title>Node11</title>
<g id="a_node11"><a xlink:href="../../db/d5c/vposition_8h.html" target="_top" xlink:title=" ">
<polygon fill="white" stroke="red" points="996,-73 996,-92 1144,-92 1144,-73 996,-73"/>
<text text-anchor="middle" x="1070" y="-80" font-family="Helvetica,sans-Serif" font-size="10.00">src/libs/vlayout/vposition.h</text>
</a>
</g>
</g>
<!-- Node4&#45;&gt;Node11 -->
<g id="edge12" class="edge">
<title>Node4&#45;&gt;Node11</title>
<path fill="none" stroke="midnightblue" d="M919.66,-141.74C956.38,-127.51 1015.95,-104.44 1047.97,-92.03"/>
<polygon fill="midnightblue" stroke="midnightblue" points="918.01,-138.62 909.95,-145.5 920.54,-145.15 918.01,-138.62"/>
</g>
<!-- Node13 -->
<g id="node12" class="node">
<title>Node13</title>
<g id="a_node12"><a xlink:href="../../dd/d70/vlayoutpiece_8cpp.html" target="_top" xlink:title=" ">
<polygon fill="white" stroke="black" points="1334.5,-73 1334.5,-92 1511.5,-92 1511.5,-73 1334.5,-73"/>
<text text-anchor="middle" x="1423" y="-80" font-family="Helvetica,sans-Serif" font-size="10.00">src/libs/vlayout/vlayoutpiece.cpp</text>
</a>
</g>
</g>
<!-- Node4&#45;&gt;Node13 -->
<g id="edge14" class="edge">
<title>Node4&#45;&gt;Node13</title>
<path fill="none" stroke="midnightblue" d="M967.82,-144.24C1055.48,-133.42 1200.37,-115.2 1325,-98 1338.54,-96.13 1353.13,-94.02 1366.8,-92.01"/>
<polygon fill="midnightblue" stroke="midnightblue" points="967.18,-140.8 957.69,-145.49 968.04,-147.74 967.18,-140.8"/>
</g>
<!-- Node9&#45;&gt;Node10 -->
<g id="edge10" class="edge">
<title>Node9&#45;&gt;Node10</title>
<path fill="none" stroke="midnightblue" d="M888,-62.54C888,-50.17 888,-34.62 888,-25.13"/>
<polygon fill="midnightblue" stroke="midnightblue" points="884.5,-62.73 888,-72.73 891.5,-62.73 884.5,-62.73"/>
</g>
<!-- Node11&#45;&gt;Node10 -->
<g id="edge13" class="edge">
<title>Node11&#45;&gt;Node10</title>
<path fill="none" stroke="midnightblue" d="M1036.22,-69.44C1000.12,-56.54 943.79,-36.42 911.98,-25.06"/>
<polygon fill="midnightblue" stroke="midnightblue" points="1035.24,-72.8 1045.83,-72.87 1037.59,-66.21 1035.24,-72.8"/>
</g>
<!-- Node15&#45;&gt;Node13 -->
<g id="edge27" class="edge">
<title>Node15&#45;&gt;Node13</title>
<path fill="none" stroke="midnightblue" d="M4202.94,-153.66C3756.74,-152 2056.15,-142.78 1521,-98 1505.06,-96.67 1487.77,-94.39 1472.21,-92.03"/>
<polygon fill="midnightblue" stroke="midnightblue" points="4203.23,-157.17 4213.24,-153.7 4203.26,-150.17 4203.23,-157.17"/>
</g>
<!-- Node15&#45;&gt;Node14 -->
<g id="edge28" class="edge">
<title>Node15&#45;&gt;Node14</title>
<path fill="none" stroke="midnightblue" d="M4203.07,-152.45C3744.58,-145.75 1970.45,-118.7 1721,-98 1704.74,-96.65 1687.1,-94.37 1671.22,-92.01"/>
<polygon fill="midnightblue" stroke="midnightblue" points="4203.28,-155.95 4213.33,-152.6 4203.38,-148.95 4203.28,-155.95"/>
</g>
<!-- Node16 -->
<g id="node15" class="node">
<title>Node16</title>
<g id="a_node15"><a xlink:href="../../d4/d90/fvupdater_8cpp.html" target="_top" xlink:title=" ">
<polygon fill="white" stroke="black" points="3746.5,-73 3746.5,-92 3899.5,-92 3899.5,-73 3746.5,-73"/>
<text text-anchor="middle" x="3823" y="-80" font-family="Helvetica,sans-Serif" font-size="10.00">src/libs/fervor/fvupdater.cpp</text>
</a>
</g>
</g>
<!-- Node15&#45;&gt;Node16 -->
<g id="edge17" class="edge">
<title>Node15&#45;&gt;Node16</title>
<path fill="none" stroke="midnightblue" d="M4234.82,-144.13C4153.71,-133.45 4021.64,-115.58 3908,-98 3896.16,-96.17 3883.43,-94.07 3871.5,-92.04"/>
<polygon fill="midnightblue" stroke="midnightblue" points="4234.57,-147.62 4244.94,-145.46 4235.48,-140.68 4234.57,-147.62"/>
</g>
<!-- Node17 -->
<g id="node16" class="node">
<title>Node17</title>
<g id="a_node16"><a xlink:href="../../d9/dc8/dxiface_8cpp.html" target="_top" xlink:title=" ">
<polygon fill="white" stroke="black" points="3917.5,-73 3917.5,-92 4052.5,-92 4052.5,-73 3917.5,-73"/>
<text text-anchor="middle" x="3985" y="-80" font-family="Helvetica,sans-Serif" font-size="10.00">src/libs/vdxf/dxiface.cpp</text>
</a>
</g>
</g>
<!-- Node15&#45;&gt;Node17 -->
<g id="edge18" class="edge">
<title>Node15&#45;&gt;Node17</title>
<path fill="none" stroke="midnightblue" d="M4261.69,-143.34C4196.8,-129.3 4084.02,-104.91 4024.46,-92.03"/>
<polygon fill="midnightblue" stroke="midnightblue" points="4261.16,-146.8 4271.68,-145.5 4262.64,-139.96 4261.16,-146.8"/>
</g>
<!-- Node18 -->
<g id="node17" class="node">
<title>Node18</title>
<g id="a_node17"><a xlink:href="../../da/d75/vabstractarc__p_8h.html" target="_top" xlink:title=" ">
<polygon fill="white" stroke="red" points="4070.5,-67.5 4070.5,-97.5 4177.5,-97.5 4177.5,-67.5 4070.5,-67.5"/>
<text text-anchor="start" x="4078.5" y="-85.5" font-family="Helvetica,sans-Serif" font-size="10.00">src/libs/vgeometry</text>
<text text-anchor="middle" x="4124" y="-74.5" font-family="Helvetica,sans-Serif" font-size="10.00">/vabstractarc_p.h</text>
</a>
</g>
</g>
<!-- Node15&#45;&gt;Node18 -->
<g id="edge19" class="edge">
<title>Node15&#45;&gt;Node18</title>
<path fill="none" stroke="midnightblue" d="M4278.91,-141.9C4246.22,-129.58 4195.56,-110.48 4161.15,-97.51"/>
<polygon fill="midnightblue" stroke="midnightblue" points="4277.85,-145.24 4288.44,-145.5 4280.32,-138.69 4277.85,-145.24"/>
</g>
<!-- Node20 -->
<g id="node18" class="node">
<title>Node20</title>
<g id="a_node18"><a xlink:href="../../dc/da3/varc__p_8h.html" target="_top" xlink:title=" ">
<polygon fill="white" stroke="red" points="4195.5,-67.5 4195.5,-97.5 4302.5,-97.5 4302.5,-67.5 4195.5,-67.5"/>
<text text-anchor="start" x="4203.5" y="-85.5" font-family="Helvetica,sans-Serif" font-size="10.00">src/libs/vgeometry</text>
<text text-anchor="middle" x="4249" y="-74.5" font-family="Helvetica,sans-Serif" font-size="10.00">/varc_p.h</text>
</a>
</g>
</g>
<!-- Node15&#45;&gt;Node20 -->
<g id="edge20" class="edge">
<title>Node15&#45;&gt;Node20</title>
<path fill="none" stroke="midnightblue" d="M4296.7,-137.74C4286.02,-125.6 4271.57,-109.16 4261.38,-97.58"/>
<polygon fill="midnightblue" stroke="midnightblue" points="4294.17,-140.16 4303.4,-145.36 4299.42,-135.53 4294.17,-140.16"/>
</g>
<!-- Node22 -->
<g id="node19" class="node">
<title>Node22</title>
<g id="a_node19"><a xlink:href="../../d5/d8e/vcubicbezier__p_8h.html" target="_top" xlink:title=" ">
<polygon fill="white" stroke="red" points="4320.5,-67.5 4320.5,-97.5 4427.5,-97.5 4427.5,-67.5 4320.5,-67.5"/>
<text text-anchor="start" x="4328.5" y="-85.5" font-family="Helvetica,sans-Serif" font-size="10.00">src/libs/vgeometry</text>
<text text-anchor="middle" x="4374" y="-74.5" font-family="Helvetica,sans-Serif" font-size="10.00">/vcubicbezier_p.h</text>
</a>
</g>
</g>
<!-- Node15&#45;&gt;Node22 -->
<g id="edge21" class="edge">
<title>Node15&#45;&gt;Node22</title>
<path fill="none" stroke="midnightblue" d="M4325.53,-137.74C4336.38,-125.6 4351.07,-109.16 4361.42,-97.58"/>
<polygon fill="midnightblue" stroke="midnightblue" points="4322.78,-135.57 4318.73,-145.36 4328,-140.23 4322.78,-135.57"/>
</g>
<!-- Node24 -->
<g id="node20" class="node">
<title>Node24</title>
<g id="a_node20"><a xlink:href="../../df/dde/vellipticalarc__p_8h.html" target="_top" xlink:title=" ">
<polygon fill="white" stroke="black" points="4484.5,-67.5 4484.5,-97.5 4591.5,-97.5 4591.5,-67.5 4484.5,-67.5"/>
<text text-anchor="start" x="4492.5" y="-85.5" font-family="Helvetica,sans-Serif" font-size="10.00">src/libs/vgeometry</text>
<text text-anchor="middle" x="4538" y="-74.5" font-family="Helvetica,sans-Serif" font-size="10.00">/vellipticalarc_p.h</text>
</a>
</g>
</g>
<!-- Node15&#45;&gt;Node24 -->
<g id="edge22" class="edge">
<title>Node15&#45;&gt;Node24</title>
<path fill="none" stroke="midnightblue" d="M4348.17,-142.46C4387.78,-130.15 4450.5,-110.68 4492.9,-97.51"/>
<polygon fill="midnightblue" stroke="midnightblue" points="4346.89,-139.19 4338.38,-145.5 4348.97,-145.87 4346.89,-139.19"/>
</g>
<!-- Node25 -->
<g id="node21" class="node">
<title>Node25</title>
<g id="a_node21"><a xlink:href="../../d6/dfb/vellipticalarc_8cpp.html" target="_top" xlink:title=" ">
<polygon fill="white" stroke="black" points="4443.5,-0.5 4443.5,-30.5 4550.5,-30.5 4550.5,-0.5 4443.5,-0.5"/>
<text text-anchor="start" x="4451.5" y="-18.5" font-family="Helvetica,sans-Serif" font-size="10.00">src/libs/vgeometry</text>
<text text-anchor="middle" x="4497" y="-7.5" font-family="Helvetica,sans-Serif" font-size="10.00">/vellipticalarc.cpp</text>
</a>
</g>
</g>
<!-- Node15&#45;&gt;Node25 -->
<g id="edge25" class="edge">
<title>Node15&#45;&gt;Node25</title>
<path fill="none" stroke="midnightblue" d="M4350.18,-142.23C4376.33,-133.05 4410.48,-118.42 4436,-98 4459.88,-78.9 4479.34,-48.4 4489.45,-30.62"/>
<polygon fill="midnightblue" stroke="midnightblue" points="4348.93,-138.96 4340.58,-145.48 4351.17,-145.59 4348.93,-138.96"/>
</g>
<!-- Node26 -->
<g id="node22" class="node">
<title>Node26</title>
<g id="a_node22"><a xlink:href="../../d1/d76/vspline__p_8h.html" target="_top" xlink:title=" ">
<polygon fill="white" stroke="red" points="4609.5,-67.5 4609.5,-97.5 4716.5,-97.5 4716.5,-67.5 4609.5,-67.5"/>
<text text-anchor="start" x="4617.5" y="-85.5" font-family="Helvetica,sans-Serif" font-size="10.00">src/libs/vgeometry</text>
<text text-anchor="middle" x="4663" y="-74.5" font-family="Helvetica,sans-Serif" font-size="10.00">/vspline_p.h</text>
</a>
</g>
</g>
<!-- Node15&#45;&gt;Node26 -->
<g id="edge24" class="edge">
<title>Node15&#45;&gt;Node26</title>
<path fill="none" stroke="midnightblue" d="M4367.77,-143.6C4426.13,-132.77 4519.58,-115.04 4600,-98 4603.07,-97.35 4606.23,-96.67 4609.41,-95.97"/>
<polygon fill="midnightblue" stroke="midnightblue" points="4366.85,-140.22 4357.65,-145.48 4368.12,-147.1 4366.85,-140.22"/>
</g>
<!-- Node28 -->
<g id="node23" class="node">
<title>Node28</title>
<g id="a_node23"><a xlink:href="../../d9/d15/vabstractpiece_8cpp.html" target="_top" xlink:title=" ">
<polygon fill="white" stroke="black" points="4735,-73 4735,-92 4921,-92 4921,-73 4735,-73"/>
<text text-anchor="middle" x="4828" y="-80" font-family="Helvetica,sans-Serif" font-size="10.00">src/libs/vlayout/vabstractpiece.cpp</text>
</a>
</g>
</g>
<!-- Node15&#45;&gt;Node28 -->
<g id="edge26" class="edge">
<title>Node15&#45;&gt;Node28</title>
<path fill="none" stroke="midnightblue" d="M4384.91,-144.12C4467.74,-133.03 4606.02,-114.42 4725,-98 4738.86,-96.09 4753.77,-94 4767.82,-92.03"/>
<polygon fill="midnightblue" stroke="midnightblue" points="4384.29,-140.68 4374.84,-145.47 4385.22,-147.61 4384.29,-140.68"/>
</g>
<!-- Node29 -->
<g id="node24" class="node">
<title>Node29</title>
<g id="a_node24"><a xlink:href="../../d6/d0b/def_8cpp.html" target="_top" xlink:title=" ">
<polygon fill="white" stroke="black" points="4939,-73 4939,-92 5061,-92 5061,-73 4939,-73"/>
<text text-anchor="middle" x="5000" y="-80" font-family="Helvetica,sans-Serif" font-size="10.00">src/libs/vmisc/def.cpp</text>
</a>
</g>
</g>
<!-- Node15&#45;&gt;Node29 -->
<g id="edge29" class="edge">
<title>Node15&#45;&gt;Node29</title>
<path fill="none" stroke="midnightblue" d="M4418.94,-147.98C4542.81,-140.2 4751.82,-124.43 4930,-98 4940.68,-96.42 4952.19,-94.23 4962.72,-92.04"/>
<polygon fill="midnightblue" stroke="midnightblue" points="4418.47,-144.5 4408.7,-148.61 4418.9,-151.49 4418.47,-144.5"/>
</g>
<!-- Node30 -->
<g id="node25" class="node">
<title>Node30</title>
<g id="a_node25"><a xlink:href="../../db/d65/dialogexporttocsv_8cpp.html" target="_top" xlink:title=" ">
<polygon fill="white" stroke="black" points="5079.5,-67.5 5079.5,-97.5 5206.5,-97.5 5206.5,-67.5 5079.5,-67.5"/>
<text text-anchor="start" x="5087.5" y="-85.5" font-family="Helvetica,sans-Serif" font-size="10.00">src/libs/vmisc/dialogs</text>
<text text-anchor="middle" x="5143" y="-74.5" font-family="Helvetica,sans-Serif" font-size="10.00">/dialogexporttocsv.cpp</text>
</a>
</g>
</g>
<!-- Node15&#45;&gt;Node30 -->
<g id="edge30" class="edge">
<title>Node15&#45;&gt;Node30</title>
<path fill="none" stroke="midnightblue" d="M4419.16,-150.19C4566.78,-144.04 4839.37,-129.29 5070,-98 5073.07,-97.58 5076.21,-97.12 5079.38,-96.61"/>
<polygon fill="midnightblue" stroke="midnightblue" points="4418.59,-146.71 4408.75,-150.62 4418.88,-153.7 4418.59,-146.71"/>
</g>
<!-- Node31 -->
<g id="node26" class="node">
<title>Node31</title>
<g id="a_node26"><a xlink:href="../../d0/df6/vabstractapplication_8cpp.html" target="_top" xlink:title=" ">
<polygon fill="white" stroke="black" points="5225,-73 5225,-92 5431,-92 5431,-73 5225,-73"/>
<text text-anchor="middle" x="5328" y="-80" font-family="Helvetica,sans-Serif" font-size="10.00">src/libs/vmisc/vabstractapplication.cpp</text>
</a>
</g>
</g>
<!-- Node15&#45;&gt;Node31 -->
<g id="edge31" class="edge">
<title>Node15&#45;&gt;Node31</title>
<path fill="none" stroke="midnightblue" d="M4419.01,-149.61C4588.73,-142.19 4928.13,-125.26 5215,-98 5232.03,-96.38 5250.46,-94.2 5267.39,-92.02"/>
<polygon fill="midnightblue" stroke="midnightblue" points="4418.66,-146.12 4408.82,-150.05 4418.96,-153.11 4418.66,-146.12"/>
</g>
<!-- Node32 -->
<g id="node27" class="node">
<title>Node32</title>
<g id="a_node27"><a xlink:href="../../d4/d4f/pmsystems_8cpp.html" target="_top" xlink:title=" ">
<polygon fill="white" stroke="black" points="5449.5,-67.5 5449.5,-97.5 5556.5,-97.5 5556.5,-67.5 5449.5,-67.5"/>
<text text-anchor="start" x="5457.5" y="-85.5" font-family="Helvetica,sans-Serif" font-size="10.00">src/libs/vpatterndb</text>
<text text-anchor="middle" x="5503" y="-74.5" font-family="Helvetica,sans-Serif" font-size="10.00">/pmsystems.cpp</text>
</a>
</g>
</g>
<!-- Node15&#45;&gt;Node32 -->
<g id="edge32" class="edge">
<title>Node15&#45;&gt;Node32</title>
<path fill="none" stroke="midnightblue" d="M4418.86,-154.96C4620.45,-155.37 5067.67,-149.67 5440,-98 5443,-97.58 5446.07,-97.09 5449.16,-96.55"/>
<polygon fill="midnightblue" stroke="midnightblue" points="4418.58,-151.46 4408.57,-154.94 4418.56,-158.46 4418.58,-151.46"/>
</g>
<!-- Node15&#45;&gt;Node33 -->
<g id="edge33" class="edge">
<title>Node15&#45;&gt;Node33</title>
<path fill="none" stroke="midnightblue" d="M4418.72,-153.07C4736.81,-149.9 5668.5,-137.41 5970,-98 5973,-97.61 5976.08,-97.14 5979.17,-96.61"/>
<polygon fill="midnightblue" stroke="midnightblue" points="4418.54,-149.57 4408.58,-153.17 4418.61,-156.57 4418.54,-149.57"/>
</g>
<!-- Node15&#45;&gt;Node34 -->
<g id="edge34" class="edge">
<title>Node15&#45;&gt;Node34</title>
<path fill="none" stroke="midnightblue" d="M4418.93,-153.37C4753.17,-150.97 5768.22,-140.32 6095,-98 6098.01,-97.61 6101.08,-97.14 6104.17,-96.62"/>
<polygon fill="midnightblue" stroke="midnightblue" points="4418.74,-149.87 4408.76,-153.44 4418.79,-156.87 4418.74,-149.87"/>
</g>
<!-- Node15&#45;&gt;Node35 -->
<g id="edge35" class="edge">
<title>Node15&#45;&gt;Node35</title>
<path fill="none" stroke="midnightblue" d="M4418.89,-153.63C4768.49,-151.98 5867.79,-143.25 6220,-98 6223.01,-97.61 6226.08,-97.15 6229.17,-96.62"/>
<polygon fill="midnightblue" stroke="midnightblue" points="4418.76,-150.13 4408.77,-153.67 4418.79,-157.13 4418.76,-150.13"/>
</g>
<!-- Node36 -->
<g id="node31" class="node">
<title>Node36</title>
<g id="a_node31"><a xlink:href="../../df/dba/vpiecenode__p_8h.html" target="_top" xlink:title=" ">
<polygon fill="white" stroke="black" points="5574.5,-67.5 5574.5,-97.5 5681.5,-97.5 5681.5,-67.5 5574.5,-67.5"/>
<text text-anchor="start" x="5582.5" y="-85.5" font-family="Helvetica,sans-Serif" font-size="10.00">src/libs/vpatterndb</text>
<text text-anchor="middle" x="5628" y="-74.5" font-family="Helvetica,sans-Serif" font-size="10.00">/vpiecenode_p.h</text>
</a>
</g>
</g>
<!-- Node15&#45;&gt;Node36 -->
<g id="edge36" class="edge">
<title>Node15&#45;&gt;Node36</title>
<path fill="none" stroke="midnightblue" d="M4418.79,-151.7C4680.67,-145.71 5344.99,-127.98 5565,-98 5568,-97.59 5571.07,-97.11 5574.16,-96.57"/>
<polygon fill="midnightblue" stroke="midnightblue" points="4418.43,-148.21 4408.52,-151.94 4418.59,-155.21 4418.43,-148.21"/>
</g>
<!-- Node38 -->
<g id="node33" class="node">
<title>Node38</title>
<g id="a_node33"><a xlink:href="../../de/d3e/vtranslatevars_8cpp.html" target="_top" xlink:title=" ">
<polygon fill="white" stroke="black" points="5700,-67.5 5700,-97.5 5810,-97.5 5810,-67.5 5700,-67.5"/>
<text text-anchor="start" x="5708" y="-85.5" font-family="Helvetica,sans-Serif" font-size="10.00">src/libs/vpatterndb</text>
<text text-anchor="middle" x="5755" y="-74.5" font-family="Helvetica,sans-Serif" font-size="10.00">/vtranslatevars.cpp</text>
</a>
</g>
</g>
<!-- Node15&#45;&gt;Node38 -->
<g id="edge38" class="edge">
<title>Node15&#45;&gt;Node38</title>
<path fill="none" stroke="midnightblue" d="M4418.93,-152.11C4699.13,-146.81 5444.9,-130.05 5690,-98 5693.21,-97.58 5696.5,-97.08 5699.8,-96.52"/>
<polygon fill="midnightblue" stroke="midnightblue" points="4418.69,-148.62 4408.76,-152.3 4418.82,-155.62 4418.69,-148.62"/>
</g>
<!-- Node39 -->
<g id="node34" class="node">
<title>Node39</title>
<g id="a_node34"><a xlink:href="../../df/d40/export__format__combobox_8cpp.html" target="_top" xlink:title=" ">
<polygon fill="white" stroke="black" points="5828.5,-67.5 5828.5,-97.5 5961.5,-97.5 5961.5,-67.5 5828.5,-67.5"/>
<text text-anchor="start" x="5836.5" y="-85.5" font-family="Helvetica,sans-Serif" font-size="10.00">src/libs/vwidgets/export</text>
<text text-anchor="middle" x="5895" y="-74.5" font-family="Helvetica,sans-Serif" font-size="10.00">_format_combobox.cpp</text>
</a>
</g>
</g>
<!-- Node15&#45;&gt;Node39 -->
<g id="edge39" class="edge">
<title>Node15&#45;&gt;Node39</title>
<path fill="none" stroke="midnightblue" d="M4419.07,-152.11C4717.27,-146.57 5547.5,-128.76 5819,-98 5822.07,-97.65 5825.2,-97.25 5828.36,-96.81"/>
<polygon fill="midnightblue" stroke="midnightblue" points="4418.62,-148.62 4408.69,-152.31 4418.75,-155.62 4418.62,-148.62"/>
</g>
<!-- Node40 -->
<g id="node35" class="node">
<title>Node40</title>
<g id="a_node35"><a xlink:href="../../d2/d28/page__format__combobox_8cpp.html" target="_top" xlink:title=" ">
<polygon fill="white" stroke="black" points="1730.5,-67.5 1730.5,-97.5 1861.5,-97.5 1861.5,-67.5 1730.5,-67.5"/>
<text text-anchor="start" x="1738.5" y="-85.5" font-family="Helvetica,sans-Serif" font-size="10.00">src/libs/vwidgets/page</text>
<text text-anchor="middle" x="1796" y="-74.5" font-family="Helvetica,sans-Serif" font-size="10.00">_format_combobox.cpp</text>
</a>
</g>
</g>
<!-- Node15&#45;&gt;Node40 -->
<g id="edge40" class="edge">
<title>Node15&#45;&gt;Node40</title>
<path fill="none" stroke="midnightblue" d="M4203.12,-152.59C3761.55,-146.69 2104.37,-123.06 1871,-98 1867.97,-97.67 1864.87,-97.29 1861.76,-96.86"/>
<polygon fill="midnightblue" stroke="midnightblue" points="4203.27,-156.1 4213.32,-152.73 4203.37,-149.1 4203.27,-156.1"/>
</g>
<!-- Node41 -->
<g id="node36" class="node">
<title>Node41</title>
<g id="a_node36"><a xlink:href="../../d3/d4f/mouse__coordinates_8cpp.html" target="_top" xlink:title=" ">
<polygon fill="white" stroke="black" points="1880,-67.5 1880,-97.5 2014,-97.5 2014,-67.5 1880,-67.5"/>
<text text-anchor="start" x="1888" y="-85.5" font-family="Helvetica,sans-Serif" font-size="10.00">src/libs/vwidgets/mouse</text>
<text text-anchor="middle" x="1947" y="-74.5" font-family="Helvetica,sans-Serif" font-size="10.00">_coordinates.cpp</text>
</a>
</g>
</g>
<!-- Node15&#45;&gt;Node41 -->
<g id="edge41" class="edge">
<title>Node15&#45;&gt;Node41</title>
<path fill="none" stroke="midnightblue" d="M4203.18,-152.4C3779.41,-145.98 2240.69,-121.27 2023,-98 2020.06,-97.69 2017.07,-97.32 2014.05,-96.91"/>
<polygon fill="midnightblue" stroke="midnightblue" points="4203.23,-155.9 4213.29,-152.56 4203.34,-148.9 4203.23,-155.9"/>
</g>
<!-- Node42 -->
<g id="node37" class="node">
<title>Node42</title>
<g id="a_node37"><a xlink:href="../../d7/d1b/pen__toolbar_8cpp.html" target="_top" xlink:title=" ">
<polygon fill="white" stroke="black" points="2032.5,-67.5 2032.5,-97.5 2151.5,-97.5 2151.5,-67.5 2032.5,-67.5"/>
<text text-anchor="start" x="2040.5" y="-85.5" font-family="Helvetica,sans-Serif" font-size="10.00">src/libs/vwidgets/pen</text>
<text text-anchor="middle" x="2092" y="-74.5" font-family="Helvetica,sans-Serif" font-size="10.00">_toolbar.cpp</text>
</a>
</g>
</g>
<!-- Node15&#45;&gt;Node42 -->
<g id="edge42" class="edge">
<title>Node15&#45;&gt;Node42</title>
<path fill="none" stroke="midnightblue" d="M4203.24,-152.34C3796.09,-145.91 2364.25,-121.8 2161,-98 2157.96,-97.64 2154.86,-97.22 2151.73,-96.74"/>
<polygon fill="midnightblue" stroke="midnightblue" points="4203.19,-155.84 4213.25,-152.5 4203.31,-148.84 4203.19,-155.84"/>
</g>
<!-- Node43 -->
<g id="node38" class="node">
<title>Node43</title>
<g id="a_node38"><a xlink:href="../../d8/d76/scene__rect_8cpp.html" target="_top" xlink:title=" ">
<polygon fill="white" stroke="black" points="2170,-67.5 2170,-97.5 2300,-97.5 2300,-67.5 2170,-67.5"/>
<text text-anchor="start" x="2178" y="-85.5" font-family="Helvetica,sans-Serif" font-size="10.00">src/libs/vwidgets/scene</text>
<text text-anchor="middle" x="2235" y="-74.5" font-family="Helvetica,sans-Serif" font-size="10.00">_rect.cpp</text>
</a>
</g>
</g>
<!-- Node15&#45;&gt;Node43 -->
<g id="edge43" class="edge">
<title>Node15&#45;&gt;Node43</title>
<path fill="none" stroke="midnightblue" d="M4203.21,-153.34C3842.71,-150.76 2680.91,-139.35 2309,-98 2306.14,-97.68 2303.22,-97.31 2300.28,-96.9"/>
<polygon fill="midnightblue" stroke="midnightblue" points="4203.36,-156.84 4213.38,-153.41 4203.4,-149.84 4203.36,-156.84"/>
</g>
<!-- Node44 -->
<g id="node39" class="node">
<title>Node44</title>
<g id="a_node39"><a xlink:href="../../dd/df6/vabstractmainwindow_8cpp.html" target="_top" xlink:title=" ">
<polygon fill="white" stroke="black" points="2318.5,-73 2318.5,-92 2547.5,-92 2547.5,-73 2318.5,-73"/>
<text text-anchor="middle" x="2433" y="-80" font-family="Helvetica,sans-Serif" font-size="10.00">src/libs/vwidgets/vabstractmainwindow.cpp</text>
</a>
</g>
</g>
<!-- Node15&#45;&gt;Node44 -->
<g id="edge44" class="edge">
<title>Node15&#45;&gt;Node44</title>
<path fill="none" stroke="midnightblue" d="M4202.96,-153.76C3927.81,-152.45 3178.4,-144.53 2556,-98 2536.59,-96.55 2515.54,-94.31 2496.42,-92.03"/>
<polygon fill="midnightblue" stroke="midnightblue" points="4203.32,-157.26 4213.33,-153.81 4203.35,-150.26 4203.32,-157.26"/>
</g>
<!-- Node45 -->
<g id="node40" class="node">
<title>Node45</title>
<g id="a_node40"><a xlink:href="../../de/d45/vcontrolpointspline_8cpp.html" target="_top" xlink:title=" ">
<polygon fill="white" stroke="black" points="2565.5,-73 2565.5,-92 2780.5,-92 2780.5,-73 2565.5,-73"/>
<text text-anchor="middle" x="2673" y="-80" font-family="Helvetica,sans-Serif" font-size="10.00">src/libs/vwidgets/vcontrolpointspline.cpp</text>
</a>
</g>
</g>
<!-- Node15&#45;&gt;Node45 -->
<g id="edge45" class="edge">
<title>Node15&#45;&gt;Node45</title>
<path fill="none" stroke="midnightblue" d="M4203.2,-153.27C3953.89,-150.89 3318.33,-140.74 2789,-98 2770.79,-96.53 2751.05,-94.3 2733.1,-92.03"/>
<polygon fill="midnightblue" stroke="midnightblue" points="4203.31,-156.77 4213.34,-153.37 4203.37,-149.77 4203.31,-156.77"/>
</g>
<!-- Node46 -->
<g id="node41" class="node">
<title>Node46</title>
<g id="a_node41"><a xlink:href="../../d1/d90/vgrainlineitem_8cpp.html" target="_top" xlink:title=" ">
<polygon fill="white" stroke="black" points="2798.5,-73 2798.5,-92 2991.5,-92 2991.5,-73 2798.5,-73"/>
<text text-anchor="middle" x="2895" y="-80" font-family="Helvetica,sans-Serif" font-size="10.00">src/libs/vwidgets/vgrainlineitem.cpp</text>
</a>
</g>
</g>
<!-- Node15&#45;&gt;Node46 -->
<g id="edge46" class="edge">
<title>Node15&#45;&gt;Node46</title>
<path fill="none" stroke="midnightblue" d="M4203.31,-152.79C3979.14,-149.53 3446.2,-137.88 3001,-98 2984.35,-96.51 2966.31,-94.27 2949.91,-92"/>
<polygon fill="midnightblue" stroke="midnightblue" points="4203.38,-156.29 4213.43,-152.94 4203.48,-149.29 4203.38,-156.29"/>
</g>
<!-- Node47 -->
<g id="node42" class="node">
<title>Node47</title>
<g id="a_node42"><a xlink:href="../../de/dec/vgraphicssimpletextitem_8cpp.html" target="_top" xlink:title=" ">
<polygon fill="white" stroke="black" points="3010,-73 3010,-92 3254,-92 3254,-73 3010,-73"/>
<text text-anchor="middle" x="3132" y="-80" font-family="Helvetica,sans-Serif" font-size="10.00">src/libs/vwidgets/vgraphicssimpletextitem.cpp</text>
</a>
</g>
</g>
<!-- Node15&#45;&gt;Node47 -->
<g id="edge47" class="edge">
<title>Node15&#45;&gt;Node47</title>
<path fill="none" stroke="midnightblue" d="M4203.07,-150.26C4012.91,-143.21 3605.81,-126.11 3263,-98 3243.27,-96.38 3221.92,-94.2 3202.29,-92.03"/>
<polygon fill="midnightblue" stroke="midnightblue" points="4203.23,-153.77 4213.35,-150.64 4203.48,-146.77 4203.23,-153.77"/>
</g>
<!-- Node48 -->
<g id="node43" class="node">
<title>Node48</title>
<g id="a_node43"><a xlink:href="../../d1/d88/vmaingraphicsscene_8cpp.html" target="_top" xlink:title=" ">
<polygon fill="white" stroke="black" points="3272,-73 3272,-92 3494,-92 3494,-73 3272,-73"/>
<text text-anchor="middle" x="3383" y="-80" font-family="Helvetica,sans-Serif" font-size="10.00">src/libs/vwidgets/vmaingraphicsscene.cpp</text>
</a>
</g>
</g>
<!-- Node15&#45;&gt;Node48 -->
<g id="edge48" class="edge">
<title>Node15&#45;&gt;Node48</title>
<path fill="none" stroke="midnightblue" d="M4203.23,-148.28C4048.19,-139.66 3753.32,-121.78 3503,-98 3485.24,-96.31 3466.05,-94.15 3448.33,-92.01"/>
<polygon fill="midnightblue" stroke="midnightblue" points="4203.05,-151.78 4213.23,-148.84 4203.44,-144.79 4203.05,-151.78"/>
</g>
<!-- Node49 -->
<g id="node44" class="node">
<title>Node49</title>
<g id="a_node44"><a xlink:href="../../d2/d31/vmaingraphicsview_8cpp.html" target="_top" xlink:title=" ">
<polygon fill="white" stroke="black" points="3512,-73 3512,-92 3728,-92 3728,-73 3512,-73"/>
<text text-anchor="middle" x="3620" y="-80" font-family="Helvetica,sans-Serif" font-size="10.00">src/libs/vwidgets/vmaingraphicsview.cpp</text>
</a>
</g>
</g>
<!-- Node15&#45;&gt;Node49 -->
<g id="edge49" class="edge">
<title>Node15&#45;&gt;Node49</title>
<path fill="none" stroke="midnightblue" d="M4205.73,-144.56C4090.55,-134.04 3900.5,-116.1 3737,-98 3720.52,-96.18 3702.76,-94.05 3686.17,-92.01"/>
<polygon fill="midnightblue" stroke="midnightblue" points="4205.68,-148.07 4215.96,-145.49 4206.32,-141.1 4205.68,-148.07"/>
</g>
<!-- Node24&#45;&gt;Node25 -->
<g id="edge23" class="edge">
<title>Node24&#45;&gt;Node25</title>
<path fill="none" stroke="midnightblue" d="M4523.72,-58.87C4517.79,-49.46 4511.09,-38.83 4505.88,-30.58"/>
<polygon fill="midnightblue" stroke="midnightblue" points="4520.81,-60.81 4529.1,-67.4 4526.73,-57.07 4520.81,-60.81"/>
</g>
<!-- Node36&#45;&gt;Node37 -->
<g id="edge37" class="edge">
<title>Node36&#45;&gt;Node37</title>
<path fill="none" stroke="midnightblue" d="M5691.54,-66.97C5785.64,-48.58 5883.4,-33.21 5942.37,-24.35"/>
<polygon fill="midnightblue" stroke="midnightblue" points="5690.7,-63.57 5681.57,-68.93 5692.06,-70.43 5690.7,-63.57"/>
</g>
</g>
</svg>
