<?xml version="1.0" encoding="UTF-8" standalone="no"?>
<!DOCTYPE svg PUBLIC "-//W3C//DTD SVG 1.1//EN"
 "http://www.w3.org/Graphics/SVG/1.1/DTD/svg11.dtd">
<!-- Generated by graphviz version 2.43.0 (0)
 -->
<!-- Title: src/libs/xerces&#45;c/macx/include/xercesc/util/Transcoders/MacOSUnicodeConverter/MacOSUnicodeConverter.hpp Pages: 1 -->
<svg width="523pt" height="115pt"
 viewBox="0.00 0.00 523.00 115.00" xmlns="http://www.w3.org/2000/svg" xmlns:xlink="http://www.w3.org/1999/xlink">
<g id="graph0" class="graph" transform="scale(1 1) rotate(0) translate(4 111)">
<title>src/libs/xerces&#45;c/macx/include/xercesc/util/Transcoders/MacOSUnicodeConverter/MacOSUnicodeConverter.hpp</title>
<!-- Node1 -->
<g id="node1" class="node">
<title>Node1</title>
<g id="a_node1"><a xlink:title=" ">
<polygon fill="#999999" stroke="#666666" points="333.5,-107 131.5,-107 131.5,-55 333.5,-55 333.5,-107"/>
<text text-anchor="start" x="139.5" y="-95" font-family="Helvetica,sans-Serif" font-size="10.00">src/libs/xerces&#45;c/macx</text>
<text text-anchor="start" x="139.5" y="-84" font-family="Helvetica,sans-Serif" font-size="10.00">/include/xercesc/util</text>
<text text-anchor="start" x="139.5" y="-73" font-family="Helvetica,sans-Serif" font-size="10.00">/Transcoders/MacOSUnicodeConverter</text>
<text text-anchor="middle" x="232.5" y="-62" font-family="Helvetica,sans-Serif" font-size="10.00">/MacOSUnicodeConverter.hpp</text>
</a>
</g>
</g>
<!-- Node2 -->
<g id="node2" class="node">
<title>Node2</title>
<g id="a_node2"><a xlink:title=" ">
<polygon fill="#e0e0e0" stroke="#999999" points="53,-19 0,-19 0,0 53,0 53,-19"/>
<text text-anchor="middle" x="26.5" y="-7" font-family="Helvetica,sans-Serif" font-size="10.00">cstddef</text>
</a>
</g>
</g>
<!-- Node1&#45;&gt;Node2 -->
<g id="edge1" class="edge">
<title>Node1&#45;&gt;Node2</title>
<path fill="none" stroke="#63b8ff" d="M158.13,-54.91C125.22,-43.81 88.08,-31.28 61.66,-22.36"/>
<polygon fill="#63b8ff" stroke="#63b8ff" points="62.69,-19.02 52.1,-19.14 60.45,-25.65 62.69,-19.02"/>
</g>
<!-- Node3 -->
<g id="node3" class="node">
<title>Node3</title>
<g id="a_node3"><a xlink:title=" ">
<polygon fill="#e0e0e0" stroke="#999999" points="228.5,-19 70.5,-19 70.5,0 228.5,0 228.5,-19"/>
<text text-anchor="middle" x="149.5" y="-7" font-family="Helvetica,sans-Serif" font-size="10.00">xercesc/util/TransService.hpp</text>
</a>
</g>
</g>
<!-- Node1&#45;&gt;Node3 -->
<g id="edge2" class="edge">
<title>Node1&#45;&gt;Node3</title>
<path fill="none" stroke="#63b8ff" d="M202.54,-54.91C190.93,-45.19 178.01,-34.37 167.83,-25.85"/>
<polygon fill="#63b8ff" stroke="#63b8ff" points="169.93,-23.04 160.01,-19.3 165.43,-28.41 169.93,-23.04"/>
</g>
<!-- Node4 -->
<g id="node4" class="node">
<title>Node4</title>
<g id="a_node4"><a xlink:title=" ">
<polygon fill="#e0e0e0" stroke="#999999" points="384,-19 247,-19 247,0 384,0 384,-19"/>
<text text-anchor="middle" x="315.5" y="-7" font-family="Helvetica,sans-Serif" font-size="10.00">xercesc/util/Mutexes.hpp</text>
</a>
</g>
</g>
<!-- Node1&#45;&gt;Node4 -->
<g id="edge3" class="edge">
<title>Node1&#45;&gt;Node4</title>
<path fill="none" stroke="#63b8ff" d="M262.46,-54.91C274.07,-45.19 286.99,-34.37 297.17,-25.85"/>
<polygon fill="#63b8ff" stroke="#63b8ff" points="299.57,-28.41 304.99,-19.3 295.07,-23.04 299.57,-28.41"/>
</g>
<!-- Node5 -->
<g id="node5" class="node">
<title>Node5</title>
<g id="a_node5"><a xlink:title=" ">
<polygon fill="#e0e0e0" stroke="#999999" points="515,-19 402,-19 402,0 515,0 515,-19"/>
<text text-anchor="middle" x="458.5" y="-7" font-family="Helvetica,sans-Serif" font-size="10.00">UnicodeConverter.h</text>
</a>
</g>
</g>
<!-- Node1&#45;&gt;Node5 -->
<g id="edge4" class="edge">
<title>Node1&#45;&gt;Node5</title>
<path fill="none" stroke="#63b8ff" d="M314.09,-54.91C350.62,-43.67 391.91,-30.98 420.95,-22.05"/>
<polygon fill="#63b8ff" stroke="#63b8ff" points="422.16,-25.34 430.69,-19.05 420.1,-18.65 422.16,-25.34"/>
</g>
</g>
</svg>
