<?xml version="1.0" encoding="UTF-8" standalone="no"?>
<!DOCTYPE svg PUBLIC "-//W3C//DTD SVG 1.1//EN"
 "http://www.w3.org/Graphics/SVG/1.1/DTD/svg11.dtd">
<!-- Generated by graphviz version 2.43.0 (0)
 -->
<!-- Title: qmu::QmuTokenParser Pages: 1 -->
<!--zoomable 1683 -->
<svg id="main" version="1.1" xmlns="http://www.w3.org/2000/svg" xmlns:xlink="http://www.w3.org/1999/xlink" xml:space="preserve" onload="init(evt)">
<style type="text/css"><![CDATA[
.edge:hover path { stroke: red; }
.edge:hover polygon { stroke: red; fill: red; }
]]></style>
<script type="text/javascript"><![CDATA[
var edges = document.getElementsByTagName('g');
if (edges && edges.length) {
  for (var i=0;i<edges.length;i++) {
    if (edges[i].id.substr(0,4)=='edge') {
      edges[i].setAttribute('class','edge');
    }
  }
}
]]></script>
        <defs>
                <circle id="rim" cx="0" cy="0" r="7"/>
                <circle id="rim2" cx="0" cy="0" r="3.5"/>
                <g id="zoomPlus">
                        <use xlink:href="#rim" fill="#404040">
                                <set attributeName="fill" to="#808080" begin="zoomplus.mouseover" end="zoomplus.mouseout"/>
                        </use>
                        <path d="M-4,0h8M0,-4v8" fill="none" stroke="white" stroke-width="1.5" pointer-events="none"/>
                </g>
                <g id="zoomMin">
                        <use xlink:href="#rim" fill="#404040">
                                <set attributeName="fill" to="#808080" begin="zoomminus.mouseover" end="zoomminus.mouseout"/>
                        </use>
                        <path d="M-4,0h8" fill="none" stroke="white" stroke-width="1.5" pointer-events="none"/>
                </g>
                <g id="dirArrow">
                        <path fill="none" stroke="white" stroke-width="1.5" d="M0,-3.0v7 M-2.5,-0.5L0,-3.0L2.5,-0.5"/>
                </g>
               <g id="resetDef">
                       <use xlink:href="#rim2" fill="#404040">
                               <set attributeName="fill" to="#808080" begin="reset.mouseover" end="reset.mouseout"/>
                       </use>
               </g>
        </defs>

<script type="text/javascript">
var viewWidth = 1241;
var viewHeight = 1683;
var sectionId = 'dynsection-1';
</script>
<script xlink:href="../../svgpan.js"/>
<svg id="graph" class="graph">
<g id="viewport">
<title>qmu::QmuTokenParser</title>
<polygon fill="white" stroke="transparent" points="-4,4 -4,-1679 1237,-1679 1237,4 -4,4"/>
<!-- Node1 -->
<g id="node1" class="node">
<title>Node1</title>
<g id="a_node1"><a xlink:title=" ">
<polygon fill="#bfbfbf" stroke="black" points="556,-0.5 556,-90.5 681,-90.5 681,-0.5 556,-0.5"/>
<text text-anchor="middle" x="618.5" y="-78.5" font-family="Helvetica,sans-Serif" font-size="10.00">qmu::QmuTokenParser</text>
<polyline fill="none" stroke="black" points="556,-71.5 681,-71.5 "/>
<text text-anchor="middle" x="618.5" y="-59.5" font-family="Helvetica,sans-Serif" font-size="10.00"> </text>
<polyline fill="none" stroke="black" points="556,-52.5 681,-52.5 "/>
<text text-anchor="start" x="564" y="-40.5" font-family="Helvetica,sans-Serif" font-size="10.00">+ QmuTokenParser()</text>
<text text-anchor="start" x="564" y="-29.5" font-family="Helvetica,sans-Serif" font-size="10.00">+ ~QmuTokenParser()</text>
<text text-anchor="start" x="564" y="-18.5" font-family="Helvetica,sans-Serif" font-size="10.00">+ IsSingle()</text>
<text text-anchor="start" x="564" y="-7.5" font-family="Helvetica,sans-Serif" font-size="10.00">&#45; QmuTokenParser()</text>
</a>
</g>
</g>
<!-- Node2 -->
<g id="node2" class="node">
<title>Node2</title>
<g id="a_node2"><a xlink:href="../../df/de8/classqmu_1_1QmuFormulaBase.html" target="_top" xlink:title=" ">
<polygon fill="white" stroke="black" points="553,-128.5 553,-251.5 684,-251.5 684,-128.5 553,-128.5"/>
<text text-anchor="middle" x="618.5" y="-239.5" font-family="Helvetica,sans-Serif" font-size="10.00">qmu::QmuFormulaBase</text>
<polyline fill="none" stroke="black" points="553,-232.5 684,-232.5 "/>
<text text-anchor="middle" x="618.5" y="-220.5" font-family="Helvetica,sans-Serif" font-size="10.00"> </text>
<polyline fill="none" stroke="black" points="553,-213.5 684,-213.5 "/>
<text text-anchor="start" x="561" y="-201.5" font-family="Helvetica,sans-Serif" font-size="10.00">+ QmuFormulaBase()</text>
<text text-anchor="start" x="561" y="-190.5" font-family="Helvetica,sans-Serif" font-size="10.00">+ ~QmuFormulaBase()</text>
<text text-anchor="start" x="561" y="-179.5" font-family="Helvetica,sans-Serif" font-size="10.00">+ InitCharSets()</text>
<text text-anchor="start" x="561" y="-168.5" font-family="Helvetica,sans-Serif" font-size="10.00">+ RemoveAll()</text>
<text text-anchor="start" x="561" y="-157.5" font-family="Helvetica,sans-Serif" font-size="10.00"># SetSepForTr()</text>
<text text-anchor="start" x="561" y="-146.5" font-family="Helvetica,sans-Serif" font-size="10.00"># SetSepForEval()</text>
<text text-anchor="start" x="561" y="-135.5" font-family="Helvetica,sans-Serif" font-size="10.00"># AddVariable()</text>
</a>
</g>
</g>
<!-- Node2&#45;&gt;Node1 -->
<g id="edge1" class="edge">
<title>Node2&#45;&gt;Node1</title>
<path fill="none" stroke="midnightblue" d="M618.5,-118.08C618.5,-108.77 618.5,-99.46 618.5,-90.77"/>
<polygon fill="none" stroke="midnightblue" points="615,-118.15 618.5,-128.15 622,-118.15 615,-118.15"/>
</g>
<!-- Node3 -->
<g id="node3" class="node">
<title>Node3</title>
<g id="a_node3"><a xlink:href="../../d6/dfd/classqmu_1_1QmuParser.html" target="_top" xlink:title="Mathematical expressions parser.">
<polygon fill="white" stroke="black" points="561,-289.5 561,-533.5 676,-533.5 676,-289.5 561,-289.5"/>
<text text-anchor="middle" x="618.5" y="-521.5" font-family="Helvetica,sans-Serif" font-size="10.00">qmu::QmuParser</text>
<polyline fill="none" stroke="black" points="561,-514.5 676,-514.5 "/>
<text text-anchor="middle" x="618.5" y="-502.5" font-family="Helvetica,sans-Serif" font-size="10.00"> </text>
<polyline fill="none" stroke="black" points="561,-495.5 676,-495.5 "/>
<text text-anchor="start" x="569" y="-483.5" font-family="Helvetica,sans-Serif" font-size="10.00">+ QmuParser()</text>
<text text-anchor="start" x="569" y="-472.5" font-family="Helvetica,sans-Serif" font-size="10.00">+ InitCharSets()</text>
<text text-anchor="start" x="569" y="-461.5" font-family="Helvetica,sans-Serif" font-size="10.00">+ InitFun()</text>
<text text-anchor="start" x="569" y="-450.5" font-family="Helvetica,sans-Serif" font-size="10.00">+ InitConst()</text>
<text text-anchor="start" x="569" y="-439.5" font-family="Helvetica,sans-Serif" font-size="10.00">+ InitOprt()</text>
<text text-anchor="start" x="569" y="-428.5" font-family="Helvetica,sans-Serif" font-size="10.00">+ OnDetectVar()</text>
<text text-anchor="start" x="569" y="-417.5" font-family="Helvetica,sans-Serif" font-size="10.00">+ Diff()</text>
<text text-anchor="start" x="569" y="-406.5" font-family="Helvetica,sans-Serif" font-size="10.00"># IsVal()</text>
<text text-anchor="start" x="569" y="-395.5" font-family="Helvetica,sans-Serif" font-size="10.00"># Sinh()</text>
<text text-anchor="start" x="569" y="-384.5" font-family="Helvetica,sans-Serif" font-size="10.00"># Cosh()</text>
<text text-anchor="start" x="569" y="-373.5" font-family="Helvetica,sans-Serif" font-size="10.00"># Tanh()</text>
<text text-anchor="start" x="569" y="-362.5" font-family="Helvetica,sans-Serif" font-size="10.00"># ASinh()</text>
<text text-anchor="start" x="569" y="-351.5" font-family="Helvetica,sans-Serif" font-size="10.00"># ACosh()</text>
<text text-anchor="start" x="569" y="-340.5" font-family="Helvetica,sans-Serif" font-size="10.00"># ATanh()</text>
<text text-anchor="start" x="569" y="-329.5" font-family="Helvetica,sans-Serif" font-size="10.00"># DegreeToRadian()</text>
<text text-anchor="start" x="569" y="-318.5" font-family="Helvetica,sans-Serif" font-size="10.00"># RadianToDegree()</text>
<text text-anchor="start" x="569" y="-307.5" font-family="Helvetica,sans-Serif" font-size="10.00"># SinD()</text>
<text text-anchor="start" x="569" y="-296.5" font-family="Helvetica,sans-Serif" font-size="10.00">and 16 more...</text>
</a>
</g>
</g>
<!-- Node3&#45;&gt;Node2 -->
<g id="edge2" class="edge">
<title>Node3&#45;&gt;Node2</title>
<path fill="none" stroke="midnightblue" d="M618.5,-278.9C618.5,-269.49 618.5,-260.3 618.5,-251.62"/>
<polygon fill="none" stroke="midnightblue" points="615,-279.19 618.5,-289.19 622,-279.19 615,-279.19"/>
</g>
<!-- Node4 -->
<g id="node4" class="node">
<title>Node4</title>
<g id="a_node4"><a xlink:href="../../db/d62/classqmu_1_1QmuParserBase.html" target="_top" xlink:title="Mathematical expressions parser (base parser engine).">
<polygon fill="white" stroke="black" points="539.5,-571.5 539.5,-1112.5 697.5,-1112.5 697.5,-571.5 539.5,-571.5"/>
<text text-anchor="middle" x="618.5" y="-1100.5" font-family="Helvetica,sans-Serif" font-size="10.00">qmu::QmuParserBase</text>
<polyline fill="none" stroke="black" points="539.5,-1093.5 697.5,-1093.5 "/>
<text text-anchor="start" x="547.5" y="-1081.5" font-family="Helvetica,sans-Serif" font-size="10.00"># m_locale</text>
<text text-anchor="start" x="547.5" y="-1070.5" font-family="Helvetica,sans-Serif" font-size="10.00"># m_decimalPoint</text>
<text text-anchor="start" x="547.5" y="-1059.5" font-family="Helvetica,sans-Serif" font-size="10.00"># m_thousandsSeparator</text>
<text text-anchor="start" x="547.5" y="-1048.5" font-family="Helvetica,sans-Serif" font-size="10.00"># c_DefaultOprt</text>
<text text-anchor="start" x="547.5" y="-1037.5" font-family="Helvetica,sans-Serif" font-size="10.00"># g_DbgDumpCmdCode</text>
<text text-anchor="start" x="547.5" y="-1026.5" font-family="Helvetica,sans-Serif" font-size="10.00"># g_DbgDumpStack</text>
<text text-anchor="start" x="547.5" y="-1015.5" font-family="Helvetica,sans-Serif" font-size="10.00">&#45; m_pParseFormula</text>
<text text-anchor="start" x="547.5" y="-1004.5" font-family="Helvetica,sans-Serif" font-size="10.00">&#45; m_bBuiltInOp</text>
<text text-anchor="start" x="547.5" y="-993.5" font-family="Helvetica,sans-Serif" font-size="10.00">&#45; m_sNameChars</text>
<text text-anchor="start" x="547.5" y="-982.5" font-family="Helvetica,sans-Serif" font-size="10.00">&#45; m_sOprtChars</text>
<text text-anchor="start" x="547.5" y="-971.5" font-family="Helvetica,sans-Serif" font-size="10.00">&#45; m_sInfixOprtChars</text>
<text text-anchor="start" x="547.5" y="-960.5" font-family="Helvetica,sans-Serif" font-size="10.00">&#45; m_nIfElseCounter</text>
<text text-anchor="start" x="547.5" y="-949.5" font-family="Helvetica,sans-Serif" font-size="10.00">&#45; m_nFinalResultIdx</text>
<text text-anchor="start" x="547.5" y="-938.5" font-family="Helvetica,sans-Serif" font-size="10.00">&#45; allowSubexpressions</text>
<text text-anchor="start" x="547.5" y="-927.5" font-family="Helvetica,sans-Serif" font-size="10.00">&#45; s_MaxNumOpenMPThreads</text>
<polyline fill="none" stroke="black" points="539.5,-920.5 697.5,-920.5 "/>
<text text-anchor="start" x="547.5" y="-908.5" font-family="Helvetica,sans-Serif" font-size="10.00">+ QmuParserBase()</text>
<text text-anchor="start" x="547.5" y="-897.5" font-family="Helvetica,sans-Serif" font-size="10.00">+ QmuParserBase()</text>
<text text-anchor="start" x="547.5" y="-886.5" font-family="Helvetica,sans-Serif" font-size="10.00">+ operator=()</text>
<text text-anchor="start" x="547.5" y="-875.5" font-family="Helvetica,sans-Serif" font-size="10.00">+ ~QmuParserBase()</text>
<text text-anchor="start" x="547.5" y="-864.5" font-family="Helvetica,sans-Serif" font-size="10.00">+ Eval()</text>
<text text-anchor="start" x="547.5" y="-853.5" font-family="Helvetica,sans-Serif" font-size="10.00">+ Eval()</text>
<text text-anchor="start" x="547.5" y="-842.5" font-family="Helvetica,sans-Serif" font-size="10.00">+ Eval()</text>
<text text-anchor="start" x="547.5" y="-831.5" font-family="Helvetica,sans-Serif" font-size="10.00">+ GetNumResults()</text>
<text text-anchor="start" x="547.5" y="-820.5" font-family="Helvetica,sans-Serif" font-size="10.00">+ SetExpr()</text>
<text text-anchor="start" x="547.5" y="-809.5" font-family="Helvetica,sans-Serif" font-size="10.00">+ SetVarFactory()</text>
<text text-anchor="start" x="547.5" y="-798.5" font-family="Helvetica,sans-Serif" font-size="10.00">and 42 more...</text>
<text text-anchor="start" x="547.5" y="-787.5" font-family="Helvetica,sans-Serif" font-size="10.00">+ EnableDebugDump()</text>
<text text-anchor="start" x="547.5" y="-776.5" font-family="Helvetica,sans-Serif" font-size="10.00">+ GetVersion()</text>
<text text-anchor="start" x="547.5" y="-765.5" font-family="Helvetica,sans-Serif" font-size="10.00">+ GetOprtDef()</text>
<text text-anchor="start" x="547.5" y="-754.5" font-family="Helvetica,sans-Serif" font-size="10.00"># Init()</text>
<text text-anchor="start" x="547.5" y="-743.5" font-family="Helvetica,sans-Serif" font-size="10.00"># InitCharSets()</text>
<text text-anchor="start" x="547.5" y="-732.5" font-family="Helvetica,sans-Serif" font-size="10.00"># InitFun()</text>
<text text-anchor="start" x="547.5" y="-721.5" font-family="Helvetica,sans-Serif" font-size="10.00"># InitConst()</text>
<text text-anchor="start" x="547.5" y="-710.5" font-family="Helvetica,sans-Serif" font-size="10.00"># InitOprt()</text>
<text text-anchor="start" x="547.5" y="-699.5" font-family="Helvetica,sans-Serif" font-size="10.00"># OnDetectVar()</text>
<text text-anchor="start" x="547.5" y="-688.5" font-family="Helvetica,sans-Serif" font-size="10.00">&#45; Assign()</text>
<text text-anchor="start" x="547.5" y="-677.5" font-family="Helvetica,sans-Serif" font-size="10.00">&#45; InitTokenReader()</text>
<text text-anchor="start" x="547.5" y="-666.5" font-family="Helvetica,sans-Serif" font-size="10.00">&#45; ReInit()</text>
<text text-anchor="start" x="547.5" y="-655.5" font-family="Helvetica,sans-Serif" font-size="10.00">&#45; AddCallback()</text>
<text text-anchor="start" x="547.5" y="-644.5" font-family="Helvetica,sans-Serif" font-size="10.00">&#45; ApplyRemainingOprt()</text>
<text text-anchor="start" x="547.5" y="-633.5" font-family="Helvetica,sans-Serif" font-size="10.00">&#45; ApplyBinOprt()</text>
<text text-anchor="start" x="547.5" y="-622.5" font-family="Helvetica,sans-Serif" font-size="10.00">&#45; ApplyIfElse()</text>
<text text-anchor="start" x="547.5" y="-611.5" font-family="Helvetica,sans-Serif" font-size="10.00">&#45; ApplyFunc()</text>
<text text-anchor="start" x="547.5" y="-600.5" font-family="Helvetica,sans-Serif" font-size="10.00">&#45; ApplyStrFunc()</text>
<text text-anchor="start" x="547.5" y="-589.5" font-family="Helvetica,sans-Serif" font-size="10.00">&#45; GetOprtPrecedence()</text>
<text text-anchor="start" x="547.5" y="-578.5" font-family="Helvetica,sans-Serif" font-size="10.00">and 8 more...</text>
</a>
</g>
</g>
<!-- Node4&#45;&gt;Node3 -->
<g id="edge3" class="edge">
<title>Node4&#45;&gt;Node3</title>
<path fill="none" stroke="midnightblue" d="M618.5,-561.23C618.5,-551.87 618.5,-542.7 618.5,-533.79"/>
<polygon fill="none" stroke="midnightblue" points="615,-561.45 618.5,-571.45 622,-561.45 615,-561.45"/>
</g>
<!-- Node5 -->
<g id="node5" class="node">
<title>Node5</title>
<g id="a_node5"><a xlink:href="../../d8/df2/classqmu_1_1QmuParserByteCode.html" target="_top" xlink:title="Bytecode implementation of the Math Parser.">
<polygon fill="white" stroke="black" points="0,-1193.5 0,-1393.5 145,-1393.5 145,-1193.5 0,-1193.5"/>
<text text-anchor="middle" x="72.5" y="-1381.5" font-family="Helvetica,sans-Serif" font-size="10.00">qmu::QmuParserByteCode</text>
<polyline fill="none" stroke="black" points="0,-1374.5 145,-1374.5 "/>
<text text-anchor="start" x="8" y="-1362.5" font-family="Helvetica,sans-Serif" font-size="10.00">&#45; m_iStackPos</text>
<text text-anchor="start" x="8" y="-1351.5" font-family="Helvetica,sans-Serif" font-size="10.00">&#45; m_iMaxStackSize</text>
<text text-anchor="start" x="8" y="-1340.5" font-family="Helvetica,sans-Serif" font-size="10.00">&#45; m_bEnableOptimizer</text>
<polyline fill="none" stroke="black" points="0,-1333.5 145,-1333.5 "/>
<text text-anchor="start" x="8" y="-1321.5" font-family="Helvetica,sans-Serif" font-size="10.00">+ QmuParserByteCode()</text>
<text text-anchor="start" x="8" y="-1310.5" font-family="Helvetica,sans-Serif" font-size="10.00">+ QmuParserByteCode()</text>
<text text-anchor="start" x="8" y="-1299.5" font-family="Helvetica,sans-Serif" font-size="10.00">+ operator=()</text>
<text text-anchor="start" x="8" y="-1288.5" font-family="Helvetica,sans-Serif" font-size="10.00">+ Assign()</text>
<text text-anchor="start" x="8" y="-1277.5" font-family="Helvetica,sans-Serif" font-size="10.00">+ AddVar()</text>
<text text-anchor="start" x="8" y="-1266.5" font-family="Helvetica,sans-Serif" font-size="10.00">+ AddVal()</text>
<text text-anchor="start" x="8" y="-1255.5" font-family="Helvetica,sans-Serif" font-size="10.00">+ AddOp()</text>
<text text-anchor="start" x="8" y="-1244.5" font-family="Helvetica,sans-Serif" font-size="10.00">+ AddIfElse()</text>
<text text-anchor="start" x="8" y="-1233.5" font-family="Helvetica,sans-Serif" font-size="10.00">+ AddAssignOp()</text>
<text text-anchor="start" x="8" y="-1222.5" font-family="Helvetica,sans-Serif" font-size="10.00">+ AddFun()</text>
<text text-anchor="start" x="8" y="-1211.5" font-family="Helvetica,sans-Serif" font-size="10.00">and 9 more...</text>
<text text-anchor="start" x="8" y="-1200.5" font-family="Helvetica,sans-Serif" font-size="10.00">&#45; ConstantFolding()</text>
</a>
</g>
</g>
<!-- Node5&#45;&gt;Node4 -->
<g id="edge4" class="edge">
<title>Node5&#45;&gt;Node4</title>
<path fill="none" stroke="#404040" d="M145.31,-1202.13C148.36,-1199 151.43,-1195.94 154.5,-1193 274.49,-1078.06 432.1,-966.17 529.29,-900.97"/>
<polygon fill="none" stroke="#404040" points="529.4,-900.89 532.16,-894.23 539.38,-894.22 536.61,-900.88 529.4,-900.89"/>
<text text-anchor="middle" x="238" y="-1150.5" font-family="Helvetica,sans-Serif" font-size="10.00"> &#45;m_vRPN</text>
</g>
<!-- Node6 -->
<g id="node6" class="node">
<title>Node6</title>
<g id="a_node6"><a xlink:href="../../d5/dc2/classQVector.html" target="_top" xlink:title=" ">
<polygon fill="white" stroke="black" points="17,-1529.5 17,-1586.5 128,-1586.5 128,-1529.5 17,-1529.5"/>
<text text-anchor="middle" x="72.5" y="-1574.5" font-family="Helvetica,sans-Serif" font-size="10.00">QVector&lt; SToken &gt;</text>
<polyline fill="none" stroke="black" points="17,-1567.5 128,-1567.5 "/>
<text text-anchor="middle" x="72.5" y="-1555.5" font-family="Helvetica,sans-Serif" font-size="10.00"> </text>
<polyline fill="none" stroke="black" points="17,-1548.5 128,-1548.5 "/>
<text text-anchor="middle" x="72.5" y="-1536.5" font-family="Helvetica,sans-Serif" font-size="10.00"> </text>
</a>
</g>
</g>
<!-- Node6&#45;&gt;Node5 -->
<g id="edge5" class="edge">
<title>Node6&#45;&gt;Node5</title>
<path fill="none" stroke="#404040" d="M72.5,-1529.4C72.5,-1499.86 72.5,-1451.08 72.5,-1405.6"/>
<polygon fill="none" stroke="#404040" points="72.5,-1405.51 68.5,-1399.51 72.5,-1393.51 76.5,-1399.51 72.5,-1405.51"/>
<text text-anchor="middle" x="97" y="-1415" font-family="Helvetica,sans-Serif" font-size="10.00"> &#45;m_vRPN</text>
</g>
<!-- Node7 -->
<g id="node7" class="node">
<title>Node7</title>
<g id="a_node7"><a xlink:href="../../d0/d4c/classQMap.html" target="_top" xlink:title=" ">
<polygon fill="white" stroke="black" points="163.5,-1265 163.5,-1322 285.5,-1322 285.5,-1265 163.5,-1265"/>
<text text-anchor="middle" x="224.5" y="-1310" font-family="Helvetica,sans-Serif" font-size="10.00">QMap&lt; int, QString &gt;</text>
<polyline fill="none" stroke="black" points="163.5,-1303 285.5,-1303 "/>
<text text-anchor="middle" x="224.5" y="-1291" font-family="Helvetica,sans-Serif" font-size="10.00"> </text>
<polyline fill="none" stroke="black" points="163.5,-1284 285.5,-1284 "/>
<text text-anchor="middle" x="224.5" y="-1272" font-family="Helvetica,sans-Serif" font-size="10.00"> </text>
</a>
</g>
</g>
<!-- Node7&#45;&gt;Node4 -->
<g id="edge6" class="edge">
<title>Node7&#45;&gt;Node4</title>
<path fill="none" stroke="#404040" d="M242.56,-1264.75C256.17,-1244.38 275.64,-1216.32 294.5,-1193 369.89,-1099.76 463.66,-1000.02 530.89,-930.96"/>
<polygon fill="none" stroke="#404040" points="530.99,-930.86 532.32,-923.77 539.37,-922.27 538.04,-929.36 530.99,-930.86"/>
<text text-anchor="middle" x="379" y="-1156" font-family="Helvetica,sans-Serif" font-size="10.00"> &#45;m_Numbers</text>
<text text-anchor="middle" x="379" y="-1145" font-family="Helvetica,sans-Serif" font-size="10.00">&#45;m_Tokens</text>
</g>
<!-- Node8 -->
<g id="node8" class="node">
<title>Node8</title>
<g id="a_node8"><a xlink:title=" ">
<polygon fill="white" stroke="#bfbfbf" points="303.5,-1254 303.5,-1333 413.5,-1333 413.5,-1254 303.5,-1254"/>
<text text-anchor="start" x="311.5" y="-1321" font-family="Helvetica,sans-Serif" font-size="10.00">std::map&lt; QString,</text>
<text text-anchor="middle" x="358.5" y="-1310" font-family="Helvetica,sans-Serif" font-size="10.00"> qreal * &gt;</text>
<polyline fill="none" stroke="#bfbfbf" points="303.5,-1303 413.5,-1303 "/>
<text text-anchor="start" x="311.5" y="-1291" font-family="Helvetica,sans-Serif" font-size="10.00">+ keys</text>
<text text-anchor="start" x="311.5" y="-1280" font-family="Helvetica,sans-Serif" font-size="10.00">+ elements</text>
<polyline fill="none" stroke="#bfbfbf" points="303.5,-1273 413.5,-1273 "/>
<text text-anchor="middle" x="358.5" y="-1261" font-family="Helvetica,sans-Serif" font-size="10.00"> </text>
</a>
</g>
</g>
<!-- Node8&#45;&gt;Node4 -->
<g id="edge7" class="edge">
<title>Node8&#45;&gt;Node4</title>
<path fill="none" stroke="#404040" d="M380.89,-1253.79C414.49,-1195.71 479.71,-1082.94 533.34,-990.23"/>
<polygon fill="none" stroke="#404040" points="533.48,-989.99 533.02,-982.79 539.49,-979.6 539.95,-986.8 533.48,-989.99"/>
<text text-anchor="middle" x="477" y="-1150.5" font-family="Helvetica,sans-Serif" font-size="10.00"> &#45;m_VarDef</text>
</g>
<!-- Node9 -->
<g id="node9" class="node">
<title>Node9</title>
<g id="a_node9"><a xlink:href="../../d5/dc2/classQVector.html" target="_top" xlink:title=" ">
<polygon fill="white" stroke="black" points="432,-1265 432,-1322 545,-1322 545,-1265 432,-1265"/>
<text text-anchor="middle" x="488.5" y="-1310" font-family="Helvetica,sans-Serif" font-size="10.00">QVector&lt; QString &gt;</text>
<polyline fill="none" stroke="black" points="432,-1303 545,-1303 "/>
<text text-anchor="middle" x="488.5" y="-1291" font-family="Helvetica,sans-Serif" font-size="10.00"> </text>
<polyline fill="none" stroke="black" points="432,-1284 545,-1284 "/>
<text text-anchor="middle" x="488.5" y="-1272" font-family="Helvetica,sans-Serif" font-size="10.00"> </text>
</a>
</g>
</g>
<!-- Node9&#45;&gt;Node4 -->
<g id="edge8" class="edge">
<title>Node9&#45;&gt;Node4</title>
<path fill="none" stroke="#404040" d="M494.79,-1264.94C502.28,-1232.68 515.42,-1177.73 528.5,-1131 530.93,-1122.32 533.44,-1113.5 536.01,-1104.61"/>
<polygon fill="none" stroke="#404040" points="536.07,-1104.4 533.9,-1097.53 539.41,-1092.88 541.58,-1099.76 536.07,-1104.4"/>
<text text-anchor="middle" x="571.5" y="-1156" font-family="Helvetica,sans-Serif" font-size="10.00"> &#45;m_vStringBuf</text>
<text text-anchor="middle" x="571.5" y="-1145" font-family="Helvetica,sans-Serif" font-size="10.00">&#45;m_vStringVarBuf</text>
</g>
<!-- Node10 -->
<g id="node10" class="node">
<title>Node10</title>
<g id="a_node10"><a xlink:title=" ">
<polygon fill="white" stroke="#bfbfbf" points="563.5,-1254 563.5,-1333 673.5,-1333 673.5,-1254 563.5,-1254"/>
<text text-anchor="start" x="571.5" y="-1321" font-family="Helvetica,sans-Serif" font-size="10.00">std::map&lt; QString,</text>
<text text-anchor="middle" x="618.5" y="-1310" font-family="Helvetica,sans-Serif" font-size="10.00"> qreal &gt;</text>
<polyline fill="none" stroke="#bfbfbf" points="563.5,-1303 673.5,-1303 "/>
<text text-anchor="start" x="571.5" y="-1291" font-family="Helvetica,sans-Serif" font-size="10.00">+ keys</text>
<text text-anchor="start" x="571.5" y="-1280" font-family="Helvetica,sans-Serif" font-size="10.00">+ elements</text>
<polyline fill="none" stroke="#bfbfbf" points="563.5,-1273 673.5,-1273 "/>
<text text-anchor="middle" x="618.5" y="-1261" font-family="Helvetica,sans-Serif" font-size="10.00"> </text>
</a>
</g>
</g>
<!-- Node10&#45;&gt;Node4 -->
<g id="edge9" class="edge">
<title>Node10&#45;&gt;Node4</title>
<path fill="none" stroke="#404040" d="M618.5,-1253.79C618.5,-1222.62 618.5,-1175.71 618.5,-1124.6"/>
<polygon fill="none" stroke="#404040" points="618.5,-1124.58 614.5,-1118.58 618.5,-1112.58 622.5,-1118.58 618.5,-1124.58"/>
<text text-anchor="middle" x="652" y="-1150.5" font-family="Helvetica,sans-Serif" font-size="10.00"> &#45;m_ConstDef</text>
</g>
<!-- Node11 -->
<g id="node11" class="node">
<title>Node11</title>
<g id="a_node11"><a xlink:title=" ">
<polygon fill="white" stroke="#bfbfbf" points="691.5,-1259.5 691.5,-1327.5 817.5,-1327.5 817.5,-1259.5 691.5,-1259.5"/>
<text text-anchor="start" x="699.5" y="-1315.5" font-family="Helvetica,sans-Serif" font-size="10.00">std::map&lt; QString,</text>
<text text-anchor="middle" x="754.5" y="-1304.5" font-family="Helvetica,sans-Serif" font-size="10.00"> QmuParserCallback &gt;</text>
<polyline fill="none" stroke="#bfbfbf" points="691.5,-1297.5 817.5,-1297.5 "/>
<text text-anchor="start" x="699.5" y="-1285.5" font-family="Helvetica,sans-Serif" font-size="10.00">+ keys</text>
<polyline fill="none" stroke="#bfbfbf" points="691.5,-1278.5 817.5,-1278.5 "/>
<text text-anchor="middle" x="754.5" y="-1266.5" font-family="Helvetica,sans-Serif" font-size="10.00"> </text>
</a>
</g>
</g>
<!-- Node11&#45;&gt;Node4 -->
<g id="edge10" class="edge">
<title>Node11&#45;&gt;Node4</title>
<path fill="none" stroke="#404040" d="M744.5,-1259.45C734.62,-1226.8 718.5,-1173.5 701.03,-1115.77"/>
<polygon fill="none" stroke="#404040" points="700.99,-1115.65 695.43,-1111.07 697.52,-1104.17 703.08,-1108.75 700.99,-1115.65"/>
<text text-anchor="middle" x="757" y="-1167" font-family="Helvetica,sans-Serif" font-size="10.00"> &#45;m_FunDef</text>
<text text-anchor="middle" x="757" y="-1156" font-family="Helvetica,sans-Serif" font-size="10.00">&#45;m_InfixOprtDef</text>
<text text-anchor="middle" x="757" y="-1145" font-family="Helvetica,sans-Serif" font-size="10.00">&#45;m_OprtDef</text>
<text text-anchor="middle" x="757" y="-1134" font-family="Helvetica,sans-Serif" font-size="10.00">&#45;m_PostOprtDef</text>
</g>
<!-- Node12 -->
<g id="node12" class="node">
<title>Node12</title>
<g id="a_node12"><a xlink:href="../../db/dc4/classqmu_1_1QmuParserCallback.html" target="_top" xlink:title="Encapsulation of prototypes for a numerical parser function.">
<polygon fill="white" stroke="black" points="684.5,-1441.5 684.5,-1674.5 824.5,-1674.5 824.5,-1441.5 684.5,-1441.5"/>
<text text-anchor="middle" x="754.5" y="-1662.5" font-family="Helvetica,sans-Serif" font-size="10.00">qmu::QmuParserCallback</text>
<polyline fill="none" stroke="black" points="684.5,-1655.5 824.5,-1655.5 "/>
<text text-anchor="start" x="692.5" y="-1643.5" font-family="Helvetica,sans-Serif" font-size="10.00">&#45; m_pFun</text>
<text text-anchor="start" x="692.5" y="-1632.5" font-family="Helvetica,sans-Serif" font-size="10.00">&#45; m_iArgc</text>
<text text-anchor="start" x="692.5" y="-1621.5" font-family="Helvetica,sans-Serif" font-size="10.00">&#45; m_iPri</text>
<text text-anchor="start" x="692.5" y="-1610.5" font-family="Helvetica,sans-Serif" font-size="10.00">&#45; m_eOprtAsct</text>
<text text-anchor="start" x="692.5" y="-1599.5" font-family="Helvetica,sans-Serif" font-size="10.00">&#45; m_iCode</text>
<text text-anchor="start" x="692.5" y="-1588.5" font-family="Helvetica,sans-Serif" font-size="10.00">&#45; m_iType</text>
<text text-anchor="start" x="692.5" y="-1577.5" font-family="Helvetica,sans-Serif" font-size="10.00">&#45; m_bAllowOpti</text>
<polyline fill="none" stroke="black" points="684.5,-1570.5 824.5,-1570.5 "/>
<text text-anchor="start" x="692.5" y="-1558.5" font-family="Helvetica,sans-Serif" font-size="10.00">+ QmuParserCallback()</text>
<text text-anchor="start" x="692.5" y="-1547.5" font-family="Helvetica,sans-Serif" font-size="10.00">+ QmuParserCallback()</text>
<text text-anchor="start" x="692.5" y="-1536.5" font-family="Helvetica,sans-Serif" font-size="10.00">+ QmuParserCallback()</text>
<text text-anchor="start" x="692.5" y="-1525.5" font-family="Helvetica,sans-Serif" font-size="10.00">+ QmuParserCallback()</text>
<text text-anchor="start" x="692.5" y="-1514.5" font-family="Helvetica,sans-Serif" font-size="10.00">+ QmuParserCallback()</text>
<text text-anchor="start" x="692.5" y="-1503.5" font-family="Helvetica,sans-Serif" font-size="10.00">+ QmuParserCallback()</text>
<text text-anchor="start" x="692.5" y="-1492.5" font-family="Helvetica,sans-Serif" font-size="10.00">+ QmuParserCallback()</text>
<text text-anchor="start" x="692.5" y="-1481.5" font-family="Helvetica,sans-Serif" font-size="10.00">+ QmuParserCallback()</text>
<text text-anchor="start" x="692.5" y="-1470.5" font-family="Helvetica,sans-Serif" font-size="10.00">+ QmuParserCallback()</text>
<text text-anchor="start" x="692.5" y="-1459.5" font-family="Helvetica,sans-Serif" font-size="10.00">+ QmuParserCallback()</text>
<text text-anchor="start" x="692.5" y="-1448.5" font-family="Helvetica,sans-Serif" font-size="10.00">and 28 more...</text>
</a>
</g>
</g>
<!-- Node12&#45;&gt;Node11 -->
<g id="edge11" class="edge">
<title>Node12&#45;&gt;Node11</title>
<path fill="none" stroke="#404040" d="M754.5,-1441.48C754.5,-1405.58 754.5,-1368.08 754.5,-1339.95"/>
<polygon fill="none" stroke="#404040" points="754.5,-1339.72 750.5,-1333.72 754.5,-1327.72 758.5,-1333.72 754.5,-1339.72"/>
<text text-anchor="middle" x="783.5" y="-1415" font-family="Helvetica,sans-Serif" font-size="10.00"> +elements</text>
</g>
<!-- Node13 -->
<g id="node13" class="node">
<title>Node13</title>
<g id="a_node13"><a xlink:title=" ">
<polygon fill="white" stroke="#bfbfbf" points="835.5,-1254 835.5,-1333 945.5,-1333 945.5,-1254 835.5,-1254"/>
<text text-anchor="start" x="843.5" y="-1321" font-family="Helvetica,sans-Serif" font-size="10.00">std::map&lt; QString,</text>
<text text-anchor="middle" x="890.5" y="-1310" font-family="Helvetica,sans-Serif" font-size="10.00"> int &gt;</text>
<polyline fill="none" stroke="#bfbfbf" points="835.5,-1303 945.5,-1303 "/>
<text text-anchor="start" x="843.5" y="-1291" font-family="Helvetica,sans-Serif" font-size="10.00">+ keys</text>
<text text-anchor="start" x="843.5" y="-1280" font-family="Helvetica,sans-Serif" font-size="10.00">+ elements</text>
<polyline fill="none" stroke="#bfbfbf" points="835.5,-1273 945.5,-1273 "/>
<text text-anchor="middle" x="890.5" y="-1261" font-family="Helvetica,sans-Serif" font-size="10.00"> </text>
</a>
</g>
</g>
<!-- Node13&#45;&gt;Node4 -->
<g id="edge12" class="edge">
<title>Node13&#45;&gt;Node4</title>
<path fill="none" stroke="#404040" d="M869.81,-1253.98C851.94,-1221.05 825.17,-1172.53 800.5,-1131 769.97,-1079.61 735.18,-1023.91 704.26,-975.31"/>
<polygon fill="none" stroke="#404040" points="704.17,-975.17 697.57,-972.26 697.72,-965.05 704.32,-967.96 704.17,-975.17"/>
<text text-anchor="middle" x="860" y="-1150.5" font-family="Helvetica,sans-Serif" font-size="10.00"> &#45;m_StrVarDef</text>
</g>
<!-- Node14 -->
<g id="node14" class="node">
<title>Node14</title>
<g id="a_node14"><a xlink:href="../../d5/dc2/classQVector.html" target="_top" xlink:title=" ">
<polygon fill="white" stroke="black" points="963.5,-1265 963.5,-1322 1065.5,-1322 1065.5,-1265 963.5,-1265"/>
<text text-anchor="middle" x="1014.5" y="-1310" font-family="Helvetica,sans-Serif" font-size="10.00">QVector&lt; qreal &gt;</text>
<polyline fill="none" stroke="black" points="963.5,-1303 1065.5,-1303 "/>
<text text-anchor="middle" x="1014.5" y="-1291" font-family="Helvetica,sans-Serif" font-size="10.00"> </text>
<polyline fill="none" stroke="black" points="963.5,-1284 1065.5,-1284 "/>
<text text-anchor="middle" x="1014.5" y="-1272" font-family="Helvetica,sans-Serif" font-size="10.00"> </text>
</a>
</g>
</g>
<!-- Node14&#45;&gt;Node4 -->
<g id="edge13" class="edge">
<title>Node14&#45;&gt;Node4</title>
<path fill="none" stroke="#404040" d="M999.8,-1264.99C988.4,-1244.49 971.69,-1216.16 954.5,-1193 879.87,-1092.47 778.63,-990.68 706.84,-922.99"/>
<polygon fill="none" stroke="#404040" points="706.54,-922.71 699.43,-921.52 697.79,-914.5 704.9,-915.69 706.54,-922.71"/>
<text text-anchor="middle" x="981" y="-1150.5" font-family="Helvetica,sans-Serif" font-size="10.00"> &#45;m_vStackBuffer</text>
</g>
<!-- Node15 -->
<g id="node15" class="node">
<title>Node15</title>
<g id="a_node15"><a xlink:title=" ">
<polygon fill="white" stroke="#bfbfbf" points="1084,-1259.5 1084,-1327.5 1233,-1327.5 1233,-1259.5 1084,-1259.5"/>
<text text-anchor="start" x="1092" y="-1315.5" font-family="Helvetica,sans-Serif" font-size="10.00">std::unique_ptr&lt; qmu</text>
<text text-anchor="middle" x="1158.5" y="-1304.5" font-family="Helvetica,sans-Serif" font-size="10.00">::QmuParserTokenReader &gt;</text>
<polyline fill="none" stroke="#bfbfbf" points="1084,-1297.5 1233,-1297.5 "/>
<text text-anchor="start" x="1092" y="-1285.5" font-family="Helvetica,sans-Serif" font-size="10.00">+ ptr</text>
<polyline fill="none" stroke="#bfbfbf" points="1084,-1278.5 1233,-1278.5 "/>
<text text-anchor="start" x="1092" y="-1266.5" font-family="Helvetica,sans-Serif" font-size="10.00">+ operator&#45;&gt;()</text>
</a>
</g>
</g>
<!-- Node15&#45;&gt;Node4 -->
<g id="edge14" class="edge">
<title>Node15&#45;&gt;Node4</title>
<path fill="none" stroke="#404040" d="M1135.77,-1259.32C1111.34,-1224.99 1070.24,-1170.93 1027.5,-1131 927.19,-1037.28 794.81,-949.5 708.22,-896.05"/>
<polygon fill="none" stroke="#404040" points="708.12,-895.98 700.91,-896.25 697.89,-889.7 705.1,-889.43 708.12,-895.98"/>
<text text-anchor="middle" x="1112" y="-1150.5" font-family="Helvetica,sans-Serif" font-size="10.00"> &#45;m_pTokenReader</text>
</g>
</g>
</svg>
        <g id="navigator" transform="translate(0 0)" fill="#404254">
                <rect fill="#f2f5e9" fill-opacity="0.5" stroke="#606060" stroke-width=".5" x="0" y="0" width="60" height="60"/>
                <use id="zoomplus" xlink:href="#zoomPlus" x="17" y="9" onmousedown="handleZoom(evt,'in')"/>
                <use id="zoomminus" xlink:href="#zoomMin" x="42" y="9" onmousedown="handleZoom(evt,'out')"/>
                <use id="reset" xlink:href="#resetDef" x="30" y="36" onmousedown="handleReset()"/>
                <g id="arrowUp" xlink:href="#dirArrow" transform="translate(30 24)" onmousedown="handlePan(0,-1)">
                  <use xlink:href="#rim" fill="#404040">
                        <set attributeName="fill" to="#808080" begin="arrowUp.mouseover" end="arrowUp.mouseout"/>
                  </use>
                  <path fill="none" stroke="white" stroke-width="1.5" d="M0,-3.0v7 M-2.5,-0.5L0,-3.0L2.5,-0.5"/>
                </g>
                <g id="arrowRight" xlink:href="#dirArrow" transform="rotate(90) translate(36 -43)" onmousedown="handlePan(1,0)">
                  <use xlink:href="#rim" fill="#404040">
                        <set attributeName="fill" to="#808080" begin="arrowRight.mouseover" end="arrowRight.mouseout"/>
                  </use>
                  <path fill="none" stroke="white" stroke-width="1.5" d="M0,-3.0v7 M-2.5,-0.5L0,-3.0L2.5,-0.5"/>
                </g>
                <g id="arrowDown" xlink:href="#dirArrow" transform="rotate(180) translate(-30 -48)" onmousedown="handlePan(0,1)">
                  <use xlink:href="#rim" fill="#404040">
                        <set attributeName="fill" to="#808080" begin="arrowDown.mouseover" end="arrowDown.mouseout"/>
                  </use>
                  <path fill="none" stroke="white" stroke-width="1.5" d="M0,-3.0v7 M-2.5,-0.5L0,-3.0L2.5,-0.5"/>
                </g>
                <g id="arrowLeft" xlink:href="#dirArrow" transform="rotate(270) translate(-36 17)" onmousedown="handlePan(-1,0)">
                  <use xlink:href="#rim" fill="#404040">
                        <set attributeName="fill" to="#808080" begin="arrowLeft.mouseover" end="arrowLeft.mouseout"/>
                  </use>
                  <path fill="none" stroke="white" stroke-width="1.5" d="M0,-3.0v7 M-2.5,-0.5L0,-3.0L2.5,-0.5"/>
                </g>
        </g>
        <svg viewBox="0 0 15 15" width="100%" height="30px" preserveAspectRatio="xMaxYMin meet">
         <g id="arrow_out" transform="scale(0.3 0.3)">
          <a xlink:href="classqmu_1_1QmuTokenParser__coll__graph_org.svg" target="_base">
           <rect id="button" ry="5" rx="5" y="6" x="6" height="38" width="38"
                fill="#f2f5e9" fill-opacity="0.5" stroke="#606060" stroke-width="1.0"/>
           <path id="arrow"
             d="M 11.500037,31.436501 C 11.940474,20.09759 22.043105,11.32322 32.158766,21.979434 L 37.068811,17.246167 C 37.068811,17.246167 37.088388,32 37.088388,32 L 22.160133,31.978069 C 22.160133,31.978069 26.997745,27.140456 26.997745,27.140456 C 18.528582,18.264221 13.291696,25.230495 11.500037,31.436501 z"
             style="fill:#404040;"/>
          </a>
         </g>
        </svg>
</svg>
