<?xml version="1.0" encoding="UTF-8" standalone="no"?>
<!DOCTYPE svg PUBLIC "-//W3C//DTD SVG 1.1//EN"
 "http://www.w3.org/Graphics/SVG/1.1/DTD/svg11.dtd">
<!-- Generated by graphviz version 2.43.0 (0)
 -->
<!-- Title: src/app/seamly2d/core/vcmdexport.h Pages: 1 -->
<svg width="4471pt" height="173pt"
 viewBox="0.00 0.00 4471.00 173.00" xmlns="http://www.w3.org/2000/svg" xmlns:xlink="http://www.w3.org/1999/xlink">
<g id="graph0" class="graph" transform="scale(1 1) rotate(0) translate(4 169)">
<title>src/app/seamly2d/core/vcmdexport.h</title>
<polygon fill="white" stroke="transparent" points="-4,4 -4,-169 4467,-169 4467,4 -4,4"/>
<!-- Node1 -->
<g id="node1" class="node">
<title>Node1</title>
<g id="a_node1"><a xlink:title=" ">
<polygon fill="#bfbfbf" stroke="black" points="1940,-134.5 1940,-164.5 2067,-164.5 2067,-134.5 1940,-134.5"/>
<text text-anchor="start" x="1948" y="-152.5" font-family="Helvetica,sans-Serif" font-size="10.00">src/app/seamly2d/core</text>
<text text-anchor="middle" x="2003.5" y="-141.5" font-family="Helvetica,sans-Serif" font-size="10.00">/vcmdexport.h</text>
</a>
</g>
</g>
<!-- Node2 -->
<g id="node2" class="node">
<title>Node2</title>
<g id="a_node2"><a xlink:href="../../d7/d61/application__2d_8h.html" target="_top" xlink:title=" ">
<polygon fill="white" stroke="black" points="1940,-67.5 1940,-97.5 2067,-97.5 2067,-67.5 1940,-67.5"/>
<text text-anchor="start" x="1948" y="-85.5" font-family="Helvetica,sans-Serif" font-size="10.00">src/app/seamly2d/core</text>
<text text-anchor="middle" x="2003.5" y="-74.5" font-family="Helvetica,sans-Serif" font-size="10.00">/application_2d.h</text>
</a>
</g>
</g>
<!-- Node1&#45;&gt;Node2 -->
<g id="edge1" class="edge">
<title>Node1&#45;&gt;Node2</title>
<path fill="none" stroke="midnightblue" d="M2003.5,-124.11C2003.5,-115.15 2003.5,-105.32 2003.5,-97.58"/>
<polygon fill="midnightblue" stroke="midnightblue" points="2000,-124.4 2003.5,-134.4 2007,-124.4 2000,-124.4"/>
</g>
<!-- Node28 -->
<g id="node28" class="node">
<title>Node28</title>
<g id="a_node28"><a xlink:href="../../df/d9b/vcmdexport_8cpp.html" target="_top" xlink:title=" ">
<polygon fill="white" stroke="black" points="2085,-67.5 2085,-97.5 2212,-97.5 2212,-67.5 2085,-67.5"/>
<text text-anchor="start" x="2093" y="-85.5" font-family="Helvetica,sans-Serif" font-size="10.00">src/app/seamly2d/core</text>
<text text-anchor="middle" x="2148.5" y="-74.5" font-family="Helvetica,sans-Serif" font-size="10.00">/vcmdexport.cpp</text>
</a>
</g>
</g>
<!-- Node1&#45;&gt;Node28 -->
<g id="edge27" class="edge">
<title>Node1&#45;&gt;Node28</title>
<path fill="none" stroke="midnightblue" d="M2044.17,-130.27C2067.26,-119.92 2095.74,-107.15 2117.1,-97.58"/>
<polygon fill="midnightblue" stroke="midnightblue" points="2042.66,-127.11 2034.96,-134.4 2045.52,-133.5 2042.66,-127.11"/>
</g>
<!-- Node29 -->
<g id="node29" class="node">
<title>Node29</title>
<g id="a_node29"><a xlink:href="../../d9/d53/mainwindow_8h.html" target="_top" xlink:title=" ">
<polygon fill="white" stroke="black" points="226.5,-73 226.5,-92 402.5,-92 402.5,-73 226.5,-73"/>
<text text-anchor="middle" x="314.5" y="-80" font-family="Helvetica,sans-Serif" font-size="10.00">src/app/seamly2d/mainwindow.h</text>
</a>
</g>
</g>
<!-- Node1&#45;&gt;Node29 -->
<g id="edge28" class="edge">
<title>Node1&#45;&gt;Node29</title>
<path fill="none" stroke="midnightblue" d="M1929.64,-145.66C1655.78,-135.12 698.97,-98.3 402.66,-86.89"/>
<polygon fill="midnightblue" stroke="midnightblue" points="1929.74,-149.16 1939.86,-146.05 1930,-142.17 1929.74,-149.16"/>
</g>
<!-- Node3 -->
<g id="node3" class="node">
<title>Node3</title>
<g id="a_node3"><a xlink:href="../../df/d3e/application__2d_8cpp.html" target="_top" xlink:title=" ">
<polygon fill="white" stroke="black" points="0,-0.5 0,-30.5 127,-30.5 127,-0.5 0,-0.5"/>
<text text-anchor="start" x="8" y="-18.5" font-family="Helvetica,sans-Serif" font-size="10.00">src/app/seamly2d/core</text>
<text text-anchor="middle" x="63.5" y="-7.5" font-family="Helvetica,sans-Serif" font-size="10.00">/application_2d.cpp</text>
</a>
</g>
</g>
<!-- Node2&#45;&gt;Node3 -->
<g id="edge2" class="edge">
<title>Node2&#45;&gt;Node3</title>
<path fill="none" stroke="midnightblue" d="M1929.3,-81.2C1627.62,-79.7 492.11,-71.43 135.5,-31 132.71,-30.68 129.87,-30.32 127.01,-29.91"/>
<polygon fill="midnightblue" stroke="midnightblue" points="1929.66,-84.7 1939.68,-81.25 1929.7,-77.7 1929.66,-84.7"/>
</g>
<!-- Node4 -->
<g id="node4" class="node">
<title>Node4</title>
<g id="a_node4"><a xlink:href="../../d9/d7f/about2d__dialog_8cpp.html" target="_top" xlink:title=" ">
<polygon fill="white" stroke="black" points="2689,-0.5 2689,-30.5 2830,-30.5 2830,-0.5 2689,-0.5"/>
<text text-anchor="start" x="2697" y="-18.5" font-family="Helvetica,sans-Serif" font-size="10.00">src/app/seamly2d/dialogs</text>
<text text-anchor="middle" x="2759.5" y="-7.5" font-family="Helvetica,sans-Serif" font-size="10.00">/about2d_dialog.cpp</text>
</a>
</g>
</g>
<!-- Node2&#45;&gt;Node4 -->
<g id="edge3" class="edge">
<title>Node2&#45;&gt;Node4</title>
<path fill="none" stroke="midnightblue" d="M2077.14,-67.06C2344.97,-33.46 2416.79,-62.94 2680.5,-31 2683.27,-30.66 2686.09,-30.29 2688.93,-29.89"/>
<polygon fill="midnightblue" stroke="midnightblue" points="2076.6,-63.6 2067.12,-68.33 2077.48,-70.54 2076.6,-63.6"/>
</g>
<!-- Node5 -->
<g id="node5" class="node">
<title>Node5</title>
<g id="a_node5"><a xlink:href="../../dd/db4/abstractlayout__dialog_8cpp.html" target="_top" xlink:title=" ">
<polygon fill="white" stroke="black" points="2848.5,-0.5 2848.5,-30.5 2994.5,-30.5 2994.5,-0.5 2848.5,-0.5"/>
<text text-anchor="start" x="2856.5" y="-18.5" font-family="Helvetica,sans-Serif" font-size="10.00">src/app/seamly2d/dialogs</text>
<text text-anchor="middle" x="2921.5" y="-7.5" font-family="Helvetica,sans-Serif" font-size="10.00">/abstractlayout_dialog.cpp</text>
</a>
</g>
</g>
<!-- Node2&#45;&gt;Node5 -->
<g id="edge4" class="edge">
<title>Node2&#45;&gt;Node5</title>
<path fill="none" stroke="midnightblue" d="M2077.19,-67.07C2415.24,-26.64 2505.4,-68.27 2839.5,-31 2842.37,-30.68 2845.3,-30.32 2848.25,-29.93"/>
<polygon fill="midnightblue" stroke="midnightblue" points="2076.62,-63.61 2067.11,-68.29 2077.46,-70.56 2076.62,-63.61"/>
</g>
<!-- Node6 -->
<g id="node6" class="node">
<title>Node6</title>
<g id="a_node6"><a xlink:href="../../d7/dfa/calculator__dialog_8cpp.html" target="_top" xlink:title=" ">
<polygon fill="white" stroke="black" points="3013,-0.5 3013,-30.5 3154,-30.5 3154,-0.5 3013,-0.5"/>
<text text-anchor="start" x="3021" y="-18.5" font-family="Helvetica,sans-Serif" font-size="10.00">src/app/seamly2d/dialogs</text>
<text text-anchor="middle" x="3083.5" y="-7.5" font-family="Helvetica,sans-Serif" font-size="10.00">/calculator_dialog.cpp</text>
</a>
</g>
</g>
<!-- Node2&#45;&gt;Node6 -->
<g id="edge5" class="edge">
<title>Node2&#45;&gt;Node6</title>
<path fill="none" stroke="midnightblue" d="M2077.17,-67.08C2487.72,-19.6 2596.94,-75.52 3003.5,-31 3006.59,-30.66 3009.73,-30.28 3012.91,-29.85"/>
<polygon fill="midnightblue" stroke="midnightblue" points="2076.63,-63.62 2067.11,-68.25 2077.45,-70.57 2076.63,-63.62"/>
</g>
<!-- Node7 -->
<g id="node7" class="node">
<title>Node7</title>
<g id="a_node7"><a xlink:href="../../d2/d2d/preferencesconfigurationpage_8cpp.html" target="_top" xlink:title=" ">
<polygon fill="white" stroke="black" points="3172,-0.5 3172,-30.5 3419,-30.5 3419,-0.5 3172,-0.5"/>
<text text-anchor="start" x="3180" y="-18.5" font-family="Helvetica,sans-Serif" font-size="10.00">src/app/seamly2d/dialogs</text>
<text text-anchor="middle" x="3295.5" y="-7.5" font-family="Helvetica,sans-Serif" font-size="10.00">/configpages/preferencesconfigurationpage.cpp</text>
</a>
</g>
</g>
<!-- Node2&#45;&gt;Node7 -->
<g id="edge6" class="edge">
<title>Node2&#45;&gt;Node7</title>
<path fill="none" stroke="midnightblue" d="M2077.09,-67.09C2558.43,-12.46 2684.65,-65.18 3163.5,-31 3166.26,-30.8 3169.05,-30.59 3171.86,-30.37"/>
<polygon fill="midnightblue" stroke="midnightblue" points="2076.64,-63.62 2067.1,-68.23 2077.44,-70.57 2076.64,-63.62"/>
</g>
<!-- Node8 -->
<g id="node8" class="node">
<title>Node8</title>
<g id="a_node8"><a xlink:href="../../dc/d20/preferencespathpage_8cpp.html" target="_top" xlink:title=" ">
<polygon fill="white" stroke="black" points="3437,-0.5 3437,-30.5 3642,-30.5 3642,-0.5 3437,-0.5"/>
<text text-anchor="start" x="3445" y="-18.5" font-family="Helvetica,sans-Serif" font-size="10.00">src/app/seamly2d/dialogs</text>
<text text-anchor="middle" x="3539.5" y="-7.5" font-family="Helvetica,sans-Serif" font-size="10.00">/configpages/preferencespathpage.cpp</text>
</a>
</g>
</g>
<!-- Node2&#45;&gt;Node8 -->
<g id="edge7" class="edge">
<title>Node2&#45;&gt;Node8</title>
<path fill="none" stroke="midnightblue" d="M2077.28,-67.08C2675.64,-1.08 2832.6,-77.73 3428.5,-31 3431.21,-30.79 3433.96,-30.55 3436.73,-30.3"/>
<polygon fill="midnightblue" stroke="midnightblue" points="2076.65,-63.62 2067.1,-68.21 2077.43,-70.58 2076.65,-63.62"/>
</g>
<!-- Node9 -->
<g id="node9" class="node">
<title>Node9</title>
<g id="a_node9"><a xlink:href="../../d9/d70/preferencesgraphicsviewpage_8cpp.html" target="_top" xlink:title=" ">
<polygon fill="white" stroke="black" points="3659.5,-0.5 3659.5,-30.5 3907.5,-30.5 3907.5,-0.5 3659.5,-0.5"/>
<text text-anchor="start" x="3667.5" y="-18.5" font-family="Helvetica,sans-Serif" font-size="10.00">src/app/seamly2d/dialogs</text>
<text text-anchor="middle" x="3783.5" y="-7.5" font-family="Helvetica,sans-Serif" font-size="10.00">/configpages/preferencesgraphicsviewpage.cpp</text>
</a>
</g>
</g>
<!-- Node2&#45;&gt;Node9 -->
<g id="edge8" class="edge">
<title>Node2&#45;&gt;Node9</title>
<path fill="none" stroke="midnightblue" d="M2077.14,-67.09C2774.22,8.67 2956.17,-77.05 3651.5,-31 3654.03,-30.83 3656.59,-30.65 3659.16,-30.46"/>
<polygon fill="midnightblue" stroke="midnightblue" points="2076.66,-63.63 2067.1,-68.19 2077.42,-70.58 2076.66,-63.63"/>
</g>
<!-- Node10 -->
<g id="node10" class="node">
<title>Node10</title>
<g id="a_node10"><a xlink:href="../../dd/dc2/decimalchart__dialog_8cpp.html" target="_top" xlink:title=" ">
<polygon fill="white" stroke="black" points="3926,-0.5 3926,-30.5 4067,-30.5 4067,-0.5 3926,-0.5"/>
<text text-anchor="start" x="3934" y="-18.5" font-family="Helvetica,sans-Serif" font-size="10.00">src/app/seamly2d/dialogs</text>
<text text-anchor="middle" x="3996.5" y="-7.5" font-family="Helvetica,sans-Serif" font-size="10.00">/decimalchart_dialog.cpp</text>
</a>
</g>
</g>
<!-- Node2&#45;&gt;Node10 -->
<g id="edge9" class="edge">
<title>Node2&#45;&gt;Node10</title>
<path fill="none" stroke="midnightblue" d="M2077.31,-67.08C2891.46,19.92 3105.98,-111.86 3916.5,-31 3919.59,-30.69 3922.74,-30.33 3925.92,-29.92"/>
<polygon fill="midnightblue" stroke="midnightblue" points="2076.67,-63.63 2067.1,-68.18 2077.42,-70.59 2076.67,-63.63"/>
</g>
<!-- Node11 -->
<g id="node11" class="node">
<title>Node11</title>
<g id="a_node11"><a xlink:href="../../dc/d63/preferencespatternpage_8cpp.html" target="_top" xlink:title=" ">
<polygon fill="white" stroke="black" points="4085.5,-0.5 4085.5,-30.5 4303.5,-30.5 4303.5,-0.5 4085.5,-0.5"/>
<text text-anchor="start" x="4093.5" y="-18.5" font-family="Helvetica,sans-Serif" font-size="10.00">src/app/seamly2d/dialogs</text>
<text text-anchor="middle" x="4194.5" y="-7.5" font-family="Helvetica,sans-Serif" font-size="10.00">/configpages/preferencespatternpage.cpp</text>
</a>
</g>
</g>
<!-- Node2&#45;&gt;Node11 -->
<g id="edge10" class="edge">
<title>Node2&#45;&gt;Node11</title>
<path fill="none" stroke="midnightblue" d="M2077.12,-67.12C2534.76,-20.13 3636.32,-61.92 4076.5,-31 4079.38,-30.8 4082.3,-30.57 4085.25,-30.33"/>
<polygon fill="midnightblue" stroke="midnightblue" points="2076.68,-63.65 2067.1,-68.17 2077.41,-70.61 2076.68,-63.65"/>
</g>
<!-- Node12 -->
<g id="node12" class="node">
<title>Node12</title>
<g id="a_node12"><a xlink:href="../../de/d87/dialognewpattern_8cpp.html" target="_top" xlink:title=" ">
<polygon fill="white" stroke="black" points="4322,-0.5 4322,-30.5 4463,-30.5 4463,-0.5 4322,-0.5"/>
<text text-anchor="start" x="4330" y="-18.5" font-family="Helvetica,sans-Serif" font-size="10.00">src/app/seamly2d/dialogs</text>
<text text-anchor="middle" x="4392.5" y="-7.5" font-family="Helvetica,sans-Serif" font-size="10.00">/dialognewpattern.cpp</text>
</a>
</g>
</g>
<!-- Node2&#45;&gt;Node12 -->
<g id="edge11" class="edge">
<title>Node2&#45;&gt;Node12</title>
<path fill="none" stroke="midnightblue" d="M2077.15,-67.12C2587.07,-15.23 3821.18,-79.16 4312.5,-31 4315.59,-30.7 4318.74,-30.34 4321.92,-29.94"/>
<polygon fill="midnightblue" stroke="midnightblue" points="2076.68,-63.65 2067.1,-68.17 2077.41,-70.61 2076.68,-63.65"/>
</g>
<!-- Node13 -->
<g id="node13" class="node">
<title>Node13</title>
<g id="a_node13"><a xlink:href="../../d2/d00/vtooloptionspropertybrowser_8cpp.html" target="_top" xlink:title=" ">
<polygon fill="white" stroke="black" points="520.5,-0.5 520.5,-30.5 700.5,-30.5 700.5,-0.5 520.5,-0.5"/>
<text text-anchor="start" x="528.5" y="-18.5" font-family="Helvetica,sans-Serif" font-size="10.00">src/app/seamly2d/core</text>
<text text-anchor="middle" x="610.5" y="-7.5" font-family="Helvetica,sans-Serif" font-size="10.00">/vtooloptionspropertybrowser.cpp</text>
</a>
</g>
</g>
<!-- Node2&#45;&gt;Node13 -->
<g id="edge12" class="edge">
<title>Node2&#45;&gt;Node13</title>
<path fill="none" stroke="midnightblue" d="M1929.49,-81.32C1731.42,-80.27 1172.86,-73.43 710.5,-31 707.27,-30.7 703.98,-30.37 700.66,-30.02"/>
<polygon fill="midnightblue" stroke="midnightblue" points="1929.76,-84.83 1939.78,-81.38 1929.79,-77.83 1929.76,-84.83"/>
</g>
<!-- Node14 -->
<g id="node14" class="node">
<title>Node14</title>
<g id="a_node14"><a xlink:href="../../d6/d89/dialoglayoutprogress_8cpp.html" target="_top" xlink:title=" ">
<polygon fill="white" stroke="black" points="719,-0.5 719,-30.5 862,-30.5 862,-0.5 719,-0.5"/>
<text text-anchor="start" x="727" y="-18.5" font-family="Helvetica,sans-Serif" font-size="10.00">src/app/seamly2d/dialogs</text>
<text text-anchor="middle" x="790.5" y="-7.5" font-family="Helvetica,sans-Serif" font-size="10.00">/dialoglayoutprogress.cpp</text>
</a>
</g>
</g>
<!-- Node2&#45;&gt;Node14 -->
<g id="edge13" class="edge">
<title>Node2&#45;&gt;Node14</title>
<path fill="none" stroke="midnightblue" d="M1929.55,-81.59C1748.49,-81.06 1268.75,-75.22 871.5,-31 868.52,-30.67 865.48,-30.29 862.42,-29.88"/>
<polygon fill="midnightblue" stroke="midnightblue" points="1929.75,-85.09 1939.75,-81.61 1929.76,-78.09 1929.75,-85.09"/>
</g>
<!-- Node15 -->
<g id="node15" class="node">
<title>Node15</title>
<g id="a_node15"><a xlink:href="../../d5/dc5/dialogpreferences_8cpp.html" target="_top" xlink:title=" ">
<polygon fill="white" stroke="black" points="880,-0.5 880,-30.5 1021,-30.5 1021,-0.5 880,-0.5"/>
<text text-anchor="start" x="888" y="-18.5" font-family="Helvetica,sans-Serif" font-size="10.00">src/app/seamly2d/dialogs</text>
<text text-anchor="middle" x="950.5" y="-7.5" font-family="Helvetica,sans-Serif" font-size="10.00">/dialogpreferences.cpp</text>
</a>
</g>
</g>
<!-- Node2&#45;&gt;Node15 -->
<g id="edge14" class="edge">
<title>Node2&#45;&gt;Node15</title>
<path fill="none" stroke="midnightblue" d="M1929.41,-80.87C1766.38,-78.78 1364.46,-69.77 1030.5,-31 1027.42,-30.64 1024.27,-30.24 1021.1,-29.8"/>
<polygon fill="midnightblue" stroke="midnightblue" points="1929.76,-84.37 1939.8,-81 1929.84,-77.37 1929.76,-84.37"/>
</g>
<!-- Node16 -->
<g id="node16" class="node">
<title>Node16</title>
<g id="a_node16"><a xlink:href="../../d5/d18/dialogpatternproperties_8cpp.html" target="_top" xlink:title=" ">
<polygon fill="white" stroke="black" points="1039,-0.5 1039,-30.5 1194,-30.5 1194,-0.5 1039,-0.5"/>
<text text-anchor="start" x="1047" y="-18.5" font-family="Helvetica,sans-Serif" font-size="10.00">src/app/seamly2d/dialogs</text>
<text text-anchor="middle" x="1116.5" y="-7.5" font-family="Helvetica,sans-Serif" font-size="10.00">/dialogpatternproperties.cpp</text>
</a>
</g>
</g>
<!-- Node2&#45;&gt;Node16 -->
<g id="edge15" class="edge">
<title>Node2&#45;&gt;Node16</title>
<path fill="none" stroke="midnightblue" d="M1929.5,-79.35C1788.07,-74.69 1469.73,-61.51 1203.5,-31 1200.46,-30.65 1197.36,-30.27 1194.23,-29.86"/>
<polygon fill="midnightblue" stroke="midnightblue" points="1929.68,-82.86 1939.79,-79.69 1929.91,-75.86 1929.68,-82.86"/>
</g>
<!-- Node17 -->
<g id="node17" class="node">
<title>Node17</title>
<g id="a_node17"><a xlink:href="../../dd/d54/export__layout__dialog_8cpp.html" target="_top" xlink:title=" ">
<polygon fill="white" stroke="black" points="1212,-0.5 1212,-30.5 1355,-30.5 1355,-0.5 1212,-0.5"/>
<text text-anchor="start" x="1220" y="-18.5" font-family="Helvetica,sans-Serif" font-size="10.00">src/app/seamly2d/dialogs</text>
<text text-anchor="middle" x="1283.5" y="-7.5" font-family="Helvetica,sans-Serif" font-size="10.00">/export_layout_dialog.cpp</text>
</a>
</g>
</g>
<!-- Node2&#45;&gt;Node17 -->
<g id="edge16" class="edge">
<title>Node2&#45;&gt;Node17</title>
<path fill="none" stroke="midnightblue" d="M1929.69,-78.03C1810.47,-71.89 1568.27,-57.23 1364.5,-31 1361.52,-30.62 1358.49,-30.2 1355.43,-29.76"/>
<polygon fill="midnightblue" stroke="midnightblue" points="1929.63,-81.53 1939.8,-78.54 1929.99,-74.54 1929.63,-81.53"/>
</g>
<!-- Node18 -->
<g id="node18" class="node">
<title>Node18</title>
<g id="a_node18"><a xlink:href="../../db/d5c/groups__widget_8cpp.html" target="_top" xlink:title=" ">
<polygon fill="white" stroke="black" points="1373,-0.5 1373,-30.5 1514,-30.5 1514,-0.5 1373,-0.5"/>
<text text-anchor="start" x="1381" y="-18.5" font-family="Helvetica,sans-Serif" font-size="10.00">src/app/seamly2d/dialogs</text>
<text text-anchor="middle" x="1443.5" y="-7.5" font-family="Helvetica,sans-Serif" font-size="10.00">/groups_widget.cpp</text>
</a>
</g>
</g>
<!-- Node2&#45;&gt;Node18 -->
<g id="edge17" class="edge">
<title>Node2&#45;&gt;Node18</title>
<path fill="none" stroke="midnightblue" d="M1929.62,-75.45C1835.19,-67.32 1666.76,-51.49 1523.5,-31 1520.43,-30.56 1517.29,-30.09 1514.12,-29.6"/>
<polygon fill="midnightblue" stroke="midnightblue" points="1929.38,-78.94 1939.65,-76.31 1929.98,-71.97 1929.38,-78.94"/>
</g>
<!-- Node19 -->
<g id="node19" class="node">
<title>Node19</title>
<g id="a_node19"><a xlink:href="../../d0/dfa/layoutsettings__dialog_8cpp.html" target="_top" xlink:title=" ">
<polygon fill="white" stroke="black" points="1532,-0.5 1532,-30.5 1677,-30.5 1677,-0.5 1532,-0.5"/>
<text text-anchor="start" x="1540" y="-18.5" font-family="Helvetica,sans-Serif" font-size="10.00">src/app/seamly2d/dialogs</text>
<text text-anchor="middle" x="1604.5" y="-7.5" font-family="Helvetica,sans-Serif" font-size="10.00">/layoutsettings_dialog.cpp</text>
</a>
</g>
</g>
<!-- Node2&#45;&gt;Node19 -->
<g id="edge18" class="edge">
<title>Node2&#45;&gt;Node19</title>
<path fill="none" stroke="midnightblue" d="M1929.96,-70.15C1865.67,-60.14 1769.84,-45.01 1686.5,-31 1683.51,-30.5 1680.45,-29.98 1677.37,-29.45"/>
<polygon fill="midnightblue" stroke="midnightblue" points="1929.58,-73.63 1940,-71.71 1930.65,-66.71 1929.58,-73.63"/>
</g>
<!-- Node20 -->
<g id="node20" class="node">
<title>Node20</title>
<g id="a_node20"><a xlink:href="../../d2/df4/show__info__dialog_8cpp.html" target="_top" xlink:title=" ">
<polygon fill="white" stroke="black" points="1695,-0.5 1695,-30.5 1836,-30.5 1836,-0.5 1695,-0.5"/>
<text text-anchor="start" x="1703" y="-18.5" font-family="Helvetica,sans-Serif" font-size="10.00">src/app/seamly2d/dialogs</text>
<text text-anchor="middle" x="1765.5" y="-7.5" font-family="Helvetica,sans-Serif" font-size="10.00">/show_info_dialog.cpp</text>
</a>
</g>
</g>
<!-- Node2&#45;&gt;Node20 -->
<g id="edge19" class="edge">
<title>Node2&#45;&gt;Node20</title>
<path fill="none" stroke="midnightblue" d="M1942.04,-64.71C1903.31,-54.14 1853.87,-40.63 1817.17,-30.61"/>
<polygon fill="midnightblue" stroke="midnightblue" points="1941.58,-68.22 1952.15,-67.48 1943.43,-61.46 1941.58,-68.22"/>
</g>
<!-- Node21 -->
<g id="node21" class="node">
<title>Node21</title>
<g id="a_node21"><a xlink:href="../../dd/d84/shortcuts__dialog_8cpp.html" target="_top" xlink:title=" ">
<polygon fill="white" stroke="black" points="1854,-0.5 1854,-30.5 1995,-30.5 1995,-0.5 1854,-0.5"/>
<text text-anchor="start" x="1862" y="-18.5" font-family="Helvetica,sans-Serif" font-size="10.00">src/app/seamly2d/dialogs</text>
<text text-anchor="middle" x="1924.5" y="-7.5" font-family="Helvetica,sans-Serif" font-size="10.00">/shortcuts_dialog.cpp</text>
</a>
</g>
</g>
<!-- Node2&#45;&gt;Node21 -->
<g id="edge20" class="edge">
<title>Node2&#45;&gt;Node21</title>
<path fill="none" stroke="midnightblue" d="M1978.44,-60.88C1966.44,-51.01 1952.37,-39.43 1941.61,-30.58"/>
<polygon fill="midnightblue" stroke="midnightblue" points="1976.41,-63.75 1986.36,-67.4 1980.86,-58.34 1976.41,-63.75"/>
</g>
<!-- Node22 -->
<g id="node22" class="node">
<title>Node22</title>
<g id="a_node22"><a xlink:href="../../df/d69/welcome__dialog_8cpp.html" target="_top" xlink:title=" ">
<polygon fill="white" stroke="black" points="2013,-0.5 2013,-30.5 2154,-30.5 2154,-0.5 2013,-0.5"/>
<text text-anchor="start" x="2021" y="-18.5" font-family="Helvetica,sans-Serif" font-size="10.00">src/app/seamly2d/dialogs</text>
<text text-anchor="middle" x="2083.5" y="-7.5" font-family="Helvetica,sans-Serif" font-size="10.00">/welcome_dialog.cpp</text>
</a>
</g>
</g>
<!-- Node2&#45;&gt;Node22 -->
<g id="edge21" class="edge">
<title>Node2&#45;&gt;Node22</title>
<path fill="none" stroke="midnightblue" d="M2028.87,-60.88C2041.03,-51.01 2055.28,-39.43 2066.18,-30.58"/>
<polygon fill="midnightblue" stroke="midnightblue" points="2026.41,-58.37 2020.86,-67.4 2030.83,-63.81 2026.41,-58.37"/>
</g>
<!-- Node23 -->
<g id="node23" class="node">
<title>Node23</title>
<g id="a_node23"><a xlink:href="../../dc/d14/app_2seamly2d_2main_8cpp.html" target="_top" xlink:title=" ">
<polygon fill="white" stroke="black" points="145,-6 145,-25 296,-25 296,-6 145,-6"/>
<text text-anchor="middle" x="220.5" y="-13" font-family="Helvetica,sans-Serif" font-size="10.00">src/app/seamly2d/main.cpp</text>
</a>
</g>
</g>
<!-- Node2&#45;&gt;Node23 -->
<g id="edge22" class="edge">
<title>Node2&#45;&gt;Node23</title>
<path fill="none" stroke="midnightblue" d="M1929.58,-80.67C1646.01,-77.29 627.64,-63.11 305.5,-31 291.8,-29.63 276.96,-27.38 263.58,-25.05"/>
<polygon fill="midnightblue" stroke="midnightblue" points="1929.71,-84.17 1939.75,-80.79 1929.79,-77.17 1929.71,-84.17"/>
</g>
<!-- Node24 -->
<g id="node24" class="node">
<title>Node24</title>
<g id="a_node24"><a xlink:href="../../d8/de8/mainwindowsnogui_8cpp.html" target="_top" xlink:title=" ">
<polygon fill="white" stroke="black" points="2172,-6 2172,-25 2393,-25 2393,-6 2172,-6"/>
<text text-anchor="middle" x="2282.5" y="-13" font-family="Helvetica,sans-Serif" font-size="10.00">src/app/seamly2d/mainwindowsnogui.cpp</text>
</a>
</g>
</g>
<!-- Node2&#45;&gt;Node24 -->
<g id="edge23" class="edge">
<title>Node2&#45;&gt;Node24</title>
<path fill="none" stroke="midnightblue" d="M2073.68,-65.15C2128.43,-52.39 2202.27,-35.19 2245.89,-25.03"/>
<polygon fill="midnightblue" stroke="midnightblue" points="2072.64,-61.8 2063.7,-67.48 2074.23,-68.62 2072.64,-61.8"/>
</g>
<!-- Node25 -->
<g id="node25" class="node">
<title>Node25</title>
<g id="a_node25"><a xlink:href="../../d3/d49/vpattern_8cpp.html" target="_top" xlink:title=" ">
<polygon fill="white" stroke="black" points="2411,-0.5 2411,-30.5 2536,-30.5 2536,-0.5 2411,-0.5"/>
<text text-anchor="start" x="2419" y="-18.5" font-family="Helvetica,sans-Serif" font-size="10.00">src/app/seamly2d/xml</text>
<text text-anchor="middle" x="2473.5" y="-7.5" font-family="Helvetica,sans-Serif" font-size="10.00">/vpattern.cpp</text>
</a>
</g>
</g>
<!-- Node2&#45;&gt;Node25 -->
<g id="edge24" class="edge">
<title>Node2&#45;&gt;Node25</title>
<path fill="none" stroke="midnightblue" d="M2077.31,-66.97C2222.32,-45.16 2261.73,-53.1 2402.5,-31 2405.23,-30.57 2408.02,-30.11 2410.84,-29.62"/>
<polygon fill="midnightblue" stroke="midnightblue" points="2076.5,-63.55 2067.14,-68.52 2077.56,-70.47 2076.5,-63.55"/>
</g>
<!-- Node26 -->
<g id="node26" class="node">
<title>Node26</title>
<g id="a_node26"><a xlink:href="../../d8/dd9/mainwindow_8cpp.html" target="_top" xlink:title=" ">
<polygon fill="white" stroke="black" points="314.5,-6 314.5,-25 502.5,-25 502.5,-6 314.5,-6"/>
<text text-anchor="middle" x="408.5" y="-13" font-family="Helvetica,sans-Serif" font-size="10.00">src/app/seamly2d/mainwindow.cpp</text>
</a>
</g>
</g>
<!-- Node2&#45;&gt;Node26 -->
<g id="edge25" class="edge">
<title>Node2&#45;&gt;Node26</title>
<path fill="none" stroke="midnightblue" d="M1929.71,-81.77C1712.14,-81.96 1054.46,-78.27 511.5,-31 495.13,-29.57 477.38,-27.33 461.31,-25.03"/>
<polygon fill="midnightblue" stroke="midnightblue" points="1929.74,-85.27 1939.73,-81.75 1929.73,-78.27 1929.74,-85.27"/>
</g>
<!-- Node27 -->
<g id="node27" class="node">
<title>Node27</title>
<g id="a_node27"><a xlink:href="../../d9/da3/image__tool_8cpp.html" target="_top" xlink:title=" ">
<polygon fill="white" stroke="black" points="2554,-0.5 2554,-30.5 2671,-30.5 2671,-0.5 2554,-0.5"/>
<text text-anchor="start" x="2562" y="-18.5" font-family="Helvetica,sans-Serif" font-size="10.00">src/libs/tools/images</text>
<text text-anchor="middle" x="2612.5" y="-7.5" font-family="Helvetica,sans-Serif" font-size="10.00">/image_tool.cpp</text>
</a>
</g>
</g>
<!-- Node2&#45;&gt;Node27 -->
<g id="edge26" class="edge">
<title>Node2&#45;&gt;Node27</title>
<path fill="none" stroke="midnightblue" d="M2077.16,-67.04C2285.37,-39.28 2341.86,-60.71 2545.5,-31 2548.21,-30.6 2550.97,-30.16 2553.76,-29.69"/>
<polygon fill="midnightblue" stroke="midnightblue" points="2076.57,-63.59 2067.13,-68.4 2077.51,-70.52 2076.57,-63.59"/>
</g>
<!-- Node29&#45;&gt;Node3 -->
<g id="edge29" class="edge">
<title>Node29&#45;&gt;Node3</title>
<path fill="none" stroke="midnightblue" d="M271.67,-70.41C229.17,-59.4 163.9,-42.5 117.79,-30.56"/>
<polygon fill="midnightblue" stroke="midnightblue" points="270.87,-73.82 281.43,-72.94 272.62,-67.04 270.87,-73.82"/>
</g>
<!-- Node29&#45;&gt;Node23 -->
<g id="edge30" class="edge">
<title>Node29&#45;&gt;Node23</title>
<path fill="none" stroke="midnightblue" d="M293.41,-66.92C274.83,-54.07 248.38,-35.78 232.98,-25.13"/>
<polygon fill="midnightblue" stroke="midnightblue" points="291.61,-69.93 301.82,-72.73 295.59,-64.17 291.61,-69.93"/>
</g>
<!-- Node29&#45;&gt;Node26 -->
<g id="edge31" class="edge">
<title>Node29&#45;&gt;Node26</title>
<path fill="none" stroke="midnightblue" d="M335.59,-66.92C354.17,-54.07 380.62,-35.78 396.02,-25.13"/>
<polygon fill="midnightblue" stroke="midnightblue" points="333.41,-64.17 327.18,-72.73 337.39,-69.93 333.41,-64.17"/>
</g>
</g>
</svg>
