<?xml version="1.0" encoding="UTF-8" standalone="no"?>
<!DOCTYPE svg PUBLIC "-//W3C//DTD SVG 1.1//EN"
 "http://www.w3.org/Graphics/SVG/1.1/DTD/svg11.dtd">
<!-- Generated by graphviz version 2.43.0 (0)
 -->
<!-- Title: src/libs/vmisc/logging.h Pages: 1 -->
<svg width="1326pt" height="95pt"
 viewBox="0.00 0.00 1326.00 95.00" xmlns="http://www.w3.org/2000/svg" xmlns:xlink="http://www.w3.org/1999/xlink">
<g id="graph0" class="graph" transform="scale(1 1) rotate(0) translate(4 91)">
<title>src/libs/vmisc/logging.h</title>
<polygon fill="white" stroke="transparent" points="-4,4 -4,-91 1322,-91 1322,4 -4,4"/>
<!-- Node1 -->
<g id="node1" class="node">
<title>Node1</title>
<g id="a_node1"><a xlink:title=" ">
<polygon fill="#bfbfbf" stroke="black" points="606.5,-67.5 606.5,-86.5 737.5,-86.5 737.5,-67.5 606.5,-67.5"/>
<text text-anchor="middle" x="672" y="-74.5" font-family="Helvetica,sans-Serif" font-size="10.00">src/libs/vmisc/logging.h</text>
</a>
</g>
</g>
<!-- Node2 -->
<g id="node2" class="node">
<title>Node2</title>
<g id="a_node2"><a xlink:href="../../de/da8/vbank_8cpp.html" target="_top" xlink:title=" ">
<polygon fill="white" stroke="black" points="0,-6 0,-25 144,-25 144,-6 0,-6"/>
<text text-anchor="middle" x="72" y="-13" font-family="Helvetica,sans-Serif" font-size="10.00">src/libs/vlayout/vbank.cpp</text>
</a>
</g>
</g>
<!-- Node1&#45;&gt;Node2 -->
<g id="edge1" class="edge">
<title>Node1&#45;&gt;Node2</title>
<path fill="none" stroke="midnightblue" d="M596.11,-71.58C494.8,-65.19 309.89,-51.8 153,-31 140.82,-29.39 127.68,-27.22 115.61,-25.05"/>
<polygon fill="midnightblue" stroke="midnightblue" points="596.05,-75.09 606.25,-72.22 596.49,-68.1 596.05,-75.09"/>
</g>
<!-- Node3 -->
<g id="node3" class="node">
<title>Node3</title>
<g id="a_node3"><a xlink:href="../../d0/df6/vabstractapplication_8cpp.html" target="_top" xlink:title=" ">
<polygon fill="white" stroke="black" points="162,-6 162,-25 368,-25 368,-6 162,-6"/>
<text text-anchor="middle" x="265" y="-13" font-family="Helvetica,sans-Serif" font-size="10.00">src/libs/vmisc/vabstractapplication.cpp</text>
</a>
</g>
</g>
<!-- Node1&#45;&gt;Node3 -->
<g id="edge2" class="edge">
<title>Node1&#45;&gt;Node3</title>
<path fill="none" stroke="midnightblue" d="M603.4,-65.97C524.75,-54.47 397.2,-35.83 323.21,-25.01"/>
<polygon fill="midnightblue" stroke="midnightblue" points="603.29,-69.49 613.69,-67.48 604.3,-62.57 603.29,-69.49"/>
</g>
<!-- Node4 -->
<g id="node4" class="node">
<title>Node4</title>
<g id="a_node4"><a xlink:href="../../d6/d46/vcontainer_8cpp.html" target="_top" xlink:title=" ">
<polygon fill="white" stroke="black" points="386.5,-0.5 386.5,-30.5 493.5,-30.5 493.5,-0.5 386.5,-0.5"/>
<text text-anchor="start" x="394.5" y="-18.5" font-family="Helvetica,sans-Serif" font-size="10.00">src/libs/vpatterndb</text>
<text text-anchor="middle" x="440" y="-7.5" font-family="Helvetica,sans-Serif" font-size="10.00">/vcontainer.cpp</text>
</a>
</g>
</g>
<!-- Node1&#45;&gt;Node4 -->
<g id="edge3" class="edge">
<title>Node1&#45;&gt;Node4</title>
<path fill="none" stroke="midnightblue" d="M628.98,-64.97C590.81,-55.18 534.9,-40.84 493.79,-30.29"/>
<polygon fill="midnightblue" stroke="midnightblue" points="628.2,-68.38 638.76,-67.48 629.94,-61.6 628.2,-68.38"/>
</g>
<!-- Node5 -->
<g id="node5" class="node">
<title>Node5</title>
<g id="a_node5"><a xlink:href="../../d1/d3a/abstracttest_8cpp.html" target="_top" xlink:title=" ">
<polygon fill="white" stroke="black" points="511.5,-6 511.5,-25 672.5,-25 672.5,-6 511.5,-6"/>
<text text-anchor="middle" x="592" y="-13" font-family="Helvetica,sans-Serif" font-size="10.00">src/libs/vtest/abstracttest.cpp</text>
</a>
</g>
</g>
<!-- Node1&#45;&gt;Node5 -->
<g id="edge4" class="edge">
<title>Node1&#45;&gt;Node5</title>
<path fill="none" stroke="midnightblue" d="M652.23,-61.29C636.88,-49.88 616.14,-34.46 603.44,-25.01"/>
<polygon fill="midnightblue" stroke="midnightblue" points="650.43,-64.32 660.54,-67.48 654.6,-58.7 650.43,-64.32"/>
</g>
<!-- Node6 -->
<g id="node6" class="node">
<title>Node6</title>
<g id="a_node6"><a xlink:href="../../d5/d73/color__combobox_8cpp.html" target="_top" xlink:title=" ">
<polygon fill="white" stroke="black" points="690.5,-0.5 690.5,-30.5 815.5,-30.5 815.5,-0.5 690.5,-0.5"/>
<text text-anchor="start" x="698.5" y="-18.5" font-family="Helvetica,sans-Serif" font-size="10.00">src/libs/vwidgets/color</text>
<text text-anchor="middle" x="753" y="-7.5" font-family="Helvetica,sans-Serif" font-size="10.00">_combobox.cpp</text>
</a>
</g>
</g>
<!-- Node1&#45;&gt;Node6 -->
<g id="edge5" class="edge">
<title>Node1&#45;&gt;Node6</title>
<path fill="none" stroke="midnightblue" d="M691.78,-61.47C704.61,-52.05 721.23,-39.84 733.91,-30.52"/>
<polygon fill="midnightblue" stroke="midnightblue" points="689.59,-58.73 683.61,-67.48 693.74,-64.38 689.59,-58.73"/>
</g>
<!-- Node7 -->
<g id="node7" class="node">
<title>Node7</title>
<g id="a_node7"><a xlink:href="../../d0/d65/fill__combobox_8cpp.html" target="_top" xlink:title=" ">
<polygon fill="white" stroke="black" points="833.5,-0.5 833.5,-30.5 946.5,-30.5 946.5,-0.5 833.5,-0.5"/>
<text text-anchor="start" x="841.5" y="-18.5" font-family="Helvetica,sans-Serif" font-size="10.00">src/libs/vwidgets/fill</text>
<text text-anchor="middle" x="890" y="-7.5" font-family="Helvetica,sans-Serif" font-size="10.00">_combobox.cpp</text>
</a>
</g>
</g>
<!-- Node1&#45;&gt;Node7 -->
<g id="edge6" class="edge">
<title>Node1&#45;&gt;Node7</title>
<path fill="none" stroke="midnightblue" d="M713.28,-64.73C748.86,-55.02 800.38,-40.96 838.62,-30.52"/>
<polygon fill="midnightblue" stroke="midnightblue" points="711.96,-61.47 703.23,-67.48 713.8,-68.22 711.96,-61.47"/>
</g>
<!-- Node8 -->
<g id="node8" class="node">
<title>Node8</title>
<g id="a_node8"><a xlink:href="../../d7/d1b/pen__toolbar_8cpp.html" target="_top" xlink:title=" ">
<polygon fill="white" stroke="black" points="964.5,-0.5 964.5,-30.5 1083.5,-30.5 1083.5,-0.5 964.5,-0.5"/>
<text text-anchor="start" x="972.5" y="-18.5" font-family="Helvetica,sans-Serif" font-size="10.00">src/libs/vwidgets/pen</text>
<text text-anchor="middle" x="1024" y="-7.5" font-family="Helvetica,sans-Serif" font-size="10.00">_toolbar.cpp</text>
</a>
</g>
</g>
<!-- Node1&#45;&gt;Node8 -->
<g id="edge7" class="edge">
<title>Node1&#45;&gt;Node8</title>
<path fill="none" stroke="midnightblue" d="M741.8,-65.99C799.4,-57.48 883.19,-44.52 956,-31 958.73,-30.49 961.52,-29.96 964.33,-29.41"/>
<polygon fill="midnightblue" stroke="midnightblue" points="741.1,-62.56 731.72,-67.48 742.12,-69.48 741.1,-62.56"/>
</g>
<!-- Node9 -->
<g id="node9" class="node">
<title>Node9</title>
<g id="a_node9"><a xlink:href="../../d2/d31/vmaingraphicsview_8cpp.html" target="_top" xlink:title=" ">
<polygon fill="white" stroke="black" points="1102,-6 1102,-25 1318,-25 1318,-6 1102,-6"/>
<text text-anchor="middle" x="1210" y="-13" font-family="Helvetica,sans-Serif" font-size="10.00">src/libs/vwidgets/vmaingraphicsview.cpp</text>
</a>
</g>
</g>
<!-- Node1&#45;&gt;Node9 -->
<g id="edge8" class="edge">
<title>Node1&#45;&gt;Node9</title>
<path fill="none" stroke="midnightblue" d="M747.67,-68.3C831.97,-59.63 972.31,-44.93 1093,-31 1109.16,-29.13 1126.57,-27.03 1142.89,-25.01"/>
<polygon fill="midnightblue" stroke="midnightblue" points="747.26,-64.82 737.67,-69.33 747.97,-71.79 747.26,-64.82"/>
</g>
</g>
</svg>
