<?xml version="1.0" encoding="UTF-8" standalone="no"?>
<!DOCTYPE svg PUBLIC "-//W3C//DTD SVG 1.1//EN"
 "http://www.w3.org/Graphics/SVG/1.1/DTD/svg11.dtd">
<!-- Generated by graphviz version 2.43.0 (0)
 -->
<!-- Title: VPE::VWidgetPropertyPrivate Pages: 1 -->
<svg width="169pt" height="314pt"
 viewBox="0.00 0.00 169.00 314.00" xmlns="http://www.w3.org/2000/svg" xmlns:xlink="http://www.w3.org/1999/xlink">
<g id="graph0" class="graph" transform="scale(1 1) rotate(0) translate(4 310)">
<title>VPE::VWidgetPropertyPrivate</title>
<polygon fill="white" stroke="transparent" points="-4,4 -4,-310 165,-310 165,4 -4,4"/>
<!-- Node1 -->
<g id="node1" class="node">
<title>Node1</title>
<g id="a_node1"><a xlink:title=" ">
<polygon fill="#bfbfbf" stroke="black" points="0,-0.5 0,-79.5 161,-79.5 161,-0.5 0,-0.5"/>
<text text-anchor="middle" x="80.5" y="-67.5" font-family="Helvetica,sans-Serif" font-size="10.00">VPE::VWidgetPropertyPrivate</text>
<polyline fill="none" stroke="black" points="0,-60.5 161,-60.5 "/>
<text text-anchor="start" x="8" y="-48.5" font-family="Helvetica,sans-Serif" font-size="10.00">+ Widget</text>
<polyline fill="none" stroke="black" points="0,-41.5 161,-41.5 "/>
<text text-anchor="start" x="8" y="-29.5" font-family="Helvetica,sans-Serif" font-size="10.00">+ VWidgetPropertyPrivate()</text>
<text text-anchor="start" x="8" y="-18.5" font-family="Helvetica,sans-Serif" font-size="10.00">+ VWidgetPropertyPrivate()</text>
<text text-anchor="start" x="8" y="-7.5" font-family="Helvetica,sans-Serif" font-size="10.00">+ ~VWidgetPropertyPrivate()</text>
</a>
</g>
</g>
<!-- Node2 -->
<g id="node2" class="node">
<title>Node2</title>
<g id="a_node2"><a xlink:href="../../db/d53/classVPE_1_1VPropertyPrivate.html" target="_top" xlink:title=" ">
<polygon fill="white" stroke="black" points="17.5,-116.5 17.5,-305.5 143.5,-305.5 143.5,-116.5 17.5,-116.5"/>
<text text-anchor="middle" x="80.5" y="-293.5" font-family="Helvetica,sans-Serif" font-size="10.00">VPE::VPropertyPrivate</text>
<polyline fill="none" stroke="black" points="17.5,-286.5 143.5,-286.5 "/>
<text text-anchor="start" x="25.5" y="-274.5" font-family="Helvetica,sans-Serif" font-size="10.00">+ VariantValue</text>
<text text-anchor="start" x="25.5" y="-263.5" font-family="Helvetica,sans-Serif" font-size="10.00">+ Name</text>
<text text-anchor="start" x="25.5" y="-252.5" font-family="Helvetica,sans-Serif" font-size="10.00">+ Description</text>
<text text-anchor="start" x="25.5" y="-241.5" font-family="Helvetica,sans-Serif" font-size="10.00">+ IsEmpty</text>
<text text-anchor="start" x="25.5" y="-230.5" font-family="Helvetica,sans-Serif" font-size="10.00">+ PropertyVariantType</text>
<text text-anchor="start" x="25.5" y="-219.5" font-family="Helvetica,sans-Serif" font-size="10.00">+ updateParent</text>
<text text-anchor="start" x="25.5" y="-208.5" font-family="Helvetica,sans-Serif" font-size="10.00">+ UpdateChildren</text>
<text text-anchor="start" x="25.5" y="-197.5" font-family="Helvetica,sans-Serif" font-size="10.00">+ Parent</text>
<text text-anchor="start" x="25.5" y="-186.5" font-family="Helvetica,sans-Serif" font-size="10.00">+ editor</text>
<text text-anchor="start" x="25.5" y="-175.5" font-family="Helvetica,sans-Serif" font-size="10.00">+ type</text>
<text text-anchor="start" x="25.5" y="-164.5" font-family="Helvetica,sans-Serif" font-size="10.00">+ Children</text>
<polyline fill="none" stroke="black" points="17.5,-157.5 143.5,-157.5 "/>
<text text-anchor="start" x="25.5" y="-145.5" font-family="Helvetica,sans-Serif" font-size="10.00">+ VPropertyPrivate()</text>
<text text-anchor="start" x="25.5" y="-134.5" font-family="Helvetica,sans-Serif" font-size="10.00">+ VPropertyPrivate()</text>
<text text-anchor="start" x="25.5" y="-123.5" font-family="Helvetica,sans-Serif" font-size="10.00">+ ~VPropertyPrivate()</text>
</a>
</g>
</g>
<!-- Node2&#45;&gt;Node1 -->
<g id="edge1" class="edge">
<title>Node2&#45;&gt;Node1</title>
<path fill="none" stroke="midnightblue" d="M80.5,-106.02C80.5,-96.82 80.5,-87.95 80.5,-79.87"/>
<polygon fill="none" stroke="midnightblue" points="77,-106.11 80.5,-116.11 84,-106.11 77,-106.11"/>
</g>
</g>
</svg>
