<?xml version="1.0" encoding="UTF-8" standalone="no"?>
<!DOCTYPE svg PUBLIC "-//W3C//DTD SVG 1.1//EN"
 "http://www.w3.org/Graphics/SVG/1.1/DTD/svg11.dtd">
<!-- Generated by graphviz version 2.43.0 (0)
 -->
<!-- Title: src/libs/vpatterndb/variables/vlinelength.h Pages: 1 -->
<svg width="6353pt" height="385pt"
 viewBox="0.00 0.00 6353.15 385.00" xmlns="http://www.w3.org/2000/svg" xmlns:xlink="http://www.w3.org/1999/xlink">
<g id="graph0" class="graph" transform="scale(1 1) rotate(0) translate(4 381)">
<title>src/libs/vpatterndb/variables/vlinelength.h</title>
<polygon fill="white" stroke="transparent" points="-4,4 -4,-381 6349.15,-381 6349.15,4 -4,4"/>
<!-- Node1 -->
<g id="node1" class="node">
<title>Node1</title>
<g id="a_node1"><a xlink:title=" ">
<polygon fill="#bfbfbf" stroke="black" points="5756.5,-346.5 5756.5,-376.5 5887.5,-376.5 5887.5,-346.5 5756.5,-346.5"/>
<text text-anchor="start" x="5764.5" y="-364.5" font-family="Helvetica,sans-Serif" font-size="10.00">src/libs/vpatterndb</text>
<text text-anchor="middle" x="5822" y="-353.5" font-family="Helvetica,sans-Serif" font-size="10.00">/variables/vlinelength.h</text>
</a>
</g>
</g>
<!-- Node2 -->
<g id="node2" class="node">
<title>Node2</title>
<g id="a_node2"><a xlink:href="../../d7/d79/vlinelength_8cpp.html" target="_top" xlink:title=" ">
<polygon fill="white" stroke="black" points="5607.5,-279.5 5607.5,-309.5 5750.5,-309.5 5750.5,-279.5 5607.5,-279.5"/>
<text text-anchor="start" x="5615.5" y="-297.5" font-family="Helvetica,sans-Serif" font-size="10.00">src/libs/vpatterndb</text>
<text text-anchor="middle" x="5679" y="-286.5" font-family="Helvetica,sans-Serif" font-size="10.00">/variables/vlinelength.cpp</text>
</a>
</g>
</g>
<!-- Node1&#45;&gt;Node2 -->
<g id="edge1" class="edge">
<title>Node1&#45;&gt;Node2</title>
<path fill="none" stroke="midnightblue" d="M5781.59,-342.13C5758.87,-331.8 5730.94,-319.11 5709.97,-309.58"/>
<polygon fill="midnightblue" stroke="midnightblue" points="5780.42,-345.44 5790.97,-346.4 5783.32,-339.07 5780.42,-345.44"/>
</g>
<!-- Node3 -->
<g id="node3" class="node">
<title>Node3</title>
<g id="a_node3"><a xlink:href="../../de/dca/variables_8h.html" target="_top" xlink:title=" ">
<polygon fill="white" stroke="black" points="5768.5,-279.5 5768.5,-309.5 5875.5,-309.5 5875.5,-279.5 5768.5,-279.5"/>
<text text-anchor="start" x="5776.5" y="-297.5" font-family="Helvetica,sans-Serif" font-size="10.00">src/libs/vpatterndb</text>
<text text-anchor="middle" x="5822" y="-286.5" font-family="Helvetica,sans-Serif" font-size="10.00">/variables.h</text>
</a>
</g>
</g>
<!-- Node1&#45;&gt;Node3 -->
<g id="edge2" class="edge">
<title>Node1&#45;&gt;Node3</title>
<path fill="none" stroke="midnightblue" d="M5822,-336.11C5822,-327.15 5822,-317.32 5822,-309.58"/>
<polygon fill="midnightblue" stroke="midnightblue" points="5818.5,-336.4 5822,-346.4 5825.5,-336.4 5818.5,-336.4"/>
</g>
<!-- Node37 -->
<g id="node32" class="node">
<title>Node37</title>
<g id="a_node32"><a xlink:href="../../d6/d46/vcontainer_8cpp.html" target="_top" xlink:title=" ">
<polygon fill="white" stroke="black" points="5490.5,-67.5 5490.5,-97.5 5597.5,-97.5 5597.5,-67.5 5490.5,-67.5"/>
<text text-anchor="start" x="5498.5" y="-85.5" font-family="Helvetica,sans-Serif" font-size="10.00">src/libs/vpatterndb</text>
<text text-anchor="middle" x="5544" y="-74.5" font-family="Helvetica,sans-Serif" font-size="10.00">/vcontainer.cpp</text>
</a>
</g>
</g>
<!-- Node1&#45;&gt;Node37 -->
<g id="edge60" class="edge">
<title>Node1&#45;&gt;Node37</title>
<path fill="none" stroke="midnightblue" d="M5897.58,-353C6066.2,-333.6 6448.42,-273.21 6318,-134 6268.95,-81.64 5765.12,-81.46 5597.73,-82.87"/>
<polygon fill="midnightblue" stroke="midnightblue" points="5897.06,-349.54 5887.52,-354.14 5897.85,-356.5 5897.06,-349.54"/>
</g>
<!-- Node4 -->
<g id="node4" class="node">
<title>Node4</title>
<g id="a_node4"><a xlink:href="../../d3/df7/vcontainer_8h.html" target="_top" xlink:title=" ">
<polygon fill="white" stroke="black" points="5335.5,-212.5 5335.5,-242.5 5442.5,-242.5 5442.5,-212.5 5335.5,-212.5"/>
<text text-anchor="start" x="5343.5" y="-230.5" font-family="Helvetica,sans-Serif" font-size="10.00">src/libs/vpatterndb</text>
<text text-anchor="middle" x="5389" y="-219.5" font-family="Helvetica,sans-Serif" font-size="10.00">/vcontainer.h</text>
</a>
</g>
</g>
<!-- Node3&#45;&gt;Node4 -->
<g id="edge3" class="edge">
<title>Node3&#45;&gt;Node4</title>
<path fill="none" stroke="midnightblue" d="M5758.47,-279.01C5639.88,-257.65 5512.75,-242.17 5442.55,-234.27"/>
<polygon fill="midnightblue" stroke="midnightblue" points="5757.99,-282.48 5768.45,-280.83 5759.24,-275.59 5757.99,-282.48"/>
</g>
<!-- Node5 -->
<g id="node5" class="node">
<title>Node5</title>
<g id="a_node5"><a xlink:href="../../dc/db7/measurements_8h.html" target="_top" xlink:title=" ">
<polygon fill="white" stroke="black" points="180.5,-145.5 180.5,-164.5 359.5,-164.5 359.5,-145.5 180.5,-145.5"/>
<text text-anchor="middle" x="270" y="-152.5" font-family="Helvetica,sans-Serif" font-size="10.00">src/libs/vformat/measurements.h</text>
</a>
</g>
</g>
<!-- Node4&#45;&gt;Node5 -->
<g id="edge4" class="edge">
<title>Node4&#45;&gt;Node5</title>
<path fill="none" stroke="midnightblue" d="M5325.17,-226.61C4914.7,-227.17 2604.18,-227.81 722,-176 596.17,-172.54 450.76,-165.57 359.59,-160.85"/>
<polygon fill="midnightblue" stroke="midnightblue" points="5325.36,-230.11 5335.36,-226.6 5325.35,-223.11 5325.36,-230.11"/>
</g>
<!-- Node6 -->
<g id="node6" class="node">
<title>Node6</title>
<g id="a_node6"><a xlink:href="../../d9/de3/measurements_8cpp.html" target="_top" xlink:title=" ">
<polygon fill="white" stroke="black" points="0,-73 0,-92 190,-92 190,-73 0,-73"/>
<text text-anchor="middle" x="95" y="-80" font-family="Helvetica,sans-Serif" font-size="10.00">src/libs/vformat/measurements.cpp</text>
</a>
</g>
</g>
<!-- Node4&#45;&gt;Node6 -->
<g id="edge6" class="edge">
<title>Node4&#45;&gt;Node6</title>
<path fill="none" stroke="midnightblue" d="M5325.37,-226.61C4849.4,-227.33 1839.27,-229.66 929,-176 636.33,-158.75 288.4,-111.45 152.96,-92.02"/>
<polygon fill="midnightblue" stroke="midnightblue" points="5325.49,-230.11 5335.49,-226.6 5325.48,-223.11 5325.49,-230.11"/>
</g>
<!-- Node7 -->
<g id="node7" class="node">
<title>Node7</title>
<g id="a_node7"><a xlink:href="../../d6/de0/vlayoutpiece_8h.html" target="_top" xlink:title=" ">
<polygon fill="white" stroke="black" points="938,-145.5 938,-164.5 1104,-164.5 1104,-145.5 938,-145.5"/>
<text text-anchor="middle" x="1021" y="-152.5" font-family="Helvetica,sans-Serif" font-size="10.00">src/libs/vlayout/vlayoutpiece.h</text>
</a>
</g>
</g>
<!-- Node4&#45;&gt;Node7 -->
<g id="edge7" class="edge">
<title>Node4&#45;&gt;Node7</title>
<path fill="none" stroke="midnightblue" d="M5325.26,-225.47C4834.46,-217.55 1660.32,-166.32 1104.12,-157.34"/>
<polygon fill="midnightblue" stroke="midnightblue" points="5325.29,-228.97 5335.35,-225.63 5325.41,-221.97 5325.29,-228.97"/>
</g>
<!-- Node17 -->
<g id="node16" class="node">
<title>Node17</title>
<g id="a_node16"><a xlink:href="../../d8/d70/vtextmanager_8cpp.html" target="_top" xlink:title=" ">
<polygon fill="white" stroke="black" points="1529,-73 1529,-92 1711,-92 1711,-73 1529,-73"/>
<text text-anchor="middle" x="1620" y="-80" font-family="Helvetica,sans-Serif" font-size="10.00">src/libs/vlayout/vtextmanager.cpp</text>
</a>
</g>
</g>
<!-- Node4&#45;&gt;Node17 -->
<g id="edge18" class="edge">
<title>Node4&#45;&gt;Node17</title>
<path fill="none" stroke="midnightblue" d="M5325.01,-225.32C4898.37,-217.29 2460.1,-168.89 1720,-98 1704.37,-96.5 1687.45,-94.28 1672.04,-92.02"/>
<polygon fill="midnightblue" stroke="midnightblue" points="5325.24,-228.82 5335.3,-225.51 5325.37,-221.83 5325.24,-228.82"/>
</g>
<!-- Node18 -->
<g id="node17" class="node">
<title>Node18</title>
<g id="a_node17"><a xlink:href="../../d5/d74/vabstractapplication_8h.html" target="_top" xlink:title=" ">
<polygon fill="white" stroke="red" points="3388.5,-145.5 3388.5,-164.5 3583.5,-164.5 3583.5,-145.5 3388.5,-145.5"/>
<text text-anchor="middle" x="3486" y="-152.5" font-family="Helvetica,sans-Serif" font-size="10.00">src/libs/vmisc/vabstractapplication.h</text>
</a>
</g>
</g>
<!-- Node4&#45;&gt;Node18 -->
<g id="edge19" class="edge">
<title>Node4&#45;&gt;Node18</title>
<path fill="none" stroke="midnightblue" d="M5324.96,-224.13C5044.46,-213.74 3923.02,-172.19 3583.74,-159.62"/>
<polygon fill="midnightblue" stroke="midnightblue" points="5325.24,-227.64 5335.36,-224.51 5325.5,-220.65 5325.24,-227.64"/>
</g>
<!-- Node36 -->
<g id="node31" class="node">
<title>Node36</title>
<g id="a_node31"><a xlink:href="../../db/d11/vformula_8cpp.html" target="_top" xlink:title=" ">
<polygon fill="white" stroke="black" points="5240.5,-67.5 5240.5,-97.5 5347.5,-97.5 5347.5,-67.5 5240.5,-67.5"/>
<text text-anchor="start" x="5248.5" y="-85.5" font-family="Helvetica,sans-Serif" font-size="10.00">src/libs/vpatterndb</text>
<text text-anchor="middle" x="5294" y="-74.5" font-family="Helvetica,sans-Serif" font-size="10.00">/vformula.cpp</text>
</a>
</g>
</g>
<!-- Node4&#45;&gt;Node36 -->
<g id="edge52" class="edge">
<title>Node4&#45;&gt;Node36</title>
<path fill="none" stroke="midnightblue" d="M5369.44,-204.68C5362.06,-196.01 5353.8,-185.79 5347,-176 5328.63,-149.55 5310.75,-116.32 5301.18,-97.75"/>
<polygon fill="midnightblue" stroke="midnightblue" points="5366.98,-207.18 5376.18,-212.44 5372.27,-202.59 5366.98,-207.18"/>
</g>
<!-- Node4&#45;&gt;Node37 -->
<g id="edge53" class="edge">
<title>Node4&#45;&gt;Node37</title>
<path fill="none" stroke="midnightblue" d="M5383.41,-202.29C5380.2,-182 5379.31,-153.32 5394,-134 5400.32,-125.69 5452.02,-109.44 5492.98,-97.62"/>
<polygon fill="midnightblue" stroke="midnightblue" points="5380.01,-203.13 5385.28,-212.32 5386.89,-201.84 5380.01,-203.13"/>
</g>
<!-- Node38 -->
<g id="node33" class="node">
<title>Node38</title>
<g id="a_node33"><a xlink:href="../../df/d7a/vpiece_8cpp.html" target="_top" xlink:title=" ">
<polygon fill="white" stroke="black" points="5365.5,-67.5 5365.5,-97.5 5472.5,-97.5 5472.5,-67.5 5365.5,-67.5"/>
<text text-anchor="start" x="5373.5" y="-85.5" font-family="Helvetica,sans-Serif" font-size="10.00">src/libs/vpatterndb</text>
<text text-anchor="middle" x="5419" y="-74.5" font-family="Helvetica,sans-Serif" font-size="10.00">/vpiece.cpp</text>
</a>
</g>
</g>
<!-- Node4&#45;&gt;Node38 -->
<g id="edge55" class="edge">
<title>Node4&#45;&gt;Node38</title>
<path fill="none" stroke="midnightblue" d="M5370.41,-204.14C5364.62,-195.83 5358.97,-185.98 5356,-176 5350.67,-158.11 5347.92,-150.83 5356,-134 5363.46,-118.46 5378.3,-106.19 5391.7,-97.64"/>
<polygon fill="midnightblue" stroke="midnightblue" points="5367.61,-206.25 5376.39,-212.19 5373.23,-202.07 5367.61,-206.25"/>
</g>
<!-- Node40 -->
<g id="node35" class="node">
<title>Node40</title>
<g id="a_node35"><a xlink:href="../../d8/dba/vpiecenode_8cpp.html" target="_top" xlink:title=" ">
<polygon fill="white" stroke="black" points="4564.5,-0.5 4564.5,-30.5 4671.5,-30.5 4671.5,-0.5 4564.5,-0.5"/>
<text text-anchor="start" x="4572.5" y="-18.5" font-family="Helvetica,sans-Serif" font-size="10.00">src/libs/vpatterndb</text>
<text text-anchor="middle" x="4618" y="-7.5" font-family="Helvetica,sans-Serif" font-size="10.00">/vpiecenode.cpp</text>
</a>
</g>
</g>
<!-- Node4&#45;&gt;Node40 -->
<g id="edge56" class="edge">
<title>Node4&#45;&gt;Node40</title>
<path fill="none" stroke="midnightblue" d="M5392.4,-202.6C5396.71,-181.36 5406.26,-151.11 5427,-134 5492.53,-79.95 5664.51,-128.58 5606,-67 5573.6,-32.9 4872.79,-20.18 4671.58,-17.22"/>
<polygon fill="midnightblue" stroke="midnightblue" points="5388.94,-202.02 5390.63,-212.48 5395.84,-203.25 5388.94,-202.02"/>
</g>
<!-- Node57 -->
<g id="node45" class="node">
<title>Node57</title>
<g id="a_node45"><a xlink:href="../../d7/d8a/measurement__variable__p_8h.html" target="_top" xlink:title=" ">
<polygon fill="white" stroke="red" points="5436,-134.5 5436,-175.5 5572,-175.5 5572,-134.5 5436,-134.5"/>
<text text-anchor="start" x="5444" y="-163.5" font-family="Helvetica,sans-Serif" font-size="10.00">src/libs/vpatterndb</text>
<text text-anchor="start" x="5444" y="-152.5" font-family="Helvetica,sans-Serif" font-size="10.00">/variables/measurement</text>
<text text-anchor="middle" x="5504" y="-141.5" font-family="Helvetica,sans-Serif" font-size="10.00">_variable_p.h</text>
</a>
</g>
</g>
<!-- Node4&#45;&gt;Node57 -->
<g id="edge50" class="edge">
<title>Node4&#45;&gt;Node57</title>
<path fill="none" stroke="midnightblue" d="M5420.92,-206.93C5436.82,-197.19 5455.98,-185.44 5471.9,-175.68"/>
<polygon fill="midnightblue" stroke="midnightblue" points="5418.69,-204.19 5412,-212.4 5422.35,-210.16 5418.69,-204.19"/>
</g>
<!-- Node59 -->
<g id="node46" class="node">
<title>Node59</title>
<g id="a_node46"><a xlink:href="../../d1/de1/vincrement__p_8h.html" target="_top" xlink:title=" ">
<polygon fill="white" stroke="red" points="5590.5,-140 5590.5,-170 5733.5,-170 5733.5,-140 5590.5,-140"/>
<text text-anchor="start" x="5598.5" y="-158" font-family="Helvetica,sans-Serif" font-size="10.00">src/libs/vpatterndb</text>
<text text-anchor="middle" x="5662" y="-147" font-family="Helvetica,sans-Serif" font-size="10.00">/variables/vincrement_p.h</text>
</a>
</g>
</g>
<!-- Node4&#45;&gt;Node59 -->
<g id="edge51" class="edge">
<title>Node4&#45;&gt;Node59</title>
<path fill="none" stroke="midnightblue" d="M5452.38,-210.13C5499.4,-197.99 5562.84,-181.61 5607.58,-170.05"/>
<polygon fill="midnightblue" stroke="midnightblue" points="5451.42,-206.77 5442.61,-212.66 5453.17,-213.54 5451.42,-206.77"/>
</g>
<!-- Node61 -->
<g id="node47" class="node">
<title>Node61</title>
<g id="a_node47"><a xlink:href="../../d6/d91/vnodedetail_8cpp.html" target="_top" xlink:title=" ">
<polygon fill="white" stroke="black" points="5751.5,-140 5751.5,-170 5858.5,-170 5858.5,-140 5751.5,-140"/>
<text text-anchor="start" x="5759.5" y="-158" font-family="Helvetica,sans-Serif" font-size="10.00">src/libs/vpatterndb</text>
<text text-anchor="middle" x="5805" y="-147" font-family="Helvetica,sans-Serif" font-size="10.00">/vnodedetail.cpp</text>
</a>
</g>
</g>
<!-- Node4&#45;&gt;Node61 -->
<g id="edge54" class="edge">
<title>Node4&#45;&gt;Node61</title>
<path fill="none" stroke="midnightblue" d="M5452.88,-220.57C5524.04,-213.23 5642.2,-198.82 5742,-176 5749.27,-174.34 5756.91,-172.23 5764.27,-170.01"/>
<polygon fill="midnightblue" stroke="midnightblue" points="5452.32,-217.11 5442.73,-221.6 5453.03,-224.07 5452.32,-217.11"/>
</g>
<!-- Node62 -->
<g id="node48" class="node">
<title>Node62</title>
<g id="a_node48"><a xlink:href="../../da/de1/vpiecepath_8cpp.html" target="_top" xlink:title=" ">
<polygon fill="white" stroke="black" points="5876.5,-140 5876.5,-170 5983.5,-170 5983.5,-140 5876.5,-140"/>
<text text-anchor="start" x="5884.5" y="-158" font-family="Helvetica,sans-Serif" font-size="10.00">src/libs/vpatterndb</text>
<text text-anchor="middle" x="5930" y="-147" font-family="Helvetica,sans-Serif" font-size="10.00">/vpiecepath.cpp</text>
</a>
</g>
</g>
<!-- Node4&#45;&gt;Node62 -->
<g id="edge57" class="edge">
<title>Node4&#45;&gt;Node62</title>
<path fill="none" stroke="midnightblue" d="M5452.61,-223.87C5544.8,-219.14 5720.57,-206.65 5867,-176 5874.53,-174.42 5882.43,-172.3 5889.99,-170.03"/>
<polygon fill="midnightblue" stroke="midnightblue" points="5452.41,-220.38 5442.6,-224.37 5452.76,-227.37 5452.41,-220.38"/>
</g>
<!-- Node63 -->
<g id="node49" class="node">
<title>Node63</title>
<g id="a_node49"><a xlink:href="../../d1/d3a/abstracttest_8cpp.html" target="_top" xlink:title=" ">
<polygon fill="white" stroke="black" points="6001.5,-145.5 6001.5,-164.5 6162.5,-164.5 6162.5,-145.5 6001.5,-145.5"/>
<text text-anchor="middle" x="6082" y="-152.5" font-family="Helvetica,sans-Serif" font-size="10.00">src/libs/vtest/abstracttest.cpp</text>
</a>
</g>
</g>
<!-- Node4&#45;&gt;Node63 -->
<g id="edge58" class="edge">
<title>Node4&#45;&gt;Node63</title>
<path fill="none" stroke="midnightblue" d="M5452.93,-224.05C5563.53,-219.16 5797.53,-205.99 5993,-176 6011.63,-173.14 6032.17,-168.62 6048.82,-164.6"/>
<polygon fill="midnightblue" stroke="midnightblue" points="5452.46,-220.57 5442.62,-224.5 5452.76,-227.56 5452.46,-220.57"/>
</g>
<!-- Node64 -->
<g id="node50" class="node">
<title>Node64</title>
<g id="a_node50"><a xlink:href="../../da/db4/piece__tablewidgetitem_8cpp.html" target="_top" xlink:title=" ">
<polygon fill="white" stroke="black" points="6181,-140 6181,-170 6309,-170 6309,-140 6181,-140"/>
<text text-anchor="start" x="6189" y="-158" font-family="Helvetica,sans-Serif" font-size="10.00">src/libs/vwidgets/piece</text>
<text text-anchor="middle" x="6245" y="-147" font-family="Helvetica,sans-Serif" font-size="10.00">_tablewidgetitem.cpp</text>
</a>
</g>
</g>
<!-- Node4&#45;&gt;Node64 -->
<g id="edge59" class="edge">
<title>Node4&#45;&gt;Node64</title>
<path fill="none" stroke="midnightblue" d="M5452.69,-226.75C5586.75,-226.33 5907.5,-220.29 6172,-176 6180.94,-174.5 6190.37,-172.36 6199.37,-170.03"/>
<polygon fill="midnightblue" stroke="midnightblue" points="5452.59,-223.25 5442.59,-226.77 5452.6,-230.25 5452.59,-223.25"/>
</g>
<!-- Node5&#45;&gt;Node6 -->
<g id="edge5" class="edge">
<title>Node5&#45;&gt;Node6</title>
<path fill="none" stroke="midnightblue" d="M239.56,-141.74C204.25,-127.51 146.97,-104.44 116.18,-92.03"/>
<polygon fill="midnightblue" stroke="midnightblue" points="238.31,-145.01 248.89,-145.5 240.92,-138.51 238.31,-145.01"/>
</g>
<!-- Node8 -->
<g id="node8" class="node">
<title>Node8</title>
<g id="a_node8"><a xlink:href="../../dd/d66/vdxfengine_8cpp.html" target="_top" xlink:title=" ">
<polygon fill="white" stroke="black" points="208,-73 208,-92 362,-92 362,-73 208,-73"/>
<text text-anchor="middle" x="285" y="-80" font-family="Helvetica,sans-Serif" font-size="10.00">src/libs/vdxf/vdxfengine.cpp</text>
</a>
</g>
</g>
<!-- Node7&#45;&gt;Node8 -->
<g id="edge8" class="edge">
<title>Node7&#45;&gt;Node8</title>
<path fill="none" stroke="midnightblue" d="M927.58,-146.89C774.32,-135.07 476.03,-111.36 371,-98 358.08,-96.36 344.14,-94.18 331.32,-92.02"/>
<polygon fill="midnightblue" stroke="midnightblue" points="927.67,-150.41 937.91,-147.69 928.21,-143.43 927.67,-150.41"/>
</g>
<!-- Node9 -->
<g id="node9" class="node">
<title>Node9</title>
<g id="a_node9"><a xlink:href="../../de/da8/vbank_8cpp.html" target="_top" xlink:title=" ">
<polygon fill="white" stroke="black" points="380,-73 380,-92 524,-92 524,-73 380,-73"/>
<text text-anchor="middle" x="452" y="-80" font-family="Helvetica,sans-Serif" font-size="10.00">src/libs/vlayout/vbank.cpp</text>
</a>
</g>
</g>
<!-- Node7&#45;&gt;Node9 -->
<g id="edge9" class="edge">
<title>Node7&#45;&gt;Node9</title>
<path fill="none" stroke="midnightblue" d="M927.69,-145.05C829.31,-135.21 669.9,-118.09 533,-98 521.27,-96.28 508.63,-94.15 496.9,-92.06"/>
<polygon fill="midnightblue" stroke="midnightblue" points="927.6,-148.56 937.9,-146.07 928.3,-141.6 927.6,-148.56"/>
</g>
<!-- Node10 -->
<g id="node10" class="node">
<title>Node10</title>
<g id="a_node10"><a xlink:href="../../df/d5d/vcontour_8cpp.html" target="_top" xlink:title=" ">
<polygon fill="white" stroke="black" points="542,-73 542,-92 698,-92 698,-73 542,-73"/>
<text text-anchor="middle" x="620" y="-80" font-family="Helvetica,sans-Serif" font-size="10.00">src/libs/vlayout/vcontour.cpp</text>
</a>
</g>
</g>
<!-- Node7&#45;&gt;Node10 -->
<g id="edge10" class="edge">
<title>Node7&#45;&gt;Node10</title>
<path fill="none" stroke="midnightblue" d="M962.3,-143.68C882.81,-129.71 742.41,-105.02 668.54,-92.03"/>
<polygon fill="midnightblue" stroke="midnightblue" points="962.18,-147.21 972.63,-145.5 963.39,-140.32 962.18,-147.21"/>
</g>
<!-- Node11 -->
<g id="node11" class="node">
<title>Node11</title>
<g id="a_node11"><a xlink:href="../../d3/d39/vlayoutgenerator_8cpp.html" target="_top" xlink:title=" ">
<polygon fill="white" stroke="black" points="716.5,-73 716.5,-92 913.5,-92 913.5,-73 716.5,-73"/>
<text text-anchor="middle" x="815" y="-80" font-family="Helvetica,sans-Serif" font-size="10.00">src/libs/vlayout/vlayoutgenerator.cpp</text>
</a>
</g>
</g>
<!-- Node7&#45;&gt;Node11 -->
<g id="edge11" class="edge">
<title>Node7&#45;&gt;Node11</title>
<path fill="none" stroke="midnightblue" d="M986.49,-142.19C945.05,-128.01 876.57,-104.57 839.94,-92.03"/>
<polygon fill="midnightblue" stroke="midnightblue" points="985.56,-145.57 996.15,-145.5 987.82,-138.95 985.56,-145.57"/>
</g>
<!-- Node12 -->
<g id="node12" class="node">
<title>Node12</title>
<g id="a_node12"><a xlink:href="../../d2/d2d/vlayoutpaper__p_8h.html" target="_top" xlink:title=" ">
<polygon fill="white" stroke="black" points="931.5,-73 931.5,-92 1110.5,-92 1110.5,-73 931.5,-73"/>
<text text-anchor="middle" x="1021" y="-80" font-family="Helvetica,sans-Serif" font-size="10.00">src/libs/vlayout/vlayoutpaper_p.h</text>
</a>
</g>
</g>
<!-- Node7&#45;&gt;Node12 -->
<g id="edge12" class="edge">
<title>Node7&#45;&gt;Node12</title>
<path fill="none" stroke="midnightblue" d="M1021,-134.94C1021,-121.03 1021,-102.82 1021,-92.22"/>
<polygon fill="midnightblue" stroke="midnightblue" points="1017.5,-135.36 1021,-145.36 1024.5,-135.36 1017.5,-135.36"/>
</g>
<!-- Node13 -->
<g id="node13" class="node">
<title>Node13</title>
<g id="a_node13"><a xlink:href="../../d1/dd1/vlayoutpaper_8cpp.html" target="_top" xlink:title=" ">
<polygon fill="white" stroke="black" points="1050,-6 1050,-25 1228,-25 1228,-6 1050,-6"/>
<text text-anchor="middle" x="1139" y="-13" font-family="Helvetica,sans-Serif" font-size="10.00">src/libs/vlayout/vlayoutpaper.cpp</text>
</a>
</g>
</g>
<!-- Node7&#45;&gt;Node13 -->
<g id="edge14" class="edge">
<title>Node7&#45;&gt;Node13</title>
<path fill="none" stroke="midnightblue" d="M1057.25,-141.63C1078.26,-132.67 1103.55,-118.49 1119,-98 1135.84,-75.67 1138.67,-40.99 1139.03,-25.05"/>
<polygon fill="midnightblue" stroke="midnightblue" points="1055.91,-138.4 1047.94,-145.39 1058.53,-144.89 1055.91,-138.4"/>
</g>
<!-- Node14 -->
<g id="node14" class="node">
<title>Node14</title>
<g id="a_node14"><a xlink:href="../../db/d5c/vposition_8h.html" target="_top" xlink:title=" ">
<polygon fill="white" stroke="red" points="1167,-73 1167,-92 1315,-92 1315,-73 1167,-73"/>
<text text-anchor="middle" x="1241" y="-80" font-family="Helvetica,sans-Serif" font-size="10.00">src/libs/vlayout/vposition.h</text>
</a>
</g>
</g>
<!-- Node7&#45;&gt;Node14 -->
<g id="edge15" class="edge">
<title>Node7&#45;&gt;Node14</title>
<path fill="none" stroke="midnightblue" d="M1057.3,-142.37C1101.49,-128.21 1175.08,-104.62 1214.37,-92.03"/>
<polygon fill="midnightblue" stroke="midnightblue" points="1055.99,-139.11 1047.54,-145.5 1058.13,-145.78 1055.99,-139.11"/>
</g>
<!-- Node16 -->
<g id="node15" class="node">
<title>Node16</title>
<g id="a_node15"><a xlink:href="../../dd/d70/vlayoutpiece_8cpp.html" target="_top" xlink:title=" ">
<polygon fill="white" stroke="black" points="1333.5,-73 1333.5,-92 1510.5,-92 1510.5,-73 1333.5,-73"/>
<text text-anchor="middle" x="1422" y="-80" font-family="Helvetica,sans-Serif" font-size="10.00">src/libs/vlayout/vlayoutpiece.cpp</text>
</a>
</g>
</g>
<!-- Node7&#45;&gt;Node16 -->
<g id="edge17" class="edge">
<title>Node7&#45;&gt;Node16</title>
<path fill="none" stroke="midnightblue" d="M1079.7,-143.68C1159.19,-129.71 1299.59,-105.02 1373.46,-92.03"/>
<polygon fill="midnightblue" stroke="midnightblue" points="1078.61,-140.32 1069.37,-145.5 1079.82,-147.21 1078.61,-140.32"/>
</g>
<!-- Node12&#45;&gt;Node13 -->
<g id="edge13" class="edge">
<title>Node12&#45;&gt;Node13</title>
<path fill="none" stroke="midnightblue" d="M1045.89,-67.79C1069.28,-54.9 1103.56,-36.02 1123.34,-25.13"/>
<polygon fill="midnightblue" stroke="midnightblue" points="1043.98,-64.84 1036.91,-72.73 1047.36,-70.97 1043.98,-64.84"/>
</g>
<!-- Node14&#45;&gt;Node13 -->
<g id="edge16" class="edge">
<title>Node14&#45;&gt;Node13</title>
<path fill="none" stroke="midnightblue" d="M1218.67,-67.27C1198.48,-54.4 1169.41,-35.88 1152.54,-25.13"/>
<polygon fill="midnightblue" stroke="midnightblue" points="1216.93,-70.31 1227.24,-72.73 1220.69,-64.41 1216.93,-70.31"/>
</g>
<!-- Node18&#45;&gt;Node16 -->
<g id="edge30" class="edge">
<title>Node18&#45;&gt;Node16</title>
<path fill="none" stroke="midnightblue" d="M3378.37,-152.62C3022.46,-147.77 1885.44,-130.13 1520,-98 1504.24,-96.61 1487.15,-94.35 1471.72,-92.02"/>
<polygon fill="midnightblue" stroke="midnightblue" points="3378.37,-156.12 3388.42,-152.75 3378.47,-149.12 3378.37,-156.12"/>
</g>
<!-- Node18&#45;&gt;Node17 -->
<g id="edge31" class="edge">
<title>Node18&#45;&gt;Node17</title>
<path fill="none" stroke="midnightblue" d="M3378.42,-152.17C3047.03,-146.3 2044.65,-126.59 1720,-98 1704.01,-96.59 1686.68,-94.34 1671,-92.02"/>
<polygon fill="midnightblue" stroke="midnightblue" points="3378.44,-155.68 3388.5,-152.35 3378.56,-148.68 3378.44,-155.68"/>
</g>
<!-- Node19 -->
<g id="node18" class="node">
<title>Node19</title>
<g id="a_node18"><a xlink:href="../../d4/d90/fvupdater_8cpp.html" target="_top" xlink:title=" ">
<polygon fill="white" stroke="black" points="1729.5,-73 1729.5,-92 1882.5,-92 1882.5,-73 1729.5,-73"/>
<text text-anchor="middle" x="1806" y="-80" font-family="Helvetica,sans-Serif" font-size="10.00">src/libs/fervor/fvupdater.cpp</text>
</a>
</g>
</g>
<!-- Node18&#45;&gt;Node19 -->
<g id="edge20" class="edge">
<title>Node18&#45;&gt;Node19</title>
<path fill="none" stroke="midnightblue" d="M3378,-152.09C3068.22,-146.33 2180.41,-127.63 1891,-98 1877.3,-96.6 1862.47,-94.33 1849.09,-92"/>
<polygon fill="midnightblue" stroke="midnightblue" points="3378.27,-155.6 3388.33,-152.29 3378.4,-148.6 3378.27,-155.6"/>
</g>
<!-- Node20 -->
<g id="node19" class="node">
<title>Node20</title>
<g id="a_node19"><a xlink:href="../../d9/dc8/dxiface_8cpp.html" target="_top" xlink:title=" ">
<polygon fill="white" stroke="black" points="1900.5,-73 1900.5,-92 2035.5,-92 2035.5,-73 1900.5,-73"/>
<text text-anchor="middle" x="1968" y="-80" font-family="Helvetica,sans-Serif" font-size="10.00">src/libs/vdxf/dxiface.cpp</text>
</a>
</g>
</g>
<!-- Node18&#45;&gt;Node20 -->
<g id="edge21" class="edge">
<title>Node18&#45;&gt;Node20</title>
<path fill="none" stroke="midnightblue" d="M3378.31,-151.91C3089.52,-145.97 2302.3,-127.49 2044,-98 2031.72,-96.6 2018.45,-94.33 2006.49,-92"/>
<polygon fill="midnightblue" stroke="midnightblue" points="3378.3,-155.41 3388.37,-152.12 3378.45,-148.41 3378.3,-155.41"/>
</g>
<!-- Node21 -->
<g id="node20" class="node">
<title>Node21</title>
<g id="a_node20"><a xlink:href="../../da/d75/vabstractarc__p_8h.html" target="_top" xlink:title=" ">
<polygon fill="white" stroke="red" points="2053.5,-67.5 2053.5,-97.5 2160.5,-97.5 2160.5,-67.5 2053.5,-67.5"/>
<text text-anchor="start" x="2061.5" y="-85.5" font-family="Helvetica,sans-Serif" font-size="10.00">src/libs/vgeometry</text>
<text text-anchor="middle" x="2107" y="-74.5" font-family="Helvetica,sans-Serif" font-size="10.00">/vabstractarc_p.h</text>
</a>
</g>
</g>
<!-- Node18&#45;&gt;Node21 -->
<g id="edge22" class="edge">
<title>Node18&#45;&gt;Node21</title>
<path fill="none" stroke="midnightblue" d="M3378.14,-152.02C3106.9,-146.61 2401.53,-129.85 2169,-98 2166.26,-97.62 2163.47,-97.18 2160.65,-96.7"/>
<polygon fill="midnightblue" stroke="midnightblue" points="3378.31,-155.52 3388.38,-152.22 3378.45,-148.52 3378.31,-155.52"/>
</g>
<!-- Node23 -->
<g id="node21" class="node">
<title>Node23</title>
<g id="a_node21"><a xlink:href="../../dc/da3/varc__p_8h.html" target="_top" xlink:title=" ">
<polygon fill="white" stroke="red" points="2178.5,-67.5 2178.5,-97.5 2285.5,-97.5 2285.5,-67.5 2178.5,-67.5"/>
<text text-anchor="start" x="2186.5" y="-85.5" font-family="Helvetica,sans-Serif" font-size="10.00">src/libs/vgeometry</text>
<text text-anchor="middle" x="2232" y="-74.5" font-family="Helvetica,sans-Serif" font-size="10.00">/varc_p.h</text>
</a>
</g>
</g>
<!-- Node18&#45;&gt;Node23 -->
<g id="edge23" class="edge">
<title>Node18&#45;&gt;Node23</title>
<path fill="none" stroke="midnightblue" d="M3378.13,-151.46C3125.57,-145.1 2501.57,-126.9 2294,-98 2291.26,-97.62 2288.47,-97.17 2285.66,-96.68"/>
<polygon fill="midnightblue" stroke="midnightblue" points="3378.33,-154.96 3388.42,-151.72 3378.51,-147.97 3378.33,-154.96"/>
</g>
<!-- Node25 -->
<g id="node22" class="node">
<title>Node25</title>
<g id="a_node22"><a xlink:href="../../d5/d8e/vcubicbezier__p_8h.html" target="_top" xlink:title=" ">
<polygon fill="white" stroke="red" points="2303.5,-67.5 2303.5,-97.5 2410.5,-97.5 2410.5,-67.5 2303.5,-67.5"/>
<text text-anchor="start" x="2311.5" y="-85.5" font-family="Helvetica,sans-Serif" font-size="10.00">src/libs/vgeometry</text>
<text text-anchor="middle" x="2357" y="-74.5" font-family="Helvetica,sans-Serif" font-size="10.00">/vcubicbezier_p.h</text>
</a>
</g>
</g>
<!-- Node18&#45;&gt;Node25 -->
<g id="edge24" class="edge">
<title>Node18&#45;&gt;Node25</title>
<path fill="none" stroke="midnightblue" d="M3378.19,-154.63C3184.94,-154.37 2767.22,-147.46 2419,-98 2416.26,-97.61 2413.47,-97.16 2410.66,-96.66"/>
<polygon fill="midnightblue" stroke="midnightblue" points="3378.34,-158.13 3388.35,-154.64 3378.35,-151.13 3378.34,-158.13"/>
</g>
<!-- Node27 -->
<g id="node23" class="node">
<title>Node27</title>
<g id="a_node23"><a xlink:href="../../df/dde/vellipticalarc__p_8h.html" target="_top" xlink:title=" ">
<polygon fill="white" stroke="black" points="2428.5,-67.5 2428.5,-97.5 2535.5,-97.5 2535.5,-67.5 2428.5,-67.5"/>
<text text-anchor="start" x="2436.5" y="-85.5" font-family="Helvetica,sans-Serif" font-size="10.00">src/libs/vgeometry</text>
<text text-anchor="middle" x="2482" y="-74.5" font-family="Helvetica,sans-Serif" font-size="10.00">/vellipticalarc_p.h</text>
</a>
</g>
</g>
<!-- Node18&#45;&gt;Node27 -->
<g id="edge25" class="edge">
<title>Node18&#45;&gt;Node27</title>
<path fill="none" stroke="midnightblue" d="M3377.95,-152.8C3203.17,-149.68 2847.93,-138.44 2550,-98 2545.34,-97.37 2540.51,-96.59 2535.69,-95.73"/>
<polygon fill="midnightblue" stroke="midnightblue" points="3378.12,-156.3 3388.18,-152.98 3378.24,-149.3 3378.12,-156.3"/>
</g>
<!-- Node28 -->
<g id="node24" class="node">
<title>Node28</title>
<g id="a_node24"><a xlink:href="../../d6/dfb/vellipticalarc_8cpp.html" target="_top" xlink:title=" ">
<polygon fill="white" stroke="black" points="2469.5,-0.5 2469.5,-30.5 2576.5,-30.5 2576.5,-0.5 2469.5,-0.5"/>
<text text-anchor="start" x="2477.5" y="-18.5" font-family="Helvetica,sans-Serif" font-size="10.00">src/libs/vgeometry</text>
<text text-anchor="middle" x="2523" y="-7.5" font-family="Helvetica,sans-Serif" font-size="10.00">/vellipticalarc.cpp</text>
</a>
</g>
</g>
<!-- Node18&#45;&gt;Node28 -->
<g id="edge27" class="edge">
<title>Node18&#45;&gt;Node28</title>
<path fill="none" stroke="midnightblue" d="M3378.32,-152.41C3153.9,-148.36 2651.25,-135.2 2583,-98 2555.69,-83.12 2537.46,-49.85 2528.81,-30.74"/>
<polygon fill="midnightblue" stroke="midnightblue" points="3378.4,-155.91 3388.46,-152.59 3378.53,-148.91 3378.4,-155.91"/>
</g>
<!-- Node29 -->
<g id="node25" class="node">
<title>Node29</title>
<g id="a_node25"><a xlink:href="../../d1/d76/vspline__p_8h.html" target="_top" xlink:title=" ">
<polygon fill="white" stroke="red" points="2592.5,-67.5 2592.5,-97.5 2699.5,-97.5 2699.5,-67.5 2592.5,-67.5"/>
<text text-anchor="start" x="2600.5" y="-85.5" font-family="Helvetica,sans-Serif" font-size="10.00">src/libs/vgeometry</text>
<text text-anchor="middle" x="2646" y="-74.5" font-family="Helvetica,sans-Serif" font-size="10.00">/vspline_p.h</text>
</a>
</g>
</g>
<!-- Node18&#45;&gt;Node29 -->
<g id="edge28" class="edge">
<title>Node18&#45;&gt;Node29</title>
<path fill="none" stroke="midnightblue" d="M3378.09,-151.47C3227.5,-146.76 2946.13,-133.62 2709,-98 2705.89,-97.53 2702.71,-97 2699.51,-96.41"/>
<polygon fill="midnightblue" stroke="midnightblue" points="3378.15,-154.98 3388.26,-151.79 3378.37,-147.98 3378.15,-154.98"/>
</g>
<!-- Node31 -->
<g id="node26" class="node">
<title>Node31</title>
<g id="a_node26"><a xlink:href="../../d9/d15/vabstractpiece_8cpp.html" target="_top" xlink:title=" ">
<polygon fill="white" stroke="black" points="2718,-73 2718,-92 2904,-92 2904,-73 2718,-73"/>
<text text-anchor="middle" x="2811" y="-80" font-family="Helvetica,sans-Serif" font-size="10.00">src/libs/vlayout/vabstractpiece.cpp</text>
</a>
</g>
</g>
<!-- Node18&#45;&gt;Node31 -->
<g id="edge29" class="edge">
<title>Node18&#45;&gt;Node31</title>
<path fill="none" stroke="midnightblue" d="M3378.04,-144.87C3262.73,-134.78 3074.72,-117.39 2913,-98 2898.35,-96.24 2882.55,-94.11 2867.86,-92.03"/>
<polygon fill="midnightblue" stroke="midnightblue" points="3378.01,-148.38 3388.27,-145.76 3378.62,-141.41 3378.01,-148.38"/>
</g>
<!-- Node32 -->
<g id="node27" class="node">
<title>Node32</title>
<g id="a_node27"><a xlink:href="../../d6/d0b/def_8cpp.html" target="_top" xlink:title=" ">
<polygon fill="white" stroke="black" points="2922,-73 2922,-92 3044,-92 3044,-73 2922,-73"/>
<text text-anchor="middle" x="2983" y="-80" font-family="Helvetica,sans-Serif" font-size="10.00">src/libs/vmisc/def.cpp</text>
</a>
</g>
</g>
<!-- Node18&#45;&gt;Node32 -->
<g id="edge32" class="edge">
<title>Node18&#45;&gt;Node32</title>
<path fill="none" stroke="midnightblue" d="M3395.73,-144.34C3307.94,-134.47 3170.92,-117.81 3053,-98 3042.72,-96.27 3031.65,-94.12 3021.41,-92"/>
<polygon fill="midnightblue" stroke="midnightblue" points="3395.6,-147.85 3405.93,-145.48 3396.38,-140.89 3395.6,-147.85"/>
</g>
<!-- Node33 -->
<g id="node28" class="node">
<title>Node33</title>
<g id="a_node28"><a xlink:href="../../db/d65/dialogexporttocsv_8cpp.html" target="_top" xlink:title=" ">
<polygon fill="white" stroke="black" points="3062.5,-67.5 3062.5,-97.5 3189.5,-97.5 3189.5,-67.5 3062.5,-67.5"/>
<text text-anchor="start" x="3070.5" y="-85.5" font-family="Helvetica,sans-Serif" font-size="10.00">src/libs/vmisc/dialogs</text>
<text text-anchor="middle" x="3126" y="-74.5" font-family="Helvetica,sans-Serif" font-size="10.00">/dialogexporttocsv.cpp</text>
</a>
</g>
</g>
<!-- Node18&#45;&gt;Node33 -->
<g id="edge33" class="edge">
<title>Node18&#45;&gt;Node33</title>
<path fill="none" stroke="midnightblue" d="M3431.75,-143.47C3374.03,-132.26 3280.06,-113.96 3199,-98 3195.96,-97.4 3192.84,-96.79 3189.7,-96.17"/>
<polygon fill="midnightblue" stroke="midnightblue" points="3431.26,-146.94 3441.74,-145.41 3432.59,-140.07 3431.26,-146.94"/>
</g>
<!-- Node34 -->
<g id="node29" class="node">
<title>Node34</title>
<g id="a_node29"><a xlink:href="../../d0/df6/vabstractapplication_8cpp.html" target="_top" xlink:title=" ">
<polygon fill="white" stroke="black" points="3208,-73 3208,-92 3414,-92 3414,-73 3208,-73"/>
<text text-anchor="middle" x="3311" y="-80" font-family="Helvetica,sans-Serif" font-size="10.00">src/libs/vmisc/vabstractapplication.cpp</text>
</a>
</g>
</g>
<!-- Node18&#45;&gt;Node34 -->
<g id="edge34" class="edge">
<title>Node18&#45;&gt;Node34</title>
<path fill="none" stroke="midnightblue" d="M3455.56,-141.74C3420.25,-127.51 3362.97,-104.44 3332.18,-92.03"/>
<polygon fill="midnightblue" stroke="midnightblue" points="3454.31,-145.01 3464.89,-145.5 3456.92,-138.51 3454.31,-145.01"/>
</g>
<!-- Node35 -->
<g id="node30" class="node">
<title>Node35</title>
<g id="a_node30"><a xlink:href="../../d4/d4f/pmsystems_8cpp.html" target="_top" xlink:title=" ">
<polygon fill="white" stroke="black" points="3432.5,-67.5 3432.5,-97.5 3539.5,-97.5 3539.5,-67.5 3432.5,-67.5"/>
<text text-anchor="start" x="3440.5" y="-85.5" font-family="Helvetica,sans-Serif" font-size="10.00">src/libs/vpatterndb</text>
<text text-anchor="middle" x="3486" y="-74.5" font-family="Helvetica,sans-Serif" font-size="10.00">/pmsystems.cpp</text>
</a>
</g>
</g>
<!-- Node18&#45;&gt;Node35 -->
<g id="edge35" class="edge">
<title>Node18&#45;&gt;Node35</title>
<path fill="none" stroke="midnightblue" d="M3486,-135.24C3486,-123.41 3486,-108.38 3486,-97.58"/>
<polygon fill="midnightblue" stroke="midnightblue" points="3482.5,-135.36 3486,-145.36 3489.5,-135.36 3482.5,-135.36"/>
</g>
<!-- Node18&#45;&gt;Node36 -->
<g id="edge36" class="edge">
<title>Node18&#45;&gt;Node36</title>
<path fill="none" stroke="midnightblue" d="M3593.58,-153.28C3922.55,-150.65 4912.02,-139.43 5231,-98 5234.01,-97.61 5237.08,-97.14 5240.17,-96.61"/>
<polygon fill="midnightblue" stroke="midnightblue" points="3593.54,-149.78 3583.57,-153.36 3593.6,-156.78 3593.54,-149.78"/>
</g>
<!-- Node18&#45;&gt;Node37 -->
<g id="edge37" class="edge">
<title>Node18&#45;&gt;Node37</title>
<path fill="none" stroke="midnightblue" d="M3593.78,-153.79C3953.55,-152.64 5111.22,-145.27 5481,-98 5484.01,-97.62 5487.08,-97.15 5490.17,-96.63"/>
<polygon fill="midnightblue" stroke="midnightblue" points="3593.62,-150.29 3583.63,-153.82 3593.64,-157.29 3593.62,-150.29"/>
</g>
<!-- Node18&#45;&gt;Node38 -->
<g id="edge38" class="edge">
<title>Node18&#45;&gt;Node38</title>
<path fill="none" stroke="midnightblue" d="M3593.73,-153.55C3938.41,-151.68 5011.67,-142.34 5356,-98 5359.01,-97.61 5362.08,-97.15 5365.17,-96.62"/>
<polygon fill="midnightblue" stroke="midnightblue" points="3593.48,-150.05 3583.5,-153.61 3593.52,-157.05 3593.48,-150.05"/>
</g>
<!-- Node39 -->
<g id="node34" class="node">
<title>Node39</title>
<g id="a_node34"><a xlink:href="../../df/dba/vpiecenode__p_8h.html" target="_top" xlink:title=" ">
<polygon fill="white" stroke="black" points="3557.5,-67.5 3557.5,-97.5 3664.5,-97.5 3664.5,-67.5 3557.5,-67.5"/>
<text text-anchor="start" x="3565.5" y="-85.5" font-family="Helvetica,sans-Serif" font-size="10.00">src/libs/vpatterndb</text>
<text text-anchor="middle" x="3611" y="-74.5" font-family="Helvetica,sans-Serif" font-size="10.00">/vpiecenode_p.h</text>
</a>
</g>
</g>
<!-- Node18&#45;&gt;Node39 -->
<g id="edge39" class="edge">
<title>Node18&#45;&gt;Node39</title>
<path fill="none" stroke="midnightblue" d="M3510.29,-140.3C3532.11,-127.99 3564.02,-110 3586.04,-97.58"/>
<polygon fill="midnightblue" stroke="midnightblue" points="3508.32,-137.39 3501.33,-145.36 3511.76,-143.49 3508.32,-137.39"/>
</g>
<!-- Node41 -->
<g id="node36" class="node">
<title>Node41</title>
<g id="a_node36"><a xlink:href="../../de/d3e/vtranslatevars_8cpp.html" target="_top" xlink:title=" ">
<polygon fill="white" stroke="black" points="3683,-67.5 3683,-97.5 3793,-97.5 3793,-67.5 3683,-67.5"/>
<text text-anchor="start" x="3691" y="-85.5" font-family="Helvetica,sans-Serif" font-size="10.00">src/libs/vpatterndb</text>
<text text-anchor="middle" x="3738" y="-74.5" font-family="Helvetica,sans-Serif" font-size="10.00">/vtranslatevars.cpp</text>
</a>
</g>
</g>
<!-- Node18&#45;&gt;Node41 -->
<g id="edge41" class="edge">
<title>Node18&#45;&gt;Node41</title>
<path fill="none" stroke="midnightblue" d="M3526.15,-142.77C3570.05,-130.49 3640.46,-110.79 3687.94,-97.51"/>
<polygon fill="midnightblue" stroke="midnightblue" points="3525.08,-139.43 3516.4,-145.5 3526.97,-146.17 3525.08,-139.43"/>
</g>
<!-- Node42 -->
<g id="node37" class="node">
<title>Node42</title>
<g id="a_node37"><a xlink:href="../../df/d40/export__format__combobox_8cpp.html" target="_top" xlink:title=" ">
<polygon fill="white" stroke="black" points="3811.5,-67.5 3811.5,-97.5 3944.5,-97.5 3944.5,-67.5 3811.5,-67.5"/>
<text text-anchor="start" x="3819.5" y="-85.5" font-family="Helvetica,sans-Serif" font-size="10.00">src/libs/vwidgets/export</text>
<text text-anchor="middle" x="3878" y="-74.5" font-family="Helvetica,sans-Serif" font-size="10.00">_format_combobox.cpp</text>
</a>
</g>
</g>
<!-- Node18&#45;&gt;Node42 -->
<g id="edge42" class="edge">
<title>Node18&#45;&gt;Node42</title>
<path fill="none" stroke="midnightblue" d="M3545.53,-143.69C3609.08,-132.63 3712.72,-114.43 3802,-98 3805.04,-97.44 3808.14,-96.87 3811.28,-96.28"/>
<polygon fill="midnightblue" stroke="midnightblue" points="3544.55,-140.31 3535.3,-145.47 3545.75,-147.2 3544.55,-140.31"/>
</g>
<!-- Node43 -->
<g id="node38" class="node">
<title>Node43</title>
<g id="a_node38"><a xlink:href="../../d2/d28/page__format__combobox_8cpp.html" target="_top" xlink:title=" ">
<polygon fill="white" stroke="black" points="3962.5,-67.5 3962.5,-97.5 4093.5,-97.5 4093.5,-67.5 3962.5,-67.5"/>
<text text-anchor="start" x="3970.5" y="-85.5" font-family="Helvetica,sans-Serif" font-size="10.00">src/libs/vwidgets/page</text>
<text text-anchor="middle" x="4028" y="-74.5" font-family="Helvetica,sans-Serif" font-size="10.00">_format_combobox.cpp</text>
</a>
</g>
</g>
<!-- Node18&#45;&gt;Node43 -->
<g id="edge43" class="edge">
<title>Node18&#45;&gt;Node43</title>
<path fill="none" stroke="midnightblue" d="M3582.89,-144.43C3677.53,-134.6 3825.54,-117.94 3953,-98 3956.01,-97.53 3959.09,-97.02 3962.2,-96.5"/>
<polygon fill="midnightblue" stroke="midnightblue" points="3582.34,-140.97 3572.76,-145.48 3583.06,-147.93 3582.34,-140.97"/>
</g>
<!-- Node44 -->
<g id="node39" class="node">
<title>Node44</title>
<g id="a_node39"><a xlink:href="../../d7/d1b/pen__toolbar_8cpp.html" target="_top" xlink:title=" ">
<polygon fill="white" stroke="black" points="4111.5,-67.5 4111.5,-97.5 4230.5,-97.5 4230.5,-67.5 4111.5,-67.5"/>
<text text-anchor="start" x="4119.5" y="-85.5" font-family="Helvetica,sans-Serif" font-size="10.00">src/libs/vwidgets/pen</text>
<text text-anchor="middle" x="4171" y="-74.5" font-family="Helvetica,sans-Serif" font-size="10.00">_toolbar.cpp</text>
</a>
</g>
</g>
<!-- Node18&#45;&gt;Node44 -->
<g id="edge44" class="edge">
<title>Node18&#45;&gt;Node44</title>
<path fill="none" stroke="midnightblue" d="M3593.7,-148.02C3717.02,-140.29 3924.85,-124.57 4102,-98 4105.03,-97.55 4108.12,-97.04 4111.24,-96.5"/>
<polygon fill="midnightblue" stroke="midnightblue" points="3593.27,-144.54 3583.51,-148.65 3593.7,-151.53 3593.27,-144.54"/>
</g>
<!-- Node45 -->
<g id="node40" class="node">
<title>Node45</title>
<g id="a_node40"><a xlink:href="../../d3/d4f/mouse__coordinates_8cpp.html" target="_top" xlink:title=" ">
<polygon fill="white" stroke="black" points="4249,-67.5 4249,-97.5 4383,-97.5 4383,-67.5 4249,-67.5"/>
<text text-anchor="start" x="4257" y="-85.5" font-family="Helvetica,sans-Serif" font-size="10.00">src/libs/vwidgets/mouse</text>
<text text-anchor="middle" x="4316" y="-74.5" font-family="Helvetica,sans-Serif" font-size="10.00">_coordinates.cpp</text>
</a>
</g>
</g>
<!-- Node18&#45;&gt;Node45 -->
<g id="edge45" class="edge">
<title>Node18&#45;&gt;Node45</title>
<path fill="none" stroke="midnightblue" d="M3593.87,-149.78C3740.41,-143.17 4010.36,-127.93 4239,-98 4242.24,-97.58 4245.54,-97.1 4248.88,-96.6"/>
<polygon fill="midnightblue" stroke="midnightblue" points="3593.36,-146.29 3583.53,-150.24 3593.68,-153.29 3593.36,-146.29"/>
</g>
<!-- Node46 -->
<g id="node41" class="node">
<title>Node46</title>
<g id="a_node41"><a xlink:href="../../d8/d76/scene__rect_8cpp.html" target="_top" xlink:title=" ">
<polygon fill="white" stroke="black" points="4401,-67.5 4401,-97.5 4531,-97.5 4531,-67.5 4401,-67.5"/>
<text text-anchor="start" x="4409" y="-85.5" font-family="Helvetica,sans-Serif" font-size="10.00">src/libs/vwidgets/scene</text>
<text text-anchor="middle" x="4466" y="-74.5" font-family="Helvetica,sans-Serif" font-size="10.00">_rect.cpp</text>
</a>
</g>
</g>
<!-- Node18&#45;&gt;Node46 -->
<g id="edge46" class="edge">
<title>Node18&#45;&gt;Node46</title>
<path fill="none" stroke="midnightblue" d="M3593.82,-151.93C3764.03,-147.62 4105.17,-134.8 4392,-98 4394.86,-97.63 4397.77,-97.22 4400.71,-96.78"/>
<polygon fill="midnightblue" stroke="midnightblue" points="3593.51,-148.43 3583.6,-152.18 3593.69,-155.43 3593.51,-148.43"/>
</g>
<!-- Node47 -->
<g id="node42" class="node">
<title>Node47</title>
<g id="a_node42"><a xlink:href="../../dd/df6/vabstractmainwindow_8cpp.html" target="_top" xlink:title=" ">
<polygon fill="white" stroke="black" points="4549.5,-73 4549.5,-92 4778.5,-92 4778.5,-73 4549.5,-73"/>
<text text-anchor="middle" x="4664" y="-80" font-family="Helvetica,sans-Serif" font-size="10.00">src/libs/vwidgets/vabstractmainwindow.cpp</text>
</a>
</g>
</g>
<!-- Node18&#45;&gt;Node47 -->
<g id="edge47" class="edge">
<title>Node18&#45;&gt;Node47</title>
<path fill="none" stroke="midnightblue" d="M3593.53,-150.54C3784.37,-143.89 4194.7,-127.33 4540,-98 4558.79,-96.4 4579.13,-94.22 4597.79,-92.03"/>
<polygon fill="midnightblue" stroke="midnightblue" points="3593.37,-147.04 3583.5,-150.88 3593.62,-154.04 3593.37,-147.04"/>
</g>
<!-- Node48 -->
<g id="node43" class="node">
<title>Node48</title>
<g id="a_node43"><a xlink:href="../../de/d45/vcontrolpointspline_8cpp.html" target="_top" xlink:title=" ">
<polygon fill="white" stroke="black" points="4796.5,-73 4796.5,-92 5011.5,-92 5011.5,-73 4796.5,-73"/>
<text text-anchor="middle" x="4904" y="-80" font-family="Helvetica,sans-Serif" font-size="10.00">src/libs/vwidgets/vcontrolpointspline.cpp</text>
</a>
</g>
</g>
<!-- Node18&#45;&gt;Node48 -->
<g id="edge48" class="edge">
<title>Node18&#45;&gt;Node48</title>
<path fill="none" stroke="midnightblue" d="M3593.75,-152.29C3816.79,-148.09 4345.17,-134.83 4787,-98 4805.15,-96.49 4824.83,-94.27 4842.77,-92.03"/>
<polygon fill="midnightblue" stroke="midnightblue" points="3593.62,-148.79 3583.68,-152.47 3593.75,-155.79 3593.62,-148.79"/>
</g>
<!-- Node49 -->
<g id="node44" class="node">
<title>Node49</title>
<g id="a_node44"><a xlink:href="../../d1/d90/vgrainlineitem_8cpp.html" target="_top" xlink:title=" ">
<polygon fill="white" stroke="black" points="5029.5,-73 5029.5,-92 5222.5,-92 5222.5,-73 5029.5,-73"/>
<text text-anchor="middle" x="5126" y="-80" font-family="Helvetica,sans-Serif" font-size="10.00">src/libs/vwidgets/vgrainlineitem.cpp</text>
</a>
</g>
</g>
<!-- Node18&#45;&gt;Node49 -->
<g id="edge49" class="edge">
<title>Node18&#45;&gt;Node49</title>
<path fill="none" stroke="midnightblue" d="M3593.77,-153.75C3844.46,-152.35 4486.1,-144.15 5020,-98 5036.75,-96.55 5054.9,-94.32 5071.37,-92.03"/>
<polygon fill="midnightblue" stroke="midnightblue" points="3593.55,-150.25 3583.57,-153.8 3593.59,-157.25 3593.55,-150.25"/>
</g>
<!-- Node27&#45;&gt;Node28 -->
<g id="edge26" class="edge">
<title>Node27&#45;&gt;Node28</title>
<path fill="none" stroke="midnightblue" d="M2496.28,-58.87C2502.21,-49.46 2508.91,-38.83 2514.12,-30.58"/>
<polygon fill="midnightblue" stroke="midnightblue" points="2493.27,-57.07 2490.9,-67.4 2499.19,-60.81 2493.27,-57.07"/>
</g>
<!-- Node39&#45;&gt;Node40 -->
<g id="edge40" class="edge">
<title>Node39&#45;&gt;Node40</title>
<path fill="none" stroke="midnightblue" d="M3674.98,-67.05C4018.39,-19.58 4421.41,-15.86 4564.46,-16.14"/>
<polygon fill="midnightblue" stroke="midnightblue" points="3674.26,-63.61 3664.84,-68.46 3675.23,-70.55 3674.26,-63.61"/>
</g>
</g>
</svg>
