<?xml version="1.0" encoding="UTF-8" standalone="no"?>
<!DOCTYPE svg PUBLIC "-//W3C//DTD SVG 1.1//EN"
 "http://www.w3.org/Graphics/SVG/1.1/DTD/svg11.dtd">
<!-- Generated by graphviz version 2.43.0 (0)
 -->
<!-- Title: src/libs/xerces&#45;c/macx/include/xercesc/util/RefHashTableOf.hpp Pages: 1 -->
<svg width="1219pt" height="117pt"
 viewBox="0.00 0.00 1218.50 117.00" xmlns="http://www.w3.org/2000/svg" xmlns:xlink="http://www.w3.org/1999/xlink">
<g id="graph0" class="graph" transform="scale(1 1) rotate(0) translate(4 113)">
<title>src/libs/xerces&#45;c/macx/include/xercesc/util/RefHashTableOf.hpp</title>
<polygon fill="white" stroke="transparent" points="-4,4 -4,-113 1214.5,-113 1214.5,4 -4,4"/>
<!-- Node1 -->
<g id="node1" class="node">
<title>Node1</title>
<g id="a_node1"><a xlink:title=" ">
<polygon fill="#bfbfbf" stroke="black" points="526.5,-67.5 526.5,-108.5 651.5,-108.5 651.5,-67.5 526.5,-67.5"/>
<text text-anchor="start" x="534.5" y="-96.5" font-family="Helvetica,sans-Serif" font-size="10.00">src/libs/xerces&#45;c/macx</text>
<text text-anchor="start" x="534.5" y="-85.5" font-family="Helvetica,sans-Serif" font-size="10.00">/include/xercesc/util</text>
<text text-anchor="middle" x="589" y="-74.5" font-family="Helvetica,sans-Serif" font-size="10.00">/RefHashTableOf.hpp</text>
</a>
</g>
</g>
<!-- Node2 -->
<g id="node2" class="node">
<title>Node2</title>
<g id="a_node2"><a xlink:title=" ">
<polygon fill="white" stroke="#bfbfbf" points="0,-6 0,-25 136,-25 136,-6 0,-6"/>
<text text-anchor="middle" x="68" y="-13" font-family="Helvetica,sans-Serif" font-size="10.00">xercesc/util/Hashers.hpp</text>
</a>
</g>
</g>
<!-- Node1&#45;&gt;Node2 -->
<g id="edge1" class="edge">
<title>Node1&#45;&gt;Node2</title>
<path fill="none" stroke="midnightblue" d="M526.33,-80.31C440.19,-70.84 280.47,-52.28 145,-31 137.07,-29.75 128.71,-28.31 120.53,-26.83"/>
<polygon fill="midnightblue" stroke="midnightblue" points="121.15,-23.39 110.69,-25.02 119.88,-30.27 121.15,-23.39"/>
</g>
<!-- Node3 -->
<g id="node3" class="node">
<title>Node3</title>
<g id="a_node3"><a xlink:title=" ">
<polygon fill="white" stroke="#bfbfbf" points="154.5,-0.5 154.5,-30.5 307.5,-30.5 307.5,-0.5 154.5,-0.5"/>
<text text-anchor="start" x="162.5" y="-18.5" font-family="Helvetica,sans-Serif" font-size="10.00">xercesc/util/IllegalArgument</text>
<text text-anchor="middle" x="231" y="-7.5" font-family="Helvetica,sans-Serif" font-size="10.00">Exception.hpp</text>
</a>
</g>
</g>
<!-- Node1&#45;&gt;Node3 -->
<g id="edge2" class="edge">
<title>Node1&#45;&gt;Node3</title>
<path fill="none" stroke="midnightblue" d="M526.23,-74.64C466.84,-62.94 377.38,-45.33 312.5,-32.55"/>
<polygon fill="midnightblue" stroke="midnightblue" points="312.8,-29.04 302.31,-30.54 311.45,-35.91 312.8,-29.04"/>
</g>
<!-- Node4 -->
<g id="node4" class="node">
<title>Node4</title>
<g id="a_node4"><a xlink:title=" ">
<polygon fill="white" stroke="#bfbfbf" points="326,-0.5 326,-30.5 478,-30.5 478,-0.5 326,-0.5"/>
<text text-anchor="start" x="334" y="-18.5" font-family="Helvetica,sans-Serif" font-size="10.00">xercesc/util/NoSuchElement</text>
<text text-anchor="middle" x="402" y="-7.5" font-family="Helvetica,sans-Serif" font-size="10.00">Exception.hpp</text>
</a>
</g>
</g>
<!-- Node1&#45;&gt;Node4 -->
<g id="edge3" class="edge">
<title>Node1&#45;&gt;Node4</title>
<path fill="none" stroke="midnightblue" d="M536.91,-67.36C509.29,-56.95 475.62,-44.25 448.83,-34.15"/>
<polygon fill="midnightblue" stroke="midnightblue" points="449.88,-30.81 439.29,-30.56 447.42,-37.36 449.88,-30.81"/>
</g>
<!-- Node5 -->
<g id="node5" class="node">
<title>Node5</title>
<g id="a_node5"><a xlink:title=" ">
<polygon fill="white" stroke="#bfbfbf" points="496.5,-6 496.5,-25 681.5,-25 681.5,-6 496.5,-6"/>
<text text-anchor="middle" x="589" y="-13" font-family="Helvetica,sans-Serif" font-size="10.00">xercesc/util/RuntimeException.hpp</text>
</a>
</g>
</g>
<!-- Node1&#45;&gt;Node5 -->
<g id="edge4" class="edge">
<title>Node1&#45;&gt;Node5</title>
<path fill="none" stroke="midnightblue" d="M589,-67.36C589,-57.3 589,-45.1 589,-35.18"/>
<polygon fill="midnightblue" stroke="midnightblue" points="592.5,-35.17 589,-25.17 585.5,-35.17 592.5,-35.17"/>
</g>
<!-- Node6 -->
<g id="node6" class="node">
<title>Node6</title>
<g id="a_node6"><a xlink:title=" ">
<polygon fill="white" stroke="#bfbfbf" points="699.5,-6 699.5,-25 860.5,-25 860.5,-6 699.5,-6"/>
<text text-anchor="middle" x="780" y="-13" font-family="Helvetica,sans-Serif" font-size="10.00">xercesc/util/PlatformUtils.hpp</text>
</a>
</g>
</g>
<!-- Node1&#45;&gt;Node6 -->
<g id="edge5" class="edge">
<title>Node1&#45;&gt;Node6</title>
<path fill="none" stroke="midnightblue" d="M641.95,-67.46C675.73,-54.99 718.43,-39.23 747.33,-28.56"/>
<polygon fill="midnightblue" stroke="midnightblue" points="748.77,-31.76 756.94,-25.01 746.34,-25.19 748.77,-31.76"/>
</g>
<!-- Node7 -->
<g id="node7" class="node">
<title>Node7</title>
<g id="a_node7"><a xlink:title=" ">
<polygon fill="white" stroke="#bfbfbf" points="878.5,-0.5 878.5,-30.5 1031.5,-30.5 1031.5,-0.5 878.5,-0.5"/>
<text text-anchor="start" x="886.5" y="-18.5" font-family="Helvetica,sans-Serif" font-size="10.00">xercesc/framework/Memory</text>
<text text-anchor="middle" x="955" y="-7.5" font-family="Helvetica,sans-Serif" font-size="10.00">Manager.hpp</text>
</a>
</g>
</g>
<!-- Node1&#45;&gt;Node7 -->
<g id="edge6" class="edge">
<title>Node1&#45;&gt;Node7</title>
<path fill="none" stroke="midnightblue" d="M651.5,-74.96C712.29,-63.25 805,-45.39 871.96,-32.5"/>
<polygon fill="midnightblue" stroke="midnightblue" points="872.9,-35.88 882.06,-30.55 871.58,-29.01 872.9,-35.88"/>
</g>
<!-- Node8 -->
<g id="node8" class="node">
<title>Node8</title>
<g id="a_node8"><a xlink:title=" ">
<polygon fill="white" stroke="#bfbfbf" points="1049.5,-6 1049.5,-25 1210.5,-25 1210.5,-6 1049.5,-6"/>
<text text-anchor="middle" x="1130" y="-13" font-family="Helvetica,sans-Serif" font-size="10.00">xercesc/util/RefHashTableOf.c</text>
</a>
</g>
</g>
<!-- Node1&#45;&gt;Node8 -->
<g id="edge7" class="edge">
<title>Node1&#45;&gt;Node8</title>
<path fill="none" stroke="midnightblue" d="M651.62,-80.01C738.96,-70.08 902.26,-50.89 1041,-31 1050.32,-29.66 1060.16,-28.16 1069.78,-26.63"/>
<polygon fill="midnightblue" stroke="midnightblue" points="1070.37,-30.08 1079.69,-25.04 1069.26,-23.17 1070.37,-30.08"/>
</g>
</g>
</svg>
