<?xml version="1.0" encoding="UTF-8" standalone="no"?>
<!DOCTYPE svg PUBLIC "-//W3C//DTD SVG 1.1//EN"
 "http://www.w3.org/Graphics/SVG/1.1/DTD/svg11.dtd">
<!-- Generated by graphviz version 2.43.0 (0)
 -->
<!-- Title: src/libs/vtools/visualization/line/operation/visoperation.h Pages: 1 -->
<svg width="2102pt" height="184pt"
 viewBox="0.00 0.00 2102.00 184.00" xmlns="http://www.w3.org/2000/svg" xmlns:xlink="http://www.w3.org/1999/xlink">
<g id="graph0" class="graph" transform="scale(1 1) rotate(0) translate(4 180)">
<title>src/libs/vtools/visualization/line/operation/visoperation.h</title>
<polygon fill="white" stroke="transparent" points="-4,4 -4,-180 2098,-180 2098,4 -4,4"/>
<!-- Node1 -->
<g id="node1" class="node">
<title>Node1</title>
<g id="a_node1"><a xlink:title=" ">
<polygon fill="#bfbfbf" stroke="black" points="865.5,-145.5 865.5,-175.5 1025.5,-175.5 1025.5,-145.5 865.5,-145.5"/>
<text text-anchor="start" x="873.5" y="-163.5" font-family="Helvetica,sans-Serif" font-size="10.00">src/libs/vtools/visualization</text>
<text text-anchor="middle" x="945.5" y="-152.5" font-family="Helvetica,sans-Serif" font-size="10.00">/line/operation/visoperation.h</text>
</a>
</g>
</g>
<!-- Node2 -->
<g id="node2" class="node">
<title>Node2</title>
<g id="a_node2"><a xlink:href="../../d5/de2/visoperation_8cpp.html" target="_top" xlink:title=" ">
<polygon fill="white" stroke="black" points="172,-78.5 172,-108.5 343,-108.5 343,-78.5 172,-78.5"/>
<text text-anchor="start" x="180" y="-96.5" font-family="Helvetica,sans-Serif" font-size="10.00">src/libs/vtools/visualization</text>
<text text-anchor="middle" x="257.5" y="-85.5" font-family="Helvetica,sans-Serif" font-size="10.00">/line/operation/visoperation.cpp</text>
</a>
</g>
</g>
<!-- Node1&#45;&gt;Node2 -->
<g id="edge1" class="edge">
<title>Node1&#45;&gt;Node2</title>
<path fill="none" stroke="midnightblue" d="M854.95,-153.67C738.48,-145.74 530.03,-130.08 352.5,-109 349.43,-108.64 346.32,-108.25 343.17,-107.84"/>
<polygon fill="midnightblue" stroke="midnightblue" points="855.03,-157.18 865.24,-154.37 855.5,-150.2 855.03,-157.18"/>
</g>
<!-- Node3 -->
<g id="node3" class="node">
<title>Node3</title>
<g id="a_node3"><a xlink:href="../../da/d4d/vistoolmirrorbyaxis_8h.html" target="_top" xlink:title=" ">
<polygon fill="white" stroke="black" points="361.5,-78.5 361.5,-108.5 555.5,-108.5 555.5,-78.5 361.5,-78.5"/>
<text text-anchor="start" x="369.5" y="-96.5" font-family="Helvetica,sans-Serif" font-size="10.00">src/libs/vtools/visualization</text>
<text text-anchor="middle" x="458.5" y="-85.5" font-family="Helvetica,sans-Serif" font-size="10.00">/line/operation/vistoolmirrorbyaxis.h</text>
</a>
</g>
</g>
<!-- Node1&#45;&gt;Node3 -->
<g id="edge2" class="edge">
<title>Node1&#45;&gt;Node3</title>
<path fill="none" stroke="midnightblue" d="M855.18,-147.45C770.03,-136.08 642.78,-119.1 555.51,-107.45"/>
<polygon fill="midnightblue" stroke="midnightblue" points="854.98,-150.95 865.35,-148.8 855.91,-144.01 854.98,-150.95"/>
</g>
<!-- Node7 -->
<g id="node7" class="node">
<title>Node7</title>
<g id="a_node7"><a xlink:href="../../d0/d44/vistoolmove_8h.html" target="_top" xlink:title=" ">
<polygon fill="white" stroke="black" points="729.5,-78.5 729.5,-108.5 889.5,-108.5 889.5,-78.5 729.5,-78.5"/>
<text text-anchor="start" x="737.5" y="-96.5" font-family="Helvetica,sans-Serif" font-size="10.00">src/libs/vtools/visualization</text>
<text text-anchor="middle" x="809.5" y="-85.5" font-family="Helvetica,sans-Serif" font-size="10.00">/line/operation/vistoolmove.h</text>
</a>
</g>
</g>
<!-- Node1&#45;&gt;Node7 -->
<g id="edge6" class="edge">
<title>Node1&#45;&gt;Node7</title>
<path fill="none" stroke="midnightblue" d="M906.78,-140.99C885.22,-130.69 858.81,-118.07 838.95,-108.58"/>
<polygon fill="midnightblue" stroke="midnightblue" points="905.46,-144.24 915.99,-145.4 908.48,-137.93 905.46,-144.24"/>
</g>
<!-- Node10 -->
<g id="node10" class="node">
<title>Node10</title>
<g id="a_node10"><a xlink:href="../../df/d46/vistoolmove_8cpp.html" target="_top" xlink:title=" ">
<polygon fill="white" stroke="black" points="860,-6 860,-36 1031,-36 1031,-6 860,-6"/>
<text text-anchor="start" x="868" y="-24" font-family="Helvetica,sans-Serif" font-size="10.00">src/libs/vtools/visualization</text>
<text text-anchor="middle" x="945.5" y="-13" font-family="Helvetica,sans-Serif" font-size="10.00">/line/operation/vistoolmove.cpp</text>
</a>
</g>
</g>
<!-- Node1&#45;&gt;Node10 -->
<g id="edge15" class="edge">
<title>Node1&#45;&gt;Node10</title>
<path fill="none" stroke="midnightblue" d="M945.5,-135.29C945.5,-106.61 945.5,-59.78 945.5,-36.33"/>
<polygon fill="midnightblue" stroke="midnightblue" points="942,-135.3 945.5,-145.3 949,-135.3 942,-135.3"/>
</g>
<!-- Node11 -->
<g id="node11" class="node">
<title>Node11</title>
<g id="a_node11"><a xlink:href="../../d1/df2/vistoolrotation_8cpp.html" target="_top" xlink:title=" ">
<polygon fill="white" stroke="black" points="1049.5,-6 1049.5,-36 1231.5,-36 1231.5,-6 1049.5,-6"/>
<text text-anchor="start" x="1057.5" y="-24" font-family="Helvetica,sans-Serif" font-size="10.00">src/libs/vtools/visualization</text>
<text text-anchor="middle" x="1140.5" y="-13" font-family="Helvetica,sans-Serif" font-size="10.00">/line/operation/vistoolrotation.cpp</text>
</a>
</g>
</g>
<!-- Node1&#45;&gt;Node11 -->
<g id="edge10" class="edge">
<title>Node1&#45;&gt;Node11</title>
<path fill="none" stroke="midnightblue" d="M973.89,-139.48C1013.84,-111.31 1085.65,-60.68 1120.48,-36.12"/>
<polygon fill="midnightblue" stroke="midnightblue" points="971.79,-136.68 965.63,-145.3 975.82,-142.4 971.79,-136.68"/>
</g>
<!-- Node12 -->
<g id="node12" class="node">
<title>Node12</title>
<g id="a_node12"><a xlink:href="../../de/d9c/vistoolrotation_8h.html" target="_top" xlink:title=" ">
<polygon fill="white" stroke="black" points="1122.5,-78.5 1122.5,-108.5 1292.5,-108.5 1292.5,-78.5 1122.5,-78.5"/>
<text text-anchor="start" x="1130.5" y="-96.5" font-family="Helvetica,sans-Serif" font-size="10.00">src/libs/vtools/visualization</text>
<text text-anchor="middle" x="1207.5" y="-85.5" font-family="Helvetica,sans-Serif" font-size="10.00">/line/operation/vistoolrotation.h</text>
</a>
</g>
</g>
<!-- Node1&#45;&gt;Node12 -->
<g id="edge11" class="edge">
<title>Node1&#45;&gt;Node12</title>
<path fill="none" stroke="midnightblue" d="M1011.8,-143.05C1054.63,-132.43 1109.79,-118.74 1150.62,-108.61"/>
<polygon fill="midnightblue" stroke="midnightblue" points="1010.89,-139.67 1002.03,-145.48 1012.58,-146.47 1010.89,-139.67"/>
</g>
<!-- Node15 -->
<g id="node15" class="node">
<title>Node15</title>
<g id="a_node15"><a xlink:href="../../d8/d1e/vistoolmirrorbyline_8h.html" target="_top" xlink:title=" ">
<polygon fill="white" stroke="black" points="1610.5,-78.5 1610.5,-108.5 1802.5,-108.5 1802.5,-78.5 1610.5,-78.5"/>
<text text-anchor="start" x="1618.5" y="-96.5" font-family="Helvetica,sans-Serif" font-size="10.00">src/libs/vtools/visualization</text>
<text text-anchor="middle" x="1706.5" y="-85.5" font-family="Helvetica,sans-Serif" font-size="10.00">/line/operation/vistoolmirrorbyline.h</text>
</a>
</g>
</g>
<!-- Node1&#45;&gt;Node15 -->
<g id="edge16" class="edge">
<title>Node1&#45;&gt;Node15</title>
<path fill="none" stroke="midnightblue" d="M1035.66,-151.8C1180.12,-139.46 1462.22,-115.36 1610.38,-102.71"/>
<polygon fill="midnightblue" stroke="midnightblue" points="1035.17,-148.33 1025.5,-152.67 1035.76,-155.3 1035.17,-148.33"/>
</g>
<!-- Node4 -->
<g id="node4" class="node">
<title>Node4</title>
<g id="a_node4"><a xlink:href="../../d9/d34/dialogmirrorbyaxis_8cpp.html" target="_top" xlink:title=" ">
<polygon fill="white" stroke="black" points="0,-6 0,-36 159,-36 159,-6 0,-6"/>
<text text-anchor="start" x="8" y="-24" font-family="Helvetica,sans-Serif" font-size="10.00">src/libs/vtools/dialogs</text>
<text text-anchor="middle" x="79.5" y="-13" font-family="Helvetica,sans-Serif" font-size="10.00">/tools/dialogmirrorbyaxis.cpp</text>
</a>
</g>
</g>
<!-- Node3&#45;&gt;Node4 -->
<g id="edge3" class="edge">
<title>Node3&#45;&gt;Node4</title>
<path fill="none" stroke="midnightblue" d="M361.38,-76.8C304.95,-67.38 232.56,-54.77 168.5,-42 159.34,-40.17 149.67,-38.13 140.22,-36.06"/>
<polygon fill="midnightblue" stroke="midnightblue" points="360.93,-80.27 371.37,-78.46 362.08,-73.37 360.93,-80.27"/>
</g>
<!-- Node5 -->
<g id="node5" class="node">
<title>Node5</title>
<g id="a_node5"><a xlink:href="../../d5/d3b/vtoolmirrorbyaxis_8cpp.html" target="_top" xlink:title=" ">
<polygon fill="white" stroke="black" points="177.5,-0.5 177.5,-41.5 337.5,-41.5 337.5,-0.5 177.5,-0.5"/>
<text text-anchor="start" x="185.5" y="-29.5" font-family="Helvetica,sans-Serif" font-size="10.00">src/libs/vtools/tools</text>
<text text-anchor="start" x="185.5" y="-18.5" font-family="Helvetica,sans-Serif" font-size="10.00">/drawTools/operation</text>
<text text-anchor="middle" x="257.5" y="-7.5" font-family="Helvetica,sans-Serif" font-size="10.00">/mirror/vtoolmirrorbyaxis.cpp</text>
</a>
</g>
</g>
<!-- Node3&#45;&gt;Node5 -->
<g id="edge4" class="edge">
<title>Node3&#45;&gt;Node5</title>
<path fill="none" stroke="midnightblue" d="M408.79,-75.07C379.81,-64.9 343.18,-52.05 313.23,-41.55"/>
<polygon fill="midnightblue" stroke="midnightblue" points="407.71,-78.4 418.31,-78.4 410.03,-71.79 407.71,-78.4"/>
</g>
<!-- Node6 -->
<g id="node6" class="node">
<title>Node6</title>
<g id="a_node6"><a xlink:href="../../de/da4/vistoolmirrorbyaxis_8cpp.html" target="_top" xlink:title=" ">
<polygon fill="white" stroke="black" points="355.5,-6 355.5,-36 561.5,-36 561.5,-6 355.5,-6"/>
<text text-anchor="start" x="363.5" y="-24" font-family="Helvetica,sans-Serif" font-size="10.00">src/libs/vtools/visualization</text>
<text text-anchor="middle" x="458.5" y="-13" font-family="Helvetica,sans-Serif" font-size="10.00">/line/operation/vistoolmirrorbyaxis.cpp</text>
</a>
</g>
</g>
<!-- Node3&#45;&gt;Node6 -->
<g id="edge5" class="edge">
<title>Node3&#45;&gt;Node6</title>
<path fill="none" stroke="midnightblue" d="M458.5,-68.23C458.5,-57.57 458.5,-45.41 458.5,-36.25"/>
<polygon fill="midnightblue" stroke="midnightblue" points="455,-68.23 458.5,-78.23 462,-68.23 455,-68.23"/>
</g>
<!-- Node8 -->
<g id="node8" class="node">
<title>Node8</title>
<g id="a_node8"><a xlink:href="../../d2/d51/dialogmove_8cpp.html" target="_top" xlink:title=" ">
<polygon fill="white" stroke="black" points="580,-6 580,-36 705,-36 705,-6 580,-6"/>
<text text-anchor="start" x="588" y="-24" font-family="Helvetica,sans-Serif" font-size="10.00">src/libs/vtools/dialogs</text>
<text text-anchor="middle" x="642.5" y="-13" font-family="Helvetica,sans-Serif" font-size="10.00">/tools/dialogmove.cpp</text>
</a>
</g>
</g>
<!-- Node7&#45;&gt;Node8 -->
<g id="edge7" class="edge">
<title>Node7&#45;&gt;Node8</title>
<path fill="none" stroke="midnightblue" d="M766.86,-74.5C738.57,-62.56 701.99,-47.11 675.84,-36.07"/>
<polygon fill="midnightblue" stroke="midnightblue" points="765.53,-77.74 776.11,-78.4 768.25,-71.29 765.53,-77.74"/>
</g>
<!-- Node9 -->
<g id="node9" class="node">
<title>Node9</title>
<g id="a_node9"><a xlink:href="../../d3/d2b/vtoolmove_8cpp.html" target="_top" xlink:title=" ">
<polygon fill="white" stroke="black" points="723.5,-0.5 723.5,-41.5 841.5,-41.5 841.5,-0.5 723.5,-0.5"/>
<text text-anchor="start" x="731.5" y="-29.5" font-family="Helvetica,sans-Serif" font-size="10.00">src/libs/vtools/tools</text>
<text text-anchor="start" x="731.5" y="-18.5" font-family="Helvetica,sans-Serif" font-size="10.00">/drawTools/operation</text>
<text text-anchor="middle" x="782.5" y="-7.5" font-family="Helvetica,sans-Serif" font-size="10.00">/vtoolmove.cpp</text>
</a>
</g>
</g>
<!-- Node7&#45;&gt;Node9 -->
<g id="edge8" class="edge">
<title>Node7&#45;&gt;Node9</title>
<path fill="none" stroke="midnightblue" d="M800.44,-68.84C797.05,-59.99 793.24,-50.03 790,-41.59"/>
<polygon fill="midnightblue" stroke="midnightblue" points="797.19,-70.15 804.04,-78.23 803.73,-67.64 797.19,-70.15"/>
</g>
<!-- Node7&#45;&gt;Node10 -->
<g id="edge9" class="edge">
<title>Node7&#45;&gt;Node10</title>
<path fill="none" stroke="midnightblue" d="M845.74,-73.72C868.55,-61.89 897.52,-46.87 918.35,-36.07"/>
<polygon fill="midnightblue" stroke="midnightblue" points="843.96,-70.69 836.69,-78.4 847.18,-76.91 843.96,-70.69"/>
</g>
<!-- Node12&#45;&gt;Node11 -->
<g id="edge14" class="edge">
<title>Node12&#45;&gt;Node11</title>
<path fill="none" stroke="midnightblue" d="M1186.94,-70.86C1176.25,-59.61 1163.48,-46.18 1154.04,-36.25"/>
<polygon fill="midnightblue" stroke="midnightblue" points="1184.52,-73.4 1193.94,-78.23 1189.59,-68.57 1184.52,-73.4"/>
</g>
<!-- Node13 -->
<g id="node13" class="node">
<title>Node13</title>
<g id="a_node13"><a xlink:href="../../dc/d64/dialogrotation_8cpp.html" target="_top" xlink:title=" ">
<polygon fill="white" stroke="black" points="1250,-6 1250,-36 1385,-36 1385,-6 1250,-6"/>
<text text-anchor="start" x="1258" y="-24" font-family="Helvetica,sans-Serif" font-size="10.00">src/libs/vtools/dialogs</text>
<text text-anchor="middle" x="1317.5" y="-13" font-family="Helvetica,sans-Serif" font-size="10.00">/tools/dialogrotation.cpp</text>
</a>
</g>
</g>
<!-- Node12&#45;&gt;Node13 -->
<g id="edge12" class="edge">
<title>Node12&#45;&gt;Node13</title>
<path fill="none" stroke="midnightblue" d="M1238.05,-72.92C1256.3,-61.22 1279.06,-46.63 1295.54,-36.07"/>
<polygon fill="midnightblue" stroke="midnightblue" points="1236.03,-70.06 1229.5,-78.4 1239.8,-75.95 1236.03,-70.06"/>
</g>
<!-- Node14 -->
<g id="node14" class="node">
<title>Node14</title>
<g id="a_node14"><a xlink:href="../../df/dd2/vtoolrotation_8cpp.html" target="_top" xlink:title=" ">
<polygon fill="white" stroke="black" points="1403.5,-0.5 1403.5,-41.5 1521.5,-41.5 1521.5,-0.5 1403.5,-0.5"/>
<text text-anchor="start" x="1411.5" y="-29.5" font-family="Helvetica,sans-Serif" font-size="10.00">src/libs/vtools/tools</text>
<text text-anchor="start" x="1411.5" y="-18.5" font-family="Helvetica,sans-Serif" font-size="10.00">/drawTools/operation</text>
<text text-anchor="middle" x="1462.5" y="-7.5" font-family="Helvetica,sans-Serif" font-size="10.00">/vtoolrotation.cpp</text>
</a>
</g>
</g>
<!-- Node12&#45;&gt;Node14 -->
<g id="edge13" class="edge">
<title>Node12&#45;&gt;Node14</title>
<path fill="none" stroke="midnightblue" d="M1269.99,-75.82C1306.12,-66.1 1352.42,-53.53 1393.5,-42 1396.74,-41.09 1400.07,-40.15 1403.42,-39.2"/>
<polygon fill="midnightblue" stroke="midnightblue" points="1268.83,-72.51 1260.08,-78.48 1270.64,-79.27 1268.83,-72.51"/>
</g>
<!-- Node16 -->
<g id="node16" class="node">
<title>Node16</title>
<g id="a_node16"><a xlink:href="../../df/d5e/dialogmirrorbyline_8cpp.html" target="_top" xlink:title=" ">
<polygon fill="white" stroke="black" points="1540,-6 1540,-36 1697,-36 1697,-6 1540,-6"/>
<text text-anchor="start" x="1548" y="-24" font-family="Helvetica,sans-Serif" font-size="10.00">src/libs/vtools/dialogs</text>
<text text-anchor="middle" x="1618.5" y="-13" font-family="Helvetica,sans-Serif" font-size="10.00">/tools/dialogmirrorbyline.cpp</text>
</a>
</g>
</g>
<!-- Node15&#45;&gt;Node16 -->
<g id="edge17" class="edge">
<title>Node15&#45;&gt;Node16</title>
<path fill="none" stroke="midnightblue" d="M1680.65,-71.79C1666.26,-60.27 1648.75,-46.23 1635.98,-36"/>
<polygon fill="midnightblue" stroke="midnightblue" points="1678.7,-74.71 1688.69,-78.23 1683.08,-69.25 1678.7,-74.71"/>
</g>
<!-- Node17 -->
<g id="node17" class="node">
<title>Node17</title>
<g id="a_node17"><a xlink:href="../../d2/d3c/vtoolmirrorbyline_8cpp.html" target="_top" xlink:title=" ">
<polygon fill="white" stroke="black" points="1715.5,-0.5 1715.5,-41.5 1873.5,-41.5 1873.5,-0.5 1715.5,-0.5"/>
<text text-anchor="start" x="1723.5" y="-29.5" font-family="Helvetica,sans-Serif" font-size="10.00">src/libs/vtools/tools</text>
<text text-anchor="start" x="1723.5" y="-18.5" font-family="Helvetica,sans-Serif" font-size="10.00">/drawTools/operation</text>
<text text-anchor="middle" x="1794.5" y="-7.5" font-family="Helvetica,sans-Serif" font-size="10.00">/mirror/vtoolmirrorbyline.cpp</text>
</a>
</g>
</g>
<!-- Node15&#45;&gt;Node17 -->
<g id="edge18" class="edge">
<title>Node15&#45;&gt;Node17</title>
<path fill="none" stroke="midnightblue" d="M1732.17,-71.93C1744.12,-62.36 1758.26,-51.03 1770.05,-41.59"/>
<polygon fill="midnightblue" stroke="midnightblue" points="1729.92,-69.25 1724.31,-78.23 1734.3,-74.71 1729.92,-69.25"/>
</g>
<!-- Node18 -->
<g id="node18" class="node">
<title>Node18</title>
<g id="a_node18"><a xlink:href="../../d0/d35/vistoolmirrorbyline_8cpp.html" target="_top" xlink:title=" ">
<polygon fill="white" stroke="black" points="1891,-6 1891,-36 2094,-36 2094,-6 1891,-6"/>
<text text-anchor="start" x="1899" y="-24" font-family="Helvetica,sans-Serif" font-size="10.00">src/libs/vtools/visualization</text>
<text text-anchor="middle" x="1992.5" y="-13" font-family="Helvetica,sans-Serif" font-size="10.00">/line/operation/vistoolmirrorbyline.cpp</text>
</a>
</g>
</g>
<!-- Node15&#45;&gt;Node18 -->
<g id="edge19" class="edge">
<title>Node15&#45;&gt;Node18</title>
<path fill="none" stroke="midnightblue" d="M1773.25,-76.05C1822.4,-63.93 1888.53,-47.63 1935.27,-36.11"/>
<polygon fill="midnightblue" stroke="midnightblue" points="1772.22,-72.7 1763.35,-78.49 1773.89,-79.49 1772.22,-72.7"/>
</g>
</g>
</svg>
