<?xml version="1.0" encoding="UTF-8" standalone="no"?>
<!DOCTYPE svg PUBLIC "-//W3C//DTD SVG 1.1//EN"
 "http://www.w3.org/Graphics/SVG/1.1/DTD/svg11.dtd">
<!-- Generated by graphviz version 2.43.0 (0)
 -->
<!-- Title: src/libs/vtools/visualization/line/operation/visoperation.h Pages: 1 -->
<!--zoomable 184 -->
<svg id="main" version="1.1" xmlns="http://www.w3.org/2000/svg" xmlns:xlink="http://www.w3.org/1999/xlink" xml:space="preserve" onload="init(evt)">
<style type="text/css"><![CDATA[
.edge:hover path { stroke: red; }
.edge:hover polygon { stroke: red; fill: red; }
]]></style>
<script type="text/javascript"><![CDATA[
var edges = document.getElementsByTagName('g');
if (edges && edges.length) {
  for (var i=0;i<edges.length;i++) {
    if (edges[i].id.substr(0,4)=='edge') {
      edges[i].setAttribute('class','edge');
    }
  }
}
]]></script>
        <defs>
                <circle id="rim" cx="0" cy="0" r="7"/>
                <circle id="rim2" cx="0" cy="0" r="3.5"/>
                <g id="zoomPlus">
                        <use xlink:href="#rim" fill="#404040">
                                <set attributeName="fill" to="#808080" begin="zoomplus.mouseover" end="zoomplus.mouseout"/>
                        </use>
                        <path d="M-4,0h8M0,-4v8" fill="none" stroke="white" stroke-width="1.5" pointer-events="none"/>
                </g>
                <g id="zoomMin">
                        <use xlink:href="#rim" fill="#404040">
                                <set attributeName="fill" to="#808080" begin="zoomminus.mouseover" end="zoomminus.mouseout"/>
                        </use>
                        <path d="M-4,0h8" fill="none" stroke="white" stroke-width="1.5" pointer-events="none"/>
                </g>
                <g id="dirArrow">
                        <path fill="none" stroke="white" stroke-width="1.5" d="M0,-3.0v7 M-2.5,-0.5L0,-3.0L2.5,-0.5"/>
                </g>
               <g id="resetDef">
                       <use xlink:href="#rim2" fill="#404040">
                               <set attributeName="fill" to="#808080" begin="reset.mouseover" end="reset.mouseout"/>
                       </use>
               </g>
        </defs>

<script type="text/javascript">
var viewWidth = 2102;
var viewHeight = 184;
var sectionId = 'dynsection-1';
</script>
<script xlink:href="../../svgpan.js"/>
<svg id="graph" class="graph">
<g id="viewport">
<title>src/libs/vtools/visualization/line/operation/visoperation.h</title>
<polygon fill="white" stroke="transparent" points="-4,4 -4,-180 2097.5,-180 2097.5,4 -4,4"/>
<!-- Node1 -->
<g id="node1" class="node">
<title>Node1</title>
<g id="a_node1"><a xlink:title=" ">
<polygon fill="#bfbfbf" stroke="black" points="1274.5,-145.5 1274.5,-175.5 1434.5,-175.5 1434.5,-145.5 1274.5,-145.5"/>
<text text-anchor="start" x="1282.5" y="-163.5" font-family="Helvetica,sans-Serif" font-size="10.00">src/libs/vtools/visualization</text>
<text text-anchor="middle" x="1354.5" y="-152.5" font-family="Helvetica,sans-Serif" font-size="10.00">/line/operation/visoperation.h</text>
</a>
</g>
</g>
<!-- Node2 -->
<g id="node2" class="node">
<title>Node2</title>
<g id="a_node2"><a xlink:href="../../d5/de2/visoperation_8cpp.html" target="_top" xlink:title=" ">
<polygon fill="white" stroke="black" points="167,-78.5 167,-108.5 338,-108.5 338,-78.5 167,-78.5"/>
<text text-anchor="start" x="175" y="-96.5" font-family="Helvetica,sans-Serif" font-size="10.00">src/libs/vtools/visualization</text>
<text text-anchor="middle" x="252.5" y="-85.5" font-family="Helvetica,sans-Serif" font-size="10.00">/line/operation/visoperation.cpp</text>
</a>
</g>
</g>
<!-- Node1&#45;&gt;Node2 -->
<g id="edge1" class="edge">
<title>Node1&#45;&gt;Node2</title>
<path fill="none" stroke="midnightblue" d="M1264.32,-158.04C1087.86,-154.51 684.7,-143.1 347.5,-109 344.43,-108.69 341.31,-108.35 338.15,-107.98"/>
<polygon fill="midnightblue" stroke="midnightblue" points="1264.27,-161.54 1274.34,-158.24 1264.41,-154.54 1264.27,-161.54"/>
</g>
<!-- Node3 -->
<g id="node3" class="node">
<title>Node3</title>
<g id="a_node3"><a xlink:href="../../d8/d1e/vistoolmirrorbyline_8h.html" target="_top" xlink:title=" ">
<polygon fill="white" stroke="black" points="356.5,-78.5 356.5,-108.5 548.5,-108.5 548.5,-78.5 356.5,-78.5"/>
<text text-anchor="start" x="364.5" y="-96.5" font-family="Helvetica,sans-Serif" font-size="10.00">src/libs/vtools/visualization</text>
<text text-anchor="middle" x="452.5" y="-85.5" font-family="Helvetica,sans-Serif" font-size="10.00">/line/operation/vistoolmirrorbyline.h</text>
</a>
</g>
</g>
<!-- Node1&#45;&gt;Node3 -->
<g id="edge2" class="edge">
<title>Node1&#45;&gt;Node3</title>
<path fill="none" stroke="midnightblue" d="M1264.24,-153C1093.4,-140.68 724.26,-114.08 548.84,-101.44"/>
<polygon fill="midnightblue" stroke="midnightblue" points="1264.23,-156.5 1274.45,-153.73 1264.73,-149.52 1264.23,-156.5"/>
</g>
<!-- Node7 -->
<g id="node7" class="node">
<title>Node7</title>
<g id="a_node7"><a xlink:href="../../da/d4d/vistoolmirrorbyaxis_8h.html" target="_top" xlink:title=" ">
<polygon fill="white" stroke="black" points="832.5,-78.5 832.5,-108.5 1026.5,-108.5 1026.5,-78.5 832.5,-78.5"/>
<text text-anchor="start" x="840.5" y="-96.5" font-family="Helvetica,sans-Serif" font-size="10.00">src/libs/vtools/visualization</text>
<text text-anchor="middle" x="929.5" y="-85.5" font-family="Helvetica,sans-Serif" font-size="10.00">/line/operation/vistoolmirrorbyaxis.h</text>
</a>
</g>
</g>
<!-- Node1&#45;&gt;Node7 -->
<g id="edge6" class="edge">
<title>Node1&#45;&gt;Node7</title>
<path fill="none" stroke="midnightblue" d="M1264.4,-145.72C1192.83,-134.77 1093.14,-119.53 1021.15,-108.52"/>
<polygon fill="midnightblue" stroke="midnightblue" points="1263.9,-149.18 1274.31,-147.24 1264.96,-142.26 1263.9,-149.18"/>
</g>
<!-- Node11 -->
<g id="node11" class="node">
<title>Node11</title>
<g id="a_node11"><a xlink:href="../../d0/d44/vistoolmove_8h.html" target="_top" xlink:title=" ">
<polygon fill="white" stroke="black" points="1274.5,-78.5 1274.5,-108.5 1434.5,-108.5 1434.5,-78.5 1274.5,-78.5"/>
<text text-anchor="start" x="1282.5" y="-96.5" font-family="Helvetica,sans-Serif" font-size="10.00">src/libs/vtools/visualization</text>
<text text-anchor="middle" x="1354.5" y="-85.5" font-family="Helvetica,sans-Serif" font-size="10.00">/line/operation/vistoolmove.h</text>
</a>
</g>
</g>
<!-- Node1&#45;&gt;Node11 -->
<g id="edge10" class="edge">
<title>Node1&#45;&gt;Node11</title>
<path fill="none" stroke="midnightblue" d="M1354.5,-135.11C1354.5,-126.15 1354.5,-116.32 1354.5,-108.58"/>
<polygon fill="midnightblue" stroke="midnightblue" points="1351,-135.4 1354.5,-145.4 1358,-135.4 1351,-135.4"/>
</g>
<!-- Node14 -->
<g id="node14" class="node">
<title>Node14</title>
<g id="a_node14"><a xlink:href="../../df/d46/vistoolmove_8cpp.html" target="_top" xlink:title=" ">
<polygon fill="white" stroke="black" points="1432,-6 1432,-36 1603,-36 1603,-6 1432,-6"/>
<text text-anchor="start" x="1440" y="-24" font-family="Helvetica,sans-Serif" font-size="10.00">src/libs/vtools/visualization</text>
<text text-anchor="middle" x="1517.5" y="-13" font-family="Helvetica,sans-Serif" font-size="10.00">/line/operation/vistoolmove.cpp</text>
</a>
</g>
</g>
<!-- Node1&#45;&gt;Node14 -->
<g id="edge15" class="edge">
<title>Node1&#45;&gt;Node14</title>
<path fill="none" stroke="midnightblue" d="M1394.59,-140.6C1410.62,-132.09 1428.74,-121.21 1443.5,-109 1470.09,-87.01 1494.72,-54.72 1507.77,-36.29"/>
<polygon fill="midnightblue" stroke="midnightblue" points="1392.72,-137.63 1385.44,-145.33 1395.93,-143.85 1392.72,-137.63"/>
</g>
<!-- Node15 -->
<g id="node15" class="node">
<title>Node15</title>
<g id="a_node15"><a xlink:href="../../d1/df2/vistoolrotation_8cpp.html" target="_top" xlink:title=" ">
<polygon fill="white" stroke="black" points="1621.5,-6 1621.5,-36 1803.5,-36 1803.5,-6 1621.5,-6"/>
<text text-anchor="start" x="1629.5" y="-24" font-family="Helvetica,sans-Serif" font-size="10.00">src/libs/vtools/visualization</text>
<text text-anchor="middle" x="1712.5" y="-13" font-family="Helvetica,sans-Serif" font-size="10.00">/line/operation/vistoolrotation.cpp</text>
</a>
</g>
</g>
<!-- Node1&#45;&gt;Node15 -->
<g id="edge14" class="edge">
<title>Node1&#45;&gt;Node15</title>
<path fill="none" stroke="midnightblue" d="M1400.85,-141.7C1472.92,-114.02 1610.35,-61.23 1675.92,-36.05"/>
<polygon fill="midnightblue" stroke="midnightblue" points="1399.21,-138.58 1391.13,-145.43 1401.72,-145.11 1399.21,-138.58"/>
</g>
<!-- Node16 -->
<g id="node16" class="node">
<title>Node16</title>
<g id="a_node16"><a xlink:href="../../de/d9c/vistoolrotation_8h.html" target="_top" xlink:title=" ">
<polygon fill="white" stroke="black" points="1701.5,-78.5 1701.5,-108.5 1871.5,-108.5 1871.5,-78.5 1701.5,-78.5"/>
<text text-anchor="start" x="1709.5" y="-96.5" font-family="Helvetica,sans-Serif" font-size="10.00">src/libs/vtools/visualization</text>
<text text-anchor="middle" x="1786.5" y="-85.5" font-family="Helvetica,sans-Serif" font-size="10.00">/line/operation/vistoolrotation.h</text>
</a>
</g>
</g>
<!-- Node1&#45;&gt;Node16 -->
<g id="edge16" class="edge">
<title>Node1&#45;&gt;Node16</title>
<path fill="none" stroke="midnightblue" d="M1444.71,-145.93C1520.17,-134.57 1627.07,-118.49 1701.14,-107.34"/>
<polygon fill="midnightblue" stroke="midnightblue" points="1444.11,-142.48 1434.74,-147.43 1445.15,-149.4 1444.11,-142.48"/>
</g>
<!-- Node4 -->
<g id="node4" class="node">
<title>Node4</title>
<g id="a_node4"><a xlink:href="../../df/d5e/dialogmirrorbyline_8cpp.html" target="_top" xlink:title=" ">
<polygon fill="white" stroke="black" points="0,-6 0,-36 157,-36 157,-6 0,-6"/>
<text text-anchor="start" x="8" y="-24" font-family="Helvetica,sans-Serif" font-size="10.00">src/libs/vtools/dialogs</text>
<text text-anchor="middle" x="78.5" y="-13" font-family="Helvetica,sans-Serif" font-size="10.00">/tools/dialogmirrorbyline.cpp</text>
</a>
</g>
</g>
<!-- Node3&#45;&gt;Node4 -->
<g id="edge3" class="edge">
<title>Node3&#45;&gt;Node4</title>
<path fill="none" stroke="midnightblue" d="M356.37,-76.73C300.77,-67.3 229.55,-54.72 166.5,-42 157.44,-40.17 147.88,-38.12 138.53,-36.05"/>
<polygon fill="midnightblue" stroke="midnightblue" points="356.12,-80.24 366.57,-78.45 357.29,-73.33 356.12,-80.24"/>
</g>
<!-- Node5 -->
<g id="node5" class="node">
<title>Node5</title>
<g id="a_node5"><a xlink:href="../../d2/d3c/vtoolmirrorbyline_8cpp.html" target="_top" xlink:title=" ">
<polygon fill="white" stroke="black" points="175.5,-0.5 175.5,-41.5 333.5,-41.5 333.5,-0.5 175.5,-0.5"/>
<text text-anchor="start" x="183.5" y="-29.5" font-family="Helvetica,sans-Serif" font-size="10.00">src/libs/vtools/tools</text>
<text text-anchor="start" x="183.5" y="-18.5" font-family="Helvetica,sans-Serif" font-size="10.00">/drawTools/operation</text>
<text text-anchor="middle" x="254.5" y="-7.5" font-family="Helvetica,sans-Serif" font-size="10.00">/mirror/vtoolmirrorbyline.cpp</text>
</a>
</g>
</g>
<!-- Node3&#45;&gt;Node5 -->
<g id="edge4" class="edge">
<title>Node3&#45;&gt;Node5</title>
<path fill="none" stroke="midnightblue" d="M403.16,-74.93C374.67,-64.79 338.78,-52.01 309.4,-41.55"/>
<polygon fill="midnightblue" stroke="midnightblue" points="402.31,-78.35 412.91,-78.4 404.66,-71.75 402.31,-78.35"/>
</g>
<!-- Node6 -->
<g id="node6" class="node">
<title>Node6</title>
<g id="a_node6"><a xlink:href="../../d0/d35/vistoolmirrorbyline_8cpp.html" target="_top" xlink:title=" ">
<polygon fill="white" stroke="black" points="351,-6 351,-36 554,-36 554,-6 351,-6"/>
<text text-anchor="start" x="359" y="-24" font-family="Helvetica,sans-Serif" font-size="10.00">src/libs/vtools/visualization</text>
<text text-anchor="middle" x="452.5" y="-13" font-family="Helvetica,sans-Serif" font-size="10.00">/line/operation/vistoolmirrorbyline.cpp</text>
</a>
</g>
</g>
<!-- Node3&#45;&gt;Node6 -->
<g id="edge5" class="edge">
<title>Node3&#45;&gt;Node6</title>
<path fill="none" stroke="midnightblue" d="M452.5,-68.23C452.5,-57.57 452.5,-45.41 452.5,-36.25"/>
<polygon fill="midnightblue" stroke="midnightblue" points="449,-68.23 452.5,-78.23 456,-68.23 449,-68.23"/>
</g>
<!-- Node8 -->
<g id="node8" class="node">
<title>Node8</title>
<g id="a_node8"><a xlink:href="../../d9/d34/dialogmirrorbyaxis_8cpp.html" target="_top" xlink:title=" ">
<polygon fill="white" stroke="black" points="572,-6 572,-36 731,-36 731,-6 572,-6"/>
<text text-anchor="start" x="580" y="-24" font-family="Helvetica,sans-Serif" font-size="10.00">src/libs/vtools/dialogs</text>
<text text-anchor="middle" x="651.5" y="-13" font-family="Helvetica,sans-Serif" font-size="10.00">/tools/dialogmirrorbyaxis.cpp</text>
</a>
</g>
</g>
<!-- Node7&#45;&gt;Node8 -->
<g id="edge7" class="edge">
<title>Node7&#45;&gt;Node8</title>
<path fill="none" stroke="midnightblue" d="M864.32,-75.97C816.57,-63.86 752.47,-47.6 707.13,-36.11"/>
<polygon fill="midnightblue" stroke="midnightblue" points="863.69,-79.42 874.24,-78.49 865.41,-72.64 863.69,-79.42"/>
</g>
<!-- Node9 -->
<g id="node9" class="node">
<title>Node9</title>
<g id="a_node9"><a xlink:href="../../d5/d3b/vtoolmirrorbyaxis_8cpp.html" target="_top" xlink:title=" ">
<polygon fill="white" stroke="black" points="749.5,-0.5 749.5,-41.5 909.5,-41.5 909.5,-0.5 749.5,-0.5"/>
<text text-anchor="start" x="757.5" y="-29.5" font-family="Helvetica,sans-Serif" font-size="10.00">src/libs/vtools/tools</text>
<text text-anchor="start" x="757.5" y="-18.5" font-family="Helvetica,sans-Serif" font-size="10.00">/drawTools/operation</text>
<text text-anchor="middle" x="829.5" y="-7.5" font-family="Helvetica,sans-Serif" font-size="10.00">/mirror/vtoolmirrorbyaxis.cpp</text>
</a>
</g>
</g>
<!-- Node7&#45;&gt;Node9 -->
<g id="edge8" class="edge">
<title>Node7&#45;&gt;Node9</title>
<path fill="none" stroke="midnightblue" d="M900.72,-72.21C887.06,-62.58 870.81,-51.12 857.29,-41.59"/>
<polygon fill="midnightblue" stroke="midnightblue" points="899.07,-75.33 909.26,-78.23 903.11,-69.61 899.07,-75.33"/>
</g>
<!-- Node10 -->
<g id="node10" class="node">
<title>Node10</title>
<g id="a_node10"><a xlink:href="../../de/da4/vistoolmirrorbyaxis_8cpp.html" target="_top" xlink:title=" ">
<polygon fill="white" stroke="black" points="927.5,-6 927.5,-36 1133.5,-36 1133.5,-6 927.5,-6"/>
<text text-anchor="start" x="935.5" y="-24" font-family="Helvetica,sans-Serif" font-size="10.00">src/libs/vtools/visualization</text>
<text text-anchor="middle" x="1030.5" y="-13" font-family="Helvetica,sans-Serif" font-size="10.00">/line/operation/vistoolmirrorbyaxis.cpp</text>
</a>
</g>
</g>
<!-- Node7&#45;&gt;Node10 -->
<g id="edge9" class="edge">
<title>Node7&#45;&gt;Node10</title>
<path fill="none" stroke="midnightblue" d="M958.25,-72.43C974.93,-60.79 995.51,-46.42 1010.44,-36"/>
<polygon fill="midnightblue" stroke="midnightblue" points="956.14,-69.64 949.94,-78.23 960.14,-75.38 956.14,-69.64"/>
</g>
<!-- Node12 -->
<g id="node12" class="node">
<title>Node12</title>
<g id="a_node12"><a xlink:href="../../d2/d51/dialogmove_8cpp.html" target="_top" xlink:title=" ">
<polygon fill="white" stroke="black" points="1152,-6 1152,-36 1277,-36 1277,-6 1152,-6"/>
<text text-anchor="start" x="1160" y="-24" font-family="Helvetica,sans-Serif" font-size="10.00">src/libs/vtools/dialogs</text>
<text text-anchor="middle" x="1214.5" y="-13" font-family="Helvetica,sans-Serif" font-size="10.00">/tools/dialogmove.cpp</text>
</a>
</g>
</g>
<!-- Node11&#45;&gt;Node12 -->
<g id="edge11" class="edge">
<title>Node11&#45;&gt;Node12</title>
<path fill="none" stroke="midnightblue" d="M1317.51,-73.87C1293.98,-62.02 1263.99,-46.92 1242.45,-36.07"/>
<polygon fill="midnightblue" stroke="midnightblue" points="1316,-77.03 1326.51,-78.4 1319.15,-70.78 1316,-77.03"/>
</g>
<!-- Node13 -->
<g id="node13" class="node">
<title>Node13</title>
<g id="a_node13"><a xlink:href="../../d3/d2b/vtoolmove_8cpp.html" target="_top" xlink:title=" ">
<polygon fill="white" stroke="black" points="1295.5,-0.5 1295.5,-41.5 1413.5,-41.5 1413.5,-0.5 1295.5,-0.5"/>
<text text-anchor="start" x="1303.5" y="-29.5" font-family="Helvetica,sans-Serif" font-size="10.00">src/libs/vtools/tools</text>
<text text-anchor="start" x="1303.5" y="-18.5" font-family="Helvetica,sans-Serif" font-size="10.00">/drawTools/operation</text>
<text text-anchor="middle" x="1354.5" y="-7.5" font-family="Helvetica,sans-Serif" font-size="10.00">/vtoolmove.cpp</text>
</a>
</g>
</g>
<!-- Node11&#45;&gt;Node13 -->
<g id="edge12" class="edge">
<title>Node11&#45;&gt;Node13</title>
<path fill="none" stroke="midnightblue" d="M1354.5,-67.98C1354.5,-59.35 1354.5,-49.76 1354.5,-41.59"/>
<polygon fill="midnightblue" stroke="midnightblue" points="1351,-68.23 1354.5,-78.23 1358,-68.23 1351,-68.23"/>
</g>
<!-- Node11&#45;&gt;Node14 -->
<g id="edge13" class="edge">
<title>Node11&#45;&gt;Node14</title>
<path fill="none" stroke="midnightblue" d="M1396.48,-74.34C1424.04,-62.42 1459.55,-47.07 1484.96,-36.07"/>
<polygon fill="midnightblue" stroke="midnightblue" points="1394.88,-71.22 1387.09,-78.4 1397.66,-77.65 1394.88,-71.22"/>
</g>
<!-- Node16&#45;&gt;Node15 -->
<g id="edge19" class="edge">
<title>Node16&#45;&gt;Node15</title>
<path fill="none" stroke="midnightblue" d="M1764.13,-71.19C1752.25,-59.87 1737.98,-46.27 1727.45,-36.25"/>
<polygon fill="midnightblue" stroke="midnightblue" points="1761.87,-73.87 1771.52,-78.23 1766.7,-68.8 1761.87,-73.87"/>
</g>
<!-- Node17 -->
<g id="node17" class="node">
<title>Node17</title>
<g id="a_node17"><a xlink:href="../../dc/d64/dialogrotation_8cpp.html" target="_top" xlink:title=" ">
<polygon fill="white" stroke="black" points="1822,-6 1822,-36 1957,-36 1957,-6 1822,-6"/>
<text text-anchor="start" x="1830" y="-24" font-family="Helvetica,sans-Serif" font-size="10.00">src/libs/vtools/dialogs</text>
<text text-anchor="middle" x="1889.5" y="-13" font-family="Helvetica,sans-Serif" font-size="10.00">/tools/dialogrotation.cpp</text>
</a>
</g>
</g>
<!-- Node16&#45;&gt;Node17 -->
<g id="edge17" class="edge">
<title>Node16&#45;&gt;Node17</title>
<path fill="none" stroke="midnightblue" d="M1815.82,-72.43C1832.82,-60.79 1853.82,-46.42 1869.04,-36"/>
<polygon fill="midnightblue" stroke="midnightblue" points="1813.62,-69.7 1807.34,-78.23 1817.57,-75.47 1813.62,-69.7"/>
</g>
<!-- Node18 -->
<g id="node18" class="node">
<title>Node18</title>
<g id="a_node18"><a xlink:href="../../df/dd2/vtoolrotation_8cpp.html" target="_top" xlink:title=" ">
<polygon fill="white" stroke="black" points="1975.5,-0.5 1975.5,-41.5 2093.5,-41.5 2093.5,-0.5 1975.5,-0.5"/>
<text text-anchor="start" x="1983.5" y="-29.5" font-family="Helvetica,sans-Serif" font-size="10.00">src/libs/vtools/tools</text>
<text text-anchor="start" x="1983.5" y="-18.5" font-family="Helvetica,sans-Serif" font-size="10.00">/drawTools/operation</text>
<text text-anchor="middle" x="2034.5" y="-7.5" font-family="Helvetica,sans-Serif" font-size="10.00">/vtoolrotation.cpp</text>
</a>
</g>
</g>
<!-- Node16&#45;&gt;Node18 -->
<g id="edge18" class="edge">
<title>Node16&#45;&gt;Node18</title>
<path fill="none" stroke="midnightblue" d="M1847.4,-75.62C1882.3,-65.89 1926.89,-53.38 1966.5,-42 1969.34,-41.18 1972.24,-40.35 1975.17,-39.5"/>
<polygon fill="midnightblue" stroke="midnightblue" points="1846.06,-72.36 1837.37,-78.41 1847.94,-79.1 1846.06,-72.36"/>
</g>
</g>
</svg>
        <g id="navigator" transform="translate(0 0)" fill="#404254">
                <rect fill="#f2f5e9" fill-opacity="0.5" stroke="#606060" stroke-width=".5" x="0" y="0" width="60" height="60"/>
                <use id="zoomplus" xlink:href="#zoomPlus" x="17" y="9" onmousedown="handleZoom(evt,'in')"/>
                <use id="zoomminus" xlink:href="#zoomMin" x="42" y="9" onmousedown="handleZoom(evt,'out')"/>
                <use id="reset" xlink:href="#resetDef" x="30" y="36" onmousedown="handleReset()"/>
                <g id="arrowUp" xlink:href="#dirArrow" transform="translate(30 24)" onmousedown="handlePan(0,-1)">
                  <use xlink:href="#rim" fill="#404040">
                        <set attributeName="fill" to="#808080" begin="arrowUp.mouseover" end="arrowUp.mouseout"/>
                  </use>
                  <path fill="none" stroke="white" stroke-width="1.5" d="M0,-3.0v7 M-2.5,-0.5L0,-3.0L2.5,-0.5"/>
                </g>
                <g id="arrowRight" xlink:href="#dirArrow" transform="rotate(90) translate(36 -43)" onmousedown="handlePan(1,0)">
                  <use xlink:href="#rim" fill="#404040">
                        <set attributeName="fill" to="#808080" begin="arrowRight.mouseover" end="arrowRight.mouseout"/>
                  </use>
                  <path fill="none" stroke="white" stroke-width="1.5" d="M0,-3.0v7 M-2.5,-0.5L0,-3.0L2.5,-0.5"/>
                </g>
                <g id="arrowDown" xlink:href="#dirArrow" transform="rotate(180) translate(-30 -48)" onmousedown="handlePan(0,1)">
                  <use xlink:href="#rim" fill="#404040">
                        <set attributeName="fill" to="#808080" begin="arrowDown.mouseover" end="arrowDown.mouseout"/>
                  </use>
                  <path fill="none" stroke="white" stroke-width="1.5" d="M0,-3.0v7 M-2.5,-0.5L0,-3.0L2.5,-0.5"/>
                </g>
                <g id="arrowLeft" xlink:href="#dirArrow" transform="rotate(270) translate(-36 17)" onmousedown="handlePan(-1,0)">
                  <use xlink:href="#rim" fill="#404040">
                        <set attributeName="fill" to="#808080" begin="arrowLeft.mouseover" end="arrowLeft.mouseout"/>
                  </use>
                  <path fill="none" stroke="white" stroke-width="1.5" d="M0,-3.0v7 M-2.5,-0.5L0,-3.0L2.5,-0.5"/>
                </g>
        </g>
        <svg viewBox="0 0 15 15" width="100%" height="30px" preserveAspectRatio="xMaxYMin meet">
         <g id="arrow_out" transform="scale(0.3 0.3)">
          <a xlink:href="visoperation_8h__dep__incl_org.svg" target="_base">
           <rect id="button" ry="5" rx="5" y="6" x="6" height="38" width="38"
                fill="#f2f5e9" fill-opacity="0.5" stroke="#606060" stroke-width="1.0"/>
           <path id="arrow"
             d="M 11.500037,31.436501 C 11.940474,20.09759 22.043105,11.32322 32.158766,21.979434 L 37.068811,17.246167 C 37.068811,17.246167 37.088388,32 37.088388,32 L 22.160133,31.978069 C 22.160133,31.978069 26.997745,27.140456 26.997745,27.140456 C 18.528582,18.264221 13.291696,25.230495 11.500037,31.436501 z"
             style="fill:#404040;"/>
          </a>
         </g>
        </svg>
</svg>
