<?xml version="1.0" encoding="UTF-8" standalone="no"?>
<!DOCTYPE svg PUBLIC "-//W3C//DTD SVG 1.1//EN"
 "http://www.w3.org/Graphics/SVG/1.1/DTD/svg11.dtd">
<!-- Generated by graphviz version 2.43.0 (0)
 -->
<!-- Title: src/libs/xerces&#45;c/mingw/include/xercesc/dom/impl/DOMImplementationListImpl.hpp Pages: 1 -->
<svg width="534pt" height="117pt"
 viewBox="0.00 0.00 533.50 117.00" xmlns="http://www.w3.org/2000/svg" xmlns:xlink="http://www.w3.org/1999/xlink">
<g id="graph0" class="graph" transform="scale(1 1) rotate(0) translate(4 113)">
<title>src/libs/xerces&#45;c/mingw/include/xercesc/dom/impl/DOMImplementationListImpl.hpp</title>
<polygon fill="white" stroke="transparent" points="-4,4 -4,-113 529.5,-113 529.5,4 -4,4"/>
<!-- Node1 -->
<g id="node1" class="node">
<title>Node1</title>
<g id="a_node1"><a xlink:title=" ">
<polygon fill="#bfbfbf" stroke="black" points="156,-67.5 156,-108.5 338,-108.5 338,-67.5 156,-67.5"/>
<text text-anchor="start" x="164" y="-96.5" font-family="Helvetica,sans-Serif" font-size="10.00">src/libs/xerces&#45;c/mingw</text>
<text text-anchor="start" x="164" y="-85.5" font-family="Helvetica,sans-Serif" font-size="10.00">/include/xercesc/dom/impl</text>
<text text-anchor="middle" x="247" y="-74.5" font-family="Helvetica,sans-Serif" font-size="10.00">/DOMImplementationListImpl.hpp</text>
</a>
</g>
</g>
<!-- Node2 -->
<g id="node2" class="node">
<title>Node2</title>
<g id="a_node2"><a xlink:title=" ">
<polygon fill="white" stroke="#bfbfbf" points="0,-6 0,-25 152,-25 152,-6 0,-6"/>
<text text-anchor="middle" x="76" y="-13" font-family="Helvetica,sans-Serif" font-size="10.00">xercesc/util/XercesDefs.hpp</text>
</a>
</g>
</g>
<!-- Node1&#45;&gt;Node2 -->
<g id="edge1" class="edge">
<title>Node1&#45;&gt;Node2</title>
<path fill="none" stroke="midnightblue" d="M199.37,-67.36C169.57,-55.08 132.09,-39.63 106.31,-28.99"/>
<polygon fill="midnightblue" stroke="midnightblue" points="107.62,-25.75 97.04,-25.17 104.95,-32.22 107.62,-25.75"/>
</g>
<!-- Node3 -->
<g id="node3" class="node">
<title>Node3</title>
<g id="a_node3"><a xlink:title=" ">
<polygon fill="white" stroke="#bfbfbf" points="170,-6 170,-25 324,-25 324,-6 170,-6"/>
<text text-anchor="middle" x="247" y="-13" font-family="Helvetica,sans-Serif" font-size="10.00">xercesc/util/RefVectorOf.hpp</text>
</a>
</g>
</g>
<!-- Node1&#45;&gt;Node3 -->
<g id="edge2" class="edge">
<title>Node1&#45;&gt;Node3</title>
<path fill="none" stroke="midnightblue" d="M247,-67.36C247,-57.3 247,-45.1 247,-35.18"/>
<polygon fill="midnightblue" stroke="midnightblue" points="250.5,-35.17 247,-25.17 243.5,-35.17 250.5,-35.17"/>
</g>
<!-- Node4 -->
<g id="node4" class="node">
<title>Node4</title>
<g id="a_node4"><a xlink:title=" ">
<polygon fill="white" stroke="#bfbfbf" points="342.5,-0.5 342.5,-30.5 525.5,-30.5 525.5,-0.5 342.5,-0.5"/>
<text text-anchor="start" x="350.5" y="-18.5" font-family="Helvetica,sans-Serif" font-size="10.00">xercesc/dom/DOMImplementation</text>
<text text-anchor="middle" x="434" y="-7.5" font-family="Helvetica,sans-Serif" font-size="10.00">List.hpp</text>
</a>
</g>
</g>
<!-- Node1&#45;&gt;Node4 -->
<g id="edge3" class="edge">
<title>Node1&#45;&gt;Node4</title>
<path fill="none" stroke="midnightblue" d="M299.09,-67.36C326.71,-56.95 360.38,-44.25 387.17,-34.15"/>
<polygon fill="midnightblue" stroke="midnightblue" points="388.58,-37.36 396.71,-30.56 386.12,-30.81 388.58,-37.36"/>
</g>
</g>
</svg>
