<?xml version="1.0" encoding="UTF-8" standalone="no"?>
<!DOCTYPE svg PUBLIC "-//W3C//DTD SVG 1.1//EN"
 "http://www.w3.org/Graphics/SVG/1.1/DTD/svg11.dtd">
<!-- Generated by graphviz version 2.43.0 (0)
 -->
<!-- Title: src/app/seamlyme/tmainwindow.cpp Pages: 1 -->
<svg width="4009pt" height="218pt"
 viewBox="0.00 0.00 4009.00 218.00" xmlns="http://www.w3.org/2000/svg" xmlns:xlink="http://www.w3.org/1999/xlink">
<g id="graph0" class="graph" transform="scale(1 1) rotate(0) translate(4 214)">
<title>src/app/seamlyme/tmainwindow.cpp</title>
<polygon fill="white" stroke="transparent" points="-4,4 -4,-214 4005,-214 4005,4 -4,4"/>
<!-- Node1 -->
<g id="node1" class="node">
<title>Node1</title>
<g id="a_node1"><a xlink:title=" ">
<polygon fill="#bfbfbf" stroke="black" points="2257,-190.5 2257,-209.5 2452,-209.5 2452,-190.5 2257,-190.5"/>
<text text-anchor="middle" x="2354.5" y="-197.5" font-family="Helvetica,sans-Serif" font-size="10.00">src/app/seamlyme/tmainwindow.cpp</text>
</a>
</g>
</g>
<!-- Node2 -->
<g id="node2" class="node">
<title>Node2</title>
<g id="a_node2"><a xlink:href="../../dc/dc0/tmainwindow_8h.html" target="_top" xlink:title=" ">
<polygon fill="white" stroke="black" points="552,-129 552,-148 643,-148 643,-129 552,-129"/>
<text text-anchor="middle" x="597.5" y="-136" font-family="Helvetica,sans-Serif" font-size="10.00">tmainwindow.h</text>
</a>
</g>
</g>
<!-- Node1&#45;&gt;Node2 -->
<g id="edge1" class="edge">
<title>Node1&#45;&gt;Node2</title>
<path fill="none" stroke="midnightblue" d="M2256.83,-199.07C2004.05,-198.66 1307.76,-193.7 729.5,-154 704.46,-152.28 676.84,-149.4 653.36,-146.66"/>
<polygon fill="midnightblue" stroke="midnightblue" points="653.58,-143.16 643.23,-145.45 652.75,-150.11 653.58,-143.16"/>
</g>
<!-- Node5 -->
<g id="node5" class="node">
<title>Node5</title>
<g id="a_node5"><a xlink:title=" ">
<polygon fill="white" stroke="#bfbfbf" points="0,-62 0,-81 121,-81 121,-62 0,-62"/>
<text text-anchor="middle" x="60.5" y="-69" font-family="Helvetica,sans-Serif" font-size="10.00">../vmisc/vlockguard.h</text>
</a>
</g>
</g>
<!-- Node1&#45;&gt;Node5 -->
<g id="edge29" class="edge">
<title>Node1&#45;&gt;Node5</title>
<path fill="none" stroke="midnightblue" d="M2256.73,-198.33C1930.29,-195.8 879.62,-185.38 542.5,-154 382.37,-139.09 195.2,-101.6 108.76,-83.12"/>
<polygon fill="midnightblue" stroke="midnightblue" points="109.49,-79.7 98.98,-81.02 108.02,-86.54 109.49,-79.7"/>
</g>
<!-- Node9 -->
<g id="node9" class="node">
<title>Node9</title>
<g id="a_node9"><a xlink:href="../../d3/d41/me__shortcuts__dialog_8h.html" target="_top" xlink:title=" ">
<polygon fill="white" stroke="black" points="771,-56.5 771,-86.5 892,-86.5 892,-56.5 771,-56.5"/>
<text text-anchor="start" x="779" y="-74.5" font-family="Helvetica,sans-Serif" font-size="10.00">dialogs/me_shortcuts</text>
<text text-anchor="middle" x="831.5" y="-63.5" font-family="Helvetica,sans-Serif" font-size="10.00">_dialog.h</text>
</a>
</g>
</g>
<!-- Node1&#45;&gt;Node9 -->
<g id="edge22" class="edge">
<title>Node1&#45;&gt;Node9</title>
<path fill="none" stroke="midnightblue" d="M2256.73,-198.06C1914.35,-194.53 788.64,-180.89 762.5,-154 742.88,-133.82 770.81,-108.9 796.78,-91.97"/>
<polygon fill="midnightblue" stroke="midnightblue" points="798.82,-94.83 805.44,-86.56 795.11,-88.89 798.82,-94.83"/>
</g>
<!-- Node11 -->
<g id="node11" class="node">
<title>Node11</title>
<g id="a_node11"><a xlink:title=" ">
<polygon fill="white" stroke="#bfbfbf" points="772,-129 772,-148 877,-148 877,-129 772,-129"/>
<text text-anchor="middle" x="824.5" y="-136" font-family="Helvetica,sans-Serif" font-size="10.00">ui_tmainwindow.h</text>
</a>
</g>
</g>
<!-- Node1&#45;&gt;Node11 -->
<g id="edge10" class="edge">
<title>Node1&#45;&gt;Node11</title>
<path fill="none" stroke="midnightblue" d="M2256.83,-198.54C1973.15,-196.81 1152.52,-188.83 886.5,-154 879.65,-153.1 872.45,-151.78 865.48,-150.29"/>
<polygon fill="midnightblue" stroke="midnightblue" points="866.03,-146.83 855.5,-148.03 864.48,-153.65 866.03,-146.83"/>
</g>
<!-- Node12 -->
<g id="node12" class="node">
<title>Node12</title>
<g id="a_node12"><a xlink:href="../../d4/dcc/dialogaboutseamlyme_8h.html" target="_top" xlink:title=" ">
<polygon fill="white" stroke="black" points="1049,-62 1049,-81 1222,-81 1222,-62 1049,-62"/>
<text text-anchor="middle" x="1135.5" y="-69" font-family="Helvetica,sans-Serif" font-size="10.00">dialogs/dialogaboutseamlyme.h</text>
</a>
</g>
</g>
<!-- Node1&#45;&gt;Node12 -->
<g id="edge11" class="edge">
<title>Node1&#45;&gt;Node12</title>
<path fill="none" stroke="midnightblue" d="M2256.57,-197.81C1983.09,-194.13 1228.13,-181.54 1182.5,-154 1159.48,-140.11 1146.63,-110.38 1140.39,-90.93"/>
<polygon fill="midnightblue" stroke="midnightblue" points="1143.68,-89.72 1137.52,-81.11 1136.97,-91.69 1143.68,-89.72"/>
</g>
<!-- Node13 -->
<g id="node13" class="node">
<title>Node13</title>
<g id="a_node13"><a xlink:href="../../db/deb/dialognewmeasurements_8h.html" target="_top" xlink:title=" ">
<polygon fill="white" stroke="black" points="895.5,-129 895.5,-148 1083.5,-148 1083.5,-129 895.5,-129"/>
<text text-anchor="middle" x="989.5" y="-136" font-family="Helvetica,sans-Serif" font-size="10.00">dialogs/dialognewmeasurements.h</text>
</a>
</g>
</g>
<!-- Node1&#45;&gt;Node13 -->
<g id="edge13" class="edge">
<title>Node1&#45;&gt;Node13</title>
<path fill="none" stroke="midnightblue" d="M2256.91,-198.75C2045.31,-197.49 1528.6,-190.57 1097.5,-154 1083.77,-152.84 1069.12,-151.16 1055.17,-149.36"/>
<polygon fill="midnightblue" stroke="midnightblue" points="1055.54,-145.88 1045.16,-148.03 1054.61,-152.82 1055.54,-145.88"/>
</g>
<!-- Node14 -->
<g id="node14" class="node">
<title>Node14</title>
<g id="a_node14"><a xlink:href="../../d0/d0b/dialogmdatabase_8h.html" target="_top" xlink:title=" ">
<polygon fill="white" stroke="black" points="1630,-62 1630,-81 1779,-81 1779,-62 1630,-62"/>
<text text-anchor="middle" x="1704.5" y="-69" font-family="Helvetica,sans-Serif" font-size="10.00">dialogs/dialogmdatabase.h</text>
</a>
</g>
</g>
<!-- Node1&#45;&gt;Node14 -->
<g id="edge16" class="edge">
<title>Node1&#45;&gt;Node14</title>
<path fill="none" stroke="midnightblue" d="M2256.68,-198.67C1992.01,-197.29 1279.27,-190.21 1244.5,-154 1234.96,-144.06 1235.23,-133.2 1244.5,-123 1272.73,-91.94 1578.9,-92.57 1620.5,-87 1629.66,-85.77 1639.34,-84.28 1648.75,-82.73"/>
<polygon fill="midnightblue" stroke="midnightblue" points="1649.54,-86.15 1658.82,-81.03 1648.38,-79.24 1649.54,-86.15"/>
</g>
<!-- Node15 -->
<g id="node15" class="node">
<title>Node15</title>
<g id="a_node15"><a xlink:href="../../d0/d74/dialogseamlymepreferences_8h.html" target="_top" xlink:title=" ">
<polygon fill="white" stroke="black" points="1240,-62 1240,-81 1443,-81 1443,-62 1240,-62"/>
<text text-anchor="middle" x="1341.5" y="-69" font-family="Helvetica,sans-Serif" font-size="10.00">dialogs/dialogseamlymepreferences.h</text>
</a>
</g>
</g>
<!-- Node1&#45;&gt;Node15 -->
<g id="edge18" class="edge">
<title>Node1&#45;&gt;Node15</title>
<path fill="none" stroke="midnightblue" d="M2256.72,-198.85C1983.76,-197.95 1231.07,-192.01 1194.5,-154 1161.46,-119.65 1230.42,-95.96 1284.67,-83.3"/>
<polygon fill="midnightblue" stroke="midnightblue" points="1285.62,-86.68 1294.6,-81.07 1284.08,-79.85 1285.62,-86.68"/>
</g>
<!-- Node16 -->
<g id="node16" class="node">
<title>Node16</title>
<g id="a_node16"><a xlink:href="../../dd/da4/dialogexporttocsv_8h.html" target="_top" xlink:title=" ">
<polygon fill="white" stroke="black" points="1461,-62 1461,-81 1612,-81 1612,-62 1461,-62"/>
<text text-anchor="middle" x="1536.5" y="-69" font-family="Helvetica,sans-Serif" font-size="10.00">dialogs/dialogexporttocsv.h</text>
</a>
</g>
</g>
<!-- Node1&#45;&gt;Node16 -->
<g id="edge20" class="edge">
<title>Node1&#45;&gt;Node16</title>
<path fill="none" stroke="midnightblue" d="M2256.67,-198.71C1990.15,-197.43 1268.67,-190.61 1233.5,-154 1117.97,-33.74 932.34,-174.15 1451.5,-87 1459.58,-85.64 1468.09,-84.2 1476.48,-82.78"/>
<polygon fill="midnightblue" stroke="midnightblue" points="1477.35,-86.18 1486.62,-81.05 1476.17,-79.28 1477.35,-86.18"/>
</g>
<!-- Node17 -->
<g id="node17" class="node">
<title>Node17</title>
<g id="a_node17"><a xlink:title=" ">
<polygon fill="white" stroke="#bfbfbf" points="1253.5,-129 1253.5,-148 1391.5,-148 1391.5,-129 1253.5,-129"/>
<text text-anchor="middle" x="1322.5" y="-136" font-family="Helvetica,sans-Serif" font-size="10.00">../vpatterndb/calculator.h</text>
</a>
</g>
</g>
<!-- Node1&#45;&gt;Node17 -->
<g id="edge23" class="edge">
<title>Node1&#45;&gt;Node17</title>
<path fill="none" stroke="midnightblue" d="M2256.98,-198.79C2083.92,-197.44 1712,-190.13 1400.5,-154 1391.36,-152.94 1381.67,-151.44 1372.35,-149.81"/>
<polygon fill="midnightblue" stroke="midnightblue" points="1372.89,-146.35 1362.42,-148.01 1371.63,-153.24 1372.89,-146.35"/>
</g>
<!-- Node18 -->
<g id="node18" class="node">
<title>Node18</title>
<g id="a_node18"><a xlink:title=" ">
<polygon fill="white" stroke="#bfbfbf" points="1409.5,-129 1409.5,-148 1557.5,-148 1557.5,-129 1409.5,-129"/>
<text text-anchor="middle" x="1483.5" y="-136" font-family="Helvetica,sans-Serif" font-size="10.00">../vpatterndb/pmsystems.h</text>
</a>
</g>
</g>
<!-- Node1&#45;&gt;Node18 -->
<g id="edge24" class="edge">
<title>Node1&#45;&gt;Node18</title>
<path fill="none" stroke="midnightblue" d="M2256.83,-197.06C2107.6,-193.27 1814.07,-182.6 1566.5,-154 1556.9,-152.89 1546.73,-151.39 1536.92,-149.77"/>
<polygon fill="midnightblue" stroke="midnightblue" points="1537.32,-146.29 1526.87,-148.05 1536.14,-153.19 1537.32,-146.29"/>
</g>
<!-- Node19 -->
<g id="node19" class="node">
<title>Node19</title>
<g id="a_node19"><a xlink:title=" ">
<polygon fill="white" stroke="#bfbfbf" points="1576,-129 1576,-148 1653,-148 1653,-129 1576,-129"/>
<text text-anchor="middle" x="1614.5" y="-136" font-family="Helvetica,sans-Serif" font-size="10.00">../ifc/ifcdef.h</text>
</a>
</g>
</g>
<!-- Node1&#45;&gt;Node19 -->
<g id="edge25" class="edge">
<title>Node1&#45;&gt;Node19</title>
<path fill="none" stroke="midnightblue" d="M2256.81,-199.63C2122.01,-198.93 1871.89,-191.92 1662.5,-154 1658.04,-153.19 1653.41,-152.11 1648.87,-150.91"/>
<polygon fill="midnightblue" stroke="midnightblue" points="1649.73,-147.51 1639.15,-148.12 1647.8,-154.24 1649.73,-147.51"/>
</g>
<!-- Node20 -->
<g id="node20" class="node">
<title>Node20</title>
<g id="a_node20"><a xlink:title=" ">
<polygon fill="white" stroke="#bfbfbf" points="1671.5,-129 1671.5,-148 1807.5,-148 1807.5,-129 1671.5,-129"/>
<text text-anchor="middle" x="1739.5" y="-136" font-family="Helvetica,sans-Serif" font-size="10.00">../ifc/xml/vvitconverter.h</text>
</a>
</g>
</g>
<!-- Node1&#45;&gt;Node20 -->
<g id="edge26" class="edge">
<title>Node1&#45;&gt;Node20</title>
<path fill="none" stroke="midnightblue" d="M2256.98,-193.86C2148.95,-187.47 1969.75,-174.78 1816.5,-154 1808.07,-152.86 1799.17,-151.41 1790.52,-149.87"/>
<polygon fill="midnightblue" stroke="midnightblue" points="1791,-146.4 1780.53,-148.03 1789.74,-153.28 1791,-146.4"/>
</g>
<!-- Node21 -->
<g id="node21" class="node">
<title>Node21</title>
<g id="a_node21"><a xlink:title=" ">
<polygon fill="white" stroke="#bfbfbf" points="1825.5,-129 1825.5,-148 1963.5,-148 1963.5,-129 1825.5,-129"/>
<text text-anchor="middle" x="1894.5" y="-136" font-family="Helvetica,sans-Serif" font-size="10.00">../ifc/xml/vvstconverter.h</text>
</a>
</g>
</g>
<!-- Node1&#45;&gt;Node21 -->
<g id="edge27" class="edge">
<title>Node1&#45;&gt;Node21</title>
<path fill="none" stroke="midnightblue" d="M2268.18,-190.49C2190.61,-182.45 2073.68,-169.35 1972.5,-154 1964.46,-152.78 1955.99,-151.35 1947.7,-149.88"/>
<polygon fill="midnightblue" stroke="midnightblue" points="1948.2,-146.41 1937.73,-148.07 1946.95,-153.3 1948.2,-146.41"/>
</g>
<!-- Node22 -->
<g id="node22" class="node">
<title>Node22</title>
<g id="a_node22"><a xlink:title=" ">
<polygon fill="white" stroke="#bfbfbf" points="1981.5,-129 1981.5,-148 2139.5,-148 2139.5,-129 1981.5,-129"/>
<text text-anchor="middle" x="2060.5" y="-136" font-family="Helvetica,sans-Serif" font-size="10.00">../ifc/xml/vpatternconverter.h</text>
</a>
</g>
</g>
<!-- Node1&#45;&gt;Node22 -->
<g id="edge28" class="edge">
<title>Node1&#45;&gt;Node22</title>
<path fill="none" stroke="midnightblue" d="M2312.38,-190.48C2259.65,-179.8 2169.37,-161.53 2112.43,-150.01"/>
<polygon fill="midnightblue" stroke="midnightblue" points="2113.04,-146.56 2102.54,-148.01 2111.65,-153.42 2113.04,-146.56"/>
</g>
<!-- Node23 -->
<g id="node23" class="node">
<title>Node23</title>
<g id="a_node23"><a xlink:title=" ">
<polygon fill="white" stroke="#bfbfbf" points="2158,-129 2158,-148 2271,-148 2271,-129 2158,-129"/>
<text text-anchor="middle" x="2214.5" y="-136" font-family="Helvetica,sans-Serif" font-size="10.00">../vmisc/vsysexits.h</text>
</a>
</g>
</g>
<!-- Node1&#45;&gt;Node23 -->
<g id="edge30" class="edge">
<title>Node1&#45;&gt;Node23</title>
<path fill="none" stroke="midnightblue" d="M2334.44,-190.48C2310.74,-180.4 2271.09,-163.55 2243.92,-152"/>
<polygon fill="midnightblue" stroke="midnightblue" points="2245.09,-148.7 2234.52,-148.01 2242.36,-155.14 2245.09,-148.7"/>
</g>
<!-- Node24 -->
<g id="node24" class="node">
<title>Node24</title>
<g id="a_node24"><a xlink:title=" ">
<polygon fill="white" stroke="#bfbfbf" points="2289.5,-129 2289.5,-148 2419.5,-148 2419.5,-129 2289.5,-129"/>
<text text-anchor="middle" x="2354.5" y="-136" font-family="Helvetica,sans-Serif" font-size="10.00">../vmisc/qxtcsvmodel.h</text>
</a>
</g>
</g>
<!-- Node1&#45;&gt;Node24 -->
<g id="edge31" class="edge">
<title>Node1&#45;&gt;Node24</title>
<path fill="none" stroke="midnightblue" d="M2354.5,-190.48C2354.5,-182.08 2354.5,-168.98 2354.5,-158.16"/>
<polygon fill="midnightblue" stroke="midnightblue" points="2358,-158.01 2354.5,-148.01 2351,-158.01 2358,-158.01"/>
</g>
<!-- Node25 -->
<g id="node25" class="node">
<title>Node25</title>
<g id="a_node25"><a xlink:href="../../d6/da4/vlitepattern_8h.html" target="_top" xlink:title=" ">
<polygon fill="white" stroke="black" points="2438,-129 2438,-148 2521,-148 2521,-129 2438,-129"/>
<text text-anchor="middle" x="2479.5" y="-136" font-family="Helvetica,sans-Serif" font-size="10.00">vlitepattern.h</text>
</a>
</g>
</g>
<!-- Node1&#45;&gt;Node25 -->
<g id="edge32" class="edge">
<title>Node1&#45;&gt;Node25</title>
<path fill="none" stroke="midnightblue" d="M2372.41,-190.48C2393.39,-180.49 2428.35,-163.85 2452.59,-152.31"/>
<polygon fill="midnightblue" stroke="midnightblue" points="2454.1,-155.47 2461.62,-148.01 2451.09,-149.15 2454.1,-155.47"/>
</g>
<!-- Node27 -->
<g id="node27" class="node">
<title>Node27</title>
<g id="a_node27"><a xlink:title=" ">
<polygon fill="white" stroke="#bfbfbf" points="2539,-129 2539,-148 2666,-148 2666,-129 2539,-129"/>
<text text-anchor="middle" x="2602.5" y="-136" font-family="Helvetica,sans-Serif" font-size="10.00">../qmuparser/qmudef.h</text>
</a>
</g>
</g>
<!-- Node1&#45;&gt;Node27 -->
<g id="edge34" class="edge">
<title>Node1&#45;&gt;Node27</title>
<path fill="none" stroke="midnightblue" d="M2390.03,-190.48C2434.05,-179.92 2509.09,-161.91 2557.2,-150.37"/>
<polygon fill="midnightblue" stroke="midnightblue" points="2558.13,-153.75 2567.03,-148.01 2556.49,-146.94 2558.13,-153.75"/>
</g>
<!-- Node28 -->
<g id="node28" class="node">
<title>Node28</title>
<g id="a_node28"><a xlink:title=" ">
<polygon fill="white" stroke="#bfbfbf" points="2684.5,-123.5 2684.5,-153.5 2818.5,-153.5 2818.5,-123.5 2684.5,-123.5"/>
<text text-anchor="start" x="2692.5" y="-141.5" font-family="Helvetica,sans-Serif" font-size="10.00">../vtools/dialogs/support</text>
<text text-anchor="middle" x="2751.5" y="-130.5" font-family="Helvetica,sans-Serif" font-size="10.00">/edit_formula_dialog.h</text>
</a>
</g>
</g>
<!-- Node1&#45;&gt;Node28 -->
<g id="edge35" class="edge">
<title>Node1&#45;&gt;Node28</title>
<path fill="none" stroke="midnightblue" d="M2422.28,-190.48C2485.06,-182.37 2581.28,-169.37 2674.25,-154.16"/>
<polygon fill="midnightblue" stroke="midnightblue" points="2675.1,-157.57 2684.4,-152.49 2673.96,-150.66 2675.1,-157.57"/>
</g>
<!-- Node29 -->
<g id="node29" class="node">
<title>Node29</title>
<g id="a_node29"><a xlink:href="../../d0/d0c/seamlyme_2version_8h.html" target="_top" xlink:title=" ">
<polygon fill="white" stroke="black" points="2836.5,-129 2836.5,-148 2898.5,-148 2898.5,-129 2836.5,-129"/>
<text text-anchor="middle" x="2867.5" y="-136" font-family="Helvetica,sans-Serif" font-size="10.00">version.h</text>
</a>
</g>
</g>
<!-- Node1&#45;&gt;Node29 -->
<g id="edge36" class="edge">
<title>Node1&#45;&gt;Node29</title>
<path fill="none" stroke="midnightblue" d="M2452.11,-196.9C2548.54,-193.14 2699.74,-182.74 2827.5,-154 2830.74,-153.27 2834.08,-152.35 2837.38,-151.33"/>
<polygon fill="midnightblue" stroke="midnightblue" points="2838.7,-154.58 2847.04,-148.04 2836.44,-147.95 2838.7,-154.58"/>
</g>
<!-- Node31 -->
<g id="node31" class="node">
<title>Node31</title>
<g id="a_node31"><a xlink:href="../../df/da4/mapplication_8h.html" target="_top" xlink:title=" ">
<polygon fill="white" stroke="black" points="2917,-129 2917,-148 3006,-148 3006,-129 2917,-129"/>
<text text-anchor="middle" x="2961.5" y="-136" font-family="Helvetica,sans-Serif" font-size="10.00">mapplication.h</text>
</a>
</g>
</g>
<!-- Node1&#45;&gt;Node31 -->
<g id="edge38" class="edge">
<title>Node1&#45;&gt;Node31</title>
<path fill="none" stroke="midnightblue" d="M2452.07,-196.4C2563.09,-192.2 2749.48,-181.41 2907.5,-154 2912.88,-153.07 2918.5,-151.84 2924,-150.5"/>
<polygon fill="midnightblue" stroke="midnightblue" points="2924.88,-153.89 2933.69,-148 2923.13,-147.11 2924.88,-153.89"/>
</g>
<!-- Node35 -->
<g id="node35" class="node">
<title>Node35</title>
<g id="a_node35"><a xlink:title=" ">
<polygon fill="white" stroke="#bfbfbf" points="3024,-129 3024,-148 3095,-148 3095,-129 3024,-129"/>
<text text-anchor="middle" x="3059.5" y="-136" font-family="Helvetica,sans-Serif" font-size="10.00">QClipboard</text>
</a>
</g>
</g>
<!-- Node1&#45;&gt;Node35 -->
<g id="edge44" class="edge">
<title>Node1&#45;&gt;Node35</title>
<path fill="none" stroke="midnightblue" d="M2452.1,-199.94C2581.94,-199.47 2818.09,-192.61 3015.5,-154 3019.39,-153.24 3023.4,-152.24 3027.36,-151.11"/>
<polygon fill="midnightblue" stroke="midnightblue" points="3028.44,-154.44 3036.95,-148.13 3026.36,-147.75 3028.44,-154.44"/>
</g>
<!-- Node36 -->
<g id="node36" class="node">
<title>Node36</title>
<g id="a_node36"><a xlink:title=" ">
<polygon fill="white" stroke="#bfbfbf" points="3113,-129 3113,-148 3190,-148 3190,-129 3113,-129"/>
<text text-anchor="middle" x="3151.5" y="-136" font-family="Helvetica,sans-Serif" font-size="10.00">QComboBox</text>
</a>
</g>
</g>
<!-- Node1&#45;&gt;Node36 -->
<g id="edge45" class="edge">
<title>Node1&#45;&gt;Node36</title>
<path fill="none" stroke="midnightblue" d="M2452.32,-196.04C2626.17,-190.29 2982.17,-176.21 3104.5,-154 3108.97,-153.19 3113.61,-152.09 3118.16,-150.85"/>
<polygon fill="midnightblue" stroke="midnightblue" points="3119.26,-154.18 3127.86,-148 3117.28,-147.46 3119.26,-154.18"/>
</g>
<!-- Node37 -->
<g id="node37" class="node">
<title>Node37</title>
<g id="a_node37"><a xlink:title=" ">
<polygon fill="white" stroke="#bfbfbf" points="3208,-129 3208,-148 3281,-148 3281,-129 3208,-129"/>
<text text-anchor="middle" x="3244.5" y="-136" font-family="Helvetica,sans-Serif" font-size="10.00">QFileDialog</text>
</a>
</g>
</g>
<!-- Node1&#45;&gt;Node37 -->
<g id="edge46" class="edge">
<title>Node1&#45;&gt;Node37</title>
<path fill="none" stroke="midnightblue" d="M2452.31,-196.96C2643.16,-192.46 3058.82,-179.96 3199.5,-154 3203.68,-153.23 3208,-152.18 3212.25,-150.99"/>
<polygon fill="midnightblue" stroke="midnightblue" points="3213.36,-154.31 3221.9,-148.04 3211.31,-147.62 3213.36,-154.31"/>
</g>
<!-- Node38 -->
<g id="node38" class="node">
<title>Node38</title>
<g id="a_node38"><a xlink:title=" ">
<polygon fill="white" stroke="#bfbfbf" points="3299.5,-129 3299.5,-148 3359.5,-148 3359.5,-129 3299.5,-129"/>
<text text-anchor="middle" x="3329.5" y="-136" font-family="Helvetica,sans-Serif" font-size="10.00">QFileInfo</text>
</a>
</g>
</g>
<!-- Node1&#45;&gt;Node38 -->
<g id="edge47" class="edge">
<title>Node1&#45;&gt;Node38</title>
<path fill="none" stroke="midnightblue" d="M2452.18,-198.1C2658.48,-195.57 3132.61,-186.33 3290.5,-154 3293.76,-153.33 3297.1,-152.44 3300.4,-151.42"/>
<polygon fill="midnightblue" stroke="midnightblue" points="3301.7,-154.67 3310.01,-148.09 3299.41,-148.06 3301.7,-154.67"/>
</g>
<!-- Node39 -->
<g id="node39" class="node">
<title>Node39</title>
<g id="a_node39"><a xlink:title=" ">
<polygon fill="white" stroke="#bfbfbf" points="3377.5,-129 3377.5,-148 3427.5,-148 3427.5,-129 3377.5,-129"/>
<text text-anchor="middle" x="3402.5" y="-136" font-family="Helvetica,sans-Serif" font-size="10.00">QLabel</text>
</a>
</g>
</g>
<!-- Node1&#45;&gt;Node39 -->
<g id="edge48" class="edge">
<title>Node1&#45;&gt;Node39</title>
<path fill="none" stroke="midnightblue" d="M2452.11,-199.1C2671.16,-198.6 3196.14,-193.22 3368.5,-154 3371.02,-153.43 3373.59,-152.68 3376.12,-151.82"/>
<polygon fill="midnightblue" stroke="midnightblue" points="3377.56,-155.01 3385.6,-148.12 3375.02,-148.49 3377.56,-155.01"/>
</g>
<!-- Node40 -->
<g id="node40" class="node">
<title>Node40</title>
<g id="a_node40"><a xlink:title=" ">
<polygon fill="white" stroke="#bfbfbf" points="3445.5,-129 3445.5,-148 3531.5,-148 3531.5,-129 3445.5,-129"/>
<text text-anchor="middle" x="3488.5" y="-136" font-family="Helvetica,sans-Serif" font-size="10.00">QMessageBox</text>
</a>
</g>
</g>
<!-- Node1&#45;&gt;Node40 -->
<g id="edge49" class="edge">
<title>Node1&#45;&gt;Node40</title>
<path fill="none" stroke="midnightblue" d="M2452.3,-197.81C2681.6,-194.56 3248.59,-183.7 3436.5,-154 3441.69,-153.18 3447.1,-152.02 3452.39,-150.72"/>
<polygon fill="midnightblue" stroke="midnightblue" points="3453.55,-154.03 3462.31,-148.07 3451.74,-147.27 3453.55,-154.03"/>
</g>
<!-- Node41 -->
<g id="node41" class="node">
<title>Node41</title>
<g id="a_node41"><a xlink:title=" ">
<polygon fill="white" stroke="#bfbfbf" points="3549.5,-129 3549.5,-148 3605.5,-148 3605.5,-129 3549.5,-129"/>
<text text-anchor="middle" x="3577.5" y="-136" font-family="Helvetica,sans-Serif" font-size="10.00">QPrinter</text>
</a>
</g>
</g>
<!-- Node1&#45;&gt;Node41 -->
<g id="edge50" class="edge">
<title>Node1&#45;&gt;Node41</title>
<path fill="none" stroke="midnightblue" d="M2452.34,-199.49C2697.6,-200.05 3333.75,-197.14 3540.5,-154 3543.51,-153.37 3546.59,-152.52 3549.63,-151.55"/>
<polygon fill="midnightblue" stroke="midnightblue" points="3550.84,-154.83 3559.05,-148.13 3548.46,-148.25 3550.84,-154.83"/>
</g>
<!-- Node42 -->
<g id="node42" class="node">
<title>Node42</title>
<g id="a_node42"><a xlink:title=" ">
<polygon fill="white" stroke="#bfbfbf" points="3624,-129 3624,-148 3741,-148 3741,-129 3624,-129"/>
<text text-anchor="middle" x="3682.5" y="-136" font-family="Helvetica,sans-Serif" font-size="10.00">QPrintPreviewDialog</text>
</a>
</g>
</g>
<!-- Node1&#45;&gt;Node42 -->
<g id="edge51" class="edge">
<title>Node1&#45;&gt;Node42</title>
<path fill="none" stroke="midnightblue" d="M2452.45,-197.71C2707.92,-193.99 3390.2,-181.7 3614.5,-154 3622.16,-153.05 3630.24,-151.67 3638.05,-150.14"/>
<polygon fill="midnightblue" stroke="midnightblue" points="3639.02,-153.51 3648.1,-148.05 3637.6,-146.66 3639.02,-153.51"/>
</g>
<!-- Node43 -->
<g id="node43" class="node">
<title>Node43</title>
<g id="a_node43"><a xlink:title=" ">
<polygon fill="white" stroke="#bfbfbf" points="3759.5,-129 3759.5,-148 3821.5,-148 3821.5,-129 3759.5,-129"/>
<text text-anchor="middle" x="3790.5" y="-136" font-family="Helvetica,sans-Serif" font-size="10.00">QProcess</text>
</a>
</g>
</g>
<!-- Node1&#45;&gt;Node43 -->
<g id="edge52" class="edge">
<title>Node1&#45;&gt;Node43</title>
<path fill="none" stroke="midnightblue" d="M2452.07,-197.63C2748.21,-193.23 3624.18,-178.29 3750.5,-154 3753.94,-153.34 3757.48,-152.42 3760.96,-151.37"/>
<polygon fill="midnightblue" stroke="midnightblue" points="3762.15,-154.67 3770.5,-148.15 3759.91,-148.04 3762.15,-154.67"/>
</g>
<!-- Node44 -->
<g id="node44" class="node">
<title>Node44</title>
<g id="a_node44"><a xlink:title=" ">
<polygon fill="white" stroke="#bfbfbf" points="3839.5,-129 3839.5,-148 3913.5,-148 3913.5,-129 3839.5,-129"/>
<text text-anchor="middle" x="3876.5" y="-136" font-family="Helvetica,sans-Serif" font-size="10.00">QTextCodec</text>
</a>
</g>
</g>
<!-- Node1&#45;&gt;Node44 -->
<g id="edge53" class="edge">
<title>Node1&#45;&gt;Node44</title>
<path fill="none" stroke="midnightblue" d="M2452.08,-199.51C2737,-200.46 3564.31,-199.12 3830.5,-154 3834.77,-153.28 3839.2,-152.25 3843.54,-151.08"/>
<polygon fill="midnightblue" stroke="midnightblue" points="3844.82,-154.35 3853.4,-148.14 3842.82,-147.64 3844.82,-154.35"/>
</g>
<!-- Node45 -->
<g id="node45" class="node">
<title>Node45</title>
<g id="a_node45"><a xlink:title=" ">
<polygon fill="white" stroke="#bfbfbf" points="3932,-129 3932,-148 4001,-148 4001,-129 3932,-129"/>
<text text-anchor="middle" x="3966.5" y="-136" font-family="Helvetica,sans-Serif" font-size="10.00">QtNumeric</text>
</a>
</g>
</g>
<!-- Node1&#45;&gt;Node45 -->
<g id="edge54" class="edge">
<title>Node1&#45;&gt;Node45</title>
<path fill="none" stroke="midnightblue" d="M2452.02,-197.84C2772.11,-193.81 3778.44,-179.25 3922.5,-154 3926.69,-153.27 3931.02,-152.22 3935.27,-151.01"/>
<polygon fill="midnightblue" stroke="midnightblue" points="3936.39,-154.33 3944.89,-148 3934.3,-147.65 3936.39,-154.33"/>
</g>
<!-- Node3 -->
<g id="node3" class="node">
<title>Node3</title>
<g id="a_node3"><a xlink:title=" ">
<polygon fill="white" stroke="#bfbfbf" points="346.5,-62 346.5,-81 430.5,-81 430.5,-62 346.5,-62"/>
<text text-anchor="middle" x="388.5" y="-69" font-family="Helvetica,sans-Serif" font-size="10.00">QTableWidget</text>
</a>
</g>
</g>
<!-- Node2&#45;&gt;Node3 -->
<g id="edge2" class="edge">
<title>Node2&#45;&gt;Node3</title>
<path fill="none" stroke="midnightblue" d="M569.75,-128.87C532.71,-117.35 467.03,-96.92 425.72,-84.08"/>
<polygon fill="midnightblue" stroke="midnightblue" points="426.62,-80.69 416.04,-81.06 424.54,-87.38 426.62,-80.69"/>
</g>
<!-- Node4 -->
<g id="node4" class="node">
<title>Node4</title>
<g id="a_node4"><a xlink:title=" ">
<polygon fill="white" stroke="#bfbfbf" points="948.5,-62 948.5,-81 1030.5,-81 1030.5,-62 948.5,-62"/>
<text text-anchor="middle" x="989.5" y="-69" font-family="Helvetica,sans-Serif" font-size="10.00">../vmisc/def.h</text>
</a>
</g>
</g>
<!-- Node2&#45;&gt;Node4 -->
<g id="edge3" class="edge">
<title>Node2&#45;&gt;Node4</title>
<path fill="none" stroke="midnightblue" d="M643.23,-129.92C716.97,-117.69 861.63,-93.7 938.56,-80.95"/>
<polygon fill="midnightblue" stroke="midnightblue" points="939.21,-84.39 948.5,-79.3 938.06,-77.48 939.21,-84.39"/>
</g>
<!-- Node2&#45;&gt;Node5 -->
<g id="edge4" class="edge">
<title>Node2&#45;&gt;Node5</title>
<path fill="none" stroke="midnightblue" d="M551.79,-134.09C467.82,-127.49 283.46,-111.42 129.5,-87 122.35,-85.87 114.83,-84.48 107.48,-83.03"/>
<polygon fill="midnightblue" stroke="midnightblue" points="108.11,-79.58 97.62,-81.01 106.71,-86.44 108.11,-79.58"/>
</g>
<!-- Node6 -->
<g id="node6" class="node">
<title>Node6</title>
<g id="a_node6"><a xlink:title=" ">
<polygon fill="white" stroke="#bfbfbf" points="448.5,-62 448.5,-81 604.5,-81 604.5,-62 448.5,-62"/>
<text text-anchor="middle" x="526.5" y="-69" font-family="Helvetica,sans-Serif" font-size="10.00">../vformat/vmeasurements.h</text>
</a>
</g>
</g>
<!-- Node2&#45;&gt;Node6 -->
<g id="edge5" class="edge">
<title>Node2&#45;&gt;Node6</title>
<path fill="none" stroke="midnightblue" d="M587.92,-128.73C576.53,-118.31 557.31,-100.71 543.4,-87.97"/>
<polygon fill="midnightblue" stroke="midnightblue" points="545.66,-85.3 535.92,-81.13 540.94,-90.46 545.66,-85.3"/>
</g>
<!-- Node7 -->
<g id="node7" class="node">
<title>Node7</title>
<g id="a_node7"><a xlink:title=" ">
<polygon fill="white" stroke="#bfbfbf" points="622.5,-62 622.5,-81 752.5,-81 752.5,-62 622.5,-62"/>
<text text-anchor="middle" x="687.5" y="-69" font-family="Helvetica,sans-Serif" font-size="10.00">../vmisc/vtablesearch.h</text>
</a>
</g>
</g>
<!-- Node2&#45;&gt;Node7 -->
<g id="edge6" class="edge">
<title>Node2&#45;&gt;Node7</title>
<path fill="none" stroke="midnightblue" d="M609.64,-128.73C624.35,-118.11 649.36,-100.05 667.06,-87.26"/>
<polygon fill="midnightblue" stroke="midnightblue" points="669.5,-89.82 675.55,-81.13 665.4,-84.14 669.5,-89.82"/>
</g>
<!-- Node8 -->
<g id="node8" class="node">
<title>Node8</title>
<g id="a_node8"><a xlink:title=" ">
<polygon fill="white" stroke="#bfbfbf" points="139,-62 139,-81 328,-81 328,-62 139,-62"/>
<text text-anchor="middle" x="233.5" y="-69" font-family="Helvetica,sans-Serif" font-size="10.00">../vwidgets/vabstractmainwindow.h</text>
</a>
</g>
</g>
<!-- Node2&#45;&gt;Node8 -->
<g id="edge7" class="edge">
<title>Node2&#45;&gt;Node8</title>
<path fill="none" stroke="midnightblue" d="M551.77,-129.33C485.66,-117.53 363.43,-95.7 291.2,-82.8"/>
<polygon fill="midnightblue" stroke="midnightblue" points="291.81,-79.36 281.36,-81.05 290.58,-86.25 291.81,-79.36"/>
</g>
<!-- Node2&#45;&gt;Node9 -->
<g id="edge8" class="edge">
<title>Node2&#45;&gt;Node9</title>
<path fill="none" stroke="midnightblue" d="M628.57,-128.87C664.83,-118.8 725.61,-101.91 771.22,-89.24"/>
<polygon fill="midnightblue" stroke="midnightblue" points="772.3,-92.58 781,-86.53 770.43,-85.83 772.3,-92.58"/>
</g>
<!-- Node10 -->
<g id="node10" class="node">
<title>Node10</title>
<g id="a_node10"><a xlink:title=" ">
<polygon fill="white" stroke="#bfbfbf" points="1210.5,-0.5 1210.5,-19.5 1266.5,-19.5 1266.5,-0.5 1210.5,-0.5"/>
<text text-anchor="middle" x="1238.5" y="-7.5" font-family="Helvetica,sans-Serif" font-size="10.00">QDialog</text>
</a>
</g>
</g>
<!-- Node9&#45;&gt;Node10 -->
<g id="edge9" class="edge">
<title>Node9&#45;&gt;Node10</title>
<path fill="none" stroke="midnightblue" d="M892.03,-58.49C896.92,-57.62 901.79,-56.77 906.5,-56 1012.57,-38.57 1138.52,-22.85 1200.36,-15.46"/>
<polygon fill="midnightblue" stroke="midnightblue" points="1200.92,-18.92 1210.44,-14.26 1200.09,-11.97 1200.92,-18.92"/>
</g>
<!-- Node12&#45;&gt;Node10 -->
<g id="edge12" class="edge">
<title>Node12&#45;&gt;Node10</title>
<path fill="none" stroke="midnightblue" d="M1150.26,-61.98C1167.16,-52.21 1195.08,-36.08 1214.99,-24.58"/>
<polygon fill="midnightblue" stroke="midnightblue" points="1216.86,-27.54 1223.77,-19.51 1213.36,-21.48 1216.86,-27.54"/>
</g>
<!-- Node13&#45;&gt;Node4 -->
<g id="edge15" class="edge">
<title>Node13&#45;&gt;Node4</title>
<path fill="none" stroke="midnightblue" d="M989.5,-128.73C989.5,-119.18 989.5,-103.62 989.5,-91.28"/>
<polygon fill="midnightblue" stroke="midnightblue" points="993,-91.13 989.5,-81.13 986,-91.13 993,-91.13"/>
</g>
<!-- Node13&#45;&gt;Node10 -->
<g id="edge14" class="edge">
<title>Node13&#45;&gt;Node10</title>
<path fill="none" stroke="midnightblue" d="M977.14,-128.81C956.43,-113.22 918.92,-79.9 939.5,-56 972.71,-17.42 1127.24,-11.47 1200.18,-10.85"/>
<polygon fill="midnightblue" stroke="midnightblue" points="1200.35,-14.35 1210.33,-10.79 1200.31,-7.35 1200.35,-14.35"/>
</g>
<!-- Node14&#45;&gt;Node10 -->
<g id="edge17" class="edge">
<title>Node14&#45;&gt;Node10</title>
<path fill="none" stroke="midnightblue" d="M1657.48,-61.93C1645.44,-59.86 1632.51,-57.74 1620.5,-56 1495.1,-37.8 1345.71,-21.86 1276.8,-14.82"/>
<polygon fill="midnightblue" stroke="midnightblue" points="1277.14,-11.34 1266.84,-13.81 1276.44,-18.31 1277.14,-11.34"/>
</g>
<!-- Node15&#45;&gt;Node10 -->
<g id="edge19" class="edge">
<title>Node15&#45;&gt;Node10</title>
<path fill="none" stroke="midnightblue" d="M1326.74,-61.98C1309.84,-52.21 1281.92,-36.08 1262.01,-24.58"/>
<polygon fill="midnightblue" stroke="midnightblue" points="1263.64,-21.48 1253.23,-19.51 1260.14,-27.54 1263.64,-21.48"/>
</g>
<!-- Node16&#45;&gt;Node10 -->
<g id="edge21" class="edge">
<title>Node16&#45;&gt;Node10</title>
<path fill="none" stroke="midnightblue" d="M1493.8,-61.98C1435.63,-50.36 1332.33,-29.73 1276.63,-18.61"/>
<polygon fill="midnightblue" stroke="midnightblue" points="1277.3,-15.18 1266.8,-16.65 1275.92,-22.04 1277.3,-15.18"/>
</g>
<!-- Node26 -->
<g id="node26" class="node">
<title>Node26</title>
<g id="a_node26"><a xlink:title=" ">
<polygon fill="white" stroke="#bfbfbf" points="2403.5,-62 2403.5,-81 2555.5,-81 2555.5,-62 2403.5,-62"/>
<text text-anchor="middle" x="2479.5" y="-69" font-family="Helvetica,sans-Serif" font-size="10.00">../ifc/xml/vabstractpattern.h</text>
</a>
</g>
</g>
<!-- Node25&#45;&gt;Node26 -->
<g id="edge33" class="edge">
<title>Node25&#45;&gt;Node26</title>
<path fill="none" stroke="midnightblue" d="M2479.5,-128.73C2479.5,-119.18 2479.5,-103.62 2479.5,-91.28"/>
<polygon fill="midnightblue" stroke="midnightblue" points="2483,-91.13 2479.5,-81.13 2476,-91.13 2483,-91.13"/>
</g>
<!-- Node30 -->
<g id="node30" class="node">
<title>Node30</title>
<g id="a_node30"><a xlink:href="../../dc/d73/projectversion_8h.html" target="_top" xlink:title=" ">
<polygon fill="white" stroke="black" points="2634.5,-62 2634.5,-81 2800.5,-81 2800.5,-62 2634.5,-62"/>
<text text-anchor="middle" x="2717.5" y="-69" font-family="Helvetica,sans-Serif" font-size="10.00">../../libs/vmisc/projectversion.h</text>
</a>
</g>
</g>
<!-- Node29&#45;&gt;Node30 -->
<g id="edge37" class="edge">
<title>Node29&#45;&gt;Node30</title>
<path fill="none" stroke="midnightblue" d="M2847.58,-128.87C2821.81,-117.7 2776.68,-98.15 2746.95,-85.26"/>
<polygon fill="midnightblue" stroke="midnightblue" points="2748.07,-81.93 2737.5,-81.17 2745.29,-88.35 2748.07,-81.93"/>
</g>
<!-- Node31&#45;&gt;Node4 -->
<g id="edge40" class="edge">
<title>Node31&#45;&gt;Node4</title>
<path fill="none" stroke="midnightblue" d="M2934.85,-128.97C2926.21,-126.58 2916.53,-124.28 2907.5,-123 2496.42,-64.73 1449.98,-149.36 1039.5,-87 1034.38,-86.22 1029.05,-85.07 1023.86,-83.74"/>
<polygon fill="midnightblue" stroke="midnightblue" points="1024.71,-80.35 1014.14,-81.04 1022.83,-87.09 1024.71,-80.35"/>
</g>
<!-- Node31&#45;&gt;Node14 -->
<g id="edge43" class="edge">
<title>Node31&#45;&gt;Node14</title>
<path fill="none" stroke="midnightblue" d="M2934.28,-128.94C2925.78,-126.61 2916.33,-124.35 2907.5,-123 2691.56,-89.89 2026.28,-77.18 1789.36,-73.63"/>
<polygon fill="midnightblue" stroke="midnightblue" points="1789.14,-70.13 1779.08,-73.48 1789.03,-77.13 1789.14,-70.13"/>
</g>
<!-- Node32 -->
<g id="node32" class="node">
<title>Node32</title>
<g id="a_node32"><a xlink:title=" ">
<polygon fill="white" stroke="#bfbfbf" points="2819,-62 2819,-81 2980,-81 2980,-62 2819,-62"/>
<text text-anchor="middle" x="2899.5" y="-69" font-family="Helvetica,sans-Serif" font-size="10.00">../vpatterndb/vtranslatevars.h</text>
</a>
</g>
</g>
<!-- Node31&#45;&gt;Node32 -->
<g id="edge39" class="edge">
<title>Node31&#45;&gt;Node32</title>
<path fill="none" stroke="midnightblue" d="M2953.14,-128.73C2943.38,-118.5 2927.03,-101.36 2914.95,-88.69"/>
<polygon fill="midnightblue" stroke="midnightblue" points="2917.16,-85.95 2907.73,-81.13 2912.1,-90.78 2917.16,-85.95"/>
</g>
<!-- Node33 -->
<g id="node33" class="node">
<title>Node33</title>
<g id="a_node33"><a xlink:title=" ">
<polygon fill="white" stroke="#bfbfbf" points="2998.5,-62 2998.5,-81 3162.5,-81 3162.5,-62 2998.5,-62"/>
<text text-anchor="middle" x="3080.5" y="-69" font-family="Helvetica,sans-Serif" font-size="10.00">../vmisc/vseamlymesettings.h</text>
</a>
</g>
</g>
<!-- Node31&#45;&gt;Node33 -->
<g id="edge41" class="edge">
<title>Node31&#45;&gt;Node33</title>
<path fill="none" stroke="midnightblue" d="M2977.55,-128.73C2997.62,-117.77 3032.2,-98.88 3055.69,-86.05"/>
<polygon fill="midnightblue" stroke="midnightblue" points="3057.61,-88.99 3064.71,-81.13 3054.25,-82.85 3057.61,-88.99"/>
</g>
<!-- Node34 -->
<g id="node34" class="node">
<title>Node34</title>
<g id="a_node34"><a xlink:title=" ">
<polygon fill="white" stroke="#bfbfbf" points="3181,-62 3181,-81 3348,-81 3348,-62 3181,-62"/>
<text text-anchor="middle" x="3264.5" y="-69" font-family="Helvetica,sans-Serif" font-size="10.00">../vmisc/vabstractapplication.h</text>
</a>
</g>
</g>
<!-- Node31&#45;&gt;Node34 -->
<g id="edge42" class="edge">
<title>Node31&#45;&gt;Node34</title>
<path fill="none" stroke="midnightblue" d="M2991.97,-128.96C2999.63,-126.92 3007.85,-124.8 3015.5,-123 3081.17,-107.54 3157.26,-92.52 3207.88,-82.94"/>
<polygon fill="midnightblue" stroke="midnightblue" points="3208.78,-86.33 3217.96,-81.04 3207.49,-79.46 3208.78,-86.33"/>
</g>
</g>
</svg>
