<?xml version="1.0" encoding="UTF-8" standalone="no"?>
<!DOCTYPE svg PUBLIC "-//W3C//DTD SVG 1.1//EN"
 "http://www.w3.org/Graphics/SVG/1.1/DTD/svg11.dtd">
<!-- Generated by graphviz version 2.43.0 (0)
 -->
<!-- Title: qmu::QmuParserBase Pages: 1 -->
<svg width="989pt" height="1156pt"
 viewBox="0.00 0.00 989.00 1156.00" xmlns="http://www.w3.org/2000/svg" xmlns:xlink="http://www.w3.org/1999/xlink">
<g id="graph0" class="graph" transform="scale(1 1) rotate(0) translate(4 1152)">
<title>qmu::QmuParserBase</title>
<polygon fill="white" stroke="transparent" points="-4,4 -4,-1152 985,-1152 985,4 -4,4"/>
<!-- Node1 -->
<g id="node1" class="node">
<title>Node1</title>
<g id="a_node1"><a xlink:title="Mathematical expressions parser (base parser engine).">
<polygon fill="#bfbfbf" stroke="black" points="407.5,-0.5 407.5,-574.5 565.5,-574.5 565.5,-0.5 407.5,-0.5"/>
<text text-anchor="middle" x="486.5" y="-562.5" font-family="Helvetica,sans-Serif" font-size="10.00">qmu::QmuParserBase</text>
<polyline fill="none" stroke="black" points="407.5,-555.5 565.5,-555.5 "/>
<text text-anchor="start" x="415.5" y="-543.5" font-family="Helvetica,sans-Serif" font-size="10.00"># m_locale</text>
<text text-anchor="start" x="415.5" y="-532.5" font-family="Helvetica,sans-Serif" font-size="10.00"># m_decimalPoint</text>
<text text-anchor="start" x="415.5" y="-521.5" font-family="Helvetica,sans-Serif" font-size="10.00"># m_thousandsSeparator</text>
<text text-anchor="start" x="415.5" y="-510.5" font-family="Helvetica,sans-Serif" font-size="10.00"># c_DefaultOprt</text>
<text text-anchor="start" x="415.5" y="-499.5" font-family="Helvetica,sans-Serif" font-size="10.00"># g_DbgDumpCmdCode</text>
<text text-anchor="start" x="415.5" y="-488.5" font-family="Helvetica,sans-Serif" font-size="10.00"># g_DbgDumpStack</text>
<text text-anchor="start" x="415.5" y="-477.5" font-family="Helvetica,sans-Serif" font-size="10.00">&#45; m_pParseFormula</text>
<text text-anchor="start" x="415.5" y="-466.5" font-family="Helvetica,sans-Serif" font-size="10.00">&#45; m_vStringBuf</text>
<text text-anchor="start" x="415.5" y="-455.5" font-family="Helvetica,sans-Serif" font-size="10.00">&#45; m_vStringVarBuf</text>
<text text-anchor="start" x="415.5" y="-444.5" font-family="Helvetica,sans-Serif" font-size="10.00">&#45; m_bBuiltInOp</text>
<text text-anchor="start" x="415.5" y="-433.5" font-family="Helvetica,sans-Serif" font-size="10.00">&#45; m_sNameChars</text>
<text text-anchor="start" x="415.5" y="-422.5" font-family="Helvetica,sans-Serif" font-size="10.00">&#45; m_sOprtChars</text>
<text text-anchor="start" x="415.5" y="-411.5" font-family="Helvetica,sans-Serif" font-size="10.00">&#45; m_sInfixOprtChars</text>
<text text-anchor="start" x="415.5" y="-400.5" font-family="Helvetica,sans-Serif" font-size="10.00">&#45; m_nIfElseCounter</text>
<text text-anchor="start" x="415.5" y="-389.5" font-family="Helvetica,sans-Serif" font-size="10.00">&#45; m_vStackBuffer</text>
<text text-anchor="start" x="415.5" y="-378.5" font-family="Helvetica,sans-Serif" font-size="10.00">&#45; m_nFinalResultIdx</text>
<text text-anchor="start" x="415.5" y="-367.5" font-family="Helvetica,sans-Serif" font-size="10.00">&#45; allowSubexpressions</text>
<text text-anchor="start" x="415.5" y="-356.5" font-family="Helvetica,sans-Serif" font-size="10.00">&#45; s_MaxNumOpenMPThreads</text>
<polyline fill="none" stroke="black" points="407.5,-349.5 565.5,-349.5 "/>
<text text-anchor="start" x="415.5" y="-337.5" font-family="Helvetica,sans-Serif" font-size="10.00">+ QmuParserBase()</text>
<text text-anchor="start" x="415.5" y="-326.5" font-family="Helvetica,sans-Serif" font-size="10.00">+ QmuParserBase()</text>
<text text-anchor="start" x="415.5" y="-315.5" font-family="Helvetica,sans-Serif" font-size="10.00">+ operator=()</text>
<text text-anchor="start" x="415.5" y="-304.5" font-family="Helvetica,sans-Serif" font-size="10.00">+ ~QmuParserBase()</text>
<text text-anchor="start" x="415.5" y="-293.5" font-family="Helvetica,sans-Serif" font-size="10.00">+ Eval()</text>
<text text-anchor="start" x="415.5" y="-282.5" font-family="Helvetica,sans-Serif" font-size="10.00">+ Eval()</text>
<text text-anchor="start" x="415.5" y="-271.5" font-family="Helvetica,sans-Serif" font-size="10.00">+ Eval()</text>
<text text-anchor="start" x="415.5" y="-260.5" font-family="Helvetica,sans-Serif" font-size="10.00">+ GetNumResults()</text>
<text text-anchor="start" x="415.5" y="-249.5" font-family="Helvetica,sans-Serif" font-size="10.00">+ SetExpr()</text>
<text text-anchor="start" x="415.5" y="-238.5" font-family="Helvetica,sans-Serif" font-size="10.00">+ SetVarFactory()</text>
<text text-anchor="start" x="415.5" y="-227.5" font-family="Helvetica,sans-Serif" font-size="10.00">and 42 more...</text>
<text text-anchor="start" x="415.5" y="-216.5" font-family="Helvetica,sans-Serif" font-size="10.00">+ EnableDebugDump()</text>
<text text-anchor="start" x="415.5" y="-205.5" font-family="Helvetica,sans-Serif" font-size="10.00">+ GetVersion()</text>
<text text-anchor="start" x="415.5" y="-194.5" font-family="Helvetica,sans-Serif" font-size="10.00">+ GetOprtDef()</text>
<text text-anchor="start" x="415.5" y="-183.5" font-family="Helvetica,sans-Serif" font-size="10.00"># Init()</text>
<text text-anchor="start" x="415.5" y="-172.5" font-family="Helvetica,sans-Serif" font-size="10.00"># InitCharSets()</text>
<text text-anchor="start" x="415.5" y="-161.5" font-family="Helvetica,sans-Serif" font-size="10.00"># InitFun()</text>
<text text-anchor="start" x="415.5" y="-150.5" font-family="Helvetica,sans-Serif" font-size="10.00"># InitConst()</text>
<text text-anchor="start" x="415.5" y="-139.5" font-family="Helvetica,sans-Serif" font-size="10.00"># InitOprt()</text>
<text text-anchor="start" x="415.5" y="-128.5" font-family="Helvetica,sans-Serif" font-size="10.00"># OnDetectVar()</text>
<text text-anchor="start" x="415.5" y="-117.5" font-family="Helvetica,sans-Serif" font-size="10.00">&#45; Assign()</text>
<text text-anchor="start" x="415.5" y="-106.5" font-family="Helvetica,sans-Serif" font-size="10.00">&#45; InitTokenReader()</text>
<text text-anchor="start" x="415.5" y="-95.5" font-family="Helvetica,sans-Serif" font-size="10.00">&#45; ReInit()</text>
<text text-anchor="start" x="415.5" y="-84.5" font-family="Helvetica,sans-Serif" font-size="10.00">&#45; AddCallback()</text>
<text text-anchor="start" x="415.5" y="-73.5" font-family="Helvetica,sans-Serif" font-size="10.00">&#45; ApplyRemainingOprt()</text>
<text text-anchor="start" x="415.5" y="-62.5" font-family="Helvetica,sans-Serif" font-size="10.00">&#45; ApplyBinOprt()</text>
<text text-anchor="start" x="415.5" y="-51.5" font-family="Helvetica,sans-Serif" font-size="10.00">&#45; ApplyIfElse()</text>
<text text-anchor="start" x="415.5" y="-40.5" font-family="Helvetica,sans-Serif" font-size="10.00">&#45; ApplyFunc()</text>
<text text-anchor="start" x="415.5" y="-29.5" font-family="Helvetica,sans-Serif" font-size="10.00">&#45; ApplyStrFunc()</text>
<text text-anchor="start" x="415.5" y="-18.5" font-family="Helvetica,sans-Serif" font-size="10.00">&#45; GetOprtPrecedence()</text>
<text text-anchor="start" x="415.5" y="-7.5" font-family="Helvetica,sans-Serif" font-size="10.00">and 8 more...</text>
</a>
</g>
</g>
<!-- Node2 -->
<g id="node2" class="node">
<title>Node2</title>
<g id="a_node2"><a xlink:href="../../d8/df2/classqmu_1_1QmuParserByteCode.html" target="_top" xlink:title="Bytecode implementation of the Math Parser.">
<polygon fill="white" stroke="black" points="0,-655.5 0,-866.5 145,-866.5 145,-655.5 0,-655.5"/>
<text text-anchor="middle" x="72.5" y="-854.5" font-family="Helvetica,sans-Serif" font-size="10.00">qmu::QmuParserByteCode</text>
<polyline fill="none" stroke="black" points="0,-847.5 145,-847.5 "/>
<text text-anchor="start" x="8" y="-835.5" font-family="Helvetica,sans-Serif" font-size="10.00">&#45; m_iStackPos</text>
<text text-anchor="start" x="8" y="-824.5" font-family="Helvetica,sans-Serif" font-size="10.00">&#45; m_iMaxStackSize</text>
<text text-anchor="start" x="8" y="-813.5" font-family="Helvetica,sans-Serif" font-size="10.00">&#45; m_vRPN</text>
<text text-anchor="start" x="8" y="-802.5" font-family="Helvetica,sans-Serif" font-size="10.00">&#45; m_bEnableOptimizer</text>
<polyline fill="none" stroke="black" points="0,-795.5 145,-795.5 "/>
<text text-anchor="start" x="8" y="-783.5" font-family="Helvetica,sans-Serif" font-size="10.00">+ QmuParserByteCode()</text>
<text text-anchor="start" x="8" y="-772.5" font-family="Helvetica,sans-Serif" font-size="10.00">+ QmuParserByteCode()</text>
<text text-anchor="start" x="8" y="-761.5" font-family="Helvetica,sans-Serif" font-size="10.00">+ operator=()</text>
<text text-anchor="start" x="8" y="-750.5" font-family="Helvetica,sans-Serif" font-size="10.00">+ Assign()</text>
<text text-anchor="start" x="8" y="-739.5" font-family="Helvetica,sans-Serif" font-size="10.00">+ AddVar()</text>
<text text-anchor="start" x="8" y="-728.5" font-family="Helvetica,sans-Serif" font-size="10.00">+ AddVal()</text>
<text text-anchor="start" x="8" y="-717.5" font-family="Helvetica,sans-Serif" font-size="10.00">+ AddOp()</text>
<text text-anchor="start" x="8" y="-706.5" font-family="Helvetica,sans-Serif" font-size="10.00">+ AddIfElse()</text>
<text text-anchor="start" x="8" y="-695.5" font-family="Helvetica,sans-Serif" font-size="10.00">+ AddAssignOp()</text>
<text text-anchor="start" x="8" y="-684.5" font-family="Helvetica,sans-Serif" font-size="10.00">+ AddFun()</text>
<text text-anchor="start" x="8" y="-673.5" font-family="Helvetica,sans-Serif" font-size="10.00">and 9 more...</text>
<text text-anchor="start" x="8" y="-662.5" font-family="Helvetica,sans-Serif" font-size="10.00">&#45; ConstantFolding()</text>
</a>
</g>
</g>
<!-- Node2&#45;&gt;Node1 -->
<g id="edge1" class="edge">
<title>Node2&#45;&gt;Node1</title>
<path fill="none" stroke="#404040" d="M145.03,-666.4C148.21,-662.53 151.37,-658.72 154.5,-655 234.68,-559.72 330.58,-454.75 398.65,-381.67"/>
<polygon fill="none" stroke="#404040" points="399.04,-381.24 400.21,-374.13 407.23,-372.47 406.06,-379.58 399.04,-381.24"/>
<text text-anchor="middle" x="232" y="-612.5" font-family="Helvetica,sans-Serif" font-size="10.00"> &#45;m_vRPN</text>
</g>
<!-- Node3 -->
<g id="node3" class="node">
<title>Node3</title>
<g id="a_node3"><a xlink:href="../../d0/d4c/classQMap.html" target="_top" xlink:title=" ">
<polygon fill="white" stroke="black" points="163.5,-732.5 163.5,-789.5 285.5,-789.5 285.5,-732.5 163.5,-732.5"/>
<text text-anchor="middle" x="224.5" y="-777.5" font-family="Helvetica,sans-Serif" font-size="10.00">QMap&lt; int, QString &gt;</text>
<polyline fill="none" stroke="black" points="163.5,-770.5 285.5,-770.5 "/>
<text text-anchor="middle" x="224.5" y="-758.5" font-family="Helvetica,sans-Serif" font-size="10.00"> </text>
<polyline fill="none" stroke="black" points="163.5,-751.5 285.5,-751.5 "/>
<text text-anchor="middle" x="224.5" y="-739.5" font-family="Helvetica,sans-Serif" font-size="10.00"> </text>
</a>
</g>
</g>
<!-- Node3&#45;&gt;Node1 -->
<g id="edge2" class="edge">
<title>Node3&#45;&gt;Node1</title>
<path fill="none" stroke="#404040" d="M239.91,-732.27C270.98,-676.35 343.15,-546.47 401.44,-441.58"/>
<polygon fill="none" stroke="#404040" points="401.56,-441.36 400.98,-434.17 407.39,-430.87 407.97,-438.06 401.56,-441.36"/>
<text text-anchor="middle" x="351" y="-618" font-family="Helvetica,sans-Serif" font-size="10.00"> &#45;m_Numbers</text>
<text text-anchor="middle" x="351" y="-607" font-family="Helvetica,sans-Serif" font-size="10.00">&#45;m_Tokens</text>
</g>
<!-- Node4 -->
<g id="node4" class="node">
<title>Node4</title>
<g id="a_node4"><a xlink:title=" ">
<polygon fill="white" stroke="#bfbfbf" points="303.5,-721.5 303.5,-800.5 413.5,-800.5 413.5,-721.5 303.5,-721.5"/>
<text text-anchor="start" x="311.5" y="-788.5" font-family="Helvetica,sans-Serif" font-size="10.00">std::map&lt; QString,</text>
<text text-anchor="middle" x="358.5" y="-777.5" font-family="Helvetica,sans-Serif" font-size="10.00"> qreal * &gt;</text>
<polyline fill="none" stroke="#bfbfbf" points="303.5,-770.5 413.5,-770.5 "/>
<text text-anchor="start" x="311.5" y="-758.5" font-family="Helvetica,sans-Serif" font-size="10.00">+ keys</text>
<text text-anchor="start" x="311.5" y="-747.5" font-family="Helvetica,sans-Serif" font-size="10.00">+ elements</text>
<polyline fill="none" stroke="#bfbfbf" points="303.5,-740.5 413.5,-740.5 "/>
<text text-anchor="middle" x="358.5" y="-728.5" font-family="Helvetica,sans-Serif" font-size="10.00"> </text>
</a>
</g>
</g>
<!-- Node4&#45;&gt;Node1 -->
<g id="edge3" class="edge">
<title>Node4&#45;&gt;Node1</title>
<path fill="none" stroke="#404040" d="M368.97,-721.42C377.69,-689.3 391,-640.28 405.57,-586.62"/>
<polygon fill="none" stroke="#404040" points="405.65,-586.32 403.36,-579.48 408.79,-574.74 411.08,-581.58 405.65,-586.32"/>
<text text-anchor="middle" x="432" y="-612.5" font-family="Helvetica,sans-Serif" font-size="10.00"> &#45;m_VarDef</text>
</g>
<!-- Node5 -->
<g id="node5" class="node">
<title>Node5</title>
<g id="a_node5"><a xlink:title=" ">
<polygon fill="white" stroke="#bfbfbf" points="431.5,-721.5 431.5,-800.5 541.5,-800.5 541.5,-721.5 431.5,-721.5"/>
<text text-anchor="start" x="439.5" y="-788.5" font-family="Helvetica,sans-Serif" font-size="10.00">std::map&lt; QString,</text>
<text text-anchor="middle" x="486.5" y="-777.5" font-family="Helvetica,sans-Serif" font-size="10.00"> qreal &gt;</text>
<polyline fill="none" stroke="#bfbfbf" points="431.5,-770.5 541.5,-770.5 "/>
<text text-anchor="start" x="439.5" y="-758.5" font-family="Helvetica,sans-Serif" font-size="10.00">+ keys</text>
<text text-anchor="start" x="439.5" y="-747.5" font-family="Helvetica,sans-Serif" font-size="10.00">+ elements</text>
<polyline fill="none" stroke="#bfbfbf" points="431.5,-740.5 541.5,-740.5 "/>
<text text-anchor="middle" x="486.5" y="-728.5" font-family="Helvetica,sans-Serif" font-size="10.00"> </text>
</a>
</g>
</g>
<!-- Node5&#45;&gt;Node1 -->
<g id="edge4" class="edge">
<title>Node5&#45;&gt;Node1</title>
<path fill="none" stroke="#404040" d="M486.5,-721.42C486.5,-689.36 486.5,-640.49 486.5,-586.96"/>
<polygon fill="none" stroke="#404040" points="486.5,-586.74 482.5,-580.74 486.5,-574.74 490.5,-580.74 486.5,-586.74"/>
<text text-anchor="middle" x="520" y="-612.5" font-family="Helvetica,sans-Serif" font-size="10.00"> &#45;m_ConstDef</text>
</g>
<!-- Node6 -->
<g id="node6" class="node">
<title>Node6</title>
<g id="a_node6"><a xlink:title=" ">
<polygon fill="white" stroke="#bfbfbf" points="559.5,-727 559.5,-795 685.5,-795 685.5,-727 559.5,-727"/>
<text text-anchor="start" x="567.5" y="-783" font-family="Helvetica,sans-Serif" font-size="10.00">std::map&lt; QString,</text>
<text text-anchor="middle" x="622.5" y="-772" font-family="Helvetica,sans-Serif" font-size="10.00"> QmuParserCallback &gt;</text>
<polyline fill="none" stroke="#bfbfbf" points="559.5,-765 685.5,-765 "/>
<text text-anchor="start" x="567.5" y="-753" font-family="Helvetica,sans-Serif" font-size="10.00">+ keys</text>
<polyline fill="none" stroke="#bfbfbf" points="559.5,-746 685.5,-746 "/>
<text text-anchor="middle" x="622.5" y="-734" font-family="Helvetica,sans-Serif" font-size="10.00"> </text>
</a>
</g>
</g>
<!-- Node6&#45;&gt;Node1 -->
<g id="edge5" class="edge">
<title>Node6&#45;&gt;Node1</title>
<path fill="none" stroke="#404040" d="M612.94,-726.85C603.08,-692.66 586.67,-635.77 568.88,-574.11"/>
<polygon fill="none" stroke="#404040" points="568.87,-574.08 563.37,-569.42 565.55,-562.55 571.05,-567.21 568.87,-574.08"/>
<text text-anchor="middle" x="626" y="-629" font-family="Helvetica,sans-Serif" font-size="10.00"> &#45;m_FunDef</text>
<text text-anchor="middle" x="626" y="-618" font-family="Helvetica,sans-Serif" font-size="10.00">&#45;m_InfixOprtDef</text>
<text text-anchor="middle" x="626" y="-607" font-family="Helvetica,sans-Serif" font-size="10.00">&#45;m_OprtDef</text>
<text text-anchor="middle" x="626" y="-596" font-family="Helvetica,sans-Serif" font-size="10.00">&#45;m_PostOprtDef</text>
</g>
<!-- Node7 -->
<g id="node7" class="node">
<title>Node7</title>
<g id="a_node7"><a xlink:href="../../db/dc4/classqmu_1_1QmuParserCallback.html" target="_top" xlink:title="Encapsulation of prototypes for a numerical parser function.">
<polygon fill="white" stroke="black" points="552.5,-914.5 552.5,-1147.5 692.5,-1147.5 692.5,-914.5 552.5,-914.5"/>
<text text-anchor="middle" x="622.5" y="-1135.5" font-family="Helvetica,sans-Serif" font-size="10.00">qmu::QmuParserCallback</text>
<polyline fill="none" stroke="black" points="552.5,-1128.5 692.5,-1128.5 "/>
<text text-anchor="start" x="560.5" y="-1116.5" font-family="Helvetica,sans-Serif" font-size="10.00">&#45; m_pFun</text>
<text text-anchor="start" x="560.5" y="-1105.5" font-family="Helvetica,sans-Serif" font-size="10.00">&#45; m_iArgc</text>
<text text-anchor="start" x="560.5" y="-1094.5" font-family="Helvetica,sans-Serif" font-size="10.00">&#45; m_iPri</text>
<text text-anchor="start" x="560.5" y="-1083.5" font-family="Helvetica,sans-Serif" font-size="10.00">&#45; m_eOprtAsct</text>
<text text-anchor="start" x="560.5" y="-1072.5" font-family="Helvetica,sans-Serif" font-size="10.00">&#45; m_iCode</text>
<text text-anchor="start" x="560.5" y="-1061.5" font-family="Helvetica,sans-Serif" font-size="10.00">&#45; m_iType</text>
<text text-anchor="start" x="560.5" y="-1050.5" font-family="Helvetica,sans-Serif" font-size="10.00">&#45; m_bAllowOpti</text>
<polyline fill="none" stroke="black" points="552.5,-1043.5 692.5,-1043.5 "/>
<text text-anchor="start" x="560.5" y="-1031.5" font-family="Helvetica,sans-Serif" font-size="10.00">+ QmuParserCallback()</text>
<text text-anchor="start" x="560.5" y="-1020.5" font-family="Helvetica,sans-Serif" font-size="10.00">+ QmuParserCallback()</text>
<text text-anchor="start" x="560.5" y="-1009.5" font-family="Helvetica,sans-Serif" font-size="10.00">+ QmuParserCallback()</text>
<text text-anchor="start" x="560.5" y="-998.5" font-family="Helvetica,sans-Serif" font-size="10.00">+ QmuParserCallback()</text>
<text text-anchor="start" x="560.5" y="-987.5" font-family="Helvetica,sans-Serif" font-size="10.00">+ QmuParserCallback()</text>
<text text-anchor="start" x="560.5" y="-976.5" font-family="Helvetica,sans-Serif" font-size="10.00">+ QmuParserCallback()</text>
<text text-anchor="start" x="560.5" y="-965.5" font-family="Helvetica,sans-Serif" font-size="10.00">+ QmuParserCallback()</text>
<text text-anchor="start" x="560.5" y="-954.5" font-family="Helvetica,sans-Serif" font-size="10.00">+ QmuParserCallback()</text>
<text text-anchor="start" x="560.5" y="-943.5" font-family="Helvetica,sans-Serif" font-size="10.00">+ QmuParserCallback()</text>
<text text-anchor="start" x="560.5" y="-932.5" font-family="Helvetica,sans-Serif" font-size="10.00">+ QmuParserCallback()</text>
<text text-anchor="start" x="560.5" y="-921.5" font-family="Helvetica,sans-Serif" font-size="10.00">and 28 more...</text>
</a>
</g>
</g>
<!-- Node7&#45;&gt;Node6 -->
<g id="edge6" class="edge">
<title>Node7&#45;&gt;Node6</title>
<path fill="none" stroke="#404040" d="M622.5,-914.4C622.5,-876.64 622.5,-836.89 622.5,-807.46"/>
<polygon fill="none" stroke="#404040" points="622.5,-807.11 618.5,-801.11 622.5,-795.11 626.5,-801.11 622.5,-807.11"/>
<text text-anchor="middle" x="651.5" y="-888" font-family="Helvetica,sans-Serif" font-size="10.00"> +elements</text>
</g>
<!-- Node8 -->
<g id="node8" class="node">
<title>Node8</title>
<g id="a_node8"><a xlink:title=" ">
<polygon fill="white" stroke="#bfbfbf" points="703.5,-721.5 703.5,-800.5 813.5,-800.5 813.5,-721.5 703.5,-721.5"/>
<text text-anchor="start" x="711.5" y="-788.5" font-family="Helvetica,sans-Serif" font-size="10.00">std::map&lt; QString,</text>
<text text-anchor="middle" x="758.5" y="-777.5" font-family="Helvetica,sans-Serif" font-size="10.00"> int &gt;</text>
<polyline fill="none" stroke="#bfbfbf" points="703.5,-770.5 813.5,-770.5 "/>
<text text-anchor="start" x="711.5" y="-758.5" font-family="Helvetica,sans-Serif" font-size="10.00">+ keys</text>
<text text-anchor="start" x="711.5" y="-747.5" font-family="Helvetica,sans-Serif" font-size="10.00">+ elements</text>
<polyline fill="none" stroke="#bfbfbf" points="703.5,-740.5 813.5,-740.5 "/>
<text text-anchor="middle" x="758.5" y="-728.5" font-family="Helvetica,sans-Serif" font-size="10.00"> </text>
</a>
</g>
</g>
<!-- Node8&#45;&gt;Node1 -->
<g id="edge7" class="edge">
<title>Node8&#45;&gt;Node1</title>
<path fill="none" stroke="#404040" d="M738.56,-721.22C720.87,-687.18 694.11,-636.45 669.5,-593 638.57,-538.4 603.32,-479.11 572.07,-427.47"/>
<polygon fill="none" stroke="#404040" points="571.89,-427.17 565.36,-424.12 565.67,-416.91 572.2,-419.97 571.89,-427.17"/>
<text text-anchor="middle" x="727" y="-612.5" font-family="Helvetica,sans-Serif" font-size="10.00"> &#45;m_StrVarDef</text>
</g>
<!-- Node9 -->
<g id="node9" class="node">
<title>Node9</title>
<g id="a_node9"><a xlink:title=" ">
<polygon fill="white" stroke="#bfbfbf" points="832,-727 832,-795 981,-795 981,-727 832,-727"/>
<text text-anchor="start" x="840" y="-783" font-family="Helvetica,sans-Serif" font-size="10.00">std::unique_ptr&lt; qmu</text>
<text text-anchor="middle" x="906.5" y="-772" font-family="Helvetica,sans-Serif" font-size="10.00">::QmuParserTokenReader &gt;</text>
<polyline fill="none" stroke="#bfbfbf" points="832,-765 981,-765 "/>
<text text-anchor="start" x="840" y="-753" font-family="Helvetica,sans-Serif" font-size="10.00">+ ptr</text>
<polyline fill="none" stroke="#bfbfbf" points="832,-746 981,-746 "/>
<text text-anchor="start" x="840" y="-734" font-family="Helvetica,sans-Serif" font-size="10.00">+ operator&#45;&gt;()</text>
</a>
</g>
</g>
<!-- Node9&#45;&gt;Node1 -->
<g id="edge8" class="edge">
<title>Node9&#45;&gt;Node1</title>
<path fill="none" stroke="#404040" d="M880.95,-726.9C864.58,-706 842.7,-678.58 822.5,-655 740.47,-559.25 642.67,-453.45 573.79,-380.24"/>
<polygon fill="none" stroke="#404040" points="573.77,-380.22 566.74,-378.59 565.54,-371.48 572.56,-373.11 573.77,-380.22"/>
<text text-anchor="middle" x="850" y="-612.5" font-family="Helvetica,sans-Serif" font-size="10.00"> &#45;m_pTokenReader</text>
</g>
</g>
</svg>
