<?xml version="1.0" encoding="UTF-8" standalone="no"?>
<!DOCTYPE svg PUBLIC "-//W3C//DTD SVG 1.1//EN"
 "http://www.w3.org/Graphics/SVG/1.1/DTD/svg11.dtd">
<!-- Generated by graphviz version 2.43.0 (0)
 -->
<!-- Title: src/app/seamly2d/options.h Pages: 1 -->
<svg width="4486pt" height="218pt"
 viewBox="0.00 0.00 4485.50 218.00" xmlns="http://www.w3.org/2000/svg" xmlns:xlink="http://www.w3.org/1999/xlink">
<g id="graph0" class="graph" transform="scale(1 1) rotate(0) translate(4 214)">
<title>src/app/seamly2d/options.h</title>
<polygon fill="white" stroke="transparent" points="-4,4 -4,-214 4481.5,-214 4481.5,4 -4,4"/>
<!-- Node1 -->
<g id="node1" class="node">
<title>Node1</title>
<g id="a_node1"><a xlink:title=" ">
<polygon fill="#bfbfbf" stroke="black" points="1450,-190.5 1450,-209.5 1601,-209.5 1601,-190.5 1450,-190.5"/>
<text text-anchor="middle" x="1525.5" y="-197.5" font-family="Helvetica,sans-Serif" font-size="10.00">src/app/seamly2d/options.h</text>
</a>
</g>
</g>
<!-- Node2 -->
<g id="node2" class="node">
<title>Node2</title>
<g id="a_node2"><a xlink:href="../../d7/d61/application__2d_8h.html" target="_top" xlink:title=" ">
<polygon fill="white" stroke="black" points="1794,-123.5 1794,-153.5 1921,-153.5 1921,-123.5 1794,-123.5"/>
<text text-anchor="start" x="1802" y="-141.5" font-family="Helvetica,sans-Serif" font-size="10.00">src/app/seamly2d/core</text>
<text text-anchor="middle" x="1857.5" y="-130.5" font-family="Helvetica,sans-Serif" font-size="10.00">/application_2d.h</text>
</a>
</g>
</g>
<!-- Node1&#45;&gt;Node2 -->
<g id="edge1" class="edge">
<title>Node1&#45;&gt;Node2</title>
<path fill="none" stroke="midnightblue" d="M1582.93,-188.71C1641.72,-178.17 1732.85,-161.84 1793.81,-150.91"/>
<polygon fill="midnightblue" stroke="midnightblue" points="1582.29,-185.27 1573.07,-190.48 1583.53,-192.16 1582.29,-185.27"/>
</g>
<!-- Node4 -->
<g id="node4" class="node">
<title>Node4</title>
<g id="a_node4"><a xlink:href="../../d9/d7f/about2d__dialog_8cpp.html" target="_top" xlink:title=" ">
<polygon fill="white" stroke="black" points="0,-56.5 0,-86.5 141,-86.5 141,-56.5 0,-56.5"/>
<text text-anchor="start" x="8" y="-74.5" font-family="Helvetica,sans-Serif" font-size="10.00">src/app/seamly2d/dialogs</text>
<text text-anchor="middle" x="70.5" y="-63.5" font-family="Helvetica,sans-Serif" font-size="10.00">/about2d_dialog.cpp</text>
</a>
</g>
</g>
<!-- Node1&#45;&gt;Node4 -->
<g id="edge27" class="edge">
<title>Node1&#45;&gt;Node4</title>
<path fill="none" stroke="midnightblue" d="M1439.57,-199.27C1263.77,-198.94 850.61,-193.56 506.5,-154 371.09,-138.43 214.5,-105.43 130.75,-86.55"/>
<polygon fill="midnightblue" stroke="midnightblue" points="1439.79,-202.77 1449.79,-199.29 1439.79,-195.77 1439.79,-202.77"/>
</g>
<!-- Node5 -->
<g id="node5" class="node">
<title>Node5</title>
<g id="a_node5"><a xlink:href="../../d7/dfa/calculator__dialog_8cpp.html" target="_top" xlink:title=" ">
<polygon fill="white" stroke="black" points="159,-56.5 159,-86.5 300,-86.5 300,-56.5 159,-56.5"/>
<text text-anchor="start" x="167" y="-74.5" font-family="Helvetica,sans-Serif" font-size="10.00">src/app/seamly2d/dialogs</text>
<text text-anchor="middle" x="229.5" y="-63.5" font-family="Helvetica,sans-Serif" font-size="10.00">/calculator_dialog.cpp</text>
</a>
</g>
</g>
<!-- Node1&#45;&gt;Node5 -->
<g id="edge28" class="edge">
<title>Node1&#45;&gt;Node5</title>
<path fill="none" stroke="midnightblue" d="M1439.53,-196.96C1293.59,-192.86 988.23,-181.54 731.5,-154 576.77,-137.4 397.15,-105.03 300.25,-86.47"/>
<polygon fill="midnightblue" stroke="midnightblue" points="1439.66,-200.46 1449.75,-197.24 1439.85,-193.46 1439.66,-200.46"/>
</g>
<!-- Node9 -->
<g id="node9" class="node">
<title>Node9</title>
<g id="a_node9"><a xlink:href="../../dc/d20/preferencespathpage_8cpp.html" target="_top" xlink:title=" ">
<polygon fill="white" stroke="black" points="318,-56.5 318,-86.5 523,-86.5 523,-56.5 318,-56.5"/>
<text text-anchor="start" x="326" y="-74.5" font-family="Helvetica,sans-Serif" font-size="10.00">src/app/seamly2d/dialogs</text>
<text text-anchor="middle" x="420.5" y="-63.5" font-family="Helvetica,sans-Serif" font-size="10.00">/configpages/preferencespathpage.cpp</text>
</a>
</g>
</g>
<!-- Node1&#45;&gt;Node9 -->
<g id="edge29" class="edge">
<title>Node1&#45;&gt;Node9</title>
<path fill="none" stroke="midnightblue" d="M1439.51,-194.51C1325.26,-188.06 1117.28,-174.62 940.5,-154 857.85,-144.36 629.61,-107.19 504.77,-86.54"/>
<polygon fill="midnightblue" stroke="midnightblue" points="1439.41,-198.01 1449.59,-195.07 1439.8,-191.02 1439.41,-198.01"/>
</g>
<!-- Node13 -->
<g id="node13" class="node">
<title>Node13</title>
<g id="a_node13"><a xlink:href="../../d6/d89/dialoglayoutprogress_8cpp.html" target="_top" xlink:title=" ">
<polygon fill="white" stroke="black" points="541,-56.5 541,-86.5 684,-86.5 684,-56.5 541,-56.5"/>
<text text-anchor="start" x="549" y="-74.5" font-family="Helvetica,sans-Serif" font-size="10.00">src/app/seamly2d/dialogs</text>
<text text-anchor="middle" x="612.5" y="-63.5" font-family="Helvetica,sans-Serif" font-size="10.00">/dialoglayoutprogress.cpp</text>
</a>
</g>
</g>
<!-- Node1&#45;&gt;Node13 -->
<g id="edge30" class="edge">
<title>Node1&#45;&gt;Node13</title>
<path fill="none" stroke="midnightblue" d="M1443.73,-189.26C1294.27,-171.19 967.08,-130.32 692.5,-87 689.71,-86.56 686.87,-86.1 684,-85.63"/>
<polygon fill="midnightblue" stroke="midnightblue" points="1443.4,-192.75 1453.75,-190.47 1444.24,-185.8 1443.4,-192.75"/>
</g>
<!-- Node17 -->
<g id="node17" class="node">
<title>Node17</title>
<g id="a_node17"><a xlink:href="../../dd/d54/export__layout__dialog_8cpp.html" target="_top" xlink:title=" ">
<polygon fill="white" stroke="black" points="3979,-56.5 3979,-86.5 4122,-86.5 4122,-56.5 3979,-56.5"/>
<text text-anchor="start" x="3987" y="-74.5" font-family="Helvetica,sans-Serif" font-size="10.00">src/app/seamly2d/dialogs</text>
<text text-anchor="middle" x="4050.5" y="-63.5" font-family="Helvetica,sans-Serif" font-size="10.00">/export_layout_dialog.cpp</text>
</a>
</g>
</g>
<!-- Node1&#45;&gt;Node17 -->
<g id="edge35" class="edge">
<title>Node1&#45;&gt;Node17</title>
<path fill="none" stroke="midnightblue" d="M1611.47,-199.14C1926.97,-198.77 3050.49,-189.86 3969.5,-87 3972.48,-86.67 3975.52,-86.29 3978.58,-85.88"/>
<polygon fill="midnightblue" stroke="midnightblue" points="1611.03,-195.64 1601.04,-199.15 1611.04,-202.64 1611.03,-195.64"/>
</g>
<!-- Node25 -->
<g id="node25" class="node">
<title>Node25</title>
<g id="a_node25"><a xlink:href="../../d8/dd9/mainwindow_8cpp.html" target="_top" xlink:title=" ">
<polygon fill="white" stroke="black" points="4289.5,-0.5 4289.5,-19.5 4477.5,-19.5 4477.5,-0.5 4289.5,-0.5"/>
<text text-anchor="middle" x="4383.5" y="-7.5" font-family="Helvetica,sans-Serif" font-size="10.00">src/app/seamly2d/mainwindow.cpp</text>
</a>
</g>
</g>
<!-- Node1&#45;&gt;Node25 -->
<g id="edge36" class="edge">
<title>Node1&#45;&gt;Node25</title>
<path fill="none" stroke="midnightblue" d="M1611.39,-198.5C2064.74,-195.72 4163.89,-181.42 4298.5,-154 4376.06,-138.2 4419.3,-152.66 4463.5,-87 4471.19,-75.57 4470.46,-67.89 4463.5,-56 4452.8,-37.71 4431.63,-26.27 4413.75,-19.51"/>
<polygon fill="midnightblue" stroke="midnightblue" points="1611.28,-195 1601.3,-198.56 1611.32,-202 1611.28,-195"/>
</g>
<!-- Node28 -->
<g id="node28" class="node">
<title>Node28</title>
<g id="a_node28"><a xlink:href="../../d5/d4e/dialogpatternproperties_8h.html" target="_top" xlink:title=" ">
<polygon fill="white" stroke="black" points="4146,-123.5 4146,-153.5 4289,-153.5 4289,-123.5 4146,-123.5"/>
<text text-anchor="start" x="4154" y="-141.5" font-family="Helvetica,sans-Serif" font-size="10.00">src/app/seamly2d/dialogs</text>
<text text-anchor="middle" x="4217.5" y="-130.5" font-family="Helvetica,sans-Serif" font-size="10.00">/dialogpatternproperties.h</text>
</a>
</g>
</g>
<!-- Node1&#45;&gt;Node28 -->
<g id="edge31" class="edge">
<title>Node1&#45;&gt;Node28</title>
<path fill="none" stroke="midnightblue" d="M1611.3,-197.1C2020.5,-188.06 3769.58,-149.4 4145.96,-141.08"/>
<polygon fill="midnightblue" stroke="midnightblue" points="1610.94,-193.61 1601.02,-197.33 1611.09,-200.61 1610.94,-193.61"/>
</g>
<!-- Node3 -->
<g id="node3" class="node">
<title>Node3</title>
<g id="a_node3"><a xlink:href="../../df/d3e/application__2d_8cpp.html" target="_top" xlink:title=" ">
<polygon fill="white" stroke="black" points="2868,-56.5 2868,-86.5 2995,-86.5 2995,-56.5 2868,-56.5"/>
<text text-anchor="start" x="2876" y="-74.5" font-family="Helvetica,sans-Serif" font-size="10.00">src/app/seamly2d/core</text>
<text text-anchor="middle" x="2931.5" y="-63.5" font-family="Helvetica,sans-Serif" font-size="10.00">/application_2d.cpp</text>
</a>
</g>
</g>
<!-- Node2&#45;&gt;Node3 -->
<g id="edge2" class="edge">
<title>Node2&#45;&gt;Node3</title>
<path fill="none" stroke="midnightblue" d="M1931.12,-137.45C2097.2,-136.53 2513.45,-129.74 2858.5,-87 2861.58,-86.62 2864.72,-86.18 2867.89,-85.7"/>
<polygon fill="midnightblue" stroke="midnightblue" points="1931,-133.95 1921.02,-137.5 1931.04,-140.95 1931,-133.95"/>
</g>
<!-- Node2&#45;&gt;Node4 -->
<g id="edge3" class="edge">
<title>Node2&#45;&gt;Node4</title>
<path fill="none" stroke="midnightblue" d="M1783.61,-136.81C1499,-133.93 473.51,-121.32 149.5,-87 146.73,-86.71 143.9,-86.37 141.06,-86"/>
<polygon fill="midnightblue" stroke="midnightblue" points="1783.78,-140.31 1793.82,-136.91 1783.85,-133.31 1783.78,-140.31"/>
</g>
<!-- Node2&#45;&gt;Node5 -->
<g id="edge4" class="edge">
<title>Node2&#45;&gt;Node5</title>
<path fill="none" stroke="midnightblue" d="M1783.47,-136.55C1515.95,-132.89 599.72,-118.3 308.5,-87 305.73,-86.7 302.91,-86.36 300.06,-85.99"/>
<polygon fill="midnightblue" stroke="midnightblue" points="1783.8,-140.05 1793.85,-136.69 1783.9,-133.05 1783.8,-140.05"/>
</g>
<!-- Node6 -->
<g id="node6" class="node">
<title>Node6</title>
<g id="a_node6"><a xlink:href="../../d2/d2d/preferencesconfigurationpage_8cpp.html" target="_top" xlink:title=" ">
<polygon fill="white" stroke="black" points="3013,-56.5 3013,-86.5 3260,-86.5 3260,-56.5 3013,-56.5"/>
<text text-anchor="start" x="3021" y="-74.5" font-family="Helvetica,sans-Serif" font-size="10.00">src/app/seamly2d/dialogs</text>
<text text-anchor="middle" x="3136.5" y="-63.5" font-family="Helvetica,sans-Serif" font-size="10.00">/configpages/preferencesconfigurationpage.cpp</text>
</a>
</g>
</g>
<!-- Node2&#45;&gt;Node6 -->
<g id="edge5" class="edge">
<title>Node2&#45;&gt;Node6</title>
<path fill="none" stroke="midnightblue" d="M1931.27,-135.9C2113.47,-131.59 2599.35,-117.9 3003.5,-87 3006.63,-86.76 3009.79,-86.51 3012.99,-86.24"/>
<polygon fill="midnightblue" stroke="midnightblue" points="1931.18,-132.4 1921.26,-136.13 1931.34,-139.4 1931.18,-132.4"/>
</g>
<!-- Node7 -->
<g id="node7" class="node">
<title>Node7</title>
<g id="a_node7"><a xlink:href="../../d9/d70/preferencesgraphicsviewpage_8cpp.html" target="_top" xlink:title=" ">
<polygon fill="white" stroke="black" points="3278.5,-56.5 3278.5,-86.5 3526.5,-86.5 3526.5,-56.5 3278.5,-56.5"/>
<text text-anchor="start" x="3286.5" y="-74.5" font-family="Helvetica,sans-Serif" font-size="10.00">src/app/seamly2d/dialogs</text>
<text text-anchor="middle" x="3402.5" y="-63.5" font-family="Helvetica,sans-Serif" font-size="10.00">/configpages/preferencesgraphicsviewpage.cpp</text>
</a>
</g>
</g>
<!-- Node2&#45;&gt;Node7 -->
<g id="edge6" class="edge">
<title>Node2&#45;&gt;Node7</title>
<path fill="none" stroke="midnightblue" d="M1931.5,-136.73C2141.3,-134.14 2757.88,-123.72 3268.5,-87 3271.77,-86.77 3275.08,-86.51 3278.42,-86.24"/>
<polygon fill="midnightblue" stroke="midnightblue" points="1931.18,-133.23 1921.22,-136.85 1931.27,-140.23 1931.18,-133.23"/>
</g>
<!-- Node8 -->
<g id="node8" class="node">
<title>Node8</title>
<g id="a_node8"><a xlink:href="../../d2/d00/vtooloptionspropertybrowser_8cpp.html" target="_top" xlink:title=" ">
<polygon fill="white" stroke="black" points="3544.5,-56.5 3544.5,-86.5 3724.5,-86.5 3724.5,-56.5 3544.5,-56.5"/>
<text text-anchor="start" x="3552.5" y="-74.5" font-family="Helvetica,sans-Serif" font-size="10.00">src/app/seamly2d/core</text>
<text text-anchor="middle" x="3634.5" y="-63.5" font-family="Helvetica,sans-Serif" font-size="10.00">/vtooloptionspropertybrowser.cpp</text>
</a>
</g>
</g>
<!-- Node2&#45;&gt;Node8 -->
<g id="edge7" class="edge">
<title>Node2&#45;&gt;Node8</title>
<path fill="none" stroke="midnightblue" d="M1931.48,-136.41C2212.94,-132.09 3217.17,-115.01 3535.5,-87 3538.44,-86.74 3541.43,-86.45 3544.44,-86.14"/>
<polygon fill="midnightblue" stroke="midnightblue" points="1931.33,-132.91 1921.38,-136.56 1931.43,-139.91 1931.33,-132.91"/>
</g>
<!-- Node2&#45;&gt;Node9 -->
<g id="edge8" class="edge">
<title>Node2&#45;&gt;Node9</title>
<path fill="none" stroke="midnightblue" d="M1783.74,-137.06C1582.57,-135.36 1007.6,-127.08 531.5,-87 528.79,-86.77 526.04,-86.53 523.27,-86.26"/>
<polygon fill="midnightblue" stroke="midnightblue" points="1783.86,-140.57 1793.89,-137.15 1783.92,-133.57 1783.86,-140.57"/>
</g>
<!-- Node10 -->
<g id="node10" class="node">
<title>Node10</title>
<g id="a_node10"><a xlink:href="../../dc/d63/preferencespatternpage_8cpp.html" target="_top" xlink:title=" ">
<polygon fill="white" stroke="black" points="3742.5,-56.5 3742.5,-86.5 3960.5,-86.5 3960.5,-56.5 3742.5,-56.5"/>
<text text-anchor="start" x="3750.5" y="-74.5" font-family="Helvetica,sans-Serif" font-size="10.00">src/app/seamly2d/dialogs</text>
<text text-anchor="middle" x="3851.5" y="-63.5" font-family="Helvetica,sans-Serif" font-size="10.00">/configpages/preferencespatternpage.cpp</text>
</a>
</g>
</g>
<!-- Node2&#45;&gt;Node10 -->
<g id="edge9" class="edge">
<title>Node2&#45;&gt;Node10</title>
<path fill="none" stroke="midnightblue" d="M1931.44,-136.45C2233.37,-132.03 3373.87,-113.87 3733.5,-87 3736.38,-86.78 3739.3,-86.55 3742.25,-86.3"/>
<polygon fill="midnightblue" stroke="midnightblue" points="1931,-132.96 1921.05,-136.6 1931.1,-139.96 1931,-132.96"/>
</g>
<!-- Node11 -->
<g id="node11" class="node">
<title>Node11</title>
<g id="a_node11"><a xlink:href="../../dd/dc2/decimalchart__dialog_8cpp.html" target="_top" xlink:title=" ">
<polygon fill="white" stroke="black" points="702,-56.5 702,-86.5 843,-86.5 843,-56.5 702,-56.5"/>
<text text-anchor="start" x="710" y="-74.5" font-family="Helvetica,sans-Serif" font-size="10.00">src/app/seamly2d/dialogs</text>
<text text-anchor="middle" x="772.5" y="-63.5" font-family="Helvetica,sans-Serif" font-size="10.00">/decimalchart_dialog.cpp</text>
</a>
</g>
</g>
<!-- Node2&#45;&gt;Node11 -->
<g id="edge10" class="edge">
<title>Node2&#45;&gt;Node11</title>
<path fill="none" stroke="midnightblue" d="M1783.64,-137.05C1616.99,-135.31 1199.28,-126.97 852.5,-87 849.42,-86.64 846.27,-86.24 843.1,-85.81"/>
<polygon fill="midnightblue" stroke="midnightblue" points="1783.74,-140.55 1793.77,-137.15 1783.81,-133.55 1783.74,-140.55"/>
</g>
<!-- Node12 -->
<g id="node12" class="node">
<title>Node12</title>
<g id="a_node12"><a xlink:href="../../dd/db4/abstractlayout__dialog_8cpp.html" target="_top" xlink:title=" ">
<polygon fill="white" stroke="black" points="861.5,-56.5 861.5,-86.5 1007.5,-86.5 1007.5,-56.5 861.5,-56.5"/>
<text text-anchor="start" x="869.5" y="-74.5" font-family="Helvetica,sans-Serif" font-size="10.00">src/app/seamly2d/dialogs</text>
<text text-anchor="middle" x="934.5" y="-63.5" font-family="Helvetica,sans-Serif" font-size="10.00">/abstractlayout_dialog.cpp</text>
</a>
</g>
</g>
<!-- Node2&#45;&gt;Node12 -->
<g id="edge11" class="edge">
<title>Node2&#45;&gt;Node12</title>
<path fill="none" stroke="midnightblue" d="M1783.76,-135.92C1637.14,-132.15 1298.8,-120.32 1016.5,-87 1013.63,-86.66 1010.71,-86.29 1007.76,-85.88"/>
<polygon fill="midnightblue" stroke="midnightblue" points="1783.89,-139.43 1793.98,-136.18 1784.07,-132.43 1783.89,-139.43"/>
</g>
<!-- Node2&#45;&gt;Node13 -->
<g id="edge12" class="edge">
<title>Node2&#45;&gt;Node13</title>
<path fill="none" stroke="midnightblue" d="M1783.68,-137.77C1599.11,-137.71 1102.97,-132.88 692.5,-87 689.83,-86.7 687.12,-86.37 684.39,-86.01"/>
<polygon fill="midnightblue" stroke="midnightblue" points="1783.81,-141.27 1793.81,-137.77 1783.81,-134.27 1783.81,-141.27"/>
</g>
<!-- Node14 -->
<g id="node14" class="node">
<title>Node14</title>
<g id="a_node14"><a xlink:href="../../de/d87/dialognewpattern_8cpp.html" target="_top" xlink:title=" ">
<polygon fill="white" stroke="black" points="1026,-56.5 1026,-86.5 1167,-86.5 1167,-56.5 1026,-56.5"/>
<text text-anchor="start" x="1034" y="-74.5" font-family="Helvetica,sans-Serif" font-size="10.00">src/app/seamly2d/dialogs</text>
<text text-anchor="middle" x="1096.5" y="-63.5" font-family="Helvetica,sans-Serif" font-size="10.00">/dialognewpattern.cpp</text>
</a>
</g>
</g>
<!-- Node2&#45;&gt;Node14 -->
<g id="edge13" class="edge">
<title>Node2&#45;&gt;Node14</title>
<path fill="none" stroke="midnightblue" d="M1783.75,-134.27C1659.26,-128.32 1399.66,-113.7 1181.5,-87 1176.89,-86.44 1172.16,-85.8 1167.39,-85.11"/>
<polygon fill="midnightblue" stroke="midnightblue" points="1783.77,-137.78 1793.93,-134.76 1784.11,-130.79 1783.77,-137.78"/>
</g>
<!-- Node15 -->
<g id="node15" class="node">
<title>Node15</title>
<g id="a_node15"><a xlink:href="../../d5/d18/dialogpatternproperties_8cpp.html" target="_top" xlink:title=" ">
<polygon fill="white" stroke="black" points="4140,-56.5 4140,-86.5 4295,-86.5 4295,-56.5 4140,-56.5"/>
<text text-anchor="start" x="4148" y="-74.5" font-family="Helvetica,sans-Serif" font-size="10.00">src/app/seamly2d/dialogs</text>
<text text-anchor="middle" x="4217.5" y="-63.5" font-family="Helvetica,sans-Serif" font-size="10.00">/dialogpatternproperties.cpp</text>
</a>
</g>
</g>
<!-- Node2&#45;&gt;Node15 -->
<g id="edge14" class="edge">
<title>Node2&#45;&gt;Node15</title>
<path fill="none" stroke="midnightblue" d="M1931.49,-137.3C2271.92,-136.15 3689.88,-128.91 4131.5,-87 4134.21,-86.74 4136.97,-86.45 4139.75,-86.13"/>
<polygon fill="midnightblue" stroke="midnightblue" points="1931.24,-133.8 1921.26,-137.33 1931.27,-140.8 1931.24,-133.8"/>
</g>
<!-- Node16 -->
<g id="node16" class="node">
<title>Node16</title>
<g id="a_node16"><a xlink:href="../../d5/dc5/dialogpreferences_8cpp.html" target="_top" xlink:title=" ">
<polygon fill="white" stroke="black" points="1224,-56.5 1224,-86.5 1365,-86.5 1365,-56.5 1224,-56.5"/>
<text text-anchor="start" x="1232" y="-74.5" font-family="Helvetica,sans-Serif" font-size="10.00">src/app/seamly2d/dialogs</text>
<text text-anchor="middle" x="1294.5" y="-63.5" font-family="Helvetica,sans-Serif" font-size="10.00">/dialogpreferences.cpp</text>
</a>
</g>
</g>
<!-- Node2&#45;&gt;Node16 -->
<g id="edge15" class="edge">
<title>Node2&#45;&gt;Node16</title>
<path fill="none" stroke="midnightblue" d="M1783.79,-131.6C1688.72,-123.58 1518.33,-107.81 1373.5,-87 1370.74,-86.6 1367.93,-86.18 1365.09,-85.74"/>
<polygon fill="midnightblue" stroke="midnightblue" points="1783.63,-135.1 1793.88,-132.45 1784.21,-128.12 1783.63,-135.1"/>
</g>
<!-- Node2&#45;&gt;Node17 -->
<g id="edge16" class="edge">
<title>Node2&#45;&gt;Node17</title>
<path fill="none" stroke="midnightblue" d="M1931.12,-136.41C2280.6,-131.15 3763.7,-107.76 3969.5,-87 3972.48,-86.7 3975.53,-86.35 3978.59,-85.96"/>
<polygon fill="midnightblue" stroke="midnightblue" points="1931.06,-132.91 1921.12,-136.56 1931.17,-139.91 1931.06,-132.91"/>
</g>
<!-- Node18 -->
<g id="node18" class="node">
<title>Node18</title>
<g id="a_node18"><a xlink:href="../../db/d5c/groups__widget_8cpp.html" target="_top" xlink:title=" ">
<polygon fill="white" stroke="black" points="1383,-56.5 1383,-86.5 1524,-86.5 1524,-56.5 1383,-56.5"/>
<text text-anchor="start" x="1391" y="-74.5" font-family="Helvetica,sans-Serif" font-size="10.00">src/app/seamly2d/dialogs</text>
<text text-anchor="middle" x="1453.5" y="-63.5" font-family="Helvetica,sans-Serif" font-size="10.00">/groups_widget.cpp</text>
</a>
</g>
</g>
<!-- Node2&#45;&gt;Node18 -->
<g id="edge17" class="edge">
<title>Node2&#45;&gt;Node18</title>
<path fill="none" stroke="midnightblue" d="M1783.61,-126.61C1717.67,-116.75 1618.54,-101.58 1532.5,-87 1529.75,-86.53 1526.95,-86.05 1524.12,-85.56"/>
<polygon fill="midnightblue" stroke="midnightblue" points="1783.49,-130.13 1793.9,-128.14 1784.52,-123.2 1783.49,-130.13"/>
</g>
<!-- Node19 -->
<g id="node19" class="node">
<title>Node19</title>
<g id="a_node19"><a xlink:href="../../d0/dfa/layoutsettings__dialog_8cpp.html" target="_top" xlink:title=" ">
<polygon fill="white" stroke="black" points="1542,-56.5 1542,-86.5 1687,-86.5 1687,-56.5 1542,-56.5"/>
<text text-anchor="start" x="1550" y="-74.5" font-family="Helvetica,sans-Serif" font-size="10.00">src/app/seamly2d/dialogs</text>
<text text-anchor="middle" x="1614.5" y="-63.5" font-family="Helvetica,sans-Serif" font-size="10.00">/layoutsettings_dialog.cpp</text>
</a>
</g>
</g>
<!-- Node2&#45;&gt;Node19 -->
<g id="edge18" class="edge">
<title>Node2&#45;&gt;Node19</title>
<path fill="none" stroke="midnightblue" d="M1795.25,-120.85C1755.64,-110.25 1704.89,-96.68 1667.25,-86.61"/>
<polygon fill="midnightblue" stroke="midnightblue" points="1794.51,-124.27 1805.07,-123.48 1796.32,-117.51 1794.51,-124.27"/>
</g>
<!-- Node20 -->
<g id="node20" class="node">
<title>Node20</title>
<g id="a_node20"><a xlink:href="../../df/d69/welcome__dialog_8cpp.html" target="_top" xlink:title=" ">
<polygon fill="white" stroke="black" points="1705,-56.5 1705,-86.5 1846,-86.5 1846,-56.5 1705,-56.5"/>
<text text-anchor="start" x="1713" y="-74.5" font-family="Helvetica,sans-Serif" font-size="10.00">src/app/seamly2d/dialogs</text>
<text text-anchor="middle" x="1775.5" y="-63.5" font-family="Helvetica,sans-Serif" font-size="10.00">/welcome_dialog.cpp</text>
</a>
</g>
</g>
<!-- Node2&#45;&gt;Node20 -->
<g id="edge19" class="edge">
<title>Node2&#45;&gt;Node20</title>
<path fill="none" stroke="midnightblue" d="M1831.85,-117.17C1819.31,-107.23 1804.53,-95.51 1793.26,-86.58"/>
<polygon fill="midnightblue" stroke="midnightblue" points="1829.7,-119.93 1839.71,-123.4 1834.04,-114.44 1829.7,-119.93"/>
</g>
<!-- Node21 -->
<g id="node21" class="node">
<title>Node21</title>
<g id="a_node21"><a xlink:href="../../dc/d14/app_2seamly2d_2main_8cpp.html" target="_top" xlink:title=" ">
<polygon fill="white" stroke="black" points="1864,-62 1864,-81 2015,-81 2015,-62 1864,-62"/>
<text text-anchor="middle" x="1939.5" y="-69" font-family="Helvetica,sans-Serif" font-size="10.00">src/app/seamly2d/main.cpp</text>
</a>
</g>
</g>
<!-- Node2&#45;&gt;Node21 -->
<g id="edge20" class="edge">
<title>Node2&#45;&gt;Node21</title>
<path fill="none" stroke="midnightblue" d="M1883.35,-117.01C1898.57,-104.94 1917.04,-90.3 1928.53,-81.19"/>
<polygon fill="midnightblue" stroke="midnightblue" points="1880.96,-114.44 1875.29,-123.4 1885.3,-119.93 1880.96,-114.44"/>
</g>
<!-- Node22 -->
<g id="node22" class="node">
<title>Node22</title>
<g id="a_node22"><a xlink:href="../../dd/d84/shortcuts__dialog_8cpp.html" target="_top" xlink:title=" ">
<polygon fill="white" stroke="black" points="2033,-56.5 2033,-86.5 2174,-86.5 2174,-56.5 2033,-56.5"/>
<text text-anchor="start" x="2041" y="-74.5" font-family="Helvetica,sans-Serif" font-size="10.00">src/app/seamly2d/dialogs</text>
<text text-anchor="middle" x="2103.5" y="-63.5" font-family="Helvetica,sans-Serif" font-size="10.00">/shortcuts_dialog.cpp</text>
</a>
</g>
</g>
<!-- Node2&#45;&gt;Node22 -->
<g id="edge21" class="edge">
<title>Node2&#45;&gt;Node22</title>
<path fill="none" stroke="midnightblue" d="M1920.26,-120.92C1960.4,-110.31 2011.92,-96.7 2050.1,-86.61"/>
<polygon fill="midnightblue" stroke="midnightblue" points="1919.35,-117.54 1910.58,-123.48 1921.14,-124.31 1919.35,-117.54"/>
</g>
<!-- Node23 -->
<g id="node23" class="node">
<title>Node23</title>
<g id="a_node23"><a xlink:href="../../d2/df4/show__info__dialog_8cpp.html" target="_top" xlink:title=" ">
<polygon fill="white" stroke="black" points="2192,-56.5 2192,-86.5 2333,-86.5 2333,-56.5 2192,-56.5"/>
<text text-anchor="start" x="2200" y="-74.5" font-family="Helvetica,sans-Serif" font-size="10.00">src/app/seamly2d/dialogs</text>
<text text-anchor="middle" x="2262.5" y="-63.5" font-family="Helvetica,sans-Serif" font-size="10.00">/show_info_dialog.cpp</text>
</a>
</g>
</g>
<!-- Node2&#45;&gt;Node23 -->
<g id="edge22" class="edge">
<title>Node2&#45;&gt;Node23</title>
<path fill="none" stroke="midnightblue" d="M1931.39,-126.56C1997.31,-116.67 2096.45,-101.48 2182.5,-87 2185.56,-86.48 2188.69,-85.95 2191.85,-85.41"/>
<polygon fill="midnightblue" stroke="midnightblue" points="1930.47,-123.16 1921.1,-128.1 1931.51,-130.08 1930.47,-123.16"/>
</g>
<!-- Node24 -->
<g id="node24" class="node">
<title>Node24</title>
<g id="a_node24"><a xlink:href="../../d8/de8/mainwindowsnogui_8cpp.html" target="_top" xlink:title=" ">
<polygon fill="white" stroke="black" points="2351,-62 2351,-81 2572,-81 2572,-62 2351,-62"/>
<text text-anchor="middle" x="2461.5" y="-69" font-family="Helvetica,sans-Serif" font-size="10.00">src/app/seamly2d/mainwindowsnogui.cpp</text>
</a>
</g>
</g>
<!-- Node2&#45;&gt;Node24 -->
<g id="edge23" class="edge">
<title>Node2&#45;&gt;Node24</title>
<path fill="none" stroke="midnightblue" d="M1931.42,-130.16C2026.39,-120.65 2196.3,-103.35 2341.5,-87 2358.08,-85.13 2375.93,-83.03 2392.67,-81.01"/>
<polygon fill="midnightblue" stroke="midnightblue" points="1930.95,-126.69 1921.35,-131.17 1931.65,-133.66 1930.95,-126.69"/>
</g>
<!-- Node2&#45;&gt;Node25 -->
<g id="edge24" class="edge">
<title>Node2&#45;&gt;Node25</title>
<path fill="none" stroke="midnightblue" d="M1783.48,-137.2C1622.62,-135.79 1252.46,-128.06 1214.5,-87 1205.15,-76.88 1204.83,-65.81 1214.5,-56 1242.2,-27.91 3765.74,-14.02 4289.12,-11.45"/>
<polygon fill="midnightblue" stroke="midnightblue" points="1783.74,-140.71 1793.77,-137.29 1783.8,-133.71 1783.74,-140.71"/>
</g>
<!-- Node26 -->
<g id="node26" class="node">
<title>Node26</title>
<g id="a_node26"><a xlink:href="../../d3/d49/vpattern_8cpp.html" target="_top" xlink:title=" ">
<polygon fill="white" stroke="black" points="2590,-56.5 2590,-86.5 2715,-86.5 2715,-56.5 2590,-56.5"/>
<text text-anchor="start" x="2598" y="-74.5" font-family="Helvetica,sans-Serif" font-size="10.00">src/app/seamly2d/xml</text>
<text text-anchor="middle" x="2652.5" y="-63.5" font-family="Helvetica,sans-Serif" font-size="10.00">/vpattern.cpp</text>
</a>
</g>
</g>
<!-- Node2&#45;&gt;Node26 -->
<g id="edge25" class="edge">
<title>Node2&#45;&gt;Node26</title>
<path fill="none" stroke="midnightblue" d="M1931.45,-135.48C2062.68,-131.2 2344.67,-118.85 2580.5,-87 2583.53,-86.59 2586.63,-86.13 2589.75,-85.63"/>
<polygon fill="midnightblue" stroke="midnightblue" points="1931.01,-131.99 1921.13,-135.81 1931.23,-138.99 1931.01,-131.99"/>
</g>
<!-- Node27 -->
<g id="node27" class="node">
<title>Node27</title>
<g id="a_node27"><a xlink:href="../../d9/da3/image__tool_8cpp.html" target="_top" xlink:title=" ">
<polygon fill="white" stroke="black" points="2733,-56.5 2733,-86.5 2850,-86.5 2850,-56.5 2733,-56.5"/>
<text text-anchor="start" x="2741" y="-74.5" font-family="Helvetica,sans-Serif" font-size="10.00">src/libs/tools/images</text>
<text text-anchor="middle" x="2791.5" y="-63.5" font-family="Helvetica,sans-Serif" font-size="10.00">/image_tool.cpp</text>
</a>
</g>
</g>
<!-- Node2&#45;&gt;Node27 -->
<g id="edge26" class="edge">
<title>Node2&#45;&gt;Node27</title>
<path fill="none" stroke="midnightblue" d="M1931.11,-136.97C2080.95,-135.06 2431.89,-126.36 2723.5,-87 2726.61,-86.58 2729.79,-86.1 2732.99,-85.57"/>
<polygon fill="midnightblue" stroke="midnightblue" points="1931.06,-133.47 1921.11,-137.09 1931.15,-140.47 1931.06,-133.47"/>
</g>
<!-- Node28&#45;&gt;Node15 -->
<g id="edge32" class="edge">
<title>Node28&#45;&gt;Node15</title>
<path fill="none" stroke="midnightblue" d="M4217.5,-113.11C4217.5,-104.15 4217.5,-94.32 4217.5,-86.58"/>
<polygon fill="midnightblue" stroke="midnightblue" points="4214,-113.4 4217.5,-123.4 4221,-113.4 4214,-113.4"/>
</g>
<!-- Node29 -->
<g id="node29" class="node">
<title>Node29</title>
<g id="a_node29"><a xlink:href="../../d6/d64/dialogs_8h.html" target="_top" xlink:title=" ">
<polygon fill="white" stroke="black" points="4313,-56.5 4313,-86.5 4454,-86.5 4454,-56.5 4313,-56.5"/>
<text text-anchor="start" x="4321" y="-74.5" font-family="Helvetica,sans-Serif" font-size="10.00">src/app/seamly2d/dialogs</text>
<text text-anchor="middle" x="4383.5" y="-63.5" font-family="Helvetica,sans-Serif" font-size="10.00">/dialogs.h</text>
</a>
</g>
</g>
<!-- Node28&#45;&gt;Node29 -->
<g id="edge33" class="edge">
<title>Node28&#45;&gt;Node29</title>
<path fill="none" stroke="midnightblue" d="M4263.01,-119.68C4289.63,-109.26 4322.77,-96.28 4347.55,-86.58"/>
<polygon fill="midnightblue" stroke="midnightblue" points="4261.55,-116.49 4253.52,-123.4 4264.11,-123.01 4261.55,-116.49"/>
</g>
<!-- Node29&#45;&gt;Node25 -->
<g id="edge34" class="edge">
<title>Node29&#45;&gt;Node25</title>
<path fill="none" stroke="midnightblue" d="M4383.5,-46.29C4383.5,-36.86 4383.5,-26.65 4383.5,-19.66"/>
<polygon fill="midnightblue" stroke="midnightblue" points="4380,-46.4 4383.5,-56.4 4387,-46.4 4380,-46.4"/>
</g>
</g>
</svg>
