<?xml version="1.0" encoding="UTF-8" standalone="no"?>
<!DOCTYPE svg PUBLIC "-//W3C//DTD SVG 1.1//EN"
 "http://www.w3.org/Graphics/SVG/1.1/DTD/svg11.dtd">
<!-- Generated by graphviz version 2.43.0 (0)
 -->
<!-- Title: src/app/seamly2d/options.h Pages: 1 -->
<!--zoomable 218 -->
<svg id="main" version="1.1" xmlns="http://www.w3.org/2000/svg" xmlns:xlink="http://www.w3.org/1999/xlink" xml:space="preserve" onload="init(evt)">
<style type="text/css"><![CDATA[
.edge:hover path { stroke: red; }
.edge:hover polygon { stroke: red; fill: red; }
]]></style>
<script type="text/javascript"><![CDATA[
var edges = document.getElementsByTagName('g');
if (edges && edges.length) {
  for (var i=0;i<edges.length;i++) {
    if (edges[i].id.substr(0,4)=='edge') {
      edges[i].setAttribute('class','edge');
    }
  }
}
]]></script>
        <defs>
                <circle id="rim" cx="0" cy="0" r="7"/>
                <circle id="rim2" cx="0" cy="0" r="3.5"/>
                <g id="zoomPlus">
                        <use xlink:href="#rim" fill="#404040">
                                <set attributeName="fill" to="#808080" begin="zoomplus.mouseover" end="zoomplus.mouseout"/>
                        </use>
                        <path d="M-4,0h8M0,-4v8" fill="none" stroke="white" stroke-width="1.5" pointer-events="none"/>
                </g>
                <g id="zoomMin">
                        <use xlink:href="#rim" fill="#404040">
                                <set attributeName="fill" to="#808080" begin="zoomminus.mouseover" end="zoomminus.mouseout"/>
                        </use>
                        <path d="M-4,0h8" fill="none" stroke="white" stroke-width="1.5" pointer-events="none"/>
                </g>
                <g id="dirArrow">
                        <path fill="none" stroke="white" stroke-width="1.5" d="M0,-3.0v7 M-2.5,-0.5L0,-3.0L2.5,-0.5"/>
                </g>
               <g id="resetDef">
                       <use xlink:href="#rim2" fill="#404040">
                               <set attributeName="fill" to="#808080" begin="reset.mouseover" end="reset.mouseout"/>
                       </use>
               </g>
        </defs>

<script type="text/javascript">
var viewWidth = 4488;
var viewHeight = 218;
var sectionId = 'dynsection-1';
</script>
<script xlink:href="../../svgpan.js"/>
<svg id="graph" class="graph">
<g id="viewport">
<title>src/app/seamly2d/options.h</title>
<polygon fill="white" stroke="transparent" points="-4,4 -4,-214 4483.5,-214 4483.5,4 -4,4"/>
<!-- Node1 -->
<g id="node1" class="node">
<title>Node1</title>
<g id="a_node1"><a xlink:title=" ">
<polygon fill="#bfbfbf" stroke="black" points="1624,-190.5 1624,-209.5 1775,-209.5 1775,-190.5 1624,-190.5"/>
<text text-anchor="middle" x="1699.5" y="-197.5" font-family="Helvetica,sans-Serif" font-size="10.00">src/app/seamly2d/options.h</text>
</a>
</g>
</g>
<!-- Node2 -->
<g id="node2" class="node">
<title>Node2</title>
<g id="a_node2"><a xlink:href="../../d7/d61/application__2d_8h.html" target="_top" xlink:title=" ">
<polygon fill="white" stroke="black" points="2026,-123.5 2026,-153.5 2153,-153.5 2153,-123.5 2026,-123.5"/>
<text text-anchor="start" x="2034" y="-141.5" font-family="Helvetica,sans-Serif" font-size="10.00">src/app/seamly2d/core</text>
<text text-anchor="middle" x="2089.5" y="-130.5" font-family="Helvetica,sans-Serif" font-size="10.00">/application_2d.h</text>
</a>
</g>
</g>
<!-- Node1&#45;&gt;Node2 -->
<g id="edge1" class="edge">
<title>Node1&#45;&gt;Node2</title>
<path fill="none" stroke="midnightblue" d="M1765.34,-188.96C1838.02,-177.87 1954.21,-160.14 2025.96,-149.19"/>
<polygon fill="midnightblue" stroke="midnightblue" points="1764.74,-185.51 1755.38,-190.48 1765.79,-192.43 1764.74,-185.51"/>
</g>
<!-- Node5 -->
<g id="node5" class="node">
<title>Node5</title>
<g id="a_node5"><a xlink:href="../../d9/d7f/about2d__dialog_8cpp.html" target="_top" xlink:title=" ">
<polygon fill="white" stroke="black" points="0,-56.5 0,-86.5 141,-86.5 141,-56.5 0,-56.5"/>
<text text-anchor="start" x="8" y="-74.5" font-family="Helvetica,sans-Serif" font-size="10.00">src/app/seamly2d/dialogs</text>
<text text-anchor="middle" x="70.5" y="-63.5" font-family="Helvetica,sans-Serif" font-size="10.00">/about2d_dialog.cpp</text>
</a>
</g>
</g>
<!-- Node1&#45;&gt;Node5 -->
<g id="edge27" class="edge">
<title>Node1&#45;&gt;Node5</title>
<path fill="none" stroke="midnightblue" d="M1613.6,-199.5C1420.99,-199.78 940.15,-195.82 540.5,-154 394.51,-138.72 225.37,-105.53 135.12,-86.56"/>
<polygon fill="midnightblue" stroke="midnightblue" points="1613.67,-203 1623.66,-199.48 1613.65,-196 1613.67,-203"/>
</g>
<!-- Node6 -->
<g id="node6" class="node">
<title>Node6</title>
<g id="a_node6"><a xlink:href="../../d7/dfa/calculator__dialog_8cpp.html" target="_top" xlink:title=" ">
<polygon fill="white" stroke="black" points="159,-56.5 159,-86.5 300,-86.5 300,-56.5 159,-56.5"/>
<text text-anchor="start" x="167" y="-74.5" font-family="Helvetica,sans-Serif" font-size="10.00">src/app/seamly2d/dialogs</text>
<text text-anchor="middle" x="229.5" y="-63.5" font-family="Helvetica,sans-Serif" font-size="10.00">/calculator_dialog.cpp</text>
</a>
</g>
</g>
<!-- Node1&#45;&gt;Node6 -->
<g id="edge28" class="edge">
<title>Node1&#45;&gt;Node6</title>
<path fill="none" stroke="midnightblue" d="M1613.55,-197.43C1450.69,-193.87 1086.07,-183.11 780.5,-154 675.04,-143.95 413.07,-104.01 308.5,-87 305.75,-86.55 302.94,-86.09 300.11,-85.61"/>
<polygon fill="midnightblue" stroke="midnightblue" points="1613.91,-200.94 1623.98,-197.65 1614.06,-193.94 1613.91,-200.94"/>
</g>
<!-- Node8 -->
<g id="node8" class="node">
<title>Node8</title>
<g id="a_node8"><a xlink:href="../../dc/d20/preferencespathpage_8cpp.html" target="_top" xlink:title=" ">
<polygon fill="white" stroke="black" points="318,-56.5 318,-86.5 523,-86.5 523,-56.5 318,-56.5"/>
<text text-anchor="start" x="326" y="-74.5" font-family="Helvetica,sans-Serif" font-size="10.00">src/app/seamly2d/dialogs</text>
<text text-anchor="middle" x="420.5" y="-63.5" font-family="Helvetica,sans-Serif" font-size="10.00">/configpages/preferencespathpage.cpp</text>
</a>
</g>
</g>
<!-- Node1&#45;&gt;Node8 -->
<g id="edge29" class="edge">
<title>Node1&#45;&gt;Node8</title>
<path fill="none" stroke="midnightblue" d="M1613.95,-196.66C1476.77,-192.26 1199.23,-180.67 965.5,-154 882.67,-144.55 862.9,-135.68 780.5,-123 693.8,-109.66 595.11,-95.92 523.02,-86.14"/>
<polygon fill="midnightblue" stroke="midnightblue" points="1613.88,-200.16 1623.99,-196.98 1614.1,-193.17 1613.88,-200.16"/>
</g>
<!-- Node12 -->
<g id="node12" class="node">
<title>Node12</title>
<g id="a_node12"><a xlink:href="../../d6/d89/dialoglayoutprogress_8cpp.html" target="_top" xlink:title=" ">
<polygon fill="white" stroke="black" points="541,-56.5 541,-86.5 684,-86.5 684,-56.5 541,-56.5"/>
<text text-anchor="start" x="549" y="-74.5" font-family="Helvetica,sans-Serif" font-size="10.00">src/app/seamly2d/dialogs</text>
<text text-anchor="middle" x="612.5" y="-63.5" font-family="Helvetica,sans-Serif" font-size="10.00">/dialoglayoutprogress.cpp</text>
</a>
</g>
</g>
<!-- Node1&#45;&gt;Node12 -->
<g id="edge30" class="edge">
<title>Node1&#45;&gt;Node12</title>
<path fill="none" stroke="midnightblue" d="M1613.76,-191.39C1439.8,-175.51 1033.04,-136.24 693.5,-87 690.39,-86.55 687.22,-86.07 684.01,-85.57"/>
<polygon fill="midnightblue" stroke="midnightblue" points="1613.6,-194.89 1623.88,-192.31 1614.24,-187.92 1613.6,-194.89"/>
</g>
<!-- Node17 -->
<g id="node17" class="node">
<title>Node17</title>
<g id="a_node17"><a xlink:href="../../dd/d54/export__layout__dialog_8cpp.html" target="_top" xlink:title=" ">
<polygon fill="white" stroke="black" points="3981,-56.5 3981,-86.5 4124,-86.5 4124,-56.5 3981,-56.5"/>
<text text-anchor="start" x="3989" y="-74.5" font-family="Helvetica,sans-Serif" font-size="10.00">src/app/seamly2d/dialogs</text>
<text text-anchor="middle" x="4052.5" y="-63.5" font-family="Helvetica,sans-Serif" font-size="10.00">/export_layout_dialog.cpp</text>
</a>
</g>
</g>
<!-- Node1&#45;&gt;Node17 -->
<g id="edge35" class="edge">
<title>Node1&#45;&gt;Node17</title>
<path fill="none" stroke="midnightblue" d="M1785.71,-198.71C2087.38,-196.87 3123.19,-183.44 3971.5,-87 3974.48,-86.66 3977.52,-86.28 3980.58,-85.87"/>
<polygon fill="midnightblue" stroke="midnightblue" points="1785.27,-195.22 1775.29,-198.77 1785.31,-202.22 1785.27,-195.22"/>
</g>
<!-- Node25 -->
<g id="node25" class="node">
<title>Node25</title>
<g id="a_node25"><a xlink:href="../../d8/dd9/mainwindow_8cpp.html" target="_top" xlink:title=" ">
<polygon fill="white" stroke="black" points="4291.5,-0.5 4291.5,-19.5 4479.5,-19.5 4479.5,-0.5 4291.5,-0.5"/>
<text text-anchor="middle" x="4385.5" y="-7.5" font-family="Helvetica,sans-Serif" font-size="10.00">src/app/seamly2d/mainwindow.cpp</text>
</a>
</g>
</g>
<!-- Node1&#45;&gt;Node25 -->
<g id="edge36" class="edge">
<title>Node1&#45;&gt;Node25</title>
<path fill="none" stroke="midnightblue" d="M1785.27,-198.4C2221.01,-195.24 4173.81,-179.68 4299.5,-154 4377.05,-138.16 4420.3,-152.66 4464.5,-87 4472.19,-75.57 4471.42,-67.91 4464.5,-56 4453.95,-37.85 4433.04,-26.41 4415.38,-19.61"/>
<polygon fill="midnightblue" stroke="midnightblue" points="1785.23,-194.9 1775.26,-198.47 1785.28,-201.9 1785.23,-194.9"/>
</g>
<!-- Node28 -->
<g id="node28" class="node">
<title>Node28</title>
<g id="a_node28"><a xlink:href="../../d5/d4e/dialogpatternproperties_8h.html" target="_top" xlink:title=" ">
<polygon fill="white" stroke="black" points="4148,-123.5 4148,-153.5 4291,-153.5 4291,-123.5 4148,-123.5"/>
<text text-anchor="start" x="4156" y="-141.5" font-family="Helvetica,sans-Serif" font-size="10.00">src/app/seamly2d/dialogs</text>
<text text-anchor="middle" x="4219.5" y="-130.5" font-family="Helvetica,sans-Serif" font-size="10.00">/dialogpatternproperties.h</text>
</a>
</g>
</g>
<!-- Node1&#45;&gt;Node28 -->
<g id="edge31" class="edge">
<title>Node1&#45;&gt;Node28</title>
<path fill="none" stroke="midnightblue" d="M1785.38,-196.97C2176.7,-187.73 3787.38,-149.7 4147.75,-141.19"/>
<polygon fill="midnightblue" stroke="midnightblue" points="1785.18,-193.48 1775.26,-197.21 1785.34,-200.47 1785.18,-193.48"/>
</g>
<!-- Node3 -->
<g id="node3" class="node">
<title>Node3</title>
<g id="a_node3"><a xlink:href="../../df/d3e/application__2d_8cpp.html" target="_top" xlink:title=" ">
<polygon fill="white" stroke="black" points="2980,-56.5 2980,-86.5 3107,-86.5 3107,-56.5 2980,-56.5"/>
<text text-anchor="start" x="2988" y="-74.5" font-family="Helvetica,sans-Serif" font-size="10.00">src/app/seamly2d/core</text>
<text text-anchor="middle" x="3043.5" y="-63.5" font-family="Helvetica,sans-Serif" font-size="10.00">/application_2d.cpp</text>
</a>
</g>
</g>
<!-- Node2&#45;&gt;Node3 -->
<g id="edge2" class="edge">
<title>Node2&#45;&gt;Node3</title>
<path fill="none" stroke="midnightblue" d="M2163.2,-136.72C2314.91,-134.37 2672.82,-124.91 2970.5,-87 2973.58,-86.61 2976.72,-86.16 2979.88,-85.68"/>
<polygon fill="midnightblue" stroke="midnightblue" points="2163.02,-133.23 2153.08,-136.88 2163.13,-140.23 2163.02,-133.23"/>
</g>
<!-- Node4 -->
<g id="node4" class="node">
<title>Node4</title>
<g id="a_node4"><a xlink:href="../../dd/db4/abstractlayout__dialog_8cpp.html" target="_top" xlink:title=" ">
<polygon fill="white" stroke="black" points="3125.5,-56.5 3125.5,-86.5 3271.5,-86.5 3271.5,-56.5 3125.5,-56.5"/>
<text text-anchor="start" x="3133.5" y="-74.5" font-family="Helvetica,sans-Serif" font-size="10.00">src/app/seamly2d/dialogs</text>
<text text-anchor="middle" x="3198.5" y="-63.5" font-family="Helvetica,sans-Serif" font-size="10.00">/abstractlayout_dialog.cpp</text>
</a>
</g>
</g>
<!-- Node2&#45;&gt;Node4 -->
<g id="edge3" class="edge">
<title>Node2&#45;&gt;Node4</title>
<path fill="none" stroke="midnightblue" d="M2163.08,-137C2331.94,-135.16 2760.08,-126.64 3115.5,-87 3118.7,-86.64 3121.96,-86.24 3125.25,-85.8"/>
<polygon fill="midnightblue" stroke="midnightblue" points="2163.02,-133.5 2153.06,-137.1 2163.09,-140.5 2163.02,-133.5"/>
</g>
<!-- Node2&#45;&gt;Node5 -->
<g id="edge4" class="edge">
<title>Node2&#45;&gt;Node5</title>
<path fill="none" stroke="midnightblue" d="M2015.52,-137.11C1706.98,-135.27 521.43,-125.74 149.5,-87 146.73,-86.71 143.9,-86.38 141.06,-86.01"/>
<polygon fill="midnightblue" stroke="midnightblue" points="2015.68,-140.61 2025.7,-137.17 2015.72,-133.61 2015.68,-140.61"/>
</g>
<!-- Node2&#45;&gt;Node6 -->
<g id="edge5" class="edge">
<title>Node2&#45;&gt;Node6</title>
<path fill="none" stroke="midnightblue" d="M2015.86,-136.92C1723.96,-134.37 647.67,-122.72 308.5,-87 305.73,-86.71 302.9,-86.37 300.06,-86"/>
<polygon fill="midnightblue" stroke="midnightblue" points="2015.88,-140.42 2025.91,-137 2015.94,-133.42 2015.88,-140.42"/>
</g>
<!-- Node7 -->
<g id="node7" class="node">
<title>Node7</title>
<g id="a_node7"><a xlink:href="../../d2/d2d/preferencesconfigurationpage_8cpp.html" target="_top" xlink:title=" ">
<polygon fill="white" stroke="black" points="3290,-56.5 3290,-86.5 3537,-86.5 3537,-56.5 3290,-56.5"/>
<text text-anchor="start" x="3298" y="-74.5" font-family="Helvetica,sans-Serif" font-size="10.00">src/app/seamly2d/dialogs</text>
<text text-anchor="middle" x="3413.5" y="-63.5" font-family="Helvetica,sans-Serif" font-size="10.00">/configpages/preferencesconfigurationpage.cpp</text>
</a>
</g>
</g>
<!-- Node2&#45;&gt;Node7 -->
<g id="edge6" class="edge">
<title>Node2&#45;&gt;Node7</title>
<path fill="none" stroke="midnightblue" d="M2163.45,-136.07C2350.65,-132.07 2858.46,-118.92 3280.5,-87 3283.63,-86.76 3286.79,-86.51 3289.99,-86.25"/>
<polygon fill="midnightblue" stroke="midnightblue" points="2163.1,-132.57 2153.17,-136.28 2163.25,-139.57 2163.1,-132.57"/>
</g>
<!-- Node2&#45;&gt;Node8 -->
<g id="edge7" class="edge">
<title>Node2&#45;&gt;Node8</title>
<path fill="none" stroke="midnightblue" d="M2015.63,-137.66C1791.77,-137.59 1101.38,-133.35 531.5,-87 528.79,-86.78 526.04,-86.54 523.27,-86.28"/>
<polygon fill="midnightblue" stroke="midnightblue" points="2015.93,-141.16 2025.93,-137.66 2015.93,-134.16 2015.93,-141.16"/>
</g>
<!-- Node9 -->
<g id="node9" class="node">
<title>Node9</title>
<g id="a_node9"><a xlink:href="../../d9/d70/preferencesgraphicsviewpage_8cpp.html" target="_top" xlink:title=" ">
<polygon fill="white" stroke="black" points="3555.5,-56.5 3555.5,-86.5 3803.5,-86.5 3803.5,-56.5 3555.5,-56.5"/>
<text text-anchor="start" x="3563.5" y="-74.5" font-family="Helvetica,sans-Serif" font-size="10.00">src/app/seamly2d/dialogs</text>
<text text-anchor="middle" x="3679.5" y="-63.5" font-family="Helvetica,sans-Serif" font-size="10.00">/configpages/preferencesgraphicsviewpage.cpp</text>
</a>
</g>
</g>
<!-- Node2&#45;&gt;Node9 -->
<g id="edge8" class="edge">
<title>Node2&#45;&gt;Node9</title>
<path fill="none" stroke="midnightblue" d="M2163.26,-136.85C2377.23,-134.54 3016.47,-124.75 3545.5,-87 3548.77,-86.77 3552.08,-86.52 3555.42,-86.25"/>
<polygon fill="midnightblue" stroke="midnightblue" points="2163.06,-133.35 2153.1,-136.95 2163.13,-140.35 2163.06,-133.35"/>
</g>
<!-- Node10 -->
<g id="node10" class="node">
<title>Node10</title>
<g id="a_node10"><a xlink:href="../../dd/dc2/decimalchart__dialog_8cpp.html" target="_top" xlink:title=" ">
<polygon fill="white" stroke="black" points="3822,-56.5 3822,-86.5 3963,-86.5 3963,-56.5 3822,-56.5"/>
<text text-anchor="start" x="3830" y="-74.5" font-family="Helvetica,sans-Serif" font-size="10.00">src/app/seamly2d/dialogs</text>
<text text-anchor="middle" x="3892.5" y="-63.5" font-family="Helvetica,sans-Serif" font-size="10.00">/decimalchart_dialog.cpp</text>
</a>
</g>
</g>
<!-- Node2&#45;&gt;Node10 -->
<g id="edge9" class="edge">
<title>Node2&#45;&gt;Node10</title>
<path fill="none" stroke="midnightblue" d="M2163.56,-136.81C2449.98,-133.91 3485.42,-121.24 3812.5,-87 3815.59,-86.68 3818.74,-86.3 3821.91,-85.89"/>
<polygon fill="midnightblue" stroke="midnightblue" points="2163.25,-133.31 2153.28,-136.91 2163.32,-140.31 2163.25,-133.31"/>
</g>
<!-- Node11 -->
<g id="node11" class="node">
<title>Node11</title>
<g id="a_node11"><a xlink:href="../../dc/d63/preferencespatternpage_8cpp.html" target="_top" xlink:title=" ">
<polygon fill="white" stroke="black" points="702.5,-56.5 702.5,-86.5 920.5,-86.5 920.5,-56.5 702.5,-56.5"/>
<text text-anchor="start" x="710.5" y="-74.5" font-family="Helvetica,sans-Serif" font-size="10.00">src/app/seamly2d/dialogs</text>
<text text-anchor="middle" x="811.5" y="-63.5" font-family="Helvetica,sans-Serif" font-size="10.00">/configpages/preferencespatternpage.cpp</text>
</a>
</g>
</g>
<!-- Node2&#45;&gt;Node11 -->
<g id="edge10" class="edge">
<title>Node2&#45;&gt;Node11</title>
<path fill="none" stroke="midnightblue" d="M2015.8,-136.3C1832.09,-132.89 1339.1,-121.03 929.5,-87 926.62,-86.76 923.7,-86.5 920.76,-86.23"/>
<polygon fill="midnightblue" stroke="midnightblue" points="2015.83,-139.81 2025.89,-136.49 2015.95,-132.81 2015.83,-139.81"/>
</g>
<!-- Node2&#45;&gt;Node12 -->
<g id="edge11" class="edge">
<title>Node2&#45;&gt;Node12</title>
<path fill="none" stroke="midnightblue" d="M2015.72,-136.21C1765.97,-131.61 953.49,-114.83 693.5,-87 690.52,-86.68 687.48,-86.32 684.41,-85.92"/>
<polygon fill="midnightblue" stroke="midnightblue" points="2015.71,-139.71 2025.78,-136.39 2015.84,-132.71 2015.71,-139.71"/>
</g>
<!-- Node13 -->
<g id="node13" class="node">
<title>Node13</title>
<g id="a_node13"><a xlink:href="../../de/d87/dialognewpattern_8cpp.html" target="_top" xlink:title=" ">
<polygon fill="white" stroke="black" points="939,-56.5 939,-86.5 1080,-86.5 1080,-56.5 939,-56.5"/>
<text text-anchor="start" x="947" y="-74.5" font-family="Helvetica,sans-Serif" font-size="10.00">src/app/seamly2d/dialogs</text>
<text text-anchor="middle" x="1009.5" y="-63.5" font-family="Helvetica,sans-Serif" font-size="10.00">/dialognewpattern.cpp</text>
</a>
</g>
</g>
<!-- Node2&#45;&gt;Node13 -->
<g id="edge12" class="edge">
<title>Node2&#45;&gt;Node13</title>
<path fill="none" stroke="midnightblue" d="M2015.62,-137.08C1849.42,-135.41 1433.65,-127.21 1088.5,-87 1085.73,-86.68 1082.91,-86.32 1080.07,-85.93"/>
<polygon fill="midnightblue" stroke="midnightblue" points="2015.69,-140.58 2025.73,-137.18 2015.76,-133.58 2015.69,-140.58"/>
</g>
<!-- Node14 -->
<g id="node14" class="node">
<title>Node14</title>
<g id="a_node14"><a xlink:href="../../d5/d18/dialogpatternproperties_8cpp.html" target="_top" xlink:title=" ">
<polygon fill="white" stroke="black" points="4142,-56.5 4142,-86.5 4297,-86.5 4297,-56.5 4142,-56.5"/>
<text text-anchor="start" x="4150" y="-74.5" font-family="Helvetica,sans-Serif" font-size="10.00">src/app/seamly2d/dialogs</text>
<text text-anchor="middle" x="4219.5" y="-63.5" font-family="Helvetica,sans-Serif" font-size="10.00">/dialogpatternproperties.cpp</text>
</a>
</g>
</g>
<!-- Node2&#45;&gt;Node14 -->
<g id="edge13" class="edge">
<title>Node2&#45;&gt;Node14</title>
<path fill="none" stroke="midnightblue" d="M2163.16,-137.07C2481.25,-134.98 3738.77,-124.49 4132.5,-87 4135.55,-86.71 4138.65,-86.38 4141.78,-86.01"/>
<polygon fill="midnightblue" stroke="midnightblue" points="2163.11,-133.57 2153.13,-137.13 2163.15,-140.57 2163.11,-133.57"/>
</g>
<!-- Node15 -->
<g id="node15" class="node">
<title>Node15</title>
<g id="a_node15"><a xlink:href="../../d5/dc5/dialogpreferences_8cpp.html" target="_top" xlink:title=" ">
<polygon fill="white" stroke="black" points="1098,-56.5 1098,-86.5 1239,-86.5 1239,-56.5 1098,-56.5"/>
<text text-anchor="start" x="1106" y="-74.5" font-family="Helvetica,sans-Serif" font-size="10.00">src/app/seamly2d/dialogs</text>
<text text-anchor="middle" x="1168.5" y="-63.5" font-family="Helvetica,sans-Serif" font-size="10.00">/dialogpreferences.cpp</text>
</a>
</g>
</g>
<!-- Node2&#45;&gt;Node15 -->
<g id="edge14" class="edge">
<title>Node2&#45;&gt;Node15</title>
<path fill="none" stroke="midnightblue" d="M2015.75,-136.03C1869.1,-132.45 1530.72,-120.93 1248.5,-87 1245.42,-86.63 1242.27,-86.22 1239.1,-85.77"/>
<polygon fill="midnightblue" stroke="midnightblue" points="2015.89,-139.53 2025.97,-136.27 2016.05,-132.53 2015.89,-139.53"/>
</g>
<!-- Node16 -->
<g id="node16" class="node">
<title>Node16</title>
<g id="a_node16"><a xlink:href="../../d2/d00/vtooloptionspropertybrowser_8cpp.html" target="_top" xlink:title=" ">
<polygon fill="white" stroke="black" points="1257.5,-56.5 1257.5,-86.5 1437.5,-86.5 1437.5,-56.5 1257.5,-56.5"/>
<text text-anchor="start" x="1265.5" y="-74.5" font-family="Helvetica,sans-Serif" font-size="10.00">src/app/seamly2d/core</text>
<text text-anchor="middle" x="1347.5" y="-63.5" font-family="Helvetica,sans-Serif" font-size="10.00">/vtooloptionspropertybrowser.cpp</text>
</a>
</g>
</g>
<!-- Node2&#45;&gt;Node16 -->
<g id="edge15" class="edge">
<title>Node2&#45;&gt;Node16</title>
<path fill="none" stroke="midnightblue" d="M2015.79,-133.32C1896.12,-126.18 1652.21,-110.12 1446.5,-87 1443.57,-86.67 1440.58,-86.32 1437.57,-85.95"/>
<polygon fill="midnightblue" stroke="midnightblue" points="2015.75,-136.83 2025.94,-133.93 2016.16,-129.84 2015.75,-136.83"/>
</g>
<!-- Node2&#45;&gt;Node17 -->
<g id="edge16" class="edge">
<title>Node2&#45;&gt;Node17</title>
<path fill="none" stroke="midnightblue" d="M2163.42,-136.17C2489.33,-130.24 3789.71,-105.6 3971.5,-87 3974.48,-86.69 3977.52,-86.34 3980.59,-85.95"/>
<polygon fill="midnightblue" stroke="midnightblue" points="2163.09,-132.68 2153.15,-136.36 2163.22,-139.68 2163.09,-132.68"/>
</g>
<!-- Node18 -->
<g id="node18" class="node">
<title>Node18</title>
<g id="a_node18"><a xlink:href="../../db/d5c/groups__widget_8cpp.html" target="_top" xlink:title=" ">
<polygon fill="white" stroke="black" points="1456,-56.5 1456,-86.5 1597,-86.5 1597,-56.5 1456,-56.5"/>
<text text-anchor="start" x="1464" y="-74.5" font-family="Helvetica,sans-Serif" font-size="10.00">src/app/seamly2d/dialogs</text>
<text text-anchor="middle" x="1526.5" y="-63.5" font-family="Helvetica,sans-Serif" font-size="10.00">/groups_widget.cpp</text>
</a>
</g>
</g>
<!-- Node2&#45;&gt;Node18 -->
<g id="edge17" class="edge">
<title>Node2&#45;&gt;Node18</title>
<path fill="none" stroke="midnightblue" d="M2015.79,-131.6C1920.72,-123.58 1750.33,-107.81 1605.5,-87 1602.74,-86.6 1599.93,-86.18 1597.09,-85.74"/>
<polygon fill="midnightblue" stroke="midnightblue" points="2015.63,-135.1 2025.88,-132.45 2016.21,-128.12 2015.63,-135.1"/>
</g>
<!-- Node19 -->
<g id="node19" class="node">
<title>Node19</title>
<g id="a_node19"><a xlink:href="../../d0/dfa/layoutsettings__dialog_8cpp.html" target="_top" xlink:title=" ">
<polygon fill="white" stroke="black" points="1615,-56.5 1615,-86.5 1760,-86.5 1760,-56.5 1615,-56.5"/>
<text text-anchor="start" x="1623" y="-74.5" font-family="Helvetica,sans-Serif" font-size="10.00">src/app/seamly2d/dialogs</text>
<text text-anchor="middle" x="1687.5" y="-63.5" font-family="Helvetica,sans-Serif" font-size="10.00">/layoutsettings_dialog.cpp</text>
</a>
</g>
</g>
<!-- Node2&#45;&gt;Node19 -->
<g id="edge18" class="edge">
<title>Node2&#45;&gt;Node19</title>
<path fill="none" stroke="midnightblue" d="M2015.62,-126.33C1950.52,-116.38 1853.13,-101.23 1768.5,-87 1765.82,-86.55 1763.1,-86.09 1760.35,-85.61"/>
<polygon fill="midnightblue" stroke="midnightblue" points="2015.38,-129.83 2025.79,-127.88 2016.43,-122.91 2015.38,-129.83"/>
</g>
<!-- Node20 -->
<g id="node20" class="node">
<title>Node20</title>
<g id="a_node20"><a xlink:href="../../d2/df4/show__info__dialog_8cpp.html" target="_top" xlink:title=" ">
<polygon fill="white" stroke="black" points="1778,-56.5 1778,-86.5 1919,-86.5 1919,-56.5 1778,-56.5"/>
<text text-anchor="start" x="1786" y="-74.5" font-family="Helvetica,sans-Serif" font-size="10.00">src/app/seamly2d/dialogs</text>
<text text-anchor="middle" x="1848.5" y="-63.5" font-family="Helvetica,sans-Serif" font-size="10.00">/show_info_dialog.cpp</text>
</a>
</g>
</g>
<!-- Node2&#45;&gt;Node20 -->
<g id="edge19" class="edge">
<title>Node2&#45;&gt;Node20</title>
<path fill="none" stroke="midnightblue" d="M2027.77,-120.85C1988.47,-110.25 1938.14,-96.68 1900.82,-86.61"/>
<polygon fill="midnightblue" stroke="midnightblue" points="2026.94,-124.25 2037.5,-123.48 2028.76,-117.49 2026.94,-124.25"/>
</g>
<!-- Node21 -->
<g id="node21" class="node">
<title>Node21</title>
<g id="a_node21"><a xlink:href="../../dd/d84/shortcuts__dialog_8cpp.html" target="_top" xlink:title=" ">
<polygon fill="white" stroke="black" points="1937,-56.5 1937,-86.5 2078,-86.5 2078,-56.5 1937,-56.5"/>
<text text-anchor="start" x="1945" y="-74.5" font-family="Helvetica,sans-Serif" font-size="10.00">src/app/seamly2d/dialogs</text>
<text text-anchor="middle" x="2007.5" y="-63.5" font-family="Helvetica,sans-Serif" font-size="10.00">/shortcuts_dialog.cpp</text>
</a>
</g>
</g>
<!-- Node2&#45;&gt;Node21 -->
<g id="edge20" class="edge">
<title>Node2&#45;&gt;Node21</title>
<path fill="none" stroke="midnightblue" d="M2063.85,-117.17C2051.31,-107.23 2036.53,-95.51 2025.26,-86.58"/>
<polygon fill="midnightblue" stroke="midnightblue" points="2061.7,-119.93 2071.71,-123.4 2066.04,-114.44 2061.7,-119.93"/>
</g>
<!-- Node22 -->
<g id="node22" class="node">
<title>Node22</title>
<g id="a_node22"><a xlink:href="../../dc/d14/app_2seamly2d_2main_8cpp.html" target="_top" xlink:title=" ">
<polygon fill="white" stroke="black" points="2096,-62 2096,-81 2247,-81 2247,-62 2096,-62"/>
<text text-anchor="middle" x="2171.5" y="-69" font-family="Helvetica,sans-Serif" font-size="10.00">src/app/seamly2d/main.cpp</text>
</a>
</g>
</g>
<!-- Node2&#45;&gt;Node22 -->
<g id="edge21" class="edge">
<title>Node2&#45;&gt;Node22</title>
<path fill="none" stroke="midnightblue" d="M2115.35,-117.01C2130.57,-104.94 2149.04,-90.3 2160.53,-81.19"/>
<polygon fill="midnightblue" stroke="midnightblue" points="2112.96,-114.44 2107.29,-123.4 2117.3,-119.93 2112.96,-114.44"/>
</g>
<!-- Node23 -->
<g id="node23" class="node">
<title>Node23</title>
<g id="a_node23"><a xlink:href="../../df/d69/welcome__dialog_8cpp.html" target="_top" xlink:title=" ">
<polygon fill="white" stroke="black" points="2265,-56.5 2265,-86.5 2406,-86.5 2406,-56.5 2265,-56.5"/>
<text text-anchor="start" x="2273" y="-74.5" font-family="Helvetica,sans-Serif" font-size="10.00">src/app/seamly2d/dialogs</text>
<text text-anchor="middle" x="2335.5" y="-63.5" font-family="Helvetica,sans-Serif" font-size="10.00">/welcome_dialog.cpp</text>
</a>
</g>
</g>
<!-- Node2&#45;&gt;Node23 -->
<g id="edge22" class="edge">
<title>Node2&#45;&gt;Node23</title>
<path fill="none" stroke="midnightblue" d="M2152.26,-120.92C2192.4,-110.31 2243.92,-96.7 2282.1,-86.61"/>
<polygon fill="midnightblue" stroke="midnightblue" points="2151.35,-117.54 2142.58,-123.48 2153.14,-124.31 2151.35,-117.54"/>
</g>
<!-- Node24 -->
<g id="node24" class="node">
<title>Node24</title>
<g id="a_node24"><a xlink:href="../../d8/de8/mainwindowsnogui_8cpp.html" target="_top" xlink:title=" ">
<polygon fill="white" stroke="black" points="2424,-62 2424,-81 2645,-81 2645,-62 2424,-62"/>
<text text-anchor="middle" x="2534.5" y="-69" font-family="Helvetica,sans-Serif" font-size="10.00">src/app/seamly2d/mainwindowsnogui.cpp</text>
</a>
</g>
</g>
<!-- Node2&#45;&gt;Node24 -->
<g id="edge23" class="edge">
<title>Node2&#45;&gt;Node24</title>
<path fill="none" stroke="midnightblue" d="M2163.41,-126.7C2251.21,-113.88 2395.86,-92.75 2476.18,-81.02"/>
<polygon fill="midnightblue" stroke="midnightblue" points="2162.65,-123.28 2153.26,-128.19 2163.66,-130.2 2162.65,-123.28"/>
</g>
<!-- Node2&#45;&gt;Node25 -->
<g id="edge24" class="edge">
<title>Node2&#45;&gt;Node25</title>
<path fill="none" stroke="midnightblue" d="M2163.21,-136.13C2295.21,-132.82 2566.32,-121.87 2653.5,-87 2674.06,-78.78 2671.69,-63.57 2692.5,-56 2767.92,-28.55 3946.59,-15.19 4291.43,-11.85"/>
<polygon fill="midnightblue" stroke="midnightblue" points="2163.09,-132.63 2153.18,-136.37 2163.26,-139.63 2163.09,-132.63"/>
</g>
<!-- Node26 -->
<g id="node26" class="node">
<title>Node26</title>
<g id="a_node26"><a xlink:href="../../d3/d49/vpattern_8cpp.html" target="_top" xlink:title=" ">
<polygon fill="white" stroke="black" points="2702,-56.5 2702,-86.5 2827,-86.5 2827,-56.5 2702,-56.5"/>
<text text-anchor="start" x="2710" y="-74.5" font-family="Helvetica,sans-Serif" font-size="10.00">src/app/seamly2d/xml</text>
<text text-anchor="middle" x="2764.5" y="-63.5" font-family="Helvetica,sans-Serif" font-size="10.00">/vpattern.cpp</text>
</a>
</g>
</g>
<!-- Node2&#45;&gt;Node26 -->
<g id="edge25" class="edge">
<title>Node2&#45;&gt;Node26</title>
<path fill="none" stroke="midnightblue" d="M2163.29,-133.69C2276.46,-127.31 2499.54,-112.57 2687.5,-87 2692.22,-86.36 2697.08,-85.62 2701.97,-84.83"/>
<polygon fill="midnightblue" stroke="midnightblue" points="2162.81,-130.22 2153.02,-134.27 2163.2,-137.2 2162.81,-130.22"/>
</g>
<!-- Node27 -->
<g id="node27" class="node">
<title>Node27</title>
<g id="a_node27"><a xlink:href="../../d9/da3/image__tool_8cpp.html" target="_top" xlink:title=" ">
<polygon fill="white" stroke="black" points="2845,-56.5 2845,-86.5 2962,-86.5 2962,-56.5 2845,-56.5"/>
<text text-anchor="start" x="2853" y="-74.5" font-family="Helvetica,sans-Serif" font-size="10.00">src/libs/tools/images</text>
<text text-anchor="middle" x="2903.5" y="-63.5" font-family="Helvetica,sans-Serif" font-size="10.00">/image_tool.cpp</text>
</a>
</g>
</g>
<!-- Node2&#45;&gt;Node27 -->
<g id="edge26" class="edge">
<title>Node2&#45;&gt;Node27</title>
<path fill="none" stroke="midnightblue" d="M2163.36,-135.98C2297.72,-132.45 2590.86,-121.19 2835.5,-87 2838.61,-86.57 2841.79,-86.07 2844.99,-85.53"/>
<polygon fill="midnightblue" stroke="midnightblue" points="2163.09,-132.49 2153.18,-136.24 2163.27,-139.49 2163.09,-132.49"/>
</g>
<!-- Node28&#45;&gt;Node14 -->
<g id="edge32" class="edge">
<title>Node28&#45;&gt;Node14</title>
<path fill="none" stroke="midnightblue" d="M4219.5,-113.11C4219.5,-104.15 4219.5,-94.32 4219.5,-86.58"/>
<polygon fill="midnightblue" stroke="midnightblue" points="4216,-113.4 4219.5,-123.4 4223,-113.4 4216,-113.4"/>
</g>
<!-- Node29 -->
<g id="node29" class="node">
<title>Node29</title>
<g id="a_node29"><a xlink:href="../../d6/d64/dialogs_8h.html" target="_top" xlink:title=" ">
<polygon fill="white" stroke="black" points="4315,-56.5 4315,-86.5 4456,-86.5 4456,-56.5 4315,-56.5"/>
<text text-anchor="start" x="4323" y="-74.5" font-family="Helvetica,sans-Serif" font-size="10.00">src/app/seamly2d/dialogs</text>
<text text-anchor="middle" x="4385.5" y="-63.5" font-family="Helvetica,sans-Serif" font-size="10.00">/dialogs.h</text>
</a>
</g>
</g>
<!-- Node28&#45;&gt;Node29 -->
<g id="edge33" class="edge">
<title>Node28&#45;&gt;Node29</title>
<path fill="none" stroke="midnightblue" d="M4265.01,-119.68C4291.63,-109.26 4324.77,-96.28 4349.55,-86.58"/>
<polygon fill="midnightblue" stroke="midnightblue" points="4263.55,-116.49 4255.52,-123.4 4266.11,-123.01 4263.55,-116.49"/>
</g>
<!-- Node29&#45;&gt;Node25 -->
<g id="edge34" class="edge">
<title>Node29&#45;&gt;Node25</title>
<path fill="none" stroke="midnightblue" d="M4385.5,-46.29C4385.5,-36.86 4385.5,-26.65 4385.5,-19.66"/>
<polygon fill="midnightblue" stroke="midnightblue" points="4382,-46.4 4385.5,-56.4 4389,-46.4 4382,-46.4"/>
</g>
</g>
</svg>
        <g id="navigator" transform="translate(0 0)" fill="#404254">
                <rect fill="#f2f5e9" fill-opacity="0.5" stroke="#606060" stroke-width=".5" x="0" y="0" width="60" height="60"/>
                <use id="zoomplus" xlink:href="#zoomPlus" x="17" y="9" onmousedown="handleZoom(evt,'in')"/>
                <use id="zoomminus" xlink:href="#zoomMin" x="42" y="9" onmousedown="handleZoom(evt,'out')"/>
                <use id="reset" xlink:href="#resetDef" x="30" y="36" onmousedown="handleReset()"/>
                <g id="arrowUp" xlink:href="#dirArrow" transform="translate(30 24)" onmousedown="handlePan(0,-1)">
                  <use xlink:href="#rim" fill="#404040">
                        <set attributeName="fill" to="#808080" begin="arrowUp.mouseover" end="arrowUp.mouseout"/>
                  </use>
                  <path fill="none" stroke="white" stroke-width="1.5" d="M0,-3.0v7 M-2.5,-0.5L0,-3.0L2.5,-0.5"/>
                </g>
                <g id="arrowRight" xlink:href="#dirArrow" transform="rotate(90) translate(36 -43)" onmousedown="handlePan(1,0)">
                  <use xlink:href="#rim" fill="#404040">
                        <set attributeName="fill" to="#808080" begin="arrowRight.mouseover" end="arrowRight.mouseout"/>
                  </use>
                  <path fill="none" stroke="white" stroke-width="1.5" d="M0,-3.0v7 M-2.5,-0.5L0,-3.0L2.5,-0.5"/>
                </g>
                <g id="arrowDown" xlink:href="#dirArrow" transform="rotate(180) translate(-30 -48)" onmousedown="handlePan(0,1)">
                  <use xlink:href="#rim" fill="#404040">
                        <set attributeName="fill" to="#808080" begin="arrowDown.mouseover" end="arrowDown.mouseout"/>
                  </use>
                  <path fill="none" stroke="white" stroke-width="1.5" d="M0,-3.0v7 M-2.5,-0.5L0,-3.0L2.5,-0.5"/>
                </g>
                <g id="arrowLeft" xlink:href="#dirArrow" transform="rotate(270) translate(-36 17)" onmousedown="handlePan(-1,0)">
                  <use xlink:href="#rim" fill="#404040">
                        <set attributeName="fill" to="#808080" begin="arrowLeft.mouseover" end="arrowLeft.mouseout"/>
                  </use>
                  <path fill="none" stroke="white" stroke-width="1.5" d="M0,-3.0v7 M-2.5,-0.5L0,-3.0L2.5,-0.5"/>
                </g>
        </g>
        <svg viewBox="0 0 15 15" width="100%" height="30px" preserveAspectRatio="xMaxYMin meet">
         <g id="arrow_out" transform="scale(0.3 0.3)">
          <a xlink:href="options_8h__dep__incl_org.svg" target="_base">
           <rect id="button" ry="5" rx="5" y="6" x="6" height="38" width="38"
                fill="#f2f5e9" fill-opacity="0.5" stroke="#606060" stroke-width="1.0"/>
           <path id="arrow"
             d="M 11.500037,31.436501 C 11.940474,20.09759 22.043105,11.32322 32.158766,21.979434 L 37.068811,17.246167 C 37.068811,17.246167 37.088388,32 37.088388,32 L 22.160133,31.978069 C 22.160133,31.978069 26.997745,27.140456 26.997745,27.140456 C 18.528582,18.264221 13.291696,25.230495 11.500037,31.436501 z"
             style="fill:#404040;"/>
          </a>
         </g>
        </svg>
</svg>
