<?xml version="1.0" encoding="UTF-8" standalone="no"?>
<!DOCTYPE svg PUBLIC "-//W3C//DTD SVG 1.1//EN"
 "http://www.w3.org/Graphics/SVG/1.1/DTD/svg11.dtd">
<!-- Generated by graphviz version 2.43.0 (0)
 -->
<!-- Title: src/libs/vpatterndb/variables/custom_variable.h Pages: 1 -->
<svg width="5846pt" height="385pt"
 viewBox="0.00 0.00 5846.28 385.00" xmlns="http://www.w3.org/2000/svg" xmlns:xlink="http://www.w3.org/1999/xlink">
<g id="graph0" class="graph" transform="scale(1 1) rotate(0) translate(4 381)">
<title>src/libs/vpatterndb/variables/custom_variable.h</title>
<polygon fill="white" stroke="transparent" points="-4,4 -4,-381 5842.28,-381 5842.28,4 -4,4"/>
<!-- Node1 -->
<g id="node1" class="node">
<title>Node1</title>
<g id="a_node1"><a xlink:title=" ">
<polygon fill="#bfbfbf" stroke="black" points="4839.5,-346.5 4839.5,-376.5 4997.5,-376.5 4997.5,-346.5 4839.5,-346.5"/>
<text text-anchor="start" x="4847.5" y="-364.5" font-family="Helvetica,sans-Serif" font-size="10.00">src/libs/vpatterndb</text>
<text text-anchor="middle" x="4918.5" y="-353.5" font-family="Helvetica,sans-Serif" font-size="10.00">/variables/custom_variable.h</text>
</a>
</g>
</g>
<!-- Node2 -->
<g id="node2" class="node">
<title>Node2</title>
<g id="a_node2"><a xlink:href="../../d2/d1e/custom__variable_8cpp.html" target="_top" xlink:title=" ">
<polygon fill="white" stroke="black" points="0,-67.5 0,-97.5 169,-97.5 169,-67.5 0,-67.5"/>
<text text-anchor="start" x="8" y="-85.5" font-family="Helvetica,sans-Serif" font-size="10.00">src/libs/vpatterndb</text>
<text text-anchor="middle" x="84.5" y="-74.5" font-family="Helvetica,sans-Serif" font-size="10.00">/variables/custom_variable.cpp</text>
</a>
</g>
</g>
<!-- Node1&#45;&gt;Node2 -->
<g id="edge1" class="edge">
<title>Node1&#45;&gt;Node2</title>
<path fill="none" stroke="midnightblue" d="M4829.14,-359.47C4277.27,-352.7 1327.05,-310.67 434.5,-176 320.62,-158.82 190.43,-118.84 125.64,-97.5"/>
<polygon fill="midnightblue" stroke="midnightblue" points="4829.38,-362.97 4839.42,-359.59 4829.47,-355.97 4829.38,-362.97"/>
</g>
<!-- Node3 -->
<g id="node3" class="node">
<title>Node3</title>
<g id="a_node3"><a xlink:href="../../de/dca/variables_8h.html" target="_top" xlink:title=" ">
<polygon fill="white" stroke="black" points="4865,-279.5 4865,-309.5 4972,-309.5 4972,-279.5 4865,-279.5"/>
<text text-anchor="start" x="4873" y="-297.5" font-family="Helvetica,sans-Serif" font-size="10.00">src/libs/vpatterndb</text>
<text text-anchor="middle" x="4918.5" y="-286.5" font-family="Helvetica,sans-Serif" font-size="10.00">/variables.h</text>
</a>
</g>
</g>
<!-- Node1&#45;&gt;Node3 -->
<g id="edge2" class="edge">
<title>Node1&#45;&gt;Node3</title>
<path fill="none" stroke="midnightblue" d="M4918.5,-336.11C4918.5,-327.15 4918.5,-317.32 4918.5,-309.58"/>
<polygon fill="midnightblue" stroke="midnightblue" points="4915,-336.4 4918.5,-346.4 4922,-336.4 4915,-336.4"/>
</g>
<!-- Node37 -->
<g id="node32" class="node">
<title>Node37</title>
<g id="a_node32"><a xlink:href="../../d6/d46/vcontainer_8cpp.html" target="_top" xlink:title=" ">
<polygon fill="white" stroke="black" points="5709,-67.5 5709,-97.5 5816,-97.5 5816,-67.5 5709,-67.5"/>
<text text-anchor="start" x="5717" y="-85.5" font-family="Helvetica,sans-Serif" font-size="10.00">src/libs/vpatterndb</text>
<text text-anchor="middle" x="5762.5" y="-74.5" font-family="Helvetica,sans-Serif" font-size="10.00">/vcontainer.cpp</text>
</a>
</g>
</g>
<!-- Node1&#45;&gt;Node37 -->
<g id="edge61" class="edge">
<title>Node1&#45;&gt;Node37</title>
<path fill="none" stroke="midnightblue" d="M5007.58,-352.64C5199.12,-333.9 5641.11,-280.19 5743.5,-176 5764.18,-154.95 5765.17,-117.77 5763.94,-97.55"/>
<polygon fill="midnightblue" stroke="midnightblue" points="5007.16,-349.17 4997.54,-353.61 5007.83,-356.13 5007.16,-349.17"/>
</g>
<!-- Node4 -->
<g id="node4" class="node">
<title>Node4</title>
<g id="a_node4"><a xlink:href="../../d3/df7/vcontainer_8h.html" target="_top" xlink:title=" ">
<polygon fill="white" stroke="black" points="4865,-212.5 4865,-242.5 4972,-242.5 4972,-212.5 4865,-212.5"/>
<text text-anchor="start" x="4873" y="-230.5" font-family="Helvetica,sans-Serif" font-size="10.00">src/libs/vpatterndb</text>
<text text-anchor="middle" x="4918.5" y="-219.5" font-family="Helvetica,sans-Serif" font-size="10.00">/vcontainer.h</text>
</a>
</g>
</g>
<!-- Node3&#45;&gt;Node4 -->
<g id="edge3" class="edge">
<title>Node3&#45;&gt;Node4</title>
<path fill="none" stroke="midnightblue" d="M4918.5,-269.11C4918.5,-260.15 4918.5,-250.32 4918.5,-242.58"/>
<polygon fill="midnightblue" stroke="midnightblue" points="4915,-269.4 4918.5,-279.4 4922,-269.4 4915,-269.4"/>
</g>
<!-- Node5 -->
<g id="node5" class="node">
<title>Node5</title>
<g id="a_node5"><a xlink:href="../../dc/db7/measurements_8h.html" target="_top" xlink:title=" ">
<polygon fill="white" stroke="black" points="779,-145.5 779,-164.5 958,-164.5 958,-145.5 779,-145.5"/>
<text text-anchor="middle" x="868.5" y="-152.5" font-family="Helvetica,sans-Serif" font-size="10.00">src/libs/vformat/measurements.h</text>
</a>
</g>
</g>
<!-- Node4&#45;&gt;Node5 -->
<g id="edge4" class="edge">
<title>Node4&#45;&gt;Node5</title>
<path fill="none" stroke="midnightblue" d="M4854.53,-226.53C4414.59,-226.63 1831.24,-225.08 1046.5,-176 1008.01,-173.59 965.05,-168.83 930.97,-164.55"/>
<polygon fill="midnightblue" stroke="midnightblue" points="4854.82,-230.03 4864.82,-226.53 4854.82,-223.03 4854.82,-230.03"/>
</g>
<!-- Node6 -->
<g id="node6" class="node">
<title>Node6</title>
<g id="a_node6"><a xlink:href="../../d9/de3/measurements_8cpp.html" target="_top" xlink:title=" ">
<polygon fill="white" stroke="black" points="187.5,-73 187.5,-92 377.5,-92 377.5,-73 187.5,-73"/>
<text text-anchor="middle" x="282.5" y="-80" font-family="Helvetica,sans-Serif" font-size="10.00">src/libs/vformat/measurements.cpp</text>
</a>
</g>
</g>
<!-- Node4&#45;&gt;Node6 -->
<g id="edge6" class="edge">
<title>Node4&#45;&gt;Node6</title>
<path fill="none" stroke="midnightblue" d="M4854.56,-226.65C4386.84,-227.63 1500.59,-231.36 1116.5,-176 1047.98,-166.12 1034.76,-145.54 966.5,-134 711.84,-90.94 643.48,-123.85 386.5,-98 370.63,-96.4 353.46,-94.2 337.73,-92"/>
<polygon fill="midnightblue" stroke="midnightblue" points="4854.84,-230.15 4864.83,-226.63 4854.83,-223.15 4854.84,-230.15"/>
</g>
<!-- Node7 -->
<g id="node7" class="node">
<title>Node7</title>
<g id="a_node7"><a xlink:href="../../d6/de0/vlayoutpiece_8h.html" target="_top" xlink:title=" ">
<polygon fill="white" stroke="black" points="1125.5,-145.5 1125.5,-164.5 1291.5,-164.5 1291.5,-145.5 1125.5,-145.5"/>
<text text-anchor="middle" x="1208.5" y="-152.5" font-family="Helvetica,sans-Serif" font-size="10.00">src/libs/vlayout/vlayoutpiece.h</text>
</a>
</g>
</g>
<!-- Node4&#45;&gt;Node7 -->
<g id="edge7" class="edge">
<title>Node4&#45;&gt;Node7</title>
<path fill="none" stroke="midnightblue" d="M4854.94,-225.29C4412.35,-216.88 1793.63,-167.12 1291.67,-157.58"/>
<polygon fill="midnightblue" stroke="midnightblue" points="4854.92,-228.79 4864.98,-225.48 4855.05,-221.79 4854.92,-228.79"/>
</g>
<!-- Node17 -->
<g id="node16" class="node">
<title>Node17</title>
<g id="a_node16"><a xlink:href="../../d8/d70/vtextmanager_8cpp.html" target="_top" xlink:title=" ">
<polygon fill="white" stroke="black" points="1716.5,-73 1716.5,-92 1898.5,-92 1898.5,-73 1716.5,-73"/>
<text text-anchor="middle" x="1807.5" y="-80" font-family="Helvetica,sans-Serif" font-size="10.00">src/libs/vlayout/vtextmanager.cpp</text>
</a>
</g>
</g>
<!-- Node4&#45;&gt;Node17 -->
<g id="edge18" class="edge">
<title>Node4&#45;&gt;Node17</title>
<path fill="none" stroke="midnightblue" d="M4854.71,-224.34C4660.99,-217.72 4062.48,-196.92 3566.5,-176 2829.01,-144.89 2642.29,-168.38 1907.5,-98 1891.87,-96.5 1874.95,-94.28 1859.54,-92.02"/>
<polygon fill="midnightblue" stroke="midnightblue" points="4854.6,-227.83 4864.72,-224.68 4854.84,-220.84 4854.6,-227.83"/>
</g>
<!-- Node18 -->
<g id="node17" class="node">
<title>Node18</title>
<g id="a_node17"><a xlink:href="../../d5/d74/vabstractapplication_8h.html" target="_top" xlink:title=" ">
<polygon fill="white" stroke="red" points="3576,-145.5 3576,-164.5 3771,-164.5 3771,-145.5 3576,-145.5"/>
<text text-anchor="middle" x="3673.5" y="-152.5" font-family="Helvetica,sans-Serif" font-size="10.00">src/libs/vmisc/vabstractapplication.h</text>
</a>
</g>
</g>
<!-- Node4&#45;&gt;Node18 -->
<g id="edge19" class="edge">
<title>Node4&#45;&gt;Node18</title>
<path fill="none" stroke="midnightblue" d="M4854.36,-222.87C4650.49,-211.32 4016.35,-175.41 3771.42,-161.54"/>
<polygon fill="midnightblue" stroke="midnightblue" points="4854.42,-226.38 4864.6,-223.45 4854.82,-219.39 4854.42,-226.38"/>
</g>
<!-- Node36 -->
<g id="node31" class="node">
<title>Node36</title>
<g id="a_node31"><a xlink:href="../../db/d11/vformula_8cpp.html" target="_top" xlink:title=" ">
<polygon fill="white" stroke="black" points="5459,-67.5 5459,-97.5 5566,-97.5 5566,-67.5 5459,-67.5"/>
<text text-anchor="start" x="5467" y="-85.5" font-family="Helvetica,sans-Serif" font-size="10.00">src/libs/vpatterndb</text>
<text text-anchor="middle" x="5512.5" y="-74.5" font-family="Helvetica,sans-Serif" font-size="10.00">/vformula.cpp</text>
</a>
</g>
</g>
<!-- Node4&#45;&gt;Node36 -->
<g id="edge53" class="edge">
<title>Node4&#45;&gt;Node36</title>
<path fill="none" stroke="midnightblue" d="M4905.56,-203.06C4896,-182.23 4887.35,-152.32 4904.5,-134 4945.97,-89.7 5389.46,-106.83 5449.5,-98 5452.61,-97.54 5455.79,-97.01 5458.99,-96.43"/>
<polygon fill="midnightblue" stroke="midnightblue" points="4902.5,-204.77 4910.07,-212.19 4908.78,-201.67 4902.5,-204.77"/>
</g>
<!-- Node4&#45;&gt;Node37 -->
<g id="edge54" class="edge">
<title>Node4&#45;&gt;Node37</title>
<path fill="none" stroke="midnightblue" d="M4930.75,-203.49C4944.43,-178.76 4966.48,-141.94 4980.5,-134 5050.11,-94.59 5620.27,-109.01 5699.5,-98 5702.5,-97.58 5705.57,-97.09 5708.66,-96.55"/>
<polygon fill="midnightblue" stroke="midnightblue" points="4927.67,-201.83 4925.95,-212.28 4933.81,-205.18 4927.67,-201.83"/>
</g>
<!-- Node38 -->
<g id="node33" class="node">
<title>Node38</title>
<g id="a_node33"><a xlink:href="../../df/d7a/vpiece_8cpp.html" target="_top" xlink:title=" ">
<polygon fill="white" stroke="black" points="5584,-67.5 5584,-97.5 5691,-97.5 5691,-67.5 5584,-67.5"/>
<text text-anchor="start" x="5592" y="-85.5" font-family="Helvetica,sans-Serif" font-size="10.00">src/libs/vpatterndb</text>
<text text-anchor="middle" x="5637.5" y="-74.5" font-family="Helvetica,sans-Serif" font-size="10.00">/vpiece.cpp</text>
</a>
</g>
</g>
<!-- Node4&#45;&gt;Node38 -->
<g id="edge56" class="edge">
<title>Node4&#45;&gt;Node38</title>
<path fill="none" stroke="midnightblue" d="M4917.48,-202.22C4918.02,-180.71 4922.64,-150.29 4942.5,-134 4996.88,-89.4 5504.87,-107.92 5574.5,-98 5577.61,-97.56 5580.8,-97.04 5584,-96.46"/>
<polygon fill="midnightblue" stroke="midnightblue" points="4913.98,-202.24 4917.49,-212.24 4920.98,-202.23 4913.98,-202.24"/>
</g>
<!-- Node40 -->
<g id="node35" class="node">
<title>Node40</title>
<g id="a_node35"><a xlink:href="../../d8/dba/vpiecenode_8cpp.html" target="_top" xlink:title=" ">
<polygon fill="white" stroke="black" points="4768,-0.5 4768,-30.5 4875,-30.5 4875,-0.5 4768,-0.5"/>
<text text-anchor="start" x="4776" y="-18.5" font-family="Helvetica,sans-Serif" font-size="10.00">src/libs/vpatterndb</text>
<text text-anchor="middle" x="4821.5" y="-7.5" font-family="Helvetica,sans-Serif" font-size="10.00">/vpiecenode.cpp</text>
</a>
</g>
</g>
<!-- Node4&#45;&gt;Node40 -->
<g id="edge57" class="edge">
<title>Node4&#45;&gt;Node40</title>
<path fill="none" stroke="midnightblue" d="M4944.72,-206.12C4955.56,-197.27 4968.02,-186.54 4978.5,-176 4995.64,-158.78 4991.73,-144.79 5013.5,-134 5175.52,-53.68 5949.11,-198.05 5824.5,-67 5791.55,-32.35 5078.53,-20 4875.19,-17.18"/>
<polygon fill="midnightblue" stroke="midnightblue" points="4942.41,-203.49 4936.81,-212.48 4946.8,-208.94 4942.41,-203.49"/>
</g>
<!-- Node57 -->
<g id="node45" class="node">
<title>Node57</title>
<g id="a_node45"><a xlink:href="../../d3/d02/custom__variable__p_8h.html" target="_top" xlink:title=" ">
<polygon fill="white" stroke="black" points="444,-140 444,-170 613,-170 613,-140 444,-140"/>
<text text-anchor="start" x="452" y="-158" font-family="Helvetica,sans-Serif" font-size="10.00">src/libs/vpatterndb</text>
<text text-anchor="middle" x="528.5" y="-147" font-family="Helvetica,sans-Serif" font-size="10.00">/variables/custom_variable_p.h</text>
</a>
</g>
</g>
<!-- Node4&#45;&gt;Node57 -->
<g id="edge50" class="edge">
<title>Node4&#45;&gt;Node57</title>
<path fill="none" stroke="midnightblue" d="M4854.71,-226.34C4397.56,-225.12 1613.93,-216.13 769.5,-176 717.5,-173.53 659.33,-168.76 613.17,-164.5"/>
<polygon fill="midnightblue" stroke="midnightblue" points="4854.75,-229.84 4864.76,-226.37 4854.77,-222.84 4854.75,-229.84"/>
</g>
<!-- Node58 -->
<g id="node46" class="node">
<title>Node58</title>
<g id="a_node46"><a xlink:href="../../d7/d8a/measurement__variable__p_8h.html" target="_top" xlink:title=" ">
<polygon fill="white" stroke="red" points="5022.5,-134.5 5022.5,-175.5 5158.5,-175.5 5158.5,-134.5 5022.5,-134.5"/>
<text text-anchor="start" x="5030.5" y="-163.5" font-family="Helvetica,sans-Serif" font-size="10.00">src/libs/vpatterndb</text>
<text text-anchor="start" x="5030.5" y="-152.5" font-family="Helvetica,sans-Serif" font-size="10.00">/variables/measurement</text>
<text text-anchor="middle" x="5090.5" y="-141.5" font-family="Helvetica,sans-Serif" font-size="10.00">_variable_p.h</text>
</a>
</g>
</g>
<!-- Node4&#45;&gt;Node58 -->
<g id="edge52" class="edge">
<title>Node4&#45;&gt;Node58</title>
<path fill="none" stroke="midnightblue" d="M4962.34,-208.53C4986.92,-198.45 5017.62,-185.87 5042.81,-175.55"/>
<polygon fill="midnightblue" stroke="midnightblue" points="4960.82,-205.37 4952.89,-212.4 4963.47,-211.85 4960.82,-205.37"/>
</g>
<!-- Node60 -->
<g id="node47" class="node">
<title>Node60</title>
<g id="a_node47"><a xlink:href="../../d6/d91/vnodedetail_8cpp.html" target="_top" xlink:title=" ">
<polygon fill="white" stroke="black" points="5177,-140 5177,-170 5284,-170 5284,-140 5177,-140"/>
<text text-anchor="start" x="5185" y="-158" font-family="Helvetica,sans-Serif" font-size="10.00">src/libs/vpatterndb</text>
<text text-anchor="middle" x="5230.5" y="-147" font-family="Helvetica,sans-Serif" font-size="10.00">/vnodedetail.cpp</text>
</a>
</g>
</g>
<!-- Node4&#45;&gt;Node60 -->
<g id="edge55" class="edge">
<title>Node4&#45;&gt;Node60</title>
<path fill="none" stroke="midnightblue" d="M4982.44,-215.49C5032.99,-206.31 5105.19,-192.16 5167.5,-176 5174.28,-174.24 5181.4,-172.19 5188.32,-170.08"/>
<polygon fill="midnightblue" stroke="midnightblue" points="4981.53,-212.09 4972.31,-217.31 4982.77,-218.98 4981.53,-212.09"/>
</g>
<!-- Node61 -->
<g id="node48" class="node">
<title>Node61</title>
<g id="a_node48"><a xlink:href="../../da/de1/vpiecepath_8cpp.html" target="_top" xlink:title=" ">
<polygon fill="white" stroke="black" points="5302,-140 5302,-170 5409,-170 5409,-140 5302,-140"/>
<text text-anchor="start" x="5310" y="-158" font-family="Helvetica,sans-Serif" font-size="10.00">src/libs/vpatterndb</text>
<text text-anchor="middle" x="5355.5" y="-147" font-family="Helvetica,sans-Serif" font-size="10.00">/vpiecepath.cpp</text>
</a>
</g>
</g>
<!-- Node4&#45;&gt;Node61 -->
<g id="edge58" class="edge">
<title>Node4&#45;&gt;Node61</title>
<path fill="none" stroke="midnightblue" d="M4982.5,-221.26C5057.45,-214.34 5185.04,-200.12 5292.5,-176 5299.78,-174.37 5307.42,-172.27 5314.78,-170.06"/>
<polygon fill="midnightblue" stroke="midnightblue" points="4981.92,-217.8 4972.28,-222.19 4982.56,-224.77 4981.92,-217.8"/>
</g>
<!-- Node62 -->
<g id="node49" class="node">
<title>Node62</title>
<g id="a_node49"><a xlink:href="../../d1/d3a/abstracttest_8cpp.html" target="_top" xlink:title=" ">
<polygon fill="white" stroke="black" points="5427,-145.5 5427,-164.5 5588,-164.5 5588,-145.5 5427,-145.5"/>
<text text-anchor="middle" x="5507.5" y="-152.5" font-family="Helvetica,sans-Serif" font-size="10.00">src/libs/vtest/abstracttest.cpp</text>
</a>
</g>
</g>
<!-- Node4&#45;&gt;Node62 -->
<g id="edge59" class="edge">
<title>Node4&#45;&gt;Node62</title>
<path fill="none" stroke="midnightblue" d="M4982.35,-222.46C5077.56,-215.88 5262.19,-201.03 5417.5,-176 5436.15,-173 5456.73,-168.51 5473.49,-164.55"/>
<polygon fill="midnightblue" stroke="midnightblue" points="4982.05,-218.97 4972.31,-223.14 4982.52,-225.95 4982.05,-218.97"/>
</g>
<!-- Node63 -->
<g id="node50" class="node">
<title>Node63</title>
<g id="a_node50"><a xlink:href="../../da/db4/piece__tablewidgetitem_8cpp.html" target="_top" xlink:title=" ">
<polygon fill="white" stroke="black" points="5606.5,-140 5606.5,-170 5734.5,-170 5734.5,-140 5606.5,-140"/>
<text text-anchor="start" x="5614.5" y="-158" font-family="Helvetica,sans-Serif" font-size="10.00">src/libs/vwidgets/piece</text>
<text text-anchor="middle" x="5670.5" y="-147" font-family="Helvetica,sans-Serif" font-size="10.00">_tablewidgetitem.cpp</text>
</a>
</g>
</g>
<!-- Node4&#45;&gt;Node63 -->
<g id="edge60" class="edge">
<title>Node4&#45;&gt;Node63</title>
<path fill="none" stroke="midnightblue" d="M4982.27,-225.77C5103.01,-223.5 5372.93,-214.18 5596.5,-176 5605.42,-174.48 5614.82,-172.35 5623.82,-170.05"/>
<polygon fill="midnightblue" stroke="midnightblue" points="4982.03,-222.27 4972.1,-225.95 4982.16,-229.27 4982.03,-222.27"/>
</g>
<!-- Node5&#45;&gt;Node6 -->
<g id="edge5" class="edge">
<title>Node5&#45;&gt;Node6</title>
<path fill="none" stroke="midnightblue" d="M780.35,-144.37C683.65,-133.66 523.9,-115.56 386.5,-98 372.03,-96.15 356.45,-94.04 341.87,-92.02"/>
<polygon fill="midnightblue" stroke="midnightblue" points="780.05,-147.86 790.38,-145.48 780.82,-140.9 780.05,-147.86"/>
</g>
<!-- Node8 -->
<g id="node8" class="node">
<title>Node8</title>
<g id="a_node8"><a xlink:href="../../dd/d66/vdxfengine_8cpp.html" target="_top" xlink:title=" ">
<polygon fill="white" stroke="black" points="395.5,-73 395.5,-92 549.5,-92 549.5,-73 395.5,-73"/>
<text text-anchor="middle" x="472.5" y="-80" font-family="Helvetica,sans-Serif" font-size="10.00">src/libs/vdxf/vdxfengine.cpp</text>
</a>
</g>
</g>
<!-- Node7&#45;&gt;Node8 -->
<g id="edge8" class="edge">
<title>Node7&#45;&gt;Node8</title>
<path fill="none" stroke="midnightblue" d="M1147.79,-143.91C1124.87,-140.37 1098.53,-136.63 1074.5,-134 845.97,-109.01 786.78,-125.14 558.5,-98 545.27,-96.43 530.97,-94.22 517.91,-92.01"/>
<polygon fill="midnightblue" stroke="midnightblue" points="1147.3,-147.37 1157.72,-145.46 1148.38,-140.46 1147.3,-147.37"/>
</g>
<!-- Node9 -->
<g id="node9" class="node">
<title>Node9</title>
<g id="a_node9"><a xlink:href="../../de/da8/vbank_8cpp.html" target="_top" xlink:title=" ">
<polygon fill="white" stroke="black" points="567.5,-73 567.5,-92 711.5,-92 711.5,-73 567.5,-73"/>
<text text-anchor="middle" x="639.5" y="-80" font-family="Helvetica,sans-Serif" font-size="10.00">src/libs/vlayout/vbank.cpp</text>
</a>
</g>
</g>
<!-- Node7&#45;&gt;Node9 -->
<g id="edge9" class="edge">
<title>Node7&#45;&gt;Node9</title>
<path fill="none" stroke="midnightblue" d="M1145.39,-143.96C1123.03,-140.57 1097.67,-136.91 1074.5,-134 917.58,-114.32 877.11,-119.95 720.5,-98 708.47,-96.31 695.5,-94.15 683.54,-92.01"/>
<polygon fill="midnightblue" stroke="midnightblue" points="1145.02,-147.44 1155.43,-145.5 1146.08,-140.52 1145.02,-147.44"/>
</g>
<!-- Node10 -->
<g id="node10" class="node">
<title>Node10</title>
<g id="a_node10"><a xlink:href="../../df/d5d/vcontour_8cpp.html" target="_top" xlink:title=" ">
<polygon fill="white" stroke="black" points="729.5,-73 729.5,-92 885.5,-92 885.5,-73 729.5,-73"/>
<text text-anchor="middle" x="807.5" y="-80" font-family="Helvetica,sans-Serif" font-size="10.00">src/libs/vlayout/vcontour.cpp</text>
</a>
</g>
</g>
<!-- Node7&#45;&gt;Node10 -->
<g id="edge10" class="edge">
<title>Node7&#45;&gt;Node10</title>
<path fill="none" stroke="midnightblue" d="M1149.8,-143.68C1070.31,-129.71 929.91,-105.02 856.04,-92.03"/>
<polygon fill="midnightblue" stroke="midnightblue" points="1149.68,-147.21 1160.13,-145.5 1150.89,-140.32 1149.68,-147.21"/>
</g>
<!-- Node11 -->
<g id="node11" class="node">
<title>Node11</title>
<g id="a_node11"><a xlink:href="../../d3/d39/vlayoutgenerator_8cpp.html" target="_top" xlink:title=" ">
<polygon fill="white" stroke="black" points="904,-73 904,-92 1101,-92 1101,-73 904,-73"/>
<text text-anchor="middle" x="1002.5" y="-80" font-family="Helvetica,sans-Serif" font-size="10.00">src/libs/vlayout/vlayoutgenerator.cpp</text>
</a>
</g>
</g>
<!-- Node7&#45;&gt;Node11 -->
<g id="edge11" class="edge">
<title>Node7&#45;&gt;Node11</title>
<path fill="none" stroke="midnightblue" d="M1173.99,-142.19C1132.55,-128.01 1064.07,-104.57 1027.44,-92.03"/>
<polygon fill="midnightblue" stroke="midnightblue" points="1173.06,-145.57 1183.65,-145.5 1175.32,-138.95 1173.06,-145.57"/>
</g>
<!-- Node12 -->
<g id="node12" class="node">
<title>Node12</title>
<g id="a_node12"><a xlink:href="../../d2/d2d/vlayoutpaper__p_8h.html" target="_top" xlink:title=" ">
<polygon fill="white" stroke="black" points="1119,-73 1119,-92 1298,-92 1298,-73 1119,-73"/>
<text text-anchor="middle" x="1208.5" y="-80" font-family="Helvetica,sans-Serif" font-size="10.00">src/libs/vlayout/vlayoutpaper_p.h</text>
</a>
</g>
</g>
<!-- Node7&#45;&gt;Node12 -->
<g id="edge12" class="edge">
<title>Node7&#45;&gt;Node12</title>
<path fill="none" stroke="midnightblue" d="M1208.5,-134.94C1208.5,-121.03 1208.5,-102.82 1208.5,-92.22"/>
<polygon fill="midnightblue" stroke="midnightblue" points="1205,-135.36 1208.5,-145.36 1212,-135.36 1205,-135.36"/>
</g>
<!-- Node13 -->
<g id="node13" class="node">
<title>Node13</title>
<g id="a_node13"><a xlink:href="../../d1/dd1/vlayoutpaper_8cpp.html" target="_top" xlink:title=" ">
<polygon fill="white" stroke="black" points="1237.5,-6 1237.5,-25 1415.5,-25 1415.5,-6 1237.5,-6"/>
<text text-anchor="middle" x="1326.5" y="-13" font-family="Helvetica,sans-Serif" font-size="10.00">src/libs/vlayout/vlayoutpaper.cpp</text>
</a>
</g>
</g>
<!-- Node7&#45;&gt;Node13 -->
<g id="edge14" class="edge">
<title>Node7&#45;&gt;Node13</title>
<path fill="none" stroke="midnightblue" d="M1244.75,-141.63C1265.76,-132.67 1291.05,-118.49 1306.5,-98 1323.34,-75.67 1326.17,-40.99 1326.53,-25.05"/>
<polygon fill="midnightblue" stroke="midnightblue" points="1243.41,-138.4 1235.44,-145.39 1246.03,-144.89 1243.41,-138.4"/>
</g>
<!-- Node14 -->
<g id="node14" class="node">
<title>Node14</title>
<g id="a_node14"><a xlink:href="../../db/d5c/vposition_8h.html" target="_top" xlink:title=" ">
<polygon fill="white" stroke="red" points="1354.5,-73 1354.5,-92 1502.5,-92 1502.5,-73 1354.5,-73"/>
<text text-anchor="middle" x="1428.5" y="-80" font-family="Helvetica,sans-Serif" font-size="10.00">src/libs/vlayout/vposition.h</text>
</a>
</g>
</g>
<!-- Node7&#45;&gt;Node14 -->
<g id="edge15" class="edge">
<title>Node7&#45;&gt;Node14</title>
<path fill="none" stroke="midnightblue" d="M1244.8,-142.37C1288.99,-128.21 1362.58,-104.62 1401.87,-92.03"/>
<polygon fill="midnightblue" stroke="midnightblue" points="1243.49,-139.11 1235.04,-145.5 1245.63,-145.78 1243.49,-139.11"/>
</g>
<!-- Node16 -->
<g id="node15" class="node">
<title>Node16</title>
<g id="a_node15"><a xlink:href="../../dd/d70/vlayoutpiece_8cpp.html" target="_top" xlink:title=" ">
<polygon fill="white" stroke="black" points="1521,-73 1521,-92 1698,-92 1698,-73 1521,-73"/>
<text text-anchor="middle" x="1609.5" y="-80" font-family="Helvetica,sans-Serif" font-size="10.00">src/libs/vlayout/vlayoutpiece.cpp</text>
</a>
</g>
</g>
<!-- Node7&#45;&gt;Node16 -->
<g id="edge17" class="edge">
<title>Node7&#45;&gt;Node16</title>
<path fill="none" stroke="midnightblue" d="M1267.2,-143.68C1346.69,-129.71 1487.09,-105.02 1560.96,-92.03"/>
<polygon fill="midnightblue" stroke="midnightblue" points="1266.11,-140.32 1256.87,-145.5 1267.32,-147.21 1266.11,-140.32"/>
</g>
<!-- Node12&#45;&gt;Node13 -->
<g id="edge13" class="edge">
<title>Node12&#45;&gt;Node13</title>
<path fill="none" stroke="midnightblue" d="M1233.39,-67.79C1256.78,-54.9 1291.06,-36.02 1310.84,-25.13"/>
<polygon fill="midnightblue" stroke="midnightblue" points="1231.48,-64.84 1224.41,-72.73 1234.86,-70.97 1231.48,-64.84"/>
</g>
<!-- Node14&#45;&gt;Node13 -->
<g id="edge16" class="edge">
<title>Node14&#45;&gt;Node13</title>
<path fill="none" stroke="midnightblue" d="M1406.17,-67.27C1385.98,-54.4 1356.91,-35.88 1340.04,-25.13"/>
<polygon fill="midnightblue" stroke="midnightblue" points="1404.43,-70.31 1414.74,-72.73 1408.19,-64.41 1404.43,-70.31"/>
</g>
<!-- Node18&#45;&gt;Node16 -->
<g id="edge30" class="edge">
<title>Node18&#45;&gt;Node16</title>
<path fill="none" stroke="midnightblue" d="M3565.87,-152.62C3209.96,-147.77 2072.94,-130.13 1707.5,-98 1691.74,-96.61 1674.65,-94.35 1659.22,-92.02"/>
<polygon fill="midnightblue" stroke="midnightblue" points="3565.87,-156.12 3575.92,-152.75 3565.97,-149.12 3565.87,-156.12"/>
</g>
<!-- Node18&#45;&gt;Node17 -->
<g id="edge31" class="edge">
<title>Node18&#45;&gt;Node17</title>
<path fill="none" stroke="midnightblue" d="M3565.92,-152.17C3234.53,-146.3 2232.15,-126.59 1907.5,-98 1891.51,-96.59 1874.18,-94.34 1858.5,-92.02"/>
<polygon fill="midnightblue" stroke="midnightblue" points="3565.94,-155.68 3576,-152.35 3566.06,-148.68 3565.94,-155.68"/>
</g>
<!-- Node19 -->
<g id="node18" class="node">
<title>Node19</title>
<g id="a_node18"><a xlink:href="../../d4/d90/fvupdater_8cpp.html" target="_top" xlink:title=" ">
<polygon fill="white" stroke="black" points="1917,-73 1917,-92 2070,-92 2070,-73 1917,-73"/>
<text text-anchor="middle" x="1993.5" y="-80" font-family="Helvetica,sans-Serif" font-size="10.00">src/libs/fervor/fvupdater.cpp</text>
</a>
</g>
</g>
<!-- Node18&#45;&gt;Node19 -->
<g id="edge20" class="edge">
<title>Node18&#45;&gt;Node19</title>
<path fill="none" stroke="midnightblue" d="M3565.5,-152.09C3255.72,-146.33 2367.91,-127.63 2078.5,-98 2064.8,-96.6 2049.97,-94.33 2036.59,-92"/>
<polygon fill="midnightblue" stroke="midnightblue" points="3565.77,-155.6 3575.83,-152.29 3565.9,-148.6 3565.77,-155.6"/>
</g>
<!-- Node20 -->
<g id="node19" class="node">
<title>Node20</title>
<g id="a_node19"><a xlink:href="../../d9/dc8/dxiface_8cpp.html" target="_top" xlink:title=" ">
<polygon fill="white" stroke="black" points="2088,-73 2088,-92 2223,-92 2223,-73 2088,-73"/>
<text text-anchor="middle" x="2155.5" y="-80" font-family="Helvetica,sans-Serif" font-size="10.00">src/libs/vdxf/dxiface.cpp</text>
</a>
</g>
</g>
<!-- Node18&#45;&gt;Node20 -->
<g id="edge21" class="edge">
<title>Node18&#45;&gt;Node20</title>
<path fill="none" stroke="midnightblue" d="M3565.81,-151.91C3277.02,-145.97 2489.8,-127.49 2231.5,-98 2219.22,-96.6 2205.95,-94.33 2193.99,-92"/>
<polygon fill="midnightblue" stroke="midnightblue" points="3565.8,-155.41 3575.87,-152.12 3565.95,-148.41 3565.8,-155.41"/>
</g>
<!-- Node21 -->
<g id="node20" class="node">
<title>Node21</title>
<g id="a_node20"><a xlink:href="../../da/d75/vabstractarc__p_8h.html" target="_top" xlink:title=" ">
<polygon fill="white" stroke="red" points="2241,-67.5 2241,-97.5 2348,-97.5 2348,-67.5 2241,-67.5"/>
<text text-anchor="start" x="2249" y="-85.5" font-family="Helvetica,sans-Serif" font-size="10.00">src/libs/vgeometry</text>
<text text-anchor="middle" x="2294.5" y="-74.5" font-family="Helvetica,sans-Serif" font-size="10.00">/vabstractarc_p.h</text>
</a>
</g>
</g>
<!-- Node18&#45;&gt;Node21 -->
<g id="edge22" class="edge">
<title>Node18&#45;&gt;Node21</title>
<path fill="none" stroke="midnightblue" d="M3565.64,-152.02C3294.4,-146.61 2589.03,-129.85 2356.5,-98 2353.76,-97.62 2350.97,-97.18 2348.15,-96.7"/>
<polygon fill="midnightblue" stroke="midnightblue" points="3565.81,-155.52 3575.88,-152.22 3565.95,-148.52 3565.81,-155.52"/>
</g>
<!-- Node23 -->
<g id="node21" class="node">
<title>Node23</title>
<g id="a_node21"><a xlink:href="../../dc/da3/varc__p_8h.html" target="_top" xlink:title=" ">
<polygon fill="white" stroke="red" points="2366,-67.5 2366,-97.5 2473,-97.5 2473,-67.5 2366,-67.5"/>
<text text-anchor="start" x="2374" y="-85.5" font-family="Helvetica,sans-Serif" font-size="10.00">src/libs/vgeometry</text>
<text text-anchor="middle" x="2419.5" y="-74.5" font-family="Helvetica,sans-Serif" font-size="10.00">/varc_p.h</text>
</a>
</g>
</g>
<!-- Node18&#45;&gt;Node23 -->
<g id="edge23" class="edge">
<title>Node18&#45;&gt;Node23</title>
<path fill="none" stroke="midnightblue" d="M3565.63,-151.46C3313.07,-145.1 2689.07,-126.9 2481.5,-98 2478.76,-97.62 2475.97,-97.17 2473.16,-96.68"/>
<polygon fill="midnightblue" stroke="midnightblue" points="3565.83,-154.96 3575.92,-151.72 3566.01,-147.97 3565.83,-154.96"/>
</g>
<!-- Node25 -->
<g id="node22" class="node">
<title>Node25</title>
<g id="a_node22"><a xlink:href="../../d5/d8e/vcubicbezier__p_8h.html" target="_top" xlink:title=" ">
<polygon fill="white" stroke="red" points="2491,-67.5 2491,-97.5 2598,-97.5 2598,-67.5 2491,-67.5"/>
<text text-anchor="start" x="2499" y="-85.5" font-family="Helvetica,sans-Serif" font-size="10.00">src/libs/vgeometry</text>
<text text-anchor="middle" x="2544.5" y="-74.5" font-family="Helvetica,sans-Serif" font-size="10.00">/vcubicbezier_p.h</text>
</a>
</g>
</g>
<!-- Node18&#45;&gt;Node25 -->
<g id="edge24" class="edge">
<title>Node18&#45;&gt;Node25</title>
<path fill="none" stroke="midnightblue" d="M3565.69,-154.63C3372.44,-154.37 2954.72,-147.46 2606.5,-98 2603.76,-97.61 2600.97,-97.16 2598.16,-96.66"/>
<polygon fill="midnightblue" stroke="midnightblue" points="3565.84,-158.13 3575.85,-154.64 3565.85,-151.13 3565.84,-158.13"/>
</g>
<!-- Node27 -->
<g id="node23" class="node">
<title>Node27</title>
<g id="a_node23"><a xlink:href="../../df/dde/vellipticalarc__p_8h.html" target="_top" xlink:title=" ">
<polygon fill="white" stroke="black" points="2616,-67.5 2616,-97.5 2723,-97.5 2723,-67.5 2616,-67.5"/>
<text text-anchor="start" x="2624" y="-85.5" font-family="Helvetica,sans-Serif" font-size="10.00">src/libs/vgeometry</text>
<text text-anchor="middle" x="2669.5" y="-74.5" font-family="Helvetica,sans-Serif" font-size="10.00">/vellipticalarc_p.h</text>
</a>
</g>
</g>
<!-- Node18&#45;&gt;Node27 -->
<g id="edge25" class="edge">
<title>Node18&#45;&gt;Node27</title>
<path fill="none" stroke="midnightblue" d="M3565.45,-152.8C3390.67,-149.68 3035.43,-138.44 2737.5,-98 2732.84,-97.37 2728.01,-96.59 2723.19,-95.73"/>
<polygon fill="midnightblue" stroke="midnightblue" points="3565.62,-156.3 3575.68,-152.98 3565.74,-149.3 3565.62,-156.3"/>
</g>
<!-- Node28 -->
<g id="node24" class="node">
<title>Node28</title>
<g id="a_node24"><a xlink:href="../../d6/dfb/vellipticalarc_8cpp.html" target="_top" xlink:title=" ">
<polygon fill="white" stroke="black" points="2657,-0.5 2657,-30.5 2764,-30.5 2764,-0.5 2657,-0.5"/>
<text text-anchor="start" x="2665" y="-18.5" font-family="Helvetica,sans-Serif" font-size="10.00">src/libs/vgeometry</text>
<text text-anchor="middle" x="2710.5" y="-7.5" font-family="Helvetica,sans-Serif" font-size="10.00">/vellipticalarc.cpp</text>
</a>
</g>
</g>
<!-- Node18&#45;&gt;Node28 -->
<g id="edge27" class="edge">
<title>Node18&#45;&gt;Node28</title>
<path fill="none" stroke="midnightblue" d="M3565.82,-152.41C3341.4,-148.36 2838.75,-135.2 2770.5,-98 2743.19,-83.12 2724.96,-49.85 2716.31,-30.74"/>
<polygon fill="midnightblue" stroke="midnightblue" points="3565.9,-155.91 3575.96,-152.59 3566.03,-148.91 3565.9,-155.91"/>
</g>
<!-- Node29 -->
<g id="node25" class="node">
<title>Node29</title>
<g id="a_node25"><a xlink:href="../../d1/d76/vspline__p_8h.html" target="_top" xlink:title=" ">
<polygon fill="white" stroke="red" points="2780,-67.5 2780,-97.5 2887,-97.5 2887,-67.5 2780,-67.5"/>
<text text-anchor="start" x="2788" y="-85.5" font-family="Helvetica,sans-Serif" font-size="10.00">src/libs/vgeometry</text>
<text text-anchor="middle" x="2833.5" y="-74.5" font-family="Helvetica,sans-Serif" font-size="10.00">/vspline_p.h</text>
</a>
</g>
</g>
<!-- Node18&#45;&gt;Node29 -->
<g id="edge28" class="edge">
<title>Node18&#45;&gt;Node29</title>
<path fill="none" stroke="midnightblue" d="M3565.59,-151.47C3415,-146.76 3133.63,-133.62 2896.5,-98 2893.39,-97.53 2890.21,-97 2887.01,-96.41"/>
<polygon fill="midnightblue" stroke="midnightblue" points="3565.65,-154.98 3575.76,-151.79 3565.87,-147.98 3565.65,-154.98"/>
</g>
<!-- Node31 -->
<g id="node26" class="node">
<title>Node31</title>
<g id="a_node26"><a xlink:href="../../d9/d15/vabstractpiece_8cpp.html" target="_top" xlink:title=" ">
<polygon fill="white" stroke="black" points="2905.5,-73 2905.5,-92 3091.5,-92 3091.5,-73 2905.5,-73"/>
<text text-anchor="middle" x="2998.5" y="-80" font-family="Helvetica,sans-Serif" font-size="10.00">src/libs/vlayout/vabstractpiece.cpp</text>
</a>
</g>
</g>
<!-- Node18&#45;&gt;Node31 -->
<g id="edge29" class="edge">
<title>Node18&#45;&gt;Node31</title>
<path fill="none" stroke="midnightblue" d="M3565.54,-144.87C3450.23,-134.78 3262.22,-117.39 3100.5,-98 3085.85,-96.24 3070.05,-94.11 3055.36,-92.03"/>
<polygon fill="midnightblue" stroke="midnightblue" points="3565.51,-148.38 3575.77,-145.76 3566.12,-141.41 3565.51,-148.38"/>
</g>
<!-- Node32 -->
<g id="node27" class="node">
<title>Node32</title>
<g id="a_node27"><a xlink:href="../../d6/d0b/def_8cpp.html" target="_top" xlink:title=" ">
<polygon fill="white" stroke="black" points="3109.5,-73 3109.5,-92 3231.5,-92 3231.5,-73 3109.5,-73"/>
<text text-anchor="middle" x="3170.5" y="-80" font-family="Helvetica,sans-Serif" font-size="10.00">src/libs/vmisc/def.cpp</text>
</a>
</g>
</g>
<!-- Node18&#45;&gt;Node32 -->
<g id="edge32" class="edge">
<title>Node18&#45;&gt;Node32</title>
<path fill="none" stroke="midnightblue" d="M3583.23,-144.34C3495.44,-134.47 3358.42,-117.81 3240.5,-98 3230.22,-96.27 3219.15,-94.12 3208.91,-92"/>
<polygon fill="midnightblue" stroke="midnightblue" points="3583.1,-147.85 3593.43,-145.48 3583.88,-140.89 3583.1,-147.85"/>
</g>
<!-- Node33 -->
<g id="node28" class="node">
<title>Node33</title>
<g id="a_node28"><a xlink:href="../../db/d65/dialogexporttocsv_8cpp.html" target="_top" xlink:title=" ">
<polygon fill="white" stroke="black" points="3250,-67.5 3250,-97.5 3377,-97.5 3377,-67.5 3250,-67.5"/>
<text text-anchor="start" x="3258" y="-85.5" font-family="Helvetica,sans-Serif" font-size="10.00">src/libs/vmisc/dialogs</text>
<text text-anchor="middle" x="3313.5" y="-74.5" font-family="Helvetica,sans-Serif" font-size="10.00">/dialogexporttocsv.cpp</text>
</a>
</g>
</g>
<!-- Node18&#45;&gt;Node33 -->
<g id="edge33" class="edge">
<title>Node18&#45;&gt;Node33</title>
<path fill="none" stroke="midnightblue" d="M3619.25,-143.47C3561.53,-132.26 3467.56,-113.96 3386.5,-98 3383.46,-97.4 3380.34,-96.79 3377.2,-96.17"/>
<polygon fill="midnightblue" stroke="midnightblue" points="3618.76,-146.94 3629.24,-145.41 3620.09,-140.07 3618.76,-146.94"/>
</g>
<!-- Node34 -->
<g id="node29" class="node">
<title>Node34</title>
<g id="a_node29"><a xlink:href="../../d0/df6/vabstractapplication_8cpp.html" target="_top" xlink:title=" ">
<polygon fill="white" stroke="black" points="3395.5,-73 3395.5,-92 3601.5,-92 3601.5,-73 3395.5,-73"/>
<text text-anchor="middle" x="3498.5" y="-80" font-family="Helvetica,sans-Serif" font-size="10.00">src/libs/vmisc/vabstractapplication.cpp</text>
</a>
</g>
</g>
<!-- Node18&#45;&gt;Node34 -->
<g id="edge34" class="edge">
<title>Node18&#45;&gt;Node34</title>
<path fill="none" stroke="midnightblue" d="M3643.06,-141.74C3607.75,-127.51 3550.47,-104.44 3519.68,-92.03"/>
<polygon fill="midnightblue" stroke="midnightblue" points="3641.81,-145.01 3652.39,-145.5 3644.42,-138.51 3641.81,-145.01"/>
</g>
<!-- Node35 -->
<g id="node30" class="node">
<title>Node35</title>
<g id="a_node30"><a xlink:href="../../d4/d4f/pmsystems_8cpp.html" target="_top" xlink:title=" ">
<polygon fill="white" stroke="black" points="3620,-67.5 3620,-97.5 3727,-97.5 3727,-67.5 3620,-67.5"/>
<text text-anchor="start" x="3628" y="-85.5" font-family="Helvetica,sans-Serif" font-size="10.00">src/libs/vpatterndb</text>
<text text-anchor="middle" x="3673.5" y="-74.5" font-family="Helvetica,sans-Serif" font-size="10.00">/pmsystems.cpp</text>
</a>
</g>
</g>
<!-- Node18&#45;&gt;Node35 -->
<g id="edge35" class="edge">
<title>Node18&#45;&gt;Node35</title>
<path fill="none" stroke="midnightblue" d="M3673.5,-135.24C3673.5,-123.41 3673.5,-108.38 3673.5,-97.58"/>
<polygon fill="midnightblue" stroke="midnightblue" points="3670,-135.36 3673.5,-145.36 3677,-135.36 3670,-135.36"/>
</g>
<!-- Node18&#45;&gt;Node36 -->
<g id="edge36" class="edge">
<title>Node18&#45;&gt;Node36</title>
<path fill="none" stroke="midnightblue" d="M3781.24,-153.35C4114.27,-150.91 5124.28,-140.14 5449.5,-98 5452.51,-97.61 5455.58,-97.14 5458.67,-96.62"/>
<polygon fill="midnightblue" stroke="midnightblue" points="3781.08,-149.85 3771.11,-153.42 3781.13,-156.85 3781.08,-149.85"/>
</g>
<!-- Node18&#45;&gt;Node37 -->
<g id="edge37" class="edge">
<title>Node18&#45;&gt;Node37</title>
<path fill="none" stroke="midnightblue" d="M3781.24,-152.28C4173.04,-145.83 5509.22,-122.28 5699.5,-98 5702.51,-97.62 5705.58,-97.15 5708.67,-96.63"/>
<polygon fill="midnightblue" stroke="midnightblue" points="3780.98,-148.78 3771.04,-152.44 3781.09,-155.78 3780.98,-148.78"/>
</g>
<!-- Node18&#45;&gt;Node38 -->
<g id="edge38" class="edge">
<title>Node18&#45;&gt;Node38</title>
<path fill="none" stroke="midnightblue" d="M3781.22,-152.07C4157.05,-145.14 5397.03,-120.81 5574.5,-98 5577.51,-97.61 5580.58,-97.15 5583.67,-96.62"/>
<polygon fill="midnightblue" stroke="midnightblue" points="3781.09,-148.57 3771.16,-152.25 3781.22,-155.57 3781.09,-148.57"/>
</g>
<!-- Node39 -->
<g id="node34" class="node">
<title>Node39</title>
<g id="a_node34"><a xlink:href="../../df/dba/vpiecenode__p_8h.html" target="_top" xlink:title=" ">
<polygon fill="white" stroke="black" points="3745,-67.5 3745,-97.5 3852,-97.5 3852,-67.5 3745,-67.5"/>
<text text-anchor="start" x="3753" y="-85.5" font-family="Helvetica,sans-Serif" font-size="10.00">src/libs/vpatterndb</text>
<text text-anchor="middle" x="3798.5" y="-74.5" font-family="Helvetica,sans-Serif" font-size="10.00">/vpiecenode_p.h</text>
</a>
</g>
</g>
<!-- Node18&#45;&gt;Node39 -->
<g id="edge39" class="edge">
<title>Node18&#45;&gt;Node39</title>
<path fill="none" stroke="midnightblue" d="M3697.79,-140.3C3719.61,-127.99 3751.52,-110 3773.54,-97.58"/>
<polygon fill="midnightblue" stroke="midnightblue" points="3695.82,-137.39 3688.83,-145.36 3699.26,-143.49 3695.82,-137.39"/>
</g>
<!-- Node41 -->
<g id="node36" class="node">
<title>Node41</title>
<g id="a_node36"><a xlink:href="../../de/d3e/vtranslatevars_8cpp.html" target="_top" xlink:title=" ">
<polygon fill="white" stroke="black" points="3870.5,-67.5 3870.5,-97.5 3980.5,-97.5 3980.5,-67.5 3870.5,-67.5"/>
<text text-anchor="start" x="3878.5" y="-85.5" font-family="Helvetica,sans-Serif" font-size="10.00">src/libs/vpatterndb</text>
<text text-anchor="middle" x="3925.5" y="-74.5" font-family="Helvetica,sans-Serif" font-size="10.00">/vtranslatevars.cpp</text>
</a>
</g>
</g>
<!-- Node18&#45;&gt;Node41 -->
<g id="edge41" class="edge">
<title>Node18&#45;&gt;Node41</title>
<path fill="none" stroke="midnightblue" d="M3713.65,-142.77C3757.55,-130.49 3827.96,-110.79 3875.44,-97.51"/>
<polygon fill="midnightblue" stroke="midnightblue" points="3712.58,-139.43 3703.9,-145.5 3714.47,-146.17 3712.58,-139.43"/>
</g>
<!-- Node42 -->
<g id="node37" class="node">
<title>Node42</title>
<g id="a_node37"><a xlink:href="../../df/d40/export__format__combobox_8cpp.html" target="_top" xlink:title=" ">
<polygon fill="white" stroke="black" points="3999,-67.5 3999,-97.5 4132,-97.5 4132,-67.5 3999,-67.5"/>
<text text-anchor="start" x="4007" y="-85.5" font-family="Helvetica,sans-Serif" font-size="10.00">src/libs/vwidgets/export</text>
<text text-anchor="middle" x="4065.5" y="-74.5" font-family="Helvetica,sans-Serif" font-size="10.00">_format_combobox.cpp</text>
</a>
</g>
</g>
<!-- Node18&#45;&gt;Node42 -->
<g id="edge42" class="edge">
<title>Node18&#45;&gt;Node42</title>
<path fill="none" stroke="midnightblue" d="M3733.03,-143.69C3796.58,-132.63 3900.22,-114.43 3989.5,-98 3992.54,-97.44 3995.64,-96.87 3998.78,-96.28"/>
<polygon fill="midnightblue" stroke="midnightblue" points="3732.05,-140.31 3722.8,-145.47 3733.25,-147.2 3732.05,-140.31"/>
</g>
<!-- Node43 -->
<g id="node38" class="node">
<title>Node43</title>
<g id="a_node38"><a xlink:href="../../d3/d4f/mouse__coordinates_8cpp.html" target="_top" xlink:title=" ">
<polygon fill="white" stroke="black" points="4150.5,-67.5 4150.5,-97.5 4284.5,-97.5 4284.5,-67.5 4150.5,-67.5"/>
<text text-anchor="start" x="4158.5" y="-85.5" font-family="Helvetica,sans-Serif" font-size="10.00">src/libs/vwidgets/mouse</text>
<text text-anchor="middle" x="4217.5" y="-74.5" font-family="Helvetica,sans-Serif" font-size="10.00">_coordinates.cpp</text>
</a>
</g>
</g>
<!-- Node18&#45;&gt;Node43 -->
<g id="edge43" class="edge">
<title>Node18&#45;&gt;Node43</title>
<path fill="none" stroke="midnightblue" d="M3769.07,-144.43C3863.64,-134.51 4012.41,-117.72 4140.5,-98 4143.73,-97.5 4147.03,-96.97 4150.35,-96.42"/>
<polygon fill="midnightblue" stroke="midnightblue" points="3768.53,-140.96 3758.95,-145.48 3769.26,-147.93 3768.53,-140.96"/>
</g>
<!-- Node44 -->
<g id="node39" class="node">
<title>Node44</title>
<g id="a_node39"><a xlink:href="../../d2/d28/page__format__combobox_8cpp.html" target="_top" xlink:title=" ">
<polygon fill="white" stroke="black" points="4303,-67.5 4303,-97.5 4434,-97.5 4434,-67.5 4303,-67.5"/>
<text text-anchor="start" x="4311" y="-85.5" font-family="Helvetica,sans-Serif" font-size="10.00">src/libs/vwidgets/page</text>
<text text-anchor="middle" x="4368.5" y="-74.5" font-family="Helvetica,sans-Serif" font-size="10.00">_format_combobox.cpp</text>
</a>
</g>
</g>
<!-- Node18&#45;&gt;Node44 -->
<g id="edge44" class="edge">
<title>Node18&#45;&gt;Node44</title>
<path fill="none" stroke="midnightblue" d="M3781.29,-147.58C3905.26,-139.42 4114.73,-123.29 4293.5,-98 4296.52,-97.57 4299.6,-97.11 4302.71,-96.61"/>
<polygon fill="midnightblue" stroke="midnightblue" points="3780.79,-144.1 3771.04,-148.24 3781.24,-151.09 3780.79,-144.1"/>
</g>
<!-- Node45 -->
<g id="node40" class="node">
<title>Node45</title>
<g id="a_node40"><a xlink:href="../../d7/d1b/pen__toolbar_8cpp.html" target="_top" xlink:title=" ">
<polygon fill="white" stroke="black" points="4452,-67.5 4452,-97.5 4571,-97.5 4571,-67.5 4452,-67.5"/>
<text text-anchor="start" x="4460" y="-85.5" font-family="Helvetica,sans-Serif" font-size="10.00">src/libs/vwidgets/pen</text>
<text text-anchor="middle" x="4511.5" y="-74.5" font-family="Helvetica,sans-Serif" font-size="10.00">_toolbar.cpp</text>
</a>
</g>
</g>
<!-- Node18&#45;&gt;Node45 -->
<g id="edge45" class="edge">
<title>Node18&#45;&gt;Node45</title>
<path fill="none" stroke="midnightblue" d="M3781.14,-150.73C3930.29,-145.15 4207.97,-131.03 4442.5,-98 4445.53,-97.57 4448.63,-97.09 4451.75,-96.57"/>
<polygon fill="midnightblue" stroke="midnightblue" points="3780.92,-147.23 3771.06,-151.1 3781.18,-154.23 3780.92,-147.23"/>
</g>
<!-- Node46 -->
<g id="node41" class="node">
<title>Node46</title>
<g id="a_node41"><a xlink:href="../../d8/d76/scene__rect_8cpp.html" target="_top" xlink:title=" ">
<polygon fill="white" stroke="black" points="4589.5,-67.5 4589.5,-97.5 4719.5,-97.5 4719.5,-67.5 4589.5,-67.5"/>
<text text-anchor="start" x="4597.5" y="-85.5" font-family="Helvetica,sans-Serif" font-size="10.00">src/libs/vwidgets/scene</text>
<text text-anchor="middle" x="4654.5" y="-74.5" font-family="Helvetica,sans-Serif" font-size="10.00">_rect.cpp</text>
</a>
</g>
</g>
<!-- Node18&#45;&gt;Node46 -->
<g id="edge46" class="edge">
<title>Node18&#45;&gt;Node46</title>
<path fill="none" stroke="midnightblue" d="M3781.31,-151.84C3951.51,-147.41 4292.62,-134.44 4579.5,-98 4582.66,-97.6 4585.88,-97.15 4589.13,-96.65"/>
<polygon fill="midnightblue" stroke="midnightblue" points="3781,-148.34 3771.09,-152.1 3781.18,-155.34 3781,-148.34"/>
</g>
<!-- Node47 -->
<g id="node42" class="node">
<title>Node47</title>
<g id="a_node42"><a xlink:href="../../dd/df6/vabstractmainwindow_8cpp.html" target="_top" xlink:title=" ">
<polygon fill="white" stroke="black" points="4738,-73 4738,-92 4967,-92 4967,-73 4738,-73"/>
<text text-anchor="middle" x="4852.5" y="-80" font-family="Helvetica,sans-Serif" font-size="10.00">src/libs/vwidgets/vabstractmainwindow.cpp</text>
</a>
</g>
</g>
<!-- Node18&#45;&gt;Node47 -->
<g id="edge47" class="edge">
<title>Node18&#45;&gt;Node47</title>
<path fill="none" stroke="midnightblue" d="M3781.13,-150.54C3972.15,-143.9 4382.87,-127.35 4728.5,-98 4747.29,-96.4 4767.63,-94.22 4786.3,-92.03"/>
<polygon fill="midnightblue" stroke="midnightblue" points="3780.97,-147.04 3771.09,-150.89 3781.21,-154.04 3780.97,-147.04"/>
</g>
<!-- Node48 -->
<g id="node43" class="node">
<title>Node48</title>
<g id="a_node43"><a xlink:href="../../d1/d90/vgrainlineitem_8cpp.html" target="_top" xlink:title=" ">
<polygon fill="white" stroke="black" points="4985,-73 4985,-92 5178,-92 5178,-73 4985,-73"/>
<text text-anchor="middle" x="5081.5" y="-80" font-family="Helvetica,sans-Serif" font-size="10.00">src/libs/vwidgets/vgrainlineitem.cpp</text>
</a>
</g>
</g>
<!-- Node18&#45;&gt;Node48 -->
<g id="edge48" class="edge">
<title>Node18&#45;&gt;Node48</title>
<path fill="none" stroke="midnightblue" d="M3781.37,-152.75C4004.66,-149.41 4533.57,-137.64 4975.5,-98 4992.06,-96.51 5009.99,-94.3 5026.32,-92.04"/>
<polygon fill="midnightblue" stroke="midnightblue" points="3781.24,-149.25 3771.29,-152.9 3781.35,-156.25 3781.24,-149.25"/>
</g>
<!-- Node49 -->
<g id="node44" class="node">
<title>Node49</title>
<g id="a_node44"><a xlink:href="../../de/dec/vgraphicssimpletextitem_8cpp.html" target="_top" xlink:title=" ">
<polygon fill="white" stroke="black" points="5196.5,-73 5196.5,-92 5440.5,-92 5440.5,-73 5196.5,-73"/>
<text text-anchor="middle" x="5318.5" y="-80" font-family="Helvetica,sans-Serif" font-size="10.00">src/libs/vwidgets/vgraphicssimpletextitem.cpp</text>
</a>
</g>
</g>
<!-- Node18&#45;&gt;Node49 -->
<g id="edge49" class="edge">
<title>Node18&#45;&gt;Node49</title>
<path fill="none" stroke="midnightblue" d="M3781.54,-152.69C4029.92,-149.08 4660.64,-136.56 5186.5,-98 5207.08,-96.49 5229.4,-94.26 5249.74,-92.01"/>
<polygon fill="midnightblue" stroke="midnightblue" points="3781.38,-149.19 3771.43,-152.83 3781.48,-156.19 3781.38,-149.19"/>
</g>
<!-- Node27&#45;&gt;Node28 -->
<g id="edge26" class="edge">
<title>Node27&#45;&gt;Node28</title>
<path fill="none" stroke="midnightblue" d="M2683.78,-58.87C2689.71,-49.46 2696.41,-38.83 2701.62,-30.58"/>
<polygon fill="midnightblue" stroke="midnightblue" points="2680.77,-57.07 2678.4,-67.4 2686.69,-60.81 2680.77,-57.07"/>
</g>
<!-- Node39&#45;&gt;Node40 -->
<g id="edge40" class="edge">
<title>Node39&#45;&gt;Node40</title>
<path fill="none" stroke="midnightblue" d="M3862.41,-67.06C4212.17,-18.85 4623.04,-15.6 4767.85,-16.07"/>
<polygon fill="midnightblue" stroke="midnightblue" points="3861.76,-63.61 3852.34,-68.46 3862.73,-70.55 3861.76,-63.61"/>
</g>
<!-- Node57&#45;&gt;Node2 -->
<g id="edge51" class="edge">
<title>Node57&#45;&gt;Node2</title>
<path fill="none" stroke="midnightblue" d="M434.05,-139C355.53,-126.53 244.78,-108.95 169.12,-96.94"/>
<polygon fill="midnightblue" stroke="midnightblue" points="433.52,-142.46 443.94,-140.57 434.61,-135.55 433.52,-142.46"/>
</g>
</g>
</svg>
