<?xml version="1.0" encoding="UTF-8" standalone="no"?>
<!DOCTYPE svg PUBLIC "-//W3C//DTD SVG 1.1//EN"
 "http://www.w3.org/Graphics/SVG/1.1/DTD/svg11.dtd">
<!-- Generated by graphviz version 2.43.0 (0)
 -->
<!-- Title: src/libs/vpatterndb/variables/custom_variable.h Pages: 1 -->
<svg width="6302pt" height="379pt"
 viewBox="0.00 0.00 6301.50 379.00" xmlns="http://www.w3.org/2000/svg" xmlns:xlink="http://www.w3.org/1999/xlink">
<g id="graph0" class="graph" transform="scale(1 1) rotate(0) translate(4 375)">
<title>src/libs/vpatterndb/variables/custom_variable.h</title>
<!-- Node1 -->
<g id="node1" class="node">
<title>Node1</title>
<g id="a_node1"><a xlink:title=" ">
<polygon fill="#999999" stroke="#666666" points="6293.5,-371 6135.5,-371 6135.5,-341 6293.5,-341 6293.5,-371"/>
<text text-anchor="start" x="6143.5" y="-359" font-family="Helvetica,sans-Serif" font-size="10.00">src/libs/vpatterndb</text>
<text text-anchor="middle" x="6214.5" y="-348" font-family="Helvetica,sans-Serif" font-size="10.00">/variables/custom_variable.h</text>
</a>
</g>
</g>
<!-- Node2 -->
<g id="node2" class="node">
<title>Node2</title>
<g id="a_node2"><a xlink:href="../../de/dca/variables_8h.html" target="_top" xlink:title=" ">
<polygon fill="white" stroke="#666666" points="5743,-305 5636,-305 5636,-275 5743,-275 5743,-305"/>
<text text-anchor="start" x="5644" y="-293" font-family="Helvetica,sans-Serif" font-size="10.00">src/libs/vpatterndb</text>
<text text-anchor="middle" x="5689.5" y="-282" font-family="Helvetica,sans-Serif" font-size="10.00">/variables.h</text>
</a>
</g>
</g>
<!-- Node1&#45;&gt;Node2 -->
<g id="edge1" class="edge">
<title>Node1&#45;&gt;Node2</title>
<path fill="none" stroke="#63b8ff" d="M6125.29,-344.12C6015.72,-330.77 5833.34,-308.54 5743.25,-297.55"/>
<polygon fill="#63b8ff" stroke="#63b8ff" points="6124.98,-347.61 6135.33,-345.35 6125.83,-340.66 6124.98,-347.61"/>
</g>
<!-- Node38 -->
<g id="node32" class="node">
<title>Node38</title>
<g id="a_node32"><a xlink:href="../../d6/d46/vcontainer_8cpp.html" target="_top" xlink:title=" ">
<polygon fill="white" stroke="#666666" points="5313,-96 5206,-96 5206,-66 5313,-66 5313,-96"/>
<text text-anchor="start" x="5214" y="-84" font-family="Helvetica,sans-Serif" font-size="10.00">src/libs/vpatterndb</text>
<text text-anchor="middle" x="5259.5" y="-73" font-family="Helvetica,sans-Serif" font-size="10.00">/vcontainer.cpp</text>
</a>
</g>
</g>
<!-- Node1&#45;&gt;Node38 -->
<g id="edge63" class="edge">
<title>Node1&#45;&gt;Node38</title>
<path fill="none" stroke="#63b8ff" d="M6216.23,-330.68C6219.35,-278.62 6223.25,-158.89 6195.5,-132 6163.65,-101.14 5507.3,-86.58 5313.14,-82.94"/>
<polygon fill="#63b8ff" stroke="#63b8ff" points="6212.71,-330.78 6215.57,-340.99 6219.7,-331.23 6212.71,-330.78"/>
</g>
<!-- Node63 -->
<g id="node46" class="node">
<title>Node63</title>
<g id="a_node46"><a xlink:href="../../d2/d1e/custom__variable_8cpp.html" target="_top" xlink:title=" ">
<polygon fill="white" stroke="#666666" points="6276,-96 6107,-96 6107,-66 6276,-66 6276,-96"/>
<text text-anchor="start" x="6115" y="-84" font-family="Helvetica,sans-Serif" font-size="10.00">src/libs/vpatterndb</text>
<text text-anchor="middle" x="6191.5" y="-73" font-family="Helvetica,sans-Serif" font-size="10.00">/variables/custom_variable.cpp</text>
</a>
</g>
</g>
<!-- Node1&#45;&gt;Node63 -->
<g id="edge62" class="edge">
<title>Node1&#45;&gt;Node63</title>
<path fill="none" stroke="#63b8ff" d="M6222.61,-331.13C6225.01,-322.95 6227.31,-313.67 6228.5,-305 6238.96,-228.83 6252.58,-205.02 6228.5,-132 6224.04,-118.46 6214.34,-105.59 6205.99,-96.3"/>
<polygon fill="#63b8ff" stroke="#63b8ff" points="6219.24,-330.19 6219.6,-340.78 6225.92,-332.28 6219.24,-330.19"/>
</g>
<!-- Node3 -->
<g id="node3" class="node">
<title>Node3</title>
<g id="a_node3"><a xlink:href="../../d3/df7/vcontainer_8h.html" target="_top" xlink:title=" ">
<polygon fill="white" stroke="#666666" points="5251,-239 5144,-239 5144,-209 5251,-209 5251,-239"/>
<text text-anchor="start" x="5152" y="-227" font-family="Helvetica,sans-Serif" font-size="10.00">src/libs/vpatterndb</text>
<text text-anchor="middle" x="5197.5" y="-216" font-family="Helvetica,sans-Serif" font-size="10.00">/vcontainer.h</text>
</a>
</g>
</g>
<!-- Node2&#45;&gt;Node3 -->
<g id="edge2" class="edge">
<title>Node2&#45;&gt;Node3</title>
<path fill="none" stroke="#63b8ff" d="M5625.86,-280.72C5528.01,-267.99 5342.38,-243.85 5251.02,-231.96"/>
<polygon fill="#63b8ff" stroke="#63b8ff" points="5625.54,-284.21 5635.91,-282.03 5626.45,-277.27 5625.54,-284.21"/>
</g>
<!-- Node4 -->
<g id="node4" class="node">
<title>Node4</title>
<g id="a_node4"><a xlink:href="../../d9/de3/measurements_8cpp.html" target="_top" xlink:title=" ">
<polygon fill="white" stroke="#666666" points="6026.5,-90.5 5836.5,-90.5 5836.5,-71.5 6026.5,-71.5 6026.5,-90.5"/>
<text text-anchor="middle" x="5931.5" y="-78.5" font-family="Helvetica,sans-Serif" font-size="10.00">src/libs/vformat/measurements.cpp</text>
</a>
</g>
</g>
<!-- Node3&#45;&gt;Node4 -->
<g id="edge3" class="edge">
<title>Node3&#45;&gt;Node4</title>
<path fill="none" stroke="#63b8ff" d="M5261.26,-221.23C5442.02,-215.89 5946.37,-198.75 5970.5,-173 5993.54,-148.42 5958.44,-108.14 5940.72,-90.6"/>
<polygon fill="#63b8ff" stroke="#63b8ff" points="5261,-217.73 5251.11,-221.52 5261.2,-224.73 5261,-217.73"/>
</g>
<!-- Node5 -->
<g id="node5" class="node">
<title>Node5</title>
<g id="a_node5"><a xlink:href="../../dc/db7/measurements_8h.html" target="_top" xlink:title=" ">
<polygon fill="white" stroke="#666666" points="5962,-162 5783,-162 5783,-143 5962,-143 5962,-162"/>
<text text-anchor="middle" x="5872.5" y="-150" font-family="Helvetica,sans-Serif" font-size="10.00">src/libs/vformat/measurements.h</text>
</a>
</g>
</g>
<!-- Node3&#45;&gt;Node5 -->
<g id="edge4" class="edge">
<title>Node3&#45;&gt;Node5</title>
<path fill="none" stroke="#63b8ff" d="M5261.59,-219.7C5368.21,-213.7 5588.59,-199.16 5773.5,-173 5793.62,-170.15 5815.83,-165.88 5834.11,-162.06"/>
<polygon fill="#63b8ff" stroke="#63b8ff" points="5261.11,-216.22 5251.32,-220.27 5261.5,-223.21 5261.11,-216.22"/>
</g>
<!-- Node6 -->
<g id="node6" class="node">
<title>Node6</title>
<g id="a_node6"><a xlink:href="../../d6/de0/vlayoutpiece_8h.html" target="_top" xlink:title=" ">
<polygon fill="white" stroke="#666666" points="728.5,-162 562.5,-162 562.5,-143 728.5,-143 728.5,-162"/>
<text text-anchor="middle" x="645.5" y="-150" font-family="Helvetica,sans-Serif" font-size="10.00">src/libs/vlayout/vlayoutpiece.h</text>
</a>
</g>
</g>
<!-- Node3&#45;&gt;Node6 -->
<g id="edge6" class="edge">
<title>Node3&#45;&gt;Node6</title>
<path fill="none" stroke="#63b8ff" d="M5133.53,-222.9C4753.43,-222.19 2753.23,-216.42 1121.5,-173 983.84,-169.34 823.89,-162.19 728.88,-157.64"/>
<polygon fill="#63b8ff" stroke="#63b8ff" points="5133.77,-226.4 5143.78,-222.92 5133.78,-219.4 5133.77,-226.4"/>
</g>
<!-- Node16 -->
<g id="node15" class="node">
<title>Node16</title>
<g id="a_node15"><a xlink:href="../../d8/d70/vtextmanager_8cpp.html" target="_top" xlink:title=" ">
<polygon fill="white" stroke="#666666" points="1540.5,-90.5 1358.5,-90.5 1358.5,-71.5 1540.5,-71.5 1540.5,-90.5"/>
<text text-anchor="middle" x="1449.5" y="-78.5" font-family="Helvetica,sans-Serif" font-size="10.00">src/libs/vlayout/vtextmanager.cpp</text>
</a>
</g>
</g>
<!-- Node3&#45;&gt;Node16 -->
<g id="edge17" class="edge">
<title>Node3&#45;&gt;Node16</title>
<path fill="none" stroke="#63b8ff" d="M5133.71,-223.06C4778.36,-222.91 3007.09,-215.91 1566.5,-96 1549.27,-94.57 1530.67,-92.55 1513.48,-90.5"/>
<polygon fill="#63b8ff" stroke="#63b8ff" points="5133.81,-226.56 5143.81,-223.06 5133.81,-219.56 5133.81,-226.56"/>
</g>
<!-- Node17 -->
<g id="node16" class="node">
<title>Node17</title>
<g id="a_node16"><a xlink:href="../../d5/d74/vabstractapplication_8h.html" target="_top" xlink:title=" ">
<polygon fill="#fff0f0" stroke="red" points="3408,-162 3213,-162 3213,-143 3408,-143 3408,-162"/>
<text text-anchor="middle" x="3310.5" y="-150" font-family="Helvetica,sans-Serif" font-size="10.00">src/libs/vmisc/vabstractapplication.h</text>
</a>
</g>
</g>
<!-- Node3&#45;&gt;Node17 -->
<g id="edge18" class="edge">
<title>Node3&#45;&gt;Node17</title>
<path fill="none" stroke="#63b8ff" d="M5133.48,-220.64C4854.67,-210.37 3745.36,-169.52 3408.2,-157.1"/>
<polygon fill="#63b8ff" stroke="#63b8ff" points="5133.69,-224.15 5143.82,-221.02 5133.95,-217.16 5133.69,-224.15"/>
</g>
<!-- Node3&#45;&gt;Node38 -->
<g id="edge54" class="edge">
<title>Node3&#45;&gt;Node38</title>
<path fill="none" stroke="#63b8ff" d="M5180.45,-200.54C5168.14,-181.37 5155.75,-153.56 5168.5,-132 5178.41,-115.24 5196.16,-103.73 5213.36,-96.01"/>
<polygon fill="#63b8ff" stroke="#63b8ff" points="5177.66,-202.65 5186.19,-208.94 5183.44,-198.7 5177.66,-202.65"/>
</g>
<!-- Node39 -->
<g id="node33" class="node">
<title>Node39</title>
<g id="a_node33"><a xlink:href="../../db/d11/vformula_8cpp.html" target="_top" xlink:title=" ">
<polygon fill="white" stroke="#666666" points="5024,-96 4917,-96 4917,-66 5024,-66 5024,-96"/>
<text text-anchor="start" x="4925" y="-84" font-family="Helvetica,sans-Serif" font-size="10.00">src/libs/vpatterndb</text>
<text text-anchor="middle" x="4970.5" y="-73" font-family="Helvetica,sans-Serif" font-size="10.00">/vformula.cpp</text>
</a>
</g>
</g>
<!-- Node3&#45;&gt;Node39 -->
<g id="edge55" class="edge">
<title>Node3&#45;&gt;Node39</title>
<path fill="none" stroke="#63b8ff" d="M5149.43,-205.23C5128.54,-196.68 5104.17,-185.55 5083.5,-173 5045.39,-149.86 5005.96,-115.22 4985.25,-96.04"/>
<polygon fill="#63b8ff" stroke="#63b8ff" points="5148.18,-208.5 5158.76,-208.98 5150.79,-202 5148.18,-208.5"/>
</g>
<!-- Node40 -->
<g id="node34" class="node">
<title>Node40</title>
<g id="a_node34"><a xlink:href="../../df/d7a/vpiece_8cpp.html" target="_top" xlink:title=" ">
<polygon fill="white" stroke="#666666" points="5149,-96 5042,-96 5042,-66 5149,-66 5149,-96"/>
<text text-anchor="start" x="5050" y="-84" font-family="Helvetica,sans-Serif" font-size="10.00">src/libs/vpatterndb</text>
<text text-anchor="middle" x="5095.5" y="-73" font-family="Helvetica,sans-Serif" font-size="10.00">/vpiece.cpp</text>
</a>
</g>
</g>
<!-- Node3&#45;&gt;Node40 -->
<g id="edge57" class="edge">
<title>Node3&#45;&gt;Node40</title>
<path fill="none" stroke="#63b8ff" d="M5135.44,-204.72C5120.55,-197.3 5106.4,-187.06 5097.5,-173 5082.62,-149.5 5087.25,-115.3 5091.6,-96.22"/>
<polygon fill="#63b8ff" stroke="#63b8ff" points="5134.21,-208.01 5144.76,-208.98 5137.12,-201.64 5134.21,-208.01"/>
</g>
<!-- Node42 -->
<g id="node36" class="node">
<title>Node42</title>
<g id="a_node36"><a xlink:href="../../d8/dba/vpiecenode_8cpp.html" target="_top" xlink:title=" ">
<polygon fill="white" stroke="#666666" points="5065,-30 4958,-30 4958,0 5065,0 5065,-30"/>
<text text-anchor="start" x="4966" y="-18" font-family="Helvetica,sans-Serif" font-size="10.00">src/libs/vpatterndb</text>
<text text-anchor="middle" x="5011.5" y="-7" font-family="Helvetica,sans-Serif" font-size="10.00">/vpiecenode.cpp</text>
</a>
</g>
</g>
<!-- Node3&#45;&gt;Node42 -->
<g id="edge58" class="edge">
<title>Node3&#45;&gt;Node42</title>
<path fill="none" stroke="#63b8ff" d="M5176.15,-201.15C5169.53,-192.98 5163.04,-183.2 5159.5,-173 5143.89,-128.07 5185.51,-104.44 5157.5,-66 5136.43,-37.09 5097.64,-24.74 5065.33,-19.53"/>
<polygon fill="#63b8ff" stroke="#63b8ff" points="5173.52,-203.47 5182.71,-208.74 5178.82,-198.89 5173.52,-203.47"/>
</g>
<!-- Node43 -->
<g id="node37" class="node">
<title>Node43</title>
<g id="a_node37"><a xlink:href="../../da/de1/vpiecepath_8cpp.html" target="_top" xlink:title=" ">
<polygon fill="white" stroke="#666666" points="1622,-30 1515,-30 1515,0 1622,0 1622,-30"/>
<text text-anchor="start" x="1523" y="-18" font-family="Helvetica,sans-Serif" font-size="10.00">src/libs/vpatterndb</text>
<text text-anchor="middle" x="1568.5" y="-7" font-family="Helvetica,sans-Serif" font-size="10.00">/vpiecepath.cpp</text>
</a>
</g>
</g>
<!-- Node3&#45;&gt;Node43 -->
<g id="edge59" class="edge">
<title>Node3&#45;&gt;Node43</title>
<path fill="none" stroke="#63b8ff" d="M5133.77,-222.59C4744.75,-219.99 2686.05,-204.89 2055.5,-173 1854.58,-162.84 1289.57,-244.18 1153.5,-96 1144.48,-86.18 1144.65,-75.98 1153.5,-66 1177.09,-39.39 1407.82,-24.22 1514.68,-18.57"/>
<polygon fill="#63b8ff" stroke="#63b8ff" points="5133.96,-226.09 5143.99,-222.66 5134.01,-219.09 5133.96,-226.09"/>
</g>
<!-- Node62 -->
<g id="node45" class="node">
<title>Node62</title>
<g id="a_node45"><a xlink:href="../../d3/d02/custom__variable__p_8h.html" target="_top" xlink:title=" ">
<polygon fill="white" stroke="#666666" points="6187,-167.5 6018,-167.5 6018,-137.5 6187,-137.5 6187,-167.5"/>
<text text-anchor="start" x="6026" y="-155.5" font-family="Helvetica,sans-Serif" font-size="10.00">src/libs/vpatterndb</text>
<text text-anchor="middle" x="6102.5" y="-144.5" font-family="Helvetica,sans-Serif" font-size="10.00">/variables/custom_variable_p.h</text>
</a>
</g>
</g>
<!-- Node3&#45;&gt;Node62 -->
<g id="edge51" class="edge">
<title>Node3&#45;&gt;Node62</title>
<path fill="none" stroke="#63b8ff" d="M5261.38,-221.96C5398.19,-219.09 5729.43,-208.72 6004.5,-173 6015.51,-171.57 6027.14,-169.64 6038.39,-167.54"/>
<polygon fill="#63b8ff" stroke="#63b8ff" points="5261.02,-218.46 5251.09,-222.17 5261.16,-225.46 5261.02,-218.46"/>
</g>
<!-- Node64 -->
<g id="node47" class="node">
<title>Node64</title>
<g id="a_node47"><a xlink:href="../../d7/d8a/measurement__variable__p_8h.html" target="_top" xlink:title=" ">
<polygon fill="#fff0f0" stroke="red" points="5313.5,-173 5177.5,-173 5177.5,-132 5313.5,-132 5313.5,-173"/>
<text text-anchor="start" x="5185.5" y="-161" font-family="Helvetica,sans-Serif" font-size="10.00">src/libs/vpatterndb</text>
<text text-anchor="start" x="5185.5" y="-150" font-family="Helvetica,sans-Serif" font-size="10.00">/variables/measurement</text>
<text text-anchor="middle" x="5245.5" y="-139" font-family="Helvetica,sans-Serif" font-size="10.00">_variable_p.h</text>
</a>
</g>
</g>
<!-- Node3&#45;&gt;Node64 -->
<g id="edge53" class="edge">
<title>Node3&#45;&gt;Node64</title>
<path fill="none" stroke="#63b8ff" d="M5212.98,-200.59C5219.1,-191.73 5226.07,-181.63 5231.98,-173.07"/>
<polygon fill="#63b8ff" stroke="#63b8ff" points="5210.02,-198.72 5207.21,-208.94 5215.78,-202.7 5210.02,-198.72"/>
</g>
<!-- Node66 -->
<g id="node48" class="node">
<title>Node66</title>
<g id="a_node48"><a xlink:href="../../d6/d91/vnodedetail_8cpp.html" target="_top" xlink:title=" ">
<polygon fill="white" stroke="#666666" points="5439,-167.5 5332,-167.5 5332,-137.5 5439,-137.5 5439,-167.5"/>
<text text-anchor="start" x="5340" y="-155.5" font-family="Helvetica,sans-Serif" font-size="10.00">src/libs/vpatterndb</text>
<text text-anchor="middle" x="5385.5" y="-144.5" font-family="Helvetica,sans-Serif" font-size="10.00">/vnodedetail.cpp</text>
</a>
</g>
</g>
<!-- Node3&#45;&gt;Node66 -->
<g id="edge56" class="edge">
<title>Node3&#45;&gt;Node66</title>
<path fill="none" stroke="#63b8ff" d="M5245.07,-205.42C5276.8,-193.68 5317.97,-178.47 5347.51,-167.54"/>
<polygon fill="#63b8ff" stroke="#63b8ff" points="5243.71,-202.19 5235.54,-208.94 5246.14,-208.75 5243.71,-202.19"/>
</g>
<!-- Node67 -->
<g id="node49" class="node">
<title>Node67</title>
<g id="a_node49"><a xlink:href="../../d1/d3a/abstracttest_8cpp.html" target="_top" xlink:title=" ">
<polygon fill="white" stroke="#666666" points="5618,-162 5457,-162 5457,-143 5618,-143 5618,-162"/>
<text text-anchor="middle" x="5537.5" y="-150" font-family="Helvetica,sans-Serif" font-size="10.00">src/libs/vtest/abstracttest.cpp</text>
</a>
</g>
</g>
<!-- Node3&#45;&gt;Node67 -->
<g id="edge60" class="edge">
<title>Node3&#45;&gt;Node67</title>
<path fill="none" stroke="#63b8ff" d="M5261.32,-210.53C5311.87,-200.58 5384.26,-186.17 5447.5,-173 5464.25,-169.51 5482.72,-165.53 5498.54,-162.08"/>
<polygon fill="#63b8ff" stroke="#63b8ff" points="5260.33,-207.15 5251.19,-212.52 5261.68,-214.02 5260.33,-207.15"/>
</g>
<!-- Node68 -->
<g id="node50" class="node">
<title>Node68</title>
<g id="a_node50"><a xlink:href="../../da/db4/piece__tablewidgetitem_8cpp.html" target="_top" xlink:title=" ">
<polygon fill="white" stroke="#666666" points="5764.5,-167.5 5636.5,-167.5 5636.5,-137.5 5764.5,-137.5 5764.5,-167.5"/>
<text text-anchor="start" x="5644.5" y="-155.5" font-family="Helvetica,sans-Serif" font-size="10.00">src/libs/vwidgets/piece</text>
<text text-anchor="middle" x="5700.5" y="-144.5" font-family="Helvetica,sans-Serif" font-size="10.00">_tablewidgetitem.cpp</text>
</a>
</g>
</g>
<!-- Node3&#45;&gt;Node68 -->
<g id="edge61" class="edge">
<title>Node3&#45;&gt;Node68</title>
<path fill="none" stroke="#63b8ff" d="M5261.2,-218.41C5345.36,-211.7 5497.95,-197.3 5626.5,-173 5634.46,-171.49 5642.83,-169.6 5650.96,-167.59"/>
<polygon fill="#63b8ff" stroke="#63b8ff" points="5260.73,-214.94 5251.04,-219.21 5261.28,-221.92 5260.73,-214.94"/>
</g>
<!-- Node5&#45;&gt;Node4 -->
<g id="edge5" class="edge">
<title>Node5&#45;&gt;Node4</title>
<path fill="none" stroke="#63b8ff" d="M5886.39,-135.13C5898.24,-121.18 5914.8,-101.67 5924.21,-90.59"/>
<polygon fill="#63b8ff" stroke="#63b8ff" points="5883.54,-133.09 5879.73,-142.98 5888.87,-137.62 5883.54,-133.09"/>
</g>
<!-- Node7 -->
<g id="node7" class="node">
<title>Node7</title>
<g id="a_node7"><a xlink:href="../../dd/d66/vdxfengine_8cpp.html" target="_top" xlink:title=" ">
<polygon fill="white" stroke="#666666" points="555.5,-90.5 401.5,-90.5 401.5,-71.5 555.5,-71.5 555.5,-90.5"/>
<text text-anchor="middle" x="478.5" y="-78.5" font-family="Helvetica,sans-Serif" font-size="10.00">src/libs/vdxf/vdxfengine.cpp</text>
</a>
</g>
</g>
<!-- Node6&#45;&gt;Node7 -->
<g id="edge7" class="edge">
<title>Node6&#45;&gt;Node7</title>
<path fill="none" stroke="#63b8ff" d="M615.71,-139.1C582.13,-125.13 528.41,-102.77 499.14,-90.59"/>
<polygon fill="#63b8ff" stroke="#63b8ff" points="614.45,-142.37 625.02,-142.98 617.13,-135.9 614.45,-142.37"/>
</g>
<!-- Node8 -->
<g id="node8" class="node">
<title>Node8</title>
<g id="a_node8"><a xlink:href="../../de/da8/vbank_8cpp.html" target="_top" xlink:title=" ">
<polygon fill="white" stroke="#666666" points="717.5,-90.5 573.5,-90.5 573.5,-71.5 717.5,-71.5 717.5,-90.5"/>
<text text-anchor="middle" x="645.5" y="-78.5" font-family="Helvetica,sans-Serif" font-size="10.00">src/libs/vlayout/vbank.cpp</text>
</a>
</g>
</g>
<!-- Node6&#45;&gt;Node8 -->
<g id="edge8" class="edge">
<title>Node6&#45;&gt;Node8</title>
<path fill="none" stroke="#63b8ff" d="M645.5,-132.71C645.5,-119 645.5,-101.05 645.5,-90.59"/>
<polygon fill="#63b8ff" stroke="#63b8ff" points="642,-132.98 645.5,-142.98 649,-132.98 642,-132.98"/>
</g>
<!-- Node9 -->
<g id="node9" class="node">
<title>Node9</title>
<g id="a_node9"><a xlink:href="../../df/d5d/vcontour_8cpp.html" target="_top" xlink:title=" ">
<polygon fill="white" stroke="#666666" points="891.5,-90.5 735.5,-90.5 735.5,-71.5 891.5,-71.5 891.5,-90.5"/>
<text text-anchor="middle" x="813.5" y="-78.5" font-family="Helvetica,sans-Serif" font-size="10.00">src/libs/vlayout/vcontour.cpp</text>
</a>
</g>
</g>
<!-- Node6&#45;&gt;Node9 -->
<g id="edge9" class="edge">
<title>Node6&#45;&gt;Node9</title>
<path fill="none" stroke="#63b8ff" d="M675.47,-139.1C709.25,-125.13 763.29,-102.77 792.73,-90.59"/>
<polygon fill="#63b8ff" stroke="#63b8ff" points="674,-135.92 666.1,-142.98 676.68,-142.39 674,-135.92"/>
</g>
<!-- Node10 -->
<g id="node10" class="node">
<title>Node10</title>
<g id="a_node10"><a xlink:href="../../d3/d39/vlayoutgenerator_8cpp.html" target="_top" xlink:title=" ">
<polygon fill="white" stroke="#666666" points="1107,-90.5 910,-90.5 910,-71.5 1107,-71.5 1107,-90.5"/>
<text text-anchor="middle" x="1008.5" y="-78.5" font-family="Helvetica,sans-Serif" font-size="10.00">src/libs/vlayout/vlayoutgenerator.cpp</text>
</a>
</g>
</g>
<!-- Node6&#45;&gt;Node10 -->
<g id="edge10" class="edge">
<title>Node6&#45;&gt;Node10</title>
<path fill="none" stroke="#63b8ff" d="M700.23,-141.02C772.23,-127.24 897.37,-103.28 963.91,-90.54"/>
<polygon fill="#63b8ff" stroke="#63b8ff" points="699.17,-137.66 690.01,-142.98 700.49,-144.53 699.17,-137.66"/>
</g>
<!-- Node11 -->
<g id="node11" class="node">
<title>Node11</title>
<g id="a_node11"><a xlink:href="../../d1/dd1/vlayoutpaper_8cpp.html" target="_top" xlink:title=" ">
<polygon fill="white" stroke="#666666" points="360.5,-24.5 182.5,-24.5 182.5,-5.5 360.5,-5.5 360.5,-24.5"/>
<text text-anchor="middle" x="271.5" y="-12.5" font-family="Helvetica,sans-Serif" font-size="10.00">src/libs/vlayout/vlayoutpaper.cpp</text>
</a>
</g>
</g>
<!-- Node6&#45;&gt;Node11 -->
<g id="edge11" class="edge">
<title>Node6&#45;&gt;Node11</title>
<path fill="none" stroke="#63b8ff" d="M552.94,-141.43C503.56,-133.56 442.79,-119.8 392.5,-96 373.05,-86.79 372.2,-78.24 354.5,-66 331.81,-50.3 304.13,-34.2 287.16,-24.65"/>
<polygon fill="#63b8ff" stroke="#63b8ff" points="552.56,-144.91 562.98,-142.97 553.63,-137.99 552.56,-144.91"/>
</g>
<!-- Node12 -->
<g id="node12" class="node">
<title>Node12</title>
<g id="a_node12"><a xlink:href="../../d2/d2d/vlayoutpaper__p_8h.html" target="_top" xlink:title=" ">
<polygon fill="white" stroke="#666666" points="179,-90.5 0,-90.5 0,-71.5 179,-71.5 179,-90.5"/>
<text text-anchor="middle" x="89.5" y="-78.5" font-family="Helvetica,sans-Serif" font-size="10.00">src/libs/vlayout/vlayoutpaper_p.h</text>
</a>
</g>
</g>
<!-- Node6&#45;&gt;Node12 -->
<g id="edge12" class="edge">
<title>Node6&#45;&gt;Node12</title>
<path fill="none" stroke="#63b8ff" d="M561.37,-141.78C469.64,-131.07 318.53,-113.09 188.5,-96 175.51,-94.29 161.57,-92.37 148.37,-90.52"/>
<polygon fill="#63b8ff" stroke="#63b8ff" points="561.1,-145.28 571.44,-142.96 561.91,-138.32 561.1,-145.28"/>
</g>
<!-- Node13 -->
<g id="node13" class="node">
<title>Node13</title>
<g id="a_node13"><a xlink:href="../../dd/d70/vlayoutpiece_8cpp.html" target="_top" xlink:title=" ">
<polygon fill="white" stroke="#666666" points="1340,-90.5 1163,-90.5 1163,-71.5 1340,-71.5 1340,-90.5"/>
<text text-anchor="middle" x="1251.5" y="-78.5" font-family="Helvetica,sans-Serif" font-size="10.00">src/libs/vlayout/vlayoutpiece.cpp</text>
</a>
</g>
</g>
<!-- Node6&#45;&gt;Node13 -->
<g id="edge14" class="edge">
<title>Node6&#45;&gt;Node13</title>
<path fill="none" stroke="#63b8ff" d="M729.96,-141.81C848.89,-128.17 1063.81,-103.53 1177.06,-90.54"/>
<polygon fill="#63b8ff" stroke="#63b8ff" points="729.34,-138.36 719.81,-142.98 730.14,-145.32 729.34,-138.36"/>
</g>
<!-- Node14 -->
<g id="node14" class="node">
<title>Node14</title>
<g id="a_node14"><a xlink:href="../../db/d5c/vposition_8h.html" target="_top" xlink:title=" ">
<polygon fill="#fff0f0" stroke="red" points="345.5,-90.5 197.5,-90.5 197.5,-71.5 345.5,-71.5 345.5,-90.5"/>
<text text-anchor="middle" x="271.5" y="-78.5" font-family="Helvetica,sans-Serif" font-size="10.00">src/libs/vlayout/vposition.h</text>
</a>
</g>
</g>
<!-- Node6&#45;&gt;Node14 -->
<g id="edge15" class="edge">
<title>Node6&#45;&gt;Node14</title>
<path fill="none" stroke="#63b8ff" d="M589.56,-141.11C515.46,-127.34 386.14,-103.3 317.44,-90.54"/>
<polygon fill="#63b8ff" stroke="#63b8ff" points="589.17,-144.59 599.64,-142.98 590.45,-137.71 589.17,-144.59"/>
</g>
<!-- Node12&#45;&gt;Node11 -->
<g id="edge13" class="edge">
<title>Node12&#45;&gt;Node11</title>
<path fill="none" stroke="#63b8ff" d="M123.62,-68C159.56,-55.36 215.26,-35.78 247.05,-24.6"/>
<polygon fill="#63b8ff" stroke="#63b8ff" points="122.32,-64.75 114.05,-71.37 124.64,-71.35 122.32,-64.75"/>
</g>
<!-- Node14&#45;&gt;Node11 -->
<g id="edge16" class="edge">
<title>Node14&#45;&gt;Node11</title>
<path fill="none" stroke="#63b8ff" d="M271.5,-61.08C271.5,-49.13 271.5,-34.22 271.5,-24.91"/>
<polygon fill="#63b8ff" stroke="#63b8ff" points="268,-61.37 271.5,-71.37 275,-61.37 268,-61.37"/>
</g>
<!-- Node17&#45;&gt;Node13 -->
<g id="edge30" class="edge">
<title>Node17&#45;&gt;Node13</title>
<path fill="none" stroke="#63b8ff" d="M3202.84,-150.07C2847.51,-145.08 1713.98,-127.09 1349.5,-96 1334.43,-94.71 1318.14,-92.66 1303.25,-90.51"/>
<polygon fill="#63b8ff" stroke="#63b8ff" points="3202.83,-153.57 3212.87,-150.21 3202.92,-146.57 3202.83,-153.57"/>
</g>
<!-- Node17&#45;&gt;Node16 -->
<g id="edge32" class="edge">
<title>Node17&#45;&gt;Node16</title>
<path fill="none" stroke="#63b8ff" d="M3202.67,-149.52C2872.33,-143.23 1877.18,-122.54 1554.5,-96 1538.55,-94.69 1521.32,-92.65 1505.51,-90.53"/>
<polygon fill="#63b8ff" stroke="#63b8ff" points="3202.66,-153.02 3212.72,-149.71 3202.79,-146.02 3202.66,-153.02"/>
</g>
<!-- Node18 -->
<g id="node17" class="node">
<title>Node18</title>
<g id="a_node17"><a xlink:href="../../d4/d90/fvupdater_8cpp.html" target="_top" xlink:title=" ">
<polygon fill="white" stroke="#666666" points="2764,-90.5 2611,-90.5 2611,-71.5 2764,-71.5 2764,-90.5"/>
<text text-anchor="middle" x="2687.5" y="-78.5" font-family="Helvetica,sans-Serif" font-size="10.00">src/libs/fervor/fvupdater.cpp</text>
</a>
</g>
</g>
<!-- Node17&#45;&gt;Node18 -->
<g id="edge19" class="edge">
<title>Node17&#45;&gt;Node18</title>
<path fill="none" stroke="#63b8ff" d="M3202.82,-142.23C3094.24,-132.45 2921.93,-115.73 2773.5,-96 2761.65,-94.42 2748.93,-92.49 2737,-90.56"/>
<polygon fill="#63b8ff" stroke="#63b8ff" points="3202.53,-145.72 3212.8,-143.13 3203.15,-138.75 3202.53,-145.72"/>
</g>
<!-- Node19 -->
<g id="node18" class="node">
<title>Node19</title>
<g id="a_node18"><a xlink:href="../../de/d31/ifcdef_8cpp.html" target="_top" xlink:title=" ">
<polygon fill="white" stroke="#666666" points="2898.5,-90.5 2782.5,-90.5 2782.5,-71.5 2898.5,-71.5 2898.5,-90.5"/>
<text text-anchor="middle" x="2840.5" y="-78.5" font-family="Helvetica,sans-Serif" font-size="10.00">src/libs/ifc/ifcdef.cpp</text>
</a>
</g>
</g>
<!-- Node17&#45;&gt;Node19 -->
<g id="edge20" class="edge">
<title>Node17&#45;&gt;Node19</title>
<path fill="none" stroke="#63b8ff" d="M3227.24,-141.74C3145.57,-131.76 3017.61,-115.06 2907.5,-96 2898.25,-94.4 2888.33,-92.45 2879.03,-90.53"/>
<polygon fill="#63b8ff" stroke="#63b8ff" points="3227.11,-145.25 3237.46,-142.98 3227.96,-138.3 3227.11,-145.25"/>
</g>
<!-- Node20 -->
<g id="node19" class="node">
<title>Node20</title>
<g id="a_node19"><a xlink:href="../../d9/dc8/dxiface_8cpp.html" target="_top" xlink:title=" ">
<polygon fill="white" stroke="#666666" points="3052,-90.5 2917,-90.5 2917,-71.5 3052,-71.5 3052,-90.5"/>
<text text-anchor="middle" x="2984.5" y="-78.5" font-family="Helvetica,sans-Serif" font-size="10.00">src/libs/vdxf/dxiface.cpp</text>
</a>
</g>
</g>
<!-- Node17&#45;&gt;Node20 -->
<g id="edge21" class="edge">
<title>Node17&#45;&gt;Node20</title>
<path fill="none" stroke="#63b8ff" d="M3260.55,-140.85C3195.77,-127.04 3084.06,-103.22 3024.55,-90.54"/>
<polygon fill="#63b8ff" stroke="#63b8ff" points="3260.02,-144.32 3270.53,-142.98 3261.48,-137.47 3260.02,-144.32"/>
</g>
<!-- Node21 -->
<g id="node20" class="node">
<title>Node21</title>
<g id="a_node20"><a xlink:href="../../da/d75/vabstractarc__p_8h.html" target="_top" xlink:title=" ">
<polygon fill="#fff0f0" stroke="red" points="3177,-96 3070,-96 3070,-66 3177,-66 3177,-96"/>
<text text-anchor="start" x="3078" y="-84" font-family="Helvetica,sans-Serif" font-size="10.00">src/libs/vgeometry</text>
<text text-anchor="middle" x="3123.5" y="-73" font-family="Helvetica,sans-Serif" font-size="10.00">/vabstractarc_p.h</text>
</a>
</g>
</g>
<!-- Node17&#45;&gt;Node21 -->
<g id="edge22" class="edge">
<title>Node17&#45;&gt;Node21</title>
<path fill="none" stroke="#63b8ff" d="M3278.07,-139.45C3245.54,-127.36 3195.47,-108.75 3161.19,-96.01"/>
<polygon fill="#63b8ff" stroke="#63b8ff" points="3276.98,-142.77 3287.57,-142.98 3279.42,-136.21 3276.98,-142.77"/>
</g>
<!-- Node23 -->
<g id="node21" class="node">
<title>Node23</title>
<g id="a_node21"><a xlink:href="../../dc/da3/varc__p_8h.html" target="_top" xlink:title=" ">
<polygon fill="#fff0f0" stroke="red" points="3302,-96 3195,-96 3195,-66 3302,-66 3302,-96"/>
<text text-anchor="start" x="3203" y="-84" font-family="Helvetica,sans-Serif" font-size="10.00">src/libs/vgeometry</text>
<text text-anchor="middle" x="3248.5" y="-73" font-family="Helvetica,sans-Serif" font-size="10.00">/varc_p.h</text>
</a>
</g>
</g>
<!-- Node17&#45;&gt;Node23 -->
<g id="edge23" class="edge">
<title>Node17&#45;&gt;Node23</title>
<path fill="none" stroke="#63b8ff" d="M3295.94,-135.18C3285.37,-123.33 3271.2,-107.45 3261.11,-96.14"/>
<polygon fill="#63b8ff" stroke="#63b8ff" points="3293.63,-137.85 3302.9,-142.98 3298.85,-133.19 3293.63,-137.85"/>
</g>
<!-- Node25 -->
<g id="node22" class="node">
<title>Node25</title>
<g id="a_node22"><a xlink:href="../../d5/d8e/vcubicbezier__p_8h.html" target="_top" xlink:title=" ">
<polygon fill="#fff0f0" stroke="red" points="3427,-96 3320,-96 3320,-66 3427,-66 3427,-96"/>
<text text-anchor="start" x="3328" y="-84" font-family="Helvetica,sans-Serif" font-size="10.00">src/libs/vgeometry</text>
<text text-anchor="middle" x="3373.5" y="-73" font-family="Helvetica,sans-Serif" font-size="10.00">/vcubicbezier_p.h</text>
</a>
</g>
</g>
<!-- Node17&#45;&gt;Node25 -->
<g id="edge24" class="edge">
<title>Node17&#45;&gt;Node25</title>
<path fill="none" stroke="#63b8ff" d="M3324.98,-135.53C3335.76,-123.64 3350.33,-107.56 3360.68,-96.14"/>
<polygon fill="#63b8ff" stroke="#63b8ff" points="3322.35,-133.22 3318.23,-142.98 3327.53,-137.92 3322.35,-133.22"/>
</g>
<!-- Node27 -->
<g id="node23" class="node">
<title>Node27</title>
<g id="a_node23"><a xlink:href="../../d6/dfb/vellipticalarc_8cpp.html" target="_top" xlink:title=" ">
<polygon fill="white" stroke="#666666" points="4141,-30 4034,-30 4034,0 4141,0 4141,-30"/>
<text text-anchor="start" x="4042" y="-18" font-family="Helvetica,sans-Serif" font-size="10.00">src/libs/vgeometry</text>
<text text-anchor="middle" x="4087.5" y="-7" font-family="Helvetica,sans-Serif" font-size="10.00">/vellipticalarc.cpp</text>
</a>
</g>
</g>
<!-- Node17&#45;&gt;Node27 -->
<g id="edge25" class="edge">
<title>Node17&#45;&gt;Node27</title>
<path fill="none" stroke="#63b8ff" d="M3343.71,-139.26C3369.53,-129.16 3405.83,-113.66 3435.5,-96 3454.29,-84.82 3454.1,-73.88 3474.5,-66 3575.98,-26.81 3904.23,-18.33 4034,-16.5"/>
<polygon fill="#63b8ff" stroke="#63b8ff" points="3342.44,-136 3334.36,-142.86 3344.95,-142.54 3342.44,-136"/>
</g>
<!-- Node28 -->
<g id="node24" class="node">
<title>Node28</title>
<g id="a_node24"><a xlink:href="../../df/dde/vellipticalarc__p_8h.html" target="_top" xlink:title=" ">
<polygon fill="white" stroke="#666666" points="4774,-96 4667,-96 4667,-66 4774,-66 4774,-96"/>
<text text-anchor="start" x="4675" y="-84" font-family="Helvetica,sans-Serif" font-size="10.00">src/libs/vgeometry</text>
<text text-anchor="middle" x="4720.5" y="-73" font-family="Helvetica,sans-Serif" font-size="10.00">/vellipticalarc_p.h</text>
</a>
</g>
</g>
<!-- Node17&#45;&gt;Node28 -->
<g id="edge26" class="edge">
<title>Node17&#45;&gt;Node28</title>
<path fill="none" stroke="#63b8ff" d="M3418.4,-149.53C3693.97,-144.09 4418.8,-127.19 4657.5,-96 4660.61,-95.59 4663.79,-95.11 4667,-94.57"/>
<polygon fill="#63b8ff" stroke="#63b8ff" points="3418.32,-146.03 3408.39,-149.72 3418.45,-153.03 3418.32,-146.03"/>
</g>
<!-- Node29 -->
<g id="node25" class="node">
<title>Node29</title>
<g id="a_node25"><a xlink:href="../../d1/d76/vspline__p_8h.html" target="_top" xlink:title=" ">
<polygon fill="#fff0f0" stroke="red" points="3591,-96 3484,-96 3484,-66 3591,-66 3591,-96"/>
<text text-anchor="start" x="3492" y="-84" font-family="Helvetica,sans-Serif" font-size="10.00">src/libs/vgeometry</text>
<text text-anchor="middle" x="3537.5" y="-73" font-family="Helvetica,sans-Serif" font-size="10.00">/vspline_p.h</text>
</a>
</g>
</g>
<!-- Node17&#45;&gt;Node29 -->
<g id="edge28" class="edge">
<title>Node17&#45;&gt;Node29</title>
<path fill="none" stroke="#63b8ff" d="M3348.09,-139.99C3387.52,-127.92 3449.51,-108.94 3491.75,-96.01"/>
<polygon fill="#63b8ff" stroke="#63b8ff" points="3346.87,-136.7 3338.33,-142.98 3348.92,-143.4 3346.87,-136.7"/>
</g>
<!-- Node31 -->
<g id="node26" class="node">
<title>Node31</title>
<g id="a_node26"><a xlink:href="../../d9/d15/vabstractpiece_8cpp.html" target="_top" xlink:title=" ">
<polygon fill="white" stroke="#666666" points="3795.5,-90.5 3609.5,-90.5 3609.5,-71.5 3795.5,-71.5 3795.5,-90.5"/>
<text text-anchor="middle" x="3702.5" y="-78.5" font-family="Helvetica,sans-Serif" font-size="10.00">src/libs/vlayout/vabstractpiece.cpp</text>
</a>
</g>
</g>
<!-- Node17&#45;&gt;Node31 -->
<g id="edge29" class="edge">
<title>Node17&#45;&gt;Node31</title>
<path fill="none" stroke="#63b8ff" d="M3368.65,-141.19C3446.24,-127.43 3582.2,-103.33 3654.35,-90.54"/>
<polygon fill="#63b8ff" stroke="#63b8ff" points="3367.8,-137.79 3358.57,-142.98 3369.02,-144.68 3367.8,-137.79"/>
</g>
<!-- Node32 -->
<g id="node27" class="node">
<title>Node32</title>
<g id="a_node27"><a xlink:href="../../d4/d6d/vlayoutpiecepath__p_8h.html" target="_top" xlink:title=" ">
<polygon fill="#fff0f0" stroke="red" points="4013,-90.5 3814,-90.5 3814,-71.5 4013,-71.5 4013,-90.5"/>
<text text-anchor="middle" x="3913.5" y="-78.5" font-family="Helvetica,sans-Serif" font-size="10.00">src/libs/vlayout/vlayoutpiecepath_p.h</text>
</a>
</g>
</g>
<!-- Node17&#45;&gt;Node32 -->
<g id="edge31" class="edge">
<title>Node17&#45;&gt;Node32</title>
<path fill="none" stroke="#63b8ff" d="M3399.65,-141.91C3498.61,-131.17 3663.05,-113.03 3804.5,-96 3818.71,-94.29 3833.94,-92.38 3848.39,-90.53"/>
<polygon fill="#63b8ff" stroke="#63b8ff" points="3399.25,-138.44 3389.69,-142.99 3400.01,-145.4 3399.25,-138.44"/>
</g>
<!-- Node34 -->
<g id="node28" class="node">
<title>Node34</title>
<g id="a_node28"><a xlink:href="../../d6/d0b/def_8cpp.html" target="_top" xlink:title=" ">
<polygon fill="white" stroke="#666666" points="4153.5,-90.5 4031.5,-90.5 4031.5,-71.5 4153.5,-71.5 4153.5,-90.5"/>
<text text-anchor="middle" x="4092.5" y="-78.5" font-family="Helvetica,sans-Serif" font-size="10.00">src/libs/vmisc/def.cpp</text>
</a>
</g>
</g>
<!-- Node17&#45;&gt;Node34 -->
<g id="edge33" class="edge">
<title>Node17&#45;&gt;Node34</title>
<path fill="none" stroke="#63b8ff" d="M3418.34,-147.01C3558.01,-140.29 3808.79,-125.17 4021.5,-96 4031.96,-94.57 4043.19,-92.57 4053.58,-90.53"/>
<polygon fill="#63b8ff" stroke="#63b8ff" points="3417.89,-143.52 3408.06,-147.5 3418.22,-150.52 3417.89,-143.52"/>
</g>
<!-- Node35 -->
<g id="node29" class="node">
<title>Node35</title>
<g id="a_node29"><a xlink:href="../../db/d65/dialogexporttocsv_8cpp.html" target="_top" xlink:title=" ">
<polygon fill="white" stroke="#666666" points="4299,-96 4172,-96 4172,-66 4299,-66 4299,-96"/>
<text text-anchor="start" x="4180" y="-84" font-family="Helvetica,sans-Serif" font-size="10.00">src/libs/vmisc/dialogs</text>
<text text-anchor="middle" x="4235.5" y="-73" font-family="Helvetica,sans-Serif" font-size="10.00">/dialogexporttocsv.cpp</text>
</a>
</g>
</g>
<!-- Node17&#45;&gt;Node35 -->
<g id="edge34" class="edge">
<title>Node17&#45;&gt;Node35</title>
<path fill="none" stroke="#63b8ff" d="M3418.77,-148.76C3581,-143.68 3896.52,-130.03 4162.5,-96 4165.57,-95.61 4168.71,-95.16 4171.87,-94.69"/>
<polygon fill="#63b8ff" stroke="#63b8ff" points="3418.2,-145.28 3408.31,-149.08 3418.41,-152.27 3418.2,-145.28"/>
</g>
<!-- Node36 -->
<g id="node30" class="node">
<title>Node36</title>
<g id="a_node30"><a xlink:href="../../d0/df6/vabstractapplication_8cpp.html" target="_top" xlink:title=" ">
<polygon fill="white" stroke="#666666" points="4523.5,-90.5 4317.5,-90.5 4317.5,-71.5 4523.5,-71.5 4523.5,-90.5"/>
<text text-anchor="middle" x="4420.5" y="-78.5" font-family="Helvetica,sans-Serif" font-size="10.00">src/libs/vmisc/vabstractapplication.cpp</text>
</a>
</g>
</g>
<!-- Node17&#45;&gt;Node36 -->
<g id="edge35" class="edge">
<title>Node17&#45;&gt;Node36</title>
<path fill="none" stroke="#63b8ff" d="M3418.48,-147.88C3601.6,-141.22 3984.68,-124.95 4307.5,-96 4323.84,-94.53 4341.47,-92.55 4357.82,-90.53"/>
<polygon fill="#63b8ff" stroke="#63b8ff" points="3418.17,-144.39 3408.31,-148.25 3418.43,-151.39 3418.17,-144.39"/>
</g>
<!-- Node37 -->
<g id="node31" class="node">
<title>Node37</title>
<g id="a_node31"><a xlink:href="../../d4/d4f/pmsystems_8cpp.html" target="_top" xlink:title=" ">
<polygon fill="white" stroke="#666666" points="4649,-96 4542,-96 4542,-66 4649,-66 4649,-96"/>
<text text-anchor="start" x="4550" y="-84" font-family="Helvetica,sans-Serif" font-size="10.00">src/libs/vpatterndb</text>
<text text-anchor="middle" x="4595.5" y="-73" font-family="Helvetica,sans-Serif" font-size="10.00">/pmsystems.cpp</text>
</a>
</g>
</g>
<!-- Node17&#45;&gt;Node37 -->
<g id="edge36" class="edge">
<title>Node17&#45;&gt;Node37</title>
<path fill="none" stroke="#63b8ff" d="M3418.33,-149C3675.39,-142.65 4318.78,-124.38 4532.5,-96 4535.61,-95.59 4538.79,-95.1 4542,-94.55"/>
<polygon fill="#63b8ff" stroke="#63b8ff" points="3418.14,-145.5 3408.23,-149.25 3418.31,-152.5 3418.14,-145.5"/>
</g>
<!-- Node17&#45;&gt;Node38 -->
<g id="edge37" class="edge">
<title>Node17&#45;&gt;Node38</title>
<path fill="none" stroke="#63b8ff" d="M3418.66,-152.26C3703.67,-153.4 4498.68,-150.95 5157.5,-96 5173.26,-94.69 5190.32,-92.61 5205.89,-90.45"/>
<polygon fill="#63b8ff" stroke="#63b8ff" points="3418.34,-148.76 3408.33,-152.22 3418.31,-155.76 3418.34,-148.76"/>
</g>
<!-- Node17&#45;&gt;Node39 -->
<g id="edge38" class="edge">
<title>Node17&#45;&gt;Node39</title>
<path fill="none" stroke="#63b8ff" d="M3418.44,-150.34C3728.58,-146.58 4618.47,-132.82 4907.5,-96 4910.5,-95.62 4913.57,-95.16 4916.66,-94.65"/>
<polygon fill="#63b8ff" stroke="#63b8ff" points="3418.06,-146.84 3408.1,-150.46 3418.14,-153.84 3418.06,-146.84"/>
</g>
<!-- Node17&#45;&gt;Node40 -->
<g id="edge39" class="edge">
<title>Node17&#45;&gt;Node40</title>
<path fill="none" stroke="#63b8ff" d="M3418.55,-150.65C3745.04,-147.68 4718.19,-135.64 5032.5,-96 5035.5,-95.62 5038.57,-95.17 5041.66,-94.66"/>
<polygon fill="#63b8ff" stroke="#63b8ff" points="3418.12,-147.16 3408.15,-150.75 3418.18,-154.16 3418.12,-147.16"/>
</g>
<!-- Node41 -->
<g id="node35" class="node">
<title>Node41</title>
<g id="a_node35"><a xlink:href="../../df/dba/vpiecenode__p_8h.html" target="_top" xlink:title=" ">
<polygon fill="white" stroke="#666666" points="4899,-96 4792,-96 4792,-66 4899,-66 4899,-96"/>
<text text-anchor="start" x="4800" y="-84" font-family="Helvetica,sans-Serif" font-size="10.00">src/libs/vpatterndb</text>
<text text-anchor="middle" x="4845.5" y="-73" font-family="Helvetica,sans-Serif" font-size="10.00">/vpiecenode_p.h</text>
</a>
</g>
</g>
<!-- Node17&#45;&gt;Node41 -->
<g id="edge40" class="edge">
<title>Node17&#45;&gt;Node41</title>
<path fill="none" stroke="#63b8ff" d="M3418.38,-149.97C3711.57,-145.39 4518.67,-130 4782.5,-96 4785.5,-95.61 4788.57,-95.15 4791.66,-94.64"/>
<polygon fill="#63b8ff" stroke="#63b8ff" points="3418.12,-146.47 3408.17,-150.12 3418.22,-153.47 3418.12,-146.47"/>
</g>
<!-- Node17&#45;&gt;Node43 -->
<g id="edge42" class="edge">
<title>Node17&#45;&gt;Node43</title>
<path fill="none" stroke="#63b8ff" d="M3202.96,-148.9C2828.45,-139.74 1603.21,-108.83 1587.5,-96 1568.15,-80.2 1566.38,-48.62 1567.19,-30.21"/>
<polygon fill="#63b8ff" stroke="#63b8ff" points="3202.91,-152.4 3212.99,-149.15 3203.08,-145.4 3202.91,-152.4"/>
</g>
<!-- Node44 -->
<g id="node38" class="node">
<title>Node44</title>
<g id="a_node38"><a xlink:href="../../de/db4/vpiecepath__p_8h.html" target="_top" xlink:title=" ">
<polygon fill="white" stroke="#666666" points="1704,-96 1597,-96 1597,-66 1704,-66 1704,-96"/>
<text text-anchor="start" x="1605" y="-84" font-family="Helvetica,sans-Serif" font-size="10.00">src/libs/vpatterndb</text>
<text text-anchor="middle" x="1650.5" y="-73" font-family="Helvetica,sans-Serif" font-size="10.00">/vpiecepath_p.h</text>
</a>
</g>
</g>
<!-- Node17&#45;&gt;Node44 -->
<g id="edge43" class="edge">
<title>Node17&#45;&gt;Node44</title>
<path fill="none" stroke="#63b8ff" d="M3202.78,-148.91C2868.11,-140.69 1860.03,-114.67 1713.5,-96 1710.5,-95.62 1707.43,-95.16 1704.34,-94.65"/>
<polygon fill="#63b8ff" stroke="#63b8ff" points="3202.88,-152.41 3212.96,-149.16 3203.05,-145.41 3202.88,-152.41"/>
</g>
<!-- Node45 -->
<g id="node39" class="node">
<title>Node45</title>
<g id="a_node39"><a xlink:href="../../de/d3e/vtranslatevars_8cpp.html" target="_top" xlink:title=" ">
<polygon fill="white" stroke="#666666" points="1832.5,-96 1722.5,-96 1722.5,-66 1832.5,-66 1832.5,-96"/>
<text text-anchor="start" x="1730.5" y="-84" font-family="Helvetica,sans-Serif" font-size="10.00">src/libs/vpatterndb</text>
<text text-anchor="middle" x="1777.5" y="-73" font-family="Helvetica,sans-Serif" font-size="10.00">/vtranslatevars.cpp</text>
</a>
</g>
</g>
<!-- Node17&#45;&gt;Node45 -->
<g id="edge45" class="edge">
<title>Node17&#45;&gt;Node45</title>
<path fill="none" stroke="#63b8ff" d="M3202.58,-149.91C2909.79,-145.2 2104.77,-129.5 1841.5,-96 1838.57,-95.63 1835.57,-95.18 1832.55,-94.69"/>
<polygon fill="#63b8ff" stroke="#63b8ff" points="3202.73,-153.41 3212.78,-150.07 3202.84,-146.41 3202.73,-153.41"/>
</g>
<!-- Node46 -->
<g id="node40" class="node">
<title>Node46</title>
<g id="a_node40"><a xlink:href="../../df/d40/export__format__combobox_8cpp.html" target="_top" xlink:title=" ">
<polygon fill="white" stroke="#666666" points="1984,-96 1851,-96 1851,-66 1984,-66 1984,-96"/>
<text text-anchor="start" x="1859" y="-84" font-family="Helvetica,sans-Serif" font-size="10.00">src/libs/vwidgets/export</text>
<text text-anchor="middle" x="1917.5" y="-73" font-family="Helvetica,sans-Serif" font-size="10.00">_format_combobox.cpp</text>
</a>
</g>
</g>
<!-- Node17&#45;&gt;Node46 -->
<g id="edge46" class="edge">
<title>Node17&#45;&gt;Node46</title>
<path fill="none" stroke="#63b8ff" d="M3202.49,-152.05C2977.06,-152.09 2440.32,-146.32 1993.5,-96 1990.43,-95.65 1987.3,-95.26 1984.15,-94.82"/>
<polygon fill="#63b8ff" stroke="#63b8ff" points="3202.66,-155.55 3212.66,-152.05 3202.66,-148.55 3202.66,-155.55"/>
</g>
<!-- Node47 -->
<g id="node41" class="node">
<title>Node47</title>
<g id="a_node41"><a xlink:href="../../da/d40/lineweight__combobox_8cpp.html" target="_top" xlink:title=" ">
<polygon fill="white" stroke="#666666" points="2154.5,-96 2002.5,-96 2002.5,-66 2154.5,-66 2154.5,-96"/>
<text text-anchor="start" x="2010.5" y="-84" font-family="Helvetica,sans-Serif" font-size="10.00">src/libs/vwidgets/lineweight</text>
<text text-anchor="middle" x="2078.5" y="-73" font-family="Helvetica,sans-Serif" font-size="10.00">_combobox.cpp</text>
</a>
</g>
</g>
<!-- Node17&#45;&gt;Node47 -->
<g id="edge47" class="edge">
<title>Node17&#45;&gt;Node47</title>
<path fill="none" stroke="#63b8ff" d="M3202.68,-150.41C2999.05,-147.43 2544.16,-136.42 2163.5,-96 2160.67,-95.7 2157.8,-95.37 2154.9,-95.01"/>
<polygon fill="#63b8ff" stroke="#63b8ff" points="3202.73,-153.91 3212.78,-150.55 3202.83,-146.91 3202.73,-153.91"/>
</g>
<!-- Node48 -->
<g id="node42" class="node">
<title>Node48</title>
<g id="a_node42"><a xlink:href="../../d3/d4f/mouse__coordinates_8cpp.html" target="_top" xlink:title=" ">
<polygon fill="white" stroke="#666666" points="2306.5,-96 2172.5,-96 2172.5,-66 2306.5,-66 2306.5,-96"/>
<text text-anchor="start" x="2180.5" y="-84" font-family="Helvetica,sans-Serif" font-size="10.00">src/libs/vwidgets/mouse</text>
<text text-anchor="middle" x="2239.5" y="-73" font-family="Helvetica,sans-Serif" font-size="10.00">_coordinates.cpp</text>
</a>
</g>
</g>
<!-- Node17&#45;&gt;Node48 -->
<g id="edge48" class="edge">
<title>Node17&#45;&gt;Node48</title>
<path fill="none" stroke="#63b8ff" d="M3202.52,-149.94C3019.45,-146.31 2636.69,-134.38 2315.5,-96 2312.57,-95.65 2309.58,-95.26 2306.57,-94.83"/>
<polygon fill="#63b8ff" stroke="#63b8ff" points="3202.63,-153.45 3212.69,-150.14 3202.76,-146.45 3202.63,-153.45"/>
</g>
<!-- Node49 -->
<g id="node43" class="node">
<title>Node49</title>
<g id="a_node43"><a xlink:href="../../d2/d28/page__format__combobox_8cpp.html" target="_top" xlink:title=" ">
<polygon fill="white" stroke="#666666" points="2456,-96 2325,-96 2325,-66 2456,-66 2456,-96"/>
<text text-anchor="start" x="2333" y="-84" font-family="Helvetica,sans-Serif" font-size="10.00">src/libs/vwidgets/page</text>
<text text-anchor="middle" x="2390.5" y="-73" font-family="Helvetica,sans-Serif" font-size="10.00">_format_combobox.cpp</text>
</a>
</g>
</g>
<!-- Node17&#45;&gt;Node49 -->
<g id="edge49" class="edge">
<title>Node17&#45;&gt;Node49</title>
<path fill="none" stroke="#63b8ff" d="M3202.35,-148.61C3041.09,-143.35 2728.3,-129.48 2464.5,-96 2461.78,-95.65 2459,-95.27 2456.2,-94.86"/>
<polygon fill="#63b8ff" stroke="#63b8ff" points="3202.64,-152.12 3212.75,-148.94 3202.87,-145.12 3202.64,-152.12"/>
</g>
<!-- Node50 -->
<g id="node44" class="node">
<title>Node50</title>
<g id="a_node44"><a xlink:href="../../d7/d1b/pen__toolbar_8cpp.html" target="_top" xlink:title=" ">
<polygon fill="white" stroke="#666666" points="2593,-96 2474,-96 2474,-66 2593,-66 2593,-96"/>
<text text-anchor="start" x="2482" y="-84" font-family="Helvetica,sans-Serif" font-size="10.00">src/libs/vwidgets/pen</text>
<text text-anchor="middle" x="2533.5" y="-73" font-family="Helvetica,sans-Serif" font-size="10.00">_toolbar.cpp</text>
</a>
</g>
</g>
<!-- Node17&#45;&gt;Node50 -->
<g id="edge50" class="edge">
<title>Node17&#45;&gt;Node50</title>
<path fill="none" stroke="#63b8ff" d="M3202.63,-147.25C3063.26,-140.8 2813.34,-125.98 2601.5,-96 2598.76,-95.61 2595.95,-95.18 2593.13,-94.72"/>
<polygon fill="#63b8ff" stroke="#63b8ff" points="3202.74,-150.76 3212.89,-147.72 3203.06,-143.77 3202.74,-150.76"/>
</g>
<!-- Node28&#45;&gt;Node27 -->
<g id="edge27" class="edge">
<title>Node28&#45;&gt;Node27</title>
<path fill="none" stroke="#63b8ff" d="M4656.8,-66.05C4461.3,-36.45 4240.89,-23.25 4141.22,-18.36"/>
<polygon fill="#63b8ff" stroke="#63b8ff" points="4656.56,-69.55 4666.97,-67.6 4657.62,-62.63 4656.56,-69.55"/>
</g>
<!-- Node41&#45;&gt;Node42 -->
<g id="edge41" class="edge">
<title>Node41&#45;&gt;Node42</title>
<path fill="none" stroke="#63b8ff" d="M4891.35,-62.32C4917.77,-52.14 4950.52,-39.51 4975.16,-30.01"/>
<polygon fill="#63b8ff" stroke="#63b8ff" points="4890,-59.09 4881.93,-65.95 4892.52,-65.62 4890,-59.09"/>
</g>
<!-- Node44&#45;&gt;Node43 -->
<g id="edge44" class="edge">
<title>Node44&#45;&gt;Node43</title>
<path fill="none" stroke="#63b8ff" d="M1624.21,-59.48C1611.95,-49.91 1597.68,-38.77 1586.65,-30.16"/>
<polygon fill="#63b8ff" stroke="#63b8ff" points="1622.26,-62.4 1632.3,-65.8 1626.57,-56.88 1622.26,-62.4"/>
</g>
<!-- Node62&#45;&gt;Node63 -->
<g id="edge52" class="edge">
<title>Node62&#45;&gt;Node63</title>
<path fill="none" stroke="#63b8ff" d="M6128.59,-131.13C6143.03,-119.85 6160.61,-106.12 6173.52,-96.04"/>
<polygon fill="#63b8ff" stroke="#63b8ff" points="6126.24,-128.52 6120.51,-137.44 6130.55,-134.04 6126.24,-128.52"/>
</g>
</g>
</svg>
