<?xml version="1.0" encoding="UTF-8" standalone="no"?>
<!DOCTYPE svg PUBLIC "-//W3C//DTD SVG 1.1//EN"
 "http://www.w3.org/Graphics/SVG/1.1/DTD/svg11.dtd">
<!-- Generated by graphviz version 2.43.0 (0)
 -->
<!-- Title: src/libs/vpatterndb/variables/custom_variable.h Pages: 1 -->
<svg width="6603pt" height="385pt"
 viewBox="0.00 0.00 6602.50 385.00" xmlns="http://www.w3.org/2000/svg" xmlns:xlink="http://www.w3.org/1999/xlink">
<g id="graph0" class="graph" transform="scale(1 1) rotate(0) translate(4 381)">
<title>src/libs/vpatterndb/variables/custom_variable.h</title>
<polygon fill="white" stroke="transparent" points="-4,4 -4,-381 6598.5,-381 6598.5,4 -4,4"/>
<!-- Node1 -->
<g id="node1" class="node">
<title>Node1</title>
<g id="a_node1"><a xlink:title=" ">
<polygon fill="#bfbfbf" stroke="black" points="5320,-346.5 5320,-376.5 5478,-376.5 5478,-346.5 5320,-346.5"/>
<text text-anchor="start" x="5328" y="-364.5" font-family="Helvetica,sans-Serif" font-size="10.00">src/libs/vpatterndb</text>
<text text-anchor="middle" x="5399" y="-353.5" font-family="Helvetica,sans-Serif" font-size="10.00">/variables/custom_variable.h</text>
</a>
</g>
</g>
<!-- Node2 -->
<g id="node2" class="node">
<title>Node2</title>
<g id="a_node2"><a xlink:href="../../d2/d1e/custom__variable_8cpp.html" target="_top" xlink:title=" ">
<polygon fill="white" stroke="black" points="6425.5,-67.5 6425.5,-97.5 6594.5,-97.5 6594.5,-67.5 6425.5,-67.5"/>
<text text-anchor="start" x="6433.5" y="-85.5" font-family="Helvetica,sans-Serif" font-size="10.00">src/libs/vpatterndb</text>
<text text-anchor="middle" x="6510" y="-74.5" font-family="Helvetica,sans-Serif" font-size="10.00">/variables/custom_variable.cpp</text>
</a>
</g>
</g>
<!-- Node1&#45;&gt;Node2 -->
<g id="edge1" class="edge">
<title>Node1&#45;&gt;Node2</title>
<path fill="none" stroke="midnightblue" d="M5488.13,-352.99C5709.6,-333.03 6278.57,-273.45 6439,-176 6470.32,-156.98 6492.84,-118.61 6503.35,-97.77"/>
<polygon fill="midnightblue" stroke="midnightblue" points="5487.82,-349.5 5478.17,-353.88 5488.44,-356.48 5487.82,-349.5"/>
</g>
<!-- Node3 -->
<g id="node3" class="node">
<title>Node3</title>
<g id="a_node3"><a xlink:href="../../d6/d46/vcontainer_8cpp.html" target="_top" xlink:title=" ">
<polygon fill="white" stroke="black" points="1320.5,-67.5 1320.5,-97.5 1427.5,-97.5 1427.5,-67.5 1320.5,-67.5"/>
<text text-anchor="start" x="1328.5" y="-85.5" font-family="Helvetica,sans-Serif" font-size="10.00">src/libs/vpatterndb</text>
<text text-anchor="middle" x="1374" y="-74.5" font-family="Helvetica,sans-Serif" font-size="10.00">/vcontainer.cpp</text>
</a>
</g>
</g>
<!-- Node1&#45;&gt;Node3 -->
<g id="edge2" class="edge">
<title>Node1&#45;&gt;Node3</title>
<path fill="none" stroke="midnightblue" d="M5309.68,-358.95C4815.79,-349.95 2415.24,-300.38 1686,-176 1584.08,-158.62 1468.44,-118.82 1410.78,-97.53"/>
<polygon fill="midnightblue" stroke="midnightblue" points="5309.89,-362.46 5319.95,-359.14 5310.01,-355.46 5309.89,-362.46"/>
</g>
<!-- Node4 -->
<g id="node4" class="node">
<title>Node4</title>
<g id="a_node4"><a xlink:href="../../de/dca/variables_8h.html" target="_top" xlink:title=" ">
<polygon fill="white" stroke="black" points="5345.5,-279.5 5345.5,-309.5 5452.5,-309.5 5452.5,-279.5 5345.5,-279.5"/>
<text text-anchor="start" x="5353.5" y="-297.5" font-family="Helvetica,sans-Serif" font-size="10.00">src/libs/vpatterndb</text>
<text text-anchor="middle" x="5399" y="-286.5" font-family="Helvetica,sans-Serif" font-size="10.00">/variables.h</text>
</a>
</g>
</g>
<!-- Node1&#45;&gt;Node4 -->
<g id="edge3" class="edge">
<title>Node1&#45;&gt;Node4</title>
<path fill="none" stroke="midnightblue" d="M5399,-336.11C5399,-327.15 5399,-317.32 5399,-309.58"/>
<polygon fill="midnightblue" stroke="midnightblue" points="5395.5,-336.4 5399,-346.4 5402.5,-336.4 5395.5,-336.4"/>
</g>
<!-- Node5 -->
<g id="node5" class="node">
<title>Node5</title>
<g id="a_node5"><a xlink:href="../../d3/df7/vcontainer_8h.html" target="_top" xlink:title=" ">
<polygon fill="white" stroke="black" points="5345.5,-212.5 5345.5,-242.5 5452.5,-242.5 5452.5,-212.5 5345.5,-212.5"/>
<text text-anchor="start" x="5353.5" y="-230.5" font-family="Helvetica,sans-Serif" font-size="10.00">src/libs/vpatterndb</text>
<text text-anchor="middle" x="5399" y="-219.5" font-family="Helvetica,sans-Serif" font-size="10.00">/vcontainer.h</text>
</a>
</g>
</g>
<!-- Node4&#45;&gt;Node5 -->
<g id="edge4" class="edge">
<title>Node4&#45;&gt;Node5</title>
<path fill="none" stroke="midnightblue" d="M5399,-269.11C5399,-260.15 5399,-250.32 5399,-242.58"/>
<polygon fill="midnightblue" stroke="midnightblue" points="5395.5,-269.4 5399,-279.4 5402.5,-269.4 5395.5,-269.4"/>
</g>
<!-- Node5&#45;&gt;Node3 -->
<g id="edge54" class="edge">
<title>Node5&#45;&gt;Node3</title>
<path fill="none" stroke="midnightblue" d="M5335.28,-226.16C4946.37,-223.98 2888.18,-210.95 2258,-176 1892.03,-155.7 1798.82,-156.57 1437,-98 1433.9,-97.5 1430.72,-96.93 1427.52,-96.32"/>
<polygon fill="midnightblue" stroke="midnightblue" points="5335.48,-229.66 5345.5,-226.22 5335.52,-222.66 5335.48,-229.66"/>
</g>
<!-- Node6 -->
<g id="node6" class="node">
<title>Node6</title>
<g id="a_node6"><a xlink:href="../../dc/db7/measurements_8h.html" target="_top" xlink:title=" ">
<polygon fill="white" stroke="black" points="6232.5,-145.5 6232.5,-164.5 6411.5,-164.5 6411.5,-145.5 6232.5,-145.5"/>
<text text-anchor="middle" x="6322" y="-152.5" font-family="Helvetica,sans-Serif" font-size="10.00">src/libs/vformat/measurements.h</text>
</a>
</g>
</g>
<!-- Node5&#45;&gt;Node6 -->
<g id="edge5" class="edge">
<title>Node5&#45;&gt;Node6</title>
<path fill="none" stroke="midnightblue" d="M5462.79,-225.59C5601.59,-222.94 5941.21,-212.92 6223,-176 6244.04,-173.24 6267.3,-168.62 6285.99,-164.52"/>
<polygon fill="midnightblue" stroke="midnightblue" points="5462.68,-222.09 5452.75,-225.77 5462.81,-229.09 5462.68,-222.09"/>
</g>
<!-- Node7 -->
<g id="node7" class="node">
<title>Node7</title>
<g id="a_node7"><a xlink:href="../../d9/de3/measurements_8cpp.html" target="_top" xlink:title=" ">
<polygon fill="white" stroke="black" points="6217,-73 6217,-92 6407,-92 6407,-73 6217,-73"/>
<text text-anchor="middle" x="6312" y="-80" font-family="Helvetica,sans-Serif" font-size="10.00">src/libs/vformat/measurements.cpp</text>
</a>
</g>
</g>
<!-- Node5&#45;&gt;Node7 -->
<g id="edge7" class="edge">
<title>Node5&#45;&gt;Node7</title>
<path fill="none" stroke="midnightblue" d="M5462.61,-225.74C5680.75,-222.83 6386.92,-210.76 6420,-176 6432.87,-162.48 6430.02,-149.75 6420,-134 6405.83,-111.73 6378.99,-99.12 6355.61,-92.07"/>
<polygon fill="midnightblue" stroke="midnightblue" points="5462.55,-222.24 5452.6,-225.87 5462.64,-229.24 5462.55,-222.24"/>
</g>
<!-- Node8 -->
<g id="node8" class="node">
<title>Node8</title>
<g id="a_node8"><a xlink:href="../../d6/de0/vlayoutpiece_8h.html" target="_top" xlink:title=" ">
<polygon fill="white" stroke="black" points="547,-145.5 547,-164.5 713,-164.5 713,-145.5 547,-145.5"/>
<text text-anchor="middle" x="630" y="-152.5" font-family="Helvetica,sans-Serif" font-size="10.00">src/libs/vlayout/vlayoutpiece.h</text>
</a>
</g>
</g>
<!-- Node5&#45;&gt;Node8 -->
<g id="edge8" class="edge">
<title>Node5&#45;&gt;Node8</title>
<path fill="none" stroke="midnightblue" d="M5335.12,-225.63C4985.58,-220.87 3269.06,-197.38 1866,-176 1432,-169.39 912.29,-160.74 713.18,-157.4"/>
<polygon fill="midnightblue" stroke="midnightblue" points="5335.25,-229.13 5345.3,-225.77 5335.35,-222.13 5335.25,-229.13"/>
</g>
<!-- Node18 -->
<g id="node17" class="node">
<title>Node18</title>
<g id="a_node17"><a xlink:href="../../d8/d70/vtextmanager_8cpp.html" target="_top" xlink:title=" ">
<polygon fill="white" stroke="black" points="1446,-73 1446,-92 1628,-92 1628,-73 1446,-73"/>
<text text-anchor="middle" x="1537" y="-80" font-family="Helvetica,sans-Serif" font-size="10.00">src/libs/vlayout/vtextmanager.cpp</text>
</a>
</g>
</g>
<!-- Node5&#45;&gt;Node18 -->
<g id="edge19" class="edge">
<title>Node5&#45;&gt;Node18</title>
<path fill="none" stroke="midnightblue" d="M5335.1,-225.38C4902.49,-217.66 2396.87,-170.34 1637,-98 1621.37,-96.51 1604.45,-94.29 1589.04,-92.03"/>
<polygon fill="midnightblue" stroke="midnightblue" points="5335.17,-228.88 5345.23,-225.56 5335.29,-221.89 5335.17,-228.88"/>
</g>
<!-- Node19 -->
<g id="node18" class="node">
<title>Node19</title>
<g id="a_node18"><a xlink:href="../../d5/d74/vabstractapplication_8h.html" target="_top" xlink:title=" ">
<polygon fill="white" stroke="red" points="3347.5,-145.5 3347.5,-164.5 3542.5,-164.5 3542.5,-145.5 3347.5,-145.5"/>
<text text-anchor="middle" x="3445" y="-152.5" font-family="Helvetica,sans-Serif" font-size="10.00">src/libs/vmisc/vabstractapplication.h</text>
</a>
</g>
</g>
<!-- Node5&#45;&gt;Node19 -->
<g id="edge20" class="edge">
<title>Node5&#45;&gt;Node19</title>
<path fill="none" stroke="midnightblue" d="M5335.29,-224.2C5049.97,-213.91 3888.5,-172 3542.63,-159.52"/>
<polygon fill="midnightblue" stroke="midnightblue" points="5335.35,-227.71 5345.47,-224.57 5335.6,-220.71 5335.35,-227.71"/>
</g>
<!-- Node37 -->
<g id="node32" class="node">
<title>Node37</title>
<g id="a_node32"><a xlink:href="../../db/d11/vformula_8cpp.html" target="_top" xlink:title=" ">
<polygon fill="white" stroke="black" points="5157.5,-67.5 5157.5,-97.5 5264.5,-97.5 5264.5,-67.5 5157.5,-67.5"/>
<text text-anchor="start" x="5165.5" y="-85.5" font-family="Helvetica,sans-Serif" font-size="10.00">src/libs/vpatterndb</text>
<text text-anchor="middle" x="5211" y="-74.5" font-family="Helvetica,sans-Serif" font-size="10.00">/vformula.cpp</text>
</a>
</g>
</g>
<!-- Node5&#45;&gt;Node37 -->
<g id="edge55" class="edge">
<title>Node5&#45;&gt;Node37</title>
<path fill="none" stroke="midnightblue" d="M5335.72,-213.04C5310.97,-205.36 5283.62,-193.62 5263,-176 5237.93,-154.58 5222.5,-117.89 5215.48,-97.76"/>
<polygon fill="midnightblue" stroke="midnightblue" points="5334.84,-216.42 5345.42,-215.88 5336.81,-209.71 5334.84,-216.42"/>
</g>
<!-- Node38 -->
<g id="node33" class="node">
<title>Node38</title>
<g id="a_node33"><a xlink:href="../../df/d7a/vpiece_8cpp.html" target="_top" xlink:title=" ">
<polygon fill="white" stroke="black" points="5282.5,-67.5 5282.5,-97.5 5389.5,-97.5 5389.5,-67.5 5282.5,-67.5"/>
<text text-anchor="start" x="5290.5" y="-85.5" font-family="Helvetica,sans-Serif" font-size="10.00">src/libs/vpatterndb</text>
<text text-anchor="middle" x="5336" y="-74.5" font-family="Helvetica,sans-Serif" font-size="10.00">/vpiece.cpp</text>
</a>
</g>
</g>
<!-- Node5&#45;&gt;Node38 -->
<g id="edge56" class="edge">
<title>Node5&#45;&gt;Node38</title>
<path fill="none" stroke="midnightblue" d="M5335.72,-216.54C5311.96,-209.39 5287.28,-197.1 5273,-176 5262.54,-160.54 5264.92,-150.83 5273,-134 5280.46,-118.46 5295.3,-106.19 5308.7,-97.64"/>
<polygon fill="midnightblue" stroke="midnightblue" points="5334.89,-219.94 5345.46,-219.21 5336.75,-213.19 5334.89,-219.94"/>
</g>
<!-- Node40 -->
<g id="node35" class="node">
<title>Node40</title>
<g id="a_node35"><a xlink:href="../../d8/dba/vpiecenode_8cpp.html" target="_top" xlink:title=" ">
<polygon fill="white" stroke="black" points="5198.5,-0.5 5198.5,-30.5 5305.5,-30.5 5305.5,-0.5 5198.5,-0.5"/>
<text text-anchor="start" x="5206.5" y="-18.5" font-family="Helvetica,sans-Serif" font-size="10.00">src/libs/vpatterndb</text>
<text text-anchor="middle" x="5252" y="-7.5" font-family="Helvetica,sans-Serif" font-size="10.00">/vpiecenode.cpp</text>
</a>
</g>
</g>
<!-- Node5&#45;&gt;Node40 -->
<g id="edge58" class="edge">
<title>Node5&#45;&gt;Node40</title>
<path fill="none" stroke="midnightblue" d="M5341.79,-208.03C5327.28,-200.47 5313.42,-190.09 5305,-176 5295.42,-159.98 5294.45,-149.4 5305,-134 5330.05,-97.44 5372.95,-134.56 5398,-98 5405.79,-86.63 5405.99,-78.22 5398,-67 5377.15,-37.73 5338.13,-25.26 5305.67,-20.03"/>
<polygon fill="midnightblue" stroke="midnightblue" points="5340.34,-211.22 5350.88,-212.38 5343.37,-204.91 5340.34,-211.22"/>
</g>
<!-- Node57 -->
<g id="node45" class="node">
<title>Node57</title>
<g id="a_node45"><a xlink:href="../../d3/d02/custom__variable__p_8h.html" target="_top" xlink:title=" ">
<polygon fill="white" stroke="black" points="5314.5,-140 5314.5,-170 5483.5,-170 5483.5,-140 5314.5,-140"/>
<text text-anchor="start" x="5322.5" y="-158" font-family="Helvetica,sans-Serif" font-size="10.00">src/libs/vpatterndb</text>
<text text-anchor="middle" x="5399" y="-147" font-family="Helvetica,sans-Serif" font-size="10.00">/variables/custom_variable_p.h</text>
</a>
</g>
</g>
<!-- Node5&#45;&gt;Node57 -->
<g id="edge51" class="edge">
<title>Node5&#45;&gt;Node57</title>
<path fill="none" stroke="midnightblue" d="M5399,-202.23C5399,-191.57 5399,-179.41 5399,-170.25"/>
<polygon fill="midnightblue" stroke="midnightblue" points="5395.5,-202.23 5399,-212.23 5402.5,-202.23 5395.5,-202.23"/>
</g>
<!-- Node58 -->
<g id="node46" class="node">
<title>Node58</title>
<g id="a_node46"><a xlink:href="../../d7/d8a/measurement__variable__p_8h.html" target="_top" xlink:title=" ">
<polygon fill="white" stroke="red" points="5502,-134.5 5502,-175.5 5638,-175.5 5638,-134.5 5502,-134.5"/>
<text text-anchor="start" x="5510" y="-163.5" font-family="Helvetica,sans-Serif" font-size="10.00">src/libs/vpatterndb</text>
<text text-anchor="start" x="5510" y="-152.5" font-family="Helvetica,sans-Serif" font-size="10.00">/variables/measurement</text>
<text text-anchor="middle" x="5570" y="-141.5" font-family="Helvetica,sans-Serif" font-size="10.00">_variable_p.h</text>
</a>
</g>
</g>
<!-- Node5&#45;&gt;Node58 -->
<g id="edge53" class="edge">
<title>Node5&#45;&gt;Node58</title>
<path fill="none" stroke="midnightblue" d="M5442.58,-208.53C5467.03,-198.45 5497.55,-185.87 5522.59,-175.55"/>
<polygon fill="midnightblue" stroke="midnightblue" points="5441.1,-205.36 5433.19,-212.4 5443.77,-211.83 5441.1,-205.36"/>
</g>
<!-- Node60 -->
<g id="node47" class="node">
<title>Node60</title>
<g id="a_node47"><a xlink:href="../../d6/d91/vnodedetail_8cpp.html" target="_top" xlink:title=" ">
<polygon fill="white" stroke="black" points="5656.5,-140 5656.5,-170 5763.5,-170 5763.5,-140 5656.5,-140"/>
<text text-anchor="start" x="5664.5" y="-158" font-family="Helvetica,sans-Serif" font-size="10.00">src/libs/vpatterndb</text>
<text text-anchor="middle" x="5710" y="-147" font-family="Helvetica,sans-Serif" font-size="10.00">/vnodedetail.cpp</text>
</a>
</g>
</g>
<!-- Node5&#45;&gt;Node60 -->
<g id="edge57" class="edge">
<title>Node5&#45;&gt;Node60</title>
<path fill="none" stroke="midnightblue" d="M5462.68,-215.46C5513.03,-206.28 5584.93,-192.12 5647,-176 5653.78,-174.24 5660.9,-172.18 5667.82,-170.07"/>
<polygon fill="midnightblue" stroke="midnightblue" points="5461.81,-212.07 5452.59,-217.29 5463.06,-218.95 5461.81,-212.07"/>
</g>
<!-- Node61 -->
<g id="node48" class="node">
<title>Node61</title>
<g id="a_node48"><a xlink:href="../../da/de1/vpiecepath_8cpp.html" target="_top" xlink:title=" ">
<polygon fill="white" stroke="black" points="5781.5,-140 5781.5,-170 5888.5,-170 5888.5,-140 5781.5,-140"/>
<text text-anchor="start" x="5789.5" y="-158" font-family="Helvetica,sans-Serif" font-size="10.00">src/libs/vpatterndb</text>
<text text-anchor="middle" x="5835" y="-147" font-family="Helvetica,sans-Serif" font-size="10.00">/vpiecepath.cpp</text>
</a>
</g>
</g>
<!-- Node5&#45;&gt;Node61 -->
<g id="edge59" class="edge">
<title>Node5&#45;&gt;Node61</title>
<path fill="none" stroke="midnightblue" d="M5462.83,-221.24C5537.58,-214.31 5664.83,-200.08 5772,-176 5779.28,-174.37 5786.92,-172.27 5794.28,-170.06"/>
<polygon fill="midnightblue" stroke="midnightblue" points="5462.28,-217.78 5452.64,-222.17 5462.91,-224.75 5462.28,-217.78"/>
</g>
<!-- Node62 -->
<g id="node49" class="node">
<title>Node62</title>
<g id="a_node49"><a xlink:href="../../d1/d3a/abstracttest_8cpp.html" target="_top" xlink:title=" ">
<polygon fill="white" stroke="black" points="5906.5,-145.5 5906.5,-164.5 6067.5,-164.5 6067.5,-145.5 5906.5,-145.5"/>
<text text-anchor="middle" x="5987" y="-152.5" font-family="Helvetica,sans-Serif" font-size="10.00">src/libs/vtest/abstracttest.cpp</text>
</a>
</g>
</g>
<!-- Node5&#45;&gt;Node62 -->
<g id="edge60" class="edge">
<title>Node5&#45;&gt;Node62</title>
<path fill="none" stroke="midnightblue" d="M5462.73,-222.45C5557.74,-215.86 5742,-200.99 5897,-176 5915.65,-172.99 5936.22,-168.51 5952.99,-164.55"/>
<polygon fill="midnightblue" stroke="midnightblue" points="5462.44,-218.96 5452.7,-223.13 5462.92,-225.94 5462.44,-218.96"/>
</g>
<!-- Node63 -->
<g id="node50" class="node">
<title>Node63</title>
<g id="a_node50"><a xlink:href="../../da/db4/piece__tablewidgetitem_8cpp.html" target="_top" xlink:title=" ">
<polygon fill="white" stroke="black" points="6086,-140 6086,-170 6214,-170 6214,-140 6086,-140"/>
<text text-anchor="start" x="6094" y="-158" font-family="Helvetica,sans-Serif" font-size="10.00">src/libs/vwidgets/piece</text>
<text text-anchor="middle" x="6150" y="-147" font-family="Helvetica,sans-Serif" font-size="10.00">_tablewidgetitem.cpp</text>
</a>
</g>
</g>
<!-- Node5&#45;&gt;Node63 -->
<g id="edge61" class="edge">
<title>Node5&#45;&gt;Node63</title>
<path fill="none" stroke="midnightblue" d="M5462.68,-225.76C5583.24,-223.48 5852.76,-214.14 6076,-176 6084.92,-174.48 6094.32,-172.35 6103.32,-170.05"/>
<polygon fill="midnightblue" stroke="midnightblue" points="5462.45,-222.26 5452.52,-225.94 5462.58,-229.26 5462.45,-222.26"/>
</g>
<!-- Node6&#45;&gt;Node7 -->
<g id="edge6" class="edge">
<title>Node6&#45;&gt;Node7</title>
<path fill="none" stroke="midnightblue" d="M6319.36,-135.36C6317.38,-121.4 6314.76,-102.93 6313.24,-92.22"/>
<polygon fill="midnightblue" stroke="midnightblue" points="6315.9,-135.95 6320.77,-145.36 6322.83,-134.96 6315.9,-135.95"/>
</g>
<!-- Node9 -->
<g id="node9" class="node">
<title>Node9</title>
<g id="a_node9"><a xlink:href="../../dd/d66/vdxfengine_8cpp.html" target="_top" xlink:title=" ">
<polygon fill="white" stroke="black" points="953,-73 953,-92 1107,-92 1107,-73 953,-73"/>
<text text-anchor="middle" x="1030" y="-80" font-family="Helvetica,sans-Serif" font-size="10.00">src/libs/vdxf/vdxfengine.cpp</text>
</a>
</g>
</g>
<!-- Node8&#45;&gt;Node9 -->
<g id="edge9" class="edge">
<title>Node8&#45;&gt;Node9</title>
<path fill="none" stroke="midnightblue" d="M688.55,-143.68C767.84,-129.71 907.9,-105.02 981.58,-92.03"/>
<polygon fill="midnightblue" stroke="midnightblue" points="687.49,-140.31 678.25,-145.5 688.71,-147.21 687.49,-140.31"/>
</g>
<!-- Node10 -->
<g id="node10" class="node">
<title>Node10</title>
<g id="a_node10"><a xlink:href="../../df/d5d/vcontour_8cpp.html" target="_top" xlink:title=" ">
<polygon fill="white" stroke="black" points="0,-73 0,-92 156,-92 156,-73 0,-73"/>
<text text-anchor="middle" x="78" y="-80" font-family="Helvetica,sans-Serif" font-size="10.00">src/libs/vlayout/vcontour.cpp</text>
</a>
</g>
</g>
<!-- Node8&#45;&gt;Node10 -->
<g id="edge10" class="edge">
<title>Node8&#45;&gt;Node10</title>
<path fill="none" stroke="midnightblue" d="M540.02,-144.39C446.24,-134.08 295.08,-116.66 165,-98 152.57,-96.22 139.18,-94.09 126.71,-92.02"/>
<polygon fill="midnightblue" stroke="midnightblue" points="539.72,-147.87 550.04,-145.48 540.48,-140.92 539.72,-147.87"/>
</g>
<!-- Node11 -->
<g id="node11" class="node">
<title>Node11</title>
<g id="a_node11"><a xlink:href="../../de/da8/vbank_8cpp.html" target="_top" xlink:title=" ">
<polygon fill="white" stroke="black" points="174,-73 174,-92 318,-92 318,-73 174,-73"/>
<text text-anchor="middle" x="246" y="-80" font-family="Helvetica,sans-Serif" font-size="10.00">src/libs/vlayout/vbank.cpp</text>
</a>
</g>
</g>
<!-- Node8&#45;&gt;Node11 -->
<g id="edge11" class="edge">
<title>Node8&#45;&gt;Node11</title>
<path fill="none" stroke="midnightblue" d="M573.79,-143.68C497.67,-129.71 363.22,-105.02 292.48,-92.03"/>
<polygon fill="midnightblue" stroke="midnightblue" points="573.21,-147.13 583.68,-145.5 574.48,-140.25 573.21,-147.13"/>
</g>
<!-- Node12 -->
<g id="node12" class="node">
<title>Node12</title>
<g id="a_node12"><a xlink:href="../../d2/d2d/vlayoutpaper__p_8h.html" target="_top" xlink:title=" ">
<polygon fill="white" stroke="black" points="540.5,-73 540.5,-92 719.5,-92 719.5,-73 540.5,-73"/>
<text text-anchor="middle" x="630" y="-80" font-family="Helvetica,sans-Serif" font-size="10.00">src/libs/vlayout/vlayoutpaper_p.h</text>
</a>
</g>
</g>
<!-- Node8&#45;&gt;Node12 -->
<g id="edge12" class="edge">
<title>Node8&#45;&gt;Node12</title>
<path fill="none" stroke="midnightblue" d="M630,-134.94C630,-121.03 630,-102.82 630,-92.22"/>
<polygon fill="midnightblue" stroke="midnightblue" points="626.5,-135.36 630,-145.36 633.5,-135.36 626.5,-135.36"/>
</g>
<!-- Node13 -->
<g id="node13" class="node">
<title>Node13</title>
<g id="a_node13"><a xlink:href="../../d1/dd1/vlayoutpaper_8cpp.html" target="_top" xlink:title=" ">
<polygon fill="white" stroke="black" points="423,-6 423,-25 601,-25 601,-6 423,-6"/>
<text text-anchor="middle" x="512" y="-13" font-family="Helvetica,sans-Serif" font-size="10.00">src/libs/vlayout/vlayoutpaper.cpp</text>
</a>
</g>
</g>
<!-- Node8&#45;&gt;Node13 -->
<g id="edge14" class="edge">
<title>Node8&#45;&gt;Node13</title>
<path fill="none" stroke="midnightblue" d="M592.88,-141.61C571.7,-132.69 546.39,-118.56 531,-98 514.28,-75.67 511.95,-40.99 511.83,-25.05"/>
<polygon fill="midnightblue" stroke="midnightblue" points="591.68,-144.9 602.27,-145.34 594.27,-138.39 591.68,-144.9"/>
</g>
<!-- Node14 -->
<g id="node14" class="node">
<title>Node14</title>
<g id="a_node14"><a xlink:href="../../d3/d39/vlayoutgenerator_8cpp.html" target="_top" xlink:title=" ">
<polygon fill="white" stroke="black" points="737.5,-73 737.5,-92 934.5,-92 934.5,-73 737.5,-73"/>
<text text-anchor="middle" x="836" y="-80" font-family="Helvetica,sans-Serif" font-size="10.00">src/libs/vlayout/vlayoutgenerator.cpp</text>
</a>
</g>
</g>
<!-- Node8&#45;&gt;Node14 -->
<g id="edge15" class="edge">
<title>Node8&#45;&gt;Node14</title>
<path fill="none" stroke="midnightblue" d="M664.51,-142.19C705.95,-128.01 774.43,-104.57 811.06,-92.03"/>
<polygon fill="midnightblue" stroke="midnightblue" points="663.18,-138.95 654.85,-145.5 665.44,-145.57 663.18,-138.95"/>
</g>
<!-- Node15 -->
<g id="node15" class="node">
<title>Node15</title>
<g id="a_node15"><a xlink:href="../../db/d5c/vposition_8h.html" target="_top" xlink:title=" ">
<polygon fill="white" stroke="red" points="336,-73 336,-92 484,-92 484,-73 336,-73"/>
<text text-anchor="middle" x="410" y="-80" font-family="Helvetica,sans-Serif" font-size="10.00">src/libs/vlayout/vposition.h</text>
</a>
</g>
</g>
<!-- Node8&#45;&gt;Node15 -->
<g id="edge16" class="edge">
<title>Node8&#45;&gt;Node15</title>
<path fill="none" stroke="midnightblue" d="M593.7,-142.37C549.51,-128.21 475.92,-104.62 436.63,-92.03"/>
<polygon fill="midnightblue" stroke="midnightblue" points="592.87,-145.78 603.46,-145.5 595.01,-139.11 592.87,-145.78"/>
</g>
<!-- Node17 -->
<g id="node16" class="node">
<title>Node17</title>
<g id="a_node16"><a xlink:href="../../dd/d70/vlayoutpiece_8cpp.html" target="_top" xlink:title=" ">
<polygon fill="white" stroke="black" points="1125.5,-73 1125.5,-92 1302.5,-92 1302.5,-73 1125.5,-73"/>
<text text-anchor="middle" x="1214" y="-80" font-family="Helvetica,sans-Serif" font-size="10.00">src/libs/vlayout/vlayoutpiece.cpp</text>
</a>
</g>
</g>
<!-- Node8&#45;&gt;Node17 -->
<g id="edge18" class="edge">
<title>Node8&#45;&gt;Node17</title>
<path fill="none" stroke="midnightblue" d="M721.07,-144.39C818.81,-133.87 978.55,-116.08 1116,-98 1129.81,-96.18 1144.7,-94.06 1158.59,-92.02"/>
<polygon fill="midnightblue" stroke="midnightblue" points="720.5,-140.93 710.93,-145.48 721.25,-147.89 720.5,-140.93"/>
</g>
<!-- Node12&#45;&gt;Node13 -->
<g id="edge13" class="edge">
<title>Node12&#45;&gt;Node13</title>
<path fill="none" stroke="midnightblue" d="M605.11,-67.79C581.72,-54.9 547.44,-36.02 527.66,-25.13"/>
<polygon fill="midnightblue" stroke="midnightblue" points="603.64,-70.97 614.09,-72.73 607.02,-64.84 603.64,-70.97"/>
</g>
<!-- Node15&#45;&gt;Node13 -->
<g id="edge17" class="edge">
<title>Node15&#45;&gt;Node13</title>
<path fill="none" stroke="midnightblue" d="M432.33,-67.27C452.52,-54.4 481.59,-35.88 498.46,-25.13"/>
<polygon fill="midnightblue" stroke="midnightblue" points="430.31,-64.41 423.76,-72.73 434.07,-70.31 430.31,-64.41"/>
</g>
<!-- Node19&#45;&gt;Node3 -->
<g id="edge37" class="edge">
<title>Node19&#45;&gt;Node3</title>
<path fill="none" stroke="midnightblue" d="M3337.14,-153.81C2975.74,-152.74 1809.41,-145.57 1437,-98 1433.99,-97.62 1430.92,-97.15 1427.83,-96.63"/>
<polygon fill="midnightblue" stroke="midnightblue" points="3337.33,-157.31 3347.34,-153.84 3337.35,-150.31 3337.33,-157.31"/>
</g>
<!-- Node19&#45;&gt;Node17 -->
<g id="edge31" class="edge">
<title>Node19&#45;&gt;Node17</title>
<path fill="none" stroke="midnightblue" d="M3337.27,-152.92C2961.62,-148.86 1710.82,-133 1311,-98 1295.39,-96.63 1278.48,-94.38 1263.21,-92.05"/>
<polygon fill="midnightblue" stroke="midnightblue" points="3337.28,-156.42 3347.32,-153.02 3337.36,-149.42 3337.28,-156.42"/>
</g>
<!-- Node19&#45;&gt;Node18 -->
<g id="edge32" class="edge">
<title>Node19&#45;&gt;Node18</title>
<path fill="none" stroke="midnightblue" d="M3337.03,-150.09C3220.93,-145.93 3030.9,-139.23 2867,-134 2320.38,-116.54 2181.85,-145.32 1637,-98 1620.92,-96.6 1603.48,-94.34 1587.74,-92.01"/>
<polygon fill="midnightblue" stroke="midnightblue" points="3337.22,-153.6 3347.34,-150.46 3337.47,-146.61 3337.22,-153.6"/>
</g>
<!-- Node20 -->
<g id="node19" class="node">
<title>Node20</title>
<g id="a_node19"><a xlink:href="../../d4/d90/fvupdater_8cpp.html" target="_top" xlink:title=" ">
<polygon fill="white" stroke="black" points="3368.5,-73 3368.5,-92 3521.5,-92 3521.5,-73 3368.5,-73"/>
<text text-anchor="middle" x="3445" y="-80" font-family="Helvetica,sans-Serif" font-size="10.00">src/libs/fervor/fvupdater.cpp</text>
</a>
</g>
</g>
<!-- Node19&#45;&gt;Node20 -->
<g id="edge21" class="edge">
<title>Node19&#45;&gt;Node20</title>
<path fill="none" stroke="midnightblue" d="M3445,-134.94C3445,-121.03 3445,-102.82 3445,-92.22"/>
<polygon fill="midnightblue" stroke="midnightblue" points="3441.5,-135.36 3445,-145.36 3448.5,-135.36 3441.5,-135.36"/>
</g>
<!-- Node21 -->
<g id="node20" class="node">
<title>Node21</title>
<g id="a_node20"><a xlink:href="../../d9/dc8/dxiface_8cpp.html" target="_top" xlink:title=" ">
<polygon fill="white" stroke="black" points="3539.5,-73 3539.5,-92 3674.5,-92 3674.5,-73 3539.5,-73"/>
<text text-anchor="middle" x="3607" y="-80" font-family="Helvetica,sans-Serif" font-size="10.00">src/libs/vdxf/dxiface.cpp</text>
</a>
</g>
</g>
<!-- Node19&#45;&gt;Node21 -->
<g id="edge22" class="edge">
<title>Node19&#45;&gt;Node21</title>
<path fill="none" stroke="midnightblue" d="M3474.02,-141.37C3506.77,-127.12 3559.13,-104.33 3587.39,-92.03"/>
<polygon fill="midnightblue" stroke="midnightblue" points="3472.31,-138.3 3464.54,-145.5 3475.11,-144.71 3472.31,-138.3"/>
</g>
<!-- Node22 -->
<g id="node21" class="node">
<title>Node22</title>
<g id="a_node21"><a xlink:href="../../da/d75/vabstractarc__p_8h.html" target="_top" xlink:title=" ">
<polygon fill="white" stroke="red" points="3692.5,-67.5 3692.5,-97.5 3799.5,-97.5 3799.5,-67.5 3692.5,-67.5"/>
<text text-anchor="start" x="3700.5" y="-85.5" font-family="Helvetica,sans-Serif" font-size="10.00">src/libs/vgeometry</text>
<text text-anchor="middle" x="3746" y="-74.5" font-family="Helvetica,sans-Serif" font-size="10.00">/vabstractarc_p.h</text>
</a>
</g>
</g>
<!-- Node19&#45;&gt;Node22 -->
<g id="edge23" class="edge">
<title>Node19&#45;&gt;Node22</title>
<path fill="none" stroke="midnightblue" d="M3491.33,-143.15C3545.53,-130.45 3635.11,-109.47 3692.3,-96.08"/>
<polygon fill="midnightblue" stroke="midnightblue" points="3490.25,-139.81 3481.31,-145.5 3491.84,-146.62 3490.25,-139.81"/>
</g>
<!-- Node24 -->
<g id="node22" class="node">
<title>Node24</title>
<g id="a_node22"><a xlink:href="../../dc/da3/varc__p_8h.html" target="_top" xlink:title=" ">
<polygon fill="white" stroke="red" points="3817.5,-67.5 3817.5,-97.5 3924.5,-97.5 3924.5,-67.5 3817.5,-67.5"/>
<text text-anchor="start" x="3825.5" y="-85.5" font-family="Helvetica,sans-Serif" font-size="10.00">src/libs/vgeometry</text>
<text text-anchor="middle" x="3871" y="-74.5" font-family="Helvetica,sans-Serif" font-size="10.00">/varc_p.h</text>
</a>
</g>
</g>
<!-- Node19&#45;&gt;Node24 -->
<g id="edge24" class="edge">
<title>Node19&#45;&gt;Node24</title>
<path fill="none" stroke="midnightblue" d="M3519.94,-144.07C3593.53,-133.94 3708.86,-117.03 3808,-98 3811.09,-97.41 3814.25,-96.77 3817.44,-96.11"/>
<polygon fill="midnightblue" stroke="midnightblue" points="3519.27,-140.63 3509.83,-145.46 3520.22,-147.57 3519.27,-140.63"/>
</g>
<!-- Node26 -->
<g id="node23" class="node">
<title>Node26</title>
<g id="a_node23"><a xlink:href="../../d5/d8e/vcubicbezier__p_8h.html" target="_top" xlink:title=" ">
<polygon fill="white" stroke="red" points="3942.5,-67.5 3942.5,-97.5 4049.5,-97.5 4049.5,-67.5 3942.5,-67.5"/>
<text text-anchor="start" x="3950.5" y="-85.5" font-family="Helvetica,sans-Serif" font-size="10.00">src/libs/vgeometry</text>
<text text-anchor="middle" x="3996" y="-74.5" font-family="Helvetica,sans-Serif" font-size="10.00">/vcubicbezier_p.h</text>
</a>
</g>
</g>
<!-- Node19&#45;&gt;Node26 -->
<g id="edge25" class="edge">
<title>Node19&#45;&gt;Node26</title>
<path fill="none" stroke="midnightblue" d="M3552.71,-145.13C3651.92,-136.14 3802.99,-120.35 3933,-98 3936.1,-97.47 3939.27,-96.88 3942.47,-96.25"/>
<polygon fill="midnightblue" stroke="midnightblue" points="3552.32,-141.65 3542.68,-146.03 3552.95,-148.62 3552.32,-141.65"/>
</g>
<!-- Node28 -->
<g id="node24" class="node">
<title>Node28</title>
<g id="a_node24"><a xlink:href="../../df/dde/vellipticalarc__p_8h.html" target="_top" xlink:title=" ">
<polygon fill="white" stroke="black" points="4067.5,-67.5 4067.5,-97.5 4174.5,-97.5 4174.5,-67.5 4067.5,-67.5"/>
<text text-anchor="start" x="4075.5" y="-85.5" font-family="Helvetica,sans-Serif" font-size="10.00">src/libs/vgeometry</text>
<text text-anchor="middle" x="4121" y="-74.5" font-family="Helvetica,sans-Serif" font-size="10.00">/vellipticalarc_p.h</text>
</a>
</g>
</g>
<!-- Node19&#45;&gt;Node28 -->
<g id="edge26" class="edge">
<title>Node19&#45;&gt;Node28</title>
<path fill="none" stroke="midnightblue" d="M3552.81,-148.57C3675.68,-141.36 3882.23,-126.12 4058,-98 4061.1,-97.5 4064.28,-96.94 4067.48,-96.34"/>
<polygon fill="midnightblue" stroke="midnightblue" points="3552.43,-145.09 3542.65,-149.16 3552.84,-152.07 3552.43,-145.09"/>
</g>
<!-- Node29 -->
<g id="node25" class="node">
<title>Node29</title>
<g id="a_node25"><a xlink:href="../../d6/dfb/vellipticalarc_8cpp.html" target="_top" xlink:title=" ">
<polygon fill="white" stroke="black" points="2897.5,-0.5 2897.5,-30.5 3004.5,-30.5 3004.5,-0.5 2897.5,-0.5"/>
<text text-anchor="start" x="2905.5" y="-18.5" font-family="Helvetica,sans-Serif" font-size="10.00">src/libs/vgeometry</text>
<text text-anchor="middle" x="2951" y="-7.5" font-family="Helvetica,sans-Serif" font-size="10.00">/vellipticalarc.cpp</text>
</a>
</g>
</g>
<!-- Node19&#45;&gt;Node29 -->
<g id="edge29" class="edge">
<title>Node19&#45;&gt;Node29</title>
<path fill="none" stroke="midnightblue" d="M3337.03,-150.24C3220.92,-146.2 3030.89,-139.6 2867,-134 2807.78,-131.98 1842.19,-140.6 1801,-98 1791.42,-88.09 1791.47,-76.95 1801,-67 1839.32,-26.96 2675.06,-18.39 2897.19,-16.82"/>
<polygon fill="midnightblue" stroke="midnightblue" points="3337.22,-153.75 3347.33,-150.6 3337.46,-146.75 3337.22,-153.75"/>
</g>
<!-- Node30 -->
<g id="node26" class="node">
<title>Node30</title>
<g id="a_node26"><a xlink:href="../../d1/d76/vspline__p_8h.html" target="_top" xlink:title=" ">
<polygon fill="white" stroke="red" points="4192.5,-67.5 4192.5,-97.5 4299.5,-97.5 4299.5,-67.5 4192.5,-67.5"/>
<text text-anchor="start" x="4200.5" y="-85.5" font-family="Helvetica,sans-Serif" font-size="10.00">src/libs/vgeometry</text>
<text text-anchor="middle" x="4246" y="-74.5" font-family="Helvetica,sans-Serif" font-size="10.00">/vspline_p.h</text>
</a>
</g>
</g>
<!-- Node19&#45;&gt;Node30 -->
<g id="edge28" class="edge">
<title>Node19&#45;&gt;Node30</title>
<path fill="none" stroke="midnightblue" d="M3552.71,-150.9C3696.94,-145.6 3960.48,-131.85 4183,-98 4186.11,-97.53 4189.29,-96.98 4192.49,-96.39"/>
<polygon fill="midnightblue" stroke="midnightblue" points="3552.4,-147.41 3542.53,-151.27 3552.65,-154.41 3552.4,-147.41"/>
</g>
<!-- Node32 -->
<g id="node27" class="node">
<title>Node32</title>
<g id="a_node27"><a xlink:href="../../d9/d15/vabstractpiece_8cpp.html" target="_top" xlink:title=" ">
<polygon fill="white" stroke="black" points="4318,-73 4318,-92 4504,-92 4504,-73 4318,-73"/>
<text text-anchor="middle" x="4411" y="-80" font-family="Helvetica,sans-Serif" font-size="10.00">src/libs/vlayout/vabstractpiece.cpp</text>
</a>
</g>
</g>
<!-- Node19&#45;&gt;Node32 -->
<g id="edge30" class="edge">
<title>Node19&#45;&gt;Node32</title>
<path fill="none" stroke="midnightblue" d="M3552.65,-149.61C3716.17,-142.36 4036.81,-125.85 4308,-98 4323.63,-96.4 4340.53,-94.21 4356.04,-92.02"/>
<polygon fill="midnightblue" stroke="midnightblue" points="3552.43,-146.12 3542.59,-150.06 3552.73,-153.11 3552.43,-146.12"/>
</g>
<!-- Node33 -->
<g id="node28" class="node">
<title>Node33</title>
<g id="a_node28"><a xlink:href="../../db/d65/dialogexporttocsv_8cpp.html" target="_top" xlink:title=" ">
<polygon fill="white" stroke="black" points="4522.5,-67.5 4522.5,-97.5 4649.5,-97.5 4649.5,-67.5 4522.5,-67.5"/>
<text text-anchor="start" x="4530.5" y="-85.5" font-family="Helvetica,sans-Serif" font-size="10.00">src/libs/vmisc/dialogs</text>
<text text-anchor="middle" x="4586" y="-74.5" font-family="Helvetica,sans-Serif" font-size="10.00">/dialogexporttocsv.cpp</text>
</a>
</g>
</g>
<!-- Node19&#45;&gt;Node33 -->
<g id="edge33" class="edge">
<title>Node19&#45;&gt;Node33</title>
<path fill="none" stroke="midnightblue" d="M3552.75,-153.46C3745.93,-151.35 4163.67,-141.62 4513,-98 4516.08,-97.62 4519.22,-97.18 4522.39,-96.69"/>
<polygon fill="midnightblue" stroke="midnightblue" points="3552.56,-149.96 3542.6,-153.56 3552.64,-156.96 3552.56,-149.96"/>
</g>
<!-- Node34 -->
<g id="node29" class="node">
<title>Node34</title>
<g id="a_node29"><a xlink:href="../../d6/d0b/def_8cpp.html" target="_top" xlink:title=" ">
<polygon fill="white" stroke="black" points="4668,-73 4668,-92 4790,-92 4790,-73 4668,-73"/>
<text text-anchor="middle" x="4729" y="-80" font-family="Helvetica,sans-Serif" font-size="10.00">src/libs/vmisc/def.cpp</text>
</a>
</g>
</g>
<!-- Node19&#45;&gt;Node34 -->
<g id="edge34" class="edge">
<title>Node19&#45;&gt;Node34</title>
<path fill="none" stroke="midnightblue" d="M3552.74,-154.62C3765.07,-154.62 4252.26,-148.49 4658,-98 4669.36,-96.59 4681.62,-94.35 4692.69,-92.04"/>
<polygon fill="midnightblue" stroke="midnightblue" points="3552.53,-151.12 3542.53,-154.62 3552.52,-158.12 3552.53,-151.12"/>
</g>
<!-- Node35 -->
<g id="node30" class="node">
<title>Node35</title>
<g id="a_node30"><a xlink:href="../../d0/df6/vabstractapplication_8cpp.html" target="_top" xlink:title=" ">
<polygon fill="white" stroke="black" points="4808,-73 4808,-92 5014,-92 5014,-73 4808,-73"/>
<text text-anchor="middle" x="4911" y="-80" font-family="Helvetica,sans-Serif" font-size="10.00">src/libs/vmisc/vabstractapplication.cpp</text>
</a>
</g>
</g>
<!-- Node19&#45;&gt;Node35 -->
<g id="edge35" class="edge">
<title>Node19&#45;&gt;Node35</title>
<path fill="none" stroke="midnightblue" d="M3552.91,-152.74C3782.55,-149.35 4336.45,-137.43 4799,-98 4816.48,-96.51 4835.43,-94.29 4852.68,-92.03"/>
<polygon fill="midnightblue" stroke="midnightblue" points="3552.83,-149.24 3542.89,-152.88 3552.94,-156.24 3552.83,-149.24"/>
</g>
<!-- Node36 -->
<g id="node31" class="node">
<title>Node36</title>
<g id="a_node31"><a xlink:href="../../d4/d4f/pmsystems_8cpp.html" target="_top" xlink:title=" ">
<polygon fill="white" stroke="black" points="1646.5,-67.5 1646.5,-97.5 1753.5,-97.5 1753.5,-67.5 1646.5,-67.5"/>
<text text-anchor="start" x="1654.5" y="-85.5" font-family="Helvetica,sans-Serif" font-size="10.00">src/libs/vpatterndb</text>
<text text-anchor="middle" x="1700" y="-74.5" font-family="Helvetica,sans-Serif" font-size="10.00">/pmsystems.cpp</text>
</a>
</g>
</g>
<!-- Node19&#45;&gt;Node36 -->
<g id="edge36" class="edge">
<title>Node19&#45;&gt;Node36</title>
<path fill="none" stroke="midnightblue" d="M3337.03,-150.2C3220.92,-146.14 3030.89,-139.52 2867,-134 2378.57,-117.55 2253.11,-157.19 1768,-98 1763.33,-97.43 1758.5,-96.7 1753.67,-95.86"/>
<polygon fill="midnightblue" stroke="midnightblue" points="3337.22,-153.71 3347.34,-150.57 3337.46,-146.72 3337.22,-153.71"/>
</g>
<!-- Node19&#45;&gt;Node37 -->
<g id="edge38" class="edge">
<title>Node19&#45;&gt;Node37</title>
<path fill="none" stroke="midnightblue" d="M3553.01,-153.18C3877.05,-150.28 4837.68,-138.43 5148,-98 5151,-97.61 5154.08,-97.14 5157.17,-96.61"/>
<polygon fill="midnightblue" stroke="midnightblue" points="3552.65,-149.68 3542.68,-153.27 3552.71,-156.68 3552.65,-149.68"/>
</g>
<!-- Node19&#45;&gt;Node38 -->
<g id="edge39" class="edge">
<title>Node19&#45;&gt;Node38</title>
<path fill="none" stroke="midnightblue" d="M3552.67,-153.46C3892.11,-151.34 4937.19,-141.36 5273,-98 5276.01,-97.61 5279.08,-97.14 5282.17,-96.62"/>
<polygon fill="midnightblue" stroke="midnightblue" points="3552.57,-149.97 3542.59,-153.53 3552.61,-156.97 3552.57,-149.97"/>
</g>
<!-- Node39 -->
<g id="node34" class="node">
<title>Node39</title>
<g id="a_node34"><a xlink:href="../../df/dba/vpiecenode__p_8h.html" target="_top" xlink:title=" ">
<polygon fill="white" stroke="black" points="5032.5,-67.5 5032.5,-97.5 5139.5,-97.5 5139.5,-67.5 5032.5,-67.5"/>
<text text-anchor="start" x="5040.5" y="-85.5" font-family="Helvetica,sans-Serif" font-size="10.00">src/libs/vpatterndb</text>
<text text-anchor="middle" x="5086" y="-74.5" font-family="Helvetica,sans-Serif" font-size="10.00">/vpiecenode_p.h</text>
</a>
</g>
</g>
<!-- Node19&#45;&gt;Node39 -->
<g id="edge40" class="edge">
<title>Node19&#45;&gt;Node39</title>
<path fill="none" stroke="midnightblue" d="M3552.75,-152.85C3860.22,-149.15 4737.89,-135.52 5023,-98 5026,-97.6 5029.08,-97.13 5032.17,-96.6"/>
<polygon fill="midnightblue" stroke="midnightblue" points="3552.46,-149.36 3542.5,-152.98 3552.54,-156.36 3552.46,-149.36"/>
</g>
<!-- Node41 -->
<g id="node36" class="node">
<title>Node41</title>
<g id="a_node36"><a xlink:href="../../de/d3e/vtranslatevars_8cpp.html" target="_top" xlink:title=" ">
<polygon fill="white" stroke="black" points="1810,-67.5 1810,-97.5 1920,-97.5 1920,-67.5 1810,-67.5"/>
<text text-anchor="start" x="1818" y="-85.5" font-family="Helvetica,sans-Serif" font-size="10.00">src/libs/vpatterndb</text>
<text text-anchor="middle" x="1865" y="-74.5" font-family="Helvetica,sans-Serif" font-size="10.00">/vtranslatevars.cpp</text>
</a>
</g>
</g>
<!-- Node19&#45;&gt;Node41 -->
<g id="edge42" class="edge">
<title>Node19&#45;&gt;Node41</title>
<path fill="none" stroke="midnightblue" d="M3337.14,-150.28C2996.47,-138.51 1963.87,-102.55 1929,-98 1926.06,-97.62 1923.06,-97.16 1920.04,-96.65"/>
<polygon fill="midnightblue" stroke="midnightblue" points="3337.14,-153.79 3347.26,-150.63 3337.38,-146.79 3337.14,-153.79"/>
</g>
<!-- Node42 -->
<g id="node37" class="node">
<title>Node42</title>
<g id="a_node37"><a xlink:href="../../df/d40/export__format__combobox_8cpp.html" target="_top" xlink:title=" ">
<polygon fill="white" stroke="black" points="1938.5,-67.5 1938.5,-97.5 2071.5,-97.5 2071.5,-67.5 1938.5,-67.5"/>
<text text-anchor="start" x="1946.5" y="-85.5" font-family="Helvetica,sans-Serif" font-size="10.00">src/libs/vwidgets/export</text>
<text text-anchor="middle" x="2005" y="-74.5" font-family="Helvetica,sans-Serif" font-size="10.00">_format_combobox.cpp</text>
</a>
</g>
</g>
<!-- Node19&#45;&gt;Node42 -->
<g id="edge43" class="edge">
<title>Node19&#45;&gt;Node42</title>
<path fill="none" stroke="midnightblue" d="M3337.05,-150.01C3025.33,-138.44 2142,-105.22 2080,-98 2077.23,-97.68 2074.42,-97.31 2071.58,-96.91"/>
<polygon fill="midnightblue" stroke="midnightblue" points="3337.32,-153.53 3347.45,-150.4 3337.58,-146.53 3337.32,-153.53"/>
</g>
<!-- Node43 -->
<g id="node38" class="node">
<title>Node43</title>
<g id="a_node38"><a xlink:href="../../d2/d28/page__format__combobox_8cpp.html" target="_top" xlink:title=" ">
<polygon fill="white" stroke="black" points="2089.5,-67.5 2089.5,-97.5 2220.5,-97.5 2220.5,-67.5 2089.5,-67.5"/>
<text text-anchor="start" x="2097.5" y="-85.5" font-family="Helvetica,sans-Serif" font-size="10.00">src/libs/vwidgets/page</text>
<text text-anchor="middle" x="2155" y="-74.5" font-family="Helvetica,sans-Serif" font-size="10.00">_format_combobox.cpp</text>
</a>
</g>
</g>
<!-- Node19&#45;&gt;Node43 -->
<g id="edge44" class="edge">
<title>Node19&#45;&gt;Node43</title>
<path fill="none" stroke="midnightblue" d="M3337.23,-149.93C3060.33,-139.34 2338.09,-110.87 2230,-98 2226.97,-97.64 2223.88,-97.23 2220.77,-96.77"/>
<polygon fill="midnightblue" stroke="midnightblue" points="3337.16,-153.43 3347.29,-150.31 3337.43,-146.43 3337.16,-153.43"/>
</g>
<!-- Node44 -->
<g id="node39" class="node">
<title>Node44</title>
<g id="a_node39"><a xlink:href="../../d3/d4f/mouse__coordinates_8cpp.html" target="_top" xlink:title=" ">
<polygon fill="white" stroke="black" points="2239,-67.5 2239,-97.5 2373,-97.5 2373,-67.5 2239,-67.5"/>
<text text-anchor="start" x="2247" y="-85.5" font-family="Helvetica,sans-Serif" font-size="10.00">src/libs/vwidgets/mouse</text>
<text text-anchor="middle" x="2306" y="-74.5" font-family="Helvetica,sans-Serif" font-size="10.00">_coordinates.cpp</text>
</a>
</g>
</g>
<!-- Node19&#45;&gt;Node44 -->
<g id="edge45" class="edge">
<title>Node19&#45;&gt;Node44</title>
<path fill="none" stroke="midnightblue" d="M3337.23,-150.19C3105.17,-141.67 2564.47,-120.11 2382,-98 2379.07,-97.64 2376.08,-97.24 2373.06,-96.81"/>
<polygon fill="midnightblue" stroke="midnightblue" points="3337.25,-153.69 3347.38,-150.56 3337.51,-146.69 3337.25,-153.69"/>
</g>
<!-- Node45 -->
<g id="node40" class="node">
<title>Node45</title>
<g id="a_node40"><a xlink:href="../../d7/d1b/pen__toolbar_8cpp.html" target="_top" xlink:title=" ">
<polygon fill="white" stroke="black" points="2391.5,-67.5 2391.5,-97.5 2510.5,-97.5 2510.5,-67.5 2391.5,-67.5"/>
<text text-anchor="start" x="2399.5" y="-85.5" font-family="Helvetica,sans-Serif" font-size="10.00">src/libs/vwidgets/pen</text>
<text text-anchor="middle" x="2451" y="-74.5" font-family="Helvetica,sans-Serif" font-size="10.00">_toolbar.cpp</text>
</a>
</g>
</g>
<!-- Node19&#45;&gt;Node45 -->
<g id="edge46" class="edge">
<title>Node19&#45;&gt;Node45</title>
<path fill="none" stroke="midnightblue" d="M3337.2,-152.59C3164.13,-149.18 2813.9,-137.56 2520,-98 2516.97,-97.59 2513.87,-97.12 2510.75,-96.61"/>
<polygon fill="midnightblue" stroke="midnightblue" points="3337.26,-156.09 3347.33,-152.79 3337.4,-149.1 3337.26,-156.09"/>
</g>
<!-- Node46 -->
<g id="node41" class="node">
<title>Node46</title>
<g id="a_node41"><a xlink:href="../../d8/d76/scene__rect_8cpp.html" target="_top" xlink:title=" ">
<polygon fill="white" stroke="black" points="2529,-67.5 2529,-97.5 2659,-97.5 2659,-67.5 2529,-67.5"/>
<text text-anchor="start" x="2537" y="-85.5" font-family="Helvetica,sans-Serif" font-size="10.00">src/libs/vwidgets/scene</text>
<text text-anchor="middle" x="2594" y="-74.5" font-family="Helvetica,sans-Serif" font-size="10.00">_rect.cpp</text>
</a>
</g>
</g>
<!-- Node19&#45;&gt;Node46 -->
<g id="edge47" class="edge">
<title>Node19&#45;&gt;Node46</title>
<path fill="none" stroke="midnightblue" d="M3337.24,-150.37C3186.84,-144.37 2905.68,-129.73 2668,-98 2665.15,-97.62 2662.23,-97.2 2659.3,-96.74"/>
<polygon fill="midnightblue" stroke="midnightblue" points="3337.27,-153.88 3347.4,-150.77 3337.55,-146.88 3337.27,-153.88"/>
</g>
<!-- Node47 -->
<g id="node42" class="node">
<title>Node47</title>
<g id="a_node42"><a xlink:href="../../dd/df6/vabstractmainwindow_8cpp.html" target="_top" xlink:title=" ">
<polygon fill="white" stroke="black" points="2677.5,-73 2677.5,-92 2906.5,-92 2906.5,-73 2677.5,-73"/>
<text text-anchor="middle" x="2792" y="-80" font-family="Helvetica,sans-Serif" font-size="10.00">src/libs/vwidgets/vabstractmainwindow.cpp</text>
</a>
</g>
</g>
<!-- Node19&#45;&gt;Node47 -->
<g id="edge48" class="edge">
<title>Node19&#45;&gt;Node47</title>
<path fill="none" stroke="midnightblue" d="M3351.41,-144.46C3245.48,-133.57 3067.77,-115.08 2915,-98 2898.12,-96.11 2879.94,-94.01 2862.88,-92"/>
<polygon fill="midnightblue" stroke="midnightblue" points="3351.13,-147.95 3361.43,-145.49 3351.84,-140.98 3351.13,-147.95"/>
</g>
<!-- Node48 -->
<g id="node43" class="node">
<title>Node48</title>
<g id="a_node43"><a xlink:href="../../de/d45/vcontrolpointspline_8cpp.html" target="_top" xlink:title=" ">
<polygon fill="white" stroke="black" points="2924.5,-73 2924.5,-92 3139.5,-92 3139.5,-73 2924.5,-73"/>
<text text-anchor="middle" x="3032" y="-80" font-family="Helvetica,sans-Serif" font-size="10.00">src/libs/vwidgets/vcontrolpointspline.cpp</text>
</a>
</g>
</g>
<!-- Node19&#45;&gt;Node48 -->
<g id="edge49" class="edge">
<title>Node19&#45;&gt;Node48</title>
<path fill="none" stroke="midnightblue" d="M3385.3,-143.81C3303.56,-129.86 3158.3,-105.06 3081.99,-92.03"/>
<polygon fill="midnightblue" stroke="midnightblue" points="3384.74,-147.26 3395.18,-145.5 3385.91,-140.36 3384.74,-147.26"/>
</g>
<!-- Node49 -->
<g id="node44" class="node">
<title>Node49</title>
<g id="a_node44"><a xlink:href="../../d1/d90/vgrainlineitem_8cpp.html" target="_top" xlink:title=" ">
<polygon fill="white" stroke="black" points="3157.5,-73 3157.5,-92 3350.5,-92 3350.5,-73 3157.5,-73"/>
<text text-anchor="middle" x="3254" y="-80" font-family="Helvetica,sans-Serif" font-size="10.00">src/libs/vwidgets/vgrainlineitem.cpp</text>
</a>
</g>
</g>
<!-- Node19&#45;&gt;Node49 -->
<g id="edge50" class="edge">
<title>Node19&#45;&gt;Node49</title>
<path fill="none" stroke="midnightblue" d="M3412.27,-141.92C3373.77,-127.71 3310.87,-104.49 3277.12,-92.03"/>
<polygon fill="midnightblue" stroke="midnightblue" points="3411.37,-145.32 3421.96,-145.5 3413.79,-138.75 3411.37,-145.32"/>
</g>
<!-- Node28&#45;&gt;Node29 -->
<g id="edge27" class="edge">
<title>Node28&#45;&gt;Node29</title>
<path fill="none" stroke="midnightblue" d="M4057.04,-67.09C3831.01,-38.15 3193.67,-21.96 3004.52,-17.66"/>
<polygon fill="midnightblue" stroke="midnightblue" points="4056.79,-70.59 4067.16,-68.44 4057.71,-63.65 4056.79,-70.59"/>
</g>
<!-- Node39&#45;&gt;Node40 -->
<g id="edge41" class="edge">
<title>Node39&#45;&gt;Node40</title>
<path fill="none" stroke="midnightblue" d="M5131.51,-63.68C5158.13,-53.26 5191.27,-40.28 5216.05,-30.58"/>
<polygon fill="midnightblue" stroke="midnightblue" points="5130.05,-60.49 5122.02,-67.4 5132.61,-67.01 5130.05,-60.49"/>
</g>
<!-- Node57&#45;&gt;Node2 -->
<g id="edge52" class="edge">
<title>Node57&#45;&gt;Node2</title>
<path fill="none" stroke="midnightblue" d="M5467.4,-138.03C5475.98,-136.45 5484.67,-135.04 5493,-134 5900.37,-83.1 6007.36,-137.36 6416,-98 6419.04,-97.71 6422.13,-97.38 6425.25,-97.03"/>
<polygon fill="midnightblue" stroke="midnightblue" points="5466.56,-134.63 5457.41,-139.96 5467.89,-141.5 5466.56,-134.63"/>
</g>
</g>
</svg>
