<?xml version="1.0" encoding="UTF-8" standalone="no"?>
<!DOCTYPE svg PUBLIC "-//W3C//DTD SVG 1.1//EN"
 "http://www.w3.org/Graphics/SVG/1.1/DTD/svg11.dtd">
<!-- Generated by graphviz version 2.43.0 (0)
 -->
<!-- Title: src/libs/vtools/visualization/path/vistoolcutsplinepath.h Pages: 1 -->
<svg width="503pt" height="128pt"
 viewBox="0.00 0.00 502.50 128.00" xmlns="http://www.w3.org/2000/svg" xmlns:xlink="http://www.w3.org/1999/xlink">
<g id="graph0" class="graph" transform="scale(1 1) rotate(0) translate(4 124)">
<title>src/libs/vtools/visualization/path/vistoolcutsplinepath.h</title>
<polygon fill="white" stroke="transparent" points="-4,4 -4,-124 498.5,-124 498.5,4 -4,4"/>
<!-- Node1 -->
<g id="node1" class="node">
<title>Node1</title>
<g id="a_node1"><a xlink:title=" ">
<polygon fill="#bfbfbf" stroke="black" points="170.5,-89.5 170.5,-119.5 322.5,-119.5 322.5,-89.5 170.5,-89.5"/>
<text text-anchor="start" x="178.5" y="-107.5" font-family="Helvetica,sans-Serif" font-size="10.00">src/libs/vtools/visualization</text>
<text text-anchor="middle" x="246.5" y="-96.5" font-family="Helvetica,sans-Serif" font-size="10.00">/path/vistoolcutsplinepath.h</text>
</a>
</g>
</g>
<!-- Node2 -->
<g id="node2" class="node">
<title>Node2</title>
<g id="a_node2"><a xlink:href="../../df/d30/dialogcutsplinepath_8cpp.html" target="_top" xlink:title=" ">
<polygon fill="white" stroke="black" points="0,-11.5 0,-41.5 163,-41.5 163,-11.5 0,-11.5"/>
<text text-anchor="start" x="8" y="-29.5" font-family="Helvetica,sans-Serif" font-size="10.00">src/libs/vtools/dialogs</text>
<text text-anchor="middle" x="81.5" y="-18.5" font-family="Helvetica,sans-Serif" font-size="10.00">/tools/dialogcutsplinepath.cpp</text>
</a>
</g>
</g>
<!-- Node1&#45;&gt;Node2 -->
<g id="edge1" class="edge">
<title>Node1&#45;&gt;Node2</title>
<path fill="none" stroke="midnightblue" d="M206.77,-85.2C177.64,-71.78 138.68,-53.84 111.98,-41.54"/>
<polygon fill="midnightblue" stroke="midnightblue" points="205.3,-88.38 215.85,-89.38 208.23,-82.02 205.3,-88.38"/>
</g>
<!-- Node3 -->
<g id="node3" class="node">
<title>Node3</title>
<g id="a_node3"><a xlink:href="../../d1/ddf/vtoolcutsplinepath_8cpp.html" target="_top" xlink:title=" ">
<polygon fill="white" stroke="black" points="181,-0.5 181,-52.5 312,-52.5 312,-0.5 181,-0.5"/>
<text text-anchor="start" x="189" y="-40.5" font-family="Helvetica,sans-Serif" font-size="10.00">src/libs/vtools/tools</text>
<text text-anchor="start" x="189" y="-29.5" font-family="Helvetica,sans-Serif" font-size="10.00">/drawTools/toolpoint</text>
<text text-anchor="start" x="189" y="-18.5" font-family="Helvetica,sans-Serif" font-size="10.00">/toolsinglepoint/toolcut</text>
<text text-anchor="middle" x="246.5" y="-7.5" font-family="Helvetica,sans-Serif" font-size="10.00">/vtoolcutsplinepath.cpp</text>
</a>
</g>
</g>
<!-- Node1&#45;&gt;Node3 -->
<g id="edge2" class="edge">
<title>Node1&#45;&gt;Node3</title>
<path fill="none" stroke="midnightblue" d="M246.5,-79.14C246.5,-70.63 246.5,-61.07 246.5,-52.5"/>
<polygon fill="midnightblue" stroke="midnightblue" points="243,-79.2 246.5,-89.2 250,-79.21 243,-79.2"/>
</g>
<!-- Node4 -->
<g id="node4" class="node">
<title>Node4</title>
<g id="a_node4"><a xlink:href="../../d7/d3d/vistoolcutsplinepath_8cpp.html" target="_top" xlink:title=" ">
<polygon fill="white" stroke="black" points="330.5,-11.5 330.5,-41.5 494.5,-41.5 494.5,-11.5 330.5,-11.5"/>
<text text-anchor="start" x="338.5" y="-29.5" font-family="Helvetica,sans-Serif" font-size="10.00">src/libs/vtools/visualization</text>
<text text-anchor="middle" x="412.5" y="-18.5" font-family="Helvetica,sans-Serif" font-size="10.00">/path/vistoolcutsplinepath.cpp</text>
</a>
</g>
</g>
<!-- Node1&#45;&gt;Node4 -->
<g id="edge3" class="edge">
<title>Node1&#45;&gt;Node4</title>
<path fill="none" stroke="midnightblue" d="M286.47,-85.2C315.78,-71.78 354.98,-53.84 381.83,-41.54"/>
<polygon fill="midnightblue" stroke="midnightblue" points="284.97,-82.04 277.33,-89.38 287.88,-88.4 284.97,-82.04"/>
</g>
</g>
</svg>
