<?xml version="1.0" encoding="UTF-8" standalone="no"?>
<!DOCTYPE svg PUBLIC "-//W3C//DTD SVG 1.1//EN"
 "http://www.w3.org/Graphics/SVG/1.1/DTD/svg11.dtd">
<!-- Generated by graphviz version 2.43.0 (0)
 -->
<!-- Title: src/libs/vwidgets/global.h Pages: 1 -->
<svg width="2423pt" height="95pt"
 viewBox="0.00 0.00 2423.00 95.00" xmlns="http://www.w3.org/2000/svg" xmlns:xlink="http://www.w3.org/1999/xlink">
<g id="graph0" class="graph" transform="scale(1 1) rotate(0) translate(4 91)">
<title>src/libs/vwidgets/global.h</title>
<polygon fill="white" stroke="transparent" points="-4,4 -4,-91 2419,-91 2419,4 -4,4"/>
<!-- Node1 -->
<g id="node1" class="node">
<title>Node1</title>
<g id="a_node1"><a xlink:title=" ">
<polygon fill="#bfbfbf" stroke="black" points="1020.5,-67.5 1020.5,-86.5 1160.5,-86.5 1160.5,-67.5 1020.5,-67.5"/>
<text text-anchor="middle" x="1090.5" y="-74.5" font-family="Helvetica,sans-Serif" font-size="10.00">src/libs/vwidgets/global.h</text>
</a>
</g>
</g>
<!-- Node2 -->
<g id="node2" class="node">
<title>Node2</title>
<g id="a_node2"><a xlink:href="../../df/d1e/image__item_8cpp.html" target="_top" xlink:title=" ">
<polygon fill="white" stroke="black" points="0,-0.5 0,-30.5 117,-30.5 117,-0.5 0,-0.5"/>
<text text-anchor="start" x="8" y="-18.5" font-family="Helvetica,sans-Serif" font-size="10.00">src/libs/tools/images</text>
<text text-anchor="middle" x="58.5" y="-7.5" font-family="Helvetica,sans-Serif" font-size="10.00">/image_item.cpp</text>
</a>
</g>
</g>
<!-- Node1&#45;&gt;Node2 -->
<g id="edge1" class="edge">
<title>Node1&#45;&gt;Node2</title>
<path fill="none" stroke="midnightblue" d="M1010.09,-76.76C844.04,-77.33 451.49,-73.57 125.5,-31 122.79,-30.65 120.02,-30.24 117.23,-29.79"/>
<polygon fill="midnightblue" stroke="midnightblue" points="1010.23,-80.26 1020.22,-76.72 1010.2,-73.26 1010.23,-80.26"/>
</g>
<!-- Node3 -->
<g id="node3" class="node">
<title>Node3</title>
<g id="a_node3"><a xlink:href="../../dd/d70/vlayoutpiece_8cpp.html" target="_top" xlink:title=" ">
<polygon fill="white" stroke="black" points="135,-6 135,-25 312,-25 312,-6 135,-6"/>
<text text-anchor="middle" x="223.5" y="-13" font-family="Helvetica,sans-Serif" font-size="10.00">src/libs/vlayout/vlayoutpiece.cpp</text>
</a>
</g>
</g>
<!-- Node1&#45;&gt;Node3 -->
<g id="edge2" class="edge">
<title>Node1&#45;&gt;Node3</title>
<path fill="none" stroke="midnightblue" d="M1010.13,-73.64C870,-69 571.98,-56.81 321.5,-31 306.44,-29.45 290.16,-27.25 275.27,-25.03"/>
<polygon fill="midnightblue" stroke="midnightblue" points="1010.24,-77.14 1020.35,-73.97 1010.47,-70.15 1010.24,-77.14"/>
</g>
<!-- Node4 -->
<g id="node4" class="node">
<title>Node4</title>
<g id="a_node4"><a xlink:href="../../db/d7d/global_8cpp.html" target="_top" xlink:title=" ">
<polygon fill="white" stroke="black" points="330.5,-6 330.5,-25 482.5,-25 482.5,-6 330.5,-6"/>
<text text-anchor="middle" x="406.5" y="-13" font-family="Helvetica,sans-Serif" font-size="10.00">src/libs/vwidgets/global.cpp</text>
</a>
</g>
</g>
<!-- Node1&#45;&gt;Node4 -->
<g id="edge3" class="edge">
<title>Node1&#45;&gt;Node4</title>
<path fill="none" stroke="midnightblue" d="M1010.06,-72.36C894.86,-66.61 676.38,-53.66 491.5,-31 478.57,-29.42 464.62,-27.23 451.82,-25.04"/>
<polygon fill="midnightblue" stroke="midnightblue" points="1010.04,-75.87 1020.2,-72.86 1010.39,-68.87 1010.04,-75.87"/>
</g>
<!-- Node5 -->
<g id="node5" class="node">
<title>Node5</title>
<g id="a_node5"><a xlink:href="../../d4/d50/scalesceneitems_8cpp.html" target="_top" xlink:title=" ">
<polygon fill="white" stroke="black" points="501,-6 501,-25 704,-25 704,-6 501,-6"/>
<text text-anchor="middle" x="602.5" y="-13" font-family="Helvetica,sans-Serif" font-size="10.00">src/libs/vwidgets/scalesceneitems.cpp</text>
</a>
</g>
</g>
<!-- Node1&#45;&gt;Node5 -->
<g id="edge4" class="edge">
<title>Node1&#45;&gt;Node5</title>
<path fill="none" stroke="midnightblue" d="M1010.27,-66.68C933.93,-57.76 815.85,-43.79 713.5,-31 698.36,-29.11 682.07,-27.01 666.76,-25.02"/>
<polygon fill="midnightblue" stroke="midnightblue" points="1009.96,-70.17 1020.29,-67.86 1010.77,-63.22 1009.96,-70.17"/>
</g>
<!-- Node6 -->
<g id="node6" class="node">
<title>Node6</title>
<g id="a_node6"><a xlink:href="../../d8/d76/scene__rect_8cpp.html" target="_top" xlink:title=" ">
<polygon fill="white" stroke="black" points="722.5,-0.5 722.5,-30.5 852.5,-30.5 852.5,-0.5 722.5,-0.5"/>
<text text-anchor="start" x="730.5" y="-18.5" font-family="Helvetica,sans-Serif" font-size="10.00">src/libs/vwidgets/scene</text>
<text text-anchor="middle" x="787.5" y="-7.5" font-family="Helvetica,sans-Serif" font-size="10.00">_rect.cpp</text>
</a>
</g>
</g>
<!-- Node1&#45;&gt;Node6 -->
<g id="edge5" class="edge">
<title>Node1&#45;&gt;Node6</title>
<path fill="none" stroke="midnightblue" d="M1037.16,-65.53C985.69,-55.42 907.68,-40.1 852.58,-29.28"/>
<polygon fill="midnightblue" stroke="midnightblue" points="1036.6,-68.98 1047.09,-67.48 1037.95,-62.11 1036.6,-68.98"/>
</g>
<!-- Node7 -->
<g id="node7" class="node">
<title>Node7</title>
<g id="a_node7"><a xlink:href="../../df/dcf/vcurvepathitem_8cpp.html" target="_top" xlink:title=" ">
<polygon fill="white" stroke="black" points="871,-6 871,-25 1070,-25 1070,-6 871,-6"/>
<text text-anchor="middle" x="970.5" y="-13" font-family="Helvetica,sans-Serif" font-size="10.00">src/libs/vwidgets/vcurvepathitem.cpp</text>
</a>
</g>
</g>
<!-- Node1&#45;&gt;Node7 -->
<g id="edge6" class="edge">
<title>Node1&#45;&gt;Node7</title>
<path fill="none" stroke="midnightblue" d="M1064.32,-63.02C1041.05,-51.48 1007.7,-34.94 987.66,-25.01"/>
<polygon fill="midnightblue" stroke="midnightblue" points="1062.79,-66.17 1073.31,-67.48 1065.9,-59.9 1062.79,-66.17"/>
</g>
<!-- Node8 -->
<g id="node8" class="node">
<title>Node8</title>
<g id="a_node8"><a xlink:href="../../de/dec/vgraphicssimpletextitem_8cpp.html" target="_top" xlink:title=" ">
<polygon fill="white" stroke="black" points="1088.5,-6 1088.5,-25 1332.5,-25 1332.5,-6 1088.5,-6"/>
<text text-anchor="middle" x="1210.5" y="-13" font-family="Helvetica,sans-Serif" font-size="10.00">src/libs/vwidgets/vgraphicssimpletextitem.cpp</text>
</a>
</g>
</g>
<!-- Node1&#45;&gt;Node8 -->
<g id="edge7" class="edge">
<title>Node1&#45;&gt;Node8</title>
<path fill="none" stroke="midnightblue" d="M1116.68,-63.02C1139.95,-51.48 1173.3,-34.94 1193.34,-25.01"/>
<polygon fill="midnightblue" stroke="midnightblue" points="1115.1,-59.9 1107.69,-67.48 1118.21,-66.17 1115.1,-59.9"/>
</g>
<!-- Node9 -->
<g id="node9" class="node">
<title>Node9</title>
<g id="a_node9"><a xlink:href="../../d1/d88/vmaingraphicsscene_8cpp.html" target="_top" xlink:title=" ">
<polygon fill="white" stroke="black" points="1350.5,-6 1350.5,-25 1572.5,-25 1572.5,-6 1350.5,-6"/>
<text text-anchor="middle" x="1461.5" y="-13" font-family="Helvetica,sans-Serif" font-size="10.00">src/libs/vwidgets/vmaingraphicsscene.cpp</text>
</a>
</g>
</g>
<!-- Node1&#45;&gt;Node9 -->
<g id="edge8" class="edge">
<title>Node1&#45;&gt;Node9</title>
<path fill="none" stroke="midnightblue" d="M1153.91,-65.83C1225.67,-54.32 1341.27,-35.78 1408.44,-25.01"/>
<polygon fill="midnightblue" stroke="midnightblue" points="1152.97,-62.44 1143.66,-67.48 1154.08,-69.35 1152.97,-62.44"/>
</g>
<!-- Node10 -->
<g id="node10" class="node">
<title>Node10</title>
<g id="a_node10"><a xlink:href="../../d0/d5d/vscenepoint_8cpp.html" target="_top" xlink:title=" ">
<polygon fill="white" stroke="black" points="1591,-6 1591,-25 1772,-25 1772,-6 1591,-6"/>
<text text-anchor="middle" x="1681.5" y="-13" font-family="Helvetica,sans-Serif" font-size="10.00">src/libs/vwidgets/vscenepoint.cpp</text>
</a>
</g>
</g>
<!-- Node1&#45;&gt;Node10 -->
<g id="edge9" class="edge">
<title>Node1&#45;&gt;Node10</title>
<path fill="none" stroke="midnightblue" d="M1170.6,-69.96C1267.92,-62.32 1437,-48.09 1581.5,-31 1596.05,-29.28 1611.74,-27.14 1626.29,-25.04"/>
<polygon fill="midnightblue" stroke="midnightblue" points="1170.24,-66.48 1160.55,-70.75 1170.79,-73.46 1170.24,-66.48"/>
</g>
<!-- Node11 -->
<g id="node11" class="node">
<title>Node11</title>
<g id="a_node11"><a xlink:href="../../de/d45/vcontrolpointspline_8cpp.html" target="_top" xlink:title=" ">
<polygon fill="white" stroke="black" points="1790,-6 1790,-25 2005,-25 2005,-6 1790,-6"/>
<text text-anchor="middle" x="1897.5" y="-13" font-family="Helvetica,sans-Serif" font-size="10.00">src/libs/vwidgets/vcontrolpointspline.cpp</text>
</a>
</g>
</g>
<!-- Node1&#45;&gt;Node11 -->
<g id="edge10" class="edge">
<title>Node1&#45;&gt;Node11</title>
<path fill="none" stroke="midnightblue" d="M1170.93,-72.31C1299.92,-66.05 1560.98,-51.94 1781.5,-31 1798.88,-29.35 1817.67,-27.17 1834.97,-25.01"/>
<polygon fill="midnightblue" stroke="midnightblue" points="1170.56,-68.83 1160.74,-72.8 1170.9,-75.82 1170.56,-68.83"/>
</g>
<!-- Node12 -->
<g id="node12" class="node">
<title>Node12</title>
<g id="a_node12"><a xlink:href="../../de/d22/vsimplecurve_8cpp.html" target="_top" xlink:title=" ">
<polygon fill="white" stroke="black" points="2023.5,-6 2023.5,-25 2211.5,-25 2211.5,-6 2023.5,-6"/>
<text text-anchor="middle" x="2117.5" y="-13" font-family="Helvetica,sans-Serif" font-size="10.00">src/libs/vwidgets/vsimplecurve.cpp</text>
</a>
</g>
</g>
<!-- Node1&#45;&gt;Node12 -->
<g id="edge11" class="edge">
<title>Node1&#45;&gt;Node12</title>
<path fill="none" stroke="midnightblue" d="M1171.06,-74.55C1331.78,-71.1 1703.54,-60.4 2014.5,-31 2030.5,-29.49 2047.82,-27.27 2063.62,-25.03"/>
<polygon fill="midnightblue" stroke="midnightblue" points="1170.71,-71.05 1160.78,-74.76 1170.86,-78.05 1170.71,-71.05"/>
</g>
<!-- Node13 -->
<g id="node13" class="node">
<title>Node13</title>
<g id="a_node13"><a xlink:href="../../df/d38/vsimplepoint_8cpp.html" target="_top" xlink:title=" ">
<polygon fill="white" stroke="black" points="2230,-6 2230,-25 2415,-25 2415,-6 2230,-6"/>
<text text-anchor="middle" x="2322.5" y="-13" font-family="Helvetica,sans-Serif" font-size="10.00">src/libs/vwidgets/vsimplepoint.cpp</text>
</a>
</g>
</g>
<!-- Node1&#45;&gt;Node13 -->
<g id="edge12" class="edge">
<title>Node1&#45;&gt;Node13</title>
<path fill="none" stroke="midnightblue" d="M1170.95,-75.59C1356.4,-74.05 1828.06,-66.62 2220.5,-31 2236.62,-29.54 2254.09,-27.3 2269.94,-25.01"/>
<polygon fill="midnightblue" stroke="midnightblue" points="1170.72,-72.1 1160.75,-75.68 1170.77,-79.09 1170.72,-72.1"/>
</g>
</g>
</svg>
