<?xml version="1.0" encoding="UTF-8" standalone="no"?>
<!DOCTYPE svg PUBLIC "-//W3C//DTD SVG 1.1//EN"
 "http://www.w3.org/Graphics/SVG/1.1/DTD/svg11.dtd">
<!-- Generated by graphviz version 2.43.0 (0)
 -->
<!-- Title: src/libs/vlayout/vbestsquare.cpp Pages: 1 -->
<svg width="333pt" height="140pt"
 viewBox="0.00 0.00 332.50 140.00" xmlns="http://www.w3.org/2000/svg" xmlns:xlink="http://www.w3.org/1999/xlink">
<g id="graph0" class="graph" transform="scale(1 1) rotate(0) translate(4 136)">
<title>src/libs/vlayout/vbestsquare.cpp</title>
<polygon fill="white" stroke="transparent" points="-4,4 -4,-136 328.5,-136 328.5,4 -4,4"/>
<!-- Node1 -->
<g id="node1" class="node">
<title>Node1</title>
<g id="a_node1"><a xlink:title=" ">
<polygon fill="#bfbfbf" stroke="black" points="0,-112.5 0,-131.5 174,-131.5 174,-112.5 0,-112.5"/>
<text text-anchor="middle" x="87" y="-119.5" font-family="Helvetica,sans-Serif" font-size="10.00">src/libs/vlayout/vbestsquare.cpp</text>
</a>
</g>
</g>
<!-- Node2 -->
<g id="node2" class="node">
<title>Node2</title>
<g id="a_node2"><a xlink:href="../../df/d35/vbestsquare_8h.html" target="_top" xlink:title=" ">
<polygon fill="white" stroke="black" points="84,-56.5 84,-75.5 170,-75.5 170,-56.5 84,-56.5"/>
<text text-anchor="middle" x="127" y="-63.5" font-family="Helvetica,sans-Serif" font-size="10.00">vbestsquare.h</text>
</a>
</g>
</g>
<!-- Node1&#45;&gt;Node2 -->
<g id="edge1" class="edge">
<title>Node1&#45;&gt;Node2</title>
<path fill="none" stroke="midnightblue" d="M93.61,-112.08C99.26,-104.46 107.54,-93.26 114.45,-83.94"/>
<polygon fill="midnightblue" stroke="midnightblue" points="117.38,-85.87 120.52,-75.75 111.75,-81.7 117.38,-85.87"/>
</g>
<!-- Node4 -->
<g id="node4" class="node">
<title>Node4</title>
<g id="a_node4"><a xlink:title=" ">
<polygon fill="white" stroke="#bfbfbf" points="10.5,-0.5 10.5,-19.5 83.5,-19.5 83.5,-0.5 10.5,-0.5"/>
<text text-anchor="middle" x="47" y="-7.5" font-family="Helvetica,sans-Serif" font-size="10.00">QTransform</text>
</a>
</g>
</g>
<!-- Node1&#45;&gt;Node4 -->
<g id="edge6" class="edge">
<title>Node1&#45;&gt;Node4</title>
<path fill="none" stroke="midnightblue" d="M83.86,-112.37C77.38,-94.54 62.38,-53.3 53.64,-29.27"/>
<polygon fill="midnightblue" stroke="midnightblue" points="56.83,-27.79 50.12,-19.59 50.25,-30.19 56.83,-27.79"/>
</g>
<!-- Node3 -->
<g id="node3" class="node">
<title>Node3</title>
<g id="a_node3"><a xlink:title=" ">
<polygon fill="white" stroke="#bfbfbf" points="102,-0.5 102,-19.5 152,-19.5 152,-0.5 102,-0.5"/>
<text text-anchor="middle" x="127" y="-7.5" font-family="Helvetica,sans-Serif" font-size="10.00">QSizeF</text>
</a>
</g>
</g>
<!-- Node2&#45;&gt;Node3 -->
<g id="edge2" class="edge">
<title>Node2&#45;&gt;Node3</title>
<path fill="none" stroke="midnightblue" d="M127,-56.08C127,-49.01 127,-38.86 127,-29.99"/>
<polygon fill="midnightblue" stroke="midnightblue" points="130.5,-29.75 127,-19.75 123.5,-29.75 130.5,-29.75"/>
</g>
<!-- Node2&#45;&gt;Node4 -->
<g id="edge3" class="edge">
<title>Node2&#45;&gt;Node4</title>
<path fill="none" stroke="midnightblue" d="M114.15,-56.32C101.78,-47.98 82.87,-35.21 68.26,-25.35"/>
<polygon fill="midnightblue" stroke="midnightblue" points="70.07,-22.35 59.82,-19.65 66.15,-28.15 70.07,-22.35"/>
</g>
<!-- Node5 -->
<g id="node5" class="node">
<title>Node5</title>
<g id="a_node5"><a xlink:title=" ">
<polygon fill="white" stroke="#bfbfbf" points="170.5,-0.5 170.5,-19.5 229.5,-19.5 229.5,-0.5 170.5,-0.5"/>
<text text-anchor="middle" x="200" y="-7.5" font-family="Helvetica,sans-Serif" font-size="10.00">QtGlobal</text>
</a>
</g>
</g>
<!-- Node2&#45;&gt;Node5 -->
<g id="edge4" class="edge">
<title>Node2&#45;&gt;Node5</title>
<path fill="none" stroke="midnightblue" d="M138.73,-56.32C149.84,-48.11 166.74,-35.6 179.98,-25.81"/>
<polygon fill="midnightblue" stroke="midnightblue" points="182.1,-28.59 188.06,-19.83 177.94,-22.97 182.1,-28.59"/>
</g>
<!-- Node6 -->
<g id="node6" class="node">
<title>Node6</title>
<g id="a_node6"><a xlink:href="../../dd/d4a/vlayoutdef_8h.html" target="_top" xlink:title=" ">
<polygon fill="white" stroke="black" points="247.5,-0.5 247.5,-19.5 324.5,-19.5 324.5,-0.5 247.5,-0.5"/>
<text text-anchor="middle" x="286" y="-7.5" font-family="Helvetica,sans-Serif" font-size="10.00">vlayoutdef.h</text>
</a>
</g>
</g>
<!-- Node2&#45;&gt;Node6 -->
<g id="edge5" class="edge">
<title>Node2&#45;&gt;Node6</title>
<path fill="none" stroke="midnightblue" d="M152.19,-56.44C178.94,-47.36 221.4,-32.94 251.31,-22.78"/>
<polygon fill="midnightblue" stroke="midnightblue" points="252.58,-26.05 260.92,-19.52 250.33,-19.42 252.58,-26.05"/>
</g>
</g>
</svg>
