<?xml version="1.0" encoding="UTF-8" standalone="no"?>
<!DOCTYPE svg PUBLIC "-//W3C//DTD SVG 1.1//EN"
 "http://www.w3.org/Graphics/SVG/1.1/DTD/svg11.dtd">
<!-- Generated by graphviz version 2.43.0 (0)
 -->
<!-- Title: src/libs/vtools/tools/nodeDetails/vabstractnode.h Pages: 1 -->
<svg width="2108pt" height="262pt"
 viewBox="0.00 0.00 2107.50 262.00" xmlns="http://www.w3.org/2000/svg" xmlns:xlink="http://www.w3.org/1999/xlink">
<g id="graph0" class="graph" transform="scale(1 1) rotate(0) translate(4 258)">
<title>src/libs/vtools/tools/nodeDetails/vabstractnode.h</title>
<polygon fill="white" stroke="transparent" points="-4,4 -4,-258 2103.5,-258 2103.5,4 -4,4"/>
<!-- Node1 -->
<g id="node1" class="node">
<title>Node1</title>
<g id="a_node1"><a xlink:title=" ">
<polygon fill="#bfbfbf" stroke="black" points="1418.5,-223.5 1418.5,-253.5 1578.5,-253.5 1578.5,-223.5 1418.5,-223.5"/>
<text text-anchor="start" x="1426.5" y="-241.5" font-family="Helvetica,sans-Serif" font-size="10.00">src/libs/vtools/tools</text>
<text text-anchor="middle" x="1498.5" y="-230.5" font-family="Helvetica,sans-Serif" font-size="10.00">/nodeDetails/vabstractnode.h</text>
</a>
</g>
</g>
<!-- Node2 -->
<g id="node2" class="node">
<title>Node2</title>
<g id="a_node2"><a xlink:href="../../de/d51/anchorpoint__tool_8h.html" target="_top" xlink:title=" ">
<polygon fill="white" stroke="black" points="367,-145.5 367,-186.5 506,-186.5 506,-145.5 367,-145.5"/>
<text text-anchor="start" x="375" y="-174.5" font-family="Helvetica,sans-Serif" font-size="10.00">src/libs/vtools/tools</text>
<text text-anchor="start" x="375" y="-163.5" font-family="Helvetica,sans-Serif" font-size="10.00">/nodeDetails/anchorpoint</text>
<text text-anchor="middle" x="436.5" y="-152.5" font-family="Helvetica,sans-Serif" font-size="10.00">_tool.h</text>
</a>
</g>
</g>
<!-- Node1&#45;&gt;Node2 -->
<g id="edge1" class="edge">
<title>Node1&#45;&gt;Node2</title>
<path fill="none" stroke="midnightblue" d="M1408.34,-235.14C1199.24,-229.29 686.12,-212.72 515.5,-187 512.42,-186.54 509.29,-186 506.14,-185.42"/>
<polygon fill="midnightblue" stroke="midnightblue" points="1408.27,-238.64 1418.37,-235.42 1408.47,-231.64 1408.27,-238.64"/>
</g>
<!-- Node9 -->
<g id="node9" class="node">
<title>Node9</title>
<g id="a_node9"><a xlink:href="../../d5/dcd/vabstractnode_8cpp.html" target="_top" xlink:title=" ">
<polygon fill="white" stroke="black" points="1775,-151 1775,-181 1946,-181 1946,-151 1775,-151"/>
<text text-anchor="start" x="1783" y="-169" font-family="Helvetica,sans-Serif" font-size="10.00">src/libs/vtools/tools</text>
<text text-anchor="middle" x="1860.5" y="-158" font-family="Helvetica,sans-Serif" font-size="10.00">/nodeDetails/vabstractnode.cpp</text>
</a>
</g>
</g>
<!-- Node1&#45;&gt;Node9 -->
<g id="edge8" class="edge">
<title>Node1&#45;&gt;Node9</title>
<path fill="none" stroke="midnightblue" d="M1582.01,-221.56C1633.49,-211.69 1700.84,-198.72 1760.5,-187 1770.23,-185.09 1780.49,-183.06 1790.58,-181.05"/>
<polygon fill="midnightblue" stroke="midnightblue" points="1581.1,-218.17 1571.93,-223.49 1582.41,-225.04 1581.1,-218.17"/>
</g>
<!-- Node10 -->
<g id="node10" class="node">
<title>Node10</title>
<g id="a_node10"><a xlink:href="../../d0/d43/vnodearc_8cpp.html" target="_top" xlink:title=" ">
<polygon fill="white" stroke="black" points="1953.5,-73 1953.5,-103 2099.5,-103 2099.5,-73 1953.5,-73"/>
<text text-anchor="start" x="1961.5" y="-91" font-family="Helvetica,sans-Serif" font-size="10.00">src/libs/vtools/tools</text>
<text text-anchor="middle" x="2026.5" y="-80" font-family="Helvetica,sans-Serif" font-size="10.00">/nodeDetails/vnodearc.cpp</text>
</a>
</g>
</g>
<!-- Node1&#45;&gt;Node10 -->
<g id="edge9" class="edge">
<title>Node1&#45;&gt;Node10</title>
<path fill="none" stroke="midnightblue" d="M1588.78,-223.82C1626.86,-216.03 1670.98,-204.27 1708.5,-187 1737.41,-173.69 1737.35,-157.78 1766.5,-145 1840.42,-112.59 1865.72,-126.57 1944.5,-109 1952.8,-107.15 1961.54,-105.11 1970.11,-103.07"/>
<polygon fill="midnightblue" stroke="midnightblue" points="1587.85,-220.44 1578.72,-225.82 1589.21,-227.3 1587.85,-220.44"/>
</g>
<!-- Node11 -->
<g id="node11" class="node">
<title>Node11</title>
<g id="a_node11"><a xlink:href="../../df/d98/vnodearc_8h.html" target="_top" xlink:title=" ">
<polygon fill="white" stroke="black" points="1431,-151 1431,-181 1566,-181 1566,-151 1431,-151"/>
<text text-anchor="start" x="1439" y="-169" font-family="Helvetica,sans-Serif" font-size="10.00">src/libs/vtools/tools</text>
<text text-anchor="middle" x="1498.5" y="-158" font-family="Helvetica,sans-Serif" font-size="10.00">/nodeDetails/vnodearc.h</text>
</a>
</g>
</g>
<!-- Node1&#45;&gt;Node11 -->
<g id="edge10" class="edge">
<title>Node1&#45;&gt;Node11</title>
<path fill="none" stroke="midnightblue" d="M1498.5,-213.23C1498.5,-202.57 1498.5,-190.41 1498.5,-181.25"/>
<polygon fill="midnightblue" stroke="midnightblue" points="1495,-213.23 1498.5,-223.23 1502,-213.23 1495,-213.23"/>
</g>
<!-- Node13 -->
<g id="node13" class="node">
<title>Node13</title>
<g id="a_node13"><a xlink:href="../../d3/d3a/vnodeellipticalarc_8cpp.html" target="_top" xlink:title=" ">
<polygon fill="white" stroke="black" points="1193.5,-73 1193.5,-103 1381.5,-103 1381.5,-73 1193.5,-73"/>
<text text-anchor="start" x="1201.5" y="-91" font-family="Helvetica,sans-Serif" font-size="10.00">src/libs/vtools/tools</text>
<text text-anchor="middle" x="1287.5" y="-80" font-family="Helvetica,sans-Serif" font-size="10.00">/nodeDetails/vnodeellipticalarc.cpp</text>
</a>
</g>
</g>
<!-- Node1&#45;&gt;Node13 -->
<g id="edge15" class="edge">
<title>Node1&#45;&gt;Node13</title>
<path fill="none" stroke="midnightblue" d="M1542.41,-218.46C1555.07,-210.65 1567.38,-200.27 1574.5,-187 1583.32,-170.55 1586.37,-159.41 1574.5,-145 1574.28,-144.74 1444.8,-119.55 1359.85,-103.05"/>
<polygon fill="midnightblue" stroke="midnightblue" points="1540.6,-215.46 1533.64,-223.45 1544.06,-221.54 1540.6,-215.46"/>
</g>
<!-- Node14 -->
<g id="node14" class="node">
<title>Node14</title>
<g id="a_node14"><a xlink:href="../../d5/df0/vnodepoint_8h.html" target="_top" xlink:title=" ">
<polygon fill="white" stroke="black" points="1268,-151 1268,-181 1413,-181 1413,-151 1268,-151"/>
<text text-anchor="start" x="1276" y="-169" font-family="Helvetica,sans-Serif" font-size="10.00">src/libs/vtools/tools</text>
<text text-anchor="middle" x="1340.5" y="-158" font-family="Helvetica,sans-Serif" font-size="10.00">/nodeDetails/vnodepoint.h</text>
</a>
</g>
</g>
<!-- Node1&#45;&gt;Node14 -->
<g id="edge16" class="edge">
<title>Node1&#45;&gt;Node14</title>
<path fill="none" stroke="midnightblue" d="M1457.46,-219.19C1430.8,-207.29 1396.57,-192.02 1372.04,-181.07"/>
<polygon fill="midnightblue" stroke="midnightblue" points="1456.35,-222.52 1466.91,-223.4 1459.2,-216.13 1456.35,-222.52"/>
</g>
<!-- Node15 -->
<g id="node15" class="node">
<title>Node15</title>
<g id="a_node15"><a xlink:href="../../d4/d7b/vnodepoint_8cpp.html" target="_top" xlink:title=" ">
<polygon fill="white" stroke="black" points="1779.5,-73 1779.5,-103 1935.5,-103 1935.5,-73 1779.5,-73"/>
<text text-anchor="start" x="1787.5" y="-91" font-family="Helvetica,sans-Serif" font-size="10.00">src/libs/vtools/tools</text>
<text text-anchor="middle" x="1857.5" y="-80" font-family="Helvetica,sans-Serif" font-size="10.00">/nodeDetails/vnodepoint.cpp</text>
</a>
</g>
</g>
<!-- Node1&#45;&gt;Node15 -->
<g id="edge33" class="edge">
<title>Node1&#45;&gt;Node15</title>
<path fill="none" stroke="midnightblue" d="M1561.13,-220.55C1590.57,-211.82 1625.85,-200.22 1656.5,-187 1691.94,-171.72 1697.97,-162.24 1732.5,-145 1763.03,-129.76 1798.61,-114.01 1823.99,-103.11"/>
<polygon fill="midnightblue" stroke="midnightblue" points="1560,-217.24 1551.39,-223.41 1561.97,-223.96 1560,-217.24"/>
</g>
<!-- Node16 -->
<g id="node16" class="node">
<title>Node16</title>
<g id="a_node16"><a xlink:href="../../df/d94/vnodespline_8cpp.html" target="_top" xlink:title=" ">
<polygon fill="white" stroke="black" points="1600,-73 1600,-103 1761,-103 1761,-73 1600,-73"/>
<text text-anchor="start" x="1608" y="-91" font-family="Helvetica,sans-Serif" font-size="10.00">src/libs/vtools/tools</text>
<text text-anchor="middle" x="1680.5" y="-80" font-family="Helvetica,sans-Serif" font-size="10.00">/nodeDetails/vnodespline.cpp</text>
</a>
</g>
</g>
<!-- Node1&#45;&gt;Node16 -->
<g id="edge21" class="edge">
<title>Node1&#45;&gt;Node16</title>
<path fill="none" stroke="midnightblue" d="M1567.65,-220.06C1588.26,-212.41 1609.78,-201.71 1626.5,-187 1652.9,-163.78 1668.96,-124.4 1676.11,-103.33"/>
<polygon fill="midnightblue" stroke="midnightblue" points="1566.23,-216.85 1557.95,-223.47 1568.55,-223.45 1566.23,-216.85"/>
</g>
<!-- Node17 -->
<g id="node17" class="node">
<title>Node17</title>
<g id="a_node17"><a xlink:href="../../df/d25/vnodeellipticalarc_8h.html" target="_top" xlink:title=" ">
<polygon fill="white" stroke="black" points="717,-151 717,-181 894,-181 894,-151 717,-151"/>
<text text-anchor="start" x="725" y="-169" font-family="Helvetica,sans-Serif" font-size="10.00">src/libs/vtools/tools</text>
<text text-anchor="middle" x="805.5" y="-158" font-family="Helvetica,sans-Serif" font-size="10.00">/nodeDetails/vnodeellipticalarc.h</text>
</a>
</g>
</g>
<!-- Node1&#45;&gt;Node17 -->
<g id="edge22" class="edge">
<title>Node1&#45;&gt;Node17</title>
<path fill="none" stroke="midnightblue" d="M1408.14,-233.19C1291.05,-226.84 1080.75,-212.83 902.5,-187 891.27,-185.37 879.38,-183.25 867.92,-181.01"/>
<polygon fill="midnightblue" stroke="midnightblue" points="1407.97,-236.69 1418.14,-233.73 1408.34,-229.7 1407.97,-236.69"/>
</g>
<!-- Node18 -->
<g id="node18" class="node">
<title>Node18</title>
<g id="a_node18"><a xlink:href="../../d2/dad/vnodesplinepath_8cpp.html" target="_top" xlink:title=" ">
<polygon fill="white" stroke="black" points="1399.5,-73 1399.5,-103 1581.5,-103 1581.5,-73 1399.5,-73"/>
<text text-anchor="start" x="1407.5" y="-91" font-family="Helvetica,sans-Serif" font-size="10.00">src/libs/vtools/tools</text>
<text text-anchor="middle" x="1490.5" y="-80" font-family="Helvetica,sans-Serif" font-size="10.00">/nodeDetails/vnodesplinepath.cpp</text>
</a>
</g>
</g>
<!-- Node1&#45;&gt;Node18 -->
<g id="edge27" class="edge">
<title>Node1&#45;&gt;Node18</title>
<path fill="none" stroke="midnightblue" d="M1568.79,-219.42C1584.45,-211.99 1599.16,-201.57 1608.5,-187 1618.58,-171.29 1618.48,-160.78 1608.5,-145 1595.59,-124.59 1573,-111.47 1551.02,-103.1"/>
<polygon fill="midnightblue" stroke="midnightblue" points="1567.27,-216.26 1559.49,-223.46 1570.06,-222.68 1567.27,-216.26"/>
</g>
<!-- Node19 -->
<g id="node19" class="node">
<title>Node19</title>
<g id="a_node19"><a xlink:href="../../df/d88/vnodesplinepath_8h.html" target="_top" xlink:title=" ">
<polygon fill="white" stroke="black" points="912,-151 912,-181 1083,-181 1083,-151 912,-151"/>
<text text-anchor="start" x="920" y="-169" font-family="Helvetica,sans-Serif" font-size="10.00">src/libs/vtools/tools</text>
<text text-anchor="middle" x="997.5" y="-158" font-family="Helvetica,sans-Serif" font-size="10.00">/nodeDetails/vnodesplinepath.h</text>
</a>
</g>
</g>
<!-- Node1&#45;&gt;Node19 -->
<g id="edge28" class="edge">
<title>Node1&#45;&gt;Node19</title>
<path fill="none" stroke="midnightblue" d="M1408.16,-228.55C1325.46,-219.82 1199.85,-205.21 1091.5,-187 1081.22,-185.27 1070.35,-183.19 1059.8,-181.04"/>
<polygon fill="midnightblue" stroke="midnightblue" points="1407.96,-232.05 1418.27,-229.61 1408.69,-225.09 1407.96,-232.05"/>
</g>
<!-- Node20 -->
<g id="node20" class="node">
<title>Node20</title>
<g id="a_node20"><a xlink:href="../../d5/d9d/vtoolinternalpath_8h.html" target="_top" xlink:title=" ">
<polygon fill="white" stroke="black" points="524.5,-151 524.5,-181 698.5,-181 698.5,-151 524.5,-151"/>
<text text-anchor="start" x="532.5" y="-169" font-family="Helvetica,sans-Serif" font-size="10.00">src/libs/vtools/tools</text>
<text text-anchor="middle" x="611.5" y="-158" font-family="Helvetica,sans-Serif" font-size="10.00">/nodeDetails/vtoolinternalpath.h</text>
</a>
</g>
</g>
<!-- Node1&#45;&gt;Node20 -->
<g id="edge34" class="edge">
<title>Node1&#45;&gt;Node20</title>
<path fill="none" stroke="midnightblue" d="M1408.07,-235.89C1260.71,-232.33 959.85,-221.17 707.5,-187 696.03,-185.45 683.88,-183.31 672.22,-181"/>
<polygon fill="midnightblue" stroke="midnightblue" points="1408.33,-239.39 1418.41,-236.13 1408.5,-232.4 1408.33,-239.39"/>
</g>
<!-- Node23 -->
<g id="node23" class="node">
<title>Node23</title>
<g id="a_node23"><a xlink:href="../../d0/dd2/vnodespline_8h.html" target="_top" xlink:title=" ">
<polygon fill="white" stroke="black" points="1101,-151 1101,-181 1250,-181 1250,-151 1101,-151"/>
<text text-anchor="start" x="1109" y="-169" font-family="Helvetica,sans-Serif" font-size="10.00">src/libs/vtools/tools</text>
<text text-anchor="middle" x="1175.5" y="-158" font-family="Helvetica,sans-Serif" font-size="10.00">/nodeDetails/vnodespline.h</text>
</a>
</g>
</g>
<!-- Node1&#45;&gt;Node23 -->
<g id="edge41" class="edge">
<title>Node1&#45;&gt;Node23</title>
<path fill="none" stroke="midnightblue" d="M1419.25,-221.43C1372.41,-211.78 1312,-199.07 1258.5,-187 1250.26,-185.14 1241.57,-183.12 1233.05,-181.1"/>
<polygon fill="midnightblue" stroke="midnightblue" points="1418.83,-224.91 1429.33,-223.5 1420.24,-218.06 1418.83,-224.91"/>
</g>
<!-- Node3 -->
<g id="node3" class="node">
<title>Node3</title>
<g id="a_node3"><a xlink:href="../../d8/dd9/mainwindow_8cpp.html" target="_top" xlink:title=" ">
<polygon fill="white" stroke="black" points="157.5,-78.5 157.5,-97.5 345.5,-97.5 345.5,-78.5 157.5,-78.5"/>
<text text-anchor="middle" x="251.5" y="-85.5" font-family="Helvetica,sans-Serif" font-size="10.00">src/app/seamly2d/mainwindow.cpp</text>
</a>
</g>
</g>
<!-- Node2&#45;&gt;Node3 -->
<g id="edge2" class="edge">
<title>Node2&#45;&gt;Node3</title>
<path fill="none" stroke="midnightblue" d="M379.34,-141.52C342.99,-126.59 298.08,-108.14 272.32,-97.55"/>
<polygon fill="midnightblue" stroke="midnightblue" points="378.28,-144.87 388.86,-145.43 380.94,-138.39 378.28,-144.87"/>
</g>
<!-- Node4 -->
<g id="node4" class="node">
<title>Node4</title>
<g id="a_node4"><a xlink:href="../../d9/d3a/anchorpoint__tool_8cpp.html" target="_top" xlink:title=" ">
<polygon fill="white" stroke="black" points="0,-67.5 0,-108.5 139,-108.5 139,-67.5 0,-67.5"/>
<text text-anchor="start" x="8" y="-96.5" font-family="Helvetica,sans-Serif" font-size="10.00">src/libs/vtools/tools</text>
<text text-anchor="start" x="8" y="-85.5" font-family="Helvetica,sans-Serif" font-size="10.00">/nodeDetails/anchorpoint</text>
<text text-anchor="middle" x="69.5" y="-74.5" font-family="Helvetica,sans-Serif" font-size="10.00">_tool.cpp</text>
</a>
</g>
</g>
<!-- Node2&#45;&gt;Node4 -->
<g id="edge3" class="edge">
<title>Node2&#45;&gt;Node4</title>
<path fill="none" stroke="midnightblue" d="M356.54,-150.69C298.61,-140.03 218.49,-124.65 148.5,-109 145.46,-108.32 142.36,-107.61 139.24,-106.88"/>
<polygon fill="midnightblue" stroke="midnightblue" points="356.26,-154.2 366.73,-152.56 357.53,-147.32 356.26,-154.2"/>
</g>
<!-- Node5 -->
<g id="node5" class="node">
<title>Node5</title>
<g id="a_node5"><a xlink:href="../../d5/dcf/nodedetails_8h.html" target="_top" xlink:title=" ">
<polygon fill="white" stroke="black" points="879,-73 879,-103 1026,-103 1026,-73 879,-73"/>
<text text-anchor="start" x="887" y="-91" font-family="Helvetica,sans-Serif" font-size="10.00">src/libs/vtools/tools</text>
<text text-anchor="middle" x="952.5" y="-80" font-family="Helvetica,sans-Serif" font-size="10.00">/nodeDetails/nodedetails.h</text>
</a>
</g>
</g>
<!-- Node2&#45;&gt;Node5 -->
<g id="edge4" class="edge">
<title>Node2&#45;&gt;Node5</title>
<path fill="none" stroke="midnightblue" d="M516.17,-145.03C673.02,-118.24 716.8,-135.04 869.5,-109 879,-107.38 889.02,-105.29 898.7,-103.08"/>
<polygon fill="midnightblue" stroke="midnightblue" points="515.42,-141.61 506.17,-146.77 516.62,-148.51 515.42,-141.61"/>
</g>
<!-- Node8 -->
<g id="node8" class="node">
<title>Node8</title>
<g id="a_node8"><a xlink:href="../../d4/d9f/union__tool_8cpp.html" target="_top" xlink:title=" ">
<polygon fill="white" stroke="black" points="750,-73 750,-103 861,-103 861,-73 750,-73"/>
<text text-anchor="start" x="758" y="-91" font-family="Helvetica,sans-Serif" font-size="10.00">src/libs/vtools/tools</text>
<text text-anchor="middle" x="805.5" y="-80" font-family="Helvetica,sans-Serif" font-size="10.00">/union_tool.cpp</text>
</a>
</g>
</g>
<!-- Node2&#45;&gt;Node8 -->
<g id="edge7" class="edge">
<title>Node2&#45;&gt;Node8</title>
<path fill="none" stroke="midnightblue" d="M516.15,-144.97C616.45,-124.99 644.94,-131.23 740.5,-109 747.74,-107.31 755.36,-105.25 762.73,-103.09"/>
<polygon fill="midnightblue" stroke="midnightblue" points="515.31,-141.57 506.21,-146.99 516.71,-148.43 515.31,-141.57"/>
</g>
<!-- Node6 -->
<g id="node6" class="node">
<title>Node6</title>
<g id="a_node6"><a xlink:href="../../d5/da5/tools_8h.html" target="_top" xlink:title=" ">
<polygon fill="white" stroke="black" points="832,-0.5 832,-30.5 943,-30.5 943,-0.5 832,-0.5"/>
<text text-anchor="start" x="840" y="-18.5" font-family="Helvetica,sans-Serif" font-size="10.00">src/libs/vtools/tools</text>
<text text-anchor="middle" x="887.5" y="-7.5" font-family="Helvetica,sans-Serif" font-size="10.00">/tools.h</text>
</a>
</g>
</g>
<!-- Node5&#45;&gt;Node6 -->
<g id="edge5" class="edge">
<title>Node5&#45;&gt;Node6</title>
<path fill="none" stroke="midnightblue" d="M932.55,-65.36C922.18,-54.11 909.79,-40.68 900.63,-30.75"/>
<polygon fill="midnightblue" stroke="midnightblue" points="929.99,-67.75 939.35,-72.73 935.14,-63.01 929.99,-67.75"/>
</g>
<!-- Node7 -->
<g id="node7" class="node">
<title>Node7</title>
<g id="a_node7"><a xlink:href="../../d9/d4e/vabstracttool_8cpp.html" target="_top" xlink:title=" ">
<polygon fill="white" stroke="black" points="961,-0.5 961,-30.5 1072,-30.5 1072,-0.5 961,-0.5"/>
<text text-anchor="start" x="969" y="-18.5" font-family="Helvetica,sans-Serif" font-size="10.00">src/libs/vtools/tools</text>
<text text-anchor="middle" x="1016.5" y="-7.5" font-family="Helvetica,sans-Serif" font-size="10.00">/vabstracttool.cpp</text>
</a>
</g>
</g>
<!-- Node5&#45;&gt;Node7 -->
<g id="edge6" class="edge">
<title>Node5&#45;&gt;Node7</title>
<path fill="none" stroke="midnightblue" d="M972.44,-65.04C982.59,-53.86 994.64,-40.58 1003.57,-30.75"/>
<polygon fill="midnightblue" stroke="midnightblue" points="969.58,-62.98 965.45,-72.73 974.76,-67.68 969.58,-62.98"/>
</g>
<!-- Node11&#45;&gt;Node5 -->
<g id="edge12" class="edge">
<title>Node11&#45;&gt;Node5</title>
<path fill="none" stroke="midnightblue" d="M1439.13,-148.56C1433.2,-147.23 1427.25,-146.01 1421.5,-145 1251.35,-115.19 1204.87,-137.54 1034.5,-109 1024.96,-107.4 1014.89,-105.3 1005.2,-103.06"/>
<polygon fill="midnightblue" stroke="midnightblue" points="1438.52,-152.01 1449.05,-150.9 1440.12,-145.2 1438.52,-152.01"/>
</g>
<!-- Node11&#45;&gt;Node8 -->
<g id="edge14" class="edge">
<title>Node11&#45;&gt;Node8</title>
<path fill="none" stroke="midnightblue" d="M1440.15,-148.61C1433.89,-147.23 1427.59,-145.98 1421.5,-145 1178.77,-105.92 1111.2,-153.98 869.5,-109 861.6,-107.53 853.31,-105.4 845.42,-103.07"/>
<polygon fill="midnightblue" stroke="midnightblue" points="1439.38,-152.03 1449.91,-150.9 1440.97,-145.21 1439.38,-152.03"/>
</g>
<!-- Node11&#45;&gt;Node10 -->
<g id="edge11" class="edge">
<title>Node11&#45;&gt;Node10</title>
<path fill="none" stroke="midnightblue" d="M1576.16,-157.97C1665.47,-149.25 1816.28,-132.61 1944.5,-109 1953.72,-107.3 1963.46,-105.2 1972.88,-103.01"/>
<polygon fill="midnightblue" stroke="midnightblue" points="1575.73,-154.49 1566.12,-158.94 1576.41,-161.46 1575.73,-154.49"/>
</g>
<!-- Node12 -->
<g id="node12" class="node">
<title>Node12</title>
<g id="a_node12"><a xlink:href="../../d8/dea/pattern__piece__tool_8cpp.html" target="_top" xlink:title=" ">
<polygon fill="white" stroke="black" points="1044,-73 1044,-103 1175,-103 1175,-73 1044,-73"/>
<text text-anchor="start" x="1052" y="-91" font-family="Helvetica,sans-Serif" font-size="10.00">src/libs/vtools/tools</text>
<text text-anchor="middle" x="1109.5" y="-80" font-family="Helvetica,sans-Serif" font-size="10.00">/pattern_piece_tool.cpp</text>
</a>
</g>
</g>
<!-- Node11&#45;&gt;Node12 -->
<g id="edge13" class="edge">
<title>Node11&#45;&gt;Node12</title>
<path fill="none" stroke="midnightblue" d="M1437.59,-148.56C1432.16,-147.28 1426.74,-146.08 1421.5,-145 1317.13,-123.58 1288.8,-130.76 1184.5,-109 1176.19,-107.27 1167.43,-105.17 1158.94,-103.01"/>
<polygon fill="midnightblue" stroke="midnightblue" points="1436.77,-151.96 1447.31,-150.92 1438.42,-145.16 1436.77,-151.96"/>
</g>
<!-- Node14&#45;&gt;Node5 -->
<g id="edge17" class="edge">
<title>Node14&#45;&gt;Node5</title>
<path fill="none" stroke="midnightblue" d="M1275.74,-148.7C1269.92,-147.39 1264.11,-146.13 1258.5,-145 1159.66,-125.04 1133.34,-128.96 1034.5,-109 1025.74,-107.23 1016.5,-105.17 1007.5,-103.05"/>
<polygon fill="midnightblue" stroke="midnightblue" points="1274.97,-152.11 1285.5,-150.95 1276.54,-145.29 1274.97,-152.11"/>
</g>
<!-- Node14&#45;&gt;Node8 -->
<g id="edge20" class="edge">
<title>Node14&#45;&gt;Node8</title>
<path fill="none" stroke="midnightblue" d="M1277.71,-148.69C1271.25,-147.31 1264.76,-146.05 1258.5,-145 1087.25,-116.35 1039.75,-143.08 869.5,-109 861.74,-107.45 853.58,-105.31 845.79,-103"/>
<polygon fill="midnightblue" stroke="midnightblue" points="1277.28,-152.18 1287.8,-150.94 1278.8,-145.35 1277.28,-152.18"/>
</g>
<!-- Node14&#45;&gt;Node12 -->
<g id="edge19" class="edge">
<title>Node14&#45;&gt;Node12</title>
<path fill="none" stroke="midnightblue" d="M1288.3,-147.83C1247.23,-134.31 1190.7,-115.72 1152.28,-103.07"/>
<polygon fill="midnightblue" stroke="midnightblue" points="1287.27,-151.17 1297.86,-150.97 1289.46,-144.52 1287.27,-151.17"/>
</g>
<!-- Node14&#45;&gt;Node15 -->
<g id="edge18" class="edge">
<title>Node14&#45;&gt;Node15</title>
<path fill="none" stroke="midnightblue" d="M1402.82,-148.69C1409.11,-147.32 1415.41,-146.06 1421.5,-145 1575.12,-118.25 1616.67,-134.52 1770.5,-109 1780.44,-107.35 1790.94,-105.25 1801.07,-103.03"/>
<polygon fill="midnightblue" stroke="midnightblue" points="1401.98,-145.29 1393,-150.91 1403.52,-152.12 1401.98,-145.29"/>
</g>
<!-- Node17&#45;&gt;Node5 -->
<g id="edge23" class="edge">
<title>Node17&#45;&gt;Node5</title>
<path fill="none" stroke="midnightblue" d="M841.91,-146.17C867.75,-132.82 901.87,-115.18 925.34,-103.04"/>
<polygon fill="midnightblue" stroke="midnightblue" points="840.08,-143.18 832.81,-150.88 843.3,-149.4 840.08,-143.18"/>
</g>
<!-- Node17&#45;&gt;Node8 -->
<g id="edge26" class="edge">
<title>Node17&#45;&gt;Node8</title>
<path fill="none" stroke="midnightblue" d="M805.5,-140.59C805.5,-128.26 805.5,-113.72 805.5,-103.23"/>
<polygon fill="midnightblue" stroke="midnightblue" points="802,-140.7 805.5,-150.7 809,-140.71 802,-140.7"/>
</g>
<!-- Node17&#45;&gt;Node12 -->
<g id="edge25" class="edge">
<title>Node17&#45;&gt;Node12</title>
<path fill="none" stroke="midnightblue" d="M874.18,-148.6C919.71,-137.63 980.75,-122.74 1034.5,-109 1041.94,-107.1 1049.79,-105.05 1057.49,-103.02"/>
<polygon fill="midnightblue" stroke="midnightblue" points="873.32,-145.21 864.42,-150.95 874.96,-152.01 873.32,-145.21"/>
</g>
<!-- Node17&#45;&gt;Node13 -->
<g id="edge24" class="edge">
<title>Node17&#45;&gt;Node13</title>
<path fill="none" stroke="midnightblue" d="M880.01,-149.04C887.59,-147.6 895.19,-146.22 902.5,-145 1026.69,-124.27 1059.17,-128.9 1183.5,-109 1194.57,-107.23 1206.28,-105.16 1217.68,-103.05"/>
<polygon fill="midnightblue" stroke="midnightblue" points="879.22,-145.63 870.07,-150.97 880.56,-152.5 879.22,-145.63"/>
</g>
<!-- Node19&#45;&gt;Node5 -->
<g id="edge29" class="edge">
<title>Node19&#45;&gt;Node5</title>
<path fill="none" stroke="midnightblue" d="M983.93,-142.07C976.44,-129.44 967.39,-114.15 960.93,-103.23"/>
<polygon fill="midnightblue" stroke="midnightblue" points="980.93,-143.88 989.04,-150.7 986.95,-140.32 980.93,-143.88"/>
</g>
<!-- Node19&#45;&gt;Node8 -->
<g id="edge32" class="edge">
<title>Node19&#45;&gt;Node8</title>
<path fill="none" stroke="midnightblue" d="M952.14,-147.05C918.16,-133.59 872.3,-115.44 840.97,-103.04"/>
<polygon fill="midnightblue" stroke="midnightblue" points="951.25,-150.46 961.84,-150.88 953.83,-143.95 951.25,-150.46"/>
</g>
<!-- Node19&#45;&gt;Node12 -->
<g id="edge31" class="edge">
<title>Node19&#45;&gt;Node12</title>
<path fill="none" stroke="midnightblue" d="M1026.81,-145.11C1046.29,-131.89 1071.4,-114.86 1088.81,-103.04"/>
<polygon fill="midnightblue" stroke="midnightblue" points="1024.61,-142.37 1018.3,-150.88 1028.54,-148.16 1024.61,-142.37"/>
</g>
<!-- Node19&#45;&gt;Node18 -->
<g id="edge30" class="edge">
<title>Node19&#45;&gt;Node18</title>
<path fill="none" stroke="midnightblue" d="M1069.58,-148.98C1076.96,-147.54 1084.37,-146.19 1091.5,-145 1223.54,-123.05 1258.33,-130.14 1390.5,-109 1401.43,-107.25 1412.98,-105.17 1424.2,-103.01"/>
<polygon fill="midnightblue" stroke="midnightblue" points="1068.67,-145.59 1059.54,-150.98 1070.03,-152.46 1068.67,-145.59"/>
</g>
<!-- Node20&#45;&gt;Node3 -->
<g id="edge35" class="edge">
<title>Node20&#45;&gt;Node3</title>
<path fill="none" stroke="midnightblue" d="M535.26,-148.9C460.89,-133.21 350.64,-109.93 291.86,-97.52"/>
<polygon fill="midnightblue" stroke="midnightblue" points="534.54,-152.33 545.05,-150.97 535.99,-145.48 534.54,-152.33"/>
</g>
<!-- Node20&#45;&gt;Node5 -->
<g id="edge36" class="edge">
<title>Node20&#45;&gt;Node5</title>
<path fill="none" stroke="midnightblue" d="M688.17,-148.83C739.55,-137.89 808.66,-122.93 869.5,-109 877.74,-107.11 886.42,-105.08 894.94,-103.05"/>
<polygon fill="midnightblue" stroke="midnightblue" points="687.2,-145.46 678.14,-150.97 688.65,-152.31 687.2,-145.46"/>
</g>
<!-- Node20&#45;&gt;Node8 -->
<g id="edge39" class="edge">
<title>Node20&#45;&gt;Node8</title>
<path fill="none" stroke="midnightblue" d="M656.89,-147.22C691.27,-133.75 737.87,-115.5 769.66,-103.04"/>
<polygon fill="midnightblue" stroke="midnightblue" points="655.57,-143.98 647.54,-150.88 658.12,-150.49 655.57,-143.98"/>
</g>
<!-- Node20&#45;&gt;Node12 -->
<g id="edge38" class="edge">
<title>Node20&#45;&gt;Node12</title>
<path fill="none" stroke="midnightblue" d="M684.67,-149C692.36,-147.55 700.08,-146.18 707.5,-145 851.9,-122.06 890.79,-135.91 1034.5,-109 1043.11,-107.39 1052.18,-105.3 1060.93,-103.09"/>
<polygon fill="midnightblue" stroke="midnightblue" points="683.75,-145.61 674.6,-150.96 685.08,-152.49 683.75,-145.61"/>
</g>
<!-- Node21 -->
<g id="node21" class="node">
<title>Node21</title>
<g id="a_node21"><a xlink:href="../../d3/dd9/vtoolinternalpath_8cpp.html" target="_top" xlink:title=" ">
<polygon fill="white" stroke="black" points="364,-73 364,-103 549,-103 549,-73 364,-73"/>
<text text-anchor="start" x="372" y="-91" font-family="Helvetica,sans-Serif" font-size="10.00">src/libs/vtools/tools</text>
<text text-anchor="middle" x="456.5" y="-80" font-family="Helvetica,sans-Serif" font-size="10.00">/nodeDetails/vtoolinternalpath.cpp</text>
</a>
</g>
</g>
<!-- Node20&#45;&gt;Node21 -->
<g id="edge37" class="edge">
<title>Node20&#45;&gt;Node21</title>
<path fill="none" stroke="midnightblue" d="M573.46,-146.35C546.18,-132.97 509.99,-115.23 485.14,-103.04"/>
<polygon fill="midnightblue" stroke="midnightblue" points="572.19,-149.62 582.71,-150.88 575.27,-143.34 572.19,-149.62"/>
</g>
<!-- Node22 -->
<g id="node22" class="node">
<title>Node22</title>
<g id="a_node22"><a xlink:href="../../dd/d3a/savepiecepathoptions_8cpp.html" target="_top" xlink:title=" ">
<polygon fill="white" stroke="black" points="567,-73 567,-103 732,-103 732,-73 567,-73"/>
<text text-anchor="start" x="575" y="-91" font-family="Helvetica,sans-Serif" font-size="10.00">src/libs/vtools/undocommands</text>
<text text-anchor="middle" x="649.5" y="-80" font-family="Helvetica,sans-Serif" font-size="10.00">/savepiecepathoptions.cpp</text>
</a>
</g>
</g>
<!-- Node20&#45;&gt;Node22 -->
<g id="edge40" class="edge">
<title>Node20&#45;&gt;Node22</title>
<path fill="none" stroke="midnightblue" d="M623.15,-141.7C629.43,-129.14 636.98,-114.04 642.38,-103.23"/>
<polygon fill="midnightblue" stroke="midnightblue" points="619.99,-140.2 618.65,-150.7 626.25,-143.33 619.99,-140.2"/>
</g>
<!-- Node23&#45;&gt;Node5 -->
<g id="edge42" class="edge">
<title>Node23&#45;&gt;Node5</title>
<path fill="none" stroke="midnightblue" d="M1124.86,-147.74C1085.23,-134.23 1030.81,-115.69 993.8,-103.07"/>
<polygon fill="midnightblue" stroke="midnightblue" points="1123.74,-151.06 1134.34,-150.97 1126,-144.43 1123.74,-151.06"/>
</g>
<!-- Node23&#45;&gt;Node8 -->
<g id="edge45" class="edge">
<title>Node23&#45;&gt;Node8</title>
<path fill="none" stroke="midnightblue" d="M1109.15,-148.73C1103.19,-147.41 1097.24,-146.15 1091.5,-145 993.48,-125.41 966.78,-131.97 869.5,-109 862.36,-107.32 854.86,-105.25 847.61,-103.09"/>
<polygon fill="midnightblue" stroke="midnightblue" points="1108.62,-152.2 1119.14,-150.98 1110.16,-145.37 1108.62,-152.2"/>
</g>
<!-- Node23&#45;&gt;Node12 -->
<g id="edge44" class="edge">
<title>Node23&#45;&gt;Node12</title>
<path fill="none" stroke="midnightblue" d="M1156.23,-142.81C1145.13,-130.03 1131.52,-114.36 1121.86,-103.23"/>
<polygon fill="midnightblue" stroke="midnightblue" points="1153.89,-145.45 1163.09,-150.7 1159.17,-140.86 1153.89,-145.45"/>
</g>
<!-- Node23&#45;&gt;Node16 -->
<g id="edge43" class="edge">
<title>Node23&#45;&gt;Node16</title>
<path fill="none" stroke="midnightblue" d="M1239.38,-148.74C1245.81,-147.36 1252.27,-146.08 1258.5,-145 1404.72,-119.56 1444.06,-133.14 1590.5,-109 1600.61,-107.33 1611.29,-105.25 1621.62,-103.06"/>
<polygon fill="midnightblue" stroke="midnightblue" points="1238.32,-145.39 1229.31,-150.97 1239.83,-152.22 1238.32,-145.39"/>
</g>
</g>
</svg>
