<?xml version="1.0" encoding="UTF-8" standalone="no"?>
<!DOCTYPE svg PUBLIC "-//W3C//DTD SVG 1.1//EN"
 "http://www.w3.org/Graphics/SVG/1.1/DTD/svg11.dtd">
<!-- Generated by graphviz version 2.43.0 (0)
 -->
<!-- Title: src/libs/vtools/tools/nodeDetails/vabstractnode.h Pages: 1 -->
<!--zoomable 262 -->
<svg id="main" version="1.1" xmlns="http://www.w3.org/2000/svg" xmlns:xlink="http://www.w3.org/1999/xlink" xml:space="preserve" onload="init(evt)">
<style type="text/css"><![CDATA[
.edge:hover path { stroke: red; }
.edge:hover polygon { stroke: red; fill: red; }
]]></style>
<script type="text/javascript"><![CDATA[
var edges = document.getElementsByTagName('g');
if (edges && edges.length) {
  for (var i=0;i<edges.length;i++) {
    if (edges[i].id.substr(0,4)=='edge') {
      edges[i].setAttribute('class','edge');
    }
  }
}
]]></script>
        <defs>
                <circle id="rim" cx="0" cy="0" r="7"/>
                <circle id="rim2" cx="0" cy="0" r="3.5"/>
                <g id="zoomPlus">
                        <use xlink:href="#rim" fill="#404040">
                                <set attributeName="fill" to="#808080" begin="zoomplus.mouseover" end="zoomplus.mouseout"/>
                        </use>
                        <path d="M-4,0h8M0,-4v8" fill="none" stroke="white" stroke-width="1.5" pointer-events="none"/>
                </g>
                <g id="zoomMin">
                        <use xlink:href="#rim" fill="#404040">
                                <set attributeName="fill" to="#808080" begin="zoomminus.mouseover" end="zoomminus.mouseout"/>
                        </use>
                        <path d="M-4,0h8" fill="none" stroke="white" stroke-width="1.5" pointer-events="none"/>
                </g>
                <g id="dirArrow">
                        <path fill="none" stroke="white" stroke-width="1.5" d="M0,-3.0v7 M-2.5,-0.5L0,-3.0L2.5,-0.5"/>
                </g>
               <g id="resetDef">
                       <use xlink:href="#rim2" fill="#404040">
                               <set attributeName="fill" to="#808080" begin="reset.mouseover" end="reset.mouseout"/>
                       </use>
               </g>
        </defs>

<script type="text/javascript">
var viewWidth = 2108;
var viewHeight = 262;
var sectionId = 'dynsection-1';
</script>
<script xlink:href="../../svgpan.js"/>
<svg id="graph" class="graph">
<g id="viewport">
<title>src/libs/vtools/tools/nodeDetails/vabstractnode.h</title>
<polygon fill="white" stroke="transparent" points="-4,4 -4,-258 2103.5,-258 2103.5,4 -4,4"/>
<!-- Node1 -->
<g id="node1" class="node">
<title>Node1</title>
<g id="a_node1"><a xlink:title=" ">
<polygon fill="#bfbfbf" stroke="black" points="1237.5,-223.5 1237.5,-253.5 1397.5,-253.5 1397.5,-223.5 1237.5,-223.5"/>
<text text-anchor="start" x="1245.5" y="-241.5" font-family="Helvetica,sans-Serif" font-size="10.00">src/libs/vtools/tools</text>
<text text-anchor="middle" x="1317.5" y="-230.5" font-family="Helvetica,sans-Serif" font-size="10.00">/nodeDetails/vabstractnode.h</text>
</a>
</g>
</g>
<!-- Node2 -->
<g id="node2" class="node">
<title>Node2</title>
<g id="a_node2"><a xlink:href="../../de/d51/anchorpoint__tool_8h.html" target="_top" xlink:title=" ">
<polygon fill="white" stroke="black" points="516,-145.5 516,-186.5 655,-186.5 655,-145.5 516,-145.5"/>
<text text-anchor="start" x="524" y="-174.5" font-family="Helvetica,sans-Serif" font-size="10.00">src/libs/vtools/tools</text>
<text text-anchor="start" x="524" y="-163.5" font-family="Helvetica,sans-Serif" font-size="10.00">/nodeDetails/anchorpoint</text>
<text text-anchor="middle" x="585.5" y="-152.5" font-family="Helvetica,sans-Serif" font-size="10.00">_tool.h</text>
</a>
</g>
</g>
<!-- Node1&#45;&gt;Node2 -->
<g id="edge1" class="edge">
<title>Node1&#45;&gt;Node2</title>
<path fill="none" stroke="midnightblue" d="M1227.28,-235.39C1100.75,-231.32 863.74,-219.68 664.5,-187 661.43,-186.5 658.3,-185.93 655.15,-185.32"/>
<polygon fill="midnightblue" stroke="midnightblue" points="1227.21,-238.89 1237.31,-235.7 1227.43,-231.89 1227.21,-238.89"/>
</g>
<!-- Node9 -->
<g id="node9" class="node">
<title>Node9</title>
<g id="a_node9"><a xlink:href="../../df/d98/vnodearc_8h.html" target="_top" xlink:title=" ">
<polygon fill="white" stroke="black" points="1250,-151 1250,-181 1385,-181 1385,-151 1250,-151"/>
<text text-anchor="start" x="1258" y="-169" font-family="Helvetica,sans-Serif" font-size="10.00">src/libs/vtools/tools</text>
<text text-anchor="middle" x="1317.5" y="-158" font-family="Helvetica,sans-Serif" font-size="10.00">/nodeDetails/vnodearc.h</text>
</a>
</g>
</g>
<!-- Node1&#45;&gt;Node9 -->
<g id="edge8" class="edge">
<title>Node1&#45;&gt;Node9</title>
<path fill="none" stroke="midnightblue" d="M1317.5,-213.23C1317.5,-202.57 1317.5,-190.41 1317.5,-181.25"/>
<polygon fill="midnightblue" stroke="midnightblue" points="1314,-213.23 1317.5,-223.23 1321,-213.23 1314,-213.23"/>
</g>
<!-- Node10 -->
<g id="node10" class="node">
<title>Node10</title>
<g id="a_node10"><a xlink:href="../../d0/d43/vnodearc_8cpp.html" target="_top" xlink:title=" ">
<polygon fill="white" stroke="black" points="363.5,-73 363.5,-103 509.5,-103 509.5,-73 363.5,-73"/>
<text text-anchor="start" x="371.5" y="-91" font-family="Helvetica,sans-Serif" font-size="10.00">src/libs/vtools/tools</text>
<text text-anchor="middle" x="436.5" y="-80" font-family="Helvetica,sans-Serif" font-size="10.00">/nodeDetails/vnodearc.cpp</text>
</a>
</g>
</g>
<!-- Node1&#45;&gt;Node10 -->
<g id="edge13" class="edge">
<title>Node1&#45;&gt;Node10</title>
<path fill="none" stroke="midnightblue" d="M1227.1,-236.18C1028.99,-232.68 569.23,-220.97 507.5,-187 473.45,-168.26 451.53,-125.43 442,-103.11"/>
<polygon fill="midnightblue" stroke="midnightblue" points="1227.14,-239.69 1237.2,-236.36 1227.26,-232.69 1227.14,-239.69"/>
</g>
<!-- Node12 -->
<g id="node12" class="node">
<title>Node12</title>
<g id="a_node12"><a xlink:href="../../d3/d3a/vnodeellipticalarc_8cpp.html" target="_top" xlink:title=" ">
<polygon fill="white" stroke="black" points="157.5,-73 157.5,-103 345.5,-103 345.5,-73 157.5,-73"/>
<text text-anchor="start" x="165.5" y="-91" font-family="Helvetica,sans-Serif" font-size="10.00">src/libs/vtools/tools</text>
<text text-anchor="middle" x="251.5" y="-80" font-family="Helvetica,sans-Serif" font-size="10.00">/nodeDetails/vnodeellipticalarc.cpp</text>
</a>
</g>
</g>
<!-- Node1&#45;&gt;Node12 -->
<g id="edge14" class="edge">
<title>Node1&#45;&gt;Node12</title>
<path fill="none" stroke="midnightblue" d="M1227.19,-236.46C1037.69,-233.57 604.28,-223.12 461.5,-187 389.15,-168.7 311.39,-125.46 274.05,-103.04"/>
<polygon fill="midnightblue" stroke="midnightblue" points="1227.35,-239.96 1237.4,-236.61 1227.45,-232.96 1227.35,-239.96"/>
</g>
<!-- Node13 -->
<g id="node13" class="node">
<title>Node13</title>
<g id="a_node13"><a xlink:href="../../d5/dcd/vabstractnode_8cpp.html" target="_top" xlink:title=" ">
<polygon fill="white" stroke="black" points="866,-151 866,-181 1037,-181 1037,-151 866,-151"/>
<text text-anchor="start" x="874" y="-169" font-family="Helvetica,sans-Serif" font-size="10.00">src/libs/vtools/tools</text>
<text text-anchor="middle" x="951.5" y="-158" font-family="Helvetica,sans-Serif" font-size="10.00">/nodeDetails/vabstractnode.cpp</text>
</a>
</g>
</g>
<!-- Node1&#45;&gt;Node13 -->
<g id="edge15" class="edge">
<title>Node1&#45;&gt;Node13</title>
<path fill="none" stroke="midnightblue" d="M1229.38,-221.61C1176.33,-211.92 1107.47,-199.1 1046.5,-187 1036.99,-185.11 1026.97,-183.07 1017.13,-181.02"/>
<polygon fill="midnightblue" stroke="midnightblue" points="1228.97,-225.1 1239.43,-223.45 1230.22,-218.21 1228.97,-225.1"/>
</g>
<!-- Node14 -->
<g id="node14" class="node">
<title>Node14</title>
<g id="a_node14"><a xlink:href="../../df/d25/vnodeellipticalarc_8h.html" target="_top" xlink:title=" ">
<polygon fill="white" stroke="black" points="1055,-151 1055,-181 1232,-181 1232,-151 1055,-151"/>
<text text-anchor="start" x="1063" y="-169" font-family="Helvetica,sans-Serif" font-size="10.00">src/libs/vtools/tools</text>
<text text-anchor="middle" x="1143.5" y="-158" font-family="Helvetica,sans-Serif" font-size="10.00">/nodeDetails/vnodeellipticalarc.h</text>
</a>
</g>
</g>
<!-- Node1&#45;&gt;Node14 -->
<g id="edge16" class="edge">
<title>Node1&#45;&gt;Node14</title>
<path fill="none" stroke="midnightblue" d="M1273.07,-219.5C1243.6,-207.56 1205.48,-192.11 1178.23,-181.07"/>
<polygon fill="midnightblue" stroke="midnightblue" points="1272.12,-222.89 1282.71,-223.4 1274.75,-216.4 1272.12,-222.89"/>
</g>
<!-- Node15 -->
<g id="node15" class="node">
<title>Node15</title>
<g id="a_node15"><a xlink:href="../../d0/dd2/vnodespline_8h.html" target="_top" xlink:title=" ">
<polygon fill="white" stroke="black" points="1566,-151 1566,-181 1715,-181 1715,-151 1566,-151"/>
<text text-anchor="start" x="1574" y="-169" font-family="Helvetica,sans-Serif" font-size="10.00">src/libs/vtools/tools</text>
<text text-anchor="middle" x="1640.5" y="-158" font-family="Helvetica,sans-Serif" font-size="10.00">/nodeDetails/vnodespline.h</text>
</a>
</g>
</g>
<!-- Node1&#45;&gt;Node15 -->
<g id="edge21" class="edge">
<title>Node1&#45;&gt;Node15</title>
<path fill="none" stroke="midnightblue" d="M1396.75,-221.43C1443.59,-211.78 1504,-199.07 1557.5,-187 1565.74,-185.14 1574.43,-183.12 1582.95,-181.1"/>
<polygon fill="midnightblue" stroke="midnightblue" points="1395.76,-218.06 1386.67,-223.5 1397.17,-224.91 1395.76,-218.06"/>
</g>
<!-- Node16 -->
<g id="node16" class="node">
<title>Node16</title>
<g id="a_node16"><a xlink:href="../../df/d94/vnodespline_8cpp.html" target="_top" xlink:title=" ">
<polygon fill="white" stroke="black" points="1738,-73 1738,-103 1899,-103 1899,-73 1738,-73"/>
<text text-anchor="start" x="1746" y="-91" font-family="Helvetica,sans-Serif" font-size="10.00">src/libs/vtools/tools</text>
<text text-anchor="middle" x="1818.5" y="-80" font-family="Helvetica,sans-Serif" font-size="10.00">/nodeDetails/vnodespline.cpp</text>
</a>
</g>
</g>
<!-- Node1&#45;&gt;Node16 -->
<g id="edge26" class="edge">
<title>Node1&#45;&gt;Node16</title>
<path fill="none" stroke="midnightblue" d="M1407.91,-236.84C1572.82,-234.7 1908.89,-225.59 1944.5,-187 1957.16,-173.28 1954.67,-160.65 1944.5,-145 1931.13,-124.43 1908.27,-111.35 1885.66,-103.07"/>
<polygon fill="midnightblue" stroke="midnightblue" points="1407.73,-233.35 1397.78,-236.97 1407.82,-240.35 1407.73,-233.35"/>
</g>
<!-- Node17 -->
<g id="node17" class="node">
<title>Node17</title>
<g id="a_node17"><a xlink:href="../../d5/df0/vnodepoint_8h.html" target="_top" xlink:title=" ">
<polygon fill="white" stroke="black" points="1403,-151 1403,-181 1548,-181 1548,-151 1403,-151"/>
<text text-anchor="start" x="1411" y="-169" font-family="Helvetica,sans-Serif" font-size="10.00">src/libs/vtools/tools</text>
<text text-anchor="middle" x="1475.5" y="-158" font-family="Helvetica,sans-Serif" font-size="10.00">/nodeDetails/vnodepoint.h</text>
</a>
</g>
</g>
<!-- Node1&#45;&gt;Node17 -->
<g id="edge27" class="edge">
<title>Node1&#45;&gt;Node17</title>
<path fill="none" stroke="midnightblue" d="M1358.54,-219.19C1385.2,-207.29 1419.43,-192.02 1443.96,-181.07"/>
<polygon fill="midnightblue" stroke="midnightblue" points="1356.8,-216.13 1349.09,-223.4 1359.65,-222.52 1356.8,-216.13"/>
</g>
<!-- Node18 -->
<g id="node18" class="node">
<title>Node18</title>
<g id="a_node18"><a xlink:href="../../d4/d7b/vnodepoint_8cpp.html" target="_top" xlink:title=" ">
<polygon fill="white" stroke="black" points="1563.5,-73 1563.5,-103 1719.5,-103 1719.5,-73 1563.5,-73"/>
<text text-anchor="start" x="1571.5" y="-91" font-family="Helvetica,sans-Serif" font-size="10.00">src/libs/vtools/tools</text>
<text text-anchor="middle" x="1641.5" y="-80" font-family="Helvetica,sans-Serif" font-size="10.00">/nodeDetails/vnodepoint.cpp</text>
</a>
</g>
</g>
<!-- Node1&#45;&gt;Node18 -->
<g id="edge32" class="edge">
<title>Node1&#45;&gt;Node18</title>
<path fill="none" stroke="midnightblue" d="M1407.85,-236.43C1566.13,-233.61 1880.03,-223.43 1913.5,-187 2021.41,-69.56 1947.58,-155.1 1729.5,-109 1720.61,-107.12 1711.23,-105.07 1702.04,-103.01"/>
<polygon fill="midnightblue" stroke="midnightblue" points="1407.59,-232.93 1397.65,-236.6 1407.71,-239.93 1407.59,-232.93"/>
</g>
<!-- Node19 -->
<g id="node19" class="node">
<title>Node19</title>
<g id="a_node19"><a xlink:href="../../d2/dad/vnodesplinepath_8cpp.html" target="_top" xlink:title=" ">
<polygon fill="white" stroke="black" points="1917.5,-73 1917.5,-103 2099.5,-103 2099.5,-73 1917.5,-73"/>
<text text-anchor="start" x="1925.5" y="-91" font-family="Helvetica,sans-Serif" font-size="10.00">src/libs/vtools/tools</text>
<text text-anchor="middle" x="2008.5" y="-80" font-family="Helvetica,sans-Serif" font-size="10.00">/nodeDetails/vnodesplinepath.cpp</text>
</a>
</g>
</g>
<!-- Node1&#45;&gt;Node19 -->
<g id="edge33" class="edge">
<title>Node1&#45;&gt;Node19</title>
<path fill="none" stroke="midnightblue" d="M1407.78,-235.42C1574.54,-230.85 1917.96,-217.8 1962.5,-187 1990.94,-167.33 2002.26,-125.31 2006.38,-103.23"/>
<polygon fill="midnightblue" stroke="midnightblue" points="1407.45,-231.93 1397.55,-235.69 1407.64,-238.92 1407.45,-231.93"/>
</g>
<!-- Node20 -->
<g id="node20" class="node">
<title>Node20</title>
<g id="a_node20"><a xlink:href="../../df/d88/vnodesplinepath_8h.html" target="_top" xlink:title=" ">
<polygon fill="white" stroke="black" points="1733,-151 1733,-181 1904,-181 1904,-151 1733,-151"/>
<text text-anchor="start" x="1741" y="-169" font-family="Helvetica,sans-Serif" font-size="10.00">src/libs/vtools/tools</text>
<text text-anchor="middle" x="1818.5" y="-158" font-family="Helvetica,sans-Serif" font-size="10.00">/nodeDetails/vnodesplinepath.h</text>
</a>
</g>
</g>
<!-- Node1&#45;&gt;Node20 -->
<g id="edge34" class="edge">
<title>Node1&#45;&gt;Node20</title>
<path fill="none" stroke="midnightblue" d="M1407.84,-228.55C1490.54,-219.82 1616.15,-205.21 1724.5,-187 1734.78,-185.27 1745.65,-183.19 1756.2,-181.04"/>
<polygon fill="midnightblue" stroke="midnightblue" points="1407.31,-225.09 1397.73,-229.61 1408.04,-232.05 1407.31,-225.09"/>
</g>
<!-- Node21 -->
<g id="node21" class="node">
<title>Node21</title>
<g id="a_node21"><a xlink:href="../../d5/d9d/vtoolinternalpath_8h.html" target="_top" xlink:title=" ">
<polygon fill="white" stroke="black" points="673.5,-151 673.5,-181 847.5,-181 847.5,-151 673.5,-151"/>
<text text-anchor="start" x="681.5" y="-169" font-family="Helvetica,sans-Serif" font-size="10.00">src/libs/vtools/tools</text>
<text text-anchor="middle" x="760.5" y="-158" font-family="Helvetica,sans-Serif" font-size="10.00">/nodeDetails/vtoolinternalpath.h</text>
</a>
</g>
</g>
<!-- Node1&#45;&gt;Node21 -->
<g id="edge39" class="edge">
<title>Node1&#45;&gt;Node21</title>
<path fill="none" stroke="midnightblue" d="M1227.2,-230.11C1134.21,-221.92 985.24,-207.14 857.5,-187 846.71,-185.3 835.31,-183.21 824.26,-181.04"/>
<polygon fill="midnightblue" stroke="midnightblue" points="1227.15,-233.62 1237.42,-231.01 1227.76,-226.65 1227.15,-233.62"/>
</g>
<!-- Node3 -->
<g id="node3" class="node">
<title>Node3</title>
<g id="a_node3"><a xlink:href="../../d8/dd9/mainwindow_8cpp.html" target="_top" xlink:title=" ">
<polygon fill="white" stroke="black" points="527.5,-78.5 527.5,-97.5 715.5,-97.5 715.5,-78.5 527.5,-78.5"/>
<text text-anchor="middle" x="621.5" y="-85.5" font-family="Helvetica,sans-Serif" font-size="10.00">src/app/seamly2d/mainwindow.cpp</text>
</a>
</g>
</g>
<!-- Node2&#45;&gt;Node3 -->
<g id="edge2" class="edge">
<title>Node2&#45;&gt;Node3</title>
<path fill="none" stroke="midnightblue" d="M599.12,-136.25C605.66,-122.45 613.01,-106.92 617.45,-97.55"/>
<polygon fill="midnightblue" stroke="midnightblue" points="595.89,-134.89 594.77,-145.43 602.21,-137.89 595.89,-134.89"/>
</g>
<!-- Node4 -->
<g id="node4" class="node">
<title>Node4</title>
<g id="a_node4"><a xlink:href="../../d9/d3a/anchorpoint__tool_8cpp.html" target="_top" xlink:title=" ">
<polygon fill="white" stroke="black" points="0,-67.5 0,-108.5 139,-108.5 139,-67.5 0,-67.5"/>
<text text-anchor="start" x="8" y="-96.5" font-family="Helvetica,sans-Serif" font-size="10.00">src/libs/vtools/tools</text>
<text text-anchor="start" x="8" y="-85.5" font-family="Helvetica,sans-Serif" font-size="10.00">/nodeDetails/anchorpoint</text>
<text text-anchor="middle" x="69.5" y="-74.5" font-family="Helvetica,sans-Serif" font-size="10.00">_tool.cpp</text>
</a>
</g>
</g>
<!-- Node2&#45;&gt;Node4 -->
<g id="edge3" class="edge">
<title>Node2&#45;&gt;Node4</title>
<path fill="none" stroke="midnightblue" d="M505.67,-157.69C417.71,-148.95 272.28,-132.51 148.5,-109 145.44,-108.42 142.33,-107.79 139.19,-107.13"/>
<polygon fill="midnightblue" stroke="midnightblue" points="505.55,-161.19 515.84,-158.69 506.23,-154.23 505.55,-161.19"/>
</g>
<!-- Node5 -->
<g id="node5" class="node">
<title>Node5</title>
<g id="a_node5"><a xlink:href="../../d5/dcf/nodedetails_8h.html" target="_top" xlink:title=" ">
<polygon fill="white" stroke="black" points="1249,-73 1249,-103 1396,-103 1396,-73 1249,-73"/>
<text text-anchor="start" x="1257" y="-91" font-family="Helvetica,sans-Serif" font-size="10.00">src/libs/vtools/tools</text>
<text text-anchor="middle" x="1322.5" y="-80" font-family="Helvetica,sans-Serif" font-size="10.00">/nodeDetails/nodedetails.h</text>
</a>
</g>
</g>
<!-- Node2&#45;&gt;Node5 -->
<g id="edge4" class="edge">
<title>Node2&#45;&gt;Node5</title>
<path fill="none" stroke="midnightblue" d="M665.06,-145.09C919.7,-106.41 990.13,-147.05 1240.5,-109 1250.35,-107.5 1260.75,-105.39 1270.72,-103.09"/>
<polygon fill="midnightblue" stroke="midnightblue" points="664.49,-141.64 655.14,-146.62 665.56,-148.56 664.49,-141.64"/>
</g>
<!-- Node8 -->
<g id="node8" class="node">
<title>Node8</title>
<g id="a_node8"><a xlink:href="../../d4/d9f/union__tool_8cpp.html" target="_top" xlink:title=" ">
<polygon fill="white" stroke="black" points="1120,-73 1120,-103 1231,-103 1231,-73 1120,-73"/>
<text text-anchor="start" x="1128" y="-91" font-family="Helvetica,sans-Serif" font-size="10.00">src/libs/vtools/tools</text>
<text text-anchor="middle" x="1175.5" y="-80" font-family="Helvetica,sans-Serif" font-size="10.00">/union_tool.cpp</text>
</a>
</g>
</g>
<!-- Node2&#45;&gt;Node8 -->
<g id="edge7" class="edge">
<title>Node2&#45;&gt;Node8</title>
<path fill="none" stroke="midnightblue" d="M665.29,-145.04C862.99,-113.55 919.09,-146.33 1111.5,-109 1119.27,-107.49 1127.43,-105.37 1135.22,-103.08"/>
<polygon fill="midnightblue" stroke="midnightblue" points="664.46,-141.63 655.15,-146.69 665.59,-148.54 664.46,-141.63"/>
</g>
<!-- Node6 -->
<g id="node6" class="node">
<title>Node6</title>
<g id="a_node6"><a xlink:href="../../d5/da5/tools_8h.html" target="_top" xlink:title=" ">
<polygon fill="white" stroke="black" points="1202,-0.5 1202,-30.5 1313,-30.5 1313,-0.5 1202,-0.5"/>
<text text-anchor="start" x="1210" y="-18.5" font-family="Helvetica,sans-Serif" font-size="10.00">src/libs/vtools/tools</text>
<text text-anchor="middle" x="1257.5" y="-7.5" font-family="Helvetica,sans-Serif" font-size="10.00">/tools.h</text>
</a>
</g>
</g>
<!-- Node5&#45;&gt;Node6 -->
<g id="edge5" class="edge">
<title>Node5&#45;&gt;Node6</title>
<path fill="none" stroke="midnightblue" d="M1302.55,-65.36C1292.18,-54.11 1279.79,-40.68 1270.63,-30.75"/>
<polygon fill="midnightblue" stroke="midnightblue" points="1299.99,-67.75 1309.35,-72.73 1305.14,-63.01 1299.99,-67.75"/>
</g>
<!-- Node7 -->
<g id="node7" class="node">
<title>Node7</title>
<g id="a_node7"><a xlink:href="../../d9/d4e/vabstracttool_8cpp.html" target="_top" xlink:title=" ">
<polygon fill="white" stroke="black" points="1331,-0.5 1331,-30.5 1442,-30.5 1442,-0.5 1331,-0.5"/>
<text text-anchor="start" x="1339" y="-18.5" font-family="Helvetica,sans-Serif" font-size="10.00">src/libs/vtools/tools</text>
<text text-anchor="middle" x="1386.5" y="-7.5" font-family="Helvetica,sans-Serif" font-size="10.00">/vabstracttool.cpp</text>
</a>
</g>
</g>
<!-- Node5&#45;&gt;Node7 -->
<g id="edge6" class="edge">
<title>Node5&#45;&gt;Node7</title>
<path fill="none" stroke="midnightblue" d="M1342.44,-65.04C1352.59,-53.86 1364.64,-40.58 1373.57,-30.75"/>
<polygon fill="midnightblue" stroke="midnightblue" points="1339.58,-62.98 1335.45,-72.73 1344.76,-67.68 1339.58,-62.98"/>
</g>
<!-- Node9&#45;&gt;Node5 -->
<g id="edge10" class="edge">
<title>Node9&#45;&gt;Node5</title>
<path fill="none" stroke="midnightblue" d="M1319.11,-140.59C1319.92,-128.26 1320.87,-113.72 1321.56,-103.23"/>
<polygon fill="midnightblue" stroke="midnightblue" points="1315.6,-140.5 1318.44,-150.7 1322.59,-140.96 1315.6,-140.5"/>
</g>
<!-- Node9&#45;&gt;Node8 -->
<g id="edge12" class="edge">
<title>Node9&#45;&gt;Node8</title>
<path fill="none" stroke="midnightblue" d="M1282,-146C1257.08,-132.66 1224.31,-115.12 1201.74,-103.04"/>
<polygon fill="midnightblue" stroke="midnightblue" points="1280.66,-149.25 1291.12,-150.88 1283.96,-143.08 1280.66,-149.25"/>
</g>
<!-- Node9&#45;&gt;Node10 -->
<g id="edge9" class="edge">
<title>Node9&#45;&gt;Node10</title>
<path fill="none" stroke="midnightblue" d="M1260.47,-148.64C1254.11,-147.22 1247.69,-145.96 1241.5,-145 923.55,-95.8 836.88,-155.33 518.5,-109 508.49,-107.54 497.93,-105.42 487.82,-103.09"/>
<polygon fill="midnightblue" stroke="midnightblue" points="1259.85,-152.09 1270.39,-150.98 1261.46,-145.27 1259.85,-152.09"/>
</g>
<!-- Node11 -->
<g id="node11" class="node">
<title>Node11</title>
<g id="a_node11"><a xlink:href="../../d8/dea/pattern__piece__tool_8cpp.html" target="_top" xlink:title=" ">
<polygon fill="white" stroke="black" points="1414,-73 1414,-103 1545,-103 1545,-73 1414,-73"/>
<text text-anchor="start" x="1422" y="-91" font-family="Helvetica,sans-Serif" font-size="10.00">src/libs/vtools/tools</text>
<text text-anchor="middle" x="1479.5" y="-80" font-family="Helvetica,sans-Serif" font-size="10.00">/pattern_piece_tool.cpp</text>
</a>
</g>
</g>
<!-- Node9&#45;&gt;Node11 -->
<g id="edge11" class="edge">
<title>Node9&#45;&gt;Node11</title>
<path fill="none" stroke="midnightblue" d="M1356.88,-146.52C1385.44,-133.13 1423.48,-115.28 1449.57,-103.04"/>
<polygon fill="midnightblue" stroke="midnightblue" points="1355.16,-143.47 1347.59,-150.88 1358.13,-149.8 1355.16,-143.47"/>
</g>
<!-- Node14&#45;&gt;Node5 -->
<g id="edge17" class="edge">
<title>Node14&#45;&gt;Node5</title>
<path fill="none" stroke="midnightblue" d="M1186.19,-146.87C1217.84,-133.44 1260.35,-115.39 1289.43,-103.04"/>
<polygon fill="midnightblue" stroke="midnightblue" points="1184.59,-143.75 1176.75,-150.88 1187.32,-150.2 1184.59,-143.75"/>
</g>
<!-- Node14&#45;&gt;Node8 -->
<g id="edge20" class="edge">
<title>Node14&#45;&gt;Node8</title>
<path fill="none" stroke="midnightblue" d="M1153.46,-141.33C1158.72,-128.85 1165,-113.94 1169.51,-103.23"/>
<polygon fill="midnightblue" stroke="midnightblue" points="1150.17,-140.13 1149.52,-150.7 1156.63,-142.85 1150.17,-140.13"/>
</g>
<!-- Node14&#45;&gt;Node11 -->
<g id="edge19" class="edge">
<title>Node14&#45;&gt;Node11</title>
<path fill="none" stroke="midnightblue" d="M1221.23,-148.86C1285.36,-135.46 1371.17,-117.3 1405.5,-109 1413.13,-107.15 1421.18,-105.1 1429.04,-103.02"/>
<polygon fill="midnightblue" stroke="midnightblue" points="1220.21,-145.5 1211.14,-150.97 1221.64,-152.35 1220.21,-145.5"/>
</g>
<!-- Node14&#45;&gt;Node12 -->
<g id="edge18" class="edge">
<title>Node14&#45;&gt;Node12</title>
<path fill="none" stroke="midnightblue" d="M1072.79,-149.13C1063.97,-147.53 1055.05,-146.1 1046.5,-145 741.03,-105.79 660.19,-146.44 354.5,-109 342.11,-107.48 328.98,-105.35 316.39,-103.03"/>
<polygon fill="midnightblue" stroke="midnightblue" points="1072.2,-152.58 1082.68,-150.99 1073.5,-145.7 1072.2,-152.58"/>
</g>
<!-- Node15&#45;&gt;Node5 -->
<g id="edge22" class="edge">
<title>Node15&#45;&gt;Node5</title>
<path fill="none" stroke="midnightblue" d="M1572.62,-148.62C1567.5,-147.39 1562.42,-146.18 1557.5,-145 1489.98,-128.87 1473.02,-125.13 1405.5,-109 1397.43,-107.07 1388.91,-105.03 1380.54,-103.02"/>
<polygon fill="midnightblue" stroke="midnightblue" points="1571.92,-152.05 1582.46,-150.98 1573.55,-145.25 1571.92,-152.05"/>
</g>
<!-- Node15&#45;&gt;Node8 -->
<g id="edge25" class="edge">
<title>Node15&#45;&gt;Node8</title>
<path fill="none" stroke="midnightblue" d="M1576.32,-148.71C1569.98,-147.35 1563.63,-146.08 1557.5,-145 1417.87,-120.34 1379.3,-137.97 1240.5,-109 1232.87,-107.41 1224.86,-105.31 1217.16,-103.07"/>
<polygon fill="midnightblue" stroke="midnightblue" points="1575.71,-152.16 1586.23,-150.91 1577.23,-145.32 1575.71,-152.16"/>
</g>
<!-- Node15&#45;&gt;Node11 -->
<g id="edge24" class="edge">
<title>Node15&#45;&gt;Node11</title>
<path fill="none" stroke="midnightblue" d="M1601.36,-146.52C1572.98,-133.13 1535.18,-115.28 1509.25,-103.04"/>
<polygon fill="midnightblue" stroke="midnightblue" points="1600.06,-149.78 1610.59,-150.88 1603.05,-143.45 1600.06,-149.78"/>
</g>
<!-- Node15&#45;&gt;Node16 -->
<g id="edge23" class="edge">
<title>Node15&#45;&gt;Node16</title>
<path fill="none" stroke="midnightblue" d="M1682.96,-146.87C1714.42,-133.44 1756.69,-115.39 1785.61,-103.04"/>
<polygon fill="midnightblue" stroke="midnightblue" points="1681.39,-143.74 1673.56,-150.88 1684.13,-150.18 1681.39,-143.74"/>
</g>
<!-- Node17&#45;&gt;Node5 -->
<g id="edge28" class="edge">
<title>Node17&#45;&gt;Node5</title>
<path fill="none" stroke="midnightblue" d="M1437.95,-146.35C1411.02,-132.97 1375.3,-115.23 1350.77,-103.04"/>
<polygon fill="midnightblue" stroke="midnightblue" points="1436.57,-149.57 1447.08,-150.88 1439.68,-143.3 1436.57,-149.57"/>
</g>
<!-- Node17&#45;&gt;Node8 -->
<g id="edge31" class="edge">
<title>Node17&#45;&gt;Node8</title>
<path fill="none" stroke="midnightblue" d="M1408.88,-148.48C1404.02,-147.3 1399.18,-146.13 1394.5,-145 1326.16,-128.57 1308.35,-127.35 1240.5,-109 1233.78,-107.18 1226.7,-105.14 1219.79,-103.07"/>
<polygon fill="midnightblue" stroke="midnightblue" points="1408.33,-151.95 1418.87,-150.92 1409.99,-145.15 1408.33,-151.95"/>
</g>
<!-- Node17&#45;&gt;Node11 -->
<g id="edge30" class="edge">
<title>Node17&#45;&gt;Node11</title>
<path fill="none" stroke="midnightblue" d="M1476.78,-140.59C1477.43,-128.26 1478.2,-113.72 1478.75,-103.23"/>
<polygon fill="midnightblue" stroke="midnightblue" points="1473.28,-140.53 1476.25,-150.7 1480.27,-140.9 1473.28,-140.53"/>
</g>
<!-- Node17&#45;&gt;Node18 -->
<g id="edge29" class="edge">
<title>Node17&#45;&gt;Node18</title>
<path fill="none" stroke="midnightblue" d="M1515.47,-146.7C1544.78,-133.28 1583.98,-115.34 1610.83,-103.04"/>
<polygon fill="midnightblue" stroke="midnightblue" points="1513.97,-143.54 1506.33,-150.88 1516.88,-149.9 1513.97,-143.54"/>
</g>
<!-- Node20&#45;&gt;Node5 -->
<g id="edge35" class="edge">
<title>Node20&#45;&gt;Node5</title>
<path fill="none" stroke="midnightblue" d="M1746.86,-149.01C1739.33,-147.55 1731.77,-146.18 1724.5,-145 1583.67,-122.13 1546.01,-133.76 1405.5,-109 1396.16,-107.35 1386.3,-105.28 1376.77,-103.1"/>
<polygon fill="midnightblue" stroke="midnightblue" points="1746.23,-152.45 1756.72,-150.96 1747.59,-145.58 1746.23,-152.45"/>
</g>
<!-- Node20&#45;&gt;Node8 -->
<g id="edge38" class="edge">
<title>Node20&#45;&gt;Node8</title>
<path fill="none" stroke="midnightblue" d="M1748.69,-149.05C1740.56,-147.52 1732.37,-146.12 1724.5,-145 1510.96,-114.49 1452.47,-148.97 1240.5,-109 1232.49,-107.49 1224.08,-105.34 1216.06,-103.01"/>
<polygon fill="midnightblue" stroke="midnightblue" points="1748.06,-152.5 1758.54,-150.98 1749.4,-145.63 1748.06,-152.5"/>
</g>
<!-- Node20&#45;&gt;Node11 -->
<g id="edge37" class="edge">
<title>Node20&#45;&gt;Node11</title>
<path fill="none" stroke="midnightblue" d="M1742.34,-148.79C1736.31,-147.51 1730.3,-146.23 1724.5,-145 1648.95,-128.96 1629.61,-126.96 1554.5,-109 1546.77,-107.15 1538.61,-105.09 1530.65,-103.02"/>
<polygon fill="midnightblue" stroke="midnightblue" points="1742,-152.29 1752.51,-150.95 1743.45,-145.45 1742,-152.29"/>
</g>
<!-- Node20&#45;&gt;Node19 -->
<g id="edge36" class="edge">
<title>Node20&#45;&gt;Node19</title>
<path fill="none" stroke="midnightblue" d="M1863.38,-147.05C1897.02,-133.59 1942.39,-115.44 1973.4,-103.04"/>
<polygon fill="midnightblue" stroke="midnightblue" points="1861.78,-143.92 1853.79,-150.88 1864.38,-150.42 1861.78,-143.92"/>
</g>
<!-- Node21&#45;&gt;Node3 -->
<g id="edge40" class="edge">
<title>Node21&#45;&gt;Node3</title>
<path fill="none" stroke="midnightblue" d="M725.87,-146.07C697.49,-130.55 658.64,-109.31 637.24,-97.61"/>
<polygon fill="midnightblue" stroke="midnightblue" points="724.23,-149.16 734.68,-150.88 727.59,-143.01 724.23,-149.16"/>
</g>
<!-- Node21&#45;&gt;Node5 -->
<g id="edge41" class="edge">
<title>Node21&#45;&gt;Node5</title>
<path fill="none" stroke="midnightblue" d="M833.33,-149.09C841.46,-147.58 849.64,-146.18 857.5,-145 1026.59,-119.7 1071.89,-137.33 1240.5,-109 1250.04,-107.4 1260.11,-105.29 1269.8,-103.05"/>
<polygon fill="midnightblue" stroke="midnightblue" points="832.62,-145.66 823.46,-150.98 833.94,-152.54 832.62,-145.66"/>
</g>
<!-- Node21&#45;&gt;Node8 -->
<g id="edge44" class="edge">
<title>Node21&#45;&gt;Node8</title>
<path fill="none" stroke="midnightblue" d="M835.64,-149.02C843.02,-147.6 850.4,-146.23 857.5,-145 969.83,-125.48 1000.28,-134.09 1111.5,-109 1118.88,-107.34 1126.64,-105.23 1134.11,-103.01"/>
<polygon fill="midnightblue" stroke="midnightblue" points="834.75,-145.63 825.61,-150.99 836.1,-152.5 834.75,-145.63"/>
</g>
<!-- Node21&#45;&gt;Node11 -->
<g id="edge43" class="edge">
<title>Node21&#45;&gt;Node11</title>
<path fill="none" stroke="midnightblue" d="M832.08,-149.09C840.62,-147.53 849.23,-146.12 857.5,-145 1099.38,-112.28 1164.73,-149.04 1405.5,-109 1414.56,-107.49 1424.11,-105.35 1433.23,-103.01"/>
<polygon fill="midnightblue" stroke="midnightblue" points="831.29,-145.67 822.12,-150.97 832.59,-152.55 831.29,-145.67"/>
</g>
<!-- Node22 -->
<g id="node22" class="node">
<title>Node22</title>
<g id="a_node22"><a xlink:href="../../d3/dd9/vtoolinternalpath_8cpp.html" target="_top" xlink:title=" ">
<polygon fill="white" stroke="black" points="734,-73 734,-103 919,-103 919,-73 734,-73"/>
<text text-anchor="start" x="742" y="-91" font-family="Helvetica,sans-Serif" font-size="10.00">src/libs/vtools/tools</text>
<text text-anchor="middle" x="826.5" y="-80" font-family="Helvetica,sans-Serif" font-size="10.00">/nodeDetails/vtoolinternalpath.cpp</text>
</a>
</g>
</g>
<!-- Node21&#45;&gt;Node22 -->
<g id="edge42" class="edge">
<title>Node21&#45;&gt;Node22</title>
<path fill="none" stroke="midnightblue" d="M779.77,-142.81C790.87,-130.03 804.48,-114.36 814.14,-103.23"/>
<polygon fill="midnightblue" stroke="midnightblue" points="776.83,-140.86 772.91,-150.7 782.11,-145.45 776.83,-140.86"/>
</g>
<!-- Node23 -->
<g id="node23" class="node">
<title>Node23</title>
<g id="a_node23"><a xlink:href="../../dd/d3a/savepiecepathoptions_8cpp.html" target="_top" xlink:title=" ">
<polygon fill="white" stroke="black" points="937,-73 937,-103 1102,-103 1102,-73 937,-73"/>
<text text-anchor="start" x="945" y="-91" font-family="Helvetica,sans-Serif" font-size="10.00">src/libs/vtools/undocommands</text>
<text text-anchor="middle" x="1019.5" y="-80" font-family="Helvetica,sans-Serif" font-size="10.00">/savepiecepathoptions.cpp</text>
</a>
</g>
</g>
<!-- Node21&#45;&gt;Node23 -->
<g id="edge45" class="edge">
<title>Node21&#45;&gt;Node23</title>
<path fill="none" stroke="midnightblue" d="M818.16,-148.08C864.28,-134.55 928.18,-115.8 971.53,-103.07"/>
<polygon fill="midnightblue" stroke="midnightblue" points="816.92,-144.8 808.31,-150.97 818.89,-151.51 816.92,-144.8"/>
</g>
</g>
</svg>
        <g id="navigator" transform="translate(0 0)" fill="#404254">
                <rect fill="#f2f5e9" fill-opacity="0.5" stroke="#606060" stroke-width=".5" x="0" y="0" width="60" height="60"/>
                <use id="zoomplus" xlink:href="#zoomPlus" x="17" y="9" onmousedown="handleZoom(evt,'in')"/>
                <use id="zoomminus" xlink:href="#zoomMin" x="42" y="9" onmousedown="handleZoom(evt,'out')"/>
                <use id="reset" xlink:href="#resetDef" x="30" y="36" onmousedown="handleReset()"/>
                <g id="arrowUp" xlink:href="#dirArrow" transform="translate(30 24)" onmousedown="handlePan(0,-1)">
                  <use xlink:href="#rim" fill="#404040">
                        <set attributeName="fill" to="#808080" begin="arrowUp.mouseover" end="arrowUp.mouseout"/>
                  </use>
                  <path fill="none" stroke="white" stroke-width="1.5" d="M0,-3.0v7 M-2.5,-0.5L0,-3.0L2.5,-0.5"/>
                </g>
                <g id="arrowRight" xlink:href="#dirArrow" transform="rotate(90) translate(36 -43)" onmousedown="handlePan(1,0)">
                  <use xlink:href="#rim" fill="#404040">
                        <set attributeName="fill" to="#808080" begin="arrowRight.mouseover" end="arrowRight.mouseout"/>
                  </use>
                  <path fill="none" stroke="white" stroke-width="1.5" d="M0,-3.0v7 M-2.5,-0.5L0,-3.0L2.5,-0.5"/>
                </g>
                <g id="arrowDown" xlink:href="#dirArrow" transform="rotate(180) translate(-30 -48)" onmousedown="handlePan(0,1)">
                  <use xlink:href="#rim" fill="#404040">
                        <set attributeName="fill" to="#808080" begin="arrowDown.mouseover" end="arrowDown.mouseout"/>
                  </use>
                  <path fill="none" stroke="white" stroke-width="1.5" d="M0,-3.0v7 M-2.5,-0.5L0,-3.0L2.5,-0.5"/>
                </g>
                <g id="arrowLeft" xlink:href="#dirArrow" transform="rotate(270) translate(-36 17)" onmousedown="handlePan(-1,0)">
                  <use xlink:href="#rim" fill="#404040">
                        <set attributeName="fill" to="#808080" begin="arrowLeft.mouseover" end="arrowLeft.mouseout"/>
                  </use>
                  <path fill="none" stroke="white" stroke-width="1.5" d="M0,-3.0v7 M-2.5,-0.5L0,-3.0L2.5,-0.5"/>
                </g>
        </g>
        <svg viewBox="0 0 15 15" width="100%" height="30px" preserveAspectRatio="xMaxYMin meet">
         <g id="arrow_out" transform="scale(0.3 0.3)">
          <a xlink:href="vabstractnode_8h__dep__incl_org.svg" target="_base">
           <rect id="button" ry="5" rx="5" y="6" x="6" height="38" width="38"
                fill="#f2f5e9" fill-opacity="0.5" stroke="#606060" stroke-width="1.0"/>
           <path id="arrow"
             d="M 11.500037,31.436501 C 11.940474,20.09759 22.043105,11.32322 32.158766,21.979434 L 37.068811,17.246167 C 37.068811,17.246167 37.088388,32 37.088388,32 L 22.160133,31.978069 C 22.160133,31.978069 26.997745,27.140456 26.997745,27.140456 C 18.528582,18.264221 13.291696,25.230495 11.500037,31.436501 z"
             style="fill:#404040;"/>
          </a>
         </g>
        </svg>
</svg>
