<?xml version="1.0" encoding="UTF-8" standalone="no"?>
<!DOCTYPE svg PUBLIC "-//W3C//DTD SVG 1.1//EN"
 "http://www.w3.org/Graphics/SVG/1.1/DTD/svg11.dtd">
<!-- Generated by graphviz version 2.43.0 (0)
 -->
<!-- Title: src/libs/vtools/tools/nodeDetails/vabstractnode.h Pages: 1 -->
<svg width="2107pt" height="262pt"
 viewBox="0.00 0.00 2106.50 262.00" xmlns="http://www.w3.org/2000/svg" xmlns:xlink="http://www.w3.org/1999/xlink">
<g id="graph0" class="graph" transform="scale(1 1) rotate(0) translate(4 258)">
<title>src/libs/vtools/tools/nodeDetails/vabstractnode.h</title>
<polygon fill="white" stroke="transparent" points="-4,4 -4,-258 2102.5,-258 2102.5,4 -4,4"/>
<!-- Node1 -->
<g id="node1" class="node">
<title>Node1</title>
<g id="a_node1"><a xlink:title=" ">
<polygon fill="#bfbfbf" stroke="black" points="1104.5,-223.5 1104.5,-253.5 1264.5,-253.5 1264.5,-223.5 1104.5,-223.5"/>
<text text-anchor="start" x="1112.5" y="-241.5" font-family="Helvetica,sans-Serif" font-size="10.00">src/libs/vtools/tools</text>
<text text-anchor="middle" x="1184.5" y="-230.5" font-family="Helvetica,sans-Serif" font-size="10.00">/nodeDetails/vabstractnode.h</text>
</a>
</g>
</g>
<!-- Node2 -->
<g id="node2" class="node">
<title>Node2</title>
<g id="a_node2"><a xlink:href="../../de/d51/anchorpoint__tool_8h.html" target="_top" xlink:title=" ">
<polygon fill="white" stroke="black" points="306,-145.5 306,-186.5 445,-186.5 445,-145.5 306,-145.5"/>
<text text-anchor="start" x="314" y="-174.5" font-family="Helvetica,sans-Serif" font-size="10.00">src/libs/vtools/tools</text>
<text text-anchor="start" x="314" y="-163.5" font-family="Helvetica,sans-Serif" font-size="10.00">/nodeDetails/anchorpoint</text>
<text text-anchor="middle" x="375.5" y="-152.5" font-family="Helvetica,sans-Serif" font-size="10.00">_tool.h</text>
</a>
</g>
</g>
<!-- Node1&#45;&gt;Node2 -->
<g id="edge1" class="edge">
<title>Node1&#45;&gt;Node2</title>
<path fill="none" stroke="midnightblue" d="M1094.29,-235.97C956.65,-232.56 686.28,-221.66 459.5,-187 454.91,-186.3 450.19,-185.47 445.46,-184.56"/>
<polygon fill="midnightblue" stroke="midnightblue" points="1094.29,-239.47 1104.37,-236.21 1094.46,-232.47 1094.29,-239.47"/>
</g>
<!-- Node9 -->
<g id="node9" class="node">
<title>Node9</title>
<g id="a_node9"><a xlink:href="../../d0/d43/vnodearc_8cpp.html" target="_top" xlink:title=" ">
<polygon fill="white" stroke="black" points="569.5,-73 569.5,-103 715.5,-103 715.5,-73 569.5,-73"/>
<text text-anchor="start" x="577.5" y="-91" font-family="Helvetica,sans-Serif" font-size="10.00">src/libs/vtools/tools</text>
<text text-anchor="middle" x="642.5" y="-80" font-family="Helvetica,sans-Serif" font-size="10.00">/nodeDetails/vnodearc.cpp</text>
</a>
</g>
</g>
<!-- Node1&#45;&gt;Node9 -->
<g id="edge8" class="edge">
<title>Node1&#45;&gt;Node9</title>
<path fill="none" stroke="midnightblue" d="M1094.19,-237.16C923.88,-235.59 568.92,-227.43 531.5,-187 518.82,-173.3 521.71,-160.9 531.5,-145 544,-124.69 566.39,-111.48 587.81,-103.02"/>
<polygon fill="midnightblue" stroke="midnightblue" points="1094.36,-240.67 1104.39,-237.25 1094.42,-233.67 1094.36,-240.67"/>
</g>
<!-- Node10 -->
<g id="node10" class="node">
<title>Node10</title>
<g id="a_node10"><a xlink:href="../../df/d98/vnodearc_8h.html" target="_top" xlink:title=" ">
<polygon fill="white" stroke="black" points="1117,-151 1117,-181 1252,-181 1252,-151 1117,-151"/>
<text text-anchor="start" x="1125" y="-169" font-family="Helvetica,sans-Serif" font-size="10.00">src/libs/vtools/tools</text>
<text text-anchor="middle" x="1184.5" y="-158" font-family="Helvetica,sans-Serif" font-size="10.00">/nodeDetails/vnodearc.h</text>
</a>
</g>
</g>
<!-- Node1&#45;&gt;Node10 -->
<g id="edge9" class="edge">
<title>Node1&#45;&gt;Node10</title>
<path fill="none" stroke="midnightblue" d="M1184.5,-213.23C1184.5,-202.57 1184.5,-190.41 1184.5,-181.25"/>
<polygon fill="midnightblue" stroke="midnightblue" points="1181,-213.23 1184.5,-223.23 1188,-213.23 1181,-213.23"/>
</g>
<!-- Node12 -->
<g id="node12" class="node">
<title>Node12</title>
<g id="a_node12"><a xlink:href="../../d5/dcd/vabstractnode_8cpp.html" target="_top" xlink:title=" ">
<polygon fill="white" stroke="black" points="540,-151 540,-181 711,-181 711,-151 540,-151"/>
<text text-anchor="start" x="548" y="-169" font-family="Helvetica,sans-Serif" font-size="10.00">src/libs/vtools/tools</text>
<text text-anchor="middle" x="625.5" y="-158" font-family="Helvetica,sans-Serif" font-size="10.00">/nodeDetails/vabstractnode.cpp</text>
</a>
</g>
</g>
<!-- Node1&#45;&gt;Node12 -->
<g id="edge14" class="edge">
<title>Node1&#45;&gt;Node12</title>
<path fill="none" stroke="midnightblue" d="M1094.1,-230.33C1000.33,-222.27 849.63,-207.57 720.5,-187 709.85,-185.3 698.58,-183.2 687.68,-181.01"/>
<polygon fill="midnightblue" stroke="midnightblue" points="1093.86,-233.82 1104.12,-231.19 1094.46,-226.85 1093.86,-233.82"/>
</g>
<!-- Node13 -->
<g id="node13" class="node">
<title>Node13</title>
<g id="a_node13"><a xlink:href="../../d3/d3a/vnodeellipticalarc_8cpp.html" target="_top" xlink:title=" ">
<polygon fill="white" stroke="black" points="363.5,-73 363.5,-103 551.5,-103 551.5,-73 363.5,-73"/>
<text text-anchor="start" x="371.5" y="-91" font-family="Helvetica,sans-Serif" font-size="10.00">src/libs/vtools/tools</text>
<text text-anchor="middle" x="457.5" y="-80" font-family="Helvetica,sans-Serif" font-size="10.00">/nodeDetails/vnodeellipticalarc.cpp</text>
</a>
</g>
</g>
<!-- Node1&#45;&gt;Node13 -->
<g id="edge15" class="edge">
<title>Node1&#45;&gt;Node13</title>
<path fill="none" stroke="midnightblue" d="M1094.14,-235.16C923.5,-230.09 566.54,-216.12 518.5,-187 486.96,-167.89 469.25,-125.62 461.78,-103.36"/>
<polygon fill="midnightblue" stroke="midnightblue" points="1094.26,-238.67 1104.36,-235.46 1094.47,-231.67 1094.26,-238.67"/>
</g>
<!-- Node14 -->
<g id="node14" class="node">
<title>Node14</title>
<g id="a_node14"><a xlink:href="../../df/d25/vnodeellipticalarc_8h.html" target="_top" xlink:title=" ">
<polygon fill="white" stroke="black" points="922,-151 922,-181 1099,-181 1099,-151 922,-151"/>
<text text-anchor="start" x="930" y="-169" font-family="Helvetica,sans-Serif" font-size="10.00">src/libs/vtools/tools</text>
<text text-anchor="middle" x="1010.5" y="-158" font-family="Helvetica,sans-Serif" font-size="10.00">/nodeDetails/vnodeellipticalarc.h</text>
</a>
</g>
</g>
<!-- Node1&#45;&gt;Node14 -->
<g id="edge16" class="edge">
<title>Node1&#45;&gt;Node14</title>
<path fill="none" stroke="midnightblue" d="M1140.07,-219.5C1110.6,-207.56 1072.48,-192.11 1045.23,-181.07"/>
<polygon fill="midnightblue" stroke="midnightblue" points="1139.12,-222.89 1149.71,-223.4 1141.75,-216.4 1139.12,-222.89"/>
</g>
<!-- Node15 -->
<g id="node15" class="node">
<title>Node15</title>
<g id="a_node15"><a xlink:href="../../d5/df0/vnodepoint_8h.html" target="_top" xlink:title=" ">
<polygon fill="white" stroke="black" points="1437,-151 1437,-181 1582,-181 1582,-151 1437,-151"/>
<text text-anchor="start" x="1445" y="-169" font-family="Helvetica,sans-Serif" font-size="10.00">src/libs/vtools/tools</text>
<text text-anchor="middle" x="1509.5" y="-158" font-family="Helvetica,sans-Serif" font-size="10.00">/nodeDetails/vnodepoint.h</text>
</a>
</g>
</g>
<!-- Node1&#45;&gt;Node15 -->
<g id="edge21" class="edge">
<title>Node1&#45;&gt;Node15</title>
<path fill="none" stroke="midnightblue" d="M1265.85,-221.47C1313.37,-211.9 1374.44,-199.26 1428.5,-187 1436.69,-185.14 1445.33,-183.1 1453.79,-181.05"/>
<polygon fill="midnightblue" stroke="midnightblue" points="1265.04,-218.06 1255.92,-223.46 1266.42,-224.92 1265.04,-218.06"/>
</g>
<!-- Node16 -->
<g id="node16" class="node">
<title>Node16</title>
<g id="a_node16"><a xlink:href="../../d4/d7b/vnodepoint_8cpp.html" target="_top" xlink:title=" ">
<polygon fill="white" stroke="black" points="1742.5,-73 1742.5,-103 1898.5,-103 1898.5,-73 1742.5,-73"/>
<text text-anchor="start" x="1750.5" y="-91" font-family="Helvetica,sans-Serif" font-size="10.00">src/libs/vtools/tools</text>
<text text-anchor="middle" x="1820.5" y="-80" font-family="Helvetica,sans-Serif" font-size="10.00">/nodeDetails/vnodepoint.cpp</text>
</a>
</g>
</g>
<!-- Node1&#45;&gt;Node16 -->
<g id="edge45" class="edge">
<title>Node1&#45;&gt;Node16</title>
<path fill="none" stroke="midnightblue" d="M1274.94,-235.89C1436.13,-232.17 1759.91,-220.58 1798.5,-187 1822.57,-166.05 1823.47,-124.98 1822.03,-103.25"/>
<polygon fill="midnightblue" stroke="midnightblue" points="1274.48,-232.4 1264.56,-236.12 1274.64,-239.39 1274.48,-232.4"/>
</g>
<!-- Node17 -->
<g id="node17" class="node">
<title>Node17</title>
<g id="a_node17"><a xlink:href="../../d0/dd2/vnodespline_8h.html" target="_top" xlink:title=" ">
<polygon fill="white" stroke="black" points="1270,-151 1270,-181 1419,-181 1419,-151 1270,-151"/>
<text text-anchor="start" x="1278" y="-169" font-family="Helvetica,sans-Serif" font-size="10.00">src/libs/vtools/tools</text>
<text text-anchor="middle" x="1344.5" y="-158" font-family="Helvetica,sans-Serif" font-size="10.00">/nodeDetails/vnodespline.h</text>
</a>
</g>
</g>
<!-- Node1&#45;&gt;Node17 -->
<g id="edge26" class="edge">
<title>Node1&#45;&gt;Node17</title>
<path fill="none" stroke="midnightblue" d="M1225.71,-219.34C1252.76,-207.42 1287.61,-192.07 1312.56,-181.07"/>
<polygon fill="midnightblue" stroke="midnightblue" points="1224.23,-216.17 1216.49,-223.4 1227.06,-222.57 1224.23,-216.17"/>
</g>
<!-- Node18 -->
<g id="node18" class="node">
<title>Node18</title>
<g id="a_node18"><a xlink:href="../../df/d94/vnodespline_8cpp.html" target="_top" xlink:title=" ">
<polygon fill="white" stroke="black" points="1563,-73 1563,-103 1724,-103 1724,-73 1563,-73"/>
<text text-anchor="start" x="1571" y="-91" font-family="Helvetica,sans-Serif" font-size="10.00">src/libs/vtools/tools</text>
<text text-anchor="middle" x="1643.5" y="-80" font-family="Helvetica,sans-Serif" font-size="10.00">/nodeDetails/vnodespline.cpp</text>
</a>
</g>
</g>
<!-- Node1&#45;&gt;Node18 -->
<g id="edge31" class="edge">
<title>Node1&#45;&gt;Node18</title>
<path fill="none" stroke="midnightblue" d="M1274.85,-236.43C1433.13,-233.61 1747.03,-223.43 1780.5,-187 1793.13,-173.25 1790.91,-160.5 1780.5,-145 1770.22,-129.69 1728.42,-113.95 1693.66,-103.07"/>
<polygon fill="midnightblue" stroke="midnightblue" points="1274.59,-232.93 1264.65,-236.6 1274.71,-239.93 1274.59,-232.93"/>
</g>
<!-- Node19 -->
<g id="node19" class="node">
<title>Node19</title>
<g id="a_node19"><a xlink:href="../../df/d88/vnodesplinepath_8h.html" target="_top" xlink:title=" ">
<polygon fill="white" stroke="black" points="1600,-151 1600,-181 1771,-181 1771,-151 1600,-151"/>
<text text-anchor="start" x="1608" y="-169" font-family="Helvetica,sans-Serif" font-size="10.00">src/libs/vtools/tools</text>
<text text-anchor="middle" x="1685.5" y="-158" font-family="Helvetica,sans-Serif" font-size="10.00">/nodeDetails/vnodesplinepath.h</text>
</a>
</g>
</g>
<!-- Node1&#45;&gt;Node19 -->
<g id="edge32" class="edge">
<title>Node1&#45;&gt;Node19</title>
<path fill="none" stroke="midnightblue" d="M1274.84,-228.55C1357.54,-219.82 1483.15,-205.21 1591.5,-187 1601.78,-185.27 1612.65,-183.19 1623.2,-181.04"/>
<polygon fill="midnightblue" stroke="midnightblue" points="1274.31,-225.09 1264.73,-229.61 1275.04,-232.05 1274.31,-225.09"/>
</g>
<!-- Node20 -->
<g id="node20" class="node">
<title>Node20</title>
<g id="a_node20"><a xlink:href="../../d2/dad/vnodesplinepath_8cpp.html" target="_top" xlink:title=" ">
<polygon fill="white" stroke="black" points="1916.5,-73 1916.5,-103 2098.5,-103 2098.5,-73 1916.5,-73"/>
<text text-anchor="start" x="1924.5" y="-91" font-family="Helvetica,sans-Serif" font-size="10.00">src/libs/vtools/tools</text>
<text text-anchor="middle" x="2007.5" y="-80" font-family="Helvetica,sans-Serif" font-size="10.00">/nodeDetails/vnodesplinepath.cpp</text>
</a>
</g>
</g>
<!-- Node1&#45;&gt;Node20 -->
<g id="edge37" class="edge">
<title>Node1&#45;&gt;Node20</title>
<path fill="none" stroke="midnightblue" d="M1274.86,-234.86C1425.75,-229.7 1722.31,-216.14 1822.5,-187 1887.06,-168.22 1954.93,-125.4 1987.6,-103.1"/>
<polygon fill="midnightblue" stroke="midnightblue" points="1274.57,-231.37 1264.7,-235.2 1274.81,-238.37 1274.57,-231.37"/>
</g>
<!-- Node21 -->
<g id="node21" class="node">
<title>Node21</title>
<g id="a_node21"><a xlink:href="../../d5/d9d/vtoolinternalpath_8h.html" target="_top" xlink:title=" ">
<polygon fill="white" stroke="black" points="729.5,-151 729.5,-181 903.5,-181 903.5,-151 729.5,-151"/>
<text text-anchor="start" x="737.5" y="-169" font-family="Helvetica,sans-Serif" font-size="10.00">src/libs/vtools/tools</text>
<text text-anchor="middle" x="816.5" y="-158" font-family="Helvetica,sans-Serif" font-size="10.00">/nodeDetails/vtoolinternalpath.h</text>
</a>
</g>
</g>
<!-- Node1&#45;&gt;Node21 -->
<g id="edge38" class="edge">
<title>Node1&#45;&gt;Node21</title>
<path fill="none" stroke="midnightblue" d="M1096.97,-221.63C1043.85,-211.89 974.72,-199.01 913.5,-187 903.88,-185.11 893.74,-183.07 883.78,-181.05"/>
<polygon fill="midnightblue" stroke="midnightblue" points="1096.57,-225.11 1107.04,-223.47 1097.83,-218.23 1096.57,-225.11"/>
</g>
<!-- Node3 -->
<g id="node3" class="node">
<title>Node3</title>
<g id="a_node3"><a xlink:href="../../d8/dd9/mainwindow_8cpp.html" target="_top" xlink:title=" ">
<polygon fill="white" stroke="black" points="157.5,-78.5 157.5,-97.5 345.5,-97.5 345.5,-78.5 157.5,-78.5"/>
<text text-anchor="middle" x="251.5" y="-85.5" font-family="Helvetica,sans-Serif" font-size="10.00">src/app/seamly2d/mainwindow.cpp</text>
</a>
</g>
</g>
<!-- Node2&#45;&gt;Node3 -->
<g id="edge2" class="edge">
<title>Node2&#45;&gt;Node3</title>
<path fill="none" stroke="midnightblue" d="M334.99,-140.17C311.04,-125.49 282.21,-107.82 265.45,-97.55"/>
<polygon fill="midnightblue" stroke="midnightblue" points="333.21,-143.19 343.57,-145.43 336.87,-137.22 333.21,-143.19"/>
</g>
<!-- Node4 -->
<g id="node4" class="node">
<title>Node4</title>
<g id="a_node4"><a xlink:href="../../d9/d3a/anchorpoint__tool_8cpp.html" target="_top" xlink:title=" ">
<polygon fill="white" stroke="black" points="0,-67.5 0,-108.5 139,-108.5 139,-67.5 0,-67.5"/>
<text text-anchor="start" x="8" y="-96.5" font-family="Helvetica,sans-Serif" font-size="10.00">src/libs/vtools/tools</text>
<text text-anchor="start" x="8" y="-85.5" font-family="Helvetica,sans-Serif" font-size="10.00">/nodeDetails/anchorpoint</text>
<text text-anchor="middle" x="69.5" y="-74.5" font-family="Helvetica,sans-Serif" font-size="10.00">_tool.cpp</text>
</a>
</g>
</g>
<!-- Node2&#45;&gt;Node4 -->
<g id="edge3" class="edge">
<title>Node2&#45;&gt;Node4</title>
<path fill="none" stroke="midnightblue" d="M295.96,-145.5C252.4,-134.79 197.46,-121.24 148.5,-109 145.48,-108.25 142.4,-107.47 139.28,-106.69"/>
<polygon fill="midnightblue" stroke="midnightblue" points="295.38,-148.97 305.93,-147.95 297.05,-142.17 295.38,-148.97"/>
</g>
<!-- Node5 -->
<g id="node5" class="node">
<title>Node5</title>
<g id="a_node5"><a xlink:href="../../d5/dcf/nodedetails_8h.html" target="_top" xlink:title=" ">
<polygon fill="white" stroke="black" points="1249,-73 1249,-103 1396,-103 1396,-73 1249,-73"/>
<text text-anchor="start" x="1257" y="-91" font-family="Helvetica,sans-Serif" font-size="10.00">src/libs/vtools/tools</text>
<text text-anchor="middle" x="1322.5" y="-80" font-family="Helvetica,sans-Serif" font-size="10.00">/nodeDetails/nodedetails.h</text>
</a>
</g>
</g>
<!-- Node2&#45;&gt;Node5 -->
<g id="edge4" class="edge">
<title>Node2&#45;&gt;Node5</title>
<path fill="none" stroke="midnightblue" d="M455.21,-153.58C479.65,-150.41 506.64,-147.22 531.5,-145 845.76,-116.92 928.29,-154.58 1240.5,-109 1250.5,-107.54 1261.07,-105.41 1271.18,-103.09"/>
<polygon fill="midnightblue" stroke="midnightblue" points="454.72,-150.12 445.27,-154.89 455.64,-157.06 454.72,-150.12"/>
</g>
<!-- Node8 -->
<g id="node8" class="node">
<title>Node8</title>
<g id="a_node8"><a xlink:href="../../d4/d9f/union__tool_8cpp.html" target="_top" xlink:title=" ">
<polygon fill="white" stroke="black" points="1120,-73 1120,-103 1231,-103 1231,-73 1120,-73"/>
<text text-anchor="start" x="1128" y="-91" font-family="Helvetica,sans-Serif" font-size="10.00">src/libs/vtools/tools</text>
<text text-anchor="middle" x="1175.5" y="-80" font-family="Helvetica,sans-Serif" font-size="10.00">/union_tool.cpp</text>
</a>
</g>
</g>
<!-- Node2&#45;&gt;Node8 -->
<g id="edge7" class="edge">
<title>Node2&#45;&gt;Node8</title>
<path fill="none" stroke="midnightblue" d="M455.22,-153.76C479.66,-150.59 506.65,-147.36 531.5,-145 788.62,-120.57 857.51,-155.86 1111.5,-109 1119.4,-107.54 1127.69,-105.42 1135.59,-103.09"/>
<polygon fill="midnightblue" stroke="midnightblue" points="454.74,-150.29 445.28,-155.06 455.65,-157.23 454.74,-150.29"/>
</g>
<!-- Node6 -->
<g id="node6" class="node">
<title>Node6</title>
<g id="a_node6"><a xlink:href="../../d5/da5/tools_8h.html" target="_top" xlink:title=" ">
<polygon fill="white" stroke="black" points="1202,-0.5 1202,-30.5 1313,-30.5 1313,-0.5 1202,-0.5"/>
<text text-anchor="start" x="1210" y="-18.5" font-family="Helvetica,sans-Serif" font-size="10.00">src/libs/vtools/tools</text>
<text text-anchor="middle" x="1257.5" y="-7.5" font-family="Helvetica,sans-Serif" font-size="10.00">/tools.h</text>
</a>
</g>
</g>
<!-- Node5&#45;&gt;Node6 -->
<g id="edge5" class="edge">
<title>Node5&#45;&gt;Node6</title>
<path fill="none" stroke="midnightblue" d="M1302.55,-65.36C1292.18,-54.11 1279.79,-40.68 1270.63,-30.75"/>
<polygon fill="midnightblue" stroke="midnightblue" points="1299.99,-67.75 1309.35,-72.73 1305.14,-63.01 1299.99,-67.75"/>
</g>
<!-- Node7 -->
<g id="node7" class="node">
<title>Node7</title>
<g id="a_node7"><a xlink:href="../../d9/d4e/vabstracttool_8cpp.html" target="_top" xlink:title=" ">
<polygon fill="white" stroke="black" points="1331,-0.5 1331,-30.5 1442,-30.5 1442,-0.5 1331,-0.5"/>
<text text-anchor="start" x="1339" y="-18.5" font-family="Helvetica,sans-Serif" font-size="10.00">src/libs/vtools/tools</text>
<text text-anchor="middle" x="1386.5" y="-7.5" font-family="Helvetica,sans-Serif" font-size="10.00">/vabstracttool.cpp</text>
</a>
</g>
</g>
<!-- Node5&#45;&gt;Node7 -->
<g id="edge6" class="edge">
<title>Node5&#45;&gt;Node7</title>
<path fill="none" stroke="midnightblue" d="M1342.44,-65.04C1352.59,-53.86 1364.64,-40.58 1373.57,-30.75"/>
<polygon fill="midnightblue" stroke="midnightblue" points="1339.58,-62.98 1335.45,-72.73 1344.76,-67.68 1339.58,-62.98"/>
</g>
<!-- Node10&#45;&gt;Node5 -->
<g id="edge11" class="edge">
<title>Node10&#45;&gt;Node5</title>
<path fill="none" stroke="midnightblue" d="M1219,-146C1243.22,-132.66 1275.07,-115.12 1297,-103.04"/>
<polygon fill="midnightblue" stroke="midnightblue" points="1217.2,-142.99 1210.13,-150.88 1220.58,-149.12 1217.2,-142.99"/>
</g>
<!-- Node10&#45;&gt;Node8 -->
<g id="edge13" class="edge">
<title>Node10&#45;&gt;Node8</title>
<path fill="none" stroke="midnightblue" d="M1181.61,-140.59C1180.15,-128.26 1178.43,-113.72 1177.19,-103.23"/>
<polygon fill="midnightblue" stroke="midnightblue" points="1178.16,-141.19 1182.81,-150.7 1185.11,-140.36 1178.16,-141.19"/>
</g>
<!-- Node10&#45;&gt;Node9 -->
<g id="edge10" class="edge">
<title>Node10&#45;&gt;Node9</title>
<path fill="none" stroke="midnightblue" d="M1125.91,-148.56C1120.06,-147.23 1114.18,-146.01 1108.5,-145 940.15,-115.14 894.15,-137.1 725.5,-109 715.85,-107.39 705.66,-105.28 695.85,-103.04"/>
<polygon fill="midnightblue" stroke="midnightblue" points="1125.16,-151.98 1135.7,-150.9 1126.79,-145.17 1125.16,-151.98"/>
</g>
<!-- Node11 -->
<g id="node11" class="node">
<title>Node11</title>
<g id="a_node11"><a xlink:href="../../d8/dea/pattern__piece__tool_8cpp.html" target="_top" xlink:title=" ">
<polygon fill="white" stroke="black" points="1414,-73 1414,-103 1545,-103 1545,-73 1414,-73"/>
<text text-anchor="start" x="1422" y="-91" font-family="Helvetica,sans-Serif" font-size="10.00">src/libs/vtools/tools</text>
<text text-anchor="middle" x="1479.5" y="-80" font-family="Helvetica,sans-Serif" font-size="10.00">/pattern_piece_tool.cpp</text>
</a>
</g>
</g>
<!-- Node10&#45;&gt;Node11 -->
<g id="edge12" class="edge">
<title>Node10&#45;&gt;Node11</title>
<path fill="none" stroke="midnightblue" d="M1248.2,-148.41C1252.7,-147.25 1257.17,-146.1 1261.5,-145 1325.43,-128.71 1341.65,-125.61 1405.5,-109 1412.84,-107.09 1420.58,-105.04 1428.18,-103.01"/>
<polygon fill="midnightblue" stroke="midnightblue" points="1247.14,-145.06 1238.33,-150.95 1248.89,-151.84 1247.14,-145.06"/>
</g>
<!-- Node14&#45;&gt;Node5 -->
<g id="edge18" class="edge">
<title>Node14&#45;&gt;Node5</title>
<path fill="none" stroke="midnightblue" d="M1077.98,-148.58C1123.82,-137.42 1185.82,-122.33 1240.5,-109 1248.33,-107.09 1256.58,-105.08 1264.71,-103.1"/>
<polygon fill="midnightblue" stroke="midnightblue" points="1077.05,-145.2 1068.16,-150.97 1078.7,-152 1077.05,-145.2"/>
</g>
<!-- Node14&#45;&gt;Node8 -->
<g id="edge20" class="edge">
<title>Node14&#45;&gt;Node8</title>
<path fill="none" stroke="midnightblue" d="M1050.23,-146.7C1079.36,-133.28 1118.32,-115.34 1145.02,-103.04"/>
<polygon fill="midnightblue" stroke="midnightblue" points="1048.77,-143.52 1041.15,-150.88 1051.7,-149.88 1048.77,-143.52"/>
</g>
<!-- Node14&#45;&gt;Node11 -->
<g id="edge19" class="edge">
<title>Node14&#45;&gt;Node11</title>
<path fill="none" stroke="midnightblue" d="M1085.32,-149.08C1093.13,-147.62 1100.97,-146.22 1108.5,-145 1239.75,-123.69 1274.98,-134.41 1405.5,-109 1413.99,-107.35 1422.94,-105.24 1431.57,-103.03"/>
<polygon fill="midnightblue" stroke="midnightblue" points="1084.63,-145.65 1075.47,-150.98 1085.95,-152.53 1084.63,-145.65"/>
</g>
<!-- Node14&#45;&gt;Node13 -->
<g id="edge17" class="edge">
<title>Node14&#45;&gt;Node13</title>
<path fill="none" stroke="midnightblue" d="M936.26,-149.04C928.26,-147.56 920.22,-146.18 912.5,-145 757.04,-121.25 716.07,-132.01 560.5,-109 549.06,-107.31 536.95,-105.22 525.22,-103.05"/>
<polygon fill="midnightblue" stroke="midnightblue" points="935.87,-152.53 946.35,-150.96 937.18,-145.65 935.87,-152.53"/>
</g>
<!-- Node15&#45;&gt;Node5 -->
<g id="edge22" class="edge">
<title>Node15&#45;&gt;Node5</title>
<path fill="none" stroke="midnightblue" d="M1465.32,-147.05C1432.22,-133.59 1387.56,-115.44 1357.05,-103.04"/>
<polygon fill="midnightblue" stroke="midnightblue" points="1464.18,-150.36 1474.76,-150.88 1466.82,-143.88 1464.18,-150.36"/>
</g>
<!-- Node15&#45;&gt;Node8 -->
<g id="edge25" class="edge">
<title>Node15&#45;&gt;Node8</title>
<path fill="none" stroke="midnightblue" d="M1444.12,-148.54C1438.84,-147.31 1433.59,-146.11 1428.5,-145 1345.4,-126.8 1323.06,-129.54 1240.5,-109 1233.4,-107.23 1225.92,-105.15 1218.67,-103"/>
<polygon fill="midnightblue" stroke="midnightblue" points="1443.72,-152.04 1454.25,-150.95 1445.33,-145.23 1443.72,-152.04"/>
</g>
<!-- Node15&#45;&gt;Node11 -->
<g id="edge24" class="edge">
<title>Node15&#45;&gt;Node11</title>
<path fill="none" stroke="midnightblue" d="M1500.16,-141.33C1495.23,-128.85 1489.34,-113.94 1485.12,-103.23"/>
<polygon fill="midnightblue" stroke="midnightblue" points="1496.93,-142.69 1503.86,-150.7 1503.44,-140.12 1496.93,-142.69"/>
</g>
<!-- Node15&#45;&gt;Node16 -->
<g id="edge23" class="edge">
<title>Node15&#45;&gt;Node16</title>
<path fill="none" stroke="midnightblue" d="M1576.67,-148.59C1632.28,-134.99 1710.46,-115.89 1763.17,-103.01"/>
<polygon fill="midnightblue" stroke="midnightblue" points="1575.79,-145.2 1566.9,-150.97 1577.45,-152 1575.79,-145.2"/>
</g>
<!-- Node17&#45;&gt;Node5 -->
<g id="edge27" class="edge">
<title>Node17&#45;&gt;Node5</title>
<path fill="none" stroke="midnightblue" d="M1337.54,-140.96C1333.95,-128.55 1329.69,-113.83 1326.62,-103.23"/>
<polygon fill="midnightblue" stroke="midnightblue" points="1334.22,-142.07 1340.36,-150.7 1340.94,-140.13 1334.22,-142.07"/>
</g>
<!-- Node17&#45;&gt;Node8 -->
<g id="edge30" class="edge">
<title>Node17&#45;&gt;Node8</title>
<path fill="none" stroke="midnightblue" d="M1303.8,-146.7C1273.97,-133.28 1234.06,-115.34 1206.72,-103.04"/>
<polygon fill="midnightblue" stroke="midnightblue" points="1302.55,-149.97 1313.11,-150.88 1305.42,-143.59 1302.55,-149.97"/>
</g>
<!-- Node17&#45;&gt;Node11 -->
<g id="edge29" class="edge">
<title>Node17&#45;&gt;Node11</title>
<path fill="none" stroke="midnightblue" d="M1378.57,-145.82C1402.22,-132.51 1433.19,-115.07 1454.56,-103.04"/>
<polygon fill="midnightblue" stroke="midnightblue" points="1376.57,-142.93 1369.58,-150.88 1380.01,-149.03 1376.57,-142.93"/>
</g>
<!-- Node17&#45;&gt;Node18 -->
<g id="edge28" class="edge">
<title>Node17&#45;&gt;Node18</title>
<path fill="none" stroke="midnightblue" d="M1409.41,-148.5C1462.86,-134.92 1537.81,-115.87 1588.38,-103.01"/>
<polygon fill="midnightblue" stroke="midnightblue" points="1408.52,-145.12 1399.69,-150.97 1410.24,-151.9 1408.52,-145.12"/>
</g>
<!-- Node19&#45;&gt;Node5 -->
<g id="edge33" class="edge">
<title>Node19&#45;&gt;Node5</title>
<path fill="none" stroke="midnightblue" d="M1610.31,-148.87C1603.95,-147.55 1597.62,-146.24 1591.5,-145 1508.98,-128.24 1487.78,-126.87 1405.5,-109 1396.95,-107.14 1387.94,-105.08 1379.12,-103.01"/>
<polygon fill="midnightblue" stroke="midnightblue" points="1609.8,-152.34 1620.3,-150.97 1611.23,-145.49 1609.8,-152.34"/>
</g>
<!-- Node19&#45;&gt;Node8 -->
<g id="edge36" class="edge">
<title>Node19&#45;&gt;Node8</title>
<path fill="none" stroke="midnightblue" d="M1614.23,-149C1606.58,-147.53 1598.89,-146.16 1591.5,-145 1436.58,-120.65 1394.18,-140.21 1240.5,-109 1232.75,-107.43 1224.6,-105.31 1216.8,-103.03"/>
<polygon fill="midnightblue" stroke="midnightblue" points="1613.75,-152.47 1624.24,-150.97 1615.11,-145.6 1613.75,-152.47"/>
</g>
<!-- Node19&#45;&gt;Node11 -->
<g id="edge35" class="edge">
<title>Node19&#45;&gt;Node11</title>
<path fill="none" stroke="midnightblue" d="M1637.77,-147.39C1601.22,-133.9 1551.46,-115.55 1517.56,-103.04"/>
<polygon fill="midnightblue" stroke="midnightblue" points="1636.64,-150.71 1647.24,-150.88 1639.07,-144.14 1636.64,-150.71"/>
</g>
<!-- Node19&#45;&gt;Node20 -->
<g id="edge34" class="edge">
<title>Node19&#45;&gt;Node20</title>
<path fill="none" stroke="midnightblue" d="M1754.69,-148.67C1812.29,-135.07 1893.45,-115.92 1948.14,-103.01"/>
<polygon fill="midnightblue" stroke="midnightblue" points="1753.86,-145.27 1744.94,-150.97 1755.47,-152.08 1753.86,-145.27"/>
</g>
<!-- Node21&#45;&gt;Node3 -->
<g id="edge39" class="edge">
<title>Node21&#45;&gt;Node3</title>
<path fill="none" stroke="midnightblue" d="M743.97,-149.03C736.07,-147.55 728.13,-146.17 720.5,-145 558.93,-120.3 516.24,-132.6 354.5,-109 333.41,-105.92 310.08,-101.48 290.97,-97.56"/>
<polygon fill="midnightblue" stroke="midnightblue" points="743.45,-152.49 753.93,-150.96 744.78,-145.62 743.45,-152.49"/>
</g>
<!-- Node21&#45;&gt;Node5 -->
<g id="edge40" class="edge">
<title>Node21&#45;&gt;Node5</title>
<path fill="none" stroke="midnightblue" d="M890.17,-149.06C898.03,-147.58 905.92,-146.2 913.5,-145 1057.92,-122.21 1096.51,-134.38 1240.5,-109 1249.88,-107.35 1259.78,-105.24 1269.34,-103.03"/>
<polygon fill="midnightblue" stroke="midnightblue" points="889.42,-145.64 880.26,-150.97 890.74,-152.51 889.42,-145.64"/>
</g>
<!-- Node21&#45;&gt;Node8 -->
<g id="edge43" class="edge">
<title>Node21&#45;&gt;Node8</title>
<path fill="none" stroke="midnightblue" d="M893.44,-148.96C900.22,-147.6 906.98,-146.26 913.5,-145 1001.31,-127.97 1024.65,-130.38 1111.5,-109 1118.51,-107.27 1125.88,-105.21 1133.02,-103.08"/>
<polygon fill="midnightblue" stroke="midnightblue" points="892.62,-145.56 883.51,-150.97 894.01,-152.42 892.62,-145.56"/>
</g>
<!-- Node21&#45;&gt;Node11 -->
<g id="edge42" class="edge">
<title>Node21&#45;&gt;Node11</title>
<path fill="none" stroke="midnightblue" d="M888.28,-149.11C896.75,-147.56 905.3,-146.14 913.5,-145 1130.66,-114.8 1189.35,-145.77 1405.5,-109 1414.42,-107.48 1423.82,-105.36 1432.82,-103.06"/>
<polygon fill="midnightblue" stroke="midnightblue" points="887.56,-145.69 878.39,-150.99 888.86,-152.56 887.56,-145.69"/>
</g>
<!-- Node22 -->
<g id="node22" class="node">
<title>Node22</title>
<g id="a_node22"><a xlink:href="../../d3/dd9/vtoolinternalpath_8cpp.html" target="_top" xlink:title=" ">
<polygon fill="white" stroke="black" points="917,-73 917,-103 1102,-103 1102,-73 917,-73"/>
<text text-anchor="start" x="925" y="-91" font-family="Helvetica,sans-Serif" font-size="10.00">src/libs/vtools/tools</text>
<text text-anchor="middle" x="1009.5" y="-80" font-family="Helvetica,sans-Serif" font-size="10.00">/nodeDetails/vtoolinternalpath.cpp</text>
</a>
</g>
</g>
<!-- Node21&#45;&gt;Node22 -->
<g id="edge41" class="edge">
<title>Node21&#45;&gt;Node22</title>
<path fill="none" stroke="midnightblue" d="M862.09,-147.05C896.26,-133.59 942.35,-115.44 973.84,-103.04"/>
<polygon fill="midnightblue" stroke="midnightblue" points="860.37,-143.96 852.35,-150.88 862.94,-150.48 860.37,-143.96"/>
</g>
<!-- Node23 -->
<g id="node23" class="node">
<title>Node23</title>
<g id="a_node23"><a xlink:href="../../dd/d3a/savepiecepathoptions_8cpp.html" target="_top" xlink:title=" ">
<polygon fill="white" stroke="black" points="734,-73 734,-103 899,-103 899,-73 734,-73"/>
<text text-anchor="start" x="742" y="-91" font-family="Helvetica,sans-Serif" font-size="10.00">src/libs/vtools/undocommands</text>
<text text-anchor="middle" x="816.5" y="-80" font-family="Helvetica,sans-Serif" font-size="10.00">/savepiecepathoptions.cpp</text>
</a>
</g>
</g>
<!-- Node21&#45;&gt;Node23 -->
<g id="edge44" class="edge">
<title>Node21&#45;&gt;Node23</title>
<path fill="none" stroke="midnightblue" d="M816.5,-140.59C816.5,-128.26 816.5,-113.72 816.5,-103.23"/>
<polygon fill="midnightblue" stroke="midnightblue" points="813,-140.7 816.5,-150.7 820,-140.71 813,-140.7"/>
</g>
</g>
</svg>
