<?xml version="1.0" encoding="UTF-8" standalone="no"?>
<!DOCTYPE svg PUBLIC "-//W3C//DTD SVG 1.1//EN"
 "http://www.w3.org/Graphics/SVG/1.1/DTD/svg11.dtd">
<!-- Generated by graphviz version 2.43.0 (0)
 -->
<!-- Title: VisToolEllipticalArc Pages: 1 -->
<svg width="531pt" height="1328pt"
 viewBox="0.00 0.00 531.00 1328.00" xmlns="http://www.w3.org/2000/svg" xmlns:xlink="http://www.w3.org/1999/xlink">
<g id="graph0" class="graph" transform="scale(1 1) rotate(0) translate(4 1324)">
<title>VisToolEllipticalArc</title>
<polygon fill="white" stroke="transparent" points="-4,4 -4,-1324 527,-1324 527,4 -4,4"/>
<!-- Node1 -->
<g id="node1" class="node">
<title>Node1</title>
<g id="a_node1"><a xlink:title=" ">
<polygon fill="#bfbfbf" stroke="black" points="321,-0.5 321,-189.5 457,-189.5 457,-0.5 321,-0.5"/>
<text text-anchor="middle" x="389" y="-177.5" font-family="Helvetica,sans-Serif" font-size="10.00">VisToolEllipticalArc</text>
<polyline fill="none" stroke="black" points="321,-170.5 457,-170.5 "/>
<text text-anchor="start" x="329" y="-158.5" font-family="Helvetica,sans-Serif" font-size="10.00">&#45; radius1</text>
<text text-anchor="start" x="329" y="-147.5" font-family="Helvetica,sans-Serif" font-size="10.00">&#45; radius2</text>
<text text-anchor="start" x="329" y="-136.5" font-family="Helvetica,sans-Serif" font-size="10.00">&#45; f1</text>
<text text-anchor="start" x="329" y="-125.5" font-family="Helvetica,sans-Serif" font-size="10.00">&#45; f2</text>
<text text-anchor="start" x="329" y="-114.5" font-family="Helvetica,sans-Serif" font-size="10.00">&#45; rotationAngle</text>
<polyline fill="none" stroke="black" points="321,-107.5 457,-107.5 "/>
<text text-anchor="start" x="329" y="-95.5" font-family="Helvetica,sans-Serif" font-size="10.00">+ VisToolEllipticalArc()</text>
<text text-anchor="start" x="329" y="-84.5" font-family="Helvetica,sans-Serif" font-size="10.00">+ ~VisToolEllipticalArc()</text>
<text text-anchor="start" x="329" y="-73.5" font-family="Helvetica,sans-Serif" font-size="10.00">+ RefreshGeometry()</text>
<text text-anchor="start" x="329" y="-62.5" font-family="Helvetica,sans-Serif" font-size="10.00">+ setRadius1()</text>
<text text-anchor="start" x="329" y="-51.5" font-family="Helvetica,sans-Serif" font-size="10.00">+ setRadius2()</text>
<text text-anchor="start" x="329" y="-40.5" font-family="Helvetica,sans-Serif" font-size="10.00">+ setF1()</text>
<text text-anchor="start" x="329" y="-29.5" font-family="Helvetica,sans-Serif" font-size="10.00">+ setF2()</text>
<text text-anchor="start" x="329" y="-18.5" font-family="Helvetica,sans-Serif" font-size="10.00">+ setRotationAngle()</text>
<text text-anchor="start" x="329" y="-7.5" font-family="Helvetica,sans-Serif" font-size="10.00">+ type()</text>
</a>
</g>
</g>
<!-- Node2 -->
<g id="node2" class="node">
<title>Node2</title>
<g id="a_node2"><a xlink:href="../../db/d76/classVisPath.html" target="_top" xlink:title=" ">
<polygon fill="white" stroke="black" points="269.5,-237.5 269.5,-349.5 366.5,-349.5 366.5,-237.5 269.5,-237.5"/>
<text text-anchor="middle" x="318" y="-337.5" font-family="Helvetica,sans-Serif" font-size="10.00">VisPath</text>
<polyline fill="none" stroke="black" points="269.5,-330.5 366.5,-330.5 "/>
<text text-anchor="middle" x="318" y="-318.5" font-family="Helvetica,sans-Serif" font-size="10.00"> </text>
<polyline fill="none" stroke="black" points="269.5,-311.5 366.5,-311.5 "/>
<text text-anchor="start" x="277.5" y="-299.5" font-family="Helvetica,sans-Serif" font-size="10.00">+ VisPath()</text>
<text text-anchor="start" x="277.5" y="-288.5" font-family="Helvetica,sans-Serif" font-size="10.00">+ ~VisPath()</text>
<text text-anchor="start" x="277.5" y="-277.5" font-family="Helvetica,sans-Serif" font-size="10.00">+ type()</text>
<text text-anchor="start" x="277.5" y="-266.5" font-family="Helvetica,sans-Serif" font-size="10.00"># initPen()</text>
<text text-anchor="start" x="277.5" y="-255.5" font-family="Helvetica,sans-Serif" font-size="10.00"># AddOnScene()</text>
<text text-anchor="start" x="277.5" y="-244.5" font-family="Helvetica,sans-Serif" font-size="10.00"># GetPoint()</text>
</a>
</g>
</g>
<!-- Node2&#45;&gt;Node1 -->
<g id="edge1" class="edge">
<title>Node2&#45;&gt;Node1</title>
<path fill="none" stroke="midnightblue" d="M341.44,-227.63C345.85,-215.41 350.55,-202.42 355.21,-189.53"/>
<polygon fill="none" stroke="midnightblue" points="338.07,-226.65 337.97,-237.24 344.66,-229.03 338.07,-226.65"/>
</g>
<!-- Node3 -->
<g id="node3" class="node">
<title>Node3</title>
<g id="a_node3"><a xlink:href="../../d7/d24/classVisualization.html" target="_top" xlink:title=" ">
<polygon fill="white" stroke="black" points="103,-387.5 103,-840.5 225,-840.5 225,-387.5 103,-387.5"/>
<text text-anchor="middle" x="164" y="-828.5" font-family="Helvetica,sans-Serif" font-size="10.00">Visualization</text>
<polyline fill="none" stroke="black" points="103,-821.5 225,-821.5 "/>
<text text-anchor="start" x="111" y="-809.5" font-family="Helvetica,sans-Serif" font-size="10.00"># scenePos</text>
<text text-anchor="start" x="111" y="-798.5" font-family="Helvetica,sans-Serif" font-size="10.00"># mainColor</text>
<text text-anchor="start" x="111" y="-787.5" font-family="Helvetica,sans-Serif" font-size="10.00"># supportColor</text>
<text text-anchor="start" x="111" y="-776.5" font-family="Helvetica,sans-Serif" font-size="10.00"># lineStyle</text>
<text text-anchor="start" x="111" y="-765.5" font-family="Helvetica,sans-Serif" font-size="10.00"># lineWeight</text>
<text text-anchor="start" x="111" y="-754.5" font-family="Helvetica,sans-Serif" font-size="10.00"># object1Id</text>
<text text-anchor="start" x="111" y="-743.5" font-family="Helvetica,sans-Serif" font-size="10.00"># toolTip</text>
<text text-anchor="start" x="111" y="-732.5" font-family="Helvetica,sans-Serif" font-size="10.00"># mode</text>
<polyline fill="none" stroke="black" points="103,-725.5 225,-725.5 "/>
<text text-anchor="start" x="111" y="-713.5" font-family="Helvetica,sans-Serif" font-size="10.00">+ Visualization()</text>
<text text-anchor="start" x="111" y="-702.5" font-family="Helvetica,sans-Serif" font-size="10.00">+ ~Visualization()</text>
<text text-anchor="start" x="111" y="-691.5" font-family="Helvetica,sans-Serif" font-size="10.00">+ RefreshGeometry()</text>
<text text-anchor="start" x="111" y="-680.5" font-family="Helvetica,sans-Serif" font-size="10.00">+ setObject1Id()</text>
<text text-anchor="start" x="111" y="-669.5" font-family="Helvetica,sans-Serif" font-size="10.00">+ setLineStyle()</text>
<text text-anchor="start" x="111" y="-658.5" font-family="Helvetica,sans-Serif" font-size="10.00">+ setLineWeight()</text>
<text text-anchor="start" x="111" y="-647.5" font-family="Helvetica,sans-Serif" font-size="10.00">+ setScenePos()</text>
<text text-anchor="start" x="111" y="-636.5" font-family="Helvetica,sans-Serif" font-size="10.00">+ VisualMode()</text>
<text text-anchor="start" x="111" y="-625.5" font-family="Helvetica,sans-Serif" font-size="10.00">+ setMainColor()</text>
<text text-anchor="start" x="111" y="-614.5" font-family="Helvetica,sans-Serif" font-size="10.00">+ getData()</text>
<text text-anchor="start" x="111" y="-603.5" font-family="Helvetica,sans-Serif" font-size="10.00">+ setData()</text>
<text text-anchor="start" x="111" y="-592.5" font-family="Helvetica,sans-Serif" font-size="10.00">+ GetMode()</text>
<text text-anchor="start" x="111" y="-581.5" font-family="Helvetica,sans-Serif" font-size="10.00">+ SetMode()</text>
<text text-anchor="start" x="111" y="-570.5" font-family="Helvetica,sans-Serif" font-size="10.00">+ CurrentToolTip()</text>
<text text-anchor="start" x="111" y="-559.5" font-family="Helvetica,sans-Serif" font-size="10.00">+ FindLength()</text>
<text text-anchor="start" x="111" y="-548.5" font-family="Helvetica,sans-Serif" font-size="10.00">+ FindVal()</text>
<text text-anchor="start" x="111" y="-537.5" font-family="Helvetica,sans-Serif" font-size="10.00">+ mousePos()</text>
<text text-anchor="start" x="111" y="-526.5" font-family="Helvetica,sans-Serif" font-size="10.00"># initPen()</text>
<text text-anchor="start" x="111" y="-515.5" font-family="Helvetica,sans-Serif" font-size="10.00"># AddOnScene()</text>
<text text-anchor="start" x="111" y="-504.5" font-family="Helvetica,sans-Serif" font-size="10.00"># InitPoint()</text>
<text text-anchor="start" x="111" y="-493.5" font-family="Helvetica,sans-Serif" font-size="10.00"># DrawPoint()</text>
<text text-anchor="start" x="111" y="-482.5" font-family="Helvetica,sans-Serif" font-size="10.00"># DrawLine()</text>
<text text-anchor="start" x="111" y="-471.5" font-family="Helvetica,sans-Serif" font-size="10.00"># DrawPath()</text>
<text text-anchor="start" x="111" y="-460.5" font-family="Helvetica,sans-Serif" font-size="10.00"># DrawPath()</text>
<text text-anchor="start" x="111" y="-449.5" font-family="Helvetica,sans-Serif" font-size="10.00"># drawArrowedLine()</text>
<text text-anchor="start" x="111" y="-438.5" font-family="Helvetica,sans-Serif" font-size="10.00"># drawArrow()</text>
<text text-anchor="start" x="111" y="-427.5" font-family="Helvetica,sans-Serif" font-size="10.00"># addItem()</text>
<text text-anchor="start" x="111" y="-416.5" font-family="Helvetica,sans-Serif" font-size="10.00"># InitItem()</text>
<text text-anchor="start" x="111" y="-405.5" font-family="Helvetica,sans-Serif" font-size="10.00"># GetPointItem()</text>
<text text-anchor="start" x="111" y="-394.5" font-family="Helvetica,sans-Serif" font-size="10.00">&#45; initPointItem()</text>
</a>
</g>
</g>
<!-- Node3&#45;&gt;Node2 -->
<g id="edge2" class="edge">
<title>Node3&#45;&gt;Node2</title>
<path fill="none" stroke="midnightblue" d="M229.26,-415.79C233.93,-405.91 238.85,-396.26 244,-387 251.2,-374.06 260.2,-361.08 269.42,-349.11"/>
<polygon fill="none" stroke="midnightblue" points="226.05,-414.37 225.03,-424.92 232.41,-417.32 226.05,-414.37"/>
</g>
<!-- Node4 -->
<g id="node4" class="node">
<title>Node4</title>
<g id="a_node4"><a xlink:title=" ">
<polygon fill="white" stroke="#bfbfbf" points="0,-1075.5 0,-1132.5 56,-1132.5 56,-1075.5 0,-1075.5"/>
<text text-anchor="middle" x="28" y="-1120.5" font-family="Helvetica,sans-Serif" font-size="10.00">QObject</text>
<polyline fill="none" stroke="#bfbfbf" points="0,-1113.5 56,-1113.5 "/>
<text text-anchor="middle" x="28" y="-1101.5" font-family="Helvetica,sans-Serif" font-size="10.00"> </text>
<polyline fill="none" stroke="#bfbfbf" points="0,-1094.5 56,-1094.5 "/>
<text text-anchor="middle" x="28" y="-1082.5" font-family="Helvetica,sans-Serif" font-size="10.00"> </text>
</a>
</g>
</g>
<!-- Node4&#45;&gt;Node3 -->
<g id="edge3" class="edge">
<title>Node4&#45;&gt;Node3</title>
<path fill="none" stroke="midnightblue" d="M32.45,-1065.09C38.02,-1021.79 48.82,-949.05 65,-888 75.4,-848.77 89.05,-807.22 102.87,-768.68"/>
<polygon fill="none" stroke="midnightblue" points="28.96,-1064.81 31.18,-1075.17 35.91,-1065.69 28.96,-1064.81"/>
</g>
<!-- Node5 -->
<g id="node5" class="node">
<title>Node5</title>
<g id="a_node5"><a xlink:href="../../d2/d83/classVContainer.html" target="_top" xlink:title="The VContainer class container of all variables.">
<polygon fill="white" stroke="black" points="74.5,-888.5 74.5,-1319.5 253.5,-1319.5 253.5,-888.5 74.5,-888.5"/>
<text text-anchor="middle" x="164" y="-1307.5" font-family="Helvetica,sans-Serif" font-size="10.00">VContainer</text>
<polyline fill="none" stroke="black" points="74.5,-1300.5 253.5,-1300.5 "/>
<text text-anchor="start" x="82.5" y="-1288.5" font-family="Helvetica,sans-Serif" font-size="10.00">&#45; d</text>
<text text-anchor="start" x="82.5" y="-1277.5" font-family="Helvetica,sans-Serif" font-size="10.00">&#45; _id</text>
<text text-anchor="start" x="82.5" y="-1266.5" font-family="Helvetica,sans-Serif" font-size="10.00">&#45; _size</text>
<text text-anchor="start" x="82.5" y="-1255.5" font-family="Helvetica,sans-Serif" font-size="10.00">&#45; _height</text>
<text text-anchor="start" x="82.5" y="-1244.5" font-family="Helvetica,sans-Serif" font-size="10.00">&#45; uniqueNames</text>
<polyline fill="none" stroke="black" points="74.5,-1237.5 253.5,-1237.5 "/>
<text text-anchor="start" x="82.5" y="-1225.5" font-family="Helvetica,sans-Serif" font-size="10.00">+ VContainer()</text>
<text text-anchor="start" x="82.5" y="-1214.5" font-family="Helvetica,sans-Serif" font-size="10.00">+ VContainer()</text>
<text text-anchor="start" x="82.5" y="-1203.5" font-family="Helvetica,sans-Serif" font-size="10.00">+ ~VContainer()</text>
<text text-anchor="start" x="82.5" y="-1192.5" font-family="Helvetica,sans-Serif" font-size="10.00">+ operator=()</text>
<text text-anchor="start" x="82.5" y="-1181.5" font-family="Helvetica,sans-Serif" font-size="10.00">+ Swap()</text>
<text text-anchor="start" x="82.5" y="-1170.5" font-family="Helvetica,sans-Serif" font-size="10.00">+ GeometricObject()</text>
<text text-anchor="start" x="82.5" y="-1159.5" font-family="Helvetica,sans-Serif" font-size="10.00">+ GetGObject()</text>
<text text-anchor="start" x="82.5" y="-1148.5" font-family="Helvetica,sans-Serif" font-size="10.00">+ GetPiece()</text>
<text text-anchor="start" x="82.5" y="-1137.5" font-family="Helvetica,sans-Serif" font-size="10.00">+ GetPiecePath()</text>
<text text-anchor="start" x="82.5" y="-1126.5" font-family="Helvetica,sans-Serif" font-size="10.00">+ GetVariable()</text>
<text text-anchor="start" x="82.5" y="-1115.5" font-family="Helvetica,sans-Serif" font-size="10.00">and 34 more...</text>
<text text-anchor="start" x="82.5" y="-1104.5" font-family="Helvetica,sans-Serif" font-size="10.00">+ GetFakeGObject()</text>
<text text-anchor="start" x="82.5" y="-1093.5" font-family="Helvetica,sans-Serif" font-size="10.00">+ getId()</text>
<text text-anchor="start" x="82.5" y="-1082.5" font-family="Helvetica,sans-Serif" font-size="10.00">+ getNextId()</text>
<text text-anchor="start" x="82.5" y="-1071.5" font-family="Helvetica,sans-Serif" font-size="10.00">+ UpdateId()</text>
<text text-anchor="start" x="82.5" y="-1060.5" font-family="Helvetica,sans-Serif" font-size="10.00">+ ClearUniqueNames()</text>
<text text-anchor="start" x="82.5" y="-1049.5" font-family="Helvetica,sans-Serif" font-size="10.00">+ ClearUniqueIncrementNames()</text>
<text text-anchor="start" x="82.5" y="-1038.5" font-family="Helvetica,sans-Serif" font-size="10.00">+ SetSize()</text>
<text text-anchor="start" x="82.5" y="-1027.5" font-family="Helvetica,sans-Serif" font-size="10.00">+ SetHeight()</text>
<text text-anchor="start" x="82.5" y="-1016.5" font-family="Helvetica,sans-Serif" font-size="10.00">+ size()</text>
<text text-anchor="start" x="82.5" y="-1005.5" font-family="Helvetica,sans-Serif" font-size="10.00">+ rsize()</text>
<text text-anchor="start" x="82.5" y="-994.5" font-family="Helvetica,sans-Serif" font-size="10.00">+ height()</text>
<text text-anchor="start" x="82.5" y="-983.5" font-family="Helvetica,sans-Serif" font-size="10.00">+ rheight()</text>
<text text-anchor="start" x="82.5" y="-972.5" font-family="Helvetica,sans-Serif" font-size="10.00">+ IsUnique()</text>
<text text-anchor="start" x="82.5" y="-961.5" font-family="Helvetica,sans-Serif" font-size="10.00">+ AllUniqueNames()</text>
<text text-anchor="start" x="82.5" y="-950.5" font-family="Helvetica,sans-Serif" font-size="10.00">&#45; AddCurve()</text>
<text text-anchor="start" x="82.5" y="-939.5" font-family="Helvetica,sans-Serif" font-size="10.00">&#45; qHash()</text>
<text text-anchor="start" x="82.5" y="-928.5" font-family="Helvetica,sans-Serif" font-size="10.00">&#45; GetObject()</text>
<text text-anchor="start" x="82.5" y="-917.5" font-family="Helvetica,sans-Serif" font-size="10.00">&#45; UpdateObject()</text>
<text text-anchor="start" x="82.5" y="-906.5" font-family="Helvetica,sans-Serif" font-size="10.00">&#45; DataVar()</text>
<text text-anchor="start" x="82.5" y="-895.5" font-family="Helvetica,sans-Serif" font-size="10.00">&#45; AddObject()</text>
</a>
</g>
</g>
<!-- Node5&#45;&gt;Node3 -->
<g id="edge4" class="edge">
<title>Node5&#45;&gt;Node3</title>
<path fill="none" stroke="#404040" d="M164,-888.25C164,-876.57 164,-864.81 164,-853.07"/>
<polygon fill="none" stroke="#404040" points="164,-852.84 160,-846.84 164,-840.84 168,-846.84 164,-852.84"/>
<text text-anchor="middle" x="181" y="-862" font-family="Helvetica,sans-Serif" font-size="10.00"> #data</text>
</g>
<!-- Node6 -->
<g id="node6" class="node">
<title>Node6</title>
<g id="a_node6"><a xlink:href="../../d3/d85/classVCurvePathItem.html" target="_top" xlink:title=" ">
<polygon fill="white" stroke="black" points="253.5,-541.5 253.5,-686.5 382.5,-686.5 382.5,-541.5 253.5,-541.5"/>
<text text-anchor="middle" x="318" y="-674.5" font-family="Helvetica,sans-Serif" font-size="10.00">VCurvePathItem</text>
<polyline fill="none" stroke="black" points="253.5,-667.5 382.5,-667.5 "/>
<text text-anchor="start" x="261.5" y="-655.5" font-family="Helvetica,sans-Serif" font-size="10.00">&#45; m_directionArrows</text>
<text text-anchor="start" x="261.5" y="-644.5" font-family="Helvetica,sans-Serif" font-size="10.00">&#45; m_points</text>
<polyline fill="none" stroke="black" points="253.5,-637.5 382.5,-637.5 "/>
<text text-anchor="start" x="261.5" y="-625.5" font-family="Helvetica,sans-Serif" font-size="10.00">+ VCurvePathItem()</text>
<text text-anchor="start" x="261.5" y="-614.5" font-family="Helvetica,sans-Serif" font-size="10.00">+ ~VCurvePathItem()</text>
<text text-anchor="start" x="261.5" y="-603.5" font-family="Helvetica,sans-Serif" font-size="10.00">+ shape()</text>
<text text-anchor="start" x="261.5" y="-592.5" font-family="Helvetica,sans-Serif" font-size="10.00">+ paint()</text>
<text text-anchor="start" x="261.5" y="-581.5" font-family="Helvetica,sans-Serif" font-size="10.00">+ type()</text>
<text text-anchor="start" x="261.5" y="-570.5" font-family="Helvetica,sans-Serif" font-size="10.00">+ SetDirectionArrows()</text>
<text text-anchor="start" x="261.5" y="-559.5" font-family="Helvetica,sans-Serif" font-size="10.00">+ SetPoints()</text>
<text text-anchor="start" x="261.5" y="-548.5" font-family="Helvetica,sans-Serif" font-size="10.00"># ScalePenWidth()</text>
</a>
</g>
</g>
<!-- Node6&#45;&gt;Node2 -->
<g id="edge5" class="edge">
<title>Node6&#45;&gt;Node2</title>
<path fill="none" stroke="midnightblue" d="M318,-531.05C318,-474.02 318,-399.53 318,-349.51"/>
<polygon fill="none" stroke="midnightblue" points="314.5,-531.13 318,-541.13 321.5,-531.13 314.5,-531.13"/>
</g>
<!-- Node7 -->
<g id="node7" class="node">
<title>Node7</title>
<g id="a_node7"><a xlink:title=" ">
<polygon fill="white" stroke="#bfbfbf" points="272,-1075.5 272,-1132.5 382,-1132.5 382,-1075.5 272,-1075.5"/>
<text text-anchor="middle" x="327" y="-1120.5" font-family="Helvetica,sans-Serif" font-size="10.00">QGraphicsPathItem</text>
<polyline fill="none" stroke="#bfbfbf" points="272,-1113.5 382,-1113.5 "/>
<text text-anchor="middle" x="327" y="-1101.5" font-family="Helvetica,sans-Serif" font-size="10.00"> </text>
<polyline fill="none" stroke="#bfbfbf" points="272,-1094.5 382,-1094.5 "/>
<text text-anchor="middle" x="327" y="-1082.5" font-family="Helvetica,sans-Serif" font-size="10.00"> </text>
</a>
</g>
</g>
<!-- Node7&#45;&gt;Node6 -->
<g id="edge6" class="edge">
<title>Node7&#45;&gt;Node6</title>
<path fill="none" stroke="midnightblue" d="M326.3,-1065.11C324.8,-983.83 321.26,-791.64 319.32,-686.6"/>
<polygon fill="none" stroke="midnightblue" points="322.81,-1065.43 326.49,-1075.36 329.81,-1065.3 322.81,-1065.43"/>
</g>
<!-- Node8 -->
<g id="node8" class="node">
<title>Node8</title>
<g id="a_node8"><a xlink:href="../../d8/dbf/classVScaledEllipse.html" target="_top" xlink:title=" ">
<polygon fill="white" stroke="black" points="394.5,-248.5 394.5,-338.5 509.5,-338.5 509.5,-248.5 394.5,-248.5"/>
<text text-anchor="middle" x="452" y="-326.5" font-family="Helvetica,sans-Serif" font-size="10.00">VScaledEllipse</text>
<polyline fill="none" stroke="black" points="394.5,-319.5 509.5,-319.5 "/>
<text text-anchor="middle" x="452" y="-307.5" font-family="Helvetica,sans-Serif" font-size="10.00"> </text>
<polyline fill="none" stroke="black" points="394.5,-300.5 509.5,-300.5 "/>
<text text-anchor="start" x="402.5" y="-288.5" font-family="Helvetica,sans-Serif" font-size="10.00">+ VScaledEllipse()</text>
<text text-anchor="start" x="402.5" y="-277.5" font-family="Helvetica,sans-Serif" font-size="10.00">+ ~VScaledEllipse()</text>
<text text-anchor="start" x="402.5" y="-266.5" font-family="Helvetica,sans-Serif" font-size="10.00">+ type()</text>
<text text-anchor="start" x="402.5" y="-255.5" font-family="Helvetica,sans-Serif" font-size="10.00">+ paint()</text>
</a>
</g>
</g>
<!-- Node8&#45;&gt;Node1 -->
<g id="edge7" class="edge">
<title>Node8&#45;&gt;Node1</title>
<path fill="none" stroke="#404040" d="M437.86,-248.4C433.32,-234.24 428.08,-217.9 422.76,-201.29"/>
<polygon fill="none" stroke="#404040" points="422.73,-201.2 417.09,-196.71 419.06,-189.77 424.71,-194.27 422.73,-201.2"/>
<text text-anchor="middle" x="455.5" y="-211" font-family="Helvetica,sans-Serif" font-size="10.00"> &#45;arcCenter</text>
</g>
<!-- Node9 -->
<g id="node9" class="node">
<title>Node9</title>
<g id="a_node9"><a xlink:title=" ">
<polygon fill="white" stroke="#bfbfbf" points="401,-585.5 401,-642.5 523,-642.5 523,-585.5 401,-585.5"/>
<text text-anchor="middle" x="462" y="-630.5" font-family="Helvetica,sans-Serif" font-size="10.00">QGraphicsEllipseItem</text>
<polyline fill="none" stroke="#bfbfbf" points="401,-623.5 523,-623.5 "/>
<text text-anchor="middle" x="462" y="-611.5" font-family="Helvetica,sans-Serif" font-size="10.00"> </text>
<polyline fill="none" stroke="#bfbfbf" points="401,-604.5 523,-604.5 "/>
<text text-anchor="middle" x="462" y="-592.5" font-family="Helvetica,sans-Serif" font-size="10.00"> </text>
</a>
</g>
</g>
<!-- Node9&#45;&gt;Node8 -->
<g id="edge8" class="edge">
<title>Node9&#45;&gt;Node8</title>
<path fill="none" stroke="midnightblue" d="M460.81,-575.25C458.96,-516.05 455.36,-401.67 453.39,-338.71"/>
<polygon fill="none" stroke="midnightblue" points="457.32,-575.41 461.13,-585.29 464.31,-575.19 457.32,-575.41"/>
</g>
</g>
</svg>
