<?xml version="1.0" encoding="UTF-8" standalone="no"?>
<!-- Generator: Adobe Illustrator 19.0.0, SVG Export Plug-In . SVG Version: 6.00 Build 0)  -->

<svg
   xmlns:dc="http://purl.org/dc/elements/1.1/"
   xmlns:cc="http://creativecommons.org/ns#"
   xmlns:rdf="http://www.w3.org/1999/02/22-rdf-syntax-ns#"
   xmlns:svg="http://www.w3.org/2000/svg"
   xmlns="http://www.w3.org/2000/svg"
   xmlns:sodipodi="http://sodipodi.sourceforge.net/DTD/sodipodi-0.dtd"
   xmlns:inkscape="http://www.inkscape.org/namespaces/inkscape"
   version="1.1"
   id="Layer_1"
   x="0px"
   y="0px"
   viewBox="0 0 348.1 348.1"
   style="enable-background:new 0 0 348.1 348.1;"
   xml:space="preserve"
   sodipodi:docname="piece_label.svg"
   inkscape:export-filename="E:\Seamly\show_seam_allowance\piece_label@2x.png"
   inkscape:export-xdpi="17.650101"
   inkscape:export-ydpi="17.650101"
   inkscape:version="0.92.4 (5da689c313, 2019-01-14)"><metadata
     id="metadata43"><rdf:RDF><cc:Work
         rdf:about=""><dc:format>image/svg+xml</dc:format><dc:type
           rdf:resource="http://purl.org/dc/dcmitype/StillImage" /><dc:title /></cc:Work></rdf:RDF></metadata><defs
     id="defs41" /><sodipodi:namedview
     pagecolor="#ffffff"
     bordercolor="#666666"
     borderopacity="1"
     objecttolerance="10"
     gridtolerance="10"
     guidetolerance="10"
     inkscape:pageopacity="0"
     inkscape:pageshadow="2"
     inkscape:window-width="1366"
     inkscape:window-height="745"
     id="namedview39"
     showgrid="false"
     inkscape:zoom="0.65399908"
     inkscape:cx="267.08892"
     inkscape:cy="-91.0167"
     inkscape:window-x="-8"
     inkscape:window-y="-8"
     inkscape:window-maximized="1"
     inkscape:current-layer="Layer_1" /><path
     style="fill:#417de1;fill-opacity:1"
     d="M308.1,8.85h-108c-8.4,0-16.4,3.2-22.4,9.2L17.3,177.65c-12.4,12.4-12.4,32.8,0,45.2l107.2,107.2  c12.4,12.4,32.8,12.4,45.2,0l160.8-160.4c6-6,9.6-14,9.6-22.8v-106C340.1,23.25,325.7,8.85,308.1,8.85z M260.1,120.85  c-17.6,0-32-14.4-32-32s14.4-32,32-32s32,14.4,32,32S277.7,120.85,260.1,120.85z"
     id="path2" /><path
     style="fill:#416adf;fill-opacity:1"
     d="M334.1,22.05v64.8c0,9.6-4,18.8-10.4,25.6l-181.6,180.8c-14,14-36.8,14-50.8,0l-81.2-81.2  c1.6,4,4,8,7.2,11.2l107.2,107.2c12.4,12.4,32.8,12.4,45.2,0l160.8-160.4c6-6,9.6-14,9.6-22.8V40.85  C340.1,34.05,337.7,27.65,334.1,22.05z"
     id="path4" /><path
     style="fill:#000000;fill-opacity:1"
     d="M147.3,347.25c-10.8,0-20.8-4-28.4-11.6L11.7,228.45c-15.6-15.6-15.6-40.8,0-56.4l160.4-159.6  c7.6-7.6,17.2-11.6,28-11.6h108c22,0,40,18,40,40v106c0,10.8-4.4,20.8-12,28.4l-160.8,160.4C167.7,343.25,157.7,347.25,147.3,347.25  z M200.1,16.85c-6.4,0-12.4,2.4-16.8,6.8L22.9,183.25c-9.2,9.2-9.2,24.4,0,34l107.2,107.2c4.4,4.4,10.4,6.8,16.8,6.8  s12.4-2.4,16.8-6.8l160.8-160.4c4.8-4.8,7.2-10.8,7.2-17.2v-106c0-13.2-10.8-24-24-24H200.1z M260.1,128.85c-22,0-40-18-40-40  s18-40,40-40s40,18,40,40S282.1,128.85,260.1,128.85z M260.1,64.85c-13.2,0-24,10.8-24,24s10.8,24,24,24s24-10.8,24-24  S273.3,64.85,260.1,64.85z"
     id="path6" /><g
     id="g8" /><g
     id="g10" /><g
     id="g12" /><g
     id="g14" /><g
     id="g16" /><g
     id="g18" /><g
     id="g20" /><g
     id="g22" /><g
     id="g24" /><g
     id="g26" /><g
     id="g28" /><g
     id="g30" /><g
     id="g32" /><g
     id="g34" /><g
     id="g36" /><path
     style="fill:#c5d8ef;fill-opacity:1;fill-rule:evenodd;stroke:#000000;stroke-width:9.22180748;stroke-linecap:butt;stroke-linejoin:round;stroke-miterlimit:4;stroke-dasharray:none;stroke-opacity:1"
     d="m 244.65984,197.36915 c -12.41966,-17.2608 -12.98671,-29.64245 -3.45343,-43.34481 l -68.89162,-29.30595 c -10.18528,28.19744 -34.77072,66.08811 -71.98404,28.94832 l -50.606373,40.3265 47.132949,51.38427 54.909534,-22.6463 -25.74911,48.17395 25.56965,20.90371 z"
     id="path8501"
     inkscape:connector-curvature="0"
     sodipodi:nodetypes="cccccccccc" /></svg>