<?xml version="1.0" encoding="UTF-8" standalone="no"?>
<!DOCTYPE svg PUBLIC "-//W3C//DTD SVG 1.1//EN"
 "http://www.w3.org/Graphics/SVG/1.1/DTD/svg11.dtd">
<!-- Generated by graphviz version 2.43.0 (0)
 -->
<!-- Title: src/libs/vpropertyexplorer/plugins/vnumberproperty.cpp Pages: 1 -->
<!--zoomable 207 -->
<svg id="main" version="1.1" xmlns="http://www.w3.org/2000/svg" xmlns:xlink="http://www.w3.org/1999/xlink" xml:space="preserve" onload="init(evt)">
<style type="text/css"><![CDATA[
.edge:hover path { stroke: red; }
.edge:hover polygon { stroke: red; fill: red; }
]]></style>
<script type="text/javascript"><![CDATA[
var edges = document.getElementsByTagName('g');
if (edges && edges.length) {
  for (var i=0;i<edges.length;i++) {
    if (edges[i].id.substr(0,4)=='edge') {
      edges[i].setAttribute('class','edge');
    }
  }
}
]]></script>
        <defs>
                <circle id="rim" cx="0" cy="0" r="7"/>
                <circle id="rim2" cx="0" cy="0" r="3.5"/>
                <g id="zoomPlus">
                        <use xlink:href="#rim" fill="#404040">
                                <set attributeName="fill" to="#808080" begin="zoomplus.mouseover" end="zoomplus.mouseout"/>
                        </use>
                        <path d="M-4,0h8M0,-4v8" fill="none" stroke="white" stroke-width="1.5" pointer-events="none"/>
                </g>
                <g id="zoomMin">
                        <use xlink:href="#rim" fill="#404040">
                                <set attributeName="fill" to="#808080" begin="zoomminus.mouseover" end="zoomminus.mouseout"/>
                        </use>
                        <path d="M-4,0h8" fill="none" stroke="white" stroke-width="1.5" pointer-events="none"/>
                </g>
                <g id="dirArrow">
                        <path fill="none" stroke="white" stroke-width="1.5" d="M0,-3.0v7 M-2.5,-0.5L0,-3.0L2.5,-0.5"/>
                </g>
               <g id="resetDef">
                       <use xlink:href="#rim2" fill="#404040">
                               <set attributeName="fill" to="#808080" begin="reset.mouseover" end="reset.mouseout"/>
                       </use>
               </g>
        </defs>

<script type="text/javascript">
var viewWidth = 1543;
var viewHeight = 207;
var sectionId = 'dynsection-0';
</script>
<script xlink:href="../../svgpan.js"/>
<svg id="graph" class="graph">
<g id="viewport">
<title>src/libs/vpropertyexplorer/plugins/vnumberproperty.cpp</title>
<polygon fill="white" stroke="transparent" points="-4,4 -4,-203 1539,-203 1539,4 -4,4"/>
<!-- Node1 -->
<g id="node1" class="node">
<title>Node1</title>
<g id="a_node1"><a xlink:title=" ">
<polygon fill="#bfbfbf" stroke="black" points="1087,-168.5 1087,-198.5 1248,-198.5 1248,-168.5 1087,-168.5"/>
<text text-anchor="start" x="1095" y="-186.5" font-family="Helvetica,sans-Serif" font-size="10.00">src/libs/vpropertyexplorer</text>
<text text-anchor="middle" x="1167.5" y="-175.5" font-family="Helvetica,sans-Serif" font-size="10.00">/plugins/vnumberproperty.cpp</text>
</a>
</g>
</g>
<!-- Node2 -->
<g id="node2" class="node">
<title>Node2</title>
<g id="a_node2"><a xlink:href="../../d1/d9f/vnumberproperty_8h.html" target="_top" xlink:title=" ">
<polygon fill="white" stroke="black" points="408,-112.5 408,-131.5 517,-131.5 517,-112.5 408,-112.5"/>
<text text-anchor="middle" x="462.5" y="-119.5" font-family="Helvetica,sans-Serif" font-size="10.00">vnumberproperty.h</text>
</a>
</g>
</g>
<!-- Node1&#45;&gt;Node2 -->
<g id="edge1" class="edge">
<title>Node1&#45;&gt;Node2</title>
<path fill="none" stroke="midnightblue" d="M1086.97,-175.7C945.91,-163.8 656.86,-139.4 527.55,-128.49"/>
<polygon fill="midnightblue" stroke="midnightblue" points="527.66,-124.99 517.4,-127.63 527.07,-131.96 527.66,-124.99"/>
</g>
<!-- Node18 -->
<g id="node18" class="node">
<title>Node18</title>
<g id="a_node18"><a xlink:title=" ">
<polygon fill="white" stroke="#bfbfbf" points="890,-112.5 890,-131.5 991,-131.5 991,-112.5 890,-112.5"/>
<text text-anchor="middle" x="940.5" y="-119.5" font-family="Helvetica,sans-Serif" font-size="10.00">QCoreApplication</text>
</a>
</g>
</g>
<!-- Node1&#45;&gt;Node18 -->
<g id="edge26" class="edge">
<title>Node1&#45;&gt;Node18</title>
<path fill="none" stroke="midnightblue" d="M1113.99,-168.47C1073.97,-157.99 1019.99,-143.84 982.93,-134.12"/>
<polygon fill="midnightblue" stroke="midnightblue" points="983.51,-130.66 972.95,-131.51 981.74,-137.43 983.51,-130.66"/>
</g>
<!-- Node19 -->
<g id="node19" class="node">
<title>Node19</title>
<g id="a_node19"><a xlink:title=" ">
<polygon fill="white" stroke="#bfbfbf" points="1009.5,-112.5 1009.5,-131.5 1107.5,-131.5 1107.5,-112.5 1009.5,-112.5"/>
<text text-anchor="middle" x="1058.5" y="-119.5" font-family="Helvetica,sans-Serif" font-size="10.00">QDoubleSpinBox</text>
</a>
</g>
</g>
<!-- Node1&#45;&gt;Node19 -->
<g id="edge27" class="edge">
<title>Node1&#45;&gt;Node19</title>
<path fill="none" stroke="midnightblue" d="M1141.67,-168.4C1124.03,-158.77 1100.8,-146.09 1083.37,-136.58"/>
<polygon fill="midnightblue" stroke="midnightblue" points="1084.81,-133.38 1074.36,-131.66 1081.46,-139.52 1084.81,-133.38"/>
</g>
<!-- Node20 -->
<g id="node20" class="node">
<title>Node20</title>
<g id="a_node20"><a xlink:title=" ">
<polygon fill="white" stroke="#bfbfbf" points="1126,-112.5 1126,-131.5 1209,-131.5 1209,-112.5 1126,-112.5"/>
<text text-anchor="middle" x="1167.5" y="-119.5" font-family="Helvetica,sans-Serif" font-size="10.00">QLatin1String</text>
</a>
</g>
</g>
<!-- Node1&#45;&gt;Node20 -->
<g id="edge28" class="edge">
<title>Node1&#45;&gt;Node20</title>
<path fill="none" stroke="midnightblue" d="M1167.5,-168.4C1167.5,-160.47 1167.5,-150.46 1167.5,-141.86"/>
<polygon fill="midnightblue" stroke="midnightblue" points="1171,-141.66 1167.5,-131.66 1164,-141.66 1171,-141.66"/>
</g>
<!-- Node21 -->
<g id="node21" class="node">
<title>Node21</title>
<g id="a_node21"><a xlink:title=" ">
<polygon fill="white" stroke="#bfbfbf" points="1227.5,-112.5 1227.5,-131.5 1283.5,-131.5 1283.5,-112.5 1227.5,-112.5"/>
<text text-anchor="middle" x="1255.5" y="-119.5" font-family="Helvetica,sans-Serif" font-size="10.00">QLocale</text>
</a>
</g>
</g>
<!-- Node1&#45;&gt;Node21 -->
<g id="edge29" class="edge">
<title>Node1&#45;&gt;Node21</title>
<path fill="none" stroke="midnightblue" d="M1188.35,-168.4C1202.2,-159.04 1220.31,-146.79 1234.24,-137.38"/>
<polygon fill="midnightblue" stroke="midnightblue" points="1236.37,-140.16 1242.7,-131.66 1232.45,-134.36 1236.37,-140.16"/>
</g>
<!-- Node22 -->
<g id="node22" class="node">
<title>Node22</title>
<g id="a_node22"><a xlink:title=" ">
<polygon fill="white" stroke="#bfbfbf" points="1301.5,-112.5 1301.5,-131.5 1375.5,-131.5 1375.5,-112.5 1301.5,-112.5"/>
<text text-anchor="middle" x="1338.5" y="-119.5" font-family="Helvetica,sans-Serif" font-size="10.00">QSizePolicy</text>
</a>
</g>
</g>
<!-- Node1&#45;&gt;Node22 -->
<g id="edge30" class="edge">
<title>Node1&#45;&gt;Node22</title>
<path fill="none" stroke="midnightblue" d="M1208.02,-168.4C1237.23,-158.24 1276.22,-144.67 1303.95,-135.02"/>
<polygon fill="midnightblue" stroke="midnightblue" points="1305.32,-138.25 1313.62,-131.66 1303.02,-131.64 1305.32,-138.25"/>
</g>
<!-- Node23 -->
<g id="node23" class="node">
<title>Node23</title>
<g id="a_node23"><a xlink:title=" ">
<polygon fill="white" stroke="#bfbfbf" points="1393.5,-112.5 1393.5,-131.5 1457.5,-131.5 1457.5,-112.5 1393.5,-112.5"/>
<text text-anchor="middle" x="1425.5" y="-119.5" font-family="Helvetica,sans-Serif" font-size="10.00">QSpinBox</text>
</a>
</g>
</g>
<!-- Node1&#45;&gt;Node23 -->
<g id="edge31" class="edge">
<title>Node1&#45;&gt;Node23</title>
<path fill="none" stroke="midnightblue" d="M1228.32,-168.47C1276.07,-157.46 1341.33,-142.41 1383.45,-132.7"/>
<polygon fill="midnightblue" stroke="midnightblue" points="1384.41,-136.07 1393.37,-130.41 1382.84,-129.25 1384.41,-136.07"/>
</g>
<!-- Node24 -->
<g id="node24" class="node">
<title>Node24</title>
<g id="a_node24"><a xlink:title=" ">
<polygon fill="white" stroke="#bfbfbf" points="1476,-112.5 1476,-131.5 1535,-131.5 1535,-112.5 1476,-112.5"/>
<text text-anchor="middle" x="1505.5" y="-119.5" font-family="Helvetica,sans-Serif" font-size="10.00">QWidget</text>
</a>
</g>
</g>
<!-- Node1&#45;&gt;Node24 -->
<g id="edge32" class="edge">
<title>Node1&#45;&gt;Node24</title>
<path fill="none" stroke="midnightblue" d="M1248.01,-170.23C1305.85,-161.11 1385.91,-147.85 1465.52,-132.1"/>
<polygon fill="midnightblue" stroke="midnightblue" points="1466.61,-135.45 1475.73,-130.06 1465.24,-128.58 1466.61,-135.45"/>
</g>
<!-- Node25 -->
<g id="node25" class="node">
<title>Node25</title>
<g id="a_node25"><a xlink:href="../../d1/de6/vproperty__p_8h.html" target="_top" xlink:title=" ">
<polygon fill="white" stroke="black" points="779,-112.5 779,-131.5 872,-131.5 872,-112.5 779,-112.5"/>
<text text-anchor="middle" x="825.5" y="-119.5" font-family="Helvetica,sans-Serif" font-size="10.00">../vproperty_p.h</text>
</a>
</g>
</g>
<!-- Node1&#45;&gt;Node25 -->
<g id="edge33" class="edge">
<title>Node1&#45;&gt;Node25</title>
<path fill="none" stroke="midnightblue" d="M1086.88,-168.47C1024.05,-157.54 938.36,-142.63 882.49,-132.92"/>
<polygon fill="midnightblue" stroke="midnightblue" points="882.87,-129.43 872.42,-131.16 881.67,-136.33 882.87,-129.43"/>
</g>
<!-- Node3 -->
<g id="node3" class="node">
<title>Node3</title>
<g id="a_node3"><a xlink:title=" ">
<polygon fill="white" stroke="#bfbfbf" points="151.5,-0.5 151.5,-19.5 271.5,-19.5 271.5,-0.5 151.5,-0.5"/>
<text text-anchor="middle" x="211.5" y="-7.5" font-family="Helvetica,sans-Serif" font-size="10.00">qcompilerdetection.h</text>
</a>
</g>
</g>
<!-- Node2&#45;&gt;Node3 -->
<g id="edge2" class="edge">
<title>Node2&#45;&gt;Node3</title>
<path fill="none" stroke="midnightblue" d="M447.24,-112.47C417.55,-95.92 354.01,-60.62 343.5,-56 313.14,-42.65 277.47,-30.7 250.87,-22.48"/>
<polygon fill="midnightblue" stroke="midnightblue" points="251.73,-19.08 241.15,-19.51 249.69,-25.78 251.73,-19.08"/>
</g>
<!-- Node4 -->
<g id="node4" class="node">
<title>Node4</title>
<g id="a_node4"><a xlink:title=" ">
<polygon fill="white" stroke="#bfbfbf" points="245.5,-56.5 245.5,-75.5 301.5,-75.5 301.5,-56.5 245.5,-56.5"/>
<text text-anchor="middle" x="273.5" y="-63.5" font-family="Helvetica,sans-Serif" font-size="10.00">stddef.h</text>
</a>
</g>
</g>
<!-- Node2&#45;&gt;Node4 -->
<g id="edge3" class="edge">
<title>Node2&#45;&gt;Node4</title>
<path fill="none" stroke="midnightblue" d="M432.55,-112.44C399.87,-103.11 347.45,-88.13 311.8,-77.94"/>
<polygon fill="midnightblue" stroke="midnightblue" points="312.34,-74.46 301.76,-75.08 310.42,-81.19 312.34,-74.46"/>
</g>
<!-- Node5 -->
<g id="node5" class="node">
<title>Node5</title>
<g id="a_node5"><a xlink:title=" ">
<polygon fill="white" stroke="#bfbfbf" points="290,-0.5 290,-19.5 335,-19.5 335,-0.5 290,-0.5"/>
<text text-anchor="middle" x="312.5" y="-7.5" font-family="Helvetica,sans-Serif" font-size="10.00">QMap</text>
</a>
</g>
</g>
<!-- Node2&#45;&gt;Node5 -->
<g id="edge4" class="edge">
<title>Node2&#45;&gt;Node5</title>
<path fill="none" stroke="midnightblue" d="M452.27,-112.25C437.15,-99.44 407.78,-75.04 381.5,-56 366.45,-45.09 348.89,-33.66 335.25,-25.04"/>
<polygon fill="midnightblue" stroke="midnightblue" points="336.85,-21.92 326.52,-19.57 333.13,-27.85 336.85,-21.92"/>
</g>
<!-- Node6 -->
<g id="node6" class="node">
<title>Node6</title>
<g id="a_node6"><a xlink:title=" ">
<polygon fill="white" stroke="#bfbfbf" points="441.5,-0.5 441.5,-19.5 521.5,-19.5 521.5,-0.5 441.5,-0.5"/>
<text text-anchor="middle" x="481.5" y="-7.5" font-family="Helvetica,sans-Serif" font-size="10.00">QMetaObject</text>
</a>
</g>
</g>
<!-- Node2&#45;&gt;Node6 -->
<g id="edge5" class="edge">
<title>Node2&#45;&gt;Node6</title>
<path fill="none" stroke="midnightblue" d="M463.99,-112.37C467.06,-94.62 474.13,-53.67 478.29,-29.6"/>
<polygon fill="midnightblue" stroke="midnightblue" points="481.76,-30.04 480.02,-19.59 474.86,-28.85 481.76,-30.04"/>
</g>
<!-- Node7 -->
<g id="node7" class="node">
<title>Node7</title>
<g id="a_node7"><a xlink:title=" ">
<polygon fill="white" stroke="#bfbfbf" points="77.5,-0.5 77.5,-19.5 133.5,-19.5 133.5,-0.5 77.5,-0.5"/>
<text text-anchor="middle" x="105.5" y="-7.5" font-family="Helvetica,sans-Serif" font-size="10.00">QObject</text>
</a>
</g>
</g>
<!-- Node2&#45;&gt;Node7 -->
<g id="edge6" class="edge">
<title>Node2&#45;&gt;Node7</title>
<path fill="none" stroke="midnightblue" d="M435.44,-112.35C410.93,-104.15 374.08,-90.89 343.5,-76 328.08,-68.49 326.44,-62.33 310.5,-56 242.44,-28.98 218.87,-36.33 143.7,-20.17"/>
<polygon fill="midnightblue" stroke="midnightblue" points="144.28,-16.71 133.76,-17.96 142.77,-23.55 144.28,-16.71"/>
</g>
<!-- Node8 -->
<g id="node8" class="node">
<title>Node8</title>
<g id="a_node8"><a xlink:title=" ">
<polygon fill="white" stroke="#bfbfbf" points="1140,-0.5 1140,-19.5 1193,-19.5 1193,-0.5 1140,-0.5"/>
<text text-anchor="middle" x="1166.5" y="-7.5" font-family="Helvetica,sans-Serif" font-size="10.00">QString</text>
</a>
</g>
</g>
<!-- Node2&#45;&gt;Node8 -->
<g id="edge7" class="edge">
<title>Node2&#45;&gt;Node8</title>
<path fill="none" stroke="midnightblue" d="M517.13,-115.15C630.17,-102.54 897.93,-69.98 1129.83,-20.24"/>
<polygon fill="midnightblue" stroke="midnightblue" points="1130.76,-23.62 1139.8,-18.09 1129.28,-16.78 1130.76,-23.62"/>
</g>
<!-- Node9 -->
<g id="node9" class="node">
<title>Node9</title>
<g id="a_node9"><a xlink:title=" ">
<polygon fill="white" stroke="#bfbfbf" points="353.5,-0.5 353.5,-19.5 423.5,-19.5 423.5,-0.5 353.5,-0.5"/>
<text text-anchor="middle" x="388.5" y="-7.5" font-family="Helvetica,sans-Serif" font-size="10.00">QStringList</text>
</a>
</g>
</g>
<!-- Node2&#45;&gt;Node9 -->
<g id="edge8" class="edge">
<title>Node2&#45;&gt;Node9</title>
<path fill="none" stroke="midnightblue" d="M456.71,-112.13C448.5,-99.59 432.98,-75.96 419.5,-56 413.18,-46.65 406.04,-36.27 400.21,-27.84"/>
<polygon fill="midnightblue" stroke="midnightblue" points="403.07,-25.82 394.49,-19.59 397.32,-29.81 403.07,-25.82"/>
</g>
<!-- Node10 -->
<g id="node10" class="node">
<title>Node10</title>
<g id="a_node10"><a xlink:title=" ">
<polygon fill="white" stroke="#bfbfbf" points="539.5,-0.5 539.5,-19.5 667.5,-19.5 667.5,-0.5 539.5,-0.5"/>
<text text-anchor="middle" x="603.5" y="-7.5" font-family="Helvetica,sans-Serif" font-size="10.00">QStyleOptionViewItem</text>
</a>
</g>
</g>
<!-- Node2&#45;&gt;Node10 -->
<g id="edge9" class="edge">
<title>Node2&#45;&gt;Node10</title>
<path fill="none" stroke="midnightblue" d="M473.56,-112.37C497.55,-93.65 554.6,-49.15 584.49,-25.83"/>
<polygon fill="midnightblue" stroke="midnightblue" points="586.76,-28.5 592.49,-19.59 582.45,-22.98 586.76,-28.5"/>
</g>
<!-- Node11 -->
<g id="node11" class="node">
<title>Node11</title>
<g id="a_node11"><a xlink:title=" ">
<polygon fill="white" stroke="#bfbfbf" points="1063,-0.5 1063,-19.5 1122,-19.5 1122,-0.5 1063,-0.5"/>
<text text-anchor="middle" x="1092.5" y="-7.5" font-family="Helvetica,sans-Serif" font-size="10.00">QVariant</text>
</a>
</g>
</g>
<!-- Node2&#45;&gt;Node11 -->
<g id="edge10" class="edge">
<title>Node2&#45;&gt;Node11</title>
<path fill="none" stroke="midnightblue" d="M517.29,-112.72C620.18,-96.92 849.49,-60.62 1052.76,-20.05"/>
<polygon fill="midnightblue" stroke="midnightblue" points="1053.61,-23.45 1062.73,-18.06 1052.23,-16.59 1053.61,-23.45"/>
</g>
<!-- Node12 -->
<g id="node12" class="node">
<title>Node12</title>
<g id="a_node12"><a xlink:title=" ">
<polygon fill="white" stroke="#bfbfbf" points="0,-0.5 0,-19.5 59,-19.5 59,-0.5 0,-0.5"/>
<text text-anchor="middle" x="29.5" y="-7.5" font-family="Helvetica,sans-Serif" font-size="10.00">QtGlobal</text>
</a>
</g>
</g>
<!-- Node2&#45;&gt;Node12 -->
<g id="edge11" class="edge">
<title>Node2&#45;&gt;Node12</title>
<path fill="none" stroke="midnightblue" d="M411.43,-112.45C365.4,-104.36 295.99,-91.22 236.5,-76 174.77,-60.21 104.23,-36.91 63.49,-22.91"/>
<polygon fill="midnightblue" stroke="midnightblue" points="64.39,-19.52 53.79,-19.57 62.1,-26.14 64.39,-19.52"/>
</g>
<!-- Node13 -->
<g id="node13" class="node">
<title>Node13</title>
<g id="a_node13"><a xlink:href="../../d2/d6e/vproperty_8h.html" target="_top" xlink:title=" ">
<polygon fill="white" stroke="black" points="563.5,-56.5 563.5,-75.5 643.5,-75.5 643.5,-56.5 563.5,-56.5"/>
<text text-anchor="middle" x="603.5" y="-63.5" font-family="Helvetica,sans-Serif" font-size="10.00">../vproperty.h</text>
</a>
</g>
</g>
<!-- Node2&#45;&gt;Node13 -->
<g id="edge12" class="edge">
<title>Node2&#45;&gt;Node13</title>
<path fill="none" stroke="midnightblue" d="M484.84,-112.44C508.25,-103.48 545.24,-89.31 571.69,-79.18"/>
<polygon fill="midnightblue" stroke="midnightblue" points="573.18,-82.36 581.26,-75.52 570.67,-75.82 573.18,-82.36"/>
</g>
<!-- Node13&#45;&gt;Node3 -->
<g id="edge13" class="edge">
<title>Node13&#45;&gt;Node3</title>
<path fill="none" stroke="midnightblue" d="M563.39,-59.47C497.08,-50.34 363.78,-31.98 281.62,-20.66"/>
<polygon fill="midnightblue" stroke="midnightblue" points="282,-17.18 271.62,-19.28 281.04,-24.11 282,-17.18"/>
</g>
<!-- Node13&#45;&gt;Node5 -->
<g id="edge16" class="edge">
<title>Node13&#45;&gt;Node5</title>
<path fill="none" stroke="midnightblue" d="M563.32,-59.32C514.13,-52.08 428.14,-38.5 345.01,-19.91"/>
<polygon fill="midnightblue" stroke="midnightblue" points="345.68,-16.47 335.15,-17.68 344.13,-23.3 345.68,-16.47"/>
</g>
<!-- Node13&#45;&gt;Node6 -->
<g id="edge17" class="edge">
<title>Node13&#45;&gt;Node6</title>
<path fill="none" stroke="midnightblue" d="M584.17,-56.44C564.18,-47.6 532.76,-33.69 509.94,-23.59"/>
<polygon fill="midnightblue" stroke="midnightblue" points="511.3,-20.36 500.74,-19.52 508.47,-26.76 511.3,-20.36"/>
</g>
<!-- Node13&#45;&gt;Node7 -->
<g id="edge18" class="edge">
<title>Node13&#45;&gt;Node7</title>
<path fill="none" stroke="midnightblue" d="M563.48,-63C484.83,-58.66 304.5,-46.68 143.77,-19.99"/>
<polygon fill="midnightblue" stroke="midnightblue" points="144.14,-16.5 133.7,-18.29 142.98,-23.41 144.14,-16.5"/>
</g>
<!-- Node13&#45;&gt;Node8 -->
<g id="edge20" class="edge">
<title>Node13&#45;&gt;Node8</title>
<path fill="none" stroke="midnightblue" d="M643.53,-63.86C730.52,-60.91 943.35,-51.03 1129.86,-20.03"/>
<polygon fill="midnightblue" stroke="midnightblue" points="1130.57,-23.46 1139.85,-18.34 1129.4,-16.55 1130.57,-23.46"/>
</g>
<!-- Node13&#45;&gt;Node9 -->
<g id="edge21" class="edge">
<title>Node13&#45;&gt;Node9</title>
<path fill="none" stroke="midnightblue" d="M569.43,-56.44C532.32,-47.12 472.84,-32.18 432.29,-22"/>
<polygon fill="midnightblue" stroke="midnightblue" points="432.96,-18.56 422.41,-19.52 431.25,-25.35 432.96,-18.56"/>
</g>
<!-- Node13&#45;&gt;Node10 -->
<g id="edge22" class="edge">
<title>Node13&#45;&gt;Node10</title>
<path fill="none" stroke="midnightblue" d="M603.5,-56.08C603.5,-49.01 603.5,-38.86 603.5,-29.99"/>
<polygon fill="midnightblue" stroke="midnightblue" points="607,-29.75 603.5,-19.75 600,-29.75 607,-29.75"/>
</g>
<!-- Node13&#45;&gt;Node11 -->
<g id="edge23" class="edge">
<title>Node13&#45;&gt;Node11</title>
<path fill="none" stroke="midnightblue" d="M643.76,-62.7C721.04,-57.9 895.68,-45.28 1052.47,-19.96"/>
<polygon fill="midnightblue" stroke="midnightblue" points="1053.46,-23.34 1062.77,-18.27 1052.33,-16.43 1053.46,-23.34"/>
</g>
<!-- Node13&#45;&gt;Node12 -->
<g id="edge25" class="edge">
<title>Node13&#45;&gt;Node12</title>
<path fill="none" stroke="midnightblue" d="M563.33,-63.58C475.47,-60.06 259.53,-49.12 69.13,-19.86"/>
<polygon fill="midnightblue" stroke="midnightblue" points="69.64,-16.4 59.23,-18.32 68.57,-23.32 69.64,-16.4"/>
</g>
<!-- Node14 -->
<g id="node14" class="node">
<title>Node14</title>
<g id="a_node14"><a xlink:title=" ">
<polygon fill="white" stroke="#bfbfbf" points="843,-0.5 843,-19.5 974,-19.5 974,-0.5 843,-0.5"/>
<text text-anchor="middle" x="908.5" y="-7.5" font-family="Helvetica,sans-Serif" font-size="10.00">QAbstractItemDelegate</text>
</a>
</g>
</g>
<!-- Node13&#45;&gt;Node14 -->
<g id="edge14" class="edge">
<title>Node13&#45;&gt;Node14</title>
<path fill="none" stroke="midnightblue" d="M643.69,-57.88C696.52,-48.53 789.7,-32.03 850.26,-21.31"/>
<polygon fill="midnightblue" stroke="midnightblue" points="851.19,-24.7 860.43,-19.51 849.97,-17.81 851.19,-24.7"/>
</g>
<!-- Node15 -->
<g id="node15" class="node">
<title>Node15</title>
<g id="a_node15"><a xlink:title=" ">
<polygon fill="white" stroke="#bfbfbf" points="992.5,-0.5 992.5,-19.5 1044.5,-19.5 1044.5,-0.5 992.5,-0.5"/>
<text text-anchor="middle" x="1018.5" y="-7.5" font-family="Helvetica,sans-Serif" font-size="10.00">QEvent</text>
</a>
</g>
</g>
<!-- Node13&#45;&gt;Node15 -->
<g id="edge15" class="edge">
<title>Node13&#45;&gt;Node15</title>
<path fill="none" stroke="midnightblue" d="M643.7,-62.02C711.57,-56.6 853.3,-43.63 982.17,-20.03"/>
<polygon fill="midnightblue" stroke="midnightblue" points="983.02,-23.43 992.21,-18.16 981.74,-16.55 983.02,-23.43"/>
</g>
<!-- Node16 -->
<g id="node16" class="node">
<title>Node16</title>
<g id="a_node16"><a xlink:title=" ">
<polygon fill="white" stroke="#bfbfbf" points="685.5,-0.5 685.5,-19.5 777.5,-19.5 777.5,-0.5 685.5,-0.5"/>
<text text-anchor="middle" x="731.5" y="-7.5" font-family="Helvetica,sans-Serif" font-size="10.00">QSharedPointer</text>
</a>
</g>
</g>
<!-- Node13&#45;&gt;Node16 -->
<g id="edge19" class="edge">
<title>Node13&#45;&gt;Node16</title>
<path fill="none" stroke="midnightblue" d="M623.78,-56.44C644.85,-47.56 678.02,-33.56 701.99,-23.45"/>
<polygon fill="midnightblue" stroke="midnightblue" points="703.46,-26.63 711.31,-19.52 700.74,-20.18 703.46,-26.63"/>
</g>
<!-- Node17 -->
<g id="node17" class="node">
<title>Node17</title>
<g id="a_node17"><a xlink:title=" ">
<polygon fill="white" stroke="#bfbfbf" points="796,-0.5 796,-19.5 825,-19.5 825,-0.5 796,-0.5"/>
<text text-anchor="middle" x="810.5" y="-7.5" font-family="Helvetica,sans-Serif" font-size="10.00">Qt</text>
</a>
</g>
</g>
<!-- Node13&#45;&gt;Node17 -->
<g id="edge24" class="edge">
<title>Node13&#45;&gt;Node17</title>
<path fill="none" stroke="midnightblue" d="M643.85,-56.51C679.07,-48.78 731.67,-36.48 786.06,-19.84"/>
<polygon fill="midnightblue" stroke="midnightblue" points="787.36,-23.1 795.87,-16.8 785.28,-16.42 787.36,-23.1"/>
</g>
<!-- Node25&#45;&gt;Node8 -->
<g id="edge35" class="edge">
<title>Node25&#45;&gt;Node8</title>
<path fill="none" stroke="midnightblue" d="M854.3,-112.43C883.99,-103.53 931.58,-89.12 972.5,-76 1028.55,-58.04 1093.31,-36.1 1132.03,-22.85"/>
<polygon fill="midnightblue" stroke="midnightblue" points="1133.44,-26.07 1141.76,-19.52 1131.17,-19.45 1133.44,-26.07"/>
</g>
<!-- Node25&#45;&gt;Node11 -->
<g id="edge34" class="edge">
<title>Node25&#45;&gt;Node11</title>
<path fill="none" stroke="midnightblue" d="M846.45,-112.37C893.44,-93.01 1007.39,-46.06 1062.14,-23.51"/>
<polygon fill="midnightblue" stroke="midnightblue" points="1063.73,-26.64 1071.65,-19.59 1061.07,-20.16 1063.73,-26.64"/>
</g>
<!-- Node25&#45;&gt;Node13 -->
<g id="edge36" class="edge">
<title>Node25&#45;&gt;Node13</title>
<path fill="none" stroke="midnightblue" d="M790.32,-112.44C751.92,-103.1 690.32,-88.12 648.44,-77.93"/>
<polygon fill="midnightblue" stroke="midnightblue" points="649.06,-74.48 638.51,-75.52 647.4,-81.28 649.06,-74.48"/>
</g>
</g>
</svg>
        <g id="navigator" transform="translate(0 0)" fill="#404254">
                <rect fill="#f2f5e9" fill-opacity="0.5" stroke="#606060" stroke-width=".5" x="0" y="0" width="60" height="60"/>
                <use id="zoomplus" xlink:href="#zoomPlus" x="17" y="9" onmousedown="handleZoom(evt,'in')"/>
                <use id="zoomminus" xlink:href="#zoomMin" x="42" y="9" onmousedown="handleZoom(evt,'out')"/>
                <use id="reset" xlink:href="#resetDef" x="30" y="36" onmousedown="handleReset()"/>
                <g id="arrowUp" xlink:href="#dirArrow" transform="translate(30 24)" onmousedown="handlePan(0,-1)">
                  <use xlink:href="#rim" fill="#404040">
                        <set attributeName="fill" to="#808080" begin="arrowUp.mouseover" end="arrowUp.mouseout"/>
                  </use>
                  <path fill="none" stroke="white" stroke-width="1.5" d="M0,-3.0v7 M-2.5,-0.5L0,-3.0L2.5,-0.5"/>
                </g>
                <g id="arrowRight" xlink:href="#dirArrow" transform="rotate(90) translate(36 -43)" onmousedown="handlePan(1,0)">
                  <use xlink:href="#rim" fill="#404040">
                        <set attributeName="fill" to="#808080" begin="arrowRight.mouseover" end="arrowRight.mouseout"/>
                  </use>
                  <path fill="none" stroke="white" stroke-width="1.5" d="M0,-3.0v7 M-2.5,-0.5L0,-3.0L2.5,-0.5"/>
                </g>
                <g id="arrowDown" xlink:href="#dirArrow" transform="rotate(180) translate(-30 -48)" onmousedown="handlePan(0,1)">
                  <use xlink:href="#rim" fill="#404040">
                        <set attributeName="fill" to="#808080" begin="arrowDown.mouseover" end="arrowDown.mouseout"/>
                  </use>
                  <path fill="none" stroke="white" stroke-width="1.5" d="M0,-3.0v7 M-2.5,-0.5L0,-3.0L2.5,-0.5"/>
                </g>
                <g id="arrowLeft" xlink:href="#dirArrow" transform="rotate(270) translate(-36 17)" onmousedown="handlePan(-1,0)">
                  <use xlink:href="#rim" fill="#404040">
                        <set attributeName="fill" to="#808080" begin="arrowLeft.mouseover" end="arrowLeft.mouseout"/>
                  </use>
                  <path fill="none" stroke="white" stroke-width="1.5" d="M0,-3.0v7 M-2.5,-0.5L0,-3.0L2.5,-0.5"/>
                </g>
        </g>
        <svg viewBox="0 0 15 15" width="100%" height="30px" preserveAspectRatio="xMaxYMin meet">
         <g id="arrow_out" transform="scale(0.3 0.3)">
          <a xlink:href="vnumberproperty_8cpp__incl_org.svg" target="_base">
           <rect id="button" ry="5" rx="5" y="6" x="6" height="38" width="38"
                fill="#f2f5e9" fill-opacity="0.5" stroke="#606060" stroke-width="1.0"/>
           <path id="arrow"
             d="M 11.500037,31.436501 C 11.940474,20.09759 22.043105,11.32322 32.158766,21.979434 L 37.068811,17.246167 C 37.068811,17.246167 37.088388,32 37.088388,32 L 22.160133,31.978069 C 22.160133,31.978069 26.997745,27.140456 26.997745,27.140456 C 18.528582,18.264221 13.291696,25.230495 11.500037,31.436501 z"
             style="fill:#404040;"/>
          </a>
         </g>
        </svg>
</svg>
