<?xml version="1.0" encoding="UTF-8" standalone="no"?>
<!DOCTYPE svg PUBLIC "-//W3C//DTD SVG 1.1//EN"
 "http://www.w3.org/Graphics/SVG/1.1/DTD/svg11.dtd">
<!-- Generated by graphviz version 2.43.0 (0)
 -->
<!-- Title: VPE::VProperty Pages: 1 -->
<!--zoomable 508 -->
<svg id="main" version="1.1" xmlns="http://www.w3.org/2000/svg" xmlns:xlink="http://www.w3.org/1999/xlink" xml:space="preserve" onload="init(evt)">
<style type="text/css"><![CDATA[
.edge:hover path { stroke: red; }
.edge:hover polygon { stroke: red; fill: red; }
]]></style>
<script type="text/javascript"><![CDATA[
var edges = document.getElementsByTagName('g');
if (edges && edges.length) {
  for (var i=0;i<edges.length;i++) {
    if (edges[i].id.substr(0,4)=='edge') {
      edges[i].setAttribute('class','edge');
    }
  }
}
]]></script>
        <defs>
                <circle id="rim" cx="0" cy="0" r="7"/>
                <circle id="rim2" cx="0" cy="0" r="3.5"/>
                <g id="zoomPlus">
                        <use xlink:href="#rim" fill="#404040">
                                <set attributeName="fill" to="#808080" begin="zoomplus.mouseover" end="zoomplus.mouseout"/>
                        </use>
                        <path d="M-4,0h8M0,-4v8" fill="none" stroke="white" stroke-width="1.5" pointer-events="none"/>
                </g>
                <g id="zoomMin">
                        <use xlink:href="#rim" fill="#404040">
                                <set attributeName="fill" to="#808080" begin="zoomminus.mouseover" end="zoomminus.mouseout"/>
                        </use>
                        <path d="M-4,0h8" fill="none" stroke="white" stroke-width="1.5" pointer-events="none"/>
                </g>
                <g id="dirArrow">
                        <path fill="none" stroke="white" stroke-width="1.5" d="M0,-3.0v7 M-2.5,-0.5L0,-3.0L2.5,-0.5"/>
                </g>
               <g id="resetDef">
                       <use xlink:href="#rim2" fill="#404040">
                               <set attributeName="fill" to="#808080" begin="reset.mouseover" end="reset.mouseout"/>
                       </use>
               </g>
        </defs>

<script type="text/javascript">
var viewWidth = 300;
var viewHeight = 508;
var sectionId = 'dynsection-1';
</script>
<script xlink:href="../../svgpan.js"/>
<svg id="graph" class="graph">
<g id="viewport">
<title>VPE::VProperty</title>
<polygon fill="white" stroke="transparent" points="-4,4 -4,-504 295.5,-504 295.5,4 -4,4"/>
<!-- Node1 -->
<g id="node1" class="node">
<title>Node1</title>
<g id="a_node1"><a xlink:title=" ">
<polygon fill="#bfbfbf" stroke="black" points="163.5,-215.5 163.5,-404.5 291.5,-404.5 291.5,-215.5 163.5,-215.5"/>
<text text-anchor="middle" x="227.5" y="-392.5" font-family="Helvetica,sans-Serif" font-size="10.00">VPE::VProperty</text>
<polyline fill="none" stroke="black" points="163.5,-385.5 291.5,-385.5 "/>
<text text-anchor="middle" x="227.5" y="-373.5" font-family="Helvetica,sans-Serif" font-size="10.00"> </text>
<polyline fill="none" stroke="black" points="163.5,-366.5 291.5,-366.5 "/>
<text text-anchor="start" x="171.5" y="-354.5" font-family="Helvetica,sans-Serif" font-size="10.00">+ VProperty()</text>
<text text-anchor="start" x="171.5" y="-343.5" font-family="Helvetica,sans-Serif" font-size="10.00">+ ~VProperty()</text>
<text text-anchor="start" x="171.5" y="-332.5" font-family="Helvetica,sans-Serif" font-size="10.00">+ type()</text>
<text text-anchor="start" x="171.5" y="-321.5" font-family="Helvetica,sans-Serif" font-size="10.00">+ data()</text>
<text text-anchor="start" x="171.5" y="-310.5" font-family="Helvetica,sans-Serif" font-size="10.00">+ setData()</text>
<text text-anchor="start" x="171.5" y="-299.5" font-family="Helvetica,sans-Serif" font-size="10.00">+ paint()</text>
<text text-anchor="start" x="171.5" y="-288.5" font-family="Helvetica,sans-Serif" font-size="10.00">+ createEditor()</text>
<text text-anchor="start" x="171.5" y="-277.5" font-family="Helvetica,sans-Serif" font-size="10.00">+ setEditorData()</text>
<text text-anchor="start" x="171.5" y="-266.5" font-family="Helvetica,sans-Serif" font-size="10.00">+ getEditorData()</text>
<text text-anchor="start" x="171.5" y="-255.5" font-family="Helvetica,sans-Serif" font-size="10.00">+ flags()</text>
<text text-anchor="start" x="171.5" y="-244.5" font-family="Helvetica,sans-Serif" font-size="10.00">and 29 more...</text>
<text text-anchor="start" x="171.5" y="-233.5" font-family="Helvetica,sans-Serif" font-size="10.00">+ childValueChanged()</text>
<text text-anchor="start" x="171.5" y="-222.5" font-family="Helvetica,sans-Serif" font-size="10.00"># VProperty()</text>
</a>
</g>
</g>
<!-- Node3 -->
<g id="node3" class="node">
<title>Node3</title>
<g id="a_node3"><a xlink:href="../../db/d53/classVPE_1_1VPropertyPrivate.html" target="_top" xlink:title=" ">
<polygon fill="white" stroke="black" points="98.5,-0.5 98.5,-167.5 224.5,-167.5 224.5,-0.5 98.5,-0.5"/>
<text text-anchor="middle" x="161.5" y="-155.5" font-family="Helvetica,sans-Serif" font-size="10.00">VPE::VPropertyPrivate</text>
<polyline fill="none" stroke="black" points="98.5,-148.5 224.5,-148.5 "/>
<text text-anchor="start" x="106.5" y="-136.5" font-family="Helvetica,sans-Serif" font-size="10.00">+ VariantValue</text>
<text text-anchor="start" x="106.5" y="-125.5" font-family="Helvetica,sans-Serif" font-size="10.00">+ Name</text>
<text text-anchor="start" x="106.5" y="-114.5" font-family="Helvetica,sans-Serif" font-size="10.00">+ Description</text>
<text text-anchor="start" x="106.5" y="-103.5" font-family="Helvetica,sans-Serif" font-size="10.00">+ IsEmpty</text>
<text text-anchor="start" x="106.5" y="-92.5" font-family="Helvetica,sans-Serif" font-size="10.00">+ PropertyVariantType</text>
<text text-anchor="start" x="106.5" y="-81.5" font-family="Helvetica,sans-Serif" font-size="10.00">+ updateParent</text>
<text text-anchor="start" x="106.5" y="-70.5" font-family="Helvetica,sans-Serif" font-size="10.00">+ UpdateChildren</text>
<text text-anchor="start" x="106.5" y="-59.5" font-family="Helvetica,sans-Serif" font-size="10.00">+ editor</text>
<text text-anchor="start" x="106.5" y="-48.5" font-family="Helvetica,sans-Serif" font-size="10.00">+ type</text>
<polyline fill="none" stroke="black" points="98.5,-41.5 224.5,-41.5 "/>
<text text-anchor="start" x="106.5" y="-29.5" font-family="Helvetica,sans-Serif" font-size="10.00">+ VPropertyPrivate()</text>
<text text-anchor="start" x="106.5" y="-18.5" font-family="Helvetica,sans-Serif" font-size="10.00">+ VPropertyPrivate()</text>
<text text-anchor="start" x="106.5" y="-7.5" font-family="Helvetica,sans-Serif" font-size="10.00">+ ~VPropertyPrivate()</text>
</a>
</g>
</g>
<!-- Node1&#45;&gt;Node3 -->
<g id="edge4" class="edge">
<title>Node1&#45;&gt;Node3</title>
<path fill="none" stroke="#404040" d="M164.94,-215.37C162.43,-209.3 160.24,-203.15 158.5,-197 156.93,-191.44 155.76,-185.67 154.92,-179.8"/>
<polygon fill="none" stroke="#404040" points="154.9,-179.61 150.3,-174.06 153.65,-167.67 158.25,-173.22 154.9,-179.61"/>
<text text-anchor="middle" x="180" y="-189" font-family="Helvetica,sans-Serif" font-size="10.00"> +Parent</text>
</g>
<!-- Node2 -->
<g id="node2" class="node">
<title>Node2</title>
<g id="a_node2"><a xlink:title=" ">
<polygon fill="white" stroke="#bfbfbf" points="199.5,-442.5 199.5,-499.5 255.5,-499.5 255.5,-442.5 199.5,-442.5"/>
<text text-anchor="middle" x="227.5" y="-487.5" font-family="Helvetica,sans-Serif" font-size="10.00">QObject</text>
<polyline fill="none" stroke="#bfbfbf" points="199.5,-480.5 255.5,-480.5 "/>
<text text-anchor="middle" x="227.5" y="-468.5" font-family="Helvetica,sans-Serif" font-size="10.00"> </text>
<polyline fill="none" stroke="#bfbfbf" points="199.5,-461.5 255.5,-461.5 "/>
<text text-anchor="middle" x="227.5" y="-449.5" font-family="Helvetica,sans-Serif" font-size="10.00"> </text>
</a>
</g>
</g>
<!-- Node2&#45;&gt;Node1 -->
<g id="edge1" class="edge">
<title>Node2&#45;&gt;Node1</title>
<path fill="none" stroke="midnightblue" d="M227.5,-432.08C227.5,-423.6 227.5,-414.24 227.5,-404.6"/>
<polygon fill="none" stroke="midnightblue" points="224,-432.3 227.5,-442.3 231,-432.3 224,-432.3"/>
</g>
<!-- Node3&#45;&gt;Node1 -->
<g id="edge2" class="edge">
<title>Node3&#45;&gt;Node1</title>
<path fill="none" stroke="#404040" d="M199.33,-167.65C201.58,-173.8 203.67,-179.96 205.5,-186 207.24,-191.76 208.87,-197.71 210.37,-203.75"/>
<polygon fill="none" stroke="#404040" points="210.38,-203.76 215.65,-208.68 213.14,-215.44 207.86,-210.52 210.38,-203.76"/>
<text text-anchor="middle" x="226" y="-189" font-family="Helvetica,sans-Serif" font-size="10.00"> #d_ptr</text>
</g>
<!-- Node4 -->
<g id="node4" class="node">
<title>Node4</title>
<g id="a_node4"><a xlink:href="../../d1/d4a/classQList.html" target="_top" xlink:title=" ">
<polygon fill="white" stroke="black" points="0,-281.5 0,-338.5 145,-338.5 145,-281.5 0,-281.5"/>
<text text-anchor="middle" x="72.5" y="-326.5" font-family="Helvetica,sans-Serif" font-size="10.00">QList&lt; VPE::VProperty * &gt;</text>
<polyline fill="none" stroke="black" points="0,-319.5 145,-319.5 "/>
<text text-anchor="middle" x="72.5" y="-307.5" font-family="Helvetica,sans-Serif" font-size="10.00"> </text>
<polyline fill="none" stroke="black" points="0,-300.5 145,-300.5 "/>
<text text-anchor="middle" x="72.5" y="-288.5" font-family="Helvetica,sans-Serif" font-size="10.00"> </text>
</a>
</g>
</g>
<!-- Node4&#45;&gt;Node3 -->
<g id="edge3" class="edge">
<title>Node4&#45;&gt;Node3</title>
<path fill="none" stroke="#404040" d="M75.87,-281.35C79.6,-255.89 86.83,-217.43 99.5,-186 100.5,-183.52 101.56,-181.03 102.67,-178.54"/>
<polygon fill="none" stroke="#404040" points="102.69,-178.48 101.64,-171.35 107.82,-167.64 108.87,-174.77 102.69,-178.48"/>
<text text-anchor="middle" x="125.5" y="-189" font-family="Helvetica,sans-Serif" font-size="10.00"> +Children</text>
</g>
</g>
</svg>
        <g id="navigator" transform="translate(0 0)" fill="#404254">
                <rect fill="#f2f5e9" fill-opacity="0.5" stroke="#606060" stroke-width=".5" x="0" y="0" width="60" height="60"/>
                <use id="zoomplus" xlink:href="#zoomPlus" x="17" y="9" onmousedown="handleZoom(evt,'in')"/>
                <use id="zoomminus" xlink:href="#zoomMin" x="42" y="9" onmousedown="handleZoom(evt,'out')"/>
                <use id="reset" xlink:href="#resetDef" x="30" y="36" onmousedown="handleReset()"/>
                <g id="arrowUp" xlink:href="#dirArrow" transform="translate(30 24)" onmousedown="handlePan(0,-1)">
                  <use xlink:href="#rim" fill="#404040">
                        <set attributeName="fill" to="#808080" begin="arrowUp.mouseover" end="arrowUp.mouseout"/>
                  </use>
                  <path fill="none" stroke="white" stroke-width="1.5" d="M0,-3.0v7 M-2.5,-0.5L0,-3.0L2.5,-0.5"/>
                </g>
                <g id="arrowRight" xlink:href="#dirArrow" transform="rotate(90) translate(36 -43)" onmousedown="handlePan(1,0)">
                  <use xlink:href="#rim" fill="#404040">
                        <set attributeName="fill" to="#808080" begin="arrowRight.mouseover" end="arrowRight.mouseout"/>
                  </use>
                  <path fill="none" stroke="white" stroke-width="1.5" d="M0,-3.0v7 M-2.5,-0.5L0,-3.0L2.5,-0.5"/>
                </g>
                <g id="arrowDown" xlink:href="#dirArrow" transform="rotate(180) translate(-30 -48)" onmousedown="handlePan(0,1)">
                  <use xlink:href="#rim" fill="#404040">
                        <set attributeName="fill" to="#808080" begin="arrowDown.mouseover" end="arrowDown.mouseout"/>
                  </use>
                  <path fill="none" stroke="white" stroke-width="1.5" d="M0,-3.0v7 M-2.5,-0.5L0,-3.0L2.5,-0.5"/>
                </g>
                <g id="arrowLeft" xlink:href="#dirArrow" transform="rotate(270) translate(-36 17)" onmousedown="handlePan(-1,0)">
                  <use xlink:href="#rim" fill="#404040">
                        <set attributeName="fill" to="#808080" begin="arrowLeft.mouseover" end="arrowLeft.mouseout"/>
                  </use>
                  <path fill="none" stroke="white" stroke-width="1.5" d="M0,-3.0v7 M-2.5,-0.5L0,-3.0L2.5,-0.5"/>
                </g>
        </g>
        <svg viewBox="0 0 15 15" width="100%" height="30px" preserveAspectRatio="xMaxYMin meet">
         <g id="arrow_out" transform="scale(0.3 0.3)">
          <a xlink:href="classVPE_1_1VProperty__coll__graph_org.svg" target="_base">
           <rect id="button" ry="5" rx="5" y="6" x="6" height="38" width="38"
                fill="#f2f5e9" fill-opacity="0.5" stroke="#606060" stroke-width="1.0"/>
           <path id="arrow"
             d="M 11.500037,31.436501 C 11.940474,20.09759 22.043105,11.32322 32.158766,21.979434 L 37.068811,17.246167 C 37.068811,17.246167 37.088388,32 37.088388,32 L 22.160133,31.978069 C 22.160133,31.978069 26.997745,27.140456 26.997745,27.140456 C 18.528582,18.264221 13.291696,25.230495 11.500037,31.436501 z"
             style="fill:#404040;"/>
          </a>
         </g>
        </svg>
</svg>
