<?xml version="1.0" encoding="UTF-8" standalone="no"?>
<!DOCTYPE svg PUBLIC "-//W3C//DTD SVG 1.1//EN"
 "http://www.w3.org/Graphics/SVG/1.1/DTD/svg11.dtd">
<!-- Generated by graphviz version 2.43.0 (0)
 -->
<!-- Title: src/libs/vpatterndb/vtranslatemeasurements.h Pages: 1 -->
<svg width="6056pt" height="385pt"
 viewBox="0.00 0.00 6056.00 385.00" xmlns="http://www.w3.org/2000/svg" xmlns:xlink="http://www.w3.org/1999/xlink">
<g id="graph0" class="graph" transform="scale(1 1) rotate(0) translate(4 381)">
<title>src/libs/vpatterndb/vtranslatemeasurements.h</title>
<polygon fill="white" stroke="transparent" points="-4,4 -4,-381 6052,-381 6052,4 -4,4"/>
<!-- Node1 -->
<g id="node1" class="node">
<title>Node1</title>
<g id="a_node1"><a xlink:title=" ">
<polygon fill="#bfbfbf" stroke="black" points="5136,-346.5 5136,-376.5 5288,-376.5 5288,-346.5 5136,-346.5"/>
<text text-anchor="start" x="5144" y="-364.5" font-family="Helvetica,sans-Serif" font-size="10.00">src/libs/vpatterndb</text>
<text text-anchor="middle" x="5212" y="-353.5" font-family="Helvetica,sans-Serif" font-size="10.00">/vtranslatemeasurements.h</text>
</a>
</g>
</g>
<!-- Node2 -->
<g id="node2" class="node">
<title>Node2</title>
<g id="a_node2"><a xlink:href="../../dd/de9/measurements__def_8cpp.html" target="_top" xlink:title=" ">
<polygon fill="white" stroke="black" points="4775,-279.5 4775,-309.5 4909,-309.5 4909,-279.5 4775,-279.5"/>
<text text-anchor="start" x="4783" y="-297.5" font-family="Helvetica,sans-Serif" font-size="10.00">src/libs/vpatterndb</text>
<text text-anchor="middle" x="4842" y="-286.5" font-family="Helvetica,sans-Serif" font-size="10.00">/measurements_def.cpp</text>
</a>
</g>
</g>
<!-- Node1&#45;&gt;Node2 -->
<g id="edge1" class="edge">
<title>Node1&#45;&gt;Node2</title>
<path fill="none" stroke="midnightblue" d="M5125.82,-346.13C5067.19,-336.24 4987.85,-322.66 4918,-310 4915.09,-309.47 4912.12,-308.93 4909.12,-308.38"/>
<polygon fill="midnightblue" stroke="midnightblue" points="5125.35,-349.6 5135.79,-347.8 5126.51,-342.69 5125.35,-349.6"/>
</g>
<!-- Node3 -->
<g id="node3" class="node">
<title>Node3</title>
<g id="a_node3"><a xlink:href="../../da/d69/vtranslatevars_8h.html" target="_top" xlink:title=" ">
<polygon fill="white" stroke="black" points="4927.5,-279.5 4927.5,-309.5 5034.5,-309.5 5034.5,-279.5 4927.5,-279.5"/>
<text text-anchor="start" x="4935.5" y="-297.5" font-family="Helvetica,sans-Serif" font-size="10.00">src/libs/vpatterndb</text>
<text text-anchor="middle" x="4981" y="-286.5" font-family="Helvetica,sans-Serif" font-size="10.00">/vtranslatevars.h</text>
</a>
</g>
</g>
<!-- Node1&#45;&gt;Node3 -->
<g id="edge2" class="edge">
<title>Node1&#45;&gt;Node3</title>
<path fill="none" stroke="midnightblue" d="M5152.35,-343.71C5114.76,-333.14 5066.77,-319.63 5031.15,-309.61"/>
<polygon fill="midnightblue" stroke="midnightblue" points="5151.59,-347.14 5162.16,-346.48 5153.48,-340.4 5151.59,-347.14"/>
</g>
<!-- Node29 -->
<g id="node24" class="node">
<title>Node29</title>
<g id="a_node24"><a xlink:href="../../de/d3e/vtranslatevars_8cpp.html" target="_top" xlink:title=" ">
<polygon fill="white" stroke="black" points="5938,-67.5 5938,-97.5 6048,-97.5 6048,-67.5 5938,-67.5"/>
<text text-anchor="start" x="5946" y="-85.5" font-family="Helvetica,sans-Serif" font-size="10.00">src/libs/vpatterndb</text>
<text text-anchor="middle" x="5993" y="-74.5" font-family="Helvetica,sans-Serif" font-size="10.00">/vtranslatevars.cpp</text>
</a>
</g>
</g>
<!-- Node1&#45;&gt;Node29 -->
<g id="edge60" class="edge">
<title>Node1&#45;&gt;Node29</title>
<path fill="none" stroke="midnightblue" d="M5248.31,-341.71C5282.91,-324.21 5336.72,-298.04 5385,-279 5587.16,-199.26 5836.16,-127.02 5941.78,-97.54"/>
<polygon fill="midnightblue" stroke="midnightblue" points="5246.41,-338.75 5239.08,-346.4 5249.58,-344.99 5246.41,-338.75"/>
</g>
<!-- Node68 -->
<g id="node50" class="node">
<title>Node68</title>
<g id="a_node50"><a xlink:href="../../d0/d50/vtranslatemeasurements_8cpp.html" target="_top" xlink:title=" ">
<polygon fill="white" stroke="black" points="5394.5,-279.5 5394.5,-309.5 5557.5,-309.5 5557.5,-279.5 5394.5,-279.5"/>
<text text-anchor="start" x="5402.5" y="-297.5" font-family="Helvetica,sans-Serif" font-size="10.00">src/libs/vpatterndb</text>
<text text-anchor="middle" x="5476" y="-286.5" font-family="Helvetica,sans-Serif" font-size="10.00">/vtranslatemeasurements.cpp</text>
</a>
</g>
</g>
<!-- Node1&#45;&gt;Node68 -->
<g id="edge61" class="edge">
<title>Node1&#45;&gt;Node68</title>
<path fill="none" stroke="midnightblue" d="M5278.81,-344.05C5321.97,-333.43 5377.54,-319.74 5418.69,-309.61"/>
<polygon fill="midnightblue" stroke="midnightblue" points="5277.83,-340.69 5268.96,-346.48 5279.51,-347.48 5277.83,-340.69"/>
</g>
<!-- Node4 -->
<g id="node4" class="node">
<title>Node4</title>
<g id="a_node4"><a xlink:href="../../d5/d74/vabstractapplication_8h.html" target="_top" xlink:title=" ">
<polygon fill="white" stroke="black" points="2671.5,-145.5 2671.5,-164.5 2866.5,-164.5 2866.5,-145.5 2671.5,-145.5"/>
<text text-anchor="middle" x="2769" y="-152.5" font-family="Helvetica,sans-Serif" font-size="10.00">src/libs/vmisc/vabstractapplication.h</text>
</a>
</g>
</g>
<!-- Node3&#45;&gt;Node4 -->
<g id="edge3" class="edge">
<title>Node3&#45;&gt;Node4</title>
<path fill="none" stroke="midnightblue" d="M4917.59,-279.13C4124.34,-166.83 3169.97,-156.15 2866.5,-155.73"/>
<polygon fill="midnightblue" stroke="midnightblue" points="4917.11,-282.6 4927.5,-280.54 4918.09,-275.67 4917.11,-282.6"/>
</g>
<!-- Node24 -->
<g id="node20" class="node">
<title>Node24</title>
<g id="a_node20"><a xlink:href="../../db/d11/vformula_8cpp.html" target="_top" xlink:title=" ">
<polygon fill="white" stroke="black" points="5812.5,-67.5 5812.5,-97.5 5919.5,-97.5 5919.5,-67.5 5812.5,-67.5"/>
<text text-anchor="start" x="5820.5" y="-85.5" font-family="Helvetica,sans-Serif" font-size="10.00">src/libs/vpatterndb</text>
<text text-anchor="middle" x="5866" y="-74.5" font-family="Helvetica,sans-Serif" font-size="10.00">/vformula.cpp</text>
</a>
</g>
</g>
<!-- Node3&#45;&gt;Node24 -->
<g id="edge40" class="edge">
<title>Node3&#45;&gt;Node24</title>
<path fill="none" stroke="midnightblue" d="M4920.48,-276.61C4881.69,-265.17 4837.58,-250.78 4832,-243 4823.97,-231.8 4823.07,-222.49 4832,-212 4972.82,-46.56 5588.18,-130.44 5803,-98 5806.11,-97.53 5809.29,-96.99 5812.49,-96.4"/>
<polygon fill="midnightblue" stroke="midnightblue" points="4919.62,-280 4930.2,-279.44 4921.58,-273.28 4919.62,-280"/>
</g>
<!-- Node25 -->
<g id="node21" class="node">
<title>Node25</title>
<g id="a_node21"><a xlink:href="../../d6/d46/vcontainer_8cpp.html" target="_top" xlink:title=" ">
<polygon fill="white" stroke="black" points="208.5,-67.5 208.5,-97.5 315.5,-97.5 315.5,-67.5 208.5,-67.5"/>
<text text-anchor="start" x="216.5" y="-85.5" font-family="Helvetica,sans-Serif" font-size="10.00">src/libs/vpatterndb</text>
<text text-anchor="middle" x="262" y="-74.5" font-family="Helvetica,sans-Serif" font-size="10.00">/vcontainer.cpp</text>
</a>
</g>
</g>
<!-- Node3&#45;&gt;Node25 -->
<g id="edge55" class="edge">
<title>Node3&#45;&gt;Node25</title>
<path fill="none" stroke="midnightblue" d="M4917.22,-279.18C4416.24,-225.6 1226.98,-269.69 770,-243 632.1,-234.95 244.26,-278.81 152,-176 139.53,-162.11 141.92,-149.71 152,-134 164.59,-114.37 186.94,-102.26 208.23,-94.85"/>
<polygon fill="midnightblue" stroke="midnightblue" points="4916.85,-282.66 4927.18,-280.3 4917.63,-275.71 4916.85,-282.66"/>
</g>
<!-- Node3&#45;&gt;Node29 -->
<g id="edge56" class="edge">
<title>Node3&#45;&gt;Node29</title>
<path fill="none" stroke="midnightblue" d="M5044.91,-291.09C5128.58,-286.7 5269.29,-274.71 5309,-243 5349.69,-210.5 5309.88,-164.63 5352,-134 5403.86,-96.29 5864.51,-107.01 5928,-98 5931.21,-97.55 5934.49,-97.02 5937.79,-96.44"/>
<polygon fill="midnightblue" stroke="midnightblue" points="5044.56,-287.6 5034.75,-291.6 5044.91,-294.59 5044.56,-287.6"/>
</g>
<!-- Node45 -->
<g id="node40" class="node">
<title>Node45</title>
<g id="a_node40"><a xlink:href="../../d3/df7/vcontainer_8h.html" target="_top" xlink:title=" ">
<polygon fill="white" stroke="red" points="779.5,-212.5 779.5,-242.5 886.5,-242.5 886.5,-212.5 779.5,-212.5"/>
<text text-anchor="start" x="787.5" y="-230.5" font-family="Helvetica,sans-Serif" font-size="10.00">src/libs/vpatterndb</text>
<text text-anchor="middle" x="833" y="-219.5" font-family="Helvetica,sans-Serif" font-size="10.00">/vcontainer.h</text>
</a>
</g>
</g>
<!-- Node3&#45;&gt;Node45 -->
<g id="edge41" class="edge">
<title>Node3&#45;&gt;Node45</title>
<path fill="none" stroke="midnightblue" d="M4917,-279.16C4451.96,-228.85 1334.9,-228.29 886.65,-228.47"/>
<polygon fill="midnightblue" stroke="midnightblue" points="4916.85,-282.66 4927.18,-280.32 4917.64,-275.71 4916.85,-282.66"/>
</g>
<!-- Node65 -->
<g id="node47" class="node">
<title>Node65</title>
<g id="a_node47"><a xlink:href="../../df/de5/dialogspline_8cpp.html" target="_top" xlink:title=" ">
<polygon fill="white" stroke="black" points="4841,-212.5 4841,-242.5 4967,-242.5 4967,-212.5 4841,-212.5"/>
<text text-anchor="start" x="4849" y="-230.5" font-family="Helvetica,sans-Serif" font-size="10.00">src/libs/vtools/dialogs</text>
<text text-anchor="middle" x="4904" y="-219.5" font-family="Helvetica,sans-Serif" font-size="10.00">/tools/dialogspline.cpp</text>
</a>
</g>
</g>
<!-- Node3&#45;&gt;Node65 -->
<g id="edge57" class="edge">
<title>Node3&#45;&gt;Node65</title>
<path fill="none" stroke="midnightblue" d="M4956.58,-272.88C4944.88,-263.01 4931.16,-251.43 4920.68,-242.58"/>
<polygon fill="midnightblue" stroke="midnightblue" points="4954.39,-275.62 4964.29,-279.4 4958.91,-270.27 4954.39,-275.62"/>
</g>
<!-- Node66 -->
<g id="node48" class="node">
<title>Node66</title>
<g id="a_node48"><a xlink:href="../../dc/dc2/dialogsplinepath_8cpp.html" target="_top" xlink:title=" ">
<polygon fill="white" stroke="black" points="4985,-212.5 4985,-242.5 5133,-242.5 5133,-212.5 4985,-212.5"/>
<text text-anchor="start" x="4993" y="-230.5" font-family="Helvetica,sans-Serif" font-size="10.00">src/libs/vtools/dialogs</text>
<text text-anchor="middle" x="5059" y="-219.5" font-family="Helvetica,sans-Serif" font-size="10.00">/tools/dialogsplinepath.cpp</text>
</a>
</g>
</g>
<!-- Node3&#45;&gt;Node66 -->
<g id="edge58" class="edge">
<title>Node3&#45;&gt;Node66</title>
<path fill="none" stroke="midnightblue" d="M5005.74,-272.88C5017.59,-263.01 5031.48,-251.43 5042.11,-242.58"/>
<polygon fill="midnightblue" stroke="midnightblue" points="5003.37,-270.31 4997.92,-279.4 5007.85,-275.68 5003.37,-270.31"/>
</g>
<!-- Node67 -->
<g id="node49" class="node">
<title>Node67</title>
<g id="a_node49"><a xlink:href="../../d1/d75/vistoolendline_8cpp.html" target="_top" xlink:title=" ">
<polygon fill="white" stroke="black" points="5151.5,-212.5 5151.5,-242.5 5300.5,-242.5 5300.5,-212.5 5151.5,-212.5"/>
<text text-anchor="start" x="5159.5" y="-230.5" font-family="Helvetica,sans-Serif" font-size="10.00">src/libs/vtools/visualization</text>
<text text-anchor="middle" x="5226" y="-219.5" font-family="Helvetica,sans-Serif" font-size="10.00">/line/vistoolendline.cpp</text>
</a>
</g>
</g>
<!-- Node3&#45;&gt;Node67 -->
<g id="edge59" class="edge">
<title>Node3&#45;&gt;Node67</title>
<path fill="none" stroke="midnightblue" d="M5043.76,-276.85C5083.7,-266.25 5134.87,-252.68 5172.81,-242.61"/>
<polygon fill="midnightblue" stroke="midnightblue" points="5042.63,-273.53 5033.86,-279.48 5044.42,-280.29 5042.63,-273.53"/>
</g>
<!-- Node5 -->
<g id="node5" class="node">
<title>Node5</title>
<g id="a_node5"><a xlink:href="../../d4/d90/fvupdater_8cpp.html" target="_top" xlink:title=" ">
<polygon fill="white" stroke="black" points="5113.5,-73 5113.5,-92 5266.5,-92 5266.5,-73 5113.5,-73"/>
<text text-anchor="middle" x="5190" y="-80" font-family="Helvetica,sans-Serif" font-size="10.00">src/libs/fervor/fvupdater.cpp</text>
</a>
</g>
</g>
<!-- Node4&#45;&gt;Node5 -->
<g id="edge4" class="edge">
<title>Node4&#45;&gt;Node5</title>
<path fill="none" stroke="midnightblue" d="M2876.84,-152.32C3306.14,-145.52 4881.22,-119.34 5104,-98 5118.02,-96.66 5133.2,-94.38 5146.85,-92.02"/>
<polygon fill="midnightblue" stroke="midnightblue" points="2876.55,-148.83 2866.61,-152.48 2876.66,-155.83 2876.55,-148.83"/>
</g>
<!-- Node6 -->
<g id="node6" class="node">
<title>Node6</title>
<g id="a_node6"><a xlink:href="../../d9/dc8/dxiface_8cpp.html" target="_top" xlink:title=" ">
<polygon fill="white" stroke="black" points="5284.5,-73 5284.5,-92 5419.5,-92 5419.5,-73 5284.5,-73"/>
<text text-anchor="middle" x="5352" y="-80" font-family="Helvetica,sans-Serif" font-size="10.00">src/libs/vdxf/dxiface.cpp</text>
</a>
</g>
</g>
<!-- Node4&#45;&gt;Node6 -->
<g id="edge5" class="edge">
<title>Node4&#45;&gt;Node6</title>
<path fill="none" stroke="midnightblue" d="M2876.81,-152.63C3325.78,-146.8 5034.73,-123.14 5275,-98 5287.58,-96.68 5301.18,-94.41 5313.41,-92.05"/>
<polygon fill="midnightblue" stroke="midnightblue" points="2876.72,-149.13 2866.76,-152.76 2876.81,-156.13 2876.72,-149.13"/>
</g>
<!-- Node7 -->
<g id="node7" class="node">
<title>Node7</title>
<g id="a_node7"><a xlink:href="../../da/d75/vabstractarc__p_8h.html" target="_top" xlink:title=" ">
<polygon fill="white" stroke="red" points="5437.5,-67.5 5437.5,-97.5 5544.5,-97.5 5544.5,-67.5 5437.5,-67.5"/>
<text text-anchor="start" x="5445.5" y="-85.5" font-family="Helvetica,sans-Serif" font-size="10.00">src/libs/vgeometry</text>
<text text-anchor="middle" x="5491" y="-74.5" font-family="Helvetica,sans-Serif" font-size="10.00">/vabstractarc_p.h</text>
</a>
</g>
</g>
<!-- Node4&#45;&gt;Node7 -->
<g id="edge6" class="edge">
<title>Node4&#45;&gt;Node7</title>
<path fill="none" stroke="midnightblue" d="M2876.66,-152.35C3358.58,-144.89 5299.65,-113.95 5428,-98 5431.01,-97.63 5434.08,-97.17 5437.17,-96.65"/>
<polygon fill="midnightblue" stroke="midnightblue" points="2876.52,-148.85 2866.58,-152.51 2876.63,-155.85 2876.52,-148.85"/>
</g>
<!-- Node9 -->
<g id="node8" class="node">
<title>Node9</title>
<g id="a_node8"><a xlink:href="../../dc/da3/varc__p_8h.html" target="_top" xlink:title=" ">
<polygon fill="white" stroke="red" points="5562.5,-67.5 5562.5,-97.5 5669.5,-97.5 5669.5,-67.5 5562.5,-67.5"/>
<text text-anchor="start" x="5570.5" y="-85.5" font-family="Helvetica,sans-Serif" font-size="10.00">src/libs/vgeometry</text>
<text text-anchor="middle" x="5616" y="-74.5" font-family="Helvetica,sans-Serif" font-size="10.00">/varc_p.h</text>
</a>
</g>
</g>
<!-- Node4&#45;&gt;Node9 -->
<g id="edge7" class="edge">
<title>Node4&#45;&gt;Node9</title>
<path fill="none" stroke="midnightblue" d="M2876.79,-152.45C3372.89,-145.26 5418.17,-114.69 5553,-98 5556.01,-97.63 5559.08,-97.17 5562.17,-96.66"/>
<polygon fill="midnightblue" stroke="midnightblue" points="2876.71,-148.95 2866.76,-152.6 2876.81,-155.95 2876.71,-148.95"/>
</g>
<!-- Node11 -->
<g id="node9" class="node">
<title>Node11</title>
<g id="a_node9"><a xlink:href="../../d5/d8e/vcubicbezier__p_8h.html" target="_top" xlink:title=" ">
<polygon fill="white" stroke="red" points="5687.5,-67.5 5687.5,-97.5 5794.5,-97.5 5794.5,-67.5 5687.5,-67.5"/>
<text text-anchor="start" x="5695.5" y="-85.5" font-family="Helvetica,sans-Serif" font-size="10.00">src/libs/vgeometry</text>
<text text-anchor="middle" x="5741" y="-74.5" font-family="Helvetica,sans-Serif" font-size="10.00">/vcubicbezier_p.h</text>
</a>
</g>
</g>
<!-- Node4&#45;&gt;Node11 -->
<g id="edge8" class="edge">
<title>Node4&#45;&gt;Node11</title>
<path fill="none" stroke="midnightblue" d="M2876.95,-152.55C3387,-145.61 5536.68,-115.43 5678,-98 5681.01,-97.63 5684.08,-97.17 5687.17,-96.66"/>
<polygon fill="midnightblue" stroke="midnightblue" points="2876.6,-149.05 2866.65,-152.69 2876.7,-156.05 2876.6,-149.05"/>
</g>
<!-- Node13 -->
<g id="node10" class="node">
<title>Node13</title>
<g id="a_node10"><a xlink:href="../../df/dde/vellipticalarc__p_8h.html" target="_top" xlink:title=" ">
<polygon fill="white" stroke="black" points="892.5,-67.5 892.5,-97.5 999.5,-97.5 999.5,-67.5 892.5,-67.5"/>
<text text-anchor="start" x="900.5" y="-85.5" font-family="Helvetica,sans-Serif" font-size="10.00">src/libs/vgeometry</text>
<text text-anchor="middle" x="946" y="-74.5" font-family="Helvetica,sans-Serif" font-size="10.00">/vellipticalarc_p.h</text>
</a>
</g>
</g>
<!-- Node4&#45;&gt;Node13 -->
<g id="edge9" class="edge">
<title>Node4&#45;&gt;Node13</title>
<path fill="none" stroke="midnightblue" d="M2661.3,-153.37C2330.17,-150.98 1330.11,-140.36 1008,-98 1005.26,-97.64 1002.46,-97.21 999.65,-96.73"/>
<polygon fill="midnightblue" stroke="midnightblue" points="2661.35,-156.87 2671.37,-153.44 2661.4,-149.87 2661.35,-156.87"/>
</g>
<!-- Node14 -->
<g id="node11" class="node">
<title>Node14</title>
<g id="a_node11"><a xlink:href="../../d6/dfb/vellipticalarc_8cpp.html" target="_top" xlink:title=" ">
<polygon fill="white" stroke="black" points="851.5,-0.5 851.5,-30.5 958.5,-30.5 958.5,-0.5 851.5,-0.5"/>
<text text-anchor="start" x="859.5" y="-18.5" font-family="Helvetica,sans-Serif" font-size="10.00">src/libs/vgeometry</text>
<text text-anchor="middle" x="905" y="-7.5" font-family="Helvetica,sans-Serif" font-size="10.00">/vellipticalarc.cpp</text>
</a>
</g>
</g>
<!-- Node4&#45;&gt;Node14 -->
<g id="edge11" class="edge">
<title>Node4&#45;&gt;Node14</title>
<path fill="none" stroke="midnightblue" d="M2661.41,-152.81C2265.96,-148.2 914.16,-130.1 883,-98 865.24,-79.7 881.78,-48.63 894.21,-30.6"/>
<polygon fill="midnightblue" stroke="midnightblue" points="2661.38,-156.31 2671.42,-152.93 2661.46,-149.31 2661.38,-156.31"/>
</g>
<!-- Node15 -->
<g id="node12" class="node">
<title>Node15</title>
<g id="a_node12"><a xlink:href="../../d1/d76/vspline__p_8h.html" target="_top" xlink:title=" ">
<polygon fill="white" stroke="red" points="1017.5,-67.5 1017.5,-97.5 1124.5,-97.5 1124.5,-67.5 1017.5,-67.5"/>
<text text-anchor="start" x="1025.5" y="-85.5" font-family="Helvetica,sans-Serif" font-size="10.00">src/libs/vgeometry</text>
<text text-anchor="middle" x="1071" y="-74.5" font-family="Helvetica,sans-Serif" font-size="10.00">/vspline_p.h</text>
</a>
</g>
</g>
<!-- Node4&#45;&gt;Node15 -->
<g id="edge12" class="edge">
<title>Node4&#45;&gt;Node15</title>
<path fill="none" stroke="midnightblue" d="M2661.45,-153.01C2346.66,-149.69 1430.7,-136.86 1134,-98 1131,-97.61 1127.92,-97.13 1124.83,-96.61"/>
<polygon fill="midnightblue" stroke="midnightblue" points="2661.46,-156.51 2671.49,-153.12 2661.53,-149.51 2661.46,-156.51"/>
</g>
<!-- Node17 -->
<g id="node13" class="node">
<title>Node17</title>
<g id="a_node13"><a xlink:href="../../d9/d15/vabstractpiece_8cpp.html" target="_top" xlink:title=" ">
<polygon fill="white" stroke="black" points="1143,-73 1143,-92 1329,-92 1329,-73 1143,-73"/>
<text text-anchor="middle" x="1236" y="-80" font-family="Helvetica,sans-Serif" font-size="10.00">src/libs/vlayout/vabstractpiece.cpp</text>
</a>
</g>
</g>
<!-- Node4&#45;&gt;Node17 -->
<g id="edge13" class="edge">
<title>Node4&#45;&gt;Node17</title>
<path fill="none" stroke="midnightblue" d="M2661.11,-153.53C2422.23,-151.68 1830.8,-142.55 1338,-98 1321.88,-96.54 1304.41,-94.3 1288.56,-92.02"/>
<polygon fill="midnightblue" stroke="midnightblue" points="2661.16,-157.03 2671.18,-153.61 2661.21,-150.03 2661.16,-157.03"/>
</g>
<!-- Node18 -->
<g id="node14" class="node">
<title>Node18</title>
<g id="a_node14"><a xlink:href="../../dd/d70/vlayoutpiece_8cpp.html" target="_top" xlink:title=" ">
<polygon fill="white" stroke="black" points="659.5,-73 659.5,-92 836.5,-92 836.5,-73 659.5,-73"/>
<text text-anchor="middle" x="748" y="-80" font-family="Helvetica,sans-Serif" font-size="10.00">src/libs/vlayout/vlayoutpiece.cpp</text>
</a>
</g>
</g>
<!-- Node4&#45;&gt;Node18 -->
<g id="edge14" class="edge">
<title>Node4&#45;&gt;Node18</title>
<path fill="none" stroke="midnightblue" d="M2661.28,-152.45C2310.91,-147.15 1205.88,-128.39 850,-98 833.6,-96.6 815.82,-94.33 799.76,-92"/>
<polygon fill="midnightblue" stroke="midnightblue" points="2661.37,-155.95 2671.42,-152.6 2661.48,-148.95 2661.37,-155.95"/>
</g>
<!-- Node19 -->
<g id="node15" class="node">
<title>Node19</title>
<g id="a_node15"><a xlink:href="../../d8/d70/vtextmanager_8cpp.html" target="_top" xlink:title=" ">
<polygon fill="white" stroke="black" points="459,-73 459,-92 641,-92 641,-73 459,-73"/>
<text text-anchor="middle" x="550" y="-80" font-family="Helvetica,sans-Serif" font-size="10.00">src/libs/vlayout/vtextmanager.cpp</text>
</a>
</g>
</g>
<!-- Node4&#45;&gt;Node19 -->
<g id="edge15" class="edge">
<title>Node4&#45;&gt;Node19</title>
<path fill="none" stroke="midnightblue" d="M2661.39,-152.83C2287.62,-148.51 1046.86,-131.9 650,-98 633.92,-96.63 616.48,-94.37 600.74,-92.04"/>
<polygon fill="midnightblue" stroke="midnightblue" points="2661.35,-156.33 2671.39,-152.95 2661.43,-149.33 2661.35,-156.33"/>
</g>
<!-- Node20 -->
<g id="node16" class="node">
<title>Node20</title>
<g id="a_node16"><a xlink:href="../../db/d65/dialogexporttocsv_8cpp.html" target="_top" xlink:title=" ">
<polygon fill="white" stroke="black" points="1347.5,-67.5 1347.5,-97.5 1474.5,-97.5 1474.5,-67.5 1347.5,-67.5"/>
<text text-anchor="start" x="1355.5" y="-85.5" font-family="Helvetica,sans-Serif" font-size="10.00">src/libs/vmisc/dialogs</text>
<text text-anchor="middle" x="1411" y="-74.5" font-family="Helvetica,sans-Serif" font-size="10.00">/dialogexporttocsv.cpp</text>
</a>
</g>
</g>
<!-- Node4&#45;&gt;Node20 -->
<g id="edge16" class="edge">
<title>Node4&#45;&gt;Node20</title>
<path fill="none" stroke="midnightblue" d="M2661.15,-154.84C2439.69,-155.34 1918.02,-150.25 1484,-98 1480.92,-97.63 1477.78,-97.2 1474.61,-96.73"/>
<polygon fill="midnightblue" stroke="midnightblue" points="2661.47,-158.34 2671.46,-154.81 2661.46,-151.34 2661.47,-158.34"/>
</g>
<!-- Node21 -->
<g id="node17" class="node">
<title>Node21</title>
<g id="a_node17"><a xlink:href="../../d0/df6/vabstractapplication_8cpp.html" target="_top" xlink:title=" ">
<polygon fill="white" stroke="black" points="1493,-73 1493,-92 1699,-92 1699,-73 1493,-73"/>
<text text-anchor="middle" x="1596" y="-80" font-family="Helvetica,sans-Serif" font-size="10.00">src/libs/vmisc/vabstractapplication.cpp</text>
</a>
</g>
</g>
<!-- Node4&#45;&gt;Node21 -->
<g id="edge17" class="edge">
<title>Node4&#45;&gt;Node21</title>
<path fill="none" stroke="midnightblue" d="M2661.09,-151.01C2469.08,-145.1 2055.63,-129.63 1708,-98 1690.82,-96.44 1672.21,-94.23 1655.2,-92.02"/>
<polygon fill="midnightblue" stroke="midnightblue" points="2661.08,-154.52 2671.18,-151.32 2661.29,-147.52 2661.08,-154.52"/>
</g>
<!-- Node22 -->
<g id="node18" class="node">
<title>Node22</title>
<g id="a_node18"><a xlink:href="../../d6/d0b/def_8cpp.html" target="_top" xlink:title=" ">
<polygon fill="white" stroke="black" points="1717,-73 1717,-92 1839,-92 1839,-73 1717,-73"/>
<text text-anchor="middle" x="1778" y="-80" font-family="Helvetica,sans-Serif" font-size="10.00">src/libs/vmisc/def.cpp</text>
</a>
</g>
</g>
<!-- Node4&#45;&gt;Node22 -->
<g id="edge18" class="edge">
<title>Node4&#45;&gt;Node22</title>
<path fill="none" stroke="midnightblue" d="M2661.33,-152.45C2488.91,-148.86 2140.49,-136.98 1848,-98 1836.93,-96.52 1824.99,-94.29 1814.16,-92.02"/>
<polygon fill="midnightblue" stroke="midnightblue" points="2661.36,-155.96 2671.43,-152.66 2661.5,-148.96 2661.36,-155.96"/>
</g>
<!-- Node23 -->
<g id="node19" class="node">
<title>Node23</title>
<g id="a_node19"><a xlink:href="../../d4/d4f/pmsystems_8cpp.html" target="_top" xlink:title=" ">
<polygon fill="white" stroke="black" points="1857.5,-67.5 1857.5,-97.5 1964.5,-97.5 1964.5,-67.5 1857.5,-67.5"/>
<text text-anchor="start" x="1865.5" y="-85.5" font-family="Helvetica,sans-Serif" font-size="10.00">src/libs/vpatterndb</text>
<text text-anchor="middle" x="1911" y="-74.5" font-family="Helvetica,sans-Serif" font-size="10.00">/pmsystems.cpp</text>
</a>
</g>
</g>
<!-- Node4&#45;&gt;Node23 -->
<g id="edge19" class="edge">
<title>Node4&#45;&gt;Node23</title>
<path fill="none" stroke="midnightblue" d="M2660.97,-151.85C2507.32,-147.57 2217.21,-134.91 1973,-98 1970.27,-97.59 1967.48,-97.12 1964.67,-96.6"/>
<polygon fill="midnightblue" stroke="midnightblue" points="2661.25,-155.36 2671.34,-152.14 2661.44,-148.37 2661.25,-155.36"/>
</g>
<!-- Node4&#45;&gt;Node24 -->
<g id="edge20" class="edge">
<title>Node4&#45;&gt;Node24</title>
<path fill="none" stroke="midnightblue" d="M2877.21,-152.31C3409.68,-143.95 5728.96,-107.1 5803,-98 5806.01,-97.63 5809.08,-97.18 5812.17,-96.66"/>
<polygon fill="midnightblue" stroke="midnightblue" points="2876.8,-148.82 2866.85,-152.47 2876.9,-155.81 2876.8,-148.82"/>
</g>
<!-- Node4&#45;&gt;Node25 -->
<g id="edge21" class="edge">
<title>Node4&#45;&gt;Node25</title>
<path fill="none" stroke="midnightblue" d="M2661.24,-152.85C2219.22,-147.93 557.38,-127.64 324,-98 321.26,-97.65 318.46,-97.23 315.64,-96.76"/>
<polygon fill="midnightblue" stroke="midnightblue" points="2661.41,-156.35 2671.45,-152.96 2661.49,-149.35 2661.41,-156.35"/>
</g>
<!-- Node26 -->
<g id="node22" class="node">
<title>Node26</title>
<g id="a_node22"><a xlink:href="../../df/d7a/vpiece_8cpp.html" target="_top" xlink:title=" ">
<polygon fill="white" stroke="black" points="333.5,-67.5 333.5,-97.5 440.5,-97.5 440.5,-67.5 333.5,-67.5"/>
<text text-anchor="start" x="341.5" y="-85.5" font-family="Helvetica,sans-Serif" font-size="10.00">src/libs/vpatterndb</text>
<text text-anchor="middle" x="387" y="-74.5" font-family="Helvetica,sans-Serif" font-size="10.00">/vpiece.cpp</text>
</a>
</g>
</g>
<!-- Node4&#45;&gt;Node26 -->
<g id="edge22" class="edge">
<title>Node4&#45;&gt;Node26</title>
<path fill="none" stroke="midnightblue" d="M2661.14,-152.68C2233.58,-147.26 670.41,-125.74 450,-98 446.99,-97.62 443.92,-97.16 440.83,-96.64"/>
<polygon fill="midnightblue" stroke="midnightblue" points="2661.29,-156.18 2671.33,-152.81 2661.38,-149.18 2661.29,-156.18"/>
</g>
<!-- Node27 -->
<g id="node23" class="node">
<title>Node27</title>
<g id="a_node23"><a xlink:href="../../df/dba/vpiecenode__p_8h.html" target="_top" xlink:title=" ">
<polygon fill="white" stroke="red" points="1982.5,-67.5 1982.5,-97.5 2089.5,-97.5 2089.5,-67.5 1982.5,-67.5"/>
<text text-anchor="start" x="1990.5" y="-85.5" font-family="Helvetica,sans-Serif" font-size="10.00">src/libs/vpatterndb</text>
<text text-anchor="middle" x="2036" y="-74.5" font-family="Helvetica,sans-Serif" font-size="10.00">/vpiecenode_p.h</text>
</a>
</g>
</g>
<!-- Node4&#45;&gt;Node27 -->
<g id="edge23" class="edge">
<title>Node4&#45;&gt;Node27</title>
<path fill="none" stroke="midnightblue" d="M2661.04,-149.86C2527.96,-143.64 2295.22,-129.12 2098,-98 2095.27,-97.57 2092.48,-97.08 2089.67,-96.56"/>
<polygon fill="midnightblue" stroke="midnightblue" points="2661.08,-153.37 2671.23,-150.33 2661.41,-146.37 2661.08,-153.37"/>
</g>
<!-- Node4&#45;&gt;Node29 -->
<g id="edge24" class="edge">
<title>Node4&#45;&gt;Node29</title>
<path fill="none" stroke="midnightblue" d="M2876.73,-153.38C3395.1,-150.23 5620.35,-134.66 5928,-98 5931.21,-97.62 5934.5,-97.14 5937.81,-96.61"/>
<polygon fill="midnightblue" stroke="midnightblue" points="2876.61,-149.88 2866.63,-153.44 2876.65,-156.88 2876.61,-149.88"/>
</g>
<!-- Node30 -->
<g id="node25" class="node">
<title>Node30</title>
<g id="a_node25"><a xlink:href="../../df/d40/export__format__combobox_8cpp.html" target="_top" xlink:title=" ">
<polygon fill="white" stroke="black" points="2107.5,-67.5 2107.5,-97.5 2240.5,-97.5 2240.5,-67.5 2107.5,-67.5"/>
<text text-anchor="start" x="2115.5" y="-85.5" font-family="Helvetica,sans-Serif" font-size="10.00">src/libs/vwidgets/export</text>
<text text-anchor="middle" x="2174" y="-74.5" font-family="Helvetica,sans-Serif" font-size="10.00">_format_combobox.cpp</text>
</a>
</g>
</g>
<!-- Node4&#45;&gt;Node30 -->
<g id="edge25" class="edge">
<title>Node4&#45;&gt;Node30</title>
<path fill="none" stroke="midnightblue" d="M2661.14,-144.93C2555.93,-135.48 2391.54,-119.1 2250,-98 2246.94,-97.54 2243.82,-97.05 2240.68,-96.54"/>
<polygon fill="midnightblue" stroke="midnightblue" points="2660.86,-148.42 2671.13,-145.82 2661.48,-141.45 2660.86,-148.42"/>
</g>
<!-- Node31 -->
<g id="node26" class="node">
<title>Node31</title>
<g id="a_node26"><a xlink:href="../../d3/d4f/mouse__coordinates_8cpp.html" target="_top" xlink:title=" ">
<polygon fill="white" stroke="black" points="2259,-67.5 2259,-97.5 2393,-97.5 2393,-67.5 2259,-67.5"/>
<text text-anchor="start" x="2267" y="-85.5" font-family="Helvetica,sans-Serif" font-size="10.00">src/libs/vwidgets/mouse</text>
<text text-anchor="middle" x="2326" y="-74.5" font-family="Helvetica,sans-Serif" font-size="10.00">_coordinates.cpp</text>
</a>
</g>
</g>
<!-- Node4&#45;&gt;Node31 -->
<g id="edge26" class="edge">
<title>Node4&#45;&gt;Node31</title>
<path fill="none" stroke="midnightblue" d="M2698.36,-144.02C2624.37,-133.37 2504.84,-115.65 2402,-98 2399.09,-97.5 2396.11,-96.98 2393.11,-96.44"/>
<polygon fill="midnightblue" stroke="midnightblue" points="2698.1,-147.51 2708.49,-145.47 2699.09,-140.58 2698.1,-147.51"/>
</g>
<!-- Node32 -->
<g id="node27" class="node">
<title>Node32</title>
<g id="a_node27"><a xlink:href="../../d2/d28/page__format__combobox_8cpp.html" target="_top" xlink:title=" ">
<polygon fill="white" stroke="black" points="2411.5,-67.5 2411.5,-97.5 2542.5,-97.5 2542.5,-67.5 2411.5,-67.5"/>
<text text-anchor="start" x="2419.5" y="-85.5" font-family="Helvetica,sans-Serif" font-size="10.00">src/libs/vwidgets/page</text>
<text text-anchor="middle" x="2477" y="-74.5" font-family="Helvetica,sans-Serif" font-size="10.00">_format_combobox.cpp</text>
</a>
</g>
</g>
<!-- Node4&#45;&gt;Node32 -->
<g id="edge27" class="edge">
<title>Node4&#45;&gt;Node32</title>
<path fill="none" stroke="midnightblue" d="M2723.76,-143.08C2672.98,-130.82 2590.48,-110.9 2535.01,-97.51"/>
<polygon fill="midnightblue" stroke="midnightblue" points="2723.24,-146.55 2733.78,-145.5 2724.88,-139.75 2723.24,-146.55"/>
</g>
<!-- Node33 -->
<g id="node28" class="node">
<title>Node33</title>
<g id="a_node28"><a xlink:href="../../d8/d76/scene__rect_8cpp.html" target="_top" xlink:title=" ">
<polygon fill="white" stroke="black" points="2561,-67.5 2561,-97.5 2691,-97.5 2691,-67.5 2561,-67.5"/>
<text text-anchor="start" x="2569" y="-85.5" font-family="Helvetica,sans-Serif" font-size="10.00">src/libs/vwidgets/scene</text>
<text text-anchor="middle" x="2626" y="-74.5" font-family="Helvetica,sans-Serif" font-size="10.00">_rect.cpp</text>
</a>
</g>
</g>
<!-- Node4&#45;&gt;Node33 -->
<g id="edge28" class="edge">
<title>Node4&#45;&gt;Node33</title>
<path fill="none" stroke="midnightblue" d="M2742.5,-140.93C2717.47,-128.59 2680.04,-110.14 2654.41,-97.51"/>
<polygon fill="midnightblue" stroke="midnightblue" points="2741.23,-144.21 2751.75,-145.5 2744.33,-137.93 2741.23,-144.21"/>
</g>
<!-- Node34 -->
<g id="node29" class="node">
<title>Node34</title>
<g id="a_node29"><a xlink:href="../../d7/d1b/pen__toolbar_8cpp.html" target="_top" xlink:title=" ">
<polygon fill="white" stroke="black" points="2709.5,-67.5 2709.5,-97.5 2828.5,-97.5 2828.5,-67.5 2709.5,-67.5"/>
<text text-anchor="start" x="2717.5" y="-85.5" font-family="Helvetica,sans-Serif" font-size="10.00">src/libs/vwidgets/pen</text>
<text text-anchor="middle" x="2769" y="-74.5" font-family="Helvetica,sans-Serif" font-size="10.00">_toolbar.cpp</text>
</a>
</g>
</g>
<!-- Node4&#45;&gt;Node34 -->
<g id="edge29" class="edge">
<title>Node4&#45;&gt;Node34</title>
<path fill="none" stroke="midnightblue" d="M2769,-135.24C2769,-123.41 2769,-108.38 2769,-97.58"/>
<polygon fill="midnightblue" stroke="midnightblue" points="2765.5,-135.36 2769,-145.36 2772.5,-135.36 2765.5,-135.36"/>
</g>
<!-- Node35 -->
<g id="node30" class="node">
<title>Node35</title>
<g id="a_node30"><a xlink:href="../../dd/df6/vabstractmainwindow_8cpp.html" target="_top" xlink:title=" ">
<polygon fill="white" stroke="black" points="2846.5,-73 2846.5,-92 3075.5,-92 3075.5,-73 2846.5,-73"/>
<text text-anchor="middle" x="2961" y="-80" font-family="Helvetica,sans-Serif" font-size="10.00">src/libs/vwidgets/vabstractmainwindow.cpp</text>
</a>
</g>
</g>
<!-- Node4&#45;&gt;Node35 -->
<g id="edge30" class="edge">
<title>Node4&#45;&gt;Node35</title>
<path fill="none" stroke="midnightblue" d="M2801.91,-141.92C2840.6,-127.71 2903.83,-104.49 2937.76,-92.03"/>
<polygon fill="midnightblue" stroke="midnightblue" points="2800.34,-138.76 2792.16,-145.5 2802.75,-145.33 2800.34,-138.76"/>
</g>
<!-- Node36 -->
<g id="node31" class="node">
<title>Node36</title>
<g id="a_node31"><a xlink:href="../../de/d45/vcontrolpointspline_8cpp.html" target="_top" xlink:title=" ">
<polygon fill="white" stroke="black" points="3093.5,-73 3093.5,-92 3308.5,-92 3308.5,-73 3093.5,-73"/>
<text text-anchor="middle" x="3201" y="-80" font-family="Helvetica,sans-Serif" font-size="10.00">src/libs/vwidgets/vcontrolpointspline.cpp</text>
</a>
</g>
</g>
<!-- Node4&#45;&gt;Node36 -->
<g id="edge31" class="edge">
<title>Node4&#45;&gt;Node36</title>
<path fill="none" stroke="midnightblue" d="M2831.19,-143.85C2916.63,-129.91 3068.81,-105.07 3148.71,-92.03"/>
<polygon fill="midnightblue" stroke="midnightblue" points="2830.41,-140.43 2821.11,-145.5 2831.54,-147.34 2830.41,-140.43"/>
</g>
<!-- Node37 -->
<g id="node32" class="node">
<title>Node37</title>
<g id="a_node32"><a xlink:href="../../de/dec/vgraphicssimpletextitem_8cpp.html" target="_top" xlink:title=" ">
<polygon fill="white" stroke="black" points="3327,-73 3327,-92 3571,-92 3571,-73 3327,-73"/>
<text text-anchor="middle" x="3449" y="-80" font-family="Helvetica,sans-Serif" font-size="10.00">src/libs/vwidgets/vgraphicssimpletextitem.cpp</text>
</a>
</g>
</g>
<!-- Node4&#45;&gt;Node37 -->
<g id="edge32" class="edge">
<title>Node4&#45;&gt;Node37</title>
<path fill="none" stroke="midnightblue" d="M2864.47,-144.47C2973.83,-133.49 3158.38,-114.82 3317,-98 3334.88,-96.1 3354.12,-94.02 3372.23,-92.03"/>
<polygon fill="midnightblue" stroke="midnightblue" points="2864.05,-140.99 2854.45,-145.47 2864.75,-147.95 2864.05,-140.99"/>
</g>
<!-- Node38 -->
<g id="node33" class="node">
<title>Node38</title>
<g id="a_node33"><a xlink:href="../../d1/d90/vgrainlineitem_8cpp.html" target="_top" xlink:title=" ">
<polygon fill="white" stroke="black" points="3589.5,-73 3589.5,-92 3782.5,-92 3782.5,-73 3589.5,-73"/>
<text text-anchor="middle" x="3686" y="-80" font-family="Helvetica,sans-Serif" font-size="10.00">src/libs/vwidgets/vgrainlineitem.cpp</text>
</a>
</g>
</g>
<!-- Node4&#45;&gt;Node38 -->
<g id="edge33" class="edge">
<title>Node4&#45;&gt;Node38</title>
<path fill="none" stroke="midnightblue" d="M2876.59,-148.87C3032.09,-140.93 3328.6,-123.85 3580,-98 3595.89,-96.37 3613.07,-94.19 3628.87,-92.03"/>
<polygon fill="midnightblue" stroke="midnightblue" points="2876.36,-145.38 2866.55,-149.38 2876.72,-152.37 2876.36,-145.38"/>
</g>
<!-- Node39 -->
<g id="node34" class="node">
<title>Node39</title>
<g id="a_node34"><a xlink:href="../../d1/d88/vmaingraphicsscene_8cpp.html" target="_top" xlink:title=" ">
<polygon fill="white" stroke="black" points="3801,-73 3801,-92 4023,-92 4023,-73 3801,-73"/>
<text text-anchor="middle" x="3912" y="-80" font-family="Helvetica,sans-Serif" font-size="10.00">src/libs/vwidgets/vmaingraphicsscene.cpp</text>
</a>
</g>
</g>
<!-- Node4&#45;&gt;Node39 -->
<g id="edge34" class="edge">
<title>Node4&#45;&gt;Node39</title>
<path fill="none" stroke="midnightblue" d="M2876.82,-150.38C3063.37,-143.61 3458.34,-127.02 3791,-98 3809.34,-96.4 3829.19,-94.21 3847.4,-92.02"/>
<polygon fill="midnightblue" stroke="midnightblue" points="2876.6,-146.89 2866.74,-150.74 2876.86,-153.88 2876.6,-146.89"/>
</g>
<!-- Node40 -->
<g id="node35" class="node">
<title>Node40</title>
<g id="a_node35"><a xlink:href="../../d2/d31/vmaingraphicsview_8cpp.html" target="_top" xlink:title=" ">
<polygon fill="white" stroke="black" points="4041,-73 4041,-92 4257,-92 4257,-73 4041,-73"/>
<text text-anchor="middle" x="4149" y="-80" font-family="Helvetica,sans-Serif" font-size="10.00">src/libs/vwidgets/vmaingraphicsview.cpp</text>
</a>
</g>
</g>
<!-- Node4&#45;&gt;Node40 -->
<g id="edge35" class="edge">
<title>Node4&#45;&gt;Node40</title>
<path fill="none" stroke="midnightblue" d="M2876.8,-152.09C3095.14,-147.59 3605.17,-133.86 4032,-98 4050.15,-96.48 4069.82,-94.26 4087.77,-92.01"/>
<polygon fill="midnightblue" stroke="midnightblue" points="2876.55,-148.59 2866.62,-152.3 2876.69,-155.59 2876.55,-148.59"/>
</g>
<!-- Node41 -->
<g id="node36" class="node">
<title>Node41</title>
<g id="a_node36"><a xlink:href="../../d0/d5d/vscenepoint_8cpp.html" target="_top" xlink:title=" ">
<polygon fill="white" stroke="black" points="4275.5,-73 4275.5,-92 4456.5,-92 4456.5,-73 4275.5,-73"/>
<text text-anchor="middle" x="4366" y="-80" font-family="Helvetica,sans-Serif" font-size="10.00">src/libs/vwidgets/vscenepoint.cpp</text>
</a>
</g>
</g>
<!-- Node4&#45;&gt;Node41 -->
<g id="edge36" class="edge">
<title>Node4&#45;&gt;Node41</title>
<path fill="none" stroke="midnightblue" d="M2876.91,-153.9C3123.51,-152.82 3747.08,-145.19 4266,-98 4281.9,-96.55 4299.13,-94.3 4314.74,-92"/>
<polygon fill="midnightblue" stroke="midnightblue" points="2876.86,-150.4 2866.87,-153.94 2876.89,-157.4 2876.86,-150.4"/>
</g>
<!-- Node42 -->
<g id="node37" class="node">
<title>Node42</title>
<g id="a_node37"><a xlink:href="../../de/d22/vsimplecurve_8cpp.html" target="_top" xlink:title=" ">
<polygon fill="white" stroke="black" points="4475,-73 4475,-92 4663,-92 4663,-73 4475,-73"/>
<text text-anchor="middle" x="4569" y="-80" font-family="Helvetica,sans-Serif" font-size="10.00">src/libs/vwidgets/vsimplecurve.cpp</text>
</a>
</g>
</g>
<!-- Node4&#45;&gt;Node42 -->
<g id="edge37" class="edge">
<title>Node4&#45;&gt;Node42</title>
<path fill="none" stroke="midnightblue" d="M2876.86,-154.38C3145.63,-154.47 3866.57,-149.45 4465,-98 4481.53,-96.58 4499.45,-94.34 4515.68,-92.03"/>
<polygon fill="midnightblue" stroke="midnightblue" points="2876.72,-150.88 2866.72,-154.37 2876.72,-157.88 2876.72,-150.88"/>
</g>
<!-- Node43 -->
<g id="node38" class="node">
<title>Node43</title>
<g id="a_node38"><a xlink:href="../../df/d38/vsimplepoint_8cpp.html" target="_top" xlink:title=" ">
<polygon fill="white" stroke="black" points="4681.5,-73 4681.5,-92 4866.5,-92 4866.5,-73 4681.5,-73"/>
<text text-anchor="middle" x="4774" y="-80" font-family="Helvetica,sans-Serif" font-size="10.00">src/libs/vwidgets/vsimplepoint.cpp</text>
</a>
</g>
</g>
<!-- Node4&#45;&gt;Node43 -->
<g id="edge38" class="edge">
<title>Node4&#45;&gt;Node43</title>
<path fill="none" stroke="midnightblue" d="M2876.73,-152.42C3225.16,-147.05 4319.4,-128.16 4672,-98 4688.4,-96.6 4706.18,-94.33 4722.24,-92"/>
<polygon fill="midnightblue" stroke="midnightblue" points="2876.58,-148.92 2866.64,-152.57 2876.69,-155.92 2876.58,-148.92"/>
</g>
<!-- Node44 -->
<g id="node39" class="node">
<title>Node44</title>
<g id="a_node39"><a xlink:href="../../df/df5/vtextgraphicsitem_8cpp.html" target="_top" xlink:title=" ">
<polygon fill="white" stroke="black" points="4884.5,-73 4884.5,-92 5095.5,-92 5095.5,-73 4884.5,-73"/>
<text text-anchor="middle" x="4990" y="-80" font-family="Helvetica,sans-Serif" font-size="10.00">src/libs/vwidgets/vtextgraphicsitem.cpp</text>
</a>
</g>
</g>
<!-- Node4&#45;&gt;Node44 -->
<g id="edge39" class="edge">
<title>Node4&#45;&gt;Node44</title>
<path fill="none" stroke="midnightblue" d="M2876.84,-152.54C3249.36,-147.29 4480.6,-128.03 4875,-98 4893.36,-96.6 4913.29,-94.35 4931.31,-92.04"/>
<polygon fill="midnightblue" stroke="midnightblue" points="2876.56,-149.05 2866.61,-152.69 2876.65,-156.05 2876.56,-149.05"/>
</g>
<!-- Node13&#45;&gt;Node14 -->
<g id="edge10" class="edge">
<title>Node13&#45;&gt;Node14</title>
<path fill="none" stroke="midnightblue" d="M931.72,-58.87C925.79,-49.46 919.09,-38.83 913.88,-30.58"/>
<polygon fill="midnightblue" stroke="midnightblue" points="928.81,-60.81 937.1,-67.4 934.73,-57.07 928.81,-60.81"/>
</g>
<!-- Node45&#45;&gt;Node4 -->
<g id="edge48" class="edge">
<title>Node45&#45;&gt;Node4</title>
<path fill="none" stroke="midnightblue" d="M896.65,-224.18C1180.04,-213.86 2328.02,-172.06 2671.47,-159.55"/>
<polygon fill="midnightblue" stroke="midnightblue" points="896.41,-220.69 886.55,-224.55 896.67,-227.68 896.41,-220.69"/>
</g>
<!-- Node45&#45;&gt;Node19 -->
<g id="edge47" class="edge">
<title>Node45&#45;&gt;Node19</title>
<path fill="none" stroke="midnightblue" d="M863.8,-206.13C873.4,-198.01 882.83,-187.78 888,-176 895.51,-158.91 900.19,-148.14 888,-134 886.86,-132.68 705.11,-106.06 608.63,-92.02"/>
<polygon fill="midnightblue" stroke="midnightblue" points="861.47,-203.5 855.78,-212.44 865.8,-209 861.47,-203.5"/>
</g>
<!-- Node45&#45;&gt;Node24 -->
<g id="edge51" class="edge">
<title>Node45&#45;&gt;Node24</title>
<path fill="none" stroke="midnightblue" d="M896.68,-224.97C1148,-218.92 2095.26,-196.03 2875,-176 3037.67,-171.82 5641.57,-118.52 5803,-98 5806.01,-97.62 5809.08,-97.16 5812.17,-96.63"/>
<polygon fill="midnightblue" stroke="midnightblue" points="896.55,-221.47 886.64,-225.21 896.72,-228.47 896.55,-221.47"/>
</g>
<!-- Node45&#45;&gt;Node25 -->
<g id="edge52" class="edge">
<title>Node45&#45;&gt;Node25</title>
<path fill="none" stroke="midnightblue" d="M769.41,-224.79C662.56,-221.02 452.23,-209.47 387,-176 364.6,-164.51 368.56,-149.84 349,-134 331.22,-119.6 308.85,-106.72 291.25,-97.56"/>
<polygon fill="midnightblue" stroke="midnightblue" points="769.31,-228.29 779.42,-225.13 769.55,-221.29 769.31,-228.29"/>
</g>
<!-- Node45&#45;&gt;Node26 -->
<g id="edge54" class="edge">
<title>Node45&#45;&gt;Node26</title>
<path fill="none" stroke="midnightblue" d="M848.22,-203.55C859.86,-182.86 871.25,-152.86 854,-134 823.58,-100.75 494.51,-105.07 450,-98 446.9,-97.51 443.72,-96.95 440.52,-96.34"/>
<polygon fill="midnightblue" stroke="midnightblue" points="845.1,-201.96 842.96,-212.33 851.1,-205.56 845.1,-201.96"/>
</g>
<!-- Node46 -->
<g id="node41" class="node">
<title>Node46</title>
<g id="a_node41"><a xlink:href="../../dc/db7/measurements_8h.html" target="_top" xlink:title=" ">
<polygon fill="white" stroke="black" points="161.5,-145.5 161.5,-164.5 340.5,-164.5 340.5,-145.5 161.5,-145.5"/>
<text text-anchor="middle" x="251" y="-152.5" font-family="Helvetica,sans-Serif" font-size="10.00">src/libs/vformat/measurements.h</text>
</a>
</g>
</g>
<!-- Node45&#45;&gt;Node46 -->
<g id="edge42" class="edge">
<title>Node45&#45;&gt;Node46</title>
<path fill="none" stroke="midnightblue" d="M769.44,-221.51C677.65,-213.91 502.78,-197.98 355,-176 333.9,-172.86 310.57,-168.46 291.36,-164.59"/>
<polygon fill="midnightblue" stroke="midnightblue" points="769.15,-225 779.41,-222.33 769.73,-218.02 769.15,-225"/>
</g>
<!-- Node47 -->
<g id="node42" class="node">
<title>Node47</title>
<g id="a_node42"><a xlink:href="../../d9/de3/measurements_8cpp.html" target="_top" xlink:title=" ">
<polygon fill="white" stroke="black" points="0,-73 0,-92 190,-92 190,-73 0,-73"/>
<text text-anchor="middle" x="95" y="-80" font-family="Helvetica,sans-Serif" font-size="10.00">src/libs/vformat/measurements.cpp</text>
</a>
</g>
</g>
<!-- Node45&#45;&gt;Node47 -->
<g id="edge44" class="edge">
<title>Node45&#45;&gt;Node47</title>
<path fill="none" stroke="midnightblue" d="M769.15,-225.05C609.86,-220.98 203.95,-207.58 152,-176 119.76,-156.4 103.11,-110.97 97.36,-92.03"/>
<polygon fill="midnightblue" stroke="midnightblue" points="769.19,-228.55 779.28,-225.31 769.37,-221.56 769.19,-228.55"/>
</g>
<!-- Node48 -->
<g id="node43" class="node">
<title>Node48</title>
<g id="a_node43"><a xlink:href="../../d6/de0/vlayoutpiece_8h.html" target="_top" xlink:title=" ">
<polygon fill="white" stroke="red" points="940,-145.5 940,-164.5 1106,-164.5 1106,-145.5 940,-145.5"/>
<text text-anchor="middle" x="1023" y="-152.5" font-family="Helvetica,sans-Serif" font-size="10.00">src/libs/vlayout/vlayoutpiece.h</text>
</a>
</g>
</g>
<!-- Node45&#45;&gt;Node48 -->
<g id="edge45" class="edge">
<title>Node45&#45;&gt;Node48</title>
<path fill="none" stroke="midnightblue" d="M880.37,-208.92C918.51,-194.77 970.48,-175.49 1000,-164.53"/>
<polygon fill="midnightblue" stroke="midnightblue" points="879.15,-205.64 870.99,-212.4 881.59,-212.21 879.15,-205.64"/>
</g>
<!-- Node57 -->
<g id="node44" class="node">
<title>Node57</title>
<g id="a_node44"><a xlink:href="../../d3/d02/custom__variable__p_8h.html" target="_top" xlink:title=" ">
<polygon fill="white" stroke="red" points="396.5,-140 396.5,-170 565.5,-170 565.5,-140 396.5,-140"/>
<text text-anchor="start" x="404.5" y="-158" font-family="Helvetica,sans-Serif" font-size="10.00">src/libs/vpatterndb</text>
<text text-anchor="middle" x="481" y="-147" font-family="Helvetica,sans-Serif" font-size="10.00">/variables/custom_variable_p.h</text>
</a>
</g>
</g>
<!-- Node45&#45;&gt;Node57 -->
<g id="edge49" class="edge">
<title>Node45&#45;&gt;Node57</title>
<path fill="none" stroke="midnightblue" d="M768.96,-214.27C716.72,-204.22 641.03,-189.49 575,-176 565.68,-174.1 555.85,-172.05 546.2,-170.02"/>
<polygon fill="midnightblue" stroke="midnightblue" points="768.61,-217.76 779.09,-216.21 769.93,-210.89 768.61,-217.76"/>
</g>
<!-- Node59 -->
<g id="node45" class="node">
<title>Node59</title>
<g id="a_node45"><a xlink:href="../../d7/d8a/measurement__variable__p_8h.html" target="_top" xlink:title=" ">
<polygon fill="white" stroke="red" points="584,-134.5 584,-175.5 720,-175.5 720,-134.5 584,-134.5"/>
<text text-anchor="start" x="592" y="-163.5" font-family="Helvetica,sans-Serif" font-size="10.00">src/libs/vpatterndb</text>
<text text-anchor="start" x="592" y="-152.5" font-family="Helvetica,sans-Serif" font-size="10.00">/variables/measurement</text>
<text text-anchor="middle" x="652" y="-141.5" font-family="Helvetica,sans-Serif" font-size="10.00">_variable_p.h</text>
</a>
</g>
</g>
<!-- Node45&#45;&gt;Node59 -->
<g id="edge50" class="edge">
<title>Node45&#45;&gt;Node59</title>
<path fill="none" stroke="midnightblue" d="M787.21,-208.67C761.28,-198.57 728.81,-185.92 702.18,-175.55"/>
<polygon fill="midnightblue" stroke="midnightblue" points="786.22,-212.03 796.81,-212.4 788.76,-205.51 786.22,-212.03"/>
</g>
<!-- Node61 -->
<g id="node46" class="node">
<title>Node61</title>
<g id="a_node46"><a xlink:href="../../d6/d91/vnodedetail_8cpp.html" target="_top" xlink:title=" ">
<polygon fill="white" stroke="black" points="738.5,-140 738.5,-170 845.5,-170 845.5,-140 738.5,-140"/>
<text text-anchor="start" x="746.5" y="-158" font-family="Helvetica,sans-Serif" font-size="10.00">src/libs/vpatterndb</text>
<text text-anchor="middle" x="792" y="-147" font-family="Helvetica,sans-Serif" font-size="10.00">/vnodedetail.cpp</text>
</a>
</g>
</g>
<!-- Node45&#45;&gt;Node61 -->
<g id="edge53" class="edge">
<title>Node45&#45;&gt;Node61</title>
<path fill="none" stroke="midnightblue" d="M819.66,-203.56C813.28,-192.59 805.84,-179.8 800.28,-170.25"/>
<polygon fill="midnightblue" stroke="midnightblue" points="816.65,-205.35 824.7,-212.23 822.7,-201.83 816.65,-205.35"/>
</g>
<!-- Node46&#45;&gt;Node47 -->
<g id="edge43" class="edge">
<title>Node46&#45;&gt;Node47</title>
<path fill="none" stroke="midnightblue" d="M223.05,-141.37C191.52,-127.12 141.09,-104.33 113.88,-92.03"/>
<polygon fill="midnightblue" stroke="midnightblue" points="221.63,-144.57 232.18,-145.5 224.51,-138.19 221.63,-144.57"/>
</g>
<!-- Node48&#45;&gt;Node18 -->
<g id="edge46" class="edge">
<title>Node48&#45;&gt;Node18</title>
<path fill="none" stroke="midnightblue" d="M980.04,-142.99C925.1,-128.9 831.12,-104.81 781.29,-92.03"/>
<polygon fill="midnightblue" stroke="midnightblue" points="979.27,-146.4 989.83,-145.5 981.01,-139.62 979.27,-146.4"/>
</g>
</g>
</svg>
