<?xml version="1.0" encoding="UTF-8" standalone="no"?>
<!DOCTYPE svg PUBLIC "-//W3C//DTD SVG 1.1//EN"
 "http://www.w3.org/Graphics/SVG/1.1/DTD/svg11.dtd">
<!-- Generated by graphviz version 2.43.0 (0)
 -->
<!-- Title: src/app/seamly2d/dialogs/layoutsettings_dialog.h Pages: 1 -->
<svg width="4179pt" height="240pt"
 viewBox="0.00 0.00 4179.00 240.00" xmlns="http://www.w3.org/2000/svg" xmlns:xlink="http://www.w3.org/1999/xlink">
<g id="graph0" class="graph" transform="scale(1 1) rotate(0) translate(4 236)">
<title>src/app/seamly2d/dialogs/layoutsettings_dialog.h</title>
<polygon fill="white" stroke="transparent" points="-4,4 -4,-236 4175,-236 4175,4 -4,4"/>
<!-- Node1 -->
<g id="node1" class="node">
<title>Node1</title>
<g id="a_node1"><a xlink:title=" ">
<polygon fill="#bfbfbf" stroke="black" points="2675,-201.5 2675,-231.5 2816,-231.5 2816,-201.5 2675,-201.5"/>
<text text-anchor="start" x="2683" y="-219.5" font-family="Helvetica,sans-Serif" font-size="10.00">src/app/seamly2d/dialogs</text>
<text text-anchor="middle" x="2745.5" y="-208.5" font-family="Helvetica,sans-Serif" font-size="10.00">/layoutsettings_dialog.h</text>
</a>
</g>
</g>
<!-- Node2 -->
<g id="node2" class="node">
<title>Node2</title>
<g id="a_node2"><a xlink:href="../../dd/d57/vcmdexport_8h.html" target="_top" xlink:title=" ">
<polygon fill="white" stroke="black" points="2518,-134.5 2518,-164.5 2645,-164.5 2645,-134.5 2518,-134.5"/>
<text text-anchor="start" x="2526" y="-152.5" font-family="Helvetica,sans-Serif" font-size="10.00">src/app/seamly2d/core</text>
<text text-anchor="middle" x="2581.5" y="-141.5" font-family="Helvetica,sans-Serif" font-size="10.00">/vcmdexport.h</text>
</a>
</g>
</g>
<!-- Node1&#45;&gt;Node2 -->
<g id="edge1" class="edge">
<title>Node1&#45;&gt;Node2</title>
<path fill="none" stroke="midnightblue" d="M2700.54,-197.68C2674.24,-187.26 2641.5,-174.28 2617.02,-164.58"/>
<polygon fill="midnightblue" stroke="midnightblue" points="2699.33,-200.97 2709.91,-201.4 2701.91,-194.46 2699.33,-200.97"/>
</g>
<!-- Node19 -->
<g id="node19" class="node">
<title>Node19</title>
<g id="a_node19"><a xlink:href="../../d0/dfa/layoutsettings__dialog_8cpp.html" target="_top" xlink:title=" ">
<polygon fill="white" stroke="black" points="3787,-0.5 3787,-30.5 3932,-30.5 3932,-0.5 3787,-0.5"/>
<text text-anchor="start" x="3795" y="-18.5" font-family="Helvetica,sans-Serif" font-size="10.00">src/app/seamly2d/dialogs</text>
<text text-anchor="middle" x="3859.5" y="-7.5" font-family="Helvetica,sans-Serif" font-size="10.00">/layoutsettings_dialog.cpp</text>
</a>
</g>
</g>
<!-- Node1&#45;&gt;Node19 -->
<g id="edge32" class="edge">
<title>Node1&#45;&gt;Node19</title>
<path fill="none" stroke="midnightblue" d="M2826.11,-201.11C3000.05,-170.07 3423.58,-94.46 3778.5,-31 3781.17,-30.52 3783.89,-30.04 3786.64,-29.54"/>
<polygon fill="midnightblue" stroke="midnightblue" points="2825.49,-197.67 2816.26,-202.87 2826.72,-204.56 2825.49,-197.67"/>
</g>
<!-- Node24 -->
<g id="node24" class="node">
<title>Node24</title>
<g id="a_node24"><a xlink:href="../../d8/de8/mainwindowsnogui_8cpp.html" target="_top" xlink:title=" ">
<polygon fill="white" stroke="black" points="3950,-6 3950,-25 4171,-25 4171,-6 3950,-6"/>
<text text-anchor="middle" x="4060.5" y="-13" font-family="Helvetica,sans-Serif" font-size="10.00">src/app/seamly2d/mainwindowsnogui.cpp</text>
</a>
</g>
</g>
<!-- Node1&#45;&gt;Node24 -->
<g id="edge33" class="edge">
<title>Node1&#45;&gt;Node24</title>
<path fill="none" stroke="midnightblue" d="M2826.49,-205.62C2904.85,-195.9 3026.94,-180.33 3132.5,-165 3468.35,-116.23 3871.07,-48.68 4010.28,-25.06"/>
<polygon fill="midnightblue" stroke="midnightblue" points="2825.7,-202.19 2816.2,-206.9 2826.56,-209.14 2825.7,-202.19"/>
</g>
<!-- Node27 -->
<g id="node27" class="node">
<title>Node27</title>
<g id="a_node27"><a xlink:href="../../df/d9b/vcmdexport_8cpp.html" target="_top" xlink:title=" ">
<polygon fill="white" stroke="black" points="2577,-67.5 2577,-97.5 2704,-97.5 2704,-67.5 2577,-67.5"/>
<text text-anchor="start" x="2585" y="-85.5" font-family="Helvetica,sans-Serif" font-size="10.00">src/app/seamly2d/core</text>
<text text-anchor="middle" x="2640.5" y="-74.5" font-family="Helvetica,sans-Serif" font-size="10.00">/vcmdexport.cpp</text>
</a>
</g>
</g>
<!-- Node1&#45;&gt;Node27 -->
<g id="edge31" class="edge">
<title>Node1&#45;&gt;Node27</title>
<path fill="none" stroke="midnightblue" d="M2728.03,-193.54C2706.33,-166.25 2669.92,-120.48 2651.66,-97.52"/>
<polygon fill="midnightblue" stroke="midnightblue" points="2725.3,-195.73 2734.26,-201.37 2730.78,-191.37 2725.3,-195.73"/>
</g>
<!-- Node3 -->
<g id="node3" class="node">
<title>Node3</title>
<g id="a_node3"><a xlink:href="../../d9/d02/vapplication_8h.html" target="_top" xlink:title=" ">
<polygon fill="white" stroke="black" points="1963,-67.5 1963,-97.5 2090,-97.5 2090,-67.5 1963,-67.5"/>
<text text-anchor="start" x="1971" y="-85.5" font-family="Helvetica,sans-Serif" font-size="10.00">src/app/seamly2d/core</text>
<text text-anchor="middle" x="2026.5" y="-74.5" font-family="Helvetica,sans-Serif" font-size="10.00">/vapplication.h</text>
</a>
</g>
</g>
<!-- Node2&#45;&gt;Node3 -->
<g id="edge2" class="edge">
<title>Node2&#45;&gt;Node3</title>
<path fill="none" stroke="midnightblue" d="M2507.85,-139.87C2398.21,-127.03 2193.89,-103.1 2090.28,-90.97"/>
<polygon fill="midnightblue" stroke="midnightblue" points="2507.5,-143.36 2517.83,-141.04 2508.31,-136.4 2507.5,-143.36"/>
</g>
<!-- Node2&#45;&gt;Node27 -->
<g id="edge26" class="edge">
<title>Node2&#45;&gt;Node27</title>
<path fill="none" stroke="midnightblue" d="M2601.25,-126.74C2609.98,-117.12 2620,-106.09 2627.72,-97.58"/>
<polygon fill="midnightblue" stroke="midnightblue" points="2598.43,-124.64 2594.3,-134.4 2603.61,-129.34 2598.43,-124.64"/>
</g>
<!-- Node28 -->
<g id="node28" class="node">
<title>Node28</title>
<g id="a_node28"><a xlink:href="../../d9/d53/mainwindow_8h.html" target="_top" xlink:title=" ">
<polygon fill="white" stroke="black" points="226.5,-73 226.5,-92 402.5,-92 402.5,-73 226.5,-73"/>
<text text-anchor="middle" x="314.5" y="-80" font-family="Helvetica,sans-Serif" font-size="10.00">src/app/seamly2d/mainwindow.h</text>
</a>
</g>
</g>
<!-- Node2&#45;&gt;Node28 -->
<g id="edge27" class="edge">
<title>Node2&#45;&gt;Node28</title>
<path fill="none" stroke="midnightblue" d="M2507.74,-146.39C2169.7,-136.69 769.25,-96.54 402.65,-86.03"/>
<polygon fill="midnightblue" stroke="midnightblue" points="2507.81,-149.89 2517.9,-146.68 2508.01,-142.89 2507.81,-149.89"/>
</g>
<!-- Node4 -->
<g id="node4" class="node">
<title>Node4</title>
<g id="a_node4"><a xlink:href="../../d3/dd8/vapplication_8cpp.html" target="_top" xlink:title=" ">
<polygon fill="white" stroke="black" points="0,-0.5 0,-30.5 127,-30.5 127,-0.5 0,-0.5"/>
<text text-anchor="start" x="8" y="-18.5" font-family="Helvetica,sans-Serif" font-size="10.00">src/app/seamly2d/core</text>
<text text-anchor="middle" x="63.5" y="-7.5" font-family="Helvetica,sans-Serif" font-size="10.00">/vapplication.cpp</text>
</a>
</g>
</g>
<!-- Node3&#45;&gt;Node4 -->
<g id="edge3" class="edge">
<title>Node3&#45;&gt;Node4</title>
<path fill="none" stroke="midnightblue" d="M1952.41,-81.22C1648.56,-79.83 496.91,-71.91 135.5,-31 132.71,-30.68 129.87,-30.32 127.01,-29.91"/>
<polygon fill="midnightblue" stroke="midnightblue" points="1952.84,-84.73 1962.86,-81.27 1952.88,-77.73 1952.84,-84.73"/>
</g>
<!-- Node5 -->
<g id="node5" class="node">
<title>Node5</title>
<g id="a_node5"><a xlink:href="../../dd/db4/abstractlayout__dialog_8cpp.html" target="_top" xlink:title=" ">
<polygon fill="white" stroke="black" points="1461.5,-0.5 1461.5,-30.5 1607.5,-30.5 1607.5,-0.5 1461.5,-0.5"/>
<text text-anchor="start" x="1469.5" y="-18.5" font-family="Helvetica,sans-Serif" font-size="10.00">src/app/seamly2d/dialogs</text>
<text text-anchor="middle" x="1534.5" y="-7.5" font-family="Helvetica,sans-Serif" font-size="10.00">/abstractlayout_dialog.cpp</text>
</a>
</g>
</g>
<!-- Node3&#45;&gt;Node5 -->
<g id="edge4" class="edge">
<title>Node3&#45;&gt;Node5</title>
<path fill="none" stroke="midnightblue" d="M1952.8,-73.6C1870.61,-64.52 1733.78,-48.58 1616.5,-31 1613.64,-30.57 1610.73,-30.12 1607.79,-29.66"/>
<polygon fill="midnightblue" stroke="midnightblue" points="1952.47,-77.09 1962.8,-74.7 1953.24,-70.13 1952.47,-77.09"/>
</g>
<!-- Node6 -->
<g id="node6" class="node">
<title>Node6</title>
<g id="a_node6"><a xlink:href="../../d7/dfa/calculator__dialog_8cpp.html" target="_top" xlink:title=" ">
<polygon fill="white" stroke="black" points="1626,-0.5 1626,-30.5 1767,-30.5 1767,-0.5 1626,-0.5"/>
<text text-anchor="start" x="1634" y="-18.5" font-family="Helvetica,sans-Serif" font-size="10.00">src/app/seamly2d/dialogs</text>
<text text-anchor="middle" x="1696.5" y="-7.5" font-family="Helvetica,sans-Serif" font-size="10.00">/calculator_dialog.cpp</text>
</a>
</g>
</g>
<!-- Node3&#45;&gt;Node6 -->
<g id="edge5" class="edge">
<title>Node3&#45;&gt;Node6</title>
<path fill="none" stroke="midnightblue" d="M1952.76,-66.98C1897.29,-56.05 1821.76,-41.17 1767.08,-30.4"/>
<polygon fill="midnightblue" stroke="midnightblue" points="1952.38,-70.47 1962.87,-68.97 1953.74,-63.6 1952.38,-70.47"/>
</g>
<!-- Node7 -->
<g id="node7" class="node">
<title>Node7</title>
<g id="a_node7"><a xlink:href="../../d9/d70/preferencesgraphicsviewpage_8cpp.html" target="_top" xlink:title=" ">
<polygon fill="white" stroke="black" points="1785.5,-0.5 1785.5,-30.5 2033.5,-30.5 2033.5,-0.5 1785.5,-0.5"/>
<text text-anchor="start" x="1793.5" y="-18.5" font-family="Helvetica,sans-Serif" font-size="10.00">src/app/seamly2d/dialogs</text>
<text text-anchor="middle" x="1909.5" y="-7.5" font-family="Helvetica,sans-Serif" font-size="10.00">/configpages/preferencesgraphicsviewpage.cpp</text>
</a>
</g>
</g>
<!-- Node3&#45;&gt;Node7 -->
<g id="edge6" class="edge">
<title>Node3&#45;&gt;Node7</title>
<path fill="none" stroke="midnightblue" d="M1992.18,-62.44C1973.83,-52.24 1951.62,-39.9 1934.84,-30.58"/>
<polygon fill="midnightblue" stroke="midnightblue" points="1990.67,-65.6 2001.11,-67.4 1994.07,-59.48 1990.67,-65.6"/>
</g>
<!-- Node8 -->
<g id="node8" class="node">
<title>Node8</title>
<g id="a_node8"><a xlink:href="../../dc/d20/preferencespathpage_8cpp.html" target="_top" xlink:title=" ">
<polygon fill="white" stroke="black" points="2052,-0.5 2052,-30.5 2257,-30.5 2257,-0.5 2052,-0.5"/>
<text text-anchor="start" x="2060" y="-18.5" font-family="Helvetica,sans-Serif" font-size="10.00">src/app/seamly2d/dialogs</text>
<text text-anchor="middle" x="2154.5" y="-7.5" font-family="Helvetica,sans-Serif" font-size="10.00">/configpages/preferencespathpage.cpp</text>
</a>
</g>
</g>
<!-- Node3&#45;&gt;Node8 -->
<g id="edge7" class="edge">
<title>Node3&#45;&gt;Node8</title>
<path fill="none" stroke="midnightblue" d="M2063.22,-62.85C2083.46,-52.58 2108.17,-40.03 2126.78,-30.58"/>
<polygon fill="midnightblue" stroke="midnightblue" points="2061.61,-59.75 2054.27,-67.4 2064.78,-65.99 2061.61,-59.75"/>
</g>
<!-- Node9 -->
<g id="node9" class="node">
<title>Node9</title>
<g id="a_node9"><a xlink:href="../../d2/d2d/preferencesconfigurationpage_8cpp.html" target="_top" xlink:title=" ">
<polygon fill="white" stroke="black" points="2275,-0.5 2275,-30.5 2522,-30.5 2522,-0.5 2275,-0.5"/>
<text text-anchor="start" x="2283" y="-18.5" font-family="Helvetica,sans-Serif" font-size="10.00">src/app/seamly2d/dialogs</text>
<text text-anchor="middle" x="2398.5" y="-7.5" font-family="Helvetica,sans-Serif" font-size="10.00">/configpages/preferencesconfigurationpage.cpp</text>
</a>
</g>
</g>
<!-- Node3&#45;&gt;Node9 -->
<g id="edge8" class="edge">
<title>Node3&#45;&gt;Node9</title>
<path fill="none" stroke="midnightblue" d="M2099.89,-68.68C2162.88,-57.67 2253.5,-41.84 2318.37,-30.5"/>
<polygon fill="midnightblue" stroke="midnightblue" points="2099.27,-65.23 2090.03,-70.4 2100.48,-72.13 2099.27,-65.23"/>
</g>
<!-- Node10 -->
<g id="node10" class="node">
<title>Node10</title>
<g id="a_node10"><a xlink:href="../../d2/d00/vtooloptionspropertybrowser_8cpp.html" target="_top" xlink:title=" ">
<polygon fill="white" stroke="black" points="2540.5,-0.5 2540.5,-30.5 2720.5,-30.5 2720.5,-0.5 2540.5,-0.5"/>
<text text-anchor="start" x="2548.5" y="-18.5" font-family="Helvetica,sans-Serif" font-size="10.00">src/app/seamly2d/core</text>
<text text-anchor="middle" x="2630.5" y="-7.5" font-family="Helvetica,sans-Serif" font-size="10.00">/vtooloptionspropertybrowser.cpp</text>
</a>
</g>
</g>
<!-- Node3&#45;&gt;Node10 -->
<g id="edge9" class="edge">
<title>Node3&#45;&gt;Node10</title>
<path fill="none" stroke="midnightblue" d="M2100.38,-75.13C2198.7,-66.41 2377.91,-49.7 2530.5,-31 2533.72,-30.61 2537,-30.19 2540.31,-29.76"/>
<polygon fill="midnightblue" stroke="midnightblue" points="2099.9,-71.65 2090.25,-76.02 2100.52,-78.63 2099.9,-71.65"/>
</g>
<!-- Node11 -->
<g id="node11" class="node">
<title>Node11</title>
<g id="a_node11"><a xlink:href="../../dd/dc2/decimalchart__dialog_8cpp.html" target="_top" xlink:title=" ">
<polygon fill="white" stroke="black" points="2739,-0.5 2739,-30.5 2880,-30.5 2880,-0.5 2739,-0.5"/>
<text text-anchor="start" x="2747" y="-18.5" font-family="Helvetica,sans-Serif" font-size="10.00">src/app/seamly2d/dialogs</text>
<text text-anchor="middle" x="2809.5" y="-7.5" font-family="Helvetica,sans-Serif" font-size="10.00">/decimalchart_dialog.cpp</text>
</a>
</g>
</g>
<!-- Node3&#45;&gt;Node11 -->
<g id="edge10" class="edge">
<title>Node3&#45;&gt;Node11</title>
<path fill="none" stroke="midnightblue" d="M2100.33,-78.81C2228.67,-73.56 2501.08,-59.82 2729.5,-31 2732.58,-30.61 2735.72,-30.18 2738.89,-29.72"/>
<polygon fill="midnightblue" stroke="midnightblue" points="2100.07,-75.32 2090.22,-79.22 2100.35,-82.31 2100.07,-75.32"/>
</g>
<!-- Node12 -->
<g id="node12" class="node">
<title>Node12</title>
<g id="a_node12"><a xlink:href="../../dc/d63/preferencespatternpage_8cpp.html" target="_top" xlink:title=" ">
<polygon fill="white" stroke="black" points="2898.5,-0.5 2898.5,-30.5 3116.5,-30.5 3116.5,-0.5 2898.5,-0.5"/>
<text text-anchor="start" x="2906.5" y="-18.5" font-family="Helvetica,sans-Serif" font-size="10.00">src/app/seamly2d/dialogs</text>
<text text-anchor="middle" x="3007.5" y="-7.5" font-family="Helvetica,sans-Serif" font-size="10.00">/configpages/preferencespatternpage.cpp</text>
</a>
</g>
</g>
<!-- Node3&#45;&gt;Node12 -->
<g id="edge11" class="edge">
<title>Node3&#45;&gt;Node12</title>
<path fill="none" stroke="midnightblue" d="M2100.62,-78.76C2250.06,-72.88 2598.11,-57.4 2889.5,-31 2892.38,-30.74 2895.29,-30.46 2898.24,-30.18"/>
<polygon fill="midnightblue" stroke="midnightblue" points="2100.07,-75.28 2090.21,-79.16 2100.34,-82.27 2100.07,-75.28"/>
</g>
<!-- Node13 -->
<g id="node13" class="node">
<title>Node13</title>
<g id="a_node13"><a xlink:href="../../dd/d64/dialogaboutapp_8cpp.html" target="_top" xlink:title=" ">
<polygon fill="white" stroke="black" points="3135,-0.5 3135,-30.5 3276,-30.5 3276,-0.5 3135,-0.5"/>
<text text-anchor="start" x="3143" y="-18.5" font-family="Helvetica,sans-Serif" font-size="10.00">src/app/seamly2d/dialogs</text>
<text text-anchor="middle" x="3205.5" y="-7.5" font-family="Helvetica,sans-Serif" font-size="10.00">/dialogaboutapp.cpp</text>
</a>
</g>
</g>
<!-- Node3&#45;&gt;Node13 -->
<g id="edge12" class="edge">
<title>Node3&#45;&gt;Node13</title>
<path fill="none" stroke="midnightblue" d="M2100.34,-79.39C2313.29,-73.12 2926.05,-53.56 3125.5,-31 3128.59,-30.65 3131.73,-30.25 3134.91,-29.82"/>
<polygon fill="midnightblue" stroke="midnightblue" points="2100.1,-75.9 2090.2,-79.69 2100.3,-82.9 2100.1,-75.9"/>
</g>
<!-- Node14 -->
<g id="node14" class="node">
<title>Node14</title>
<g id="a_node14"><a xlink:href="../../d6/d89/dialoglayoutprogress_8cpp.html" target="_top" xlink:title=" ">
<polygon fill="white" stroke="black" points="3294,-0.5 3294,-30.5 3437,-30.5 3437,-0.5 3294,-0.5"/>
<text text-anchor="start" x="3302" y="-18.5" font-family="Helvetica,sans-Serif" font-size="10.00">src/app/seamly2d/dialogs</text>
<text text-anchor="middle" x="3365.5" y="-7.5" font-family="Helvetica,sans-Serif" font-size="10.00">/dialoglayoutprogress.cpp</text>
</a>
</g>
</g>
<!-- Node3&#45;&gt;Node14 -->
<g id="edge13" class="edge">
<title>Node3&#45;&gt;Node14</title>
<path fill="none" stroke="midnightblue" d="M2100.49,-79.13C2352.46,-70.99 3168.08,-43.93 3285.5,-31 3288.17,-30.71 3290.88,-30.38 3293.61,-30.02"/>
<polygon fill="midnightblue" stroke="midnightblue" points="2100.22,-75.64 2090.34,-79.46 2100.44,-82.64 2100.22,-75.64"/>
</g>
<!-- Node15 -->
<g id="node15" class="node">
<title>Node15</title>
<g id="a_node15"><a xlink:href="../../d5/d18/dialogpatternproperties_8cpp.html" target="_top" xlink:title=" ">
<polygon fill="white" stroke="black" points="3455,-0.5 3455,-30.5 3610,-30.5 3610,-0.5 3455,-0.5"/>
<text text-anchor="start" x="3463" y="-18.5" font-family="Helvetica,sans-Serif" font-size="10.00">src/app/seamly2d/dialogs</text>
<text text-anchor="middle" x="3532.5" y="-7.5" font-family="Helvetica,sans-Serif" font-size="10.00">/dialogpatternproperties.cpp</text>
</a>
</g>
</g>
<!-- Node3&#45;&gt;Node15 -->
<g id="edge14" class="edge">
<title>Node3&#45;&gt;Node15</title>
<path fill="none" stroke="midnightblue" d="M2100.57,-79.44C2373.28,-71.77 3312.48,-44.62 3446.5,-31 3449.21,-30.72 3451.97,-30.42 3454.75,-30.08"/>
<polygon fill="midnightblue" stroke="midnightblue" points="2100.29,-75.94 2090.39,-79.72 2100.48,-82.94 2100.29,-75.94"/>
</g>
<!-- Node16 -->
<g id="node16" class="node">
<title>Node16</title>
<g id="a_node16"><a xlink:href="../../d5/dc5/dialogpreferences_8cpp.html" target="_top" xlink:title=" ">
<polygon fill="white" stroke="black" points="3628,-0.5 3628,-30.5 3769,-30.5 3769,-0.5 3628,-0.5"/>
<text text-anchor="start" x="3636" y="-18.5" font-family="Helvetica,sans-Serif" font-size="10.00">src/app/seamly2d/dialogs</text>
<text text-anchor="middle" x="3698.5" y="-7.5" font-family="Helvetica,sans-Serif" font-size="10.00">/dialogpreferences.cpp</text>
</a>
</g>
</g>
<!-- Node3&#45;&gt;Node16 -->
<g id="edge15" class="edge">
<title>Node3&#45;&gt;Node16</title>
<path fill="none" stroke="midnightblue" d="M2100.39,-79.47C2404.02,-71.07 3543.24,-39.16 3619.5,-31 3622.27,-30.7 3625.09,-30.36 3627.94,-29.99"/>
<polygon fill="midnightblue" stroke="midnightblue" points="2100.27,-75.97 2090.37,-79.74 2100.47,-82.97 2100.27,-75.97"/>
</g>
<!-- Node17 -->
<g id="node17" class="node">
<title>Node17</title>
<g id="a_node17"><a xlink:href="../../dd/d54/export__layout__dialog_8cpp.html" target="_top" xlink:title=" ">
<polygon fill="white" stroke="black" points="521,-0.5 521,-30.5 664,-30.5 664,-0.5 521,-0.5"/>
<text text-anchor="start" x="529" y="-18.5" font-family="Helvetica,sans-Serif" font-size="10.00">src/app/seamly2d/dialogs</text>
<text text-anchor="middle" x="592.5" y="-7.5" font-family="Helvetica,sans-Serif" font-size="10.00">/export_layout_dialog.cpp</text>
</a>
</g>
</g>
<!-- Node3&#45;&gt;Node17 -->
<g id="edge16" class="edge">
<title>Node3&#45;&gt;Node17</title>
<path fill="none" stroke="midnightblue" d="M1952.48,-80.13C1707.42,-75.36 923.79,-58.32 672.5,-31 669.83,-30.71 667.12,-30.38 664.39,-30.03"/>
<polygon fill="midnightblue" stroke="midnightblue" points="1952.64,-83.63 1962.71,-80.32 1952.77,-76.63 1952.64,-83.63"/>
</g>
<!-- Node18 -->
<g id="node18" class="node">
<title>Node18</title>
<g id="a_node18"><a xlink:href="../../db/d5c/groups__widget_8cpp.html" target="_top" xlink:title=" ">
<polygon fill="white" stroke="black" points="682,-0.5 682,-30.5 823,-30.5 823,-0.5 682,-0.5"/>
<text text-anchor="start" x="690" y="-18.5" font-family="Helvetica,sans-Serif" font-size="10.00">src/app/seamly2d/dialogs</text>
<text text-anchor="middle" x="752.5" y="-7.5" font-family="Helvetica,sans-Serif" font-size="10.00">/groups_widget.cpp</text>
</a>
</g>
</g>
<!-- Node3&#45;&gt;Node18 -->
<g id="edge17" class="edge">
<title>Node3&#45;&gt;Node18</title>
<path fill="none" stroke="midnightblue" d="M1952.75,-81.95C1765.01,-82.31 1253.97,-78.46 831.5,-31 828.73,-30.69 825.91,-30.34 823.06,-29.95"/>
<polygon fill="midnightblue" stroke="midnightblue" points="1952.79,-85.45 1962.78,-81.92 1952.77,-78.45 1952.79,-85.45"/>
</g>
<!-- Node3&#45;&gt;Node19 -->
<g id="edge18" class="edge">
<title>Node3&#45;&gt;Node19</title>
<path fill="none" stroke="midnightblue" d="M2100.59,-79.51C2428.64,-70.7 3736.16,-35.38 3778.5,-31 3781.2,-30.72 3783.95,-30.4 3786.71,-30.05"/>
<polygon fill="midnightblue" stroke="midnightblue" points="2100.15,-76.02 2090.25,-79.79 2100.34,-83.02 2100.15,-76.02"/>
</g>
<!-- Node20 -->
<g id="node20" class="node">
<title>Node20</title>
<g id="a_node20"><a xlink:href="../../dd/d84/shortcuts__dialog_8cpp.html" target="_top" xlink:title=" ">
<polygon fill="white" stroke="black" points="841,-0.5 841,-30.5 982,-30.5 982,-0.5 841,-0.5"/>
<text text-anchor="start" x="849" y="-18.5" font-family="Helvetica,sans-Serif" font-size="10.00">src/app/seamly2d/dialogs</text>
<text text-anchor="middle" x="911.5" y="-7.5" font-family="Helvetica,sans-Serif" font-size="10.00">/shortcuts_dialog.cpp</text>
</a>
</g>
</g>
<!-- Node3&#45;&gt;Node20 -->
<g id="edge19" class="edge">
<title>Node3&#45;&gt;Node20</title>
<path fill="none" stroke="midnightblue" d="M1952.8,-81.26C1782.68,-79.98 1349.65,-72.53 990.5,-31 987.73,-30.68 984.91,-30.32 982.07,-29.93"/>
<polygon fill="midnightblue" stroke="midnightblue" points="1952.87,-84.76 1962.9,-81.33 1952.92,-77.76 1952.87,-84.76"/>
</g>
<!-- Node21 -->
<g id="node21" class="node">
<title>Node21</title>
<g id="a_node21"><a xlink:href="../../d2/df4/show__info__dialog_8cpp.html" target="_top" xlink:title=" ">
<polygon fill="white" stroke="black" points="1000,-0.5 1000,-30.5 1141,-30.5 1141,-0.5 1000,-0.5"/>
<text text-anchor="start" x="1008" y="-18.5" font-family="Helvetica,sans-Serif" font-size="10.00">src/app/seamly2d/dialogs</text>
<text text-anchor="middle" x="1070.5" y="-7.5" font-family="Helvetica,sans-Serif" font-size="10.00">/show_info_dialog.cpp</text>
</a>
</g>
</g>
<!-- Node3&#45;&gt;Node21 -->
<g id="edge20" class="edge">
<title>Node3&#45;&gt;Node21</title>
<path fill="none" stroke="midnightblue" d="M1952.89,-80.34C1801.8,-77.28 1445.91,-66.6 1149.5,-31 1146.73,-30.67 1143.91,-30.3 1141.07,-29.9"/>
<polygon fill="midnightblue" stroke="midnightblue" points="1952.91,-83.84 1962.98,-80.54 1953.05,-76.84 1952.91,-83.84"/>
</g>
<!-- Node22 -->
<g id="node22" class="node">
<title>Node22</title>
<g id="a_node22"><a xlink:href="../../df/d69/welcome__dialog_8cpp.html" target="_top" xlink:title=" ">
<polygon fill="white" stroke="black" points="1159,-0.5 1159,-30.5 1300,-30.5 1300,-0.5 1159,-0.5"/>
<text text-anchor="start" x="1167" y="-18.5" font-family="Helvetica,sans-Serif" font-size="10.00">src/app/seamly2d/dialogs</text>
<text text-anchor="middle" x="1229.5" y="-7.5" font-family="Helvetica,sans-Serif" font-size="10.00">/welcome_dialog.cpp</text>
</a>
</g>
</g>
<!-- Node3&#45;&gt;Node22 -->
<g id="edge21" class="edge">
<title>Node3&#45;&gt;Node22</title>
<path fill="none" stroke="midnightblue" d="M1952.61,-79.02C1822.16,-74.03 1542.66,-60.63 1308.5,-31 1305.73,-30.65 1302.92,-30.27 1300.07,-29.86"/>
<polygon fill="midnightblue" stroke="midnightblue" points="1952.75,-82.52 1962.88,-79.4 1953.02,-75.53 1952.75,-82.52"/>
</g>
<!-- Node23 -->
<g id="node23" class="node">
<title>Node23</title>
<g id="a_node23"><a xlink:href="../../dc/d14/app_2seamly2d_2main_8cpp.html" target="_top" xlink:title=" ">
<polygon fill="white" stroke="black" points="145,-6 145,-25 296,-25 296,-6 145,-6"/>
<text text-anchor="middle" x="220.5" y="-13" font-family="Helvetica,sans-Serif" font-size="10.00">src/app/seamly2d/main.cpp</text>
</a>
</g>
</g>
<!-- Node3&#45;&gt;Node23 -->
<g id="edge22" class="edge">
<title>Node3&#45;&gt;Node23</title>
<path fill="none" stroke="midnightblue" d="M1952.54,-80.71C1666.49,-77.42 632.37,-63.52 305.5,-31 291.8,-29.64 276.96,-27.38 263.58,-25.05"/>
<polygon fill="midnightblue" stroke="midnightblue" points="1952.76,-84.21 1962.8,-80.82 1952.84,-77.21 1952.76,-84.21"/>
</g>
<!-- Node3&#45;&gt;Node24 -->
<g id="edge23" class="edge">
<title>Node3&#45;&gt;Node24</title>
<path fill="none" stroke="midnightblue" d="M2100.31,-79.51C2204.45,-76.7 2400.48,-71.43 2567.5,-67 3178.16,-50.82 3332.28,-75.99 3941.5,-31 3960.49,-29.6 3981.11,-27.34 3999.77,-25.03"/>
<polygon fill="midnightblue" stroke="midnightblue" points="2100.11,-76.01 2090.21,-79.78 2100.3,-83.01 2100.11,-76.01"/>
</g>
<!-- Node25 -->
<g id="node25" class="node">
<title>Node25</title>
<g id="a_node25"><a xlink:href="../../d3/d49/vpattern_8cpp.html" target="_top" xlink:title=" ">
<polygon fill="white" stroke="black" points="1318,-0.5 1318,-30.5 1443,-30.5 1443,-0.5 1318,-0.5"/>
<text text-anchor="start" x="1326" y="-18.5" font-family="Helvetica,sans-Serif" font-size="10.00">src/app/seamly2d/xml</text>
<text text-anchor="middle" x="1380.5" y="-7.5" font-family="Helvetica,sans-Serif" font-size="10.00">/vpattern.cpp</text>
</a>
</g>
</g>
<!-- Node3&#45;&gt;Node25 -->
<g id="edge24" class="edge">
<title>Node3&#45;&gt;Node25</title>
<path fill="none" stroke="midnightblue" d="M1952.68,-77.63C1843.11,-71.3 1631.15,-56.77 1452.5,-31 1449.47,-30.56 1446.38,-30.08 1443.26,-29.57"/>
<polygon fill="midnightblue" stroke="midnightblue" points="1952.77,-81.14 1962.96,-78.22 1953.17,-74.15 1952.77,-81.14"/>
</g>
<!-- Node26 -->
<g id="node26" class="node">
<title>Node26</title>
<g id="a_node26"><a xlink:href="../../d8/dd9/mainwindow_8cpp.html" target="_top" xlink:title=" ">
<polygon fill="white" stroke="black" points="314.5,-6 314.5,-25 502.5,-25 502.5,-6 314.5,-6"/>
<text text-anchor="middle" x="408.5" y="-13" font-family="Helvetica,sans-Serif" font-size="10.00">src/app/seamly2d/mainwindow.cpp</text>
</a>
</g>
</g>
<!-- Node3&#45;&gt;Node26 -->
<g id="edge25" class="edge">
<title>Node3&#45;&gt;Node26</title>
<path fill="none" stroke="midnightblue" d="M1952.73,-81.82C1733,-82.18 1063.8,-78.94 511.5,-31 495.13,-29.58 477.38,-27.34 461.31,-25.03"/>
<polygon fill="midnightblue" stroke="midnightblue" points="1952.86,-85.32 1962.85,-81.8 1952.84,-78.32 1952.86,-85.32"/>
</g>
<!-- Node28&#45;&gt;Node4 -->
<g id="edge28" class="edge">
<title>Node28&#45;&gt;Node4</title>
<path fill="none" stroke="midnightblue" d="M271.67,-70.41C229.17,-59.4 163.9,-42.5 117.79,-30.56"/>
<polygon fill="midnightblue" stroke="midnightblue" points="270.87,-73.82 281.43,-72.94 272.62,-67.04 270.87,-73.82"/>
</g>
<!-- Node28&#45;&gt;Node23 -->
<g id="edge29" class="edge">
<title>Node28&#45;&gt;Node23</title>
<path fill="none" stroke="midnightblue" d="M293.41,-66.92C274.83,-54.07 248.38,-35.78 232.98,-25.13"/>
<polygon fill="midnightblue" stroke="midnightblue" points="291.61,-69.93 301.82,-72.73 295.59,-64.17 291.61,-69.93"/>
</g>
<!-- Node28&#45;&gt;Node26 -->
<g id="edge30" class="edge">
<title>Node28&#45;&gt;Node26</title>
<path fill="none" stroke="midnightblue" d="M335.59,-66.92C354.17,-54.07 380.62,-35.78 396.02,-25.13"/>
<polygon fill="midnightblue" stroke="midnightblue" points="333.41,-64.17 327.18,-72.73 337.39,-69.93 333.41,-64.17"/>
</g>
</g>
</svg>
