<?xml version="1.0" encoding="UTF-8" standalone="no"?>
<!DOCTYPE svg PUBLIC "-//W3C//DTD SVG 1.1//EN"
 "http://www.w3.org/Graphics/SVG/1.1/DTD/svg11.dtd">
<!-- Generated by graphviz version 2.43.0 (0)
 -->
<!-- Title: src/app/seamly2d/dialogs/layoutsettings_dialog.h Pages: 1 -->
<svg width="4176pt" height="240pt"
 viewBox="0.00 0.00 4176.00 240.00" xmlns="http://www.w3.org/2000/svg" xmlns:xlink="http://www.w3.org/1999/xlink">
<g id="graph0" class="graph" transform="scale(1 1) rotate(0) translate(4 236)">
<title>src/app/seamly2d/dialogs/layoutsettings_dialog.h</title>
<polygon fill="white" stroke="transparent" points="-4,4 -4,-236 4172,-236 4172,4 -4,4"/>
<!-- Node1 -->
<g id="node1" class="node">
<title>Node1</title>
<g id="a_node1"><a xlink:title=" ">
<polygon fill="#bfbfbf" stroke="black" points="2662,-201.5 2662,-231.5 2803,-231.5 2803,-201.5 2662,-201.5"/>
<text text-anchor="start" x="2670" y="-219.5" font-family="Helvetica,sans-Serif" font-size="10.00">src/app/seamly2d/dialogs</text>
<text text-anchor="middle" x="2732.5" y="-208.5" font-family="Helvetica,sans-Serif" font-size="10.00">/layoutsettings_dialog.h</text>
</a>
</g>
</g>
<!-- Node2 -->
<g id="node2" class="node">
<title>Node2</title>
<g id="a_node2"><a xlink:href="../../dd/d57/vcmdexport_8h.html" target="_top" xlink:title=" ">
<polygon fill="white" stroke="black" points="2505,-134.5 2505,-164.5 2632,-164.5 2632,-134.5 2505,-134.5"/>
<text text-anchor="start" x="2513" y="-152.5" font-family="Helvetica,sans-Serif" font-size="10.00">src/app/seamly2d/core</text>
<text text-anchor="middle" x="2568.5" y="-141.5" font-family="Helvetica,sans-Serif" font-size="10.00">/vcmdexport.h</text>
</a>
</g>
</g>
<!-- Node1&#45;&gt;Node2 -->
<g id="edge1" class="edge">
<title>Node1&#45;&gt;Node2</title>
<path fill="none" stroke="midnightblue" d="M2687.54,-197.68C2661.24,-187.26 2628.5,-174.28 2604.02,-164.58"/>
<polygon fill="midnightblue" stroke="midnightblue" points="2686.33,-200.97 2696.91,-201.4 2688.91,-194.46 2686.33,-200.97"/>
</g>
<!-- Node19 -->
<g id="node19" class="node">
<title>Node19</title>
<g id="a_node19"><a xlink:href="../../d0/dfa/layoutsettings__dialog_8cpp.html" target="_top" xlink:title=" ">
<polygon fill="white" stroke="black" points="3784,-0.5 3784,-30.5 3929,-30.5 3929,-0.5 3784,-0.5"/>
<text text-anchor="start" x="3792" y="-18.5" font-family="Helvetica,sans-Serif" font-size="10.00">src/app/seamly2d/dialogs</text>
<text text-anchor="middle" x="3856.5" y="-7.5" font-family="Helvetica,sans-Serif" font-size="10.00">/layoutsettings_dialog.cpp</text>
</a>
</g>
</g>
<!-- Node1&#45;&gt;Node19 -->
<g id="edge32" class="edge">
<title>Node1&#45;&gt;Node19</title>
<path fill="none" stroke="midnightblue" d="M2812.92,-201.33C2987.95,-170.48 3416.53,-94.88 3775.5,-31 3778.17,-30.52 3780.89,-30.04 3783.64,-29.55"/>
<polygon fill="midnightblue" stroke="midnightblue" points="2812.26,-197.89 2803.02,-203.08 2813.47,-204.79 2812.26,-197.89"/>
</g>
<!-- Node24 -->
<g id="node24" class="node">
<title>Node24</title>
<g id="a_node24"><a xlink:href="../../d8/de8/mainwindowsnogui_8cpp.html" target="_top" xlink:title=" ">
<polygon fill="white" stroke="black" points="3947,-6 3947,-25 4168,-25 4168,-6 3947,-6"/>
<text text-anchor="middle" x="4057.5" y="-13" font-family="Helvetica,sans-Serif" font-size="10.00">src/app/seamly2d/mainwindowsnogui.cpp</text>
</a>
</g>
</g>
<!-- Node1&#45;&gt;Node24 -->
<g id="edge33" class="edge">
<title>Node1&#45;&gt;Node24</title>
<path fill="none" stroke="midnightblue" d="M2813.4,-205.71C2892.34,-196 3015.79,-180.38 3122.5,-165 3461.08,-116.2 3867.12,-48.6 4007.15,-25.02"/>
<polygon fill="midnightblue" stroke="midnightblue" points="2812.54,-202.29 2803.04,-206.98 2813.39,-209.24 2812.54,-202.29"/>
</g>
<!-- Node27 -->
<g id="node27" class="node">
<title>Node27</title>
<g id="a_node27"><a xlink:href="../../df/d9b/vcmdexport_8cpp.html" target="_top" xlink:title=" ">
<polygon fill="white" stroke="black" points="2564,-67.5 2564,-97.5 2691,-97.5 2691,-67.5 2564,-67.5"/>
<text text-anchor="start" x="2572" y="-85.5" font-family="Helvetica,sans-Serif" font-size="10.00">src/app/seamly2d/core</text>
<text text-anchor="middle" x="2627.5" y="-74.5" font-family="Helvetica,sans-Serif" font-size="10.00">/vcmdexport.cpp</text>
</a>
</g>
</g>
<!-- Node1&#45;&gt;Node27 -->
<g id="edge31" class="edge">
<title>Node1&#45;&gt;Node27</title>
<path fill="none" stroke="midnightblue" d="M2715.03,-193.54C2693.33,-166.25 2656.92,-120.48 2638.66,-97.52"/>
<polygon fill="midnightblue" stroke="midnightblue" points="2712.3,-195.73 2721.26,-201.37 2717.78,-191.37 2712.3,-195.73"/>
</g>
<!-- Node3 -->
<g id="node3" class="node">
<title>Node3</title>
<g id="a_node3"><a xlink:href="../../d7/d61/application__2d_8h.html" target="_top" xlink:title=" ">
<polygon fill="white" stroke="black" points="1951,-67.5 1951,-97.5 2078,-97.5 2078,-67.5 1951,-67.5"/>
<text text-anchor="start" x="1959" y="-85.5" font-family="Helvetica,sans-Serif" font-size="10.00">src/app/seamly2d/core</text>
<text text-anchor="middle" x="2014.5" y="-74.5" font-family="Helvetica,sans-Serif" font-size="10.00">/application_2d.h</text>
</a>
</g>
</g>
<!-- Node2&#45;&gt;Node3 -->
<g id="edge2" class="edge">
<title>Node2&#45;&gt;Node3</title>
<path fill="none" stroke="midnightblue" d="M2494.98,-139.87C2385.54,-127.03 2181.59,-103.1 2078.16,-90.97"/>
<polygon fill="midnightblue" stroke="midnightblue" points="2494.61,-143.35 2504.95,-141.04 2495.43,-136.4 2494.61,-143.35"/>
</g>
<!-- Node2&#45;&gt;Node27 -->
<g id="edge26" class="edge">
<title>Node2&#45;&gt;Node27</title>
<path fill="none" stroke="midnightblue" d="M2588.25,-126.74C2596.98,-117.12 2607,-106.09 2614.72,-97.58"/>
<polygon fill="midnightblue" stroke="midnightblue" points="2585.43,-124.64 2581.3,-134.4 2590.61,-129.34 2585.43,-124.64"/>
</g>
<!-- Node28 -->
<g id="node28" class="node">
<title>Node28</title>
<g id="a_node28"><a xlink:href="../../d9/d53/mainwindow_8h.html" target="_top" xlink:title=" ">
<polygon fill="white" stroke="black" points="226.5,-73 226.5,-92 402.5,-92 402.5,-73 226.5,-73"/>
<text text-anchor="middle" x="314.5" y="-80" font-family="Helvetica,sans-Serif" font-size="10.00">src/app/seamly2d/mainwindow.h</text>
</a>
</g>
</g>
<!-- Node2&#45;&gt;Node28 -->
<g id="edge27" class="edge">
<title>Node2&#45;&gt;Node28</title>
<path fill="none" stroke="midnightblue" d="M2494.86,-146.38C2158.38,-136.67 767.99,-96.58 402.73,-86.04"/>
<polygon fill="midnightblue" stroke="midnightblue" points="2494.87,-149.88 2504.97,-146.67 2495.08,-142.88 2494.87,-149.88"/>
</g>
<!-- Node4 -->
<g id="node4" class="node">
<title>Node4</title>
<g id="a_node4"><a xlink:href="../../d9/d7f/about2d__dialog_8cpp.html" target="_top" xlink:title=" ">
<polygon fill="white" stroke="black" points="1461,-0.5 1461,-30.5 1602,-30.5 1602,-0.5 1461,-0.5"/>
<text text-anchor="start" x="1469" y="-18.5" font-family="Helvetica,sans-Serif" font-size="10.00">src/app/seamly2d/dialogs</text>
<text text-anchor="middle" x="1531.5" y="-7.5" font-family="Helvetica,sans-Serif" font-size="10.00">/about2d_dialog.cpp</text>
</a>
</g>
</g>
<!-- Node3&#45;&gt;Node4 -->
<g id="edge3" class="edge">
<title>Node3&#45;&gt;Node4</title>
<path fill="none" stroke="midnightblue" d="M1940.74,-73.48C1859.81,-64.4 1726.13,-48.56 1611.5,-31 1608.43,-30.53 1605.3,-30.03 1602.14,-29.52"/>
<polygon fill="midnightblue" stroke="midnightblue" points="1940.51,-76.98 1950.83,-74.61 1941.28,-70.02 1940.51,-76.98"/>
</g>
<!-- Node5 -->
<g id="node5" class="node">
<title>Node5</title>
<g id="a_node5"><a xlink:href="../../dd/db4/abstractlayout__dialog_8cpp.html" target="_top" xlink:title=" ">
<polygon fill="white" stroke="black" points="1620.5,-0.5 1620.5,-30.5 1766.5,-30.5 1766.5,-0.5 1620.5,-0.5"/>
<text text-anchor="start" x="1628.5" y="-18.5" font-family="Helvetica,sans-Serif" font-size="10.00">src/app/seamly2d/dialogs</text>
<text text-anchor="middle" x="1693.5" y="-7.5" font-family="Helvetica,sans-Serif" font-size="10.00">/abstractlayout_dialog.cpp</text>
</a>
</g>
</g>
<!-- Node3&#45;&gt;Node5 -->
<g id="edge4" class="edge">
<title>Node3&#45;&gt;Node5</title>
<path fill="none" stroke="midnightblue" d="M1940.58,-66.53C1887.05,-55.69 1815.17,-41.14 1762.74,-30.52"/>
<polygon fill="midnightblue" stroke="midnightblue" points="1940.2,-70.03 1950.7,-68.58 1941.59,-63.17 1940.2,-70.03"/>
</g>
<!-- Node6 -->
<g id="node6" class="node">
<title>Node6</title>
<g id="a_node6"><a xlink:href="../../df/d3e/application__2d_8cpp.html" target="_top" xlink:title=" ">
<polygon fill="white" stroke="black" points="0,-0.5 0,-30.5 127,-30.5 127,-0.5 0,-0.5"/>
<text text-anchor="start" x="8" y="-18.5" font-family="Helvetica,sans-Serif" font-size="10.00">src/app/seamly2d/core</text>
<text text-anchor="middle" x="63.5" y="-7.5" font-family="Helvetica,sans-Serif" font-size="10.00">/application_2d.cpp</text>
</a>
</g>
</g>
<!-- Node3&#45;&gt;Node6 -->
<g id="edge5" class="edge">
<title>Node3&#45;&gt;Node6</title>
<path fill="none" stroke="midnightblue" d="M1940.37,-81.21C1637.68,-79.76 494.41,-71.66 135.5,-31 132.71,-30.68 129.87,-30.32 127.01,-29.91"/>
<polygon fill="midnightblue" stroke="midnightblue" points="1940.77,-84.71 1950.79,-81.26 1940.8,-77.71 1940.77,-84.71"/>
</g>
<!-- Node7 -->
<g id="node7" class="node">
<title>Node7</title>
<g id="a_node7"><a xlink:href="../../d2/d2d/preferencesconfigurationpage_8cpp.html" target="_top" xlink:title=" ">
<polygon fill="white" stroke="black" points="1785,-0.5 1785,-30.5 2032,-30.5 2032,-0.5 1785,-0.5"/>
<text text-anchor="start" x="1793" y="-18.5" font-family="Helvetica,sans-Serif" font-size="10.00">src/app/seamly2d/dialogs</text>
<text text-anchor="middle" x="1908.5" y="-7.5" font-family="Helvetica,sans-Serif" font-size="10.00">/configpages/preferencesconfigurationpage.cpp</text>
</a>
</g>
</g>
<!-- Node3&#45;&gt;Node7 -->
<g id="edge6" class="edge">
<title>Node3&#45;&gt;Node7</title>
<path fill="none" stroke="midnightblue" d="M1982.72,-62.02C1966.23,-51.9 1946.45,-39.77 1931.46,-30.58"/>
<polygon fill="midnightblue" stroke="midnightblue" points="1981.15,-65.15 1991.5,-67.4 1984.8,-59.18 1981.15,-65.15"/>
</g>
<!-- Node8 -->
<g id="node8" class="node">
<title>Node8</title>
<g id="a_node8"><a xlink:href="../../d7/dfa/calculator__dialog_8cpp.html" target="_top" xlink:title=" ">
<polygon fill="white" stroke="black" points="2050,-0.5 2050,-30.5 2191,-30.5 2191,-0.5 2050,-0.5"/>
<text text-anchor="start" x="2058" y="-18.5" font-family="Helvetica,sans-Serif" font-size="10.00">src/app/seamly2d/dialogs</text>
<text text-anchor="middle" x="2120.5" y="-7.5" font-family="Helvetica,sans-Serif" font-size="10.00">/calculator_dialog.cpp</text>
</a>
</g>
</g>
<!-- Node3&#45;&gt;Node8 -->
<g id="edge7" class="edge">
<title>Node3&#45;&gt;Node8</title>
<path fill="none" stroke="midnightblue" d="M2046.28,-62.02C2062.77,-51.9 2082.55,-39.77 2097.54,-30.58"/>
<polygon fill="midnightblue" stroke="midnightblue" points="2044.2,-59.18 2037.5,-67.4 2047.85,-65.15 2044.2,-59.18"/>
</g>
<!-- Node9 -->
<g id="node9" class="node">
<title>Node9</title>
<g id="a_node9"><a xlink:href="../../dc/d20/preferencespathpage_8cpp.html" target="_top" xlink:title=" ">
<polygon fill="white" stroke="black" points="2209,-0.5 2209,-30.5 2414,-30.5 2414,-0.5 2209,-0.5"/>
<text text-anchor="start" x="2217" y="-18.5" font-family="Helvetica,sans-Serif" font-size="10.00">src/app/seamly2d/dialogs</text>
<text text-anchor="middle" x="2311.5" y="-7.5" font-family="Helvetica,sans-Serif" font-size="10.00">/configpages/preferencespathpage.cpp</text>
</a>
</g>
</g>
<!-- Node3&#45;&gt;Node9 -->
<g id="edge8" class="edge">
<title>Node3&#45;&gt;Node9</title>
<path fill="none" stroke="midnightblue" d="M2088.1,-65.39C2136.99,-54.69 2200.56,-40.78 2247.38,-30.53"/>
<polygon fill="midnightblue" stroke="midnightblue" points="2087.23,-62 2078.21,-67.56 2088.73,-68.84 2087.23,-62"/>
</g>
<!-- Node10 -->
<g id="node10" class="node">
<title>Node10</title>
<g id="a_node10"><a xlink:href="../../d9/d70/preferencesgraphicsviewpage_8cpp.html" target="_top" xlink:title=" ">
<polygon fill="white" stroke="black" points="2431.5,-0.5 2431.5,-30.5 2679.5,-30.5 2679.5,-0.5 2431.5,-0.5"/>
<text text-anchor="start" x="2439.5" y="-18.5" font-family="Helvetica,sans-Serif" font-size="10.00">src/app/seamly2d/dialogs</text>
<text text-anchor="middle" x="2555.5" y="-7.5" font-family="Helvetica,sans-Serif" font-size="10.00">/configpages/preferencesgraphicsviewpage.cpp</text>
</a>
</g>
</g>
<!-- Node3&#45;&gt;Node10 -->
<g id="edge9" class="edge">
<title>Node3&#45;&gt;Node10</title>
<path fill="none" stroke="midnightblue" d="M2088.3,-72.63C2178.55,-61.79 2332.42,-43.3 2438.79,-30.52"/>
<polygon fill="midnightblue" stroke="midnightblue" points="2087.66,-69.18 2078.15,-73.85 2088.5,-76.13 2087.66,-69.18"/>
</g>
<!-- Node11 -->
<g id="node11" class="node">
<title>Node11</title>
<g id="a_node11"><a xlink:href="../../d2/d00/vtooloptionspropertybrowser_8cpp.html" target="_top" xlink:title=" ">
<polygon fill="white" stroke="black" points="2697.5,-0.5 2697.5,-30.5 2877.5,-30.5 2877.5,-0.5 2697.5,-0.5"/>
<text text-anchor="start" x="2705.5" y="-18.5" font-family="Helvetica,sans-Serif" font-size="10.00">src/app/seamly2d/core</text>
<text text-anchor="middle" x="2787.5" y="-7.5" font-family="Helvetica,sans-Serif" font-size="10.00">/vtooloptionspropertybrowser.cpp</text>
</a>
</g>
</g>
<!-- Node3&#45;&gt;Node11 -->
<g id="edge10" class="edge">
<title>Node3&#45;&gt;Node11</title>
<path fill="none" stroke="midnightblue" d="M2088.45,-77.67C2212.66,-70.86 2470.97,-55.05 2688.5,-31 2691.44,-30.68 2694.42,-30.33 2697.43,-29.97"/>
<polygon fill="midnightblue" stroke="midnightblue" points="2088.09,-74.19 2078.29,-78.23 2088.47,-81.18 2088.09,-74.19"/>
</g>
<!-- Node12 -->
<g id="node12" class="node">
<title>Node12</title>
<g id="a_node12"><a xlink:href="../../dc/d63/preferencespatternpage_8cpp.html" target="_top" xlink:title=" ">
<polygon fill="white" stroke="black" points="2895.5,-0.5 2895.5,-30.5 3113.5,-30.5 3113.5,-0.5 2895.5,-0.5"/>
<text text-anchor="start" x="2903.5" y="-18.5" font-family="Helvetica,sans-Serif" font-size="10.00">src/app/seamly2d/dialogs</text>
<text text-anchor="middle" x="3004.5" y="-7.5" font-family="Helvetica,sans-Serif" font-size="10.00">/configpages/preferencespatternpage.cpp</text>
</a>
</g>
</g>
<!-- Node3&#45;&gt;Node12 -->
<g id="edge11" class="edge">
<title>Node3&#45;&gt;Node12</title>
<path fill="none" stroke="midnightblue" d="M2088.1,-78.84C2238.37,-73.05 2591.23,-57.66 2886.5,-31 2889.38,-30.74 2892.29,-30.47 2895.24,-30.18"/>
<polygon fill="midnightblue" stroke="midnightblue" points="2087.92,-75.34 2078.06,-79.22 2088.19,-82.34 2087.92,-75.34"/>
</g>
<!-- Node13 -->
<g id="node13" class="node">
<title>Node13</title>
<g id="a_node13"><a xlink:href="../../dd/dc2/decimalchart__dialog_8cpp.html" target="_top" xlink:title=" ">
<polygon fill="white" stroke="black" points="3132,-0.5 3132,-30.5 3273,-30.5 3273,-0.5 3132,-0.5"/>
<text text-anchor="start" x="3140" y="-18.5" font-family="Helvetica,sans-Serif" font-size="10.00">src/app/seamly2d/dialogs</text>
<text text-anchor="middle" x="3202.5" y="-7.5" font-family="Helvetica,sans-Serif" font-size="10.00">/decimalchart_dialog.cpp</text>
</a>
</g>
</g>
<!-- Node3&#45;&gt;Node13 -->
<g id="edge12" class="edge">
<title>Node3&#45;&gt;Node13</title>
<path fill="none" stroke="midnightblue" d="M2088.19,-79.43C2302.19,-73.21 2921.18,-53.73 3122.5,-31 3125.59,-30.65 3128.73,-30.26 3131.91,-29.82"/>
<polygon fill="midnightblue" stroke="midnightblue" points="2087.9,-75.94 2078.01,-79.72 2088.11,-82.93 2087.9,-75.94"/>
</g>
<!-- Node14 -->
<g id="node14" class="node">
<title>Node14</title>
<g id="a_node14"><a xlink:href="../../d5/d18/dialogpatternproperties_8cpp.html" target="_top" xlink:title=" ">
<polygon fill="white" stroke="black" points="3291,-0.5 3291,-30.5 3446,-30.5 3446,-0.5 3291,-0.5"/>
<text text-anchor="start" x="3299" y="-18.5" font-family="Helvetica,sans-Serif" font-size="10.00">src/app/seamly2d/dialogs</text>
<text text-anchor="middle" x="3368.5" y="-7.5" font-family="Helvetica,sans-Serif" font-size="10.00">/dialogpatternproperties.cpp</text>
</a>
</g>
</g>
<!-- Node3&#45;&gt;Node14 -->
<g id="edge13" class="edge">
<title>Node3&#45;&gt;Node14</title>
<path fill="none" stroke="midnightblue" d="M2088.15,-79.8C2322.39,-74.2 3048.49,-55.29 3282.5,-31 3285.21,-30.72 3287.97,-30.41 3290.74,-30.07"/>
<polygon fill="midnightblue" stroke="midnightblue" points="2087.95,-76.3 2078.03,-80.04 2088.11,-83.3 2087.95,-76.3"/>
</g>
<!-- Node15 -->
<g id="node15" class="node">
<title>Node15</title>
<g id="a_node15"><a xlink:href="../../d5/dc5/dialogpreferences_8cpp.html" target="_top" xlink:title=" ">
<polygon fill="white" stroke="black" points="3464,-0.5 3464,-30.5 3605,-30.5 3605,-0.5 3464,-0.5"/>
<text text-anchor="start" x="3472" y="-18.5" font-family="Helvetica,sans-Serif" font-size="10.00">src/app/seamly2d/dialogs</text>
<text text-anchor="middle" x="3534.5" y="-7.5" font-family="Helvetica,sans-Serif" font-size="10.00">/dialogpreferences.cpp</text>
</a>
</g>
</g>
<!-- Node3&#45;&gt;Node15 -->
<g id="edge14" class="edge">
<title>Node3&#45;&gt;Node15</title>
<path fill="none" stroke="midnightblue" d="M2088.27,-79.55C2363.2,-72.19 3319.37,-45.8 3455.5,-31 3458.27,-30.7 3461.09,-30.36 3463.94,-29.98"/>
<polygon fill="midnightblue" stroke="midnightblue" points="2087.91,-76.06 2078.01,-79.82 2088.1,-83.06 2087.91,-76.06"/>
</g>
<!-- Node16 -->
<g id="node16" class="node">
<title>Node16</title>
<g id="a_node16"><a xlink:href="../../d6/d89/dialoglayoutprogress_8cpp.html" target="_top" xlink:title=" ">
<polygon fill="white" stroke="black" points="3623,-0.5 3623,-30.5 3766,-30.5 3766,-0.5 3623,-0.5"/>
<text text-anchor="start" x="3631" y="-18.5" font-family="Helvetica,sans-Serif" font-size="10.00">src/app/seamly2d/dialogs</text>
<text text-anchor="middle" x="3694.5" y="-7.5" font-family="Helvetica,sans-Serif" font-size="10.00">/dialoglayoutprogress.cpp</text>
</a>
</g>
</g>
<!-- Node3&#45;&gt;Node16 -->
<g id="edge15" class="edge">
<title>Node3&#45;&gt;Node16</title>
<path fill="none" stroke="midnightblue" d="M2088.21,-79.48C2392.4,-71.09 3537.86,-39.11 3614.5,-31 3617.17,-30.72 3619.88,-30.4 3622.61,-30.05"/>
<polygon fill="midnightblue" stroke="midnightblue" points="2088.07,-75.98 2078.17,-79.75 2088.26,-82.98 2088.07,-75.98"/>
</g>
<!-- Node17 -->
<g id="node17" class="node">
<title>Node17</title>
<g id="a_node17"><a xlink:href="../../dd/d54/export__layout__dialog_8cpp.html" target="_top" xlink:title=" ">
<polygon fill="white" stroke="black" points="521,-0.5 521,-30.5 664,-30.5 664,-0.5 521,-0.5"/>
<text text-anchor="start" x="529" y="-18.5" font-family="Helvetica,sans-Serif" font-size="10.00">src/app/seamly2d/dialogs</text>
<text text-anchor="middle" x="592.5" y="-7.5" font-family="Helvetica,sans-Serif" font-size="10.00">/export_layout_dialog.cpp</text>
</a>
</g>
</g>
<!-- Node3&#45;&gt;Node17 -->
<g id="edge16" class="edge">
<title>Node3&#45;&gt;Node17</title>
<path fill="none" stroke="midnightblue" d="M1940.72,-80.1C1697.35,-75.28 921.42,-58.1 672.5,-31 669.83,-30.71 667.12,-30.38 664.39,-30.03"/>
<polygon fill="midnightblue" stroke="midnightblue" points="1940.81,-83.6 1950.87,-80.3 1940.94,-76.61 1940.81,-83.6"/>
</g>
<!-- Node18 -->
<g id="node18" class="node">
<title>Node18</title>
<g id="a_node18"><a xlink:href="../../db/d5c/groups__widget_8cpp.html" target="_top" xlink:title=" ">
<polygon fill="white" stroke="black" points="682,-0.5 682,-30.5 823,-30.5 823,-0.5 682,-0.5"/>
<text text-anchor="start" x="690" y="-18.5" font-family="Helvetica,sans-Serif" font-size="10.00">src/app/seamly2d/dialogs</text>
<text text-anchor="middle" x="752.5" y="-7.5" font-family="Helvetica,sans-Serif" font-size="10.00">/groups_widget.cpp</text>
</a>
</g>
</g>
<!-- Node3&#45;&gt;Node18 -->
<g id="edge17" class="edge">
<title>Node3&#45;&gt;Node18</title>
<path fill="none" stroke="midnightblue" d="M1940.54,-81.9C1753.92,-82.14 1249.02,-78 831.5,-31 828.73,-30.69 825.91,-30.34 823.06,-29.95"/>
<polygon fill="midnightblue" stroke="midnightblue" points="1940.79,-85.4 1950.78,-81.88 1940.78,-78.4 1940.79,-85.4"/>
</g>
<!-- Node3&#45;&gt;Node19 -->
<g id="edge18" class="edge">
<title>Node3&#45;&gt;Node19</title>
<path fill="none" stroke="midnightblue" d="M2088.42,-79.53C2417.25,-70.75 3732.92,-35.4 3775.5,-31 3778.2,-30.72 3780.95,-30.4 3783.71,-30.06"/>
<polygon fill="midnightblue" stroke="midnightblue" points="2087.96,-76.04 2078.06,-79.81 2088.15,-83.04 2087.96,-76.04"/>
</g>
<!-- Node20 -->
<g id="node20" class="node">
<title>Node20</title>
<g id="a_node20"><a xlink:href="../../dd/d84/shortcuts__dialog_8cpp.html" target="_top" xlink:title=" ">
<polygon fill="white" stroke="black" points="841,-0.5 841,-30.5 982,-30.5 982,-0.5 841,-0.5"/>
<text text-anchor="start" x="849" y="-18.5" font-family="Helvetica,sans-Serif" font-size="10.00">src/app/seamly2d/dialogs</text>
<text text-anchor="middle" x="911.5" y="-7.5" font-family="Helvetica,sans-Serif" font-size="10.00">/shortcuts_dialog.cpp</text>
</a>
</g>
</g>
<!-- Node3&#45;&gt;Node20 -->
<g id="edge19" class="edge">
<title>Node3&#45;&gt;Node20</title>
<path fill="none" stroke="midnightblue" d="M1940.73,-81.2C1771.94,-79.79 1344.84,-72.07 990.5,-31 987.73,-30.68 984.91,-30.32 982.07,-29.93"/>
<polygon fill="midnightblue" stroke="midnightblue" points="1940.72,-84.7 1950.75,-81.28 1940.78,-77.7 1940.72,-84.7"/>
</g>
<!-- Node21 -->
<g id="node21" class="node">
<title>Node21</title>
<g id="a_node21"><a xlink:href="../../dc/d14/app_2seamly2d_2main_8cpp.html" target="_top" xlink:title=" ">
<polygon fill="white" stroke="black" points="145,-6 145,-25 296,-25 296,-6 145,-6"/>
<text text-anchor="middle" x="220.5" y="-13" font-family="Helvetica,sans-Serif" font-size="10.00">src/app/seamly2d/main.cpp</text>
</a>
</g>
</g>
<!-- Node3&#45;&gt;Node21 -->
<g id="edge20" class="edge">
<title>Node3&#45;&gt;Node21</title>
<path fill="none" stroke="midnightblue" d="M1940.58,-80.69C1655.85,-77.35 629.91,-63.3 305.5,-31 291.8,-29.64 276.96,-27.38 263.58,-25.05"/>
<polygon fill="midnightblue" stroke="midnightblue" points="1940.75,-84.19 1950.79,-80.81 1940.83,-77.19 1940.75,-84.19"/>
</g>
<!-- Node22 -->
<g id="node22" class="node">
<title>Node22</title>
<g id="a_node22"><a xlink:href="../../d2/df4/show__info__dialog_8cpp.html" target="_top" xlink:title=" ">
<polygon fill="white" stroke="black" points="1000,-0.5 1000,-30.5 1141,-30.5 1141,-0.5 1000,-0.5"/>
<text text-anchor="start" x="1008" y="-18.5" font-family="Helvetica,sans-Serif" font-size="10.00">src/app/seamly2d/dialogs</text>
<text text-anchor="middle" x="1070.5" y="-7.5" font-family="Helvetica,sans-Serif" font-size="10.00">/show_info_dialog.cpp</text>
</a>
</g>
</g>
<!-- Node3&#45;&gt;Node22 -->
<g id="edge21" class="edge">
<title>Node3&#45;&gt;Node22</title>
<path fill="none" stroke="midnightblue" d="M1940.33,-80.25C1790.42,-77.03 1440.83,-66.1 1149.5,-31 1146.73,-30.67 1143.91,-30.3 1141.07,-29.9"/>
<polygon fill="midnightblue" stroke="midnightblue" points="1940.7,-83.75 1950.78,-80.46 1940.85,-76.76 1940.7,-83.75"/>
</g>
<!-- Node23 -->
<g id="node23" class="node">
<title>Node23</title>
<g id="a_node23"><a xlink:href="../../df/d69/welcome__dialog_8cpp.html" target="_top" xlink:title=" ">
<polygon fill="white" stroke="black" points="1159,-0.5 1159,-30.5 1300,-30.5 1300,-0.5 1159,-0.5"/>
<text text-anchor="start" x="1167" y="-18.5" font-family="Helvetica,sans-Serif" font-size="10.00">src/app/seamly2d/dialogs</text>
<text text-anchor="middle" x="1229.5" y="-7.5" font-family="Helvetica,sans-Serif" font-size="10.00">/welcome_dialog.cpp</text>
</a>
</g>
</g>
<!-- Node3&#45;&gt;Node23 -->
<g id="edge22" class="edge">
<title>Node3&#45;&gt;Node23</title>
<path fill="none" stroke="midnightblue" d="M1940.85,-78.9C1812.16,-73.77 1538.16,-60.2 1308.5,-31 1305.73,-30.65 1302.92,-30.26 1300.08,-29.85"/>
<polygon fill="midnightblue" stroke="midnightblue" points="1940.85,-82.41 1950.98,-79.3 1941.13,-75.41 1940.85,-82.41"/>
</g>
<!-- Node3&#45;&gt;Node24 -->
<g id="edge23" class="edge">
<title>Node3&#45;&gt;Node24</title>
<path fill="none" stroke="midnightblue" d="M2088.17,-79.5C2192.12,-76.69 2387.78,-71.41 2554.5,-67 3169.6,-50.74 3324.85,-76.26 3938.5,-31 3957.49,-29.6 3978.11,-27.35 3996.77,-25.03"/>
<polygon fill="midnightblue" stroke="midnightblue" points="2087.99,-76.01 2078.09,-79.78 2088.18,-83 2087.99,-76.01"/>
</g>
<!-- Node25 -->
<g id="node25" class="node">
<title>Node25</title>
<g id="a_node25"><a xlink:href="../../d3/d49/vpattern_8cpp.html" target="_top" xlink:title=" ">
<polygon fill="white" stroke="black" points="1318,-0.5 1318,-30.5 1443,-30.5 1443,-0.5 1318,-0.5"/>
<text text-anchor="start" x="1326" y="-18.5" font-family="Helvetica,sans-Serif" font-size="10.00">src/app/seamly2d/xml</text>
<text text-anchor="middle" x="1380.5" y="-7.5" font-family="Helvetica,sans-Serif" font-size="10.00">/vpattern.cpp</text>
</a>
</g>
</g>
<!-- Node3&#45;&gt;Node25 -->
<g id="edge24" class="edge">
<title>Node3&#45;&gt;Node25</title>
<path fill="none" stroke="midnightblue" d="M1940.78,-77.53C1832.93,-71.12 1625.99,-56.56 1451.5,-31 1448.76,-30.6 1445.97,-30.16 1443.15,-29.69"/>
<polygon fill="midnightblue" stroke="midnightblue" points="1940.72,-81.03 1950.9,-78.12 1941.13,-74.04 1940.72,-81.03"/>
</g>
<!-- Node26 -->
<g id="node26" class="node">
<title>Node26</title>
<g id="a_node26"><a xlink:href="../../d8/dd9/mainwindow_8cpp.html" target="_top" xlink:title=" ">
<polygon fill="white" stroke="black" points="314.5,-6 314.5,-25 502.5,-25 502.5,-6 314.5,-6"/>
<text text-anchor="middle" x="408.5" y="-13" font-family="Helvetica,sans-Serif" font-size="10.00">src/app/seamly2d/mainwindow.cpp</text>
</a>
</g>
</g>
<!-- Node3&#45;&gt;Node26 -->
<g id="edge25" class="edge">
<title>Node3&#45;&gt;Node26</title>
<path fill="none" stroke="midnightblue" d="M1940.93,-81.79C1722.54,-82.07 1059.1,-78.61 511.5,-31 495.13,-29.58 477.38,-27.33 461.31,-25.03"/>
<polygon fill="midnightblue" stroke="midnightblue" points="1941,-85.29 1950.99,-81.78 1940.99,-78.29 1941,-85.29"/>
</g>
<!-- Node28&#45;&gt;Node6 -->
<g id="edge28" class="edge">
<title>Node28&#45;&gt;Node6</title>
<path fill="none" stroke="midnightblue" d="M271.67,-70.41C229.17,-59.4 163.9,-42.5 117.79,-30.56"/>
<polygon fill="midnightblue" stroke="midnightblue" points="270.87,-73.82 281.43,-72.94 272.62,-67.04 270.87,-73.82"/>
</g>
<!-- Node28&#45;&gt;Node21 -->
<g id="edge29" class="edge">
<title>Node28&#45;&gt;Node21</title>
<path fill="none" stroke="midnightblue" d="M293.41,-66.92C274.83,-54.07 248.38,-35.78 232.98,-25.13"/>
<polygon fill="midnightblue" stroke="midnightblue" points="291.61,-69.93 301.82,-72.73 295.59,-64.17 291.61,-69.93"/>
</g>
<!-- Node28&#45;&gt;Node26 -->
<g id="edge30" class="edge">
<title>Node28&#45;&gt;Node26</title>
<path fill="none" stroke="midnightblue" d="M335.59,-66.92C354.17,-54.07 380.62,-35.78 396.02,-25.13"/>
<polygon fill="midnightblue" stroke="midnightblue" points="333.41,-64.17 327.18,-72.73 337.39,-69.93 333.41,-64.17"/>
</g>
</g>
</svg>
