<?xml version="1.0" encoding="UTF-8" standalone="no"?>
<!DOCTYPE svg PUBLIC "-//W3C//DTD SVG 1.1//EN"
 "http://www.w3.org/Graphics/SVG/1.1/DTD/svg11.dtd">
<!-- Generated by graphviz version 2.43.0 (0)
 -->
<!-- Title: src/libs/vwidgets/resize_handle.h Pages: 1 -->
<!--zoomable 363 -->
<svg id="main" version="1.1" xmlns="http://www.w3.org/2000/svg" xmlns:xlink="http://www.w3.org/1999/xlink" xml:space="preserve" onload="init(evt)">
<style type="text/css"><![CDATA[
.edge:hover path { stroke: red; }
.edge:hover polygon { stroke: red; fill: red; }
]]></style>
<script type="text/javascript"><![CDATA[
var edges = document.getElementsByTagName('g');
if (edges && edges.length) {
  for (var i=0;i<edges.length;i++) {
    if (edges[i].id.substr(0,4)=='edge') {
      edges[i].setAttribute('class','edge');
    }
  }
}
]]></script>
        <defs>
                <circle id="rim" cx="0" cy="0" r="7"/>
                <circle id="rim2" cx="0" cy="0" r="3.5"/>
                <g id="zoomPlus">
                        <use xlink:href="#rim" fill="#404040">
                                <set attributeName="fill" to="#808080" begin="zoomplus.mouseover" end="zoomplus.mouseout"/>
                        </use>
                        <path d="M-4,0h8M0,-4v8" fill="none" stroke="white" stroke-width="1.5" pointer-events="none"/>
                </g>
                <g id="zoomMin">
                        <use xlink:href="#rim" fill="#404040">
                                <set attributeName="fill" to="#808080" begin="zoomminus.mouseover" end="zoomminus.mouseout"/>
                        </use>
                        <path d="M-4,0h8" fill="none" stroke="white" stroke-width="1.5" pointer-events="none"/>
                </g>
                <g id="dirArrow">
                        <path fill="none" stroke="white" stroke-width="1.5" d="M0,-3.0v7 M-2.5,-0.5L0,-3.0L2.5,-0.5"/>
                </g>
               <g id="resetDef">
                       <use xlink:href="#rim2" fill="#404040">
                               <set attributeName="fill" to="#808080" begin="reset.mouseover" end="reset.mouseout"/>
                       </use>
               </g>
        </defs>

<script type="text/javascript">
var viewWidth = 1718;
var viewHeight = 363;
var sectionId = 'dynsection-1';
</script>
<script xlink:href="../../svgpan.js"/>
<svg id="graph" class="graph">
<g id="viewport">
<title>src/libs/vwidgets/resize_handle.h</title>
<polygon fill="white" stroke="transparent" points="-4,4 -4,-359 1714,-359 1714,4 -4,4"/>
<!-- Node1 -->
<g id="node1" class="node">
<title>Node1</title>
<g id="a_node1"><a xlink:title=" ">
<polygon fill="#bfbfbf" stroke="black" points="1157.5,-324.5 1157.5,-354.5 1288.5,-354.5 1288.5,-324.5 1157.5,-324.5"/>
<text text-anchor="start" x="1165.5" y="-342.5" font-family="Helvetica,sans-Serif" font-size="10.00">src/libs/vwidgets/resize</text>
<text text-anchor="middle" x="1223" y="-331.5" font-family="Helvetica,sans-Serif" font-size="10.00">_handle.h</text>
</a>
</g>
</g>
<!-- Node2 -->
<g id="node2" class="node">
<title>Node2</title>
<g id="a_node2"><a xlink:href="../../d1/d8d/image__item_8h.html" target="_top" xlink:title=" ">
<polygon fill="white" stroke="black" points="1083,-257.5 1083,-287.5 1195,-287.5 1195,-257.5 1083,-257.5"/>
<text text-anchor="start" x="1091" y="-275.5" font-family="Helvetica,sans-Serif" font-size="10.00">src/libs/tools/image</text>
<text text-anchor="middle" x="1139" y="-264.5" font-family="Helvetica,sans-Serif" font-size="10.00">_item.h</text>
</a>
</g>
</g>
<!-- Node1&#45;&gt;Node2 -->
<g id="edge1" class="edge">
<title>Node1&#45;&gt;Node2</title>
<path fill="none" stroke="midnightblue" d="M1196.72,-318.17C1183.88,-308.23 1168.74,-296.51 1157.19,-287.58"/>
<polygon fill="midnightblue" stroke="midnightblue" points="1194.72,-321.04 1204.77,-324.4 1199.01,-315.51 1194.72,-321.04"/>
</g>
<!-- Node23 -->
<g id="node23" class="node">
<title>Node23</title>
<g id="a_node23"><a xlink:href="../../df/d1e/image__item_8cpp.html" target="_top" xlink:title=" ">
<polygon fill="white" stroke="black" points="1167,-190.5 1167,-220.5 1279,-220.5 1279,-190.5 1167,-190.5"/>
<text text-anchor="start" x="1175" y="-208.5" font-family="Helvetica,sans-Serif" font-size="10.00">src/libs/tools/image</text>
<text text-anchor="middle" x="1223" y="-197.5" font-family="Helvetica,sans-Serif" font-size="10.00">_item.cpp</text>
</a>
</g>
</g>
<!-- Node1&#45;&gt;Node23 -->
<g id="edge25" class="edge">
<title>Node1&#45;&gt;Node23</title>
<path fill="none" stroke="midnightblue" d="M1223,-314.02C1223,-286.51 1223,-242.79 1223,-220.52"/>
<polygon fill="midnightblue" stroke="midnightblue" points="1219.5,-314.37 1223,-324.37 1226.5,-314.37 1219.5,-314.37"/>
</g>
<!-- Node24 -->
<g id="node24" class="node">
<title>Node24</title>
<g id="a_node24"><a xlink:href="../../d1/daa/resize__handle_8cpp.html" target="_top" xlink:title=" ">
<polygon fill="white" stroke="black" points="1251.5,-257.5 1251.5,-287.5 1382.5,-287.5 1382.5,-257.5 1251.5,-257.5"/>
<text text-anchor="start" x="1259.5" y="-275.5" font-family="Helvetica,sans-Serif" font-size="10.00">src/libs/vwidgets/resize</text>
<text text-anchor="middle" x="1317" y="-264.5" font-family="Helvetica,sans-Serif" font-size="10.00">_handle.cpp</text>
</a>
</g>
</g>
<!-- Node1&#45;&gt;Node24 -->
<g id="edge26" class="edge">
<title>Node1&#45;&gt;Node24</title>
<path fill="none" stroke="midnightblue" d="M1251.99,-318.45C1266.45,-308.45 1283.59,-296.6 1296.64,-287.58"/>
<polygon fill="midnightblue" stroke="midnightblue" points="1249.63,-315.83 1243.4,-324.4 1253.61,-321.59 1249.63,-315.83"/>
</g>
<!-- Node3 -->
<g id="node3" class="node">
<title>Node3</title>
<g id="a_node3"><a xlink:href="../../d0/d89/vabstractpattern_8h.html" target="_top" xlink:title=" ">
<polygon fill="white" stroke="black" points="967.5,-196 967.5,-215 1148.5,-215 1148.5,-196 967.5,-196"/>
<text text-anchor="middle" x="1058" y="-203" font-family="Helvetica,sans-Serif" font-size="10.00">src/libs/ifc/xml/vabstractpattern.h</text>
</a>
</g>
</g>
<!-- Node2&#45;&gt;Node3 -->
<g id="edge2" class="edge">
<title>Node2&#45;&gt;Node3</title>
<path fill="none" stroke="midnightblue" d="M1113.46,-251.01C1098.43,-238.94 1080.19,-224.3 1068.83,-215.19"/>
<polygon fill="midnightblue" stroke="midnightblue" points="1111.43,-253.87 1121.42,-257.4 1115.82,-248.41 1111.43,-253.87"/>
</g>
<!-- Node2&#45;&gt;Node23 -->
<g id="edge24" class="edge">
<title>Node2&#45;&gt;Node23</title>
<path fill="none" stroke="midnightblue" d="M1165.28,-251.17C1178.12,-241.23 1193.26,-229.51 1204.81,-220.58"/>
<polygon fill="midnightblue" stroke="midnightblue" points="1162.99,-248.51 1157.23,-257.4 1167.28,-254.04 1162.99,-248.51"/>
</g>
<!-- Node4 -->
<g id="node4" class="node">
<title>Node4</title>
<g id="a_node4"><a xlink:href="../../de/d7d/vabstractpattern_8cpp.html" target="_top" xlink:title=" ">
<polygon fill="white" stroke="black" points="356,-129 356,-148 548,-148 548,-129 356,-129"/>
<text text-anchor="middle" x="452" y="-136" font-family="Helvetica,sans-Serif" font-size="10.00">src/libs/ifc/xml/vabstractpattern.cpp</text>
</a>
</g>
</g>
<!-- Node3&#45;&gt;Node4 -->
<g id="edge3" class="edge">
<title>Node3&#45;&gt;Node4</title>
<path fill="none" stroke="midnightblue" d="M957.16,-195.43C855.9,-186.07 695.47,-170.53 557,-154 542.02,-152.21 525.86,-150.08 510.82,-148.01"/>
<polygon fill="midnightblue" stroke="midnightblue" points="957.1,-198.94 967.38,-196.38 957.75,-191.97 957.1,-198.94"/>
</g>
<!-- Node5 -->
<g id="node5" class="node">
<title>Node5</title>
<g id="a_node5"><a xlink:href="../../d2/d47/image__dialog_8cpp.html" target="_top" xlink:title=" ">
<polygon fill="white" stroke="black" points="566,-123.5 566,-153.5 678,-153.5 678,-123.5 566,-123.5"/>
<text text-anchor="start" x="574" y="-141.5" font-family="Helvetica,sans-Serif" font-size="10.00">src/libs/tools/image</text>
<text text-anchor="middle" x="622" y="-130.5" font-family="Helvetica,sans-Serif" font-size="10.00">_dialog.cpp</text>
</a>
</g>
</g>
<!-- Node3&#45;&gt;Node5 -->
<g id="edge4" class="edge">
<title>Node3&#45;&gt;Node5</title>
<path fill="none" stroke="midnightblue" d="M970.93,-194.75C895.54,-185.8 783.71,-171.34 687,-154 684.15,-153.49 681.25,-152.94 678.31,-152.37"/>
<polygon fill="midnightblue" stroke="midnightblue" points="970.98,-198.28 981.32,-195.97 971.8,-191.33 970.98,-198.28"/>
</g>
<!-- Node6 -->
<g id="node6" class="node">
<title>Node6</title>
<g id="a_node6"><a xlink:href="../../d6/de0/vlayoutpiece_8h.html" target="_top" xlink:title=" ">
<polygon fill="white" stroke="black" points="696,-129 696,-148 862,-148 862,-129 696,-129"/>
<text text-anchor="middle" x="779" y="-136" font-family="Helvetica,sans-Serif" font-size="10.00">src/libs/vlayout/vlayoutpiece.h</text>
</a>
</g>
</g>
<!-- Node3&#45;&gt;Node6 -->
<g id="edge5" class="edge">
<title>Node3&#45;&gt;Node6</title>
<path fill="none" stroke="midnightblue" d="M1011.4,-193.64C956.43,-180.84 866.17,-159.81 815.84,-148.08"/>
<polygon fill="midnightblue" stroke="midnightblue" points="1010.71,-197.08 1021.24,-195.94 1012.29,-190.26 1010.71,-197.08"/>
</g>
<!-- Node16 -->
<g id="node16" class="node">
<title>Node16</title>
<g id="a_node16"><a xlink:href="../../d8/d70/vtextmanager_8cpp.html" target="_top" xlink:title=" ">
<polygon fill="white" stroke="black" points="880,-129 880,-148 1062,-148 1062,-129 880,-129"/>
<text text-anchor="middle" x="971" y="-136" font-family="Helvetica,sans-Serif" font-size="10.00">src/libs/vlayout/vtextmanager.cpp</text>
</a>
</g>
</g>
<!-- Node3&#45;&gt;Node16 -->
<g id="edge17" class="edge">
<title>Node3&#45;&gt;Node16</title>
<path fill="none" stroke="midnightblue" d="M1038.01,-189.57C1020.84,-176.74 996.68,-158.69 982.55,-148.13"/>
<polygon fill="midnightblue" stroke="midnightblue" points="1036.16,-192.55 1046.27,-195.73 1040.35,-186.94 1036.16,-192.55"/>
</g>
<!-- Node17 -->
<g id="node17" class="node">
<title>Node17</title>
<g id="a_node17"><a xlink:href="../../d7/df4/group__tablewidgetitem_8cpp.html" target="_top" xlink:title=" ">
<polygon fill="white" stroke="black" points="1080.5,-123.5 1080.5,-153.5 1209.5,-153.5 1209.5,-123.5 1080.5,-123.5"/>
<text text-anchor="start" x="1088.5" y="-141.5" font-family="Helvetica,sans-Serif" font-size="10.00">src/libs/vwidgets/group</text>
<text text-anchor="middle" x="1145" y="-130.5" font-family="Helvetica,sans-Serif" font-size="10.00">_tablewidgetitem.cpp</text>
</a>
</g>
</g>
<!-- Node3&#45;&gt;Node17 -->
<g id="edge18" class="edge">
<title>Node3&#45;&gt;Node17</title>
<path fill="none" stroke="midnightblue" d="M1078.02,-189.54C1092.5,-178.73 1111.94,-164.2 1126.14,-153.59"/>
<polygon fill="midnightblue" stroke="midnightblue" points="1075.65,-186.94 1069.73,-195.73 1079.84,-192.55 1075.65,-186.94"/>
</g>
<!-- Node18 -->
<g id="node18" class="node">
<title>Node18</title>
<g id="a_node18"><a xlink:href="../../d0/da5/export__format__combobox_8h.html" target="_top" xlink:title=" ">
<polygon fill="white" stroke="black" points="1227.5,-123.5 1227.5,-153.5 1360.5,-153.5 1360.5,-123.5 1227.5,-123.5"/>
<text text-anchor="start" x="1235.5" y="-141.5" font-family="Helvetica,sans-Serif" font-size="10.00">src/libs/vwidgets/export</text>
<text text-anchor="middle" x="1294" y="-130.5" font-family="Helvetica,sans-Serif" font-size="10.00">_format_combobox.h</text>
</a>
</g>
</g>
<!-- Node3&#45;&gt;Node18 -->
<g id="edge19" class="edge">
<title>Node3&#45;&gt;Node18</title>
<path fill="none" stroke="midnightblue" d="M1099.04,-193.2C1139.04,-182.18 1199.98,-165.39 1243.07,-153.53"/>
<polygon fill="midnightblue" stroke="midnightblue" points="1098.05,-189.84 1089.34,-195.87 1099.91,-196.59 1098.05,-189.84"/>
</g>
<!-- Node20 -->
<g id="node20" class="node">
<title>Node20</title>
<g id="a_node20"><a xlink:href="../../d3/d86/page__format__combobox_8h.html" target="_top" xlink:title=" ">
<polygon fill="white" stroke="black" points="1378.5,-123.5 1378.5,-153.5 1503.5,-153.5 1503.5,-123.5 1378.5,-123.5"/>
<text text-anchor="start" x="1386.5" y="-141.5" font-family="Helvetica,sans-Serif" font-size="10.00">src/libs/vwidgets/page</text>
<text text-anchor="middle" x="1441" y="-130.5" font-family="Helvetica,sans-Serif" font-size="10.00">_format_combobox.h</text>
</a>
</g>
</g>
<!-- Node3&#45;&gt;Node20 -->
<g id="edge21" class="edge">
<title>Node3&#45;&gt;Node20</title>
<path fill="none" stroke="midnightblue" d="M1124.78,-194.4C1187.85,-184.69 1285.01,-169.27 1369,-154 1372.01,-153.45 1375.09,-152.88 1378.2,-152.29"/>
<polygon fill="midnightblue" stroke="midnightblue" points="1123.93,-190.99 1114.58,-195.97 1124.99,-197.91 1123.93,-190.99"/>
</g>
<!-- Node22 -->
<g id="node22" class="node">
<title>Node22</title>
<g id="a_node22"><a xlink:href="../../de/d22/vsimplecurve_8cpp.html" target="_top" xlink:title=" ">
<polygon fill="white" stroke="black" points="1522,-129 1522,-148 1710,-148 1710,-129 1522,-129"/>
<text text-anchor="middle" x="1616" y="-136" font-family="Helvetica,sans-Serif" font-size="10.00">src/libs/vwidgets/vsimplecurve.cpp</text>
</a>
</g>
</g>
<!-- Node3&#45;&gt;Node22 -->
<g id="edge23" class="edge">
<title>Node3&#45;&gt;Node22</title>
<path fill="none" stroke="midnightblue" d="M1123.67,-194.57C1135.11,-192.96 1146.89,-191.37 1158,-190 1314.96,-170.65 1354.99,-172.92 1512,-154 1526.84,-152.21 1542.85,-150.08 1557.74,-148.01"/>
<polygon fill="midnightblue" stroke="midnightblue" points="1123.15,-191.11 1113.74,-195.99 1124.14,-198.04 1123.15,-191.11"/>
</g>
<!-- Node7 -->
<g id="node7" class="node">
<title>Node7</title>
<g id="a_node7"><a xlink:href="../../dd/d66/vdxfengine_8cpp.html" target="_top" xlink:title=" ">
<polygon fill="white" stroke="black" points="0,-62 0,-81 154,-81 154,-62 0,-62"/>
<text text-anchor="middle" x="77" y="-69" font-family="Helvetica,sans-Serif" font-size="10.00">src/libs/vdxf/vdxfengine.cpp</text>
</a>
</g>
</g>
<!-- Node6&#45;&gt;Node7 -->
<g id="edge6" class="edge">
<title>Node6&#45;&gt;Node7</title>
<path fill="none" stroke="midnightblue" d="M720.02,-127.42C709.06,-125.77 697.7,-124.21 687,-123 455.04,-96.8 394.82,-114.44 163,-87 149.77,-85.43 135.47,-83.23 122.4,-81.01"/>
<polygon fill="midnightblue" stroke="midnightblue" points="719.51,-130.88 729.93,-128.95 720.58,-123.96 719.51,-130.88"/>
</g>
<!-- Node8 -->
<g id="node8" class="node">
<title>Node8</title>
<g id="a_node8"><a xlink:href="../../de/da8/vbank_8cpp.html" target="_top" xlink:title=" ">
<polygon fill="white" stroke="black" points="172,-62 172,-81 316,-81 316,-62 172,-62"/>
<text text-anchor="middle" x="244" y="-69" font-family="Helvetica,sans-Serif" font-size="10.00">src/libs/vlayout/vbank.cpp</text>
</a>
</g>
</g>
<!-- Node6&#45;&gt;Node8 -->
<g id="edge7" class="edge">
<title>Node6&#45;&gt;Node8</title>
<path fill="none" stroke="midnightblue" d="M717.83,-127.36C707.55,-125.8 696.98,-124.28 687,-123 526.63,-102.41 485.14,-109.26 325,-87 312.97,-85.33 300,-83.17 288.04,-81.03"/>
<polygon fill="midnightblue" stroke="midnightblue" points="717.56,-130.86 727.98,-128.93 718.63,-123.94 717.56,-130.86"/>
</g>
<!-- Node9 -->
<g id="node9" class="node">
<title>Node9</title>
<g id="a_node9"><a xlink:href="../../df/d5d/vcontour_8cpp.html" target="_top" xlink:title=" ">
<polygon fill="white" stroke="black" points="334,-62 334,-81 490,-81 490,-62 334,-62"/>
<text text-anchor="middle" x="412" y="-69" font-family="Helvetica,sans-Serif" font-size="10.00">src/libs/vlayout/vcontour.cpp</text>
</a>
</g>
</g>
<!-- Node6&#45;&gt;Node9 -->
<g id="edge8" class="edge">
<title>Node6&#45;&gt;Node9</title>
<path fill="none" stroke="midnightblue" d="M720.37,-127.12C648.24,-114.34 527.14,-92.89 460.17,-81.03"/>
<polygon fill="midnightblue" stroke="midnightblue" points="720.19,-130.64 730.64,-128.94 721.41,-123.75 720.19,-130.64"/>
</g>
<!-- Node10 -->
<g id="node10" class="node">
<title>Node10</title>
<g id="a_node10"><a xlink:href="../../d2/d2d/vlayoutpaper__p_8h.html" target="_top" xlink:title=" ">
<polygon fill="white" stroke="black" points="508.5,-62 508.5,-81 687.5,-81 687.5,-62 508.5,-62"/>
<text text-anchor="middle" x="598" y="-69" font-family="Helvetica,sans-Serif" font-size="10.00">src/libs/vlayout/vlayoutpaper_p.h</text>
</a>
</g>
</g>
<!-- Node6&#45;&gt;Node10 -->
<g id="edge9" class="edge">
<title>Node6&#45;&gt;Node10</title>
<path fill="none" stroke="midnightblue" d="M745.41,-125.44C709.5,-112.54 653.48,-92.42 621.85,-81.06"/>
<polygon fill="midnightblue" stroke="midnightblue" points="744.37,-128.78 754.96,-128.87 746.74,-122.19 744.37,-128.78"/>
</g>
<!-- Node11 -->
<g id="node11" class="node">
<title>Node11</title>
<g id="a_node11"><a xlink:href="../../d1/dd1/vlayoutpaper_8cpp.html" target="_top" xlink:title=" ">
<polygon fill="white" stroke="black" points="627,-0.5 627,-19.5 805,-19.5 805,-0.5 627,-0.5"/>
<text text-anchor="middle" x="716" y="-7.5" font-family="Helvetica,sans-Serif" font-size="10.00">src/libs/vlayout/vlayoutpaper.cpp</text>
</a>
</g>
</g>
<!-- Node6&#45;&gt;Node11 -->
<g id="edge12" class="edge">
<title>Node6&#45;&gt;Node11</title>
<path fill="none" stroke="midnightblue" d="M761.85,-121.83C752.64,-112.54 741.81,-100.05 735,-87 723.3,-64.57 718.57,-34.61 716.86,-19.91"/>
<polygon fill="midnightblue" stroke="midnightblue" points="759.46,-124.39 769.08,-128.83 764.33,-119.36 759.46,-124.39"/>
</g>
<!-- Node12 -->
<g id="node12" class="node">
<title>Node12</title>
<g id="a_node12"><a xlink:href="../../d3/d39/vlayoutgenerator_8cpp.html" target="_top" xlink:title=" ">
<polygon fill="white" stroke="black" points="744.5,-62 744.5,-81 941.5,-81 941.5,-62 744.5,-62"/>
<text text-anchor="middle" x="843" y="-69" font-family="Helvetica,sans-Serif" font-size="10.00">src/libs/vlayout/vlayoutgenerator.cpp</text>
</a>
</g>
</g>
<!-- Node6&#45;&gt;Node12 -->
<g id="edge11" class="edge">
<title>Node6&#45;&gt;Node12</title>
<path fill="none" stroke="midnightblue" d="M794.76,-121.5C807.31,-108.75 824.4,-91.39 834.51,-81.13"/>
<polygon fill="midnightblue" stroke="midnightblue" points="792.15,-119.15 787.63,-128.73 797.14,-124.06 792.15,-119.15"/>
</g>
<!-- Node13 -->
<g id="node13" class="node">
<title>Node13</title>
<g id="a_node13"><a xlink:href="../../db/d5c/vposition_8h.html" target="_top" xlink:title=" ">
<polygon fill="white" stroke="black" points="960,-62 960,-81 1108,-81 1108,-62 960,-62"/>
<text text-anchor="middle" x="1034" y="-69" font-family="Helvetica,sans-Serif" font-size="10.00">src/libs/vlayout/vposition.h</text>
</a>
</g>
</g>
<!-- Node6&#45;&gt;Node13 -->
<g id="edge13" class="edge">
<title>Node6&#45;&gt;Node13</title>
<path fill="none" stroke="midnightblue" d="M822.53,-126.4C872.86,-113.58 954.61,-92.74 1000.33,-81.08"/>
<polygon fill="midnightblue" stroke="midnightblue" points="821.42,-123.07 812.6,-128.94 823.15,-129.86 821.42,-123.07"/>
</g>
<!-- Node15 -->
<g id="node15" class="node">
<title>Node15</title>
<g id="a_node15"><a xlink:href="../../dd/d70/vlayoutpiece_8cpp.html" target="_top" xlink:title=" ">
<polygon fill="white" stroke="black" points="1126.5,-62 1126.5,-81 1303.5,-81 1303.5,-62 1126.5,-62"/>
<text text-anchor="middle" x="1215" y="-69" font-family="Helvetica,sans-Serif" font-size="10.00">src/libs/vlayout/vlayoutpiece.cpp</text>
</a>
</g>
</g>
<!-- Node6&#45;&gt;Node15 -->
<g id="edge16" class="edge">
<title>Node6&#45;&gt;Node15</title>
<path fill="none" stroke="midnightblue" d="M842.39,-127.42C851.97,-125.92 861.75,-124.41 871,-123 980.24,-106.4 1007.68,-103.09 1117,-87 1130.1,-85.07 1144.19,-82.99 1157.48,-81.03"/>
<polygon fill="midnightblue" stroke="midnightblue" points="841.83,-123.96 832.5,-128.97 842.92,-130.88 841.83,-123.96"/>
</g>
<!-- Node10&#45;&gt;Node11 -->
<g id="edge10" class="edge">
<title>Node10&#45;&gt;Node11</title>
<path fill="none" stroke="midnightblue" d="M624.05,-57.37C646.92,-45.83 679.51,-29.4 699.12,-19.51"/>
<polygon fill="midnightblue" stroke="midnightblue" points="622.26,-54.35 614.91,-61.98 625.41,-60.6 622.26,-54.35"/>
</g>
<!-- Node13&#45;&gt;Node11 -->
<g id="edge14" class="edge">
<title>Node13&#45;&gt;Node11</title>
<path fill="none" stroke="midnightblue" d="M978.51,-60.12C916.92,-48.59 818.7,-30.22 761.48,-19.51"/>
<polygon fill="midnightblue" stroke="midnightblue" points="977.97,-63.58 988.44,-61.98 979.25,-56.7 977.97,-63.58"/>
</g>
<!-- Node14 -->
<g id="node14" class="node">
<title>Node14</title>
<g id="a_node14"><a xlink:href="../../df/d76/vposition_8cpp.html" target="_top" xlink:title=" ">
<polygon fill="white" stroke="black" points="954.5,-0.5 954.5,-19.5 1113.5,-19.5 1113.5,-0.5 954.5,-0.5"/>
<text text-anchor="middle" x="1034" y="-7.5" font-family="Helvetica,sans-Serif" font-size="10.00">src/libs/vlayout/vposition.cpp</text>
</a>
</g>
</g>
<!-- Node13&#45;&gt;Node14 -->
<g id="edge15" class="edge">
<title>Node13&#45;&gt;Node14</title>
<path fill="none" stroke="midnightblue" d="M1034,-51.82C1034,-41 1034,-27.9 1034,-19.51"/>
<polygon fill="midnightblue" stroke="midnightblue" points="1030.5,-51.98 1034,-61.98 1037.5,-51.98 1030.5,-51.98"/>
</g>
<!-- Node19 -->
<g id="node19" class="node">
<title>Node19</title>
<g id="a_node19"><a xlink:href="../../df/d40/export__format__combobox_8cpp.html" target="_top" xlink:title=" ">
<polygon fill="white" stroke="black" points="1321.5,-56.5 1321.5,-86.5 1454.5,-86.5 1454.5,-56.5 1321.5,-56.5"/>
<text text-anchor="start" x="1329.5" y="-74.5" font-family="Helvetica,sans-Serif" font-size="10.00">src/libs/vwidgets/export</text>
<text text-anchor="middle" x="1388" y="-63.5" font-family="Helvetica,sans-Serif" font-size="10.00">_format_combobox.cpp</text>
</a>
</g>
</g>
<!-- Node18&#45;&gt;Node19 -->
<g id="edge20" class="edge">
<title>Node18&#45;&gt;Node19</title>
<path fill="none" stroke="midnightblue" d="M1322.99,-117.45C1337.45,-107.45 1354.59,-95.6 1367.64,-86.58"/>
<polygon fill="midnightblue" stroke="midnightblue" points="1320.63,-114.83 1314.4,-123.4 1324.61,-120.59 1320.63,-114.83"/>
</g>
<!-- Node21 -->
<g id="node21" class="node">
<title>Node21</title>
<g id="a_node21"><a xlink:href="../../d2/d28/page__format__combobox_8cpp.html" target="_top" xlink:title=" ">
<polygon fill="white" stroke="black" points="1472.5,-56.5 1472.5,-86.5 1603.5,-86.5 1603.5,-56.5 1472.5,-56.5"/>
<text text-anchor="start" x="1480.5" y="-74.5" font-family="Helvetica,sans-Serif" font-size="10.00">src/libs/vwidgets/page</text>
<text text-anchor="middle" x="1538" y="-63.5" font-family="Helvetica,sans-Serif" font-size="10.00">_format_combobox.cpp</text>
</a>
</g>
</g>
<!-- Node20&#45;&gt;Node21 -->
<g id="edge22" class="edge">
<title>Node20&#45;&gt;Node21</title>
<path fill="none" stroke="midnightblue" d="M1470.5,-117.73C1485.51,-107.68 1503.4,-95.68 1516.99,-86.58"/>
<polygon fill="midnightblue" stroke="midnightblue" points="1468.41,-114.92 1462.05,-123.4 1472.3,-120.74 1468.41,-114.92"/>
</g>
</g>
</svg>
        <g id="navigator" transform="translate(0 0)" fill="#404254">
                <rect fill="#f2f5e9" fill-opacity="0.5" stroke="#606060" stroke-width=".5" x="0" y="0" width="60" height="60"/>
                <use id="zoomplus" xlink:href="#zoomPlus" x="17" y="9" onmousedown="handleZoom(evt,'in')"/>
                <use id="zoomminus" xlink:href="#zoomMin" x="42" y="9" onmousedown="handleZoom(evt,'out')"/>
                <use id="reset" xlink:href="#resetDef" x="30" y="36" onmousedown="handleReset()"/>
                <g id="arrowUp" xlink:href="#dirArrow" transform="translate(30 24)" onmousedown="handlePan(0,-1)">
                  <use xlink:href="#rim" fill="#404040">
                        <set attributeName="fill" to="#808080" begin="arrowUp.mouseover" end="arrowUp.mouseout"/>
                  </use>
                  <path fill="none" stroke="white" stroke-width="1.5" d="M0,-3.0v7 M-2.5,-0.5L0,-3.0L2.5,-0.5"/>
                </g>
                <g id="arrowRight" xlink:href="#dirArrow" transform="rotate(90) translate(36 -43)" onmousedown="handlePan(1,0)">
                  <use xlink:href="#rim" fill="#404040">
                        <set attributeName="fill" to="#808080" begin="arrowRight.mouseover" end="arrowRight.mouseout"/>
                  </use>
                  <path fill="none" stroke="white" stroke-width="1.5" d="M0,-3.0v7 M-2.5,-0.5L0,-3.0L2.5,-0.5"/>
                </g>
                <g id="arrowDown" xlink:href="#dirArrow" transform="rotate(180) translate(-30 -48)" onmousedown="handlePan(0,1)">
                  <use xlink:href="#rim" fill="#404040">
                        <set attributeName="fill" to="#808080" begin="arrowDown.mouseover" end="arrowDown.mouseout"/>
                  </use>
                  <path fill="none" stroke="white" stroke-width="1.5" d="M0,-3.0v7 M-2.5,-0.5L0,-3.0L2.5,-0.5"/>
                </g>
                <g id="arrowLeft" xlink:href="#dirArrow" transform="rotate(270) translate(-36 17)" onmousedown="handlePan(-1,0)">
                  <use xlink:href="#rim" fill="#404040">
                        <set attributeName="fill" to="#808080" begin="arrowLeft.mouseover" end="arrowLeft.mouseout"/>
                  </use>
                  <path fill="none" stroke="white" stroke-width="1.5" d="M0,-3.0v7 M-2.5,-0.5L0,-3.0L2.5,-0.5"/>
                </g>
        </g>
        <svg viewBox="0 0 15 15" width="100%" height="30px" preserveAspectRatio="xMaxYMin meet">
         <g id="arrow_out" transform="scale(0.3 0.3)">
          <a xlink:href="resize__handle_8h__dep__incl_org.svg" target="_base">
           <rect id="button" ry="5" rx="5" y="6" x="6" height="38" width="38"
                fill="#f2f5e9" fill-opacity="0.5" stroke="#606060" stroke-width="1.0"/>
           <path id="arrow"
             d="M 11.500037,31.436501 C 11.940474,20.09759 22.043105,11.32322 32.158766,21.979434 L 37.068811,17.246167 C 37.068811,17.246167 37.088388,32 37.088388,32 L 22.160133,31.978069 C 22.160133,31.978069 26.997745,27.140456 26.997745,27.140456 C 18.528582,18.264221 13.291696,25.230495 11.500037,31.436501 z"
             style="fill:#404040;"/>
          </a>
         </g>
        </svg>
</svg>
