<?xml version="1.0" encoding="UTF-8" standalone="no"?>
<!DOCTYPE svg PUBLIC "-//W3C//DTD SVG 1.1//EN"
 "http://www.w3.org/Graphics/SVG/1.1/DTD/svg11.dtd">
<!-- Generated by graphviz version 2.43.0 (0)
 -->
<!-- Title: src/app/seamly2d/core/vcmdexport.cpp Pages: 1 -->
<svg width="1619pt" height="274pt"
 viewBox="0.00 0.00 1619.00 274.00" xmlns="http://www.w3.org/2000/svg" xmlns:xlink="http://www.w3.org/1999/xlink">
<g id="graph0" class="graph" transform="scale(1 1) rotate(0) translate(4 270)">
<title>src/app/seamly2d/core/vcmdexport.cpp</title>
<polygon fill="white" stroke="transparent" points="-4,4 -4,-270 1615,-270 1615,4 -4,4"/>
<!-- Node1 -->
<g id="node1" class="node">
<title>Node1</title>
<g id="a_node1"><a xlink:title=" ">
<polygon fill="#bfbfbf" stroke="black" points="919.5,-235.5 919.5,-265.5 1046.5,-265.5 1046.5,-235.5 919.5,-235.5"/>
<text text-anchor="start" x="927.5" y="-253.5" font-family="Helvetica,sans-Serif" font-size="10.00">src/app/seamly2d/core</text>
<text text-anchor="middle" x="983" y="-242.5" font-family="Helvetica,sans-Serif" font-size="10.00">/vcmdexport.cpp</text>
</a>
</g>
</g>
<!-- Node2 -->
<g id="node2" class="node">
<title>Node2</title>
<g id="a_node2"><a xlink:href="../../dd/d57/vcmdexport_8h.html" target="_top" xlink:title=" ">
<polygon fill="white" stroke="black" points="314,-174 314,-193 398,-193 398,-174 314,-174"/>
<text text-anchor="middle" x="356" y="-181" font-family="Helvetica,sans-Serif" font-size="10.00">vcmdexport.h</text>
</a>
</g>
</g>
<!-- Node1&#45;&gt;Node2 -->
<g id="edge1" class="edge">
<title>Node1&#45;&gt;Node2</title>
<path fill="none" stroke="midnightblue" d="M919.43,-242.91C795.35,-230.05 523.03,-201.82 408.45,-189.94"/>
<polygon fill="midnightblue" stroke="midnightblue" points="408.5,-186.42 398.19,-188.87 407.77,-193.39 408.5,-186.42"/>
</g>
<!-- Node8 -->
<g id="node8" class="node">
<title>Node8</title>
<g id="a_node8"><a xlink:href="../../d2/d2b/dialoglayoutsettings_8h.html" target="_top" xlink:title=" ">
<polygon fill="white" stroke="black" points="633.5,-112.5 633.5,-131.5 806.5,-131.5 806.5,-112.5 633.5,-112.5"/>
<text text-anchor="middle" x="720" y="-119.5" font-family="Helvetica,sans-Serif" font-size="10.00">../dialogs/dialoglayoutsettings.h</text>
</a>
</g>
</g>
<!-- Node1&#45;&gt;Node8 -->
<g id="edge17" class="edge">
<title>Node1&#45;&gt;Node8</title>
<path fill="none" stroke="midnightblue" d="M919.39,-245.82C814.15,-239.07 613.24,-223.16 592,-199 564.76,-168.01 621.27,-146.12 667.67,-134.03"/>
<polygon fill="midnightblue" stroke="midnightblue" points="668.54,-137.42 677.39,-131.59 666.84,-130.63 668.54,-137.42"/>
</g>
<!-- Node17 -->
<g id="node17" class="node">
<title>Node17</title>
<g id="a_node17"><a xlink:title=" ">
<polygon fill="white" stroke="#bfbfbf" points="601,-168.5 601,-198.5 721,-198.5 721,-168.5 601,-168.5"/>
<text text-anchor="start" x="609" y="-186.5" font-family="Helvetica,sans-Serif" font-size="10.00">../vwidgets/export</text>
<text text-anchor="middle" x="661" y="-175.5" font-family="Helvetica,sans-Serif" font-size="10.00">_format_combobox.h</text>
</a>
</g>
</g>
<!-- Node1&#45;&gt;Node17 -->
<g id="edge18" class="edge">
<title>Node1&#45;&gt;Node17</title>
<path fill="none" stroke="midnightblue" d="M919.28,-236.97C870.4,-227.31 800.97,-213.5 731.07,-199.21"/>
<polygon fill="midnightblue" stroke="midnightblue" points="731.7,-195.77 721.2,-197.19 730.3,-202.62 731.7,-195.77"/>
</g>
<!-- Node18 -->
<g id="node18" class="node">
<title>Node18</title>
<g id="a_node18"><a xlink:title=" ">
<polygon fill="white" stroke="#bfbfbf" points="739,-174 739,-193 887,-193 887,-174 739,-174"/>
<text text-anchor="middle" x="813" y="-181" font-family="Helvetica,sans-Serif" font-size="10.00">../ifc/xml/vdomdocument.h</text>
</a>
</g>
</g>
<!-- Node1&#45;&gt;Node18 -->
<g id="edge19" class="edge">
<title>Node1&#45;&gt;Node18</title>
<path fill="none" stroke="midnightblue" d="M946.11,-235.4C915.89,-223.84 873.56,-207.66 844.81,-196.66"/>
<polygon fill="midnightblue" stroke="midnightblue" points="845.84,-193.31 835.25,-193.01 843.34,-199.85 845.84,-193.31"/>
</g>
<!-- Node19 -->
<g id="node19" class="node">
<title>Node19</title>
<g id="a_node19"><a xlink:title=" ">
<polygon fill="white" stroke="#bfbfbf" points="905,-174 905,-193 1061,-193 1061,-174 905,-174"/>
<text text-anchor="middle" x="983" y="-181" font-family="Helvetica,sans-Serif" font-size="10.00">../vformat/vmeasurements.h</text>
</a>
</g>
</g>
<!-- Node1&#45;&gt;Node19 -->
<g id="edge20" class="edge">
<title>Node1&#45;&gt;Node19</title>
<path fill="none" stroke="midnightblue" d="M983,-235.4C983,-226.06 983,-213.71 983,-203.52"/>
<polygon fill="midnightblue" stroke="midnightblue" points="986.5,-203.19 983,-193.19 979.5,-203.19 986.5,-203.19"/>
</g>
<!-- Node20 -->
<g id="node20" class="node">
<title>Node20</title>
<g id="a_node20"><a xlink:title=" ">
<polygon fill="white" stroke="#bfbfbf" points="1079,-174 1079,-193 1231,-193 1231,-174 1079,-174"/>
<text text-anchor="middle" x="1155" y="-181" font-family="Helvetica,sans-Serif" font-size="10.00">../vmisc/commandoptions.h</text>
</a>
</g>
</g>
<!-- Node1&#45;&gt;Node20 -->
<g id="edge21" class="edge">
<title>Node1&#45;&gt;Node20</title>
<path fill="none" stroke="midnightblue" d="M1020.32,-235.4C1050.9,-223.84 1093.73,-207.66 1122.82,-196.66"/>
<polygon fill="midnightblue" stroke="midnightblue" points="1124.37,-199.82 1132.49,-193.01 1121.9,-193.27 1124.37,-199.82"/>
</g>
<!-- Node21 -->
<g id="node21" class="node">
<title>Node21</title>
<g id="a_node21"><a xlink:title=" ">
<polygon fill="white" stroke="#bfbfbf" points="1249,-174 1249,-193 1361,-193 1361,-174 1249,-174"/>
<text text-anchor="middle" x="1305" y="-181" font-family="Helvetica,sans-Serif" font-size="10.00">../vmisc/vsettings.h</text>
</a>
</g>
</g>
<!-- Node1&#45;&gt;Node21 -->
<g id="edge22" class="edge">
<title>Node1&#45;&gt;Node21</title>
<path fill="none" stroke="midnightblue" d="M1046.72,-237.45C1098.79,-227.49 1174.25,-212.79 1240,-199 1245.73,-197.8 1251.73,-196.51 1257.68,-195.2"/>
<polygon fill="midnightblue" stroke="midnightblue" points="1258.56,-198.59 1267.57,-193.02 1257.05,-191.76 1258.56,-198.59"/>
</g>
<!-- Node22 -->
<g id="node22" class="node">
<title>Node22</title>
<g id="a_node22"><a xlink:title=" ">
<polygon fill="white" stroke="#bfbfbf" points="1379,-174 1379,-193 1537,-193 1537,-174 1379,-174"/>
<text text-anchor="middle" x="1458" y="-181" font-family="Helvetica,sans-Serif" font-size="10.00">../vlayout/vlayoutgenerator.h</text>
</a>
</g>
</g>
<!-- Node1&#45;&gt;Node22 -->
<g id="edge23" class="edge">
<title>Node1&#45;&gt;Node22</title>
<path fill="none" stroke="midnightblue" d="M1046.78,-241.84C1123.56,-232.47 1256.38,-215.77 1370,-199 1379,-197.67 1388.5,-196.19 1397.8,-194.69"/>
<polygon fill="midnightblue" stroke="midnightblue" points="1398.48,-198.13 1407.79,-193.07 1397.35,-191.22 1398.48,-198.13"/>
</g>
<!-- Node23 -->
<g id="node23" class="node">
<title>Node23</title>
<g id="a_node23"><a xlink:title=" ">
<polygon fill="white" stroke="#bfbfbf" points="1555,-174 1555,-193 1611,-193 1611,-174 1555,-174"/>
<text text-anchor="middle" x="1583" y="-181" font-family="Helvetica,sans-Serif" font-size="10.00">QDebug</text>
</a>
</g>
</g>
<!-- Node1&#45;&gt;Node23 -->
<g id="edge24" class="edge">
<title>Node1&#45;&gt;Node23</title>
<path fill="none" stroke="midnightblue" d="M1046.84,-249.63C1152.22,-248.54 1368.58,-240.82 1546,-199 1548.83,-198.33 1551.74,-197.49 1554.61,-196.55"/>
<polygon fill="midnightblue" stroke="midnightblue" points="1555.93,-199.8 1564.13,-193.09 1553.53,-193.22 1555.93,-199.8"/>
</g>
<!-- Node3 -->
<g id="node3" class="node">
<title>Node3</title>
<g id="a_node3"><a xlink:title=" ">
<polygon fill="white" stroke="#bfbfbf" points="0,-112.5 0,-131.5 58,-131.5 58,-112.5 0,-112.5"/>
<text text-anchor="middle" x="29" y="-119.5" font-family="Helvetica,sans-Serif" font-size="10.00">memory</text>
</a>
</g>
</g>
<!-- Node2&#45;&gt;Node3 -->
<g id="edge2" class="edge">
<title>Node2&#45;&gt;Node3</title>
<path fill="none" stroke="midnightblue" d="M313.73,-175.92C259.23,-167.26 161.29,-151.1 67.9,-132.09"/>
<polygon fill="midnightblue" stroke="midnightblue" points="68.51,-128.64 58.01,-130.06 67.1,-135.5 68.51,-128.64"/>
</g>
<!-- Node4 -->
<g id="node4" class="node">
<title>Node4</title>
<g id="a_node4"><a xlink:title=" ">
<polygon fill="white" stroke="#bfbfbf" points="76.5,-112.5 76.5,-131.5 123.5,-131.5 123.5,-112.5 76.5,-112.5"/>
<text text-anchor="middle" x="100" y="-119.5" font-family="Helvetica,sans-Serif" font-size="10.00">vector</text>
</a>
</g>
</g>
<!-- Node2&#45;&gt;Node4 -->
<g id="edge3" class="edge">
<title>Node2&#45;&gt;Node4</title>
<path fill="none" stroke="midnightblue" d="M316,-173.99C273.28,-164.78 203.38,-149.37 133.6,-132.07"/>
<polygon fill="midnightblue" stroke="midnightblue" points="134.31,-128.64 123.76,-129.61 132.62,-135.43 134.31,-128.64"/>
</g>
<!-- Node5 -->
<g id="node5" class="node">
<title>Node5</title>
<g id="a_node5"><a xlink:title=" ">
<polygon fill="white" stroke="#bfbfbf" points="142,-112.5 142,-131.5 222,-131.5 222,-112.5 142,-112.5"/>
<text text-anchor="middle" x="182" y="-119.5" font-family="Helvetica,sans-Serif" font-size="10.00">QTextStream</text>
</a>
</g>
</g>
<!-- Node2&#45;&gt;Node5 -->
<g id="edge4" class="edge">
<title>Node2&#45;&gt;Node5</title>
<path fill="none" stroke="midnightblue" d="M331.07,-173.98C300.96,-163.68 250.17,-146.31 216.36,-134.75"/>
<polygon fill="midnightblue" stroke="midnightblue" points="217.48,-131.43 206.88,-131.51 215.21,-138.06 217.48,-131.43"/>
</g>
<!-- Node6 -->
<g id="node6" class="node">
<title>Node6</title>
<g id="a_node6"><a xlink:title=" ">
<polygon fill="white" stroke="#bfbfbf" points="240.5,-112.5 240.5,-131.5 341.5,-131.5 341.5,-112.5 240.5,-112.5"/>
<text text-anchor="middle" x="291" y="-119.5" font-family="Helvetica,sans-Serif" font-size="10.00">QCoreApplication</text>
</a>
</g>
</g>
<!-- Node2&#45;&gt;Node6 -->
<g id="edge5" class="edge">
<title>Node2&#45;&gt;Node6</title>
<path fill="none" stroke="midnightblue" d="M346.69,-173.98C336.55,-164.7 320.14,-149.67 307.75,-138.33"/>
<polygon fill="midnightblue" stroke="midnightblue" points="310.04,-135.68 300.3,-131.51 305.31,-140.84 310.04,-135.68"/>
</g>
<!-- Node7 -->
<g id="node7" class="node">
<title>Node7</title>
<g id="a_node7"><a xlink:title=" ">
<polygon fill="white" stroke="#bfbfbf" points="359.5,-112.5 359.5,-131.5 484.5,-131.5 484.5,-112.5 359.5,-112.5"/>
<text text-anchor="middle" x="422" y="-119.5" font-family="Helvetica,sans-Serif" font-size="10.00">QCommandLineParser</text>
</a>
</g>
</g>
<!-- Node2&#45;&gt;Node7 -->
<g id="edge6" class="edge">
<title>Node2&#45;&gt;Node7</title>
<path fill="none" stroke="midnightblue" d="M365.46,-173.98C375.75,-164.7 392.42,-149.67 404.99,-138.33"/>
<polygon fill="midnightblue" stroke="midnightblue" points="407.48,-140.8 412.56,-131.51 402.79,-135.61 407.48,-140.8"/>
</g>
<!-- Node2&#45;&gt;Node8 -->
<g id="edge7" class="edge">
<title>Node2&#45;&gt;Node8</title>
<path fill="none" stroke="midnightblue" d="M398.11,-175.62C461.92,-165.19 583.49,-145.31 657.6,-133.2"/>
<polygon fill="midnightblue" stroke="midnightblue" points="658.42,-136.61 667.73,-131.54 657.3,-129.7 658.42,-136.61"/>
</g>
<!-- Node16 -->
<g id="node16" class="node">
<title>Node16</title>
<g id="a_node16"><a xlink:title=" ">
<polygon fill="white" stroke="#bfbfbf" points="502.5,-112.5 502.5,-131.5 615.5,-131.5 615.5,-112.5 502.5,-112.5"/>
<text text-anchor="middle" x="559" y="-119.5" font-family="Helvetica,sans-Serif" font-size="10.00">../vmisc/vsysexits.h</text>
</a>
</g>
</g>
<!-- Node2&#45;&gt;Node16 -->
<g id="edge16" class="edge">
<title>Node2&#45;&gt;Node16</title>
<path fill="none" stroke="midnightblue" d="M385.08,-173.98C420.58,-163.57 480.75,-145.94 520.17,-134.38"/>
<polygon fill="midnightblue" stroke="midnightblue" points="521.36,-137.68 529.97,-131.51 519.39,-130.96 521.36,-137.68"/>
</g>
<!-- Node9 -->
<g id="node9" class="node">
<title>Node9</title>
<g id="a_node9"><a xlink:href="../../d5/d48/vabstractlayoutdialog_8h.html" target="_top" xlink:title=" ">
<polygon fill="white" stroke="black" points="518,-56.5 518,-75.5 650,-75.5 650,-56.5 518,-56.5"/>
<text text-anchor="middle" x="584" y="-63.5" font-family="Helvetica,sans-Serif" font-size="10.00">vabstractlayoutdialog.h</text>
</a>
</g>
</g>
<!-- Node8&#45;&gt;Node9 -->
<g id="edge8" class="edge">
<title>Node8&#45;&gt;Node9</title>
<path fill="none" stroke="midnightblue" d="M698.45,-112.44C675.97,-103.52 640.51,-89.44 615.02,-79.32"/>
<polygon fill="midnightblue" stroke="midnightblue" points="616.03,-75.95 605.45,-75.52 613.45,-82.46 616.03,-75.95"/>
</g>
<!-- Node10 -->
<g id="node10" class="node">
<title>Node10</title>
<g id="a_node10"><a xlink:title=" ">
<polygon fill="white" stroke="#bfbfbf" points="451.5,-0.5 451.5,-19.5 528.5,-19.5 528.5,-0.5 451.5,-0.5"/>
<text text-anchor="middle" x="490" y="-7.5" font-family="Helvetica,sans-Serif" font-size="10.00">../ifc/ifcdef.h</text>
</a>
</g>
</g>
<!-- Node8&#45;&gt;Node10 -->
<g id="edge13" class="edge">
<title>Node8&#45;&gt;Node10</title>
<path fill="none" stroke="midnightblue" d="M640.02,-112.49C588.64,-105.46 528.08,-93.71 509,-76 496.35,-64.26 491.96,-44.62 490.52,-29.99"/>
<polygon fill="midnightblue" stroke="midnightblue" points="493.99,-29.36 489.89,-19.58 487,-29.78 493.99,-29.36"/>
</g>
<!-- Node13 -->
<g id="node13" class="node">
<title>Node13</title>
<g id="a_node13"><a xlink:title=" ">
<polygon fill="white" stroke="#bfbfbf" points="668,-56.5 668,-75.5 772,-75.5 772,-56.5 668,-56.5"/>
<text text-anchor="middle" x="720" y="-63.5" font-family="Helvetica,sans-Serif" font-size="10.00">../vlayout/vbank.h</text>
</a>
</g>
</g>
<!-- Node8&#45;&gt;Node13 -->
<g id="edge12" class="edge">
<title>Node8&#45;&gt;Node13</title>
<path fill="none" stroke="midnightblue" d="M720,-112.08C720,-105.01 720,-94.86 720,-85.99"/>
<polygon fill="midnightblue" stroke="midnightblue" points="723.5,-85.75 720,-75.75 716.5,-85.75 723.5,-85.75"/>
</g>
<!-- Node14 -->
<g id="node14" class="node">
<title>Node14</title>
<g id="a_node14"><a xlink:title=" ">
<polygon fill="white" stroke="#bfbfbf" points="790.5,-56.5 790.5,-75.5 869.5,-75.5 869.5,-56.5 790.5,-56.5"/>
<text text-anchor="middle" x="830" y="-63.5" font-family="Helvetica,sans-Serif" font-size="10.00">QCloseEvent</text>
</a>
</g>
</g>
<!-- Node8&#45;&gt;Node14 -->
<g id="edge14" class="edge">
<title>Node8&#45;&gt;Node14</title>
<path fill="none" stroke="midnightblue" d="M737.67,-112.32C755.39,-103.62 782.9,-90.12 803.29,-80.11"/>
<polygon fill="midnightblue" stroke="midnightblue" points="804.94,-83.2 812.37,-75.65 801.85,-76.92 804.94,-83.2"/>
</g>
<!-- Node15 -->
<g id="node15" class="node">
<title>Node15</title>
<g id="a_node15"><a xlink:title=" ">
<polygon fill="white" stroke="#bfbfbf" points="887.5,-56.5 887.5,-75.5 950.5,-75.5 950.5,-56.5 887.5,-56.5"/>
<text text-anchor="middle" x="919" y="-63.5" font-family="Helvetica,sans-Serif" font-size="10.00">QMargins</text>
</a>
</g>
</g>
<!-- Node8&#45;&gt;Node15 -->
<g id="edge15" class="edge">
<title>Node8&#45;&gt;Node15</title>
<path fill="none" stroke="midnightblue" d="M751.53,-112.44C785.59,-103.2 840.01,-88.44 877.52,-78.26"/>
<polygon fill="midnightblue" stroke="midnightblue" points="878.88,-81.51 887.62,-75.52 877.05,-74.76 878.88,-81.51"/>
</g>
<!-- Node9&#45;&gt;Node10 -->
<g id="edge9" class="edge">
<title>Node9&#45;&gt;Node10</title>
<path fill="none" stroke="midnightblue" d="M568.9,-56.32C554.1,-47.82 531.31,-34.73 514.02,-24.8"/>
<polygon fill="midnightblue" stroke="midnightblue" points="515.48,-21.6 505.07,-19.65 511.99,-27.67 515.48,-21.6"/>
</g>
<!-- Node11 -->
<g id="node11" class="node">
<title>Node11</title>
<g id="a_node11"><a xlink:title=" ">
<polygon fill="white" stroke="#bfbfbf" points="546.5,-0.5 546.5,-19.5 623.5,-19.5 623.5,-0.5 546.5,-0.5"/>
<text text-anchor="middle" x="585" y="-7.5" font-family="Helvetica,sans-Serif" font-size="10.00">QComboBox</text>
</a>
</g>
</g>
<!-- Node9&#45;&gt;Node11 -->
<g id="edge10" class="edge">
<title>Node9&#45;&gt;Node11</title>
<path fill="none" stroke="midnightblue" d="M584.17,-56.08C584.3,-49.01 584.48,-38.86 584.65,-29.99"/>
<polygon fill="midnightblue" stroke="midnightblue" points="588.15,-29.81 584.84,-19.75 581.15,-29.68 588.15,-29.81"/>
</g>
<!-- Node12 -->
<g id="node12" class="node">
<title>Node12</title>
<g id="a_node12"><a xlink:title=" ">
<polygon fill="white" stroke="#bfbfbf" points="642,-0.5 642,-19.5 698,-19.5 698,-0.5 642,-0.5"/>
<text text-anchor="middle" x="670" y="-7.5" font-family="Helvetica,sans-Serif" font-size="10.00">QDialog</text>
</a>
</g>
</g>
<!-- Node9&#45;&gt;Node12 -->
<g id="edge11" class="edge">
<title>Node9&#45;&gt;Node12</title>
<path fill="none" stroke="midnightblue" d="M597.82,-56.32C611.23,-47.9 631.82,-34.97 647.59,-25.07"/>
<polygon fill="midnightblue" stroke="midnightblue" points="649.61,-27.94 656.22,-19.65 645.89,-22.01 649.61,-27.94"/>
</g>
</g>
</svg>
