<?xml version="1.0" encoding="UTF-8" standalone="no"?>
<!DOCTYPE svg PUBLIC "-//W3C//DTD SVG 1.1//EN"
 "http://www.w3.org/Graphics/SVG/1.1/DTD/svg11.dtd">
<!-- Generated by graphviz version 2.43.0 (0)
 -->
<!-- Title: src/libs/vtools/dialogs/support/editlabeltemplate_dialog.h Pages: 1 -->
<svg width="316pt" height="128pt"
 viewBox="0.00 0.00 315.50 128.00" xmlns="http://www.w3.org/2000/svg" xmlns:xlink="http://www.w3.org/1999/xlink">
<g id="graph0" class="graph" transform="scale(1 1) rotate(0) translate(4 124)">
<title>src/libs/vtools/dialogs/support/editlabeltemplate_dialog.h</title>
<polygon fill="white" stroke="transparent" points="-4,4 -4,-124 311.5,-124 311.5,4 -4,4"/>
<!-- Node1 -->
<g id="node1" class="node">
<title>Node1</title>
<g id="a_node1"><a xlink:title=" ">
<polygon fill="#bfbfbf" stroke="black" points="81,-78.5 81,-119.5 227,-119.5 227,-78.5 81,-78.5"/>
<text text-anchor="start" x="89" y="-107.5" font-family="Helvetica,sans-Serif" font-size="10.00">src/libs/vtools/dialogs</text>
<text text-anchor="start" x="89" y="-96.5" font-family="Helvetica,sans-Serif" font-size="10.00">/support/editlabeltemplate</text>
<text text-anchor="middle" x="154" y="-85.5" font-family="Helvetica,sans-Serif" font-size="10.00">_dialog.h</text>
</a>
</g>
</g>
<!-- Node2 -->
<g id="node2" class="node">
<title>Node2</title>
<g id="a_node2"><a xlink:href="../../df/d81/editlabeltemplate__dialog_8cpp.html" target="_top" xlink:title=" ">
<polygon fill="white" stroke="black" points="0,-0.5 0,-41.5 146,-41.5 146,-0.5 0,-0.5"/>
<text text-anchor="start" x="8" y="-29.5" font-family="Helvetica,sans-Serif" font-size="10.00">src/libs/vtools/dialogs</text>
<text text-anchor="start" x="8" y="-18.5" font-family="Helvetica,sans-Serif" font-size="10.00">/support/editlabeltemplate</text>
<text text-anchor="middle" x="73" y="-7.5" font-family="Helvetica,sans-Serif" font-size="10.00">_dialog.cpp</text>
</a>
</g>
</g>
<!-- Node1&#45;&gt;Node2 -->
<g id="edge1" class="edge">
<title>Node1&#45;&gt;Node2</title>
<path fill="none" stroke="midnightblue" d="M125.75,-71.49C115.24,-61.63 103.51,-50.63 93.79,-41.51"/>
<polygon fill="midnightblue" stroke="midnightblue" points="123.45,-74.14 133.14,-78.43 128.24,-69.03 123.45,-74.14"/>
</g>
<!-- Node3 -->
<g id="node3" class="node">
<title>Node3</title>
<g id="a_node3"><a xlink:href="../../de/d46/pattern__piece__dialog_8cpp.html" target="_top" xlink:title=" ">
<polygon fill="white" stroke="black" points="164.5,-0.5 164.5,-41.5 307.5,-41.5 307.5,-0.5 164.5,-0.5"/>
<text text-anchor="start" x="172.5" y="-29.5" font-family="Helvetica,sans-Serif" font-size="10.00">src/libs/vtools/dialogs</text>
<text text-anchor="start" x="172.5" y="-18.5" font-family="Helvetica,sans-Serif" font-size="10.00">/tools/piece/pattern_piece</text>
<text text-anchor="middle" x="236" y="-7.5" font-family="Helvetica,sans-Serif" font-size="10.00">_dialog.cpp</text>
</a>
</g>
</g>
<!-- Node1&#45;&gt;Node3 -->
<g id="edge2" class="edge">
<title>Node1&#45;&gt;Node3</title>
<path fill="none" stroke="midnightblue" d="M182.6,-71.49C193.24,-61.63 205.11,-50.63 214.95,-41.51"/>
<polygon fill="midnightblue" stroke="midnightblue" points="180.07,-69.06 175.12,-78.43 184.83,-74.2 180.07,-69.06"/>
</g>
</g>
</svg>
