<?xml version="1.0" encoding="UTF-8" standalone="no"?>
<!DOCTYPE svg PUBLIC "-//W3C//DTD SVG 1.1//EN"
 "http://www.w3.org/Graphics/SVG/1.1/DTD/svg11.dtd">
<!-- Generated by graphviz version 2.43.0 (0)
 -->
<!-- Title: src/libs/qmuparser/qmuparsertoken.h Pages: 1 -->
<!--zoomable 508 -->
<svg id="main" version="1.1" xmlns="http://www.w3.org/2000/svg" xmlns:xlink="http://www.w3.org/1999/xlink" xml:space="preserve" onload="init(evt)">
<style type="text/css"><![CDATA[
.edge:hover path { stroke: red; }
.edge:hover polygon { stroke: red; fill: red; }
]]></style>
<script type="text/javascript"><![CDATA[
var edges = document.getElementsByTagName('g');
if (edges && edges.length) {
  for (var i=0;i<edges.length;i++) {
    if (edges[i].id.substr(0,4)=='edge') {
      edges[i].setAttribute('class','edge');
    }
  }
}
]]></script>
        <defs>
                <circle id="rim" cx="0" cy="0" r="7"/>
                <circle id="rim2" cx="0" cy="0" r="3.5"/>
                <g id="zoomPlus">
                        <use xlink:href="#rim" fill="#404040">
                                <set attributeName="fill" to="#808080" begin="zoomplus.mouseover" end="zoomplus.mouseout"/>
                        </use>
                        <path d="M-4,0h8M0,-4v8" fill="none" stroke="white" stroke-width="1.5" pointer-events="none"/>
                </g>
                <g id="zoomMin">
                        <use xlink:href="#rim" fill="#404040">
                                <set attributeName="fill" to="#808080" begin="zoomminus.mouseover" end="zoomminus.mouseout"/>
                        </use>
                        <path d="M-4,0h8" fill="none" stroke="white" stroke-width="1.5" pointer-events="none"/>
                </g>
                <g id="dirArrow">
                        <path fill="none" stroke="white" stroke-width="1.5" d="M0,-3.0v7 M-2.5,-0.5L0,-3.0L2.5,-0.5"/>
                </g>
               <g id="resetDef">
                       <use xlink:href="#rim2" fill="#404040">
                               <set attributeName="fill" to="#808080" begin="reset.mouseover" end="reset.mouseout"/>
                       </use>
               </g>
        </defs>

<script type="text/javascript">
var viewWidth = 1206;
var viewHeight = 508;
var sectionId = 'dynsection-1';
</script>
<script xlink:href="../../svgpan.js"/>
<svg id="graph" class="graph">
<g id="viewport">
<title>src/libs/qmuparser/qmuparsertoken.h</title>
<polygon fill="white" stroke="transparent" points="-4,4 -4,-504 1202,-504 1202,4 -4,4"/>
<!-- Node1 -->
<g id="node1" class="node">
<title>Node1</title>
<g id="a_node1"><a xlink:title="This file contains the parser token definition.">
<polygon fill="#bfbfbf" stroke="black" points="909.5,-469.5 909.5,-499.5 1017.5,-499.5 1017.5,-469.5 909.5,-469.5"/>
<text text-anchor="start" x="917.5" y="-487.5" font-family="Helvetica,sans-Serif" font-size="10.00">src/libs/qmuparser</text>
<text text-anchor="middle" x="963.5" y="-476.5" font-family="Helvetica,sans-Serif" font-size="10.00">/qmuparsertoken.h</text>
</a>
</g>
</g>
<!-- Node2 -->
<g id="node2" class="node">
<title>Node2</title>
<g id="a_node2"><a xlink:href="../../df/d18/qmuparserbase_8h.html" target="_top" xlink:title="This file contains the class definition of the qmuparser engine.">
<polygon fill="white" stroke="black" points="910,-335.5 910,-365.5 1017,-365.5 1017,-335.5 910,-335.5"/>
<text text-anchor="start" x="918" y="-353.5" font-family="Helvetica,sans-Serif" font-size="10.00">src/libs/qmuparser</text>
<text text-anchor="middle" x="963.5" y="-342.5" font-family="Helvetica,sans-Serif" font-size="10.00">/qmuparserbase.h</text>
</a>
</g>
</g>
<!-- Node1&#45;&gt;Node2 -->
<g id="edge1" class="edge">
<title>Node1&#45;&gt;Node2</title>
<path fill="none" stroke="midnightblue" d="M963.5,-459.02C963.5,-431.51 963.5,-387.79 963.5,-365.52"/>
<polygon fill="midnightblue" stroke="midnightblue" points="960,-459.37 963.5,-469.37 967,-459.37 960,-459.37"/>
</g>
<!-- Node22 -->
<g id="node22" class="node">
<title>Node22</title>
<g id="a_node22"><a xlink:href="../../dd/da6/qmuparserbytecode_8h.html" target="_top" xlink:title="Definition of the parser bytecode class.">
<polygon fill="white" stroke="black" points="809.5,-402.5 809.5,-432.5 935.5,-432.5 935.5,-402.5 809.5,-402.5"/>
<text text-anchor="start" x="817.5" y="-420.5" font-family="Helvetica,sans-Serif" font-size="10.00">src/libs/qmuparser</text>
<text text-anchor="middle" x="872.5" y="-409.5" font-family="Helvetica,sans-Serif" font-size="10.00">/qmuparserbytecode.h</text>
</a>
</g>
</g>
<!-- Node1&#45;&gt;Node22 -->
<g id="edge24" class="edge">
<title>Node1&#45;&gt;Node22</title>
<path fill="none" stroke="midnightblue" d="M935.43,-463.45C921.43,-453.45 904.84,-441.6 892.21,-432.58"/>
<polygon fill="midnightblue" stroke="midnightblue" points="933.58,-466.43 943.75,-469.4 937.65,-460.74 933.58,-466.43"/>
</g>
<!-- Node24 -->
<g id="node24" class="node">
<title>Node24</title>
<g id="a_node24"><a xlink:href="../../db/d1b/qmuparsertokenreader_8h.html" target="_top" xlink:title="This file contains the parser token reader definition.">
<polygon fill="white" stroke="black" points="992,-402.5 992,-432.5 1131,-432.5 1131,-402.5 992,-402.5"/>
<text text-anchor="start" x="1000" y="-420.5" font-family="Helvetica,sans-Serif" font-size="10.00">src/libs/qmuparser</text>
<text text-anchor="middle" x="1061.5" y="-409.5" font-family="Helvetica,sans-Serif" font-size="10.00">/qmuparsertokenreader.h</text>
</a>
</g>
</g>
<!-- Node1&#45;&gt;Node24 -->
<g id="edge27" class="edge">
<title>Node1&#45;&gt;Node24</title>
<path fill="none" stroke="midnightblue" d="M993.3,-463.73C1008.47,-453.68 1026.54,-441.68 1040.28,-432.58"/>
<polygon fill="midnightblue" stroke="midnightblue" points="991.16,-460.95 984.76,-469.4 995.03,-466.79 991.16,-460.95"/>
</g>
<!-- Node3 -->
<g id="node3" class="node">
<title>Node3</title>
<g id="a_node3"><a xlink:href="../../d6/dc3/qmuparser_8h.html" target="_top" xlink:title="Definition of the standard floating point parser.">
<polygon fill="white" stroke="black" points="898,-268.5 898,-298.5 1005,-298.5 1005,-268.5 898,-268.5"/>
<text text-anchor="start" x="906" y="-286.5" font-family="Helvetica,sans-Serif" font-size="10.00">src/libs/qmuparser</text>
<text text-anchor="middle" x="951.5" y="-275.5" font-family="Helvetica,sans-Serif" font-size="10.00">/qmuparser.h</text>
</a>
</g>
</g>
<!-- Node2&#45;&gt;Node3 -->
<g id="edge2" class="edge">
<title>Node2&#45;&gt;Node3</title>
<path fill="none" stroke="midnightblue" d="M959.05,-325.4C957.38,-316.37 955.54,-306.41 954.1,-298.58"/>
<polygon fill="midnightblue" stroke="midnightblue" points="955.64,-326.2 960.9,-335.4 962.52,-324.93 955.64,-326.2"/>
</g>
<!-- Node20 -->
<g id="node20" class="node">
<title>Node20</title>
<g id="a_node20"><a xlink:href="../../d0/d70/qmuparserbase_8cpp.html" target="_top" xlink:title="This file contains the basic implementation of the muparser engine.">
<polygon fill="white" stroke="black" points="763.5,-268.5 763.5,-298.5 879.5,-298.5 879.5,-268.5 763.5,-268.5"/>
<text text-anchor="start" x="771.5" y="-286.5" font-family="Helvetica,sans-Serif" font-size="10.00">src/libs/qmuparser</text>
<text text-anchor="middle" x="821.5" y="-275.5" font-family="Helvetica,sans-Serif" font-size="10.00">/qmuparserbase.cpp</text>
</a>
</g>
</g>
<!-- Node2&#45;&gt;Node20 -->
<g id="edge22" class="edge">
<title>Node2&#45;&gt;Node20</title>
<path fill="none" stroke="midnightblue" d="M923.37,-331.13C900.81,-320.8 873.08,-308.11 852.25,-298.58"/>
<polygon fill="midnightblue" stroke="midnightblue" points="922.14,-334.42 932.69,-335.4 925.05,-328.05 922.14,-334.42"/>
</g>
<!-- Node21 -->
<g id="node21" class="node">
<title>Node21</title>
<g id="a_node21"><a xlink:href="../../df/d10/qmuparsertokenreader_8cpp.html" target="_top" xlink:title="This file contains the parser token reader implementation.">
<polygon fill="white" stroke="black" points="1023.5,-268.5 1023.5,-298.5 1173.5,-298.5 1173.5,-268.5 1023.5,-268.5"/>
<text text-anchor="start" x="1031.5" y="-286.5" font-family="Helvetica,sans-Serif" font-size="10.00">src/libs/qmuparser</text>
<text text-anchor="middle" x="1098.5" y="-275.5" font-family="Helvetica,sans-Serif" font-size="10.00">/qmuparsertokenreader.cpp</text>
</a>
</g>
</g>
<!-- Node2&#45;&gt;Node21 -->
<g id="edge23" class="edge">
<title>Node2&#45;&gt;Node21</title>
<path fill="none" stroke="midnightblue" d="M1001.94,-330.99C1023.34,-320.69 1049.55,-308.07 1069.26,-298.58"/>
<polygon fill="midnightblue" stroke="midnightblue" points="1000.28,-327.9 992.79,-335.4 1003.32,-334.21 1000.28,-327.9"/>
</g>
<!-- Node4 -->
<g id="node4" class="node">
<title>Node4</title>
<g id="a_node4"><a xlink:href="../../d7/da3/qmuformulabase_8h.html" target="_top" xlink:title=" ">
<polygon fill="white" stroke="black" points="705.5,-201.5 705.5,-231.5 817.5,-231.5 817.5,-201.5 705.5,-201.5"/>
<text text-anchor="start" x="713.5" y="-219.5" font-family="Helvetica,sans-Serif" font-size="10.00">src/libs/qmuparser</text>
<text text-anchor="middle" x="761.5" y="-208.5" font-family="Helvetica,sans-Serif" font-size="10.00">/qmuformulabase.h</text>
</a>
</g>
</g>
<!-- Node3&#45;&gt;Node4 -->
<g id="edge3" class="edge">
<title>Node3&#45;&gt;Node4</title>
<path fill="none" stroke="midnightblue" d="M900.61,-265.09C869.94,-254.6 831.39,-241.41 802.65,-231.58"/>
<polygon fill="midnightblue" stroke="midnightblue" points="899.68,-268.47 910.27,-268.4 901.94,-261.85 899.68,-268.47"/>
</g>
<!-- Node17 -->
<g id="node17" class="node">
<title>Node17</title>
<g id="a_node17"><a xlink:href="../../da/d59/qmuparser_8cpp.html" target="_top" xlink:title="Implementation of the standard floating point QmuParser.">
<polygon fill="white" stroke="black" points="836,-201.5 836,-231.5 943,-231.5 943,-201.5 836,-201.5"/>
<text text-anchor="start" x="844" y="-219.5" font-family="Helvetica,sans-Serif" font-size="10.00">src/libs/qmuparser</text>
<text text-anchor="middle" x="889.5" y="-208.5" font-family="Helvetica,sans-Serif" font-size="10.00">/qmuparser.cpp</text>
</a>
</g>
</g>
<!-- Node3&#45;&gt;Node17 -->
<g id="edge18" class="edge">
<title>Node3&#45;&gt;Node17</title>
<path fill="none" stroke="midnightblue" d="M931.02,-261.02C921.78,-251.34 911.13,-240.17 902.93,-231.58"/>
<polygon fill="midnightblue" stroke="midnightblue" points="928.61,-263.58 938.05,-268.4 933.68,-258.74 928.61,-263.58"/>
</g>
<!-- Node18 -->
<g id="node18" class="node">
<title>Node18</title>
<g id="a_node18"><a xlink:href="../../db/dfa/qmuparsertest_8h.html" target="_top" xlink:title="This file contains the parser test class.">
<polygon fill="white" stroke="black" points="961,-201.5 961,-231.5 1068,-231.5 1068,-201.5 961,-201.5"/>
<text text-anchor="start" x="969" y="-219.5" font-family="Helvetica,sans-Serif" font-size="10.00">src/libs/qmuparser</text>
<text text-anchor="middle" x="1014.5" y="-208.5" font-family="Helvetica,sans-Serif" font-size="10.00">/qmuparsertest.h</text>
</a>
</g>
</g>
<!-- Node3&#45;&gt;Node18 -->
<g id="edge19" class="edge">
<title>Node3&#45;&gt;Node18</title>
<path fill="none" stroke="midnightblue" d="M972.31,-261.02C981.7,-251.34 992.52,-240.17 1000.86,-231.58"/>
<polygon fill="midnightblue" stroke="midnightblue" points="969.62,-258.78 965.17,-268.4 974.64,-263.65 969.62,-258.78"/>
</g>
<!-- Node19 -->
<g id="node19" class="node">
<title>Node19</title>
<g id="a_node19"><a xlink:href="../../df/dbf/qmuparsertest_8cpp.html" target="_top" xlink:title="This file contains the implementation of parser test cases.">
<polygon fill="white" stroke="black" points="1008,-134.5 1008,-164.5 1119,-164.5 1119,-134.5 1008,-134.5"/>
<text text-anchor="start" x="1016" y="-152.5" font-family="Helvetica,sans-Serif" font-size="10.00">src/libs/qmuparser</text>
<text text-anchor="middle" x="1063.5" y="-141.5" font-family="Helvetica,sans-Serif" font-size="10.00">/qmuparsertest.cpp</text>
</a>
</g>
</g>
<!-- Node3&#45;&gt;Node19 -->
<g id="edge21" class="edge">
<title>Node3&#45;&gt;Node19</title>
<path fill="none" stroke="midnightblue" d="M1011.86,-265.41C1040.15,-256.06 1069.4,-243.97 1077.5,-232 1091.26,-211.67 1080.39,-182.13 1071.66,-164.76"/>
<polygon fill="midnightblue" stroke="midnightblue" points="1010.79,-262.08 1002.34,-268.47 1012.93,-268.74 1010.79,-262.08"/>
</g>
<!-- Node5 -->
<g id="node5" class="node">
<title>Node5</title>
<g id="a_node5"><a xlink:href="../../d4/d67/qmuformulabase_8cpp.html" target="_top" xlink:title=" ">
<polygon fill="white" stroke="black" points="833,-134.5 833,-164.5 956,-164.5 956,-134.5 833,-134.5"/>
<text text-anchor="start" x="841" y="-152.5" font-family="Helvetica,sans-Serif" font-size="10.00">src/libs/qmuparser</text>
<text text-anchor="middle" x="894.5" y="-141.5" font-family="Helvetica,sans-Serif" font-size="10.00">/qmuformulabase.cpp</text>
</a>
</g>
</g>
<!-- Node4&#45;&gt;Node5 -->
<g id="edge4" class="edge">
<title>Node4&#45;&gt;Node5</title>
<path fill="none" stroke="midnightblue" d="M799.37,-196.99C820.45,-186.69 846.28,-174.07 865.7,-164.58"/>
<polygon fill="midnightblue" stroke="midnightblue" points="797.81,-193.86 790.36,-201.4 800.88,-200.15 797.81,-193.86"/>
</g>
<!-- Node6 -->
<g id="node6" class="node">
<title>Node6</title>
<g id="a_node6"><a xlink:href="../../db/d75/qmutokenparser_8h.html" target="_top" xlink:title=" ">
<polygon fill="white" stroke="black" points="235,-134.5 235,-164.5 342,-164.5 342,-134.5 235,-134.5"/>
<text text-anchor="start" x="243" y="-152.5" font-family="Helvetica,sans-Serif" font-size="10.00">src/libs/qmuparser</text>
<text text-anchor="middle" x="288.5" y="-141.5" font-family="Helvetica,sans-Serif" font-size="10.00">/qmutokenparser.h</text>
</a>
</g>
</g>
<!-- Node4&#45;&gt;Node6 -->
<g id="edge5" class="edge">
<title>Node4&#45;&gt;Node6</title>
<path fill="none" stroke="midnightblue" d="M695.38,-206.41C601,-193.44 429.47,-169.87 342.36,-157.9"/>
<polygon fill="midnightblue" stroke="midnightblue" points="695,-209.89 705.38,-207.79 695.95,-202.96 695,-209.89"/>
</g>
<!-- Node12 -->
<g id="node12" class="node">
<title>Node12</title>
<g id="a_node12"><a xlink:href="../../db/db8/vpatterndb_2calculator_8h.html" target="_top" xlink:title=" ">
<polygon fill="white" stroke="black" points="708,-134.5 708,-164.5 815,-164.5 815,-134.5 708,-134.5"/>
<text text-anchor="start" x="716" y="-152.5" font-family="Helvetica,sans-Serif" font-size="10.00">src/libs/vpatterndb</text>
<text text-anchor="middle" x="761.5" y="-141.5" font-family="Helvetica,sans-Serif" font-size="10.00">/calculator.h</text>
</a>
</g>
</g>
<!-- Node4&#45;&gt;Node12 -->
<g id="edge12" class="edge">
<title>Node4&#45;&gt;Node12</title>
<path fill="none" stroke="midnightblue" d="M761.5,-191.11C761.5,-182.15 761.5,-172.32 761.5,-164.58"/>
<polygon fill="midnightblue" stroke="midnightblue" points="758,-191.4 761.5,-201.4 765,-191.4 758,-191.4"/>
</g>
<!-- Node7 -->
<g id="node7" class="node">
<title>Node7</title>
<g id="a_node7"><a xlink:href="../../dd/d20/qmutokenparser_8cpp.html" target="_top" xlink:title=" ">
<polygon fill="white" stroke="black" points="295,-67.5 295,-97.5 414,-97.5 414,-67.5 295,-67.5"/>
<text text-anchor="start" x="303" y="-85.5" font-family="Helvetica,sans-Serif" font-size="10.00">src/libs/qmuparser</text>
<text text-anchor="middle" x="354.5" y="-74.5" font-family="Helvetica,sans-Serif" font-size="10.00">/qmutokenparser.cpp</text>
</a>
</g>
</g>
<!-- Node6&#45;&gt;Node7 -->
<g id="edge6" class="edge">
<title>Node6&#45;&gt;Node7</title>
<path fill="none" stroke="midnightblue" d="M310.01,-127.31C319.91,-117.56 331.39,-106.26 340.21,-97.58"/>
<polygon fill="midnightblue" stroke="midnightblue" points="307.49,-124.89 302.82,-134.4 312.4,-129.87 307.49,-124.89"/>
</g>
<!-- Node8 -->
<g id="node8" class="node">
<title>Node8</title>
<g id="a_node8"><a xlink:href="../../de/db3/vmeasurements_8cpp.html" target="_top" xlink:title=" ">
<polygon fill="white" stroke="black" points="432.5,-73 432.5,-92 628.5,-92 628.5,-73 432.5,-73"/>
<text text-anchor="middle" x="530.5" y="-80" font-family="Helvetica,sans-Serif" font-size="10.00">src/libs/vformat/vmeasurements.cpp</text>
</a>
</g>
</g>
<!-- Node6&#45;&gt;Node8 -->
<g id="edge7" class="edge">
<title>Node6&#45;&gt;Node8</title>
<path fill="none" stroke="midnightblue" d="M350.56,-131.83C397.92,-119.11 461.23,-102.11 498.75,-92.03"/>
<polygon fill="midnightblue" stroke="midnightblue" points="349.46,-128.5 340.71,-134.48 351.28,-135.26 349.46,-128.5"/>
</g>
<!-- Node9 -->
<g id="node9" class="node">
<title>Node9</title>
<g id="a_node9"><a xlink:href="../../d5/d81/vsplinepoint_8cpp.html" target="_top" xlink:title=" ">
<polygon fill="white" stroke="black" points="0,-0.5 0,-30.5 107,-30.5 107,-0.5 0,-0.5"/>
<text text-anchor="start" x="8" y="-18.5" font-family="Helvetica,sans-Serif" font-size="10.00">src/libs/vgeometry</text>
<text text-anchor="middle" x="53.5" y="-7.5" font-family="Helvetica,sans-Serif" font-size="10.00">/vsplinepoint.cpp</text>
</a>
</g>
</g>
<!-- Node6&#45;&gt;Node9 -->
<g id="edge8" class="edge">
<title>Node6&#45;&gt;Node9</title>
<path fill="none" stroke="midnightblue" d="M224.7,-144.99C156.68,-139.76 55.51,-127.18 31.5,-98 15.49,-78.53 30.92,-48.43 42.78,-30.78"/>
<polygon fill="midnightblue" stroke="midnightblue" points="224.67,-148.5 234.9,-145.74 225.18,-141.52 224.67,-148.5"/>
</g>
<!-- Node10 -->
<g id="node10" class="node">
<title>Node10</title>
<g id="a_node10"><a xlink:href="../../da/db2/vsplinepoint__p_8h.html" target="_top" xlink:title=" ">
<polygon fill="white" stroke="black" points="41,-67.5 41,-97.5 148,-97.5 148,-67.5 41,-67.5"/>
<text text-anchor="start" x="49" y="-85.5" font-family="Helvetica,sans-Serif" font-size="10.00">src/libs/vgeometry</text>
<text text-anchor="middle" x="94.5" y="-74.5" font-family="Helvetica,sans-Serif" font-size="10.00">/vsplinepoint_p.h</text>
</a>
</g>
</g>
<!-- Node6&#45;&gt;Node10 -->
<g id="edge9" class="edge">
<title>Node6&#45;&gt;Node10</title>
<path fill="none" stroke="midnightblue" d="M236.54,-131.09C205.23,-120.6 165.86,-107.41 136.51,-97.58"/>
<polygon fill="midnightblue" stroke="midnightblue" points="235.81,-134.54 246.4,-134.4 238.03,-127.9 235.81,-134.54"/>
</g>
<!-- Node11 -->
<g id="node11" class="node">
<title>Node11</title>
<g id="a_node11"><a xlink:href="../../de/d3e/vtranslatevars_8cpp.html" target="_top" xlink:title=" ">
<polygon fill="white" stroke="black" points="166.5,-67.5 166.5,-97.5 276.5,-97.5 276.5,-67.5 166.5,-67.5"/>
<text text-anchor="start" x="174.5" y="-85.5" font-family="Helvetica,sans-Serif" font-size="10.00">src/libs/vpatterndb</text>
<text text-anchor="middle" x="221.5" y="-74.5" font-family="Helvetica,sans-Serif" font-size="10.00">/vtranslatevars.cpp</text>
</a>
</g>
</g>
<!-- Node6&#45;&gt;Node11 -->
<g id="edge11" class="edge">
<title>Node6&#45;&gt;Node11</title>
<path fill="none" stroke="midnightblue" d="M266.66,-127.31C256.61,-117.56 244.96,-106.26 236.01,-97.58"/>
<polygon fill="midnightblue" stroke="midnightblue" points="264.35,-129.94 273.96,-134.4 269.22,-124.92 264.35,-129.94"/>
</g>
<!-- Node10&#45;&gt;Node9 -->
<g id="edge10" class="edge">
<title>Node10&#45;&gt;Node9</title>
<path fill="none" stroke="midnightblue" d="M80.22,-58.87C74.29,-49.46 67.59,-38.83 62.38,-30.58"/>
<polygon fill="midnightblue" stroke="midnightblue" points="77.31,-60.81 85.6,-67.4 83.23,-57.07 77.31,-60.81"/>
</g>
<!-- Node12&#45;&gt;Node8 -->
<g id="edge13" class="edge">
<title>Node12&#45;&gt;Node8</title>
<path fill="none" stroke="midnightblue" d="M701.97,-131.75C656.8,-119.04 596.55,-102.09 560.81,-92.03"/>
<polygon fill="midnightblue" stroke="midnightblue" points="701.09,-135.14 711.66,-134.48 702.98,-128.4 701.09,-135.14"/>
</g>
<!-- Node13 -->
<g id="node13" class="node">
<title>Node13</title>
<g id="a_node13"><a xlink:href="../../dd/d70/vlayoutpiece_8cpp.html" target="_top" xlink:title=" ">
<polygon fill="white" stroke="black" points="1021,-73 1021,-92 1198,-92 1198,-73 1021,-73"/>
<text text-anchor="middle" x="1109.5" y="-80" font-family="Helvetica,sans-Serif" font-size="10.00">src/libs/vlayout/vlayoutpiece.cpp</text>
</a>
</g>
</g>
<!-- Node12&#45;&gt;Node13 -->
<g id="edge14" class="edge">
<title>Node12&#45;&gt;Node13</title>
<path fill="none" stroke="midnightblue" d="M825.16,-133.72C911.2,-116.26 1000.66,-101.08 1056.1,-92.03"/>
<polygon fill="midnightblue" stroke="midnightblue" points="824.33,-130.31 815.23,-135.74 825.73,-137.17 824.33,-130.31"/>
</g>
<!-- Node14 -->
<g id="node14" class="node">
<title>Node14</title>
<g id="a_node14"><a xlink:href="../../db/d8e/vpatterndb_2calculator_8cpp.html" target="_top" xlink:title=" ">
<polygon fill="white" stroke="black" points="646,-67.5 646,-97.5 753,-97.5 753,-67.5 646,-67.5"/>
<text text-anchor="start" x="654" y="-85.5" font-family="Helvetica,sans-Serif" font-size="10.00">src/libs/vpatterndb</text>
<text text-anchor="middle" x="699.5" y="-74.5" font-family="Helvetica,sans-Serif" font-size="10.00">/calculator.cpp</text>
</a>
</g>
</g>
<!-- Node12&#45;&gt;Node14 -->
<g id="edge15" class="edge">
<title>Node12&#45;&gt;Node14</title>
<path fill="none" stroke="midnightblue" d="M741.02,-127.02C731.78,-117.34 721.13,-106.17 712.93,-97.58"/>
<polygon fill="midnightblue" stroke="midnightblue" points="738.61,-129.58 748.05,-134.4 743.68,-124.74 738.61,-129.58"/>
</g>
<!-- Node15 -->
<g id="node15" class="node">
<title>Node15</title>
<g id="a_node15"><a xlink:href="../../db/d11/vformula_8cpp.html" target="_top" xlink:title=" ">
<polygon fill="white" stroke="black" points="771,-67.5 771,-97.5 878,-97.5 878,-67.5 771,-67.5"/>
<text text-anchor="start" x="779" y="-85.5" font-family="Helvetica,sans-Serif" font-size="10.00">src/libs/vpatterndb</text>
<text text-anchor="middle" x="824.5" y="-74.5" font-family="Helvetica,sans-Serif" font-size="10.00">/vformula.cpp</text>
</a>
</g>
</g>
<!-- Node12&#45;&gt;Node15 -->
<g id="edge16" class="edge">
<title>Node12&#45;&gt;Node15</title>
<path fill="none" stroke="midnightblue" d="M782.31,-127.02C791.7,-117.34 802.52,-106.17 810.86,-97.58"/>
<polygon fill="midnightblue" stroke="midnightblue" points="779.62,-124.78 775.17,-134.4 784.64,-129.65 779.62,-124.78"/>
</g>
<!-- Node16 -->
<g id="node16" class="node">
<title>Node16</title>
<g id="a_node16"><a xlink:href="../../d8/dba/vpiecenode_8cpp.html" target="_top" xlink:title=" ">
<polygon fill="white" stroke="black" points="896,-67.5 896,-97.5 1003,-97.5 1003,-67.5 896,-67.5"/>
<text text-anchor="start" x="904" y="-85.5" font-family="Helvetica,sans-Serif" font-size="10.00">src/libs/vpatterndb</text>
<text text-anchor="middle" x="949.5" y="-74.5" font-family="Helvetica,sans-Serif" font-size="10.00">/vpiecenode.cpp</text>
</a>
</g>
</g>
<!-- Node12&#45;&gt;Node16 -->
<g id="edge17" class="edge">
<title>Node12&#45;&gt;Node16</title>
<path fill="none" stroke="midnightblue" d="M811.85,-131.09C842.2,-120.6 880.35,-107.41 908.79,-97.58"/>
<polygon fill="midnightblue" stroke="midnightblue" points="810.6,-127.82 802.29,-134.4 812.89,-134.44 810.6,-127.82"/>
</g>
<!-- Node18&#45;&gt;Node19 -->
<g id="edge20" class="edge">
<title>Node18&#45;&gt;Node19</title>
<path fill="none" stroke="midnightblue" d="M1031.34,-193.16C1038.49,-183.68 1046.6,-172.92 1052.89,-164.58"/>
<polygon fill="midnightblue" stroke="midnightblue" points="1028.36,-191.3 1025.13,-201.4 1033.95,-195.52 1028.36,-191.3"/>
</g>
<!-- Node22&#45;&gt;Node2 -->
<g id="edge25" class="edge">
<title>Node22&#45;&gt;Node2</title>
<path fill="none" stroke="midnightblue" d="M900.57,-396.45C914.57,-386.45 931.16,-374.6 943.79,-365.58"/>
<polygon fill="midnightblue" stroke="midnightblue" points="898.35,-393.74 892.25,-402.4 902.42,-399.43 898.35,-393.74"/>
</g>
<!-- Node23 -->
<g id="node23" class="node">
<title>Node23</title>
<g id="a_node23"><a xlink:href="../../d1/d4b/qmuparserbytecode_8cpp.html" target="_top" xlink:title=" ">
<polygon fill="white" stroke="black" points="755,-335.5 755,-365.5 892,-365.5 892,-335.5 755,-335.5"/>
<text text-anchor="start" x="763" y="-353.5" font-family="Helvetica,sans-Serif" font-size="10.00">src/libs/qmuparser</text>
<text text-anchor="middle" x="823.5" y="-342.5" font-family="Helvetica,sans-Serif" font-size="10.00">/qmuparserbytecode.cpp</text>
</a>
</g>
</g>
<!-- Node22&#45;&gt;Node23 -->
<g id="edge26" class="edge">
<title>Node22&#45;&gt;Node23</title>
<path fill="none" stroke="midnightblue" d="M855.66,-394.16C848.51,-384.68 840.4,-373.92 834.11,-365.58"/>
<polygon fill="midnightblue" stroke="midnightblue" points="853.05,-396.52 861.87,-402.4 858.64,-392.3 853.05,-396.52"/>
</g>
<!-- Node24&#45;&gt;Node2 -->
<g id="edge28" class="edge">
<title>Node24&#45;&gt;Node2</title>
<path fill="none" stroke="midnightblue" d="M1031.7,-396.73C1016.53,-386.68 998.46,-374.68 984.72,-365.58"/>
<polygon fill="midnightblue" stroke="midnightblue" points="1029.97,-399.79 1040.24,-402.4 1033.84,-393.95 1029.97,-399.79"/>
</g>
<!-- Node24&#45;&gt;Node21 -->
<g id="edge29" class="edge">
<title>Node24&#45;&gt;Node21</title>
<path fill="none" stroke="midnightblue" d="M1068.26,-392.39C1075.96,-364.9 1088.3,-320.89 1094.57,-298.52"/>
<polygon fill="midnightblue" stroke="midnightblue" points="1064.79,-391.8 1065.46,-402.37 1071.53,-393.69 1064.79,-391.8"/>
</g>
</g>
</svg>
        <g id="navigator" transform="translate(0 0)" fill="#404254">
                <rect fill="#f2f5e9" fill-opacity="0.5" stroke="#606060" stroke-width=".5" x="0" y="0" width="60" height="60"/>
                <use id="zoomplus" xlink:href="#zoomPlus" x="17" y="9" onmousedown="handleZoom(evt,'in')"/>
                <use id="zoomminus" xlink:href="#zoomMin" x="42" y="9" onmousedown="handleZoom(evt,'out')"/>
                <use id="reset" xlink:href="#resetDef" x="30" y="36" onmousedown="handleReset()"/>
                <g id="arrowUp" xlink:href="#dirArrow" transform="translate(30 24)" onmousedown="handlePan(0,-1)">
                  <use xlink:href="#rim" fill="#404040">
                        <set attributeName="fill" to="#808080" begin="arrowUp.mouseover" end="arrowUp.mouseout"/>
                  </use>
                  <path fill="none" stroke="white" stroke-width="1.5" d="M0,-3.0v7 M-2.5,-0.5L0,-3.0L2.5,-0.5"/>
                </g>
                <g id="arrowRight" xlink:href="#dirArrow" transform="rotate(90) translate(36 -43)" onmousedown="handlePan(1,0)">
                  <use xlink:href="#rim" fill="#404040">
                        <set attributeName="fill" to="#808080" begin="arrowRight.mouseover" end="arrowRight.mouseout"/>
                  </use>
                  <path fill="none" stroke="white" stroke-width="1.5" d="M0,-3.0v7 M-2.5,-0.5L0,-3.0L2.5,-0.5"/>
                </g>
                <g id="arrowDown" xlink:href="#dirArrow" transform="rotate(180) translate(-30 -48)" onmousedown="handlePan(0,1)">
                  <use xlink:href="#rim" fill="#404040">
                        <set attributeName="fill" to="#808080" begin="arrowDown.mouseover" end="arrowDown.mouseout"/>
                  </use>
                  <path fill="none" stroke="white" stroke-width="1.5" d="M0,-3.0v7 M-2.5,-0.5L0,-3.0L2.5,-0.5"/>
                </g>
                <g id="arrowLeft" xlink:href="#dirArrow" transform="rotate(270) translate(-36 17)" onmousedown="handlePan(-1,0)">
                  <use xlink:href="#rim" fill="#404040">
                        <set attributeName="fill" to="#808080" begin="arrowLeft.mouseover" end="arrowLeft.mouseout"/>
                  </use>
                  <path fill="none" stroke="white" stroke-width="1.5" d="M0,-3.0v7 M-2.5,-0.5L0,-3.0L2.5,-0.5"/>
                </g>
        </g>
        <svg viewBox="0 0 15 15" width="100%" height="30px" preserveAspectRatio="xMaxYMin meet">
         <g id="arrow_out" transform="scale(0.3 0.3)">
          <a xlink:href="qmuparsertoken_8h__dep__incl_org.svg" target="_base">
           <rect id="button" ry="5" rx="5" y="6" x="6" height="38" width="38"
                fill="#f2f5e9" fill-opacity="0.5" stroke="#606060" stroke-width="1.0"/>
           <path id="arrow"
             d="M 11.500037,31.436501 C 11.940474,20.09759 22.043105,11.32322 32.158766,21.979434 L 37.068811,17.246167 C 37.068811,17.246167 37.088388,32 37.088388,32 L 22.160133,31.978069 C 22.160133,31.978069 26.997745,27.140456 26.997745,27.140456 C 18.528582,18.264221 13.291696,25.230495 11.500037,31.436501 z"
             style="fill:#404040;"/>
          </a>
         </g>
        </svg>
</svg>
