<?xml version="1.0" encoding="UTF-8" standalone="no"?>
<!DOCTYPE svg PUBLIC "-//W3C//DTD SVG 1.1//EN"
 "http://www.w3.org/Graphics/SVG/1.1/DTD/svg11.dtd">
<!-- Generated by graphviz version 2.43.0 (0)
 -->
<!-- Title: src/libs/vtools/tools/drawTools/toolpoint/toolsinglepoint/vtoolpointfromarcandtangent.h Pages: 1 -->
<svg width="644pt" height="195pt"
 viewBox="0.00 0.00 644.00 195.00" xmlns="http://www.w3.org/2000/svg" xmlns:xlink="http://www.w3.org/1999/xlink">
<g id="graph0" class="graph" transform="scale(1 1) rotate(0) translate(4 191)">
<title>src/libs/vtools/tools/drawTools/toolpoint/toolsinglepoint/vtoolpointfromarcandtangent.h</title>
<polygon fill="white" stroke="transparent" points="-4,4 -4,-191 640,-191 640,4 -4,4"/>
<!-- Node1 -->
<g id="node1" class="node">
<title>Node1</title>
<g id="a_node1"><a xlink:title=" ">
<polygon fill="#bfbfbf" stroke="black" points="152,-145.5 152,-186.5 400,-186.5 400,-145.5 152,-145.5"/>
<text text-anchor="start" x="160" y="-174.5" font-family="Helvetica,sans-Serif" font-size="10.00">src/libs/vtools/tools</text>
<text text-anchor="start" x="160" y="-163.5" font-family="Helvetica,sans-Serif" font-size="10.00">/drawTools/toolpoint</text>
<text text-anchor="middle" x="276" y="-152.5" font-family="Helvetica,sans-Serif" font-size="10.00">/toolsinglepoint/vtoolpointfromarcandtangent.h</text>
</a>
</g>
</g>
<!-- Node2 -->
<g id="node2" class="node">
<title>Node2</title>
<g id="a_node2"><a xlink:href="../../d4/d56/drawtools_8h.html" target="_top" xlink:title=" ">
<polygon fill="white" stroke="black" points="0,-73 0,-103 128,-103 128,-73 0,-73"/>
<text text-anchor="start" x="8" y="-91" font-family="Helvetica,sans-Serif" font-size="10.00">src/libs/vtools/tools</text>
<text text-anchor="middle" x="64" y="-80" font-family="Helvetica,sans-Serif" font-size="10.00">/drawTools/drawtools.h</text>
</a>
</g>
</g>
<!-- Node1&#45;&gt;Node2 -->
<g id="edge1" class="edge">
<title>Node1&#45;&gt;Node2</title>
<path fill="none" stroke="midnightblue" d="M211.66,-141.93C176.35,-129.28 133.71,-113.99 103.35,-103.11"/>
<polygon fill="midnightblue" stroke="midnightblue" points="210.81,-145.35 221.4,-145.43 213.17,-138.76 210.81,-145.35"/>
</g>
<!-- Node4 -->
<g id="node4" class="node">
<title>Node4</title>
<g id="a_node4"><a xlink:href="../../d5/d77/vtoolpointfromarcandtangent_8cpp.html" target="_top" xlink:title=" ">
<polygon fill="white" stroke="black" points="146.5,-67.5 146.5,-108.5 405.5,-108.5 405.5,-67.5 146.5,-67.5"/>
<text text-anchor="start" x="154.5" y="-96.5" font-family="Helvetica,sans-Serif" font-size="10.00">src/libs/vtools/tools</text>
<text text-anchor="start" x="154.5" y="-85.5" font-family="Helvetica,sans-Serif" font-size="10.00">/drawTools/toolpoint</text>
<text text-anchor="middle" x="276" y="-74.5" font-family="Helvetica,sans-Serif" font-size="10.00">/toolsinglepoint/vtoolpointfromarcandtangent.cpp</text>
</a>
</g>
</g>
<!-- Node1&#45;&gt;Node4 -->
<g id="edge3" class="edge">
<title>Node1&#45;&gt;Node4</title>
<path fill="none" stroke="midnightblue" d="M276,-135.3C276,-126.3 276,-116.65 276,-108.51"/>
<polygon fill="midnightblue" stroke="midnightblue" points="272.5,-135.43 276,-145.43 279.5,-135.43 272.5,-135.43"/>
</g>
<!-- Node5 -->
<g id="node5" class="node">
<title>Node5</title>
<g id="a_node5"><a xlink:href="../../d1/db9/vistoolpointfromarcandtangent_8cpp.html" target="_top" xlink:title=" ">
<polygon fill="white" stroke="black" points="424,-73 424,-103 636,-103 636,-73 424,-73"/>
<text text-anchor="start" x="432" y="-91" font-family="Helvetica,sans-Serif" font-size="10.00">src/libs/vtools/visualization</text>
<text text-anchor="middle" x="530" y="-80" font-family="Helvetica,sans-Serif" font-size="10.00">/line/vistoolpointfromarcandtangent.cpp</text>
</a>
</g>
</g>
<!-- Node1&#45;&gt;Node5 -->
<g id="edge4" class="edge">
<title>Node1&#45;&gt;Node5</title>
<path fill="none" stroke="midnightblue" d="M351.2,-142.5C393.86,-129.73 445.93,-114.15 482.85,-103.11"/>
<polygon fill="midnightblue" stroke="midnightblue" points="349.99,-139.21 341.41,-145.43 351.99,-145.91 349.99,-139.21"/>
</g>
<!-- Node3 -->
<g id="node3" class="node">
<title>Node3</title>
<g id="a_node3"><a xlink:href="../../d5/da5/tools_8h.html" target="_top" xlink:title=" ">
<polygon fill="white" stroke="black" points="8.5,-0.5 8.5,-30.5 119.5,-30.5 119.5,-0.5 8.5,-0.5"/>
<text text-anchor="start" x="16.5" y="-18.5" font-family="Helvetica,sans-Serif" font-size="10.00">src/libs/vtools/tools</text>
<text text-anchor="middle" x="64" y="-7.5" font-family="Helvetica,sans-Serif" font-size="10.00">/tools.h</text>
</a>
</g>
</g>
<!-- Node2&#45;&gt;Node3 -->
<g id="edge2" class="edge">
<title>Node2&#45;&gt;Node3</title>
<path fill="none" stroke="midnightblue" d="M64,-62.73C64,-52.07 64,-39.91 64,-30.75"/>
<polygon fill="midnightblue" stroke="midnightblue" points="60.5,-62.73 64,-72.73 67.5,-62.73 60.5,-62.73"/>
</g>
</g>
</svg>
