<?xml version="1.0" encoding="UTF-8" standalone="no"?>
<svg xmlns:rdf="http://www.w3.org/1999/02/22-rdf-syntax-ns#" xmlns="http://www.w3.org/2000/svg" height="32" width="32" version="1.2" xmlns:cc="http://creativecommons.org/ns#" xmlns:dc="http://purl.org/dc/elements/1.1/" viewBox="0 0 32 32">
 <metadata>
  <rdf:RDF>
   <cc:Work rdf:about="">
    <dc:format>image/svg+xml</dc:format>
    <dc:type rdf:resource="http://purl.org/dc/dcmitype/StillImage"/>
    <dc:title>Pattern</dc:title>
   </cc:Work>
  </rdf:RDF>
 </metadata>
 <title>Pattern</title>
 <g transform="matrix(.317 0 0 .317 0.15 .14990)">
  <path stroke-linejoin="bevel" d="m89.71 10.29-79.392 79.392" stroke-dashoffset="3.4742" stroke="#f00" stroke-linecap="square" stroke-dasharray="10.85678101, 10.85678101" stroke-width="5.4284" fill="none"/>
  <path stroke-linejoin="round" style="image-rendering:auto" d="m6.5866 93.413 2.1351-6.034 3.3423-11.333 2.228-10.684 1.114-10.294v-10.164l-1.114-10.293-2.228-10.684-3.3423-11.333-2.1351-6.0348 6.0344 2.1352 11.333 3.3419 10.684 2.2279 10.294 1.114h10.164l10.294-1.114 10.683-2.228 11.333-3.3416 6.035-2.1352-2.135 6.0348-3.342 11.333-2.228 10.684-1.114 10.293v10.164l1.1146 10.294 2.2274 10.684 3.3421 11.333 2.1352 6.0346-6.0346-2.1351-11.334-3.343-10.683-2.228-10.294-1.113h-10.164l-10.294 1.113-10.684 2.228-11.333 3.342-6.0344 2.135" stroke="#000" stroke-linecap="round" stroke-width="4.0713" fill="none"/>
  <g stroke-linejoin="round" stroke-opacity=".93950" stroke="#370000" stroke-miterlimit="4.9" stroke-width="4.5061">
   <path d="m12.223 92.766a4.9848 4.9849 0 0 1 -9.9696 0 4.9848 4.9849 0 1 1 9.9696 0z"/>
   <path d="m12.223 7.2421a4.9848 4.9849 0 0 1 -9.9696 0 4.9848 4.9849 0 1 1 9.9696 0z"/>
   <path d="m97.747 92.762a4.9848 4.9849 0 0 1 -9.9696 0 4.9848 4.9849 0 1 1 9.9696 0z"/>
   <path d="m97.747 7.2426a4.9848 4.9849 0 0 1 -9.9696 0 4.9848 4.9849 0 1 1 9.9696 0z"/>
  </g>
 </g>
</svg>
