<?xml version="1.0" encoding="UTF-8" standalone="no"?>
<!DOCTYPE svg PUBLIC "-//W3C//DTD SVG 1.1//EN"
 "http://www.w3.org/Graphics/SVG/1.1/DTD/svg11.dtd">
<!-- Generated by graphviz version 2.43.0 (0)
 -->
<!-- Title: src/libs/vwidgets/vmaingraphicsscene.h Pages: 1 -->
<svg width="1230pt" height="162pt"
 viewBox="0.00 0.00 1229.50 162.00" xmlns="http://www.w3.org/2000/svg" xmlns:xlink="http://www.w3.org/1999/xlink">
<g id="graph0" class="graph" transform="scale(1 1) rotate(0) translate(4 158)">
<title>src/libs/vwidgets/vmaingraphicsscene.h</title>
<polygon fill="white" stroke="transparent" points="-4,4 -4,-158 1225.5,-158 1225.5,4 -4,4"/>
<!-- Node1 -->
<g id="node1" class="node">
<title>Node1</title>
<g id="a_node1"><a xlink:title=" ">
<polygon fill="#bfbfbf" stroke="black" points="396,-134.5 396,-153.5 607,-153.5 607,-134.5 396,-134.5"/>
<text text-anchor="middle" x="501.5" y="-141.5" font-family="Helvetica,sans-Serif" font-size="10.00">src/libs/vwidgets/vmaingraphicsscene.h</text>
</a>
</g>
</g>
<!-- Node2 -->
<g id="node2" class="node">
<title>Node2</title>
<g id="a_node2"><a xlink:href="../../df/d1e/image__item_8cpp.html" target="_top" xlink:title=" ">
<polygon fill="white" stroke="black" points="0,-67.5 0,-97.5 117,-97.5 117,-67.5 0,-67.5"/>
<text text-anchor="start" x="8" y="-85.5" font-family="Helvetica,sans-Serif" font-size="10.00">src/libs/tools/images</text>
<text text-anchor="middle" x="58.5" y="-74.5" font-family="Helvetica,sans-Serif" font-size="10.00">/image_item.cpp</text>
</a>
</g>
</g>
<!-- Node1&#45;&gt;Node2 -->
<g id="edge1" class="edge">
<title>Node1&#45;&gt;Node2</title>
<path fill="none" stroke="midnightblue" d="M401,-133.44C325.28,-125.63 219.05,-113.39 126.5,-98 123.4,-97.49 120.24,-96.93 117.04,-96.34"/>
<polygon fill="midnightblue" stroke="midnightblue" points="400.7,-136.93 411.01,-134.46 401.41,-129.96 400.7,-136.93"/>
</g>
<!-- Node3 -->
<g id="node3" class="node">
<title>Node3</title>
<g id="a_node3"><a xlink:href="../../d0/dbf/image__tool_8h.html" target="_top" xlink:title=" ">
<polygon fill="white" stroke="black" points="135,-67.5 135,-97.5 252,-97.5 252,-67.5 135,-67.5"/>
<text text-anchor="start" x="143" y="-85.5" font-family="Helvetica,sans-Serif" font-size="10.00">src/libs/tools/images</text>
<text text-anchor="middle" x="193.5" y="-74.5" font-family="Helvetica,sans-Serif" font-size="10.00">/image_tool.h</text>
</a>
</g>
</g>
<!-- Node1&#45;&gt;Node3 -->
<g id="edge2" class="edge">
<title>Node1&#45;&gt;Node3</title>
<path fill="none" stroke="midnightblue" d="M444.05,-132.64C395.38,-123.77 323.78,-110.48 261.5,-98 258.42,-97.38 255.27,-96.74 252.09,-96.09"/>
<polygon fill="midnightblue" stroke="midnightblue" points="443.61,-136.12 454.07,-134.47 444.86,-129.23 443.61,-136.12"/>
</g>
<!-- Node5 -->
<g id="node5" class="node">
<title>Node5</title>
<g id="a_node5"><a xlink:href="../../de/d45/vcontrolpointspline_8cpp.html" target="_top" xlink:title=" ">
<polygon fill="white" stroke="black" points="270,-73 270,-92 485,-92 485,-73 270,-73"/>
<text text-anchor="middle" x="377.5" y="-80" font-family="Helvetica,sans-Serif" font-size="10.00">src/libs/vwidgets/vcontrolpointspline.cpp</text>
</a>
</g>
</g>
<!-- Node1&#45;&gt;Node5 -->
<g id="edge4" class="edge">
<title>Node1&#45;&gt;Node5</title>
<path fill="none" stroke="midnightblue" d="M474.45,-130.02C450.4,-118.48 415.94,-101.94 395.23,-92.01"/>
<polygon fill="midnightblue" stroke="midnightblue" points="473.2,-133.3 483.73,-134.48 476.23,-126.99 473.2,-133.3"/>
</g>
<!-- Node6 -->
<g id="node6" class="node">
<title>Node6</title>
<g id="a_node6"><a xlink:href="../../de/dec/vgraphicssimpletextitem_8cpp.html" target="_top" xlink:title=" ">
<polygon fill="white" stroke="black" points="503.5,-73 503.5,-92 747.5,-92 747.5,-73 503.5,-73"/>
<text text-anchor="middle" x="625.5" y="-80" font-family="Helvetica,sans-Serif" font-size="10.00">src/libs/vwidgets/vgraphicssimpletextitem.cpp</text>
</a>
</g>
</g>
<!-- Node1&#45;&gt;Node6 -->
<g id="edge5" class="edge">
<title>Node1&#45;&gt;Node6</title>
<path fill="none" stroke="midnightblue" d="M528.55,-130.02C552.6,-118.48 587.06,-101.94 607.77,-92.01"/>
<polygon fill="midnightblue" stroke="midnightblue" points="526.77,-126.99 519.27,-134.48 529.8,-133.3 526.77,-126.99"/>
</g>
<!-- Node7 -->
<g id="node7" class="node">
<title>Node7</title>
<g id="a_node7"><a xlink:href="../../d1/d88/vmaingraphicsscene_8cpp.html" target="_top" xlink:title=" ">
<polygon fill="white" stroke="black" points="765.5,-73 765.5,-92 987.5,-92 987.5,-73 765.5,-73"/>
<text text-anchor="middle" x="876.5" y="-80" font-family="Helvetica,sans-Serif" font-size="10.00">src/libs/vwidgets/vmaingraphicsscene.cpp</text>
</a>
</g>
</g>
<!-- Node1&#45;&gt;Node7 -->
<g id="edge6" class="edge">
<title>Node1&#45;&gt;Node7</title>
<path fill="none" stroke="midnightblue" d="M565.15,-132.9C637.65,-121.4 754.83,-102.8 822.87,-92.01"/>
<polygon fill="midnightblue" stroke="midnightblue" points="564.56,-129.45 555.23,-134.48 565.65,-136.36 564.56,-129.45"/>
</g>
<!-- Node8 -->
<g id="node8" class="node">
<title>Node8</title>
<g id="a_node8"><a xlink:href="../../d2/d31/vmaingraphicsview_8cpp.html" target="_top" xlink:title=" ">
<polygon fill="white" stroke="black" points="1005.5,-73 1005.5,-92 1221.5,-92 1221.5,-73 1005.5,-73"/>
<text text-anchor="middle" x="1113.5" y="-80" font-family="Helvetica,sans-Serif" font-size="10.00">src/libs/vwidgets/vmaingraphicsview.cpp</text>
</a>
</g>
</g>
<!-- Node1&#45;&gt;Node8 -->
<g id="edge7" class="edge">
<title>Node1&#45;&gt;Node8</title>
<path fill="none" stroke="midnightblue" d="M616.54,-133.61C716.93,-125.16 866.48,-111.96 996.5,-98 1013.19,-96.21 1031.19,-94.08 1047.95,-92.01"/>
<polygon fill="midnightblue" stroke="midnightblue" points="616.04,-130.14 606.37,-134.47 616.63,-137.12 616.04,-130.14"/>
</g>
<!-- Node4 -->
<g id="node4" class="node">
<title>Node4</title>
<g id="a_node4"><a xlink:href="../../d9/da3/image__tool_8cpp.html" target="_top" xlink:title=" ">
<polygon fill="white" stroke="black" points="135,-0.5 135,-30.5 252,-30.5 252,-0.5 135,-0.5"/>
<text text-anchor="start" x="143" y="-18.5" font-family="Helvetica,sans-Serif" font-size="10.00">src/libs/tools/images</text>
<text text-anchor="middle" x="193.5" y="-7.5" font-family="Helvetica,sans-Serif" font-size="10.00">/image_tool.cpp</text>
</a>
</g>
</g>
<!-- Node3&#45;&gt;Node4 -->
<g id="edge3" class="edge">
<title>Node3&#45;&gt;Node4</title>
<path fill="none" stroke="midnightblue" d="M193.5,-57.11C193.5,-48.15 193.5,-38.32 193.5,-30.58"/>
<polygon fill="midnightblue" stroke="midnightblue" points="190,-57.4 193.5,-67.4 197,-57.4 190,-57.4"/>
</g>
</g>
</svg>
