<?xml version="1.0" encoding="UTF-8" standalone="no"?>
<!DOCTYPE svg PUBLIC "-//W3C//DTD SVG 1.1//EN"
 "http://www.w3.org/Graphics/SVG/1.1/DTD/svg11.dtd">
<!-- Generated by graphviz version 2.43.0 (0)
 -->
<!-- Title: VisOperation Pages: 1 -->
<!--zoomable 1350 -->
<svg id="main" version="1.1" xmlns="http://www.w3.org/2000/svg" xmlns:xlink="http://www.w3.org/1999/xlink" xml:space="preserve" onload="init(evt)">
<style type="text/css"><![CDATA[
.edge:hover path { stroke: red; }
.edge:hover polygon { stroke: red; fill: red; }
]]></style>
<script type="text/javascript"><![CDATA[
var edges = document.getElementsByTagName('g');
if (edges && edges.length) {
  for (var i=0;i<edges.length;i++) {
    if (edges[i].id.substr(0,4)=='edge') {
      edges[i].setAttribute('class','edge');
    }
  }
}
]]></script>
        <defs>
                <circle id="rim" cx="0" cy="0" r="7"/>
                <circle id="rim2" cx="0" cy="0" r="3.5"/>
                <g id="zoomPlus">
                        <use xlink:href="#rim" fill="#404040">
                                <set attributeName="fill" to="#808080" begin="zoomplus.mouseover" end="zoomplus.mouseout"/>
                        </use>
                        <path d="M-4,0h8M0,-4v8" fill="none" stroke="white" stroke-width="1.5" pointer-events="none"/>
                </g>
                <g id="zoomMin">
                        <use xlink:href="#rim" fill="#404040">
                                <set attributeName="fill" to="#808080" begin="zoomminus.mouseover" end="zoomminus.mouseout"/>
                        </use>
                        <path d="M-4,0h8" fill="none" stroke="white" stroke-width="1.5" pointer-events="none"/>
                </g>
                <g id="dirArrow">
                        <path fill="none" stroke="white" stroke-width="1.5" d="M0,-3.0v7 M-2.5,-0.5L0,-3.0L2.5,-0.5"/>
                </g>
               <g id="resetDef">
                       <use xlink:href="#rim2" fill="#404040">
                               <set attributeName="fill" to="#808080" begin="reset.mouseover" end="reset.mouseout"/>
                       </use>
               </g>
        </defs>

<script type="text/javascript">
var viewWidth = 783;
var viewHeight = 1350;
var sectionId = 'dynsection-1';
</script>
<script xlink:href="../../svgpan.js"/>
<svg id="graph" class="graph">
<g id="viewport">
<title>VisOperation</title>
<polygon fill="white" stroke="transparent" points="-4,4 -4,-1346 779,-1346 779,4 -4,4"/>
<!-- Node1 -->
<g id="node1" class="node">
<title>Node1</title>
<g id="a_node1"><a xlink:title=" ">
<polygon fill="#bfbfbf" stroke="black" points="385,-0.5 385,-156.5 533,-156.5 533,-0.5 385,-0.5"/>
<text text-anchor="middle" x="459" y="-144.5" font-family="Helvetica,sans-Serif" font-size="10.00">VisOperation</text>
<polyline fill="none" stroke="black" points="385,-137.5 533,-137.5 "/>
<text text-anchor="start" x="393" y="-125.5" font-family="Helvetica,sans-Serif" font-size="10.00"># supportColor2</text>
<text text-anchor="start" x="393" y="-114.5" font-family="Helvetica,sans-Serif" font-size="10.00"># supportColor3</text>
<polyline fill="none" stroke="black" points="385,-107.5 533,-107.5 "/>
<text text-anchor="start" x="393" y="-95.5" font-family="Helvetica,sans-Serif" font-size="10.00">+ VisOperation()</text>
<text text-anchor="start" x="393" y="-84.5" font-family="Helvetica,sans-Serif" font-size="10.00">+ ~VisOperation()</text>
<text text-anchor="start" x="393" y="-73.5" font-family="Helvetica,sans-Serif" font-size="10.00">+ setObjects()</text>
<text text-anchor="start" x="393" y="-62.5" font-family="Helvetica,sans-Serif" font-size="10.00">+ VisualMode()</text>
<text text-anchor="start" x="393" y="-51.5" font-family="Helvetica,sans-Serif" font-size="10.00">+ type()</text>
<text text-anchor="start" x="393" y="-40.5" font-family="Helvetica,sans-Serif" font-size="10.00"># GetPoint()</text>
<text text-anchor="start" x="393" y="-29.5" font-family="Helvetica,sans-Serif" font-size="10.00"># GetCurve()</text>
<text text-anchor="start" x="393" y="-18.5" font-family="Helvetica,sans-Serif" font-size="10.00"># addFlippedCurve()</text>
<text text-anchor="start" x="393" y="-7.5" font-family="Helvetica,sans-Serif" font-size="10.00"># refreshMirroredObjects()</text>
</a>
</g>
</g>
<!-- Node2 -->
<g id="node2" class="node">
<title>Node2</title>
<g id="a_node2"><a xlink:href="../../de/d0e/classVisLine.html" target="_top" xlink:title=" ">
<polygon fill="white" stroke="black" points="187,-204.5 187,-371.5 285,-371.5 285,-204.5 187,-204.5"/>
<text text-anchor="middle" x="236" y="-359.5" font-family="Helvetica,sans-Serif" font-size="10.00">VisLine</text>
<polyline fill="none" stroke="black" points="187,-352.5 285,-352.5 "/>
<text text-anchor="middle" x="236" y="-340.5" font-family="Helvetica,sans-Serif" font-size="10.00"> </text>
<polyline fill="none" stroke="black" points="187,-333.5 285,-333.5 "/>
<text text-anchor="start" x="195" y="-321.5" font-family="Helvetica,sans-Serif" font-size="10.00">+ VisLine()</text>
<text text-anchor="start" x="195" y="-310.5" font-family="Helvetica,sans-Serif" font-size="10.00">+ ~VisLine()</text>
<text text-anchor="start" x="195" y="-299.5" font-family="Helvetica,sans-Serif" font-size="10.00">+ type()</text>
<text text-anchor="start" x="195" y="-288.5" font-family="Helvetica,sans-Serif" font-size="10.00">+ CorrectAngle()</text>
<text text-anchor="start" x="195" y="-277.5" font-family="Helvetica,sans-Serif" font-size="10.00"># Ray()</text>
<text text-anchor="start" x="195" y="-266.5" font-family="Helvetica,sans-Serif" font-size="10.00"># Ray()</text>
<text text-anchor="start" x="195" y="-255.5" font-family="Helvetica,sans-Serif" font-size="10.00"># Axis()</text>
<text text-anchor="start" x="195" y="-244.5" font-family="Helvetica,sans-Serif" font-size="10.00"># Axis()</text>
<text text-anchor="start" x="195" y="-233.5" font-family="Helvetica,sans-Serif" font-size="10.00"># initPen()</text>
<text text-anchor="start" x="195" y="-222.5" font-family="Helvetica,sans-Serif" font-size="10.00"># AddOnScene()</text>
<text text-anchor="start" x="195" y="-211.5" font-family="Helvetica,sans-Serif" font-size="10.00"># DrawRay()</text>
</a>
</g>
</g>
<!-- Node2&#45;&gt;Node1 -->
<g id="edge1" class="edge">
<title>Node2&#45;&gt;Node1</title>
<path fill="none" stroke="midnightblue" d="M292.08,-206.02C292.72,-205.34 293.36,-204.66 294,-204 321.02,-175.97 354.78,-149.34 384.71,-127.95"/>
<polygon fill="none" stroke="midnightblue" points="289.41,-203.75 285.35,-213.54 294.63,-208.42 289.41,-203.75"/>
</g>
<!-- Node3 -->
<g id="node3" class="node">
<title>Node3</title>
<g id="a_node3"><a xlink:href="../../d7/d24/classVisualization.html" target="_top" xlink:title=" ">
<polygon fill="white" stroke="black" points="97,-409.5 97,-862.5 219,-862.5 219,-409.5 97,-409.5"/>
<text text-anchor="middle" x="158" y="-850.5" font-family="Helvetica,sans-Serif" font-size="10.00">Visualization</text>
<polyline fill="none" stroke="black" points="97,-843.5 219,-843.5 "/>
<text text-anchor="start" x="105" y="-831.5" font-family="Helvetica,sans-Serif" font-size="10.00"># scenePos</text>
<text text-anchor="start" x="105" y="-820.5" font-family="Helvetica,sans-Serif" font-size="10.00"># mainColor</text>
<text text-anchor="start" x="105" y="-809.5" font-family="Helvetica,sans-Serif" font-size="10.00"># supportColor</text>
<text text-anchor="start" x="105" y="-798.5" font-family="Helvetica,sans-Serif" font-size="10.00"># lineStyle</text>
<text text-anchor="start" x="105" y="-787.5" font-family="Helvetica,sans-Serif" font-size="10.00"># lineWeight</text>
<text text-anchor="start" x="105" y="-776.5" font-family="Helvetica,sans-Serif" font-size="10.00"># object1Id</text>
<text text-anchor="start" x="105" y="-765.5" font-family="Helvetica,sans-Serif" font-size="10.00"># toolTip</text>
<text text-anchor="start" x="105" y="-754.5" font-family="Helvetica,sans-Serif" font-size="10.00"># mode</text>
<polyline fill="none" stroke="black" points="97,-747.5 219,-747.5 "/>
<text text-anchor="start" x="105" y="-735.5" font-family="Helvetica,sans-Serif" font-size="10.00">+ Visualization()</text>
<text text-anchor="start" x="105" y="-724.5" font-family="Helvetica,sans-Serif" font-size="10.00">+ ~Visualization()</text>
<text text-anchor="start" x="105" y="-713.5" font-family="Helvetica,sans-Serif" font-size="10.00">+ RefreshGeometry()</text>
<text text-anchor="start" x="105" y="-702.5" font-family="Helvetica,sans-Serif" font-size="10.00">+ setObject1Id()</text>
<text text-anchor="start" x="105" y="-691.5" font-family="Helvetica,sans-Serif" font-size="10.00">+ setLineStyle()</text>
<text text-anchor="start" x="105" y="-680.5" font-family="Helvetica,sans-Serif" font-size="10.00">+ setLineWeight()</text>
<text text-anchor="start" x="105" y="-669.5" font-family="Helvetica,sans-Serif" font-size="10.00">+ setScenePos()</text>
<text text-anchor="start" x="105" y="-658.5" font-family="Helvetica,sans-Serif" font-size="10.00">+ VisualMode()</text>
<text text-anchor="start" x="105" y="-647.5" font-family="Helvetica,sans-Serif" font-size="10.00">+ setMainColor()</text>
<text text-anchor="start" x="105" y="-636.5" font-family="Helvetica,sans-Serif" font-size="10.00">+ getData()</text>
<text text-anchor="start" x="105" y="-625.5" font-family="Helvetica,sans-Serif" font-size="10.00">+ setData()</text>
<text text-anchor="start" x="105" y="-614.5" font-family="Helvetica,sans-Serif" font-size="10.00">+ GetMode()</text>
<text text-anchor="start" x="105" y="-603.5" font-family="Helvetica,sans-Serif" font-size="10.00">+ SetMode()</text>
<text text-anchor="start" x="105" y="-592.5" font-family="Helvetica,sans-Serif" font-size="10.00">+ CurrentToolTip()</text>
<text text-anchor="start" x="105" y="-581.5" font-family="Helvetica,sans-Serif" font-size="10.00">+ FindLength()</text>
<text text-anchor="start" x="105" y="-570.5" font-family="Helvetica,sans-Serif" font-size="10.00">+ FindVal()</text>
<text text-anchor="start" x="105" y="-559.5" font-family="Helvetica,sans-Serif" font-size="10.00">+ mousePos()</text>
<text text-anchor="start" x="105" y="-548.5" font-family="Helvetica,sans-Serif" font-size="10.00"># initPen()</text>
<text text-anchor="start" x="105" y="-537.5" font-family="Helvetica,sans-Serif" font-size="10.00"># AddOnScene()</text>
<text text-anchor="start" x="105" y="-526.5" font-family="Helvetica,sans-Serif" font-size="10.00"># InitPoint()</text>
<text text-anchor="start" x="105" y="-515.5" font-family="Helvetica,sans-Serif" font-size="10.00"># DrawPoint()</text>
<text text-anchor="start" x="105" y="-504.5" font-family="Helvetica,sans-Serif" font-size="10.00"># DrawLine()</text>
<text text-anchor="start" x="105" y="-493.5" font-family="Helvetica,sans-Serif" font-size="10.00"># DrawPath()</text>
<text text-anchor="start" x="105" y="-482.5" font-family="Helvetica,sans-Serif" font-size="10.00"># DrawPath()</text>
<text text-anchor="start" x="105" y="-471.5" font-family="Helvetica,sans-Serif" font-size="10.00"># drawArrowedLine()</text>
<text text-anchor="start" x="105" y="-460.5" font-family="Helvetica,sans-Serif" font-size="10.00"># drawArrow()</text>
<text text-anchor="start" x="105" y="-449.5" font-family="Helvetica,sans-Serif" font-size="10.00"># addItem()</text>
<text text-anchor="start" x="105" y="-438.5" font-family="Helvetica,sans-Serif" font-size="10.00"># InitItem()</text>
<text text-anchor="start" x="105" y="-427.5" font-family="Helvetica,sans-Serif" font-size="10.00"># GetPointItem()</text>
<text text-anchor="start" x="105" y="-416.5" font-family="Helvetica,sans-Serif" font-size="10.00">&#45; initPointItem()</text>
</a>
</g>
</g>
<!-- Node3&#45;&gt;Node2 -->
<g id="edge2" class="edge">
<title>Node3&#45;&gt;Node2</title>
<path fill="none" stroke="midnightblue" d="M211.18,-399.12C213.3,-389.69 215.36,-380.55 217.33,-371.84"/>
<polygon fill="none" stroke="midnightblue" points="207.72,-398.52 208.94,-409.04 214.55,-400.06 207.72,-398.52"/>
</g>
<!-- Node4 -->
<g id="node4" class="node">
<title>Node4</title>
<g id="a_node4"><a xlink:title=" ">
<polygon fill="white" stroke="#bfbfbf" points="0,-1097.5 0,-1154.5 56,-1154.5 56,-1097.5 0,-1097.5"/>
<text text-anchor="middle" x="28" y="-1142.5" font-family="Helvetica,sans-Serif" font-size="10.00">QObject</text>
<polyline fill="none" stroke="#bfbfbf" points="0,-1135.5 56,-1135.5 "/>
<text text-anchor="middle" x="28" y="-1123.5" font-family="Helvetica,sans-Serif" font-size="10.00"> </text>
<polyline fill="none" stroke="#bfbfbf" points="0,-1116.5 56,-1116.5 "/>
<text text-anchor="middle" x="28" y="-1104.5" font-family="Helvetica,sans-Serif" font-size="10.00"> </text>
</a>
</g>
</g>
<!-- Node4&#45;&gt;Node3 -->
<g id="edge3" class="edge">
<title>Node4&#45;&gt;Node3</title>
<path fill="none" stroke="midnightblue" d="M32.67,-1087.14C38.43,-1043.9 49.41,-971.2 65,-910 73.96,-874.82 85.3,-837.67 96.96,-802.49"/>
<polygon fill="none" stroke="midnightblue" points="29.18,-1086.85 31.35,-1097.22 36.12,-1087.75 29.18,-1086.85"/>
</g>
<!-- Node5 -->
<g id="node5" class="node">
<title>Node5</title>
<g id="a_node5"><a xlink:href="../../d2/d83/classVContainer.html" target="_top" xlink:title="Manages a collection of geometric objects, pieces, paths, and variables.">
<polygon fill="white" stroke="black" points="74,-910.5 74,-1341.5 242,-1341.5 242,-910.5 74,-910.5"/>
<text text-anchor="middle" x="158" y="-1329.5" font-family="Helvetica,sans-Serif" font-size="10.00">VContainer</text>
<polyline fill="none" stroke="black" points="74,-1322.5 242,-1322.5 "/>
<text text-anchor="start" x="82" y="-1310.5" font-family="Helvetica,sans-Serif" font-size="10.00">&#45; d</text>
<text text-anchor="start" x="82" y="-1299.5" font-family="Helvetica,sans-Serif" font-size="10.00">&#45; _id</text>
<text text-anchor="start" x="82" y="-1288.5" font-family="Helvetica,sans-Serif" font-size="10.00">&#45; _size</text>
<text text-anchor="start" x="82" y="-1277.5" font-family="Helvetica,sans-Serif" font-size="10.00">&#45; _height</text>
<text text-anchor="start" x="82" y="-1266.5" font-family="Helvetica,sans-Serif" font-size="10.00">&#45; uniqueNames</text>
<polyline fill="none" stroke="black" points="74,-1259.5 242,-1259.5 "/>
<text text-anchor="start" x="82" y="-1247.5" font-family="Helvetica,sans-Serif" font-size="10.00">+ VContainer()</text>
<text text-anchor="start" x="82" y="-1236.5" font-family="Helvetica,sans-Serif" font-size="10.00">+ VContainer()</text>
<text text-anchor="start" x="82" y="-1225.5" font-family="Helvetica,sans-Serif" font-size="10.00">+ ~VContainer()</text>
<text text-anchor="start" x="82" y="-1214.5" font-family="Helvetica,sans-Serif" font-size="10.00">+ operator=()</text>
<text text-anchor="start" x="82" y="-1203.5" font-family="Helvetica,sans-Serif" font-size="10.00">+ Swap()</text>
<text text-anchor="start" x="82" y="-1192.5" font-family="Helvetica,sans-Serif" font-size="10.00">+ GeometricObject()</text>
<text text-anchor="start" x="82" y="-1181.5" font-family="Helvetica,sans-Serif" font-size="10.00">+ GetGObject()</text>
<text text-anchor="start" x="82" y="-1170.5" font-family="Helvetica,sans-Serif" font-size="10.00">+ GetPiece()</text>
<text text-anchor="start" x="82" y="-1159.5" font-family="Helvetica,sans-Serif" font-size="10.00">+ GetPiecePath()</text>
<text text-anchor="start" x="82" y="-1148.5" font-family="Helvetica,sans-Serif" font-size="10.00">+ getVariable()</text>
<text text-anchor="start" x="82" y="-1137.5" font-family="Helvetica,sans-Serif" font-size="10.00">and 34 more...</text>
<text text-anchor="start" x="82" y="-1126.5" font-family="Helvetica,sans-Serif" font-size="10.00">+ GetFakeGObject()</text>
<text text-anchor="start" x="82" y="-1115.5" font-family="Helvetica,sans-Serif" font-size="10.00">+ getId()</text>
<text text-anchor="start" x="82" y="-1104.5" font-family="Helvetica,sans-Serif" font-size="10.00">+ getNextId()</text>
<text text-anchor="start" x="82" y="-1093.5" font-family="Helvetica,sans-Serif" font-size="10.00">+ UpdateId()</text>
<text text-anchor="start" x="82" y="-1082.5" font-family="Helvetica,sans-Serif" font-size="10.00">+ ClearUniqueNames()</text>
<text text-anchor="start" x="82" y="-1071.5" font-family="Helvetica,sans-Serif" font-size="10.00">+ clearUniqueVariableNames()</text>
<text text-anchor="start" x="82" y="-1060.5" font-family="Helvetica,sans-Serif" font-size="10.00">+ setSize()</text>
<text text-anchor="start" x="82" y="-1049.5" font-family="Helvetica,sans-Serif" font-size="10.00">+ setHeight()</text>
<text text-anchor="start" x="82" y="-1038.5" font-family="Helvetica,sans-Serif" font-size="10.00">+ size()</text>
<text text-anchor="start" x="82" y="-1027.5" font-family="Helvetica,sans-Serif" font-size="10.00">+ rsize()</text>
<text text-anchor="start" x="82" y="-1016.5" font-family="Helvetica,sans-Serif" font-size="10.00">+ height()</text>
<text text-anchor="start" x="82" y="-1005.5" font-family="Helvetica,sans-Serif" font-size="10.00">+ rheight()</text>
<text text-anchor="start" x="82" y="-994.5" font-family="Helvetica,sans-Serif" font-size="10.00">+ IsUnique()</text>
<text text-anchor="start" x="82" y="-983.5" font-family="Helvetica,sans-Serif" font-size="10.00">+ AllUniqueNames()</text>
<text text-anchor="start" x="82" y="-972.5" font-family="Helvetica,sans-Serif" font-size="10.00">&#45; AddCurve()</text>
<text text-anchor="start" x="82" y="-961.5" font-family="Helvetica,sans-Serif" font-size="10.00">&#45; qHash()</text>
<text text-anchor="start" x="82" y="-950.5" font-family="Helvetica,sans-Serif" font-size="10.00">&#45; GetObject()</text>
<text text-anchor="start" x="82" y="-939.5" font-family="Helvetica,sans-Serif" font-size="10.00">&#45; UpdateObject()</text>
<text text-anchor="start" x="82" y="-928.5" font-family="Helvetica,sans-Serif" font-size="10.00">&#45; DataVar()</text>
<text text-anchor="start" x="82" y="-917.5" font-family="Helvetica,sans-Serif" font-size="10.00">&#45; AddObject()</text>
</a>
</g>
</g>
<!-- Node5&#45;&gt;Node3 -->
<g id="edge4" class="edge">
<title>Node5&#45;&gt;Node3</title>
<path fill="none" stroke="#404040" d="M158,-910.25C158,-898.57 158,-886.81 158,-875.07"/>
<polygon fill="none" stroke="#404040" points="158,-874.84 154,-868.84 158,-862.84 162,-868.84 158,-874.84"/>
<text text-anchor="middle" x="175" y="-884" font-family="Helvetica,sans-Serif" font-size="10.00"> #data</text>
</g>
<!-- Node6 -->
<g id="node6" class="node">
<title>Node6</title>
<g id="a_node6"><a xlink:href="../../dd/da2/classVScaledLine.html" target="_top" xlink:title=" ">
<polygon fill="white" stroke="black" points="249.5,-574.5 249.5,-697.5 356.5,-697.5 356.5,-574.5 249.5,-574.5"/>
<text text-anchor="middle" x="303" y="-685.5" font-family="Helvetica,sans-Serif" font-size="10.00">VScaledLine</text>
<polyline fill="none" stroke="black" points="249.5,-678.5 356.5,-678.5 "/>
<text text-anchor="start" x="257.5" y="-666.5" font-family="Helvetica,sans-Serif" font-size="10.00">&#45; basicWidth</text>
<polyline fill="none" stroke="black" points="249.5,-659.5 356.5,-659.5 "/>
<text text-anchor="start" x="257.5" y="-647.5" font-family="Helvetica,sans-Serif" font-size="10.00">+ VScaledLine()</text>
<text text-anchor="start" x="257.5" y="-636.5" font-family="Helvetica,sans-Serif" font-size="10.00">+ VScaledLine()</text>
<text text-anchor="start" x="257.5" y="-625.5" font-family="Helvetica,sans-Serif" font-size="10.00">+ ~VScaledLine()</text>
<text text-anchor="start" x="257.5" y="-614.5" font-family="Helvetica,sans-Serif" font-size="10.00">+ type()</text>
<text text-anchor="start" x="257.5" y="-603.5" font-family="Helvetica,sans-Serif" font-size="10.00">+ paint()</text>
<text text-anchor="start" x="257.5" y="-592.5" font-family="Helvetica,sans-Serif" font-size="10.00">+ GetBasicWidth()</text>
<text text-anchor="start" x="257.5" y="-581.5" font-family="Helvetica,sans-Serif" font-size="10.00">+ setBasicWidth()</text>
</a>
</g>
</g>
<!-- Node6&#45;&gt;Node2 -->
<g id="edge5" class="edge">
<title>Node6&#45;&gt;Node2</title>
<path fill="none" stroke="midnightblue" d="M289.29,-564.18C278.48,-508.35 263.38,-430.4 252.02,-371.71"/>
<polygon fill="none" stroke="midnightblue" points="285.92,-565.18 291.25,-574.34 292.79,-563.85 285.92,-565.18"/>
</g>
<!-- Node7 -->
<g id="node7" class="node">
<title>Node7</title>
<g id="a_node7"><a xlink:title=" ">
<polygon fill="white" stroke="#bfbfbf" points="260,-1097.5 260,-1154.5 370,-1154.5 370,-1097.5 260,-1097.5"/>
<text text-anchor="middle" x="315" y="-1142.5" font-family="Helvetica,sans-Serif" font-size="10.00">QGraphicsLineItem</text>
<polyline fill="none" stroke="#bfbfbf" points="260,-1135.5 370,-1135.5 "/>
<text text-anchor="middle" x="315" y="-1123.5" font-family="Helvetica,sans-Serif" font-size="10.00"> </text>
<polyline fill="none" stroke="#bfbfbf" points="260,-1116.5 370,-1116.5 "/>
<text text-anchor="middle" x="315" y="-1104.5" font-family="Helvetica,sans-Serif" font-size="10.00"> </text>
</a>
</g>
</g>
<!-- Node7&#45;&gt;Node6 -->
<g id="edge6" class="edge">
<title>Node7&#45;&gt;Node6</title>
<path fill="none" stroke="midnightblue" d="M314.07,-1087.25C312,-1003.17 307.01,-799.9 304.49,-697.74"/>
<polygon fill="none" stroke="midnightblue" points="310.58,-1087.45 314.32,-1097.36 317.57,-1087.28 310.58,-1087.45"/>
</g>
<!-- Node8 -->
<g id="node8" class="node">
<title>Node8</title>
<g id="a_node8"><a xlink:href="../../d5/dc2/classQVector.html" target="_top" xlink:title=" ">
<polygon fill="white" stroke="black" points="303.5,-259.5 303.5,-316.5 460.5,-316.5 460.5,-259.5 303.5,-259.5"/>
<text text-anchor="middle" x="382" y="-304.5" font-family="Helvetica,sans-Serif" font-size="10.00">QVector&lt; VScaledEllipse * &gt;</text>
<polyline fill="none" stroke="black" points="303.5,-297.5 460.5,-297.5 "/>
<text text-anchor="middle" x="382" y="-285.5" font-family="Helvetica,sans-Serif" font-size="10.00"> </text>
<polyline fill="none" stroke="black" points="303.5,-278.5 460.5,-278.5 "/>
<text text-anchor="middle" x="382" y="-266.5" font-family="Helvetica,sans-Serif" font-size="10.00"> </text>
</a>
</g>
</g>
<!-- Node8&#45;&gt;Node1 -->
<g id="edge7" class="edge">
<title>Node8&#45;&gt;Node1</title>
<path fill="none" stroke="#404040" d="M392.23,-259.45C400.9,-236.07 413.84,-201.2 426.02,-168.37"/>
<polygon fill="none" stroke="#404040" points="426.12,-168.11 424.46,-161.09 430.29,-156.86 431.96,-163.88 426.12,-168.11"/>
<text text-anchor="middle" x="444" y="-178" font-family="Helvetica,sans-Serif" font-size="10.00"> #points</text>
</g>
<!-- Node9 -->
<g id="node9" class="node">
<title>Node9</title>
<g id="a_node9"><a xlink:href="../../d5/dc2/classQVector.html" target="_top" xlink:title=" ">
<polygon fill="white" stroke="black" points="479,-259.5 479,-316.5 593,-316.5 593,-259.5 479,-259.5"/>
<text text-anchor="middle" x="536" y="-304.5" font-family="Helvetica,sans-Serif" font-size="10.00">QVector&lt; quint32 &gt;</text>
<polyline fill="none" stroke="black" points="479,-297.5 593,-297.5 "/>
<text text-anchor="middle" x="536" y="-285.5" font-family="Helvetica,sans-Serif" font-size="10.00"> </text>
<polyline fill="none" stroke="black" points="479,-278.5 593,-278.5 "/>
<text text-anchor="middle" x="536" y="-266.5" font-family="Helvetica,sans-Serif" font-size="10.00"> </text>
</a>
</g>
</g>
<!-- Node9&#45;&gt;Node1 -->
<g id="edge8" class="edge">
<title>Node9&#45;&gt;Node1</title>
<path fill="none" stroke="#404040" d="M525.77,-259.45C517.1,-236.07 504.16,-201.2 491.98,-168.37"/>
<polygon fill="none" stroke="#404040" points="491.88,-168.11 486.04,-163.88 487.71,-156.86 493.54,-161.09 491.88,-168.11"/>
<text text-anchor="middle" x="521.5" y="-178" font-family="Helvetica,sans-Serif" font-size="10.00"> #objects</text>
</g>
<!-- Node10 -->
<g id="node10" class="node">
<title>Node10</title>
<g id="a_node10"><a xlink:href="../../d5/dc2/classQVector.html" target="_top" xlink:title=" ">
<polygon fill="white" stroke="black" points="611,-259.5 611,-316.5 775,-316.5 775,-259.5 611,-259.5"/>
<text text-anchor="middle" x="693" y="-304.5" font-family="Helvetica,sans-Serif" font-size="10.00">QVector&lt; VCurvePathItem * &gt;</text>
<polyline fill="none" stroke="black" points="611,-297.5 775,-297.5 "/>
<text text-anchor="middle" x="693" y="-285.5" font-family="Helvetica,sans-Serif" font-size="10.00"> </text>
<polyline fill="none" stroke="black" points="611,-278.5 775,-278.5 "/>
<text text-anchor="middle" x="693" y="-266.5" font-family="Helvetica,sans-Serif" font-size="10.00"> </text>
</a>
</g>
</g>
<!-- Node10&#45;&gt;Node1 -->
<g id="edge9" class="edge">
<title>Node10&#45;&gt;Node1</title>
<path fill="none" stroke="#404040" d="M662.83,-259.16C645.18,-242.96 622.43,-222.21 602,-204 582.8,-186.89 562,-168.63 542.37,-151.51"/>
<polygon fill="none" stroke="#404040" points="542.19,-151.35 535.03,-150.43 533.14,-143.47 540.29,-144.4 542.19,-151.35"/>
<text text-anchor="middle" x="600" y="-178" font-family="Helvetica,sans-Serif" font-size="10.00"> #curves</text>
</g>
</g>
</svg>
        <g id="navigator" transform="translate(0 0)" fill="#404254">
                <rect fill="#f2f5e9" fill-opacity="0.5" stroke="#606060" stroke-width=".5" x="0" y="0" width="60" height="60"/>
                <use id="zoomplus" xlink:href="#zoomPlus" x="17" y="9" onmousedown="handleZoom(evt,'in')"/>
                <use id="zoomminus" xlink:href="#zoomMin" x="42" y="9" onmousedown="handleZoom(evt,'out')"/>
                <use id="reset" xlink:href="#resetDef" x="30" y="36" onmousedown="handleReset()"/>
                <g id="arrowUp" xlink:href="#dirArrow" transform="translate(30 24)" onmousedown="handlePan(0,-1)">
                  <use xlink:href="#rim" fill="#404040">
                        <set attributeName="fill" to="#808080" begin="arrowUp.mouseover" end="arrowUp.mouseout"/>
                  </use>
                  <path fill="none" stroke="white" stroke-width="1.5" d="M0,-3.0v7 M-2.5,-0.5L0,-3.0L2.5,-0.5"/>
                </g>
                <g id="arrowRight" xlink:href="#dirArrow" transform="rotate(90) translate(36 -43)" onmousedown="handlePan(1,0)">
                  <use xlink:href="#rim" fill="#404040">
                        <set attributeName="fill" to="#808080" begin="arrowRight.mouseover" end="arrowRight.mouseout"/>
                  </use>
                  <path fill="none" stroke="white" stroke-width="1.5" d="M0,-3.0v7 M-2.5,-0.5L0,-3.0L2.5,-0.5"/>
                </g>
                <g id="arrowDown" xlink:href="#dirArrow" transform="rotate(180) translate(-30 -48)" onmousedown="handlePan(0,1)">
                  <use xlink:href="#rim" fill="#404040">
                        <set attributeName="fill" to="#808080" begin="arrowDown.mouseover" end="arrowDown.mouseout"/>
                  </use>
                  <path fill="none" stroke="white" stroke-width="1.5" d="M0,-3.0v7 M-2.5,-0.5L0,-3.0L2.5,-0.5"/>
                </g>
                <g id="arrowLeft" xlink:href="#dirArrow" transform="rotate(270) translate(-36 17)" onmousedown="handlePan(-1,0)">
                  <use xlink:href="#rim" fill="#404040">
                        <set attributeName="fill" to="#808080" begin="arrowLeft.mouseover" end="arrowLeft.mouseout"/>
                  </use>
                  <path fill="none" stroke="white" stroke-width="1.5" d="M0,-3.0v7 M-2.5,-0.5L0,-3.0L2.5,-0.5"/>
                </g>
        </g>
        <svg viewBox="0 0 15 15" width="100%" height="30px" preserveAspectRatio="xMaxYMin meet">
         <g id="arrow_out" transform="scale(0.3 0.3)">
          <a xlink:href="classVisOperation__coll__graph_org.svg" target="_base">
           <rect id="button" ry="5" rx="5" y="6" x="6" height="38" width="38"
                fill="#f2f5e9" fill-opacity="0.5" stroke="#606060" stroke-width="1.0"/>
           <path id="arrow"
             d="M 11.500037,31.436501 C 11.940474,20.09759 22.043105,11.32322 32.158766,21.979434 L 37.068811,17.246167 C 37.068811,17.246167 37.088388,32 37.088388,32 L 22.160133,31.978069 C 22.160133,31.978069 26.997745,27.140456 26.997745,27.140456 C 18.528582,18.264221 13.291696,25.230495 11.500037,31.436501 z"
             style="fill:#404040;"/>
          </a>
         </g>
        </svg>
</svg>
