<?xml version="1.0" encoding="UTF-8" standalone="no"?>
<!DOCTYPE svg PUBLIC "-//W3C//DTD SVG 1.1//EN"
 "http://www.w3.org/Graphics/SVG/1.1/DTD/svg11.dtd">
<!-- Generated by graphviz version 2.43.0 (0)
 -->
<!-- Title: src/libs/vtools/tools/drawTools/operation/vabstractoperation.h Pages: 1 -->
<svg width="3792pt" height="352pt"
 viewBox="0.00 0.00 3792.00 352.00" xmlns="http://www.w3.org/2000/svg" xmlns:xlink="http://www.w3.org/1999/xlink">
<g id="graph0" class="graph" transform="scale(1 1) rotate(0) translate(4 348)">
<title>src/libs/vtools/tools/drawTools/operation/vabstractoperation.h</title>
<polygon fill="white" stroke="transparent" points="-4,4 -4,-348 3788,-348 3788,4 -4,4"/>
<!-- Node1 -->
<g id="node1" class="node">
<title>Node1</title>
<g id="a_node1"><a xlink:title=" ">
<polygon fill="#bfbfbf" stroke="black" points="3143.5,-302.5 3143.5,-343.5 3264.5,-343.5 3264.5,-302.5 3143.5,-302.5"/>
<text text-anchor="start" x="3151.5" y="-331.5" font-family="Helvetica,sans-Serif" font-size="10.00">src/libs/vtools/tools</text>
<text text-anchor="start" x="3151.5" y="-320.5" font-family="Helvetica,sans-Serif" font-size="10.00">/drawTools/operation</text>
<text text-anchor="middle" x="3204" y="-309.5" font-family="Helvetica,sans-Serif" font-size="10.00">/vabstractoperation.h</text>
</a>
</g>
</g>
<!-- Node2 -->
<g id="node2" class="node">
<title>Node2</title>
<g id="a_node2"><a xlink:title=" ">
<polygon fill="white" stroke="#bfbfbf" points="46.5,-0.5 46.5,-19.5 105.5,-19.5 105.5,-0.5 46.5,-0.5"/>
<text text-anchor="middle" x="76" y="-7.5" font-family="Helvetica,sans-Serif" font-size="10.00">QtGlobal</text>
</a>
</g>
</g>
<!-- Node1&#45;&gt;Node2 -->
<g id="edge1" class="edge">
<title>Node1&#45;&gt;Node2</title>
<path fill="none" stroke="midnightblue" d="M3143.24,-321.78C2723.77,-320.15 269.77,-308.78 119,-266 59.86,-249.22 0,-256.97 0,-195.5 0,-195.5 0,-195.5 0,-132 0,-88.48 35.7,-47.77 58.16,-26.47"/>
<polygon fill="midnightblue" stroke="midnightblue" points="60.73,-28.86 65.75,-19.53 56.01,-23.7 60.73,-28.86"/>
</g>
<!-- Node3 -->
<g id="node3" class="node">
<title>Node3</title>
<g id="a_node3"><a xlink:title=" ">
<polygon fill="white" stroke="#bfbfbf" points="863,-0.5 863,-19.5 983,-19.5 983,-0.5 863,-0.5"/>
<text text-anchor="middle" x="923" y="-7.5" font-family="Helvetica,sans-Serif" font-size="10.00">qcompilerdetection.h</text>
</a>
</g>
</g>
<!-- Node1&#45;&gt;Node3 -->
<g id="edge2" class="edge">
<title>Node1&#45;&gt;Node3</title>
<path fill="none" stroke="midnightblue" d="M3143.27,-321.55C2803.65,-318.92 1136.68,-304.23 624,-266 395.81,-248.98 114,-424.32 114,-195.5 114,-195.5 114,-195.5 114,-132 114,-81.32 152.24,-75.54 199,-56 258.25,-31.24 682.65,-17.37 852.75,-12.75"/>
<polygon fill="midnightblue" stroke="midnightblue" points="852.95,-16.25 862.85,-12.48 852.76,-9.25 852.95,-16.25"/>
</g>
<!-- Node4 -->
<g id="node4" class="node">
<title>Node4</title>
<g id="a_node4"><a xlink:title=" ">
<polygon fill="white" stroke="#bfbfbf" points="1242.5,-62 1242.5,-81 1287.5,-81 1287.5,-62 1242.5,-62"/>
<text text-anchor="middle" x="1265" y="-69" font-family="Helvetica,sans-Serif" font-size="10.00">QMap</text>
</a>
</g>
</g>
<!-- Node1&#45;&gt;Node4 -->
<g id="edge3" class="edge">
<title>Node1&#45;&gt;Node4</title>
<path fill="none" stroke="midnightblue" d="M3143.22,-321.35C2788.69,-317.3 1000.83,-292.79 922,-210 909.75,-197.13 920.26,-132.51 930,-123 978.68,-75.48 1168.58,-105.65 1234,-87 1235.93,-86.45 1237.89,-85.79 1239.83,-85.07"/>
<polygon fill="midnightblue" stroke="midnightblue" points="1241.46,-88.18 1249.29,-81.03 1238.72,-81.74 1241.46,-88.18"/>
</g>
<!-- Node5 -->
<g id="node5" class="node">
<title>Node5</title>
<g id="a_node5"><a xlink:title=" ">
<polygon fill="white" stroke="#bfbfbf" points="2075,-0.5 2075,-19.5 2155,-19.5 2155,-0.5 2075,-0.5"/>
<text text-anchor="middle" x="2115" y="-7.5" font-family="Helvetica,sans-Serif" font-size="10.00">QMetaObject</text>
</a>
</g>
</g>
<!-- Node1&#45;&gt;Node5 -->
<g id="edge4" class="edge">
<title>Node1&#45;&gt;Node5</title>
<path fill="none" stroke="midnightblue" d="M3143.45,-321.09C2717.65,-314.51 190,-272.24 190,-195.5 190,-195.5 190,-195.5 190,-132 190,-97.18 181.81,-77.75 209,-56 246.3,-26.16 1766.71,-13.54 2064.65,-11.35"/>
<polygon fill="midnightblue" stroke="midnightblue" points="2064.76,-14.85 2074.73,-11.28 2064.7,-7.85 2064.76,-14.85"/>
</g>
<!-- Node6 -->
<g id="node6" class="node">
<title>Node6</title>
<g id="a_node6"><a xlink:title=" ">
<polygon fill="white" stroke="#bfbfbf" points="3138,-0.5 3138,-19.5 3194,-19.5 3194,-0.5 3138,-0.5"/>
<text text-anchor="middle" x="3166" y="-7.5" font-family="Helvetica,sans-Serif" font-size="10.00">QObject</text>
</a>
</g>
</g>
<!-- Node1&#45;&gt;Node6 -->
<g id="edge5" class="edge">
<title>Node1&#45;&gt;Node6</title>
<path fill="none" stroke="midnightblue" d="M3213.37,-302.2C3233.78,-255.97 3277.03,-138.61 3233,-56 3225.45,-41.83 3211.24,-31.33 3197.84,-24.06"/>
<polygon fill="midnightblue" stroke="midnightblue" points="3199.3,-20.87 3188.79,-19.53 3196.17,-27.13 3199.3,-20.87"/>
</g>
<!-- Node7 -->
<g id="node7" class="node">
<title>Node7</title>
<g id="a_node7"><a xlink:title=" ">
<polygon fill="white" stroke="#bfbfbf" points="2495.5,-0.5 2495.5,-19.5 2548.5,-19.5 2548.5,-0.5 2495.5,-0.5"/>
<text text-anchor="middle" x="2522" y="-7.5" font-family="Helvetica,sans-Serif" font-size="10.00">QString</text>
</a>
</g>
</g>
<!-- Node1&#45;&gt;Node7 -->
<g id="edge6" class="edge">
<title>Node1&#45;&gt;Node7</title>
<path fill="none" stroke="midnightblue" d="M3204,-302.28C3204,-277.39 3204,-233.27 3204,-195.5 3204,-195.5 3204,-195.5 3204,-132 3204,-54.88 3122.34,-76.52 3048,-56 2955.52,-30.47 2662.56,-16.6 2558.83,-12.4"/>
<polygon fill="midnightblue" stroke="midnightblue" points="2558.68,-8.89 2548.55,-11.99 2558.4,-15.88 2558.68,-8.89"/>
</g>
<!-- Node8 -->
<g id="node8" class="node">
<title>Node8</title>
<g id="a_node8"><a xlink:title=" ">
<polygon fill="white" stroke="#bfbfbf" points="3270.5,-246.5 3270.5,-265.5 3325.5,-265.5 3325.5,-246.5 3270.5,-246.5"/>
<text text-anchor="middle" x="3298" y="-253.5" font-family="Helvetica,sans-Serif" font-size="10.00">QVector</text>
</a>
</g>
</g>
<!-- Node1&#45;&gt;Node8 -->
<g id="edge7" class="edge">
<title>Node1&#45;&gt;Node8</title>
<path fill="none" stroke="midnightblue" d="M3232.2,-302.5C3246.62,-292.53 3263.85,-280.61 3277.06,-271.48"/>
<polygon fill="midnightblue" stroke="midnightblue" points="3279.25,-274.22 3285.49,-265.65 3275.27,-268.46 3279.25,-274.22"/>
</g>
<!-- Node9 -->
<g id="node9" class="node">
<title>Node9</title>
<g id="a_node9"><a xlink:title=" ">
<polygon fill="white" stroke="#bfbfbf" points="3344,-246.5 3344,-265.5 3454,-265.5 3454,-246.5 3344,-246.5"/>
<text text-anchor="middle" x="3399" y="-253.5" font-family="Helvetica,sans-Serif" font-size="10.00">QGraphicsLineItem</text>
</a>
</g>
</g>
<!-- Node1&#45;&gt;Node9 -->
<g id="edge8" class="edge">
<title>Node1&#45;&gt;Node9</title>
<path fill="none" stroke="midnightblue" d="M3262.51,-302.5C3295.38,-291.54 3335.33,-278.22 3363.49,-268.84"/>
<polygon fill="midnightblue" stroke="midnightblue" points="3364.92,-272.05 3373.3,-265.57 3362.71,-265.41 3364.92,-272.05"/>
</g>
<!-- Node10 -->
<g id="node10" class="node">
<title>Node10</title>
<g id="a_node10"><a xlink:href="../../d2/dba/vdrawtool_8h.html" target="_top" xlink:title=" ">
<polygon fill="white" stroke="black" points="2189.5,-246.5 2189.5,-265.5 2272.5,-265.5 2272.5,-246.5 2189.5,-246.5"/>
<text text-anchor="middle" x="2231" y="-253.5" font-family="Helvetica,sans-Serif" font-size="10.00">../vdrawtool.h</text>
</a>
</g>
</g>
<!-- Node1&#45;&gt;Node10 -->
<g id="edge9" class="edge">
<title>Node1&#45;&gt;Node10</title>
<path fill="none" stroke="midnightblue" d="M3143.13,-317.93C2965.33,-306.06 2448.85,-271.55 2282.95,-260.47"/>
<polygon fill="midnightblue" stroke="midnightblue" points="2282.75,-256.95 2272.54,-259.78 2282.29,-263.93 2282.75,-256.95"/>
</g>
<!-- Node56 -->
<g id="node49" class="node">
<title>Node56</title>
<g id="a_node49"><a xlink:title=" ">
<polygon fill="white" stroke="#bfbfbf" points="3472,-246.5 3472,-265.5 3620,-265.5 3620,-246.5 3472,-246.5"/>
<text text-anchor="middle" x="3546" y="-253.5" font-family="Helvetica,sans-Serif" font-size="10.00">../vwidgets/vsimplecurve.h</text>
</a>
</g>
</g>
<!-- Node1&#45;&gt;Node56 -->
<g id="edge81" class="edge">
<title>Node1&#45;&gt;Node56</title>
<path fill="none" stroke="midnightblue" d="M3264.75,-310.45C3328.93,-298.26 3429.24,-279.19 3491.12,-267.43"/>
<polygon fill="midnightblue" stroke="midnightblue" points="3491.91,-270.84 3501.08,-265.54 3490.6,-263.97 3491.91,-270.84"/>
</g>
<!-- Node57 -->
<g id="node50" class="node">
<title>Node57</title>
<g id="a_node50"><a xlink:title=" ">
<polygon fill="white" stroke="#bfbfbf" points="3638,-246.5 3638,-265.5 3784,-265.5 3784,-246.5 3638,-246.5"/>
<text text-anchor="middle" x="3711" y="-253.5" font-family="Helvetica,sans-Serif" font-size="10.00">../vwidgets/vsimplepoint.h</text>
</a>
</g>
</g>
<!-- Node1&#45;&gt;Node57 -->
<g id="edge82" class="edge">
<title>Node1&#45;&gt;Node57</title>
<path fill="none" stroke="midnightblue" d="M3264.65,-314.22C3357.15,-302.37 3533.36,-279.77 3634.51,-266.81"/>
<polygon fill="midnightblue" stroke="midnightblue" points="3635.18,-270.25 3644.66,-265.51 3634.29,-263.31 3635.18,-270.25"/>
</g>
<!-- Node10&#45;&gt;Node2 -->
<g id="edge80" class="edge">
<title>Node10&#45;&gt;Node2</title>
<path fill="none" stroke="midnightblue" d="M2189.39,-255.09C1962.87,-255.38 876.33,-254.4 544,-210 358.38,-185.2 291.45,-198.51 141,-87 118.64,-70.43 98.79,-44.81 87.08,-27.97"/>
<polygon fill="midnightblue" stroke="midnightblue" points="89.95,-25.96 81.45,-19.63 84.15,-29.88 89.95,-25.96"/>
</g>
<!-- Node10&#45;&gt;Node3 -->
<g id="edge68" class="edge">
<title>Node10&#45;&gt;Node3</title>
<path fill="none" stroke="midnightblue" d="M2189.07,-254.98C1911.11,-254.39 341.32,-244.11 209,-87 200.12,-76.46 199.57,-66.04 209,-56 230.82,-32.77 676.77,-17.86 852.61,-12.86"/>
<polygon fill="midnightblue" stroke="midnightblue" points="852.89,-16.36 862.79,-12.58 852.69,-9.36 852.89,-16.36"/>
</g>
<!-- Node10&#45;&gt;Node5 -->
<g id="edge77" class="edge">
<title>Node10&#45;&gt;Node5</title>
<path fill="none" stroke="midnightblue" d="M2189.23,-254.82C1997.63,-253.77 1210.67,-247.22 1175,-210 1165.47,-200.05 1165.46,-188.94 1175,-179 1208.45,-144.13 1995.98,-148.38 2044,-143 2180.97,-127.67 2260.78,-192.89 2349,-87 2357.82,-76.41 2357.77,-66.62 2349,-56 2343.13,-48.9 2232.17,-29.9 2165.18,-18.99"/>
<polygon fill="midnightblue" stroke="midnightblue" points="2165.66,-15.52 2155.23,-17.38 2164.54,-22.43 2165.66,-15.52"/>
</g>
<!-- Node10&#45;&gt;Node6 -->
<g id="edge78" class="edge">
<title>Node10&#45;&gt;Node6</title>
<path fill="none" stroke="midnightblue" d="M2272.52,-255.01C2439.03,-254.79 3053.2,-251.14 3129,-210 3188.31,-177.81 3197.21,-151.19 3218,-87 3222.24,-73.89 3223.73,-68.53 3218,-56 3212.22,-43.36 3200.95,-32.91 3190.37,-25.27"/>
<polygon fill="midnightblue" stroke="midnightblue" points="3192.04,-22.18 3181.78,-19.53 3188.15,-28 3192.04,-22.18"/>
</g>
<!-- Node10&#45;&gt;Node7 -->
<g id="edge79" class="edge">
<title>Node10&#45;&gt;Node7</title>
<path fill="none" stroke="midnightblue" d="M2272.52,-254.44C2442.41,-251.93 3076.98,-240.55 3106,-210 3269.71,-37.65 2710.71,-14.57 2558.99,-11.48"/>
<polygon fill="midnightblue" stroke="midnightblue" points="2558.85,-7.97 2548.79,-11.29 2558.72,-14.97 2558.85,-7.97"/>
</g>
<!-- Node11 -->
<g id="node11" class="node">
<title>Node11</title>
<g id="a_node11"><a xlink:href="../../d9/dde/vinteractivetool_8h.html" target="_top" xlink:title=" ">
<polygon fill="white" stroke="black" points="940,-185 940,-204 1052,-204 1052,-185 940,-185"/>
<text text-anchor="middle" x="996" y="-192" font-family="Helvetica,sans-Serif" font-size="10.00">../vinteractivetool.h</text>
</a>
</g>
</g>
<!-- Node10&#45;&gt;Node11 -->
<g id="edge10" class="edge">
<title>Node10&#45;&gt;Node11</title>
<path fill="none" stroke="midnightblue" d="M2189.39,-254.32C2008.57,-251.21 1290.15,-237.35 1066,-210 1057.94,-209.02 1049.43,-207.59 1041.23,-206.01"/>
<polygon fill="midnightblue" stroke="midnightblue" points="1041.92,-202.58 1031.42,-204.03 1040.53,-209.44 1041.92,-202.58"/>
</g>
<!-- Node18 -->
<g id="node18" class="node">
<title>Node18</title>
<g id="a_node18"><a xlink:title=" ">
<polygon fill="white" stroke="#bfbfbf" points="1305.5,-62 1305.5,-81 1472.5,-81 1472.5,-62 1305.5,-62"/>
<text text-anchor="middle" x="1389" y="-69" font-family="Helvetica,sans-Serif" font-size="10.00">../vmisc/vabstractapplication.h</text>
</a>
</g>
</g>
<!-- Node10&#45;&gt;Node18 -->
<g id="edge60" class="edge">
<title>Node10&#45;&gt;Node18</title>
<path fill="none" stroke="midnightblue" d="M2189.35,-255.16C1971.96,-255.82 975.72,-256.29 931,-210 916.94,-195.44 933.44,-130.8 942,-123 1000.61,-69.59 1218.36,-97.18 1297,-87 1306.98,-85.71 1317.55,-84.19 1327.83,-82.63"/>
<polygon fill="midnightblue" stroke="midnightblue" points="1328.63,-86.04 1337.98,-81.06 1327.56,-79.13 1328.63,-86.04"/>
</g>
<!-- Node19 -->
<g id="node19" class="node">
<title>Node19</title>
<g id="a_node19"><a xlink:title=" ">
<polygon fill="white" stroke="#bfbfbf" points="1491,-62 1491,-81 1573,-81 1573,-62 1491,-62"/>
<text text-anchor="middle" x="1532" y="-69" font-family="Helvetica,sans-Serif" font-size="10.00">../vmisc/def.h</text>
</a>
</g>
</g>
<!-- Node10&#45;&gt;Node19 -->
<g id="edge61" class="edge">
<title>Node10&#45;&gt;Node19</title>
<path fill="none" stroke="midnightblue" d="M2189.47,-254.89C1993.39,-254.18 1168.31,-248.87 1131,-210 1035.82,-110.84 1446.3,-95.38 1482,-87 1486.11,-86.04 1490.38,-84.94 1494.62,-83.79"/>
<polygon fill="midnightblue" stroke="midnightblue" points="1495.68,-87.13 1504.37,-81.07 1493.79,-80.39 1495.68,-87.13"/>
</g>
<!-- Node20 -->
<g id="node20" class="node">
<title>Node20</title>
<g id="a_node20"><a xlink:title=" ">
<polygon fill="white" stroke="#bfbfbf" points="1591,-62 1591,-81 1773,-81 1773,-62 1591,-62"/>
<text text-anchor="middle" x="1682" y="-69" font-family="Helvetica,sans-Serif" font-size="10.00">../vwidgets/vmaingraphicsscene.h</text>
</a>
</g>
</g>
<!-- Node10&#45;&gt;Node20 -->
<g id="edge63" class="edge">
<title>Node10&#45;&gt;Node20</title>
<path fill="none" stroke="midnightblue" d="M2189.23,-254.87C1993.96,-254.07 1178.89,-248.44 1142,-210 1132.46,-200.06 1133.25,-189.64 1142,-179 1157.23,-160.48 1480.56,-105.53 1619.48,-82.66"/>
<polygon fill="midnightblue" stroke="midnightblue" points="1620.25,-86.08 1629.55,-81 1619.12,-79.17 1620.25,-86.08"/>
</g>
<!-- Node21 -->
<g id="node21" class="node">
<title>Node21</title>
<g id="a_node21"><a xlink:href="../../d8/ddf/vdatatool_8h.html" target="_top" xlink:title=" ">
<polygon fill="white" stroke="black" points="2396,-62 2396,-81 2468,-81 2468,-62 2396,-62"/>
<text text-anchor="middle" x="2432" y="-69" font-family="Helvetica,sans-Serif" font-size="10.00">vdatatool.h</text>
</a>
</g>
</g>
<!-- Node10&#45;&gt;Node21 -->
<g id="edge58" class="edge">
<title>Node10&#45;&gt;Node21</title>
<path fill="none" stroke="midnightblue" d="M2272.52,-254.39C2440.17,-251.73 3059.64,-239.89 3088,-210 3175.04,-118.26 2641.4,-83.18 2478.29,-74.68"/>
<polygon fill="midnightblue" stroke="midnightblue" points="2478.26,-71.18 2468.09,-74.16 2477.9,-78.17 2478.26,-71.18"/>
</g>
<!-- Node26 -->
<g id="node26" class="node">
<title>Node26</title>
<g id="a_node26"><a xlink:title=" ">
<polygon fill="white" stroke="#bfbfbf" points="2037,-62 2037,-81 2087,-81 2087,-62 2037,-62"/>
<text text-anchor="middle" x="2062" y="-69" font-family="Helvetica,sans-Serif" font-size="10.00">QColor</text>
</a>
</g>
</g>
<!-- Node10&#45;&gt;Node26 -->
<g id="edge72" class="edge">
<title>Node10&#45;&gt;Node26</title>
<path fill="none" stroke="midnightblue" d="M2272.53,-254.34C2438.08,-251.53 3043.26,-239.26 3071,-210 3080.48,-200 3080.25,-189.21 3071,-179 3000.74,-101.5 2237.46,-102.46 2134,-87 2121.91,-85.19 2108.77,-82.7 2097.07,-80.3"/>
<polygon fill="midnightblue" stroke="midnightblue" points="2097.72,-76.86 2087.21,-78.23 2096.28,-83.71 2097.72,-76.86"/>
</g>
<!-- Node42 -->
<g id="node35" class="node">
<title>Node42</title>
<g id="a_node35"><a xlink:title=" ">
<polygon fill="white" stroke="#bfbfbf" points="1184,-185 1184,-204 1366,-204 1366,-185 1184,-185"/>
<text text-anchor="middle" x="1275" y="-192" font-family="Helvetica,sans-Serif" font-size="10.00">../ifc/exception/vexceptionbadid.h</text>
</a>
</g>
</g>
<!-- Node10&#45;&gt;Node42 -->
<g id="edge57" class="edge">
<title>Node10&#45;&gt;Node42</title>
<path fill="none" stroke="midnightblue" d="M2189.09,-254.13C2064.78,-251.26 1687.4,-240.49 1376,-210 1363.69,-208.79 1350.58,-207.17 1338.02,-205.44"/>
<polygon fill="midnightblue" stroke="midnightblue" points="1338.49,-201.97 1328.1,-204.04 1337.51,-208.9 1338.49,-201.97"/>
</g>
<!-- Node43 -->
<g id="node36" class="node">
<title>Node43</title>
<g id="a_node36"><a xlink:title=" ">
<polygon fill="white" stroke="#bfbfbf" points="1384.5,-185 1384.5,-204 1509.5,-204 1509.5,-185 1384.5,-185"/>
<text text-anchor="middle" x="1447" y="-192" font-family="Helvetica,sans-Serif" font-size="10.00">../vgeometry/vpointf.h</text>
</a>
</g>
</g>
<!-- Node10&#45;&gt;Node43 -->
<g id="edge59" class="edge">
<title>Node10&#45;&gt;Node43</title>
<path fill="none" stroke="midnightblue" d="M2189.48,-254.34C2079.59,-252.17 1772.27,-243.35 1519,-210 1511.09,-208.96 1502.74,-207.56 1494.65,-206.04"/>
<polygon fill="midnightblue" stroke="midnightblue" points="1495.07,-202.56 1484.58,-204.07 1493.72,-209.43 1495.07,-202.56"/>
</g>
<!-- Node44 -->
<g id="node37" class="node">
<title>Node44</title>
<g id="a_node37"><a xlink:title=" ">
<polygon fill="white" stroke="#bfbfbf" points="1527.5,-185 1527.5,-204 1716.5,-204 1716.5,-185 1527.5,-185"/>
<text text-anchor="middle" x="1622" y="-192" font-family="Helvetica,sans-Serif" font-size="10.00">../vwidgets/vabstractmainwindow.h</text>
</a>
</g>
</g>
<!-- Node10&#45;&gt;Node44 -->
<g id="edge62" class="edge">
<title>Node10&#45;&gt;Node44</title>
<path fill="none" stroke="midnightblue" d="M2189.36,-251.99C2102.89,-245.59 1897.63,-229.6 1726,-210 1714.18,-208.65 1701.64,-207.05 1689.5,-205.41"/>
<polygon fill="midnightblue" stroke="midnightblue" points="1689.81,-201.92 1679.42,-204.03 1688.86,-208.85 1689.81,-201.92"/>
</g>
<!-- Node45 -->
<g id="node38" class="node">
<title>Node45</title>
<g id="a_node38"><a xlink:title=" ">
<polygon fill="white" stroke="#bfbfbf" points="1735,-185 1735,-204 1911,-204 1911,-185 1735,-185"/>
<text text-anchor="middle" x="1823" y="-192" font-family="Helvetica,sans-Serif" font-size="10.00">../vwidgets/vmaingraphicsview.h</text>
</a>
</g>
</g>
<!-- Node10&#45;&gt;Node45 -->
<g id="edge64" class="edge">
<title>Node10&#45;&gt;Node45</title>
<path fill="none" stroke="midnightblue" d="M2189.38,-248.99C2129.87,-240.4 2017.05,-224.08 1921,-210 1911.17,-208.56 1900.79,-207.03 1890.61,-205.53"/>
<polygon fill="midnightblue" stroke="midnightblue" points="1890.92,-202.04 1880.52,-204.04 1889.9,-208.96 1890.92,-202.04"/>
</g>
<!-- Node46 -->
<g id="node39" class="node">
<title>Node46</title>
<g id="a_node39"><a xlink:title=" ">
<polygon fill="white" stroke="#bfbfbf" points="1929.5,-179.5 1929.5,-209.5 2066.5,-209.5 2066.5,-179.5 1929.5,-179.5"/>
<text text-anchor="start" x="1937.5" y="-197.5" font-family="Helvetica,sans-Serif" font-size="10.00">../vtools/undocommands</text>
<text text-anchor="middle" x="1998" y="-186.5" font-family="Helvetica,sans-Serif" font-size="10.00">/addgroup.h</text>
</a>
</g>
</g>
<!-- Node10&#45;&gt;Node46 -->
<g id="edge65" class="edge">
<title>Node10&#45;&gt;Node46</title>
<path fill="none" stroke="midnightblue" d="M2197.62,-246.48C2162.52,-237.51 2106.43,-223.19 2062.63,-212"/>
<polygon fill="midnightblue" stroke="midnightblue" points="2063.47,-208.61 2052.91,-209.52 2061.74,-215.39 2063.47,-208.61"/>
</g>
<!-- Node47 -->
<g id="node40" class="node">
<title>Node47</title>
<g id="a_node40"><a xlink:title=" ">
<polygon fill="white" stroke="#bfbfbf" points="2084.5,-179.5 2084.5,-209.5 2221.5,-209.5 2221.5,-179.5 2084.5,-179.5"/>
<text text-anchor="start" x="2092.5" y="-197.5" font-family="Helvetica,sans-Serif" font-size="10.00">../vtools/undocommands</text>
<text text-anchor="middle" x="2153" y="-186.5" font-family="Helvetica,sans-Serif" font-size="10.00">/add_groupitem.h</text>
</a>
</g>
</g>
<!-- Node10&#45;&gt;Node47 -->
<g id="edge66" class="edge">
<title>Node10&#45;&gt;Node47</title>
<path fill="none" stroke="midnightblue" d="M2219.82,-246.48C2209.36,-238.49 2193.32,-226.25 2179.57,-215.77"/>
<polygon fill="midnightblue" stroke="midnightblue" points="2181.46,-212.81 2171.38,-209.52 2177.21,-218.37 2181.46,-212.81"/>
</g>
<!-- Node48 -->
<g id="node41" class="node">
<title>Node48</title>
<g id="a_node41"><a xlink:title=" ">
<polygon fill="white" stroke="#bfbfbf" points="2239.5,-179.5 2239.5,-209.5 2376.5,-209.5 2376.5,-179.5 2239.5,-179.5"/>
<text text-anchor="start" x="2247.5" y="-197.5" font-family="Helvetica,sans-Serif" font-size="10.00">../vtools/undocommands</text>
<text text-anchor="middle" x="2308" y="-186.5" font-family="Helvetica,sans-Serif" font-size="10.00">/remove_groupitem.h</text>
</a>
</g>
</g>
<!-- Node10&#45;&gt;Node48 -->
<g id="edge67" class="edge">
<title>Node10&#45;&gt;Node48</title>
<path fill="none" stroke="midnightblue" d="M2242.03,-246.48C2252.36,-238.49 2268.2,-226.25 2281.77,-215.77"/>
<polygon fill="midnightblue" stroke="midnightblue" points="2284.08,-218.41 2289.85,-209.52 2279.8,-212.87 2284.08,-218.41"/>
</g>
<!-- Node49 -->
<g id="node42" class="node">
<title>Node49</title>
<g id="a_node42"><a xlink:title=" ">
<polygon fill="white" stroke="#bfbfbf" points="2394.5,-185 2394.5,-204 2449.5,-204 2449.5,-185 2394.5,-185"/>
<text text-anchor="middle" x="2422" y="-192" font-family="Helvetica,sans-Serif" font-size="10.00">QAction</text>
</a>
</g>
</g>
<!-- Node10&#45;&gt;Node49 -->
<g id="edge69" class="edge">
<title>Node10&#45;&gt;Node49</title>
<path fill="none" stroke="midnightblue" d="M2263.96,-246.46C2295.54,-238.04 2344.42,-224.37 2386,-210 2387.91,-209.34 2389.87,-208.64 2391.83,-207.91"/>
<polygon fill="midnightblue" stroke="midnightblue" points="2393.51,-211.01 2401.57,-204.14 2390.98,-204.48 2393.51,-211.01"/>
</g>
<!-- Node50 -->
<g id="node43" class="node">
<title>Node50</title>
<g id="a_node43"><a xlink:title=" ">
<polygon fill="white" stroke="#bfbfbf" points="2468,-185 2468,-204 2552,-204 2552,-185 2468,-185"/>
<text text-anchor="middle" x="2510" y="-192" font-family="Helvetica,sans-Serif" font-size="10.00">QActionGroup</text>
</a>
</g>
</g>
<!-- Node10&#45;&gt;Node50 -->
<g id="edge70" class="edge">
<title>Node10&#45;&gt;Node50</title>
<path fill="none" stroke="midnightblue" d="M2272.83,-247.81C2318.73,-239.67 2394.47,-225.51 2459,-210 2463.13,-209.01 2467.42,-207.9 2471.69,-206.76"/>
<polygon fill="midnightblue" stroke="midnightblue" points="2472.81,-210.08 2481.52,-204.04 2470.95,-203.33 2472.81,-210.08"/>
</g>
<!-- Node51 -->
<g id="node44" class="node">
<title>Node51</title>
<g id="a_node44"><a xlink:title=" ">
<polygon fill="white" stroke="#bfbfbf" points="2570.5,-185 2570.5,-204 2643.5,-204 2643.5,-185 2570.5,-185"/>
<text text-anchor="middle" x="2607" y="-192" font-family="Helvetica,sans-Serif" font-size="10.00">QByteArray</text>
</a>
</g>
</g>
<!-- Node10&#45;&gt;Node51 -->
<g id="edge71" class="edge">
<title>Node10&#45;&gt;Node51</title>
<path fill="none" stroke="midnightblue" d="M2272.56,-251.62C2335.52,-245.98 2458.59,-232.95 2561,-210 2564.84,-209.14 2568.83,-208.1 2572.77,-206.99"/>
<polygon fill="midnightblue" stroke="midnightblue" points="2573.81,-210.33 2582.38,-204.11 2571.8,-203.63 2573.81,-210.33"/>
</g>
<!-- Node52 -->
<g id="node45" class="node">
<title>Node52</title>
<g id="a_node45"><a xlink:title=" ">
<polygon fill="white" stroke="#bfbfbf" points="2662,-185 2662,-204 2750,-204 2750,-185 2662,-185"/>
<text text-anchor="middle" x="2706" y="-192" font-family="Helvetica,sans-Serif" font-size="10.00">QDomElement</text>
</a>
</g>
</g>
<!-- Node10&#45;&gt;Node52 -->
<g id="edge73" class="edge">
<title>Node10&#45;&gt;Node52</title>
<path fill="none" stroke="midnightblue" d="M2272.65,-252.78C2348.74,-248.25 2515.08,-236.05 2653,-210 2658.03,-209.05 2663.27,-207.86 2668.43,-206.58"/>
<polygon fill="midnightblue" stroke="midnightblue" points="2669.36,-209.95 2678.14,-204.03 2667.58,-203.18 2669.36,-209.95"/>
</g>
<!-- Node53 -->
<g id="node46" class="node">
<title>Node53</title>
<g id="a_node46"><a xlink:title=" ">
<polygon fill="white" stroke="#bfbfbf" points="2768.5,-179.5 2768.5,-209.5 2929.5,-209.5 2929.5,-179.5 2768.5,-179.5"/>
<text text-anchor="start" x="2776.5" y="-197.5" font-family="Helvetica,sans-Serif" font-size="10.00">QGraphicsSceneContextMenu</text>
<text text-anchor="middle" x="2849" y="-186.5" font-family="Helvetica,sans-Serif" font-size="10.00">Event</text>
</a>
</g>
</g>
<!-- Node10&#45;&gt;Node53 -->
<g id="edge74" class="edge">
<title>Node10&#45;&gt;Node53</title>
<path fill="none" stroke="midnightblue" d="M2272.52,-252.52C2360.2,-247.06 2570.86,-232.72 2758.06,-210.05"/>
<polygon fill="midnightblue" stroke="midnightblue" points="2758.59,-213.52 2768.09,-208.83 2757.74,-206.57 2758.59,-213.52"/>
</g>
<!-- Node54 -->
<g id="node47" class="node">
<title>Node54</title>
<g id="a_node47"><a xlink:title=" ">
<polygon fill="white" stroke="#bfbfbf" points="2948,-185 2948,-204 2992,-204 2992,-185 2948,-185"/>
<text text-anchor="middle" x="2970" y="-192" font-family="Helvetica,sans-Serif" font-size="10.00">QIcon</text>
</a>
</g>
</g>
<!-- Node10&#45;&gt;Node54 -->
<g id="edge75" class="edge">
<title>Node10&#45;&gt;Node54</title>
<path fill="none" stroke="midnightblue" d="M2272.53,-254.39C2404.27,-252.12 2811.63,-242.59 2939,-210 2940.99,-209.49 2943,-208.86 2945,-208.14"/>
<polygon fill="midnightblue" stroke="midnightblue" points="2946.8,-211.18 2954.65,-204.06 2944.08,-204.73 2946.8,-211.18"/>
</g>
<!-- Node55 -->
<g id="node48" class="node">
<title>Node55</title>
<g id="a_node48"><a xlink:title=" ">
<polygon fill="white" stroke="#bfbfbf" points="3010.5,-185 3010.5,-204 3061.5,-204 3061.5,-185 3010.5,-185"/>
<text text-anchor="middle" x="3036" y="-192" font-family="Helvetica,sans-Serif" font-size="10.00">QMenu</text>
</a>
</g>
</g>
<!-- Node10&#45;&gt;Node55 -->
<g id="edge76" class="edge">
<title>Node10&#45;&gt;Node55</title>
<path fill="none" stroke="midnightblue" d="M2272.64,-254.39C2411.91,-252.08 2860.53,-242.23 3001,-210 3003.67,-209.39 3006.4,-208.59 3009.1,-207.68"/>
<polygon fill="midnightblue" stroke="midnightblue" points="3010.48,-210.9 3018.57,-204.06 3007.98,-204.36 3010.48,-210.9"/>
</g>
<!-- Node12 -->
<g id="node12" class="node">
<title>Node12</title>
<g id="a_node12"><a xlink:href="../../d1/de6/vabstracttool_8h.html" target="_top" xlink:title=" ">
<polygon fill="white" stroke="black" points="1945,-123.5 1945,-142.5 2035,-142.5 2035,-123.5 1945,-123.5"/>
<text text-anchor="middle" x="1990" y="-130.5" font-family="Helvetica,sans-Serif" font-size="10.00">vabstracttool.h</text>
</a>
</g>
</g>
<!-- Node11&#45;&gt;Node12 -->
<g id="edge11" class="edge">
<title>Node11&#45;&gt;Node12</title>
<path fill="none" stroke="midnightblue" d="M1052.1,-187.32C1079.23,-184.49 1112.28,-181.26 1142,-179 1440.72,-156.25 1799.51,-141.26 1934.79,-136.05"/>
<polygon fill="midnightblue" stroke="midnightblue" points="1935.05,-139.54 1944.91,-135.66 1934.78,-132.55 1935.05,-139.54"/>
</g>
<!-- Node24 -->
<g id="node24" class="node">
<title>Node24</title>
<g id="a_node24"><a xlink:href="../../d1/d30/dialogtool_8h.html" target="_top" xlink:title=" ">
<polygon fill="white" stroke="red" points="708.5,-123.5 708.5,-142.5 857.5,-142.5 857.5,-123.5 708.5,-123.5"/>
<text text-anchor="middle" x="783" y="-130.5" font-family="Helvetica,sans-Serif" font-size="10.00">../dialogs/tools/dialogtool.h</text>
</a>
</g>
</g>
<!-- Node11&#45;&gt;Node24 -->
<g id="edge34" class="edge">
<title>Node11&#45;&gt;Node24</title>
<path fill="none" stroke="midnightblue" d="M965.48,-184.98C928.08,-174.53 864.57,-156.79 823.21,-145.23"/>
<polygon fill="midnightblue" stroke="midnightblue" points="824.03,-141.83 813.46,-142.51 822.15,-148.57 824.03,-141.83"/>
</g>
<!-- Node41 -->
<g id="node34" class="node">
<title>Node41</title>
<g id="a_node34"><a xlink:title=" ">
<polygon fill="white" stroke="#bfbfbf" points="951,-123.5 951,-142.5 1049,-142.5 1049,-123.5 951,-123.5"/>
<text text-anchor="middle" x="1000" y="-130.5" font-family="Helvetica,sans-Serif" font-size="10.00">QtCore/qglobal.h</text>
</a>
</g>
</g>
<!-- Node11&#45;&gt;Node41 -->
<g id="edge56" class="edge">
<title>Node11&#45;&gt;Node41</title>
<path fill="none" stroke="midnightblue" d="M996.57,-184.98C997.14,-176.58 998.02,-163.48 998.75,-152.66"/>
<polygon fill="midnightblue" stroke="midnightblue" points="1002.25,-152.72 999.43,-142.51 995.26,-152.25 1002.25,-152.72"/>
</g>
<!-- Node12&#45;&gt;Node2 -->
<g id="edge19" class="edge">
<title>Node12&#45;&gt;Node2</title>
<path fill="none" stroke="midnightblue" d="M1988.64,-123.48C1985.53,-107.07 1976.16,-71.34 1952,-56 1911.84,-30.51 382.53,-14.07 115.55,-11.39"/>
<polygon fill="midnightblue" stroke="midnightblue" points="115.57,-7.89 105.54,-11.29 115.5,-14.89 115.57,-7.89"/>
</g>
<!-- Node12&#45;&gt;Node3 -->
<g id="edge12" class="edge">
<title>Node12&#45;&gt;Node3</title>
<path fill="none" stroke="midnightblue" d="M1992.62,-123.45C1996.89,-107.62 2003.16,-73.74 1985,-56 1949.53,-21.35 1224.93,-13.16 993.44,-11.43"/>
<polygon fill="midnightblue" stroke="midnightblue" points="993.14,-7.93 983.12,-11.35 993.09,-14.93 993.14,-7.93"/>
</g>
<!-- Node12&#45;&gt;Node4 -->
<g id="edge13" class="edge">
<title>Node12&#45;&gt;Node4</title>
<path fill="none" stroke="midnightblue" d="M1944.73,-131.18C1811.16,-128.42 1420.39,-117.87 1297,-87 1294.79,-86.45 1292.54,-85.75 1290.31,-84.95"/>
<polygon fill="midnightblue" stroke="midnightblue" points="1291.45,-81.63 1280.87,-81.05 1288.78,-88.1 1291.45,-81.63"/>
</g>
<!-- Node12&#45;&gt;Node5 -->
<g id="edge14" class="edge">
<title>Node12&#45;&gt;Node5</title>
<path fill="none" stroke="midnightblue" d="M2032.64,-123.48C2054.52,-116.99 2079.89,-105.85 2096,-87 2109.64,-71.04 2113.74,-46.69 2114.84,-29.88"/>
<polygon fill="midnightblue" stroke="midnightblue" points="2118.35,-29.75 2115.21,-19.63 2111.35,-29.5 2118.35,-29.75"/>
</g>
<!-- Node12&#45;&gt;Node6 -->
<g id="edge15" class="edge">
<title>Node12&#45;&gt;Node6</title>
<path fill="none" stroke="midnightblue" d="M2035.07,-128.47C2124.54,-121.36 2330.88,-104.51 2504,-87 2741.61,-62.96 3026.5,-28.27 3127.9,-15.74"/>
<polygon fill="midnightblue" stroke="midnightblue" points="3128.47,-19.2 3137.96,-14.49 3127.61,-12.25 3128.47,-19.2"/>
</g>
<!-- Node12&#45;&gt;Node7 -->
<g id="edge16" class="edge">
<title>Node12&#45;&gt;Node7</title>
<path fill="none" stroke="midnightblue" d="M2035.07,-130.16C2148.64,-125.2 2440.14,-110.33 2477,-87 2497.7,-73.9 2510.09,-47.56 2516.48,-29.6"/>
<polygon fill="midnightblue" stroke="midnightblue" points="2519.86,-30.52 2519.63,-19.92 2513.2,-28.34 2519.86,-30.52"/>
</g>
<!-- Node13 -->
<g id="node13" class="node">
<title>Node13</title>
<g id="a_node13"><a xlink:title=" ">
<polygon fill="white" stroke="#bfbfbf" points="2143,-62 2143,-81 2213,-81 2213,-62 2143,-62"/>
<text text-anchor="middle" x="2178" y="-69" font-family="Helvetica,sans-Serif" font-size="10.00">QStringList</text>
</a>
</g>
</g>
<!-- Node12&#45;&gt;Node13 -->
<g id="edge17" class="edge">
<title>Node12&#45;&gt;Node13</title>
<path fill="none" stroke="midnightblue" d="M2016.94,-123.48C2049.6,-113.14 2104.82,-95.66 2141.34,-84.1"/>
<polygon fill="midnightblue" stroke="midnightblue" points="2142.64,-87.36 2151.11,-81.01 2140.52,-80.69 2142.64,-87.36"/>
</g>
<!-- Node14 -->
<g id="node14" class="node">
<title>Node14</title>
<g id="a_node14"><a xlink:title=" ">
<polygon fill="white" stroke="#bfbfbf" points="2231.5,-62 2231.5,-81 2260.5,-81 2260.5,-62 2231.5,-62"/>
<text text-anchor="middle" x="2246" y="-69" font-family="Helvetica,sans-Serif" font-size="10.00">Qt</text>
</a>
</g>
</g>
<!-- Node12&#45;&gt;Node14 -->
<g id="edge18" class="edge">
<title>Node12&#45;&gt;Node14</title>
<path fill="none" stroke="midnightblue" d="M2035.34,-127.96C2083.07,-122.63 2159.78,-110.96 2222,-87 2222.87,-86.66 2223.75,-86.3 2224.63,-85.9"/>
<polygon fill="midnightblue" stroke="midnightblue" points="2226.55,-88.85 2233.72,-81.05 2223.25,-82.67 2226.55,-88.85"/>
</g>
<!-- Node15 -->
<g id="node15" class="node">
<title>Node15</title>
<g id="a_node15"><a xlink:title=" ">
<polygon fill="white" stroke="#bfbfbf" points="2278.5,-62 2278.5,-81 2339.5,-81 2339.5,-62 2278.5,-62"/>
<text text-anchor="middle" x="2309" y="-69" font-family="Helvetica,sans-Serif" font-size="10.00">QPixmap</text>
</a>
</g>
</g>
<!-- Node12&#45;&gt;Node15 -->
<g id="edge20" class="edge">
<title>Node12&#45;&gt;Node15</title>
<path fill="none" stroke="midnightblue" d="M2035.18,-127.51C2091.01,-121.32 2188.59,-108.45 2270,-87 2272.82,-86.26 2275.71,-85.39 2278.59,-84.45"/>
<polygon fill="midnightblue" stroke="midnightblue" points="2279.91,-87.7 2288.19,-81.1 2277.6,-81.09 2279.91,-87.7"/>
</g>
<!-- Node16 -->
<g id="node16" class="node">
<title>Node16</title>
<g id="a_node16"><a xlink:title=" ">
<polygon fill="white" stroke="#bfbfbf" points="1791,-62 1791,-81 1943,-81 1943,-62 1791,-62"/>
<text text-anchor="middle" x="1867" y="-69" font-family="Helvetica,sans-Serif" font-size="10.00">../ifc/xml/vabstractpattern.h</text>
</a>
</g>
</g>
<!-- Node12&#45;&gt;Node16 -->
<g id="edge21" class="edge">
<title>Node12&#45;&gt;Node16</title>
<path fill="none" stroke="midnightblue" d="M1972.38,-123.48C1951.83,-113.53 1917.64,-96.99 1893.79,-85.46"/>
<polygon fill="midnightblue" stroke="midnightblue" points="1895.12,-82.21 1884.59,-81.01 1892.07,-88.51 1895.12,-82.21"/>
</g>
<!-- Node17 -->
<g id="node17" class="node">
<title>Node17</title>
<g id="a_node17"><a xlink:title=" ">
<polygon fill="white" stroke="#bfbfbf" points="1103.5,-56.5 1103.5,-86.5 1224.5,-86.5 1224.5,-56.5 1103.5,-56.5"/>
<text text-anchor="start" x="1111.5" y="-74.5" font-family="Helvetica,sans-Serif" font-size="10.00">../vtools/visualization</text>
<text text-anchor="middle" x="1164" y="-63.5" font-family="Helvetica,sans-Serif" font-size="10.00">/visualization.h</text>
</a>
</g>
</g>
<!-- Node12&#45;&gt;Node17 -->
<g id="edge22" class="edge">
<title>Node12&#45;&gt;Node17</title>
<path fill="none" stroke="midnightblue" d="M1944.62,-131.58C1828.27,-130.03 1509.75,-122.71 1234.79,-86.95"/>
<polygon fill="midnightblue" stroke="midnightblue" points="1234.99,-83.45 1224.61,-85.62 1234.07,-90.39 1234.99,-83.45"/>
</g>
<!-- Node12&#45;&gt;Node18 -->
<g id="edge23" class="edge">
<title>Node12&#45;&gt;Node18</title>
<path fill="none" stroke="midnightblue" d="M1944.7,-129C1855.8,-122.89 1652.28,-107.79 1482,-87 1471.55,-85.72 1460.47,-84.17 1449.74,-82.56"/>
<polygon fill="midnightblue" stroke="midnightblue" points="1450.01,-79.06 1439.6,-81.01 1448.95,-85.98 1450.01,-79.06"/>
</g>
<!-- Node12&#45;&gt;Node19 -->
<g id="edge24" class="edge">
<title>Node12&#45;&gt;Node19</title>
<path fill="none" stroke="midnightblue" d="M1944.94,-129.58C1869.32,-124.94 1712.36,-112.89 1582,-87 1577.49,-86.1 1572.8,-84.99 1568.17,-83.78"/>
<polygon fill="midnightblue" stroke="midnightblue" points="1568.83,-80.33 1558.26,-81.04 1566.96,-87.08 1568.83,-80.33"/>
</g>
<!-- Node12&#45;&gt;Node20 -->
<g id="edge25" class="edge">
<title>Node12&#45;&gt;Node20</title>
<path fill="none" stroke="midnightblue" d="M1945.87,-123.48C1890.52,-112.78 1795.66,-94.46 1736.03,-82.94"/>
<polygon fill="midnightblue" stroke="midnightblue" points="1736.53,-79.47 1726.05,-81.01 1735.2,-86.34 1736.53,-79.47"/>
</g>
<!-- Node12&#45;&gt;Node21 -->
<g id="edge26" class="edge">
<title>Node12&#45;&gt;Node21</title>
<path fill="none" stroke="midnightblue" d="M2035.15,-127.05C2103.29,-119.42 2236.41,-103.88 2349,-87 2360.86,-85.22 2373.64,-83.1 2385.53,-81.03"/>
<polygon fill="midnightblue" stroke="midnightblue" points="2386.46,-84.42 2395.7,-79.23 2385.24,-77.52 2386.46,-84.42"/>
</g>
<!-- Node21&#45;&gt;Node2 -->
<g id="edge31" class="edge">
<title>Node21&#45;&gt;Node2</title>
<path fill="none" stroke="midnightblue" d="M2395.8,-62.94C2381.32,-60.23 2364.43,-57.49 2349,-56 2118.58,-33.72 401.49,-14.48 116.13,-11.42"/>
<polygon fill="midnightblue" stroke="midnightblue" points="115.88,-7.92 105.84,-11.31 115.81,-14.92 115.88,-7.92"/>
</g>
<!-- Node21&#45;&gt;Node3 -->
<g id="edge27" class="edge">
<title>Node21&#45;&gt;Node3</title>
<path fill="none" stroke="midnightblue" d="M2395.79,-63.03C2381.31,-60.34 2364.42,-57.58 2349,-56 2081.51,-28.55 1242.04,-15.29 993.19,-11.9"/>
<polygon fill="midnightblue" stroke="midnightblue" points="993.23,-8.4 983.19,-11.76 993.14,-15.4 993.23,-8.4"/>
</g>
<!-- Node21&#45;&gt;Node5 -->
<g id="edge28" class="edge">
<title>Node21&#45;&gt;Node5</title>
<path fill="none" stroke="midnightblue" d="M2404.64,-61.95C2397.33,-59.83 2389.4,-57.69 2382,-56 2307.09,-38.89 2218.98,-25.28 2165.07,-17.68"/>
<polygon fill="midnightblue" stroke="midnightblue" points="2165.48,-14.2 2155.09,-16.29 2164.51,-21.13 2165.48,-14.2"/>
</g>
<!-- Node21&#45;&gt;Node6 -->
<g id="edge29" class="edge">
<title>Node21&#45;&gt;Node6</title>
<path fill="none" stroke="midnightblue" d="M2468.4,-67.55C2592.76,-57.47 3000.12,-24.45 3127.55,-14.12"/>
<polygon fill="midnightblue" stroke="midnightblue" points="3127.93,-17.6 3137.62,-13.3 3127.37,-10.62 3127.93,-17.6"/>
</g>
<!-- Node21&#45;&gt;Node7 -->
<g id="edge30" class="edge">
<title>Node21&#45;&gt;Node7</title>
<path fill="none" stroke="midnightblue" d="M2444.89,-61.98C2459.46,-52.34 2483.4,-36.52 2500.75,-25.05"/>
<polygon fill="midnightblue" stroke="midnightblue" points="2502.72,-27.94 2509.13,-19.51 2498.86,-22.1 2502.72,-27.94"/>
</g>
<!-- Node22 -->
<g id="node22" class="node">
<title>Node22</title>
<g id="a_node22"><a xlink:title=" ">
<polygon fill="white" stroke="#bfbfbf" points="2193.5,-0.5 2193.5,-19.5 2296.5,-19.5 2296.5,-0.5 2193.5,-0.5"/>
<text text-anchor="middle" x="2245" y="-7.5" font-family="Helvetica,sans-Serif" font-size="10.00">../vmisc/logging.h</text>
</a>
</g>
</g>
<!-- Node21&#45;&gt;Node22 -->
<g id="edge32" class="edge">
<title>Node21&#45;&gt;Node22</title>
<path fill="none" stroke="midnightblue" d="M2405.21,-61.98C2372.71,-51.64 2317.79,-34.16 2281.46,-22.6"/>
<polygon fill="midnightblue" stroke="midnightblue" points="2282.33,-19.21 2271.74,-19.51 2280.21,-25.88 2282.33,-19.21"/>
</g>
<!-- Node23 -->
<g id="node23" class="node">
<title>Node23</title>
<g id="a_node23"><a xlink:title=" ">
<polygon fill="white" stroke="#bfbfbf" points="2335,-0.5 2335,-19.5 2477,-19.5 2477,-0.5 2335,-0.5"/>
<text text-anchor="middle" x="2406" y="-7.5" font-family="Helvetica,sans-Serif" font-size="10.00">../vpatterndb/vcontainer.h</text>
</a>
</g>
</g>
<!-- Node21&#45;&gt;Node23 -->
<g id="edge33" class="edge">
<title>Node21&#45;&gt;Node23</title>
<path fill="none" stroke="midnightblue" d="M2428.27,-61.98C2424.53,-53.4 2418.64,-39.93 2413.86,-28.98"/>
<polygon fill="midnightblue" stroke="midnightblue" points="2416.93,-27.27 2409.72,-19.51 2410.52,-30.07 2416.93,-27.27"/>
</g>
<!-- Node24&#45;&gt;Node2 -->
<g id="edge49" class="edge">
<title>Node24&#45;&gt;Node2</title>
<path fill="none" stroke="midnightblue" d="M708.42,-130.2C574.85,-126.31 300.23,-115.09 209,-87 165.08,-73.48 119.86,-43.59 95.1,-25.59"/>
<polygon fill="midnightblue" stroke="midnightblue" points="97.07,-22.68 86.95,-19.54 92.9,-28.31 97.07,-22.68"/>
</g>
<!-- Node24&#45;&gt;Node3 -->
<g id="edge35" class="edge">
<title>Node24&#45;&gt;Node3</title>
<path fill="none" stroke="midnightblue" d="M837.35,-123.48C860.88,-117.14 886.89,-106.13 904,-87 918,-71.35 922.02,-46.94 923.01,-30.02"/>
<polygon fill="midnightblue" stroke="midnightblue" points="926.52,-29.8 923.3,-19.71 919.52,-29.61 926.52,-29.8"/>
</g>
<!-- Node24&#45;&gt;Node4 -->
<g id="edge45" class="edge">
<title>Node24&#45;&gt;Node4</title>
<path fill="none" stroke="midnightblue" d="M857.89,-124.32C862.33,-123.88 866.72,-123.43 871,-123 1032.31,-106.75 1077.67,-129.96 1234,-87 1235.93,-86.47 1237.9,-85.83 1239.85,-85.11"/>
<polygon fill="midnightblue" stroke="midnightblue" points="1241.47,-88.22 1249.3,-81.1 1238.73,-81.78 1241.47,-88.22"/>
</g>
<!-- Node24&#45;&gt;Node5 -->
<g id="edge46" class="edge">
<title>Node24&#45;&gt;Node5</title>
<path fill="none" stroke="midnightblue" d="M815.96,-123.44C845.34,-115.38 889.24,-102.3 926,-87 953.35,-75.62 956.39,-63.67 985,-56 1090.03,-27.86 1859.42,-14.72 2064.75,-11.7"/>
<polygon fill="midnightblue" stroke="midnightblue" points="2064.99,-15.19 2074.94,-11.55 2064.89,-8.2 2064.99,-15.19"/>
</g>
<!-- Node24&#45;&gt;Node6 -->
<g id="edge47" class="edge">
<title>Node24&#45;&gt;Node6</title>
<path fill="none" stroke="midnightblue" d="M853.74,-123.47C920.19,-114.83 1014.43,-100.82 1049,-87 1071.89,-77.85 1071.5,-63.46 1095,-56 1145.37,-40.01 2849.9,-15.44 3127.86,-11.53"/>
<polygon fill="midnightblue" stroke="midnightblue" points="3127.92,-15.03 3137.87,-11.39 3127.82,-8.03 3127.92,-15.03"/>
</g>
<!-- Node24&#45;&gt;Node7 -->
<g id="edge48" class="edge">
<title>Node24&#45;&gt;Node7</title>
<path fill="none" stroke="midnightblue" d="M857.68,-123.9C902.88,-117.37 961.04,-106.04 1010,-87 1034.72,-77.38 1035.55,-63.48 1061,-56 1210.22,-12.17 2289.05,-40.28 2485.46,-19.54"/>
<polygon fill="midnightblue" stroke="midnightblue" points="2485.88,-23.01 2495.39,-18.34 2485.04,-16.06 2485.88,-23.01"/>
</g>
<!-- Node24&#45;&gt;Node16 -->
<g id="edge51" class="edge">
<title>Node24&#45;&gt;Node16</title>
<path fill="none" stroke="midnightblue" d="M857.81,-127.55C884.39,-126.03 914.52,-124.37 942,-123 1315.21,-104.44 1410.42,-126.5 1782,-87 1792.16,-85.92 1802.94,-84.39 1813.3,-82.72"/>
<polygon fill="midnightblue" stroke="midnightblue" points="1814.18,-86.12 1823.47,-81.01 1813.03,-79.21 1814.18,-86.12"/>
</g>
<!-- Node24&#45;&gt;Node17 -->
<g id="edge50" class="edge">
<title>Node24&#45;&gt;Node17</title>
<path fill="none" stroke="midnightblue" d="M846.72,-123.48C908.71,-114.99 1005.49,-101.21 1089,-87 1090.47,-86.75 1091.96,-86.49 1093.46,-86.23"/>
<polygon fill="midnightblue" stroke="midnightblue" points="1094.23,-89.65 1103.46,-84.45 1093,-82.76 1094.23,-89.65"/>
</g>
<!-- Node24&#45;&gt;Node18 -->
<g id="edge54" class="edge">
<title>Node24&#45;&gt;Node18</title>
<path fill="none" stroke="midnightblue" d="M857.75,-126.1C979.18,-116.39 1214.09,-97.15 1297,-87 1307.34,-85.73 1318.3,-84.19 1328.91,-82.58"/>
<polygon fill="midnightblue" stroke="midnightblue" points="1329.6,-86.02 1338.95,-81.03 1328.54,-79.1 1329.6,-86.02"/>
</g>
<!-- Node24&#45;&gt;Node19 -->
<g id="edge52" class="edge">
<title>Node24&#45;&gt;Node19</title>
<path fill="none" stroke="midnightblue" d="M857.53,-127.64C1031.44,-117.41 1451.66,-92.31 1482,-87 1486.81,-86.16 1491.82,-85.03 1496.72,-83.76"/>
<polygon fill="midnightblue" stroke="midnightblue" points="1497.86,-87.08 1506.56,-81.04 1495.99,-80.34 1497.86,-87.08"/>
</g>
<!-- Node24&#45;&gt;Node20 -->
<g id="edge55" class="edge">
<title>Node24&#45;&gt;Node20</title>
<path fill="none" stroke="midnightblue" d="M857.82,-127.76C884.4,-126.25 914.53,-124.55 942,-123 1226.44,-106.95 1298.53,-115.47 1582,-87 1594.07,-85.79 1606.91,-84.17 1619.23,-82.46"/>
<polygon fill="midnightblue" stroke="midnightblue" points="1620.02,-85.88 1629.43,-81.01 1619.04,-78.95 1620.02,-85.88"/>
</g>
<!-- Node24&#45;&gt;Node22 -->
<g id="edge53" class="edge">
<title>Node24&#45;&gt;Node22</title>
<path fill="none" stroke="midnightblue" d="M835.13,-123.49C873.11,-116.32 925.33,-104.4 969,-87 994.71,-76.75 996.38,-63.55 1023,-56 1145.03,-21.39 2037.48,-29.01 2164,-20 2170.21,-19.56 2176.67,-19 2183.12,-18.39"/>
<polygon fill="midnightblue" stroke="midnightblue" points="2183.6,-21.85 2193.2,-17.37 2182.9,-14.89 2183.6,-21.85"/>
</g>
<!-- Node25 -->
<g id="node25" class="node">
<title>Node25</title>
<g id="a_node25"><a xlink:title=" ">
<polygon fill="white" stroke="#bfbfbf" points="218.5,-62 218.5,-81 291.5,-81 291.5,-62 218.5,-62"/>
<text text-anchor="middle" x="255" y="-69" font-family="Helvetica,sans-Serif" font-size="10.00">QCheckBox</text>
</a>
</g>
</g>
<!-- Node24&#45;&gt;Node25 -->
<g id="edge36" class="edge">
<title>Node24&#45;&gt;Node25</title>
<path fill="none" stroke="midnightblue" d="M708.2,-130.09C612.63,-126.5 442.52,-116.23 300,-87 296.04,-86.19 291.94,-85.15 287.9,-84.01"/>
<polygon fill="midnightblue" stroke="midnightblue" points="288.68,-80.59 278.1,-81.01 286.64,-87.28 288.68,-80.59"/>
</g>
<!-- Node24&#45;&gt;Node26 -->
<g id="edge37" class="edge">
<title>Node24&#45;&gt;Node26</title>
<path fill="none" stroke="midnightblue" d="M857.8,-127.44C884.38,-125.91 914.52,-124.27 942,-123 1390.7,-102.31 1504.39,-124.39 1952,-87 1977.07,-84.91 2005.2,-81.17 2026.73,-78.02"/>
<polygon fill="midnightblue" stroke="midnightblue" points="2027.36,-81.47 2036.73,-76.53 2026.33,-74.54 2027.36,-81.47"/>
</g>
<!-- Node27 -->
<g id="node27" class="node">
<title>Node27</title>
<g id="a_node27"><a xlink:title=" ">
<polygon fill="white" stroke="#bfbfbf" points="309.5,-62 309.5,-81 386.5,-81 386.5,-62 309.5,-62"/>
<text text-anchor="middle" x="348" y="-69" font-family="Helvetica,sans-Serif" font-size="10.00">QComboBox</text>
</a>
</g>
</g>
<!-- Node24&#45;&gt;Node27 -->
<g id="edge38" class="edge">
<title>Node24&#45;&gt;Node27</title>
<path fill="none" stroke="midnightblue" d="M708.18,-127.26C629.77,-121.37 503.29,-109.26 396,-87 391.78,-86.12 387.4,-85.05 383.07,-83.87"/>
<polygon fill="midnightblue" stroke="midnightblue" points="383.77,-80.43 373.19,-81.03 381.83,-87.16 383.77,-80.43"/>
</g>
<!-- Node28 -->
<g id="node28" class="node">
<title>Node28</title>
<g id="a_node28"><a xlink:title=" ">
<polygon fill="white" stroke="#bfbfbf" points="405,-62 405,-81 461,-81 461,-62 405,-62"/>
<text text-anchor="middle" x="433" y="-69" font-family="Helvetica,sans-Serif" font-size="10.00">QDialog</text>
</a>
</g>
</g>
<!-- Node24&#45;&gt;Node28 -->
<g id="edge39" class="edge">
<title>Node24&#45;&gt;Node28</title>
<path fill="none" stroke="midnightblue" d="M708.36,-126.15C644.33,-119.98 550.02,-108.13 470,-87 467.34,-86.3 464.61,-85.46 461.9,-84.55"/>
<polygon fill="midnightblue" stroke="midnightblue" points="462.9,-81.19 452.31,-81.04 460.49,-87.76 462.9,-81.19"/>
</g>
<!-- Node29 -->
<g id="node29" class="node">
<title>Node29</title>
<g id="a_node29"><a xlink:title=" ">
<polygon fill="white" stroke="#bfbfbf" points="479.5,-62 479.5,-81 586.5,-81 586.5,-62 479.5,-62"/>
<text text-anchor="middle" x="533" y="-69" font-family="Helvetica,sans-Serif" font-size="10.00">QDialogButtonBox</text>
</a>
</g>
</g>
<!-- Node24&#45;&gt;Node29 -->
<g id="edge40" class="edge">
<title>Node24&#45;&gt;Node29</title>
<path fill="none" stroke="midnightblue" d="M747.18,-123.48C702.81,-112.92 627.16,-94.91 578.67,-83.37"/>
<polygon fill="midnightblue" stroke="midnightblue" points="579.29,-79.92 568.75,-81.01 577.67,-86.73 579.29,-79.92"/>
</g>
<!-- Node30 -->
<g id="node30" class="node">
<title>Node30</title>
<g id="a_node30"><a xlink:title=" ">
<polygon fill="white" stroke="#bfbfbf" points="604.5,-62 604.5,-81 667.5,-81 667.5,-62 604.5,-62"/>
<text text-anchor="middle" x="636" y="-69" font-family="Helvetica,sans-Serif" font-size="10.00">QLineEdit</text>
</a>
</g>
</g>
<!-- Node24&#45;&gt;Node30 -->
<g id="edge41" class="edge">
<title>Node24&#45;&gt;Node30</title>
<path fill="none" stroke="midnightblue" d="M761.94,-123.48C736.94,-113.36 695.06,-96.4 666.51,-84.85"/>
<polygon fill="midnightblue" stroke="midnightblue" points="667.61,-81.52 657.02,-81.01 664.98,-88.01 667.61,-81.52"/>
</g>
<!-- Node31 -->
<g id="node31" class="node">
<title>Node31</title>
<g id="a_node31"><a xlink:title=" ">
<polygon fill="white" stroke="#bfbfbf" points="685.5,-62 685.5,-81 726.5,-81 726.5,-62 685.5,-62"/>
<text text-anchor="middle" x="706" y="-69" font-family="Helvetica,sans-Serif" font-size="10.00">QList</text>
</a>
</g>
</g>
<!-- Node24&#45;&gt;Node31 -->
<g id="edge42" class="edge">
<title>Node24&#45;&gt;Node31</title>
<path fill="none" stroke="midnightblue" d="M771.97,-123.48C759.73,-114.02 739.77,-98.6 725.01,-87.19"/>
<polygon fill="midnightblue" stroke="midnightblue" points="727.06,-84.35 717.01,-81.01 722.78,-89.89 727.06,-84.35"/>
</g>
<!-- Node32 -->
<g id="node32" class="node">
<title>Node32</title>
<g id="a_node32"><a xlink:title=" ">
<polygon fill="white" stroke="#bfbfbf" points="745,-62 745,-81 821,-81 821,-62 745,-62"/>
<text text-anchor="middle" x="783" y="-69" font-family="Helvetica,sans-Serif" font-size="10.00">QListWidget</text>
</a>
</g>
</g>
<!-- Node24&#45;&gt;Node32 -->
<g id="edge43" class="edge">
<title>Node24&#45;&gt;Node32</title>
<path fill="none" stroke="midnightblue" d="M783,-123.48C783,-115.08 783,-101.98 783,-91.16"/>
<polygon fill="midnightblue" stroke="midnightblue" points="786.5,-91.01 783,-81.01 779.5,-91.01 786.5,-91.01"/>
</g>
<!-- Node33 -->
<g id="node33" class="node">
<title>Node33</title>
<g id="a_node33"><a xlink:title=" ">
<polygon fill="white" stroke="#bfbfbf" points="839,-62 839,-81 895,-81 895,-62 839,-62"/>
<text text-anchor="middle" x="867" y="-69" font-family="Helvetica,sans-Serif" font-size="10.00">QLocale</text>
</a>
</g>
</g>
<!-- Node24&#45;&gt;Node33 -->
<g id="edge44" class="edge">
<title>Node24&#45;&gt;Node33</title>
<path fill="none" stroke="midnightblue" d="M795.04,-123.48C808.51,-113.93 830.57,-98.31 846.72,-86.87"/>
<polygon fill="midnightblue" stroke="midnightblue" points="848.85,-89.65 854.99,-81.01 844.8,-83.93 848.85,-89.65"/>
</g>
</g>
</svg>
