<?xml version="1.0" encoding="UTF-8" standalone="no"?>
<!DOCTYPE svg PUBLIC "-//W3C//DTD SVG 1.1//EN"
 "http://www.w3.org/Graphics/SVG/1.1/DTD/svg11.dtd">
<!-- Generated by graphviz version 2.43.0 (0)
 -->
<!-- Title: VPE::VPropertyPrivate Pages: 1 -->
<!--zoomable 518 -->
<svg id="main" version="1.1" xmlns="http://www.w3.org/2000/svg" xmlns:xlink="http://www.w3.org/1999/xlink" xml:space="preserve" onload="init(evt)">
<style type="text/css"><![CDATA[
.edge:hover path { stroke: red; }
.edge:hover polygon { stroke: red; fill: red; }
]]></style>
<script type="text/javascript"><![CDATA[
var edges = document.getElementsByTagName('g');
if (edges && edges.length) {
  for (var i=0;i<edges.length;i++) {
    if (edges[i].id.substr(0,4)=='edge') {
      edges[i].setAttribute('class','edge');
    }
  }
}
]]></script>
        <defs>
                <circle id="rim" cx="0" cy="0" r="7"/>
                <circle id="rim2" cx="0" cy="0" r="3.5"/>
                <g id="zoomPlus">
                        <use xlink:href="#rim" fill="#404040">
                                <set attributeName="fill" to="#808080" begin="zoomplus.mouseover" end="zoomplus.mouseout"/>
                        </use>
                        <path d="M-4,0h8M0,-4v8" fill="none" stroke="white" stroke-width="1.5" pointer-events="none"/>
                </g>
                <g id="zoomMin">
                        <use xlink:href="#rim" fill="#404040">
                                <set attributeName="fill" to="#808080" begin="zoomminus.mouseover" end="zoomminus.mouseout"/>
                        </use>
                        <path d="M-4,0h8" fill="none" stroke="white" stroke-width="1.5" pointer-events="none"/>
                </g>
                <g id="dirArrow">
                        <path fill="none" stroke="white" stroke-width="1.5" d="M0,-3.0v7 M-2.5,-0.5L0,-3.0L2.5,-0.5"/>
                </g>
               <g id="resetDef">
                       <use xlink:href="#rim2" fill="#404040">
                               <set attributeName="fill" to="#808080" begin="reset.mouseover" end="reset.mouseout"/>
                       </use>
               </g>
        </defs>

<script type="text/javascript">
var viewWidth = 218;
var viewHeight = 518;
var sectionId = 'dynsection-1';
</script>
<script xlink:href="../../svgpan.js"/>
<svg id="graph" class="graph">
<g id="viewport">
<title>VPE::VPropertyPrivate</title>
<polygon fill="white" stroke="transparent" points="-4,4 -4,-514 213.5,-514 213.5,4 -4,4"/>
<!-- Node1 -->
<g id="node1" class="node">
<title>Node1</title>
<g id="a_node1"><a xlink:title=" ">
<polygon fill="#bfbfbf" stroke="black" points="74,-237.5 74,-404.5 200,-404.5 200,-237.5 74,-237.5"/>
<text text-anchor="middle" x="137" y="-392.5" font-family="Helvetica,sans-Serif" font-size="10.00">VPE::VPropertyPrivate</text>
<polyline fill="none" stroke="black" points="74,-385.5 200,-385.5 "/>
<text text-anchor="start" x="82" y="-373.5" font-family="Helvetica,sans-Serif" font-size="10.00">+ VariantValue</text>
<text text-anchor="start" x="82" y="-362.5" font-family="Helvetica,sans-Serif" font-size="10.00">+ Name</text>
<text text-anchor="start" x="82" y="-351.5" font-family="Helvetica,sans-Serif" font-size="10.00">+ Description</text>
<text text-anchor="start" x="82" y="-340.5" font-family="Helvetica,sans-Serif" font-size="10.00">+ IsEmpty</text>
<text text-anchor="start" x="82" y="-329.5" font-family="Helvetica,sans-Serif" font-size="10.00">+ PropertyVariantType</text>
<text text-anchor="start" x="82" y="-318.5" font-family="Helvetica,sans-Serif" font-size="10.00">+ updateParent</text>
<text text-anchor="start" x="82" y="-307.5" font-family="Helvetica,sans-Serif" font-size="10.00">+ UpdateChildren</text>
<text text-anchor="start" x="82" y="-296.5" font-family="Helvetica,sans-Serif" font-size="10.00">+ editor</text>
<text text-anchor="start" x="82" y="-285.5" font-family="Helvetica,sans-Serif" font-size="10.00">+ type</text>
<polyline fill="none" stroke="black" points="74,-278.5 200,-278.5 "/>
<text text-anchor="start" x="82" y="-266.5" font-family="Helvetica,sans-Serif" font-size="10.00">+ VPropertyPrivate()</text>
<text text-anchor="start" x="82" y="-255.5" font-family="Helvetica,sans-Serif" font-size="10.00">+ VPropertyPrivate()</text>
<text text-anchor="start" x="82" y="-244.5" font-family="Helvetica,sans-Serif" font-size="10.00">+ ~VPropertyPrivate()</text>
</a>
</g>
</g>
<!-- Node3 -->
<g id="node3" class="node">
<title>Node3</title>
<g id="a_node3"><a xlink:href="../../db/df9/classVPE_1_1VProperty.html" target="_top" xlink:title=" ">
<polygon fill="white" stroke="black" points="13,-0.5 13,-189.5 141,-189.5 141,-0.5 13,-0.5"/>
<text text-anchor="middle" x="77" y="-177.5" font-family="Helvetica,sans-Serif" font-size="10.00">VPE::VProperty</text>
<polyline fill="none" stroke="black" points="13,-170.5 141,-170.5 "/>
<text text-anchor="middle" x="77" y="-158.5" font-family="Helvetica,sans-Serif" font-size="10.00"> </text>
<polyline fill="none" stroke="black" points="13,-151.5 141,-151.5 "/>
<text text-anchor="start" x="21" y="-139.5" font-family="Helvetica,sans-Serif" font-size="10.00">+ VProperty()</text>
<text text-anchor="start" x="21" y="-128.5" font-family="Helvetica,sans-Serif" font-size="10.00">+ ~VProperty()</text>
<text text-anchor="start" x="21" y="-117.5" font-family="Helvetica,sans-Serif" font-size="10.00">+ type()</text>
<text text-anchor="start" x="21" y="-106.5" font-family="Helvetica,sans-Serif" font-size="10.00">+ data()</text>
<text text-anchor="start" x="21" y="-95.5" font-family="Helvetica,sans-Serif" font-size="10.00">+ setData()</text>
<text text-anchor="start" x="21" y="-84.5" font-family="Helvetica,sans-Serif" font-size="10.00">+ paint()</text>
<text text-anchor="start" x="21" y="-73.5" font-family="Helvetica,sans-Serif" font-size="10.00">+ createEditor()</text>
<text text-anchor="start" x="21" y="-62.5" font-family="Helvetica,sans-Serif" font-size="10.00">+ setEditorData()</text>
<text text-anchor="start" x="21" y="-51.5" font-family="Helvetica,sans-Serif" font-size="10.00">+ getEditorData()</text>
<text text-anchor="start" x="21" y="-40.5" font-family="Helvetica,sans-Serif" font-size="10.00">+ flags()</text>
<text text-anchor="start" x="21" y="-29.5" font-family="Helvetica,sans-Serif" font-size="10.00">and 29 more...</text>
<text text-anchor="start" x="21" y="-18.5" font-family="Helvetica,sans-Serif" font-size="10.00">+ childValueChanged()</text>
<text text-anchor="start" x="21" y="-7.5" font-family="Helvetica,sans-Serif" font-size="10.00"># VProperty()</text>
</a>
</g>
</g>
<!-- Node1&#45;&gt;Node3 -->
<g id="edge4" class="edge">
<title>Node1&#45;&gt;Node3</title>
<path fill="none" stroke="#404040" d="M80.63,-237.36C78.02,-231.31 75.76,-225.16 74,-219 72.41,-213.45 71.19,-207.71 70.28,-201.86"/>
<polygon fill="none" stroke="#404040" points="70.26,-201.69 65.57,-196.21 68.82,-189.77 73.51,-195.25 70.26,-201.69"/>
<text text-anchor="middle" x="92.5" y="-211" font-family="Helvetica,sans-Serif" font-size="10.00"> #d_ptr</text>
</g>
<!-- Node2 -->
<g id="node2" class="node">
<title>Node2</title>
<g id="a_node2"><a xlink:href="../../d1/d4a/classQList.html" target="_top" xlink:title=" ">
<polygon fill="white" stroke="black" points="64.5,-452.5 64.5,-509.5 209.5,-509.5 209.5,-452.5 64.5,-452.5"/>
<text text-anchor="middle" x="137" y="-497.5" font-family="Helvetica,sans-Serif" font-size="10.00">QList&lt; VPE::VProperty * &gt;</text>
<polyline fill="none" stroke="black" points="64.5,-490.5 209.5,-490.5 "/>
<text text-anchor="middle" x="137" y="-478.5" font-family="Helvetica,sans-Serif" font-size="10.00"> </text>
<polyline fill="none" stroke="black" points="64.5,-471.5 209.5,-471.5 "/>
<text text-anchor="middle" x="137" y="-459.5" font-family="Helvetica,sans-Serif" font-size="10.00"> </text>
</a>
</g>
</g>
<!-- Node2&#45;&gt;Node1 -->
<g id="edge1" class="edge">
<title>Node2&#45;&gt;Node1</title>
<path fill="none" stroke="#404040" d="M137,-452.48C137,-442.12 137,-429.67 137,-416.63"/>
<polygon fill="none" stroke="#404040" points="137,-416.54 133,-410.54 137,-404.54 141,-410.54 137,-416.54"/>
<text text-anchor="middle" x="163" y="-426" font-family="Helvetica,sans-Serif" font-size="10.00"> +Children</text>
</g>
<!-- Node3&#45;&gt;Node1 -->
<g id="edge2" class="edge">
<title>Node3&#45;&gt;Node1</title>
<path fill="none" stroke="#404040" d="M109.76,-189.52C111.62,-195.75 113.39,-201.95 115,-208 116.5,-213.63 117.95,-219.44 119.33,-225.32"/>
<polygon fill="none" stroke="#404040" points="119.43,-225.74 124.65,-230.71 122.08,-237.44 116.85,-232.48 119.43,-225.74"/>
<text text-anchor="middle" x="138.5" y="-211" font-family="Helvetica,sans-Serif" font-size="10.00"> +Parent</text>
</g>
<!-- Node4 -->
<g id="node4" class="node">
<title>Node4</title>
<g id="a_node4"><a xlink:title=" ">
<polygon fill="white" stroke="#bfbfbf" points="0,-292.5 0,-349.5 56,-349.5 56,-292.5 0,-292.5"/>
<text text-anchor="middle" x="28" y="-337.5" font-family="Helvetica,sans-Serif" font-size="10.00">QObject</text>
<polyline fill="none" stroke="#bfbfbf" points="0,-330.5 56,-330.5 "/>
<text text-anchor="middle" x="28" y="-318.5" font-family="Helvetica,sans-Serif" font-size="10.00"> </text>
<polyline fill="none" stroke="#bfbfbf" points="0,-311.5 56,-311.5 "/>
<text text-anchor="middle" x="28" y="-299.5" font-family="Helvetica,sans-Serif" font-size="10.00"> </text>
</a>
</g>
</g>
<!-- Node4&#45;&gt;Node3 -->
<g id="edge3" class="edge">
<title>Node4&#45;&gt;Node3</title>
<path fill="none" stroke="midnightblue" d="M36.28,-282.15C41.83,-256.76 49.4,-222.15 56.51,-189.66"/>
<polygon fill="none" stroke="midnightblue" points="32.82,-281.57 34.11,-292.08 39.66,-283.06 32.82,-281.57"/>
</g>
</g>
</svg>
        <g id="navigator" transform="translate(0 0)" fill="#404254">
                <rect fill="#f2f5e9" fill-opacity="0.5" stroke="#606060" stroke-width=".5" x="0" y="0" width="60" height="60"/>
                <use id="zoomplus" xlink:href="#zoomPlus" x="17" y="9" onmousedown="handleZoom(evt,'in')"/>
                <use id="zoomminus" xlink:href="#zoomMin" x="42" y="9" onmousedown="handleZoom(evt,'out')"/>
                <use id="reset" xlink:href="#resetDef" x="30" y="36" onmousedown="handleReset()"/>
                <g id="arrowUp" xlink:href="#dirArrow" transform="translate(30 24)" onmousedown="handlePan(0,-1)">
                  <use xlink:href="#rim" fill="#404040">
                        <set attributeName="fill" to="#808080" begin="arrowUp.mouseover" end="arrowUp.mouseout"/>
                  </use>
                  <path fill="none" stroke="white" stroke-width="1.5" d="M0,-3.0v7 M-2.5,-0.5L0,-3.0L2.5,-0.5"/>
                </g>
                <g id="arrowRight" xlink:href="#dirArrow" transform="rotate(90) translate(36 -43)" onmousedown="handlePan(1,0)">
                  <use xlink:href="#rim" fill="#404040">
                        <set attributeName="fill" to="#808080" begin="arrowRight.mouseover" end="arrowRight.mouseout"/>
                  </use>
                  <path fill="none" stroke="white" stroke-width="1.5" d="M0,-3.0v7 M-2.5,-0.5L0,-3.0L2.5,-0.5"/>
                </g>
                <g id="arrowDown" xlink:href="#dirArrow" transform="rotate(180) translate(-30 -48)" onmousedown="handlePan(0,1)">
                  <use xlink:href="#rim" fill="#404040">
                        <set attributeName="fill" to="#808080" begin="arrowDown.mouseover" end="arrowDown.mouseout"/>
                  </use>
                  <path fill="none" stroke="white" stroke-width="1.5" d="M0,-3.0v7 M-2.5,-0.5L0,-3.0L2.5,-0.5"/>
                </g>
                <g id="arrowLeft" xlink:href="#dirArrow" transform="rotate(270) translate(-36 17)" onmousedown="handlePan(-1,0)">
                  <use xlink:href="#rim" fill="#404040">
                        <set attributeName="fill" to="#808080" begin="arrowLeft.mouseover" end="arrowLeft.mouseout"/>
                  </use>
                  <path fill="none" stroke="white" stroke-width="1.5" d="M0,-3.0v7 M-2.5,-0.5L0,-3.0L2.5,-0.5"/>
                </g>
        </g>
        <svg viewBox="0 0 15 15" width="100%" height="30px" preserveAspectRatio="xMaxYMin meet">
         <g id="arrow_out" transform="scale(0.3 0.3)">
          <a xlink:href="classVPE_1_1VPropertyPrivate__coll__graph_org.svg" target="_base">
           <rect id="button" ry="5" rx="5" y="6" x="6" height="38" width="38"
                fill="#f2f5e9" fill-opacity="0.5" stroke="#606060" stroke-width="1.0"/>
           <path id="arrow"
             d="M 11.500037,31.436501 C 11.940474,20.09759 22.043105,11.32322 32.158766,21.979434 L 37.068811,17.246167 C 37.068811,17.246167 37.088388,32 37.088388,32 L 22.160133,31.978069 C 22.160133,31.978069 26.997745,27.140456 26.997745,27.140456 C 18.528582,18.264221 13.291696,25.230495 11.500037,31.436501 z"
             style="fill:#404040;"/>
          </a>
         </g>
        </svg>
</svg>
