<?xml version="1.0" encoding="UTF-8" standalone="no"?>
<!DOCTYPE svg PUBLIC "-//W3C//DTD SVG 1.1//EN"
 "http://www.w3.org/Graphics/SVG/1.1/DTD/svg11.dtd">
<!-- Generated by graphviz version 2.43.0 (0)
 -->
<!-- Title: VPE::VPropertyModelPrivate Pages: 1 -->
<svg width="288pt" height="546pt"
 viewBox="0.00 0.00 288.00 546.00" xmlns="http://www.w3.org/2000/svg" xmlns:xlink="http://www.w3.org/1999/xlink">
<g id="graph0" class="graph" transform="scale(1 1) rotate(0) translate(4 542)">
<title>VPE::VPropertyModelPrivate</title>
<polygon fill="white" stroke="transparent" points="-4,4 -4,-542 284,-542 284,4 -4,4"/>
<!-- Node1 -->
<g id="node1" class="node">
<title>Node1</title>
<g id="a_node1"><a xlink:title=" ">
<polygon fill="#bfbfbf" stroke="black" points="69.5,-0.5 69.5,-68.5 223.5,-68.5 223.5,-0.5 69.5,-0.5"/>
<text text-anchor="middle" x="146.5" y="-56.5" font-family="Helvetica,sans-Serif" font-size="10.00">VPE::VPropertyModelPrivate</text>
<polyline fill="none" stroke="black" points="69.5,-49.5 223.5,-49.5 "/>
<text text-anchor="start" x="77.5" y="-37.5" font-family="Helvetica,sans-Serif" font-size="10.00">+ HeadlineProperty</text>
<text text-anchor="start" x="77.5" y="-26.5" font-family="Helvetica,sans-Serif" font-size="10.00">+ HeadlineValue</text>
<polyline fill="none" stroke="black" points="69.5,-19.5 223.5,-19.5 "/>
<text text-anchor="start" x="77.5" y="-7.5" font-family="Helvetica,sans-Serif" font-size="10.00">+ VPropertyModelPrivate()</text>
</a>
</g>
</g>
<!-- Node2 -->
<g id="node2" class="node">
<title>Node2</title>
<g id="a_node2"><a xlink:href="../../d9/d51/classVPE_1_1VPropertySet.html" target="_top" xlink:title="VPropertySet is a simple class for managing a set of properties. If you don&#39;t need all the Model&#45;func...">
<polygon fill="white" stroke="black" points="69,-116.5 69,-316.5 224,-316.5 224,-116.5 69,-116.5"/>
<text text-anchor="middle" x="146.5" y="-304.5" font-family="Helvetica,sans-Serif" font-size="10.00">VPE::VPropertySet</text>
<polyline fill="none" stroke="black" points="69,-297.5 224,-297.5 "/>
<text text-anchor="middle" x="146.5" y="-285.5" font-family="Helvetica,sans-Serif" font-size="10.00"> </text>
<polyline fill="none" stroke="black" points="69,-278.5 224,-278.5 "/>
<text text-anchor="start" x="77" y="-266.5" font-family="Helvetica,sans-Serif" font-size="10.00">+ VPropertySet()</text>
<text text-anchor="start" x="77" y="-255.5" font-family="Helvetica,sans-Serif" font-size="10.00">+ ~VPropertySet()</text>
<text text-anchor="start" x="77" y="-244.5" font-family="Helvetica,sans-Serif" font-size="10.00">+ addProperty()</text>
<text text-anchor="start" x="77" y="-233.5" font-family="Helvetica,sans-Serif" font-size="10.00">+ addProperty()</text>
<text text-anchor="start" x="77" y="-222.5" font-family="Helvetica,sans-Serif" font-size="10.00">+ hasProperty()</text>
<text text-anchor="start" x="77" y="-211.5" font-family="Helvetica,sans-Serif" font-size="10.00">+ getProperty()</text>
<text text-anchor="start" x="77" y="-200.5" font-family="Helvetica,sans-Serif" font-size="10.00">+ takeProperty()</text>
<text text-anchor="start" x="77" y="-189.5" font-family="Helvetica,sans-Serif" font-size="10.00">+ removeProperty()</text>
<text text-anchor="start" x="77" y="-178.5" font-family="Helvetica,sans-Serif" font-size="10.00">+ removeProperty()</text>
<text text-anchor="start" x="77" y="-167.5" font-family="Helvetica,sans-Serif" font-size="10.00">+ count()</text>
<text text-anchor="start" x="77" y="-156.5" font-family="Helvetica,sans-Serif" font-size="10.00">and 7 more...</text>
<text text-anchor="start" x="77" y="-145.5" font-family="Helvetica,sans-Serif" font-size="10.00"># hasProperty()</text>
<text text-anchor="start" x="77" y="-134.5" font-family="Helvetica,sans-Serif" font-size="10.00"># cloneProperty()</text>
<text text-anchor="start" x="77" y="-123.5" font-family="Helvetica,sans-Serif" font-size="10.00"># removePropertyFromSet()</text>
</a>
</g>
</g>
<!-- Node2&#45;&gt;Node1 -->
<g id="edge1" class="edge">
<title>Node2&#45;&gt;Node1</title>
<path fill="none" stroke="#404040" d="M146.5,-116.29C146.5,-103.98 146.5,-91.92 146.5,-81.01"/>
<polygon fill="none" stroke="#404040" points="146.5,-80.8 142.5,-74.8 146.5,-68.8 150.5,-74.8 146.5,-80.8"/>
<text text-anchor="middle" x="177" y="-90" font-family="Helvetica,sans-Serif" font-size="10.00"> +Properties</text>
</g>
<!-- Node3 -->
<g id="node3" class="node">
<title>Node3</title>
<g id="a_node3"><a xlink:href="../../d7/d5d/classVPE_1_1VPropertySetPrivate.html" target="_top" xlink:title=" ">
<polygon fill="white" stroke="black" points="76.5,-364.5 76.5,-421.5 216.5,-421.5 216.5,-364.5 76.5,-364.5"/>
<text text-anchor="middle" x="146.5" y="-409.5" font-family="Helvetica,sans-Serif" font-size="10.00">VPE::VPropertySetPrivate</text>
<polyline fill="none" stroke="black" points="76.5,-402.5 216.5,-402.5 "/>
<text text-anchor="middle" x="146.5" y="-390.5" font-family="Helvetica,sans-Serif" font-size="10.00"> </text>
<polyline fill="none" stroke="black" points="76.5,-383.5 216.5,-383.5 "/>
<text text-anchor="start" x="84.5" y="-371.5" font-family="Helvetica,sans-Serif" font-size="10.00">+ VPropertySetPrivate()</text>
</a>
</g>
</g>
<!-- Node3&#45;&gt;Node2 -->
<g id="edge2" class="edge">
<title>Node3&#45;&gt;Node2</title>
<path fill="none" stroke="#404040" d="M146.5,-364.35C146.5,-354.2 146.5,-341.98 146.5,-328.98"/>
<polygon fill="none" stroke="#404040" points="146.5,-328.87 142.5,-322.87 146.5,-316.87 150.5,-322.87 146.5,-328.87"/>
<text text-anchor="middle" x="165" y="-338" font-family="Helvetica,sans-Serif" font-size="10.00"> #d_ptr</text>
</g>
<!-- Node4 -->
<g id="node4" class="node">
<title>Node4</title>
<g id="a_node4"><a xlink:href="../../d1/d4a/classQList.html" target="_top" xlink:title=" ">
<polygon fill="white" stroke="black" points="0,-475 0,-532 145,-532 145,-475 0,-475"/>
<text text-anchor="middle" x="72.5" y="-520" font-family="Helvetica,sans-Serif" font-size="10.00">QList&lt; VPE::VProperty * &gt;</text>
<polyline fill="none" stroke="black" points="0,-513 145,-513 "/>
<text text-anchor="middle" x="72.5" y="-501" font-family="Helvetica,sans-Serif" font-size="10.00"> </text>
<polyline fill="none" stroke="black" points="0,-494 145,-494 "/>
<text text-anchor="middle" x="72.5" y="-482" font-family="Helvetica,sans-Serif" font-size="10.00"> </text>
</a>
</g>
</g>
<!-- Node4&#45;&gt;Node3 -->
<g id="edge3" class="edge">
<title>Node4&#45;&gt;Node3</title>
<path fill="none" stroke="#404040" d="M91.36,-474.84C100.32,-461.7 111.17,-445.81 120.86,-431.59"/>
<polygon fill="none" stroke="#404040" points="120.91,-431.52 120.98,-424.31 127.67,-421.61 127.59,-428.82 120.91,-431.52"/>
<text text-anchor="middle" x="156.5" y="-443" font-family="Helvetica,sans-Serif" font-size="10.00"> +RootProperties</text>
</g>
<!-- Node5 -->
<g id="node5" class="node">
<title>Node5</title>
<g id="a_node5"><a xlink:href="../../d0/d4c/classQMap.html" target="_top" xlink:title=" ">
<polygon fill="white" stroke="black" points="163,-469.5 163,-537.5 280,-537.5 280,-469.5 163,-469.5"/>
<text text-anchor="start" x="171" y="-525.5" font-family="Helvetica,sans-Serif" font-size="10.00">QMap&lt; QString, VPE</text>
<text text-anchor="middle" x="221.5" y="-514.5" font-family="Helvetica,sans-Serif" font-size="10.00">::VProperty * &gt;</text>
<polyline fill="none" stroke="black" points="163,-507.5 280,-507.5 "/>
<text text-anchor="middle" x="221.5" y="-495.5" font-family="Helvetica,sans-Serif" font-size="10.00"> </text>
<polyline fill="none" stroke="black" points="163,-488.5 280,-488.5 "/>
<text text-anchor="middle" x="221.5" y="-476.5" font-family="Helvetica,sans-Serif" font-size="10.00"> </text>
</a>
</g>
</g>
<!-- Node5&#45;&gt;Node3 -->
<g id="edge4" class="edge">
<title>Node5&#45;&gt;Node3</title>
<path fill="none" stroke="#404040" d="M213.31,-469.19C209.97,-459.28 205.45,-448.75 199.5,-440 197.27,-436.73 194.76,-433.54 192.06,-430.48"/>
<polygon fill="none" stroke="#404040" points="191.89,-430.3 184.84,-428.77 183.55,-421.67 190.59,-423.21 191.89,-430.3"/>
<text text-anchor="middle" x="236" y="-443" font-family="Helvetica,sans-Serif" font-size="10.00"> +Properties</text>
</g>
</g>
</svg>
