<?xml version="1.0" encoding="UTF-8" standalone="no"?>
<!DOCTYPE svg PUBLIC "-//W3C//DTD SVG 1.1//EN"
 "http://www.w3.org/Graphics/SVG/1.1/DTD/svg11.dtd">
<!-- Generated by graphviz version 2.43.0 (0)
 -->
<!-- Title: src/libs/xerces&#45;c/msvc/include/xercesc/dom/impl/DOMElementImpl.hpp Pages: 1 -->
<svg width="1179pt" height="229pt"
 viewBox="0.00 0.00 1179.00 229.00" xmlns="http://www.w3.org/2000/svg" xmlns:xlink="http://www.w3.org/1999/xlink">
<g id="graph0" class="graph" transform="scale(1 1) rotate(0) translate(4 225)">
<title>src/libs/xerces&#45;c/msvc/include/xercesc/dom/impl/DOMElementImpl.hpp</title>
<polygon fill="white" stroke="transparent" points="-4,4 -4,-225 1175,-225 1175,4 -4,4"/>
<!-- Node1 -->
<g id="node1" class="node">
<title>Node1</title>
<g id="a_node1"><a xlink:title=" ">
<polygon fill="#bfbfbf" stroke="black" points="507.5,-179.5 507.5,-220.5 651.5,-220.5 651.5,-179.5 507.5,-179.5"/>
<text text-anchor="start" x="515.5" y="-208.5" font-family="Helvetica,sans-Serif" font-size="10.00">src/libs/xerces&#45;c/msvc</text>
<text text-anchor="start" x="515.5" y="-197.5" font-family="Helvetica,sans-Serif" font-size="10.00">/include/xercesc/dom/impl</text>
<text text-anchor="middle" x="579.5" y="-186.5" font-family="Helvetica,sans-Serif" font-size="10.00">/DOMElementImpl.hpp</text>
</a>
</g>
</g>
<!-- Node2 -->
<g id="node2" class="node">
<title>Node2</title>
<g id="a_node2"><a xlink:title=" ">
<polygon fill="white" stroke="#bfbfbf" points="459.5,-0.5 459.5,-19.5 611.5,-19.5 611.5,-0.5 459.5,-0.5"/>
<text text-anchor="middle" x="535.5" y="-7.5" font-family="Helvetica,sans-Serif" font-size="10.00">xercesc/util/XercesDefs.hpp</text>
</a>
</g>
</g>
<!-- Node1&#45;&gt;Node2 -->
<g id="edge1" class="edge">
<title>Node1&#45;&gt;Node2</title>
<path fill="none" stroke="midnightblue" d="M569.09,-179.29C563.95,-168.78 558.11,-155.48 554.5,-143 543.12,-103.65 538.4,-55.65 536.56,-29.75"/>
<polygon fill="midnightblue" stroke="midnightblue" points="540.04,-29.27 535.91,-19.51 533.05,-29.71 540.04,-29.27"/>
</g>
<!-- Node3 -->
<g id="node3" class="node">
<title>Node3</title>
<g id="a_node3"><a xlink:title=" ">
<polygon fill="white" stroke="#bfbfbf" points="839.5,-123.5 839.5,-142.5 985.5,-142.5 985.5,-123.5 839.5,-123.5"/>
<text text-anchor="middle" x="912.5" y="-130.5" font-family="Helvetica,sans-Serif" font-size="10.00">xercesc/util/XMLString.hpp</text>
</a>
</g>
</g>
<!-- Node1&#45;&gt;Node3 -->
<g id="edge2" class="edge">
<title>Node1&#45;&gt;Node3</title>
<path fill="none" stroke="midnightblue" d="M651.76,-184.9C714.06,-172.73 802.62,-155.45 858.82,-144.48"/>
<polygon fill="midnightblue" stroke="midnightblue" points="859.77,-147.86 868.92,-142.51 858.43,-140.99 859.77,-147.86"/>
</g>
<!-- Node4 -->
<g id="node4" class="node">
<title>Node4</title>
<g id="a_node4"><a xlink:title=" ">
<polygon fill="white" stroke="#bfbfbf" points="1004,-123.5 1004,-142.5 1171,-142.5 1171,-123.5 1004,-123.5"/>
<text text-anchor="middle" x="1087.5" y="-130.5" font-family="Helvetica,sans-Serif" font-size="10.00">xercesc/dom/DOMElement.hpp</text>
</a>
</g>
</g>
<!-- Node1&#45;&gt;Node4 -->
<g id="edge3" class="edge">
<title>Node1&#45;&gt;Node4</title>
<path fill="none" stroke="midnightblue" d="M651.74,-189.76C746.85,-177.59 913.37,-156.28 1010.7,-143.83"/>
<polygon fill="midnightblue" stroke="midnightblue" points="1011.29,-147.28 1020.76,-142.54 1010.4,-140.34 1011.29,-147.28"/>
</g>
<!-- Node5 -->
<g id="node5" class="node">
<title>Node5</title>
<g id="a_node5"><a xlink:href="../../da/d48/msvc_2include_2xercesc_2dom_2impl_2DOMNodeBase_8hpp.html" target="_top" xlink:title=" ">
<polygon fill="white" stroke="black" points="0,-62 0,-81 111,-81 111,-62 0,-62"/>
<text text-anchor="middle" x="55.5" y="-69" font-family="Helvetica,sans-Serif" font-size="10.00">DOMNodeBase.hpp</text>
</a>
</g>
</g>
<!-- Node1&#45;&gt;Node5 -->
<g id="edge4" class="edge">
<title>Node1&#45;&gt;Node5</title>
<path fill="none" stroke="midnightblue" d="M507.4,-183.58C457.16,-172.67 388.62,-157.47 328.5,-143 246.23,-123.21 150.59,-98 97.15,-83.71"/>
<polygon fill="midnightblue" stroke="midnightblue" points="97.92,-80.3 87.36,-81.09 96.11,-87.06 97.92,-80.3"/>
</g>
<!-- Node6 -->
<g id="node6" class="node">
<title>Node6</title>
<g id="a_node6"><a xlink:href="../../de/d99/msvc_2include_2xercesc_2dom_2impl_2DOMChildNode_8hpp.html" target="_top" xlink:title=" ">
<polygon fill="white" stroke="black" points="129.5,-62 129.5,-81 241.5,-81 241.5,-62 129.5,-62"/>
<text text-anchor="middle" x="185.5" y="-69" font-family="Helvetica,sans-Serif" font-size="10.00">DOMChildNode.hpp</text>
</a>
</g>
</g>
<!-- Node1&#45;&gt;Node6 -->
<g id="edge6" class="edge">
<title>Node1&#45;&gt;Node6</title>
<path fill="none" stroke="midnightblue" d="M509.85,-179.47C473.54,-169.06 428.49,-155.8 388.5,-143 328.06,-123.66 258.33,-98.9 218.32,-84.46"/>
<polygon fill="midnightblue" stroke="midnightblue" points="219.41,-81.13 208.82,-81.02 217.03,-87.71 219.41,-81.13"/>
</g>
<!-- Node7 -->
<g id="node7" class="node">
<title>Node7</title>
<g id="a_node7"><a xlink:href="../../dc/dd7/msvc_2include_2xercesc_2dom_2impl_2DOMNodeImpl_8hpp.html" target="_top" xlink:title=" ">
<polygon fill="white" stroke="black" points="398,-123.5 398,-142.5 507,-142.5 507,-123.5 398,-123.5"/>
<text text-anchor="middle" x="452.5" y="-130.5" font-family="Helvetica,sans-Serif" font-size="10.00">DOMNodeImpl.hpp</text>
</a>
</g>
</g>
<!-- Node1&#45;&gt;Node7 -->
<g id="edge8" class="edge">
<title>Node1&#45;&gt;Node7</title>
<path fill="none" stroke="midnightblue" d="M541.4,-179.5C521.18,-169.15 496.84,-156.69 478.75,-147.43"/>
<polygon fill="midnightblue" stroke="midnightblue" points="479.9,-144.09 469.41,-142.65 476.71,-150.32 479.9,-144.09"/>
</g>
<!-- Node9 -->
<g id="node9" class="node">
<title>Node9</title>
<g id="a_node9"><a xlink:href="../../dd/d39/msvc_2include_2xercesc_2dom_2impl_2DOMParentNode_8hpp.html" target="_top" xlink:title=" ">
<polygon fill="white" stroke="black" points="703.5,-123.5 703.5,-142.5 821.5,-142.5 821.5,-123.5 703.5,-123.5"/>
<text text-anchor="middle" x="762.5" y="-130.5" font-family="Helvetica,sans-Serif" font-size="10.00">DOMParentNode.hpp</text>
</a>
</g>
</g>
<!-- Node1&#45;&gt;Node9 -->
<g id="edge11" class="edge">
<title>Node1&#45;&gt;Node9</title>
<path fill="none" stroke="midnightblue" d="M634.41,-179.5C665.03,-168.62 702.19,-155.42 728.59,-146.05"/>
<polygon fill="midnightblue" stroke="midnightblue" points="729.89,-149.3 738.14,-142.65 727.55,-142.7 729.89,-149.3"/>
</g>
<!-- Node12 -->
<g id="node12" class="node">
<title>Node12</title>
<g id="a_node12"><a xlink:href="../../df/df0/msvc_2include_2xercesc_2dom_2impl_2DOMAttrMapImpl_8hpp.html" target="_top" xlink:title=" ">
<polygon fill="white" stroke="black" points="563.5,-123.5 563.5,-142.5 685.5,-142.5 685.5,-123.5 563.5,-123.5"/>
<text text-anchor="middle" x="624.5" y="-130.5" font-family="Helvetica,sans-Serif" font-size="10.00">DOMAttrMapImpl.hpp</text>
</a>
</g>
</g>
<!-- Node1&#45;&gt;Node12 -->
<g id="edge16" class="edge">
<title>Node1&#45;&gt;Node12</title>
<path fill="none" stroke="midnightblue" d="M593,-179.5C599.3,-170.39 606.73,-159.66 612.79,-150.91"/>
<polygon fill="midnightblue" stroke="midnightblue" points="615.7,-152.87 618.51,-142.65 609.94,-148.88 615.7,-152.87"/>
</g>
<!-- Node5&#45;&gt;Node2 -->
<g id="edge5" class="edge">
<title>Node5&#45;&gt;Node2</title>
<path fill="none" stroke="midnightblue" d="M90.44,-61.95C100.14,-59.79 110.69,-57.62 120.5,-56 233.53,-37.33 365.2,-24.56 449.4,-17.52"/>
<polygon fill="midnightblue" stroke="midnightblue" points="449.75,-21 459.43,-16.69 449.17,-14.03 449.75,-21"/>
</g>
<!-- Node6&#45;&gt;Node2 -->
<g id="edge7" class="edge">
<title>Node6&#45;&gt;Node2</title>
<path fill="none" stroke="midnightblue" d="M221.86,-61.97C231.17,-59.9 241.19,-57.77 250.5,-56 323.03,-42.2 406.53,-29.37 464.31,-20.97"/>
<polygon fill="midnightblue" stroke="midnightblue" points="465.03,-24.4 474.43,-19.51 464.03,-17.48 465.03,-24.4"/>
</g>
<!-- Node7&#45;&gt;Node2 -->
<g id="edge9" class="edge">
<title>Node7&#45;&gt;Node2</title>
<path fill="none" stroke="midnightblue" d="M458.47,-123.3C472.11,-103.41 505.76,-54.35 523.74,-28.15"/>
<polygon fill="midnightblue" stroke="midnightblue" points="526.81,-29.85 529.58,-19.62 521.04,-25.89 526.81,-29.85"/>
</g>
<!-- Node8 -->
<g id="node8" class="node">
<title>Node8</title>
<g id="a_node8"><a xlink:title=" ">
<polygon fill="white" stroke="#bfbfbf" points="260,-62 260,-81 469,-81 469,-62 260,-62"/>
<text text-anchor="middle" x="364.5" y="-69" font-family="Helvetica,sans-Serif" font-size="10.00">xercesc/dom/DOMUserDataHandler.hpp</text>
</a>
</g>
</g>
<!-- Node7&#45;&gt;Node8 -->
<g id="edge10" class="edge">
<title>Node7&#45;&gt;Node8</title>
<path fill="none" stroke="midnightblue" d="M439.89,-123.48C425.78,-113.93 402.67,-98.31 385.75,-86.87"/>
<polygon fill="midnightblue" stroke="midnightblue" points="387.33,-83.71 377.08,-81.01 383.41,-89.51 387.33,-83.71"/>
</g>
<!-- Node9&#45;&gt;Node2 -->
<g id="edge12" class="edge">
<title>Node9&#45;&gt;Node2</title>
<path fill="none" stroke="midnightblue" d="M768.06,-123.36C777.19,-107.98 792.79,-75.61 776.5,-56 756.86,-32.35 682.64,-21.06 621.7,-15.72"/>
<polygon fill="midnightblue" stroke="midnightblue" points="621.91,-12.22 611.66,-14.88 621.33,-19.2 621.91,-12.22"/>
</g>
<!-- Node10 -->
<g id="node10" class="node">
<title>Node10</title>
<g id="a_node10"><a xlink:href="../../d9/d24/msvc_2include_2xercesc_2dom_2impl_2DOMNodeListImpl_8hpp.html" target="_top" xlink:title=" ">
<polygon fill="white" stroke="black" points="823.5,-62 823.5,-81 949.5,-81 949.5,-62 823.5,-62"/>
<text text-anchor="middle" x="886.5" y="-69" font-family="Helvetica,sans-Serif" font-size="10.00">DOMNodeListImpl.hpp</text>
</a>
</g>
</g>
<!-- Node9&#45;&gt;Node10 -->
<g id="edge13" class="edge">
<title>Node9&#45;&gt;Node10</title>
<path fill="none" stroke="midnightblue" d="M780.27,-123.48C800.98,-113.53 835.45,-96.99 859.49,-85.46"/>
<polygon fill="midnightblue" stroke="midnightblue" points="861.27,-88.49 868.77,-81.01 858.24,-82.18 861.27,-88.49"/>
</g>
<!-- Node10&#45;&gt;Node2 -->
<g id="edge14" class="edge">
<title>Node10&#45;&gt;Node2</title>
<path fill="none" stroke="midnightblue" d="M842.15,-61.97C831.47,-59.96 820.08,-57.87 809.5,-56 737.77,-43.36 655.26,-29.96 599.69,-21.11"/>
<polygon fill="midnightblue" stroke="midnightblue" points="600.06,-17.62 589.63,-19.51 598.96,-24.54 600.06,-17.62"/>
</g>
<!-- Node11 -->
<g id="node11" class="node">
<title>Node11</title>
<g id="a_node11"><a xlink:title=" ">
<polygon fill="white" stroke="#bfbfbf" points="802,-0.5 802,-19.5 971,-19.5 971,-0.5 802,-0.5"/>
<text text-anchor="middle" x="886.5" y="-7.5" font-family="Helvetica,sans-Serif" font-size="10.00">xercesc/dom/DOMNodeList.hpp</text>
</a>
</g>
</g>
<!-- Node10&#45;&gt;Node11 -->
<g id="edge15" class="edge">
<title>Node10&#45;&gt;Node11</title>
<path fill="none" stroke="midnightblue" d="M886.5,-61.98C886.5,-53.58 886.5,-40.48 886.5,-29.66"/>
<polygon fill="midnightblue" stroke="midnightblue" points="890,-29.51 886.5,-19.51 883,-29.51 890,-29.51"/>
</g>
<!-- Node12&#45;&gt;Node2 -->
<g id="edge17" class="edge">
<title>Node12&#45;&gt;Node2</title>
<path fill="none" stroke="midnightblue" d="M618.1,-123.3C603.41,-103.33 567.07,-53.92 547.86,-27.8"/>
<polygon fill="midnightblue" stroke="midnightblue" points="550.59,-25.6 541.84,-19.62 544.95,-29.75 550.59,-25.6"/>
</g>
<!-- Node13 -->
<g id="node13" class="node">
<title>Node13</title>
<g id="a_node13"><a xlink:title=" ">
<polygon fill="white" stroke="#bfbfbf" points="601.5,-56.5 601.5,-86.5 767.5,-86.5 767.5,-56.5 601.5,-56.5"/>
<text text-anchor="start" x="609.5" y="-74.5" font-family="Helvetica,sans-Serif" font-size="10.00">xercesc/dom/DOMNamedNode</text>
<text text-anchor="middle" x="684.5" y="-63.5" font-family="Helvetica,sans-Serif" font-size="10.00">Map.hpp</text>
</a>
</g>
</g>
<!-- Node12&#45;&gt;Node13 -->
<g id="edge18" class="edge">
<title>Node12&#45;&gt;Node13</title>
<path fill="none" stroke="midnightblue" d="M633.1,-123.48C640.92,-115.72 652.79,-103.94 663.16,-93.66"/>
<polygon fill="midnightblue" stroke="midnightblue" points="665.72,-96.05 670.36,-86.52 660.79,-91.08 665.72,-96.05"/>
</g>
</g>
</svg>
