<?xml version="1.0" encoding="UTF-8" standalone="no"?>
<!DOCTYPE svg PUBLIC "-//W3C//DTD SVG 1.1//EN"
 "http://www.w3.org/Graphics/SVG/1.1/DTD/svg11.dtd">
<!-- Generated by graphviz version 2.43.0 (0)
 -->
<!-- Title: src/libs/ifc/ifcdef.cpp Pages: 1 -->
<!--zoomable 252 -->
<svg id="main" version="1.1" xmlns="http://www.w3.org/2000/svg" xmlns:xlink="http://www.w3.org/1999/xlink" xml:space="preserve" onload="init(evt)">
<style type="text/css"><![CDATA[
.edge:hover path { stroke: red; }
.edge:hover polygon { stroke: red; fill: red; }
]]></style>
<script type="text/javascript"><![CDATA[
var edges = document.getElementsByTagName('g');
if (edges && edges.length) {
  for (var i=0;i<edges.length;i++) {
    if (edges[i].id.substr(0,4)=='edge') {
      edges[i].setAttribute('class','edge');
    }
  }
}
]]></script>
        <defs>
                <circle id="rim" cx="0" cy="0" r="7"/>
                <circle id="rim2" cx="0" cy="0" r="3.5"/>
                <g id="zoomPlus">
                        <use xlink:href="#rim" fill="#404040">
                                <set attributeName="fill" to="#808080" begin="zoomplus.mouseover" end="zoomplus.mouseout"/>
                        </use>
                        <path d="M-4,0h8M0,-4v8" fill="none" stroke="white" stroke-width="1.5" pointer-events="none"/>
                </g>
                <g id="zoomMin">
                        <use xlink:href="#rim" fill="#404040">
                                <set attributeName="fill" to="#808080" begin="zoomminus.mouseover" end="zoomminus.mouseout"/>
                        </use>
                        <path d="M-4,0h8" fill="none" stroke="white" stroke-width="1.5" pointer-events="none"/>
                </g>
                <g id="dirArrow">
                        <path fill="none" stroke="white" stroke-width="1.5" d="M0,-3.0v7 M-2.5,-0.5L0,-3.0L2.5,-0.5"/>
                </g>
               <g id="resetDef">
                       <use xlink:href="#rim2" fill="#404040">
                               <set attributeName="fill" to="#808080" begin="reset.mouseover" end="reset.mouseout"/>
                       </use>
               </g>
        </defs>

<script type="text/javascript">
var viewWidth = 1416;
var viewHeight = 252;
var sectionId = 'dynsection-0';
</script>
<script xlink:href="../../svgpan.js"/>
<svg id="graph" class="graph">
<g id="viewport">
<title>src/libs/ifc/ifcdef.cpp</title>
<polygon fill="white" stroke="transparent" points="-4,4 -4,-248 1412,-248 1412,4 -4,4"/>
<!-- Node1 -->
<g id="node1" class="node">
<title>Node1</title>
<g id="a_node1"><a xlink:title=" ">
<polygon fill="#bfbfbf" stroke="black" points="857.5,-224.5 857.5,-243.5 973.5,-243.5 973.5,-224.5 857.5,-224.5"/>
<text text-anchor="middle" x="915.5" y="-231.5" font-family="Helvetica,sans-Serif" font-size="10.00">src/libs/ifc/ifcdef.cpp</text>
</a>
</g>
</g>
<!-- Node2 -->
<g id="node2" class="node">
<title>Node2</title>
<g id="a_node2"><a xlink:href="../../d3/da5/ifcdef_8h.html" target="_top" xlink:title=" ">
<polygon fill="white" stroke="black" points="556,-168.5 556,-187.5 609,-187.5 609,-168.5 556,-168.5"/>
<text text-anchor="middle" x="582.5" y="-175.5" font-family="Helvetica,sans-Serif" font-size="10.00">ifcdef.h</text>
</a>
</g>
</g>
<!-- Node1&#45;&gt;Node2 -->
<g id="edge1" class="edge">
<title>Node1&#45;&gt;Node2</title>
<path fill="none" stroke="midnightblue" d="M862.74,-224.44C794.74,-213.42 678.28,-194.53 619.2,-184.95"/>
<polygon fill="midnightblue" stroke="midnightblue" points="619.63,-181.48 609.2,-183.33 618.51,-188.39 619.63,-181.48"/>
</g>
<!-- Node14 -->
<g id="node14" class="node">
<title>Node14</title>
<g id="a_node14"><a xlink:href="../../d6/dcd/diagnostic_8h.html" target="_top" xlink:title=" ">
<polygon fill="white" stroke="black" points="630,-112.5 630,-131.5 747,-131.5 747,-112.5 630,-112.5"/>
<text text-anchor="middle" x="688.5" y="-119.5" font-family="Helvetica,sans-Serif" font-size="10.00">../vmisc/diagnostic.h</text>
</a>
</g>
</g>
<!-- Node1&#45;&gt;Node14 -->
<g id="edge27" class="edge">
<title>Node1&#45;&gt;Node14</title>
<path fill="none" stroke="midnightblue" d="M857.46,-230.06C795.54,-225.57 703.4,-214.51 681.5,-188 670.8,-175.04 674.82,-155.33 680.11,-141.01"/>
<polygon fill="midnightblue" stroke="midnightblue" points="683.37,-142.29 683.99,-131.71 676.91,-139.59 683.37,-142.29"/>
</g>
<!-- Node15 -->
<g id="node15" class="node">
<title>Node15</title>
<g id="a_node15"><a xlink:title=" ">
<polygon fill="white" stroke="#bfbfbf" points="690.5,-168.5 690.5,-187.5 742.5,-187.5 742.5,-168.5 690.5,-168.5"/>
<text text-anchor="middle" x="716.5" y="-175.5" font-family="Helvetica,sans-Serif" font-size="10.00">QBrush</text>
</a>
</g>
</g>
<!-- Node1&#45;&gt;Node15 -->
<g id="edge18" class="edge">
<title>Node1&#45;&gt;Node15</title>
<path fill="none" stroke="midnightblue" d="M883.97,-224.44C848.3,-214.77 790.33,-199.03 752.81,-188.85"/>
<polygon fill="midnightblue" stroke="midnightblue" points="753.37,-185.38 742.8,-186.14 751.53,-192.13 753.37,-185.38"/>
</g>
<!-- Node16 -->
<g id="node16" class="node">
<title>Node16</title>
<g id="a_node16"><a xlink:title=" ">
<polygon fill="white" stroke="#bfbfbf" points="760.5,-168.5 760.5,-187.5 804.5,-187.5 804.5,-168.5 760.5,-168.5"/>
<text text-anchor="middle" x="782.5" y="-175.5" font-family="Helvetica,sans-Serif" font-size="10.00">QIcon</text>
</a>
</g>
</g>
<!-- Node1&#45;&gt;Node16 -->
<g id="edge19" class="edge">
<title>Node1&#45;&gt;Node16</title>
<path fill="none" stroke="midnightblue" d="M894.43,-224.44C872.44,-215.52 837.77,-201.44 812.84,-191.32"/>
<polygon fill="midnightblue" stroke="midnightblue" points="814.06,-188.04 803.48,-187.52 811.42,-194.52 814.06,-188.04"/>
</g>
<!-- Node17 -->
<g id="node17" class="node">
<title>Node17</title>
<g id="a_node17"><a xlink:title=" ">
<polygon fill="white" stroke="#bfbfbf" points="823,-168.5 823,-187.5 868,-187.5 868,-168.5 823,-168.5"/>
<text text-anchor="middle" x="845.5" y="-175.5" font-family="Helvetica,sans-Serif" font-size="10.00">QMap</text>
</a>
</g>
</g>
<!-- Node1&#45;&gt;Node17 -->
<g id="edge20" class="edge">
<title>Node1&#45;&gt;Node17</title>
<path fill="none" stroke="midnightblue" d="M904.25,-224.32C893.7,-216.18 877.7,-203.84 865.06,-194.09"/>
<polygon fill="midnightblue" stroke="midnightblue" points="867.01,-191.17 856.95,-187.83 862.73,-196.71 867.01,-191.17"/>
</g>
<!-- Node18 -->
<g id="node18" class="node">
<title>Node18</title>
<g id="a_node18"><a xlink:title=" ">
<polygon fill="white" stroke="#bfbfbf" points="886.5,-168.5 886.5,-187.5 944.5,-187.5 944.5,-168.5 886.5,-168.5"/>
<text text-anchor="middle" x="915.5" y="-175.5" font-family="Helvetica,sans-Serif" font-size="10.00">QPainter</text>
</a>
</g>
</g>
<!-- Node1&#45;&gt;Node18 -->
<g id="edge21" class="edge">
<title>Node1&#45;&gt;Node18</title>
<path fill="none" stroke="midnightblue" d="M915.5,-224.08C915.5,-217.01 915.5,-206.86 915.5,-197.99"/>
<polygon fill="midnightblue" stroke="midnightblue" points="919,-197.75 915.5,-187.75 912,-197.75 919,-197.75"/>
</g>
<!-- Node19 -->
<g id="node19" class="node">
<title>Node19</title>
<g id="a_node19"><a xlink:title=" ">
<polygon fill="white" stroke="#bfbfbf" points="962.5,-168.5 962.5,-187.5 1004.5,-187.5 1004.5,-168.5 962.5,-168.5"/>
<text text-anchor="middle" x="983.5" y="-175.5" font-family="Helvetica,sans-Serif" font-size="10.00">QPen</text>
</a>
</g>
</g>
<!-- Node1&#45;&gt;Node19 -->
<g id="edge22" class="edge">
<title>Node1&#45;&gt;Node19</title>
<path fill="none" stroke="midnightblue" d="M926.43,-224.32C936.67,-216.18 952.22,-203.84 964.5,-194.09"/>
<polygon fill="midnightblue" stroke="midnightblue" points="966.72,-196.79 972.38,-187.83 962.37,-191.31 966.72,-196.79"/>
</g>
<!-- Node20 -->
<g id="node20" class="node">
<title>Node20</title>
<g id="a_node20"><a xlink:title=" ">
<polygon fill="white" stroke="#bfbfbf" points="1023,-168.5 1023,-187.5 1084,-187.5 1084,-168.5 1023,-168.5"/>
<text text-anchor="middle" x="1053.5" y="-175.5" font-family="Helvetica,sans-Serif" font-size="10.00">QPixmap</text>
</a>
</g>
</g>
<!-- Node1&#45;&gt;Node20 -->
<g id="edge23" class="edge">
<title>Node1&#45;&gt;Node20</title>
<path fill="none" stroke="midnightblue" d="M937.37,-224.44C960.28,-215.48 996.48,-201.31 1022.37,-191.18"/>
<polygon fill="midnightblue" stroke="midnightblue" points="1023.7,-194.42 1031.74,-187.52 1021.15,-187.9 1023.7,-194.42"/>
</g>
<!-- Node21 -->
<g id="node21" class="node">
<title>Node21</title>
<g id="a_node21"><a xlink:title=" ">
<polygon fill="white" stroke="#bfbfbf" points="1102.5,-168.5 1102.5,-187.5 1206.5,-187.5 1206.5,-168.5 1102.5,-168.5"/>
<text text-anchor="middle" x="1154.5" y="-175.5" font-family="Helvetica,sans-Serif" font-size="10.00">QStaticStringData</text>
</a>
</g>
</g>
<!-- Node1&#45;&gt;Node21 -->
<g id="edge24" class="edge">
<title>Node1&#45;&gt;Node21</title>
<path fill="none" stroke="midnightblue" d="M953.37,-224.44C994.98,-215.04 1061.87,-199.93 1106.97,-189.74"/>
<polygon fill="midnightblue" stroke="midnightblue" points="1107.82,-193.13 1116.81,-187.52 1106.28,-186.31 1107.82,-193.13"/>
</g>
<!-- Node22 -->
<g id="node22" class="node">
<title>Node22</title>
<g id="a_node22"><a xlink:title=" ">
<polygon fill="white" stroke="#bfbfbf" points="1224.5,-168.5 1224.5,-187.5 1300.5,-187.5 1300.5,-168.5 1224.5,-168.5"/>
<text text-anchor="middle" x="1262.5" y="-175.5" font-family="Helvetica,sans-Serif" font-size="10.00">QStringData</text>
</a>
</g>
</g>
<!-- Node1&#45;&gt;Node22 -->
<g id="edge25" class="edge">
<title>Node1&#45;&gt;Node22</title>
<path fill="none" stroke="midnightblue" d="M973.68,-224.98C1032.02,-216.78 1124.66,-203.33 1214.24,-188.16"/>
<polygon fill="midnightblue" stroke="midnightblue" points="1215.03,-191.58 1224.3,-186.45 1213.86,-184.68 1215.03,-191.58"/>
</g>
<!-- Node23 -->
<g id="node23" class="node">
<title>Node23</title>
<g id="a_node23"><a xlink:title=" ">
<polygon fill="white" stroke="#bfbfbf" points="1319,-168.5 1319,-187.5 1408,-187.5 1408,-168.5 1319,-168.5"/>
<text text-anchor="middle" x="1363.5" y="-175.5" font-family="Helvetica,sans-Serif" font-size="10.00">QStringDataPtr</text>
</a>
</g>
</g>
<!-- Node1&#45;&gt;Node23 -->
<g id="edge26" class="edge">
<title>Node1&#45;&gt;Node23</title>
<path fill="none" stroke="midnightblue" d="M973.7,-227.3C1048.65,-219.74 1183.2,-205.48 1308.57,-188.06"/>
<polygon fill="midnightblue" stroke="midnightblue" points="1309.32,-191.49 1318.74,-186.64 1308.35,-184.56 1309.32,-191.49"/>
</g>
<!-- Node3 -->
<g id="node3" class="node">
<title>Node3</title>
<g id="a_node3"><a xlink:title=" ">
<polygon fill="white" stroke="#bfbfbf" points="0,-56.5 0,-75.5 53,-75.5 53,-56.5 0,-56.5"/>
<text text-anchor="middle" x="26.5" y="-63.5" font-family="Helvetica,sans-Serif" font-size="10.00">QString</text>
</a>
</g>
</g>
<!-- Node2&#45;&gt;Node3 -->
<g id="edge2" class="edge">
<title>Node2&#45;&gt;Node3</title>
<path fill="none" stroke="midnightblue" d="M555.88,-172.35C480.35,-159.03 258.13,-119.1 63.05,-76.03"/>
<polygon fill="midnightblue" stroke="midnightblue" points="63.72,-72.59 53.2,-73.84 62.2,-79.42 63.72,-72.59"/>
</g>
<!-- Node4 -->
<g id="node4" class="node">
<title>Node4</title>
<g id="a_node4"><a xlink:title=" ">
<polygon fill="white" stroke="#bfbfbf" points="570.5,-56.5 570.5,-75.5 640.5,-75.5 640.5,-56.5 570.5,-56.5"/>
<text text-anchor="middle" x="605.5" y="-63.5" font-family="Helvetica,sans-Serif" font-size="10.00">QStringList</text>
</a>
</g>
</g>
<!-- Node2&#45;&gt;Node4 -->
<g id="edge3" class="edge">
<title>Node2&#45;&gt;Node4</title>
<path fill="none" stroke="midnightblue" d="M582.34,-168.46C582.29,-155.92 582.88,-131.84 587.5,-112 589.65,-102.78 593.38,-92.97 596.9,-84.88"/>
<polygon fill="midnightblue" stroke="midnightblue" points="600.11,-86.26 601.09,-75.71 593.75,-83.34 600.11,-86.26"/>
</g>
<!-- Node5 -->
<g id="node5" class="node">
<title>Node5</title>
<g id="a_node5"><a xlink:title=" ">
<polygon fill="white" stroke="#bfbfbf" points="659,-56.5 659,-75.5 718,-75.5 718,-56.5 659,-56.5"/>
<text text-anchor="middle" x="688.5" y="-63.5" font-family="Helvetica,sans-Serif" font-size="10.00">QtGlobal</text>
</a>
</g>
</g>
<!-- Node2&#45;&gt;Node5 -->
<g id="edge4" class="edge">
<title>Node2&#45;&gt;Node5</title>
<path fill="none" stroke="midnightblue" d="M586.26,-168.2C592.25,-154.89 605,-129.36 621.5,-112 633.42,-99.46 649.43,-88.54 662.81,-80.6"/>
<polygon fill="midnightblue" stroke="midnightblue" points="664.63,-83.6 671.58,-75.6 661.16,-77.52 664.63,-83.6"/>
</g>
<!-- Node6 -->
<g id="node6" class="node">
<title>Node6</title>
<g id="a_node6"><a xlink:href="../../d4/da4/def_8h.html" target="_top" xlink:title=" ">
<polygon fill="white" stroke="black" points="386.5,-112.5 386.5,-131.5 468.5,-131.5 468.5,-112.5 386.5,-112.5"/>
<text text-anchor="middle" x="427.5" y="-119.5" font-family="Helvetica,sans-Serif" font-size="10.00">../vmisc/def.h</text>
</a>
</g>
</g>
<!-- Node2&#45;&gt;Node6 -->
<g id="edge5" class="edge">
<title>Node2&#45;&gt;Node6</title>
<path fill="none" stroke="midnightblue" d="M557.94,-168.44C531.98,-159.4 490.83,-145.06 461.7,-134.92"/>
<polygon fill="midnightblue" stroke="midnightblue" points="462.54,-131.5 451.95,-131.52 460.24,-138.11 462.54,-131.5"/>
</g>
<!-- Node2&#45;&gt;Node14 -->
<g id="edge16" class="edge">
<title>Node2&#45;&gt;Node14</title>
<path fill="none" stroke="midnightblue" d="M599.53,-168.32C616.53,-159.66 642.88,-146.24 662.49,-136.25"/>
<polygon fill="midnightblue" stroke="midnightblue" points="664.19,-139.31 671.51,-131.65 661.01,-133.08 664.19,-139.31"/>
</g>
<!-- Node6&#45;&gt;Node3 -->
<g id="edge8" class="edge">
<title>Node6&#45;&gt;Node3</title>
<path fill="none" stroke="midnightblue" d="M386.47,-117.59C320.44,-111.75 186.41,-98.41 63.15,-75.9"/>
<polygon fill="midnightblue" stroke="midnightblue" points="63.63,-72.43 53.16,-74.05 62.35,-79.31 63.63,-72.43"/>
</g>
<!-- Node6&#45;&gt;Node4 -->
<g id="edge9" class="edge">
<title>Node6&#45;&gt;Node4</title>
<path fill="none" stroke="midnightblue" d="M455.7,-112.44C485.91,-103.28 534.01,-88.69 567.53,-78.52"/>
<polygon fill="midnightblue" stroke="midnightblue" points="568.87,-81.77 577.43,-75.52 566.84,-75.07 568.87,-81.77"/>
</g>
<!-- Node6&#45;&gt;Node5 -->
<g id="edge11" class="edge">
<title>Node6&#45;&gt;Node5</title>
<path fill="none" stroke="midnightblue" d="M468.89,-112.95C511.44,-104.61 579.87,-90.97 648.57,-76.16"/>
<polygon fill="midnightblue" stroke="midnightblue" points="649.67,-79.5 658.71,-73.96 648.19,-72.66 649.67,-79.5"/>
</g>
<!-- Node7 -->
<g id="node7" class="node">
<title>Node7</title>
<g id="a_node7"><a xlink:title=" ">
<polygon fill="white" stroke="#bfbfbf" points="316.5,-56.5 316.5,-75.5 436.5,-75.5 436.5,-56.5 316.5,-56.5"/>
<text text-anchor="middle" x="376.5" y="-63.5" font-family="Helvetica,sans-Serif" font-size="10.00">qcompilerdetection.h</text>
</a>
</g>
</g>
<!-- Node6&#45;&gt;Node7 -->
<g id="edge6" class="edge">
<title>Node6&#45;&gt;Node7</title>
<path fill="none" stroke="midnightblue" d="M419.08,-112.08C411.65,-104.22 400.65,-92.57 391.69,-83.08"/>
<polygon fill="midnightblue" stroke="midnightblue" points="394.18,-80.62 384.76,-75.75 389.09,-85.42 394.18,-80.62"/>
</g>
<!-- Node8 -->
<g id="node8" class="node">
<title>Node8</title>
<g id="a_node8"><a xlink:title=" ">
<polygon fill="white" stroke="#bfbfbf" points="454.5,-56.5 454.5,-75.5 504.5,-75.5 504.5,-56.5 454.5,-56.5"/>
<text text-anchor="middle" x="479.5" y="-63.5" font-family="Helvetica,sans-Serif" font-size="10.00">QLineF</text>
</a>
</g>
</g>
<!-- Node6&#45;&gt;Node8 -->
<g id="edge7" class="edge">
<title>Node6&#45;&gt;Node8</title>
<path fill="none" stroke="midnightblue" d="M436.09,-112.08C443.66,-104.22 454.88,-92.57 464.01,-83.08"/>
<polygon fill="midnightblue" stroke="midnightblue" points="466.66,-85.38 471.07,-75.75 461.62,-80.53 466.66,-85.38"/>
</g>
<!-- Node9 -->
<g id="node9" class="node">
<title>Node9</title>
<g id="a_node9"><a xlink:title=" ">
<polygon fill="white" stroke="#bfbfbf" points="523,-56.5 523,-75.5 552,-75.5 552,-56.5 523,-56.5"/>
<text text-anchor="middle" x="537.5" y="-63.5" font-family="Helvetica,sans-Serif" font-size="10.00">Qt</text>
</a>
</g>
</g>
<!-- Node6&#45;&gt;Node9 -->
<g id="edge10" class="edge">
<title>Node6&#45;&gt;Node9</title>
<path fill="none" stroke="midnightblue" d="M445.17,-112.32C463.73,-103.21 493.03,-88.83 513.63,-78.72"/>
<polygon fill="midnightblue" stroke="midnightblue" points="515.26,-81.82 522.69,-74.27 512.17,-75.53 515.26,-81.82"/>
</g>
<!-- Node10 -->
<g id="node10" class="node">
<title>Node10</title>
<g id="a_node10"><a xlink:title=" ">
<polygon fill="white" stroke="#bfbfbf" points="71.5,-56.5 71.5,-75.5 127.5,-75.5 127.5,-56.5 71.5,-56.5"/>
<text text-anchor="middle" x="99.5" y="-63.5" font-family="Helvetica,sans-Serif" font-size="10.00">QPrinter</text>
</a>
</g>
</g>
<!-- Node6&#45;&gt;Node10 -->
<g id="edge12" class="edge">
<title>Node6&#45;&gt;Node10</title>
<path fill="none" stroke="midnightblue" d="M386.02,-115.61C329.57,-108.03 225.5,-93.22 137.5,-76 137.4,-75.98 137.3,-75.96 137.2,-75.94"/>
<polygon fill="midnightblue" stroke="midnightblue" points="138.18,-72.57 127.67,-73.93 136.73,-79.42 138.18,-72.57"/>
</g>
<!-- Node11 -->
<g id="node11" class="node">
<title>Node11</title>
<g id="a_node11"><a xlink:title=" ">
<polygon fill="white" stroke="#bfbfbf" points="146,-56.5 146,-75.5 197,-75.5 197,-56.5 146,-56.5"/>
<text text-anchor="middle" x="171.5" y="-63.5" font-family="Helvetica,sans-Serif" font-size="10.00">csignal</text>
</a>
</g>
</g>
<!-- Node6&#45;&gt;Node11 -->
<g id="edge13" class="edge">
<title>Node6&#45;&gt;Node11</title>
<path fill="none" stroke="midnightblue" d="M386.23,-113.25C343.82,-105.13 275.65,-91.7 207.18,-76.06"/>
<polygon fill="midnightblue" stroke="midnightblue" points="207.61,-72.57 197.08,-73.74 206.04,-79.39 207.61,-72.57"/>
</g>
<!-- Node12 -->
<g id="node12" class="node">
<title>Node12</title>
<g id="a_node12"><a xlink:href="../../d4/d82/debugbreak_8h.html" target="_top" xlink:title=" ">
<polygon fill="white" stroke="black" points="215,-56.5 215,-75.5 298,-75.5 298,-56.5 215,-56.5"/>
<text text-anchor="middle" x="256.5" y="-63.5" font-family="Helvetica,sans-Serif" font-size="10.00">debugbreak.h</text>
</a>
</g>
</g>
<!-- Node6&#45;&gt;Node12 -->
<g id="edge14" class="edge">
<title>Node6&#45;&gt;Node12</title>
<path fill="none" stroke="midnightblue" d="M400.4,-112.44C371.51,-103.32 325.58,-88.81 293.39,-78.65"/>
<polygon fill="midnightblue" stroke="midnightblue" points="294.06,-75.19 283.47,-75.52 291.95,-81.87 294.06,-75.19"/>
</g>
<!-- Node13 -->
<g id="node13" class="node">
<title>Node13</title>
<g id="a_node13"><a xlink:title=" ">
<polygon fill="white" stroke="#bfbfbf" points="229,-0.5 229,-19.5 284,-19.5 284,-0.5 229,-0.5"/>
<text text-anchor="middle" x="256.5" y="-7.5" font-family="Helvetica,sans-Serif" font-size="10.00">signal.h</text>
</a>
</g>
</g>
<!-- Node12&#45;&gt;Node13 -->
<g id="edge15" class="edge">
<title>Node12&#45;&gt;Node13</title>
<path fill="none" stroke="midnightblue" d="M256.5,-56.08C256.5,-49.01 256.5,-38.86 256.5,-29.99"/>
<polygon fill="midnightblue" stroke="midnightblue" points="260,-29.75 256.5,-19.75 253,-29.75 260,-29.75"/>
</g>
<!-- Node14&#45;&gt;Node5 -->
<g id="edge17" class="edge">
<title>Node14&#45;&gt;Node5</title>
<path fill="none" stroke="midnightblue" d="M688.5,-112.08C688.5,-105.01 688.5,-94.86 688.5,-85.99"/>
<polygon fill="midnightblue" stroke="midnightblue" points="692,-85.75 688.5,-75.75 685,-85.75 692,-85.75"/>
</g>
</g>
</svg>
        <g id="navigator" transform="translate(0 0)" fill="#404254">
                <rect fill="#f2f5e9" fill-opacity="0.5" stroke="#606060" stroke-width=".5" x="0" y="0" width="60" height="60"/>
                <use id="zoomplus" xlink:href="#zoomPlus" x="17" y="9" onmousedown="handleZoom(evt,'in')"/>
                <use id="zoomminus" xlink:href="#zoomMin" x="42" y="9" onmousedown="handleZoom(evt,'out')"/>
                <use id="reset" xlink:href="#resetDef" x="30" y="36" onmousedown="handleReset()"/>
                <g id="arrowUp" xlink:href="#dirArrow" transform="translate(30 24)" onmousedown="handlePan(0,-1)">
                  <use xlink:href="#rim" fill="#404040">
                        <set attributeName="fill" to="#808080" begin="arrowUp.mouseover" end="arrowUp.mouseout"/>
                  </use>
                  <path fill="none" stroke="white" stroke-width="1.5" d="M0,-3.0v7 M-2.5,-0.5L0,-3.0L2.5,-0.5"/>
                </g>
                <g id="arrowRight" xlink:href="#dirArrow" transform="rotate(90) translate(36 -43)" onmousedown="handlePan(1,0)">
                  <use xlink:href="#rim" fill="#404040">
                        <set attributeName="fill" to="#808080" begin="arrowRight.mouseover" end="arrowRight.mouseout"/>
                  </use>
                  <path fill="none" stroke="white" stroke-width="1.5" d="M0,-3.0v7 M-2.5,-0.5L0,-3.0L2.5,-0.5"/>
                </g>
                <g id="arrowDown" xlink:href="#dirArrow" transform="rotate(180) translate(-30 -48)" onmousedown="handlePan(0,1)">
                  <use xlink:href="#rim" fill="#404040">
                        <set attributeName="fill" to="#808080" begin="arrowDown.mouseover" end="arrowDown.mouseout"/>
                  </use>
                  <path fill="none" stroke="white" stroke-width="1.5" d="M0,-3.0v7 M-2.5,-0.5L0,-3.0L2.5,-0.5"/>
                </g>
                <g id="arrowLeft" xlink:href="#dirArrow" transform="rotate(270) translate(-36 17)" onmousedown="handlePan(-1,0)">
                  <use xlink:href="#rim" fill="#404040">
                        <set attributeName="fill" to="#808080" begin="arrowLeft.mouseover" end="arrowLeft.mouseout"/>
                  </use>
                  <path fill="none" stroke="white" stroke-width="1.5" d="M0,-3.0v7 M-2.5,-0.5L0,-3.0L2.5,-0.5"/>
                </g>
        </g>
        <svg viewBox="0 0 15 15" width="100%" height="30px" preserveAspectRatio="xMaxYMin meet">
         <g id="arrow_out" transform="scale(0.3 0.3)">
          <a xlink:href="ifcdef_8cpp__incl_org.svg" target="_base">
           <rect id="button" ry="5" rx="5" y="6" x="6" height="38" width="38"
                fill="#f2f5e9" fill-opacity="0.5" stroke="#606060" stroke-width="1.0"/>
           <path id="arrow"
             d="M 11.500037,31.436501 C 11.940474,20.09759 22.043105,11.32322 32.158766,21.979434 L 37.068811,17.246167 C 37.068811,17.246167 37.088388,32 37.088388,32 L 22.160133,31.978069 C 22.160133,31.978069 26.997745,27.140456 26.997745,27.140456 C 18.528582,18.264221 13.291696,25.230495 11.500037,31.436501 z"
             style="fill:#404040;"/>
          </a>
         </g>
        </svg>
</svg>
