<?xml version="1.0" encoding="UTF-8" standalone="no"?>
<!DOCTYPE svg PUBLIC "-//W3C//DTD SVG 1.1//EN"
 "http://www.w3.org/Graphics/SVG/1.1/DTD/svg11.dtd">
<!-- Generated by graphviz version 2.43.0 (0)
 -->
<!-- Title: src/app/seamly2d/core/vcmdexport.h Pages: 1 -->
<svg width="924pt" height="218pt"
 viewBox="0.00 0.00 923.50 218.00" xmlns="http://www.w3.org/2000/svg" xmlns:xlink="http://www.w3.org/1999/xlink">
<g id="graph0" class="graph" transform="scale(1 1) rotate(0) translate(4 214)">
<title>src/app/seamly2d/core/vcmdexport.h</title>
<polygon fill="white" stroke="transparent" points="-4,4 -4,-214 919.5,-214 919.5,4 -4,4"/>
<!-- Node1 -->
<g id="node1" class="node">
<title>Node1</title>
<g id="a_node1"><a xlink:title=" ">
<polygon fill="#bfbfbf" stroke="black" points="292.5,-179.5 292.5,-209.5 419.5,-209.5 419.5,-179.5 292.5,-179.5"/>
<text text-anchor="start" x="300.5" y="-197.5" font-family="Helvetica,sans-Serif" font-size="10.00">src/app/seamly2d/core</text>
<text text-anchor="middle" x="356" y="-186.5" font-family="Helvetica,sans-Serif" font-size="10.00">/vcmdexport.h</text>
</a>
</g>
</g>
<!-- Node2 -->
<g id="node2" class="node">
<title>Node2</title>
<g id="a_node2"><a xlink:title=" ">
<polygon fill="white" stroke="#bfbfbf" points="0,-118 0,-137 58,-137 58,-118 0,-118"/>
<text text-anchor="middle" x="29" y="-125" font-family="Helvetica,sans-Serif" font-size="10.00">memory</text>
</a>
</g>
</g>
<!-- Node1&#45;&gt;Node2 -->
<g id="edge1" class="edge">
<title>Node1&#45;&gt;Node2</title>
<path fill="none" stroke="midnightblue" d="M292.37,-185.95C233.29,-178.1 143.24,-164 67,-143 64.35,-142.27 61.62,-141.43 58.91,-140.52"/>
<polygon fill="midnightblue" stroke="midnightblue" points="59.87,-137.14 49.27,-137.06 57.5,-143.73 59.87,-137.14"/>
</g>
<!-- Node3 -->
<g id="node3" class="node">
<title>Node3</title>
<g id="a_node3"><a xlink:title=" ">
<polygon fill="white" stroke="#bfbfbf" points="76.5,-118 76.5,-137 123.5,-137 123.5,-118 76.5,-118"/>
<text text-anchor="middle" x="100" y="-125" font-family="Helvetica,sans-Serif" font-size="10.00">vector</text>
</a>
</g>
</g>
<!-- Node1&#45;&gt;Node3 -->
<g id="edge2" class="edge">
<title>Node1&#45;&gt;Node3</title>
<path fill="none" stroke="midnightblue" d="M292.16,-182.41C247.09,-173.77 185.59,-160.33 133,-143 131.13,-142.38 129.22,-141.7 127.3,-140.97"/>
<polygon fill="midnightblue" stroke="midnightblue" points="128.49,-137.68 117.91,-137.11 125.83,-144.15 128.49,-137.68"/>
</g>
<!-- Node4 -->
<g id="node4" class="node">
<title>Node4</title>
<g id="a_node4"><a xlink:title=" ">
<polygon fill="white" stroke="#bfbfbf" points="142,-118 142,-137 222,-137 222,-118 142,-118"/>
<text text-anchor="middle" x="182" y="-125" font-family="Helvetica,sans-Serif" font-size="10.00">QTextStream</text>
</a>
</g>
</g>
<!-- Node1&#45;&gt;Node4 -->
<g id="edge3" class="edge">
<title>Node1&#45;&gt;Node4</title>
<path fill="none" stroke="midnightblue" d="M318.24,-179.4C287.17,-167.79 243.61,-151.51 214.17,-140.52"/>
<polygon fill="midnightblue" stroke="midnightblue" points="215.37,-137.23 204.77,-137.01 212.92,-143.79 215.37,-137.23"/>
</g>
<!-- Node5 -->
<g id="node5" class="node">
<title>Node5</title>
<g id="a_node5"><a xlink:title=" ">
<polygon fill="white" stroke="#bfbfbf" points="240.5,-118 240.5,-137 341.5,-137 341.5,-118 240.5,-118"/>
<text text-anchor="middle" x="291" y="-125" font-family="Helvetica,sans-Serif" font-size="10.00">QCoreApplication</text>
</a>
</g>
</g>
<!-- Node1&#45;&gt;Node5 -->
<g id="edge4" class="edge">
<title>Node1&#45;&gt;Node5</title>
<path fill="none" stroke="midnightblue" d="M341.9,-179.4C331.56,-169.06 317.52,-155.02 306.81,-144.31"/>
<polygon fill="midnightblue" stroke="midnightblue" points="309.24,-141.79 299.69,-137.19 304.29,-146.74 309.24,-141.79"/>
</g>
<!-- Node6 -->
<g id="node6" class="node">
<title>Node6</title>
<g id="a_node6"><a xlink:title=" ">
<polygon fill="white" stroke="#bfbfbf" points="359.5,-118 359.5,-137 484.5,-137 484.5,-118 359.5,-118"/>
<text text-anchor="middle" x="422" y="-125" font-family="Helvetica,sans-Serif" font-size="10.00">QCommandLineParser</text>
</a>
</g>
</g>
<!-- Node1&#45;&gt;Node6 -->
<g id="edge5" class="edge">
<title>Node1&#45;&gt;Node6</title>
<path fill="none" stroke="midnightblue" d="M370.32,-179.4C380.82,-169.06 395.07,-155.02 405.95,-144.31"/>
<polygon fill="midnightblue" stroke="midnightblue" points="408.5,-146.71 413.17,-137.19 403.59,-141.72 408.5,-146.71"/>
</g>
<!-- Node7 -->
<g id="node7" class="node">
<title>Node7</title>
<g id="a_node7"><a xlink:href="../../d3/dd8/layoutsettings__dialog_8h.html" target="_top" xlink:title=" ">
<polygon fill="white" stroke="black" points="503,-112.5 503,-142.5 637,-142.5 637,-112.5 503,-112.5"/>
<text text-anchor="start" x="511" y="-130.5" font-family="Helvetica,sans-Serif" font-size="10.00">../dialogs/layoutsettings</text>
<text text-anchor="middle" x="570" y="-119.5" font-family="Helvetica,sans-Serif" font-size="10.00">_dialog.h</text>
</a>
</g>
</g>
<!-- Node1&#45;&gt;Node7 -->
<g id="edge6" class="edge">
<title>Node1&#45;&gt;Node7</title>
<path fill="none" stroke="midnightblue" d="M402.17,-179.48C434.83,-169.56 478.8,-156.2 513.54,-145.65"/>
<polygon fill="midnightblue" stroke="midnightblue" points="514.99,-148.87 523.54,-142.61 512.96,-142.17 514.99,-148.87"/>
</g>
<!-- Node10 -->
<g id="node10" class="node">
<title>Node10</title>
<g id="a_node10"><a xlink:title=" ">
<polygon fill="white" stroke="#bfbfbf" points="394,-0.5 394,-19.5 476,-19.5 476,-0.5 394,-0.5"/>
<text text-anchor="middle" x="435" y="-7.5" font-family="Helvetica,sans-Serif" font-size="10.00">../vmisc/def.h</text>
</a>
</g>
</g>
<!-- Node1&#45;&gt;Node10 -->
<g id="edge16" class="edge">
<title>Node1&#45;&gt;Node10</title>
<path fill="none" stroke="midnightblue" d="M419.76,-189.35C479.77,-183.84 571.32,-171.26 646,-143 699.18,-122.87 727.25,-125.63 755,-76 759.34,-68.24 760.83,-62.71 755,-56 720.81,-16.66 567.68,-10.72 486.27,-10.42"/>
<polygon fill="midnightblue" stroke="midnightblue" points="486.24,-6.92 476.24,-10.41 486.23,-13.92 486.24,-6.92"/>
</g>
<!-- Node15 -->
<g id="node15" class="node">
<title>Node15</title>
<g id="a_node15"><a xlink:title=" ">
<polygon fill="white" stroke="#bfbfbf" points="802.5,-118 802.5,-137 915.5,-137 915.5,-118 802.5,-118"/>
<text text-anchor="middle" x="859" y="-125" font-family="Helvetica,sans-Serif" font-size="10.00">../vmisc/vsysexits.h</text>
</a>
</g>
</g>
<!-- Node1&#45;&gt;Node15 -->
<g id="edge17" class="edge">
<title>Node1&#45;&gt;Node15</title>
<path fill="none" stroke="midnightblue" d="M419.55,-187.78C504,-179.79 657.71,-163.88 788,-143 795.26,-141.84 802.9,-140.45 810.38,-139"/>
<polygon fill="midnightblue" stroke="midnightblue" points="811.29,-142.39 820.42,-137 809.93,-135.52 811.29,-142.39"/>
</g>
<!-- Node8 -->
<g id="node8" class="node">
<title>Node8</title>
<g id="a_node8"><a xlink:href="../../d7/d9e/abstractlayout__dialog_8h.html" target="_top" xlink:title=" ">
<polygon fill="white" stroke="black" points="275.5,-56.5 275.5,-75.5 406.5,-75.5 406.5,-56.5 275.5,-56.5"/>
<text text-anchor="middle" x="341" y="-63.5" font-family="Helvetica,sans-Serif" font-size="10.00">abstractlayout_dialog.h</text>
</a>
</g>
</g>
<!-- Node7&#45;&gt;Node8 -->
<g id="edge7" class="edge">
<title>Node7&#45;&gt;Node8</title>
<path fill="none" stroke="midnightblue" d="M516.02,-112.47C475.65,-101.99 421.2,-87.84 383.81,-78.12"/>
<polygon fill="midnightblue" stroke="midnightblue" points="384.3,-74.63 373.74,-75.51 382.54,-81.41 384.3,-74.63"/>
</g>
<!-- Node9 -->
<g id="node9" class="node">
<title>Node9</title>
<g id="a_node9"><a xlink:title=" ">
<polygon fill="white" stroke="#bfbfbf" points="213.5,-0.5 213.5,-19.5 290.5,-19.5 290.5,-0.5 213.5,-0.5"/>
<text text-anchor="middle" x="252" y="-7.5" font-family="Helvetica,sans-Serif" font-size="10.00">../ifc/ifcdef.h</text>
</a>
</g>
</g>
<!-- Node7&#45;&gt;Node9 -->
<g id="edge13" class="edge">
<title>Node7&#45;&gt;Node9</title>
<path fill="none" stroke="midnightblue" d="M502.88,-113.57C499.88,-113.03 496.91,-112.51 494,-112 443.47,-103.19 303.26,-111.25 266,-76 253.57,-64.24 250.84,-44.31 250.75,-29.61"/>
<polygon fill="midnightblue" stroke="midnightblue" points="254.24,-29.72 251.07,-19.61 247.25,-29.49 254.24,-29.72"/>
</g>
<!-- Node7&#45;&gt;Node10 -->
<g id="edge12" class="edge">
<title>Node7&#45;&gt;Node10</title>
<path fill="none" stroke="midnightblue" d="M512.15,-112.47C491.29,-104.8 469.17,-93.22 454,-76 442.72,-63.19 438.12,-44.01 436.25,-29.79"/>
<polygon fill="midnightblue" stroke="midnightblue" points="439.72,-29.29 435.27,-19.68 432.76,-29.97 439.72,-29.29"/>
</g>
<!-- Node12 -->
<g id="node12" class="node">
<title>Node12</title>
<g id="a_node12"><a xlink:title=" ">
<polygon fill="white" stroke="#bfbfbf" points="463,-56.5 463,-75.5 567,-75.5 567,-56.5 463,-56.5"/>
<text text-anchor="middle" x="515" y="-63.5" font-family="Helvetica,sans-Serif" font-size="10.00">../vlayout/vbank.h</text>
</a>
</g>
</g>
<!-- Node7&#45;&gt;Node12 -->
<g id="edge11" class="edge">
<title>Node7&#45;&gt;Node12</title>
<path fill="none" stroke="midnightblue" d="M556.97,-112.4C548.81,-103.58 538.28,-92.18 529.81,-83.02"/>
<polygon fill="midnightblue" stroke="midnightblue" points="532.36,-80.63 523,-75.66 527.22,-85.38 532.36,-80.63"/>
</g>
<!-- Node13 -->
<g id="node13" class="node">
<title>Node13</title>
<g id="a_node13"><a xlink:title=" ">
<polygon fill="white" stroke="#bfbfbf" points="585.5,-56.5 585.5,-75.5 664.5,-75.5 664.5,-56.5 585.5,-56.5"/>
<text text-anchor="middle" x="625" y="-63.5" font-family="Helvetica,sans-Serif" font-size="10.00">QCloseEvent</text>
</a>
</g>
</g>
<!-- Node7&#45;&gt;Node13 -->
<g id="edge14" class="edge">
<title>Node7&#45;&gt;Node13</title>
<path fill="none" stroke="midnightblue" d="M583.03,-112.4C591.19,-103.58 601.72,-92.18 610.19,-83.02"/>
<polygon fill="midnightblue" stroke="midnightblue" points="612.78,-85.38 617,-75.66 607.64,-80.63 612.78,-85.38"/>
</g>
<!-- Node14 -->
<g id="node14" class="node">
<title>Node14</title>
<g id="a_node14"><a xlink:title=" ">
<polygon fill="white" stroke="#bfbfbf" points="682.5,-56.5 682.5,-75.5 745.5,-75.5 745.5,-56.5 682.5,-56.5"/>
<text text-anchor="middle" x="714" y="-63.5" font-family="Helvetica,sans-Serif" font-size="10.00">QMargins</text>
</a>
</g>
</g>
<!-- Node7&#45;&gt;Node14 -->
<g id="edge15" class="edge">
<title>Node7&#45;&gt;Node14</title>
<path fill="none" stroke="midnightblue" d="M604.13,-112.4C628.29,-102.42 660.4,-89.15 683.67,-79.53"/>
<polygon fill="midnightblue" stroke="midnightblue" points="685.14,-82.71 693.05,-75.66 682.47,-76.24 685.14,-82.71"/>
</g>
<!-- Node8&#45;&gt;Node9 -->
<g id="edge8" class="edge">
<title>Node8&#45;&gt;Node9</title>
<path fill="none" stroke="midnightblue" d="M326.7,-56.32C312.82,-47.9 291.51,-34.97 275.2,-25.07"/>
<polygon fill="midnightblue" stroke="midnightblue" points="276.63,-21.85 266.26,-19.65 273,-27.83 276.63,-21.85"/>
</g>
<!-- Node8&#45;&gt;Node10 -->
<g id="edge9" class="edge">
<title>Node8&#45;&gt;Node10</title>
<path fill="none" stroke="midnightblue" d="M356.1,-56.32C370.9,-47.82 393.69,-34.73 410.98,-24.8"/>
<polygon fill="midnightblue" stroke="midnightblue" points="413.01,-27.67 419.93,-19.65 409.52,-21.6 413.01,-27.67"/>
</g>
<!-- Node11 -->
<g id="node11" class="node">
<title>Node11</title>
<g id="a_node11"><a xlink:title=" ">
<polygon fill="white" stroke="#bfbfbf" points="313,-0.5 313,-19.5 369,-19.5 369,-0.5 313,-0.5"/>
<text text-anchor="middle" x="341" y="-7.5" font-family="Helvetica,sans-Serif" font-size="10.00">QDialog</text>
</a>
</g>
</g>
<!-- Node8&#45;&gt;Node11 -->
<g id="edge10" class="edge">
<title>Node8&#45;&gt;Node11</title>
<path fill="none" stroke="midnightblue" d="M341,-56.08C341,-49.01 341,-38.86 341,-29.99"/>
<polygon fill="midnightblue" stroke="midnightblue" points="344.5,-29.75 341,-19.75 337.5,-29.75 344.5,-29.75"/>
</g>
</g>
</svg>
