<?xml version="1.0" encoding="UTF-8" standalone="no"?>
<!DOCTYPE svg PUBLIC "-//W3C//DTD SVG 1.1//EN"
 "http://www.w3.org/Graphics/SVG/1.1/DTD/svg11.dtd">
<!-- Generated by graphviz version 2.43.0 (0)
 -->
<!-- Title: src/libs/xerces&#45;c/macx/include/xercesc/dom/impl/DOMNodeBase.hpp Pages: 1 -->
<svg width="1943pt" height="284pt"
 viewBox="0.00 0.00 1943.30 284.00" xmlns="http://www.w3.org/2000/svg" xmlns:xlink="http://www.w3.org/1999/xlink">
<g id="graph0" class="graph" transform="scale(1 1) rotate(0) translate(4 280)">
<title>src/libs/xerces&#45;c/macx/include/xercesc/dom/impl/DOMNodeBase.hpp</title>
<polygon fill="white" stroke="transparent" points="-4,4 -4,-280 1939.3,-280 1939.3,4 -4,4"/>
<!-- Node1 -->
<g id="node1" class="node">
<title>Node1</title>
<g id="a_node1"><a xlink:title=" ">
<polygon fill="#bfbfbf" stroke="black" points="894.72,-234.5 894.72,-275.5 1038.72,-275.5 1038.72,-234.5 894.72,-234.5"/>
<text text-anchor="start" x="902.72" y="-263.5" font-family="Helvetica,sans-Serif" font-size="10.00">src/libs/xerces&#45;c/macx</text>
<text text-anchor="start" x="902.72" y="-252.5" font-family="Helvetica,sans-Serif" font-size="10.00">/include/xercesc/dom/impl</text>
<text text-anchor="middle" x="966.72" y="-241.5" font-family="Helvetica,sans-Serif" font-size="10.00">/DOMNodeBase.hpp</text>
</a>
</g>
</g>
<!-- Node2 -->
<g id="node2" class="node">
<title>Node2</title>
<g id="a_node2"><a xlink:href="../../d8/dce/macx_2include_2xercesc_2dom_2impl_2DOMCasts_8hpp.html" target="_top" xlink:title=" ">
<polygon fill="white" stroke="black" points="1056.72,-78.5 1056.72,-119.5 1200.72,-119.5 1200.72,-78.5 1056.72,-78.5"/>
<text text-anchor="start" x="1064.72" y="-107.5" font-family="Helvetica,sans-Serif" font-size="10.00">src/libs/xerces&#45;c/macx</text>
<text text-anchor="start" x="1064.72" y="-96.5" font-family="Helvetica,sans-Serif" font-size="10.00">/include/xercesc/dom/impl</text>
<text text-anchor="middle" x="1128.72" y="-85.5" font-family="Helvetica,sans-Serif" font-size="10.00">/DOMCasts.hpp</text>
</a>
</g>
</g>
<!-- Node1&#45;&gt;Node2 -->
<g id="edge1" class="edge">
<title>Node1&#45;&gt;Node2</title>
<path fill="none" stroke="midnightblue" d="M1049.08,-252.23C1276.06,-246.95 1895.84,-229.68 1925.72,-198 1938.53,-184.42 1938.45,-169.65 1925.72,-156 1876.86,-103.59 1387.66,-99.3 1200.78,-99.6"/>
<polygon fill="midnightblue" stroke="midnightblue" points="1048.82,-248.73 1038.9,-252.46 1048.98,-255.73 1048.82,-248.73"/>
</g>
<!-- Node3 -->
<g id="node3" class="node">
<title>Node3</title>
<g id="a_node3"><a xlink:href="../../d2/d44/macx_2include_2xercesc_2dom_2impl_2DOMCDATASectionImpl_8hpp.html" target="_top" xlink:title=" ">
<polygon fill="white" stroke="black" points="18.22,-156.5 18.22,-197.5 173.22,-197.5 173.22,-156.5 18.22,-156.5"/>
<text text-anchor="start" x="26.22" y="-185.5" font-family="Helvetica,sans-Serif" font-size="10.00">src/libs/xerces&#45;c/macx</text>
<text text-anchor="start" x="26.22" y="-174.5" font-family="Helvetica,sans-Serif" font-size="10.00">/include/xercesc/dom/impl</text>
<text text-anchor="middle" x="95.72" y="-163.5" font-family="Helvetica,sans-Serif" font-size="10.00">/DOMCDATASectionImpl.hpp</text>
</a>
</g>
</g>
<!-- Node1&#45;&gt;Node3 -->
<g id="edge2" class="edge">
<title>Node1&#45;&gt;Node3</title>
<path fill="none" stroke="midnightblue" d="M884.67,-252.31C741.47,-248.43 436.91,-236.06 182.72,-198 179.66,-197.54 176.54,-197.03 173.4,-196.48"/>
<polygon fill="midnightblue" stroke="midnightblue" points="884.61,-255.81 894.7,-252.57 884.8,-248.81 884.61,-255.81"/>
</g>
<!-- Node4 -->
<g id="node4" class="node">
<title>Node4</title>
<g id="a_node4"><a xlink:href="../../d0/d77/macx_2include_2xercesc_2dom_2impl_2DOMAttrImpl_8hpp.html" target="_top" xlink:title=" ">
<polygon fill="white" stroke="black" points="54.72,-78.5 54.72,-119.5 198.72,-119.5 198.72,-78.5 54.72,-78.5"/>
<text text-anchor="start" x="62.72" y="-107.5" font-family="Helvetica,sans-Serif" font-size="10.00">src/libs/xerces&#45;c/macx</text>
<text text-anchor="start" x="62.72" y="-96.5" font-family="Helvetica,sans-Serif" font-size="10.00">/include/xercesc/dom/impl</text>
<text text-anchor="middle" x="126.72" y="-85.5" font-family="Helvetica,sans-Serif" font-size="10.00">/DOMAttrImpl.hpp</text>
</a>
</g>
</g>
<!-- Node1&#45;&gt;Node4 -->
<g id="edge3" class="edge">
<title>Node1&#45;&gt;Node4</title>
<path fill="none" stroke="midnightblue" d="M884.45,-252.23C657.7,-246.94 38.57,-229.65 8.72,-198 -4.09,-184.42 -1.25,-171.78 8.72,-156 19.33,-139.23 36.47,-127.38 54.44,-119.05"/>
<polygon fill="midnightblue" stroke="midnightblue" points="884.54,-255.73 894.62,-252.46 884.7,-248.73 884.54,-255.73"/>
</g>
<!-- Node6 -->
<g id="node6" class="node">
<title>Node6</title>
<g id="a_node6"><a xlink:href="../../d5/de3/macx_2include_2xercesc_2dom_2impl_2DOMCommentImpl_8hpp.html" target="_top" xlink:title=" ">
<polygon fill="white" stroke="black" points="353.72,-156.5 353.72,-197.5 497.72,-197.5 497.72,-156.5 353.72,-156.5"/>
<text text-anchor="start" x="361.72" y="-185.5" font-family="Helvetica,sans-Serif" font-size="10.00">src/libs/xerces&#45;c/macx</text>
<text text-anchor="start" x="361.72" y="-174.5" font-family="Helvetica,sans-Serif" font-size="10.00">/include/xercesc/dom/impl</text>
<text text-anchor="middle" x="425.72" y="-163.5" font-family="Helvetica,sans-Serif" font-size="10.00">/DOMCommentImpl.hpp</text>
</a>
</g>
</g>
<!-- Node1&#45;&gt;Node6 -->
<g id="edge5" class="edge">
<title>Node1&#45;&gt;Node6</title>
<path fill="none" stroke="midnightblue" d="M884.27,-246.89C792.05,-238.26 638.46,-221.83 507.72,-198 504.55,-197.42 501.32,-196.8 498.06,-196.13"/>
<polygon fill="midnightblue" stroke="midnightblue" points="884.1,-250.39 894.38,-247.83 884.74,-243.42 884.1,-250.39"/>
</g>
<!-- Node7 -->
<g id="node7" class="node">
<title>Node7</title>
<g id="a_node7"><a xlink:href="../../db/d63/macx_2include_2xercesc_2dom_2impl_2DOMDocumentFragmentImpl_8hpp.html" target="_top" xlink:title=" ">
<polygon fill="white" stroke="black" points="516.22,-156.5 516.22,-197.5 699.22,-197.5 699.22,-156.5 516.22,-156.5"/>
<text text-anchor="start" x="524.22" y="-185.5" font-family="Helvetica,sans-Serif" font-size="10.00">src/libs/xerces&#45;c/macx</text>
<text text-anchor="start" x="524.22" y="-174.5" font-family="Helvetica,sans-Serif" font-size="10.00">/include/xercesc/dom/impl</text>
<text text-anchor="middle" x="607.72" y="-163.5" font-family="Helvetica,sans-Serif" font-size="10.00">/DOMDocumentFragmentImpl.hpp</text>
</a>
</g>
</g>
<!-- Node1&#45;&gt;Node7 -->
<g id="edge6" class="edge">
<title>Node1&#45;&gt;Node7</title>
<path fill="none" stroke="midnightblue" d="M884.4,-236.57C829.18,-224.88 756.38,-209.47 699.32,-197.39"/>
<polygon fill="midnightblue" stroke="midnightblue" points="884,-240.06 894.5,-238.71 885.45,-233.22 884,-240.06"/>
</g>
<!-- Node8 -->
<g id="node8" class="node">
<title>Node8</title>
<g id="a_node8"><a xlink:href="../../d1/da1/macx_2include_2xercesc_2dom_2impl_2DOMDocumentTypeImpl_8hpp.html" target="_top" xlink:title=" ">
<polygon fill="white" stroke="black" points="717.22,-156.5 717.22,-197.5 876.22,-197.5 876.22,-156.5 717.22,-156.5"/>
<text text-anchor="start" x="725.22" y="-185.5" font-family="Helvetica,sans-Serif" font-size="10.00">src/libs/xerces&#45;c/macx</text>
<text text-anchor="start" x="725.22" y="-174.5" font-family="Helvetica,sans-Serif" font-size="10.00">/include/xercesc/dom/impl</text>
<text text-anchor="middle" x="796.72" y="-163.5" font-family="Helvetica,sans-Serif" font-size="10.00">/DOMDocumentTypeImpl.hpp</text>
</a>
</g>
</g>
<!-- Node1&#45;&gt;Node8 -->
<g id="edge7" class="edge">
<title>Node1&#45;&gt;Node8</title>
<path fill="none" stroke="midnightblue" d="M913.77,-230.33C890.18,-219.78 862.74,-207.51 840.35,-197.51"/>
<polygon fill="midnightblue" stroke="midnightblue" points="912.38,-233.54 922.94,-234.43 915.24,-227.15 912.38,-233.54"/>
</g>
<!-- Node9 -->
<g id="node9" class="node">
<title>Node9</title>
<g id="a_node9"><a xlink:href="../../d3/dd9/macx_2include_2xercesc_2dom_2impl_2DOMDocumentImpl_8hpp.html" target="_top" xlink:title=" ">
<polygon fill="white" stroke="black" points="191.72,-156.5 191.72,-197.5 335.72,-197.5 335.72,-156.5 191.72,-156.5"/>
<text text-anchor="start" x="199.72" y="-185.5" font-family="Helvetica,sans-Serif" font-size="10.00">src/libs/xerces&#45;c/macx</text>
<text text-anchor="start" x="199.72" y="-174.5" font-family="Helvetica,sans-Serif" font-size="10.00">/include/xercesc/dom/impl</text>
<text text-anchor="middle" x="263.72" y="-163.5" font-family="Helvetica,sans-Serif" font-size="10.00">/DOMDocumentImpl.hpp</text>
</a>
</g>
</g>
<!-- Node1&#45;&gt;Node9 -->
<g id="edge8" class="edge">
<title>Node1&#45;&gt;Node9</title>
<path fill="none" stroke="midnightblue" d="M884.26,-250.58C764.67,-244.71 536.43,-230.11 344.72,-198 341.86,-197.52 338.96,-197 336.03,-196.43"/>
<polygon fill="midnightblue" stroke="midnightblue" points="884.28,-254.08 894.43,-251.07 884.61,-247.09 884.28,-254.08"/>
</g>
<!-- Node10 -->
<g id="node10" class="node">
<title>Node10</title>
<g id="a_node10"><a xlink:href="../../d5/d1b/macx_2include_2xercesc_2dom_2impl_2DOMElementImpl_8hpp.html" target="_top" xlink:title=" ">
<polygon fill="white" stroke="black" points="894.72,-156.5 894.72,-197.5 1038.72,-197.5 1038.72,-156.5 894.72,-156.5"/>
<text text-anchor="start" x="902.72" y="-185.5" font-family="Helvetica,sans-Serif" font-size="10.00">src/libs/xerces&#45;c/macx</text>
<text text-anchor="start" x="902.72" y="-174.5" font-family="Helvetica,sans-Serif" font-size="10.00">/include/xercesc/dom/impl</text>
<text text-anchor="middle" x="966.72" y="-163.5" font-family="Helvetica,sans-Serif" font-size="10.00">/DOMElementImpl.hpp</text>
</a>
</g>
</g>
<!-- Node1&#45;&gt;Node10 -->
<g id="edge10" class="edge">
<title>Node1&#45;&gt;Node10</title>
<path fill="none" stroke="midnightblue" d="M966.72,-224.3C966.72,-215.3 966.72,-205.65 966.72,-197.51"/>
<polygon fill="midnightblue" stroke="midnightblue" points="963.22,-224.43 966.72,-234.43 970.22,-224.43 963.22,-224.43"/>
</g>
<!-- Node13 -->
<g id="node13" class="node">
<title>Node13</title>
<g id="a_node13"><a xlink:href="../../de/d46/macx_2include_2xercesc_2dom_2impl_2DOMEntityImpl_8hpp.html" target="_top" xlink:title=" ">
<polygon fill="white" stroke="black" points="1218.72,-156.5 1218.72,-197.5 1362.72,-197.5 1362.72,-156.5 1218.72,-156.5"/>
<text text-anchor="start" x="1226.72" y="-185.5" font-family="Helvetica,sans-Serif" font-size="10.00">src/libs/xerces&#45;c/macx</text>
<text text-anchor="start" x="1226.72" y="-174.5" font-family="Helvetica,sans-Serif" font-size="10.00">/include/xercesc/dom/impl</text>
<text text-anchor="middle" x="1290.72" y="-163.5" font-family="Helvetica,sans-Serif" font-size="10.00">/DOMEntityImpl.hpp</text>
</a>
</g>
</g>
<!-- Node1&#45;&gt;Node13 -->
<g id="edge14" class="edge">
<title>Node1&#45;&gt;Node13</title>
<path fill="none" stroke="midnightblue" d="M1048.68,-235.45C1095.83,-224.69 1156.16,-210.78 1209.72,-198 1212.54,-197.33 1215.41,-196.64 1218.31,-195.94"/>
<polygon fill="midnightblue" stroke="midnightblue" points="1047.8,-232.06 1038.83,-237.69 1049.36,-238.88 1047.8,-232.06"/>
</g>
<!-- Node14 -->
<g id="node14" class="node">
<title>Node14</title>
<g id="a_node14"><a xlink:href="../../de/d13/macx_2include_2xercesc_2dom_2impl_2DOMEntityReferenceImpl_8hpp.html" target="_top" xlink:title=" ">
<polygon fill="white" stroke="black" points="1380.72,-156.5 1380.72,-197.5 1544.72,-197.5 1544.72,-156.5 1380.72,-156.5"/>
<text text-anchor="start" x="1388.72" y="-185.5" font-family="Helvetica,sans-Serif" font-size="10.00">src/libs/xerces&#45;c/macx</text>
<text text-anchor="start" x="1388.72" y="-174.5" font-family="Helvetica,sans-Serif" font-size="10.00">/include/xercesc/dom/impl</text>
<text text-anchor="middle" x="1462.72" y="-163.5" font-family="Helvetica,sans-Serif" font-size="10.00">/DOMEntityReferenceImpl.hpp</text>
</a>
</g>
</g>
<!-- Node1&#45;&gt;Node14 -->
<g id="edge15" class="edge">
<title>Node1&#45;&gt;Node14</title>
<path fill="none" stroke="midnightblue" d="M1049.07,-244.55C1131.11,-234.67 1260.54,-217.87 1371.72,-198 1374.59,-197.49 1377.5,-196.95 1380.44,-196.39"/>
<polygon fill="midnightblue" stroke="midnightblue" points="1048.57,-241.08 1039.05,-245.75 1049.4,-248.03 1048.57,-241.08"/>
</g>
<!-- Node15 -->
<g id="node15" class="node">
<title>Node15</title>
<g id="a_node15"><a xlink:href="../../d1/d9c/macx_2include_2xercesc_2dom_2impl_2DOMNotationImpl_8hpp.html" target="_top" xlink:title=" ">
<polygon fill="white" stroke="black" points="1562.72,-156.5 1562.72,-197.5 1706.72,-197.5 1706.72,-156.5 1562.72,-156.5"/>
<text text-anchor="start" x="1570.72" y="-185.5" font-family="Helvetica,sans-Serif" font-size="10.00">src/libs/xerces&#45;c/macx</text>
<text text-anchor="start" x="1570.72" y="-174.5" font-family="Helvetica,sans-Serif" font-size="10.00">/include/xercesc/dom/impl</text>
<text text-anchor="middle" x="1634.72" y="-163.5" font-family="Helvetica,sans-Serif" font-size="10.00">/DOMNotationImpl.hpp</text>
</a>
</g>
</g>
<!-- Node1&#45;&gt;Node15 -->
<g id="edge16" class="edge">
<title>Node1&#45;&gt;Node15</title>
<path fill="none" stroke="midnightblue" d="M1049.06,-249.97C1163.08,-243.52 1375.18,-228.39 1553.72,-198 1556.58,-197.51 1559.48,-196.98 1562.41,-196.41"/>
<polygon fill="midnightblue" stroke="midnightblue" points="1048.8,-246.48 1039.01,-250.53 1049.19,-253.47 1048.8,-246.48"/>
</g>
<!-- Node16 -->
<g id="node16" class="node">
<title>Node16</title>
<g id="a_node16"><a xlink:href="../../df/d28/macx_2include_2xercesc_2dom_2impl_2DOMProcessingInstructionImpl_8hpp.html" target="_top" xlink:title=" ">
<polygon fill="white" stroke="black" points="1725.22,-156.5 1725.22,-197.5 1916.22,-197.5 1916.22,-156.5 1725.22,-156.5"/>
<text text-anchor="start" x="1733.22" y="-185.5" font-family="Helvetica,sans-Serif" font-size="10.00">src/libs/xerces&#45;c/macx</text>
<text text-anchor="start" x="1733.22" y="-174.5" font-family="Helvetica,sans-Serif" font-size="10.00">/include/xercesc/dom/impl</text>
<text text-anchor="middle" x="1820.72" y="-163.5" font-family="Helvetica,sans-Serif" font-size="10.00">/DOMProcessingInstructionImpl.hpp</text>
</a>
</g>
</g>
<!-- Node1&#45;&gt;Node16 -->
<g id="edge17" class="edge">
<title>Node1&#45;&gt;Node16</title>
<path fill="none" stroke="midnightblue" d="M1048.87,-250.91C1187.04,-245.04 1474.52,-229.88 1715.72,-198 1718.76,-197.6 1721.84,-197.17 1724.94,-196.71"/>
<polygon fill="midnightblue" stroke="midnightblue" points="1048.63,-247.42 1038.78,-251.34 1048.92,-254.41 1048.63,-247.42"/>
</g>
<!-- Node17 -->
<g id="node17" class="node">
<title>Node17</title>
<g id="a_node17"><a xlink:href="../../da/dfd/macx_2include_2xercesc_2dom_2impl_2DOMTextImpl_8hpp.html" target="_top" xlink:title=" ">
<polygon fill="white" stroke="black" points="1056.72,-156.5 1056.72,-197.5 1200.72,-197.5 1200.72,-156.5 1056.72,-156.5"/>
<text text-anchor="start" x="1064.72" y="-185.5" font-family="Helvetica,sans-Serif" font-size="10.00">src/libs/xerces&#45;c/macx</text>
<text text-anchor="start" x="1064.72" y="-174.5" font-family="Helvetica,sans-Serif" font-size="10.00">/include/xercesc/dom/impl</text>
<text text-anchor="middle" x="1128.72" y="-163.5" font-family="Helvetica,sans-Serif" font-size="10.00">/DOMTextImpl.hpp</text>
</a>
</g>
</g>
<!-- Node1&#45;&gt;Node17 -->
<g id="edge18" class="edge">
<title>Node1&#45;&gt;Node17</title>
<path fill="none" stroke="midnightblue" d="M1017.78,-230.05C1040.12,-219.57 1066,-207.42 1087.14,-197.51"/>
<polygon fill="midnightblue" stroke="midnightblue" points="1016.01,-227.01 1008.44,-234.43 1018.98,-233.35 1016.01,-227.01"/>
</g>
<!-- Node5 -->
<g id="node5" class="node">
<title>Node5</title>
<g id="a_node5"><a xlink:href="../../d8/d8b/macx_2include_2xercesc_2dom_2impl_2DOMAttrNSImpl_8hpp.html" target="_top" xlink:title=" ">
<polygon fill="white" stroke="black" points="54.72,-0.5 54.72,-41.5 198.72,-41.5 198.72,-0.5 54.72,-0.5"/>
<text text-anchor="start" x="62.72" y="-29.5" font-family="Helvetica,sans-Serif" font-size="10.00">src/libs/xerces&#45;c/macx</text>
<text text-anchor="start" x="62.72" y="-18.5" font-family="Helvetica,sans-Serif" font-size="10.00">/include/xercesc/dom/impl</text>
<text text-anchor="middle" x="126.72" y="-7.5" font-family="Helvetica,sans-Serif" font-size="10.00">/DOMAttrNSImpl.hpp</text>
</a>
</g>
</g>
<!-- Node4&#45;&gt;Node5 -->
<g id="edge4" class="edge">
<title>Node4&#45;&gt;Node5</title>
<path fill="none" stroke="midnightblue" d="M126.72,-68.3C126.72,-59.3 126.72,-49.65 126.72,-41.51"/>
<polygon fill="midnightblue" stroke="midnightblue" points="123.22,-68.43 126.72,-78.43 130.22,-68.43 123.22,-68.43"/>
</g>
<!-- Node9&#45;&gt;Node4 -->
<g id="edge9" class="edge">
<title>Node9&#45;&gt;Node4</title>
<path fill="none" stroke="midnightblue" d="M219.53,-151.49C200.87,-141.13 179.44,-129.25 161.88,-119.51"/>
<polygon fill="midnightblue" stroke="midnightblue" points="218,-154.64 228.44,-156.43 221.39,-148.52 218,-154.64"/>
</g>
<!-- Node10&#45;&gt;Node2 -->
<g id="edge11" class="edge">
<title>Node10&#45;&gt;Node2</title>
<path fill="none" stroke="midnightblue" d="M1017.78,-152.05C1040.12,-141.57 1066,-129.42 1087.14,-119.51"/>
<polygon fill="midnightblue" stroke="midnightblue" points="1016.01,-149.01 1008.44,-156.43 1018.98,-155.35 1016.01,-149.01"/>
</g>
<!-- Node11 -->
<g id="node11" class="node">
<title>Node11</title>
<g id="a_node11"><a xlink:href="../../d0/d7d/macx_2include_2xercesc_2dom_2impl_2DOMElementNSImpl_8hpp.html" target="_top" xlink:title=" ">
<polygon fill="white" stroke="black" points="894.72,-78.5 894.72,-119.5 1038.72,-119.5 1038.72,-78.5 894.72,-78.5"/>
<text text-anchor="start" x="902.72" y="-107.5" font-family="Helvetica,sans-Serif" font-size="10.00">src/libs/xerces&#45;c/macx</text>
<text text-anchor="start" x="902.72" y="-96.5" font-family="Helvetica,sans-Serif" font-size="10.00">/include/xercesc/dom/impl</text>
<text text-anchor="middle" x="966.72" y="-85.5" font-family="Helvetica,sans-Serif" font-size="10.00">/DOMElementNSImpl.hpp</text>
</a>
</g>
</g>
<!-- Node10&#45;&gt;Node11 -->
<g id="edge12" class="edge">
<title>Node10&#45;&gt;Node11</title>
<path fill="none" stroke="midnightblue" d="M966.72,-146.3C966.72,-137.3 966.72,-127.65 966.72,-119.51"/>
<polygon fill="midnightblue" stroke="midnightblue" points="963.22,-146.43 966.72,-156.43 970.22,-146.43 963.22,-146.43"/>
</g>
<!-- Node12 -->
<g id="node12" class="node">
<title>Node12</title>
<g id="a_node12"><a xlink:href="../../d4/d05/macx_2include_2xercesc_2dom_2impl_2XSDElementNSImpl_8hpp.html" target="_top" xlink:title=" ">
<polygon fill="white" stroke="black" points="894.72,-0.5 894.72,-41.5 1038.72,-41.5 1038.72,-0.5 894.72,-0.5"/>
<text text-anchor="start" x="902.72" y="-29.5" font-family="Helvetica,sans-Serif" font-size="10.00">src/libs/xerces&#45;c/macx</text>
<text text-anchor="start" x="902.72" y="-18.5" font-family="Helvetica,sans-Serif" font-size="10.00">/include/xercesc/dom/impl</text>
<text text-anchor="middle" x="966.72" y="-7.5" font-family="Helvetica,sans-Serif" font-size="10.00">/XSDElementNSImpl.hpp</text>
</a>
</g>
</g>
<!-- Node11&#45;&gt;Node12 -->
<g id="edge13" class="edge">
<title>Node11&#45;&gt;Node12</title>
<path fill="none" stroke="midnightblue" d="M966.72,-68.3C966.72,-59.3 966.72,-49.65 966.72,-41.51"/>
<polygon fill="midnightblue" stroke="midnightblue" points="963.22,-68.43 966.72,-78.43 970.22,-68.43 963.22,-68.43"/>
</g>
<!-- Node17&#45;&gt;Node2 -->
<g id="edge19" class="edge">
<title>Node17&#45;&gt;Node2</title>
<path fill="none" stroke="midnightblue" d="M1128.72,-146.3C1128.72,-137.3 1128.72,-127.65 1128.72,-119.51"/>
<polygon fill="midnightblue" stroke="midnightblue" points="1125.22,-146.43 1128.72,-156.43 1132.22,-146.43 1125.22,-146.43"/>
</g>
</g>
</svg>
