<?xml version="1.0" encoding="UTF-8" standalone="no"?>
<!DOCTYPE svg PUBLIC "-//W3C//DTD SVG 1.1//EN"
 "http://www.w3.org/Graphics/SVG/1.1/DTD/svg11.dtd">
<!-- Generated by graphviz version 2.43.0 (0)
 -->
<!-- Title: src/app/seamlyme/application_me.h Pages: 1 -->
<!--zoomable 95 -->
<svg id="main" version="1.1" xmlns="http://www.w3.org/2000/svg" xmlns:xlink="http://www.w3.org/1999/xlink" xml:space="preserve" onload="init(evt)">
<style type="text/css"><![CDATA[
.edge:hover path { stroke: red; }
.edge:hover polygon { stroke: red; fill: red; }
]]></style>
<script type="text/javascript"><![CDATA[
var edges = document.getElementsByTagName('g');
if (edges && edges.length) {
  for (var i=0;i<edges.length;i++) {
    if (edges[i].id.substr(0,4)=='edge') {
      edges[i].setAttribute('class','edge');
    }
  }
}
]]></script>
        <defs>
                <circle id="rim" cx="0" cy="0" r="7"/>
                <circle id="rim2" cx="0" cy="0" r="3.5"/>
                <g id="zoomPlus">
                        <use xlink:href="#rim" fill="#404040">
                                <set attributeName="fill" to="#808080" begin="zoomplus.mouseover" end="zoomplus.mouseout"/>
                        </use>
                        <path d="M-4,0h8M0,-4v8" fill="none" stroke="white" stroke-width="1.5" pointer-events="none"/>
                </g>
                <g id="zoomMin">
                        <use xlink:href="#rim" fill="#404040">
                                <set attributeName="fill" to="#808080" begin="zoomminus.mouseover" end="zoomminus.mouseout"/>
                        </use>
                        <path d="M-4,0h8" fill="none" stroke="white" stroke-width="1.5" pointer-events="none"/>
                </g>
                <g id="dirArrow">
                        <path fill="none" stroke="white" stroke-width="1.5" d="M0,-3.0v7 M-2.5,-0.5L0,-3.0L2.5,-0.5"/>
                </g>
               <g id="resetDef">
                       <use xlink:href="#rim2" fill="#404040">
                               <set attributeName="fill" to="#808080" begin="reset.mouseover" end="reset.mouseout"/>
                       </use>
               </g>
        </defs>

<script type="text/javascript">
var viewWidth = 2030;
var viewHeight = 95;
var sectionId = 'dynsection-1';
</script>
<script xlink:href="../../svgpan.js"/>
<svg id="graph" class="graph">
<g id="viewport">
<title>src/app/seamlyme/application_me.h</title>
<polygon fill="white" stroke="transparent" points="-4,4 -4,-91 2026,-91 2026,4 -4,4"/>
<!-- Node1 -->
<g id="node1" class="node">
<title>Node1</title>
<g id="a_node1"><a xlink:title=" ">
<polygon fill="#bfbfbf" stroke="black" points="994.5,-67.5 994.5,-86.5 1188.5,-86.5 1188.5,-67.5 994.5,-67.5"/>
<text text-anchor="middle" x="1091.5" y="-74.5" font-family="Helvetica,sans-Serif" font-size="10.00">src/app/seamlyme/application_me.h</text>
</a>
</g>
</g>
<!-- Node2 -->
<g id="node2" class="node">
<title>Node2</title>
<g id="a_node2"><a xlink:href="../../d9/d23/seamlymepreferencesconfigurationpage_8cpp.html" target="_top" xlink:title=" ">
<polygon fill="white" stroke="black" points="0,-0.5 0,-30.5 299,-30.5 299,-0.5 0,-0.5"/>
<text text-anchor="start" x="8" y="-18.5" font-family="Helvetica,sans-Serif" font-size="10.00">src/app/seamlyme/dialogs</text>
<text text-anchor="middle" x="149.5" y="-7.5" font-family="Helvetica,sans-Serif" font-size="10.00">/configpages/seamlymepreferencesconfigurationpage.cpp</text>
</a>
</g>
</g>
<!-- Node1&#45;&gt;Node2 -->
<g id="edge1" class="edge">
<title>Node1&#45;&gt;Node2</title>
<path fill="none" stroke="midnightblue" d="M984.2,-70.97C833.28,-63.65 549.75,-48.93 308.5,-31 305.46,-30.77 302.39,-30.54 299.29,-30.3"/>
<polygon fill="midnightblue" stroke="midnightblue" points="984.23,-74.48 994.39,-71.47 984.57,-67.49 984.23,-74.48"/>
</g>
<!-- Node3 -->
<g id="node3" class="node">
<title>Node3</title>
<g id="a_node3"><a xlink:href="../../d8/dd0/application__me_8cpp.html" target="_top" xlink:title=" ">
<polygon fill="white" stroke="black" points="317.5,-0.5 317.5,-30.5 481.5,-30.5 481.5,-0.5 317.5,-0.5"/>
<text text-anchor="start" x="325.5" y="-18.5" font-family="Helvetica,sans-Serif" font-size="10.00">src/app/seamlyme/application</text>
<text text-anchor="middle" x="399.5" y="-7.5" font-family="Helvetica,sans-Serif" font-size="10.00">_me.cpp</text>
</a>
</g>
</g>
<!-- Node1&#45;&gt;Node3 -->
<g id="edge2" class="edge">
<title>Node1&#45;&gt;Node3</title>
<path fill="none" stroke="midnightblue" d="M984.14,-70.66C863.71,-64.05 662.67,-51.13 490.5,-31 487.64,-30.67 484.73,-30.31 481.8,-29.93"/>
<polygon fill="midnightblue" stroke="midnightblue" points="984.28,-74.18 994.46,-71.23 984.66,-67.19 984.28,-74.18"/>
</g>
<!-- Node4 -->
<g id="node4" class="node">
<title>Node4</title>
<g id="a_node4"><a xlink:href="../../d8/dcc/seamlymepreferencespathpage_8cpp.html" target="_top" xlink:title=" ">
<polygon fill="white" stroke="black" points="500,-0.5 500,-30.5 757,-30.5 757,-0.5 500,-0.5"/>
<text text-anchor="start" x="508" y="-18.5" font-family="Helvetica,sans-Serif" font-size="10.00">src/app/seamlyme/dialogs</text>
<text text-anchor="middle" x="628.5" y="-7.5" font-family="Helvetica,sans-Serif" font-size="10.00">/configpages/seamlymepreferencespathpage.cpp</text>
</a>
</g>
</g>
<!-- Node1&#45;&gt;Node4 -->
<g id="edge3" class="edge">
<title>Node1&#45;&gt;Node4</title>
<path fill="none" stroke="midnightblue" d="M1015.23,-66.2C939.62,-56.48 823.02,-41.5 737.62,-30.52"/>
<polygon fill="midnightblue" stroke="midnightblue" points="1014.8,-69.67 1025.16,-67.48 1015.69,-62.73 1014.8,-69.67"/>
</g>
<!-- Node5 -->
<g id="node5" class="node">
<title>Node5</title>
<g id="a_node5"><a xlink:href="../../d1/d42/dialogmdatabase_8cpp.html" target="_top" xlink:title=" ">
<polygon fill="white" stroke="black" points="775,-0.5 775,-30.5 920,-30.5 920,-0.5 775,-0.5"/>
<text text-anchor="start" x="783" y="-18.5" font-family="Helvetica,sans-Serif" font-size="10.00">src/app/seamlyme/dialogs</text>
<text text-anchor="middle" x="847.5" y="-7.5" font-family="Helvetica,sans-Serif" font-size="10.00">/dialogmdatabase.cpp</text>
</a>
</g>
</g>
<!-- Node1&#45;&gt;Node5 -->
<g id="edge4" class="edge">
<title>Node1&#45;&gt;Node5</title>
<path fill="none" stroke="midnightblue" d="M1046.58,-65.05C1006.72,-55.33 948.27,-41.07 905.01,-30.52"/>
<polygon fill="midnightblue" stroke="midnightblue" points="1046,-68.51 1056.54,-67.48 1047.65,-61.71 1046,-68.51"/>
</g>
<!-- Node6 -->
<g id="node6" class="node">
<title>Node6</title>
<g id="a_node6"><a xlink:href="../../d6/d8e/me__shortcuts__dialog_8cpp.html" target="_top" xlink:title=" ">
<polygon fill="white" stroke="black" points="938,-0.5 938,-30.5 1083,-30.5 1083,-0.5 938,-0.5"/>
<text text-anchor="start" x="946" y="-18.5" font-family="Helvetica,sans-Serif" font-size="10.00">src/app/seamlyme/dialogs</text>
<text text-anchor="middle" x="1010.5" y="-7.5" font-family="Helvetica,sans-Serif" font-size="10.00">/me_shortcuts_dialog.cpp</text>
</a>
</g>
</g>
<!-- Node1&#45;&gt;Node6 -->
<g id="edge5" class="edge">
<title>Node1&#45;&gt;Node6</title>
<path fill="none" stroke="midnightblue" d="M1071.72,-61.47C1058.89,-52.05 1042.27,-39.84 1029.59,-30.52"/>
<polygon fill="midnightblue" stroke="midnightblue" points="1069.76,-64.38 1079.89,-67.48 1073.91,-58.73 1069.76,-64.38"/>
</g>
<!-- Node7 -->
<g id="node7" class="node">
<title>Node7</title>
<g id="a_node7"><a xlink:href="../../dc/d74/me__welcome__dialog_8cpp.html" target="_top" xlink:title=" ">
<polygon fill="white" stroke="black" points="1101,-0.5 1101,-30.5 1246,-30.5 1246,-0.5 1101,-0.5"/>
<text text-anchor="start" x="1109" y="-18.5" font-family="Helvetica,sans-Serif" font-size="10.00">src/app/seamlyme/dialogs</text>
<text text-anchor="middle" x="1173.5" y="-7.5" font-family="Helvetica,sans-Serif" font-size="10.00">/me_welcome_dialog.cpp</text>
</a>
</g>
</g>
<!-- Node1&#45;&gt;Node7 -->
<g id="edge6" class="edge">
<title>Node1&#45;&gt;Node7</title>
<path fill="none" stroke="midnightblue" d="M1111.53,-61.47C1124.51,-52.05 1141.33,-39.84 1154.17,-30.52"/>
<polygon fill="midnightblue" stroke="midnightblue" points="1109.29,-58.77 1103.25,-67.48 1113.4,-64.43 1109.29,-58.77"/>
</g>
<!-- Node8 -->
<g id="node8" class="node">
<title>Node8</title>
<g id="a_node8"><a xlink:href="../../dd/db1/dialogseamlymepreferences_8cpp.html" target="_top" xlink:title=" ">
<polygon fill="white" stroke="black" points="1264,-0.5 1264,-30.5 1443,-30.5 1443,-0.5 1264,-0.5"/>
<text text-anchor="start" x="1272" y="-18.5" font-family="Helvetica,sans-Serif" font-size="10.00">src/app/seamlyme/dialogs</text>
<text text-anchor="middle" x="1353.5" y="-7.5" font-family="Helvetica,sans-Serif" font-size="10.00">/dialogseamlymepreferences.cpp</text>
</a>
</g>
</g>
<!-- Node1&#45;&gt;Node8 -->
<g id="edge7" class="edge">
<title>Node1&#45;&gt;Node8</title>
<path fill="none" stroke="midnightblue" d="M1138.92,-65.23C1181.74,-55.51 1245,-41.14 1291.75,-30.52"/>
<polygon fill="midnightblue" stroke="midnightblue" points="1138.01,-61.85 1129.04,-67.48 1139.57,-68.67 1138.01,-61.85"/>
</g>
<!-- Node9 -->
<g id="node9" class="node">
<title>Node9</title>
<g id="a_node9"><a xlink:href="../../d7/d31/new__measurements__dialog_8cpp.html" target="_top" xlink:title=" ">
<polygon fill="white" stroke="black" points="1461.5,-0.5 1461.5,-30.5 1635.5,-30.5 1635.5,-0.5 1461.5,-0.5"/>
<text text-anchor="start" x="1469.5" y="-18.5" font-family="Helvetica,sans-Serif" font-size="10.00">src/app/seamlyme/dialogs</text>
<text text-anchor="middle" x="1548.5" y="-7.5" font-family="Helvetica,sans-Serif" font-size="10.00">/new_measurements_dialog.cpp</text>
</a>
</g>
</g>
<!-- Node1&#45;&gt;Node9 -->
<g id="edge8" class="edge">
<title>Node1&#45;&gt;Node9</title>
<path fill="none" stroke="midnightblue" d="M1174.6,-66.26C1247.82,-57.53 1357.34,-44.12 1452.5,-31 1455.42,-30.6 1458.39,-30.18 1461.39,-29.76"/>
<polygon fill="midnightblue" stroke="midnightblue" points="1174.03,-62.8 1164.52,-67.46 1174.86,-69.75 1174.03,-62.8"/>
</g>
<!-- Node10 -->
<g id="node10" class="node">
<title>Node10</title>
<g id="a_node10"><a xlink:href="../../db/de0/app_2seamlyme_2main_8cpp.html" target="_top" xlink:title=" ">
<polygon fill="white" stroke="black" points="1654,-6 1654,-25 1809,-25 1809,-6 1654,-6"/>
<text text-anchor="middle" x="1731.5" y="-13" font-family="Helvetica,sans-Serif" font-size="10.00">src/app/seamlyme/main.cpp</text>
</a>
</g>
</g>
<!-- Node1&#45;&gt;Node10 -->
<g id="edge9" class="edge">
<title>Node1&#45;&gt;Node10</title>
<path fill="none" stroke="midnightblue" d="M1198.9,-69.94C1310.53,-63.01 1490.15,-50.11 1644.5,-31 1657.57,-29.38 1671.68,-27.21 1684.65,-25.05"/>
<polygon fill="midnightblue" stroke="midnightblue" points="1198.42,-66.46 1188.65,-70.57 1198.85,-73.45 1198.42,-66.46"/>
</g>
<!-- Node11 -->
<g id="node11" class="node">
<title>Node11</title>
<g id="a_node11"><a xlink:href="../../dc/de1/tmainwindow_8cpp.html" target="_top" xlink:title=" ">
<polygon fill="white" stroke="black" points="1827,-6 1827,-25 2022,-25 2022,-6 1827,-6"/>
<text text-anchor="middle" x="1924.5" y="-13" font-family="Helvetica,sans-Serif" font-size="10.00">src/app/seamlyme/tmainwindow.cpp</text>
</a>
</g>
</g>
<!-- Node1&#45;&gt;Node11 -->
<g id="edge10" class="edge">
<title>Node1&#45;&gt;Node11</title>
<path fill="none" stroke="midnightblue" d="M1198.72,-71.85C1340.72,-65.79 1598.83,-52.79 1818.5,-31 1834.58,-29.4 1851.97,-27.22 1867.93,-25.03"/>
<polygon fill="midnightblue" stroke="midnightblue" points="1198.54,-68.36 1188.7,-72.28 1198.84,-75.35 1198.54,-68.36"/>
</g>
</g>
</svg>
        <g id="navigator" transform="translate(0 0)" fill="#404254">
                <rect fill="#f2f5e9" fill-opacity="0.5" stroke="#606060" stroke-width=".5" x="0" y="0" width="60" height="60"/>
                <use id="zoomplus" xlink:href="#zoomPlus" x="17" y="9" onmousedown="handleZoom(evt,'in')"/>
                <use id="zoomminus" xlink:href="#zoomMin" x="42" y="9" onmousedown="handleZoom(evt,'out')"/>
                <use id="reset" xlink:href="#resetDef" x="30" y="36" onmousedown="handleReset()"/>
                <g id="arrowUp" xlink:href="#dirArrow" transform="translate(30 24)" onmousedown="handlePan(0,-1)">
                  <use xlink:href="#rim" fill="#404040">
                        <set attributeName="fill" to="#808080" begin="arrowUp.mouseover" end="arrowUp.mouseout"/>
                  </use>
                  <path fill="none" stroke="white" stroke-width="1.5" d="M0,-3.0v7 M-2.5,-0.5L0,-3.0L2.5,-0.5"/>
                </g>
                <g id="arrowRight" xlink:href="#dirArrow" transform="rotate(90) translate(36 -43)" onmousedown="handlePan(1,0)">
                  <use xlink:href="#rim" fill="#404040">
                        <set attributeName="fill" to="#808080" begin="arrowRight.mouseover" end="arrowRight.mouseout"/>
                  </use>
                  <path fill="none" stroke="white" stroke-width="1.5" d="M0,-3.0v7 M-2.5,-0.5L0,-3.0L2.5,-0.5"/>
                </g>
                <g id="arrowDown" xlink:href="#dirArrow" transform="rotate(180) translate(-30 -48)" onmousedown="handlePan(0,1)">
                  <use xlink:href="#rim" fill="#404040">
                        <set attributeName="fill" to="#808080" begin="arrowDown.mouseover" end="arrowDown.mouseout"/>
                  </use>
                  <path fill="none" stroke="white" stroke-width="1.5" d="M0,-3.0v7 M-2.5,-0.5L0,-3.0L2.5,-0.5"/>
                </g>
                <g id="arrowLeft" xlink:href="#dirArrow" transform="rotate(270) translate(-36 17)" onmousedown="handlePan(-1,0)">
                  <use xlink:href="#rim" fill="#404040">
                        <set attributeName="fill" to="#808080" begin="arrowLeft.mouseover" end="arrowLeft.mouseout"/>
                  </use>
                  <path fill="none" stroke="white" stroke-width="1.5" d="M0,-3.0v7 M-2.5,-0.5L0,-3.0L2.5,-0.5"/>
                </g>
        </g>
        <svg viewBox="0 0 15 15" width="100%" height="30px" preserveAspectRatio="xMaxYMin meet">
         <g id="arrow_out" transform="scale(0.3 0.3)">
          <a xlink:href="application__me_8h__dep__incl_org.svg" target="_base">
           <rect id="button" ry="5" rx="5" y="6" x="6" height="38" width="38"
                fill="#f2f5e9" fill-opacity="0.5" stroke="#606060" stroke-width="1.0"/>
           <path id="arrow"
             d="M 11.500037,31.436501 C 11.940474,20.09759 22.043105,11.32322 32.158766,21.979434 L 37.068811,17.246167 C 37.068811,17.246167 37.088388,32 37.088388,32 L 22.160133,31.978069 C 22.160133,31.978069 26.997745,27.140456 26.997745,27.140456 C 18.528582,18.264221 13.291696,25.230495 11.500037,31.436501 z"
             style="fill:#404040;"/>
          </a>
         </g>
        </svg>
</svg>
