<?xml version="1.0" encoding="UTF-8" standalone="no"?>
<!DOCTYPE svg PUBLIC "-//W3C//DTD SVG 1.1//EN"
 "http://www.w3.org/Graphics/SVG/1.1/DTD/svg11.dtd">
<!-- Generated by graphviz version 2.43.0 (0)
 -->
<!-- Title: src/app/seamlyme/application_me.h Pages: 1 -->
<svg width="2030pt" height="95pt"
 viewBox="0.00 0.00 2030.00 95.00" xmlns="http://www.w3.org/2000/svg" xmlns:xlink="http://www.w3.org/1999/xlink">
<g id="graph0" class="graph" transform="scale(1 1) rotate(0) translate(4 91)">
<title>src/app/seamlyme/application_me.h</title>
<polygon fill="white" stroke="transparent" points="-4,4 -4,-91 2026,-91 2026,4 -4,4"/>
<!-- Node1 -->
<g id="node1" class="node">
<title>Node1</title>
<g id="a_node1"><a xlink:title=" ">
<polygon fill="#bfbfbf" stroke="black" points="1028.5,-67.5 1028.5,-86.5 1222.5,-86.5 1222.5,-67.5 1028.5,-67.5"/>
<text text-anchor="middle" x="1125.5" y="-74.5" font-family="Helvetica,sans-Serif" font-size="10.00">src/app/seamlyme/application_me.h</text>
</a>
</g>
</g>
<!-- Node2 -->
<g id="node2" class="node">
<title>Node2</title>
<g id="a_node2"><a xlink:href="../../d9/d23/seamlymepreferencesconfigurationpage_8cpp.html" target="_top" xlink:title=" ">
<polygon fill="white" stroke="black" points="0,-0.5 0,-30.5 299,-30.5 299,-0.5 0,-0.5"/>
<text text-anchor="start" x="8" y="-18.5" font-family="Helvetica,sans-Serif" font-size="10.00">src/app/seamlyme/dialogs</text>
<text text-anchor="middle" x="149.5" y="-7.5" font-family="Helvetica,sans-Serif" font-size="10.00">/configpages/seamlymepreferencesconfigurationpage.cpp</text>
</a>
</g>
</g>
<!-- Node1&#45;&gt;Node2 -->
<g id="edge1" class="edge">
<title>Node1&#45;&gt;Node2</title>
<path fill="none" stroke="midnightblue" d="M1018.19,-71.32C861.95,-64.23 562.72,-49.59 308.5,-31 305.46,-30.78 302.39,-30.55 299.29,-30.31"/>
<polygon fill="midnightblue" stroke="midnightblue" points="1018.13,-74.82 1028.28,-71.78 1018.44,-67.83 1018.13,-74.82"/>
</g>
<!-- Node3 -->
<g id="node3" class="node">
<title>Node3</title>
<g id="a_node3"><a xlink:href="../../d8/dd0/application__me_8cpp.html" target="_top" xlink:title=" ">
<polygon fill="white" stroke="black" points="317.5,-0.5 317.5,-30.5 481.5,-30.5 481.5,-0.5 317.5,-0.5"/>
<text text-anchor="start" x="325.5" y="-18.5" font-family="Helvetica,sans-Serif" font-size="10.00">src/app/seamlyme/application</text>
<text text-anchor="middle" x="399.5" y="-7.5" font-family="Helvetica,sans-Serif" font-size="10.00">_me.cpp</text>
</a>
</g>
</g>
<!-- Node1&#45;&gt;Node3 -->
<g id="edge2" class="edge">
<title>Node1&#45;&gt;Node3</title>
<path fill="none" stroke="midnightblue" d="M1018.36,-71.26C891.91,-65.02 675.44,-52.25 490.5,-31 487.64,-30.67 484.73,-30.32 481.8,-29.94"/>
<polygon fill="midnightblue" stroke="midnightblue" points="1018.28,-74.76 1028.43,-71.76 1018.62,-67.77 1018.28,-74.76"/>
</g>
<!-- Node4 -->
<g id="node4" class="node">
<title>Node4</title>
<g id="a_node4"><a xlink:href="../../d8/dcc/seamlymepreferencespathpage_8cpp.html" target="_top" xlink:title=" ">
<polygon fill="white" stroke="black" points="500,-0.5 500,-30.5 757,-30.5 757,-0.5 500,-0.5"/>
<text text-anchor="start" x="508" y="-18.5" font-family="Helvetica,sans-Serif" font-size="10.00">src/app/seamlyme/dialogs</text>
<text text-anchor="middle" x="628.5" y="-7.5" font-family="Helvetica,sans-Serif" font-size="10.00">/configpages/seamlymepreferencespathpage.cpp</text>
</a>
</g>
</g>
<!-- Node1&#45;&gt;Node4 -->
<g id="edge3" class="edge">
<title>Node1&#45;&gt;Node4</title>
<path fill="none" stroke="midnightblue" d="M1044.13,-66.26C962.97,-56.54 837.5,-41.52 745.63,-30.52"/>
<polygon fill="midnightblue" stroke="midnightblue" points="1043.95,-69.76 1054.29,-67.48 1044.78,-62.81 1043.95,-69.76"/>
</g>
<!-- Node5 -->
<g id="node5" class="node">
<title>Node5</title>
<g id="a_node5"><a xlink:href="../../dd/db1/dialogseamlymepreferences_8cpp.html" target="_top" xlink:title=" ">
<polygon fill="white" stroke="black" points="775,-0.5 775,-30.5 954,-30.5 954,-0.5 775,-0.5"/>
<text text-anchor="start" x="783" y="-18.5" font-family="Helvetica,sans-Serif" font-size="10.00">src/app/seamlyme/dialogs</text>
<text text-anchor="middle" x="864.5" y="-7.5" font-family="Helvetica,sans-Serif" font-size="10.00">/dialogseamlymepreferences.cpp</text>
</a>
</g>
</g>
<!-- Node1&#45;&gt;Node5 -->
<g id="edge4" class="edge">
<title>Node1&#45;&gt;Node5</title>
<path fill="none" stroke="midnightblue" d="M1078.26,-65.23C1035.61,-55.51 972.58,-41.14 926.01,-30.52"/>
<polygon fill="midnightblue" stroke="midnightblue" points="1077.58,-68.66 1088.11,-67.48 1079.13,-61.84 1077.58,-68.66"/>
</g>
<!-- Node6 -->
<g id="node6" class="node">
<title>Node6</title>
<g id="a_node6"><a xlink:href="../../d6/d8e/me__shortcuts__dialog_8cpp.html" target="_top" xlink:title=" ">
<polygon fill="white" stroke="black" points="972,-0.5 972,-30.5 1117,-30.5 1117,-0.5 972,-0.5"/>
<text text-anchor="start" x="980" y="-18.5" font-family="Helvetica,sans-Serif" font-size="10.00">src/app/seamlyme/dialogs</text>
<text text-anchor="middle" x="1044.5" y="-7.5" font-family="Helvetica,sans-Serif" font-size="10.00">/me_shortcuts_dialog.cpp</text>
</a>
</g>
</g>
<!-- Node1&#45;&gt;Node6 -->
<g id="edge5" class="edge">
<title>Node1&#45;&gt;Node6</title>
<path fill="none" stroke="midnightblue" d="M1105.72,-61.47C1092.89,-52.05 1076.27,-39.84 1063.59,-30.52"/>
<polygon fill="midnightblue" stroke="midnightblue" points="1103.76,-64.38 1113.89,-67.48 1107.91,-58.73 1103.76,-64.38"/>
</g>
<!-- Node7 -->
<g id="node7" class="node">
<title>Node7</title>
<g id="a_node7"><a xlink:href="../../dc/d74/me__welcome__dialog_8cpp.html" target="_top" xlink:title=" ">
<polygon fill="white" stroke="black" points="1135,-0.5 1135,-30.5 1280,-30.5 1280,-0.5 1135,-0.5"/>
<text text-anchor="start" x="1143" y="-18.5" font-family="Helvetica,sans-Serif" font-size="10.00">src/app/seamlyme/dialogs</text>
<text text-anchor="middle" x="1207.5" y="-7.5" font-family="Helvetica,sans-Serif" font-size="10.00">/me_welcome_dialog.cpp</text>
</a>
</g>
</g>
<!-- Node1&#45;&gt;Node7 -->
<g id="edge6" class="edge">
<title>Node1&#45;&gt;Node7</title>
<path fill="none" stroke="midnightblue" d="M1145.53,-61.47C1158.51,-52.05 1175.33,-39.84 1188.17,-30.52"/>
<polygon fill="midnightblue" stroke="midnightblue" points="1143.29,-58.77 1137.25,-67.48 1147.4,-64.43 1143.29,-58.77"/>
</g>
<!-- Node8 -->
<g id="node8" class="node">
<title>Node8</title>
<g id="a_node8"><a xlink:href="../../d1/d42/dialogmdatabase_8cpp.html" target="_top" xlink:title=" ">
<polygon fill="white" stroke="black" points="1298,-0.5 1298,-30.5 1443,-30.5 1443,-0.5 1298,-0.5"/>
<text text-anchor="start" x="1306" y="-18.5" font-family="Helvetica,sans-Serif" font-size="10.00">src/app/seamlyme/dialogs</text>
<text text-anchor="middle" x="1370.5" y="-7.5" font-family="Helvetica,sans-Serif" font-size="10.00">/dialogmdatabase.cpp</text>
</a>
</g>
</g>
<!-- Node1&#45;&gt;Node8 -->
<g id="edge7" class="edge">
<title>Node1&#45;&gt;Node8</title>
<path fill="none" stroke="midnightblue" d="M1170.35,-65.11C1210.38,-55.39 1269.23,-41.1 1312.76,-30.52"/>
<polygon fill="midnightblue" stroke="midnightblue" points="1169.49,-61.71 1160.6,-67.48 1171.15,-68.52 1169.49,-61.71"/>
</g>
<!-- Node9 -->
<g id="node9" class="node">
<title>Node9</title>
<g id="a_node9"><a xlink:href="../../d7/d31/new__measurements__dialog_8cpp.html" target="_top" xlink:title=" ">
<polygon fill="white" stroke="black" points="1461.5,-0.5 1461.5,-30.5 1635.5,-30.5 1635.5,-0.5 1461.5,-0.5"/>
<text text-anchor="start" x="1469.5" y="-18.5" font-family="Helvetica,sans-Serif" font-size="10.00">src/app/seamlyme/dialogs</text>
<text text-anchor="middle" x="1548.5" y="-7.5" font-family="Helvetica,sans-Serif" font-size="10.00">/new_measurements_dialog.cpp</text>
</a>
</g>
</g>
<!-- Node1&#45;&gt;Node9 -->
<g id="edge8" class="edge">
<title>Node1&#45;&gt;Node9</title>
<path fill="none" stroke="midnightblue" d="M1199.08,-66.16C1265.38,-57.22 1365.51,-43.55 1452.5,-31 1455.42,-30.58 1458.39,-30.15 1461.39,-29.71"/>
<polygon fill="midnightblue" stroke="midnightblue" points="1198.58,-62.69 1189.14,-67.49 1199.52,-69.63 1198.58,-62.69"/>
</g>
<!-- Node10 -->
<g id="node10" class="node">
<title>Node10</title>
<g id="a_node10"><a xlink:href="../../db/de0/app_2seamlyme_2main_8cpp.html" target="_top" xlink:title=" ">
<polygon fill="white" stroke="black" points="1654,-6 1654,-25 1809,-25 1809,-6 1654,-6"/>
<text text-anchor="middle" x="1731.5" y="-13" font-family="Helvetica,sans-Serif" font-size="10.00">src/app/seamlyme/main.cpp</text>
</a>
</g>
</g>
<!-- Node1&#45;&gt;Node10 -->
<g id="edge9" class="edge">
<title>Node1&#45;&gt;Node10</title>
<path fill="none" stroke="midnightblue" d="M1232.82,-69.17C1337.95,-61.89 1502.6,-48.95 1644.5,-31 1657.56,-29.35 1671.67,-27.17 1684.64,-25"/>
<polygon fill="midnightblue" stroke="midnightblue" points="1232.57,-65.68 1222.83,-69.86 1233.05,-72.66 1232.57,-65.68"/>
</g>
<!-- Node11 -->
<g id="node11" class="node">
<title>Node11</title>
<g id="a_node11"><a xlink:href="../../dc/de1/tmainwindow_8cpp.html" target="_top" xlink:title=" ">
<polygon fill="white" stroke="black" points="1827,-6 1827,-25 2022,-25 2022,-6 1827,-6"/>
<text text-anchor="middle" x="1924.5" y="-13" font-family="Helvetica,sans-Serif" font-size="10.00">src/app/seamlyme/tmainwindow.cpp</text>
</a>
</g>
</g>
<!-- Node1&#45;&gt;Node11 -->
<g id="edge10" class="edge">
<title>Node1&#45;&gt;Node11</title>
<path fill="none" stroke="midnightblue" d="M1232.7,-71.41C1369.04,-65.02 1611.65,-51.84 1818.5,-31 1834.49,-29.39 1851.77,-27.21 1867.65,-25.03"/>
<polygon fill="midnightblue" stroke="midnightblue" points="1232.49,-67.91 1222.66,-71.87 1232.81,-74.9 1232.49,-67.91"/>
</g>
</g>
</svg>
