<?xml version="1.0" encoding="UTF-8" standalone="no"?>
<!DOCTYPE svg PUBLIC "-//W3C//DTD SVG 1.1//EN"
 "http://www.w3.org/Graphics/SVG/1.1/DTD/svg11.dtd">
<!-- Generated by graphviz version 2.43.0 (0)
 -->
<!-- Title: src/libs/vformat/vlabeltemplate.cpp Pages: 1 -->
<svg width="1266pt" height="252pt"
 viewBox="0.00 0.00 1266.00 252.00" xmlns="http://www.w3.org/2000/svg" xmlns:xlink="http://www.w3.org/1999/xlink">
<g id="graph0" class="graph" transform="scale(1 1) rotate(0) translate(4 248)">
<title>src/libs/vformat/vlabeltemplate.cpp</title>
<polygon fill="white" stroke="transparent" points="-4,4 -4,-248 1262,-248 1262,4 -4,4"/>
<!-- Node1 -->
<g id="node1" class="node">
<title>Node1</title>
<g id="a_node1"><a xlink:title=" ">
<polygon fill="#bfbfbf" stroke="black" points="639,-224.5 639,-243.5 830,-243.5 830,-224.5 639,-224.5"/>
<text text-anchor="middle" x="734.5" y="-231.5" font-family="Helvetica,sans-Serif" font-size="10.00">src/libs/vformat/vlabeltemplate.cpp</text>
</a>
</g>
</g>
<!-- Node2 -->
<g id="node2" class="node">
<title>Node2</title>
<g id="a_node2"><a xlink:href="../../d2/d8a/vlabeltemplate_8h.html" target="_top" xlink:title=" ">
<polygon fill="white" stroke="black" points="621.5,-112.5 621.5,-131.5 721.5,-131.5 721.5,-112.5 621.5,-112.5"/>
<text text-anchor="middle" x="671.5" y="-119.5" font-family="Helvetica,sans-Serif" font-size="10.00">vlabeltemplate.h</text>
</a>
</g>
</g>
<!-- Node1&#45;&gt;Node2 -->
<g id="edge1" class="edge">
<title>Node1&#45;&gt;Node2</title>
<path fill="none" stroke="midnightblue" d="M724.15,-224.34C714.7,-215.94 700.95,-202.37 692.5,-188 684.04,-173.63 678.54,-155.43 675.3,-141.95"/>
<polygon fill="midnightblue" stroke="midnightblue" points="678.66,-140.93 673.09,-131.92 671.82,-142.44 678.66,-140.93"/>
</g>
<!-- Node17 -->
<g id="node17" class="node">
<title>Node17</title>
<g id="a_node17"><a xlink:href="../../d5/d35/vlabeltemplateconverter_8h.html" target="_top" xlink:title=" ">
<polygon fill="white" stroke="black" points="702,-168.5 702,-187.5 893,-187.5 893,-168.5 702,-168.5"/>
<text text-anchor="middle" x="797.5" y="-175.5" font-family="Helvetica,sans-Serif" font-size="10.00">../ifc/xml/vlabeltemplateconverter.h</text>
</a>
</g>
</g>
<!-- Node1&#45;&gt;Node17 -->
<g id="edge16" class="edge">
<title>Node1&#45;&gt;Node17</title>
<path fill="none" stroke="midnightblue" d="M744.62,-224.32C754.03,-216.26 768.24,-204.08 779.57,-194.37"/>
<polygon fill="midnightblue" stroke="midnightblue" points="781.88,-197 787.19,-187.83 777.32,-191.68 781.88,-197"/>
</g>
<!-- Node3 -->
<g id="node3" class="node">
<title>Node3</title>
<g id="a_node3"><a xlink:href="../../d8/da5/vdomdocument_8h.html" target="_top" xlink:title=" ">
<polygon fill="white" stroke="black" points="597.5,-56.5 597.5,-75.5 745.5,-75.5 745.5,-56.5 597.5,-56.5"/>
<text text-anchor="middle" x="671.5" y="-63.5" font-family="Helvetica,sans-Serif" font-size="10.00">../ifc/xml/vdomdocument.h</text>
</a>
</g>
</g>
<!-- Node2&#45;&gt;Node3 -->
<g id="edge2" class="edge">
<title>Node2&#45;&gt;Node3</title>
<path fill="none" stroke="midnightblue" d="M671.5,-112.08C671.5,-105.01 671.5,-94.86 671.5,-85.99"/>
<polygon fill="midnightblue" stroke="midnightblue" points="675,-85.75 671.5,-75.75 668,-85.75 675,-85.75"/>
</g>
<!-- Node4 -->
<g id="node4" class="node">
<title>Node4</title>
<g id="a_node4"><a xlink:title=" ">
<polygon fill="white" stroke="#bfbfbf" points="0,-0.5 0,-19.5 101,-19.5 101,-0.5 0,-0.5"/>
<text text-anchor="middle" x="50.5" y="-7.5" font-family="Helvetica,sans-Serif" font-size="10.00">QCoreApplication</text>
</a>
</g>
</g>
<!-- Node3&#45;&gt;Node4 -->
<g id="edge3" class="edge">
<title>Node3&#45;&gt;Node4</title>
<path fill="none" stroke="midnightblue" d="M597.38,-60.69C491.82,-54.18 291.89,-40.51 111.16,-20"/>
<polygon fill="midnightblue" stroke="midnightblue" points="111.54,-16.52 101.21,-18.86 110.74,-23.47 111.54,-16.52"/>
</g>
<!-- Node5 -->
<g id="node5" class="node">
<title>Node5</title>
<g id="a_node5"><a xlink:title=" ">
<polygon fill="white" stroke="#bfbfbf" points="119.5,-0.5 119.5,-19.5 217.5,-19.5 217.5,-0.5 119.5,-0.5"/>
<text text-anchor="middle" x="168.5" y="-7.5" font-family="Helvetica,sans-Serif" font-size="10.00">QDomDocument</text>
</a>
</g>
</g>
<!-- Node3&#45;&gt;Node5 -->
<g id="edge4" class="edge">
<title>Node3&#45;&gt;Node5</title>
<path fill="none" stroke="midnightblue" d="M597.35,-58.72C511.07,-51.13 364.06,-37.36 227.74,-20.1"/>
<polygon fill="midnightblue" stroke="midnightblue" points="227.88,-16.59 217.52,-18.79 227,-23.53 227.88,-16.59"/>
</g>
<!-- Node6 -->
<g id="node6" class="node">
<title>Node6</title>
<g id="a_node6"><a xlink:title=" ">
<polygon fill="white" stroke="#bfbfbf" points="235.5,-0.5 235.5,-19.5 323.5,-19.5 323.5,-0.5 235.5,-0.5"/>
<text text-anchor="middle" x="279.5" y="-7.5" font-family="Helvetica,sans-Serif" font-size="10.00">QDomElement</text>
</a>
</g>
</g>
<!-- Node3&#45;&gt;Node6 -->
<g id="edge5" class="edge">
<title>Node3&#45;&gt;Node6</title>
<path fill="none" stroke="midnightblue" d="M601.6,-56.47C535.26,-48.21 432.5,-34.96 333.87,-20.16"/>
<polygon fill="midnightblue" stroke="midnightblue" points="334.14,-16.66 323.73,-18.63 333.09,-23.59 334.14,-16.66"/>
</g>
<!-- Node7 -->
<g id="node7" class="node">
<title>Node7</title>
<g id="a_node7"><a xlink:title=" ">
<polygon fill="white" stroke="#bfbfbf" points="342,-0.5 342,-19.5 415,-19.5 415,-0.5 342,-0.5"/>
<text text-anchor="middle" x="378.5" y="-7.5" font-family="Helvetica,sans-Serif" font-size="10.00">QDomNode</text>
</a>
</g>
</g>
<!-- Node3&#45;&gt;Node7 -->
<g id="edge6" class="edge">
<title>Node3&#45;&gt;Node7</title>
<path fill="none" stroke="midnightblue" d="M622.98,-56.46C575.1,-47.97 499.54,-34.42 425.31,-20.32"/>
<polygon fill="midnightblue" stroke="midnightblue" points="425.8,-16.85 415.33,-18.42 424.49,-23.73 425.8,-16.85"/>
</g>
<!-- Node8 -->
<g id="node8" class="node">
<title>Node8</title>
<g id="a_node8"><a xlink:title=" ">
<polygon fill="white" stroke="#bfbfbf" points="433,-0.5 433,-19.5 482,-19.5 482,-0.5 433,-0.5"/>
<text text-anchor="middle" x="457.5" y="-7.5" font-family="Helvetica,sans-Serif" font-size="10.00">QHash</text>
</a>
</g>
</g>
<!-- Node3&#45;&gt;Node8 -->
<g id="edge7" class="edge">
<title>Node3&#45;&gt;Node8</title>
<path fill="none" stroke="midnightblue" d="M636.06,-56.44C601.6,-48.06 547.51,-34.76 492.3,-20.43"/>
<polygon fill="midnightblue" stroke="midnightblue" points="492.91,-16.97 482.35,-17.84 491.15,-23.75 492.91,-16.97"/>
</g>
<!-- Node9 -->
<g id="node9" class="node">
<title>Node9</title>
<g id="a_node9"><a xlink:title=" ">
<polygon fill="white" stroke="#bfbfbf" points="500,-0.5 500,-19.5 583,-19.5 583,-0.5 500,-0.5"/>
<text text-anchor="middle" x="541.5" y="-7.5" font-family="Helvetica,sans-Serif" font-size="10.00">QLatin1String</text>
</a>
</g>
</g>
<!-- Node3&#45;&gt;Node9 -->
<g id="edge8" class="edge">
<title>Node3&#45;&gt;Node9</title>
<path fill="none" stroke="midnightblue" d="M650.9,-56.44C629.51,-47.56 595.82,-33.56 571.48,-23.45"/>
<polygon fill="midnightblue" stroke="midnightblue" points="572.58,-20.12 562,-19.52 569.89,-26.58 572.58,-20.12"/>
</g>
<!-- Node10 -->
<g id="node10" class="node">
<title>Node10</title>
<g id="a_node10"><a xlink:title=" ">
<polygon fill="white" stroke="#bfbfbf" points="1128,-0.5 1128,-19.5 1181,-19.5 1181,-0.5 1128,-0.5"/>
<text text-anchor="middle" x="1154.5" y="-7.5" font-family="Helvetica,sans-Serif" font-size="10.00">QString</text>
</a>
</g>
</g>
<!-- Node3&#45;&gt;Node10 -->
<g id="edge9" class="edge">
<title>Node3&#45;&gt;Node10</title>
<path fill="none" stroke="midnightblue" d="M745.64,-58.17C856.3,-47.9 1057.41,-28.85 1117.95,-19.9"/>
<polygon fill="midnightblue" stroke="midnightblue" points="1118.53,-23.35 1127.84,-18.3 1117.41,-16.44 1118.53,-23.35"/>
</g>
<!-- Node11 -->
<g id="node11" class="node">
<title>Node11</title>
<g id="a_node11"><a xlink:title=" ">
<polygon fill="white" stroke="#bfbfbf" points="1199,-0.5 1199,-19.5 1258,-19.5 1258,-0.5 1199,-0.5"/>
<text text-anchor="middle" x="1228.5" y="-7.5" font-family="Helvetica,sans-Serif" font-size="10.00">QtGlobal</text>
</a>
</g>
</g>
<!-- Node3&#45;&gt;Node11 -->
<g id="edge10" class="edge">
<title>Node3&#45;&gt;Node11</title>
<path fill="none" stroke="midnightblue" d="M745.6,-59.92C863.74,-51.59 1090.7,-34.66 1188.79,-20.03"/>
<polygon fill="midnightblue" stroke="midnightblue" points="1189.37,-23.49 1198.71,-18.49 1188.29,-16.57 1189.37,-23.49"/>
</g>
<!-- Node12 -->
<g id="node12" class="node">
<title>Node12</title>
<g id="a_node12"><a xlink:title=" ">
<polygon fill="white" stroke="#bfbfbf" points="601.5,-0.5 601.5,-19.5 657.5,-19.5 657.5,-0.5 601.5,-0.5"/>
<text text-anchor="middle" x="629.5" y="-7.5" font-family="Helvetica,sans-Serif" font-size="10.00">QLocale</text>
</a>
</g>
</g>
<!-- Node3&#45;&gt;Node12 -->
<g id="edge11" class="edge">
<title>Node3&#45;&gt;Node12</title>
<path fill="none" stroke="midnightblue" d="M664.56,-56.08C658.57,-48.38 649.75,-37.03 642.45,-27.65"/>
<polygon fill="midnightblue" stroke="midnightblue" points="645.21,-25.5 636.31,-19.75 639.68,-29.79 645.21,-25.5"/>
</g>
<!-- Node13 -->
<g id="node13" class="node">
<title>Node13</title>
<g id="a_node13"><a xlink:title=" ">
<polygon fill="white" stroke="#bfbfbf" points="676,-0.5 676,-19.5 753,-19.5 753,-0.5 676,-0.5"/>
<text text-anchor="middle" x="714.5" y="-7.5" font-family="Helvetica,sans-Serif" font-size="10.00">../ifc/ifcdef.h</text>
</a>
</g>
</g>
<!-- Node3&#45;&gt;Node13 -->
<g id="edge12" class="edge">
<title>Node3&#45;&gt;Node13</title>
<path fill="none" stroke="midnightblue" d="M678.6,-56.08C684.74,-48.38 693.77,-37.03 701.24,-27.65"/>
<polygon fill="midnightblue" stroke="midnightblue" points="704.04,-29.75 707.53,-19.75 698.56,-25.39 704.04,-29.75"/>
</g>
<!-- Node14 -->
<g id="node14" class="node">
<title>Node14</title>
<g id="a_node14"><a xlink:title=" ">
<polygon fill="white" stroke="#bfbfbf" points="771.5,-0.5 771.5,-19.5 853.5,-19.5 853.5,-0.5 771.5,-0.5"/>
<text text-anchor="middle" x="812.5" y="-7.5" font-family="Helvetica,sans-Serif" font-size="10.00">../vmisc/def.h</text>
</a>
</g>
</g>
<!-- Node3&#45;&gt;Node14 -->
<g id="edge13" class="edge">
<title>Node3&#45;&gt;Node14</title>
<path fill="none" stroke="midnightblue" d="M693.84,-56.44C717.25,-47.48 754.24,-33.31 780.69,-23.18"/>
<polygon fill="midnightblue" stroke="midnightblue" points="782.18,-26.36 790.26,-19.52 779.67,-19.82 782.18,-26.36"/>
</g>
<!-- Node15 -->
<g id="node15" class="node">
<title>Node15</title>
<g id="a_node15"><a xlink:title=" ">
<polygon fill="white" stroke="#bfbfbf" points="872,-0.5 872,-19.5 989,-19.5 989,-0.5 872,-0.5"/>
<text text-anchor="middle" x="930.5" y="-7.5" font-family="Helvetica,sans-Serif" font-size="10.00">../vmisc/diagnostic.h</text>
</a>
</g>
</g>
<!-- Node3&#45;&gt;Node15 -->
<g id="edge14" class="edge">
<title>Node3&#45;&gt;Node15</title>
<path fill="none" stroke="midnightblue" d="M712.54,-56.44C757.82,-47 830.73,-31.8 879.61,-21.61"/>
<polygon fill="midnightblue" stroke="midnightblue" points="880.58,-24.98 889.65,-19.52 879.15,-18.13 880.58,-24.98"/>
</g>
<!-- Node16 -->
<g id="node16" class="node">
<title>Node16</title>
<g id="a_node16"><a xlink:title=" ">
<polygon fill="white" stroke="#bfbfbf" points="1007,-0.5 1007,-19.5 1110,-19.5 1110,-0.5 1007,-0.5"/>
<text text-anchor="middle" x="1058.5" y="-7.5" font-family="Helvetica,sans-Serif" font-size="10.00">../vmisc/logging.h</text>
</a>
</g>
</g>
<!-- Node3&#45;&gt;Node16 -->
<g id="edge15" class="edge">
<title>Node3&#45;&gt;Node16</title>
<path fill="none" stroke="midnightblue" d="M735.14,-56.48C798.87,-47.89 900.04,-34.11 996.84,-20.23"/>
<polygon fill="midnightblue" stroke="midnightblue" points="997.39,-23.68 1006.8,-18.8 996.4,-16.75 997.39,-23.68"/>
</g>
<!-- Node18 -->
<g id="node18" class="node">
<title>Node18</title>
<g id="a_node18"><a xlink:href="../../df/de4/vabstractconverter_8h.html" target="_top" xlink:title=" ">
<polygon fill="white" stroke="black" points="740,-112.5 740,-131.5 857,-131.5 857,-112.5 740,-112.5"/>
<text text-anchor="middle" x="798.5" y="-119.5" font-family="Helvetica,sans-Serif" font-size="10.00">vabstractconverter.h</text>
</a>
</g>
</g>
<!-- Node17&#45;&gt;Node18 -->
<g id="edge17" class="edge">
<title>Node17&#45;&gt;Node18</title>
<path fill="none" stroke="midnightblue" d="M797.67,-168.08C797.8,-161.01 797.98,-150.86 798.15,-141.99"/>
<polygon fill="midnightblue" stroke="midnightblue" points="801.65,-141.81 798.34,-131.75 794.65,-141.68 801.65,-141.81"/>
</g>
<!-- Node18&#45;&gt;Node3 -->
<g id="edge23" class="edge">
<title>Node18&#45;&gt;Node3</title>
<path fill="none" stroke="midnightblue" d="M778.38,-112.44C757.48,-103.56 724.57,-89.56 700.78,-79.45"/>
<polygon fill="midnightblue" stroke="midnightblue" points="702.1,-76.21 691.53,-75.52 699.36,-82.65 702.1,-76.21"/>
</g>
<!-- Node18&#45;&gt;Node4 -->
<g id="edge19" class="edge">
<title>Node18&#45;&gt;Node4</title>
<path fill="none" stroke="midnightblue" d="M740.05,-112.48C623,-95.41 351.23,-55.71 111.2,-20.1"/>
<polygon fill="midnightblue" stroke="midnightblue" points="111.64,-16.63 101.24,-18.62 110.62,-23.55 111.64,-16.63"/>
</g>
<!-- Node18&#45;&gt;Node10 -->
<g id="edge20" class="edge">
<title>Node18&#45;&gt;Node10</title>
<path fill="none" stroke="midnightblue" d="M797.05,-112.37C795.25,-98.33 794.06,-70.66 809.5,-56 857.74,-10.21 1035.84,-30.78 1117.85,-19.84"/>
<polygon fill="midnightblue" stroke="midnightblue" points="1118.5,-23.28 1127.83,-18.26 1117.41,-16.37 1118.5,-23.28"/>
</g>
<!-- Node18&#45;&gt;Node11 -->
<g id="edge22" class="edge">
<title>Node18&#45;&gt;Node11</title>
<path fill="none" stroke="midnightblue" d="M801.51,-112.46C807.09,-98.05 820.52,-69.16 842.5,-56 906.73,-17.55 1098.85,-31.81 1188.78,-19.94"/>
<polygon fill="midnightblue" stroke="midnightblue" points="1189.34,-23.39 1198.7,-18.44 1188.29,-16.47 1189.34,-23.39"/>
</g>
<!-- Node19 -->
<g id="node19" class="node">
<title>Node19</title>
<g id="a_node19"><a xlink:title=" ">
<polygon fill="white" stroke="#bfbfbf" points="851.5,-56.5 851.5,-75.5 971.5,-75.5 971.5,-56.5 851.5,-56.5"/>
<text text-anchor="middle" x="911.5" y="-63.5" font-family="Helvetica,sans-Serif" font-size="10.00">qcompilerdetection.h</text>
</a>
</g>
</g>
<!-- Node18&#45;&gt;Node19 -->
<g id="edge18" class="edge">
<title>Node18&#45;&gt;Node19</title>
<path fill="none" stroke="midnightblue" d="M816.41,-112.44C834.75,-103.68 863.51,-89.94 884.59,-79.86"/>
<polygon fill="midnightblue" stroke="midnightblue" points="886.17,-82.99 893.68,-75.52 883.15,-76.67 886.17,-82.99"/>
</g>
<!-- Node20 -->
<g id="node20" class="node">
<title>Node20</title>
<g id="a_node20"><a xlink:title=" ">
<polygon fill="white" stroke="#bfbfbf" points="990,-56.5 990,-75.5 1083,-75.5 1083,-56.5 990,-56.5"/>
<text text-anchor="middle" x="1036.5" y="-63.5" font-family="Helvetica,sans-Serif" font-size="10.00">QTemporaryFile</text>
</a>
</g>
</g>
<!-- Node18&#45;&gt;Node20 -->
<g id="edge21" class="edge">
<title>Node18&#45;&gt;Node20</title>
<path fill="none" stroke="midnightblue" d="M836.21,-112.44C877.64,-103.04 944.26,-87.93 989.17,-77.74"/>
<polygon fill="midnightblue" stroke="midnightblue" points="989.99,-81.14 998.96,-75.52 988.44,-74.32 989.99,-81.14"/>
</g>
</g>
</svg>
