<?xml version="1.0" encoding="UTF-8" standalone="no"?>
<!DOCTYPE svg PUBLIC "-//W3C//DTD SVG 1.1//EN"
 "http://www.w3.org/Graphics/SVG/1.1/DTD/svg11.dtd">
<!-- Generated by graphviz version 2.43.0 (0)
 -->
<!-- Title: src/libs/vmisc/qxtcsvmodel.h Pages: 1 -->
<svg width="1257pt" height="196pt"
 viewBox="0.00 0.00 1256.50 196.00" xmlns="http://www.w3.org/2000/svg" xmlns:xlink="http://www.w3.org/1999/xlink">
<g id="graph0" class="graph" transform="scale(1 1) rotate(0) translate(4 192)">
<title>src/libs/vmisc/qxtcsvmodel.h</title>
<polygon fill="white" stroke="transparent" points="-4,4 -4,-192 1252.5,-192 1252.5,4 -4,4"/>
<!-- Node1 -->
<g id="node1" class="node">
<title>Node1</title>
<g id="a_node1"><a xlink:title=" ">
<polygon fill="#bfbfbf" stroke="black" points="514,-168.5 514,-187.5 672,-187.5 672,-168.5 514,-168.5"/>
<text text-anchor="middle" x="593" y="-175.5" font-family="Helvetica,sans-Serif" font-size="10.00">src/libs/vmisc/qxtcsvmodel.h</text>
</a>
</g>
</g>
<!-- Node2 -->
<g id="node2" class="node">
<title>Node2</title>
<g id="a_node2"><a xlink:title=" ">
<polygon fill="white" stroke="#bfbfbf" points="0,-56.5 0,-75.5 120,-75.5 120,-56.5 0,-56.5"/>
<text text-anchor="middle" x="60" y="-63.5" font-family="Helvetica,sans-Serif" font-size="10.00">qcompilerdetection.h</text>
</a>
</g>
</g>
<!-- Node1&#45;&gt;Node2 -->
<g id="edge1" class="edge">
<title>Node1&#45;&gt;Node2</title>
<path fill="none" stroke="midnightblue" d="M513.73,-172.46C440.13,-166.99 327.94,-155.42 233,-132 180.12,-118.95 121.31,-94.63 87.68,-79.72"/>
<polygon fill="midnightblue" stroke="midnightblue" points="89.04,-76.5 78.48,-75.6 86.18,-82.89 89.04,-76.5"/>
</g>
<!-- Node3 -->
<g id="node3" class="node">
<title>Node3</title>
<g id="a_node3"><a xlink:title=" ">
<polygon fill="white" stroke="#bfbfbf" points="431,-112.5 431,-131.5 551,-131.5 551,-112.5 431,-112.5"/>
<text text-anchor="middle" x="491" y="-119.5" font-family="Helvetica,sans-Serif" font-size="10.00">QAbstractTableModel</text>
</a>
</g>
</g>
<!-- Node1&#45;&gt;Node3 -->
<g id="edge2" class="edge">
<title>Node1&#45;&gt;Node3</title>
<path fill="none" stroke="midnightblue" d="M576.61,-168.32C560.33,-159.7 535.13,-146.36 516.28,-136.39"/>
<polygon fill="midnightblue" stroke="midnightblue" points="517.82,-133.24 507.35,-131.65 514.55,-139.43 517.82,-133.24"/>
</g>
<!-- Node4 -->
<g id="node4" class="node">
<title>Node4</title>
<g id="a_node4"><a xlink:title=" ">
<polygon fill="white" stroke="#bfbfbf" points="569.5,-112.5 569.5,-131.5 616.5,-131.5 616.5,-112.5 569.5,-112.5"/>
<text text-anchor="middle" x="593" y="-119.5" font-family="Helvetica,sans-Serif" font-size="10.00">QChar</text>
</a>
</g>
</g>
<!-- Node1&#45;&gt;Node4 -->
<g id="edge3" class="edge">
<title>Node1&#45;&gt;Node4</title>
<path fill="none" stroke="midnightblue" d="M593,-168.08C593,-161.01 593,-150.86 593,-141.99"/>
<polygon fill="midnightblue" stroke="midnightblue" points="596.5,-141.75 593,-131.75 589.5,-141.75 596.5,-141.75"/>
</g>
<!-- Node5 -->
<g id="node5" class="node">
<title>Node5</title>
<g id="a_node5"><a xlink:title=" ">
<polygon fill="white" stroke="#bfbfbf" points="635,-112.5 635,-131.5 685,-131.5 685,-112.5 635,-112.5"/>
<text text-anchor="middle" x="660" y="-119.5" font-family="Helvetica,sans-Serif" font-size="10.00">QFlags</text>
</a>
</g>
</g>
<!-- Node1&#45;&gt;Node5 -->
<g id="edge4" class="edge">
<title>Node1&#45;&gt;Node5</title>
<path fill="none" stroke="midnightblue" d="M603.76,-168.32C613.77,-160.26 628.89,-148.08 640.93,-138.37"/>
<polygon fill="midnightblue" stroke="midnightblue" points="643.45,-140.83 649.04,-131.83 639.06,-135.38 643.45,-140.83"/>
</g>
<!-- Node6 -->
<g id="node6" class="node">
<title>Node6</title>
<g id="a_node6"><a xlink:title=" ">
<polygon fill="white" stroke="#bfbfbf" points="703,-112.5 703,-131.5 771,-131.5 771,-112.5 703,-112.5"/>
<text text-anchor="middle" x="737" y="-119.5" font-family="Helvetica,sans-Serif" font-size="10.00">QIODevice</text>
</a>
</g>
</g>
<!-- Node1&#45;&gt;Node6 -->
<g id="edge5" class="edge">
<title>Node1&#45;&gt;Node6</title>
<path fill="none" stroke="midnightblue" d="M615.82,-168.44C639.83,-159.44 677.83,-145.19 704.87,-135.05"/>
<polygon fill="midnightblue" stroke="midnightblue" points="706.16,-138.3 714.29,-131.52 703.7,-131.75 706.16,-138.3"/>
</g>
<!-- Node7 -->
<g id="node7" class="node">
<title>Node7</title>
<g id="a_node7"><a xlink:title=" ">
<polygon fill="white" stroke="#bfbfbf" points="789.5,-112.5 789.5,-131.5 898.5,-131.5 898.5,-112.5 789.5,-112.5"/>
<text text-anchor="middle" x="844" y="-119.5" font-family="Helvetica,sans-Serif" font-size="10.00">QIncompatibleFlag</text>
</a>
</g>
</g>
<!-- Node1&#45;&gt;Node7 -->
<g id="edge6" class="edge">
<title>Node1&#45;&gt;Node7</title>
<path fill="none" stroke="midnightblue" d="M632.77,-168.44C676.56,-159.02 747.01,-143.87 794.38,-133.68"/>
<polygon fill="midnightblue" stroke="midnightblue" points="795.37,-137.04 804.41,-131.52 793.9,-130.2 795.37,-137.04"/>
</g>
<!-- Node8 -->
<g id="node8" class="node">
<title>Node8</title>
<g id="a_node8"><a xlink:title=" ">
<polygon fill="white" stroke="#bfbfbf" points="917,-112.5 917,-131.5 997,-131.5 997,-112.5 917,-112.5"/>
<text text-anchor="middle" x="957" y="-119.5" font-family="Helvetica,sans-Serif" font-size="10.00">QMetaObject</text>
</a>
</g>
</g>
<!-- Node1&#45;&gt;Node8 -->
<g id="edge7" class="edge">
<title>Node1&#45;&gt;Node8</title>
<path fill="none" stroke="midnightblue" d="M657.97,-168.49C719.5,-160.25 814.73,-147.05 906.86,-132.13"/>
<polygon fill="midnightblue" stroke="midnightblue" points="907.6,-135.56 916.91,-130.5 906.48,-128.65 907.6,-135.56"/>
</g>
<!-- Node9 -->
<g id="node9" class="node">
<title>Node9</title>
<g id="a_node9"><a xlink:title=" ">
<polygon fill="white" stroke="#bfbfbf" points="1015.5,-112.5 1015.5,-131.5 1096.5,-131.5 1096.5,-112.5 1015.5,-112.5"/>
<text text-anchor="middle" x="1056" y="-119.5" font-family="Helvetica,sans-Serif" font-size="10.00">QModelIndex</text>
</a>
</g>
</g>
<!-- Node1&#45;&gt;Node9 -->
<g id="edge8" class="edge">
<title>Node1&#45;&gt;Node9</title>
<path fill="none" stroke="midnightblue" d="M672.38,-170C753.49,-162.48 883.29,-149.4 1005.47,-131.98"/>
<polygon fill="midnightblue" stroke="midnightblue" points="1005.98,-135.44 1015.38,-130.56 1004.98,-128.51 1005.98,-135.44"/>
</g>
<!-- Node10 -->
<g id="node10" class="node">
<title>Node10</title>
<g id="a_node10"><a xlink:title=" ">
<polygon fill="white" stroke="#bfbfbf" points="1115,-112.5 1115,-131.5 1171,-131.5 1171,-112.5 1115,-112.5"/>
<text text-anchor="middle" x="1143" y="-119.5" font-family="Helvetica,sans-Serif" font-size="10.00">QObject</text>
</a>
</g>
</g>
<!-- Node1&#45;&gt;Node10 -->
<g id="edge9" class="edge">
<title>Node1&#45;&gt;Node10</title>
<path fill="none" stroke="midnightblue" d="M672.12,-173.77C771.21,-168.9 946.24,-157.55 1104.87,-131.95"/>
<polygon fill="midnightblue" stroke="midnightblue" points="1105.5,-135.39 1114.81,-130.32 1104.37,-128.48 1105.5,-135.39"/>
</g>
<!-- Node11 -->
<g id="node11" class="node">
<title>Node11</title>
<g id="a_node11"><a xlink:title=" ">
<polygon fill="white" stroke="#bfbfbf" points="138.5,-56.5 138.5,-75.5 191.5,-75.5 191.5,-56.5 138.5,-56.5"/>
<text text-anchor="middle" x="165" y="-63.5" font-family="Helvetica,sans-Serif" font-size="10.00">QString</text>
</a>
</g>
</g>
<!-- Node1&#45;&gt;Node11 -->
<g id="edge10" class="edge">
<title>Node1&#45;&gt;Node11</title>
<path fill="none" stroke="midnightblue" d="M513.99,-173.87C449.31,-169.38 356.23,-158.48 279,-132 243.74,-119.91 206.98,-96.72 185.04,-81.56"/>
<polygon fill="midnightblue" stroke="midnightblue" points="186.79,-78.51 176.6,-75.61 182.76,-84.23 186.79,-78.51"/>
</g>
<!-- Node12 -->
<g id="node12" class="node">
<title>Node12</title>
<g id="a_node12"><a xlink:title=" ">
<polygon fill="white" stroke="#bfbfbf" points="210,-56.5 210,-75.5 280,-75.5 280,-56.5 210,-56.5"/>
<text text-anchor="middle" x="245" y="-63.5" font-family="Helvetica,sans-Serif" font-size="10.00">QStringList</text>
</a>
</g>
</g>
<!-- Node1&#45;&gt;Node12 -->
<g id="edge11" class="edge">
<title>Node1&#45;&gt;Node12</title>
<path fill="none" stroke="midnightblue" d="M513.69,-169.9C442.72,-162.56 344.68,-149.68 310,-132 287.89,-120.73 268.66,-99.17 256.97,-83.98"/>
<polygon fill="midnightblue" stroke="midnightblue" points="259.75,-81.86 250.99,-75.9 254.12,-86.02 259.75,-81.86"/>
</g>
<!-- Node13 -->
<g id="node13" class="node">
<title>Node13</title>
<g id="a_node13"><a xlink:title=" ">
<polygon fill="white" stroke="#bfbfbf" points="1189.5,-112.5 1189.5,-131.5 1248.5,-131.5 1248.5,-112.5 1189.5,-112.5"/>
<text text-anchor="middle" x="1219" y="-119.5" font-family="Helvetica,sans-Serif" font-size="10.00">QVariant</text>
</a>
</g>
</g>
<!-- Node1&#45;&gt;Node13 -->
<g id="edge12" class="edge">
<title>Node1&#45;&gt;Node13</title>
<path fill="none" stroke="midnightblue" d="M672.23,-174.7C783.43,-170.64 992.15,-159.95 1179.26,-131.87"/>
<polygon fill="midnightblue" stroke="midnightblue" points="1179.92,-135.31 1189.28,-130.34 1178.87,-128.39 1179.92,-135.31"/>
</g>
<!-- Node14 -->
<g id="node14" class="node">
<title>Node14</title>
<g id="a_node14"><a xlink:title=" ">
<polygon fill="white" stroke="#bfbfbf" points="298.5,-56.5 298.5,-75.5 327.5,-75.5 327.5,-56.5 298.5,-56.5"/>
<text text-anchor="middle" x="313" y="-63.5" font-family="Helvetica,sans-Serif" font-size="10.00">Qt</text>
</a>
</g>
</g>
<!-- Node1&#45;&gt;Node14 -->
<g id="edge13" class="edge">
<title>Node1&#45;&gt;Node14</title>
<path fill="none" stroke="midnightblue" d="M513.94,-173.56C444.71,-168.84 351.19,-157.77 325,-132 312.99,-120.19 310.81,-100.56 311.13,-85.95"/>
<polygon fill="midnightblue" stroke="midnightblue" points="314.65,-85.76 311.79,-75.56 307.67,-85.32 314.65,-85.76"/>
</g>
<!-- Node15 -->
<g id="node15" class="node">
<title>Node15</title>
<g id="a_node15"><a xlink:title=" ">
<polygon fill="white" stroke="#bfbfbf" points="658.5,-56.5 658.5,-75.5 717.5,-75.5 717.5,-56.5 658.5,-56.5"/>
<text text-anchor="middle" x="688" y="-63.5" font-family="Helvetica,sans-Serif" font-size="10.00">QtGlobal</text>
</a>
</g>
</g>
<!-- Node1&#45;&gt;Node15 -->
<g id="edge14" class="edge">
<title>Node1&#45;&gt;Node15</title>
<path fill="none" stroke="midnightblue" d="M513.99,-171.5C455.51,-164.42 390.95,-148.34 422,-112 453.57,-75.06 584.76,-84.7 648.23,-75.94"/>
<polygon fill="midnightblue" stroke="midnightblue" points="648.88,-79.38 658.18,-74.29 647.74,-72.47 648.88,-79.38"/>
</g>
<!-- Node16 -->
<g id="node16" class="node">
<title>Node16</title>
<g id="a_node16"><a xlink:href="../../d4/da4/def_8h.html" target="_top" xlink:title=" ">
<polygon fill="white" stroke="black" points="333.5,-112.5 333.5,-131.5 374.5,-131.5 374.5,-112.5 333.5,-112.5"/>
<text text-anchor="middle" x="354" y="-119.5" font-family="Helvetica,sans-Serif" font-size="10.00">def.h</text>
</a>
</g>
</g>
<!-- Node1&#45;&gt;Node16 -->
<g id="edge15" class="edge">
<title>Node1&#45;&gt;Node16</title>
<path fill="none" stroke="midnightblue" d="M552.26,-168.45C511.02,-159.69 445.44,-145.48 389,-132 387.55,-131.65 386.07,-131.29 384.57,-130.93"/>
<polygon fill="midnightblue" stroke="midnightblue" points="385.25,-127.49 374.7,-128.45 383.55,-134.28 385.25,-127.49"/>
</g>
<!-- Node16&#45;&gt;Node2 -->
<g id="edge16" class="edge">
<title>Node16&#45;&gt;Node2</title>
<path fill="none" stroke="midnightblue" d="M333.33,-117.2C288.76,-109.02 182.32,-89.47 116.19,-77.32"/>
<polygon fill="midnightblue" stroke="midnightblue" points="116.8,-73.87 106.34,-75.51 115.54,-80.76 116.8,-73.87"/>
</g>
<!-- Node16&#45;&gt;Node11 -->
<g id="edge18" class="edge">
<title>Node16&#45;&gt;Node11</title>
<path fill="none" stroke="midnightblue" d="M333.41,-115.12C301.73,-106.07 240.57,-88.59 201.33,-77.38"/>
<polygon fill="midnightblue" stroke="midnightblue" points="202.19,-73.98 191.61,-74.6 200.26,-80.72 202.19,-73.98"/>
</g>
<!-- Node16&#45;&gt;Node12 -->
<g id="edge19" class="edge">
<title>Node16&#45;&gt;Node12</title>
<path fill="none" stroke="midnightblue" d="M336.49,-112.32C318.93,-103.62 291.67,-90.12 271.47,-80.11"/>
<polygon fill="midnightblue" stroke="midnightblue" points="272.98,-76.96 262.47,-75.65 269.88,-83.23 272.98,-76.96"/>
</g>
<!-- Node16&#45;&gt;Node14 -->
<g id="edge20" class="edge">
<title>Node16&#45;&gt;Node14</title>
<path fill="none" stroke="midnightblue" d="M347.23,-112.08C341.44,-104.46 332.94,-93.26 325.86,-83.94"/>
<polygon fill="midnightblue" stroke="midnightblue" points="328.48,-81.6 319.64,-75.75 322.9,-85.83 328.48,-81.6"/>
</g>
<!-- Node16&#45;&gt;Node15 -->
<g id="edge21" class="edge">
<title>Node16&#45;&gt;Node15</title>
<path fill="none" stroke="midnightblue" d="M374.64,-115.27C379.34,-114.09 384.32,-112.92 389,-112 500.75,-90 533.14,-97.1 648.28,-76.18"/>
<polygon fill="midnightblue" stroke="midnightblue" points="648.99,-79.6 658.19,-74.35 647.72,-72.72 648.99,-79.6"/>
</g>
<!-- Node17 -->
<g id="node17" class="node">
<title>Node17</title>
<g id="a_node17"><a xlink:title=" ">
<polygon fill="white" stroke="#bfbfbf" points="447,-56.5 447,-75.5 497,-75.5 497,-56.5 447,-56.5"/>
<text text-anchor="middle" x="472" y="-63.5" font-family="Helvetica,sans-Serif" font-size="10.00">QLineF</text>
</a>
</g>
</g>
<!-- Node16&#45;&gt;Node17 -->
<g id="edge17" class="edge">
<title>Node16&#45;&gt;Node17</title>
<path fill="none" stroke="midnightblue" d="M372.7,-112.44C391.94,-103.64 422.15,-89.81 444.2,-79.72"/>
<polygon fill="midnightblue" stroke="midnightblue" points="445.75,-82.86 453.39,-75.52 442.84,-76.5 445.75,-82.86"/>
</g>
<!-- Node18 -->
<g id="node18" class="node">
<title>Node18</title>
<g id="a_node18"><a xlink:title=" ">
<polygon fill="white" stroke="#bfbfbf" points="515,-56.5 515,-75.5 571,-75.5 571,-56.5 515,-56.5"/>
<text text-anchor="middle" x="543" y="-63.5" font-family="Helvetica,sans-Serif" font-size="10.00">QPrinter</text>
</a>
</g>
</g>
<!-- Node16&#45;&gt;Node18 -->
<g id="edge22" class="edge">
<title>Node16&#45;&gt;Node18</title>
<path fill="none" stroke="midnightblue" d="M374.59,-115.12C405.83,-106.19 465.73,-89.08 505.03,-77.85"/>
<polygon fill="midnightblue" stroke="midnightblue" points="506.13,-81.17 514.79,-75.06 504.21,-74.44 506.13,-81.17"/>
</g>
<!-- Node19 -->
<g id="node19" class="node">
<title>Node19</title>
<g id="a_node19"><a xlink:title=" ">
<polygon fill="white" stroke="#bfbfbf" points="589.5,-56.5 589.5,-75.5 640.5,-75.5 640.5,-56.5 589.5,-56.5"/>
<text text-anchor="middle" x="615" y="-63.5" font-family="Helvetica,sans-Serif" font-size="10.00">csignal</text>
</a>
</g>
</g>
<!-- Node16&#45;&gt;Node19 -->
<g id="edge23" class="edge">
<title>Node16&#45;&gt;Node19</title>
<path fill="none" stroke="midnightblue" d="M374.67,-115.45C379.37,-114.25 384.35,-113.04 389,-112 470.27,-93.91 493.98,-94.68 579.54,-75.97"/>
<polygon fill="midnightblue" stroke="midnightblue" points="580.42,-79.36 589.43,-73.78 578.91,-72.52 580.42,-79.36"/>
</g>
<!-- Node20 -->
<g id="node20" class="node">
<title>Node20</title>
<g id="a_node20"><a xlink:href="../../d4/d82/debugbreak_8h.html" target="_top" xlink:title=" ">
<polygon fill="white" stroke="black" points="345.5,-56.5 345.5,-75.5 428.5,-75.5 428.5,-56.5 345.5,-56.5"/>
<text text-anchor="middle" x="387" y="-63.5" font-family="Helvetica,sans-Serif" font-size="10.00">debugbreak.h</text>
</a>
</g>
</g>
<!-- Node16&#45;&gt;Node20 -->
<g id="edge24" class="edge">
<title>Node16&#45;&gt;Node20</title>
<path fill="none" stroke="midnightblue" d="M359.45,-112.08C364.01,-104.61 370.67,-93.72 376.29,-84.52"/>
<polygon fill="midnightblue" stroke="midnightblue" points="379.42,-86.11 381.65,-75.75 373.45,-82.46 379.42,-86.11"/>
</g>
<!-- Node21 -->
<g id="node21" class="node">
<title>Node21</title>
<g id="a_node21"><a xlink:title=" ">
<polygon fill="white" stroke="#bfbfbf" points="359.5,-0.5 359.5,-19.5 414.5,-19.5 414.5,-0.5 359.5,-0.5"/>
<text text-anchor="middle" x="387" y="-7.5" font-family="Helvetica,sans-Serif" font-size="10.00">signal.h</text>
</a>
</g>
</g>
<!-- Node20&#45;&gt;Node21 -->
<g id="edge25" class="edge">
<title>Node20&#45;&gt;Node21</title>
<path fill="none" stroke="midnightblue" d="M387,-56.08C387,-49.01 387,-38.86 387,-29.99"/>
<polygon fill="midnightblue" stroke="midnightblue" points="390.5,-29.75 387,-19.75 383.5,-29.75 390.5,-29.75"/>
</g>
</g>
</svg>
