<?xml version="1.0" encoding="UTF-8" standalone="no"?>
<!DOCTYPE svg PUBLIC "-//W3C//DTD SVG 1.1//EN"
 "http://www.w3.org/Graphics/SVG/1.1/DTD/svg11.dtd">
<!-- Generated by graphviz version 2.43.0 (0)
 -->
<!-- Title: src/app/seamlyme/dialogs/me_welcome_dialog.cpp Pages: 1 -->
<svg width="833pt" height="218pt"
 viewBox="0.00 0.00 833.30 218.00" xmlns="http://www.w3.org/2000/svg" xmlns:xlink="http://www.w3.org/1999/xlink">
<g id="graph0" class="graph" transform="scale(1 1) rotate(0) translate(4 214)">
<title>src/app/seamlyme/dialogs/me_welcome_dialog.cpp</title>
<polygon fill="white" stroke="transparent" points="-4,4 -4,-214 829.3,-214 829.3,4 -4,4"/>
<!-- Node1 -->
<g id="node1" class="node">
<title>Node1</title>
<g id="a_node1"><a xlink:title=" ">
<polygon fill="#bfbfbf" stroke="black" points="407.8,-179.5 407.8,-209.5 552.8,-209.5 552.8,-179.5 407.8,-179.5"/>
<text text-anchor="start" x="415.8" y="-197.5" font-family="Helvetica,sans-Serif" font-size="10.00">src/app/seamlyme/dialogs</text>
<text text-anchor="middle" x="480.3" y="-186.5" font-family="Helvetica,sans-Serif" font-size="10.00">/me_welcome_dialog.cpp</text>
</a>
</g>
</g>
<!-- Node2 -->
<g id="node2" class="node">
<title>Node2</title>
<g id="a_node2"><a xlink:href="../../d3/d5b/me__welcome__dialog_8h.html" target="_top" xlink:title=" ">
<polygon fill="white" stroke="black" points="66.3,-118 66.3,-137 192.3,-137 192.3,-118 66.3,-118"/>
<text text-anchor="middle" x="129.3" y="-125" font-family="Helvetica,sans-Serif" font-size="10.00">me_welcome_dialog.h</text>
</a>
</g>
</g>
<!-- Node1&#45;&gt;Node2 -->
<g id="edge1" class="edge">
<title>Node1&#45;&gt;Node2</title>
<path fill="none" stroke="midnightblue" d="M407.59,-180.18C352.37,-170.04 274.53,-155.71 206.3,-143 199.22,-141.68 191.77,-140.29 184.42,-138.91"/>
<polygon fill="midnightblue" stroke="midnightblue" points="184.96,-135.45 174.49,-137.04 183.67,-142.33 184.96,-135.45"/>
</g>
<!-- Node6 -->
<g id="node6" class="node">
<title>Node6</title>
<g id="a_node6"><a xlink:title=" ">
<polygon fill="white" stroke="#bfbfbf" points="331.3,-118 331.3,-137 471.3,-137 471.3,-118 331.3,-118"/>
<text text-anchor="middle" x="401.3" y="-125" font-family="Helvetica,sans-Serif" font-size="10.00">ui_me_welcome_dialog.h</text>
</a>
</g>
</g>
<!-- Node1&#45;&gt;Node6 -->
<g id="edge5" class="edge">
<title>Node1&#45;&gt;Node6</title>
<path fill="none" stroke="midnightblue" d="M463.16,-179.4C450.35,-168.86 432.87,-154.48 419.76,-143.69"/>
<polygon fill="midnightblue" stroke="midnightblue" points="421.81,-140.85 411.86,-137.19 417.36,-146.25 421.81,-140.85"/>
</g>
<!-- Node7 -->
<g id="node7" class="node">
<title>Node7</title>
<g id="a_node7"><a xlink:title=" ">
<polygon fill="white" stroke="#bfbfbf" points="489.3,-112.5 489.3,-142.5 631.3,-142.5 631.3,-112.5 489.3,-112.5"/>
<text text-anchor="start" x="497.3" y="-130.5" font-family="Helvetica,sans-Serif" font-size="10.00">../vpatterndb/variables</text>
<text text-anchor="middle" x="560.3" y="-119.5" font-family="Helvetica,sans-Serif" font-size="10.00">/measurement_variable.h</text>
</a>
</g>
</g>
<!-- Node1&#45;&gt;Node7 -->
<g id="edge6" class="edge">
<title>Node1&#45;&gt;Node7</title>
<path fill="none" stroke="midnightblue" d="M497.66,-179.4C508.56,-170.54 522.81,-158.96 534.96,-149.09"/>
<polygon fill="midnightblue" stroke="midnightblue" points="537.42,-151.6 542.97,-142.58 533,-146.17 537.42,-151.6"/>
</g>
<!-- Node8 -->
<g id="node8" class="node">
<title>Node8</title>
<g id="a_node8"><a xlink:href="../../df/da4/mapplication_8h.html" target="_top" xlink:title=" ">
<polygon fill="white" stroke="black" points="215.3,-118 215.3,-137 313.3,-137 313.3,-118 215.3,-118"/>
<text text-anchor="middle" x="264.3" y="-125" font-family="Helvetica,sans-Serif" font-size="10.00">../mapplication.h</text>
</a>
</g>
</g>
<!-- Node1&#45;&gt;Node8 -->
<g id="edge7" class="edge">
<title>Node1&#45;&gt;Node8</title>
<path fill="none" stroke="midnightblue" d="M433.69,-179.48C394.47,-167.67 339.07,-151 302.44,-139.98"/>
<polygon fill="midnightblue" stroke="midnightblue" points="303.22,-136.56 292.64,-137.03 301.21,-143.26 303.22,-136.56"/>
</g>
<!-- Node12 -->
<g id="node12" class="node">
<title>Node12</title>
<g id="a_node12"><a xlink:title=" ">
<polygon fill="white" stroke="#bfbfbf" points="649.3,-118 649.3,-137 729.3,-137 729.3,-118 649.3,-118"/>
<text text-anchor="middle" x="689.3" y="-125" font-family="Helvetica,sans-Serif" font-size="10.00">QPushButton</text>
</a>
</g>
</g>
<!-- Node1&#45;&gt;Node12 -->
<g id="edge14" class="edge">
<title>Node1&#45;&gt;Node12</title>
<path fill="none" stroke="midnightblue" d="M525.39,-179.48C563.18,-167.72 616.49,-151.14 651.93,-140.12"/>
<polygon fill="midnightblue" stroke="midnightblue" points="653.36,-143.34 661.87,-137.03 651.29,-136.66 653.36,-143.34"/>
</g>
<!-- Node13 -->
<g id="node13" class="node">
<title>Node13</title>
<g id="a_node13"><a xlink:title=" ">
<polygon fill="white" stroke="#bfbfbf" points="747.3,-118 747.3,-137 825.3,-137 825.3,-118 747.3,-118"/>
<text text-anchor="middle" x="786.3" y="-125" font-family="Helvetica,sans-Serif" font-size="10.00">QShowEvent</text>
</a>
</g>
</g>
<!-- Node1&#45;&gt;Node13 -->
<g id="edge15" class="edge">
<title>Node1&#45;&gt;Node13</title>
<path fill="none" stroke="midnightblue" d="M553.01,-181.27C604.93,-172.06 676.28,-158.4 738.3,-143 742.13,-142.05 746.12,-140.98 750.08,-139.86"/>
<polygon fill="midnightblue" stroke="midnightblue" points="751.15,-143.19 759.77,-137.03 749.19,-136.47 751.15,-143.19"/>
</g>
<!-- Node3 -->
<g id="node3" class="node">
<title>Node3</title>
<g id="a_node3"><a xlink:title=" ">
<polygon fill="white" stroke="#bfbfbf" points="151.3,-0.5 151.3,-19.5 207.3,-19.5 207.3,-0.5 151.3,-0.5"/>
<text text-anchor="middle" x="179.3" y="-7.5" font-family="Helvetica,sans-Serif" font-size="10.00">QDialog</text>
</a>
</g>
</g>
<!-- Node2&#45;&gt;Node3 -->
<g id="edge2" class="edge">
<title>Node2&#45;&gt;Node3</title>
<path fill="none" stroke="midnightblue" d="M82.68,-117.91C38.33,-107.64 -18.24,-87.74 6.3,-56 22.63,-34.87 95.19,-21.82 140.99,-15.53"/>
<polygon fill="midnightblue" stroke="midnightblue" points="141.71,-18.96 151.17,-14.18 140.8,-12.02 141.71,-18.96"/>
</g>
<!-- Node4 -->
<g id="node4" class="node">
<title>Node4</title>
<g id="a_node4"><a xlink:title=" ">
<polygon fill="white" stroke="#bfbfbf" points="15.3,-56.5 15.3,-75.5 97.3,-75.5 97.3,-56.5 15.3,-56.5"/>
<text text-anchor="middle" x="56.3" y="-63.5" font-family="Helvetica,sans-Serif" font-size="10.00">../vmisc/def.h</text>
</a>
</g>
</g>
<!-- Node2&#45;&gt;Node4 -->
<g id="edge3" class="edge">
<title>Node2&#45;&gt;Node4</title>
<path fill="none" stroke="midnightblue" d="M118.84,-117.98C107.35,-108.61 88.67,-93.38 74.71,-82.01"/>
<polygon fill="midnightblue" stroke="midnightblue" points="76.7,-79.11 66.74,-75.51 72.28,-84.54 76.7,-79.11"/>
</g>
<!-- Node5 -->
<g id="node5" class="node">
<title>Node5</title>
<g id="a_node5"><a xlink:title=" ">
<polygon fill="white" stroke="#bfbfbf" points="115.3,-56.5 115.3,-75.5 279.3,-75.5 279.3,-56.5 115.3,-56.5"/>
<text text-anchor="middle" x="197.3" y="-63.5" font-family="Helvetica,sans-Serif" font-size="10.00">../vmisc/vseamlymesettings.h</text>
</a>
</g>
</g>
<!-- Node2&#45;&gt;Node5 -->
<g id="edge4" class="edge">
<title>Node2&#45;&gt;Node5</title>
<path fill="none" stroke="midnightblue" d="M139.04,-117.98C149.64,-108.7 166.82,-93.67 179.78,-82.33"/>
<polygon fill="midnightblue" stroke="midnightblue" points="182.35,-84.73 187.57,-75.51 177.74,-79.46 182.35,-84.73"/>
</g>
<!-- Node8&#45;&gt;Node4 -->
<g id="edge9" class="edge">
<title>Node8&#45;&gt;Node4</title>
<path fill="none" stroke="midnightblue" d="M234.5,-117.98C198.04,-107.55 136.22,-89.86 95.82,-78.31"/>
<polygon fill="midnightblue" stroke="midnightblue" points="96.62,-74.89 86.04,-75.51 94.7,-81.62 96.62,-74.89"/>
</g>
<!-- Node8&#45;&gt;Node5 -->
<g id="edge10" class="edge">
<title>Node8&#45;&gt;Node5</title>
<path fill="none" stroke="midnightblue" d="M254.7,-117.98C244.25,-108.7 227.33,-93.67 214.56,-82.33"/>
<polygon fill="midnightblue" stroke="midnightblue" points="216.68,-79.53 206.88,-75.51 212.03,-84.77 216.68,-79.53"/>
</g>
<!-- Node9 -->
<g id="node9" class="node">
<title>Node9</title>
<g id="a_node9"><a xlink:title=" ">
<polygon fill="white" stroke="#bfbfbf" points="464.8,-56.5 464.8,-75.5 625.8,-75.5 625.8,-56.5 464.8,-56.5"/>
<text text-anchor="middle" x="545.3" y="-63.5" font-family="Helvetica,sans-Serif" font-size="10.00">../vpatterndb/vtranslatevars.h</text>
</a>
</g>
</g>
<!-- Node8&#45;&gt;Node9 -->
<g id="edge8" class="edge">
<title>Node8&#45;&gt;Node9</title>
<path fill="none" stroke="midnightblue" d="M297.36,-117.96C305.5,-115.93 314.2,-113.83 322.3,-112 379.25,-99.14 444.78,-86.13 490,-77.43"/>
<polygon fill="midnightblue" stroke="midnightblue" points="490.73,-80.85 499.89,-75.53 489.41,-73.98 490.73,-80.85"/>
</g>
<!-- Node10 -->
<g id="node10" class="node">
<title>Node10</title>
<g id="a_node10"><a xlink:title=" ">
<polygon fill="white" stroke="#bfbfbf" points="643.8,-56.5 643.8,-75.5 810.8,-75.5 810.8,-56.5 643.8,-56.5"/>
<text text-anchor="middle" x="727.3" y="-63.5" font-family="Helvetica,sans-Serif" font-size="10.00">../vmisc/vabstractapplication.h</text>
</a>
</g>
</g>
<!-- Node8&#45;&gt;Node10 -->
<g id="edge11" class="edge">
<title>Node8&#45;&gt;Node10</title>
<path fill="none" stroke="midnightblue" d="M295.13,-117.97C303.86,-115.78 313.41,-113.6 322.3,-112 352.26,-106.62 525.02,-88.13 635.01,-76.59"/>
<polygon fill="midnightblue" stroke="midnightblue" points="635.54,-80.06 645.12,-75.53 634.81,-73.09 635.54,-80.06"/>
</g>
<!-- Node11 -->
<g id="node11" class="node">
<title>Node11</title>
<g id="a_node11"><a xlink:href="../../d0/d0b/dialogmdatabase_8h.html" target="_top" xlink:title=" ">
<polygon fill="white" stroke="black" points="297.8,-56.5 297.8,-75.5 446.8,-75.5 446.8,-56.5 297.8,-56.5"/>
<text text-anchor="middle" x="372.3" y="-63.5" font-family="Helvetica,sans-Serif" font-size="10.00">dialogs/dialogmdatabase.h</text>
</a>
</g>
</g>
<!-- Node8&#45;&gt;Node11 -->
<g id="edge12" class="edge">
<title>Node8&#45;&gt;Node11</title>
<path fill="none" stroke="midnightblue" d="M279.77,-117.98C297.58,-108.17 327.04,-91.93 347.93,-80.42"/>
<polygon fill="midnightblue" stroke="midnightblue" points="349.78,-83.4 356.85,-75.51 346.4,-77.27 349.78,-83.4"/>
</g>
<!-- Node11&#45;&gt;Node3 -->
<g id="edge13" class="edge">
<title>Node11&#45;&gt;Node3</title>
<path fill="none" stroke="midnightblue" d="M341.72,-56.44C308,-47.01 253.73,-31.83 217.31,-21.63"/>
<polygon fill="midnightblue" stroke="midnightblue" points="218.11,-18.23 207.54,-18.9 216.23,-24.97 218.11,-18.23"/>
</g>
</g>
</svg>
