<?xml version="1.0" encoding="UTF-8" standalone="no"?>
<!DOCTYPE svg PUBLIC "-//W3C//DTD SVG 1.1//EN"
 "http://www.w3.org/Graphics/SVG/1.1/DTD/svg11.dtd">
<!-- Generated by graphviz version 2.43.0 (0)
 -->
<!-- Title: src/app/seamly2d/core/application_2d.h Pages: 1 -->
<svg width="4472pt" height="106pt"
 viewBox="0.00 0.00 4472.00 106.00" xmlns="http://www.w3.org/2000/svg" xmlns:xlink="http://www.w3.org/1999/xlink">
<g id="graph0" class="graph" transform="scale(1 1) rotate(0) translate(4 102)">
<title>src/app/seamly2d/core/application_2d.h</title>
<polygon fill="white" stroke="transparent" points="-4,4 -4,-102 4468,-102 4468,4 -4,4"/>
<!-- Node1 -->
<g id="node1" class="node">
<title>Node1</title>
<g id="a_node1"><a xlink:title=" ">
<polygon fill="#bfbfbf" stroke="black" points="2304,-67.5 2304,-97.5 2431,-97.5 2431,-67.5 2304,-67.5"/>
<text text-anchor="start" x="2312" y="-85.5" font-family="Helvetica,sans-Serif" font-size="10.00">src/app/seamly2d/core</text>
<text text-anchor="middle" x="2367.5" y="-74.5" font-family="Helvetica,sans-Serif" font-size="10.00">/application_2d.h</text>
</a>
</g>
</g>
<!-- Node2 -->
<g id="node2" class="node">
<title>Node2</title>
<g id="a_node2"><a xlink:href="../../df/d3e/application__2d_8cpp.html" target="_top" xlink:title=" ">
<polygon fill="white" stroke="black" points="0,-0.5 0,-30.5 127,-30.5 127,-0.5 0,-0.5"/>
<text text-anchor="start" x="8" y="-18.5" font-family="Helvetica,sans-Serif" font-size="10.00">src/app/seamly2d/core</text>
<text text-anchor="middle" x="63.5" y="-7.5" font-family="Helvetica,sans-Serif" font-size="10.00">/application_2d.cpp</text>
</a>
</g>
</g>
<!-- Node1&#45;&gt;Node2 -->
<g id="edge1" class="edge">
<title>Node1&#45;&gt;Node2</title>
<path fill="none" stroke="midnightblue" d="M2293.74,-81.58C1957.5,-81.66 567.77,-79.04 135.5,-31 132.71,-30.69 129.87,-30.33 127.01,-29.92"/>
<polygon fill="midnightblue" stroke="midnightblue" points="2293.85,-85.08 2303.85,-81.57 2293.85,-78.08 2293.85,-85.08"/>
</g>
<!-- Node3 -->
<g id="node3" class="node">
<title>Node3</title>
<g id="a_node3"><a xlink:href="../../d9/d7f/about2d__dialog_8cpp.html" target="_top" xlink:title=" ">
<polygon fill="white" stroke="black" points="145,-0.5 145,-30.5 286,-30.5 286,-0.5 145,-0.5"/>
<text text-anchor="start" x="153" y="-18.5" font-family="Helvetica,sans-Serif" font-size="10.00">src/app/seamly2d/dialogs</text>
<text text-anchor="middle" x="215.5" y="-7.5" font-family="Helvetica,sans-Serif" font-size="10.00">/about2d_dialog.cpp</text>
</a>
</g>
</g>
<!-- Node1&#45;&gt;Node3 -->
<g id="edge2" class="edge">
<title>Node1&#45;&gt;Node3</title>
<path fill="none" stroke="midnightblue" d="M2293.85,-81.24C1972.95,-79.85 694.99,-71.82 295.5,-31 292.41,-30.68 289.26,-30.32 286.09,-29.91"/>
<polygon fill="midnightblue" stroke="midnightblue" points="2293.95,-84.74 2303.97,-81.28 2293.98,-77.74 2293.95,-84.74"/>
</g>
<!-- Node4 -->
<g id="node4" class="node">
<title>Node4</title>
<g id="a_node4"><a xlink:href="../../dd/db4/abstractlayout__dialog_8cpp.html" target="_top" xlink:title=" ">
<polygon fill="white" stroke="black" points="304.5,-0.5 304.5,-30.5 450.5,-30.5 450.5,-0.5 304.5,-0.5"/>
<text text-anchor="start" x="312.5" y="-18.5" font-family="Helvetica,sans-Serif" font-size="10.00">src/app/seamly2d/dialogs</text>
<text text-anchor="middle" x="377.5" y="-7.5" font-family="Helvetica,sans-Serif" font-size="10.00">/abstractlayout_dialog.cpp</text>
</a>
</g>
</g>
<!-- Node1&#45;&gt;Node4 -->
<g id="edge3" class="edge">
<title>Node1&#45;&gt;Node4</title>
<path fill="none" stroke="midnightblue" d="M2293.73,-81.01C1988.73,-78.78 825.01,-67.95 459.5,-31 456.62,-30.71 453.7,-30.38 450.74,-30.01"/>
<polygon fill="midnightblue" stroke="midnightblue" points="2293.77,-84.51 2303.79,-81.09 2293.82,-77.51 2293.77,-84.51"/>
</g>
<!-- Node5 -->
<g id="node5" class="node">
<title>Node5</title>
<g id="a_node5"><a xlink:href="../../d7/dfa/calculator__dialog_8cpp.html" target="_top" xlink:title=" ">
<polygon fill="white" stroke="black" points="469,-0.5 469,-30.5 610,-30.5 610,-0.5 469,-0.5"/>
<text text-anchor="start" x="477" y="-18.5" font-family="Helvetica,sans-Serif" font-size="10.00">src/app/seamly2d/dialogs</text>
<text text-anchor="middle" x="539.5" y="-7.5" font-family="Helvetica,sans-Serif" font-size="10.00">/calculator_dialog.cpp</text>
</a>
</g>
</g>
<!-- Node1&#45;&gt;Node5 -->
<g id="edge4" class="edge">
<title>Node1&#45;&gt;Node5</title>
<path fill="none" stroke="midnightblue" d="M2293.35,-80.84C2004.16,-78.06 951.7,-65.7 619.5,-31 616.41,-30.68 613.26,-30.3 610.09,-29.89"/>
<polygon fill="midnightblue" stroke="midnightblue" points="2293.68,-84.35 2303.72,-80.94 2293.75,-77.35 2293.68,-84.35"/>
</g>
<!-- Node6 -->
<g id="node6" class="node">
<title>Node6</title>
<g id="a_node6"><a xlink:href="../../d2/d00/vtooloptionspropertybrowser_8cpp.html" target="_top" xlink:title=" ">
<polygon fill="white" stroke="black" points="628.5,-0.5 628.5,-30.5 808.5,-30.5 808.5,-0.5 628.5,-0.5"/>
<text text-anchor="start" x="636.5" y="-18.5" font-family="Helvetica,sans-Serif" font-size="10.00">src/app/seamly2d/core</text>
<text text-anchor="middle" x="718.5" y="-7.5" font-family="Helvetica,sans-Serif" font-size="10.00">/vtooloptionspropertybrowser.cpp</text>
</a>
</g>
</g>
<!-- Node1&#45;&gt;Node6 -->
<g id="edge5" class="edge">
<title>Node1&#45;&gt;Node6</title>
<path fill="none" stroke="midnightblue" d="M2293.58,-82.05C2070.37,-83.06 1383.75,-81.53 817.5,-31 814.56,-30.74 811.57,-30.45 808.56,-30.13"/>
<polygon fill="midnightblue" stroke="midnightblue" points="2293.87,-85.54 2303.86,-82 2293.84,-78.54 2293.87,-85.54"/>
</g>
<!-- Node7 -->
<g id="node7" class="node">
<title>Node7</title>
<g id="a_node7"><a xlink:href="../../d2/d2d/preferencesconfigurationpage_8cpp.html" target="_top" xlink:title=" ">
<polygon fill="white" stroke="black" points="827,-0.5 827,-30.5 1074,-30.5 1074,-0.5 827,-0.5"/>
<text text-anchor="start" x="835" y="-18.5" font-family="Helvetica,sans-Serif" font-size="10.00">src/app/seamly2d/dialogs</text>
<text text-anchor="middle" x="950.5" y="-7.5" font-family="Helvetica,sans-Serif" font-size="10.00">/configpages/preferencesconfigurationpage.cpp</text>
</a>
</g>
</g>
<!-- Node1&#45;&gt;Node7 -->
<g id="edge6" class="edge">
<title>Node1&#45;&gt;Node7</title>
<path fill="none" stroke="midnightblue" d="M2293.67,-80.41C2096.7,-77.11 1542.38,-65.25 1082.5,-31 1079.74,-30.79 1076.95,-30.58 1074.14,-30.35"/>
<polygon fill="midnightblue" stroke="midnightblue" points="2293.84,-83.91 2303.9,-80.58 2293.96,-76.91 2293.84,-83.91"/>
</g>
<!-- Node8 -->
<g id="node8" class="node">
<title>Node8</title>
<g id="a_node8"><a xlink:href="../../dc/d20/preferencespathpage_8cpp.html" target="_top" xlink:title=" ">
<polygon fill="white" stroke="black" points="1092,-0.5 1092,-30.5 1297,-30.5 1297,-0.5 1092,-0.5"/>
<text text-anchor="start" x="1100" y="-18.5" font-family="Helvetica,sans-Serif" font-size="10.00">src/app/seamly2d/dialogs</text>
<text text-anchor="middle" x="1194.5" y="-7.5" font-family="Helvetica,sans-Serif" font-size="10.00">/configpages/preferencespathpage.cpp</text>
</a>
</g>
</g>
<!-- Node1&#45;&gt;Node8 -->
<g id="edge7" class="edge">
<title>Node1&#45;&gt;Node8</title>
<path fill="none" stroke="midnightblue" d="M2293.93,-80.09C2121.13,-76.31 1675.95,-63.95 1305.5,-31 1302.79,-30.76 1300.04,-30.5 1297.27,-30.23"/>
<polygon fill="midnightblue" stroke="midnightblue" points="2293.86,-83.59 2303.93,-80.3 2294.01,-76.59 2293.86,-83.59"/>
</g>
<!-- Node9 -->
<g id="node9" class="node">
<title>Node9</title>
<g id="a_node9"><a xlink:href="../../d9/d70/preferencesgraphicsviewpage_8cpp.html" target="_top" xlink:title=" ">
<polygon fill="white" stroke="black" points="1314.5,-0.5 1314.5,-30.5 1562.5,-30.5 1562.5,-0.5 1314.5,-0.5"/>
<text text-anchor="start" x="1322.5" y="-18.5" font-family="Helvetica,sans-Serif" font-size="10.00">src/app/seamly2d/dialogs</text>
<text text-anchor="middle" x="1438.5" y="-7.5" font-family="Helvetica,sans-Serif" font-size="10.00">/configpages/preferencesgraphicsviewpage.cpp</text>
</a>
</g>
</g>
<!-- Node1&#45;&gt;Node9 -->
<g id="edge8" class="edge">
<title>Node1&#45;&gt;Node9</title>
<path fill="none" stroke="midnightblue" d="M2293.75,-77.94C2153.12,-70.9 1836.98,-53.88 1571.5,-31 1568.61,-30.75 1565.68,-30.49 1562.73,-30.22"/>
<polygon fill="midnightblue" stroke="midnightblue" points="2293.81,-81.45 2303.97,-78.45 2294.16,-74.45 2293.81,-81.45"/>
</g>
<!-- Node10 -->
<g id="node10" class="node">
<title>Node10</title>
<g id="a_node10"><a xlink:href="../../dd/dc2/decimalchart__dialog_8cpp.html" target="_top" xlink:title=" ">
<polygon fill="white" stroke="black" points="1581,-0.5 1581,-30.5 1722,-30.5 1722,-0.5 1581,-0.5"/>
<text text-anchor="start" x="1589" y="-18.5" font-family="Helvetica,sans-Serif" font-size="10.00">src/app/seamly2d/dialogs</text>
<text text-anchor="middle" x="1651.5" y="-7.5" font-family="Helvetica,sans-Serif" font-size="10.00">/decimalchart_dialog.cpp</text>
</a>
</g>
</g>
<!-- Node1&#45;&gt;Node10 -->
<g id="edge9" class="edge">
<title>Node1&#45;&gt;Node10</title>
<path fill="none" stroke="midnightblue" d="M2293.56,-78.04C2174.73,-71.93 1934.02,-57.33 1731.5,-31 1728.42,-30.6 1725.28,-30.16 1722.11,-29.69"/>
<polygon fill="midnightblue" stroke="midnightblue" points="2293.47,-81.54 2303.64,-78.55 2293.83,-74.54 2293.47,-81.54"/>
</g>
<!-- Node11 -->
<g id="node11" class="node">
<title>Node11</title>
<g id="a_node11"><a xlink:href="../../dc/d63/preferencespatternpage_8cpp.html" target="_top" xlink:title=" ">
<polygon fill="white" stroke="black" points="1740.5,-0.5 1740.5,-30.5 1958.5,-30.5 1958.5,-0.5 1740.5,-0.5"/>
<text text-anchor="start" x="1748.5" y="-18.5" font-family="Helvetica,sans-Serif" font-size="10.00">src/app/seamly2d/dialogs</text>
<text text-anchor="middle" x="1849.5" y="-7.5" font-family="Helvetica,sans-Serif" font-size="10.00">/configpages/preferencespatternpage.cpp</text>
</a>
</g>
</g>
<!-- Node1&#45;&gt;Node11 -->
<g id="edge10" class="edge">
<title>Node1&#45;&gt;Node11</title>
<path fill="none" stroke="midnightblue" d="M2293.88,-72.26C2206.38,-61.28 2059.57,-42.86 1958.8,-30.22"/>
<polygon fill="midnightblue" stroke="midnightblue" points="2293.63,-75.76 2303.98,-73.53 2294.5,-68.81 2293.63,-75.76"/>
</g>
<!-- Node12 -->
<g id="node12" class="node">
<title>Node12</title>
<g id="a_node12"><a xlink:href="../../d6/d89/dialoglayoutprogress_8cpp.html" target="_top" xlink:title=" ">
<polygon fill="white" stroke="black" points="1977,-0.5 1977,-30.5 2120,-30.5 2120,-0.5 1977,-0.5"/>
<text text-anchor="start" x="1985" y="-18.5" font-family="Helvetica,sans-Serif" font-size="10.00">src/app/seamly2d/dialogs</text>
<text text-anchor="middle" x="2048.5" y="-7.5" font-family="Helvetica,sans-Serif" font-size="10.00">/dialoglayoutprogress.cpp</text>
</a>
</g>
</g>
<!-- Node1&#45;&gt;Node12 -->
<g id="edge11" class="edge">
<title>Node1&#45;&gt;Node12</title>
<path fill="none" stroke="midnightblue" d="M2293.68,-66.46C2240.55,-55.63 2169.39,-41.13 2117.43,-30.54"/>
<polygon fill="midnightblue" stroke="midnightblue" points="2293.21,-69.94 2303.71,-68.5 2294.61,-63.08 2293.21,-69.94"/>
</g>
<!-- Node13 -->
<g id="node13" class="node">
<title>Node13</title>
<g id="a_node13"><a xlink:href="../../de/d87/dialognewpattern_8cpp.html" target="_top" xlink:title=" ">
<polygon fill="white" stroke="black" points="2138,-0.5 2138,-30.5 2279,-30.5 2279,-0.5 2138,-0.5"/>
<text text-anchor="start" x="2146" y="-18.5" font-family="Helvetica,sans-Serif" font-size="10.00">src/app/seamly2d/dialogs</text>
<text text-anchor="middle" x="2208.5" y="-7.5" font-family="Helvetica,sans-Serif" font-size="10.00">/dialognewpattern.cpp</text>
</a>
</g>
</g>
<!-- Node1&#45;&gt;Node13 -->
<g id="edge12" class="edge">
<title>Node1&#45;&gt;Node13</title>
<path fill="none" stroke="midnightblue" d="M2323.58,-63.54C2298.13,-53.14 2266.57,-40.24 2242.93,-30.58"/>
<polygon fill="midnightblue" stroke="midnightblue" points="2322.42,-66.85 2333,-67.4 2325.07,-60.37 2322.42,-66.85"/>
</g>
<!-- Node14 -->
<g id="node14" class="node">
<title>Node14</title>
<g id="a_node14"><a xlink:href="../../d5/dc5/dialogpreferences_8cpp.html" target="_top" xlink:title=" ">
<polygon fill="white" stroke="black" points="2297,-0.5 2297,-30.5 2438,-30.5 2438,-0.5 2297,-0.5"/>
<text text-anchor="start" x="2305" y="-18.5" font-family="Helvetica,sans-Serif" font-size="10.00">src/app/seamly2d/dialogs</text>
<text text-anchor="middle" x="2367.5" y="-7.5" font-family="Helvetica,sans-Serif" font-size="10.00">/dialogpreferences.cpp</text>
</a>
</g>
</g>
<!-- Node1&#45;&gt;Node14 -->
<g id="edge13" class="edge">
<title>Node1&#45;&gt;Node14</title>
<path fill="none" stroke="midnightblue" d="M2367.5,-57.11C2367.5,-48.15 2367.5,-38.32 2367.5,-30.58"/>
<polygon fill="midnightblue" stroke="midnightblue" points="2364,-57.4 2367.5,-67.4 2371,-57.4 2364,-57.4"/>
</g>
<!-- Node15 -->
<g id="node15" class="node">
<title>Node15</title>
<g id="a_node15"><a xlink:href="../../dd/d54/export__layout__dialog_8cpp.html" target="_top" xlink:title=" ">
<polygon fill="white" stroke="black" points="2456,-0.5 2456,-30.5 2599,-30.5 2599,-0.5 2456,-0.5"/>
<text text-anchor="start" x="2464" y="-18.5" font-family="Helvetica,sans-Serif" font-size="10.00">src/app/seamly2d/dialogs</text>
<text text-anchor="middle" x="2527.5" y="-7.5" font-family="Helvetica,sans-Serif" font-size="10.00">/export_layout_dialog.cpp</text>
</a>
</g>
</g>
<!-- Node1&#45;&gt;Node15 -->
<g id="edge14" class="edge">
<title>Node1&#45;&gt;Node15</title>
<path fill="none" stroke="midnightblue" d="M2411.7,-63.54C2437.3,-53.14 2469.07,-40.24 2492.85,-30.58"/>
<polygon fill="midnightblue" stroke="midnightblue" points="2410.16,-60.39 2402.22,-67.4 2412.8,-66.87 2410.16,-60.39"/>
</g>
<!-- Node16 -->
<g id="node16" class="node">
<title>Node16</title>
<g id="a_node16"><a xlink:href="../../d5/d18/dialogpatternproperties_8cpp.html" target="_top" xlink:title=" ">
<polygon fill="white" stroke="black" points="2617,-0.5 2617,-30.5 2772,-30.5 2772,-0.5 2617,-0.5"/>
<text text-anchor="start" x="2625" y="-18.5" font-family="Helvetica,sans-Serif" font-size="10.00">src/app/seamly2d/dialogs</text>
<text text-anchor="middle" x="2694.5" y="-7.5" font-family="Helvetica,sans-Serif" font-size="10.00">/dialogpatternproperties.cpp</text>
</a>
</g>
</g>
<!-- Node1&#45;&gt;Node16 -->
<g id="edge15" class="edge">
<title>Node1&#45;&gt;Node16</title>
<path fill="none" stroke="midnightblue" d="M2441.31,-66.83C2496.02,-55.95 2570.13,-41.22 2624.03,-30.51"/>
<polygon fill="midnightblue" stroke="midnightblue" points="2440.45,-63.43 2431.33,-68.81 2441.82,-70.3 2440.45,-63.43"/>
</g>
<!-- Node17 -->
<g id="node17" class="node">
<title>Node17</title>
<g id="a_node17"><a xlink:href="../../d0/dfa/layoutsettings__dialog_8cpp.html" target="_top" xlink:title=" ">
<polygon fill="white" stroke="black" points="2790,-0.5 2790,-30.5 2935,-30.5 2935,-0.5 2790,-0.5"/>
<text text-anchor="start" x="2798" y="-18.5" font-family="Helvetica,sans-Serif" font-size="10.00">src/app/seamly2d/dialogs</text>
<text text-anchor="middle" x="2862.5" y="-7.5" font-family="Helvetica,sans-Serif" font-size="10.00">/layoutsettings_dialog.cpp</text>
</a>
</g>
</g>
<!-- Node1&#45;&gt;Node17 -->
<g id="edge16" class="edge">
<title>Node1&#45;&gt;Node17</title>
<path fill="none" stroke="midnightblue" d="M2441.21,-73.76C2524.13,-64.77 2662.76,-48.86 2781.5,-31 2784.18,-30.6 2786.92,-30.17 2789.67,-29.73"/>
<polygon fill="midnightblue" stroke="midnightblue" points="2440.69,-70.3 2431.13,-74.85 2441.44,-77.26 2440.69,-70.3"/>
</g>
<!-- Node18 -->
<g id="node18" class="node">
<title>Node18</title>
<g id="a_node18"><a xlink:href="../../d2/df4/show__info__dialog_8cpp.html" target="_top" xlink:title=" ">
<polygon fill="white" stroke="black" points="2953,-0.5 2953,-30.5 3094,-30.5 3094,-0.5 2953,-0.5"/>
<text text-anchor="start" x="2961" y="-18.5" font-family="Helvetica,sans-Serif" font-size="10.00">src/app/seamly2d/dialogs</text>
<text text-anchor="middle" x="3023.5" y="-7.5" font-family="Helvetica,sans-Serif" font-size="10.00">/show_info_dialog.cpp</text>
</a>
</g>
</g>
<!-- Node1&#45;&gt;Node18 -->
<g id="edge17" class="edge">
<title>Node1&#45;&gt;Node18</title>
<path fill="none" stroke="midnightblue" d="M2441.32,-77.27C2551.3,-70.47 2764.52,-55.34 2944.5,-31 2947.26,-30.63 2950.08,-30.22 2952.92,-29.8"/>
<polygon fill="midnightblue" stroke="midnightblue" points="2441.09,-73.78 2431.33,-77.89 2441.52,-80.77 2441.09,-73.78"/>
</g>
<!-- Node19 -->
<g id="node19" class="node">
<title>Node19</title>
<g id="a_node19"><a xlink:href="../../dd/d84/shortcuts__dialog_8cpp.html" target="_top" xlink:title=" ">
<polygon fill="white" stroke="black" points="3112,-0.5 3112,-30.5 3253,-30.5 3253,-0.5 3112,-0.5"/>
<text text-anchor="start" x="3120" y="-18.5" font-family="Helvetica,sans-Serif" font-size="10.00">src/app/seamly2d/dialogs</text>
<text text-anchor="middle" x="3182.5" y="-7.5" font-family="Helvetica,sans-Serif" font-size="10.00">/shortcuts_dialog.cpp</text>
</a>
</g>
</g>
<!-- Node1&#45;&gt;Node19 -->
<g id="edge18" class="edge">
<title>Node1&#45;&gt;Node19</title>
<path fill="none" stroke="midnightblue" d="M2441.3,-79.2C2574.17,-74.44 2862.3,-61.31 3103.5,-31 3106.27,-30.65 3109.08,-30.27 3111.93,-29.86"/>
<polygon fill="midnightblue" stroke="midnightblue" points="2441.1,-75.7 2431.23,-79.55 2441.35,-82.7 2441.1,-75.7"/>
</g>
<!-- Node20 -->
<g id="node20" class="node">
<title>Node20</title>
<g id="a_node20"><a xlink:href="../../df/d69/welcome__dialog_8cpp.html" target="_top" xlink:title=" ">
<polygon fill="white" stroke="black" points="3271,-0.5 3271,-30.5 3412,-30.5 3412,-0.5 3271,-0.5"/>
<text text-anchor="start" x="3279" y="-18.5" font-family="Helvetica,sans-Serif" font-size="10.00">src/app/seamly2d/dialogs</text>
<text text-anchor="middle" x="3341.5" y="-7.5" font-family="Helvetica,sans-Serif" font-size="10.00">/welcome_dialog.cpp</text>
</a>
</g>
</g>
<!-- Node1&#45;&gt;Node20 -->
<g id="edge19" class="edge">
<title>Node1&#45;&gt;Node20</title>
<path fill="none" stroke="midnightblue" d="M2441.47,-80.45C2595,-77.59 2959.25,-67.24 3262.5,-31 3265.27,-30.67 3268.09,-30.3 3270.93,-29.9"/>
<polygon fill="midnightblue" stroke="midnightblue" points="2441.16,-76.96 2431.22,-80.64 2441.28,-83.96 2441.16,-76.96"/>
</g>
<!-- Node21 -->
<g id="node21" class="node">
<title>Node21</title>
<g id="a_node21"><a xlink:href="../../dc/d14/app_2seamly2d_2main_8cpp.html" target="_top" xlink:title=" ">
<polygon fill="white" stroke="black" points="3430,-6 3430,-25 3581,-25 3581,-6 3430,-6"/>
<text text-anchor="middle" x="3505.5" y="-13" font-family="Helvetica,sans-Serif" font-size="10.00">src/app/seamly2d/main.cpp</text>
</a>
</g>
</g>
<!-- Node1&#45;&gt;Node21 -->
<g id="edge20" class="edge">
<title>Node1&#45;&gt;Node21</title>
<path fill="none" stroke="midnightblue" d="M2441.5,-81.08C2613.85,-79.42 3055.22,-71.23 3421.5,-31 3434.74,-29.55 3449.05,-27.32 3462.05,-25.05"/>
<polygon fill="midnightblue" stroke="midnightblue" points="2441.24,-77.58 2431.28,-81.17 2441.31,-84.58 2441.24,-77.58"/>
</g>
<!-- Node22 -->
<g id="node22" class="node">
<title>Node22</title>
<g id="a_node22"><a xlink:href="../../db/d5c/groups__widget_8cpp.html" target="_top" xlink:title=" ">
<polygon fill="white" stroke="black" points="3599,-0.5 3599,-30.5 3740,-30.5 3740,-0.5 3599,-0.5"/>
<text text-anchor="start" x="3607" y="-18.5" font-family="Helvetica,sans-Serif" font-size="10.00">src/app/seamly2d/dialogs</text>
<text text-anchor="middle" x="3669.5" y="-7.5" font-family="Helvetica,sans-Serif" font-size="10.00">/groups_widget.cpp</text>
</a>
</g>
</g>
<!-- Node1&#45;&gt;Node22 -->
<g id="edge21" class="edge">
<title>Node1&#45;&gt;Node22</title>
<path fill="none" stroke="midnightblue" d="M2441.26,-82.05C2631.98,-82.69 3156.83,-79.51 3590.5,-31 3593.27,-30.69 3596.09,-30.34 3598.94,-29.96"/>
<polygon fill="midnightblue" stroke="midnightblue" points="2441.09,-78.55 2431.07,-82.01 2441.06,-85.55 2441.09,-78.55"/>
</g>
<!-- Node23 -->
<g id="node23" class="node">
<title>Node23</title>
<g id="a_node23"><a xlink:href="../../d8/de8/mainwindowsnogui_8cpp.html" target="_top" xlink:title=" ">
<polygon fill="white" stroke="black" points="3758,-6 3758,-25 3979,-25 3979,-6 3758,-6"/>
<text text-anchor="middle" x="3868.5" y="-13" font-family="Helvetica,sans-Serif" font-size="10.00">src/app/seamly2d/mainwindowsnogui.cpp</text>
</a>
</g>
</g>
<!-- Node1&#45;&gt;Node23 -->
<g id="edge22" class="edge">
<title>Node1&#45;&gt;Node23</title>
<path fill="none" stroke="midnightblue" d="M2441.46,-81C2648.41,-79.13 3250.81,-70.42 3749.5,-31 3768.17,-29.52 3788.42,-27.29 3806.84,-25.02"/>
<polygon fill="midnightblue" stroke="midnightblue" points="2441.29,-77.5 2431.32,-81.09 2441.35,-84.5 2441.29,-77.5"/>
</g>
<!-- Node24 -->
<g id="node24" class="node">
<title>Node24</title>
<g id="a_node24"><a xlink:href="../../d3/d49/vpattern_8cpp.html" target="_top" xlink:title=" ">
<polygon fill="white" stroke="black" points="3997,-0.5 3997,-30.5 4122,-30.5 4122,-0.5 3997,-0.5"/>
<text text-anchor="start" x="4005" y="-18.5" font-family="Helvetica,sans-Serif" font-size="10.00">src/app/seamly2d/xml</text>
<text text-anchor="middle" x="4059.5" y="-7.5" font-family="Helvetica,sans-Serif" font-size="10.00">/vpattern.cpp</text>
</a>
</g>
</g>
<!-- Node1&#45;&gt;Node24 -->
<g id="edge23" class="edge">
<title>Node1&#45;&gt;Node24</title>
<path fill="none" stroke="midnightblue" d="M2441.28,-80.87C2716.45,-78.27 3682.71,-66.72 3988.5,-31 3991.25,-30.68 3994.05,-30.31 3996.87,-29.89"/>
<polygon fill="midnightblue" stroke="midnightblue" points="2440.98,-77.37 2431.01,-80.97 2441.04,-84.37 2440.98,-77.37"/>
</g>
<!-- Node25 -->
<g id="node25" class="node">
<title>Node25</title>
<g id="a_node25"><a xlink:href="../../d8/dd9/mainwindow_8cpp.html" target="_top" xlink:title=" ">
<polygon fill="white" stroke="black" points="4140.5,-6 4140.5,-25 4328.5,-25 4328.5,-6 4140.5,-6"/>
<text text-anchor="middle" x="4234.5" y="-13" font-family="Helvetica,sans-Serif" font-size="10.00">src/app/seamly2d/mainwindow.cpp</text>
</a>
</g>
</g>
<!-- Node1&#45;&gt;Node25 -->
<g id="edge24" class="edge">
<title>Node1&#45;&gt;Node25</title>
<path fill="none" stroke="midnightblue" d="M2441.37,-80.48C2731.75,-76.31 3795.28,-59.39 4131.5,-31 4148.05,-29.6 4166.01,-27.34 4182.23,-25.01"/>
<polygon fill="midnightblue" stroke="midnightblue" points="2441.32,-76.98 2431.37,-80.63 2441.42,-83.98 2441.32,-76.98"/>
</g>
<!-- Node26 -->
<g id="node26" class="node">
<title>Node26</title>
<g id="a_node26"><a xlink:href="../../d9/da3/image__tool_8cpp.html" target="_top" xlink:title=" ">
<polygon fill="white" stroke="black" points="4347,-0.5 4347,-30.5 4464,-30.5 4464,-0.5 4347,-0.5"/>
<text text-anchor="start" x="4355" y="-18.5" font-family="Helvetica,sans-Serif" font-size="10.00">src/libs/tools/images</text>
<text text-anchor="middle" x="4405.5" y="-7.5" font-family="Helvetica,sans-Serif" font-size="10.00">/image_tool.cpp</text>
</a>
</g>
</g>
<!-- Node1&#45;&gt;Node26 -->
<g id="edge25" class="edge">
<title>Node1&#45;&gt;Node26</title>
<path fill="none" stroke="midnightblue" d="M2441.61,-81.43C2753.41,-80.85 3959.99,-75.7 4337.5,-31 4340.5,-30.65 4343.56,-30.22 4346.64,-29.75"/>
<polygon fill="midnightblue" stroke="midnightblue" points="2441.33,-77.93 2431.33,-81.45 2441.34,-84.93 2441.33,-77.93"/>
</g>
</g>
</svg>
