<?xml version="1.0" encoding="UTF-8" standalone="no"?>
<!DOCTYPE svg PUBLIC "-//W3C//DTD SVG 1.1//EN"
 "http://www.w3.org/Graphics/SVG/1.1/DTD/svg11.dtd">
<!-- Generated by graphviz version 2.43.0 (0)
 -->
<!-- Title: src/app/seamly2d/core/application_2d.h Pages: 1 -->
<svg width="4178pt" height="106pt"
 viewBox="0.00 0.00 4177.50 106.00" xmlns="http://www.w3.org/2000/svg" xmlns:xlink="http://www.w3.org/1999/xlink">
<g id="graph0" class="graph" transform="scale(1 1) rotate(0) translate(4 102)">
<title>src/app/seamly2d/core/application_2d.h</title>
<polygon fill="white" stroke="transparent" points="-4,4 -4,-102 4173.5,-102 4173.5,4 -4,4"/>
<!-- Node1 -->
<g id="node1" class="node">
<title>Node1</title>
<g id="a_node1"><a xlink:title=" ">
<polygon fill="#bfbfbf" stroke="black" points="2152,-67.5 2152,-97.5 2279,-97.5 2279,-67.5 2152,-67.5"/>
<text text-anchor="start" x="2160" y="-85.5" font-family="Helvetica,sans-Serif" font-size="10.00">src/app/seamly2d/core</text>
<text text-anchor="middle" x="2215.5" y="-74.5" font-family="Helvetica,sans-Serif" font-size="10.00">/application_2d.h</text>
</a>
</g>
</g>
<!-- Node2 -->
<g id="node2" class="node">
<title>Node2</title>
<g id="a_node2"><a xlink:href="../../df/d3e/application__2d_8cpp.html" target="_top" xlink:title=" ">
<polygon fill="white" stroke="black" points="0,-0.5 0,-30.5 127,-30.5 127,-0.5 0,-0.5"/>
<text text-anchor="start" x="8" y="-18.5" font-family="Helvetica,sans-Serif" font-size="10.00">src/app/seamly2d/core</text>
<text text-anchor="middle" x="63.5" y="-7.5" font-family="Helvetica,sans-Serif" font-size="10.00">/application_2d.cpp</text>
</a>
</g>
</g>
<!-- Node1&#45;&gt;Node2 -->
<g id="edge1" class="edge">
<title>Node1&#45;&gt;Node2</title>
<path fill="none" stroke="midnightblue" d="M2141.85,-81.41C1820.23,-80.74 537.1,-75.32 136.5,-31 133.42,-30.66 130.27,-30.25 127.1,-29.8"/>
<polygon fill="midnightblue" stroke="midnightblue" points="2141.98,-84.91 2151.99,-81.43 2142,-77.91 2141.98,-84.91"/>
</g>
<!-- Node3 -->
<g id="node3" class="node">
<title>Node3</title>
<g id="a_node3"><a xlink:href="../../dd/db4/abstractlayout__dialog_8cpp.html" target="_top" xlink:title=" ">
<polygon fill="white" stroke="black" points="145.5,-0.5 145.5,-30.5 291.5,-30.5 291.5,-0.5 145.5,-0.5"/>
<text text-anchor="start" x="153.5" y="-18.5" font-family="Helvetica,sans-Serif" font-size="10.00">src/app/seamly2d/dialogs</text>
<text text-anchor="middle" x="218.5" y="-7.5" font-family="Helvetica,sans-Serif" font-size="10.00">/abstractlayout_dialog.cpp</text>
</a>
</g>
</g>
<!-- Node1&#45;&gt;Node3 -->
<g id="edge2" class="edge">
<title>Node1&#45;&gt;Node3</title>
<path fill="none" stroke="midnightblue" d="M2141.46,-81.02C1835.34,-78.81 667.35,-68.06 300.5,-31 297.62,-30.71 294.7,-30.38 291.74,-30.01"/>
<polygon fill="midnightblue" stroke="midnightblue" points="2141.53,-84.52 2151.56,-81.09 2141.58,-77.52 2141.53,-84.52"/>
</g>
<!-- Node4 -->
<g id="node4" class="node">
<title>Node4</title>
<g id="a_node4"><a xlink:href="../../d2/d2d/preferencesconfigurationpage_8cpp.html" target="_top" xlink:title=" ">
<polygon fill="white" stroke="black" points="310,-0.5 310,-30.5 557,-30.5 557,-0.5 310,-0.5"/>
<text text-anchor="start" x="318" y="-18.5" font-family="Helvetica,sans-Serif" font-size="10.00">src/app/seamly2d/dialogs</text>
<text text-anchor="middle" x="433.5" y="-7.5" font-family="Helvetica,sans-Serif" font-size="10.00">/configpages/preferencesconfigurationpage.cpp</text>
</a>
</g>
</g>
<!-- Node1&#45;&gt;Node4 -->
<g id="edge3" class="edge">
<title>Node1&#45;&gt;Node4</title>
<path fill="none" stroke="midnightblue" d="M2141.68,-81.31C1909.48,-80.28 1173.27,-73.62 565.5,-31 562.74,-30.81 559.95,-30.6 557.14,-30.38"/>
<polygon fill="midnightblue" stroke="midnightblue" points="2141.69,-84.81 2151.7,-81.35 2141.72,-77.81 2141.69,-84.81"/>
</g>
<!-- Node5 -->
<g id="node5" class="node">
<title>Node5</title>
<g id="a_node5"><a xlink:href="../../d7/dfa/calculator__dialog_8cpp.html" target="_top" xlink:title=" ">
<polygon fill="white" stroke="black" points="575,-0.5 575,-30.5 716,-30.5 716,-0.5 575,-0.5"/>
<text text-anchor="start" x="583" y="-18.5" font-family="Helvetica,sans-Serif" font-size="10.00">src/app/seamly2d/dialogs</text>
<text text-anchor="middle" x="645.5" y="-7.5" font-family="Helvetica,sans-Serif" font-size="10.00">/calculator_dialog.cpp</text>
</a>
</g>
</g>
<!-- Node1&#45;&gt;Node5 -->
<g id="edge4" class="edge">
<title>Node1&#45;&gt;Node5</title>
<path fill="none" stroke="midnightblue" d="M2141.65,-80.42C1880.98,-76.39 1004.71,-60.87 725.5,-31 722.41,-30.67 719.26,-30.29 716.09,-29.87"/>
<polygon fill="midnightblue" stroke="midnightblue" points="2141.71,-83.92 2151.77,-80.58 2141.82,-76.92 2141.71,-83.92"/>
</g>
<!-- Node6 -->
<g id="node6" class="node">
<title>Node6</title>
<g id="a_node6"><a xlink:href="../../d2/d00/vtooloptionspropertybrowser_8cpp.html" target="_top" xlink:title=" ">
<polygon fill="white" stroke="black" points="734.5,-0.5 734.5,-30.5 914.5,-30.5 914.5,-0.5 734.5,-0.5"/>
<text text-anchor="start" x="742.5" y="-18.5" font-family="Helvetica,sans-Serif" font-size="10.00">src/app/seamly2d/core</text>
<text text-anchor="middle" x="824.5" y="-7.5" font-family="Helvetica,sans-Serif" font-size="10.00">/vtooloptionspropertybrowser.cpp</text>
</a>
</g>
</g>
<!-- Node1&#45;&gt;Node6 -->
<g id="edge5" class="edge">
<title>Node1&#45;&gt;Node6</title>
<path fill="none" stroke="midnightblue" d="M2141.55,-81.36C1943.62,-80.38 1385.47,-73.74 923.5,-31 920.56,-30.73 917.57,-30.43 914.56,-30.11"/>
<polygon fill="midnightblue" stroke="midnightblue" points="2141.81,-84.86 2151.82,-81.4 2141.84,-77.86 2141.81,-84.86"/>
</g>
<!-- Node7 -->
<g id="node7" class="node">
<title>Node7</title>
<g id="a_node7"><a xlink:href="../../dc/d20/preferencespathpage_8cpp.html" target="_top" xlink:title=" ">
<polygon fill="white" stroke="black" points="933,-0.5 933,-30.5 1138,-30.5 1138,-0.5 933,-0.5"/>
<text text-anchor="start" x="941" y="-18.5" font-family="Helvetica,sans-Serif" font-size="10.00">src/app/seamly2d/dialogs</text>
<text text-anchor="middle" x="1035.5" y="-7.5" font-family="Helvetica,sans-Serif" font-size="10.00">/configpages/preferencespathpage.cpp</text>
</a>
</g>
</g>
<!-- Node1&#45;&gt;Node7 -->
<g id="edge6" class="edge">
<title>Node1&#45;&gt;Node7</title>
<path fill="none" stroke="midnightblue" d="M2141.77,-80.12C1968.05,-76.4 1519.62,-64.13 1146.5,-31 1143.79,-30.76 1141.04,-30.5 1138.27,-30.23"/>
<polygon fill="midnightblue" stroke="midnightblue" points="2141.75,-83.62 2151.82,-80.33 2141.89,-76.62 2141.75,-83.62"/>
</g>
<!-- Node8 -->
<g id="node8" class="node">
<title>Node8</title>
<g id="a_node8"><a xlink:href="../../d9/d70/preferencesgraphicsviewpage_8cpp.html" target="_top" xlink:title=" ">
<polygon fill="white" stroke="black" points="1155.5,-0.5 1155.5,-30.5 1403.5,-30.5 1403.5,-0.5 1155.5,-0.5"/>
<text text-anchor="start" x="1163.5" y="-18.5" font-family="Helvetica,sans-Serif" font-size="10.00">src/app/seamly2d/dialogs</text>
<text text-anchor="middle" x="1279.5" y="-7.5" font-family="Helvetica,sans-Serif" font-size="10.00">/configpages/preferencesgraphicsviewpage.cpp</text>
</a>
</g>
</g>
<!-- Node1&#45;&gt;Node8 -->
<g id="edge7" class="edge">
<title>Node1&#45;&gt;Node8</title>
<path fill="none" stroke="midnightblue" d="M2141.64,-77.99C2000.04,-71 1680.66,-54.04 1412.5,-31 1409.61,-30.75 1406.68,-30.49 1403.73,-30.23"/>
<polygon fill="midnightblue" stroke="midnightblue" points="2141.77,-81.5 2151.93,-78.49 2142.11,-74.51 2141.77,-81.5"/>
</g>
<!-- Node9 -->
<g id="node9" class="node">
<title>Node9</title>
<g id="a_node9"><a xlink:href="../../dd/dc2/decimalchart__dialog_8cpp.html" target="_top" xlink:title=" ">
<polygon fill="white" stroke="black" points="1422,-0.5 1422,-30.5 1563,-30.5 1563,-0.5 1422,-0.5"/>
<text text-anchor="start" x="1430" y="-18.5" font-family="Helvetica,sans-Serif" font-size="10.00">src/app/seamly2d/dialogs</text>
<text text-anchor="middle" x="1492.5" y="-7.5" font-family="Helvetica,sans-Serif" font-size="10.00">/decimalchart_dialog.cpp</text>
</a>
</g>
</g>
<!-- Node1&#45;&gt;Node9 -->
<g id="edge8" class="edge">
<title>Node1&#45;&gt;Node9</title>
<path fill="none" stroke="midnightblue" d="M2141.7,-78.13C2021.88,-72.11 1777.78,-57.6 1572.5,-31 1569.42,-30.6 1566.28,-30.16 1563.11,-29.7"/>
<polygon fill="midnightblue" stroke="midnightblue" points="2141.69,-81.63 2151.85,-78.63 2142.04,-74.64 2141.69,-81.63"/>
</g>
<!-- Node10 -->
<g id="node10" class="node">
<title>Node10</title>
<g id="a_node10"><a xlink:href="../../dc/d63/preferencespatternpage_8cpp.html" target="_top" xlink:title=" ">
<polygon fill="white" stroke="black" points="1581.5,-0.5 1581.5,-30.5 1799.5,-30.5 1799.5,-0.5 1581.5,-0.5"/>
<text text-anchor="start" x="1589.5" y="-18.5" font-family="Helvetica,sans-Serif" font-size="10.00">src/app/seamly2d/dialogs</text>
<text text-anchor="middle" x="1690.5" y="-7.5" font-family="Helvetica,sans-Serif" font-size="10.00">/configpages/preferencespatternpage.cpp</text>
</a>
</g>
</g>
<!-- Node1&#45;&gt;Node10 -->
<g id="edge9" class="edge">
<title>Node1&#45;&gt;Node10</title>
<path fill="none" stroke="midnightblue" d="M2141.9,-72.39C2052.87,-61.36 1902.2,-42.71 1799.64,-30.01"/>
<polygon fill="midnightblue" stroke="midnightblue" points="2141.56,-75.87 2151.91,-73.63 2142.42,-68.92 2141.56,-75.87"/>
</g>
<!-- Node11 -->
<g id="node11" class="node">
<title>Node11</title>
<g id="a_node11"><a xlink:href="../../dd/d64/dialogaboutapp_8cpp.html" target="_top" xlink:title=" ">
<polygon fill="white" stroke="black" points="1818,-0.5 1818,-30.5 1959,-30.5 1959,-0.5 1818,-0.5"/>
<text text-anchor="start" x="1826" y="-18.5" font-family="Helvetica,sans-Serif" font-size="10.00">src/app/seamly2d/dialogs</text>
<text text-anchor="middle" x="1888.5" y="-7.5" font-family="Helvetica,sans-Serif" font-size="10.00">/dialogaboutapp.cpp</text>
</a>
</g>
</g>
<!-- Node1&#45;&gt;Node11 -->
<g id="edge10" class="edge">
<title>Node1&#45;&gt;Node11</title>
<path fill="none" stroke="midnightblue" d="M2141.69,-66.83C2086.98,-55.95 2012.87,-41.22 1958.97,-30.51"/>
<polygon fill="midnightblue" stroke="midnightblue" points="2141.18,-70.3 2151.67,-68.81 2142.55,-63.43 2141.18,-70.3"/>
</g>
<!-- Node12 -->
<g id="node12" class="node">
<title>Node12</title>
<g id="a_node12"><a xlink:href="../../d6/d89/dialoglayoutprogress_8cpp.html" target="_top" xlink:title=" ">
<polygon fill="white" stroke="black" points="1977,-0.5 1977,-30.5 2120,-30.5 2120,-0.5 1977,-0.5"/>
<text text-anchor="start" x="1985" y="-18.5" font-family="Helvetica,sans-Serif" font-size="10.00">src/app/seamly2d/dialogs</text>
<text text-anchor="middle" x="2048.5" y="-7.5" font-family="Helvetica,sans-Serif" font-size="10.00">/dialoglayoutprogress.cpp</text>
</a>
</g>
</g>
<!-- Node1&#45;&gt;Node12 -->
<g id="edge11" class="edge">
<title>Node1&#45;&gt;Node12</title>
<path fill="none" stroke="midnightblue" d="M2169.72,-63.68C2142.94,-53.26 2109.6,-40.28 2084.67,-30.58"/>
<polygon fill="midnightblue" stroke="midnightblue" points="2168.67,-67.03 2179.26,-67.4 2171.21,-60.51 2168.67,-67.03"/>
</g>
<!-- Node13 -->
<g id="node13" class="node">
<title>Node13</title>
<g id="a_node13"><a xlink:href="../../d5/d18/dialogpatternproperties_8cpp.html" target="_top" xlink:title=" ">
<polygon fill="white" stroke="black" points="2138,-0.5 2138,-30.5 2293,-30.5 2293,-0.5 2138,-0.5"/>
<text text-anchor="start" x="2146" y="-18.5" font-family="Helvetica,sans-Serif" font-size="10.00">src/app/seamly2d/dialogs</text>
<text text-anchor="middle" x="2215.5" y="-7.5" font-family="Helvetica,sans-Serif" font-size="10.00">/dialogpatternproperties.cpp</text>
</a>
</g>
</g>
<!-- Node1&#45;&gt;Node13 -->
<g id="edge12" class="edge">
<title>Node1&#45;&gt;Node13</title>
<path fill="none" stroke="midnightblue" d="M2215.5,-57.11C2215.5,-48.15 2215.5,-38.32 2215.5,-30.58"/>
<polygon fill="midnightblue" stroke="midnightblue" points="2212,-57.4 2215.5,-67.4 2219,-57.4 2212,-57.4"/>
</g>
<!-- Node14 -->
<g id="node14" class="node">
<title>Node14</title>
<g id="a_node14"><a xlink:href="../../d5/dc5/dialogpreferences_8cpp.html" target="_top" xlink:title=" ">
<polygon fill="white" stroke="black" points="2311,-0.5 2311,-30.5 2452,-30.5 2452,-0.5 2311,-0.5"/>
<text text-anchor="start" x="2319" y="-18.5" font-family="Helvetica,sans-Serif" font-size="10.00">src/app/seamly2d/dialogs</text>
<text text-anchor="middle" x="2381.5" y="-7.5" font-family="Helvetica,sans-Serif" font-size="10.00">/dialogpreferences.cpp</text>
</a>
</g>
</g>
<!-- Node1&#45;&gt;Node14 -->
<g id="edge13" class="edge">
<title>Node1&#45;&gt;Node14</title>
<path fill="none" stroke="midnightblue" d="M2261.01,-63.68C2287.63,-53.26 2320.77,-40.28 2345.55,-30.58"/>
<polygon fill="midnightblue" stroke="midnightblue" points="2259.55,-60.49 2251.52,-67.4 2262.11,-67.01 2259.55,-60.49"/>
</g>
<!-- Node15 -->
<g id="node15" class="node">
<title>Node15</title>
<g id="a_node15"><a xlink:href="../../dd/d54/export__layout__dialog_8cpp.html" target="_top" xlink:title=" ">
<polygon fill="white" stroke="black" points="2470,-0.5 2470,-30.5 2613,-30.5 2613,-0.5 2470,-0.5"/>
<text text-anchor="start" x="2478" y="-18.5" font-family="Helvetica,sans-Serif" font-size="10.00">src/app/seamly2d/dialogs</text>
<text text-anchor="middle" x="2541.5" y="-7.5" font-family="Helvetica,sans-Serif" font-size="10.00">/export_layout_dialog.cpp</text>
</a>
</g>
</g>
<!-- Node1&#45;&gt;Node15 -->
<g id="edge14" class="edge">
<title>Node1&#45;&gt;Node15</title>
<path fill="none" stroke="midnightblue" d="M2289.08,-66.83C2343.62,-55.95 2417.51,-41.22 2471.25,-30.51"/>
<polygon fill="midnightblue" stroke="midnightblue" points="2288.25,-63.43 2279.13,-68.81 2289.62,-70.29 2288.25,-63.43"/>
</g>
<!-- Node16 -->
<g id="node16" class="node">
<title>Node16</title>
<g id="a_node16"><a xlink:href="../../db/d5c/groups__widget_8cpp.html" target="_top" xlink:title=" ">
<polygon fill="white" stroke="black" points="2631,-0.5 2631,-30.5 2772,-30.5 2772,-0.5 2631,-0.5"/>
<text text-anchor="start" x="2639" y="-18.5" font-family="Helvetica,sans-Serif" font-size="10.00">src/app/seamly2d/dialogs</text>
<text text-anchor="middle" x="2701.5" y="-7.5" font-family="Helvetica,sans-Serif" font-size="10.00">/groups_widget.cpp</text>
</a>
</g>
</g>
<!-- Node1&#45;&gt;Node16 -->
<g id="edge15" class="edge">
<title>Node1&#45;&gt;Node16</title>
<path fill="none" stroke="midnightblue" d="M2289.28,-73.65C2370.96,-64.65 2506.42,-48.84 2622.5,-31 2625.26,-30.58 2628.06,-30.13 2630.9,-29.67"/>
<polygon fill="midnightblue" stroke="midnightblue" points="2288.66,-70.2 2279.11,-74.77 2289.43,-77.15 2288.66,-70.2"/>
</g>
<!-- Node17 -->
<g id="node17" class="node">
<title>Node17</title>
<g id="a_node17"><a xlink:href="../../d0/dfa/layoutsettings__dialog_8cpp.html" target="_top" xlink:title=" ">
<polygon fill="white" stroke="black" points="2790,-0.5 2790,-30.5 2935,-30.5 2935,-0.5 2790,-0.5"/>
<text text-anchor="start" x="2798" y="-18.5" font-family="Helvetica,sans-Serif" font-size="10.00">src/app/seamly2d/dialogs</text>
<text text-anchor="middle" x="2862.5" y="-7.5" font-family="Helvetica,sans-Serif" font-size="10.00">/layoutsettings_dialog.cpp</text>
</a>
</g>
</g>
<!-- Node1&#45;&gt;Node17 -->
<g id="edge16" class="edge">
<title>Node1&#45;&gt;Node17</title>
<path fill="none" stroke="midnightblue" d="M2289.53,-76.98C2397.86,-69.9 2605.78,-54.52 2781.5,-31 2784.19,-30.64 2786.93,-30.25 2789.69,-29.85"/>
<polygon fill="midnightblue" stroke="midnightblue" points="2289.12,-73.5 2279.36,-77.64 2289.57,-80.49 2289.12,-73.5"/>
</g>
<!-- Node18 -->
<g id="node18" class="node">
<title>Node18</title>
<g id="a_node18"><a xlink:href="../../dd/d84/shortcuts__dialog_8cpp.html" target="_top" xlink:title=" ">
<polygon fill="white" stroke="black" points="2953,-0.5 2953,-30.5 3094,-30.5 3094,-0.5 2953,-0.5"/>
<text text-anchor="start" x="2961" y="-18.5" font-family="Helvetica,sans-Serif" font-size="10.00">src/app/seamly2d/dialogs</text>
<text text-anchor="middle" x="3023.5" y="-7.5" font-family="Helvetica,sans-Serif" font-size="10.00">/shortcuts_dialog.cpp</text>
</a>
</g>
</g>
<!-- Node1&#45;&gt;Node18 -->
<g id="edge17" class="edge">
<title>Node1&#45;&gt;Node18</title>
<path fill="none" stroke="midnightblue" d="M2289.5,-79.12C2421.51,-74.27 2706.14,-61.03 2944.5,-31 2947.27,-30.65 2950.08,-30.27 2952.93,-29.86"/>
<polygon fill="midnightblue" stroke="midnightblue" points="2288.98,-75.64 2279.12,-79.5 2289.24,-82.63 2288.98,-75.64"/>
</g>
<!-- Node19 -->
<g id="node19" class="node">
<title>Node19</title>
<g id="a_node19"><a xlink:href="../../df/d69/welcome__dialog_8cpp.html" target="_top" xlink:title=" ">
<polygon fill="white" stroke="black" points="3112,-0.5 3112,-30.5 3253,-30.5 3253,-0.5 3112,-0.5"/>
<text text-anchor="start" x="3120" y="-18.5" font-family="Helvetica,sans-Serif" font-size="10.00">src/app/seamly2d/dialogs</text>
<text text-anchor="middle" x="3182.5" y="-7.5" font-family="Helvetica,sans-Serif" font-size="10.00">/welcome_dialog.cpp</text>
</a>
</g>
</g>
<!-- Node1&#45;&gt;Node19 -->
<g id="edge18" class="edge">
<title>Node1&#45;&gt;Node19</title>
<path fill="none" stroke="midnightblue" d="M2289.46,-80.41C2442.12,-77.47 2803,-66.98 3103.5,-31 3106.27,-30.67 3109.09,-30.3 3111.93,-29.9"/>
<polygon fill="midnightblue" stroke="midnightblue" points="2289.2,-76.91 2279.27,-80.6 2289.33,-83.91 2289.2,-76.91"/>
</g>
<!-- Node20 -->
<g id="node20" class="node">
<title>Node20</title>
<g id="a_node20"><a xlink:href="../../dc/d14/app_2seamly2d_2main_8cpp.html" target="_top" xlink:title=" ">
<polygon fill="white" stroke="black" points="3271,-6 3271,-25 3422,-25 3422,-6 3271,-6"/>
<text text-anchor="middle" x="3346.5" y="-13" font-family="Helvetica,sans-Serif" font-size="10.00">src/app/seamly2d/main.cpp</text>
</a>
</g>
</g>
<!-- Node1&#45;&gt;Node20 -->
<g id="edge19" class="edge">
<title>Node1&#45;&gt;Node20</title>
<path fill="none" stroke="midnightblue" d="M2289.32,-81.05C2460.74,-79.32 2898.88,-71 3262.5,-31 3275.74,-29.54 3290.05,-27.32 3303.05,-25.05"/>
<polygon fill="midnightblue" stroke="midnightblue" points="2289.12,-77.55 2279.15,-81.15 2289.19,-84.55 2289.12,-77.55"/>
</g>
<!-- Node21 -->
<g id="node21" class="node">
<title>Node21</title>
<g id="a_node21"><a xlink:href="../../d8/de8/mainwindowsnogui_8cpp.html" target="_top" xlink:title=" ">
<polygon fill="white" stroke="black" points="3440,-6 3440,-25 3661,-25 3661,-6 3440,-6"/>
<text text-anchor="middle" x="3550.5" y="-13" font-family="Helvetica,sans-Serif" font-size="10.00">src/app/seamly2d/mainwindowsnogui.cpp</text>
</a>
</g>
</g>
<!-- Node1&#45;&gt;Node21 -->
<g id="edge20" class="edge">
<title>Node1&#45;&gt;Node21</title>
<path fill="none" stroke="midnightblue" d="M2289.37,-80.48C2479.21,-77.42 2999.57,-66.23 3431.5,-31 3450.07,-29.49 3470.19,-27.26 3488.52,-25"/>
<polygon fill="midnightblue" stroke="midnightblue" points="2289.17,-76.99 2279.23,-80.64 2289.28,-83.98 2289.17,-76.99"/>
</g>
<!-- Node22 -->
<g id="node22" class="node">
<title>Node22</title>
<g id="a_node22"><a xlink:href="../../d2/df4/show__info__dialog_8cpp.html" target="_top" xlink:title=" ">
<polygon fill="white" stroke="black" points="3679,-0.5 3679,-30.5 3820,-30.5 3820,-0.5 3679,-0.5"/>
<text text-anchor="start" x="3687" y="-18.5" font-family="Helvetica,sans-Serif" font-size="10.00">src/app/seamly2d/dialogs</text>
<text text-anchor="middle" x="3749.5" y="-7.5" font-family="Helvetica,sans-Serif" font-size="10.00">/show_info_dialog.cpp</text>
</a>
</g>
</g>
<!-- Node1&#45;&gt;Node22 -->
<g id="edge21" class="edge">
<title>Node1&#45;&gt;Node22</title>
<path fill="none" stroke="midnightblue" d="M2289.74,-80.37C2546.9,-76.21 3398.64,-60.51 3670.5,-31 3673.27,-30.7 3676.09,-30.36 3678.94,-29.98"/>
<polygon fill="midnightblue" stroke="midnightblue" points="2289.34,-76.87 2279.4,-80.53 2289.45,-83.87 2289.34,-76.87"/>
</g>
<!-- Node23 -->
<g id="node23" class="node">
<title>Node23</title>
<g id="a_node23"><a xlink:href="../../d3/d49/vpattern_8cpp.html" target="_top" xlink:title=" ">
<polygon fill="white" stroke="black" points="3838,-0.5 3838,-30.5 3963,-30.5 3963,-0.5 3838,-0.5"/>
<text text-anchor="start" x="3846" y="-18.5" font-family="Helvetica,sans-Serif" font-size="10.00">src/app/seamly2d/xml</text>
<text text-anchor="middle" x="3900.5" y="-7.5" font-family="Helvetica,sans-Serif" font-size="10.00">/vpattern.cpp</text>
</a>
</g>
</g>
<!-- Node1&#45;&gt;Node23 -->
<g id="edge22" class="edge">
<title>Node1&#45;&gt;Node23</title>
<path fill="none" stroke="midnightblue" d="M2289.43,-80.86C2564.03,-78.21 3525.2,-66.57 3829.5,-31 3832.25,-30.68 3835.05,-30.31 3837.87,-29.89"/>
<polygon fill="midnightblue" stroke="midnightblue" points="2289.14,-77.36 2279.18,-80.96 2289.21,-84.36 2289.14,-77.36"/>
</g>
<!-- Node24 -->
<g id="node24" class="node">
<title>Node24</title>
<g id="a_node24"><a xlink:href="../../d8/dd9/mainwindow_8cpp.html" target="_top" xlink:title=" ">
<polygon fill="white" stroke="black" points="3981.5,-6 3981.5,-25 4169.5,-25 4169.5,-6 3981.5,-6"/>
<text text-anchor="middle" x="4075.5" y="-13" font-family="Helvetica,sans-Serif" font-size="10.00">src/app/seamly2d/mainwindow.cpp</text>
</a>
</g>
</g>
<!-- Node1&#45;&gt;Node24 -->
<g id="edge23" class="edge">
<title>Node1&#45;&gt;Node24</title>
<path fill="none" stroke="midnightblue" d="M2289.51,-80.47C2579.35,-76.27 3637.78,-59.28 3972.5,-31 3989.05,-29.6 4007.01,-27.34 4023.23,-25.01"/>
<polygon fill="midnightblue" stroke="midnightblue" points="2289.07,-76.98 2279.12,-80.62 2289.17,-83.98 2289.07,-76.98"/>
</g>
</g>
</svg>
