<?xml version="1.0" encoding="UTF-8" standalone="no"?>
<!DOCTYPE svg PUBLIC "-//W3C//DTD SVG 1.1//EN"
 "http://www.w3.org/Graphics/SVG/1.1/DTD/svg11.dtd">
<!-- Generated by graphviz version 2.43.0 (0)
 -->
<!-- Title: src/libs/vpatterndb/vpiece_p.h Pages: 1 -->
<svg width="1885pt" height="375pt"
 viewBox="0.00 0.00 1884.98 375.00" xmlns="http://www.w3.org/2000/svg" xmlns:xlink="http://www.w3.org/1999/xlink">
<g id="graph0" class="graph" transform="scale(1 1) rotate(0) translate(4 371)">
<title>src/libs/vpatterndb/vpiece_p.h</title>
<polygon fill="white" stroke="transparent" points="-4,4 -4,-371 1880.98,-371 1880.98,4 -4,4"/>
<!-- Node1 -->
<g id="node1" class="node">
<title>Node1</title>
<g id="a_node1"><a xlink:title=" ">
<polygon fill="#bfbfbf" stroke="black" points="866,-336.5 866,-366.5 973,-366.5 973,-336.5 866,-336.5"/>
<text text-anchor="start" x="874" y="-354.5" font-family="Helvetica,sans-Serif" font-size="10.00">src/libs/vpatterndb</text>
<text text-anchor="middle" x="919.5" y="-343.5" font-family="Helvetica,sans-Serif" font-size="10.00">/vpiece_p.h</text>
</a>
</g>
</g>
<!-- Node2 -->
<g id="node2" class="node">
<title>Node2</title>
<g id="a_node2"><a xlink:title=" ">
<polygon fill="white" stroke="#bfbfbf" points="369,-280.5 369,-299.5 450,-299.5 450,-280.5 369,-280.5"/>
<text text-anchor="middle" x="409.5" y="-287.5" font-family="Helvetica,sans-Serif" font-size="10.00">QSharedData</text>
</a>
</g>
</g>
<!-- Node1&#45;&gt;Node2 -->
<g id="edge1" class="edge">
<title>Node1&#45;&gt;Node2</title>
<path fill="none" stroke="midnightblue" d="M865.81,-345.45C780.58,-337.22 609.19,-319.85 464.5,-300 463.03,-299.8 461.54,-299.59 460.04,-299.37"/>
<polygon fill="midnightblue" stroke="midnightblue" points="460.42,-295.89 450.01,-297.87 459.39,-302.81 460.42,-295.89"/>
</g>
<!-- Node3 -->
<g id="node3" class="node">
<title>Node3</title>
<g id="a_node3"><a xlink:title=" ">
<polygon fill="white" stroke="#bfbfbf" points="1405,-112.5 1405,-131.5 1460,-131.5 1460,-112.5 1405,-112.5"/>
<text text-anchor="middle" x="1432.5" y="-119.5" font-family="Helvetica,sans-Serif" font-size="10.00">QVector</text>
</a>
</g>
</g>
<!-- Node1&#45;&gt;Node3 -->
<g id="edge2" class="edge">
<title>Node1&#45;&gt;Node3</title>
<path fill="none" stroke="midnightblue" d="M973.26,-342.16C1064.93,-325.8 1254.09,-282.52 1383.5,-188 1400.56,-175.54 1414.41,-155.46 1422.97,-140.92"/>
<polygon fill="midnightblue" stroke="midnightblue" points="1426.2,-142.33 1428.04,-131.89 1420.09,-138.9 1426.2,-142.33"/>
</g>
<!-- Node4 -->
<g id="node4" class="node">
<title>Node4</title>
<g id="a_node4"><a xlink:href="../../d6/dcd/diagnostic_8h.html" target="_top" xlink:title=" ">
<polygon fill="white" stroke="black" points="659,-112.5 659,-131.5 776,-131.5 776,-112.5 659,-112.5"/>
<text text-anchor="middle" x="717.5" y="-119.5" font-family="Helvetica,sans-Serif" font-size="10.00">../vmisc/diagnostic.h</text>
</a>
</g>
</g>
<!-- Node1&#45;&gt;Node4 -->
<g id="edge3" class="edge">
<title>Node1&#45;&gt;Node4</title>
<path fill="none" stroke="midnightblue" d="M901.8,-336.43C889.93,-326.69 874.22,-313.15 861.5,-300 808.36,-245.06 753.52,-172.38 729.73,-139.92"/>
<polygon fill="midnightblue" stroke="midnightblue" points="732.34,-137.56 723.63,-131.54 726.68,-141.68 732.34,-137.56"/>
</g>
<!-- Node6 -->
<g id="node6" class="node">
<title>Node6</title>
<g id="a_node6"><a xlink:href="../../d4/da4/def_8h.html" target="_top" xlink:title=" ">
<polygon fill="white" stroke="black" points="406.5,-112.5 406.5,-131.5 488.5,-131.5 488.5,-112.5 406.5,-112.5"/>
<text text-anchor="middle" x="447.5" y="-119.5" font-family="Helvetica,sans-Serif" font-size="10.00">../vmisc/def.h</text>
</a>
</g>
</g>
<!-- Node1&#45;&gt;Node6 -->
<g id="edge5" class="edge">
<title>Node1&#45;&gt;Node6</title>
<path fill="none" stroke="midnightblue" d="M865.69,-338.63C782.03,-318.29 618.38,-270.74 502.5,-188 484.34,-175.03 468.48,-154.76 458.51,-140.31"/>
<polygon fill="midnightblue" stroke="midnightblue" points="461.3,-138.18 452.85,-131.78 455.47,-142.05 461.3,-138.18"/>
</g>
<!-- Node18 -->
<g id="node18" class="node">
<title>Node18</title>
<g id="a_node18"><a xlink:href="../../d1/da0/vpiecenode_8h.html" target="_top" xlink:title=" ">
<polygon fill="white" stroke="black" points="870.5,-168.5 870.5,-187.5 952.5,-187.5 952.5,-168.5 870.5,-168.5"/>
<text text-anchor="middle" x="911.5" y="-175.5" font-family="Helvetica,sans-Serif" font-size="10.00">vpiecenode.h</text>
</a>
</g>
</g>
<!-- Node1&#45;&gt;Node18 -->
<g id="edge18" class="edge">
<title>Node1&#45;&gt;Node18</title>
<path fill="none" stroke="midnightblue" d="M899.66,-336.33C888.82,-327.31 876.42,-314.6 870.5,-300 855.71,-263.53 881.12,-219.48 898.11,-195.88"/>
<polygon fill="midnightblue" stroke="midnightblue" points="901.1,-197.73 904.32,-187.63 895.51,-193.52 901.1,-197.73"/>
</g>
<!-- Node21 -->
<g id="node21" class="node">
<title>Node21</title>
<g id="a_node21"><a xlink:href="../../da/d03/vpiecepath_8h.html" target="_top" xlink:title=" ">
<polygon fill="white" stroke="black" points="879.5,-280.5 879.5,-299.5 959.5,-299.5 959.5,-280.5 879.5,-280.5"/>
<text text-anchor="middle" x="919.5" y="-287.5" font-family="Helvetica,sans-Serif" font-size="10.00">vpiecepath.h</text>
</a>
</g>
</g>
<!-- Node1&#45;&gt;Node21 -->
<g id="edge23" class="edge">
<title>Node1&#45;&gt;Node21</title>
<path fill="none" stroke="midnightblue" d="M919.5,-336.4C919.5,-328.47 919.5,-318.46 919.5,-309.86"/>
<polygon fill="midnightblue" stroke="midnightblue" points="923,-309.66 919.5,-299.66 916,-309.66 923,-309.66"/>
</g>
<!-- Node30 -->
<g id="node30" class="node">
<title>Node30</title>
<g id="a_node30"><a xlink:href="../../d8/dbc/vpiecelabeldata_8h.html" target="_top" xlink:title=" ">
<polygon fill="white" stroke="black" points="1695.5,-280.5 1695.5,-299.5 1869.5,-299.5 1869.5,-280.5 1695.5,-280.5"/>
<text text-anchor="middle" x="1782.5" y="-287.5" font-family="Helvetica,sans-Serif" font-size="10.00">floatItemData/vpiecelabeldata.h</text>
</a>
</g>
</g>
<!-- Node1&#45;&gt;Node30 -->
<g id="edge51" class="edge">
<title>Node1&#45;&gt;Node30</title>
<path fill="none" stroke="midnightblue" d="M973.16,-346.8C1115.29,-337 1503.04,-310.27 1685.34,-297.7"/>
<polygon fill="midnightblue" stroke="midnightblue" points="1685.72,-301.18 1695.45,-297 1685.24,-294.2 1685.72,-301.18"/>
</g>
<!-- Node31 -->
<g id="node31" class="node">
<title>Node31</title>
<g id="a_node31"><a xlink:href="../../de/d1f/vpatternlabeldata_8h.html" target="_top" xlink:title=" ">
<polygon fill="white" stroke="black" points="1496,-224.5 1496,-243.5 1609,-243.5 1609,-224.5 1496,-224.5"/>
<text text-anchor="middle" x="1552.5" y="-231.5" font-family="Helvetica,sans-Serif" font-size="10.00">vpatternlabeldata.h</text>
</a>
</g>
</g>
<!-- Node1&#45;&gt;Node31 -->
<g id="edge61" class="edge">
<title>Node1&#45;&gt;Node31</title>
<path fill="none" stroke="midnightblue" d="M973.36,-348.74C1090.86,-344.36 1366.76,-331.02 1454.5,-300 1485.74,-288.95 1516.76,-265.79 1535.28,-250.31"/>
<polygon fill="midnightblue" stroke="midnightblue" points="1537.78,-252.78 1543.09,-243.61 1533.22,-247.47 1537.78,-252.78"/>
</g>
<!-- Node35 -->
<g id="node35" class="node">
<title>Node35</title>
<g id="a_node35"><a xlink:href="../../d3/d4a/vgrainlinedata_8h.html" target="_top" xlink:title=" ">
<polygon fill="white" stroke="black" points="1627,-224.5 1627,-243.5 1794,-243.5 1794,-224.5 1627,-224.5"/>
<text text-anchor="middle" x="1710.5" y="-231.5" font-family="Helvetica,sans-Serif" font-size="10.00">floatItemData/vgrainlinedata.h</text>
</a>
</g>
</g>
<!-- Node1&#45;&gt;Node35 -->
<g id="edge62" class="edge">
<title>Node1&#45;&gt;Node35</title>
<path fill="none" stroke="midnightblue" d="M973.13,-349.18C1074.32,-345.92 1300.01,-335.02 1486.5,-300 1555.54,-287.03 1633.88,-261.79 1677.21,-246.86"/>
<polygon fill="midnightblue" stroke="midnightblue" points="1678.38,-250.16 1686.67,-243.57 1676.08,-243.55 1678.38,-250.16"/>
</g>
<!-- Node5 -->
<g id="node5" class="node">
<title>Node5</title>
<g id="a_node5"><a xlink:title=" ">
<polygon fill="white" stroke="#bfbfbf" points="757,-56.5 757,-75.5 816,-75.5 816,-56.5 757,-56.5"/>
<text text-anchor="middle" x="786.5" y="-63.5" font-family="Helvetica,sans-Serif" font-size="10.00">QtGlobal</text>
</a>
</g>
</g>
<!-- Node4&#45;&gt;Node5 -->
<g id="edge4" class="edge">
<title>Node4&#45;&gt;Node5</title>
<path fill="none" stroke="midnightblue" d="M728.59,-112.32C738.99,-104.18 754.76,-91.84 767.22,-82.09"/>
<polygon fill="midnightblue" stroke="midnightblue" points="769.49,-84.75 775.21,-75.83 765.18,-79.24 769.49,-84.75"/>
</g>
<!-- Node6&#45;&gt;Node5 -->
<g id="edge12" class="edge">
<title>Node6&#45;&gt;Node5</title>
<path fill="none" stroke="midnightblue" d="M488.92,-115.83C545.03,-108.59 648.5,-94.44 746.65,-76.03"/>
<polygon fill="midnightblue" stroke="midnightblue" points="747.57,-79.42 756.74,-74.12 746.26,-72.54 747.57,-79.42"/>
</g>
<!-- Node7 -->
<g id="node7" class="node">
<title>Node7</title>
<g id="a_node7"><a xlink:title=" ">
<polygon fill="white" stroke="#bfbfbf" points="530.5,-56.5 530.5,-75.5 650.5,-75.5 650.5,-56.5 530.5,-56.5"/>
<text text-anchor="middle" x="590.5" y="-63.5" font-family="Helvetica,sans-Serif" font-size="10.00">qcompilerdetection.h</text>
</a>
</g>
</g>
<!-- Node6&#45;&gt;Node7 -->
<g id="edge6" class="edge">
<title>Node6&#45;&gt;Node7</title>
<path fill="none" stroke="midnightblue" d="M470.16,-112.44C493.9,-103.48 531.41,-89.31 558.24,-79.18"/>
<polygon fill="midnightblue" stroke="midnightblue" points="559.83,-82.32 567.95,-75.52 557.36,-75.77 559.83,-82.32"/>
</g>
<!-- Node8 -->
<g id="node8" class="node">
<title>Node8</title>
<g id="a_node8"><a xlink:title=" ">
<polygon fill="white" stroke="#bfbfbf" points="371,-56.5 371,-75.5 444,-75.5 444,-56.5 371,-56.5"/>
<text text-anchor="middle" x="407.5" y="-63.5" font-family="Helvetica,sans-Serif" font-size="10.00">QFileDialog</text>
</a>
</g>
</g>
<!-- Node6&#45;&gt;Node8 -->
<g id="edge7" class="edge">
<title>Node6&#45;&gt;Node8</title>
<path fill="none" stroke="midnightblue" d="M440.89,-112.08C435.24,-104.46 426.96,-93.26 420.05,-83.94"/>
<polygon fill="midnightblue" stroke="midnightblue" points="422.75,-81.7 413.98,-75.75 417.12,-85.87 422.75,-81.7"/>
</g>
<!-- Node9 -->
<g id="node9" class="node">
<title>Node9</title>
<g id="a_node9"><a xlink:title=" ">
<polygon fill="white" stroke="#bfbfbf" points="462.5,-56.5 462.5,-75.5 512.5,-75.5 512.5,-56.5 462.5,-56.5"/>
<text text-anchor="middle" x="487.5" y="-63.5" font-family="Helvetica,sans-Serif" font-size="10.00">QLineF</text>
</a>
</g>
</g>
<!-- Node6&#45;&gt;Node9 -->
<g id="edge8" class="edge">
<title>Node6&#45;&gt;Node9</title>
<path fill="none" stroke="midnightblue" d="M454.11,-112.08C459.76,-104.46 468.04,-93.26 474.95,-83.94"/>
<polygon fill="midnightblue" stroke="midnightblue" points="477.88,-85.87 481.02,-75.75 472.25,-81.7 477.88,-85.87"/>
</g>
<!-- Node10 -->
<g id="node10" class="node">
<title>Node10</title>
<g id="a_node10"><a xlink:title=" ">
<polygon fill="white" stroke="#bfbfbf" points="1533,-56.5 1533,-75.5 1586,-75.5 1586,-56.5 1533,-56.5"/>
<text text-anchor="middle" x="1559.5" y="-63.5" font-family="Helvetica,sans-Serif" font-size="10.00">QString</text>
</a>
</g>
</g>
<!-- Node6&#45;&gt;Node10 -->
<g id="edge9" class="edge">
<title>Node6&#45;&gt;Node10</title>
<path fill="none" stroke="midnightblue" d="M488.73,-119C665.16,-110.43 1355.24,-76.92 1522.73,-68.79"/>
<polygon fill="midnightblue" stroke="midnightblue" points="1522.95,-72.28 1532.77,-68.3 1522.61,-65.29 1522.95,-72.28"/>
</g>
<!-- Node11 -->
<g id="node11" class="node">
<title>Node11</title>
<g id="a_node11"><a xlink:title=" ">
<polygon fill="white" stroke="#bfbfbf" points="668.5,-56.5 668.5,-75.5 738.5,-75.5 738.5,-56.5 668.5,-56.5"/>
<text text-anchor="middle" x="703.5" y="-63.5" font-family="Helvetica,sans-Serif" font-size="10.00">QStringList</text>
</a>
</g>
</g>
<!-- Node6&#45;&gt;Node11 -->
<g id="edge10" class="edge">
<title>Node6&#45;&gt;Node11</title>
<path fill="none" stroke="midnightblue" d="M488.06,-112.44C534.53,-102.64 610.43,-86.63 658.63,-76.46"/>
<polygon fill="midnightblue" stroke="midnightblue" points="659.41,-79.88 668.47,-74.39 657.97,-73.03 659.41,-79.88"/>
</g>
<!-- Node12 -->
<g id="node12" class="node">
<title>Node12</title>
<g id="a_node12"><a xlink:title=" ">
<polygon fill="white" stroke="#bfbfbf" points="0,-56.5 0,-75.5 29,-75.5 29,-56.5 0,-56.5"/>
<text text-anchor="middle" x="14.5" y="-63.5" font-family="Helvetica,sans-Serif" font-size="10.00">Qt</text>
</a>
</g>
</g>
<!-- Node6&#45;&gt;Node12 -->
<g id="edge11" class="edge">
<title>Node6&#45;&gt;Node12</title>
<path fill="none" stroke="midnightblue" d="M406.29,-119.85C333.61,-117.09 178.04,-107.94 39.02,-75.49"/>
<polygon fill="midnightblue" stroke="midnightblue" points="39.58,-72.02 29.04,-73.11 37.96,-78.83 39.58,-72.02"/>
</g>
<!-- Node13 -->
<g id="node13" class="node">
<title>Node13</title>
<g id="a_node13"><a xlink:title=" ">
<polygon fill="white" stroke="#bfbfbf" points="47.5,-56.5 47.5,-75.5 103.5,-75.5 103.5,-56.5 47.5,-56.5"/>
<text text-anchor="middle" x="75.5" y="-63.5" font-family="Helvetica,sans-Serif" font-size="10.00">QPrinter</text>
</a>
</g>
</g>
<!-- Node6&#45;&gt;Node13 -->
<g id="edge13" class="edge">
<title>Node6&#45;&gt;Node13</title>
<path fill="none" stroke="midnightblue" d="M406.28,-116.87C344.7,-110.4 224.89,-96.62 113.75,-76.07"/>
<polygon fill="midnightblue" stroke="midnightblue" points="114.19,-72.59 103.72,-74.19 112.9,-79.47 114.19,-72.59"/>
</g>
<!-- Node14 -->
<g id="node14" class="node">
<title>Node14</title>
<g id="a_node14"><a xlink:title=" ">
<polygon fill="white" stroke="#bfbfbf" points="122,-56.5 122,-75.5 183,-75.5 183,-56.5 122,-56.5"/>
<text text-anchor="middle" x="152.5" y="-63.5" font-family="Helvetica,sans-Serif" font-size="10.00">QPixmap</text>
</a>
</g>
</g>
<!-- Node6&#45;&gt;Node14 -->
<g id="edge14" class="edge">
<title>Node6&#45;&gt;Node14</title>
<path fill="none" stroke="midnightblue" d="M406.14,-114.42C357.4,-106.51 273.76,-92.47 192.96,-76.22"/>
<polygon fill="midnightblue" stroke="midnightblue" points="193.62,-72.78 183.12,-74.23 192.23,-79.64 193.62,-72.78"/>
</g>
<!-- Node15 -->
<g id="node15" class="node">
<title>Node15</title>
<g id="a_node15"><a xlink:title=" ">
<polygon fill="white" stroke="#bfbfbf" points="201,-56.5 201,-75.5 252,-75.5 252,-56.5 201,-56.5"/>
<text text-anchor="middle" x="226.5" y="-63.5" font-family="Helvetica,sans-Serif" font-size="10.00">csignal</text>
</a>
</g>
</g>
<!-- Node6&#45;&gt;Node15 -->
<g id="edge15" class="edge">
<title>Node6&#45;&gt;Node15</title>
<path fill="none" stroke="midnightblue" d="M410.89,-112.45C375.21,-104.06 319.18,-90.73 262.03,-76.35"/>
<polygon fill="midnightblue" stroke="midnightblue" points="262.66,-72.9 252.1,-73.84 260.94,-79.68 262.66,-72.9"/>
</g>
<!-- Node16 -->
<g id="node16" class="node">
<title>Node16</title>
<g id="a_node16"><a xlink:href="../../d4/d82/debugbreak_8h.html" target="_top" xlink:title=" ">
<polygon fill="white" stroke="black" points="270,-56.5 270,-75.5 353,-75.5 353,-56.5 270,-56.5"/>
<text text-anchor="middle" x="311.5" y="-63.5" font-family="Helvetica,sans-Serif" font-size="10.00">debugbreak.h</text>
</a>
</g>
</g>
<!-- Node6&#45;&gt;Node16 -->
<g id="edge16" class="edge">
<title>Node6&#45;&gt;Node16</title>
<path fill="none" stroke="midnightblue" d="M425.95,-112.44C403.47,-103.52 368.01,-89.44 342.52,-79.32"/>
<polygon fill="midnightblue" stroke="midnightblue" points="343.53,-75.95 332.95,-75.52 340.95,-82.46 343.53,-75.95"/>
</g>
<!-- Node17 -->
<g id="node17" class="node">
<title>Node17</title>
<g id="a_node17"><a xlink:title=" ">
<polygon fill="white" stroke="#bfbfbf" points="284,-0.5 284,-19.5 339,-19.5 339,-0.5 284,-0.5"/>
<text text-anchor="middle" x="311.5" y="-7.5" font-family="Helvetica,sans-Serif" font-size="10.00">signal.h</text>
</a>
</g>
</g>
<!-- Node16&#45;&gt;Node17 -->
<g id="edge17" class="edge">
<title>Node16&#45;&gt;Node17</title>
<path fill="none" stroke="midnightblue" d="M311.5,-56.08C311.5,-49.01 311.5,-38.86 311.5,-29.99"/>
<polygon fill="midnightblue" stroke="midnightblue" points="315,-29.75 311.5,-19.75 308,-29.75 315,-29.75"/>
</g>
<!-- Node18&#45;&gt;Node5 -->
<g id="edge19" class="edge">
<title>Node18&#45;&gt;Node5</title>
<path fill="none" stroke="midnightblue" d="M905.44,-168.29C895.99,-155.11 876.73,-129.74 856.5,-112 842.82,-100 825.66,-88.92 811.75,-80.75"/>
<polygon fill="midnightblue" stroke="midnightblue" points="813.15,-77.52 802.73,-75.59 809.67,-83.6 813.15,-77.52"/>
</g>
<!-- Node18&#45;&gt;Node6 -->
<g id="edge22" class="edge">
<title>Node18&#45;&gt;Node6</title>
<path fill="none" stroke="midnightblue" d="M870.32,-172.21C785.45,-162.33 591.27,-139.73 498.57,-128.94"/>
<polygon fill="midnightblue" stroke="midnightblue" points="498.92,-125.46 488.58,-127.78 498.11,-132.41 498.92,-125.46"/>
</g>
<!-- Node19 -->
<g id="node19" class="node">
<title>Node19</title>
<g id="a_node19"><a xlink:title=" ">
<polygon fill="white" stroke="#bfbfbf" points="998.5,-112.5 998.5,-131.5 1114.5,-131.5 1114.5,-112.5 998.5,-112.5"/>
<text text-anchor="middle" x="1056.5" y="-119.5" font-family="Helvetica,sans-Serif" font-size="10.00">QSharedDataPointer</text>
</a>
</g>
</g>
<!-- Node18&#45;&gt;Node19 -->
<g id="edge20" class="edge">
<title>Node18&#45;&gt;Node19</title>
<path fill="none" stroke="midnightblue" d="M934.48,-168.44C958.66,-159.44 996.92,-145.19 1024.15,-135.05"/>
<polygon fill="midnightblue" stroke="midnightblue" points="1025.48,-138.29 1033.63,-131.52 1023.04,-131.73 1025.48,-138.29"/>
</g>
<!-- Node20 -->
<g id="node20" class="node">
<title>Node20</title>
<g id="a_node20"><a xlink:title=" ">
<polygon fill="white" stroke="#bfbfbf" points="909,-112.5 909,-131.5 980,-131.5 980,-112.5 909,-112.5"/>
<text text-anchor="middle" x="944.5" y="-119.5" font-family="Helvetica,sans-Serif" font-size="10.00">QMetaType</text>
</a>
</g>
</g>
<!-- Node18&#45;&gt;Node20 -->
<g id="edge21" class="edge">
<title>Node18&#45;&gt;Node20</title>
<path fill="none" stroke="midnightblue" d="M916.95,-168.08C921.51,-160.61 928.17,-149.72 933.79,-140.52"/>
<polygon fill="midnightblue" stroke="midnightblue" points="936.92,-142.11 939.15,-131.75 930.95,-138.46 936.92,-142.11"/>
</g>
<!-- Node21&#45;&gt;Node5 -->
<g id="edge24" class="edge">
<title>Node21&#45;&gt;Node5</title>
<path fill="none" stroke="midnightblue" d="M886.5,-280.48C810.65,-260.57 629.11,-210.95 612.5,-188 594.88,-163.65 626.64,-123.75 640.5,-112 648.82,-104.95 706.77,-88.37 747.11,-77.42"/>
<polygon fill="midnightblue" stroke="midnightblue" points="748.2,-80.75 756.94,-74.77 746.38,-74 748.2,-80.75"/>
</g>
<!-- Node21&#45;&gt;Node6 -->
<g id="edge26" class="edge">
<title>Node21&#45;&gt;Node6</title>
<path fill="none" stroke="midnightblue" d="M879.47,-283.06C808.56,-271.53 657.36,-242.33 540.5,-188 512.1,-174.8 483.11,-152.92 465.21,-138.24"/>
<polygon fill="midnightblue" stroke="midnightblue" points="467.28,-135.41 457.37,-131.68 462.79,-140.78 467.28,-135.41"/>
</g>
<!-- Node21&#45;&gt;Node19 -->
<g id="edge25" class="edge">
<title>Node21&#45;&gt;Node19</title>
<path fill="none" stroke="midnightblue" d="M926.87,-280.08C948.9,-253.38 1014.52,-173.87 1043.03,-139.32"/>
<polygon fill="midnightblue" stroke="midnightblue" points="1045.76,-141.51 1049.43,-131.57 1040.36,-137.05 1045.76,-141.51"/>
</g>
<!-- Node22 -->
<g id="node22" class="node">
<title>Node22</title>
<g id="a_node22"><a xlink:href="../../d5/d82/vabstractcurve_8h.html" target="_top" xlink:title=" ">
<polygon fill="white" stroke="black" points="1047.5,-224.5 1047.5,-243.5 1211.5,-243.5 1211.5,-224.5 1047.5,-224.5"/>
<text text-anchor="middle" x="1129.5" y="-231.5" font-family="Helvetica,sans-Serif" font-size="10.00">../vgeometry/vabstractcurve.h</text>
</a>
</g>
</g>
<!-- Node21&#45;&gt;Node22 -->
<g id="edge27" class="edge">
<title>Node21&#45;&gt;Node22</title>
<path fill="none" stroke="midnightblue" d="M952.78,-280.44C988.95,-271.14 1046.88,-256.25 1086.48,-246.06"/>
<polygon fill="midnightblue" stroke="midnightblue" points="1087.57,-249.4 1096.38,-243.52 1085.82,-242.62 1087.57,-249.4"/>
</g>
<!-- Node22&#45;&gt;Node3 -->
<g id="edge33" class="edge">
<title>Node22&#45;&gt;Node3</title>
<path fill="none" stroke="midnightblue" d="M1149.83,-224.48C1170.38,-215.75 1202.94,-201.56 1230.5,-188 1247.27,-179.75 1250.15,-174.95 1267.5,-168 1290.5,-158.79 1353.61,-142.47 1394.78,-132.22"/>
<polygon fill="midnightblue" stroke="midnightblue" points="1395.87,-135.55 1404.74,-129.75 1394.19,-128.76 1395.87,-135.55"/>
</g>
<!-- Node22&#45;&gt;Node5 -->
<g id="edge34" class="edge">
<title>Node22&#45;&gt;Node5</title>
<path fill="none" stroke="midnightblue" d="M1047.49,-226.65C980.17,-220.1 891.27,-207.98 861.5,-188 824.35,-163.06 802.23,-112.87 792.47,-85.63"/>
<polygon fill="midnightblue" stroke="midnightblue" points="795.66,-84.14 789.13,-75.8 789.03,-86.39 795.66,-84.14"/>
</g>
<!-- Node22&#45;&gt;Node7 -->
<g id="edge28" class="edge">
<title>Node22&#45;&gt;Node7</title>
<path fill="none" stroke="midnightblue" d="M1047.44,-231.24C909.71,-227.49 643.91,-216.61 612.5,-188 584.05,-162.08 584.76,-112.67 587.67,-85.71"/>
<polygon fill="midnightblue" stroke="midnightblue" points="591.15,-86.02 588.97,-75.65 584.21,-85.12 591.15,-86.02"/>
</g>
<!-- Node22&#45;&gt;Node10 -->
<g id="edge31" class="edge">
<title>Node22&#45;&gt;Node10</title>
<path fill="none" stroke="midnightblue" d="M1211.61,-226.22C1262.37,-220.14 1328.18,-208.83 1383.5,-188 1399.55,-181.96 1400.8,-174.89 1416.5,-168 1469.05,-144.93 1499.88,-172.54 1540.5,-132 1552.58,-119.94 1557.07,-100.65 1558.69,-86.21"/>
<polygon fill="midnightblue" stroke="midnightblue" points="1562.21,-86.14 1559.47,-75.91 1555.23,-85.61 1562.21,-86.14"/>
</g>
<!-- Node22&#45;&gt;Node19 -->
<g id="edge30" class="edge">
<title>Node22&#45;&gt;Node19</title>
<path fill="none" stroke="midnightblue" d="M1123.22,-224.47C1116.66,-215.49 1106.15,-200.9 1097.5,-188 1086.74,-171.95 1075.03,-153.25 1066.89,-140.04"/>
<polygon fill="midnightblue" stroke="midnightblue" points="1069.87,-138.21 1061.66,-131.51 1063.9,-141.86 1069.87,-138.21"/>
</g>
<!-- Node23 -->
<g id="node23" class="node">
<title>Node23</title>
<g id="a_node23"><a xlink:title=" ">
<polygon fill="white" stroke="#bfbfbf" points="1612,-112.5 1612,-131.5 1667,-131.5 1667,-112.5 1612,-112.5"/>
<text text-anchor="middle" x="1639.5" y="-119.5" font-family="Helvetica,sans-Serif" font-size="10.00">QPointF</text>
</a>
</g>
</g>
<!-- Node22&#45;&gt;Node23 -->
<g id="edge29" class="edge">
<title>Node22&#45;&gt;Node23</title>
<path fill="none" stroke="midnightblue" d="M1200.15,-224.49C1258.54,-216.84 1343.4,-204.31 1416.5,-188 1483.87,-172.97 1560.84,-148.98 1604.46,-134.73"/>
<polygon fill="midnightblue" stroke="midnightblue" points="1605.62,-138.03 1614.02,-131.59 1603.43,-131.38 1605.62,-138.03"/>
</g>
<!-- Node24 -->
<g id="node24" class="node">
<title>Node24</title>
<g id="a_node24"><a xlink:title=" ">
<polygon fill="white" stroke="#bfbfbf" points="1133,-112.5 1133,-131.5 1198,-131.5 1198,-112.5 1133,-112.5"/>
<text text-anchor="middle" x="1165.5" y="-119.5" font-family="Helvetica,sans-Serif" font-size="10.00">QTypeInfo</text>
</a>
</g>
</g>
<!-- Node22&#45;&gt;Node24 -->
<g id="edge32" class="edge">
<title>Node22&#45;&gt;Node24</title>
<path fill="none" stroke="midnightblue" d="M1121.85,-224.34C1111.62,-211.63 1095.82,-187.37 1105.5,-168 1112.23,-154.54 1125.11,-144.07 1137.21,-136.62"/>
<polygon fill="midnightblue" stroke="midnightblue" points="1139.23,-139.5 1146.2,-131.52 1135.78,-133.41 1139.23,-139.5"/>
</g>
<!-- Node25 -->
<g id="node25" class="node">
<title>Node25</title>
<g id="a_node25"><a xlink:href="../../d3/da5/ifcdef_8h.html" target="_top" xlink:title=" ">
<polygon fill="white" stroke="black" points="621,-168.5 621,-187.5 698,-187.5 698,-168.5 621,-168.5"/>
<text text-anchor="middle" x="659.5" y="-175.5" font-family="Helvetica,sans-Serif" font-size="10.00">../ifc/ifcdef.h</text>
</a>
</g>
</g>
<!-- Node22&#45;&gt;Node25 -->
<g id="edge35" class="edge">
<title>Node22&#45;&gt;Node25</title>
<path fill="none" stroke="midnightblue" d="M1055.29,-224.47C958.17,-213.32 790.66,-194.07 708.22,-184.6"/>
<polygon fill="midnightblue" stroke="midnightblue" points="708.45,-181.1 698.12,-183.44 707.66,-188.06 708.45,-181.1"/>
</g>
<!-- Node26 -->
<g id="node26" class="node">
<title>Node26</title>
<g id="a_node26"><a xlink:href="../../db/db3/vmath_8h.html" target="_top" xlink:title=" ">
<polygon fill="white" stroke="black" points="1276.5,-168.5 1276.5,-187.5 1374.5,-187.5 1374.5,-168.5 1276.5,-168.5"/>
<text text-anchor="middle" x="1325.5" y="-175.5" font-family="Helvetica,sans-Serif" font-size="10.00">../vmisc/vmath.h</text>
</a>
</g>
</g>
<!-- Node22&#45;&gt;Node26 -->
<g id="edge41" class="edge">
<title>Node22&#45;&gt;Node26</title>
<path fill="none" stroke="midnightblue" d="M1160.56,-224.44C1194.1,-215.2 1247.7,-200.44 1284.64,-190.26"/>
<polygon fill="midnightblue" stroke="midnightblue" points="1285.88,-193.55 1294.59,-187.52 1284.02,-186.8 1285.88,-193.55"/>
</g>
<!-- Node28 -->
<g id="node28" class="node">
<title>Node28</title>
<g id="a_node28"><a xlink:href="../../d5/d9d/vgeometrydef_8h.html" target="_top" xlink:title=" ">
<polygon fill="white" stroke="black" points="1292.5,-112.5 1292.5,-131.5 1386.5,-131.5 1386.5,-112.5 1292.5,-112.5"/>
<text text-anchor="middle" x="1339.5" y="-119.5" font-family="Helvetica,sans-Serif" font-size="10.00">vgeometrydef.h</text>
</a>
</g>
</g>
<!-- Node22&#45;&gt;Node28 -->
<g id="edge43" class="edge">
<title>Node22&#45;&gt;Node28</title>
<path fill="none" stroke="midnightblue" d="M1142.07,-224.36C1161.42,-211.26 1199.88,-186 1234.5,-168 1258.35,-155.6 1286.38,-143.71 1307.47,-135.28"/>
<polygon fill="midnightblue" stroke="midnightblue" points="1308.92,-138.47 1316.93,-131.54 1306.34,-131.96 1308.92,-138.47"/>
</g>
<!-- Node29 -->
<g id="node29" class="node">
<title>Node29</title>
<g id="a_node29"><a xlink:href="../../d2/d07/vgobject_8h.html" target="_top" xlink:title=" ">
<polygon fill="white" stroke="black" points="1114.5,-168.5 1114.5,-187.5 1182.5,-187.5 1182.5,-168.5 1114.5,-168.5"/>
<text text-anchor="middle" x="1148.5" y="-175.5" font-family="Helvetica,sans-Serif" font-size="10.00">vgobject.h</text>
</a>
</g>
</g>
<!-- Node22&#45;&gt;Node29 -->
<g id="edge44" class="edge">
<title>Node22&#45;&gt;Node29</title>
<path fill="none" stroke="midnightblue" d="M1132.64,-224.08C1135.18,-216.85 1138.86,-206.41 1142.03,-197.4"/>
<polygon fill="midnightblue" stroke="midnightblue" points="1145.4,-198.35 1145.42,-187.75 1138.8,-196.02 1145.4,-198.35"/>
</g>
<!-- Node25&#45;&gt;Node4 -->
<g id="edge40" class="edge">
<title>Node25&#45;&gt;Node4</title>
<path fill="none" stroke="midnightblue" d="M668.82,-168.32C677.39,-160.34 690.31,-148.31 700.69,-138.65"/>
<polygon fill="midnightblue" stroke="midnightblue" points="703.08,-141.21 708.01,-131.83 698.31,-136.09 703.08,-141.21"/>
</g>
<!-- Node25&#45;&gt;Node5 -->
<g id="edge38" class="edge">
<title>Node25&#45;&gt;Node5</title>
<path fill="none" stroke="midnightblue" d="M654.85,-168.5C648.24,-155.14 638.22,-128.99 650.5,-112 656.38,-103.86 709.01,-88.07 747.03,-77.53"/>
<polygon fill="midnightblue" stroke="midnightblue" points="748.12,-80.86 756.83,-74.84 746.26,-74.11 748.12,-80.86"/>
</g>
<!-- Node25&#45;&gt;Node6 -->
<g id="edge39" class="edge">
<title>Node25&#45;&gt;Node6</title>
<path fill="none" stroke="midnightblue" d="M625.91,-168.44C589.31,-159.12 530.66,-144.18 490.67,-134"/>
<polygon fill="midnightblue" stroke="midnightblue" points="491.49,-130.59 480.93,-131.52 489.76,-137.38 491.49,-130.59"/>
</g>
<!-- Node25&#45;&gt;Node10 -->
<g id="edge36" class="edge">
<title>Node25&#45;&gt;Node10</title>
<path fill="none" stroke="midnightblue" d="M684.82,-168.41C728.33,-154.05 820.36,-125.41 900.5,-112 1135.12,-72.74 1422.22,-67.56 1522.69,-67"/>
<polygon fill="midnightblue" stroke="midnightblue" points="1522.93,-70.5 1532.92,-66.96 1522.9,-63.5 1522.93,-70.5"/>
</g>
<!-- Node25&#45;&gt;Node11 -->
<g id="edge37" class="edge">
<title>Node25&#45;&gt;Node11</title>
<path fill="none" stroke="midnightblue" d="M646.47,-168.3C629.66,-155.96 603.98,-132.57 616.5,-112 625.96,-96.46 642.71,-86.05 659,-79.19"/>
<polygon fill="midnightblue" stroke="midnightblue" points="660.4,-82.4 668.49,-75.55 657.9,-75.87 660.4,-82.4"/>
</g>
<!-- Node27 -->
<g id="node27" class="node">
<title>Node27</title>
<g id="a_node27"><a xlink:title=" ">
<polygon fill="white" stroke="#bfbfbf" points="1478,-112.5 1478,-131.5 1531,-131.5 1531,-112.5 1478,-112.5"/>
<text text-anchor="middle" x="1504.5" y="-119.5" font-family="Helvetica,sans-Serif" font-size="10.00">QtMath</text>
</a>
</g>
</g>
<!-- Node26&#45;&gt;Node27 -->
<g id="edge42" class="edge">
<title>Node26&#45;&gt;Node27</title>
<path fill="none" stroke="midnightblue" d="M1353.86,-168.44C1384.68,-159.15 1434.04,-144.26 1467.79,-134.07"/>
<polygon fill="midnightblue" stroke="midnightblue" points="1469.17,-137.31 1477.73,-131.08 1467.15,-130.61 1469.17,-137.31"/>
</g>
<!-- Node29&#45;&gt;Node3 -->
<g id="edge48" class="edge">
<title>Node29&#45;&gt;Node3</title>
<path fill="none" stroke="midnightblue" d="M1182.58,-171.44C1228.48,-163.81 1312.9,-149.28 1394.7,-132.07"/>
<polygon fill="midnightblue" stroke="midnightblue" points="1395.6,-135.45 1404.66,-129.96 1394.15,-128.61 1395.6,-135.45"/>
</g>
<!-- Node29&#45;&gt;Node5 -->
<g id="edge49" class="edge">
<title>Node29&#45;&gt;Node5</title>
<path fill="none" stroke="midnightblue" d="M1166.25,-168.4C1189.62,-155.98 1225.74,-132.29 1207.5,-112 1182.26,-83.92 926.31,-71.92 826.27,-68.28"/>
<polygon fill="midnightblue" stroke="midnightblue" points="826.37,-64.79 816.25,-67.93 826.12,-71.78 826.37,-64.79"/>
</g>
<!-- Node29&#45;&gt;Node10 -->
<g id="edge46" class="edge">
<title>Node29&#45;&gt;Node10</title>
<path fill="none" stroke="midnightblue" d="M1162.91,-168.34C1187,-154.26 1237.35,-126.54 1283.5,-112 1366.63,-85.81 1468.91,-74.22 1522.59,-69.64"/>
<polygon fill="midnightblue" stroke="midnightblue" points="1522.97,-73.12 1532.65,-68.81 1522.4,-66.14 1522.97,-73.12"/>
</g>
<!-- Node29&#45;&gt;Node19 -->
<g id="edge45" class="edge">
<title>Node29&#45;&gt;Node19</title>
<path fill="none" stroke="midnightblue" d="M1133.72,-168.32C1119.23,-159.82 1096.93,-146.73 1080.01,-136.8"/>
<polygon fill="midnightblue" stroke="midnightblue" points="1081.64,-133.7 1071.24,-131.65 1078.1,-139.74 1081.64,-133.7"/>
</g>
<!-- Node29&#45;&gt;Node24 -->
<g id="edge47" class="edge">
<title>Node29&#45;&gt;Node24</title>
<path fill="none" stroke="midnightblue" d="M1151.31,-168.08C1153.58,-160.85 1156.87,-150.41 1159.71,-141.4"/>
<polygon fill="midnightblue" stroke="midnightblue" points="1163.08,-142.34 1162.75,-131.75 1156.4,-140.24 1163.08,-142.34"/>
</g>
<!-- Node29&#45;&gt;Node28 -->
<g id="edge50" class="edge">
<title>Node29&#45;&gt;Node28</title>
<path fill="none" stroke="midnightblue" d="M1178.76,-168.44C1211.46,-159.2 1263.68,-144.44 1299.68,-134.26"/>
<polygon fill="midnightblue" stroke="midnightblue" points="1300.71,-137.61 1309.38,-131.52 1298.8,-130.87 1300.71,-137.61"/>
</g>
<!-- Node30&#45;&gt;Node10 -->
<g id="edge52" class="edge">
<title>Node30&#45;&gt;Node10</title>
<path fill="none" stroke="midnightblue" d="M1794.39,-280.36C1814.82,-264.68 1855.89,-229.32 1871.5,-188 1884.17,-154.47 1873.27,-133.38 1844.5,-112 1805.86,-83.29 1664.57,-72.32 1596.56,-68.64"/>
<polygon fill="midnightblue" stroke="midnightblue" points="1596.47,-65.13 1586.31,-68.11 1596.11,-72.12 1596.47,-65.13"/>
</g>
<!-- Node30&#45;&gt;Node31 -->
<g id="edge53" class="edge">
<title>Node30&#45;&gt;Node31</title>
<path fill="none" stroke="midnightblue" d="M1746.06,-280.44C1706.1,-271.06 1641.91,-255.99 1598.52,-245.8"/>
<polygon fill="midnightblue" stroke="midnightblue" points="1599.31,-242.39 1588.77,-243.52 1597.71,-249.21 1599.31,-242.39"/>
</g>
<!-- Node33 -->
<g id="node33" class="node">
<title>Node33</title>
<g id="a_node33"><a xlink:href="../../dc/d76/floatitemdef_8h.html" target="_top" xlink:title=" ">
<polygon fill="white" stroke="black" points="1777,-168.5 1777,-187.5 1862,-187.5 1862,-168.5 1777,-168.5"/>
<text text-anchor="middle" x="1819.5" y="-175.5" font-family="Helvetica,sans-Serif" font-size="10.00">floatitemdef.h</text>
</a>
</g>
</g>
<!-- Node30&#45;&gt;Node33 -->
<g id="edge58" class="edge">
<title>Node30&#45;&gt;Node33</title>
<path fill="none" stroke="midnightblue" d="M1787.21,-280.25C1791.86,-271.33 1798.91,-257.01 1803.5,-244 1808.88,-228.74 1813.14,-210.86 1815.91,-197.71"/>
<polygon fill="midnightblue" stroke="midnightblue" points="1819.41,-198.06 1817.95,-187.57 1812.54,-196.68 1819.41,-198.06"/>
</g>
<!-- Node31&#45;&gt;Node23 -->
<g id="edge54" class="edge">
<title>Node31&#45;&gt;Node23</title>
<path fill="none" stroke="midnightblue" d="M1598.15,-224.43C1618.74,-218.04 1641.17,-207 1653.5,-188 1662.71,-173.82 1656.8,-154.59 1650.05,-140.73"/>
<polygon fill="midnightblue" stroke="midnightblue" points="1653.03,-138.88 1645.2,-131.74 1646.87,-142.2 1653.03,-138.88"/>
</g>
<!-- Node32 -->
<g id="node32" class="node">
<title>Node32</title>
<g id="a_node32"><a xlink:href="../../db/dc1/vabstractfloatitemdata_8h.html" target="_top" xlink:title=" ">
<polygon fill="white" stroke="black" points="1507,-168.5 1507,-187.5 1644,-187.5 1644,-168.5 1507,-168.5"/>
<text text-anchor="middle" x="1575.5" y="-175.5" font-family="Helvetica,sans-Serif" font-size="10.00">vabstractfloatitemdata.h</text>
</a>
</g>
</g>
<!-- Node31&#45;&gt;Node32 -->
<g id="edge55" class="edge">
<title>Node31&#45;&gt;Node32</title>
<path fill="none" stroke="midnightblue" d="M1556.3,-224.08C1559.41,-216.77 1563.92,-206.18 1567.79,-197.1"/>
<polygon fill="midnightblue" stroke="midnightblue" points="1571.07,-198.32 1571.77,-187.75 1564.63,-195.58 1571.07,-198.32"/>
</g>
<!-- Node32&#45;&gt;Node19 -->
<g id="edge57" class="edge">
<title>Node32&#45;&gt;Node19</title>
<path fill="none" stroke="midnightblue" d="M1506.66,-170.82C1420.22,-162.91 1267.11,-148.39 1124.94,-132.01"/>
<polygon fill="midnightblue" stroke="midnightblue" points="1125.06,-128.5 1114.72,-130.83 1124.25,-135.46 1125.06,-128.5"/>
</g>
<!-- Node32&#45;&gt;Node23 -->
<g id="edge56" class="edge">
<title>Node32&#45;&gt;Node23</title>
<path fill="none" stroke="midnightblue" d="M1585.78,-168.32C1595.34,-160.26 1609.78,-148.08 1621.28,-138.37"/>
<polygon fill="midnightblue" stroke="midnightblue" points="1623.64,-140.96 1629.03,-131.83 1619.13,-135.61 1623.64,-140.96"/>
</g>
<!-- Node33&#45;&gt;Node10 -->
<g id="edge60" class="edge">
<title>Node33&#45;&gt;Node10</title>
<path fill="none" stroke="midnightblue" d="M1824.25,-168.26C1830.97,-154.56 1841.01,-127.97 1827.5,-112 1798.28,-77.47 1662.49,-69.42 1596.16,-67.56"/>
<polygon fill="midnightblue" stroke="midnightblue" points="1596.22,-64.06 1586.13,-67.31 1596.04,-71.05 1596.22,-64.06"/>
</g>
<!-- Node34 -->
<g id="node34" class="node">
<title>Node34</title>
<g id="a_node34"><a xlink:title=" ">
<polygon fill="white" stroke="#bfbfbf" points="1777,-112.5 1777,-131.5 1818,-131.5 1818,-112.5 1777,-112.5"/>
<text text-anchor="middle" x="1797.5" y="-119.5" font-family="Helvetica,sans-Serif" font-size="10.00">QList</text>
</a>
</g>
</g>
<!-- Node33&#45;&gt;Node34 -->
<g id="edge59" class="edge">
<title>Node33&#45;&gt;Node34</title>
<path fill="none" stroke="midnightblue" d="M1815.87,-168.08C1812.89,-160.77 1808.57,-150.18 1804.88,-141.1"/>
<polygon fill="midnightblue" stroke="midnightblue" points="1808.08,-139.69 1801.07,-131.75 1801.6,-142.33 1808.08,-139.69"/>
</g>
<!-- Node35&#45;&gt;Node10 -->
<g id="edge63" class="edge">
<title>Node35&#45;&gt;Node10</title>
<path fill="none" stroke="midnightblue" d="M1710.92,-224.41C1711.52,-202.15 1709.78,-142.22 1676.5,-112 1653.98,-91.56 1621.18,-80.02 1596.04,-73.76"/>
<polygon fill="midnightblue" stroke="midnightblue" points="1596.66,-70.32 1586.13,-71.47 1595.08,-77.13 1596.66,-70.32"/>
</g>
<!-- Node35&#45;&gt;Node23 -->
<g id="edge64" class="edge">
<title>Node35&#45;&gt;Node23</title>
<path fill="none" stroke="midnightblue" d="M1708.65,-224.44C1705.57,-211.44 1698.51,-186.31 1686.5,-168 1679.12,-156.75 1668.43,-146.23 1659.12,-138.19"/>
<polygon fill="midnightblue" stroke="midnightblue" points="1661.33,-135.48 1651.39,-131.81 1656.87,-140.88 1661.33,-135.48"/>
</g>
<!-- Node35&#45;&gt;Node32 -->
<g id="edge65" class="edge">
<title>Node35&#45;&gt;Node32</title>
<path fill="none" stroke="midnightblue" d="M1689.11,-224.44C1666.79,-215.52 1631.6,-201.44 1606.29,-191.32"/>
<polygon fill="midnightblue" stroke="midnightblue" points="1607.38,-187.98 1596.79,-187.52 1604.78,-194.48 1607.38,-187.98"/>
</g>
<!-- Node35&#45;&gt;Node33 -->
<g id="edge66" class="edge">
<title>Node35&#45;&gt;Node33</title>
<path fill="none" stroke="midnightblue" d="M1728.01,-224.32C1745.57,-215.62 1772.83,-202.12 1793.03,-192.11"/>
<polygon fill="midnightblue" stroke="midnightblue" points="1794.62,-195.23 1802.03,-187.65 1791.52,-188.96 1794.62,-195.23"/>
</g>
</g>
</svg>
