<?xml version="1.0" encoding="UTF-8" standalone="no"?>
<!DOCTYPE svg PUBLIC "-//W3C//DTD SVG 1.1//EN"
 "http://www.w3.org/Graphics/SVG/1.1/DTD/svg11.dtd">
<!-- Generated by graphviz version 2.43.0 (0)
 -->
<!-- Title: src/libs/xerces&#45;c/macx/include/xercesc/sax2/DefaultHandler.hpp Pages: 1 -->
<svg width="1310pt" height="106pt"
 viewBox="0.00 0.00 1309.50 106.00" xmlns="http://www.w3.org/2000/svg" xmlns:xlink="http://www.w3.org/1999/xlink">
<g id="graph0" class="graph" transform="scale(1 1) rotate(0) translate(4 102)">
<title>src/libs/xerces&#45;c/macx/include/xercesc/sax2/DefaultHandler.hpp</title>
<polygon fill="white" stroke="transparent" points="-4,4 -4,-102 1305.5,-102 1305.5,4 -4,4"/>
<!-- Node1 -->
<g id="node1" class="node">
<title>Node1</title>
<g id="a_node1"><a xlink:title=" ">
<polygon fill="#bfbfbf" stroke="black" points="589,-56.5 589,-97.5 714,-97.5 714,-56.5 589,-56.5"/>
<text text-anchor="start" x="597" y="-85.5" font-family="Helvetica,sans-Serif" font-size="10.00">src/libs/xerces&#45;c/macx</text>
<text text-anchor="start" x="597" y="-74.5" font-family="Helvetica,sans-Serif" font-size="10.00">/include/xercesc/sax2</text>
<text text-anchor="middle" x="651.5" y="-63.5" font-family="Helvetica,sans-Serif" font-size="10.00">/DefaultHandler.hpp</text>
</a>
</g>
</g>
<!-- Node2 -->
<g id="node2" class="node">
<title>Node2</title>
<g id="a_node2"><a xlink:title=" ">
<polygon fill="white" stroke="#bfbfbf" points="0,-0.5 0,-19.5 179,-19.5 179,-0.5 0,-0.5"/>
<text text-anchor="middle" x="89.5" y="-7.5" font-family="Helvetica,sans-Serif" font-size="10.00">xercesc/sax2/ContentHandler.hpp</text>
</a>
</g>
</g>
<!-- Node1&#45;&gt;Node2 -->
<g id="edge1" class="edge">
<title>Node1&#45;&gt;Node2</title>
<path fill="none" stroke="midnightblue" d="M588.94,-68.76C487.43,-57.02 286.78,-33.82 173.13,-20.67"/>
<polygon fill="midnightblue" stroke="midnightblue" points="173.42,-17.18 163.09,-19.51 172.62,-24.14 173.42,-17.18"/>
</g>
<!-- Node3 -->
<g id="node3" class="node">
<title>Node3</title>
<g id="a_node3"><a xlink:title=" ">
<polygon fill="white" stroke="#bfbfbf" points="197.5,-0.5 197.5,-19.5 373.5,-19.5 373.5,-0.5 197.5,-0.5"/>
<text text-anchor="middle" x="285.5" y="-7.5" font-family="Helvetica,sans-Serif" font-size="10.00">xercesc/sax2/LexicalHandler.hpp</text>
</a>
</g>
</g>
<!-- Node1&#45;&gt;Node3 -->
<g id="edge2" class="edge">
<title>Node1&#45;&gt;Node3</title>
<path fill="none" stroke="midnightblue" d="M589,-64.9C520.15,-52.67 410.35,-33.17 343.4,-21.28"/>
<polygon fill="midnightblue" stroke="midnightblue" points="343.9,-17.82 333.44,-19.51 342.68,-24.71 343.9,-17.82"/>
</g>
<!-- Node4 -->
<g id="node4" class="node">
<title>Node4</title>
<g id="a_node4"><a xlink:title=" ">
<polygon fill="white" stroke="#bfbfbf" points="392,-0.5 392,-19.5 555,-19.5 555,-0.5 392,-0.5"/>
<text text-anchor="middle" x="473.5" y="-7.5" font-family="Helvetica,sans-Serif" font-size="10.00">xercesc/sax2/DeclHandler.hpp</text>
</a>
</g>
</g>
<!-- Node1&#45;&gt;Node4 -->
<g id="edge3" class="edge">
<title>Node1&#45;&gt;Node4</title>
<path fill="none" stroke="midnightblue" d="M598.09,-56.5C568.44,-45.67 532.48,-32.54 506.83,-23.17"/>
<polygon fill="midnightblue" stroke="midnightblue" points="507.79,-19.8 497.19,-19.65 505.39,-26.37 507.79,-19.8"/>
</g>
<!-- Node5 -->
<g id="node5" class="node">
<title>Node5</title>
<g id="a_node5"><a xlink:title=" ">
<polygon fill="white" stroke="#bfbfbf" points="573.5,-0.5 573.5,-19.5 729.5,-19.5 729.5,-0.5 573.5,-0.5"/>
<text text-anchor="middle" x="651.5" y="-7.5" font-family="Helvetica,sans-Serif" font-size="10.00">xercesc/sax/DTDHandler.hpp</text>
</a>
</g>
</g>
<!-- Node1&#45;&gt;Node5 -->
<g id="edge4" class="edge">
<title>Node1&#45;&gt;Node5</title>
<path fill="none" stroke="midnightblue" d="M651.5,-56.5C651.5,-48.07 651.5,-38.24 651.5,-29.87"/>
<polygon fill="midnightblue" stroke="midnightblue" points="655,-29.65 651.5,-19.65 648,-29.65 655,-29.65"/>
</g>
<!-- Node6 -->
<g id="node6" class="node">
<title>Node6</title>
<g id="a_node6"><a xlink:title=" ">
<polygon fill="white" stroke="#bfbfbf" points="747.5,-0.5 747.5,-19.5 915.5,-19.5 915.5,-0.5 747.5,-0.5"/>
<text text-anchor="middle" x="831.5" y="-7.5" font-family="Helvetica,sans-Serif" font-size="10.00">xercesc/sax/EntityResolver.hpp</text>
</a>
</g>
</g>
<!-- Node1&#45;&gt;Node6 -->
<g id="edge5" class="edge">
<title>Node1&#45;&gt;Node6</title>
<path fill="none" stroke="midnightblue" d="M705.51,-56.5C735.49,-45.67 771.86,-32.54 797.8,-23.17"/>
<polygon fill="midnightblue" stroke="midnightblue" points="799.32,-26.34 807.54,-19.65 796.94,-19.76 799.32,-26.34"/>
</g>
<!-- Node7 -->
<g id="node7" class="node">
<title>Node7</title>
<g id="a_node7"><a xlink:title=" ">
<polygon fill="white" stroke="#bfbfbf" points="933.5,-0.5 933.5,-19.5 1091.5,-19.5 1091.5,-0.5 933.5,-0.5"/>
<text text-anchor="middle" x="1012.5" y="-7.5" font-family="Helvetica,sans-Serif" font-size="10.00">xercesc/sax/ErrorHandler.hpp</text>
</a>
</g>
</g>
<!-- Node1&#45;&gt;Node7 -->
<g id="edge6" class="edge">
<title>Node1&#45;&gt;Node7</title>
<path fill="none" stroke="midnightblue" d="M714.38,-64.68C782.26,-52.46 889.45,-33.16 955.11,-21.33"/>
<polygon fill="midnightblue" stroke="midnightblue" points="956.06,-24.72 965.28,-19.5 954.82,-17.83 956.06,-24.72"/>
</g>
<!-- Node8 -->
<g id="node8" class="node">
<title>Node8</title>
<g id="a_node8"><a xlink:title=" ">
<polygon fill="white" stroke="#bfbfbf" points="1109.5,-0.5 1109.5,-19.5 1301.5,-19.5 1301.5,-0.5 1109.5,-0.5"/>
<text text-anchor="middle" x="1205.5" y="-7.5" font-family="Helvetica,sans-Serif" font-size="10.00">xercesc/sax/SAXParseException.hpp</text>
</a>
</g>
</g>
<!-- Node1&#45;&gt;Node8 -->
<g id="edge7" class="edge">
<title>Node1&#45;&gt;Node8</title>
<path fill="none" stroke="midnightblue" d="M714.24,-68.64C814.51,-56.87 1010.92,-33.83 1122.63,-20.72"/>
<polygon fill="midnightblue" stroke="midnightblue" points="1123.31,-24.17 1132.84,-19.53 1122.5,-17.21 1123.31,-24.17"/>
</g>
</g>
</svg>
