<?xml version="1.0" encoding="UTF-8" standalone="no"?>
<!DOCTYPE svg PUBLIC "-//W3C//DTD SVG 1.1//EN"
 "http://www.w3.org/Graphics/SVG/1.1/DTD/svg11.dtd">
<!-- Generated by graphviz version 2.43.0 (0)
 -->
<!-- Title: src/libs/vpatterndb/variables/measurement_variable.h Pages: 1 -->
<svg width="6291pt" height="407pt"
 viewBox="0.00 0.00 6291.00 407.00" xmlns="http://www.w3.org/2000/svg" xmlns:xlink="http://www.w3.org/1999/xlink">
<g id="graph0" class="graph" transform="scale(1 1) rotate(0) translate(4 403)">
<title>src/libs/vpatterndb/variables/measurement_variable.h</title>
<polygon fill="white" stroke="transparent" points="-4,4 -4,-403 6287,-403 6287,4 -4,4"/>
<!-- Node1 -->
<g id="node1" class="node">
<title>Node1</title>
<g id="a_node1"><a xlink:title=" ">
<polygon fill="#bfbfbf" stroke="black" points="6077,-357.5 6077,-398.5 6213,-398.5 6213,-357.5 6077,-357.5"/>
<text text-anchor="start" x="6085" y="-386.5" font-family="Helvetica,sans-Serif" font-size="10.00">src/libs/vpatterndb</text>
<text text-anchor="start" x="6085" y="-375.5" font-family="Helvetica,sans-Serif" font-size="10.00">/variables/measurement</text>
<text text-anchor="middle" x="6145" y="-364.5" font-family="Helvetica,sans-Serif" font-size="10.00">_variable.h</text>
</a>
</g>
</g>
<!-- Node2 -->
<g id="node2" class="node">
<title>Node2</title>
<g id="a_node2"><a xlink:href="../../d9/de3/measurements_8cpp.html" target="_top" xlink:title=" ">
<polygon fill="white" stroke="black" points="5302,-78.5 5302,-97.5 5492,-97.5 5492,-78.5 5302,-78.5"/>
<text text-anchor="middle" x="5397" y="-85.5" font-family="Helvetica,sans-Serif" font-size="10.00">src/libs/vformat/measurements.cpp</text>
</a>
</g>
</g>
<!-- Node1&#45;&gt;Node2 -->
<g id="edge1" class="edge">
<title>Node1&#45;&gt;Node2</title>
<path fill="none" stroke="midnightblue" d="M6135.36,-347.97C6116.73,-296.96 6070.52,-192.16 5992,-145 5910.11,-95.82 5638.22,-88.42 5492,-88.13"/>
<polygon fill="midnightblue" stroke="midnightblue" points="6132.07,-349.18 6138.72,-357.43 6138.67,-346.83 6132.07,-349.18"/>
</g>
<!-- Node3 -->
<g id="node3" class="node">
<title>Node3</title>
<g id="a_node3"><a xlink:href="../../d4/da4/measurement__variable_8cpp.html" target="_top" xlink:title=" ">
<polygon fill="white" stroke="black" points="6147,-67.5 6147,-108.5 6283,-108.5 6283,-67.5 6147,-67.5"/>
<text text-anchor="start" x="6155" y="-96.5" font-family="Helvetica,sans-Serif" font-size="10.00">src/libs/vpatterndb</text>
<text text-anchor="start" x="6155" y="-85.5" font-family="Helvetica,sans-Serif" font-size="10.00">/variables/measurement</text>
<text text-anchor="middle" x="6215" y="-74.5" font-family="Helvetica,sans-Serif" font-size="10.00">_variable.cpp</text>
</a>
</g>
</g>
<!-- Node1&#45;&gt;Node3 -->
<g id="edge2" class="edge">
<title>Node1&#45;&gt;Node3</title>
<path fill="none" stroke="midnightblue" d="M6220.5,-352.64C6234.22,-344.74 6246.78,-334.41 6255,-321 6295.88,-254.31 6278.87,-219.49 6255,-145 6250.7,-131.57 6241.86,-118.63 6233.59,-108.57"/>
<polygon fill="midnightblue" stroke="midnightblue" points="6218.54,-349.72 6211.35,-357.5 6221.82,-355.91 6218.54,-349.72"/>
</g>
<!-- Node4 -->
<g id="node4" class="node">
<title>Node4</title>
<g id="a_node4"><a xlink:href="../../de/dca/variables_8h.html" target="_top" xlink:title=" ">
<polygon fill="white" stroke="black" points="5572.5,-290.5 5572.5,-320.5 5679.5,-320.5 5679.5,-290.5 5572.5,-290.5"/>
<text text-anchor="start" x="5580.5" y="-308.5" font-family="Helvetica,sans-Serif" font-size="10.00">src/libs/vpatterndb</text>
<text text-anchor="middle" x="5626" y="-297.5" font-family="Helvetica,sans-Serif" font-size="10.00">/variables.h</text>
</a>
</g>
</g>
<!-- Node1&#45;&gt;Node4 -->
<g id="edge3" class="edge">
<title>Node1&#45;&gt;Node4</title>
<path fill="none" stroke="midnightblue" d="M6066.82,-366.38C5960.12,-351.89 5771.66,-326.29 5679.62,-313.78"/>
<polygon fill="midnightblue" stroke="midnightblue" points="6066.5,-369.87 6076.88,-367.75 6067.45,-362.93 6066.5,-369.87"/>
</g>
<!-- Node51 -->
<g id="node37" class="node">
<title>Node51</title>
<g id="a_node37"><a xlink:href="../../d6/d46/vcontainer_8cpp.html" target="_top" xlink:title=" ">
<polygon fill="white" stroke="black" points="5957.5,-73 5957.5,-103 6064.5,-103 6064.5,-73 5957.5,-73"/>
<text text-anchor="start" x="5965.5" y="-91" font-family="Helvetica,sans-Serif" font-size="10.00">src/libs/vpatterndb</text>
<text text-anchor="middle" x="6011" y="-80" font-family="Helvetica,sans-Serif" font-size="10.00">/vcontainer.cpp</text>
</a>
</g>
</g>
<!-- Node1&#45;&gt;Node51 -->
<g id="edge63" class="edge">
<title>Node1&#45;&gt;Node51</title>
<path fill="none" stroke="midnightblue" d="M6169.16,-349.42C6206.82,-302.96 6270.45,-207.99 6222,-145 6202.91,-120.18 6120.54,-104.07 6064.55,-95.76"/>
<polygon fill="midnightblue" stroke="midnightblue" points="6166.36,-347.31 6162.68,-357.25 6171.75,-351.78 6166.36,-347.31"/>
</g>
<!-- Node5 -->
<g id="node5" class="node">
<title>Node5</title>
<g id="a_node5"><a xlink:href="../../d3/df7/vcontainer_8h.html" target="_top" xlink:title=" ">
<polygon fill="white" stroke="black" points="5231.5,-223.5 5231.5,-253.5 5338.5,-253.5 5338.5,-223.5 5231.5,-223.5"/>
<text text-anchor="start" x="5239.5" y="-241.5" font-family="Helvetica,sans-Serif" font-size="10.00">src/libs/vpatterndb</text>
<text text-anchor="middle" x="5285" y="-230.5" font-family="Helvetica,sans-Serif" font-size="10.00">/vcontainer.h</text>
</a>
</g>
</g>
<!-- Node4&#45;&gt;Node5 -->
<g id="edge4" class="edge">
<title>Node4&#45;&gt;Node5</title>
<path fill="none" stroke="midnightblue" d="M5562.3,-292.36C5497.82,-280.07 5399.23,-261.27 5338.62,-249.72"/>
<polygon fill="midnightblue" stroke="midnightblue" points="5561.87,-295.84 5572.34,-294.27 5563.18,-288.96 5561.87,-295.84"/>
</g>
<!-- Node5&#45;&gt;Node2 -->
<g id="edge8" class="edge">
<title>Node5&#45;&gt;Node2</title>
<path fill="none" stroke="midnightblue" d="M5337.93,-218.85C5352.95,-211.16 5367.93,-200.74 5378,-187 5398.28,-159.32 5398.56,-115.83 5397.64,-97.55"/>
<polygon fill="midnightblue" stroke="midnightblue" points="5336.14,-215.83 5328.63,-223.3 5339.16,-222.15 5336.14,-215.83"/>
</g>
<!-- Node6 -->
<g id="node6" class="node">
<title>Node6</title>
<g id="a_node6"><a xlink:href="../../d2/d47/image__dialog_8cpp.html" target="_top" xlink:title=" ">
<polygon fill="white" stroke="black" points="4971,-73 4971,-103 5083,-103 5083,-73 4971,-73"/>
<text text-anchor="start" x="4979" y="-91" font-family="Helvetica,sans-Serif" font-size="10.00">src/libs/tools/image</text>
<text text-anchor="middle" x="5027" y="-80" font-family="Helvetica,sans-Serif" font-size="10.00">_dialog.cpp</text>
</a>
</g>
</g>
<!-- Node5&#45;&gt;Node6 -->
<g id="edge5" class="edge">
<title>Node5&#45;&gt;Node6</title>
<path fill="none" stroke="midnightblue" d="M5221.26,-236.99C5136.58,-234.79 4993.82,-225.33 4961,-187 4948.86,-172.82 4953.16,-161.94 4961,-145 4969.33,-127 4986.62,-112.67 5001.41,-103.02"/>
<polygon fill="midnightblue" stroke="midnightblue" points="5221.21,-240.48 5231.29,-237.22 5221.37,-233.49 5221.21,-240.48"/>
</g>
<!-- Node7 -->
<g id="node7" class="node">
<title>Node7</title>
<g id="a_node7"><a xlink:href="../../dc/db7/measurements_8h.html" target="_top" xlink:title=" ">
<polygon fill="white" stroke="black" points="5003.5,-156.5 5003.5,-175.5 5182.5,-175.5 5182.5,-156.5 5003.5,-156.5"/>
<text text-anchor="middle" x="5093" y="-163.5" font-family="Helvetica,sans-Serif" font-size="10.00">src/libs/vformat/measurements.h</text>
</a>
</g>
</g>
<!-- Node5&#45;&gt;Node7 -->
<g id="edge6" class="edge">
<title>Node5&#45;&gt;Node7</title>
<path fill="none" stroke="midnightblue" d="M5237.13,-219.92C5198.59,-205.77 5146.08,-186.49 5116.24,-175.53"/>
<polygon fill="midnightblue" stroke="midnightblue" points="5236.01,-223.24 5246.61,-223.4 5238.43,-216.67 5236.01,-223.24"/>
</g>
<!-- Node8 -->
<g id="node8" class="node">
<title>Node8</title>
<g id="a_node8"><a xlink:href="../../d6/de0/vlayoutpiece_8h.html" target="_top" xlink:title=" ">
<polygon fill="white" stroke="black" points="645,-156.5 645,-175.5 811,-175.5 811,-156.5 645,-156.5"/>
<text text-anchor="middle" x="728" y="-163.5" font-family="Helvetica,sans-Serif" font-size="10.00">src/libs/vlayout/vlayoutpiece.h</text>
</a>
</g>
</g>
<!-- Node5&#45;&gt;Node8 -->
<g id="edge9" class="edge">
<title>Node5&#45;&gt;Node8</title>
<path fill="none" stroke="midnightblue" d="M5221.1,-236.51C4716.75,-228.71 1382.65,-177.13 811.26,-168.29"/>
<polygon fill="midnightblue" stroke="midnightblue" points="5221.4,-240.02 5231.45,-236.67 5221.51,-233.02 5221.4,-240.02"/>
</g>
<!-- Node18 -->
<g id="node17" class="node">
<title>Node18</title>
<g id="a_node17"><a xlink:href="../../d8/d70/vtextmanager_8cpp.html" target="_top" xlink:title=" ">
<polygon fill="white" stroke="black" points="1322,-78.5 1322,-97.5 1504,-97.5 1504,-78.5 1322,-78.5"/>
<text text-anchor="middle" x="1413" y="-85.5" font-family="Helvetica,sans-Serif" font-size="10.00">src/libs/vlayout/vtextmanager.cpp</text>
</a>
</g>
</g>
<!-- Node5&#45;&gt;Node18 -->
<g id="edge20" class="edge">
<title>Node5&#45;&gt;Node18</title>
<path fill="none" stroke="midnightblue" d="M5221.23,-236.84C4788.13,-232.13 2272.97,-201.14 1513,-109 1491.56,-106.4 1467.84,-101.74 1448.89,-97.57"/>
<polygon fill="midnightblue" stroke="midnightblue" points="5221.33,-240.34 5231.37,-236.95 5221.4,-233.34 5221.33,-240.34"/>
</g>
<!-- Node19 -->
<g id="node18" class="node">
<title>Node19</title>
<g id="a_node18"><a xlink:href="../../d5/d74/vabstractapplication_8h.html" target="_top" xlink:title=" ">
<polygon fill="white" stroke="red" points="3297.5,-156.5 3297.5,-175.5 3492.5,-175.5 3492.5,-156.5 3297.5,-156.5"/>
<text text-anchor="middle" x="3395" y="-163.5" font-family="Helvetica,sans-Serif" font-size="10.00">src/libs/vmisc/vabstractapplication.h</text>
</a>
</g>
</g>
<!-- Node5&#45;&gt;Node19 -->
<g id="edge21" class="edge">
<title>Node5&#45;&gt;Node19</title>
<path fill="none" stroke="midnightblue" d="M5221.14,-235.12C4942.26,-224.72 3830.12,-183.23 3492.61,-170.64"/>
<polygon fill="midnightblue" stroke="midnightblue" points="5221.36,-238.63 5231.48,-235.5 5221.62,-231.63 5221.36,-238.63"/>
</g>
<!-- Node47 -->
<g id="node33" class="node">
<title>Node47</title>
<g id="a_node33"><a xlink:href="../../db/d11/vformula_8cpp.html" target="_top" xlink:title=" ">
<polygon fill="white" stroke="black" points="4720.5,-73 4720.5,-103 4827.5,-103 4827.5,-73 4720.5,-73"/>
<text text-anchor="start" x="4728.5" y="-91" font-family="Helvetica,sans-Serif" font-size="10.00">src/libs/vpatterndb</text>
<text text-anchor="middle" x="4774" y="-80" font-family="Helvetica,sans-Serif" font-size="10.00">/vformula.cpp</text>
</a>
</g>
</g>
<!-- Node5&#45;&gt;Node47 -->
<g id="edge55" class="edge">
<title>Node5&#45;&gt;Node47</title>
<path fill="none" stroke="midnightblue" d="M5221.09,-237.84C5145.29,-236.22 5016.33,-227.05 4914,-187 4863.16,-167.11 4813.08,-125.18 4788.93,-103.17"/>
<polygon fill="midnightblue" stroke="midnightblue" points="5221.37,-241.34 5231.42,-238.02 5221.49,-234.35 5221.37,-241.34"/>
</g>
<!-- Node48 -->
<g id="node34" class="node">
<title>Node48</title>
<g id="a_node34"><a xlink:href="../../df/d7a/vpiece_8cpp.html" target="_top" xlink:title=" ">
<polygon fill="white" stroke="black" points="4845.5,-73 4845.5,-103 4952.5,-103 4952.5,-73 4845.5,-73"/>
<text text-anchor="start" x="4853.5" y="-91" font-family="Helvetica,sans-Serif" font-size="10.00">src/libs/vpatterndb</text>
<text text-anchor="middle" x="4899" y="-80" font-family="Helvetica,sans-Serif" font-size="10.00">/vpiece.cpp</text>
</a>
</g>
</g>
<!-- Node5&#45;&gt;Node48 -->
<g id="edge58" class="edge">
<title>Node5&#45;&gt;Node48</title>
<path fill="none" stroke="midnightblue" d="M5221.16,-234.69C5136.37,-229.82 4992.37,-217.27 4950,-187 4921.28,-166.49 4907.5,-124.83 4902.02,-103.03"/>
<polygon fill="midnightblue" stroke="midnightblue" points="5221.02,-238.19 5231.2,-235.25 5221.4,-231.2 5221.02,-238.19"/>
</g>
<!-- Node50 -->
<g id="node36" class="node">
<title>Node50</title>
<g id="a_node36"><a xlink:href="../../d8/dba/vpiecenode_8cpp.html" target="_top" xlink:title=" ">
<polygon fill="white" stroke="black" points="4888.5,-0.5 4888.5,-30.5 4995.5,-30.5 4995.5,-0.5 4888.5,-0.5"/>
<text text-anchor="start" x="4896.5" y="-18.5" font-family="Helvetica,sans-Serif" font-size="10.00">src/libs/vpatterndb</text>
<text text-anchor="middle" x="4942" y="-7.5" font-family="Helvetica,sans-Serif" font-size="10.00">/vpiecenode.cpp</text>
</a>
</g>
</g>
<!-- Node5&#45;&gt;Node50 -->
<g id="edge57" class="edge">
<title>Node5&#45;&gt;Node50</title>
<path fill="none" stroke="midnightblue" d="M5221.41,-235.69C5144.71,-232.01 5022.47,-220.84 4994,-187 4981.98,-172.72 4983.32,-160.31 4994,-145 5020.56,-106.95 5065.44,-147.05 5092,-109 5102.68,-93.69 5102.89,-82.16 5092,-67 5070.19,-36.65 5029.22,-24.3 4995.6,-19.38"/>
<polygon fill="midnightblue" stroke="midnightblue" points="5221.31,-239.19 5231.46,-236.14 5221.62,-232.19 5221.31,-239.19"/>
</g>
<!-- Node5&#45;&gt;Node51 -->
<g id="edge60" class="edge">
<title>Node5&#45;&gt;Node51</title>
<path fill="none" stroke="midnightblue" d="M5349.12,-237.29C5514.24,-236.15 5944.5,-229.11 5992,-187 6015.73,-165.96 6015.24,-124.92 6013.04,-103.23"/>
<polygon fill="midnightblue" stroke="midnightblue" points="5348.61,-233.79 5338.63,-237.36 5348.65,-240.79 5348.61,-233.79"/>
</g>
<!-- Node65 -->
<g id="node45" class="node">
<title>Node65</title>
<g id="a_node45"><a xlink:href="../../d3/d02/custom__variable__p_8h.html" target="_top" xlink:title=" ">
<polygon fill="white" stroke="red" points="5200.5,-151 5200.5,-181 5369.5,-181 5369.5,-151 5200.5,-151"/>
<text text-anchor="start" x="5208.5" y="-169" font-family="Helvetica,sans-Serif" font-size="10.00">src/libs/vpatterndb</text>
<text text-anchor="middle" x="5285" y="-158" font-family="Helvetica,sans-Serif" font-size="10.00">/variables/custom_variable_p.h</text>
</a>
</g>
</g>
<!-- Node5&#45;&gt;Node65 -->
<g id="edge52" class="edge">
<title>Node5&#45;&gt;Node65</title>
<path fill="none" stroke="midnightblue" d="M5285,-213.23C5285,-202.57 5285,-190.41 5285,-181.25"/>
<polygon fill="midnightblue" stroke="midnightblue" points="5281.5,-213.23 5285,-223.23 5288.5,-213.23 5281.5,-213.23"/>
</g>
<!-- Node67 -->
<g id="node46" class="node">
<title>Node67</title>
<g id="a_node46"><a xlink:href="../../d7/d8a/measurement__variable__p_8h.html" target="_top" xlink:title=" ">
<polygon fill="white" stroke="black" points="6077,-145.5 6077,-186.5 6213,-186.5 6213,-145.5 6077,-145.5"/>
<text text-anchor="start" x="6085" y="-174.5" font-family="Helvetica,sans-Serif" font-size="10.00">src/libs/vpatterndb</text>
<text text-anchor="start" x="6085" y="-163.5" font-family="Helvetica,sans-Serif" font-size="10.00">/variables/measurement</text>
<text text-anchor="middle" x="6145" y="-152.5" font-family="Helvetica,sans-Serif" font-size="10.00">_variable_p.h</text>
</a>
</g>
</g>
<!-- Node5&#45;&gt;Node67 -->
<g id="edge53" class="edge">
<title>Node5&#45;&gt;Node67</title>
<path fill="none" stroke="midnightblue" d="M5348.6,-235.24C5476.88,-230.22 5775.64,-216.22 6025,-187 6041.89,-185.02 6060.02,-182.31 6076.94,-179.52"/>
<polygon fill="midnightblue" stroke="midnightblue" points="5348.42,-231.74 5338.56,-235.63 5348.69,-238.74 5348.42,-231.74"/>
</g>
<!-- Node68 -->
<g id="node47" class="node">
<title>Node68</title>
<g id="a_node47"><a xlink:href="../../d6/d91/vnodedetail_8cpp.html" target="_top" xlink:title=" ">
<polygon fill="white" stroke="black" points="5425.5,-151 5425.5,-181 5532.5,-181 5532.5,-151 5425.5,-151"/>
<text text-anchor="start" x="5433.5" y="-169" font-family="Helvetica,sans-Serif" font-size="10.00">src/libs/vpatterndb</text>
<text text-anchor="middle" x="5479" y="-158" font-family="Helvetica,sans-Serif" font-size="10.00">/vnodedetail.cpp</text>
</a>
</g>
</g>
<!-- Node5&#45;&gt;Node68 -->
<g id="edge56" class="edge">
<title>Node5&#45;&gt;Node68</title>
<path fill="none" stroke="midnightblue" d="M5333.25,-219.96C5366.28,-207.96 5409.5,-192.26 5440.27,-181.07"/>
<polygon fill="midnightblue" stroke="midnightblue" points="5332,-216.7 5323.79,-223.4 5334.39,-223.28 5332,-216.7"/>
</g>
<!-- Node69 -->
<g id="node48" class="node">
<title>Node69</title>
<g id="a_node48"><a xlink:href="../../da/de1/vpiecepath_8cpp.html" target="_top" xlink:title=" ">
<polygon fill="white" stroke="black" points="5550.5,-151 5550.5,-181 5657.5,-181 5657.5,-151 5550.5,-151"/>
<text text-anchor="start" x="5558.5" y="-169" font-family="Helvetica,sans-Serif" font-size="10.00">src/libs/vpatterndb</text>
<text text-anchor="middle" x="5604" y="-158" font-family="Helvetica,sans-Serif" font-size="10.00">/vpiecepath.cpp</text>
</a>
</g>
</g>
<!-- Node5&#45;&gt;Node69 -->
<g id="edge59" class="edge">
<title>Node5&#45;&gt;Node69</title>
<path fill="none" stroke="midnightblue" d="M5348.71,-227.14C5401,-218.12 5476.79,-203.86 5542,-187 5548.79,-185.24 5555.93,-183.17 5562.84,-181.02"/>
<polygon fill="midnightblue" stroke="midnightblue" points="5347.84,-223.74 5338.57,-228.87 5349.02,-230.64 5347.84,-223.74"/>
</g>
<!-- Node70 -->
<g id="node49" class="node">
<title>Node70</title>
<g id="a_node49"><a xlink:href="../../d1/d3a/abstracttest_8cpp.html" target="_top" xlink:title=" ">
<polygon fill="white" stroke="black" points="5675.5,-156.5 5675.5,-175.5 5836.5,-175.5 5836.5,-156.5 5675.5,-156.5"/>
<text text-anchor="middle" x="5756" y="-163.5" font-family="Helvetica,sans-Serif" font-size="10.00">src/libs/vtest/abstracttest.cpp</text>
</a>
</g>
</g>
<!-- Node5&#45;&gt;Node70 -->
<g id="edge61" class="edge">
<title>Node5&#45;&gt;Node70</title>
<path fill="none" stroke="midnightblue" d="M5349.06,-230.81C5425.16,-222.45 5555.82,-206.8 5667,-187 5685.09,-183.78 5705.06,-179.37 5721.49,-175.51"/>
<polygon fill="midnightblue" stroke="midnightblue" points="5348.25,-227.37 5338.69,-231.94 5349.01,-234.33 5348.25,-227.37"/>
</g>
<!-- Node71 -->
<g id="node50" class="node">
<title>Node71</title>
<g id="a_node50"><a xlink:href="../../da/db4/piece__tablewidgetitem_8cpp.html" target="_top" xlink:title=" ">
<polygon fill="white" stroke="black" points="5855,-151 5855,-181 5983,-181 5983,-151 5855,-151"/>
<text text-anchor="start" x="5863" y="-169" font-family="Helvetica,sans-Serif" font-size="10.00">src/libs/vwidgets/piece</text>
<text text-anchor="middle" x="5919" y="-158" font-family="Helvetica,sans-Serif" font-size="10.00">_tablewidgetitem.cpp</text>
</a>
</g>
</g>
<!-- Node5&#45;&gt;Node71 -->
<g id="edge62" class="edge">
<title>Node5&#45;&gt;Node71</title>
<path fill="none" stroke="midnightblue" d="M5348.88,-235.44C5453.52,-231.24 5667.65,-219.2 5846,-187 5854.66,-185.44 5863.79,-183.32 5872.55,-181.05"/>
<polygon fill="midnightblue" stroke="midnightblue" points="5348.65,-231.95 5338.8,-235.83 5348.92,-238.94 5348.65,-231.95"/>
</g>
<!-- Node7&#45;&gt;Node2 -->
<g id="edge7" class="edge">
<title>Node7&#45;&gt;Node2</title>
<path fill="none" stroke="midnightblue" d="M5137.03,-153.99C5198.16,-138.71 5307.47,-111.38 5362.84,-97.54"/>
<polygon fill="midnightblue" stroke="midnightblue" points="5136.13,-150.61 5127.28,-156.43 5137.83,-157.4 5136.13,-150.61"/>
</g>
<!-- Node9 -->
<g id="node9" class="node">
<title>Node9</title>
<g id="a_node9"><a xlink:href="../../dd/d66/vdxfengine_8cpp.html" target="_top" xlink:title=" ">
<polygon fill="white" stroke="black" points="954,-78.5 954,-97.5 1108,-97.5 1108,-78.5 954,-78.5"/>
<text text-anchor="middle" x="1031" y="-85.5" font-family="Helvetica,sans-Serif" font-size="10.00">src/libs/vdxf/vdxfengine.cpp</text>
</a>
</g>
</g>
<!-- Node8&#45;&gt;Node9 -->
<g id="edge10" class="edge">
<title>Node8&#45;&gt;Node9</title>
<path fill="none" stroke="midnightblue" d="M771.88,-153.99C832.81,-138.71 941.77,-111.38 996.96,-97.54"/>
<polygon fill="midnightblue" stroke="midnightblue" points="771.02,-150.6 762.17,-156.43 772.72,-157.39 771.02,-150.6"/>
</g>
<!-- Node10 -->
<g id="node10" class="node">
<title>Node10</title>
<g id="a_node10"><a xlink:href="../../de/da8/vbank_8cpp.html" target="_top" xlink:title=" ">
<polygon fill="white" stroke="black" points="0,-78.5 0,-97.5 144,-97.5 144,-78.5 0,-78.5"/>
<text text-anchor="middle" x="72" y="-85.5" font-family="Helvetica,sans-Serif" font-size="10.00">src/libs/vlayout/vbank.cpp</text>
</a>
</g>
</g>
<!-- Node8&#45;&gt;Node10 -->
<g id="edge11" class="edge">
<title>Node8&#45;&gt;Node10</title>
<path fill="none" stroke="midnightblue" d="M634.55,-160.07C520.32,-153.09 321.42,-137.84 153,-109 136.01,-106.09 117.31,-101.56 102.17,-97.55"/>
<polygon fill="midnightblue" stroke="midnightblue" points="634.46,-163.57 644.66,-160.68 634.88,-156.59 634.46,-163.57"/>
</g>
<!-- Node11 -->
<g id="node11" class="node">
<title>Node11</title>
<g id="a_node11"><a xlink:href="../../d3/d39/vlayoutgenerator_8cpp.html" target="_top" xlink:title=" ">
<polygon fill="white" stroke="black" points="162.5,-78.5 162.5,-97.5 359.5,-97.5 359.5,-78.5 162.5,-78.5"/>
<text text-anchor="middle" x="261" y="-85.5" font-family="Helvetica,sans-Serif" font-size="10.00">src/libs/vlayout/vlayoutgenerator.cpp</text>
</a>
</g>
</g>
<!-- Node8&#45;&gt;Node11 -->
<g id="edge12" class="edge">
<title>Node8&#45;&gt;Node11</title>
<path fill="none" stroke="midnightblue" d="M659.76,-154.94C587.47,-144.15 470.05,-126.23 369,-109 348.04,-105.43 324.85,-101.17 305.35,-97.51"/>
<polygon fill="midnightblue" stroke="midnightblue" points="659.69,-158.47 670.09,-156.48 660.72,-151.55 659.69,-158.47"/>
</g>
<!-- Node12 -->
<g id="node12" class="node">
<title>Node12</title>
<g id="a_node12"><a xlink:href="../../df/d5d/vcontour_8cpp.html" target="_top" xlink:title=" ">
<polygon fill="white" stroke="black" points="378,-78.5 378,-97.5 534,-97.5 534,-78.5 378,-78.5"/>
<text text-anchor="middle" x="456" y="-85.5" font-family="Helvetica,sans-Serif" font-size="10.00">src/libs/vlayout/vcontour.cpp</text>
</a>
</g>
</g>
<!-- Node8&#45;&gt;Node12 -->
<g id="edge13" class="edge">
<title>Node8&#45;&gt;Node12</title>
<path fill="none" stroke="midnightblue" d="M687.59,-153.71C632.7,-138.37 535.8,-111.3 486.56,-97.54"/>
<polygon fill="midnightblue" stroke="midnightblue" points="686.75,-157.11 697.33,-156.43 688.64,-150.37 686.75,-157.11"/>
</g>
<!-- Node13 -->
<g id="node13" class="node">
<title>Node13</title>
<g id="a_node13"><a xlink:href="../../d1/dd1/vlayoutpaper_8cpp.html" target="_top" xlink:title=" ">
<polygon fill="white" stroke="black" points="639,-6 639,-25 817,-25 817,-6 639,-6"/>
<text text-anchor="middle" x="728" y="-13" font-family="Helvetica,sans-Serif" font-size="10.00">src/libs/vlayout/vlayoutpaper.cpp</text>
</a>
</g>
</g>
<!-- Node8&#45;&gt;Node13 -->
<g id="edge14" class="edge">
<title>Node8&#45;&gt;Node13</title>
<path fill="none" stroke="midnightblue" d="M728,-145.74C728,-113.16 728,-48.42 728,-25.11"/>
<polygon fill="midnightblue" stroke="midnightblue" points="724.5,-146.16 728,-156.16 731.5,-146.16 724.5,-146.16"/>
</g>
<!-- Node14 -->
<g id="node14" class="node">
<title>Node14</title>
<g id="a_node14"><a xlink:href="../../d2/d2d/vlayoutpaper__p_8h.html" target="_top" xlink:title=" ">
<polygon fill="white" stroke="black" points="756.5,-78.5 756.5,-97.5 935.5,-97.5 935.5,-78.5 756.5,-78.5"/>
<text text-anchor="middle" x="846" y="-85.5" font-family="Helvetica,sans-Serif" font-size="10.00">src/libs/vlayout/vlayoutpaper_p.h</text>
</a>
</g>
</g>
<!-- Node8&#45;&gt;Node14 -->
<g id="edge15" class="edge">
<title>Node8&#45;&gt;Node14</title>
<path fill="none" stroke="midnightblue" d="M750.09,-150.77C774.35,-135.15 812.53,-110.56 832.62,-97.62"/>
<polygon fill="midnightblue" stroke="midnightblue" points="748.05,-147.92 741.54,-156.28 751.84,-153.81 748.05,-147.92"/>
</g>
<!-- Node15 -->
<g id="node15" class="node">
<title>Node15</title>
<g id="a_node15"><a xlink:href="../../dd/d70/vlayoutpiece_8cpp.html" target="_top" xlink:title=" ">
<polygon fill="white" stroke="black" points="1126.5,-78.5 1126.5,-97.5 1303.5,-97.5 1303.5,-78.5 1126.5,-78.5"/>
<text text-anchor="middle" x="1215" y="-85.5" font-family="Helvetica,sans-Serif" font-size="10.00">src/libs/vlayout/vlayoutpiece.cpp</text>
</a>
</g>
</g>
<!-- Node8&#45;&gt;Node15 -->
<g id="edge17" class="edge">
<title>Node8&#45;&gt;Node15</title>
<path fill="none" stroke="midnightblue" d="M805.97,-155.14C884.65,-144.86 1009.56,-127.68 1117,-109 1136.5,-105.61 1158.07,-101.27 1175.99,-97.5"/>
<polygon fill="midnightblue" stroke="midnightblue" points="805.12,-151.72 795.65,-156.48 806.02,-158.66 805.12,-151.72"/>
</g>
<!-- Node16 -->
<g id="node16" class="node">
<title>Node16</title>
<g id="a_node16"><a xlink:href="../../db/d5c/vposition_8h.html" target="_top" xlink:title=" ">
<polygon fill="white" stroke="red" points="552,-78.5 552,-97.5 700,-97.5 700,-78.5 552,-78.5"/>
<text text-anchor="middle" x="626" y="-85.5" font-family="Helvetica,sans-Serif" font-size="10.00">src/libs/vlayout/vposition.h</text>
</a>
</g>
</g>
<!-- Node8&#45;&gt;Node16 -->
<g id="edge18" class="edge">
<title>Node8&#45;&gt;Node16</title>
<path fill="none" stroke="midnightblue" d="M708.07,-150.15C687.07,-134.5 654.7,-110.38 637.56,-97.62"/>
<polygon fill="midnightblue" stroke="midnightblue" points="706.19,-153.11 716.3,-156.28 710.37,-147.5 706.19,-153.11"/>
</g>
<!-- Node14&#45;&gt;Node13 -->
<g id="edge16" class="edge">
<title>Node14&#45;&gt;Node13</title>
<path fill="none" stroke="midnightblue" d="M822.77,-73.12C798.96,-58.89 762.65,-37.2 742.59,-25.22"/>
<polygon fill="midnightblue" stroke="midnightblue" points="821.15,-76.23 831.53,-78.36 824.74,-70.22 821.15,-76.23"/>
</g>
<!-- Node16&#45;&gt;Node13 -->
<g id="edge19" class="edge">
<title>Node16&#45;&gt;Node13</title>
<path fill="none" stroke="midnightblue" d="M646.9,-72.55C667.5,-58.32 698.28,-37.04 715.39,-25.22"/>
<polygon fill="midnightblue" stroke="midnightblue" points="644.74,-69.79 638.51,-78.36 648.72,-75.55 644.74,-69.79"/>
</g>
<!-- Node19&#45;&gt;Node6 -->
<g id="edge24" class="edge">
<title>Node19&#45;&gt;Node6</title>
<path fill="none" stroke="midnightblue" d="M3502.89,-164.76C3809.12,-163.52 4679.74,-155.83 4961,-109 4969.39,-107.6 4978.2,-105.44 4986.55,-103.05"/>
<polygon fill="midnightblue" stroke="midnightblue" points="3502.66,-161.26 3492.67,-164.8 3502.69,-168.26 3502.66,-161.26"/>
</g>
<!-- Node19&#45;&gt;Node15 -->
<g id="edge34" class="edge">
<title>Node19&#45;&gt;Node15</title>
<path fill="none" stroke="midnightblue" d="M3287.33,-164.58C2917.59,-162.77 1701.16,-153.48 1313,-109 1291.61,-106.55 1267.95,-101.78 1249.23,-97.51"/>
<polygon fill="midnightblue" stroke="midnightblue" points="3287.48,-168.09 3297.49,-164.63 3287.51,-161.09 3287.48,-168.09"/>
</g>
<!-- Node19&#45;&gt;Node18 -->
<g id="edge35" class="edge">
<title>Node19&#45;&gt;Node18</title>
<path fill="none" stroke="midnightblue" d="M3287.14,-162.85C2913.67,-155.25 1688.81,-129.05 1513,-109 1491.36,-106.53 1467.43,-101.82 1448.41,-97.59"/>
<polygon fill="midnightblue" stroke="midnightblue" points="3287.34,-166.35 3297.41,-163.06 3287.48,-159.35 3287.34,-166.35"/>
</g>
<!-- Node20 -->
<g id="node19" class="node">
<title>Node20</title>
<g id="a_node19"><a xlink:href="../../d4/d90/fvupdater_8cpp.html" target="_top" xlink:title=" ">
<polygon fill="white" stroke="black" points="2761.5,-78.5 2761.5,-97.5 2914.5,-97.5 2914.5,-78.5 2761.5,-78.5"/>
<text text-anchor="middle" x="2838" y="-85.5" font-family="Helvetica,sans-Serif" font-size="10.00">src/libs/fervor/fvupdater.cpp</text>
</a>
</g>
</g>
<!-- Node19&#45;&gt;Node20 -->
<g id="edge22" class="edge">
<title>Node19&#45;&gt;Node20</title>
<path fill="none" stroke="midnightblue" d="M3287.13,-155.58C3191.35,-146.41 3047.78,-130.68 2924,-109 2906.33,-105.91 2886.85,-101.46 2870.9,-97.55"/>
<polygon fill="midnightblue" stroke="midnightblue" points="3286.83,-159.07 3297.12,-156.53 3287.5,-152.1 3286.83,-159.07"/>
</g>
<!-- Node21 -->
<g id="node20" class="node">
<title>Node21</title>
<g id="a_node20"><a xlink:href="../../d1/d8d/image__item_8h.html" target="_top" xlink:title=" ">
<polygon fill="white" stroke="red" points="2933,-73 2933,-103 3045,-103 3045,-73 2933,-73"/>
<text text-anchor="start" x="2941" y="-91" font-family="Helvetica,sans-Serif" font-size="10.00">src/libs/tools/image</text>
<text text-anchor="middle" x="2989" y="-80" font-family="Helvetica,sans-Serif" font-size="10.00">_item.h</text>
</a>
</g>
</g>
<!-- Node19&#45;&gt;Node21 -->
<g id="edge23" class="edge">
<title>Node19&#45;&gt;Node21</title>
<path fill="none" stroke="midnightblue" d="M3316.2,-155.15C3246.7,-145.73 3142.93,-129.88 3054,-109 3046.76,-107.3 3039.14,-105.22 3031.78,-103.06"/>
<polygon fill="midnightblue" stroke="midnightblue" points="3315.83,-158.63 3326.2,-156.5 3316.76,-151.7 3315.83,-158.63"/>
</g>
<!-- Node31 -->
<g id="node21" class="node">
<title>Node31</title>
<g id="a_node21"><a xlink:href="../../d9/dc8/dxiface_8cpp.html" target="_top" xlink:title=" ">
<polygon fill="white" stroke="black" points="3063.5,-78.5 3063.5,-97.5 3198.5,-97.5 3198.5,-78.5 3063.5,-78.5"/>
<text text-anchor="middle" x="3131" y="-85.5" font-family="Helvetica,sans-Serif" font-size="10.00">src/libs/vdxf/dxiface.cpp</text>
</a>
</g>
</g>
<!-- Node19&#45;&gt;Node31 -->
<g id="edge25" class="edge">
<title>Node19&#45;&gt;Node31</title>
<path fill="none" stroke="midnightblue" d="M3355.44,-153.61C3302.11,-138.26 3208.35,-111.27 3160.66,-97.54"/>
<polygon fill="midnightblue" stroke="midnightblue" points="3354.65,-157.03 3365.23,-156.43 3356.59,-150.3 3354.65,-157.03"/>
</g>
<!-- Node32 -->
<g id="node22" class="node">
<title>Node32</title>
<g id="a_node22"><a xlink:href="../../da/d75/vabstractarc__p_8h.html" target="_top" xlink:title=" ">
<polygon fill="white" stroke="red" points="3216.5,-73 3216.5,-103 3323.5,-103 3323.5,-73 3216.5,-73"/>
<text text-anchor="start" x="3224.5" y="-91" font-family="Helvetica,sans-Serif" font-size="10.00">src/libs/vgeometry</text>
<text text-anchor="middle" x="3270" y="-80" font-family="Helvetica,sans-Serif" font-size="10.00">/vabstractarc_p.h</text>
</a>
</g>
</g>
<!-- Node19&#45;&gt;Node32 -->
<g id="edge26" class="edge">
<title>Node19&#45;&gt;Node32</title>
<path fill="none" stroke="midnightblue" d="M3372.1,-151.08C3349.64,-137.42 3315.57,-116.71 3293.06,-103.02"/>
<polygon fill="midnightblue" stroke="midnightblue" points="3370.3,-154.08 3380.66,-156.28 3373.93,-148.1 3370.3,-154.08"/>
</g>
<!-- Node34 -->
<g id="node23" class="node">
<title>Node34</title>
<g id="a_node23"><a xlink:href="../../dc/da3/varc__p_8h.html" target="_top" xlink:title=" ">
<polygon fill="white" stroke="red" points="3341.5,-73 3341.5,-103 3448.5,-103 3448.5,-73 3341.5,-73"/>
<text text-anchor="start" x="3349.5" y="-91" font-family="Helvetica,sans-Serif" font-size="10.00">src/libs/vgeometry</text>
<text text-anchor="middle" x="3395" y="-80" font-family="Helvetica,sans-Serif" font-size="10.00">/varc_p.h</text>
</a>
</g>
</g>
<!-- Node19&#45;&gt;Node34 -->
<g id="edge27" class="edge">
<title>Node19&#45;&gt;Node34</title>
<path fill="none" stroke="midnightblue" d="M3395,-146.28C3395,-132.9 3395,-115.19 3395,-103.02"/>
<polygon fill="midnightblue" stroke="midnightblue" points="3391.5,-146.28 3395,-156.28 3398.5,-146.28 3391.5,-146.28"/>
</g>
<!-- Node36 -->
<g id="node24" class="node">
<title>Node36</title>
<g id="a_node24"><a xlink:href="../../d5/d8e/vcubicbezier__p_8h.html" target="_top" xlink:title=" ">
<polygon fill="white" stroke="red" points="3466.5,-73 3466.5,-103 3573.5,-103 3573.5,-73 3466.5,-73"/>
<text text-anchor="start" x="3474.5" y="-91" font-family="Helvetica,sans-Serif" font-size="10.00">src/libs/vgeometry</text>
<text text-anchor="middle" x="3520" y="-80" font-family="Helvetica,sans-Serif" font-size="10.00">/vcubicbezier_p.h</text>
</a>
</g>
</g>
<!-- Node19&#45;&gt;Node36 -->
<g id="edge28" class="edge">
<title>Node19&#45;&gt;Node36</title>
<path fill="none" stroke="midnightblue" d="M3417.9,-151.08C3440.36,-137.42 3474.43,-116.71 3496.94,-103.02"/>
<polygon fill="midnightblue" stroke="midnightblue" points="3416.07,-148.1 3409.34,-156.28 3419.7,-154.08 3416.07,-148.1"/>
</g>
<!-- Node38 -->
<g id="node25" class="node">
<title>Node38</title>
<g id="a_node25"><a xlink:href="../../df/dde/vellipticalarc__p_8h.html" target="_top" xlink:title=" ">
<polygon fill="white" stroke="black" points="4595.5,-73 4595.5,-103 4702.5,-103 4702.5,-73 4595.5,-73"/>
<text text-anchor="start" x="4603.5" y="-91" font-family="Helvetica,sans-Serif" font-size="10.00">src/libs/vgeometry</text>
<text text-anchor="middle" x="4649" y="-80" font-family="Helvetica,sans-Serif" font-size="10.00">/vellipticalarc_p.h</text>
</a>
</g>
</g>
<!-- Node19&#45;&gt;Node38 -->
<g id="edge29" class="edge">
<title>Node19&#45;&gt;Node38</title>
<path fill="none" stroke="midnightblue" d="M3502.91,-163.2C3754.75,-158.46 4375.49,-143.56 4581,-109 4589.49,-107.57 4598.43,-105.43 4606.93,-103.07"/>
<polygon fill="midnightblue" stroke="midnightblue" points="3502.58,-159.7 3492.65,-163.39 3502.71,-166.7 3502.58,-159.7"/>
</g>
<!-- Node39 -->
<g id="node26" class="node">
<title>Node39</title>
<g id="a_node26"><a xlink:href="../../d6/dfb/vellipticalarc_8cpp.html" target="_top" xlink:title=" ">
<polygon fill="white" stroke="black" points="4554.5,-0.5 4554.5,-30.5 4661.5,-30.5 4661.5,-0.5 4554.5,-0.5"/>
<text text-anchor="start" x="4562.5" y="-18.5" font-family="Helvetica,sans-Serif" font-size="10.00">src/libs/vgeometry</text>
<text text-anchor="middle" x="4608" y="-7.5" font-family="Helvetica,sans-Serif" font-size="10.00">/vellipticalarc.cpp</text>
</a>
</g>
</g>
<!-- Node19&#45;&gt;Node39 -->
<g id="edge32" class="edge">
<title>Node19&#45;&gt;Node39</title>
<path fill="none" stroke="midnightblue" d="M3502.89,-165.27C3772.01,-165.17 4457.8,-159.86 4547,-109 4562.71,-100.04 4588.24,-54.36 4600.7,-30.72"/>
<polygon fill="midnightblue" stroke="midnightblue" points="3502.71,-161.77 3492.71,-165.27 3502.72,-168.77 3502.71,-161.77"/>
</g>
<!-- Node40 -->
<g id="node27" class="node">
<title>Node40</title>
<g id="a_node27"><a xlink:href="../../d1/d76/vspline__p_8h.html" target="_top" xlink:title=" ">
<polygon fill="white" stroke="red" points="3591.5,-73 3591.5,-103 3698.5,-103 3698.5,-73 3591.5,-73"/>
<text text-anchor="start" x="3599.5" y="-91" font-family="Helvetica,sans-Serif" font-size="10.00">src/libs/vgeometry</text>
<text text-anchor="middle" x="3645" y="-80" font-family="Helvetica,sans-Serif" font-size="10.00">/vspline_p.h</text>
</a>
</g>
</g>
<!-- Node19&#45;&gt;Node40 -->
<g id="edge31" class="edge">
<title>Node19&#45;&gt;Node40</title>
<path fill="none" stroke="midnightblue" d="M3433.81,-153.58C3471.68,-142.39 3530.87,-124.77 3582,-109 3588.14,-107.11 3594.61,-105.08 3600.97,-103.08"/>
<polygon fill="midnightblue" stroke="midnightblue" points="3432.8,-150.23 3424.2,-156.42 3434.78,-156.94 3432.8,-150.23"/>
</g>
<!-- Node42 -->
<g id="node28" class="node">
<title>Node42</title>
<g id="a_node28"><a xlink:href="../../d9/d15/vabstractpiece_8cpp.html" target="_top" xlink:title=" ">
<polygon fill="white" stroke="black" points="3717,-78.5 3717,-97.5 3903,-97.5 3903,-78.5 3717,-78.5"/>
<text text-anchor="middle" x="3810" y="-85.5" font-family="Helvetica,sans-Serif" font-size="10.00">src/libs/vlayout/vabstractpiece.cpp</text>
</a>
</g>
</g>
<!-- Node19&#45;&gt;Node42 -->
<g id="edge33" class="edge">
<title>Node19&#45;&gt;Node42</title>
<path fill="none" stroke="midnightblue" d="M3453.78,-154.71C3516.53,-143.66 3618.86,-125.47 3707,-109 3726.7,-105.32 3748.48,-101.11 3766.93,-97.5"/>
<polygon fill="midnightblue" stroke="midnightblue" points="3452.92,-151.3 3443.68,-156.48 3454.13,-158.2 3452.92,-151.3"/>
</g>
<!-- Node43 -->
<g id="node29" class="node">
<title>Node43</title>
<g id="a_node29"><a xlink:href="../../d6/d0b/def_8cpp.html" target="_top" xlink:title=" ">
<polygon fill="white" stroke="black" points="3921,-78.5 3921,-97.5 4043,-97.5 4043,-78.5 3921,-78.5"/>
<text text-anchor="middle" x="3982" y="-85.5" font-family="Helvetica,sans-Serif" font-size="10.00">src/libs/vmisc/def.cpp</text>
</a>
</g>
</g>
<!-- Node19&#45;&gt;Node43 -->
<g id="edge36" class="edge">
<title>Node19&#45;&gt;Node43</title>
<path fill="none" stroke="midnightblue" d="M3502.93,-158.68C3608.08,-151.27 3772.09,-136.36 3912,-109 3926.76,-106.11 3942.92,-101.59 3956,-97.57"/>
<polygon fill="midnightblue" stroke="midnightblue" points="3502.67,-155.19 3492.94,-159.38 3503.16,-162.18 3502.67,-155.19"/>
</g>
<!-- Node44 -->
<g id="node30" class="node">
<title>Node44</title>
<g id="a_node30"><a xlink:href="../../db/d65/dialogexporttocsv_8cpp.html" target="_top" xlink:title=" ">
<polygon fill="white" stroke="black" points="4061.5,-73 4061.5,-103 4188.5,-103 4188.5,-73 4061.5,-73"/>
<text text-anchor="start" x="4069.5" y="-91" font-family="Helvetica,sans-Serif" font-size="10.00">src/libs/vmisc/dialogs</text>
<text text-anchor="middle" x="4125" y="-80" font-family="Helvetica,sans-Serif" font-size="10.00">/dialogexporttocsv.cpp</text>
</a>
</g>
</g>
<!-- Node19&#45;&gt;Node44 -->
<g id="edge37" class="edge">
<title>Node19&#45;&gt;Node44</title>
<path fill="none" stroke="midnightblue" d="M3502.59,-161.84C3633.36,-156.63 3860.33,-143.13 4052,-109 4060.67,-107.46 4069.8,-105.35 4078.56,-103.08"/>
<polygon fill="midnightblue" stroke="midnightblue" points="3502.43,-158.35 3492.57,-162.23 3502.7,-165.34 3502.43,-158.35"/>
</g>
<!-- Node45 -->
<g id="node31" class="node">
<title>Node45</title>
<g id="a_node31"><a xlink:href="../../d0/df6/vabstractapplication_8cpp.html" target="_top" xlink:title=" ">
<polygon fill="white" stroke="black" points="4207,-78.5 4207,-97.5 4413,-97.5 4413,-78.5 4207,-78.5"/>
<text text-anchor="middle" x="4310" y="-85.5" font-family="Helvetica,sans-Serif" font-size="10.00">src/libs/vmisc/vabstractapplication.cpp</text>
</a>
</g>
</g>
<!-- Node19&#45;&gt;Node45 -->
<g id="edge38" class="edge">
<title>Node19&#45;&gt;Node45</title>
<path fill="none" stroke="midnightblue" d="M3502.96,-161.08C3657.29,-154.65 3949.69,-139.43 4197,-109 4220.63,-106.09 4246.82,-101.54 4268.03,-97.51"/>
<polygon fill="midnightblue" stroke="midnightblue" points="3502.39,-157.6 3492.54,-161.51 3502.67,-164.59 3502.39,-157.6"/>
</g>
<!-- Node46 -->
<g id="node32" class="node">
<title>Node46</title>
<g id="a_node32"><a xlink:href="../../d4/d4f/pmsystems_8cpp.html" target="_top" xlink:title=" ">
<polygon fill="white" stroke="black" points="4431.5,-73 4431.5,-103 4538.5,-103 4538.5,-73 4431.5,-73"/>
<text text-anchor="start" x="4439.5" y="-91" font-family="Helvetica,sans-Serif" font-size="10.00">src/libs/vpatterndb</text>
<text text-anchor="middle" x="4485" y="-80" font-family="Helvetica,sans-Serif" font-size="10.00">/pmsystems.cpp</text>
</a>
</g>
</g>
<!-- Node19&#45;&gt;Node46 -->
<g id="edge39" class="edge">
<title>Node19&#45;&gt;Node46</title>
<path fill="none" stroke="midnightblue" d="M3503.05,-162.56C3729.72,-156.89 4248.25,-140.78 4422,-109 4429.9,-107.55 4438.19,-105.4 4446.07,-103.04"/>
<polygon fill="midnightblue" stroke="midnightblue" points="3502.72,-159.07 3492.81,-162.82 3502.89,-166.07 3502.72,-159.07"/>
</g>
<!-- Node19&#45;&gt;Node47 -->
<g id="edge40" class="edge">
<title>Node19&#45;&gt;Node47</title>
<path fill="none" stroke="midnightblue" d="M3502.95,-164.08C3774.37,-161.18 4480.06,-149.82 4711,-109 4719.02,-107.58 4727.44,-105.41 4735.42,-103.02"/>
<polygon fill="midnightblue" stroke="midnightblue" points="3502.66,-160.58 3492.7,-164.19 3502.73,-167.58 3502.66,-160.58"/>
</g>
<!-- Node19&#45;&gt;Node48 -->
<g id="edge41" class="edge">
<title>Node19&#45;&gt;Node48</title>
<path fill="none" stroke="midnightblue" d="M3502.85,-164.55C3792.04,-162.75 4580.08,-153.75 4836,-109 4844.03,-107.6 4852.45,-105.43 4860.42,-103.04"/>
<polygon fill="midnightblue" stroke="midnightblue" points="3502.75,-161.05 3492.78,-164.61 3502.8,-168.05 3502.75,-161.05"/>
</g>
<!-- Node49 -->
<g id="node35" class="node">
<title>Node49</title>
<g id="a_node35"><a xlink:href="../../df/dba/vpiecenode__p_8h.html" target="_top" xlink:title=" ">
<polygon fill="white" stroke="black" points="1522.5,-73 1522.5,-103 1629.5,-103 1629.5,-73 1522.5,-73"/>
<text text-anchor="start" x="1530.5" y="-91" font-family="Helvetica,sans-Serif" font-size="10.00">src/libs/vpatterndb</text>
<text text-anchor="middle" x="1576" y="-80" font-family="Helvetica,sans-Serif" font-size="10.00">/vpiecenode_p.h</text>
</a>
</g>
</g>
<!-- Node19&#45;&gt;Node49 -->
<g id="edge42" class="edge">
<title>Node19&#45;&gt;Node49</title>
<path fill="none" stroke="midnightblue" d="M3287.33,-163.29C2930.59,-157.39 1800.68,-136.69 1639,-109 1630.97,-107.62 1622.55,-105.47 1614.57,-103.08"/>
<polygon fill="midnightblue" stroke="midnightblue" points="3287.35,-166.79 3297.41,-163.46 3287.46,-159.79 3287.35,-166.79"/>
</g>
<!-- Node19&#45;&gt;Node51 -->
<g id="edge44" class="edge">
<title>Node19&#45;&gt;Node51</title>
<path fill="none" stroke="midnightblue" d="M3502.98,-162.61C3813.5,-155.63 4735.63,-134.18 5501,-109 5667.5,-103.52 5864.5,-95.3 5957.41,-91.32"/>
<polygon fill="midnightblue" stroke="midnightblue" points="3502.55,-159.12 3492.63,-162.84 3502.71,-166.12 3502.55,-159.12"/>
</g>
<!-- Node52 -->
<g id="node38" class="node">
<title>Node52</title>
<g id="a_node38"><a xlink:href="../../de/d3e/vtranslatevars_8cpp.html" target="_top" xlink:title=" ">
<polygon fill="white" stroke="black" points="1648,-73 1648,-103 1758,-103 1758,-73 1648,-73"/>
<text text-anchor="start" x="1656" y="-91" font-family="Helvetica,sans-Serif" font-size="10.00">src/libs/vpatterndb</text>
<text text-anchor="middle" x="1703" y="-80" font-family="Helvetica,sans-Serif" font-size="10.00">/vtranslatevars.cpp</text>
</a>
</g>
</g>
<!-- Node19&#45;&gt;Node52 -->
<g id="edge45" class="edge">
<title>Node19&#45;&gt;Node52</title>
<path fill="none" stroke="midnightblue" d="M3287.14,-162.97C2947.81,-156.34 1915.74,-134.32 1767,-109 1758.85,-107.61 1750.3,-105.46 1742.2,-103.06"/>
<polygon fill="midnightblue" stroke="midnightblue" points="3287.15,-166.47 3297.22,-163.16 3287.29,-159.47 3287.15,-166.47"/>
</g>
<!-- Node53 -->
<g id="node39" class="node">
<title>Node53</title>
<g id="a_node39"><a xlink:href="../../d3/d4f/mouse__coordinates_8cpp.html" target="_top" xlink:title=" ">
<polygon fill="white" stroke="black" points="1776,-73 1776,-103 1910,-103 1910,-73 1776,-73"/>
<text text-anchor="start" x="1784" y="-91" font-family="Helvetica,sans-Serif" font-size="10.00">src/libs/vwidgets/mouse</text>
<text text-anchor="middle" x="1843" y="-80" font-family="Helvetica,sans-Serif" font-size="10.00">_coordinates.cpp</text>
</a>
</g>
</g>
<!-- Node19&#45;&gt;Node53 -->
<g id="edge46" class="edge">
<title>Node19&#45;&gt;Node53</title>
<path fill="none" stroke="midnightblue" d="M3287.01,-163.97C2993.05,-160.69 2182.91,-148.24 1919,-109 1909.42,-107.58 1899.31,-105.4 1889.69,-103.01"/>
<polygon fill="midnightblue" stroke="midnightblue" points="3287.21,-167.48 3297.25,-164.09 3287.29,-160.48 3287.21,-167.48"/>
</g>
<!-- Node28 -->
<g id="node40" class="node">
<title>Node28</title>
<g id="a_node40"><a xlink:href="../../d2/d28/page__format__combobox_8cpp.html" target="_top" xlink:title=" ">
<polygon fill="white" stroke="black" points="1928.5,-73 1928.5,-103 2059.5,-103 2059.5,-73 1928.5,-73"/>
<text text-anchor="start" x="1936.5" y="-91" font-family="Helvetica,sans-Serif" font-size="10.00">src/libs/vwidgets/page</text>
<text text-anchor="middle" x="1994" y="-80" font-family="Helvetica,sans-Serif" font-size="10.00">_format_combobox.cpp</text>
</a>
</g>
</g>
<!-- Node19&#45;&gt;Node28 -->
<g id="edge47" class="edge">
<title>Node19&#45;&gt;Node28</title>
<path fill="none" stroke="midnightblue" d="M3286.74,-163.52C3013.65,-159.3 2301.86,-145.08 2068,-109 2058.79,-107.58 2049.09,-105.44 2039.85,-103.08"/>
<polygon fill="midnightblue" stroke="midnightblue" points="3287,-167.03 3297.06,-163.68 3287.11,-160.03 3287,-167.03"/>
</g>
<!-- Node25 -->
<g id="node41" class="node">
<title>Node25</title>
<g id="a_node41"><a xlink:href="../../df/d40/export__format__combobox_8cpp.html" target="_top" xlink:title=" ">
<polygon fill="white" stroke="black" points="2077.5,-73 2077.5,-103 2210.5,-103 2210.5,-73 2077.5,-73"/>
<text text-anchor="start" x="2085.5" y="-91" font-family="Helvetica,sans-Serif" font-size="10.00">src/libs/vwidgets/export</text>
<text text-anchor="middle" x="2144" y="-80" font-family="Helvetica,sans-Serif" font-size="10.00">_format_combobox.cpp</text>
</a>
</g>
</g>
<!-- Node19&#45;&gt;Node25 -->
<g id="edge48" class="edge">
<title>Node19&#45;&gt;Node25</title>
<path fill="none" stroke="midnightblue" d="M3287.14,-162.8C3036.96,-157.23 2422.95,-140.68 2219,-109 2209.68,-107.55 2199.85,-105.4 2190.48,-103.04"/>
<polygon fill="midnightblue" stroke="midnightblue" points="3287.26,-166.3 3297.34,-163.03 3287.42,-159.31 3287.26,-166.3"/>
</g>
<!-- Node54 -->
<g id="node42" class="node">
<title>Node54</title>
<g id="a_node42"><a xlink:href="../../d7/d1b/pen__toolbar_8cpp.html" target="_top" xlink:title=" ">
<polygon fill="white" stroke="black" points="2228.5,-73 2228.5,-103 2347.5,-103 2347.5,-73 2228.5,-73"/>
<text text-anchor="start" x="2236.5" y="-91" font-family="Helvetica,sans-Serif" font-size="10.00">src/libs/vwidgets/pen</text>
<text text-anchor="middle" x="2288" y="-80" font-family="Helvetica,sans-Serif" font-size="10.00">_toolbar.cpp</text>
</a>
</g>
</g>
<!-- Node19&#45;&gt;Node54 -->
<g id="edge49" class="edge">
<title>Node19&#45;&gt;Node54</title>
<path fill="none" stroke="midnightblue" d="M3287.13,-162.3C3058.84,-156.07 2533.33,-138.91 2357,-109 2348.39,-107.54 2339.33,-105.38 2330.71,-103.02"/>
<polygon fill="midnightblue" stroke="midnightblue" points="3287.35,-165.81 3297.44,-162.58 3287.54,-158.81 3287.35,-165.81"/>
</g>
<!-- Node55 -->
<g id="node43" class="node">
<title>Node55</title>
<g id="a_node43"><a xlink:href="../../d8/d76/scene__rect_8cpp.html" target="_top" xlink:title=" ">
<polygon fill="white" stroke="black" points="2366,-73 2366,-103 2496,-103 2496,-73 2366,-73"/>
<text text-anchor="start" x="2374" y="-91" font-family="Helvetica,sans-Serif" font-size="10.00">src/libs/vwidgets/scene</text>
<text text-anchor="middle" x="2431" y="-80" font-family="Helvetica,sans-Serif" font-size="10.00">_rect.cpp</text>
</a>
</g>
</g>
<!-- Node19&#45;&gt;Node55 -->
<g id="edge50" class="edge">
<title>Node19&#45;&gt;Node55</title>
<path fill="none" stroke="midnightblue" d="M3287.39,-165.18C3119.26,-163.9 2784.56,-155.09 2505,-109 2495.94,-107.51 2486.39,-105.36 2477.27,-103.03"/>
<polygon fill="midnightblue" stroke="midnightblue" points="3287.46,-168.68 3297.48,-165.25 3287.51,-161.68 3287.46,-168.68"/>
</g>
<!-- Node56 -->
<g id="node44" class="node">
<title>Node56</title>
<g id="a_node44"><a xlink:href="../../dd/df6/vabstractmainwindow_8cpp.html" target="_top" xlink:title=" ">
<polygon fill="white" stroke="black" points="2514.5,-78.5 2514.5,-97.5 2743.5,-97.5 2743.5,-78.5 2514.5,-78.5"/>
<text text-anchor="middle" x="2629" y="-85.5" font-family="Helvetica,sans-Serif" font-size="10.00">src/libs/vwidgets/vabstractmainwindow.cpp</text>
</a>
</g>
</g>
<!-- Node19&#45;&gt;Node56 -->
<g id="edge51" class="edge">
<title>Node19&#45;&gt;Node56</title>
<path fill="none" stroke="midnightblue" d="M3287.07,-158.06C3159.12,-149.27 2939.56,-132.38 2752,-109 2726.88,-105.87 2699.03,-101.42 2676.19,-97.52"/>
<polygon fill="midnightblue" stroke="midnightblue" points="3287.05,-161.57 3297.27,-158.76 3287.53,-154.58 3287.05,-161.57"/>
</g>
<!-- Node38&#45;&gt;Node39 -->
<g id="edge30" class="edge">
<title>Node38&#45;&gt;Node39</title>
<path fill="none" stroke="midnightblue" d="M4635.66,-64.06C4629.28,-53.09 4621.84,-40.3 4616.28,-30.75"/>
<polygon fill="midnightblue" stroke="midnightblue" points="4632.65,-65.85 4640.7,-72.73 4638.7,-62.33 4632.65,-65.85"/>
</g>
<!-- Node49&#45;&gt;Node50 -->
<g id="edge43" class="edge">
<title>Node49&#45;&gt;Node50</title>
<path fill="none" stroke="midnightblue" d="M1623.63,-70.26C1628.77,-68.94 1633.96,-67.81 1639,-67 1971.52,-13.46 4333.38,-41.97 4670,-31 4745.86,-28.53 4833.51,-23.46 4888.35,-20.02"/>
<polygon fill="midnightblue" stroke="midnightblue" points="1622.56,-66.93 1613.87,-72.99 1624.45,-73.67 1622.56,-66.93"/>
</g>
<!-- Node67&#45;&gt;Node3 -->
<g id="edge54" class="edge">
<title>Node67&#45;&gt;Node3</title>
<path fill="none" stroke="midnightblue" d="M6169.95,-137.92C6178.89,-128.2 6188.8,-117.45 6197.03,-108.51"/>
<polygon fill="midnightblue" stroke="midnightblue" points="6167.23,-135.7 6163.03,-145.43 6172.38,-140.44 6167.23,-135.7"/>
</g>
</g>
</svg>
