<?xml version="1.0" encoding="UTF-8" standalone="no"?>
<!DOCTYPE svg PUBLIC "-//W3C//DTD SVG 1.1//EN"
 "http://www.w3.org/Graphics/SVG/1.1/DTD/svg11.dtd">
<!-- Generated by graphviz version 2.43.0 (0)
 -->
<!-- Title: src/libs/vtools/tools/drawTools/toolcurve/vabstractspline.h Pages: 1 -->
<!--zoomable 384 -->
<svg id="main" version="1.1" xmlns="http://www.w3.org/2000/svg" xmlns:xlink="http://www.w3.org/1999/xlink" xml:space="preserve" onload="init(evt)">
<style type="text/css"><![CDATA[
.edge:hover path { stroke: red; }
.edge:hover polygon { stroke: red; fill: red; }
]]></style>
<script type="text/javascript"><![CDATA[
var edges = document.getElementsByTagName('g');
if (edges && edges.length) {
  for (var i=0;i<edges.length;i++) {
    if (edges[i].id.substr(0,4)=='edge') {
      edges[i].setAttribute('class','edge');
    }
  }
}
]]></script>
        <defs>
                <circle id="rim" cx="0" cy="0" r="7"/>
                <circle id="rim2" cx="0" cy="0" r="3.5"/>
                <g id="zoomPlus">
                        <use xlink:href="#rim" fill="#404040">
                                <set attributeName="fill" to="#808080" begin="zoomplus.mouseover" end="zoomplus.mouseout"/>
                        </use>
                        <path d="M-4,0h8M0,-4v8" fill="none" stroke="white" stroke-width="1.5" pointer-events="none"/>
                </g>
                <g id="zoomMin">
                        <use xlink:href="#rim" fill="#404040">
                                <set attributeName="fill" to="#808080" begin="zoomminus.mouseover" end="zoomminus.mouseout"/>
                        </use>
                        <path d="M-4,0h8" fill="none" stroke="white" stroke-width="1.5" pointer-events="none"/>
                </g>
                <g id="dirArrow">
                        <path fill="none" stroke="white" stroke-width="1.5" d="M0,-3.0v7 M-2.5,-0.5L0,-3.0L2.5,-0.5"/>
                </g>
               <g id="resetDef">
                       <use xlink:href="#rim2" fill="#404040">
                               <set attributeName="fill" to="#808080" begin="reset.mouseover" end="reset.mouseout"/>
                       </use>
               </g>
        </defs>

<script type="text/javascript">
var viewWidth = 2411;
var viewHeight = 384;
var sectionId = 'dynsection-1';
</script>
<script xlink:href="../../svgpan.js"/>
<svg id="graph" class="graph">
<g id="viewport">
<title>src/libs/vtools/tools/drawTools/toolcurve/vabstractspline.h</title>
<polygon fill="white" stroke="transparent" points="-4,4 -4,-380 2407,-380 2407,4 -4,4"/>
<!-- Node1 -->
<g id="node1" class="node">
<title>Node1</title>
<g id="a_node1"><a xlink:title=" ">
<polygon fill="#bfbfbf" stroke="black" points="713,-334.5 713,-375.5 830,-375.5 830,-334.5 713,-334.5"/>
<text text-anchor="start" x="721" y="-363.5" font-family="Helvetica,sans-Serif" font-size="10.00">src/libs/vtools/tools</text>
<text text-anchor="start" x="721" y="-352.5" font-family="Helvetica,sans-Serif" font-size="10.00">/drawTools/toolcurve</text>
<text text-anchor="middle" x="771.5" y="-341.5" font-family="Helvetica,sans-Serif" font-size="10.00">/vabstractspline.h</text>
</a>
</g>
</g>
<!-- Node2 -->
<g id="node2" class="node">
<title>Node2</title>
<g id="a_node2"><a xlink:href="../../d1/d05/vabstractspline_8cpp.html" target="_top" xlink:title=" ">
<polygon fill="white" stroke="black" points="0,-251 0,-292 117,-292 117,-251 0,-251"/>
<text text-anchor="start" x="8" y="-280" font-family="Helvetica,sans-Serif" font-size="10.00">src/libs/vtools/tools</text>
<text text-anchor="start" x="8" y="-269" font-family="Helvetica,sans-Serif" font-size="10.00">/drawTools/toolcurve</text>
<text text-anchor="middle" x="58.5" y="-258" font-family="Helvetica,sans-Serif" font-size="10.00">/vabstractspline.cpp</text>
</a>
</g>
</g>
<!-- Node1&#45;&gt;Node2 -->
<g id="edge1" class="edge">
<title>Node1&#45;&gt;Node2</title>
<path fill="none" stroke="midnightblue" d="M702.68,-354.24C583.54,-353.29 331.82,-345.24 125.5,-298 118.71,-296.44 111.68,-294.35 104.84,-292.03"/>
<polygon fill="midnightblue" stroke="midnightblue" points="702.73,-357.74 712.76,-354.31 702.78,-350.74 702.73,-357.74"/>
</g>
<!-- Node3 -->
<g id="node3" class="node">
<title>Node3</title>
<g id="a_node3"><a xlink:href="../../d3/d19/vtoolarc_8h.html" target="_top" xlink:title=" ">
<polygon fill="white" stroke="black" points="309,-251 309,-292 426,-292 426,-251 309,-251"/>
<text text-anchor="start" x="317" y="-280" font-family="Helvetica,sans-Serif" font-size="10.00">src/libs/vtools/tools</text>
<text text-anchor="start" x="317" y="-269" font-family="Helvetica,sans-Serif" font-size="10.00">/drawTools/toolcurve</text>
<text text-anchor="middle" x="367.5" y="-258" font-family="Helvetica,sans-Serif" font-size="10.00">/vtoolarc.h</text>
</a>
</g>
</g>
<!-- Node1&#45;&gt;Node3 -->
<g id="edge2" class="edge">
<title>Node1&#45;&gt;Node3</title>
<path fill="none" stroke="midnightblue" d="M702.8,-345.81C635.36,-336.97 529.89,-321 440.5,-298 433.87,-296.29 426.98,-294.26 420.21,-292.09"/>
<polygon fill="midnightblue" stroke="midnightblue" points="702.51,-349.31 712.88,-347.12 703.41,-342.36 702.51,-349.31"/>
</g>
<!-- Node4 -->
<g id="node4" class="node">
<title>Node4</title>
<g id="a_node4"><a xlink:href="../../d2/d9b/vtoolarc_8cpp.html" target="_top" xlink:title=" ">
<polygon fill="white" stroke="black" points="371,-162 371,-203 488,-203 488,-162 371,-162"/>
<text text-anchor="start" x="379" y="-191" font-family="Helvetica,sans-Serif" font-size="10.00">src/libs/vtools/tools</text>
<text text-anchor="start" x="379" y="-180" font-family="Helvetica,sans-Serif" font-size="10.00">/drawTools/toolcurve</text>
<text text-anchor="middle" x="429.5" y="-169" font-family="Helvetica,sans-Serif" font-size="10.00">/vtoolarc.cpp</text>
</a>
</g>
</g>
<!-- Node1&#45;&gt;Node4 -->
<g id="edge6" class="edge">
<title>Node1&#45;&gt;Node4</title>
<path fill="none" stroke="midnightblue" d="M702.93,-346.29C633.15,-337.33 530.79,-320.83 498.5,-298 465.15,-274.42 445.04,-229.14 435.73,-203.15"/>
<polygon fill="midnightblue" stroke="midnightblue" points="702.62,-349.77 712.98,-347.55 703.49,-342.83 702.62,-349.77"/>
</g>
<!-- Node7 -->
<g id="node7" class="node">
<title>Node7</title>
<g id="a_node7"><a xlink:href="../../de/dd9/vtoolarcwithlength_8h.html" target="_top" xlink:title=" ">
<polygon fill="white" stroke="black" points="520.5,-251 520.5,-292 640.5,-292 640.5,-251 520.5,-251"/>
<text text-anchor="start" x="528.5" y="-280" font-family="Helvetica,sans-Serif" font-size="10.00">src/libs/vtools/tools</text>
<text text-anchor="start" x="528.5" y="-269" font-family="Helvetica,sans-Serif" font-size="10.00">/drawTools/toolcurve</text>
<text text-anchor="middle" x="580.5" y="-258" font-family="Helvetica,sans-Serif" font-size="10.00">/vtoolarcwithlength.h</text>
</a>
</g>
</g>
<!-- Node1&#45;&gt;Node7 -->
<g id="edge7" class="edge">
<title>Node1&#45;&gt;Node7</title>
<path fill="none" stroke="midnightblue" d="M716.31,-330.45C687.73,-318.26 653.27,-303.55 626.21,-292"/>
<polygon fill="midnightblue" stroke="midnightblue" points="715.18,-333.77 725.75,-334.48 717.93,-327.33 715.18,-333.77"/>
</g>
<!-- Node8 -->
<g id="node8" class="node">
<title>Node8</title>
<g id="a_node8"><a xlink:href="../../d3/d33/vtoolarcwithlength_8cpp.html" target="_top" xlink:title=" ">
<polygon fill="white" stroke="black" points="506,-162 506,-203 637,-203 637,-162 506,-162"/>
<text text-anchor="start" x="514" y="-191" font-family="Helvetica,sans-Serif" font-size="10.00">src/libs/vtools/tools</text>
<text text-anchor="start" x="514" y="-180" font-family="Helvetica,sans-Serif" font-size="10.00">/drawTools/toolcurve</text>
<text text-anchor="middle" x="571.5" y="-169" font-family="Helvetica,sans-Serif" font-size="10.00">/vtoolarcwithlength.cpp</text>
</a>
</g>
</g>
<!-- Node1&#45;&gt;Node8 -->
<g id="edge10" class="edge">
<title>Node1&#45;&gt;Node8</title>
<path fill="none" stroke="midnightblue" d="M702.41,-348.75C633.66,-341.91 535.09,-327.21 511.5,-298 496.7,-279.67 502.62,-266.82 511.5,-245 518.25,-228.42 531.85,-213.87 544.4,-203.09"/>
<polygon fill="midnightblue" stroke="midnightblue" points="702.46,-352.27 712.75,-349.74 703.13,-345.3 702.46,-352.27"/>
</g>
<!-- Node9 -->
<g id="node9" class="node">
<title>Node9</title>
<g id="a_node9"><a xlink:href="../../d4/df1/vtoolcubicbezier_8h.html" target="_top" xlink:title=" ">
<polygon fill="white" stroke="black" points="135,-251 135,-292 252,-292 252,-251 135,-251"/>
<text text-anchor="start" x="143" y="-280" font-family="Helvetica,sans-Serif" font-size="10.00">src/libs/vtools/tools</text>
<text text-anchor="start" x="143" y="-269" font-family="Helvetica,sans-Serif" font-size="10.00">/drawTools/toolcurve</text>
<text text-anchor="middle" x="193.5" y="-258" font-family="Helvetica,sans-Serif" font-size="10.00">/vtoolcubicbezier.h</text>
</a>
</g>
</g>
<!-- Node1&#45;&gt;Node9 -->
<g id="edge11" class="edge">
<title>Node1&#45;&gt;Node9</title>
<path fill="none" stroke="midnightblue" d="M702.79,-351.29C604.86,-346.32 419.99,-332.85 266.5,-298 259.43,-296.39 252.1,-294.33 244.92,-292.08"/>
<polygon fill="midnightblue" stroke="midnightblue" points="702.69,-354.79 712.85,-351.79 703.04,-347.8 702.69,-354.79"/>
</g>
<!-- Node10 -->
<g id="node10" class="node">
<title>Node10</title>
<g id="a_node10"><a xlink:href="../../db/dcd/vtoolcubicbezier_8cpp.html" target="_top" xlink:title=" ">
<polygon fill="white" stroke="black" points="195,-162 195,-203 314,-203 314,-162 195,-162"/>
<text text-anchor="start" x="203" y="-191" font-family="Helvetica,sans-Serif" font-size="10.00">src/libs/vtools/tools</text>
<text text-anchor="start" x="203" y="-180" font-family="Helvetica,sans-Serif" font-size="10.00">/drawTools/toolcurve</text>
<text text-anchor="middle" x="254.5" y="-169" font-family="Helvetica,sans-Serif" font-size="10.00">/vtoolcubicbezier.cpp</text>
</a>
</g>
</g>
<!-- Node1&#45;&gt;Node10 -->
<g id="edge14" class="edge">
<title>Node1&#45;&gt;Node10</title>
<path fill="none" stroke="midnightblue" d="M702.42,-354.28C586.85,-353.38 360.93,-345.41 299.5,-298 269.74,-275.04 259.63,-229.53 256.22,-203.33"/>
<polygon fill="midnightblue" stroke="midnightblue" points="702.55,-357.78 712.57,-354.34 702.59,-350.78 702.55,-357.78"/>
</g>
<!-- Node11 -->
<g id="node11" class="node">
<title>Node11</title>
<g id="a_node11"><a xlink:href="../../d6/d25/vtoolcubicbezierpath_8h.html" target="_top" xlink:title=" ">
<polygon fill="white" stroke="black" points="659,-251 659,-292 790,-292 790,-251 659,-251"/>
<text text-anchor="start" x="667" y="-280" font-family="Helvetica,sans-Serif" font-size="10.00">src/libs/vtools/tools</text>
<text text-anchor="start" x="667" y="-269" font-family="Helvetica,sans-Serif" font-size="10.00">/drawTools/toolcurve</text>
<text text-anchor="middle" x="724.5" y="-258" font-family="Helvetica,sans-Serif" font-size="10.00">/vtoolcubicbezierpath.h</text>
</a>
</g>
</g>
<!-- Node1&#45;&gt;Node11 -->
<g id="edge15" class="edge">
<title>Node1&#45;&gt;Node11</title>
<path fill="none" stroke="midnightblue" d="M755,-325.39C748.64,-314.37 741.53,-302.03 735.77,-292.05"/>
<polygon fill="midnightblue" stroke="midnightblue" points="752.09,-327.36 760.12,-334.27 758.16,-323.86 752.09,-327.36"/>
</g>
<!-- Node12 -->
<g id="node12" class="node">
<title>Node12</title>
<g id="a_node12"><a xlink:href="../../d4/d49/vtoolcubicbezierpath_8cpp.html" target="_top" xlink:title=" ">
<polygon fill="white" stroke="black" points="731.5,-162 731.5,-203 873.5,-203 873.5,-162 731.5,-162"/>
<text text-anchor="start" x="739.5" y="-191" font-family="Helvetica,sans-Serif" font-size="10.00">src/libs/vtools/tools</text>
<text text-anchor="start" x="739.5" y="-180" font-family="Helvetica,sans-Serif" font-size="10.00">/drawTools/toolcurve</text>
<text text-anchor="middle" x="802.5" y="-169" font-family="Helvetica,sans-Serif" font-size="10.00">/vtoolcubicbezierpath.cpp</text>
</a>
</g>
</g>
<!-- Node1&#45;&gt;Node12 -->
<g id="edge18" class="edge">
<title>Node1&#45;&gt;Node12</title>
<path fill="none" stroke="midnightblue" d="M788.19,-325.19C792.33,-316.7 796.23,-307.21 798.5,-298 806.51,-265.56 805.73,-226.39 804.25,-203.29"/>
<polygon fill="midnightblue" stroke="midnightblue" points="784.98,-323.79 783.49,-334.28 791.19,-327.01 784.98,-323.79"/>
</g>
<!-- Node13 -->
<g id="node13" class="node">
<title>Node13</title>
<g id="a_node13"><a xlink:href="../../d5/d63/vtoolellipticalarc_8h.html" target="_top" xlink:title=" ">
<polygon fill="white" stroke="black" points="847,-251 847,-292 964,-292 964,-251 847,-251"/>
<text text-anchor="start" x="855" y="-280" font-family="Helvetica,sans-Serif" font-size="10.00">src/libs/vtools/tools</text>
<text text-anchor="start" x="855" y="-269" font-family="Helvetica,sans-Serif" font-size="10.00">/drawTools/toolcurve</text>
<text text-anchor="middle" x="905.5" y="-258" font-family="Helvetica,sans-Serif" font-size="10.00">/vtoolellipticalarc.h</text>
</a>
</g>
</g>
<!-- Node1&#45;&gt;Node13 -->
<g id="edge19" class="edge">
<title>Node1&#45;&gt;Node13</title>
<path fill="none" stroke="midnightblue" d="M812.3,-329.19C831.83,-317.3 854.9,-303.27 873.2,-292.14"/>
<polygon fill="midnightblue" stroke="midnightblue" points="810.32,-326.29 803.6,-334.48 813.96,-332.27 810.32,-326.29"/>
</g>
<!-- Node14 -->
<g id="node14" class="node">
<title>Node14</title>
<g id="a_node14"><a xlink:href="../../d8/dc7/vtoolellipticalarc_8cpp.html" target="_top" xlink:title=" ">
<polygon fill="white" stroke="black" points="929.5,-162 929.5,-203 1051.5,-203 1051.5,-162 929.5,-162"/>
<text text-anchor="start" x="937.5" y="-191" font-family="Helvetica,sans-Serif" font-size="10.00">src/libs/vtools/tools</text>
<text text-anchor="start" x="937.5" y="-180" font-family="Helvetica,sans-Serif" font-size="10.00">/drawTools/toolcurve</text>
<text text-anchor="middle" x="990.5" y="-169" font-family="Helvetica,sans-Serif" font-size="10.00">/vtoolellipticalarc.cpp</text>
</a>
</g>
</g>
<!-- Node1&#45;&gt;Node14 -->
<g id="edge22" class="edge">
<title>Node1&#45;&gt;Node14</title>
<path fill="none" stroke="midnightblue" d="M840.21,-342.99C891.19,-333.39 954.8,-317.88 972.5,-298 995.78,-271.85 995.73,-228.35 993.31,-203.17"/>
<polygon fill="midnightblue" stroke="midnightblue" points="839.4,-339.58 830.2,-344.84 840.66,-346.47 839.4,-339.58"/>
</g>
<!-- Node15 -->
<g id="node15" class="node">
<title>Node15</title>
<g id="a_node15"><a xlink:href="../../db/d8c/vtoolspline_8h.html" target="_top" xlink:title=" ">
<polygon fill="white" stroke="black" points="1021,-251 1021,-292 1138,-292 1138,-251 1021,-251"/>
<text text-anchor="start" x="1029" y="-280" font-family="Helvetica,sans-Serif" font-size="10.00">src/libs/vtools/tools</text>
<text text-anchor="start" x="1029" y="-269" font-family="Helvetica,sans-Serif" font-size="10.00">/drawTools/toolcurve</text>
<text text-anchor="middle" x="1079.5" y="-258" font-family="Helvetica,sans-Serif" font-size="10.00">/vtoolspline.h</text>
</a>
</g>
</g>
<!-- Node1&#45;&gt;Node15 -->
<g id="edge23" class="edge">
<title>Node1&#45;&gt;Node15</title>
<path fill="none" stroke="midnightblue" d="M840.16,-339.58C887.28,-329.21 951.07,-314.24 1006.5,-298 1012.68,-296.19 1019.12,-294.16 1025.48,-292.06"/>
<polygon fill="midnightblue" stroke="midnightblue" points="839.39,-336.17 830.36,-341.72 840.88,-343 839.39,-336.17"/>
</g>
<!-- Node16 -->
<g id="node16" class="node">
<title>Node16</title>
<g id="a_node16"><a xlink:href="../../d0/d39/vtoolspline_8cpp.html" target="_top" xlink:title=" ">
<polygon fill="white" stroke="black" points="1108,-162 1108,-203 1225,-203 1225,-162 1108,-162"/>
<text text-anchor="start" x="1116" y="-191" font-family="Helvetica,sans-Serif" font-size="10.00">src/libs/vtools/tools</text>
<text text-anchor="start" x="1116" y="-180" font-family="Helvetica,sans-Serif" font-size="10.00">/drawTools/toolcurve</text>
<text text-anchor="middle" x="1166.5" y="-169" font-family="Helvetica,sans-Serif" font-size="10.00">/vtoolspline.cpp</text>
</a>
</g>
</g>
<!-- Node1&#45;&gt;Node16 -->
<g id="edge26" class="edge">
<title>Node1&#45;&gt;Node16</title>
<path fill="none" stroke="midnightblue" d="M840.29,-353.05C936.48,-350.21 1104.16,-339.3 1146.5,-298 1171.78,-273.34 1171.84,-228.89 1169.35,-203.23"/>
<polygon fill="midnightblue" stroke="midnightblue" points="839.97,-349.56 830.07,-353.33 840.16,-356.55 839.97,-349.56"/>
</g>
<!-- Node17 -->
<g id="node17" class="node">
<title>Node17</title>
<g id="a_node17"><a xlink:href="../../d6/d38/vtoolsplinepath_8h.html" target="_top" xlink:title=" ">
<polygon fill="white" stroke="black" points="1251,-251 1251,-292 1368,-292 1368,-251 1251,-251"/>
<text text-anchor="start" x="1259" y="-280" font-family="Helvetica,sans-Serif" font-size="10.00">src/libs/vtools/tools</text>
<text text-anchor="start" x="1259" y="-269" font-family="Helvetica,sans-Serif" font-size="10.00">/drawTools/toolcurve</text>
<text text-anchor="middle" x="1309.5" y="-258" font-family="Helvetica,sans-Serif" font-size="10.00">/vtoolsplinepath.h</text>
</a>
</g>
</g>
<!-- Node1&#45;&gt;Node17 -->
<g id="edge27" class="edge">
<title>Node1&#45;&gt;Node17</title>
<path fill="none" stroke="midnightblue" d="M840.38,-345.83C921.82,-335.88 1061.36,-317.91 1180.5,-298 1203.58,-294.14 1228.86,-289.29 1250.87,-284.85"/>
<polygon fill="midnightblue" stroke="midnightblue" points="839.75,-342.38 830.25,-347.06 840.6,-349.33 839.75,-342.38"/>
</g>
<!-- Node18 -->
<g id="node18" class="node">
<title>Node18</title>
<g id="a_node18"><a xlink:href="../../d8/d1f/vtoolsplinepath_8cpp.html" target="_top" xlink:title=" ">
<polygon fill="white" stroke="black" points="1465,-162 1465,-203 1582,-203 1582,-162 1465,-162"/>
<text text-anchor="start" x="1473" y="-191" font-family="Helvetica,sans-Serif" font-size="10.00">src/libs/vtools/tools</text>
<text text-anchor="start" x="1473" y="-180" font-family="Helvetica,sans-Serif" font-size="10.00">/drawTools/toolcurve</text>
<text text-anchor="middle" x="1523.5" y="-169" font-family="Helvetica,sans-Serif" font-size="10.00">/vtoolsplinepath.cpp</text>
</a>
</g>
</g>
<!-- Node1&#45;&gt;Node18 -->
<g id="edge31" class="edge">
<title>Node1&#45;&gt;Node18</title>
<path fill="none" stroke="midnightblue" d="M840.51,-352.46C977.88,-348.62 1280.56,-335.99 1376.5,-298 1430.04,-276.8 1480.19,-229.73 1505.79,-203.01"/>
<polygon fill="midnightblue" stroke="midnightblue" points="840.02,-348.98 830.12,-352.75 840.21,-355.97 840.02,-348.98"/>
</g>
<!-- Node20 -->
<g id="node20" class="node">
<title>Node20</title>
<g id="a_node20"><a xlink:href="../../d7/d7d/vtoolcut_8h.html" target="_top" xlink:title=" ">
<polygon fill="white" stroke="black" points="1940,-245.5 1940,-297.5 2069,-297.5 2069,-245.5 1940,-245.5"/>
<text text-anchor="start" x="1948" y="-285.5" font-family="Helvetica,sans-Serif" font-size="10.00">src/libs/vtools/tools</text>
<text text-anchor="start" x="1948" y="-274.5" font-family="Helvetica,sans-Serif" font-size="10.00">/drawTools/toolpoint</text>
<text text-anchor="start" x="1948" y="-263.5" font-family="Helvetica,sans-Serif" font-size="10.00">/toolsinglepoint/toolcut</text>
<text text-anchor="middle" x="2004.5" y="-252.5" font-family="Helvetica,sans-Serif" font-size="10.00">/vtoolcut.h</text>
</a>
</g>
</g>
<!-- Node1&#45;&gt;Node20 -->
<g id="edge32" class="edge">
<title>Node1&#45;&gt;Node20</title>
<path fill="none" stroke="midnightblue" d="M840.14,-349.46C1057.47,-335.1 1728.54,-290.74 1939.99,-276.76"/>
<polygon fill="midnightblue" stroke="midnightblue" points="839.89,-345.97 830.14,-350.12 840.35,-352.96 839.89,-345.97"/>
</g>
<!-- Node3&#45;&gt;Node4 -->
<g id="edge3" class="edge">
<title>Node3&#45;&gt;Node4</title>
<path fill="none" stroke="midnightblue" d="M387.6,-242.3C396.71,-229.52 407.25,-214.72 415.49,-203.16"/>
<polygon fill="midnightblue" stroke="midnightblue" points="384.52,-240.58 381.57,-250.76 390.22,-244.65 384.52,-240.58"/>
</g>
<!-- Node5 -->
<g id="node5" class="node">
<title>Node5</title>
<g id="a_node5"><a xlink:href="../../d4/d56/drawtools_8h.html" target="_top" xlink:title=" ">
<polygon fill="white" stroke="black" points="926.5,-78.5 926.5,-108.5 1054.5,-108.5 1054.5,-78.5 926.5,-78.5"/>
<text text-anchor="start" x="934.5" y="-96.5" font-family="Helvetica,sans-Serif" font-size="10.00">src/libs/vtools/tools</text>
<text text-anchor="middle" x="990.5" y="-85.5" font-family="Helvetica,sans-Serif" font-size="10.00">/drawTools/drawtools.h</text>
</a>
</g>
</g>
<!-- Node3&#45;&gt;Node5 -->
<g id="edge4" class="edge">
<title>Node3&#45;&gt;Node5</title>
<path fill="none" stroke="midnightblue" d="M355.53,-241.07C347.23,-215.34 340.96,-178.65 361.5,-156 398.98,-114.68 773.89,-100.2 926.44,-95.99"/>
<polygon fill="midnightblue" stroke="midnightblue" points="352.28,-242.39 358.89,-250.68 358.89,-240.08 352.28,-242.39"/>
</g>
<!-- Node6 -->
<g id="node6" class="node">
<title>Node6</title>
<g id="a_node6"><a xlink:href="../../d5/da5/tools_8h.html" target="_top" xlink:title=" ">
<polygon fill="white" stroke="black" points="935,-0.5 935,-30.5 1046,-30.5 1046,-0.5 935,-0.5"/>
<text text-anchor="start" x="943" y="-18.5" font-family="Helvetica,sans-Serif" font-size="10.00">src/libs/vtools/tools</text>
<text text-anchor="middle" x="990.5" y="-7.5" font-family="Helvetica,sans-Serif" font-size="10.00">/tools.h</text>
</a>
</g>
</g>
<!-- Node5&#45;&gt;Node6 -->
<g id="edge5" class="edge">
<title>Node5&#45;&gt;Node6</title>
<path fill="none" stroke="midnightblue" d="M990.5,-68.09C990.5,-55.76 990.5,-41.22 990.5,-30.73"/>
<polygon fill="midnightblue" stroke="midnightblue" points="987,-68.2 990.5,-78.2 994,-68.21 987,-68.2"/>
</g>
<!-- Node7&#45;&gt;Node5 -->
<g id="edge9" class="edge">
<title>Node7&#45;&gt;Node5</title>
<path fill="none" stroke="midnightblue" d="M608.82,-243.87C643.91,-210.97 699.8,-158.94 705.5,-156 775.76,-119.68 866.42,-104.79 926.41,-98.69"/>
<polygon fill="midnightblue" stroke="midnightblue" points="606.14,-241.58 601.24,-250.97 610.93,-246.68 606.14,-241.58"/>
</g>
<!-- Node7&#45;&gt;Node8 -->
<g id="edge8" class="edge">
<title>Node7&#45;&gt;Node8</title>
<path fill="none" stroke="midnightblue" d="M577.39,-240.44C576.11,-228.1 574.67,-214.16 573.53,-203.16"/>
<polygon fill="midnightblue" stroke="midnightblue" points="573.95,-241.17 578.46,-250.76 580.91,-240.45 573.95,-241.17"/>
</g>
<!-- Node9&#45;&gt;Node5 -->
<g id="edge13" class="edge">
<title>Node9&#45;&gt;Node5</title>
<path fill="none" stroke="midnightblue" d="M180.7,-240.98C171.74,-215.19 164.7,-178.45 185.5,-156 235.48,-102.05 744.56,-95.23 926.39,-94.52"/>
<polygon fill="midnightblue" stroke="midnightblue" points="177.52,-242.48 184.31,-250.61 184.08,-240.02 177.52,-242.48"/>
</g>
<!-- Node9&#45;&gt;Node10 -->
<g id="edge12" class="edge">
<title>Node9&#45;&gt;Node10</title>
<path fill="none" stroke="midnightblue" d="M213.27,-242.3C222.24,-229.52 232.61,-214.72 240.71,-203.16"/>
<polygon fill="midnightblue" stroke="midnightblue" points="210.22,-240.56 207.34,-250.76 215.95,-244.58 210.22,-240.56"/>
</g>
<!-- Node11&#45;&gt;Node5 -->
<g id="edge17" class="edge">
<title>Node11&#45;&gt;Node5</title>
<path fill="none" stroke="midnightblue" d="M714.46,-240.89C707.91,-215.6 703.67,-179.65 722.5,-156 747.52,-124.59 855.41,-107.9 926.44,-100.15"/>
<polygon fill="midnightblue" stroke="midnightblue" points="711.14,-242.02 717.25,-250.68 717.88,-240.1 711.14,-242.02"/>
</g>
<!-- Node11&#45;&gt;Node12 -->
<g id="edge16" class="edge">
<title>Node11&#45;&gt;Node12</title>
<path fill="none" stroke="midnightblue" d="M749.13,-243.03C760.73,-230.09 774.31,-214.94 784.87,-203.16"/>
<polygon fill="midnightblue" stroke="midnightblue" points="746.27,-240.98 742.2,-250.76 751.48,-245.65 746.27,-240.98"/>
</g>
<!-- Node13&#45;&gt;Node5 -->
<g id="edge21" class="edge">
<title>Node13&#45;&gt;Node5</title>
<path fill="none" stroke="midnightblue" d="M903.8,-240.58C903.7,-216.4 906.52,-182.19 920.5,-156 931.16,-136.02 951.1,-119.5 966.97,-108.63"/>
<polygon fill="midnightblue" stroke="midnightblue" points="900.3,-240.67 904.01,-250.6 907.3,-240.53 900.3,-240.67"/>
</g>
<!-- Node13&#45;&gt;Node14 -->
<g id="edge20" class="edge">
<title>Node13&#45;&gt;Node14</title>
<path fill="none" stroke="midnightblue" d="M931.98,-243.4C944.7,-230.37 959.67,-215.05 971.29,-203.16"/>
<polygon fill="midnightblue" stroke="midnightblue" points="929.27,-241.16 924.79,-250.76 934.28,-246.05 929.27,-241.16"/>
</g>
<!-- Node15&#45;&gt;Node5 -->
<g id="edge25" class="edge">
<title>Node15&#45;&gt;Node5</title>
<path fill="none" stroke="midnightblue" d="M1079.96,-240.95C1079.12,-216.71 1075.08,-182.24 1060.5,-156 1049.42,-136.06 1029.31,-119.43 1013.48,-108.51"/>
<polygon fill="midnightblue" stroke="midnightblue" points="1076.46,-241.04 1080.14,-250.97 1083.46,-240.91 1076.46,-241.04"/>
</g>
<!-- Node15&#45;&gt;Node16 -->
<g id="edge24" class="edge">
<title>Node15&#45;&gt;Node16</title>
<path fill="none" stroke="midnightblue" d="M1106.6,-243.4C1119.63,-230.37 1134.95,-215.05 1146.84,-203.16"/>
<polygon fill="midnightblue" stroke="midnightblue" points="1103.84,-241.21 1099.24,-250.76 1108.79,-246.16 1103.84,-241.21"/>
</g>
<!-- Node17&#45;&gt;Node5 -->
<g id="edge28" class="edge">
<title>Node17&#45;&gt;Node5</title>
<path fill="none" stroke="midnightblue" d="M1292.34,-242.41C1272.58,-210.44 1241.77,-161.86 1233.5,-156 1180.59,-118.52 1106.95,-103.83 1054.64,-98.11"/>
<polygon fill="midnightblue" stroke="midnightblue" points="1289.37,-244.26 1297.59,-250.94 1295.33,-240.59 1289.37,-244.26"/>
</g>
<!-- Node17&#45;&gt;Node18 -->
<g id="edge29" class="edge">
<title>Node17&#45;&gt;Node18</title>
<path fill="none" stroke="midnightblue" d="M1366.84,-247.19C1400.71,-233.42 1443.12,-216.18 1475.26,-203.11"/>
<polygon fill="midnightblue" stroke="midnightblue" points="1365.47,-243.97 1357.53,-250.98 1368.11,-250.45 1365.47,-243.97"/>
</g>
<!-- Node19 -->
<g id="node19" class="node">
<title>Node19</title>
<g id="a_node19"><a xlink:href="../../dc/d3d/movesplinepath_8cpp.html" target="_top" xlink:title=" ">
<polygon fill="white" stroke="black" points="1282,-167.5 1282,-197.5 1447,-197.5 1447,-167.5 1282,-167.5"/>
<text text-anchor="start" x="1290" y="-185.5" font-family="Helvetica,sans-Serif" font-size="10.00">src/libs/vtools/undocommands</text>
<text text-anchor="middle" x="1364.5" y="-174.5" font-family="Helvetica,sans-Serif" font-size="10.00">/movesplinepath.cpp</text>
</a>
</g>
</g>
<!-- Node17&#45;&gt;Node19 -->
<g id="edge30" class="edge">
<title>Node17&#45;&gt;Node19</title>
<path fill="none" stroke="midnightblue" d="M1327.55,-241.95C1336.91,-227.14 1347.94,-209.69 1355.5,-197.74"/>
<polygon fill="midnightblue" stroke="midnightblue" points="1324.37,-240.44 1321.98,-250.76 1330.28,-244.18 1324.37,-240.44"/>
</g>
<!-- Node21 -->
<g id="node21" class="node">
<title>Node21</title>
<g id="a_node21"><a xlink:href="../../d5/dbe/vtoolcutarc_8h.html" target="_top" xlink:title=" ">
<polygon fill="white" stroke="black" points="1747,-156.5 1747,-208.5 1876,-208.5 1876,-156.5 1747,-156.5"/>
<text text-anchor="start" x="1755" y="-196.5" font-family="Helvetica,sans-Serif" font-size="10.00">src/libs/vtools/tools</text>
<text text-anchor="start" x="1755" y="-185.5" font-family="Helvetica,sans-Serif" font-size="10.00">/drawTools/toolpoint</text>
<text text-anchor="start" x="1755" y="-174.5" font-family="Helvetica,sans-Serif" font-size="10.00">/toolsinglepoint/toolcut</text>
<text text-anchor="middle" x="1811.5" y="-163.5" font-family="Helvetica,sans-Serif" font-size="10.00">/vtoolcutarc.h</text>
</a>
</g>
</g>
<!-- Node20&#45;&gt;Node21 -->
<g id="edge33" class="edge">
<title>Node20&#45;&gt;Node21</title>
<path fill="none" stroke="midnightblue" d="M1939.71,-241.29C1916.13,-230.67 1889.71,-218.76 1867.01,-208.52"/>
<polygon fill="midnightblue" stroke="midnightblue" points="1938.38,-244.53 1948.94,-245.45 1941.26,-238.15 1938.38,-244.53"/>
</g>
<!-- Node22 -->
<g id="node22" class="node">
<title>Node22</title>
<g id="a_node22"><a xlink:href="../../dc/db5/vtoolcutarc_8cpp.html" target="_top" xlink:title=" ">
<polygon fill="white" stroke="black" points="1754,-67.5 1754,-119.5 1883,-119.5 1883,-67.5 1754,-67.5"/>
<text text-anchor="start" x="1762" y="-107.5" font-family="Helvetica,sans-Serif" font-size="10.00">src/libs/vtools/tools</text>
<text text-anchor="start" x="1762" y="-96.5" font-family="Helvetica,sans-Serif" font-size="10.00">/drawTools/toolpoint</text>
<text text-anchor="start" x="1762" y="-85.5" font-family="Helvetica,sans-Serif" font-size="10.00">/toolsinglepoint/toolcut</text>
<text text-anchor="middle" x="1818.5" y="-74.5" font-family="Helvetica,sans-Serif" font-size="10.00">/vtoolcutarc.cpp</text>
</a>
</g>
</g>
<!-- Node20&#45;&gt;Node22 -->
<g id="edge39" class="edge">
<title>Node20&#45;&gt;Node22</title>
<path fill="none" stroke="midnightblue" d="M2045.69,-238.16C2053.75,-229.62 2061.07,-219.75 2065.5,-209 2074.47,-187.22 2080.22,-174.39 2065.5,-156 2019.97,-99.08 1976.06,-138.26 1905.5,-120 1898.34,-118.15 1890.87,-116.11 1883.46,-114.03"/>
<polygon fill="midnightblue" stroke="midnightblue" points="2043.11,-235.79 2038.47,-245.31 2048.04,-240.76 2043.11,-235.79"/>
</g>
<!-- Node23 -->
<g id="node23" class="node">
<title>Node23</title>
<g id="a_node23"><a xlink:href="../../d7/dea/vtoolcutspline_8h.html" target="_top" xlink:title=" ">
<polygon fill="white" stroke="black" points="1600,-156.5 1600,-208.5 1729,-208.5 1729,-156.5 1600,-156.5"/>
<text text-anchor="start" x="1608" y="-196.5" font-family="Helvetica,sans-Serif" font-size="10.00">src/libs/vtools/tools</text>
<text text-anchor="start" x="1608" y="-185.5" font-family="Helvetica,sans-Serif" font-size="10.00">/drawTools/toolpoint</text>
<text text-anchor="start" x="1608" y="-174.5" font-family="Helvetica,sans-Serif" font-size="10.00">/toolsinglepoint/toolcut</text>
<text text-anchor="middle" x="1664.5" y="-163.5" font-family="Helvetica,sans-Serif" font-size="10.00">/vtoolcutspline.h</text>
</a>
</g>
</g>
<!-- Node20&#45;&gt;Node23 -->
<g id="edge36" class="edge">
<title>Node20&#45;&gt;Node23</title>
<path fill="none" stroke="midnightblue" d="M1929.98,-255.62C1876.11,-244.32 1801.82,-227.58 1737.5,-209 1734.79,-208.22 1732.04,-207.39 1729.26,-206.54"/>
<polygon fill="midnightblue" stroke="midnightblue" points="1929.29,-259.06 1939.79,-257.67 1930.72,-252.2 1929.29,-259.06"/>
</g>
<!-- Node24 -->
<g id="node24" class="node">
<title>Node24</title>
<g id="a_node24"><a xlink:href="../../da/dae/vtoolcutspline_8cpp.html" target="_top" xlink:title=" ">
<polygon fill="white" stroke="black" points="1603,-67.5 1603,-119.5 1732,-119.5 1732,-67.5 1603,-67.5"/>
<text text-anchor="start" x="1611" y="-107.5" font-family="Helvetica,sans-Serif" font-size="10.00">src/libs/vtools/tools</text>
<text text-anchor="start" x="1611" y="-96.5" font-family="Helvetica,sans-Serif" font-size="10.00">/drawTools/toolpoint</text>
<text text-anchor="start" x="1611" y="-85.5" font-family="Helvetica,sans-Serif" font-size="10.00">/toolsinglepoint/toolcut</text>
<text text-anchor="middle" x="1667.5" y="-74.5" font-family="Helvetica,sans-Serif" font-size="10.00">/vtoolcutspline.cpp</text>
</a>
</g>
</g>
<!-- Node20&#45;&gt;Node24 -->
<g id="edge46" class="edge">
<title>Node20&#45;&gt;Node24</title>
<path fill="none" stroke="midnightblue" d="M2027.26,-236.3C2040.8,-211.28 2051.92,-178 2032.5,-156 1989.82,-107.65 1807.41,-134.21 1744.5,-120 1740.52,-119.1 1736.45,-118.08 1732.36,-116.97"/>
<polygon fill="midnightblue" stroke="midnightblue" points="2024.15,-234.69 2022.21,-245.1 2030.22,-238.17 2024.15,-234.69"/>
</g>
<!-- Node25 -->
<g id="node25" class="node">
<title>Node25</title>
<g id="a_node25"><a xlink:href="../../d2/dc5/vtoolcut_8cpp.html" target="_top" xlink:title=" ">
<polygon fill="white" stroke="black" points="1894,-156.5 1894,-208.5 2023,-208.5 2023,-156.5 1894,-156.5"/>
<text text-anchor="start" x="1902" y="-196.5" font-family="Helvetica,sans-Serif" font-size="10.00">src/libs/vtools/tools</text>
<text text-anchor="start" x="1902" y="-185.5" font-family="Helvetica,sans-Serif" font-size="10.00">/drawTools/toolpoint</text>
<text text-anchor="start" x="1902" y="-174.5" font-family="Helvetica,sans-Serif" font-size="10.00">/toolsinglepoint/toolcut</text>
<text text-anchor="middle" x="1958.5" y="-163.5" font-family="Helvetica,sans-Serif" font-size="10.00">/vtoolcut.cpp</text>
</a>
</g>
</g>
<!-- Node20&#45;&gt;Node25 -->
<g id="edge40" class="edge">
<title>Node20&#45;&gt;Node25</title>
<path fill="none" stroke="midnightblue" d="M1986.44,-236.35C1981.55,-227.1 1976.35,-217.26 1971.78,-208.61"/>
<polygon fill="midnightblue" stroke="midnightblue" points="1983.43,-238.13 1991.19,-245.34 1989.61,-234.86 1983.43,-238.13"/>
</g>
<!-- Node26 -->
<g id="node26" class="node">
<title>Node26</title>
<g id="a_node26"><a xlink:href="../../d6/d9d/vtoolcutsplinepath_8h.html" target="_top" xlink:title=" ">
<polygon fill="white" stroke="black" points="2118,-156.5 2118,-208.5 2247,-208.5 2247,-156.5 2118,-156.5"/>
<text text-anchor="start" x="2126" y="-196.5" font-family="Helvetica,sans-Serif" font-size="10.00">src/libs/vtools/tools</text>
<text text-anchor="start" x="2126" y="-185.5" font-family="Helvetica,sans-Serif" font-size="10.00">/drawTools/toolpoint</text>
<text text-anchor="start" x="2126" y="-174.5" font-family="Helvetica,sans-Serif" font-size="10.00">/toolsinglepoint/toolcut</text>
<text text-anchor="middle" x="2182.5" y="-163.5" font-family="Helvetica,sans-Serif" font-size="10.00">/vtoolcutsplinepath.h</text>
</a>
</g>
</g>
<!-- Node20&#45;&gt;Node26 -->
<g id="edge41" class="edge">
<title>Node20&#45;&gt;Node26</title>
<path fill="none" stroke="midnightblue" d="M2065.03,-240.92C2086.52,-230.41 2110.48,-218.7 2131.13,-208.61"/>
<polygon fill="midnightblue" stroke="midnightblue" points="2063.43,-237.8 2055.98,-245.34 2066.51,-244.09 2063.43,-237.8"/>
</g>
<!-- Node27 -->
<g id="node27" class="node">
<title>Node27</title>
<g id="a_node27"><a xlink:href="../../d1/ddf/vtoolcutsplinepath_8cpp.html" target="_top" xlink:title=" ">
<polygon fill="white" stroke="black" points="2272,-67.5 2272,-119.5 2403,-119.5 2403,-67.5 2272,-67.5"/>
<text text-anchor="start" x="2280" y="-107.5" font-family="Helvetica,sans-Serif" font-size="10.00">src/libs/vtools/tools</text>
<text text-anchor="start" x="2280" y="-96.5" font-family="Helvetica,sans-Serif" font-size="10.00">/drawTools/toolpoint</text>
<text text-anchor="start" x="2280" y="-85.5" font-family="Helvetica,sans-Serif" font-size="10.00">/toolsinglepoint/toolcut</text>
<text text-anchor="middle" x="2337.5" y="-74.5" font-family="Helvetica,sans-Serif" font-size="10.00">/vtoolcutsplinepath.cpp</text>
</a>
</g>
</g>
<!-- Node20&#45;&gt;Node27 -->
<g id="edge47" class="edge">
<title>Node20&#45;&gt;Node27</title>
<path fill="none" stroke="midnightblue" d="M2079.14,-266.09C2132.49,-259.82 2203.85,-244.81 2256.5,-209 2289.52,-186.54 2313.48,-145.87 2326.43,-119.53"/>
<polygon fill="midnightblue" stroke="midnightblue" points="2078.62,-262.62 2069.07,-267.19 2079.39,-269.58 2078.62,-262.62"/>
</g>
<!-- Node21&#45;&gt;Node5 -->
<g id="edge34" class="edge">
<title>Node21&#45;&gt;Node5</title>
<path fill="none" stroke="midnightblue" d="M1736.94,-156.13C1481.16,-103.57 1183.3,-95.43 1054.73,-94.42"/>
<polygon fill="midnightblue" stroke="midnightblue" points="1736.28,-159.57 1746.79,-158.18 1737.71,-152.71 1736.28,-159.57"/>
</g>
<!-- Node21&#45;&gt;Node22 -->
<g id="edge35" class="edge">
<title>Node21&#45;&gt;Node22</title>
<path fill="none" stroke="midnightblue" d="M1814.34,-146.19C1815.06,-137.28 1815.81,-127.9 1816.48,-119.61"/>
<polygon fill="midnightblue" stroke="midnightblue" points="1810.84,-146.09 1813.52,-156.34 1817.82,-146.65 1810.84,-146.09"/>
</g>
<!-- Node23&#45;&gt;Node5 -->
<g id="edge37" class="edge">
<title>Node23&#45;&gt;Node5</title>
<path fill="none" stroke="midnightblue" d="M1589.72,-156.06C1390.81,-113.23 1163.57,-100.28 1054.76,-96.26"/>
<polygon fill="midnightblue" stroke="midnightblue" points="1589.25,-159.54 1599.77,-158.25 1590.75,-152.7 1589.25,-159.54"/>
</g>
<!-- Node23&#45;&gt;Node24 -->
<g id="edge38" class="edge">
<title>Node23&#45;&gt;Node24</title>
<path fill="none" stroke="midnightblue" d="M1665.72,-146.19C1666.02,-137.28 1666.35,-127.9 1666.63,-119.61"/>
<polygon fill="midnightblue" stroke="midnightblue" points="1662.21,-146.22 1665.37,-156.34 1669.21,-146.46 1662.21,-146.22"/>
</g>
<!-- Node26&#45;&gt;Node5 -->
<g id="edge42" class="edge">
<title>Node26&#45;&gt;Node5</title>
<path fill="none" stroke="midnightblue" d="M2107.67,-167.12C2083.73,-162.97 2057.07,-158.81 2032.5,-156 1841.42,-134.19 1250.91,-106.27 1054.66,-97.36"/>
<polygon fill="midnightblue" stroke="midnightblue" points="2107.29,-170.61 2117.75,-168.9 2108.51,-163.72 2107.29,-170.61"/>
</g>
<!-- Node26&#45;&gt;Node27 -->
<g id="edge43" class="edge">
<title>Node26&#45;&gt;Node27</title>
<path fill="none" stroke="midnightblue" d="M2236.21,-151.35C2254.66,-141 2275.11,-129.52 2292.77,-119.61"/>
<polygon fill="midnightblue" stroke="midnightblue" points="2234.34,-148.39 2227.33,-156.34 2237.77,-154.49 2234.34,-148.39"/>
</g>
<!-- Node28 -->
<g id="node28" class="node">
<title>Node28</title>
<g id="a_node28"><a xlink:href="../../da/d99/vtoolcurveintersectaxis_8cpp.html" target="_top" xlink:title=" ">
<polygon fill="white" stroke="black" points="2097,-67.5 2097,-119.5 2254,-119.5 2254,-67.5 2097,-67.5"/>
<text text-anchor="start" x="2105" y="-107.5" font-family="Helvetica,sans-Serif" font-size="10.00">src/libs/vtools/tools</text>
<text text-anchor="start" x="2105" y="-96.5" font-family="Helvetica,sans-Serif" font-size="10.00">/drawTools/toolpoint</text>
<text text-anchor="start" x="2105" y="-85.5" font-family="Helvetica,sans-Serif" font-size="10.00">/toolsinglepoint/toollinepoint</text>
<text text-anchor="middle" x="2175.5" y="-74.5" font-family="Helvetica,sans-Serif" font-size="10.00">/vtoolcurveintersectaxis.cpp</text>
</a>
</g>
</g>
<!-- Node26&#45;&gt;Node28 -->
<g id="edge44" class="edge">
<title>Node26&#45;&gt;Node28</title>
<path fill="none" stroke="midnightblue" d="M2179.66,-146.19C2178.94,-137.28 2178.19,-127.9 2177.52,-119.61"/>
<polygon fill="midnightblue" stroke="midnightblue" points="2176.18,-146.65 2180.48,-156.34 2183.16,-146.09 2176.18,-146.65"/>
</g>
<!-- Node29 -->
<g id="node29" class="node">
<title>Node29</title>
<g id="a_node29"><a xlink:href="../../d7/d3d/vistoolcutsplinepath_8cpp.html" target="_top" xlink:title=" ">
<polygon fill="white" stroke="black" points="1914.5,-78.5 1914.5,-108.5 2078.5,-108.5 2078.5,-78.5 1914.5,-78.5"/>
<text text-anchor="start" x="1922.5" y="-96.5" font-family="Helvetica,sans-Serif" font-size="10.00">src/libs/vtools/visualization</text>
<text text-anchor="middle" x="1996.5" y="-85.5" font-family="Helvetica,sans-Serif" font-size="10.00">/path/vistoolcutsplinepath.cpp</text>
</a>
</g>
</g>
<!-- Node26&#45;&gt;Node29 -->
<g id="edge45" class="edge">
<title>Node26&#45;&gt;Node29</title>
<path fill="none" stroke="midnightblue" d="M2119.55,-152.06C2088.11,-137.35 2051.52,-120.23 2026.46,-108.52"/>
<polygon fill="midnightblue" stroke="midnightblue" points="2118.16,-155.27 2128.7,-156.34 2121.13,-148.93 2118.16,-155.27"/>
</g>
</g>
</svg>
        <g id="navigator" transform="translate(0 0)" fill="#404254">
                <rect fill="#f2f5e9" fill-opacity="0.5" stroke="#606060" stroke-width=".5" x="0" y="0" width="60" height="60"/>
                <use id="zoomplus" xlink:href="#zoomPlus" x="17" y="9" onmousedown="handleZoom(evt,'in')"/>
                <use id="zoomminus" xlink:href="#zoomMin" x="42" y="9" onmousedown="handleZoom(evt,'out')"/>
                <use id="reset" xlink:href="#resetDef" x="30" y="36" onmousedown="handleReset()"/>
                <g id="arrowUp" xlink:href="#dirArrow" transform="translate(30 24)" onmousedown="handlePan(0,-1)">
                  <use xlink:href="#rim" fill="#404040">
                        <set attributeName="fill" to="#808080" begin="arrowUp.mouseover" end="arrowUp.mouseout"/>
                  </use>
                  <path fill="none" stroke="white" stroke-width="1.5" d="M0,-3.0v7 M-2.5,-0.5L0,-3.0L2.5,-0.5"/>
                </g>
                <g id="arrowRight" xlink:href="#dirArrow" transform="rotate(90) translate(36 -43)" onmousedown="handlePan(1,0)">
                  <use xlink:href="#rim" fill="#404040">
                        <set attributeName="fill" to="#808080" begin="arrowRight.mouseover" end="arrowRight.mouseout"/>
                  </use>
                  <path fill="none" stroke="white" stroke-width="1.5" d="M0,-3.0v7 M-2.5,-0.5L0,-3.0L2.5,-0.5"/>
                </g>
                <g id="arrowDown" xlink:href="#dirArrow" transform="rotate(180) translate(-30 -48)" onmousedown="handlePan(0,1)">
                  <use xlink:href="#rim" fill="#404040">
                        <set attributeName="fill" to="#808080" begin="arrowDown.mouseover" end="arrowDown.mouseout"/>
                  </use>
                  <path fill="none" stroke="white" stroke-width="1.5" d="M0,-3.0v7 M-2.5,-0.5L0,-3.0L2.5,-0.5"/>
                </g>
                <g id="arrowLeft" xlink:href="#dirArrow" transform="rotate(270) translate(-36 17)" onmousedown="handlePan(-1,0)">
                  <use xlink:href="#rim" fill="#404040">
                        <set attributeName="fill" to="#808080" begin="arrowLeft.mouseover" end="arrowLeft.mouseout"/>
                  </use>
                  <path fill="none" stroke="white" stroke-width="1.5" d="M0,-3.0v7 M-2.5,-0.5L0,-3.0L2.5,-0.5"/>
                </g>
        </g>
        <svg viewBox="0 0 15 15" width="100%" height="30px" preserveAspectRatio="xMaxYMin meet">
         <g id="arrow_out" transform="scale(0.3 0.3)">
          <a xlink:href="vabstractspline_8h__dep__incl_org.svg" target="_base">
           <rect id="button" ry="5" rx="5" y="6" x="6" height="38" width="38"
                fill="#f2f5e9" fill-opacity="0.5" stroke="#606060" stroke-width="1.0"/>
           <path id="arrow"
             d="M 11.500037,31.436501 C 11.940474,20.09759 22.043105,11.32322 32.158766,21.979434 L 37.068811,17.246167 C 37.068811,17.246167 37.088388,32 37.088388,32 L 22.160133,31.978069 C 22.160133,31.978069 26.997745,27.140456 26.997745,27.140456 C 18.528582,18.264221 13.291696,25.230495 11.500037,31.436501 z"
             style="fill:#404040;"/>
          </a>
         </g>
        </svg>
</svg>
