<?xml version="1.0" encoding="UTF-8" standalone="no"?>
<!DOCTYPE svg PUBLIC "-//W3C//DTD SVG 1.1//EN"
 "http://www.w3.org/Graphics/SVG/1.1/DTD/svg11.dtd">
<!-- Generated by graphviz version 2.43.0 (0)
 -->
<!-- Title: src/libs/xerces&#45;c/macx/include/xercesc/validators/datatype/DoubleDatatypeValidator.hpp Pages: 1 -->
<svg width="562pt" height="117pt"
 viewBox="0.00 0.00 562.00 117.00" xmlns="http://www.w3.org/2000/svg" xmlns:xlink="http://www.w3.org/1999/xlink">
<g id="graph0" class="graph" transform="scale(1 1) rotate(0) translate(4 113)">
<title>src/libs/xerces&#45;c/macx/include/xercesc/validators/datatype/DoubleDatatypeValidator.hpp</title>
<polygon fill="white" stroke="transparent" points="-4,4 -4,-113 558,-113 558,4 -4,4"/>
<!-- Node1 -->
<g id="node1" class="node">
<title>Node1</title>
<g id="a_node1"><a xlink:title=" ">
<polygon fill="#bfbfbf" stroke="black" points="202.5,-67.5 202.5,-108.5 411.5,-108.5 411.5,-67.5 202.5,-67.5"/>
<text text-anchor="start" x="210.5" y="-96.5" font-family="Helvetica,sans-Serif" font-size="10.00">src/libs/xerces&#45;c/macx</text>
<text text-anchor="start" x="210.5" y="-85.5" font-family="Helvetica,sans-Serif" font-size="10.00">/include/xercesc/validators</text>
<text text-anchor="middle" x="307" y="-74.5" font-family="Helvetica,sans-Serif" font-size="10.00">/datatype/DoubleDatatypeValidator.hpp</text>
</a>
</g>
</g>
<!-- Node2 -->
<g id="node2" class="node">
<title>Node2</title>
<g id="a_node2"><a xlink:title=" ">
<polygon fill="white" stroke="#bfbfbf" points="0,-0.5 0,-30.5 212,-30.5 212,-0.5 0,-0.5"/>
<text text-anchor="start" x="8" y="-18.5" font-family="Helvetica,sans-Serif" font-size="10.00">xercesc/validators</text>
<text text-anchor="middle" x="106" y="-7.5" font-family="Helvetica,sans-Serif" font-size="10.00">/datatype/AbstractNumericValidator.hpp</text>
</a>
</g>
</g>
<!-- Node1&#45;&gt;Node2 -->
<g id="edge1" class="edge">
<title>Node1&#45;&gt;Node2</title>
<path fill="none" stroke="midnightblue" d="M251.28,-67.46C221.32,-56.95 184.69,-44.1 155.71,-33.93"/>
<polygon fill="midnightblue" stroke="midnightblue" points="156.79,-30.6 146.19,-30.6 154.47,-37.21 156.79,-30.6"/>
</g>
<!-- Node3 -->
<g id="node3" class="node">
<title>Node3</title>
<g id="a_node3"><a xlink:title=" ">
<polygon fill="white" stroke="#bfbfbf" points="230,-6 230,-25 384,-25 384,-6 230,-6"/>
<text text-anchor="middle" x="307" y="-13" font-family="Helvetica,sans-Serif" font-size="10.00">xercesc/util/RefVectorOf.hpp</text>
</a>
</g>
</g>
<!-- Node1&#45;&gt;Node3 -->
<g id="edge2" class="edge">
<title>Node1&#45;&gt;Node3</title>
<path fill="none" stroke="midnightblue" d="M307,-67.36C307,-57.3 307,-45.1 307,-35.18"/>
<polygon fill="midnightblue" stroke="midnightblue" points="310.5,-35.17 307,-25.17 303.5,-35.17 310.5,-35.17"/>
</g>
<!-- Node4 -->
<g id="node4" class="node">
<title>Node4</title>
<g id="a_node4"><a xlink:title=" ">
<polygon fill="white" stroke="#bfbfbf" points="402,-6 402,-25 554,-25 554,-6 402,-6"/>
<text text-anchor="middle" x="478" y="-13" font-family="Helvetica,sans-Serif" font-size="10.00">xercesc/util/XMLDouble.hpp</text>
</a>
</g>
</g>
<!-- Node1&#45;&gt;Node4 -->
<g id="edge3" class="edge">
<title>Node1&#45;&gt;Node4</title>
<path fill="none" stroke="midnightblue" d="M354.63,-67.36C384.43,-55.08 421.91,-39.63 447.69,-28.99"/>
<polygon fill="midnightblue" stroke="midnightblue" points="449.05,-32.22 456.96,-25.17 446.38,-25.75 449.05,-32.22"/>
</g>
</g>
</svg>
