<?xml version="1.0" encoding="UTF-8" standalone="no"?>
<!DOCTYPE svg PUBLIC "-//W3C//DTD SVG 1.1//EN"
 "http://www.w3.org/Graphics/SVG/1.1/DTD/svg11.dtd">
<!-- Generated by graphviz version 2.43.0 (0)
 -->
<!-- Title: src/libs/vwidgets/scalesceneitems.h Pages: 1 -->
<svg width="726pt" height="252pt"
 viewBox="0.00 0.00 725.50 252.00" xmlns="http://www.w3.org/2000/svg" xmlns:xlink="http://www.w3.org/1999/xlink">
<g id="graph0" class="graph" transform="scale(1 1) rotate(0) translate(4 248)">
<title>src/libs/vwidgets/scalesceneitems.h</title>
<polygon fill="white" stroke="transparent" points="-4,4 -4,-248 721.5,-248 721.5,4 -4,4"/>
<!-- Node1 -->
<g id="node1" class="node">
<title>Node1</title>
<g id="a_node1"><a xlink:title=" ">
<polygon fill="#bfbfbf" stroke="black" points="315,-224.5 315,-243.5 507,-243.5 507,-224.5 315,-224.5"/>
<text text-anchor="middle" x="411" y="-231.5" font-family="Helvetica,sans-Serif" font-size="10.00">src/libs/vwidgets/scalesceneitems.h</text>
</a>
</g>
</g>
<!-- Node2 -->
<g id="node2" class="node">
<title>Node2</title>
<g id="a_node2"><a xlink:title=" ">
<polygon fill="white" stroke="#bfbfbf" points="273,-168.5 273,-187.5 383,-187.5 383,-168.5 273,-168.5"/>
<text text-anchor="middle" x="328" y="-175.5" font-family="Helvetica,sans-Serif" font-size="10.00">QGraphicsLineItem</text>
</a>
</g>
</g>
<!-- Node1&#45;&gt;Node2 -->
<g id="edge1" class="edge">
<title>Node1&#45;&gt;Node2</title>
<path fill="none" stroke="midnightblue" d="M397.66,-224.32C384.84,-215.98 365.22,-203.21 350.06,-193.35"/>
<polygon fill="midnightblue" stroke="midnightblue" points="351.59,-190.17 341.3,-187.65 347.78,-196.04 351.59,-190.17"/>
</g>
<!-- Node3 -->
<g id="node3" class="node">
<title>Node3</title>
<g id="a_node3"><a xlink:href="../../d4/da4/def_8h.html" target="_top" xlink:title=" ">
<polygon fill="white" stroke="black" points="370,-112.5 370,-131.5 452,-131.5 452,-112.5 370,-112.5"/>
<text text-anchor="middle" x="411" y="-119.5" font-family="Helvetica,sans-Serif" font-size="10.00">../vmisc/def.h</text>
</a>
</g>
</g>
<!-- Node1&#45;&gt;Node3 -->
<g id="edge2" class="edge">
<title>Node1&#45;&gt;Node3</title>
<path fill="none" stroke="midnightblue" d="M411,-224.37C411,-206.62 411,-165.67 411,-141.6"/>
<polygon fill="midnightblue" stroke="midnightblue" points="414.5,-141.59 411,-131.59 407.5,-141.59 414.5,-141.59"/>
</g>
<!-- Node14 -->
<g id="node14" class="node">
<title>Node14</title>
<g id="a_node14"><a xlink:href="../../d7/d77/vcurvepathitem_8h.html" target="_top" xlink:title=" ">
<polygon fill="white" stroke="black" points="439.5,-168.5 439.5,-187.5 542.5,-187.5 542.5,-168.5 439.5,-168.5"/>
<text text-anchor="middle" x="491" y="-175.5" font-family="Helvetica,sans-Serif" font-size="10.00">vcurvepathitem.h</text>
</a>
</g>
</g>
<!-- Node1&#45;&gt;Node14 -->
<g id="edge13" class="edge">
<title>Node1&#45;&gt;Node14</title>
<path fill="none" stroke="midnightblue" d="M423.85,-224.32C436.22,-215.98 455.13,-203.21 469.74,-193.35"/>
<polygon fill="midnightblue" stroke="midnightblue" points="471.85,-196.15 478.18,-187.65 467.93,-190.35 471.85,-196.15"/>
</g>
<!-- Node4 -->
<g id="node4" class="node">
<title>Node4</title>
<g id="a_node4"><a xlink:title=" ">
<polygon fill="white" stroke="#bfbfbf" points="0,-56.5 0,-75.5 120,-75.5 120,-56.5 0,-56.5"/>
<text text-anchor="middle" x="60" y="-63.5" font-family="Helvetica,sans-Serif" font-size="10.00">qcompilerdetection.h</text>
</a>
</g>
</g>
<!-- Node3&#45;&gt;Node4 -->
<g id="edge3" class="edge">
<title>Node3&#45;&gt;Node4</title>
<path fill="none" stroke="midnightblue" d="M369.7,-114.65C309.51,-105.39 197.07,-88.09 125.51,-77.08"/>
<polygon fill="midnightblue" stroke="midnightblue" points="125.67,-73.56 115.26,-75.5 124.61,-80.48 125.67,-73.56"/>
</g>
<!-- Node5 -->
<g id="node5" class="node">
<title>Node5</title>
<g id="a_node5"><a xlink:title=" ">
<polygon fill="white" stroke="#bfbfbf" points="138,-56.5 138,-75.5 188,-75.5 188,-56.5 138,-56.5"/>
<text text-anchor="middle" x="163" y="-63.5" font-family="Helvetica,sans-Serif" font-size="10.00">QLineF</text>
</a>
</g>
</g>
<!-- Node3&#45;&gt;Node5 -->
<g id="edge4" class="edge">
<title>Node3&#45;&gt;Node5</title>
<path fill="none" stroke="midnightblue" d="M369.65,-112.82C326.65,-104.18 257.43,-89.91 198,-76 197.9,-75.98 197.8,-75.95 197.7,-75.93"/>
<polygon fill="midnightblue" stroke="midnightblue" points="198.75,-72.58 188.2,-73.62 197.09,-79.38 198.75,-72.58"/>
</g>
<!-- Node6 -->
<g id="node6" class="node">
<title>Node6</title>
<g id="a_node6"><a xlink:title=" ">
<polygon fill="white" stroke="#bfbfbf" points="206.5,-56.5 206.5,-75.5 259.5,-75.5 259.5,-56.5 206.5,-56.5"/>
<text text-anchor="middle" x="233" y="-63.5" font-family="Helvetica,sans-Serif" font-size="10.00">QString</text>
</a>
</g>
</g>
<!-- Node3&#45;&gt;Node6 -->
<g id="edge5" class="edge">
<title>Node3&#45;&gt;Node6</title>
<path fill="none" stroke="midnightblue" d="M382.8,-112.44C352.15,-103.15 303.07,-88.26 269.5,-78.07"/>
<polygon fill="midnightblue" stroke="midnightblue" points="270.2,-74.63 259.62,-75.08 268.17,-81.33 270.2,-74.63"/>
</g>
<!-- Node7 -->
<g id="node7" class="node">
<title>Node7</title>
<g id="a_node7"><a xlink:title=" ">
<polygon fill="white" stroke="#bfbfbf" points="278,-56.5 278,-75.5 348,-75.5 348,-56.5 278,-56.5"/>
<text text-anchor="middle" x="313" y="-63.5" font-family="Helvetica,sans-Serif" font-size="10.00">QStringList</text>
</a>
</g>
</g>
<!-- Node3&#45;&gt;Node7 -->
<g id="edge6" class="edge">
<title>Node3&#45;&gt;Node7</title>
<path fill="none" stroke="midnightblue" d="M395.25,-112.32C379.68,-103.74 355.62,-90.49 337.54,-80.52"/>
<polygon fill="midnightblue" stroke="midnightblue" points="339.15,-77.42 328.71,-75.65 335.78,-83.55 339.15,-77.42"/>
</g>
<!-- Node8 -->
<g id="node8" class="node">
<title>Node8</title>
<g id="a_node8"><a xlink:title=" ">
<polygon fill="white" stroke="#bfbfbf" points="366.5,-56.5 366.5,-75.5 395.5,-75.5 395.5,-56.5 366.5,-56.5"/>
<text text-anchor="middle" x="381" y="-63.5" font-family="Helvetica,sans-Serif" font-size="10.00">Qt</text>
</a>
</g>
</g>
<!-- Node3&#45;&gt;Node8 -->
<g id="edge7" class="edge">
<title>Node3&#45;&gt;Node8</title>
<path fill="none" stroke="midnightblue" d="M406.05,-112.08C401.9,-104.61 395.85,-93.72 390.73,-84.52"/>
<polygon fill="midnightblue" stroke="midnightblue" points="393.78,-82.79 385.86,-75.75 387.66,-86.19 393.78,-82.79"/>
</g>
<!-- Node9 -->
<g id="node9" class="node">
<title>Node9</title>
<g id="a_node9"><a xlink:title=" ">
<polygon fill="white" stroke="#bfbfbf" points="658.5,-56.5 658.5,-75.5 717.5,-75.5 717.5,-56.5 658.5,-56.5"/>
<text text-anchor="middle" x="688" y="-63.5" font-family="Helvetica,sans-Serif" font-size="10.00">QtGlobal</text>
</a>
</g>
</g>
<!-- Node3&#45;&gt;Node9 -->
<g id="edge8" class="edge">
<title>Node3&#45;&gt;Node9</title>
<path fill="none" stroke="midnightblue" d="M452.14,-113.85C497.8,-105.79 573.92,-91.95 648.17,-76.32"/>
<polygon fill="midnightblue" stroke="midnightblue" points="649.1,-79.7 658.16,-74.21 647.65,-72.85 649.1,-79.7"/>
</g>
<!-- Node10 -->
<g id="node10" class="node">
<title>Node10</title>
<g id="a_node10"><a xlink:title=" ">
<polygon fill="white" stroke="#bfbfbf" points="414,-56.5 414,-75.5 470,-75.5 470,-56.5 414,-56.5"/>
<text text-anchor="middle" x="442" y="-63.5" font-family="Helvetica,sans-Serif" font-size="10.00">QPrinter</text>
</a>
</g>
</g>
<!-- Node3&#45;&gt;Node10 -->
<g id="edge9" class="edge">
<title>Node3&#45;&gt;Node10</title>
<path fill="none" stroke="midnightblue" d="M416.12,-112.08C420.41,-104.61 426.66,-93.72 431.94,-84.52"/>
<polygon fill="midnightblue" stroke="midnightblue" points="435.03,-86.17 436.98,-75.75 428.96,-82.68 435.03,-86.17"/>
</g>
<!-- Node11 -->
<g id="node11" class="node">
<title>Node11</title>
<g id="a_node11"><a xlink:title=" ">
<polygon fill="white" stroke="#bfbfbf" points="488.5,-56.5 488.5,-75.5 539.5,-75.5 539.5,-56.5 488.5,-56.5"/>
<text text-anchor="middle" x="514" y="-63.5" font-family="Helvetica,sans-Serif" font-size="10.00">csignal</text>
</a>
</g>
</g>
<!-- Node3&#45;&gt;Node11 -->
<g id="edge10" class="edge">
<title>Node3&#45;&gt;Node11</title>
<path fill="none" stroke="midnightblue" d="M427.55,-112.32C443.99,-103.7 469.43,-90.36 488.47,-80.39"/>
<polygon fill="midnightblue" stroke="midnightblue" points="490.26,-83.4 497.49,-75.65 487.01,-77.2 490.26,-83.4"/>
</g>
<!-- Node12 -->
<g id="node12" class="node">
<title>Node12</title>
<g id="a_node12"><a xlink:href="../../d4/d82/debugbreak_8h.html" target="_top" xlink:title=" ">
<polygon fill="white" stroke="black" points="557.5,-56.5 557.5,-75.5 640.5,-75.5 640.5,-56.5 557.5,-56.5"/>
<text text-anchor="middle" x="599" y="-63.5" font-family="Helvetica,sans-Serif" font-size="10.00">debugbreak.h</text>
</a>
</g>
</g>
<!-- Node3&#45;&gt;Node12 -->
<g id="edge11" class="edge">
<title>Node3&#45;&gt;Node12</title>
<path fill="none" stroke="midnightblue" d="M440.79,-112.44C472.83,-103.24 523.93,-88.56 559.35,-78.39"/>
<polygon fill="midnightblue" stroke="midnightblue" points="560.71,-81.64 569.35,-75.52 558.77,-74.91 560.71,-81.64"/>
</g>
<!-- Node13 -->
<g id="node13" class="node">
<title>Node13</title>
<g id="a_node13"><a xlink:title=" ">
<polygon fill="white" stroke="#bfbfbf" points="571.5,-0.5 571.5,-19.5 626.5,-19.5 626.5,-0.5 571.5,-0.5"/>
<text text-anchor="middle" x="599" y="-7.5" font-family="Helvetica,sans-Serif" font-size="10.00">signal.h</text>
</a>
</g>
</g>
<!-- Node12&#45;&gt;Node13 -->
<g id="edge12" class="edge">
<title>Node12&#45;&gt;Node13</title>
<path fill="none" stroke="midnightblue" d="M599,-56.08C599,-49.01 599,-38.86 599,-29.99"/>
<polygon fill="midnightblue" stroke="midnightblue" points="602.5,-29.75 599,-19.75 595.5,-29.75 602.5,-29.75"/>
</g>
<!-- Node14&#45;&gt;Node3 -->
<g id="edge16" class="edge">
<title>Node14&#45;&gt;Node3</title>
<path fill="none" stroke="midnightblue" d="M478.15,-168.32C465.78,-159.98 446.87,-147.21 432.26,-137.35"/>
<polygon fill="midnightblue" stroke="midnightblue" points="434.07,-134.35 423.82,-131.65 430.15,-140.15 434.07,-134.35"/>
</g>
<!-- Node14&#45;&gt;Node9 -->
<g id="edge15" class="edge">
<title>Node14&#45;&gt;Node9</title>
<path fill="none" stroke="midnightblue" d="M490.95,-168.48C491.36,-154.61 494.26,-127.18 510,-112 512.54,-109.55 596.84,-88.93 648.5,-76.47"/>
<polygon fill="midnightblue" stroke="midnightblue" points="649.46,-79.84 658.36,-74.1 647.82,-73.04 649.46,-79.84"/>
</g>
<!-- Node15 -->
<g id="node15" class="node">
<title>Node15</title>
<g id="a_node15"><a xlink:title=" ">
<polygon fill="white" stroke="#bfbfbf" points="519,-112.5 519,-131.5 629,-131.5 629,-112.5 519,-112.5"/>
<text text-anchor="middle" x="574" y="-119.5" font-family="Helvetica,sans-Serif" font-size="10.00">QGraphicsPathItem</text>
</a>
</g>
</g>
<!-- Node14&#45;&gt;Node15 -->
<g id="edge14" class="edge">
<title>Node14&#45;&gt;Node15</title>
<path fill="none" stroke="midnightblue" d="M504.34,-168.32C517.16,-159.98 536.78,-147.21 551.94,-137.35"/>
<polygon fill="midnightblue" stroke="midnightblue" points="554.22,-140.04 560.7,-131.65 550.41,-134.17 554.22,-140.04"/>
</g>
</g>
</svg>
