<?xml version="1.0" encoding="UTF-8" standalone="no"?>
<!DOCTYPE svg PUBLIC "-//W3C//DTD SVG 1.1//EN"
 "http://www.w3.org/Graphics/SVG/1.1/DTD/svg11.dtd">
<!-- Generated by graphviz version 2.43.0 (0)
 -->
<!-- Title: src/libs/ifc/xml/abstract_m_converter.h Pages: 1 -->
<svg width="585pt" height="173pt"
 viewBox="0.00 0.00 585.00 173.00" xmlns="http://www.w3.org/2000/svg" xmlns:xlink="http://www.w3.org/1999/xlink">
<g id="graph0" class="graph" transform="scale(1 1) rotate(0) translate(4 169)">
<title>src/libs/ifc/xml/abstract_m_converter.h</title>
<polygon fill="white" stroke="transparent" points="-4,4 -4,-169 581,-169 581,4 -4,4"/>
<!-- Node1 -->
<g id="node1" class="node">
<title>Node1</title>
<g id="a_node1"><a xlink:title=" ">
<polygon fill="#bfbfbf" stroke="black" points="266,-134.5 266,-164.5 397,-164.5 397,-134.5 266,-134.5"/>
<text text-anchor="start" x="274" y="-152.5" font-family="Helvetica,sans-Serif" font-size="10.00">src/libs/ifc/xml/abstract</text>
<text text-anchor="middle" x="331.5" y="-141.5" font-family="Helvetica,sans-Serif" font-size="10.00">_m_converter.h</text>
</a>
</g>
</g>
<!-- Node2 -->
<g id="node2" class="node">
<title>Node2</title>
<g id="a_node2"><a xlink:href="../../d0/d93/individual__size__converter_8h.html" target="_top" xlink:title=" ">
<polygon fill="white" stroke="black" points="116,-67.5 116,-97.5 255,-97.5 255,-67.5 116,-67.5"/>
<text text-anchor="start" x="124" y="-85.5" font-family="Helvetica,sans-Serif" font-size="10.00">src/libs/ifc/xml/individual</text>
<text text-anchor="middle" x="185.5" y="-74.5" font-family="Helvetica,sans-Serif" font-size="10.00">_size_converter.h</text>
</a>
</g>
</g>
<!-- Node1&#45;&gt;Node2 -->
<g id="edge1" class="edge">
<title>Node1&#45;&gt;Node2</title>
<path fill="none" stroke="midnightblue" d="M290.55,-130.27C267.3,-119.92 238.63,-107.15 217.12,-97.58"/>
<polygon fill="midnightblue" stroke="midnightblue" points="289.26,-133.53 299.82,-134.4 292.11,-127.13 289.26,-133.53"/>
</g>
<!-- Node3 -->
<g id="node3" class="node">
<title>Node3</title>
<g id="a_node3"><a xlink:href="../../d5/d6e/individual__size__converter_8cpp.html" target="_top" xlink:title=" ">
<polygon fill="white" stroke="black" points="0,-0.5 0,-30.5 139,-30.5 139,-0.5 0,-0.5"/>
<text text-anchor="start" x="8" y="-18.5" font-family="Helvetica,sans-Serif" font-size="10.00">src/libs/ifc/xml/individual</text>
<text text-anchor="middle" x="69.5" y="-7.5" font-family="Helvetica,sans-Serif" font-size="10.00">_size_converter.cpp</text>
</a>
</g>
</g>
<!-- Node1&#45;&gt;Node3 -->
<g id="edge4" class="edge">
<title>Node1&#45;&gt;Node3</title>
<path fill="none" stroke="midnightblue" d="M255.93,-138.87C199.83,-130.4 129.28,-116.53 106.5,-98 85.4,-80.84 75.86,-49.06 71.93,-30.66"/>
<polygon fill="midnightblue" stroke="midnightblue" points="255.46,-142.34 265.86,-140.34 256.48,-135.42 255.46,-142.34"/>
</g>
<!-- Node5 -->
<g id="node5" class="node">
<title>Node5</title>
<g id="a_node5"><a xlink:href="../../d5/d4c/multi__size__converter_8h.html" target="_top" xlink:title=" ">
<polygon fill="white" stroke="black" points="273.5,-67.5 273.5,-97.5 389.5,-97.5 389.5,-67.5 273.5,-67.5"/>
<text text-anchor="start" x="281.5" y="-85.5" font-family="Helvetica,sans-Serif" font-size="10.00">src/libs/ifc/xml/multi</text>
<text text-anchor="middle" x="331.5" y="-74.5" font-family="Helvetica,sans-Serif" font-size="10.00">_size_converter.h</text>
</a>
</g>
</g>
<!-- Node1&#45;&gt;Node5 -->
<g id="edge5" class="edge">
<title>Node1&#45;&gt;Node5</title>
<path fill="none" stroke="midnightblue" d="M331.5,-124.11C331.5,-115.15 331.5,-105.32 331.5,-97.58"/>
<polygon fill="midnightblue" stroke="midnightblue" points="328,-124.4 331.5,-134.4 335,-124.4 328,-124.4"/>
</g>
<!-- Node6 -->
<g id="node6" class="node">
<title>Node6</title>
<g id="a_node6"><a xlink:href="../../d9/d94/multi__size__converter_8cpp.html" target="_top" xlink:title=" ">
<polygon fill="white" stroke="black" points="365.5,-0.5 365.5,-30.5 481.5,-30.5 481.5,-0.5 365.5,-0.5"/>
<text text-anchor="start" x="373.5" y="-18.5" font-family="Helvetica,sans-Serif" font-size="10.00">src/libs/ifc/xml/multi</text>
<text text-anchor="middle" x="423.5" y="-7.5" font-family="Helvetica,sans-Serif" font-size="10.00">_size_converter.cpp</text>
</a>
</g>
</g>
<!-- Node1&#45;&gt;Node6 -->
<g id="edge8" class="edge">
<title>Node1&#45;&gt;Node6</title>
<path fill="none" stroke="midnightblue" d="M365.74,-128.92C377.56,-120.7 389.96,-110.19 398.5,-98 413.02,-77.27 419.3,-47.87 421.87,-30.63"/>
<polygon fill="midnightblue" stroke="midnightblue" points="363.72,-126.06 357.31,-134.49 367.58,-131.9 363.72,-126.06"/>
</g>
<!-- Node7 -->
<g id="node7" class="node">
<title>Node7</title>
<g id="a_node7"><a xlink:href="../../de/dec/abstract__m__converter_8cpp.html" target="_top" xlink:title=" ">
<polygon fill="white" stroke="black" points="446,-67.5 446,-97.5 577,-97.5 577,-67.5 446,-67.5"/>
<text text-anchor="start" x="454" y="-85.5" font-family="Helvetica,sans-Serif" font-size="10.00">src/libs/ifc/xml/abstract</text>
<text text-anchor="middle" x="511.5" y="-74.5" font-family="Helvetica,sans-Serif" font-size="10.00">_m_converter.cpp</text>
</a>
</g>
</g>
<!-- Node1&#45;&gt;Node7 -->
<g id="edge9" class="edge">
<title>Node1&#45;&gt;Node7</title>
<path fill="none" stroke="midnightblue" d="M380.09,-130.96C409.08,-120.48 445.41,-107.37 472.52,-97.58"/>
<polygon fill="midnightblue" stroke="midnightblue" points="378.77,-127.71 370.56,-134.4 381.15,-134.29 378.77,-127.71"/>
</g>
<!-- Node2&#45;&gt;Node3 -->
<g id="edge2" class="edge">
<title>Node2&#45;&gt;Node3</title>
<path fill="none" stroke="midnightblue" d="M151.23,-62.3C133.08,-52.12 111.18,-39.85 94.62,-30.58"/>
<polygon fill="midnightblue" stroke="midnightblue" points="149.9,-65.56 160.33,-67.4 153.32,-59.45 149.9,-65.56"/>
</g>
<!-- Node4 -->
<g id="node4" class="node">
<title>Node4</title>
<g id="a_node4"><a xlink:href="../../d9/de3/measurements_8cpp.html" target="_top" xlink:title=" ">
<polygon fill="white" stroke="black" points="157.5,-6 157.5,-25 347.5,-25 347.5,-6 157.5,-6"/>
<text text-anchor="middle" x="252.5" y="-13" font-family="Helvetica,sans-Serif" font-size="10.00">src/libs/vformat/measurements.cpp</text>
</a>
</g>
</g>
<!-- Node2&#45;&gt;Node4 -->
<g id="edge3" class="edge">
<title>Node2&#45;&gt;Node4</title>
<path fill="none" stroke="midnightblue" d="M207.32,-60.34C219.62,-48.4 234.32,-34.14 243.54,-25.19"/>
<polygon fill="midnightblue" stroke="midnightblue" points="204.78,-57.92 200.04,-67.4 209.65,-62.94 204.78,-57.92"/>
</g>
<!-- Node5&#45;&gt;Node4 -->
<g id="edge7" class="edge">
<title>Node5&#45;&gt;Node4</title>
<path fill="none" stroke="midnightblue" d="M306.59,-61.01C291.93,-48.94 274.14,-34.3 263.07,-25.19"/>
<polygon fill="midnightblue" stroke="midnightblue" points="304.41,-63.75 314.36,-67.4 308.86,-58.34 304.41,-63.75"/>
</g>
<!-- Node5&#45;&gt;Node6 -->
<g id="edge6" class="edge">
<title>Node5&#45;&gt;Node6</title>
<path fill="none" stroke="midnightblue" d="M359.88,-61.45C374.03,-51.45 390.81,-39.6 403.58,-30.58"/>
<polygon fill="midnightblue" stroke="midnightblue" points="357.61,-58.77 351.46,-67.4 361.65,-64.48 357.61,-58.77"/>
</g>
</g>
</svg>
