<?xml version="1.0" encoding="UTF-8" standalone="no"?>
<!DOCTYPE svg PUBLIC "-//W3C//DTD SVG 1.1//EN"
 "http://www.w3.org/Graphics/SVG/1.1/DTD/svg11.dtd">
<!-- Generated by graphviz version 2.43.0 (0)
 -->
<!-- Title: src/libs/vpropertyexplorer/plugins/vnumberproperty.h Pages: 1 -->
<svg width="912pt" height="106pt"
 viewBox="0.00 0.00 911.50 106.00" xmlns="http://www.w3.org/2000/svg" xmlns:xlink="http://www.w3.org/1999/xlink">
<g id="graph0" class="graph" transform="scale(1 1) rotate(0) translate(4 102)">
<title>src/libs/vpropertyexplorer/plugins/vnumberproperty.h</title>
<polygon fill="white" stroke="transparent" points="-4,4 -4,-102 907.5,-102 907.5,4 -4,4"/>
<!-- Node1 -->
<g id="node1" class="node">
<title>Node1</title>
<g id="a_node1"><a xlink:title=" ">
<polygon fill="#bfbfbf" stroke="black" points="411,-67.5 411,-97.5 561,-97.5 561,-67.5 411,-67.5"/>
<text text-anchor="start" x="419" y="-85.5" font-family="Helvetica,sans-Serif" font-size="10.00">src/libs/vpropertyexplorer</text>
<text text-anchor="middle" x="486" y="-74.5" font-family="Helvetica,sans-Serif" font-size="10.00">/plugins/vnumberproperty.h</text>
</a>
</g>
</g>
<!-- Node2 -->
<g id="node2" class="node">
<title>Node2</title>
<g id="a_node2"><a xlink:href="../../d2/d8f/vvector3dproperty_8cpp.html" target="_top" xlink:title=" ">
<polygon fill="white" stroke="black" points="0,-0.5 0,-30.5 212,-30.5 212,-0.5 0,-0.5"/>
<text text-anchor="start" x="8" y="-18.5" font-family="Helvetica,sans-Serif" font-size="10.00">src/libs/vpropertyexplorer</text>
<text text-anchor="middle" x="106" y="-7.5" font-family="Helvetica,sans-Serif" font-size="10.00">/plugins/Vector3d/vvector3dproperty.cpp</text>
</a>
</g>
</g>
<!-- Node1&#45;&gt;Node2 -->
<g id="edge1" class="edge">
<title>Node1&#45;&gt;Node2</title>
<path fill="none" stroke="midnightblue" d="M400.93,-66.95C337.38,-56.08 251.01,-41.3 188.17,-30.55"/>
<polygon fill="midnightblue" stroke="midnightblue" points="400.48,-70.42 410.92,-68.66 401.66,-63.52 400.48,-70.42"/>
</g>
<!-- Node3 -->
<g id="node3" class="node">
<title>Node3</title>
<g id="a_node3"><a xlink:href="../../d7/dda/vnumberproperty_8cpp.html" target="_top" xlink:title=" ">
<polygon fill="white" stroke="black" points="230.5,-0.5 230.5,-30.5 391.5,-30.5 391.5,-0.5 230.5,-0.5"/>
<text text-anchor="start" x="238.5" y="-18.5" font-family="Helvetica,sans-Serif" font-size="10.00">src/libs/vpropertyexplorer</text>
<text text-anchor="middle" x="311" y="-7.5" font-family="Helvetica,sans-Serif" font-size="10.00">/plugins/vnumberproperty.cpp</text>
</a>
</g>
</g>
<!-- Node1&#45;&gt;Node3 -->
<g id="edge2" class="edge">
<title>Node1&#45;&gt;Node3</title>
<path fill="none" stroke="midnightblue" d="M438.4,-63.82C410.27,-53.37 375.14,-40.32 348.9,-30.58"/>
<polygon fill="midnightblue" stroke="midnightblue" points="437.43,-67.2 448.03,-67.4 439.87,-60.63 437.43,-67.2"/>
</g>
<!-- Node4 -->
<g id="node4" class="node">
<title>Node4</title>
<g id="a_node4"><a xlink:href="../../d2/dec/vpointfproperty_8cpp.html" target="_top" xlink:title=" ">
<polygon fill="white" stroke="black" points="410,-0.5 410,-30.5 562,-30.5 562,-0.5 410,-0.5"/>
<text text-anchor="start" x="418" y="-18.5" font-family="Helvetica,sans-Serif" font-size="10.00">src/libs/vpropertyexplorer</text>
<text text-anchor="middle" x="486" y="-7.5" font-family="Helvetica,sans-Serif" font-size="10.00">/plugins/vpointfproperty.cpp</text>
</a>
</g>
</g>
<!-- Node1&#45;&gt;Node4 -->
<g id="edge3" class="edge">
<title>Node1&#45;&gt;Node4</title>
<path fill="none" stroke="midnightblue" d="M486,-57.11C486,-48.15 486,-38.32 486,-30.58"/>
<polygon fill="midnightblue" stroke="midnightblue" points="482.5,-57.4 486,-67.4 489.5,-57.4 482.5,-57.4"/>
</g>
<!-- Node5 -->
<g id="node5" class="node">
<title>Node5</title>
<g id="a_node5"><a xlink:href="../../d7/d24/vproperties_8h.html" target="_top" xlink:title=" ">
<polygon fill="white" stroke="black" points="580,-0.5 580,-30.5 722,-30.5 722,-0.5 580,-0.5"/>
<text text-anchor="start" x="588" y="-18.5" font-family="Helvetica,sans-Serif" font-size="10.00">src/libs/vpropertyexplorer</text>
<text text-anchor="middle" x="651" y="-7.5" font-family="Helvetica,sans-Serif" font-size="10.00">/vproperties.h</text>
</a>
</g>
</g>
<!-- Node1&#45;&gt;Node5 -->
<g id="edge4" class="edge">
<title>Node1&#45;&gt;Node5</title>
<path fill="none" stroke="midnightblue" d="M531.23,-63.68C557.69,-53.26 590.63,-40.28 615.27,-30.58"/>
<polygon fill="midnightblue" stroke="midnightblue" points="529.82,-60.47 521.8,-67.4 532.39,-66.99 529.82,-60.47"/>
</g>
<!-- Node6 -->
<g id="node6" class="node">
<title>Node6</title>
<g id="a_node6"><a xlink:href="../../da/d93/vstandardpropertyfactory_8cpp.html" target="_top" xlink:title=" ">
<polygon fill="white" stroke="black" points="740.5,-0.5 740.5,-30.5 903.5,-30.5 903.5,-0.5 740.5,-0.5"/>
<text text-anchor="start" x="748.5" y="-18.5" font-family="Helvetica,sans-Serif" font-size="10.00">src/libs/vpropertyexplorer</text>
<text text-anchor="middle" x="822" y="-7.5" font-family="Helvetica,sans-Serif" font-size="10.00">/vstandardpropertyfactory.cpp</text>
</a>
</g>
</g>
<!-- Node1&#45;&gt;Node6 -->
<g id="edge5" class="edge">
<title>Node1&#45;&gt;Node6</title>
<path fill="none" stroke="midnightblue" d="M568.63,-65.52C623.98,-54.81 696.19,-40.84 749.35,-30.55"/>
<polygon fill="midnightblue" stroke="midnightblue" points="567.65,-62.14 558.49,-67.48 568.98,-69.01 567.65,-62.14"/>
</g>
</g>
</svg>
