<?xml version="1.0" encoding="UTF-8" standalone="no"?>
<!DOCTYPE svg PUBLIC "-//W3C//DTD SVG 1.1//EN"
 "http://www.w3.org/Graphics/SVG/1.1/DTD/svg11.dtd">
<!-- Generated by graphviz version 2.43.0 (0)
 -->
<!-- Title: src/test/Seamly2DTest/tst_qmutokenparser.cpp Pages: 1 -->
<svg width="508pt" height="151pt"
 viewBox="0.00 0.00 507.50 151.00" xmlns="http://www.w3.org/2000/svg" xmlns:xlink="http://www.w3.org/1999/xlink">
<g id="graph0" class="graph" transform="scale(1 1) rotate(0) translate(4 147)">
<title>src/test/Seamly2DTest/tst_qmutokenparser.cpp</title>
<polygon fill="white" stroke="transparent" points="-4,4 -4,-147 503.5,-147 503.5,4 -4,4"/>
<!-- Node1 -->
<g id="node1" class="node">
<title>Node1</title>
<g id="a_node1"><a xlink:title=" ">
<polygon fill="#bfbfbf" stroke="black" points="237.5,-112.5 237.5,-142.5 374.5,-142.5 374.5,-112.5 237.5,-112.5"/>
<text text-anchor="start" x="245.5" y="-130.5" font-family="Helvetica,sans-Serif" font-size="10.00">src/test/Seamly2DTest</text>
<text text-anchor="middle" x="306" y="-119.5" font-family="Helvetica,sans-Serif" font-size="10.00">/tst_qmutokenparser.cpp</text>
</a>
</g>
</g>
<!-- Node2 -->
<g id="node2" class="node">
<title>Node2</title>
<g id="a_node2"><a xlink:href="../../d1/ded/tst__qmutokenparser_8h.html" target="_top" xlink:title=" ">
<polygon fill="white" stroke="black" points="4,-56.5 4,-75.5 126,-75.5 126,-56.5 4,-56.5"/>
<text text-anchor="middle" x="65" y="-63.5" font-family="Helvetica,sans-Serif" font-size="10.00">tst_qmutokenparser.h</text>
</a>
</g>
</g>
<!-- Node1&#45;&gt;Node2 -->
<g id="edge1" class="edge">
<title>Node1&#45;&gt;Node2</title>
<path fill="none" stroke="midnightblue" d="M249.19,-112.47C206.43,-101.92 148.66,-87.66 109.29,-77.94"/>
<polygon fill="midnightblue" stroke="midnightblue" points="110,-74.51 99.45,-75.51 108.32,-81.3 110,-74.51"/>
</g>
<!-- Node5 -->
<g id="node5" class="node">
<title>Node5</title>
<g id="a_node5"><a xlink:title=" ">
<polygon fill="white" stroke="#bfbfbf" points="144.5,-56.5 144.5,-75.5 313.5,-75.5 313.5,-56.5 144.5,-56.5"/>
<text text-anchor="middle" x="229" y="-63.5" font-family="Helvetica,sans-Serif" font-size="10.00">../qmuparser/qmutokenparser.h</text>
</a>
</g>
</g>
<!-- Node1&#45;&gt;Node5 -->
<g id="edge4" class="edge">
<title>Node1&#45;&gt;Node5</title>
<path fill="none" stroke="midnightblue" d="M287.75,-112.4C275.87,-103.22 260.39,-91.26 248.31,-81.92"/>
<polygon fill="midnightblue" stroke="midnightblue" points="250.26,-79 240.2,-75.66 245.98,-84.54 250.26,-79"/>
</g>
<!-- Node6 -->
<g id="node6" class="node">
<title>Node6</title>
<g id="a_node6"><a xlink:title=" ">
<polygon fill="white" stroke="#bfbfbf" points="331.5,-56.5 331.5,-75.5 434.5,-75.5 434.5,-56.5 331.5,-56.5"/>
<text text-anchor="middle" x="383" y="-63.5" font-family="Helvetica,sans-Serif" font-size="10.00">../vmisc/logging.h</text>
</a>
</g>
</g>
<!-- Node1&#45;&gt;Node6 -->
<g id="edge5" class="edge">
<title>Node1&#45;&gt;Node6</title>
<path fill="none" stroke="midnightblue" d="M324.25,-112.4C336.13,-103.22 351.61,-91.26 363.69,-81.92"/>
<polygon fill="midnightblue" stroke="midnightblue" points="366.02,-84.54 371.8,-75.66 361.74,-79 366.02,-84.54"/>
</g>
<!-- Node7 -->
<g id="node7" class="node">
<title>Node7</title>
<g id="a_node7"><a xlink:title=" ">
<polygon fill="white" stroke="#bfbfbf" points="452.5,-56.5 452.5,-75.5 499.5,-75.5 499.5,-56.5 452.5,-56.5"/>
<text text-anchor="middle" x="476" y="-63.5" font-family="Helvetica,sans-Serif" font-size="10.00">QtTest</text>
</a>
</g>
</g>
<!-- Node1&#45;&gt;Node7 -->
<g id="edge6" class="edge">
<title>Node1&#45;&gt;Node7</title>
<path fill="none" stroke="midnightblue" d="M346.29,-112.4C375.67,-102.12 415.02,-88.34 442.64,-78.68"/>
<polygon fill="midnightblue" stroke="midnightblue" points="443.97,-81.92 452.25,-75.31 441.66,-75.31 443.97,-81.92"/>
</g>
<!-- Node3 -->
<g id="node3" class="node">
<title>Node3</title>
<g id="a_node3"><a xlink:title=" ">
<polygon fill="white" stroke="#bfbfbf" points="0,-0.5 0,-19.5 56,-19.5 56,-0.5 0,-0.5"/>
<text text-anchor="middle" x="28" y="-7.5" font-family="Helvetica,sans-Serif" font-size="10.00">QLocale</text>
</a>
</g>
</g>
<!-- Node2&#45;&gt;Node3 -->
<g id="edge2" class="edge">
<title>Node2&#45;&gt;Node3</title>
<path fill="none" stroke="midnightblue" d="M58.89,-56.08C53.72,-48.53 46.15,-37.49 39.81,-28.23"/>
<polygon fill="midnightblue" stroke="midnightblue" points="42.54,-26.02 34,-19.75 36.76,-29.98 42.54,-26.02"/>
</g>
<!-- Node4 -->
<g id="node4" class="node">
<title>Node4</title>
<g id="a_node4"><a xlink:title=" ">
<polygon fill="white" stroke="#bfbfbf" points="74,-0.5 74,-19.5 130,-19.5 130,-0.5 74,-0.5"/>
<text text-anchor="middle" x="102" y="-7.5" font-family="Helvetica,sans-Serif" font-size="10.00">QObject</text>
</a>
</g>
</g>
<!-- Node2&#45;&gt;Node4 -->
<g id="edge3" class="edge">
<title>Node2&#45;&gt;Node4</title>
<path fill="none" stroke="midnightblue" d="M71.11,-56.08C76.28,-48.53 83.85,-37.49 90.19,-28.23"/>
<polygon fill="midnightblue" stroke="midnightblue" points="93.24,-29.98 96,-19.75 87.46,-26.02 93.24,-29.98"/>
</g>
</g>
</svg>
