<?xml version="1.0" encoding="UTF-8" standalone="no"?>
<!DOCTYPE svg PUBLIC "-//W3C//DTD SVG 1.1//EN"
 "http://www.w3.org/Graphics/SVG/1.1/DTD/svg11.dtd">
<!-- Generated by graphviz version 2.43.0 (0)
 -->
<!-- Title: src/libs/qmuparser/qmuformulabase.cpp Pages: 1 -->
<svg width="1758pt" height="487pt"
 viewBox="0.00 0.00 1757.50 487.00" xmlns="http://www.w3.org/2000/svg" xmlns:xlink="http://www.w3.org/1999/xlink">
<g id="graph0" class="graph" transform="scale(1 1) rotate(0) translate(4 483)">
<title>src/libs/qmuparser/qmuformulabase.cpp</title>
<polygon fill="white" stroke="transparent" points="-4,4 -4,-483 1753.5,-483 1753.5,4 -4,4"/>
<!-- Node1 -->
<g id="node1" class="node">
<title>Node1</title>
<g id="a_node1"><a xlink:title=" ">
<polygon fill="#bfbfbf" stroke="black" points="1428.5,-448.5 1428.5,-478.5 1551.5,-478.5 1551.5,-448.5 1428.5,-448.5"/>
<text text-anchor="start" x="1436.5" y="-466.5" font-family="Helvetica,sans-Serif" font-size="10.00">src/libs/qmuparser</text>
<text text-anchor="middle" x="1490" y="-455.5" font-family="Helvetica,sans-Serif" font-size="10.00">/qmuformulabase.cpp</text>
</a>
</g>
</g>
<!-- Node2 -->
<g id="node2" class="node">
<title>Node2</title>
<g id="a_node2"><a xlink:href="../../d7/da3/qmuformulabase_8h.html" target="_top" xlink:title=" ">
<polygon fill="white" stroke="black" points="802.5,-392.5 802.5,-411.5 911.5,-411.5 911.5,-392.5 802.5,-392.5"/>
<text text-anchor="middle" x="857" y="-399.5" font-family="Helvetica,sans-Serif" font-size="10.00">qmuformulabase.h</text>
</a>
</g>
</g>
<!-- Node1&#45;&gt;Node2 -->
<g id="edge1" class="edge">
<title>Node1&#45;&gt;Node2</title>
<path fill="none" stroke="midnightblue" d="M1428.44,-456.71C1308.47,-445.44 1044.43,-420.62 921.86,-409.1"/>
<polygon fill="midnightblue" stroke="midnightblue" points="922.15,-405.61 911.87,-408.16 921.5,-412.58 922.15,-405.61"/>
</g>
<!-- Node4 -->
<g id="node4" class="node">
<title>Node4</title>
<g id="a_node4"><a xlink:title=" ">
<polygon fill="white" stroke="#bfbfbf" points="522.5,-0.5 522.5,-19.5 575.5,-19.5 575.5,-0.5 522.5,-0.5"/>
<text text-anchor="middle" x="549" y="-7.5" font-family="Helvetica,sans-Serif" font-size="10.00">QString</text>
</a>
</g>
</g>
<!-- Node1&#45;&gt;Node4 -->
<g id="edge79" class="edge">
<title>Node1&#45;&gt;Node4</title>
<path fill="none" stroke="midnightblue" d="M1428.47,-462.65C1257.99,-462.45 765.27,-457.64 359,-412 197.86,-393.9 0,-509.15 0,-347 0,-347 0,-347 0,-121 0,-78.54 31.25,-73.35 70,-56 149.07,-20.59 414.51,-13.02 512.37,-11.42"/>
<polygon fill="midnightblue" stroke="midnightblue" points="512.44,-14.92 522.38,-11.27 512.33,-7.92 512.44,-14.92"/>
</g>
<!-- Node10 -->
<g id="node10" class="node">
<title>Node10</title>
<g id="a_node10"><a xlink:title=" ">
<polygon fill="white" stroke="#bfbfbf" points="1314.5,-112.5 1314.5,-131.5 1361.5,-131.5 1361.5,-112.5 1314.5,-112.5"/>
<text text-anchor="middle" x="1338" y="-119.5" font-family="Helvetica,sans-Serif" font-size="10.00">QChar</text>
</a>
</g>
</g>
<!-- Node1&#45;&gt;Node10 -->
<g id="edge75" class="edge">
<title>Node1&#45;&gt;Node10</title>
<path fill="none" stroke="midnightblue" d="M1497.87,-448.41C1509,-427.13 1528,-385.21 1528,-347 1528,-347 1528,-347 1528,-289 1528,-258.9 1527.47,-247.76 1509,-224 1473.26,-178.02 1410.24,-148.75 1371.5,-134.15"/>
<polygon fill="midnightblue" stroke="midnightblue" points="1372.32,-130.73 1361.73,-130.59 1369.93,-137.3 1372.32,-130.73"/>
</g>
<!-- Node11 -->
<g id="node11" class="node">
<title>Node11</title>
<g id="a_node11"><a xlink:title=" ">
<polygon fill="white" stroke="#bfbfbf" points="1312.5,-0.5 1312.5,-19.5 1357.5,-19.5 1357.5,-0.5 1312.5,-0.5"/>
<text text-anchor="middle" x="1335" y="-7.5" font-family="Helvetica,sans-Serif" font-size="10.00">QMap</text>
</a>
</g>
</g>
<!-- Node1&#45;&gt;Node11 -->
<g id="edge78" class="edge">
<title>Node1&#45;&gt;Node11</title>
<path fill="none" stroke="midnightblue" d="M1551.69,-451.63C1607.17,-437.88 1680,-408.19 1680,-347 1680,-347 1680,-347 1680,-121 1680,-88.41 1453.66,-36.45 1367.64,-17.88"/>
<polygon fill="midnightblue" stroke="midnightblue" points="1368.15,-14.41 1357.64,-15.73 1366.68,-21.25 1368.15,-14.41"/>
</g>
<!-- Node13 -->
<g id="node13" class="node">
<title>Node13</title>
<g id="a_node13"><a xlink:title=" ">
<polygon fill="white" stroke="#bfbfbf" points="1430,-224.5 1430,-243.5 1500,-243.5 1500,-224.5 1430,-224.5"/>
<text text-anchor="middle" x="1465" y="-231.5" font-family="Helvetica,sans-Serif" font-size="10.00">QStringList</text>
</a>
</g>
</g>
<!-- Node1&#45;&gt;Node13 -->
<g id="edge80" class="edge">
<title>Node1&#45;&gt;Node13</title>
<path fill="none" stroke="midnightblue" d="M1488.44,-448.27C1484.11,-408.89 1471.98,-298.49 1467.08,-253.97"/>
<polygon fill="midnightblue" stroke="midnightblue" points="1470.55,-253.48 1465.98,-243.93 1463.59,-254.25 1470.55,-253.48"/>
</g>
<!-- Node17 -->
<g id="node17" class="node">
<title>Node17</title>
<g id="a_node17"><a xlink:title=" ">
<polygon fill="white" stroke="#bfbfbf" points="256,-112.5 256,-131.5 312,-131.5 312,-112.5 256,-112.5"/>
<text text-anchor="middle" x="284" y="-119.5" font-family="Helvetica,sans-Serif" font-size="10.00">QLocale</text>
</a>
</g>
</g>
<!-- Node1&#45;&gt;Node17 -->
<g id="edge77" class="edge">
<title>Node1&#45;&gt;Node17</title>
<path fill="none" stroke="midnightblue" d="M1428.47,-463.05C1184.59,-464.45 299,-461.65 299,-347 299,-347 299,-347 299,-233 299,-200.5 292.49,-163.1 288.05,-141.34"/>
<polygon fill="midnightblue" stroke="midnightblue" points="291.46,-140.56 285.96,-131.5 284.61,-142.01 291.46,-140.56"/>
</g>
<!-- Node34 -->
<g id="node34" class="node">
<title>Node34</title>
<g id="a_node34"><a xlink:title=" ">
<polygon fill="white" stroke="#bfbfbf" points="1708.5,-392.5 1708.5,-411.5 1749.5,-411.5 1749.5,-392.5 1708.5,-392.5"/>
<text text-anchor="middle" x="1729" y="-399.5" font-family="Helvetica,sans-Serif" font-size="10.00">QList</text>
</a>
</g>
</g>
<!-- Node1&#45;&gt;Node34 -->
<g id="edge76" class="edge">
<title>Node1&#45;&gt;Node34</title>
<path fill="none" stroke="midnightblue" d="M1547.19,-448.49C1588.1,-438.43 1644.47,-424.5 1694,-412 1695.44,-411.64 1696.92,-411.26 1698.42,-410.88"/>
<polygon fill="midnightblue" stroke="midnightblue" points="1699.46,-414.23 1708.28,-408.36 1697.72,-407.45 1699.46,-414.23"/>
</g>
<!-- Node3 -->
<g id="node3" class="node">
<title>Node3</title>
<g id="a_node3"><a xlink:title=" ">
<polygon fill="white" stroke="#bfbfbf" points="1280,-56.5 1280,-75.5 1400,-75.5 1400,-56.5 1280,-56.5"/>
<text text-anchor="middle" x="1340" y="-63.5" font-family="Helvetica,sans-Serif" font-size="10.00">qcompilerdetection.h</text>
</a>
</g>
</g>
<!-- Node2&#45;&gt;Node3 -->
<g id="edge2" class="edge">
<title>Node2&#45;&gt;Node3</title>
<path fill="none" stroke="midnightblue" d="M911.63,-398.71C1083.83,-390.77 1604,-361.01 1604,-291 1604,-291 1604,-291 1604,-233 1604,-138.05 1480.1,-95.29 1402.06,-77.77"/>
<polygon fill="midnightblue" stroke="midnightblue" points="1402.36,-74.25 1391.84,-75.56 1400.88,-81.1 1402.36,-74.25"/>
</g>
<!-- Node2&#45;&gt;Node4 -->
<g id="edge3" class="edge">
<title>Node2&#45;&gt;Node4</title>
<path fill="none" stroke="midnightblue" d="M802.31,-399.43C619.03,-393.43 38,-368.34 38,-291 38,-291 38,-291 38,-121 38,-23.98 394.5,-12.29 511.96,-11.07"/>
<polygon fill="midnightblue" stroke="midnightblue" points="512.28,-14.57 522.25,-10.99 512.22,-7.57 512.28,-14.57"/>
</g>
<!-- Node5 -->
<g id="node5" class="node">
<title>Node5</title>
<g id="a_node5"><a xlink:title=" ">
<polygon fill="white" stroke="#bfbfbf" points="339.5,-56.5 339.5,-75.5 398.5,-75.5 398.5,-56.5 339.5,-56.5"/>
<text text-anchor="middle" x="369" y="-63.5" font-family="Helvetica,sans-Serif" font-size="10.00">QtGlobal</text>
</a>
</g>
</g>
<!-- Node2&#45;&gt;Node5 -->
<g id="edge4" class="edge">
<title>Node2&#45;&gt;Node5</title>
<path fill="none" stroke="midnightblue" d="M802.47,-398.29C636.21,-389.31 147,-357.27 147,-291 147,-291 147,-291 147,-233 147,-168.04 177.01,-150.96 229,-112 258.52,-89.88 299.3,-78.4 329.24,-72.59"/>
<polygon fill="midnightblue" stroke="midnightblue" points="330.12,-75.98 339.34,-70.76 328.88,-69.1 330.12,-75.98"/>
</g>
<!-- Node6 -->
<g id="node6" class="node">
<title>Node6</title>
<g id="a_node6"><a xlink:href="../../d6/dc3/qmuparser_8h.html" target="_top" xlink:title="Definition of the standard floating point parser.">
<polygon fill="white" stroke="black" points="818.5,-336.5 818.5,-355.5 895.5,-355.5 895.5,-336.5 818.5,-336.5"/>
<text text-anchor="middle" x="857" y="-343.5" font-family="Helvetica,sans-Serif" font-size="10.00">qmuparser.h</text>
</a>
</g>
</g>
<!-- Node2&#45;&gt;Node6 -->
<g id="edge5" class="edge">
<title>Node2&#45;&gt;Node6</title>
<path fill="none" stroke="midnightblue" d="M857,-392.08C857,-385.01 857,-374.86 857,-365.99"/>
<polygon fill="midnightblue" stroke="midnightblue" points="860.5,-365.75 857,-355.75 853.5,-365.75 860.5,-365.75"/>
</g>
<!-- Node6&#45;&gt;Node3 -->
<g id="edge6" class="edge">
<title>Node6&#45;&gt;Node3</title>
<path fill="none" stroke="midnightblue" d="M895.65,-345.25C1023.45,-345.19 1428.87,-337.5 1509,-244 1564.11,-179.69 1430.93,-108.22 1369.27,-79.72"/>
<polygon fill="midnightblue" stroke="midnightblue" points="1370.59,-76.48 1360.03,-75.53 1367.69,-82.85 1370.59,-76.48"/>
</g>
<!-- Node6&#45;&gt;Node4 -->
<g id="edge7" class="edge">
<title>Node6&#45;&gt;Node4</title>
<path fill="none" stroke="midnightblue" d="M818.23,-344.24C748.25,-342.04 596.73,-333.45 474,-300 414.48,-283.78 401.47,-272.95 347,-244 305.73,-222.07 289.14,-222.85 258,-188 218.51,-143.8 197.14,-97.96 239,-56 276.62,-18.3 438.14,-11.95 511.95,-11.04"/>
<polygon fill="midnightblue" stroke="midnightblue" points="512.21,-14.54 522.18,-10.94 512.14,-7.54 512.21,-14.54"/>
</g>
<!-- Node6&#45;&gt;Node5 -->
<g id="edge8" class="edge">
<title>Node6&#45;&gt;Node5</title>
<path fill="none" stroke="midnightblue" d="M818.18,-343.55C720.15,-338.06 458.45,-311.95 290,-188 257.24,-163.89 215.41,-145.14 239,-112 259.26,-83.55 298.8,-72.92 328.98,-69.03"/>
<polygon fill="midnightblue" stroke="midnightblue" points="329.66,-72.48 339.22,-67.92 328.9,-65.52 329.66,-72.48"/>
</g>
<!-- Node7 -->
<g id="node7" class="node">
<title>Node7</title>
<g id="a_node7"><a xlink:title=" ">
<polygon fill="white" stroke="#bfbfbf" points="1405,-0.5 1405,-19.5 1451,-19.5 1451,-0.5 1405,-0.5"/>
<text text-anchor="middle" x="1428" y="-7.5" font-family="Helvetica,sans-Serif" font-size="10.00">locale</text>
</a>
</g>
</g>
<!-- Node6&#45;&gt;Node7 -->
<g id="edge9" class="edge">
<title>Node6&#45;&gt;Node7</title>
<path fill="none" stroke="midnightblue" d="M895.66,-345.17C1053.66,-344.87 1642,-333.36 1642,-179 1642,-179 1642,-179 1642,-121 1642,-40.81 1521.66,-19.03 1461.46,-13.15"/>
<polygon fill="midnightblue" stroke="midnightblue" points="1461.58,-9.65 1451.31,-12.26 1460.96,-16.62 1461.58,-9.65"/>
</g>
<!-- Node8 -->
<g id="node8" class="node">
<title>Node8</title>
<g id="a_node8"><a xlink:href="../../df/d18/qmuparserbase_8h.html" target="_top" xlink:title="This file contains the class definition of the qmuparser engine.">
<polygon fill="white" stroke="black" points="806.5,-280.5 806.5,-299.5 907.5,-299.5 907.5,-280.5 806.5,-280.5"/>
<text text-anchor="middle" x="857" y="-287.5" font-family="Helvetica,sans-Serif" font-size="10.00">qmuparserbase.h</text>
</a>
</g>
</g>
<!-- Node6&#45;&gt;Node8 -->
<g id="edge10" class="edge">
<title>Node6&#45;&gt;Node8</title>
<path fill="none" stroke="midnightblue" d="M857,-336.08C857,-329.01 857,-318.86 857,-309.99"/>
<polygon fill="midnightblue" stroke="midnightblue" points="860.5,-309.75 857,-299.75 853.5,-309.75 860.5,-309.75"/>
</g>
<!-- Node8&#45;&gt;Node3 -->
<g id="edge12" class="edge">
<title>Node8&#45;&gt;Node3</title>
<path fill="none" stroke="midnightblue" d="M907.56,-286.32C1001.72,-280.86 1200.27,-266.96 1265,-244 1334.68,-219.28 1367.17,-202.94 1388,-132 1390.5,-123.47 1391.53,-120.16 1388,-112 1382.73,-99.84 1372.38,-89.46 1362.64,-81.74"/>
<polygon fill="midnightblue" stroke="midnightblue" points="1364.5,-78.77 1354.37,-75.67 1360.36,-84.41 1364.5,-78.77"/>
</g>
<!-- Node8&#45;&gt;Node4 -->
<g id="edge16" class="edge">
<title>Node8&#45;&gt;Node4</title>
<path fill="none" stroke="midnightblue" d="M806.39,-289.38C722.46,-288.8 549.88,-282.48 410,-244 322.4,-219.9 271.8,-216.72 239,-132 196.22,-21.48 421.03,-10.39 512.07,-10.34"/>
<polygon fill="midnightblue" stroke="midnightblue" points="512.22,-13.84 522.23,-10.38 512.25,-6.84 512.22,-13.84"/>
</g>
<!-- Node8&#45;&gt;Node5 -->
<g id="edge19" class="edge">
<title>Node8&#45;&gt;Node5</title>
<path fill="none" stroke="midnightblue" d="M806.28,-288.95C729.96,-287.6 581.8,-280.03 462,-244 409.47,-228.2 400.65,-213.35 352,-188 305.1,-163.56 274.21,-177.35 247,-132 226.08,-97.14 286.28,-79.95 329.4,-72.31"/>
<polygon fill="midnightblue" stroke="midnightblue" points="330.09,-75.74 339.38,-70.66 328.95,-68.84 330.09,-75.74"/>
</g>
<!-- Node9 -->
<g id="node9" class="node">
<title>Node9</title>
<g id="a_node9"><a xlink:title=" ">
<polygon fill="white" stroke="#bfbfbf" points="795.5,-224.5 795.5,-243.5 848.5,-243.5 848.5,-224.5 795.5,-224.5"/>
<text text-anchor="middle" x="822" y="-231.5" font-family="Helvetica,sans-Serif" font-size="10.00">limits.h</text>
</a>
</g>
</g>
<!-- Node8&#45;&gt;Node9 -->
<g id="edge11" class="edge">
<title>Node8&#45;&gt;Node9</title>
<path fill="none" stroke="midnightblue" d="M851.22,-280.08C846.33,-272.53 839.17,-261.49 833.17,-252.23"/>
<polygon fill="midnightblue" stroke="midnightblue" points="836.05,-250.24 827.67,-243.75 830.17,-254.05 836.05,-250.24"/>
</g>
<!-- Node8&#45;&gt;Node10 -->
<g id="edge13" class="edge">
<title>Node8&#45;&gt;Node10</title>
<path fill="none" stroke="midnightblue" d="M907.72,-286.08C971.23,-281.46 1082.87,-270.14 1175,-244 1234.74,-227.05 1257.34,-230.08 1303,-188 1316.82,-175.26 1326.29,-155.79 1331.86,-141.48"/>
<polygon fill="midnightblue" stroke="midnightblue" points="1335.27,-142.33 1335.37,-131.74 1328.69,-139.96 1335.27,-142.33"/>
</g>
<!-- Node8&#45;&gt;Node11 -->
<g id="edge14" class="edge">
<title>Node8&#45;&gt;Node11</title>
<path fill="none" stroke="midnightblue" d="M907.75,-287.15C1009,-282.92 1232.51,-270.78 1304,-244 1344.3,-228.9 1356.73,-222.09 1383,-188 1414.19,-147.52 1406.73,-127.05 1409,-76 1409.4,-67.12 1413.36,-63.75 1409,-56 1399.97,-39.94 1382.62,-28.94 1366.99,-21.84"/>
<polygon fill="midnightblue" stroke="midnightblue" points="1368.15,-18.53 1357.58,-17.91 1365.46,-24.99 1368.15,-18.53"/>
</g>
<!-- Node12 -->
<g id="node12" class="node">
<title>Node12</title>
<g id="a_node12"><a xlink:title=" ">
<polygon fill="white" stroke="#bfbfbf" points="866.5,-224.5 866.5,-243.5 917.5,-243.5 917.5,-224.5 866.5,-224.5"/>
<text text-anchor="middle" x="892" y="-231.5" font-family="Helvetica,sans-Serif" font-size="10.00">QStack</text>
</a>
</g>
</g>
<!-- Node8&#45;&gt;Node12 -->
<g id="edge15" class="edge">
<title>Node8&#45;&gt;Node12</title>
<path fill="none" stroke="midnightblue" d="M862.78,-280.08C867.67,-272.53 874.83,-261.49 880.83,-252.23"/>
<polygon fill="midnightblue" stroke="midnightblue" points="883.83,-254.05 886.33,-243.75 877.95,-250.24 883.83,-254.05"/>
</g>
<!-- Node8&#45;&gt;Node13 -->
<g id="edge17" class="edge">
<title>Node8&#45;&gt;Node13</title>
<path fill="none" stroke="midnightblue" d="M907.67,-286.64C1006.01,-281.69 1229.46,-268.58 1416,-244 1417.25,-243.83 1418.52,-243.66 1419.81,-243.47"/>
<polygon fill="midnightblue" stroke="midnightblue" points="1420.4,-246.92 1429.74,-241.92 1419.32,-240.01 1420.4,-246.92"/>
</g>
<!-- Node14 -->
<g id="node14" class="node">
<title>Node14</title>
<g id="a_node14"><a xlink:title=" ">
<polygon fill="white" stroke="#bfbfbf" points="446.5,-56.5 446.5,-75.5 501.5,-75.5 501.5,-56.5 446.5,-56.5"/>
<text text-anchor="middle" x="474" y="-63.5" font-family="Helvetica,sans-Serif" font-size="10.00">QVector</text>
</a>
</g>
</g>
<!-- Node8&#45;&gt;Node14 -->
<g id="edge18" class="edge">
<title>Node8&#45;&gt;Node14</title>
<path fill="none" stroke="midnightblue" d="M806.12,-285.41C749.98,-280.26 664.89,-268.56 645,-244 639.41,-237.09 643.58,-232.77 645,-224 653.11,-174.01 697.46,-151.69 666,-112 656.4,-99.9 564.92,-82.49 511.77,-73.28"/>
<polygon fill="midnightblue" stroke="midnightblue" points="512.14,-69.79 501.69,-71.55 510.95,-76.69 512.14,-69.79"/>
</g>
<!-- Node15 -->
<g id="node15" class="node">
<title>Node15</title>
<g id="a_node15"><a xlink:title=" ">
<polygon fill="white" stroke="#bfbfbf" points="368,-112.5 368,-131.5 426,-131.5 426,-112.5 368,-112.5"/>
<text text-anchor="middle" x="397" y="-119.5" font-family="Helvetica,sans-Serif" font-size="10.00">memory</text>
</a>
</g>
</g>
<!-- Node8&#45;&gt;Node15 -->
<g id="edge20" class="edge">
<title>Node8&#45;&gt;Node15</title>
<path fill="none" stroke="midnightblue" d="M806.33,-288.62C745.76,-286.54 642.38,-277.76 561,-244 499.69,-218.56 440.17,-165.43 412.74,-138.85"/>
<polygon fill="midnightblue" stroke="midnightblue" points="414.87,-136.04 405.29,-131.52 409.96,-141.03 414.87,-136.04"/>
</g>
<!-- Node16 -->
<g id="node16" class="node">
<title>Node16</title>
<g id="a_node16"><a xlink:title=" ">
<polygon fill="white" stroke="#bfbfbf" points="444,-112.5 444,-131.5 488,-131.5 488,-112.5 444,-112.5"/>
<text text-anchor="middle" x="466" y="-119.5" font-family="Helvetica,sans-Serif" font-size="10.00">string</text>
</a>
</g>
</g>
<!-- Node8&#45;&gt;Node16 -->
<g id="edge21" class="edge">
<title>Node8&#45;&gt;Node16</title>
<path fill="none" stroke="midnightblue" d="M806.12,-288.35C751.82,-285.85 664.48,-276.51 597,-244 545.13,-219.01 499.49,-166.47 478.4,-139.6"/>
<polygon fill="midnightblue" stroke="midnightblue" points="481.08,-137.34 472.22,-131.54 475.53,-141.61 481.08,-137.34"/>
</g>
<!-- Node8&#45;&gt;Node17 -->
<g id="edge22" class="edge">
<title>Node8&#45;&gt;Node17</title>
<path fill="none" stroke="midnightblue" d="M806.3,-287.63C739.15,-284.62 617.71,-274.96 519,-244 435.32,-217.75 345.61,-163.26 305.51,-137.32"/>
<polygon fill="midnightblue" stroke="midnightblue" points="307.36,-134.35 297.07,-131.81 303.53,-140.21 307.36,-134.35"/>
</g>
<!-- Node18 -->
<g id="node18" class="node">
<title>Node18</title>
<g id="a_node18"><a xlink:href="../../dd/da6/qmuparserbytecode_8h.html" target="_top" xlink:title="Definition of the parser bytecode class.">
<polygon fill="white" stroke="black" points="654.5,-224.5 654.5,-243.5 777.5,-243.5 777.5,-224.5 654.5,-224.5"/>
<text text-anchor="middle" x="716" y="-231.5" font-family="Helvetica,sans-Serif" font-size="10.00">qmuparserbytecode.h</text>
</a>
</g>
</g>
<!-- Node8&#45;&gt;Node18 -->
<g id="edge23" class="edge">
<title>Node8&#45;&gt;Node18</title>
<path fill="none" stroke="midnightblue" d="M834.66,-280.44C811.25,-271.48 774.26,-257.31 747.81,-247.18"/>
<polygon fill="midnightblue" stroke="midnightblue" points="748.83,-243.82 738.24,-243.52 746.32,-250.36 748.83,-243.82"/>
</g>
<!-- Node20 -->
<g id="node20" class="node">
<title>Node20</title>
<g id="a_node20"><a xlink:href="../../de/d28/qmuparserdef_8h.html" target="_top" xlink:title="This file contains standard definitions used by the parser.">
<polygon fill="white" stroke="black" points="1168.5,-56.5 1168.5,-75.5 1261.5,-75.5 1261.5,-56.5 1168.5,-56.5"/>
<text text-anchor="middle" x="1215" y="-63.5" font-family="Helvetica,sans-Serif" font-size="10.00">qmuparserdef.h</text>
</a>
</g>
</g>
<!-- Node8&#45;&gt;Node20 -->
<g id="edge61" class="edge">
<title>Node8&#45;&gt;Node20</title>
<path fill="none" stroke="midnightblue" d="M907.59,-289.04C979.97,-287.71 1116.43,-280.08 1226,-244 1274.02,-228.19 1286.48,-220.73 1325,-188 1354.91,-162.58 1393.57,-143.39 1370,-112 1357.99,-96.01 1311.18,-83.86 1272.12,-76.24"/>
<polygon fill="midnightblue" stroke="midnightblue" points="1272.34,-72.72 1261.86,-74.31 1271.04,-79.6 1272.34,-72.72"/>
</g>
<!-- Node22 -->
<g id="node22" class="node">
<title>Node22</title>
<g id="a_node22"><a xlink:href="../../d7/ddf/qmuparsertoken_8h.html" target="_top" xlink:title="This file contains the parser token definition.">
<polygon fill="white" stroke="black" points="543.5,-168.5 543.5,-187.5 648.5,-187.5 648.5,-168.5 543.5,-168.5"/>
<text text-anchor="middle" x="596" y="-175.5" font-family="Helvetica,sans-Serif" font-size="10.00">qmuparsertoken.h</text>
</a>
</g>
</g>
<!-- Node8&#45;&gt;Node22 -->
<g id="edge63" class="edge">
<title>Node8&#45;&gt;Node22</title>
<path fill="none" stroke="midnightblue" d="M806.39,-286.07C743.03,-281.35 639.43,-269.84 612,-244 599.58,-232.3 596.15,-212.66 595.47,-198.02"/>
<polygon fill="midnightblue" stroke="midnightblue" points="598.97,-197.57 595.41,-187.6 591.97,-197.62 598.97,-197.57"/>
</g>
<!-- Node25 -->
<g id="node25" class="node">
<title>Node25</title>
<g id="a_node25"><a xlink:href="../../da/d49/qmuparsererror_8h.html" target="_top" xlink:title="This file defines the error class used by the parser.">
<polygon fill="white" stroke="black" points="866.5,-112.5 866.5,-131.5 967.5,-131.5 967.5,-112.5 866.5,-112.5"/>
<text text-anchor="middle" x="917" y="-119.5" font-family="Helvetica,sans-Serif" font-size="10.00">qmuparsererror.h</text>
</a>
</g>
</g>
<!-- Node8&#45;&gt;Node25 -->
<g id="edge62" class="edge">
<title>Node8&#45;&gt;Node25</title>
<path fill="none" stroke="midnightblue" d="M880.79,-280.5C896.72,-273.41 916.46,-261.61 926,-244 943.74,-211.25 932.68,-166.01 924.14,-141.16"/>
<polygon fill="midnightblue" stroke="midnightblue" points="927.35,-139.75 920.62,-131.58 920.78,-142.17 927.35,-139.75"/>
</g>
<!-- Node30 -->
<g id="node30" class="node">
<title>Node30</title>
<g id="a_node30"><a xlink:href="../../db/d3a/qmuparsercallback_8h.html" target="_top" xlink:title="Definition of the parser callback class.">
<polygon fill="white" stroke="black" points="1024.5,-112.5 1024.5,-131.5 1143.5,-131.5 1143.5,-112.5 1024.5,-112.5"/>
<text text-anchor="middle" x="1084" y="-119.5" font-family="Helvetica,sans-Serif" font-size="10.00">qmuparsercallback.h</text>
</a>
</g>
</g>
<!-- Node8&#45;&gt;Node30 -->
<g id="edge60" class="edge">
<title>Node8&#45;&gt;Node30</title>
<path fill="none" stroke="midnightblue" d="M876.75,-280.41C894.88,-272.15 922.17,-258.77 944,-244 992.73,-211.01 1043.4,-163.28 1068.29,-138.8"/>
<polygon fill="midnightblue" stroke="midnightblue" points="1070.8,-141.24 1075.43,-131.71 1065.86,-136.27 1070.8,-141.24"/>
</g>
<!-- Node32 -->
<g id="node32" class="node">
<title>Node32</title>
<g id="a_node32"><a xlink:href="../../db/d1b/qmuparsertokenreader_8h.html" target="_top" xlink:title="This file contains the parser token reader definition.">
<polygon fill="white" stroke="black" points="1030,-224.5 1030,-243.5 1166,-243.5 1166,-224.5 1030,-224.5"/>
<text text-anchor="middle" x="1098" y="-231.5" font-family="Helvetica,sans-Serif" font-size="10.00">qmuparsertokenreader.h</text>
</a>
</g>
</g>
<!-- Node8&#45;&gt;Node32 -->
<g id="edge64" class="edge">
<title>Node8&#45;&gt;Node32</title>
<path fill="none" stroke="midnightblue" d="M895.19,-280.44C937.14,-271.04 1004.59,-255.93 1050.07,-245.74"/>
<polygon fill="midnightblue" stroke="midnightblue" points="1051,-249.12 1059.99,-243.52 1049.47,-242.29 1051,-249.12"/>
</g>
<!-- Node18&#45;&gt;Node5 -->
<g id="edge25" class="edge">
<title>Node18&#45;&gt;Node5</title>
<path fill="none" stroke="midnightblue" d="M654.32,-224.72C561.7,-210.85 393.8,-179.67 359,-132 349.03,-118.35 353.94,-98.74 359.85,-84.64"/>
<polygon fill="midnightblue" stroke="midnightblue" points="363.06,-86.05 364.13,-75.51 356.72,-83.07 363.06,-86.05"/>
</g>
<!-- Node18&#45;&gt;Node14 -->
<g id="edge24" class="edge">
<title>Node18&#45;&gt;Node14</title>
<path fill="none" stroke="midnightblue" d="M717.89,-224.27C722.11,-202.2 729.75,-143.65 700,-112 642.92,-51.29 597.63,-92.73 516,-76 514.54,-75.7 513.05,-75.39 511.55,-75.08"/>
<polygon fill="midnightblue" stroke="midnightblue" points="512.05,-71.61 501.55,-72.98 510.61,-78.46 512.05,-71.61"/>
</g>
<!-- Node19 -->
<g id="node19" class="node">
<title>Node19</title>
<g id="a_node19"><a xlink:href="../../d9/de4/qmudef_8h.html" target="_top" xlink:title=" ">
<polygon fill="white" stroke="black" points="798,-168.5 798,-187.5 860,-187.5 860,-168.5 798,-168.5"/>
<text text-anchor="middle" x="829" y="-175.5" font-family="Helvetica,sans-Serif" font-size="10.00">qmudef.h</text>
</a>
</g>
</g>
<!-- Node18&#45;&gt;Node19 -->
<g id="edge26" class="edge">
<title>Node18&#45;&gt;Node19</title>
<path fill="none" stroke="midnightblue" d="M733.91,-224.44C752.25,-215.68 781.01,-201.94 802.09,-191.86"/>
<polygon fill="midnightblue" stroke="midnightblue" points="803.67,-194.99 811.18,-187.52 800.65,-188.67 803.67,-194.99"/>
</g>
<!-- Node18&#45;&gt;Node20 -->
<g id="edge32" class="edge">
<title>Node18&#45;&gt;Node20</title>
<path fill="none" stroke="midnightblue" d="M769.57,-224.49C870.95,-207.76 1086.55,-168.98 1152,-132 1173.07,-120.09 1191.6,-98.98 1203.01,-84.05"/>
<polygon fill="midnightblue" stroke="midnightblue" points="1206.05,-85.83 1209.15,-75.7 1200.41,-81.68 1206.05,-85.83"/>
</g>
<!-- Node18&#45;&gt;Node22 -->
<g id="edge37" class="edge">
<title>Node18&#45;&gt;Node22</title>
<path fill="none" stroke="midnightblue" d="M696.99,-224.44C677.41,-215.64 646.69,-201.81 624.27,-191.72"/>
<polygon fill="midnightblue" stroke="midnightblue" points="625.48,-188.43 614.93,-187.52 622.61,-194.81 625.48,-188.43"/>
</g>
<!-- Node19&#45;&gt;Node3 -->
<g id="edge27" class="edge">
<title>Node19&#45;&gt;Node3</title>
<path fill="none" stroke="midnightblue" d="M860.1,-174.69C918.13,-169.94 1046.57,-157.31 1152,-132 1209.09,-118.29 1273.27,-94.12 1309.94,-79.43"/>
<polygon fill="midnightblue" stroke="midnightblue" points="1311.57,-82.55 1319.53,-75.56 1308.94,-76.06 1311.57,-82.55"/>
</g>
<!-- Node19&#45;&gt;Node4 -->
<g id="edge30" class="edge">
<title>Node19&#45;&gt;Node4</title>
<path fill="none" stroke="midnightblue" d="M828.06,-168.22C826.04,-153.97 819.9,-126.01 802,-112 718.09,-46.35 643.67,-147.85 565,-76 552.28,-64.38 548.93,-44.43 548.36,-29.69"/>
<polygon fill="midnightblue" stroke="midnightblue" points="551.86,-29.65 548.35,-19.65 544.86,-29.65 551.86,-29.65"/>
</g>
<!-- Node19&#45;&gt;Node5 -->
<g id="edge28" class="edge">
<title>Node19&#45;&gt;Node5</title>
<path fill="none" stroke="midnightblue" d="M824.86,-168.44C817.37,-153.98 800.07,-125.03 776,-112 709.38,-75.93 512.22,-84.97 437,-76 427.89,-74.91 418.11,-73.67 408.88,-72.45"/>
<polygon fill="midnightblue" stroke="midnightblue" points="409.14,-68.96 398.77,-71.11 408.22,-75.9 409.14,-68.96"/>
</g>
<!-- Node19&#45;&gt;Node10 -->
<g id="edge29" class="edge">
<title>Node19&#45;&gt;Node10</title>
<path fill="none" stroke="midnightblue" d="M860.07,-173.7C950.17,-164.15 1211.02,-136.47 1304.32,-126.57"/>
<polygon fill="midnightblue" stroke="midnightblue" points="1304.76,-130.05 1314.34,-125.51 1304.03,-123.08 1304.76,-130.05"/>
</g>
<!-- Node19&#45;&gt;Node17 -->
<g id="edge31" class="edge">
<title>Node19&#45;&gt;Node17</title>
<path fill="none" stroke="midnightblue" d="M797.9,-174.28C722.55,-167.64 524.24,-149.82 359,-132 347,-130.71 333.93,-129.18 322.12,-127.75"/>
<polygon fill="midnightblue" stroke="midnightblue" points="322.47,-124.27 312.12,-126.54 321.62,-131.22 322.47,-124.27"/>
</g>
<!-- Node20&#45;&gt;Node4 -->
<g id="edge34" class="edge">
<title>Node20&#45;&gt;Node4</title>
<path fill="none" stroke="midnightblue" d="M1168.29,-57.19C1165.15,-56.76 1162.03,-56.35 1159,-56 942.43,-30.66 680.83,-17.02 585.77,-12.61"/>
<polygon fill="midnightblue" stroke="midnightblue" points="585.68,-9.1 575.53,-12.14 585.36,-16.1 585.68,-9.1"/>
</g>
<!-- Node20&#45;&gt;Node7 -->
<g id="edge35" class="edge">
<title>Node20&#45;&gt;Node7</title>
<path fill="none" stroke="midnightblue" d="M1248.75,-56.44C1288.89,-46.27 1355.45,-29.39 1395.18,-19.32"/>
<polygon fill="midnightblue" stroke="midnightblue" points="1396.08,-22.7 1404.91,-16.85 1394.36,-15.92 1396.08,-22.7"/>
</g>
<!-- Node20&#45;&gt;Node11 -->
<g id="edge33" class="edge">
<title>Node20&#45;&gt;Node11</title>
<path fill="none" stroke="midnightblue" d="M1234.01,-56.44C1253.59,-47.64 1284.31,-33.81 1306.73,-23.72"/>
<polygon fill="midnightblue" stroke="midnightblue" points="1308.39,-26.81 1316.07,-19.52 1305.52,-20.43 1308.39,-26.81"/>
</g>
<!-- Node21 -->
<g id="node21" class="node">
<title>Node21</title>
<g id="a_node21"><a xlink:href="../../df/d47/qmuparserfixes_8h.html" target="_top" xlink:title="This file contains compatibility fixes for some platforms.">
<polygon fill="white" stroke="black" points="1164.5,-0.5 1164.5,-19.5 1265.5,-19.5 1265.5,-0.5 1164.5,-0.5"/>
<text text-anchor="middle" x="1215" y="-7.5" font-family="Helvetica,sans-Serif" font-size="10.00">qmuparserfixes.h</text>
</a>
</g>
</g>
<!-- Node20&#45;&gt;Node21 -->
<g id="edge36" class="edge">
<title>Node20&#45;&gt;Node21</title>
<path fill="none" stroke="midnightblue" d="M1215,-56.08C1215,-49.01 1215,-38.86 1215,-29.99"/>
<polygon fill="midnightblue" stroke="midnightblue" points="1218.5,-29.75 1215,-19.75 1211.5,-29.75 1218.5,-29.75"/>
</g>
<!-- Node22&#45;&gt;Node5 -->
<g id="edge42" class="edge">
<title>Node22&#45;&gt;Node5</title>
<path fill="none" stroke="midnightblue" d="M584.96,-168.45C567.22,-155.02 530.91,-128.78 497,-112 468.39,-97.84 434.2,-86.06 408.36,-78.11"/>
<polygon fill="midnightblue" stroke="midnightblue" points="409.13,-74.69 398.54,-75.15 407.11,-81.39 409.13,-74.69"/>
</g>
<!-- Node22&#45;&gt;Node15 -->
<g id="edge41" class="edge">
<title>Node22&#45;&gt;Node15</title>
<path fill="none" stroke="midnightblue" d="M564.47,-168.44C529.71,-159.01 473.74,-143.83 436.19,-133.63"/>
<polygon fill="midnightblue" stroke="midnightblue" points="436.69,-130.14 426.12,-130.9 434.85,-136.9 436.69,-130.14"/>
</g>
<!-- Node22&#45;&gt;Node16 -->
<g id="edge39" class="edge">
<title>Node22&#45;&gt;Node16</title>
<path fill="none" stroke="midnightblue" d="M575.4,-168.44C554.01,-159.56 520.32,-145.56 495.98,-135.45"/>
<polygon fill="midnightblue" stroke="midnightblue" points="497.08,-132.12 486.5,-131.52 494.39,-138.58 497.08,-132.12"/>
</g>
<!-- Node23 -->
<g id="node23" class="node">
<title>Node23</title>
<g id="a_node23"><a xlink:title=" ">
<polygon fill="white" stroke="#bfbfbf" points="544,-112.5 544,-131.5 596,-131.5 596,-112.5 544,-112.5"/>
<text text-anchor="middle" x="570" y="-119.5" font-family="Helvetica,sans-Serif" font-size="10.00">cassert</text>
</a>
</g>
</g>
<!-- Node22&#45;&gt;Node23 -->
<g id="edge38" class="edge">
<title>Node22&#45;&gt;Node23</title>
<path fill="none" stroke="midnightblue" d="M591.71,-168.08C588.15,-160.69 582.98,-149.95 578.58,-140.81"/>
<polygon fill="midnightblue" stroke="midnightblue" points="581.71,-139.24 574.21,-131.75 575.4,-142.28 581.71,-139.24"/>
</g>
<!-- Node24 -->
<g id="node24" class="node">
<title>Node24</title>
<g id="a_node24"><a xlink:title=" ">
<polygon fill="white" stroke="#bfbfbf" points="614.5,-112.5 614.5,-131.5 657.5,-131.5 657.5,-112.5 614.5,-112.5"/>
<text text-anchor="middle" x="636" y="-119.5" font-family="Helvetica,sans-Serif" font-size="10.00">stack</text>
</a>
</g>
</g>
<!-- Node22&#45;&gt;Node24 -->
<g id="edge40" class="edge">
<title>Node22&#45;&gt;Node24</title>
<path fill="none" stroke="midnightblue" d="M602.61,-168.08C608.26,-160.46 616.54,-149.26 623.45,-139.94"/>
<polygon fill="midnightblue" stroke="midnightblue" points="626.38,-141.87 629.52,-131.75 620.75,-137.7 626.38,-141.87"/>
</g>
<!-- Node22&#45;&gt;Node25 -->
<g id="edge43" class="edge">
<title>Node22&#45;&gt;Node25</title>
<path fill="none" stroke="midnightblue" d="M646.86,-168.44C703.68,-158.89 795.62,-143.42 856.19,-133.23"/>
<polygon fill="midnightblue" stroke="midnightblue" points="857.09,-136.63 866.37,-131.52 855.93,-129.72 857.09,-136.63"/>
</g>
<!-- Node22&#45;&gt;Node30 -->
<g id="edge55" class="edge">
<title>Node22&#45;&gt;Node30</title>
<path fill="none" stroke="midnightblue" d="M648.69,-171.17C737.12,-161.38 915.39,-141.66 1014.15,-130.73"/>
<polygon fill="midnightblue" stroke="midnightblue" points="1014.78,-134.18 1024.33,-129.6 1014.01,-127.22 1014.78,-134.18"/>
</g>
<!-- Node25&#45;&gt;Node3 -->
<g id="edge44" class="edge">
<title>Node25&#45;&gt;Node3</title>
<path fill="none" stroke="midnightblue" d="M967.57,-114.57C1034.16,-106.1 1155.2,-90.69 1269.68,-76.04"/>
<polygon fill="midnightblue" stroke="midnightblue" points="1270.2,-79.5 1279.67,-74.76 1269.31,-72.56 1270.2,-79.5"/>
</g>
<!-- Node25&#45;&gt;Node4 -->
<g id="edge48" class="edge">
<title>Node25&#45;&gt;Node4</title>
<path fill="none" stroke="midnightblue" d="M866.26,-113.96C861.44,-113.3 856.63,-112.63 852,-112 793.12,-103.92 636.44,-108.99 587,-76 570.73,-65.14 560.49,-44.76 554.8,-29.71"/>
<polygon fill="midnightblue" stroke="midnightblue" points="557.99,-28.22 551.43,-19.9 551.37,-30.49 557.99,-28.22"/>
</g>
<!-- Node25&#45;&gt;Node5 -->
<g id="edge50" class="edge">
<title>Node25&#45;&gt;Node5</title>
<path fill="none" stroke="midnightblue" d="M866.13,-116.48C760.23,-107.03 519.13,-85.28 437,-76 427.89,-74.97 418.1,-73.75 408.88,-72.54"/>
<polygon fill="midnightblue" stroke="midnightblue" points="409.13,-69.04 398.76,-71.19 408.21,-75.98 409.13,-69.04"/>
</g>
<!-- Node25&#45;&gt;Node11 -->
<g id="edge47" class="edge">
<title>Node25&#45;&gt;Node11</title>
<path fill="none" stroke="midnightblue" d="M938.16,-112.47C972.36,-98.96 1042.07,-72.46 1103,-56 1173.04,-37.08 1257.01,-22.83 1302.25,-15.82"/>
<polygon fill="midnightblue" stroke="midnightblue" points="1303,-19.25 1312.36,-14.28 1301.94,-12.33 1303,-19.25"/>
</g>
<!-- Node25&#45;&gt;Node14 -->
<g id="edge49" class="edge">
<title>Node25&#45;&gt;Node14</title>
<path fill="none" stroke="midnightblue" d="M866.18,-114.81C776.24,-103.84 591.05,-81.27 511.57,-71.58"/>
<polygon fill="midnightblue" stroke="midnightblue" points="511.88,-68.09 501.53,-70.36 511.03,-75.04 511.88,-68.09"/>
</g>
<!-- Node25&#45;&gt;Node20 -->
<g id="edge52" class="edge">
<title>Node25&#45;&gt;Node20</title>
<path fill="none" stroke="midnightblue" d="M964.22,-112.44C1016.9,-102.9 1102.11,-87.46 1158.34,-77.27"/>
<polygon fill="midnightblue" stroke="midnightblue" points="1159.28,-80.65 1168.49,-75.43 1158.03,-73.77 1159.28,-80.65"/>
</g>
<!-- Node26 -->
<g id="node26" class="node">
<title>Node26</title>
<g id="a_node26"><a xlink:title=" ">
<polygon fill="white" stroke="#bfbfbf" points="714.5,-56.5 714.5,-75.5 815.5,-75.5 815.5,-56.5 714.5,-56.5"/>
<text text-anchor="middle" x="765" y="-63.5" font-family="Helvetica,sans-Serif" font-size="10.00">QCoreApplication</text>
</a>
</g>
</g>
<!-- Node25&#45;&gt;Node26 -->
<g id="edge45" class="edge">
<title>Node25&#45;&gt;Node26</title>
<path fill="none" stroke="midnightblue" d="M892.92,-112.44C867.46,-103.4 827.11,-89.06 798.54,-78.92"/>
<polygon fill="midnightblue" stroke="midnightblue" points="799.57,-75.57 788.97,-75.52 797.22,-82.16 799.57,-75.57"/>
</g>
<!-- Node27 -->
<g id="node27" class="node">
<title>Node27</title>
<g id="a_node27"><a xlink:title=" ">
<polygon fill="white" stroke="#bfbfbf" points="834,-56.5 834,-75.5 906,-75.5 906,-56.5 834,-56.5"/>
<text text-anchor="middle" x="870" y="-63.5" font-family="Helvetica,sans-Serif" font-size="10.00">QException</text>
</a>
</g>
</g>
<!-- Node25&#45;&gt;Node27 -->
<g id="edge46" class="edge">
<title>Node25&#45;&gt;Node27</title>
<path fill="none" stroke="midnightblue" d="M909.24,-112.08C902.46,-104.3 892.46,-92.8 884.24,-83.37"/>
<polygon fill="midnightblue" stroke="midnightblue" points="886.82,-81 877.62,-75.75 881.54,-85.59 886.82,-81"/>
</g>
<!-- Node28 -->
<g id="node28" class="node">
<title>Node28</title>
<g id="a_node28"><a xlink:title=" ">
<polygon fill="white" stroke="#bfbfbf" points="924,-56.5 924,-75.5 980,-75.5 980,-56.5 924,-56.5"/>
<text text-anchor="middle" x="952" y="-63.5" font-family="Helvetica,sans-Serif" font-size="10.00">sstream</text>
</a>
</g>
</g>
<!-- Node25&#45;&gt;Node28 -->
<g id="edge51" class="edge">
<title>Node25&#45;&gt;Node28</title>
<path fill="none" stroke="midnightblue" d="M922.78,-112.08C927.67,-104.53 934.83,-93.49 940.83,-84.23"/>
<polygon fill="midnightblue" stroke="midnightblue" points="943.83,-86.05 946.33,-75.75 937.95,-82.24 943.83,-86.05"/>
</g>
<!-- Node29 -->
<g id="node29" class="node">
<title>Node29</title>
<g id="a_node29"><a xlink:href="../../da/da3/qmutranslation_8h.html" target="_top" xlink:title="The VTranslation class help store string for translation.">
<polygon fill="white" stroke="black" points="596,-56.5 596,-75.5 696,-75.5 696,-56.5 596,-56.5"/>
<text text-anchor="middle" x="646" y="-63.5" font-family="Helvetica,sans-Serif" font-size="10.00">qmutranslation.h</text>
</a>
</g>
</g>
<!-- Node25&#45;&gt;Node29 -->
<g id="edge53" class="edge">
<title>Node25&#45;&gt;Node29</title>
<path fill="none" stroke="midnightblue" d="M874.06,-112.44C826.49,-102.96 749.76,-87.67 698.61,-77.48"/>
<polygon fill="midnightblue" stroke="midnightblue" points="699.23,-74.04 688.74,-75.52 697.86,-80.9 699.23,-74.04"/>
</g>
<!-- Node29&#45;&gt;Node4 -->
<g id="edge54" class="edge">
<title>Node29&#45;&gt;Node4</title>
<path fill="none" stroke="midnightblue" d="M630.42,-56.32C615,-47.74 591.19,-34.49 573.29,-24.52"/>
<polygon fill="midnightblue" stroke="midnightblue" points="574.99,-21.46 564.55,-19.65 571.58,-27.58 574.99,-21.46"/>
</g>
<!-- Node30&#45;&gt;Node3 -->
<g id="edge56" class="edge">
<title>Node30&#45;&gt;Node3</title>
<path fill="none" stroke="midnightblue" d="M1124.56,-112.44C1169.32,-103 1241.38,-87.8 1289.7,-77.61"/>
<polygon fill="midnightblue" stroke="midnightblue" points="1290.56,-81.01 1299.63,-75.52 1289.12,-74.16 1290.56,-81.01"/>
</g>
<!-- Node30&#45;&gt;Node4 -->
<g id="edge57" class="edge">
<title>Node30&#45;&gt;Node4</title>
<path fill="none" stroke="midnightblue" d="M1078.78,-112.39C1069.45,-97.86 1048.38,-68.8 1022,-56 945.2,-18.72 683.36,-12.31 585.93,-11.22"/>
<polygon fill="midnightblue" stroke="midnightblue" points="585.71,-7.71 575.68,-11.12 585.64,-14.71 585.71,-7.71"/>
</g>
<!-- Node30&#45;&gt;Node20 -->
<g id="edge59" class="edge">
<title>Node30&#45;&gt;Node20</title>
<path fill="none" stroke="midnightblue" d="M1104.76,-112.44C1126.32,-103.56 1160.26,-89.56 1184.79,-79.45"/>
<polygon fill="midnightblue" stroke="midnightblue" points="1186.43,-82.56 1194.34,-75.52 1183.76,-76.09 1186.43,-82.56"/>
</g>
<!-- Node31 -->
<g id="node31" class="node">
<title>Node31</title>
<g id="a_node31"><a xlink:title=" ">
<polygon fill="white" stroke="#bfbfbf" points="1112,-56.5 1112,-75.5 1150,-75.5 1150,-56.5 1112,-56.5"/>
<text text-anchor="middle" x="1131" y="-63.5" font-family="Helvetica,sans-Serif" font-size="10.00">map</text>
</a>
</g>
</g>
<!-- Node30&#45;&gt;Node31 -->
<g id="edge58" class="edge">
<title>Node30&#45;&gt;Node31</title>
<path fill="none" stroke="midnightblue" d="M1091.76,-112.08C1098.54,-104.3 1108.54,-92.8 1116.76,-83.37"/>
<polygon fill="midnightblue" stroke="midnightblue" points="1119.46,-85.59 1123.38,-75.75 1114.18,-81 1119.46,-85.59"/>
</g>
<!-- Node32&#45;&gt;Node3 -->
<g id="edge65" class="edge">
<title>Node32&#45;&gt;Node3</title>
<path fill="none" stroke="midnightblue" d="M1150.96,-224.44C1180,-217.89 1215.55,-206.7 1243,-188 1248.42,-184.31 1301.7,-116.25 1326.91,-83.86"/>
<polygon fill="midnightblue" stroke="midnightblue" points="1329.84,-85.8 1333.21,-75.75 1324.31,-81.5 1329.84,-85.8"/>
</g>
<!-- Node32&#45;&gt;Node4 -->
<g id="edge67" class="edge">
<title>Node32&#45;&gt;Node4</title>
<path fill="none" stroke="midnightblue" d="M1089.01,-224.35C1072.3,-207.84 1036.23,-170.06 1015,-132 997.61,-100.82 1016.95,-78.21 989,-56 957.72,-31.14 686.38,-16.95 586.07,-12.52"/>
<polygon fill="midnightblue" stroke="midnightblue" points="585.95,-9.01 575.81,-12.08 585.64,-16.01 585.95,-9.01"/>
</g>
<!-- Node32&#45;&gt;Node5 -->
<g id="edge68" class="edge">
<title>Node32&#45;&gt;Node5</title>
<path fill="none" stroke="midnightblue" d="M1029.77,-231C965.83,-227.31 868.47,-216.92 789,-188 728.61,-166.02 726.32,-134.15 666,-112 654.02,-107.6 486.77,-83.63 408.66,-72.58"/>
<polygon fill="midnightblue" stroke="midnightblue" points="409.09,-69.11 398.7,-71.17 408.12,-76.04 409.09,-69.11"/>
</g>
<!-- Node32&#45;&gt;Node7 -->
<g id="edge70" class="edge">
<title>Node32&#45;&gt;Node7</title>
<path fill="none" stroke="midnightblue" d="M1166.25,-226.33C1207.47,-220.32 1260.15,-209.03 1303,-188 1364.53,-157.81 1379.41,-137.82 1409,-76 1416.14,-61.09 1421.17,-42.94 1424.25,-29.62"/>
<polygon fill="midnightblue" stroke="midnightblue" points="1427.69,-30.25 1426.39,-19.74 1420.85,-28.77 1427.69,-30.25"/>
</g>
<!-- Node32&#45;&gt;Node10 -->
<g id="edge66" class="edge">
<title>Node32&#45;&gt;Node10</title>
<path fill="none" stroke="midnightblue" d="M1166.08,-224.95C1200.76,-218.65 1242.55,-207.52 1276,-188 1296.75,-175.89 1314.97,-154.82 1326.2,-139.96"/>
<polygon fill="midnightblue" stroke="midnightblue" points="1329.2,-141.79 1332.25,-131.64 1323.54,-137.67 1329.2,-141.79"/>
</g>
<!-- Node32&#45;&gt;Node20 -->
<g id="edge72" class="edge">
<title>Node32&#45;&gt;Node20</title>
<path fill="none" stroke="midnightblue" d="M1111.71,-224.24C1141.79,-204.7 1211.87,-157.27 1224,-132 1231,-117.41 1227.46,-99 1222.93,-85.5"/>
<polygon fill="midnightblue" stroke="midnightblue" points="1226.09,-83.99 1219.26,-75.9 1219.56,-86.49 1226.09,-83.99"/>
</g>
<!-- Node32&#45;&gt;Node22 -->
<g id="edge74" class="edge">
<title>Node32&#45;&gt;Node22</title>
<path fill="none" stroke="midnightblue" d="M1029.78,-225.66C932,-215.14 753.42,-195.93 658.77,-185.75"/>
<polygon fill="midnightblue" stroke="midnightblue" points="659.08,-182.27 648.76,-184.68 658.33,-189.23 659.08,-182.27"/>
</g>
<!-- Node32&#45;&gt;Node25 -->
<g id="edge73" class="edge">
<title>Node32&#45;&gt;Node25</title>
<path fill="none" stroke="midnightblue" d="M1083.8,-224.37C1052.61,-205.41 977.88,-160 939.94,-136.94"/>
<polygon fill="midnightblue" stroke="midnightblue" points="941.5,-133.79 931.14,-131.59 937.86,-139.78 941.5,-133.79"/>
</g>
<!-- Node32&#45;&gt;Node30 -->
<g id="edge71" class="edge">
<title>Node32&#45;&gt;Node30</title>
<path fill="none" stroke="midnightblue" d="M1096.9,-224.37C1094.64,-206.62 1089.43,-165.67 1086.37,-141.6"/>
<polygon fill="midnightblue" stroke="midnightblue" points="1089.83,-141.07 1085.09,-131.59 1082.88,-141.95 1089.83,-141.07"/>
</g>
<!-- Node33 -->
<g id="node33" class="node">
<title>Node33</title>
<g id="a_node33"><a xlink:title=" ">
<polygon fill="white" stroke="#bfbfbf" points="1202,-168.5 1202,-187.5 1234,-187.5 1234,-168.5 1202,-168.5"/>
<text text-anchor="middle" x="1218" y="-175.5" font-family="Helvetica,sans-Serif" font-size="10.00">list</text>
</a>
</g>
</g>
<!-- Node32&#45;&gt;Node33 -->
<g id="edge69" class="edge">
<title>Node32&#45;&gt;Node33</title>
<path fill="none" stroke="midnightblue" d="M1117.01,-224.44C1137.39,-215.27 1169.86,-200.66 1192.46,-190.5"/>
<polygon fill="midnightblue" stroke="midnightblue" points="1194.09,-193.6 1201.77,-186.3 1191.21,-187.22 1194.09,-193.6"/>
</g>
</g>
</svg>
