<?xml version="1.0" encoding="UTF-8" standalone="no"?>
<!DOCTYPE svg PUBLIC "-//W3C//DTD SVG 1.1//EN"
 "http://www.w3.org/Graphics/SVG/1.1/DTD/svg11.dtd">
<!-- Generated by graphviz version 2.43.0 (0)
 -->
<!-- Title: VisToolRotation Pages: 1 -->
<svg width="614pt" height="1565pt"
 viewBox="0.00 0.00 614.00 1565.00" xmlns="http://www.w3.org/2000/svg" xmlns:xlink="http://www.w3.org/1999/xlink">
<g id="graph0" class="graph" transform="scale(1 1) rotate(0) translate(4 1561)">
<title>VisToolRotation</title>
<polygon fill="white" stroke="transparent" points="-4,4 -4,-1561 610,-1561 610,4 -4,4"/>
<!-- Node1 -->
<g id="node1" class="node">
<title>Node1</title>
<g id="a_node1"><a xlink:title=" ">
<polygon fill="#bfbfbf" stroke="black" points="282,-0.5 282,-134.5 404,-134.5 404,-0.5 282,-0.5"/>
<text text-anchor="middle" x="343" y="-122.5" font-family="Helvetica,sans-Serif" font-size="10.00">VisToolRotation</text>
<polyline fill="none" stroke="black" points="282,-115.5 404,-115.5 "/>
<text text-anchor="start" x="290" y="-103.5" font-family="Helvetica,sans-Serif" font-size="10.00">&#45; angle</text>
<polyline fill="none" stroke="black" points="282,-96.5 404,-96.5 "/>
<text text-anchor="start" x="290" y="-84.5" font-family="Helvetica,sans-Serif" font-size="10.00">+ VisToolRotation()</text>
<text text-anchor="start" x="290" y="-73.5" font-family="Helvetica,sans-Serif" font-size="10.00">+ ~VisToolRotation()</text>
<text text-anchor="start" x="290" y="-62.5" font-family="Helvetica,sans-Serif" font-size="10.00">+ RefreshGeometry()</text>
<text text-anchor="start" x="290" y="-51.5" font-family="Helvetica,sans-Serif" font-size="10.00">+ SetOriginPointId()</text>
<text text-anchor="start" x="290" y="-40.5" font-family="Helvetica,sans-Serif" font-size="10.00">+ Angle()</text>
<text text-anchor="start" x="290" y="-29.5" font-family="Helvetica,sans-Serif" font-size="10.00">+ SetAngle()</text>
<text text-anchor="start" x="290" y="-18.5" font-family="Helvetica,sans-Serif" font-size="10.00">+ type()</text>
<text text-anchor="start" x="290" y="-7.5" font-family="Helvetica,sans-Serif" font-size="10.00">&#45; AddCurve()</text>
</a>
</g>
</g>
<!-- Node2 -->
<g id="node2" class="node">
<title>Node2</title>
<g id="a_node2"><a xlink:href="../../d7/dba/classVisOperation.html" target="_top" xlink:title=" ">
<polygon fill="white" stroke="black" points="136,-182.5 136,-371.5 284,-371.5 284,-182.5 136,-182.5"/>
<text text-anchor="middle" x="210" y="-359.5" font-family="Helvetica,sans-Serif" font-size="10.00">VisOperation</text>
<polyline fill="none" stroke="black" points="136,-352.5 284,-352.5 "/>
<text text-anchor="start" x="144" y="-340.5" font-family="Helvetica,sans-Serif" font-size="10.00"># objects</text>
<text text-anchor="start" x="144" y="-329.5" font-family="Helvetica,sans-Serif" font-size="10.00"># supportColor2</text>
<text text-anchor="start" x="144" y="-318.5" font-family="Helvetica,sans-Serif" font-size="10.00"># supportColor3</text>
<text text-anchor="start" x="144" y="-307.5" font-family="Helvetica,sans-Serif" font-size="10.00"># points</text>
<text text-anchor="start" x="144" y="-296.5" font-family="Helvetica,sans-Serif" font-size="10.00"># curves</text>
<polyline fill="none" stroke="black" points="136,-289.5 284,-289.5 "/>
<text text-anchor="start" x="144" y="-277.5" font-family="Helvetica,sans-Serif" font-size="10.00">+ VisOperation()</text>
<text text-anchor="start" x="144" y="-266.5" font-family="Helvetica,sans-Serif" font-size="10.00">+ ~VisOperation()</text>
<text text-anchor="start" x="144" y="-255.5" font-family="Helvetica,sans-Serif" font-size="10.00">+ setObjects()</text>
<text text-anchor="start" x="144" y="-244.5" font-family="Helvetica,sans-Serif" font-size="10.00">+ VisualMode()</text>
<text text-anchor="start" x="144" y="-233.5" font-family="Helvetica,sans-Serif" font-size="10.00">+ type()</text>
<text text-anchor="start" x="144" y="-222.5" font-family="Helvetica,sans-Serif" font-size="10.00"># GetPoint()</text>
<text text-anchor="start" x="144" y="-211.5" font-family="Helvetica,sans-Serif" font-size="10.00"># GetCurve()</text>
<text text-anchor="start" x="144" y="-200.5" font-family="Helvetica,sans-Serif" font-size="10.00"># addFlippedCurve()</text>
<text text-anchor="start" x="144" y="-189.5" font-family="Helvetica,sans-Serif" font-size="10.00"># refreshMirroredObjects()</text>
</a>
</g>
</g>
<!-- Node2&#45;&gt;Node1 -->
<g id="edge1" class="edge">
<title>Node2&#45;&gt;Node1</title>
<path fill="none" stroke="midnightblue" d="M275.66,-173.56C284.17,-160.29 292.69,-146.99 300.67,-134.53"/>
<polygon fill="none" stroke="midnightblue" points="272.53,-171.96 270.08,-182.27 278.42,-175.74 272.53,-171.96"/>
</g>
<!-- Node3 -->
<g id="node3" class="node">
<title>Node3</title>
<g id="a_node3"><a xlink:href="../../de/d0e/classVisLine.html" target="_top" xlink:title=" ">
<polygon fill="white" stroke="black" points="161,-419.5 161,-586.5 259,-586.5 259,-419.5 161,-419.5"/>
<text text-anchor="middle" x="210" y="-574.5" font-family="Helvetica,sans-Serif" font-size="10.00">VisLine</text>
<polyline fill="none" stroke="black" points="161,-567.5 259,-567.5 "/>
<text text-anchor="middle" x="210" y="-555.5" font-family="Helvetica,sans-Serif" font-size="10.00"> </text>
<polyline fill="none" stroke="black" points="161,-548.5 259,-548.5 "/>
<text text-anchor="start" x="169" y="-536.5" font-family="Helvetica,sans-Serif" font-size="10.00">+ VisLine()</text>
<text text-anchor="start" x="169" y="-525.5" font-family="Helvetica,sans-Serif" font-size="10.00">+ ~VisLine()</text>
<text text-anchor="start" x="169" y="-514.5" font-family="Helvetica,sans-Serif" font-size="10.00">+ type()</text>
<text text-anchor="start" x="169" y="-503.5" font-family="Helvetica,sans-Serif" font-size="10.00">+ CorrectAngle()</text>
<text text-anchor="start" x="169" y="-492.5" font-family="Helvetica,sans-Serif" font-size="10.00"># Ray()</text>
<text text-anchor="start" x="169" y="-481.5" font-family="Helvetica,sans-Serif" font-size="10.00"># Ray()</text>
<text text-anchor="start" x="169" y="-470.5" font-family="Helvetica,sans-Serif" font-size="10.00"># Axis()</text>
<text text-anchor="start" x="169" y="-459.5" font-family="Helvetica,sans-Serif" font-size="10.00"># Axis()</text>
<text text-anchor="start" x="169" y="-448.5" font-family="Helvetica,sans-Serif" font-size="10.00"># initPen()</text>
<text text-anchor="start" x="169" y="-437.5" font-family="Helvetica,sans-Serif" font-size="10.00"># AddOnScene()</text>
<text text-anchor="start" x="169" y="-426.5" font-family="Helvetica,sans-Serif" font-size="10.00"># DrawRay()</text>
</a>
</g>
</g>
<!-- Node3&#45;&gt;Node2 -->
<g id="edge2" class="edge">
<title>Node3&#45;&gt;Node2</title>
<path fill="none" stroke="midnightblue" d="M210,-408.98C210,-396.69 210,-384.07 210,-371.76"/>
<polygon fill="none" stroke="midnightblue" points="206.5,-409.23 210,-419.23 213.5,-409.23 206.5,-409.23"/>
</g>
<!-- Node4 -->
<g id="node4" class="node">
<title>Node4</title>
<g id="a_node4"><a xlink:href="../../d7/d24/classVisualization.html" target="_top" xlink:title=" ">
<polygon fill="white" stroke="black" points="103,-624.5 103,-1077.5 225,-1077.5 225,-624.5 103,-624.5"/>
<text text-anchor="middle" x="164" y="-1065.5" font-family="Helvetica,sans-Serif" font-size="10.00">Visualization</text>
<polyline fill="none" stroke="black" points="103,-1058.5 225,-1058.5 "/>
<text text-anchor="start" x="111" y="-1046.5" font-family="Helvetica,sans-Serif" font-size="10.00"># scenePos</text>
<text text-anchor="start" x="111" y="-1035.5" font-family="Helvetica,sans-Serif" font-size="10.00"># mainColor</text>
<text text-anchor="start" x="111" y="-1024.5" font-family="Helvetica,sans-Serif" font-size="10.00"># supportColor</text>
<text text-anchor="start" x="111" y="-1013.5" font-family="Helvetica,sans-Serif" font-size="10.00"># lineStyle</text>
<text text-anchor="start" x="111" y="-1002.5" font-family="Helvetica,sans-Serif" font-size="10.00"># lineWeight</text>
<text text-anchor="start" x="111" y="-991.5" font-family="Helvetica,sans-Serif" font-size="10.00"># object1Id</text>
<text text-anchor="start" x="111" y="-980.5" font-family="Helvetica,sans-Serif" font-size="10.00"># toolTip</text>
<text text-anchor="start" x="111" y="-969.5" font-family="Helvetica,sans-Serif" font-size="10.00"># mode</text>
<polyline fill="none" stroke="black" points="103,-962.5 225,-962.5 "/>
<text text-anchor="start" x="111" y="-950.5" font-family="Helvetica,sans-Serif" font-size="10.00">+ Visualization()</text>
<text text-anchor="start" x="111" y="-939.5" font-family="Helvetica,sans-Serif" font-size="10.00">+ ~Visualization()</text>
<text text-anchor="start" x="111" y="-928.5" font-family="Helvetica,sans-Serif" font-size="10.00">+ RefreshGeometry()</text>
<text text-anchor="start" x="111" y="-917.5" font-family="Helvetica,sans-Serif" font-size="10.00">+ setObject1Id()</text>
<text text-anchor="start" x="111" y="-906.5" font-family="Helvetica,sans-Serif" font-size="10.00">+ setLineStyle()</text>
<text text-anchor="start" x="111" y="-895.5" font-family="Helvetica,sans-Serif" font-size="10.00">+ setLineWeight()</text>
<text text-anchor="start" x="111" y="-884.5" font-family="Helvetica,sans-Serif" font-size="10.00">+ setScenePos()</text>
<text text-anchor="start" x="111" y="-873.5" font-family="Helvetica,sans-Serif" font-size="10.00">+ VisualMode()</text>
<text text-anchor="start" x="111" y="-862.5" font-family="Helvetica,sans-Serif" font-size="10.00">+ setMainColor()</text>
<text text-anchor="start" x="111" y="-851.5" font-family="Helvetica,sans-Serif" font-size="10.00">+ getData()</text>
<text text-anchor="start" x="111" y="-840.5" font-family="Helvetica,sans-Serif" font-size="10.00">+ setData()</text>
<text text-anchor="start" x="111" y="-829.5" font-family="Helvetica,sans-Serif" font-size="10.00">+ GetMode()</text>
<text text-anchor="start" x="111" y="-818.5" font-family="Helvetica,sans-Serif" font-size="10.00">+ SetMode()</text>
<text text-anchor="start" x="111" y="-807.5" font-family="Helvetica,sans-Serif" font-size="10.00">+ CurrentToolTip()</text>
<text text-anchor="start" x="111" y="-796.5" font-family="Helvetica,sans-Serif" font-size="10.00">+ FindLength()</text>
<text text-anchor="start" x="111" y="-785.5" font-family="Helvetica,sans-Serif" font-size="10.00">+ FindVal()</text>
<text text-anchor="start" x="111" y="-774.5" font-family="Helvetica,sans-Serif" font-size="10.00">+ mousePos()</text>
<text text-anchor="start" x="111" y="-763.5" font-family="Helvetica,sans-Serif" font-size="10.00"># initPen()</text>
<text text-anchor="start" x="111" y="-752.5" font-family="Helvetica,sans-Serif" font-size="10.00"># AddOnScene()</text>
<text text-anchor="start" x="111" y="-741.5" font-family="Helvetica,sans-Serif" font-size="10.00"># InitPoint()</text>
<text text-anchor="start" x="111" y="-730.5" font-family="Helvetica,sans-Serif" font-size="10.00"># DrawPoint()</text>
<text text-anchor="start" x="111" y="-719.5" font-family="Helvetica,sans-Serif" font-size="10.00"># DrawLine()</text>
<text text-anchor="start" x="111" y="-708.5" font-family="Helvetica,sans-Serif" font-size="10.00"># DrawPath()</text>
<text text-anchor="start" x="111" y="-697.5" font-family="Helvetica,sans-Serif" font-size="10.00"># DrawPath()</text>
<text text-anchor="start" x="111" y="-686.5" font-family="Helvetica,sans-Serif" font-size="10.00"># drawArrowedLine()</text>
<text text-anchor="start" x="111" y="-675.5" font-family="Helvetica,sans-Serif" font-size="10.00"># drawArrow()</text>
<text text-anchor="start" x="111" y="-664.5" font-family="Helvetica,sans-Serif" font-size="10.00"># addItem()</text>
<text text-anchor="start" x="111" y="-653.5" font-family="Helvetica,sans-Serif" font-size="10.00"># InitItem()</text>
<text text-anchor="start" x="111" y="-642.5" font-family="Helvetica,sans-Serif" font-size="10.00"># GetPointItem()</text>
<text text-anchor="start" x="111" y="-631.5" font-family="Helvetica,sans-Serif" font-size="10.00">&#45; initPointItem()</text>
</a>
</g>
</g>
<!-- Node4&#45;&gt;Node3 -->
<g id="edge3" class="edge">
<title>Node4&#45;&gt;Node3</title>
<path fill="none" stroke="midnightblue" d="M195.36,-614.12C196.61,-604.69 197.83,-595.55 198.99,-586.84"/>
<polygon fill="none" stroke="midnightblue" points="191.89,-613.67 194.04,-624.04 198.83,-614.59 191.89,-613.67"/>
</g>
<!-- Node5 -->
<g id="node5" class="node">
<title>Node5</title>
<g id="a_node5"><a xlink:title=" ">
<polygon fill="white" stroke="#bfbfbf" points="0,-1312.5 0,-1369.5 56,-1369.5 56,-1312.5 0,-1312.5"/>
<text text-anchor="middle" x="28" y="-1357.5" font-family="Helvetica,sans-Serif" font-size="10.00">QObject</text>
<polyline fill="none" stroke="#bfbfbf" points="0,-1350.5 56,-1350.5 "/>
<text text-anchor="middle" x="28" y="-1338.5" font-family="Helvetica,sans-Serif" font-size="10.00"> </text>
<polyline fill="none" stroke="#bfbfbf" points="0,-1331.5 56,-1331.5 "/>
<text text-anchor="middle" x="28" y="-1319.5" font-family="Helvetica,sans-Serif" font-size="10.00"> </text>
</a>
</g>
</g>
<!-- Node5&#45;&gt;Node4 -->
<g id="edge4" class="edge">
<title>Node5&#45;&gt;Node4</title>
<path fill="none" stroke="midnightblue" d="M32.45,-1302.09C38.02,-1258.79 48.82,-1186.05 65,-1125 75.4,-1085.77 89.05,-1044.22 102.87,-1005.68"/>
<polygon fill="none" stroke="midnightblue" points="28.96,-1301.81 31.18,-1312.17 35.91,-1302.69 28.96,-1301.81"/>
</g>
<!-- Node6 -->
<g id="node6" class="node">
<title>Node6</title>
<g id="a_node6"><a xlink:href="../../d2/d83/classVContainer.html" target="_top" xlink:title="The VContainer class container of all variables.">
<polygon fill="white" stroke="black" points="74.5,-1125.5 74.5,-1556.5 253.5,-1556.5 253.5,-1125.5 74.5,-1125.5"/>
<text text-anchor="middle" x="164" y="-1544.5" font-family="Helvetica,sans-Serif" font-size="10.00">VContainer</text>
<polyline fill="none" stroke="black" points="74.5,-1537.5 253.5,-1537.5 "/>
<text text-anchor="start" x="82.5" y="-1525.5" font-family="Helvetica,sans-Serif" font-size="10.00">&#45; d</text>
<text text-anchor="start" x="82.5" y="-1514.5" font-family="Helvetica,sans-Serif" font-size="10.00">&#45; _id</text>
<text text-anchor="start" x="82.5" y="-1503.5" font-family="Helvetica,sans-Serif" font-size="10.00">&#45; _size</text>
<text text-anchor="start" x="82.5" y="-1492.5" font-family="Helvetica,sans-Serif" font-size="10.00">&#45; _height</text>
<text text-anchor="start" x="82.5" y="-1481.5" font-family="Helvetica,sans-Serif" font-size="10.00">&#45; uniqueNames</text>
<polyline fill="none" stroke="black" points="74.5,-1474.5 253.5,-1474.5 "/>
<text text-anchor="start" x="82.5" y="-1462.5" font-family="Helvetica,sans-Serif" font-size="10.00">+ VContainer()</text>
<text text-anchor="start" x="82.5" y="-1451.5" font-family="Helvetica,sans-Serif" font-size="10.00">+ VContainer()</text>
<text text-anchor="start" x="82.5" y="-1440.5" font-family="Helvetica,sans-Serif" font-size="10.00">+ ~VContainer()</text>
<text text-anchor="start" x="82.5" y="-1429.5" font-family="Helvetica,sans-Serif" font-size="10.00">+ operator=()</text>
<text text-anchor="start" x="82.5" y="-1418.5" font-family="Helvetica,sans-Serif" font-size="10.00">+ Swap()</text>
<text text-anchor="start" x="82.5" y="-1407.5" font-family="Helvetica,sans-Serif" font-size="10.00">+ GeometricObject()</text>
<text text-anchor="start" x="82.5" y="-1396.5" font-family="Helvetica,sans-Serif" font-size="10.00">+ GetGObject()</text>
<text text-anchor="start" x="82.5" y="-1385.5" font-family="Helvetica,sans-Serif" font-size="10.00">+ GetPiece()</text>
<text text-anchor="start" x="82.5" y="-1374.5" font-family="Helvetica,sans-Serif" font-size="10.00">+ GetPiecePath()</text>
<text text-anchor="start" x="82.5" y="-1363.5" font-family="Helvetica,sans-Serif" font-size="10.00">+ GetVariable()</text>
<text text-anchor="start" x="82.5" y="-1352.5" font-family="Helvetica,sans-Serif" font-size="10.00">and 34 more...</text>
<text text-anchor="start" x="82.5" y="-1341.5" font-family="Helvetica,sans-Serif" font-size="10.00">+ GetFakeGObject()</text>
<text text-anchor="start" x="82.5" y="-1330.5" font-family="Helvetica,sans-Serif" font-size="10.00">+ getId()</text>
<text text-anchor="start" x="82.5" y="-1319.5" font-family="Helvetica,sans-Serif" font-size="10.00">+ getNextId()</text>
<text text-anchor="start" x="82.5" y="-1308.5" font-family="Helvetica,sans-Serif" font-size="10.00">+ UpdateId()</text>
<text text-anchor="start" x="82.5" y="-1297.5" font-family="Helvetica,sans-Serif" font-size="10.00">+ ClearUniqueNames()</text>
<text text-anchor="start" x="82.5" y="-1286.5" font-family="Helvetica,sans-Serif" font-size="10.00">+ ClearUniqueIncrementNames()</text>
<text text-anchor="start" x="82.5" y="-1275.5" font-family="Helvetica,sans-Serif" font-size="10.00">+ SetSize()</text>
<text text-anchor="start" x="82.5" y="-1264.5" font-family="Helvetica,sans-Serif" font-size="10.00">+ SetHeight()</text>
<text text-anchor="start" x="82.5" y="-1253.5" font-family="Helvetica,sans-Serif" font-size="10.00">+ size()</text>
<text text-anchor="start" x="82.5" y="-1242.5" font-family="Helvetica,sans-Serif" font-size="10.00">+ rsize()</text>
<text text-anchor="start" x="82.5" y="-1231.5" font-family="Helvetica,sans-Serif" font-size="10.00">+ height()</text>
<text text-anchor="start" x="82.5" y="-1220.5" font-family="Helvetica,sans-Serif" font-size="10.00">+ rheight()</text>
<text text-anchor="start" x="82.5" y="-1209.5" font-family="Helvetica,sans-Serif" font-size="10.00">+ IsUnique()</text>
<text text-anchor="start" x="82.5" y="-1198.5" font-family="Helvetica,sans-Serif" font-size="10.00">+ AllUniqueNames()</text>
<text text-anchor="start" x="82.5" y="-1187.5" font-family="Helvetica,sans-Serif" font-size="10.00">&#45; AddCurve()</text>
<text text-anchor="start" x="82.5" y="-1176.5" font-family="Helvetica,sans-Serif" font-size="10.00">&#45; qHash()</text>
<text text-anchor="start" x="82.5" y="-1165.5" font-family="Helvetica,sans-Serif" font-size="10.00">&#45; GetObject()</text>
<text text-anchor="start" x="82.5" y="-1154.5" font-family="Helvetica,sans-Serif" font-size="10.00">&#45; UpdateObject()</text>
<text text-anchor="start" x="82.5" y="-1143.5" font-family="Helvetica,sans-Serif" font-size="10.00">&#45; DataVar()</text>
<text text-anchor="start" x="82.5" y="-1132.5" font-family="Helvetica,sans-Serif" font-size="10.00">&#45; AddObject()</text>
</a>
</g>
</g>
<!-- Node6&#45;&gt;Node4 -->
<g id="edge5" class="edge">
<title>Node6&#45;&gt;Node4</title>
<path fill="none" stroke="#404040" d="M164,-1125.25C164,-1113.57 164,-1101.81 164,-1090.07"/>
<polygon fill="none" stroke="#404040" points="164,-1089.84 160,-1083.84 164,-1077.84 168,-1083.84 164,-1089.84"/>
<text text-anchor="middle" x="181" y="-1099" font-family="Helvetica,sans-Serif" font-size="10.00"> #data</text>
</g>
<!-- Node7 -->
<g id="node7" class="node">
<title>Node7</title>
<g id="a_node7"><a xlink:href="../../dd/da2/classVScaledLine.html" target="_top" xlink:title=" ">
<polygon fill="white" stroke="black" points="258.5,-789.5 258.5,-912.5 365.5,-912.5 365.5,-789.5 258.5,-789.5"/>
<text text-anchor="middle" x="312" y="-900.5" font-family="Helvetica,sans-Serif" font-size="10.00">VScaledLine</text>
<polyline fill="none" stroke="black" points="258.5,-893.5 365.5,-893.5 "/>
<text text-anchor="start" x="266.5" y="-881.5" font-family="Helvetica,sans-Serif" font-size="10.00">&#45; basicWidth</text>
<polyline fill="none" stroke="black" points="258.5,-874.5 365.5,-874.5 "/>
<text text-anchor="start" x="266.5" y="-862.5" font-family="Helvetica,sans-Serif" font-size="10.00">+ VScaledLine()</text>
<text text-anchor="start" x="266.5" y="-851.5" font-family="Helvetica,sans-Serif" font-size="10.00">+ VScaledLine()</text>
<text text-anchor="start" x="266.5" y="-840.5" font-family="Helvetica,sans-Serif" font-size="10.00">+ ~VScaledLine()</text>
<text text-anchor="start" x="266.5" y="-829.5" font-family="Helvetica,sans-Serif" font-size="10.00">+ type()</text>
<text text-anchor="start" x="266.5" y="-818.5" font-family="Helvetica,sans-Serif" font-size="10.00">+ paint()</text>
<text text-anchor="start" x="266.5" y="-807.5" font-family="Helvetica,sans-Serif" font-size="10.00">+ GetBasicWidth()</text>
<text text-anchor="start" x="266.5" y="-796.5" font-family="Helvetica,sans-Serif" font-size="10.00">+ setBasicWidth()</text>
</a>
</g>
</g>
<!-- Node7&#45;&gt;Node1 -->
<g id="edge12" class="edge">
<title>Node7&#45;&gt;Node1</title>
<path fill="none" stroke="#404040" d="M312.17,-789.14C312.83,-671.64 316.03,-405.42 331,-182 331.76,-170.63 332.79,-158.64 333.92,-146.88"/>
<polygon fill="none" stroke="#404040" points="333.94,-146.68 330.55,-140.32 335.13,-134.74 338.51,-141.11 333.94,-146.68"/>
<text text-anchor="middle" x="338" y="-393" font-family="Helvetica,sans-Serif" font-size="10.00"> &#45;xAxis</text>
</g>
<!-- Node7&#45;&gt;Node3 -->
<g id="edge6" class="edge">
<title>Node7&#45;&gt;Node3</title>
<path fill="none" stroke="midnightblue" d="M291.22,-779.53C274.76,-723.68 251.72,-645.52 234.38,-586.71"/>
<polygon fill="none" stroke="midnightblue" points="287.93,-780.73 294.12,-789.34 294.65,-778.75 287.93,-780.73"/>
</g>
<!-- Node8 -->
<g id="node8" class="node">
<title>Node8</title>
<g id="a_node8"><a xlink:title=" ">
<polygon fill="white" stroke="#bfbfbf" points="272,-1312.5 272,-1369.5 382,-1369.5 382,-1312.5 272,-1312.5"/>
<text text-anchor="middle" x="327" y="-1357.5" font-family="Helvetica,sans-Serif" font-size="10.00">QGraphicsLineItem</text>
<polyline fill="none" stroke="#bfbfbf" points="272,-1350.5 382,-1350.5 "/>
<text text-anchor="middle" x="327" y="-1338.5" font-family="Helvetica,sans-Serif" font-size="10.00"> </text>
<polyline fill="none" stroke="#bfbfbf" points="272,-1331.5 382,-1331.5 "/>
<text text-anchor="middle" x="327" y="-1319.5" font-family="Helvetica,sans-Serif" font-size="10.00"> </text>
</a>
</g>
</g>
<!-- Node8&#45;&gt;Node7 -->
<g id="edge7" class="edge">
<title>Node8&#45;&gt;Node7</title>
<path fill="none" stroke="midnightblue" d="M325.84,-1302.25C323.26,-1218.17 317.01,-1014.9 313.87,-912.74"/>
<polygon fill="none" stroke="midnightblue" points="322.34,-1302.48 326.15,-1312.36 329.34,-1302.26 322.34,-1302.48"/>
</g>
<!-- Node9 -->
<g id="node9" class="node">
<title>Node9</title>
<g id="a_node9"><a xlink:href="../../d3/d85/classVCurvePathItem.html" target="_top" xlink:title=" ">
<polygon fill="white" stroke="black" points="340.5,-204.5 340.5,-349.5 469.5,-349.5 469.5,-204.5 340.5,-204.5"/>
<text text-anchor="middle" x="405" y="-337.5" font-family="Helvetica,sans-Serif" font-size="10.00">VCurvePathItem</text>
<polyline fill="none" stroke="black" points="340.5,-330.5 469.5,-330.5 "/>
<text text-anchor="start" x="348.5" y="-318.5" font-family="Helvetica,sans-Serif" font-size="10.00">&#45; m_directionArrows</text>
<text text-anchor="start" x="348.5" y="-307.5" font-family="Helvetica,sans-Serif" font-size="10.00">&#45; m_points</text>
<polyline fill="none" stroke="black" points="340.5,-300.5 469.5,-300.5 "/>
<text text-anchor="start" x="348.5" y="-288.5" font-family="Helvetica,sans-Serif" font-size="10.00">+ VCurvePathItem()</text>
<text text-anchor="start" x="348.5" y="-277.5" font-family="Helvetica,sans-Serif" font-size="10.00">+ ~VCurvePathItem()</text>
<text text-anchor="start" x="348.5" y="-266.5" font-family="Helvetica,sans-Serif" font-size="10.00">+ shape()</text>
<text text-anchor="start" x="348.5" y="-255.5" font-family="Helvetica,sans-Serif" font-size="10.00">+ paint()</text>
<text text-anchor="start" x="348.5" y="-244.5" font-family="Helvetica,sans-Serif" font-size="10.00">+ type()</text>
<text text-anchor="start" x="348.5" y="-233.5" font-family="Helvetica,sans-Serif" font-size="10.00">+ SetDirectionArrows()</text>
<text text-anchor="start" x="348.5" y="-222.5" font-family="Helvetica,sans-Serif" font-size="10.00">+ SetPoints()</text>
<text text-anchor="start" x="348.5" y="-211.5" font-family="Helvetica,sans-Serif" font-size="10.00"># ScalePenWidth()</text>
</a>
</g>
</g>
<!-- Node9&#45;&gt;Node1 -->
<g id="edge8" class="edge">
<title>Node9&#45;&gt;Node1</title>
<path fill="none" stroke="#404040" d="M383.58,-204.3C377.98,-185.58 371.93,-165.31 366.24,-146.29"/>
<polygon fill="none" stroke="#404040" points="366.19,-146.13 360.64,-141.52 362.76,-134.63 368.31,-139.23 366.19,-146.13"/>
<text text-anchor="middle" x="396" y="-156" font-family="Helvetica,sans-Serif" font-size="10.00"> &#45;angleArc</text>
</g>
<!-- Node10 -->
<g id="node10" class="node">
<title>Node10</title>
<g id="a_node10"><a xlink:title=" ">
<polygon fill="white" stroke="#bfbfbf" points="350,-474.5 350,-531.5 460,-531.5 460,-474.5 350,-474.5"/>
<text text-anchor="middle" x="405" y="-519.5" font-family="Helvetica,sans-Serif" font-size="10.00">QGraphicsPathItem</text>
<polyline fill="none" stroke="#bfbfbf" points="350,-512.5 460,-512.5 "/>
<text text-anchor="middle" x="405" y="-500.5" font-family="Helvetica,sans-Serif" font-size="10.00"> </text>
<polyline fill="none" stroke="#bfbfbf" points="350,-493.5 460,-493.5 "/>
<text text-anchor="middle" x="405" y="-481.5" font-family="Helvetica,sans-Serif" font-size="10.00"> </text>
</a>
</g>
</g>
<!-- Node10&#45;&gt;Node9 -->
<g id="edge9" class="edge">
<title>Node10&#45;&gt;Node9</title>
<path fill="none" stroke="midnightblue" d="M405,-464.05C405,-432.82 405,-387.66 405,-349.65"/>
<polygon fill="none" stroke="midnightblue" points="401.5,-464.08 405,-474.08 408.5,-464.08 401.5,-464.08"/>
</g>
<!-- Node11 -->
<g id="node11" class="node">
<title>Node11</title>
<g id="a_node11"><a xlink:href="../../d8/dbf/classVScaledEllipse.html" target="_top" xlink:title=" ">
<polygon fill="white" stroke="black" points="487.5,-232 487.5,-322 602.5,-322 602.5,-232 487.5,-232"/>
<text text-anchor="middle" x="545" y="-310" font-family="Helvetica,sans-Serif" font-size="10.00">VScaledEllipse</text>
<polyline fill="none" stroke="black" points="487.5,-303 602.5,-303 "/>
<text text-anchor="middle" x="545" y="-291" font-family="Helvetica,sans-Serif" font-size="10.00"> </text>
<polyline fill="none" stroke="black" points="487.5,-284 602.5,-284 "/>
<text text-anchor="start" x="495.5" y="-272" font-family="Helvetica,sans-Serif" font-size="10.00">+ VScaledEllipse()</text>
<text text-anchor="start" x="495.5" y="-261" font-family="Helvetica,sans-Serif" font-size="10.00">+ ~VScaledEllipse()</text>
<text text-anchor="start" x="495.5" y="-250" font-family="Helvetica,sans-Serif" font-size="10.00">+ type()</text>
<text text-anchor="start" x="495.5" y="-239" font-family="Helvetica,sans-Serif" font-size="10.00">+ paint()</text>
</a>
</g>
</g>
<!-- Node11&#45;&gt;Node1 -->
<g id="edge10" class="edge">
<title>Node11&#45;&gt;Node1</title>
<path fill="none" stroke="#404040" d="M516.81,-231.66C505.58,-215.35 492,-197.17 478,-182 458.55,-160.93 435.27,-140.09 413.56,-122.13"/>
<polygon fill="none" stroke="#404040" points="413.33,-121.94 406.15,-121.25 404.04,-114.35 411.21,-115.05 413.33,-121.94"/>
<text text-anchor="middle" x="474" y="-156" font-family="Helvetica,sans-Serif" font-size="10.00"> &#45;point</text>
</g>
<!-- Node12 -->
<g id="node12" class="node">
<title>Node12</title>
<g id="a_node12"><a xlink:title=" ">
<polygon fill="white" stroke="#bfbfbf" points="484,-474.5 484,-531.5 606,-531.5 606,-474.5 484,-474.5"/>
<text text-anchor="middle" x="545" y="-519.5" font-family="Helvetica,sans-Serif" font-size="10.00">QGraphicsEllipseItem</text>
<polyline fill="none" stroke="#bfbfbf" points="484,-512.5 606,-512.5 "/>
<text text-anchor="middle" x="545" y="-500.5" font-family="Helvetica,sans-Serif" font-size="10.00"> </text>
<polyline fill="none" stroke="#bfbfbf" points="484,-493.5 606,-493.5 "/>
<text text-anchor="middle" x="545" y="-481.5" font-family="Helvetica,sans-Serif" font-size="10.00"> </text>
</a>
</g>
</g>
<!-- Node12&#45;&gt;Node11 -->
<g id="edge11" class="edge">
<title>Node12&#45;&gt;Node11</title>
<path fill="none" stroke="midnightblue" d="M545,-463.86C545,-424.59 545,-363.44 545,-322.11"/>
<polygon fill="none" stroke="midnightblue" points="541.5,-464.08 545,-474.08 548.5,-464.08 541.5,-464.08"/>
</g>
</g>
</svg>
