<?xml version="1.0" encoding="UTF-8" standalone="no"?>
<!DOCTYPE svg PUBLIC "-//W3C//DTD SVG 1.1//EN"
 "http://www.w3.org/Graphics/SVG/1.1/DTD/svg11.dtd">
<!-- Generated by graphviz version 2.43.0 (0)
 -->
<!-- Title: src/libs/vgeometry/vabstractcubicbezierpath.h Pages: 1 -->
<svg width="4891pt" height="318pt"
 viewBox="0.00 0.00 4890.50 318.00" xmlns="http://www.w3.org/2000/svg" xmlns:xlink="http://www.w3.org/1999/xlink">
<g id="graph0" class="graph" transform="scale(1 1) rotate(0) translate(4 314)">
<title>src/libs/vgeometry/vabstractcubicbezierpath.h</title>
<polygon fill="white" stroke="transparent" points="-4,4 -4,-314 4886.5,-314 4886.5,4 -4,4"/>
<!-- Node1 -->
<g id="node1" class="node">
<title>Node1</title>
<g id="a_node1"><a xlink:title=" ">
<polygon fill="#bfbfbf" stroke="black" points="1180.5,-279.5 1180.5,-309.5 1332.5,-309.5 1332.5,-279.5 1180.5,-279.5"/>
<text text-anchor="start" x="1188.5" y="-297.5" font-family="Helvetica,sans-Serif" font-size="10.00">src/libs/vgeometry</text>
<text text-anchor="middle" x="1256.5" y="-286.5" font-family="Helvetica,sans-Serif" font-size="10.00">/vabstractcubicbezierpath.h</text>
</a>
</g>
</g>
<!-- Node2 -->
<g id="node2" class="node">
<title>Node2</title>
<g id="a_node2"><a xlink:href="../../db/d0a/vabstractcubicbezierpath_8cpp.html" target="_top" xlink:title=" ">
<polygon fill="white" stroke="black" points="891,-212.5 891,-242.5 1054,-242.5 1054,-212.5 891,-212.5"/>
<text text-anchor="start" x="899" y="-230.5" font-family="Helvetica,sans-Serif" font-size="10.00">src/libs/vgeometry</text>
<text text-anchor="middle" x="972.5" y="-219.5" font-family="Helvetica,sans-Serif" font-size="10.00">/vabstractcubicbezierpath.cpp</text>
</a>
</g>
</g>
<!-- Node1&#45;&gt;Node2 -->
<g id="edge1" class="edge">
<title>Node1&#45;&gt;Node2</title>
<path fill="none" stroke="midnightblue" d="M1185.22,-277.19C1138.71,-266.54 1078.6,-252.78 1034.15,-242.61"/>
<polygon fill="midnightblue" stroke="midnightblue" points="1184.7,-280.66 1195.23,-279.48 1186.26,-273.83 1184.7,-280.66"/>
</g>
<!-- Node3 -->
<g id="node3" class="node">
<title>Node3</title>
<g id="a_node3"><a xlink:href="../../dd/dbe/vcubicbezierpath_8h.html" target="_top" xlink:title=" ">
<polygon fill="white" stroke="black" points="1072.5,-212.5 1072.5,-242.5 1184.5,-242.5 1184.5,-212.5 1072.5,-212.5"/>
<text text-anchor="start" x="1080.5" y="-230.5" font-family="Helvetica,sans-Serif" font-size="10.00">src/libs/vgeometry</text>
<text text-anchor="middle" x="1128.5" y="-219.5" font-family="Helvetica,sans-Serif" font-size="10.00">/vcubicbezierpath.h</text>
</a>
</g>
</g>
<!-- Node1&#45;&gt;Node3 -->
<g id="edge2" class="edge">
<title>Node1&#45;&gt;Node3</title>
<path fill="none" stroke="midnightblue" d="M1219.78,-274.85C1199.54,-264.58 1174.83,-252.03 1156.22,-242.58"/>
<polygon fill="midnightblue" stroke="midnightblue" points="1218.22,-277.99 1228.73,-279.4 1221.39,-271.75 1218.22,-277.99"/>
</g>
<!-- Node5 -->
<g id="node5" class="node">
<title>Node5</title>
<g id="a_node5"><a xlink:href="../../d0/d39/vsplinepath_8h.html" target="_top" xlink:title=" ">
<polygon fill="white" stroke="black" points="1203,-212.5 1203,-242.5 1310,-242.5 1310,-212.5 1203,-212.5"/>
<text text-anchor="start" x="1211" y="-230.5" font-family="Helvetica,sans-Serif" font-size="10.00">src/libs/vgeometry</text>
<text text-anchor="middle" x="1256.5" y="-219.5" font-family="Helvetica,sans-Serif" font-size="10.00">/vsplinepath.h</text>
</a>
</g>
</g>
<!-- Node1&#45;&gt;Node5 -->
<g id="edge4" class="edge">
<title>Node1&#45;&gt;Node5</title>
<path fill="none" stroke="midnightblue" d="M1256.5,-269.11C1256.5,-260.15 1256.5,-250.32 1256.5,-242.58"/>
<polygon fill="midnightblue" stroke="midnightblue" points="1253,-269.4 1256.5,-279.4 1260,-269.4 1253,-269.4"/>
</g>
<!-- Node10 -->
<g id="node10" class="node">
<title>Node10</title>
<g id="a_node10"><a xlink:href="../../d3/df7/vcontainer_8h.html" target="_top" xlink:title=" ">
<polygon fill="white" stroke="black" points="2213,-212.5 2213,-242.5 2320,-242.5 2320,-212.5 2213,-212.5"/>
<text text-anchor="start" x="2221" y="-230.5" font-family="Helvetica,sans-Serif" font-size="10.00">src/libs/vpatterndb</text>
<text text-anchor="middle" x="2266.5" y="-219.5" font-family="Helvetica,sans-Serif" font-size="10.00">/vcontainer.h</text>
</a>
</g>
</g>
<!-- Node1&#45;&gt;Node10 -->
<g id="edge9" class="edge">
<title>Node1&#45;&gt;Node10</title>
<path fill="none" stroke="midnightblue" d="M1342.84,-287.94C1545.65,-274.89 2047.74,-242.58 2212.89,-231.95"/>
<polygon fill="midnightblue" stroke="midnightblue" points="1342.58,-284.45 1332.83,-288.59 1343.03,-291.44 1342.58,-284.45"/>
</g>
<!-- Node44 -->
<g id="node39" class="node">
<title>Node44</title>
<g id="a_node39"><a xlink:href="../../d6/d46/vcontainer_8cpp.html" target="_top" xlink:title=" ">
<polygon fill="white" stroke="black" points="3245,-67.5 3245,-97.5 3352,-97.5 3352,-67.5 3245,-67.5"/>
<text text-anchor="start" x="3253" y="-85.5" font-family="Helvetica,sans-Serif" font-size="10.00">src/libs/vpatterndb</text>
<text text-anchor="middle" x="3298.5" y="-74.5" font-family="Helvetica,sans-Serif" font-size="10.00">/vcontainer.cpp</text>
</a>
</g>
</g>
<!-- Node1&#45;&gt;Node44 -->
<g id="edge62" class="edge">
<title>Node1&#45;&gt;Node44</title>
<path fill="none" stroke="midnightblue" d="M1342.95,-292.29C1747.1,-286.22 3433.76,-256.16 3509.5,-176 3522.32,-162.43 3521.06,-148.66 3509.5,-134 3508.25,-132.42 3414.25,-110.35 3352.15,-95.92"/>
<polygon fill="midnightblue" stroke="midnightblue" points="1342.74,-288.79 1332.79,-292.44 1342.84,-295.79 1342.74,-288.79"/>
</g>
<!-- Node4 -->
<g id="node4" class="node">
<title>Node4</title>
<g id="a_node4"><a xlink:href="../../de/df0/vcubicbezierpath_8cpp.html" target="_top" xlink:title=" ">
<polygon fill="white" stroke="black" points="788,-140 788,-170 911,-170 911,-140 788,-140"/>
<text text-anchor="start" x="796" y="-158" font-family="Helvetica,sans-Serif" font-size="10.00">src/libs/vgeometry</text>
<text text-anchor="middle" x="849.5" y="-147" font-family="Helvetica,sans-Serif" font-size="10.00">/vcubicbezierpath.cpp</text>
</a>
</g>
</g>
<!-- Node3&#45;&gt;Node4 -->
<g id="edge3" class="edge">
<title>Node3&#45;&gt;Node4</title>
<path fill="none" stroke="midnightblue" d="M1062.53,-211.3C1021.31,-201.61 967.19,-188.57 919.5,-176 912.41,-174.13 904.94,-172.08 897.63,-170.03"/>
<polygon fill="midnightblue" stroke="midnightblue" points="1061.92,-214.75 1072.46,-213.62 1063.52,-207.93 1061.92,-214.75"/>
</g>
<!-- Node6 -->
<g id="node6" class="node">
<title>Node6</title>
<g id="a_node6"><a xlink:href="../../db/d6a/vsplinepath_8cpp.html" target="_top" xlink:title=" ">
<polygon fill="white" stroke="black" points="929,-140 929,-170 1036,-170 1036,-140 929,-140"/>
<text text-anchor="start" x="937" y="-158" font-family="Helvetica,sans-Serif" font-size="10.00">src/libs/vgeometry</text>
<text text-anchor="middle" x="982.5" y="-147" font-family="Helvetica,sans-Serif" font-size="10.00">/vsplinepath.cpp</text>
</a>
</g>
</g>
<!-- Node5&#45;&gt;Node6 -->
<g id="edge5" class="edge">
<title>Node5&#45;&gt;Node6</title>
<path fill="none" stroke="midnightblue" d="M1193.22,-211.89C1141.61,-199.87 1072.94,-183.63 1045.5,-176 1038.98,-174.19 1032.11,-172.15 1025.42,-170.08"/>
<polygon fill="midnightblue" stroke="midnightblue" points="1192.43,-215.3 1202.96,-214.15 1194.02,-208.48 1192.43,-215.3"/>
</g>
<!-- Node7 -->
<g id="node7" class="node">
<title>Node7</title>
<g id="a_node7"><a xlink:href="../../d1/d3a/abstracttest_8cpp.html" target="_top" xlink:title=" ">
<polygon fill="white" stroke="black" points="1277,-145.5 1277,-164.5 1438,-164.5 1438,-145.5 1277,-145.5"/>
<text text-anchor="middle" x="1357.5" y="-152.5" font-family="Helvetica,sans-Serif" font-size="10.00">src/libs/vtest/abstracttest.cpp</text>
</a>
</g>
</g>
<!-- Node5&#45;&gt;Node7 -->
<g id="edge6" class="edge">
<title>Node5&#45;&gt;Node7</title>
<path fill="none" stroke="midnightblue" d="M1285.29,-206.4C1305.03,-192.62 1330.24,-175.03 1345.05,-164.69"/>
<polygon fill="midnightblue" stroke="midnightblue" points="1283.14,-203.64 1276.94,-212.23 1287.14,-209.38 1283.14,-203.64"/>
</g>
<!-- Node8 -->
<g id="node8" class="node">
<title>Node8</title>
<g id="a_node8"><a xlink:href="../../d8/d13/vcontrolpointspline_8h.html" target="_top" xlink:title=" ">
<polygon fill="white" stroke="black" points="1054.5,-145.5 1054.5,-164.5 1258.5,-164.5 1258.5,-145.5 1054.5,-145.5"/>
<text text-anchor="middle" x="1156.5" y="-152.5" font-family="Helvetica,sans-Serif" font-size="10.00">src/libs/vwidgets/vcontrolpointspline.h</text>
</a>
</g>
</g>
<!-- Node5&#45;&gt;Node8 -->
<g id="edge7" class="edge">
<title>Node5&#45;&gt;Node8</title>
<path fill="none" stroke="midnightblue" d="M1227.99,-206.4C1208.45,-192.62 1183.49,-175.03 1168.83,-164.69"/>
<polygon fill="midnightblue" stroke="midnightblue" points="1226.07,-209.33 1236.26,-212.23 1230.11,-203.61 1226.07,-209.33"/>
</g>
<!-- Node9 -->
<g id="node9" class="node">
<title>Node9</title>
<g id="a_node9"><a xlink:href="../../de/d45/vcontrolpointspline_8cpp.html" target="_top" xlink:title=" ">
<polygon fill="white" stroke="black" points="0,-73 0,-92 215,-92 215,-73 0,-73"/>
<text text-anchor="middle" x="107.5" y="-80" font-family="Helvetica,sans-Serif" font-size="10.00">src/libs/vwidgets/vcontrolpointspline.cpp</text>
</a>
</g>
</g>
<!-- Node8&#45;&gt;Node9 -->
<g id="edge8" class="edge">
<title>Node8&#45;&gt;Node9</title>
<path fill="none" stroke="midnightblue" d="M1106.2,-143.55C1086.98,-139.94 1064.8,-136.25 1044.5,-134 681.92,-93.85 588.02,-128.46 224.5,-98 206.35,-96.48 186.68,-94.26 168.73,-92.02"/>
<polygon fill="midnightblue" stroke="midnightblue" points="1105.77,-147.03 1116.25,-145.48 1107.09,-140.16 1105.77,-147.03"/>
</g>
<!-- Node10&#45;&gt;Node7 -->
<g id="edge60" class="edge">
<title>Node10&#45;&gt;Node7</title>
<path fill="none" stroke="midnightblue" d="M2202.96,-226.03C2064.7,-224.25 1726.5,-215.82 1446.5,-176 1427.53,-173.3 1406.61,-168.69 1389.82,-164.57"/>
<polygon fill="midnightblue" stroke="midnightblue" points="2202.92,-229.53 2212.96,-226.15 2203,-222.53 2202.92,-229.53"/>
</g>
<!-- Node11 -->
<g id="node11" class="node">
<title>Node11</title>
<g id="a_node11"><a xlink:href="../../dc/db7/measurements_8h.html" target="_top" xlink:title=" ">
<polygon fill="white" stroke="black" points="3321,-145.5 3321,-164.5 3500,-164.5 3500,-145.5 3321,-145.5"/>
<text text-anchor="middle" x="3410.5" y="-152.5" font-family="Helvetica,sans-Serif" font-size="10.00">src/libs/vformat/measurements.h</text>
</a>
</g>
</g>
<!-- Node10&#45;&gt;Node11 -->
<g id="edge10" class="edge">
<title>Node10&#45;&gt;Node11</title>
<path fill="none" stroke="midnightblue" d="M2330.37,-226.53C2493.53,-225.94 2938.78,-220.06 3306.5,-176 3328.77,-173.33 3353.44,-168.66 3373.15,-164.51"/>
<polygon fill="midnightblue" stroke="midnightblue" points="2330.02,-223.03 2320.03,-226.57 2330.04,-230.03 2330.02,-223.03"/>
</g>
<!-- Node12 -->
<g id="node12" class="node">
<title>Node12</title>
<g id="a_node12"><a xlink:href="../../d9/de3/measurements_8cpp.html" target="_top" xlink:title=" ">
<polygon fill="white" stroke="black" points="3370.5,-73 3370.5,-92 3560.5,-92 3560.5,-73 3370.5,-73"/>
<text text-anchor="middle" x="3465.5" y="-80" font-family="Helvetica,sans-Serif" font-size="10.00">src/libs/vformat/measurements.cpp</text>
</a>
</g>
</g>
<!-- Node10&#45;&gt;Node12 -->
<g id="edge12" class="edge">
<title>Node10&#45;&gt;Node12</title>
<path fill="none" stroke="midnightblue" d="M2330.22,-225.7C2536.6,-222.76 3178.32,-210.89 3264.5,-176 3290.78,-165.36 3287.88,-148.06 3312.5,-134 3348.21,-113.61 3393.36,-99.99 3425.33,-92.08"/>
<polygon fill="midnightblue" stroke="midnightblue" points="2330.1,-222.2 2320.15,-225.84 2330.2,-229.2 2330.1,-222.2"/>
</g>
<!-- Node13 -->
<g id="node13" class="node">
<title>Node13</title>
<g id="a_node13"><a xlink:href="../../d6/de0/vlayoutpiece_8h.html" target="_top" xlink:title=" ">
<polygon fill="white" stroke="black" points="4091.5,-145.5 4091.5,-164.5 4257.5,-164.5 4257.5,-145.5 4091.5,-145.5"/>
<text text-anchor="middle" x="4174.5" y="-152.5" font-family="Helvetica,sans-Serif" font-size="10.00">src/libs/vlayout/vlayoutpiece.h</text>
</a>
</g>
</g>
<!-- Node10&#45;&gt;Node13 -->
<g id="edge13" class="edge">
<title>Node10&#45;&gt;Node13</title>
<path fill="none" stroke="midnightblue" d="M2330.17,-224.15C2614.77,-213.63 3770.34,-170.93 4091.4,-159.07"/>
<polygon fill="midnightblue" stroke="midnightblue" points="2329.89,-220.66 2320.02,-224.52 2330.15,-227.65 2329.89,-220.66"/>
</g>
<!-- Node23 -->
<g id="node22" class="node">
<title>Node23</title>
<g id="a_node22"><a xlink:href="../../d8/d70/vtextmanager_8cpp.html" target="_top" xlink:title=" ">
<polygon fill="white" stroke="black" points="233.5,-73 233.5,-92 415.5,-92 415.5,-73 233.5,-73"/>
<text text-anchor="middle" x="324.5" y="-80" font-family="Helvetica,sans-Serif" font-size="10.00">src/libs/vlayout/vtextmanager.cpp</text>
</a>
</g>
</g>
<!-- Node10&#45;&gt;Node23 -->
<g id="edge24" class="edge">
<title>Node10&#45;&gt;Node23</title>
<path fill="none" stroke="midnightblue" d="M2247.36,-204.54C2223.58,-177.26 2186.03,-134.25 2185.5,-134 2096.8,-92.67 522.02,-106.04 424.5,-98 408.24,-96.66 390.6,-94.38 374.72,-92.02"/>
<polygon fill="midnightblue" stroke="midnightblue" points="2244.74,-206.86 2253.95,-212.1 2250.02,-202.26 2244.74,-206.86"/>
</g>
<!-- Node24 -->
<g id="node23" class="node">
<title>Node24</title>
<g id="a_node23"><a xlink:href="../../d5/d74/vabstractapplication_8h.html" target="_top" xlink:title=" ">
<polygon fill="white" stroke="red" points="2232,-145.5 2232,-164.5 2427,-164.5 2427,-145.5 2232,-145.5"/>
<text text-anchor="middle" x="2329.5" y="-152.5" font-family="Helvetica,sans-Serif" font-size="10.00">src/libs/vmisc/vabstractapplication.h</text>
</a>
</g>
</g>
<!-- Node10&#45;&gt;Node24 -->
<g id="edge25" class="edge">
<title>Node10&#45;&gt;Node24</title>
<path fill="none" stroke="midnightblue" d="M2285.93,-204.76C2297.92,-191.34 2312.66,-174.85 2321.55,-164.89"/>
<polygon fill="midnightblue" stroke="midnightblue" points="2283.3,-202.44 2279.25,-212.23 2288.52,-207.11 2283.3,-202.44"/>
</g>
<!-- Node42 -->
<g id="node37" class="node">
<title>Node42</title>
<g id="a_node37"><a xlink:href="../../db/d11/vformula_8cpp.html" target="_top" xlink:title=" ">
<polygon fill="white" stroke="black" points="2956,-67.5 2956,-97.5 3063,-97.5 3063,-67.5 2956,-67.5"/>
<text text-anchor="start" x="2964" y="-85.5" font-family="Helvetica,sans-Serif" font-size="10.00">src/libs/vpatterndb</text>
<text text-anchor="middle" x="3009.5" y="-74.5" font-family="Helvetica,sans-Serif" font-size="10.00">/vformula.cpp</text>
</a>
</g>
</g>
<!-- Node10&#45;&gt;Node42 -->
<g id="edge54" class="edge">
<title>Node10&#45;&gt;Node42</title>
<path fill="none" stroke="midnightblue" d="M2330.59,-215.26C2451.37,-193.88 2720.83,-145.27 2946.5,-98 2949.58,-97.36 2952.73,-96.68 2955.92,-95.98"/>
<polygon fill="midnightblue" stroke="midnightblue" points="2329.65,-211.87 2320.42,-217.06 2330.87,-218.76 2329.65,-211.87"/>
</g>
<!-- Node43 -->
<g id="node38" class="node">
<title>Node43</title>
<g id="a_node38"><a xlink:href="../../df/d7a/vpiece_8cpp.html" target="_top" xlink:title=" ">
<polygon fill="white" stroke="black" points="3081,-67.5 3081,-97.5 3188,-97.5 3188,-67.5 3081,-67.5"/>
<text text-anchor="start" x="3089" y="-85.5" font-family="Helvetica,sans-Serif" font-size="10.00">src/libs/vpatterndb</text>
<text text-anchor="middle" x="3134.5" y="-74.5" font-family="Helvetica,sans-Serif" font-size="10.00">/vpiece.cpp</text>
</a>
</g>
</g>
<!-- Node10&#45;&gt;Node43 -->
<g id="edge57" class="edge">
<title>Node10&#45;&gt;Node43</title>
<path fill="none" stroke="midnightblue" d="M2330.11,-220.04C2410.54,-211.54 2553.18,-195.4 2674.5,-176 2852.06,-147.6 2895.64,-135.5 3071.5,-98 3074.57,-97.34 3077.73,-96.66 3080.91,-95.96"/>
<polygon fill="midnightblue" stroke="midnightblue" points="2329.71,-216.56 2320.14,-221.09 2330.45,-223.52 2329.71,-216.56"/>
</g>
<!-- Node10&#45;&gt;Node44 -->
<g id="edge58" class="edge">
<title>Node10&#45;&gt;Node44</title>
<path fill="none" stroke="midnightblue" d="M2330.42,-226.3C2532.94,-225.23 3151.71,-218.49 3230.5,-176 3262.6,-158.69 3283.56,-118.86 3292.9,-97.55"/>
<polygon fill="midnightblue" stroke="midnightblue" points="2330.22,-222.8 2320.24,-226.35 2330.26,-229.8 2330.22,-222.8"/>
</g>
<!-- Node46 -->
<g id="node41" class="node">
<title>Node46</title>
<g id="a_node41"><a xlink:href="../../d8/dba/vpiecenode_8cpp.html" target="_top" xlink:title=" ">
<polygon fill="white" stroke="black" points="2997,-0.5 2997,-30.5 3104,-30.5 3104,-0.5 2997,-0.5"/>
<text text-anchor="start" x="3005" y="-18.5" font-family="Helvetica,sans-Serif" font-size="10.00">src/libs/vpatterndb</text>
<text text-anchor="middle" x="3050.5" y="-7.5" font-family="Helvetica,sans-Serif" font-size="10.00">/vpiecenode.cpp</text>
</a>
</g>
</g>
<!-- Node10&#45;&gt;Node46 -->
<g id="edge56" class="edge">
<title>Node10&#45;&gt;Node46</title>
<path fill="none" stroke="midnightblue" d="M2330.21,-222.62C2531.1,-209.71 3141.25,-165.22 3196.5,-98 3226.91,-61 3157.47,-37.84 3104.26,-26.05"/>
<polygon fill="midnightblue" stroke="midnightblue" points="2329.87,-219.13 2320.11,-223.26 2330.31,-226.12 2329.87,-219.13"/>
</g>
<!-- Node62 -->
<g id="node46" class="node">
<title>Node62</title>
<g id="a_node46"><a xlink:href="../../d3/d02/custom__variable__p_8h.html" target="_top" xlink:title=" ">
<polygon fill="white" stroke="red" points="1456,-140 1456,-170 1625,-170 1625,-140 1456,-140"/>
<text text-anchor="start" x="1464" y="-158" font-family="Helvetica,sans-Serif" font-size="10.00">src/libs/vpatterndb</text>
<text text-anchor="middle" x="1540.5" y="-147" font-family="Helvetica,sans-Serif" font-size="10.00">/variables/custom_variable_p.h</text>
</a>
</g>
</g>
<!-- Node10&#45;&gt;Node62 -->
<g id="edge52" class="edge">
<title>Node10&#45;&gt;Node62</title>
<path fill="none" stroke="midnightblue" d="M2202.65,-224.14C2088.25,-219.31 1841,-206.09 1634.5,-176 1623.52,-174.4 1611.9,-172.28 1600.72,-170.02"/>
<polygon fill="midnightblue" stroke="midnightblue" points="2202.83,-227.65 2212.97,-224.57 2203.12,-220.66 2202.83,-227.65"/>
</g>
<!-- Node64 -->
<g id="node47" class="node">
<title>Node64</title>
<g id="a_node47"><a xlink:href="../../d7/d8a/measurement__variable__p_8h.html" target="_top" xlink:title=" ">
<polygon fill="white" stroke="red" points="1643.5,-134.5 1643.5,-175.5 1779.5,-175.5 1779.5,-134.5 1643.5,-134.5"/>
<text text-anchor="start" x="1651.5" y="-163.5" font-family="Helvetica,sans-Serif" font-size="10.00">src/libs/vpatterndb</text>
<text text-anchor="start" x="1651.5" y="-152.5" font-family="Helvetica,sans-Serif" font-size="10.00">/variables/measurement</text>
<text text-anchor="middle" x="1711.5" y="-141.5" font-family="Helvetica,sans-Serif" font-size="10.00">_variable_p.h</text>
</a>
</g>
</g>
<!-- Node10&#45;&gt;Node64 -->
<g id="edge53" class="edge">
<title>Node10&#45;&gt;Node64</title>
<path fill="none" stroke="midnightblue" d="M2202.73,-222.79C2110.68,-216.76 1935.5,-202.7 1788.5,-176 1785.65,-175.48 1782.74,-174.91 1779.82,-174.31"/>
<polygon fill="midnightblue" stroke="midnightblue" points="2202.52,-226.29 2212.72,-223.44 2202.97,-219.3 2202.52,-226.29"/>
</g>
<!-- Node66 -->
<g id="node48" class="node">
<title>Node66</title>
<g id="a_node48"><a xlink:href="../../d6/d91/vnodedetail_8cpp.html" target="_top" xlink:title=" ">
<polygon fill="white" stroke="black" points="1798,-140 1798,-170 1905,-170 1905,-140 1798,-140"/>
<text text-anchor="start" x="1806" y="-158" font-family="Helvetica,sans-Serif" font-size="10.00">src/libs/vpatterndb</text>
<text text-anchor="middle" x="1851.5" y="-147" font-family="Helvetica,sans-Serif" font-size="10.00">/vnodedetail.cpp</text>
</a>
</g>
</g>
<!-- Node10&#45;&gt;Node66 -->
<g id="edge55" class="edge">
<title>Node10&#45;&gt;Node66</title>
<path fill="none" stroke="midnightblue" d="M2202.6,-220.66C2131.43,-213.39 2013.25,-199.05 1913.5,-176 1906.34,-174.35 1898.81,-172.24 1891.58,-170.02"/>
<polygon fill="midnightblue" stroke="midnightblue" points="2202.45,-224.16 2212.75,-221.68 2203.15,-217.2 2202.45,-224.16"/>
</g>
<!-- Node67 -->
<g id="node49" class="node">
<title>Node67</title>
<g id="a_node49"><a xlink:href="../../da/de1/vpiecepath_8cpp.html" target="_top" xlink:title=" ">
<polygon fill="white" stroke="black" points="1923,-140 1923,-170 2030,-170 2030,-140 1923,-140"/>
<text text-anchor="start" x="1931" y="-158" font-family="Helvetica,sans-Serif" font-size="10.00">src/libs/vpatterndb</text>
<text text-anchor="middle" x="1976.5" y="-147" font-family="Helvetica,sans-Serif" font-size="10.00">/vpiecepath.cpp</text>
</a>
</g>
</g>
<!-- Node10&#45;&gt;Node67 -->
<g id="edge59" class="edge">
<title>Node10&#45;&gt;Node67</title>
<path fill="none" stroke="midnightblue" d="M2202.91,-213.92C2157.19,-204.5 2094.23,-190.74 2039.5,-176 2032.85,-174.21 2025.86,-172.16 2019.05,-170.07"/>
<polygon fill="midnightblue" stroke="midnightblue" points="2202.47,-217.41 2212.97,-215.99 2203.88,-210.55 2202.47,-217.41"/>
</g>
<!-- Node68 -->
<g id="node50" class="node">
<title>Node68</title>
<g id="a_node50"><a xlink:href="../../da/db4/piece__tablewidgetitem_8cpp.html" target="_top" xlink:title=" ">
<polygon fill="white" stroke="black" points="2048.5,-140 2048.5,-170 2176.5,-170 2176.5,-140 2048.5,-140"/>
<text text-anchor="start" x="2056.5" y="-158" font-family="Helvetica,sans-Serif" font-size="10.00">src/libs/vwidgets/piece</text>
<text text-anchor="middle" x="2112.5" y="-147" font-family="Helvetica,sans-Serif" font-size="10.00">_tablewidgetitem.cpp</text>
</a>
</g>
</g>
<!-- Node10&#45;&gt;Node68 -->
<g id="edge61" class="edge">
<title>Node10&#45;&gt;Node68</title>
<path fill="none" stroke="midnightblue" d="M2226.5,-208.19C2200.51,-196.29 2167.15,-181.02 2143.24,-170.07"/>
<polygon fill="midnightblue" stroke="midnightblue" points="2225.16,-211.42 2235.71,-212.4 2228.07,-205.06 2225.16,-211.42"/>
</g>
<!-- Node11&#45;&gt;Node12 -->
<g id="edge11" class="edge">
<title>Node11&#45;&gt;Node12</title>
<path fill="none" stroke="midnightblue" d="M3423.45,-137.4C3434.49,-123.24 3449.93,-103.46 3458.7,-92.22"/>
<polygon fill="midnightblue" stroke="midnightblue" points="3420.64,-135.32 3417.24,-145.36 3426.15,-139.62 3420.64,-135.32"/>
</g>
<!-- Node14 -->
<g id="node14" class="node">
<title>Node14</title>
<g id="a_node14"><a xlink:href="../../dd/d66/vdxfengine_8cpp.html" target="_top" xlink:title=" ">
<polygon fill="white" stroke="black" points="4566.5,-73 4566.5,-92 4720.5,-92 4720.5,-73 4566.5,-73"/>
<text text-anchor="middle" x="4643.5" y="-80" font-family="Helvetica,sans-Serif" font-size="10.00">src/libs/vdxf/vdxfengine.cpp</text>
</a>
</g>
</g>
<!-- Node13&#45;&gt;Node14 -->
<g id="edge14" class="edge">
<title>Node13&#45;&gt;Node14</title>
<path fill="none" stroke="midnightblue" d="M4245.65,-144.07C4322.6,-133.22 4448.86,-115.1 4557.5,-98 4569.32,-96.14 4582.03,-94.05 4593.96,-92.04"/>
<polygon fill="midnightblue" stroke="midnightblue" points="4245,-140.63 4235.59,-145.49 4245.98,-147.56 4245,-140.63"/>
</g>
<!-- Node15 -->
<g id="node15" class="node">
<title>Node15</title>
<g id="a_node15"><a xlink:href="../../de/da8/vbank_8cpp.html" target="_top" xlink:title=" ">
<polygon fill="white" stroke="black" points="4738.5,-73 4738.5,-92 4882.5,-92 4882.5,-73 4738.5,-73"/>
<text text-anchor="middle" x="4810.5" y="-80" font-family="Helvetica,sans-Serif" font-size="10.00">src/libs/vlayout/vbank.cpp</text>
</a>
</g>
</g>
<!-- Node13&#45;&gt;Node15 -->
<g id="edge15" class="edge">
<title>Node13&#45;&gt;Node15</title>
<path fill="none" stroke="midnightblue" d="M4268.07,-146.76C4378.6,-137.7 4567.9,-120.58 4729.5,-98 4741.53,-96.32 4754.5,-94.16 4766.46,-92.02"/>
<polygon fill="midnightblue" stroke="midnightblue" points="4267.63,-143.28 4257.95,-147.58 4268.2,-150.26 4267.63,-143.28"/>
</g>
<!-- Node16 -->
<g id="node16" class="node">
<title>Node16</title>
<g id="a_node16"><a xlink:href="../../df/d5d/vcontour_8cpp.html" target="_top" xlink:title=" ">
<polygon fill="white" stroke="black" points="3774.5,-73 3774.5,-92 3930.5,-92 3930.5,-73 3774.5,-73"/>
<text text-anchor="middle" x="3852.5" y="-80" font-family="Helvetica,sans-Serif" font-size="10.00">src/libs/vlayout/vcontour.cpp</text>
</a>
</g>
</g>
<!-- Node13&#45;&gt;Node16 -->
<g id="edge16" class="edge">
<title>Node13&#45;&gt;Node16</title>
<path fill="none" stroke="midnightblue" d="M4125.79,-143.34C4061.7,-129.3 3950.31,-104.91 3891.48,-92.03"/>
<polygon fill="midnightblue" stroke="midnightblue" points="4125.14,-146.78 4135.66,-145.5 4126.64,-139.94 4125.14,-146.78"/>
</g>
<!-- Node17 -->
<g id="node17" class="node">
<title>Node17</title>
<g id="a_node17"><a xlink:href="../../d3/d39/vlayoutgenerator_8cpp.html" target="_top" xlink:title=" ">
<polygon fill="white" stroke="black" points="3949,-73 3949,-92 4146,-92 4146,-73 3949,-73"/>
<text text-anchor="middle" x="4047.5" y="-80" font-family="Helvetica,sans-Serif" font-size="10.00">src/libs/vlayout/vlayoutgenerator.cpp</text>
</a>
</g>
</g>
<!-- Node13&#45;&gt;Node17 -->
<g id="edge17" class="edge">
<title>Node13&#45;&gt;Node17</title>
<path fill="none" stroke="midnightblue" d="M4150.18,-140.5C4124.56,-126.28 4084.98,-104.3 4063.2,-92.22"/>
<polygon fill="midnightblue" stroke="midnightblue" points="4148.49,-143.56 4158.93,-145.36 4151.88,-137.44 4148.49,-143.56"/>
</g>
<!-- Node18 -->
<g id="node18" class="node">
<title>Node18</title>
<g id="a_node18"><a xlink:href="../../d2/d2d/vlayoutpaper__p_8h.html" target="_top" xlink:title=" ">
<polygon fill="white" stroke="black" points="4203,-73 4203,-92 4382,-92 4382,-73 4203,-73"/>
<text text-anchor="middle" x="4292.5" y="-80" font-family="Helvetica,sans-Serif" font-size="10.00">src/libs/vlayout/vlayoutpaper_p.h</text>
</a>
</g>
</g>
<!-- Node13&#45;&gt;Node18 -->
<g id="edge18" class="edge">
<title>Node13&#45;&gt;Node18</title>
<path fill="none" stroke="midnightblue" d="M4197.73,-140.12C4221.54,-125.89 4257.85,-104.2 4277.91,-92.22"/>
<polygon fill="midnightblue" stroke="midnightblue" points="4195.76,-137.22 4188.97,-145.36 4199.35,-143.23 4195.76,-137.22"/>
</g>
<!-- Node19 -->
<g id="node19" class="node">
<title>Node19</title>
<g id="a_node19"><a xlink:href="../../d1/dd1/vlayoutpaper_8cpp.html" target="_top" xlink:title=" ">
<polygon fill="white" stroke="black" points="4203.5,-6 4203.5,-25 4381.5,-25 4381.5,-6 4203.5,-6"/>
<text text-anchor="middle" x="4292.5" y="-13" font-family="Helvetica,sans-Serif" font-size="10.00">src/libs/vlayout/vlayoutpaper.cpp</text>
</a>
</g>
</g>
<!-- Node13&#45;&gt;Node19 -->
<g id="edge20" class="edge">
<title>Node13&#45;&gt;Node19</title>
<path fill="none" stroke="midnightblue" d="M4174.39,-135.24C4175.21,-116.19 4179.15,-86.76 4194.5,-67 4211.06,-45.69 4239.1,-32.53 4260.96,-25.01"/>
<polygon fill="midnightblue" stroke="midnightblue" points="4170.89,-135.28 4174.21,-145.34 4177.89,-135.41 4170.89,-135.28"/>
</g>
<!-- Node20 -->
<g id="node20" class="node">
<title>Node20</title>
<g id="a_node20"><a xlink:href="../../dd/d70/vlayoutpiece_8cpp.html" target="_top" xlink:title=" ">
<polygon fill="white" stroke="black" points="3579,-73 3579,-92 3756,-92 3756,-73 3579,-73"/>
<text text-anchor="middle" x="3667.5" y="-80" font-family="Helvetica,sans-Serif" font-size="10.00">src/libs/vlayout/vlayoutpiece.cpp</text>
</a>
</g>
</g>
<!-- Node13&#45;&gt;Node20 -->
<g id="edge21" class="edge">
<title>Node13&#45;&gt;Node20</title>
<path fill="none" stroke="midnightblue" d="M4100.75,-144.15C4018.83,-133.14 3882.65,-114.69 3765.5,-98 3752.13,-96.1 3737.75,-94 3724.23,-92"/>
<polygon fill="midnightblue" stroke="midnightblue" points="4100.33,-147.62 4110.71,-145.48 4101.27,-140.68 4100.33,-147.62"/>
</g>
<!-- Node21 -->
<g id="node21" class="node">
<title>Node21</title>
<g id="a_node21"><a xlink:href="../../db/d5c/vposition_8h.html" target="_top" xlink:title=" ">
<polygon fill="white" stroke="red" points="4400.5,-73 4400.5,-92 4548.5,-92 4548.5,-73 4400.5,-73"/>
<text text-anchor="middle" x="4474.5" y="-80" font-family="Helvetica,sans-Serif" font-size="10.00">src/libs/vlayout/vposition.h</text>
</a>
</g>
</g>
<!-- Node13&#45;&gt;Node21 -->
<g id="edge22" class="edge">
<title>Node13&#45;&gt;Node21</title>
<path fill="none" stroke="midnightblue" d="M4220.62,-143.16C4280.45,-129.1 4383.6,-104.86 4438.18,-92.03"/>
<polygon fill="midnightblue" stroke="midnightblue" points="4219.62,-139.8 4210.69,-145.5 4221.22,-146.62 4219.62,-139.8"/>
</g>
<!-- Node18&#45;&gt;Node19 -->
<g id="edge19" class="edge">
<title>Node18&#45;&gt;Node19</title>
<path fill="none" stroke="midnightblue" d="M4292.5,-62.54C4292.5,-50.17 4292.5,-34.62 4292.5,-25.13"/>
<polygon fill="midnightblue" stroke="midnightblue" points="4289,-62.73 4292.5,-72.73 4296,-62.73 4289,-62.73"/>
</g>
<!-- Node21&#45;&gt;Node19 -->
<g id="edge23" class="edge">
<title>Node21&#45;&gt;Node19</title>
<path fill="none" stroke="midnightblue" d="M4440.72,-69.44C4404.62,-56.54 4348.29,-36.42 4316.48,-25.06"/>
<polygon fill="midnightblue" stroke="midnightblue" points="4439.74,-72.8 4450.33,-72.87 4442.09,-66.21 4439.74,-72.8"/>
</g>
<!-- Node24&#45;&gt;Node9 -->
<g id="edge51" class="edge">
<title>Node24&#45;&gt;Node9</title>
<path fill="none" stroke="midnightblue" d="M2269.05,-143.96C2243.36,-140.13 2213.05,-136.16 2185.5,-134 1316.46,-65.92 1094.02,-159.69 224.5,-98 205.51,-96.65 184.88,-94.37 166.3,-92.01"/>
<polygon fill="midnightblue" stroke="midnightblue" points="2268.6,-147.44 2279.01,-145.48 2269.65,-140.52 2268.6,-147.44"/>
</g>
<!-- Node24&#45;&gt;Node20 -->
<g id="edge36" class="edge">
<title>Node24&#45;&gt;Node20</title>
<path fill="none" stroke="midnightblue" d="M2437.45,-152.82C2653.07,-149.64 3152.21,-138.19 3569.5,-98 3584.91,-96.52 3601.59,-94.28 3616.76,-92.01"/>
<polygon fill="midnightblue" stroke="midnightblue" points="2437.34,-149.32 2427.4,-152.96 2437.45,-156.32 2437.34,-149.32"/>
</g>
<!-- Node24&#45;&gt;Node23 -->
<g id="edge37" class="edge">
<title>Node24&#45;&gt;Node23</title>
<path fill="none" stroke="midnightblue" d="M2280.62,-143.47C2261.36,-139.77 2238.98,-136.04 2218.5,-134 1424.92,-55.05 1219.31,-163.35 424.5,-98 408.24,-96.66 390.6,-94.38 374.72,-92.02"/>
<polygon fill="midnightblue" stroke="midnightblue" points="2280.18,-146.95 2290.67,-145.45 2281.53,-140.08 2280.18,-146.95"/>
</g>
<!-- Node25 -->
<g id="node24" class="node">
<title>Node25</title>
<g id="a_node24"><a xlink:href="../../d4/d90/fvupdater_8cpp.html" target="_top" xlink:title=" ">
<polygon fill="white" stroke="black" points="571,-73 571,-92 724,-92 724,-73 571,-73"/>
<text text-anchor="middle" x="647.5" y="-80" font-family="Helvetica,sans-Serif" font-size="10.00">src/libs/fervor/fvupdater.cpp</text>
</a>
</g>
</g>
<!-- Node24&#45;&gt;Node25 -->
<g id="edge26" class="edge">
<title>Node24&#45;&gt;Node25</title>
<path fill="none" stroke="midnightblue" d="M2280.61,-143.51C2261.35,-139.82 2238.98,-136.08 2218.5,-134 1561.24,-67.23 1390.06,-161.71 732.5,-98 718.64,-96.66 703.64,-94.38 690.14,-92.02"/>
<polygon fill="midnightblue" stroke="midnightblue" points="2280.18,-147 2290.67,-145.49 2281.53,-140.13 2280.18,-147"/>
</g>
<!-- Node26 -->
<g id="node25" class="node">
<title>Node26</title>
<g id="a_node25"><a xlink:href="../../d9/dc8/dxiface_8cpp.html" target="_top" xlink:title=" ">
<polygon fill="white" stroke="black" points="742,-73 742,-92 877,-92 877,-73 742,-73"/>
<text text-anchor="middle" x="809.5" y="-80" font-family="Helvetica,sans-Serif" font-size="10.00">src/libs/vdxf/dxiface.cpp</text>
</a>
</g>
</g>
<!-- Node24&#45;&gt;Node26 -->
<g id="edge27" class="edge">
<title>Node24&#45;&gt;Node26</title>
<path fill="none" stroke="midnightblue" d="M2280.38,-143.5C2261.17,-139.83 2238.89,-136.1 2218.5,-134 1628.96,-73.28 1474.72,-161.74 885.5,-98 873.08,-96.66 859.65,-94.38 847.59,-92.02"/>
<polygon fill="midnightblue" stroke="midnightblue" points="2279.92,-146.98 2290.41,-145.46 2281.27,-140.11 2279.92,-146.98"/>
</g>
<!-- Node27 -->
<g id="node26" class="node">
<title>Node27</title>
<g id="a_node26"><a xlink:href="../../da/d75/vabstractarc__p_8h.html" target="_top" xlink:title=" ">
<polygon fill="white" stroke="red" points="895,-67.5 895,-97.5 1002,-97.5 1002,-67.5 895,-67.5"/>
<text text-anchor="start" x="903" y="-85.5" font-family="Helvetica,sans-Serif" font-size="10.00">src/libs/vgeometry</text>
<text text-anchor="middle" x="948.5" y="-74.5" font-family="Helvetica,sans-Serif" font-size="10.00">/vabstractarc_p.h</text>
</a>
</g>
</g>
<!-- Node24&#45;&gt;Node27 -->
<g id="edge28" class="edge">
<title>Node24&#45;&gt;Node27</title>
<path fill="none" stroke="midnightblue" d="M2280.37,-143.53C2261.16,-139.86 2238.89,-136.13 2218.5,-134 1684.28,-78.22 1543.11,-167.51 1010.5,-98 1007.76,-97.64 1004.96,-97.22 1002.15,-96.74"/>
<polygon fill="midnightblue" stroke="midnightblue" points="2279.92,-147.01 2290.4,-145.49 2281.26,-140.14 2279.92,-147.01"/>
</g>
<!-- Node29 -->
<g id="node27" class="node">
<title>Node29</title>
<g id="a_node27"><a xlink:href="../../dc/da3/varc__p_8h.html" target="_top" xlink:title=" ">
<polygon fill="white" stroke="red" points="1020,-67.5 1020,-97.5 1127,-97.5 1127,-67.5 1020,-67.5"/>
<text text-anchor="start" x="1028" y="-85.5" font-family="Helvetica,sans-Serif" font-size="10.00">src/libs/vgeometry</text>
<text text-anchor="middle" x="1073.5" y="-74.5" font-family="Helvetica,sans-Serif" font-size="10.00">/varc_p.h</text>
</a>
</g>
</g>
<!-- Node24&#45;&gt;Node29 -->
<g id="edge29" class="edge">
<title>Node24&#45;&gt;Node29</title>
<path fill="none" stroke="midnightblue" d="M2280.14,-143.52C2260.98,-139.87 2238.8,-136.15 2218.5,-134 1739.59,-83.17 1612.94,-161.14 1135.5,-98 1132.76,-97.64 1129.96,-97.21 1127.15,-96.73"/>
<polygon fill="midnightblue" stroke="midnightblue" points="2279.66,-146.99 2290.14,-145.47 2281,-140.12 2279.66,-146.99"/>
</g>
<!-- Node31 -->
<g id="node28" class="node">
<title>Node31</title>
<g id="a_node28"><a xlink:href="../../d5/d8e/vcubicbezier__p_8h.html" target="_top" xlink:title=" ">
<polygon fill="white" stroke="red" points="1145,-67.5 1145,-97.5 1252,-97.5 1252,-67.5 1145,-67.5"/>
<text text-anchor="start" x="1153" y="-85.5" font-family="Helvetica,sans-Serif" font-size="10.00">src/libs/vgeometry</text>
<text text-anchor="middle" x="1198.5" y="-74.5" font-family="Helvetica,sans-Serif" font-size="10.00">/vcubicbezier_p.h</text>
</a>
</g>
</g>
<!-- Node24&#45;&gt;Node31 -->
<g id="edge30" class="edge">
<title>Node24&#45;&gt;Node31</title>
<path fill="none" stroke="midnightblue" d="M2279.9,-143.52C2260.79,-139.89 2238.71,-136.19 2218.5,-134 1794.9,-88.11 1682.78,-154.78 1260.5,-98 1257.76,-97.63 1254.97,-97.2 1252.15,-96.71"/>
<polygon fill="midnightblue" stroke="midnightblue" points="2279.4,-146.99 2289.88,-145.46 2280.73,-140.12 2279.4,-146.99"/>
</g>
<!-- Node33 -->
<g id="node29" class="node">
<title>Node33</title>
<g id="a_node29"><a xlink:href="../../df/dde/vellipticalarc__p_8h.html" target="_top" xlink:title=" ">
<polygon fill="white" stroke="black" points="1270,-67.5 1270,-97.5 1377,-97.5 1377,-67.5 1270,-67.5"/>
<text text-anchor="start" x="1278" y="-85.5" font-family="Helvetica,sans-Serif" font-size="10.00">src/libs/vgeometry</text>
<text text-anchor="middle" x="1323.5" y="-74.5" font-family="Helvetica,sans-Serif" font-size="10.00">/vellipticalarc_p.h</text>
</a>
</g>
</g>
<!-- Node24&#45;&gt;Node33 -->
<g id="edge31" class="edge">
<title>Node24&#45;&gt;Node33</title>
<path fill="none" stroke="midnightblue" d="M2279.66,-143.54C2260.6,-139.93 2238.63,-136.24 2218.5,-134 1850.2,-93.05 1752.62,-148.41 1385.5,-98 1382.76,-97.62 1379.97,-97.18 1377.15,-96.69"/>
<polygon fill="midnightblue" stroke="midnightblue" points="2279.13,-147 2289.62,-145.47 2280.46,-140.13 2279.13,-147"/>
</g>
<!-- Node34 -->
<g id="node30" class="node">
<title>Node34</title>
<g id="a_node30"><a xlink:href="../../d6/dfb/vellipticalarc_8cpp.html" target="_top" xlink:title=" ">
<polygon fill="white" stroke="black" points="1794,-0.5 1794,-30.5 1901,-30.5 1901,-0.5 1794,-0.5"/>
<text text-anchor="start" x="1802" y="-18.5" font-family="Helvetica,sans-Serif" font-size="10.00">src/libs/vgeometry</text>
<text text-anchor="middle" x="1847.5" y="-7.5" font-family="Helvetica,sans-Serif" font-size="10.00">/vellipticalarc.cpp</text>
</a>
</g>
</g>
<!-- Node24&#45;&gt;Node34 -->
<g id="edge33" class="edge">
<title>Node24&#45;&gt;Node34</title>
<path fill="none" stroke="midnightblue" d="M2341.54,-136.94C2353.57,-117.62 2367.97,-86.31 2350.5,-67 2320.77,-34.13 2024.78,-21.69 1901.23,-17.91"/>
<polygon fill="midnightblue" stroke="midnightblue" points="2338.57,-135.09 2335.97,-145.36 2344.41,-138.95 2338.57,-135.09"/>
</g>
<!-- Node35 -->
<g id="node31" class="node">
<title>Node35</title>
<g id="a_node31"><a xlink:href="../../d1/d76/vspline__p_8h.html" target="_top" xlink:title=" ">
<polygon fill="white" stroke="red" points="1395,-67.5 1395,-97.5 1502,-97.5 1502,-67.5 1395,-67.5"/>
<text text-anchor="start" x="1403" y="-85.5" font-family="Helvetica,sans-Serif" font-size="10.00">src/libs/vgeometry</text>
<text text-anchor="middle" x="1448.5" y="-74.5" font-family="Helvetica,sans-Serif" font-size="10.00">/vspline_p.h</text>
</a>
</g>
</g>
<!-- Node24&#45;&gt;Node35 -->
<g id="edge34" class="edge">
<title>Node24&#45;&gt;Node35</title>
<path fill="none" stroke="midnightblue" d="M2279.41,-143.58C2260.41,-139.99 2238.53,-136.31 2218.5,-134 1905.93,-98.03 1823.11,-141.45 1511.5,-98 1508.5,-97.58 1505.43,-97.09 1502.34,-96.55"/>
<polygon fill="midnightblue" stroke="midnightblue" points="2278.87,-147.04 2289.35,-145.49 2280.19,-140.16 2278.87,-147.04"/>
</g>
<!-- Node37 -->
<g id="node32" class="node">
<title>Node37</title>
<g id="a_node32"><a xlink:href="../../d9/d15/vabstractpiece_8cpp.html" target="_top" xlink:title=" ">
<polygon fill="white" stroke="black" points="1520.5,-73 1520.5,-92 1706.5,-92 1706.5,-73 1520.5,-73"/>
<text text-anchor="middle" x="1613.5" y="-80" font-family="Helvetica,sans-Serif" font-size="10.00">src/libs/vlayout/vabstractpiece.cpp</text>
</a>
</g>
</g>
<!-- Node24&#45;&gt;Node37 -->
<g id="edge35" class="edge">
<title>Node24&#45;&gt;Node37</title>
<path fill="none" stroke="midnightblue" d="M2278.44,-143.62C2259.67,-140.12 2238.18,-136.47 2218.5,-134 1996.12,-106.09 1938.36,-121.79 1715.5,-98 1700.2,-96.37 1683.67,-94.2 1668.47,-92.03"/>
<polygon fill="midnightblue" stroke="midnightblue" points="2277.8,-147.06 2288.28,-145.49 2279.11,-140.19 2277.8,-147.06"/>
</g>
<!-- Node38 -->
<g id="node33" class="node">
<title>Node38</title>
<g id="a_node33"><a xlink:href="../../db/d65/dialogexporttocsv_8cpp.html" target="_top" xlink:title=" ">
<polygon fill="white" stroke="black" points="1725,-67.5 1725,-97.5 1852,-97.5 1852,-67.5 1725,-67.5"/>
<text text-anchor="start" x="1733" y="-85.5" font-family="Helvetica,sans-Serif" font-size="10.00">src/libs/vmisc/dialogs</text>
<text text-anchor="middle" x="1788.5" y="-74.5" font-family="Helvetica,sans-Serif" font-size="10.00">/dialogexporttocsv.cpp</text>
</a>
</g>
</g>
<!-- Node24&#45;&gt;Node38 -->
<g id="edge38" class="edge">
<title>Node24&#45;&gt;Node38</title>
<path fill="none" stroke="midnightblue" d="M2276.73,-143.63C2258.35,-140.24 2237.56,-136.67 2218.5,-134 2060.58,-111.84 2019.22,-121.56 1861.5,-98 1858.43,-97.54 1855.3,-97.04 1852.14,-96.51"/>
<polygon fill="midnightblue" stroke="midnightblue" points="2276.19,-147.09 2286.66,-145.48 2277.48,-140.21 2276.19,-147.09"/>
</g>
<!-- Node39 -->
<g id="node34" class="node">
<title>Node39</title>
<g id="a_node34"><a xlink:href="../../d6/d0b/def_8cpp.html" target="_top" xlink:title=" ">
<polygon fill="white" stroke="black" points="1870.5,-73 1870.5,-92 1992.5,-92 1992.5,-73 1870.5,-73"/>
<text text-anchor="middle" x="1931.5" y="-80" font-family="Helvetica,sans-Serif" font-size="10.00">src/libs/vmisc/def.cpp</text>
</a>
</g>
</g>
<!-- Node24&#45;&gt;Node39 -->
<g id="edge39" class="edge">
<title>Node24&#45;&gt;Node39</title>
<path fill="none" stroke="midnightblue" d="M2273.03,-143.67C2255.56,-140.51 2236.24,-137.07 2218.5,-134 2122.17,-117.33 2097.61,-115.92 2001.5,-98 1991.74,-96.18 1981.24,-94.08 1971.42,-92.06"/>
<polygon fill="midnightblue" stroke="midnightblue" points="2272.62,-147.15 2283.08,-145.49 2273.86,-140.26 2272.62,-147.15"/>
</g>
<!-- Node40 -->
<g id="node35" class="node">
<title>Node40</title>
<g id="a_node35"><a xlink:href="../../d0/df6/vabstractapplication_8cpp.html" target="_top" xlink:title=" ">
<polygon fill="white" stroke="black" points="2010.5,-73 2010.5,-92 2216.5,-92 2216.5,-73 2010.5,-73"/>
<text text-anchor="middle" x="2113.5" y="-80" font-family="Helvetica,sans-Serif" font-size="10.00">src/libs/vmisc/vabstractapplication.cpp</text>
</a>
</g>
</g>
<!-- Node24&#45;&gt;Node40 -->
<g id="edge40" class="edge">
<title>Node24&#45;&gt;Node40</title>
<path fill="none" stroke="midnightblue" d="M2293.86,-142.37C2250.47,-128.21 2178.22,-104.62 2139.65,-92.03"/>
<polygon fill="midnightblue" stroke="midnightblue" points="2292.85,-145.72 2303.45,-145.5 2295.02,-139.07 2292.85,-145.72"/>
</g>
<!-- Node41 -->
<g id="node36" class="node">
<title>Node41</title>
<g id="a_node36"><a xlink:href="../../d4/d4f/pmsystems_8cpp.html" target="_top" xlink:title=" ">
<polygon fill="white" stroke="black" points="2235,-67.5 2235,-97.5 2342,-97.5 2342,-67.5 2235,-67.5"/>
<text text-anchor="start" x="2243" y="-85.5" font-family="Helvetica,sans-Serif" font-size="10.00">src/libs/vpatterndb</text>
<text text-anchor="middle" x="2288.5" y="-74.5" font-family="Helvetica,sans-Serif" font-size="10.00">/pmsystems.cpp</text>
</a>
</g>
</g>
<!-- Node24&#45;&gt;Node41 -->
<g id="edge41" class="edge">
<title>Node24&#45;&gt;Node41</title>
<path fill="none" stroke="midnightblue" d="M2319.43,-136.68C2312.43,-124.65 2303.23,-108.83 2296.69,-97.58"/>
<polygon fill="midnightblue" stroke="midnightblue" points="2316.42,-138.47 2324.47,-145.36 2322.47,-134.95 2316.42,-138.47"/>
</g>
<!-- Node24&#45;&gt;Node42 -->
<g id="edge42" class="edge">
<title>Node24&#45;&gt;Node42</title>
<path fill="none" stroke="midnightblue" d="M2437.47,-148.65C2561.08,-141.49 2769.33,-126.3 2946.5,-98 2949.6,-97.5 2952.78,-96.94 2955.98,-96.34"/>
<polygon fill="midnightblue" stroke="midnightblue" points="2437.04,-145.17 2427.25,-149.23 2437.44,-152.16 2437.04,-145.17"/>
</g>
<!-- Node24&#45;&gt;Node43 -->
<g id="edge43" class="edge">
<title>Node24&#45;&gt;Node43</title>
<path fill="none" stroke="midnightblue" d="M2437.49,-150.95C2582.44,-145.7 2847.62,-132.01 3071.5,-98 3074.61,-97.53 3077.79,-96.99 3080.99,-96.39"/>
<polygon fill="midnightblue" stroke="midnightblue" points="2437.13,-147.46 2427.26,-151.32 2437.38,-154.46 2437.13,-147.46"/>
</g>
<!-- Node24&#45;&gt;Node44 -->
<g id="edge44" class="edge">
<title>Node24&#45;&gt;Node44</title>
<path fill="none" stroke="midnightblue" d="M2437.32,-149.7C2601.5,-142.54 2923.89,-126.14 3196.5,-98 3212.25,-96.37 3229.29,-94.14 3244.86,-91.91"/>
<polygon fill="midnightblue" stroke="midnightblue" points="2437.06,-146.21 2427.22,-150.13 2437.36,-153.2 2437.06,-146.21"/>
</g>
<!-- Node45 -->
<g id="node40" class="node">
<title>Node45</title>
<g id="a_node40"><a xlink:href="../../df/dba/vpiecenode__p_8h.html" target="_top" xlink:title=" ">
<polygon fill="white" stroke="black" points="2831,-67.5 2831,-97.5 2938,-97.5 2938,-67.5 2831,-67.5"/>
<text text-anchor="start" x="2839" y="-85.5" font-family="Helvetica,sans-Serif" font-size="10.00">src/libs/vpatterndb</text>
<text text-anchor="middle" x="2884.5" y="-74.5" font-family="Helvetica,sans-Serif" font-size="10.00">/vpiecenode_p.h</text>
</a>
</g>
</g>
<!-- Node24&#45;&gt;Node45 -->
<g id="edge45" class="edge">
<title>Node24&#45;&gt;Node45</title>
<path fill="none" stroke="midnightblue" d="M2437.16,-145.27C2537.17,-136.33 2690.02,-120.54 2821.5,-98 2824.6,-97.47 2827.77,-96.88 2830.97,-96.25"/>
<polygon fill="midnightblue" stroke="midnightblue" points="2436.7,-141.8 2427.05,-146.17 2437.32,-148.77 2436.7,-141.8"/>
</g>
<!-- Node47 -->
<g id="node42" class="node">
<title>Node47</title>
<g id="a_node42"><a xlink:href="../../de/d3e/vtranslatevars_8cpp.html" target="_top" xlink:title=" ">
<polygon fill="white" stroke="black" points="2398.5,-67.5 2398.5,-97.5 2508.5,-97.5 2508.5,-67.5 2398.5,-67.5"/>
<text text-anchor="start" x="2406.5" y="-85.5" font-family="Helvetica,sans-Serif" font-size="10.00">src/libs/vpatterndb</text>
<text text-anchor="middle" x="2453.5" y="-74.5" font-family="Helvetica,sans-Serif" font-size="10.00">/vtranslatevars.cpp</text>
</a>
</g>
</g>
<!-- Node24&#45;&gt;Node47 -->
<g id="edge47" class="edge">
<title>Node24&#45;&gt;Node47</title>
<path fill="none" stroke="midnightblue" d="M2353.59,-140.3C2375.24,-127.99 2406.89,-110 2428.74,-97.58"/>
<polygon fill="midnightblue" stroke="midnightblue" points="2351.67,-137.37 2344.7,-145.36 2355.13,-143.46 2351.67,-137.37"/>
</g>
<!-- Node48 -->
<g id="node43" class="node">
<title>Node48</title>
<g id="a_node43"><a xlink:href="../../df/d40/export__format__combobox_8cpp.html" target="_top" xlink:title=" ">
<polygon fill="white" stroke="black" points="2527,-67.5 2527,-97.5 2660,-97.5 2660,-67.5 2527,-67.5"/>
<text text-anchor="start" x="2535" y="-85.5" font-family="Helvetica,sans-Serif" font-size="10.00">src/libs/vwidgets/export</text>
<text text-anchor="middle" x="2593.5" y="-74.5" font-family="Helvetica,sans-Serif" font-size="10.00">_format_combobox.cpp</text>
</a>
</g>
</g>
<!-- Node24&#45;&gt;Node48 -->
<g id="edge48" class="edge">
<title>Node24&#45;&gt;Node48</title>
<path fill="none" stroke="midnightblue" d="M2371.27,-142.85C2417.24,-130.57 2491.21,-110.82 2541.05,-97.51"/>
<polygon fill="midnightblue" stroke="midnightblue" points="2370.1,-139.53 2361.34,-145.5 2371.91,-146.3 2370.1,-139.53"/>
</g>
<!-- Node49 -->
<g id="node44" class="node">
<title>Node49</title>
<g id="a_node44"><a xlink:href="../../d3/d4f/mouse__coordinates_8cpp.html" target="_top" xlink:title=" ">
<polygon fill="white" stroke="black" points="2678.5,-67.5 2678.5,-97.5 2812.5,-97.5 2812.5,-67.5 2678.5,-67.5"/>
<text text-anchor="start" x="2686.5" y="-85.5" font-family="Helvetica,sans-Serif" font-size="10.00">src/libs/vwidgets/mouse</text>
<text text-anchor="middle" x="2745.5" y="-74.5" font-family="Helvetica,sans-Serif" font-size="10.00">_coordinates.cpp</text>
</a>
</g>
</g>
<!-- Node24&#45;&gt;Node49 -->
<g id="edge49" class="edge">
<title>Node24&#45;&gt;Node49</title>
<path fill="none" stroke="midnightblue" d="M2393.44,-143.88C2461.65,-132.97 2572.82,-114.91 2668.5,-98 2671.71,-97.43 2675,-96.84 2678.32,-96.24"/>
<polygon fill="midnightblue" stroke="midnightblue" points="2392.61,-140.46 2383.29,-145.5 2393.71,-147.38 2392.61,-140.46"/>
</g>
<!-- Node50 -->
<g id="node45" class="node">
<title>Node50</title>
<g id="a_node45"><a xlink:href="../../d7/d1b/pen__toolbar_8cpp.html" target="_top" xlink:title=" ">
<polygon fill="white" stroke="black" points="434,-67.5 434,-97.5 553,-97.5 553,-67.5 434,-67.5"/>
<text text-anchor="start" x="442" y="-85.5" font-family="Helvetica,sans-Serif" font-size="10.00">src/libs/vwidgets/pen</text>
<text text-anchor="middle" x="493.5" y="-74.5" font-family="Helvetica,sans-Serif" font-size="10.00">_toolbar.cpp</text>
</a>
</g>
</g>
<!-- Node24&#45;&gt;Node50 -->
<g id="edge50" class="edge">
<title>Node24&#45;&gt;Node50</title>
<path fill="none" stroke="midnightblue" d="M2280.61,-143.49C2261.35,-139.79 2238.98,-136.05 2218.5,-134 1485.56,-60.46 1293.18,-183.19 561.5,-98 558.74,-97.68 555.93,-97.3 553.1,-96.87"/>
<polygon fill="midnightblue" stroke="midnightblue" points="2280.18,-146.97 2290.67,-145.46 2281.53,-140.1 2280.18,-146.97"/>
</g>
<!-- Node33&#45;&gt;Node34 -->
<g id="edge32" class="edge">
<title>Node33&#45;&gt;Node34</title>
<path fill="none" stroke="midnightblue" d="M1387.21,-66.83C1539.72,-41.27 1709.29,-26.62 1793.85,-20.25"/>
<polygon fill="midnightblue" stroke="midnightblue" points="1386.46,-63.4 1377.19,-68.53 1387.63,-70.3 1386.46,-63.4"/>
</g>
<!-- Node45&#45;&gt;Node46 -->
<g id="edge46" class="edge">
<title>Node45&#45;&gt;Node46</title>
<path fill="none" stroke="midnightblue" d="M2930.01,-63.68C2956.63,-53.26 2989.77,-40.28 3014.55,-30.58"/>
<polygon fill="midnightblue" stroke="midnightblue" points="2928.55,-60.49 2920.52,-67.4 2931.11,-67.01 2928.55,-60.49"/>
</g>
</g>
</svg>
