<?xml version="1.0" encoding="UTF-8" standalone="no"?>
<!DOCTYPE svg PUBLIC "-//W3C//DTD SVG 1.1//EN"
 "http://www.w3.org/Graphics/SVG/1.1/DTD/svg11.dtd">
<!-- Generated by graphviz version 2.43.0 (0)
 -->
<!-- Title: src/libs/ifc/xml/vtoolrecord.h Pages: 1 -->
<svg width="1784pt" height="274pt"
 viewBox="0.00 0.00 1784.00 274.00" xmlns="http://www.w3.org/2000/svg" xmlns:xlink="http://www.w3.org/1999/xlink">
<g id="graph0" class="graph" transform="scale(1 1) rotate(0) translate(4 270)">
<title>src/libs/ifc/xml/vtoolrecord.h</title>
<polygon fill="white" stroke="transparent" points="-4,4 -4,-270 1780,-270 1780,4 -4,4"/>
<!-- Node1 -->
<g id="node1" class="node">
<title>Node1</title>
<g id="a_node1"><a xlink:title=" ">
<polygon fill="#bfbfbf" stroke="black" points="1047.5,-246.5 1047.5,-265.5 1202.5,-265.5 1202.5,-246.5 1047.5,-246.5"/>
<text text-anchor="middle" x="1125" y="-253.5" font-family="Helvetica,sans-Serif" font-size="10.00">src/libs/ifc/xml/vtoolrecord.h</text>
</a>
</g>
</g>
<!-- Node2 -->
<g id="node2" class="node">
<title>Node2</title>
<g id="a_node2"><a xlink:href="../../d0/d89/vabstractpattern_8h.html" target="_top" xlink:title=" ">
<polygon fill="white" stroke="black" points="1034.5,-190.5 1034.5,-209.5 1215.5,-209.5 1215.5,-190.5 1034.5,-190.5"/>
<text text-anchor="middle" x="1125" y="-197.5" font-family="Helvetica,sans-Serif" font-size="10.00">src/libs/ifc/xml/vabstractpattern.h</text>
</a>
</g>
</g>
<!-- Node1&#45;&gt;Node2 -->
<g id="edge1" class="edge">
<title>Node1&#45;&gt;Node2</title>
<path fill="none" stroke="midnightblue" d="M1125,-235.8C1125,-226.91 1125,-216.78 1125,-209.75"/>
<polygon fill="midnightblue" stroke="midnightblue" points="1121.5,-236.08 1125,-246.08 1128.5,-236.08 1121.5,-236.08"/>
</g>
<!-- Node3 -->
<g id="node3" class="node">
<title>Node3</title>
<g id="a_node3"><a xlink:href="../../de/d7d/vabstractpattern_8cpp.html" target="_top" xlink:title=" ">
<polygon fill="white" stroke="black" points="552,-129 552,-148 744,-148 744,-129 552,-129"/>
<text text-anchor="middle" x="648" y="-136" font-family="Helvetica,sans-Serif" font-size="10.00">src/libs/ifc/xml/vabstractpattern.cpp</text>
</a>
</g>
</g>
<!-- Node1&#45;&gt;Node3 -->
<g id="edge23" class="edge">
<title>Node1&#45;&gt;Node3</title>
<path fill="none" stroke="midnightblue" d="M1079.7,-244.03C985.16,-221.14 768.59,-168.7 683.37,-148.06"/>
<polygon fill="midnightblue" stroke="midnightblue" points="1078.99,-247.46 1089.54,-246.41 1080.64,-240.66 1078.99,-247.46"/>
</g>
<!-- Node21 -->
<g id="node21" class="node">
<title>Node21</title>
<g id="a_node21"><a xlink:href="../../d6/d6f/vtoolrecord_8cpp.html" target="_top" xlink:title=" ">
<polygon fill="white" stroke="black" points="1233.5,-190.5 1233.5,-209.5 1400.5,-209.5 1400.5,-190.5 1233.5,-190.5"/>
<text text-anchor="middle" x="1317" y="-197.5" font-family="Helvetica,sans-Serif" font-size="10.00">src/libs/ifc/xml/vtoolrecord.cpp</text>
</a>
</g>
</g>
<!-- Node1&#45;&gt;Node21 -->
<g id="edge22" class="edge">
<title>Node1&#45;&gt;Node21</title>
<path fill="none" stroke="midnightblue" d="M1165.18,-243.7C1201.42,-233.51 1253.91,-218.74 1286.72,-209.52"/>
<polygon fill="midnightblue" stroke="midnightblue" points="1164.1,-240.37 1155.42,-246.44 1166,-247.11 1164.1,-240.37"/>
</g>
<!-- Node2&#45;&gt;Node3 -->
<g id="edge2" class="edge">
<title>Node2&#45;&gt;Node3</title>
<path fill="none" stroke="midnightblue" d="M1041.16,-189.27C965.74,-180.41 851.9,-166.81 753,-154 738.58,-152.13 723.06,-150.04 708.5,-148.03"/>
<polygon fill="midnightblue" stroke="midnightblue" points="1041.21,-192.8 1051.55,-190.48 1042.02,-185.84 1041.21,-192.8"/>
</g>
<!-- Node4 -->
<g id="node4" class="node">
<title>Node4</title>
<g id="a_node4"><a xlink:href="../../d6/de0/vlayoutpiece_8h.html" target="_top" xlink:title=" ">
<polygon fill="white" stroke="black" points="762,-129 762,-148 928,-148 928,-129 762,-129"/>
<text text-anchor="middle" x="845" y="-136" font-family="Helvetica,sans-Serif" font-size="10.00">src/libs/vlayout/vlayoutpiece.h</text>
</a>
</g>
</g>
<!-- Node2&#45;&gt;Node4 -->
<g id="edge3" class="edge">
<title>Node2&#45;&gt;Node4</title>
<path fill="none" stroke="midnightblue" d="M1074.79,-188.33C1020.49,-176.79 935.01,-158.63 885.04,-148.01"/>
<polygon fill="midnightblue" stroke="midnightblue" points="1074.37,-191.82 1084.88,-190.48 1075.83,-184.97 1074.37,-191.82"/>
</g>
<!-- Node14 -->
<g id="node14" class="node">
<title>Node14</title>
<g id="a_node14"><a xlink:href="../../d8/d70/vtextmanager_8cpp.html" target="_top" xlink:title=" ">
<polygon fill="white" stroke="black" points="946,-129 946,-148 1128,-148 1128,-129 946,-129"/>
<text text-anchor="middle" x="1037" y="-136" font-family="Helvetica,sans-Serif" font-size="10.00">src/libs/vlayout/vtextmanager.cpp</text>
</a>
</g>
</g>
<!-- Node2&#45;&gt;Node14 -->
<g id="edge15" class="edge">
<title>Node2&#45;&gt;Node14</title>
<path fill="none" stroke="midnightblue" d="M1103.72,-184.61C1086.8,-173.17 1063.69,-157.55 1049.58,-148.01"/>
<polygon fill="midnightblue" stroke="midnightblue" points="1102.15,-187.77 1112.39,-190.48 1106.07,-181.97 1102.15,-187.77"/>
</g>
<!-- Node15 -->
<g id="node15" class="node">
<title>Node15</title>
<g id="a_node15"><a xlink:href="../../d0/da5/export__format__combobox_8h.html" target="_top" xlink:title=" ">
<polygon fill="white" stroke="black" points="1146.5,-123.5 1146.5,-153.5 1279.5,-153.5 1279.5,-123.5 1146.5,-123.5"/>
<text text-anchor="start" x="1154.5" y="-141.5" font-family="Helvetica,sans-Serif" font-size="10.00">src/libs/vwidgets/export</text>
<text text-anchor="middle" x="1213" y="-130.5" font-family="Helvetica,sans-Serif" font-size="10.00">_format_combobox.h</text>
</a>
</g>
</g>
<!-- Node2&#45;&gt;Node15 -->
<g id="edge16" class="edge">
<title>Node2&#45;&gt;Node15</title>
<path fill="none" stroke="midnightblue" d="M1146.09,-184.74C1160.08,-175.28 1178.35,-162.93 1192.26,-153.52"/>
<polygon fill="midnightblue" stroke="midnightblue" points="1143.93,-181.97 1137.61,-190.48 1147.85,-187.77 1143.93,-181.97"/>
</g>
<!-- Node17 -->
<g id="node17" class="node">
<title>Node17</title>
<g id="a_node17"><a xlink:href="../../d7/df4/group__tablewidgetitem_8cpp.html" target="_top" xlink:title=" ">
<polygon fill="white" stroke="black" points="1297.5,-123.5 1297.5,-153.5 1426.5,-153.5 1426.5,-123.5 1297.5,-123.5"/>
<text text-anchor="start" x="1305.5" y="-141.5" font-family="Helvetica,sans-Serif" font-size="10.00">src/libs/vwidgets/group</text>
<text text-anchor="middle" x="1362" y="-130.5" font-family="Helvetica,sans-Serif" font-size="10.00">_tablewidgetitem.cpp</text>
</a>
</g>
</g>
<!-- Node2&#45;&gt;Node17 -->
<g id="edge18" class="edge">
<title>Node2&#45;&gt;Node17</title>
<path fill="none" stroke="midnightblue" d="M1168.88,-187.98C1207.59,-178.27 1264.21,-164.05 1306.14,-153.52"/>
<polygon fill="midnightblue" stroke="midnightblue" points="1167.8,-184.65 1158.96,-190.48 1169.51,-191.43 1167.8,-184.65"/>
</g>
<!-- Node18 -->
<g id="node18" class="node">
<title>Node18</title>
<g id="a_node18"><a xlink:href="../../d3/d86/page__format__combobox_8h.html" target="_top" xlink:title=" ">
<polygon fill="white" stroke="black" points="1444.5,-123.5 1444.5,-153.5 1569.5,-153.5 1569.5,-123.5 1444.5,-123.5"/>
<text text-anchor="start" x="1452.5" y="-141.5" font-family="Helvetica,sans-Serif" font-size="10.00">src/libs/vwidgets/page</text>
<text text-anchor="middle" x="1507" y="-130.5" font-family="Helvetica,sans-Serif" font-size="10.00">_format_combobox.h</text>
</a>
</g>
</g>
<!-- Node2&#45;&gt;Node18 -->
<g id="edge19" class="edge">
<title>Node2&#45;&gt;Node18</title>
<path fill="none" stroke="midnightblue" d="M1201.87,-189.14C1264.93,-180.74 1356.45,-167.87 1436,-154 1438.73,-153.52 1441.51,-153.02 1444.32,-152.51"/>
<polygon fill="midnightblue" stroke="midnightblue" points="1201.06,-185.71 1191.61,-190.5 1201.98,-192.65 1201.06,-185.71"/>
</g>
<!-- Node20 -->
<g id="node20" class="node">
<title>Node20</title>
<g id="a_node20"><a xlink:href="../../de/d22/vsimplecurve_8cpp.html" target="_top" xlink:title=" ">
<polygon fill="white" stroke="black" points="1588,-129 1588,-148 1776,-148 1776,-129 1588,-129"/>
<text text-anchor="middle" x="1682" y="-136" font-family="Helvetica,sans-Serif" font-size="10.00">src/libs/vwidgets/vsimplecurve.cpp</text>
</a>
</g>
</g>
<!-- Node2&#45;&gt;Node20 -->
<g id="edge21" class="edge">
<title>Node2&#45;&gt;Node20</title>
<path fill="none" stroke="midnightblue" d="M1225.29,-189.54C1337.7,-178.86 1512.87,-161.93 1579,-154 1593.79,-152.23 1609.75,-150.09 1624.58,-148.01"/>
<polygon fill="midnightblue" stroke="midnightblue" points="1224.91,-186.06 1215.29,-190.49 1225.57,-193.03 1224.91,-186.06"/>
</g>
<!-- Node5 -->
<g id="node5" class="node">
<title>Node5</title>
<g id="a_node5"><a xlink:href="../../dd/d66/vdxfengine_8cpp.html" target="_top" xlink:title=" ">
<polygon fill="white" stroke="black" points="0,-62 0,-81 154,-81 154,-62 0,-62"/>
<text text-anchor="middle" x="77" y="-69" font-family="Helvetica,sans-Serif" font-size="10.00">src/libs/vdxf/vdxfengine.cpp</text>
</a>
</g>
</g>
<!-- Node4&#45;&gt;Node5 -->
<g id="edge4" class="edge">
<title>Node4&#45;&gt;Node5</title>
<path fill="none" stroke="midnightblue" d="M786.4,-127.41C775.33,-125.74 763.83,-124.18 753,-123 491.84,-94.52 424.01,-116.88 163,-87 149.61,-85.47 135.14,-83.25 121.95,-81"/>
<polygon fill="midnightblue" stroke="midnightblue" points="786,-130.89 796.41,-128.96 787.07,-123.97 786,-130.89"/>
</g>
<!-- Node6 -->
<g id="node6" class="node">
<title>Node6</title>
<g id="a_node6"><a xlink:href="../../de/da8/vbank_8cpp.html" target="_top" xlink:title=" ">
<polygon fill="white" stroke="black" points="172,-62 172,-81 316,-81 316,-62 172,-62"/>
<text text-anchor="middle" x="244" y="-69" font-family="Helvetica,sans-Serif" font-size="10.00">src/libs/vlayout/vbank.cpp</text>
</a>
</g>
</g>
<!-- Node4&#45;&gt;Node6 -->
<g id="edge5" class="edge">
<title>Node4&#45;&gt;Node6</title>
<path fill="none" stroke="midnightblue" d="M784.92,-127.39C774.3,-125.79 763.34,-124.25 753,-123 563.48,-100.13 514.27,-111.85 325,-87 312.82,-85.4 299.68,-83.24 287.6,-81.07"/>
<polygon fill="midnightblue" stroke="midnightblue" points="784.54,-130.87 794.96,-128.94 785.61,-123.95 784.54,-130.87"/>
</g>
<!-- Node7 -->
<g id="node7" class="node">
<title>Node7</title>
<g id="a_node7"><a xlink:href="../../d3/d39/vlayoutgenerator_8cpp.html" target="_top" xlink:title=" ">
<polygon fill="white" stroke="black" points="334.5,-62 334.5,-81 531.5,-81 531.5,-62 334.5,-62"/>
<text text-anchor="middle" x="433" y="-69" font-family="Helvetica,sans-Serif" font-size="10.00">src/libs/vlayout/vlayoutgenerator.cpp</text>
</a>
</g>
</g>
<!-- Node4&#45;&gt;Node7 -->
<g id="edge6" class="edge">
<title>Node4&#45;&gt;Node7</title>
<path fill="none" stroke="midnightblue" d="M780.67,-127.35C699.88,-114.6 562.72,-92.96 487.08,-81.03"/>
<polygon fill="midnightblue" stroke="midnightblue" points="780.29,-130.83 790.71,-128.94 781.38,-123.92 780.29,-130.83"/>
</g>
<!-- Node8 -->
<g id="node8" class="node">
<title>Node8</title>
<g id="a_node8"><a xlink:href="../../df/d5d/vcontour_8cpp.html" target="_top" xlink:title=" ">
<polygon fill="white" stroke="black" points="550,-62 550,-81 706,-81 706,-62 550,-62"/>
<text text-anchor="middle" x="628" y="-69" font-family="Helvetica,sans-Serif" font-size="10.00">src/libs/vlayout/vcontour.cpp</text>
</a>
</g>
</g>
<!-- Node4&#45;&gt;Node8 -->
<g id="edge7" class="edge">
<title>Node4&#45;&gt;Node8</title>
<path fill="none" stroke="midnightblue" d="M806.37,-125.93C763.4,-113.06 695,-92.57 656.59,-81.06"/>
<polygon fill="midnightblue" stroke="midnightblue" points="805.6,-129.35 816.18,-128.87 807.61,-122.65 805.6,-129.35"/>
</g>
<!-- Node9 -->
<g id="node9" class="node">
<title>Node9</title>
<g id="a_node9"><a xlink:href="../../d2/d2d/vlayoutpaper__p_8h.html" target="_top" xlink:title=" ">
<polygon fill="white" stroke="black" points="724.5,-62 724.5,-81 903.5,-81 903.5,-62 724.5,-62"/>
<text text-anchor="middle" x="814" y="-69" font-family="Helvetica,sans-Serif" font-size="10.00">src/libs/vlayout/vlayoutpaper_p.h</text>
</a>
</g>
</g>
<!-- Node4&#45;&gt;Node9 -->
<g id="edge8" class="edge">
<title>Node4&#45;&gt;Node9</title>
<path fill="none" stroke="midnightblue" d="M836.49,-119.66C830.51,-107.13 822.78,-90.91 818.11,-81.13"/>
<polygon fill="midnightblue" stroke="midnightblue" points="833.36,-121.21 840.82,-128.73 839.67,-118.2 833.36,-121.21"/>
</g>
<!-- Node10 -->
<g id="node10" class="node">
<title>Node10</title>
<g id="a_node10"><a xlink:href="../../d1/dd1/vlayoutpaper_8cpp.html" target="_top" xlink:title=" ">
<polygon fill="white" stroke="black" points="801,-0.5 801,-19.5 979,-19.5 979,-0.5 801,-0.5"/>
<text text-anchor="middle" x="890" y="-7.5" font-family="Helvetica,sans-Serif" font-size="10.00">src/libs/vlayout/vlayoutpaper.cpp</text>
</a>
</g>
</g>
<!-- Node4&#45;&gt;Node10 -->
<g id="edge10" class="edge">
<title>Node4&#45;&gt;Node10</title>
<path fill="none" stroke="midnightblue" d="M873.69,-123.93C888,-115.49 903.95,-103.15 912,-87 923.4,-64.13 906.62,-34.38 896.59,-19.81"/>
<polygon fill="midnightblue" stroke="midnightblue" points="871.69,-121.03 864.62,-128.92 875.07,-127.17 871.69,-121.03"/>
</g>
<!-- Node11 -->
<g id="node11" class="node">
<title>Node11</title>
<g id="a_node11"><a xlink:href="../../db/d5c/vposition_8h.html" target="_top" xlink:title=" ">
<polygon fill="white" stroke="black" points="960,-62 960,-81 1108,-81 1108,-62 960,-62"/>
<text text-anchor="middle" x="1034" y="-69" font-family="Helvetica,sans-Serif" font-size="10.00">src/libs/vlayout/vposition.h</text>
</a>
</g>
</g>
<!-- Node4&#45;&gt;Node11 -->
<g id="edge11" class="edge">
<title>Node4&#45;&gt;Node11</title>
<path fill="none" stroke="midnightblue" d="M879.6,-125.6C917.07,-112.71 975.93,-92.47 1009.1,-81.06"/>
<polygon fill="midnightblue" stroke="midnightblue" points="878.42,-122.31 870.1,-128.87 880.69,-128.93 878.42,-122.31"/>
</g>
<!-- Node13 -->
<g id="node13" class="node">
<title>Node13</title>
<g id="a_node13"><a xlink:href="../../dd/d70/vlayoutpiece_8cpp.html" target="_top" xlink:title=" ">
<polygon fill="white" stroke="black" points="1126.5,-62 1126.5,-81 1303.5,-81 1303.5,-62 1126.5,-62"/>
<text text-anchor="middle" x="1215" y="-69" font-family="Helvetica,sans-Serif" font-size="10.00">src/libs/vlayout/vlayoutpiece.cpp</text>
</a>
</g>
</g>
<!-- Node4&#45;&gt;Node13 -->
<g id="edge14" class="edge">
<title>Node4&#45;&gt;Node13</title>
<path fill="none" stroke="midnightblue" d="M903.66,-127.19C976.33,-114.43 1098.78,-92.92 1166.43,-81.03"/>
<polygon fill="midnightblue" stroke="midnightblue" points="903,-123.76 893.75,-128.94 904.21,-130.65 903,-123.76"/>
</g>
<!-- Node9&#45;&gt;Node10 -->
<g id="edge9" class="edge">
<title>Node9&#45;&gt;Node10</title>
<path fill="none" stroke="midnightblue" d="M832.78,-55.79C847.36,-44.38 867.06,-28.96 879.13,-19.51"/>
<polygon fill="midnightblue" stroke="midnightblue" points="830.61,-53.05 824.89,-61.98 834.92,-58.57 830.61,-53.05"/>
</g>
<!-- Node11&#45;&gt;Node10 -->
<g id="edge12" class="edge">
<title>Node11&#45;&gt;Node10</title>
<path fill="none" stroke="midnightblue" d="M1004.07,-58.13C976.09,-46.57 935.06,-29.62 910.59,-19.51"/>
<polygon fill="midnightblue" stroke="midnightblue" points="1002.79,-61.39 1013.37,-61.98 1005.46,-54.92 1002.79,-61.39"/>
</g>
<!-- Node12 -->
<g id="node12" class="node">
<title>Node12</title>
<g id="a_node12"><a xlink:href="../../df/d76/vposition_8cpp.html" target="_top" xlink:title=" ">
<polygon fill="white" stroke="black" points="996.5,-0.5 996.5,-19.5 1155.5,-19.5 1155.5,-0.5 996.5,-0.5"/>
<text text-anchor="middle" x="1076" y="-7.5" font-family="Helvetica,sans-Serif" font-size="10.00">src/libs/vlayout/vposition.cpp</text>
</a>
</g>
</g>
<!-- Node11&#45;&gt;Node12 -->
<g id="edge13" class="edge">
<title>Node11&#45;&gt;Node12</title>
<path fill="none" stroke="midnightblue" d="M1046,-53.51C1053.84,-42.39 1063.76,-28.34 1069.99,-19.51"/>
<polygon fill="midnightblue" stroke="midnightblue" points="1042.93,-51.79 1040.02,-61.98 1048.64,-55.82 1042.93,-51.79"/>
</g>
<!-- Node16 -->
<g id="node16" class="node">
<title>Node16</title>
<g id="a_node16"><a xlink:href="../../df/d40/export__format__combobox_8cpp.html" target="_top" xlink:title=" ">
<polygon fill="white" stroke="black" points="1321.5,-56.5 1321.5,-86.5 1454.5,-86.5 1454.5,-56.5 1321.5,-56.5"/>
<text text-anchor="start" x="1329.5" y="-74.5" font-family="Helvetica,sans-Serif" font-size="10.00">src/libs/vwidgets/export</text>
<text text-anchor="middle" x="1388" y="-63.5" font-family="Helvetica,sans-Serif" font-size="10.00">_format_combobox.cpp</text>
</a>
</g>
</g>
<!-- Node15&#45;&gt;Node16 -->
<g id="edge17" class="edge">
<title>Node15&#45;&gt;Node16</title>
<path fill="none" stroke="midnightblue" d="M1260.6,-119.82C1288.73,-109.37 1323.86,-96.32 1350.1,-86.58"/>
<polygon fill="midnightblue" stroke="midnightblue" points="1259.13,-116.63 1250.97,-123.4 1261.57,-123.2 1259.13,-116.63"/>
</g>
<!-- Node19 -->
<g id="node19" class="node">
<title>Node19</title>
<g id="a_node19"><a xlink:href="../../d2/d28/page__format__combobox_8cpp.html" target="_top" xlink:title=" ">
<polygon fill="white" stroke="black" points="1472.5,-56.5 1472.5,-86.5 1603.5,-86.5 1603.5,-56.5 1472.5,-56.5"/>
<text text-anchor="start" x="1480.5" y="-74.5" font-family="Helvetica,sans-Serif" font-size="10.00">src/libs/vwidgets/page</text>
<text text-anchor="middle" x="1538" y="-63.5" font-family="Helvetica,sans-Serif" font-size="10.00">_format_combobox.cpp</text>
</a>
</g>
</g>
<!-- Node18&#45;&gt;Node19 -->
<g id="edge20" class="edge">
<title>Node18&#45;&gt;Node19</title>
<path fill="none" stroke="midnightblue" d="M1518.07,-114.28C1522.49,-105.02 1527.43,-94.66 1531.29,-86.58"/>
<polygon fill="midnightblue" stroke="midnightblue" points="1514.87,-112.86 1513.73,-123.4 1521.19,-115.88 1514.87,-112.86"/>
</g>
</g>
</svg>
