<?xml version="1.0" encoding="UTF-8" standalone="no"?>
<!DOCTYPE svg PUBLIC "-//W3C//DTD SVG 1.1//EN"
 "http://www.w3.org/Graphics/SVG/1.1/DTD/svg11.dtd">
<!-- Generated by graphviz version 2.43.0 (0)
 -->
<!-- Title: src/libs/ifc/xml/vtoolrecord.h Pages: 1 -->
<!--zoomable 274 -->
<svg id="main" version="1.1" xmlns="http://www.w3.org/2000/svg" xmlns:xlink="http://www.w3.org/1999/xlink" xml:space="preserve" onload="init(evt)">
<style type="text/css"><![CDATA[
.edge:hover path { stroke: red; }
.edge:hover polygon { stroke: red; fill: red; }
]]></style>
<script type="text/javascript"><![CDATA[
var edges = document.getElementsByTagName('g');
if (edges && edges.length) {
  for (var i=0;i<edges.length;i++) {
    if (edges[i].id.substr(0,4)=='edge') {
      edges[i].setAttribute('class','edge');
    }
  }
}
]]></script>
        <defs>
                <circle id="rim" cx="0" cy="0" r="7"/>
                <circle id="rim2" cx="0" cy="0" r="3.5"/>
                <g id="zoomPlus">
                        <use xlink:href="#rim" fill="#404040">
                                <set attributeName="fill" to="#808080" begin="zoomplus.mouseover" end="zoomplus.mouseout"/>
                        </use>
                        <path d="M-4,0h8M0,-4v8" fill="none" stroke="white" stroke-width="1.5" pointer-events="none"/>
                </g>
                <g id="zoomMin">
                        <use xlink:href="#rim" fill="#404040">
                                <set attributeName="fill" to="#808080" begin="zoomminus.mouseover" end="zoomminus.mouseout"/>
                        </use>
                        <path d="M-4,0h8" fill="none" stroke="white" stroke-width="1.5" pointer-events="none"/>
                </g>
                <g id="dirArrow">
                        <path fill="none" stroke="white" stroke-width="1.5" d="M0,-3.0v7 M-2.5,-0.5L0,-3.0L2.5,-0.5"/>
                </g>
               <g id="resetDef">
                       <use xlink:href="#rim2" fill="#404040">
                               <set attributeName="fill" to="#808080" begin="reset.mouseover" end="reset.mouseout"/>
                       </use>
               </g>
        </defs>

<script type="text/javascript">
var viewWidth = 1758;
var viewHeight = 274;
var sectionId = 'dynsection-1';
</script>
<script xlink:href="../../svgpan.js"/>
<svg id="graph" class="graph">
<g id="viewport">
<title>src/libs/ifc/xml/vtoolrecord.h</title>
<polygon fill="white" stroke="transparent" points="-4,4 -4,-270 1754,-270 1754,4 -4,4"/>
<!-- Node1 -->
<g id="node1" class="node">
<title>Node1</title>
<g id="a_node1"><a xlink:title=" ">
<polygon fill="#bfbfbf" stroke="black" points="1021.5,-246.5 1021.5,-265.5 1176.5,-265.5 1176.5,-246.5 1021.5,-246.5"/>
<text text-anchor="middle" x="1099" y="-253.5" font-family="Helvetica,sans-Serif" font-size="10.00">src/libs/ifc/xml/vtoolrecord.h</text>
</a>
</g>
</g>
<!-- Node2 -->
<g id="node2" class="node">
<title>Node2</title>
<g id="a_node2"><a xlink:href="../../d0/d89/vabstractpattern_8h.html" target="_top" xlink:title=" ">
<polygon fill="white" stroke="black" points="1008.5,-190.5 1008.5,-209.5 1189.5,-209.5 1189.5,-190.5 1008.5,-190.5"/>
<text text-anchor="middle" x="1099" y="-197.5" font-family="Helvetica,sans-Serif" font-size="10.00">src/libs/ifc/xml/vabstractpattern.h</text>
</a>
</g>
</g>
<!-- Node1&#45;&gt;Node2 -->
<g id="edge1" class="edge">
<title>Node1&#45;&gt;Node2</title>
<path fill="none" stroke="midnightblue" d="M1099,-235.8C1099,-226.91 1099,-216.78 1099,-209.75"/>
<polygon fill="midnightblue" stroke="midnightblue" points="1095.5,-236.08 1099,-246.08 1102.5,-236.08 1095.5,-236.08"/>
</g>
<!-- Node3 -->
<g id="node3" class="node">
<title>Node3</title>
<g id="a_node3"><a xlink:href="../../de/d7d/vabstractpattern_8cpp.html" target="_top" xlink:title=" ">
<polygon fill="white" stroke="black" points="526,-129 526,-148 718,-148 718,-129 526,-129"/>
<text text-anchor="middle" x="622" y="-136" font-family="Helvetica,sans-Serif" font-size="10.00">src/libs/ifc/xml/vabstractpattern.cpp</text>
</a>
</g>
</g>
<!-- Node1&#45;&gt;Node3 -->
<g id="edge23" class="edge">
<title>Node1&#45;&gt;Node3</title>
<path fill="none" stroke="midnightblue" d="M1053.7,-244.03C959.16,-221.14 742.59,-168.7 657.37,-148.06"/>
<polygon fill="midnightblue" stroke="midnightblue" points="1052.99,-247.46 1063.54,-246.41 1054.64,-240.66 1052.99,-247.46"/>
</g>
<!-- Node21 -->
<g id="node21" class="node">
<title>Node21</title>
<g id="a_node21"><a xlink:href="../../d6/d6f/vtoolrecord_8cpp.html" target="_top" xlink:title=" ">
<polygon fill="white" stroke="black" points="1207.5,-190.5 1207.5,-209.5 1374.5,-209.5 1374.5,-190.5 1207.5,-190.5"/>
<text text-anchor="middle" x="1291" y="-197.5" font-family="Helvetica,sans-Serif" font-size="10.00">src/libs/ifc/xml/vtoolrecord.cpp</text>
</a>
</g>
</g>
<!-- Node1&#45;&gt;Node21 -->
<g id="edge22" class="edge">
<title>Node1&#45;&gt;Node21</title>
<path fill="none" stroke="midnightblue" d="M1139.18,-243.7C1175.42,-233.51 1227.91,-218.74 1260.72,-209.52"/>
<polygon fill="midnightblue" stroke="midnightblue" points="1138.1,-240.37 1129.42,-246.44 1140,-247.11 1138.1,-240.37"/>
</g>
<!-- Node2&#45;&gt;Node3 -->
<g id="edge2" class="edge">
<title>Node2&#45;&gt;Node3</title>
<path fill="none" stroke="midnightblue" d="M1015.16,-189.27C939.74,-180.41 825.9,-166.81 727,-154 712.58,-152.13 697.06,-150.04 682.5,-148.03"/>
<polygon fill="midnightblue" stroke="midnightblue" points="1015.21,-192.8 1025.55,-190.48 1016.02,-185.84 1015.21,-192.8"/>
</g>
<!-- Node4 -->
<g id="node4" class="node">
<title>Node4</title>
<g id="a_node4"><a xlink:href="../../d6/de0/vlayoutpiece_8h.html" target="_top" xlink:title=" ">
<polygon fill="white" stroke="black" points="736,-129 736,-148 902,-148 902,-129 736,-129"/>
<text text-anchor="middle" x="819" y="-136" font-family="Helvetica,sans-Serif" font-size="10.00">src/libs/vlayout/vlayoutpiece.h</text>
</a>
</g>
</g>
<!-- Node2&#45;&gt;Node4 -->
<g id="edge3" class="edge">
<title>Node2&#45;&gt;Node4</title>
<path fill="none" stroke="midnightblue" d="M1048.79,-188.33C994.49,-176.79 909.01,-158.63 859.04,-148.01"/>
<polygon fill="midnightblue" stroke="midnightblue" points="1048.37,-191.82 1058.88,-190.48 1049.83,-184.97 1048.37,-191.82"/>
</g>
<!-- Node14 -->
<g id="node14" class="node">
<title>Node14</title>
<g id="a_node14"><a xlink:href="../../d8/d70/vtextmanager_8cpp.html" target="_top" xlink:title=" ">
<polygon fill="white" stroke="black" points="920,-129 920,-148 1102,-148 1102,-129 920,-129"/>
<text text-anchor="middle" x="1011" y="-136" font-family="Helvetica,sans-Serif" font-size="10.00">src/libs/vlayout/vtextmanager.cpp</text>
</a>
</g>
</g>
<!-- Node2&#45;&gt;Node14 -->
<g id="edge15" class="edge">
<title>Node2&#45;&gt;Node14</title>
<path fill="none" stroke="midnightblue" d="M1077.72,-184.61C1060.8,-173.17 1037.69,-157.55 1023.58,-148.01"/>
<polygon fill="midnightblue" stroke="midnightblue" points="1076.15,-187.77 1086.39,-190.48 1080.07,-181.97 1076.15,-187.77"/>
</g>
<!-- Node15 -->
<g id="node15" class="node">
<title>Node15</title>
<g id="a_node15"><a xlink:href="../../d0/da5/export__format__combobox_8h.html" target="_top" xlink:title=" ">
<polygon fill="white" stroke="black" points="1120.5,-123.5 1120.5,-153.5 1253.5,-153.5 1253.5,-123.5 1120.5,-123.5"/>
<text text-anchor="start" x="1128.5" y="-141.5" font-family="Helvetica,sans-Serif" font-size="10.00">src/libs/vwidgets/export</text>
<text text-anchor="middle" x="1187" y="-130.5" font-family="Helvetica,sans-Serif" font-size="10.00">_format_combobox.h</text>
</a>
</g>
</g>
<!-- Node2&#45;&gt;Node15 -->
<g id="edge16" class="edge">
<title>Node2&#45;&gt;Node15</title>
<path fill="none" stroke="midnightblue" d="M1120.09,-184.74C1134.08,-175.28 1152.35,-162.93 1166.26,-153.52"/>
<polygon fill="midnightblue" stroke="midnightblue" points="1117.93,-181.97 1111.61,-190.48 1121.85,-187.77 1117.93,-181.97"/>
</g>
<!-- Node17 -->
<g id="node17" class="node">
<title>Node17</title>
<g id="a_node17"><a xlink:href="../../d7/df4/group__tablewidgetitem_8cpp.html" target="_top" xlink:title=" ">
<polygon fill="white" stroke="black" points="1271.5,-123.5 1271.5,-153.5 1400.5,-153.5 1400.5,-123.5 1271.5,-123.5"/>
<text text-anchor="start" x="1279.5" y="-141.5" font-family="Helvetica,sans-Serif" font-size="10.00">src/libs/vwidgets/group</text>
<text text-anchor="middle" x="1336" y="-130.5" font-family="Helvetica,sans-Serif" font-size="10.00">_tablewidgetitem.cpp</text>
</a>
</g>
</g>
<!-- Node2&#45;&gt;Node17 -->
<g id="edge18" class="edge">
<title>Node2&#45;&gt;Node17</title>
<path fill="none" stroke="midnightblue" d="M1142.88,-187.98C1181.59,-178.27 1238.21,-164.05 1280.14,-153.52"/>
<polygon fill="midnightblue" stroke="midnightblue" points="1141.8,-184.65 1132.96,-190.48 1143.51,-191.43 1141.8,-184.65"/>
</g>
<!-- Node18 -->
<g id="node18" class="node">
<title>Node18</title>
<g id="a_node18"><a xlink:href="../../d3/d86/page__format__combobox_8h.html" target="_top" xlink:title=" ">
<polygon fill="white" stroke="black" points="1418.5,-123.5 1418.5,-153.5 1543.5,-153.5 1543.5,-123.5 1418.5,-123.5"/>
<text text-anchor="start" x="1426.5" y="-141.5" font-family="Helvetica,sans-Serif" font-size="10.00">src/libs/vwidgets/page</text>
<text text-anchor="middle" x="1481" y="-130.5" font-family="Helvetica,sans-Serif" font-size="10.00">_format_combobox.h</text>
</a>
</g>
</g>
<!-- Node2&#45;&gt;Node18 -->
<g id="edge19" class="edge">
<title>Node2&#45;&gt;Node18</title>
<path fill="none" stroke="midnightblue" d="M1175.87,-189.14C1238.93,-180.74 1330.45,-167.87 1410,-154 1412.73,-153.52 1415.51,-153.02 1418.32,-152.51"/>
<polygon fill="midnightblue" stroke="midnightblue" points="1175.06,-185.71 1165.61,-190.5 1175.98,-192.65 1175.06,-185.71"/>
</g>
<!-- Node20 -->
<g id="node20" class="node">
<title>Node20</title>
<g id="a_node20"><a xlink:href="../../de/d22/vsimplecurve_8cpp.html" target="_top" xlink:title=" ">
<polygon fill="white" stroke="black" points="1562,-129 1562,-148 1750,-148 1750,-129 1562,-129"/>
<text text-anchor="middle" x="1656" y="-136" font-family="Helvetica,sans-Serif" font-size="10.00">src/libs/vwidgets/vsimplecurve.cpp</text>
</a>
</g>
</g>
<!-- Node2&#45;&gt;Node20 -->
<g id="edge21" class="edge">
<title>Node2&#45;&gt;Node20</title>
<path fill="none" stroke="midnightblue" d="M1199.29,-189.54C1311.7,-178.86 1486.87,-161.93 1553,-154 1567.79,-152.23 1583.75,-150.09 1598.58,-148.01"/>
<polygon fill="midnightblue" stroke="midnightblue" points="1198.91,-186.06 1189.29,-190.49 1199.57,-193.03 1198.91,-186.06"/>
</g>
<!-- Node5 -->
<g id="node5" class="node">
<title>Node5</title>
<g id="a_node5"><a xlink:href="../../dd/d66/vdxfengine_8cpp.html" target="_top" xlink:title=" ">
<polygon fill="white" stroke="black" points="0,-62 0,-81 154,-81 154,-62 0,-62"/>
<text text-anchor="middle" x="77" y="-69" font-family="Helvetica,sans-Serif" font-size="10.00">src/libs/vdxf/vdxfengine.cpp</text>
</a>
</g>
</g>
<!-- Node4&#45;&gt;Node5 -->
<g id="edge4" class="edge">
<title>Node4&#45;&gt;Node5</title>
<path fill="none" stroke="midnightblue" d="M760.4,-127.43C749.33,-125.77 737.83,-124.2 727,-123 477.34,-95.42 412.51,-115.92 163,-87 149.76,-85.47 135.47,-83.27 122.4,-81.06"/>
<polygon fill="midnightblue" stroke="midnightblue" points="759.99,-130.91 770.41,-128.98 761.06,-123.99 759.99,-130.91"/>
</g>
<!-- Node6 -->
<g id="node6" class="node">
<title>Node6</title>
<g id="a_node6"><a xlink:href="../../df/d5d/vcontour_8cpp.html" target="_top" xlink:title=" ">
<polygon fill="white" stroke="black" points="172,-62 172,-81 328,-81 328,-62 172,-62"/>
<text text-anchor="middle" x="250" y="-69" font-family="Helvetica,sans-Serif" font-size="10.00">src/libs/vlayout/vcontour.cpp</text>
</a>
</g>
</g>
<!-- Node4&#45;&gt;Node6 -->
<g id="edge5" class="edge">
<title>Node4&#45;&gt;Node6</title>
<path fill="none" stroke="midnightblue" d="M758.53,-127.4C748.04,-125.81 737.21,-124.27 727,-123 554.27,-101.44 509.63,-109.32 337,-87 324.09,-85.33 310.16,-83.17 297.32,-81.03"/>
<polygon fill="midnightblue" stroke="midnightblue" points="758.05,-130.87 768.47,-128.94 759.12,-123.95 758.05,-130.87"/>
</g>
<!-- Node7 -->
<g id="node7" class="node">
<title>Node7</title>
<g id="a_node7"><a xlink:href="../../d3/d39/vlayoutgenerator_8cpp.html" target="_top" xlink:title=" ">
<polygon fill="white" stroke="black" points="346.5,-62 346.5,-81 543.5,-81 543.5,-62 346.5,-62"/>
<text text-anchor="middle" x="445" y="-69" font-family="Helvetica,sans-Serif" font-size="10.00">src/libs/vlayout/vlayoutgenerator.cpp</text>
</a>
</g>
</g>
<!-- Node4&#45;&gt;Node7 -->
<g id="edge6" class="edge">
<title>Node4&#45;&gt;Node7</title>
<path fill="none" stroke="midnightblue" d="M759.7,-127.19C686.25,-114.43 562.47,-92.92 494.09,-81.03"/>
<polygon fill="midnightblue" stroke="midnightblue" points="759.27,-130.67 769.72,-128.94 760.47,-123.77 759.27,-130.67"/>
</g>
<!-- Node8 -->
<g id="node8" class="node">
<title>Node8</title>
<g id="a_node8"><a xlink:href="../../d2/d2d/vlayoutpaper__p_8h.html" target="_top" xlink:title=" ">
<polygon fill="white" stroke="black" points="561.5,-62 561.5,-81 740.5,-81 740.5,-62 561.5,-62"/>
<text text-anchor="middle" x="651" y="-69" font-family="Helvetica,sans-Serif" font-size="10.00">src/libs/vlayout/vlayoutpaper_p.h</text>
</a>
</g>
</g>
<!-- Node4&#45;&gt;Node8 -->
<g id="edge7" class="edge">
<title>Node4&#45;&gt;Node8</title>
<path fill="none" stroke="midnightblue" d="M786.96,-125.1C753.61,-112.2 702.25,-92.33 673.13,-81.06"/>
<polygon fill="midnightblue" stroke="midnightblue" points="786.1,-128.52 796.69,-128.87 788.63,-122 786.1,-128.52"/>
</g>
<!-- Node9 -->
<g id="node9" class="node">
<title>Node9</title>
<g id="a_node9"><a xlink:href="../../d1/dd1/vlayoutpaper_8cpp.html" target="_top" xlink:title=" ">
<polygon fill="white" stroke="black" points="680,-0.5 680,-19.5 858,-19.5 858,-0.5 680,-0.5"/>
<text text-anchor="middle" x="769" y="-7.5" font-family="Helvetica,sans-Serif" font-size="10.00">src/libs/vlayout/vlayoutpaper.cpp</text>
</a>
</g>
</g>
<!-- Node4&#45;&gt;Node9 -->
<g id="edge10" class="edge">
<title>Node4&#45;&gt;Node9</title>
<path fill="none" stroke="midnightblue" d="M806.56,-120.22C800.25,-110.78 792.9,-98.67 788,-87 778.2,-63.68 772.61,-34.13 770.29,-19.71"/>
<polygon fill="midnightblue" stroke="midnightblue" points="803.83,-122.42 812.4,-128.65 809.58,-118.43 803.83,-122.42"/>
</g>
<!-- Node10 -->
<g id="node10" class="node">
<title>Node10</title>
<g id="a_node10"><a xlink:href="../../de/da8/vbank_8cpp.html" target="_top" xlink:title=" ">
<polygon fill="white" stroke="black" points="797,-62 797,-81 941,-81 941,-62 797,-62"/>
<text text-anchor="middle" x="869" y="-69" font-family="Helvetica,sans-Serif" font-size="10.00">src/libs/vlayout/vbank.cpp</text>
</a>
</g>
</g>
<!-- Node4&#45;&gt;Node10 -->
<g id="edge9" class="edge">
<title>Node4&#45;&gt;Node10</title>
<path fill="none" stroke="midnightblue" d="M831.87,-120.77C841.62,-108.1 854.61,-91.2 862.36,-81.13"/>
<polygon fill="midnightblue" stroke="midnightblue" points="829.07,-118.67 825.74,-128.73 834.61,-122.94 829.07,-118.67"/>
</g>
<!-- Node11 -->
<g id="node11" class="node">
<title>Node11</title>
<g id="a_node11"><a xlink:href="../../db/d5c/vposition_8h.html" target="_top" xlink:title=" ">
<polygon fill="white" stroke="black" points="959,-62 959,-81 1107,-81 1107,-62 959,-62"/>
<text text-anchor="middle" x="1033" y="-69" font-family="Helvetica,sans-Serif" font-size="10.00">src/libs/vlayout/vposition.h</text>
</a>
</g>
</g>
<!-- Node4&#45;&gt;Node11 -->
<g id="edge11" class="edge">
<title>Node4&#45;&gt;Node11</title>
<path fill="none" stroke="midnightblue" d="M857.1,-125.93C899.47,-113.06 966.92,-92.57 1004.81,-81.06"/>
<polygon fill="midnightblue" stroke="midnightblue" points="855.97,-122.61 847.42,-128.87 858,-129.31 855.97,-122.61"/>
</g>
<!-- Node13 -->
<g id="node13" class="node">
<title>Node13</title>
<g id="a_node13"><a xlink:href="../../dd/d70/vlayoutpiece_8cpp.html" target="_top" xlink:title=" ">
<polygon fill="white" stroke="black" points="1125.5,-62 1125.5,-81 1302.5,-81 1302.5,-62 1125.5,-62"/>
<text text-anchor="middle" x="1214" y="-69" font-family="Helvetica,sans-Serif" font-size="10.00">src/libs/vlayout/vlayoutpiece.cpp</text>
</a>
</g>
</g>
<!-- Node4&#45;&gt;Node13 -->
<g id="edge14" class="edge">
<title>Node4&#45;&gt;Node13</title>
<path fill="none" stroke="midnightblue" d="M881.15,-127.27C958.67,-114.52 1089.78,-92.94 1162.15,-81.03"/>
<polygon fill="midnightblue" stroke="midnightblue" points="880.34,-123.86 871.05,-128.94 881.48,-130.77 880.34,-123.86"/>
</g>
<!-- Node8&#45;&gt;Node9 -->
<g id="edge8" class="edge">
<title>Node8&#45;&gt;Node9</title>
<path fill="none" stroke="midnightblue" d="M677.05,-57.37C699.92,-45.83 732.51,-29.4 752.12,-19.51"/>
<polygon fill="midnightblue" stroke="midnightblue" points="675.26,-54.35 667.91,-61.98 678.41,-60.6 675.26,-54.35"/>
</g>
<!-- Node11&#45;&gt;Node9 -->
<g id="edge12" class="edge">
<title>Node11&#45;&gt;Node9</title>
<path fill="none" stroke="midnightblue" d="M985.34,-59.76C934.13,-48.22 853.77,-30.11 806.75,-19.51"/>
<polygon fill="midnightblue" stroke="midnightblue" points="984.65,-63.19 995.18,-61.98 986.19,-56.36 984.65,-63.19"/>
</g>
<!-- Node12 -->
<g id="node12" class="node">
<title>Node12</title>
<g id="a_node12"><a xlink:href="../../df/d76/vposition_8cpp.html" target="_top" xlink:title=" ">
<polygon fill="white" stroke="black" points="953.5,-0.5 953.5,-19.5 1112.5,-19.5 1112.5,-0.5 953.5,-0.5"/>
<text text-anchor="middle" x="1033" y="-7.5" font-family="Helvetica,sans-Serif" font-size="10.00">src/libs/vlayout/vposition.cpp</text>
</a>
</g>
</g>
<!-- Node11&#45;&gt;Node12 -->
<g id="edge13" class="edge">
<title>Node11&#45;&gt;Node12</title>
<path fill="none" stroke="midnightblue" d="M1033,-51.82C1033,-41 1033,-27.9 1033,-19.51"/>
<polygon fill="midnightblue" stroke="midnightblue" points="1029.5,-51.98 1033,-61.98 1036.5,-51.98 1029.5,-51.98"/>
</g>
<!-- Node16 -->
<g id="node16" class="node">
<title>Node16</title>
<g id="a_node16"><a xlink:href="../../df/d40/export__format__combobox_8cpp.html" target="_top" xlink:title=" ">
<polygon fill="white" stroke="black" points="1320.5,-56.5 1320.5,-86.5 1453.5,-86.5 1453.5,-56.5 1320.5,-56.5"/>
<text text-anchor="start" x="1328.5" y="-74.5" font-family="Helvetica,sans-Serif" font-size="10.00">src/libs/vwidgets/export</text>
<text text-anchor="middle" x="1387" y="-63.5" font-family="Helvetica,sans-Serif" font-size="10.00">_format_combobox.cpp</text>
</a>
</g>
</g>
<!-- Node15&#45;&gt;Node16 -->
<g id="edge17" class="edge">
<title>Node15&#45;&gt;Node16</title>
<path fill="none" stroke="midnightblue" d="M1240.15,-120.23C1272.5,-109.71 1313.31,-96.45 1343.69,-86.58"/>
<polygon fill="midnightblue" stroke="midnightblue" points="1238.83,-116.98 1230.4,-123.4 1240.99,-123.63 1238.83,-116.98"/>
</g>
<!-- Node19 -->
<g id="node19" class="node">
<title>Node19</title>
<g id="a_node19"><a xlink:href="../../d2/d28/page__format__combobox_8cpp.html" target="_top" xlink:title=" ">
<polygon fill="white" stroke="black" points="1471.5,-56.5 1471.5,-86.5 1602.5,-86.5 1602.5,-56.5 1471.5,-56.5"/>
<text text-anchor="start" x="1479.5" y="-74.5" font-family="Helvetica,sans-Serif" font-size="10.00">src/libs/vwidgets/page</text>
<text text-anchor="middle" x="1537" y="-63.5" font-family="Helvetica,sans-Serif" font-size="10.00">_format_combobox.cpp</text>
</a>
</g>
</g>
<!-- Node18&#45;&gt;Node19 -->
<g id="edge20" class="edge">
<title>Node18&#45;&gt;Node19</title>
<path fill="none" stroke="midnightblue" d="M1499.75,-115.74C1508.04,-106.12 1517.54,-95.09 1524.87,-86.58"/>
<polygon fill="midnightblue" stroke="midnightblue" points="1497.03,-113.54 1493.15,-123.4 1502.33,-118.1 1497.03,-113.54"/>
</g>
</g>
</svg>
        <g id="navigator" transform="translate(0 0)" fill="#404254">
                <rect fill="#f2f5e9" fill-opacity="0.5" stroke="#606060" stroke-width=".5" x="0" y="0" width="60" height="60"/>
                <use id="zoomplus" xlink:href="#zoomPlus" x="17" y="9" onmousedown="handleZoom(evt,'in')"/>
                <use id="zoomminus" xlink:href="#zoomMin" x="42" y="9" onmousedown="handleZoom(evt,'out')"/>
                <use id="reset" xlink:href="#resetDef" x="30" y="36" onmousedown="handleReset()"/>
                <g id="arrowUp" xlink:href="#dirArrow" transform="translate(30 24)" onmousedown="handlePan(0,-1)">
                  <use xlink:href="#rim" fill="#404040">
                        <set attributeName="fill" to="#808080" begin="arrowUp.mouseover" end="arrowUp.mouseout"/>
                  </use>
                  <path fill="none" stroke="white" stroke-width="1.5" d="M0,-3.0v7 M-2.5,-0.5L0,-3.0L2.5,-0.5"/>
                </g>
                <g id="arrowRight" xlink:href="#dirArrow" transform="rotate(90) translate(36 -43)" onmousedown="handlePan(1,0)">
                  <use xlink:href="#rim" fill="#404040">
                        <set attributeName="fill" to="#808080" begin="arrowRight.mouseover" end="arrowRight.mouseout"/>
                  </use>
                  <path fill="none" stroke="white" stroke-width="1.5" d="M0,-3.0v7 M-2.5,-0.5L0,-3.0L2.5,-0.5"/>
                </g>
                <g id="arrowDown" xlink:href="#dirArrow" transform="rotate(180) translate(-30 -48)" onmousedown="handlePan(0,1)">
                  <use xlink:href="#rim" fill="#404040">
                        <set attributeName="fill" to="#808080" begin="arrowDown.mouseover" end="arrowDown.mouseout"/>
                  </use>
                  <path fill="none" stroke="white" stroke-width="1.5" d="M0,-3.0v7 M-2.5,-0.5L0,-3.0L2.5,-0.5"/>
                </g>
                <g id="arrowLeft" xlink:href="#dirArrow" transform="rotate(270) translate(-36 17)" onmousedown="handlePan(-1,0)">
                  <use xlink:href="#rim" fill="#404040">
                        <set attributeName="fill" to="#808080" begin="arrowLeft.mouseover" end="arrowLeft.mouseout"/>
                  </use>
                  <path fill="none" stroke="white" stroke-width="1.5" d="M0,-3.0v7 M-2.5,-0.5L0,-3.0L2.5,-0.5"/>
                </g>
        </g>
        <svg viewBox="0 0 15 15" width="100%" height="30px" preserveAspectRatio="xMaxYMin meet">
         <g id="arrow_out" transform="scale(0.3 0.3)">
          <a xlink:href="vtoolrecord_8h__dep__incl_org.svg" target="_base">
           <rect id="button" ry="5" rx="5" y="6" x="6" height="38" width="38"
                fill="#f2f5e9" fill-opacity="0.5" stroke="#606060" stroke-width="1.0"/>
           <path id="arrow"
             d="M 11.500037,31.436501 C 11.940474,20.09759 22.043105,11.32322 32.158766,21.979434 L 37.068811,17.246167 C 37.068811,17.246167 37.088388,32 37.088388,32 L 22.160133,31.978069 C 22.160133,31.978069 26.997745,27.140456 26.997745,27.140456 C 18.528582,18.264221 13.291696,25.230495 11.500037,31.436501 z"
             style="fill:#404040;"/>
          </a>
         </g>
        </svg>
</svg>
