<?xml version="1.0" encoding="UTF-8" standalone="no"?>
<!DOCTYPE svg PUBLIC "-//W3C//DTD SVG 1.1//EN"
 "http://www.w3.org/Graphics/SVG/1.1/DTD/svg11.dtd">
<!-- Generated by graphviz version 2.43.0 (0)
 -->
<!-- Title: src/app/seamly2d/dialogs/pieces_widget.cpp Pages: 1 -->
<svg width="2678pt" height="162pt"
 viewBox="0.00 0.00 2678.00 162.00" xmlns="http://www.w3.org/2000/svg" xmlns:xlink="http://www.w3.org/1999/xlink">
<g id="graph0" class="graph" transform="scale(1 1) rotate(0) translate(4 158)">
<title>src/app/seamly2d/dialogs/pieces_widget.cpp</title>
<polygon fill="white" stroke="transparent" points="-4,4 -4,-158 2674,-158 2674,4 -4,4"/>
<!-- Node1 -->
<g id="node1" class="node">
<title>Node1</title>
<g id="a_node1"><a xlink:title=" ">
<polygon fill="#bfbfbf" stroke="black" points="1496,-123.5 1496,-153.5 1637,-153.5 1637,-123.5 1496,-123.5"/>
<text text-anchor="start" x="1504" y="-141.5" font-family="Helvetica,sans-Serif" font-size="10.00">src/app/seamly2d/dialogs</text>
<text text-anchor="middle" x="1566.5" y="-130.5" font-family="Helvetica,sans-Serif" font-size="10.00">/pieces_widget.cpp</text>
</a>
</g>
</g>
<!-- Node2 -->
<g id="node2" class="node">
<title>Node2</title>
<g id="a_node2"><a xlink:href="../../d7/d18/pieces__widget_8h.html" target="_top" xlink:title=" ">
<polygon fill="white" stroke="black" points="32,-62 32,-81 127,-81 127,-62 32,-62"/>
<text text-anchor="middle" x="79.5" y="-69" font-family="Helvetica,sans-Serif" font-size="10.00">pieces_widget.h</text>
</a>
</g>
</g>
<!-- Node1&#45;&gt;Node2 -->
<g id="edge1" class="edge">
<title>Node1&#45;&gt;Node2</title>
<path fill="none" stroke="midnightblue" d="M1495.62,-137C1245.28,-134.92 403.31,-125.2 136.5,-87 130.48,-86.14 124.17,-84.89 118.04,-83.49"/>
<polygon fill="midnightblue" stroke="midnightblue" points="118.51,-80 107.97,-81.01 116.84,-86.8 118.51,-80"/>
</g>
<!-- Node5 -->
<g id="node5" class="node">
<title>Node5</title>
<g id="a_node5"><a xlink:title=" ">
<polygon fill="white" stroke="#bfbfbf" points="145.5,-62 145.5,-81 255.5,-81 255.5,-62 145.5,-62"/>
<text text-anchor="middle" x="200.5" y="-69" font-family="Helvetica,sans-Serif" font-size="10.00">ui_pieces_widget.h</text>
</a>
</g>
</g>
<!-- Node1&#45;&gt;Node5 -->
<g id="edge4" class="edge">
<title>Node1&#45;&gt;Node5</title>
<path fill="none" stroke="midnightblue" d="M1495.97,-136.48C1260.95,-132.79 505.74,-118.73 264.5,-87 257.52,-86.08 250.18,-84.76 243.06,-83.29"/>
<polygon fill="midnightblue" stroke="midnightblue" points="243.37,-79.77 232.85,-81.05 241.87,-86.61 243.37,-79.77"/>
</g>
<!-- Node6 -->
<g id="node6" class="node">
<title>Node6</title>
<g id="a_node6"><a xlink:title=" ">
<polygon fill="white" stroke="#bfbfbf" points="273.5,-62 273.5,-81 425.5,-81 425.5,-62 273.5,-62"/>
<text text-anchor="middle" x="349.5" y="-69" font-family="Helvetica,sans-Serif" font-size="10.00">../ifc/xml/vabstractpattern.h</text>
</a>
</g>
</g>
<!-- Node1&#45;&gt;Node6 -->
<g id="edge5" class="edge">
<title>Node1&#45;&gt;Node6</title>
<path fill="none" stroke="midnightblue" d="M1495.8,-137.34C1317.45,-136.3 834.95,-129.43 435.5,-87 425.23,-85.91 414.33,-84.37 403.86,-82.7"/>
<polygon fill="midnightblue" stroke="midnightblue" points="404.43,-79.25 393.99,-81.07 403.29,-86.15 404.43,-79.25"/>
</g>
<!-- Node7 -->
<g id="node7" class="node">
<title>Node7</title>
<g id="a_node7"><a xlink:title=" ">
<polygon fill="white" stroke="#bfbfbf" points="444,-56.5 444,-86.5 593,-86.5 593,-56.5 444,-56.5"/>
<text text-anchor="start" x="452" y="-74.5" font-family="Helvetica,sans-Serif" font-size="10.00">../vpatterndb/floatItemData</text>
<text text-anchor="middle" x="518.5" y="-63.5" font-family="Helvetica,sans-Serif" font-size="10.00">/vpiecelabeldata.h</text>
</a>
</g>
</g>
<!-- Node1&#45;&gt;Node7 -->
<g id="edge6" class="edge">
<title>Node1&#45;&gt;Node7</title>
<path fill="none" stroke="midnightblue" d="M1495.81,-136.66C1337.67,-134.17 943.19,-124.51 603.13,-86.97"/>
<polygon fill="midnightblue" stroke="midnightblue" points="603.42,-83.48 593.09,-85.85 602.64,-90.43 603.42,-83.48"/>
</g>
<!-- Node8 -->
<g id="node8" class="node">
<title>Node8</title>
<g id="a_node8"><a xlink:title=" ">
<polygon fill="white" stroke="#bfbfbf" points="611.5,-62 611.5,-81 753.5,-81 753.5,-62 611.5,-62"/>
<text text-anchor="middle" x="682.5" y="-69" font-family="Helvetica,sans-Serif" font-size="10.00">../vpatterndb/vcontainer.h</text>
</a>
</g>
</g>
<!-- Node1&#45;&gt;Node8 -->
<g id="edge7" class="edge">
<title>Node1&#45;&gt;Node8</title>
<path fill="none" stroke="midnightblue" d="M1495.9,-135.77C1355.79,-131.74 1032.89,-119.47 763.5,-87 754.23,-85.88 744.41,-84.39 734.93,-82.79"/>
<polygon fill="midnightblue" stroke="midnightblue" points="735.28,-79.29 724.82,-81.02 734.07,-86.19 735.28,-79.29"/>
</g>
<!-- Node9 -->
<g id="node9" class="node">
<title>Node9</title>
<g id="a_node9"><a xlink:title=" ">
<polygon fill="white" stroke="#bfbfbf" points="772,-62 772,-81 939,-81 939,-62 772,-62"/>
<text text-anchor="middle" x="855.5" y="-69" font-family="Helvetica,sans-Serif" font-size="10.00">../vmisc/vabstractapplication.h</text>
</a>
</g>
</g>
<!-- Node1&#45;&gt;Node9 -->
<g id="edge8" class="edge">
<title>Node1&#45;&gt;Node9</title>
<path fill="none" stroke="midnightblue" d="M1495.89,-133.42C1380.94,-126.39 1146.26,-110.47 948.5,-87 938.05,-85.76 926.97,-84.23 916.24,-82.62"/>
<polygon fill="midnightblue" stroke="midnightblue" points="916.5,-79.12 906.09,-81.08 915.45,-86.04 916.5,-79.12"/>
</g>
<!-- Node10 -->
<g id="node10" class="node">
<title>Node10</title>
<g id="a_node10"><a xlink:title=" ">
<polygon fill="white" stroke="#bfbfbf" points="957,-56.5 957,-86.5 1078,-86.5 1078,-56.5 957,-56.5"/>
<text text-anchor="start" x="965" y="-74.5" font-family="Helvetica,sans-Serif" font-size="10.00">../vtools/tools/pattern</text>
<text text-anchor="middle" x="1017.5" y="-63.5" font-family="Helvetica,sans-Serif" font-size="10.00">_piece_tool.h</text>
</a>
</g>
</g>
<!-- Node1&#45;&gt;Node10 -->
<g id="edge9" class="edge">
<title>Node1&#45;&gt;Node10</title>
<path fill="none" stroke="midnightblue" d="M1495.61,-132.24C1403.87,-124.94 1238.95,-110.13 1088.06,-86.98"/>
<polygon fill="midnightblue" stroke="midnightblue" points="1088.56,-83.52 1078.14,-85.44 1087.49,-90.43 1088.56,-83.52"/>
</g>
<!-- Node11 -->
<g id="node11" class="node">
<title>Node11</title>
<g id="a_node11"><a xlink:title=" ">
<polygon fill="white" stroke="#bfbfbf" points="1096,-56.5 1096,-86.5 1233,-86.5 1233,-56.5 1096,-56.5"/>
<text text-anchor="start" x="1104" y="-74.5" font-family="Helvetica,sans-Serif" font-size="10.00">../vtools/undocommands</text>
<text text-anchor="middle" x="1164.5" y="-63.5" font-family="Helvetica,sans-Serif" font-size="10.00">/togglepieceinlayout.h</text>
</a>
</g>
</g>
<!-- Node1&#45;&gt;Node11 -->
<g id="edge10" class="edge">
<title>Node1&#45;&gt;Node11</title>
<path fill="none" stroke="midnightblue" d="M1495.93,-127.11C1432.48,-117.62 1336.46,-102.93 1243.27,-87.1"/>
<polygon fill="midnightblue" stroke="midnightblue" points="1243.83,-83.65 1233.38,-85.42 1242.65,-90.55 1243.83,-83.65"/>
</g>
<!-- Node12 -->
<g id="node12" class="node">
<title>Node12</title>
<g id="a_node12"><a xlink:title=" ">
<polygon fill="white" stroke="#bfbfbf" points="1251,-56.5 1251,-86.5 1388,-86.5 1388,-56.5 1251,-56.5"/>
<text text-anchor="start" x="1259" y="-74.5" font-family="Helvetica,sans-Serif" font-size="10.00">../vtools/undocommands</text>
<text text-anchor="middle" x="1319.5" y="-63.5" font-family="Helvetica,sans-Serif" font-size="10.00">/toggle_piecelock.h</text>
</a>
</g>
</g>
<!-- Node1&#45;&gt;Node12 -->
<g id="edge11" class="edge">
<title>Node1&#45;&gt;Node12</title>
<path fill="none" stroke="midnightblue" d="M1513.21,-123.48C1474.95,-113.41 1423.24,-99.8 1382.86,-89.17"/>
<polygon fill="midnightblue" stroke="midnightblue" points="1383.68,-85.77 1373.12,-86.61 1381.9,-92.54 1383.68,-85.77"/>
</g>
<!-- Node13 -->
<g id="node13" class="node">
<title>Node13</title>
<g id="a_node13"><a xlink:title=" ">
<polygon fill="white" stroke="#bfbfbf" points="1406,-56.5 1406,-86.5 1543,-86.5 1543,-56.5 1406,-56.5"/>
<text text-anchor="start" x="1414" y="-74.5" font-family="Helvetica,sans-Serif" font-size="10.00">../vtools/undocommands</text>
<text text-anchor="middle" x="1474.5" y="-63.5" font-family="Helvetica,sans-Serif" font-size="10.00">/set_piece_color.h</text>
</a>
</g>
</g>
<!-- Node1&#45;&gt;Node13 -->
<g id="edge12" class="edge">
<title>Node1&#45;&gt;Node13</title>
<path fill="none" stroke="midnightblue" d="M1546.54,-123.4C1533.76,-114.37 1516.98,-102.51 1502.83,-92.52"/>
<polygon fill="midnightblue" stroke="midnightblue" points="1504.61,-89.49 1494.42,-86.58 1500.57,-95.21 1504.61,-89.49"/>
</g>
<!-- Node14 -->
<g id="node14" class="node">
<title>Node14</title>
<g id="a_node14"><a xlink:title=" ">
<polygon fill="white" stroke="#bfbfbf" points="1561.5,-62 1561.5,-81 1755.5,-81 1755.5,-62 1561.5,-62"/>
<text text-anchor="middle" x="1658.5" y="-69" font-family="Helvetica,sans-Serif" font-size="10.00">../vwidgets/piece_tablewidgetitem.h</text>
</a>
</g>
</g>
<!-- Node1&#45;&gt;Node14 -->
<g id="edge13" class="edge">
<title>Node1&#45;&gt;Node14</title>
<path fill="none" stroke="midnightblue" d="M1586.46,-123.4C1601.75,-112.6 1622.75,-97.76 1638.14,-86.89"/>
<polygon fill="midnightblue" stroke="midnightblue" points="1640.31,-89.64 1646.46,-81.01 1636.27,-83.92 1640.31,-89.64"/>
</g>
<!-- Node15 -->
<g id="node15" class="node">
<title>Node15</title>
<g id="a_node15"><a xlink:title=" ">
<polygon fill="white" stroke="#bfbfbf" points="1773.5,-62 1773.5,-81 1955.5,-81 1955.5,-62 1773.5,-62"/>
<text text-anchor="middle" x="1864.5" y="-69" font-family="Helvetica,sans-Serif" font-size="10.00">../vwidgets/vmaingraphicsscene.h</text>
</a>
</g>
</g>
<!-- Node1&#45;&gt;Node15 -->
<g id="edge14" class="edge">
<title>Node1&#45;&gt;Node15</title>
<path fill="none" stroke="midnightblue" d="M1630.79,-123.48C1686.18,-111.4 1764.95,-94.21 1815.39,-83.21"/>
<polygon fill="midnightblue" stroke="midnightblue" points="1816.38,-86.58 1825.4,-81.03 1814.88,-79.74 1816.38,-86.58"/>
</g>
<!-- Node16 -->
<g id="node16" class="node">
<title>Node16</title>
<g id="a_node16"><a xlink:title=" ">
<polygon fill="white" stroke="#bfbfbf" points="1974,-62 1974,-81 2055,-81 2055,-62 1974,-62"/>
<text text-anchor="middle" x="2014.5" y="-69" font-family="Helvetica,sans-Serif" font-size="10.00">QColorDialog</text>
</a>
</g>
</g>
<!-- Node1&#45;&gt;Node16 -->
<g id="edge15" class="edge">
<title>Node1&#45;&gt;Node16</title>
<path fill="none" stroke="midnightblue" d="M1637.15,-131.89C1717.14,-124.76 1851.11,-110.49 1964.5,-87 1968.95,-86.08 1973.58,-84.96 1978.15,-83.75"/>
<polygon fill="midnightblue" stroke="midnightblue" points="1979.27,-87.08 1987.97,-81.03 1977.39,-80.33 1979.27,-87.08"/>
</g>
<!-- Node17 -->
<g id="node17" class="node">
<title>Node17</title>
<g id="a_node17"><a xlink:title=" ">
<polygon fill="white" stroke="#bfbfbf" points="2073,-62 2073,-81 2114,-81 2114,-62 2073,-62"/>
<text text-anchor="middle" x="2093.5" y="-69" font-family="Helvetica,sans-Serif" font-size="10.00">QList</text>
</a>
</g>
</g>
<!-- Node1&#45;&gt;Node17 -->
<g id="edge16" class="edge">
<title>Node1&#45;&gt;Node17</title>
<path fill="none" stroke="midnightblue" d="M1637.3,-138.28C1735.26,-137.59 1916.77,-129.86 2064.5,-87 2066.17,-86.51 2067.86,-85.94 2069.55,-85.29"/>
<polygon fill="midnightblue" stroke="midnightblue" points="2071.18,-88.39 2078.87,-81.1 2068.31,-82.01 2071.18,-88.39"/>
</g>
<!-- Node18 -->
<g id="node18" class="node">
<title>Node18</title>
<g id="a_node18"><a xlink:title=" ">
<polygon fill="white" stroke="#bfbfbf" points="2132,-62 2132,-81 2183,-81 2183,-62 2132,-62"/>
<text text-anchor="middle" x="2157.5" y="-69" font-family="Helvetica,sans-Serif" font-size="10.00">QMenu</text>
</a>
</g>
</g>
<!-- Node1&#45;&gt;Node18 -->
<g id="edge17" class="edge">
<title>Node1&#45;&gt;Node18</title>
<path fill="none" stroke="midnightblue" d="M1637.14,-138.1C1744.05,-137.44 1952.61,-130.05 2123.5,-87 2125.86,-86.4 2128.27,-85.67 2130.66,-84.84"/>
<polygon fill="midnightblue" stroke="midnightblue" points="2132.18,-88.01 2140.22,-81.1 2129.63,-81.49 2132.18,-88.01"/>
</g>
<!-- Node19 -->
<g id="node19" class="node">
<title>Node19</title>
<g id="a_node19"><a xlink:title=" ">
<polygon fill="white" stroke="#bfbfbf" points="2201.5,-62 2201.5,-81 2259.5,-81 2259.5,-62 2201.5,-62"/>
<text text-anchor="middle" x="2230.5" y="-69" font-family="Helvetica,sans-Serif" font-size="10.00">QPainter</text>
</a>
</g>
</g>
<!-- Node1&#45;&gt;Node19 -->
<g id="edge18" class="edge">
<title>Node1&#45;&gt;Node19</title>
<path fill="none" stroke="midnightblue" d="M1637.42,-138.28C1754.51,-138.12 1994.96,-131.69 2192.5,-87 2195.5,-86.32 2198.58,-85.45 2201.63,-84.48"/>
<polygon fill="midnightblue" stroke="midnightblue" points="2202.85,-87.76 2211.11,-81.11 2200.51,-81.16 2202.85,-87.76"/>
</g>
<!-- Node20 -->
<g id="node20" class="node">
<title>Node20</title>
<g id="a_node20"><a xlink:title=" ">
<polygon fill="white" stroke="#bfbfbf" points="2278,-62 2278,-81 2339,-81 2339,-62 2278,-62"/>
<text text-anchor="middle" x="2308.5" y="-69" font-family="Helvetica,sans-Serif" font-size="10.00">QPixmap</text>
</a>
</g>
</g>
<!-- Node1&#45;&gt;Node20 -->
<g id="edge19" class="edge">
<title>Node1&#45;&gt;Node20</title>
<path fill="none" stroke="midnightblue" d="M1637.15,-134.89C1790.45,-128.83 2149.44,-112.35 2268.5,-87 2271.75,-86.31 2275.1,-85.41 2278.4,-84.4"/>
<polygon fill="midnightblue" stroke="midnightblue" points="2279.71,-87.66 2288.06,-81.14 2277.46,-81.02 2279.71,-87.66"/>
</g>
<!-- Node21 -->
<g id="node21" class="node">
<title>Node21</title>
<g id="a_node21"><a xlink:title=" ">
<polygon fill="white" stroke="#bfbfbf" points="2357,-62 2357,-81 2472,-81 2472,-62 2357,-62"/>
<text text-anchor="middle" x="2414.5" y="-69" font-family="Helvetica,sans-Serif" font-size="10.00">QRegularExpression</text>
</a>
</g>
</g>
<!-- Node1&#45;&gt;Node21 -->
<g id="edge20" class="edge">
<title>Node1&#45;&gt;Node21</title>
<path fill="none" stroke="midnightblue" d="M1637.23,-136.52C1774.85,-133.82 2088.01,-123.81 2348.5,-87 2355.69,-85.98 2363.26,-84.61 2370.6,-83.12"/>
<polygon fill="midnightblue" stroke="midnightblue" points="2371.37,-86.53 2380.42,-81.02 2369.91,-79.68 2371.37,-86.53"/>
</g>
<!-- Node22 -->
<g id="node22" class="node">
<title>Node22</title>
<g id="a_node22"><a xlink:title=" ">
<polygon fill="white" stroke="#bfbfbf" points="2490.5,-62 2490.5,-81 2574.5,-81 2574.5,-62 2490.5,-62"/>
<text text-anchor="middle" x="2532.5" y="-69" font-family="Helvetica,sans-Serif" font-size="10.00">QTableWidget</text>
</a>
</g>
</g>
<!-- Node1&#45;&gt;Node22 -->
<g id="edge21" class="edge">
<title>Node1&#45;&gt;Node22</title>
<path fill="none" stroke="midnightblue" d="M1637.06,-135.63C1822.29,-130.4 2319.3,-114.19 2481.5,-87 2486.59,-86.15 2491.9,-84.97 2497.08,-83.66"/>
<polygon fill="midnightblue" stroke="midnightblue" points="2498.08,-87.01 2506.81,-81 2496.24,-80.26 2498.08,-87.01"/>
</g>
<!-- Node23 -->
<g id="node23" class="node">
<title>Node23</title>
<g id="a_node23"><a xlink:title=" ">
<polygon fill="white" stroke="#bfbfbf" points="2593,-62 2593,-81 2670,-81 2670,-62 2593,-62"/>
<text text-anchor="middle" x="2631.5" y="-69" font-family="Helvetica,sans-Serif" font-size="10.00">QUndoStack</text>
</a>
</g>
</g>
<!-- Node1&#45;&gt;Node23 -->
<g id="edge22" class="edge">
<title>Node1&#45;&gt;Node23</title>
<path fill="none" stroke="midnightblue" d="M1637.27,-136.23C1836.79,-132.28 2401.15,-118.58 2583.5,-87 2588.06,-86.21 2592.8,-85.12 2597.45,-83.89"/>
<polygon fill="midnightblue" stroke="midnightblue" points="2598.71,-87.17 2607.36,-81.05 2596.78,-80.44 2598.71,-87.17"/>
</g>
<!-- Node3 -->
<g id="node3" class="node">
<title>Node3</title>
<g id="a_node3"><a xlink:title=" ">
<polygon fill="white" stroke="#bfbfbf" points="0,-0.5 0,-19.5 59,-19.5 59,-0.5 0,-0.5"/>
<text text-anchor="middle" x="29.5" y="-7.5" font-family="Helvetica,sans-Serif" font-size="10.00">QWidget</text>
</a>
</g>
</g>
<!-- Node2&#45;&gt;Node3 -->
<g id="edge2" class="edge">
<title>Node2&#45;&gt;Node3</title>
<path fill="none" stroke="midnightblue" d="M72.34,-61.98C64.76,-52.96 52.63,-38.52 43.21,-27.31"/>
<polygon fill="midnightblue" stroke="midnightblue" points="45.76,-24.91 36.65,-19.51 40.4,-29.42 45.76,-24.91"/>
</g>
<!-- Node4 -->
<g id="node4" class="node">
<title>Node4</title>
<g id="a_node4"><a xlink:title=" ">
<polygon fill="white" stroke="#bfbfbf" points="77,-0.5 77,-19.5 184,-19.5 184,-0.5 77,-0.5"/>
<text text-anchor="middle" x="130.5" y="-7.5" font-family="Helvetica,sans-Serif" font-size="10.00">QTableWidgetItem</text>
</a>
</g>
</g>
<!-- Node2&#45;&gt;Node4 -->
<g id="edge3" class="edge">
<title>Node2&#45;&gt;Node4</title>
<path fill="none" stroke="midnightblue" d="M86.81,-61.98C94.53,-52.96 106.91,-38.52 116.52,-27.31"/>
<polygon fill="midnightblue" stroke="midnightblue" points="119.36,-29.38 123.21,-19.51 114.04,-24.82 119.36,-29.38"/>
</g>
</g>
</svg>
