<?xml version="1.0" encoding="UTF-8" standalone="no"?>
<!DOCTYPE svg PUBLIC "-//W3C//DTD SVG 1.1//EN"
 "http://www.w3.org/Graphics/SVG/1.1/DTD/svg11.dtd">
<!-- Generated by graphviz version 2.43.0 (0)
 -->
<!-- Title: src/libs/ifc/exception/vexception.cpp Pages: 1 -->
<svg width="726pt" height="319pt"
 viewBox="0.00 0.00 726.00 319.00" xmlns="http://www.w3.org/2000/svg" xmlns:xlink="http://www.w3.org/1999/xlink">
<g id="graph0" class="graph" transform="scale(1 1) rotate(0) translate(4 315)">
<title>src/libs/ifc/exception/vexception.cpp</title>
<polygon fill="white" stroke="transparent" points="-4,4 -4,-315 722,-315 722,4 -4,4"/>
<!-- Node1 -->
<g id="node1" class="node">
<title>Node1</title>
<g id="a_node1"><a xlink:title=" ">
<polygon fill="#bfbfbf" stroke="black" points="269,-280.5 269,-310.5 386,-310.5 386,-280.5 269,-280.5"/>
<text text-anchor="start" x="277" y="-298.5" font-family="Helvetica,sans-Serif" font-size="10.00">src/libs/ifc/exception</text>
<text text-anchor="middle" x="327.5" y="-287.5" font-family="Helvetica,sans-Serif" font-size="10.00">/vexception.cpp</text>
</a>
</g>
</g>
<!-- Node2 -->
<g id="node2" class="node">
<title>Node2</title>
<g id="a_node2"><a xlink:href="../../d1/d44/vexception_8h.html" target="_top" xlink:title=" ">
<polygon fill="white" stroke="black" points="321.5,-224.5 321.5,-243.5 401.5,-243.5 401.5,-224.5 321.5,-224.5"/>
<text text-anchor="middle" x="361.5" y="-231.5" font-family="Helvetica,sans-Serif" font-size="10.00">vexception.h</text>
</a>
</g>
</g>
<!-- Node1&#45;&gt;Node2 -->
<g id="edge1" class="edge">
<title>Node1&#45;&gt;Node2</title>
<path fill="none" stroke="midnightblue" d="M335.56,-280.4C340.35,-272.02 346.46,-261.33 351.54,-252.42"/>
<polygon fill="midnightblue" stroke="midnightblue" points="354.63,-254.08 356.55,-243.66 348.55,-250.6 354.63,-254.08"/>
</g>
<!-- Node7 -->
<g id="node7" class="node">
<title>Node7</title>
<g id="a_node7"><a xlink:href="../../d3/da5/ifcdef_8h.html" target="_top" xlink:title=" ">
<polygon fill="white" stroke="black" points="230.5,-168.5 230.5,-187.5 292.5,-187.5 292.5,-168.5 230.5,-168.5"/>
<text text-anchor="middle" x="261.5" y="-175.5" font-family="Helvetica,sans-Serif" font-size="10.00">../ifcdef.h</text>
</a>
</g>
</g>
<!-- Node1&#45;&gt;Node7 -->
<g id="edge25" class="edge">
<title>Node1&#45;&gt;Node7</title>
<path fill="none" stroke="midnightblue" d="M319.41,-280.34C307.35,-259.24 284.7,-219.6 271.58,-196.65"/>
<polygon fill="midnightblue" stroke="midnightblue" points="274.45,-194.62 266.45,-187.67 268.38,-198.09 274.45,-194.62"/>
</g>
<!-- Node9 -->
<g id="node9" class="node">
<title>Node9</title>
<g id="a_node9"><a xlink:title=" ">
<polygon fill="white" stroke="#bfbfbf" points="0,-56.5 0,-75.5 59,-75.5 59,-56.5 0,-56.5"/>
<text text-anchor="middle" x="29.5" y="-63.5" font-family="Helvetica,sans-Serif" font-size="10.00">QtGlobal</text>
</a>
</g>
</g>
<!-- Node1&#45;&gt;Node9 -->
<g id="edge24" class="edge">
<title>Node1&#45;&gt;Node9</title>
<path fill="none" stroke="midnightblue" d="M284.61,-280.46C223.82,-258.4 113.06,-209.94 50.5,-132 39.84,-118.72 34.53,-99.88 31.92,-85.9"/>
<polygon fill="midnightblue" stroke="midnightblue" points="35.37,-85.27 30.36,-75.93 28.45,-86.36 35.37,-85.27"/>
</g>
<!-- Node18 -->
<g id="node18" class="node">
<title>Node18</title>
<g id="a_node18"><a xlink:title=" ">
<polygon fill="white" stroke="#bfbfbf" points="420,-224.5 420,-243.5 493,-243.5 493,-224.5 420,-224.5"/>
<text text-anchor="middle" x="456.5" y="-231.5" font-family="Helvetica,sans-Serif" font-size="10.00">QByteArray</text>
</a>
</g>
</g>
<!-- Node1&#45;&gt;Node18 -->
<g id="edge23" class="edge">
<title>Node1&#45;&gt;Node18</title>
<path fill="none" stroke="midnightblue" d="M358.07,-280.4C379.43,-270.55 407.72,-257.5 428.48,-247.92"/>
<polygon fill="midnightblue" stroke="midnightblue" points="430.11,-251.02 437.73,-243.66 427.18,-244.67 430.11,-251.02"/>
</g>
<!-- Node3 -->
<g id="node3" class="node">
<title>Node3</title>
<g id="a_node3"><a xlink:title=" ">
<polygon fill="white" stroke="#bfbfbf" points="526.5,-56.5 526.5,-75.5 646.5,-75.5 646.5,-56.5 526.5,-56.5"/>
<text text-anchor="middle" x="586.5" y="-63.5" font-family="Helvetica,sans-Serif" font-size="10.00">qcompilerdetection.h</text>
</a>
</g>
</g>
<!-- Node2&#45;&gt;Node3 -->
<g id="edge2" class="edge">
<title>Node2&#45;&gt;Node3</title>
<path fill="none" stroke="midnightblue" d="M401.32,-224.42C439.62,-215.59 494.18,-201.27 511.5,-188 547.02,-160.79 569.81,-111.54 580.11,-85.04"/>
<polygon fill="midnightblue" stroke="midnightblue" points="583.46,-86.09 583.66,-75.5 576.9,-83.66 583.46,-86.09"/>
</g>
<!-- Node4 -->
<g id="node4" class="node">
<title>Node4</title>
<g id="a_node4"><a xlink:title=" ">
<polygon fill="white" stroke="#bfbfbf" points="311,-168.5 311,-187.5 412,-187.5 412,-168.5 311,-168.5"/>
<text text-anchor="middle" x="361.5" y="-175.5" font-family="Helvetica,sans-Serif" font-size="10.00">QCoreApplication</text>
</a>
</g>
</g>
<!-- Node2&#45;&gt;Node4 -->
<g id="edge3" class="edge">
<title>Node2&#45;&gt;Node4</title>
<path fill="none" stroke="midnightblue" d="M361.5,-224.08C361.5,-217.01 361.5,-206.86 361.5,-197.99"/>
<polygon fill="midnightblue" stroke="midnightblue" points="365,-197.75 361.5,-187.75 358,-197.75 365,-197.75"/>
</g>
<!-- Node5 -->
<g id="node5" class="node">
<title>Node5</title>
<g id="a_node5"><a xlink:title=" ">
<polygon fill="white" stroke="#bfbfbf" points="430.5,-168.5 430.5,-187.5 502.5,-187.5 502.5,-168.5 430.5,-168.5"/>
<text text-anchor="middle" x="466.5" y="-175.5" font-family="Helvetica,sans-Serif" font-size="10.00">QException</text>
</a>
</g>
</g>
<!-- Node2&#45;&gt;Node5 -->
<g id="edge4" class="edge">
<title>Node2&#45;&gt;Node5</title>
<path fill="none" stroke="midnightblue" d="M378.37,-224.32C395.21,-215.66 421.31,-202.24 440.74,-192.25"/>
<polygon fill="midnightblue" stroke="midnightblue" points="442.38,-195.34 449.67,-187.65 439.18,-189.12 442.38,-195.34"/>
</g>
<!-- Node6 -->
<g id="node6" class="node">
<title>Node6</title>
<g id="a_node6"><a xlink:title=" ">
<polygon fill="white" stroke="#bfbfbf" points="665,-56.5 665,-75.5 718,-75.5 718,-56.5 665,-56.5"/>
<text text-anchor="middle" x="691.5" y="-63.5" font-family="Helvetica,sans-Serif" font-size="10.00">QString</text>
</a>
</g>
</g>
<!-- Node2&#45;&gt;Node6 -->
<g id="edge5" class="edge">
<title>Node2&#45;&gt;Node6</title>
<path fill="none" stroke="midnightblue" d="M401.64,-224.51C445.1,-214.98 511.3,-199.37 534.5,-188 591.91,-159.87 648.68,-108.84 675.5,-82.97"/>
<polygon fill="midnightblue" stroke="midnightblue" points="678.13,-85.29 682.83,-75.8 673.24,-80.29 678.13,-85.29"/>
</g>
<!-- Node2&#45;&gt;Node7 -->
<g id="edge6" class="edge">
<title>Node2&#45;&gt;Node7</title>
<path fill="none" stroke="midnightblue" d="M345.43,-224.32C329.54,-215.74 304.99,-202.49 286.54,-192.52"/>
<polygon fill="midnightblue" stroke="midnightblue" points="287.99,-189.33 277.53,-187.65 284.66,-195.49 287.99,-189.33"/>
</g>
<!-- Node7&#45;&gt;Node6 -->
<g id="edge7" class="edge">
<title>Node7&#45;&gt;Node6</title>
<path fill="none" stroke="midnightblue" d="M292.77,-169C370.51,-149.11 572.18,-97.52 655.09,-76.31"/>
<polygon fill="midnightblue" stroke="midnightblue" points="656.01,-79.69 664.83,-73.82 654.27,-72.91 656.01,-79.69"/>
</g>
<!-- Node8 -->
<g id="node8" class="node">
<title>Node8</title>
<g id="a_node8"><a xlink:title=" ">
<polygon fill="white" stroke="#bfbfbf" points="77.5,-56.5 77.5,-75.5 147.5,-75.5 147.5,-56.5 77.5,-56.5"/>
<text text-anchor="middle" x="112.5" y="-63.5" font-family="Helvetica,sans-Serif" font-size="10.00">QStringList</text>
</a>
</g>
</g>
<!-- Node7&#45;&gt;Node8 -->
<g id="edge8" class="edge">
<title>Node7&#45;&gt;Node8</title>
<path fill="none" stroke="midnightblue" d="M257.9,-168.24C251.85,-154.51 238.45,-127.88 219.5,-112 201.23,-96.69 177.01,-85.92 156.23,-78.77"/>
<polygon fill="midnightblue" stroke="midnightblue" points="157.24,-75.42 146.65,-75.63 155.07,-82.07 157.24,-75.42"/>
</g>
<!-- Node7&#45;&gt;Node9 -->
<g id="edge9" class="edge">
<title>Node7&#45;&gt;Node9</title>
<path fill="none" stroke="midnightblue" d="M253.65,-168.05C240.92,-154.08 214.37,-127.11 186.5,-112 166.26,-101.03 108.54,-85.88 69.02,-76.25"/>
<polygon fill="midnightblue" stroke="midnightblue" points="69.7,-72.82 59.15,-73.87 68.05,-79.62 69.7,-72.82"/>
</g>
<!-- Node10 -->
<g id="node10" class="node">
<title>Node10</title>
<g id="a_node10"><a xlink:href="../../d4/da4/def_8h.html" target="_top" xlink:title=" ">
<polygon fill="white" stroke="black" points="272.5,-112.5 272.5,-131.5 354.5,-131.5 354.5,-112.5 272.5,-112.5"/>
<text text-anchor="middle" x="313.5" y="-119.5" font-family="Helvetica,sans-Serif" font-size="10.00">../vmisc/def.h</text>
</a>
</g>
</g>
<!-- Node7&#45;&gt;Node10 -->
<g id="edge10" class="edge">
<title>Node7&#45;&gt;Node10</title>
<path fill="none" stroke="midnightblue" d="M270.09,-168.08C277.66,-160.22 288.88,-148.57 298.01,-139.08"/>
<polygon fill="midnightblue" stroke="midnightblue" points="300.66,-141.38 305.07,-131.75 295.62,-136.53 300.66,-141.38"/>
</g>
<!-- Node17 -->
<g id="node17" class="node">
<title>Node17</title>
<g id="a_node17"><a xlink:href="../../d6/dcd/diagnostic_8h.html" target="_top" xlink:title=" ">
<polygon fill="white" stroke="black" points="60,-112.5 60,-131.5 177,-131.5 177,-112.5 60,-112.5"/>
<text text-anchor="middle" x="118.5" y="-119.5" font-family="Helvetica,sans-Serif" font-size="10.00">../vmisc/diagnostic.h</text>
</a>
</g>
</g>
<!-- Node7&#45;&gt;Node17 -->
<g id="edge21" class="edge">
<title>Node7&#45;&gt;Node17</title>
<path fill="none" stroke="midnightblue" d="M238.84,-168.44C215.1,-159.48 177.59,-145.31 150.76,-135.18"/>
<polygon fill="midnightblue" stroke="midnightblue" points="151.64,-131.77 141.05,-131.52 149.17,-138.32 151.64,-131.77"/>
</g>
<!-- Node10&#45;&gt;Node3 -->
<g id="edge11" class="edge">
<title>Node10&#45;&gt;Node3</title>
<path fill="none" stroke="midnightblue" d="M354.67,-112.86C402.29,-103.44 480.82,-87.9 533.1,-77.56"/>
<polygon fill="midnightblue" stroke="midnightblue" points="534.06,-80.94 543.19,-75.57 532.7,-74.07 534.06,-80.94"/>
</g>
<!-- Node10&#45;&gt;Node6 -->
<g id="edge13" class="edge">
<title>Node10&#45;&gt;Node6</title>
<path fill="none" stroke="midnightblue" d="M354.54,-117.13C417.16,-110.89 540.45,-97.3 654.86,-75.91"/>
<polygon fill="midnightblue" stroke="midnightblue" points="655.66,-79.32 664.84,-74.03 654.36,-72.45 655.66,-79.32"/>
</g>
<!-- Node10&#45;&gt;Node8 -->
<g id="edge14" class="edge">
<title>Node10&#45;&gt;Node8</title>
<path fill="none" stroke="midnightblue" d="M281.65,-112.44C247.1,-103.16 191.82,-88.31 153.92,-78.13"/>
<polygon fill="midnightblue" stroke="midnightblue" points="154.77,-74.73 144.2,-75.52 152.95,-81.49 154.77,-74.73"/>
</g>
<!-- Node10&#45;&gt;Node9 -->
<g id="edge16" class="edge">
<title>Node10&#45;&gt;Node9</title>
<path fill="none" stroke="midnightblue" d="M272.21,-114C225.42,-105.94 146.65,-91.98 69.21,-76.07"/>
<polygon fill="midnightblue" stroke="midnightblue" points="69.78,-72.62 59.28,-74.02 68.36,-79.47 69.78,-72.62"/>
</g>
<!-- Node11 -->
<g id="node11" class="node">
<title>Node11</title>
<g id="a_node11"><a xlink:title=" ">
<polygon fill="white" stroke="#bfbfbf" points="458.5,-56.5 458.5,-75.5 508.5,-75.5 508.5,-56.5 458.5,-56.5"/>
<text text-anchor="middle" x="483.5" y="-63.5" font-family="Helvetica,sans-Serif" font-size="10.00">QLineF</text>
</a>
</g>
</g>
<!-- Node10&#45;&gt;Node11 -->
<g id="edge12" class="edge">
<title>Node10&#45;&gt;Node11</title>
<path fill="none" stroke="midnightblue" d="M340.44,-112.44C369.67,-103.16 416.45,-88.3 448.5,-78.12"/>
<polygon fill="midnightblue" stroke="midnightblue" points="449.88,-81.35 458.35,-74.99 447.76,-74.68 449.88,-81.35"/>
</g>
<!-- Node12 -->
<g id="node12" class="node">
<title>Node12</title>
<g id="a_node12"><a xlink:title=" ">
<polygon fill="white" stroke="#bfbfbf" points="166,-56.5 166,-75.5 195,-75.5 195,-56.5 166,-56.5"/>
<text text-anchor="middle" x="180.5" y="-63.5" font-family="Helvetica,sans-Serif" font-size="10.00">Qt</text>
</a>
</g>
</g>
<!-- Node10&#45;&gt;Node12 -->
<g id="edge15" class="edge">
<title>Node10&#45;&gt;Node12</title>
<path fill="none" stroke="midnightblue" d="M292.43,-112.44C268.61,-102.77 229.89,-87.05 204.81,-76.87"/>
<polygon fill="midnightblue" stroke="midnightblue" points="205.88,-73.53 195.3,-73.01 203.25,-80.01 205.88,-73.53"/>
</g>
<!-- Node13 -->
<g id="node13" class="node">
<title>Node13</title>
<g id="a_node13"><a xlink:title=" ">
<polygon fill="white" stroke="#bfbfbf" points="213.5,-56.5 213.5,-75.5 269.5,-75.5 269.5,-56.5 213.5,-56.5"/>
<text text-anchor="middle" x="241.5" y="-63.5" font-family="Helvetica,sans-Serif" font-size="10.00">QPrinter</text>
</a>
</g>
</g>
<!-- Node10&#45;&gt;Node13 -->
<g id="edge17" class="edge">
<title>Node10&#45;&gt;Node13</title>
<path fill="none" stroke="midnightblue" d="M301.93,-112.32C291.08,-104.18 274.62,-91.84 261.62,-82.09"/>
<polygon fill="midnightblue" stroke="midnightblue" points="263.38,-79.03 253.28,-75.83 259.18,-84.63 263.38,-79.03"/>
</g>
<!-- Node14 -->
<g id="node14" class="node">
<title>Node14</title>
<g id="a_node14"><a xlink:title=" ">
<polygon fill="white" stroke="#bfbfbf" points="288,-56.5 288,-75.5 339,-75.5 339,-56.5 288,-56.5"/>
<text text-anchor="middle" x="313.5" y="-63.5" font-family="Helvetica,sans-Serif" font-size="10.00">csignal</text>
</a>
</g>
</g>
<!-- Node10&#45;&gt;Node14 -->
<g id="edge18" class="edge">
<title>Node10&#45;&gt;Node14</title>
<path fill="none" stroke="midnightblue" d="M313.5,-112.08C313.5,-105.01 313.5,-94.86 313.5,-85.99"/>
<polygon fill="midnightblue" stroke="midnightblue" points="317,-85.75 313.5,-75.75 310,-85.75 317,-85.75"/>
</g>
<!-- Node15 -->
<g id="node15" class="node">
<title>Node15</title>
<g id="a_node15"><a xlink:href="../../d4/d82/debugbreak_8h.html" target="_top" xlink:title=" ">
<polygon fill="white" stroke="black" points="357,-56.5 357,-75.5 440,-75.5 440,-56.5 357,-56.5"/>
<text text-anchor="middle" x="398.5" y="-63.5" font-family="Helvetica,sans-Serif" font-size="10.00">debugbreak.h</text>
</a>
</g>
</g>
<!-- Node10&#45;&gt;Node15 -->
<g id="edge19" class="edge">
<title>Node10&#45;&gt;Node15</title>
<path fill="none" stroke="midnightblue" d="M327.16,-112.32C340.42,-103.9 360.77,-90.97 376.35,-81.07"/>
<polygon fill="midnightblue" stroke="midnightblue" points="378.31,-83.97 384.88,-75.65 374.56,-78.06 378.31,-83.97"/>
</g>
<!-- Node16 -->
<g id="node16" class="node">
<title>Node16</title>
<g id="a_node16"><a xlink:title=" ">
<polygon fill="white" stroke="#bfbfbf" points="371,-0.5 371,-19.5 426,-19.5 426,-0.5 371,-0.5"/>
<text text-anchor="middle" x="398.5" y="-7.5" font-family="Helvetica,sans-Serif" font-size="10.00">signal.h</text>
</a>
</g>
</g>
<!-- Node15&#45;&gt;Node16 -->
<g id="edge20" class="edge">
<title>Node15&#45;&gt;Node16</title>
<path fill="none" stroke="midnightblue" d="M398.5,-56.08C398.5,-49.01 398.5,-38.86 398.5,-29.99"/>
<polygon fill="midnightblue" stroke="midnightblue" points="402,-29.75 398.5,-19.75 395,-29.75 402,-29.75"/>
</g>
<!-- Node17&#45;&gt;Node9 -->
<g id="edge22" class="edge">
<title>Node17&#45;&gt;Node9</title>
<path fill="none" stroke="midnightblue" d="M104.2,-112.32C90.32,-103.9 69.01,-90.97 52.7,-81.07"/>
<polygon fill="midnightblue" stroke="midnightblue" points="54.13,-77.85 43.76,-75.65 50.5,-83.83 54.13,-77.85"/>
</g>
</g>
</svg>
