<?xml version="1.0" encoding="UTF-8" standalone="no"?>
<!DOCTYPE svg PUBLIC "-//W3C//DTD SVG 1.1//EN"
 "http://www.w3.org/Graphics/SVG/1.1/DTD/svg11.dtd">
<!-- Generated by graphviz version 2.43.0 (0)
 -->
<!-- Title: src/libs/xerces&#45;c/macx/include/xercesc/framework/XMLValidator.hpp Pages: 1 -->
<svg width="370pt" height="117pt"
 viewBox="0.00 0.00 369.50 117.00" xmlns="http://www.w3.org/2000/svg" xmlns:xlink="http://www.w3.org/1999/xlink">
<g id="graph0" class="graph" transform="scale(1 1) rotate(0) translate(4 113)">
<title>src/libs/xerces&#45;c/macx/include/xercesc/framework/XMLValidator.hpp</title>
<polygon fill="white" stroke="transparent" points="-4,4 -4,-113 365.5,-113 365.5,4 -4,4"/>
<!-- Node1 -->
<g id="node1" class="node">
<title>Node1</title>
<g id="a_node1"><a xlink:title=" ">
<polygon fill="#bfbfbf" stroke="black" points="106,-67.5 106,-108.5 257,-108.5 257,-67.5 106,-67.5"/>
<text text-anchor="start" x="114" y="-96.5" font-family="Helvetica,sans-Serif" font-size="10.00">src/libs/xerces&#45;c/macx</text>
<text text-anchor="start" x="114" y="-85.5" font-family="Helvetica,sans-Serif" font-size="10.00">/include/xercesc/framework</text>
<text text-anchor="middle" x="181.5" y="-74.5" font-family="Helvetica,sans-Serif" font-size="10.00">/XMLValidator.hpp</text>
</a>
</g>
</g>
<!-- Node2 -->
<g id="node2" class="node">
<title>Node2</title>
<g id="a_node2"><a xlink:title=" ">
<polygon fill="white" stroke="#bfbfbf" points="0,-6 0,-25 173,-25 173,-6 0,-6"/>
<text text-anchor="middle" x="86.5" y="-13" font-family="Helvetica,sans-Serif" font-size="10.00">xercesc/framework/XMLAttr.hpp</text>
</a>
</g>
</g>
<!-- Node1&#45;&gt;Node2 -->
<g id="edge1" class="edge">
<title>Node1&#45;&gt;Node2</title>
<path fill="none" stroke="midnightblue" d="M155.04,-67.36C139.58,-55.89 120.4,-41.65 106.26,-31.16"/>
<polygon fill="midnightblue" stroke="midnightblue" points="108.3,-28.32 98.19,-25.17 104.13,-33.94 108.3,-28.32"/>
</g>
<!-- Node3 -->
<g id="node3" class="node">
<title>Node3</title>
<g id="a_node3"><a xlink:title=" ">
<polygon fill="white" stroke="#bfbfbf" points="191.5,-0.5 191.5,-30.5 361.5,-30.5 361.5,-0.5 191.5,-0.5"/>
<text text-anchor="start" x="199.5" y="-18.5" font-family="Helvetica,sans-Serif" font-size="10.00">xercesc/framework/XMLValidity</text>
<text text-anchor="middle" x="276.5" y="-7.5" font-family="Helvetica,sans-Serif" font-size="10.00">Codes.hpp</text>
</a>
</g>
</g>
<!-- Node1&#45;&gt;Node3 -->
<g id="edge2" class="edge">
<title>Node1&#45;&gt;Node3</title>
<path fill="none" stroke="midnightblue" d="M207.96,-67.36C220.84,-57.8 236.31,-46.33 249.29,-36.69"/>
<polygon fill="midnightblue" stroke="midnightblue" points="251.46,-39.44 257.41,-30.67 247.29,-33.82 251.46,-39.44"/>
</g>
</g>
</svg>
