<?xml version="1.0" encoding="UTF-8" standalone="no"?>
<!DOCTYPE svg PUBLIC "-//W3C//DTD SVG 1.1//EN"
 "http://www.w3.org/Graphics/SVG/1.1/DTD/svg11.dtd">
<!-- Generated by graphviz version 2.43.0 (0)
 -->
<!-- Title: VisToolCubicBezier Pages: 1 -->
<svg width="739pt" height="1328pt"
 viewBox="0.00 0.00 739.00 1328.00" xmlns="http://www.w3.org/2000/svg" xmlns:xlink="http://www.w3.org/1999/xlink">
<g id="graph0" class="graph" transform="scale(1 1) rotate(0) translate(4 1324)">
<title>VisToolCubicBezier</title>
<polygon fill="white" stroke="transparent" points="-4,4 -4,-1324 735,-1324 735,4 -4,4"/>
<!-- Node1 -->
<g id="node1" class="node">
<title>Node1</title>
<g id="a_node1"><a xlink:title=" ">
<polygon fill="#bfbfbf" stroke="black" points="474,-0.5 474,-145.5 610,-145.5 610,-0.5 474,-0.5"/>
<text text-anchor="middle" x="542" y="-133.5" font-family="Helvetica,sans-Serif" font-size="10.00">VisToolCubicBezier</text>
<polyline fill="none" stroke="black" points="474,-126.5 610,-126.5 "/>
<text text-anchor="start" x="482" y="-114.5" font-family="Helvetica,sans-Serif" font-size="10.00"># object2Id</text>
<text text-anchor="start" x="482" y="-103.5" font-family="Helvetica,sans-Serif" font-size="10.00"># object3Id</text>
<text text-anchor="start" x="482" y="-92.5" font-family="Helvetica,sans-Serif" font-size="10.00"># object4Id</text>
<polyline fill="none" stroke="black" points="474,-85.5 610,-85.5 "/>
<text text-anchor="start" x="482" y="-73.5" font-family="Helvetica,sans-Serif" font-size="10.00">+ VisToolCubicBezier()</text>
<text text-anchor="start" x="482" y="-62.5" font-family="Helvetica,sans-Serif" font-size="10.00">+ ~VisToolCubicBezier()</text>
<text text-anchor="start" x="482" y="-51.5" font-family="Helvetica,sans-Serif" font-size="10.00">+ RefreshGeometry()</text>
<text text-anchor="start" x="482" y="-40.5" font-family="Helvetica,sans-Serif" font-size="10.00">+ setObject2Id()</text>
<text text-anchor="start" x="482" y="-29.5" font-family="Helvetica,sans-Serif" font-size="10.00">+ setObject3Id()</text>
<text text-anchor="start" x="482" y="-18.5" font-family="Helvetica,sans-Serif" font-size="10.00">+ setObject4Id()</text>
<text text-anchor="start" x="482" y="-7.5" font-family="Helvetica,sans-Serif" font-size="10.00">+ type()</text>
</a>
</g>
</g>
<!-- Node2 -->
<g id="node2" class="node">
<title>Node2</title>
<g id="a_node2"><a xlink:href="../../db/d76/classVisPath.html" target="_top" xlink:title=" ">
<polygon fill="white" stroke="black" points="349.5,-232 349.5,-344 446.5,-344 446.5,-232 349.5,-232"/>
<text text-anchor="middle" x="398" y="-332" font-family="Helvetica,sans-Serif" font-size="10.00">VisPath</text>
<polyline fill="none" stroke="black" points="349.5,-325 446.5,-325 "/>
<text text-anchor="middle" x="398" y="-313" font-family="Helvetica,sans-Serif" font-size="10.00"> </text>
<polyline fill="none" stroke="black" points="349.5,-306 446.5,-306 "/>
<text text-anchor="start" x="357.5" y="-294" font-family="Helvetica,sans-Serif" font-size="10.00">+ VisPath()</text>
<text text-anchor="start" x="357.5" y="-283" font-family="Helvetica,sans-Serif" font-size="10.00">+ ~VisPath()</text>
<text text-anchor="start" x="357.5" y="-272" font-family="Helvetica,sans-Serif" font-size="10.00">+ type()</text>
<text text-anchor="start" x="357.5" y="-261" font-family="Helvetica,sans-Serif" font-size="10.00"># initPen()</text>
<text text-anchor="start" x="357.5" y="-250" font-family="Helvetica,sans-Serif" font-size="10.00"># AddOnScene()</text>
<text text-anchor="start" x="357.5" y="-239" font-family="Helvetica,sans-Serif" font-size="10.00"># GetPoint()</text>
</a>
</g>
</g>
<!-- Node2&#45;&gt;Node1 -->
<g id="edge1" class="edge">
<title>Node2&#45;&gt;Node1</title>
<path fill="none" stroke="midnightblue" d="M441,-223.39C457.52,-198.96 476.48,-170.92 493.48,-145.77"/>
<polygon fill="none" stroke="midnightblue" points="437.97,-221.63 435.27,-231.87 443.77,-225.55 437.97,-221.63"/>
</g>
<!-- Node3 -->
<g id="node3" class="node">
<title>Node3</title>
<g id="a_node3"><a xlink:href="../../d7/d24/classVisualization.html" target="_top" xlink:title=" ">
<polygon fill="white" stroke="black" points="103,-387.5 103,-840.5 225,-840.5 225,-387.5 103,-387.5"/>
<text text-anchor="middle" x="164" y="-828.5" font-family="Helvetica,sans-Serif" font-size="10.00">Visualization</text>
<polyline fill="none" stroke="black" points="103,-821.5 225,-821.5 "/>
<text text-anchor="start" x="111" y="-809.5" font-family="Helvetica,sans-Serif" font-size="10.00"># scenePos</text>
<text text-anchor="start" x="111" y="-798.5" font-family="Helvetica,sans-Serif" font-size="10.00"># mainColor</text>
<text text-anchor="start" x="111" y="-787.5" font-family="Helvetica,sans-Serif" font-size="10.00"># supportColor</text>
<text text-anchor="start" x="111" y="-776.5" font-family="Helvetica,sans-Serif" font-size="10.00"># lineStyle</text>
<text text-anchor="start" x="111" y="-765.5" font-family="Helvetica,sans-Serif" font-size="10.00"># lineWeight</text>
<text text-anchor="start" x="111" y="-754.5" font-family="Helvetica,sans-Serif" font-size="10.00"># object1Id</text>
<text text-anchor="start" x="111" y="-743.5" font-family="Helvetica,sans-Serif" font-size="10.00"># toolTip</text>
<text text-anchor="start" x="111" y="-732.5" font-family="Helvetica,sans-Serif" font-size="10.00"># mode</text>
<polyline fill="none" stroke="black" points="103,-725.5 225,-725.5 "/>
<text text-anchor="start" x="111" y="-713.5" font-family="Helvetica,sans-Serif" font-size="10.00">+ Visualization()</text>
<text text-anchor="start" x="111" y="-702.5" font-family="Helvetica,sans-Serif" font-size="10.00">+ ~Visualization()</text>
<text text-anchor="start" x="111" y="-691.5" font-family="Helvetica,sans-Serif" font-size="10.00">+ RefreshGeometry()</text>
<text text-anchor="start" x="111" y="-680.5" font-family="Helvetica,sans-Serif" font-size="10.00">+ setObject1Id()</text>
<text text-anchor="start" x="111" y="-669.5" font-family="Helvetica,sans-Serif" font-size="10.00">+ setLineStyle()</text>
<text text-anchor="start" x="111" y="-658.5" font-family="Helvetica,sans-Serif" font-size="10.00">+ setLineWeight()</text>
<text text-anchor="start" x="111" y="-647.5" font-family="Helvetica,sans-Serif" font-size="10.00">+ setScenePos()</text>
<text text-anchor="start" x="111" y="-636.5" font-family="Helvetica,sans-Serif" font-size="10.00">+ VisualMode()</text>
<text text-anchor="start" x="111" y="-625.5" font-family="Helvetica,sans-Serif" font-size="10.00">+ setMainColor()</text>
<text text-anchor="start" x="111" y="-614.5" font-family="Helvetica,sans-Serif" font-size="10.00">+ getData()</text>
<text text-anchor="start" x="111" y="-603.5" font-family="Helvetica,sans-Serif" font-size="10.00">+ setData()</text>
<text text-anchor="start" x="111" y="-592.5" font-family="Helvetica,sans-Serif" font-size="10.00">+ GetMode()</text>
<text text-anchor="start" x="111" y="-581.5" font-family="Helvetica,sans-Serif" font-size="10.00">+ SetMode()</text>
<text text-anchor="start" x="111" y="-570.5" font-family="Helvetica,sans-Serif" font-size="10.00">+ CurrentToolTip()</text>
<text text-anchor="start" x="111" y="-559.5" font-family="Helvetica,sans-Serif" font-size="10.00">+ FindLength()</text>
<text text-anchor="start" x="111" y="-548.5" font-family="Helvetica,sans-Serif" font-size="10.00">+ FindVal()</text>
<text text-anchor="start" x="111" y="-537.5" font-family="Helvetica,sans-Serif" font-size="10.00">+ mousePos()</text>
<text text-anchor="start" x="111" y="-526.5" font-family="Helvetica,sans-Serif" font-size="10.00"># initPen()</text>
<text text-anchor="start" x="111" y="-515.5" font-family="Helvetica,sans-Serif" font-size="10.00"># AddOnScene()</text>
<text text-anchor="start" x="111" y="-504.5" font-family="Helvetica,sans-Serif" font-size="10.00"># InitPoint()</text>
<text text-anchor="start" x="111" y="-493.5" font-family="Helvetica,sans-Serif" font-size="10.00"># DrawPoint()</text>
<text text-anchor="start" x="111" y="-482.5" font-family="Helvetica,sans-Serif" font-size="10.00"># DrawLine()</text>
<text text-anchor="start" x="111" y="-471.5" font-family="Helvetica,sans-Serif" font-size="10.00"># DrawPath()</text>
<text text-anchor="start" x="111" y="-460.5" font-family="Helvetica,sans-Serif" font-size="10.00"># DrawPath()</text>
<text text-anchor="start" x="111" y="-449.5" font-family="Helvetica,sans-Serif" font-size="10.00"># drawArrowedLine()</text>
<text text-anchor="start" x="111" y="-438.5" font-family="Helvetica,sans-Serif" font-size="10.00"># drawArrow()</text>
<text text-anchor="start" x="111" y="-427.5" font-family="Helvetica,sans-Serif" font-size="10.00"># addItem()</text>
<text text-anchor="start" x="111" y="-416.5" font-family="Helvetica,sans-Serif" font-size="10.00"># InitItem()</text>
<text text-anchor="start" x="111" y="-405.5" font-family="Helvetica,sans-Serif" font-size="10.00"># GetPointItem()</text>
<text text-anchor="start" x="111" y="-394.5" font-family="Helvetica,sans-Serif" font-size="10.00">&#45; initPointItem()</text>
</a>
</g>
</g>
<!-- Node3&#45;&gt;Node2 -->
<g id="edge2" class="edge">
<title>Node3&#45;&gt;Node2</title>
<path fill="none" stroke="midnightblue" d="M230.91,-517.11C259.33,-476.74 293.01,-429.38 324,-387 334.19,-373.06 345.34,-358.13 355.83,-344.23"/>
<polygon fill="none" stroke="midnightblue" points="228,-515.16 225.11,-525.35 233.73,-519.19 228,-515.16"/>
</g>
<!-- Node4 -->
<g id="node4" class="node">
<title>Node4</title>
<g id="a_node4"><a xlink:title=" ">
<polygon fill="white" stroke="#bfbfbf" points="0,-1075.5 0,-1132.5 56,-1132.5 56,-1075.5 0,-1075.5"/>
<text text-anchor="middle" x="28" y="-1120.5" font-family="Helvetica,sans-Serif" font-size="10.00">QObject</text>
<polyline fill="none" stroke="#bfbfbf" points="0,-1113.5 56,-1113.5 "/>
<text text-anchor="middle" x="28" y="-1101.5" font-family="Helvetica,sans-Serif" font-size="10.00"> </text>
<polyline fill="none" stroke="#bfbfbf" points="0,-1094.5 56,-1094.5 "/>
<text text-anchor="middle" x="28" y="-1082.5" font-family="Helvetica,sans-Serif" font-size="10.00"> </text>
</a>
</g>
</g>
<!-- Node4&#45;&gt;Node3 -->
<g id="edge3" class="edge">
<title>Node4&#45;&gt;Node3</title>
<path fill="none" stroke="midnightblue" d="M32.45,-1065.09C38.02,-1021.79 48.82,-949.05 65,-888 75.4,-848.77 89.05,-807.22 102.87,-768.68"/>
<polygon fill="none" stroke="midnightblue" points="28.96,-1064.81 31.18,-1075.17 35.91,-1065.69 28.96,-1064.81"/>
</g>
<!-- Node5 -->
<g id="node5" class="node">
<title>Node5</title>
<g id="a_node5"><a xlink:href="../../d2/d83/classVContainer.html" target="_top" xlink:title="The VContainer class container of all variables.">
<polygon fill="white" stroke="black" points="74.5,-888.5 74.5,-1319.5 253.5,-1319.5 253.5,-888.5 74.5,-888.5"/>
<text text-anchor="middle" x="164" y="-1307.5" font-family="Helvetica,sans-Serif" font-size="10.00">VContainer</text>
<polyline fill="none" stroke="black" points="74.5,-1300.5 253.5,-1300.5 "/>
<text text-anchor="start" x="82.5" y="-1288.5" font-family="Helvetica,sans-Serif" font-size="10.00">&#45; d</text>
<text text-anchor="start" x="82.5" y="-1277.5" font-family="Helvetica,sans-Serif" font-size="10.00">&#45; _id</text>
<text text-anchor="start" x="82.5" y="-1266.5" font-family="Helvetica,sans-Serif" font-size="10.00">&#45; _size</text>
<text text-anchor="start" x="82.5" y="-1255.5" font-family="Helvetica,sans-Serif" font-size="10.00">&#45; _height</text>
<text text-anchor="start" x="82.5" y="-1244.5" font-family="Helvetica,sans-Serif" font-size="10.00">&#45; uniqueNames</text>
<polyline fill="none" stroke="black" points="74.5,-1237.5 253.5,-1237.5 "/>
<text text-anchor="start" x="82.5" y="-1225.5" font-family="Helvetica,sans-Serif" font-size="10.00">+ VContainer()</text>
<text text-anchor="start" x="82.5" y="-1214.5" font-family="Helvetica,sans-Serif" font-size="10.00">+ VContainer()</text>
<text text-anchor="start" x="82.5" y="-1203.5" font-family="Helvetica,sans-Serif" font-size="10.00">+ ~VContainer()</text>
<text text-anchor="start" x="82.5" y="-1192.5" font-family="Helvetica,sans-Serif" font-size="10.00">+ operator=()</text>
<text text-anchor="start" x="82.5" y="-1181.5" font-family="Helvetica,sans-Serif" font-size="10.00">+ Swap()</text>
<text text-anchor="start" x="82.5" y="-1170.5" font-family="Helvetica,sans-Serif" font-size="10.00">+ GeometricObject()</text>
<text text-anchor="start" x="82.5" y="-1159.5" font-family="Helvetica,sans-Serif" font-size="10.00">+ GetGObject()</text>
<text text-anchor="start" x="82.5" y="-1148.5" font-family="Helvetica,sans-Serif" font-size="10.00">+ GetPiece()</text>
<text text-anchor="start" x="82.5" y="-1137.5" font-family="Helvetica,sans-Serif" font-size="10.00">+ GetPiecePath()</text>
<text text-anchor="start" x="82.5" y="-1126.5" font-family="Helvetica,sans-Serif" font-size="10.00">+ GetVariable()</text>
<text text-anchor="start" x="82.5" y="-1115.5" font-family="Helvetica,sans-Serif" font-size="10.00">and 34 more...</text>
<text text-anchor="start" x="82.5" y="-1104.5" font-family="Helvetica,sans-Serif" font-size="10.00">+ GetFakeGObject()</text>
<text text-anchor="start" x="82.5" y="-1093.5" font-family="Helvetica,sans-Serif" font-size="10.00">+ getId()</text>
<text text-anchor="start" x="82.5" y="-1082.5" font-family="Helvetica,sans-Serif" font-size="10.00">+ getNextId()</text>
<text text-anchor="start" x="82.5" y="-1071.5" font-family="Helvetica,sans-Serif" font-size="10.00">+ UpdateId()</text>
<text text-anchor="start" x="82.5" y="-1060.5" font-family="Helvetica,sans-Serif" font-size="10.00">+ ClearUniqueNames()</text>
<text text-anchor="start" x="82.5" y="-1049.5" font-family="Helvetica,sans-Serif" font-size="10.00">+ ClearUniqueIncrementNames()</text>
<text text-anchor="start" x="82.5" y="-1038.5" font-family="Helvetica,sans-Serif" font-size="10.00">+ SetSize()</text>
<text text-anchor="start" x="82.5" y="-1027.5" font-family="Helvetica,sans-Serif" font-size="10.00">+ SetHeight()</text>
<text text-anchor="start" x="82.5" y="-1016.5" font-family="Helvetica,sans-Serif" font-size="10.00">+ size()</text>
<text text-anchor="start" x="82.5" y="-1005.5" font-family="Helvetica,sans-Serif" font-size="10.00">+ rsize()</text>
<text text-anchor="start" x="82.5" y="-994.5" font-family="Helvetica,sans-Serif" font-size="10.00">+ height()</text>
<text text-anchor="start" x="82.5" y="-983.5" font-family="Helvetica,sans-Serif" font-size="10.00">+ rheight()</text>
<text text-anchor="start" x="82.5" y="-972.5" font-family="Helvetica,sans-Serif" font-size="10.00">+ IsUnique()</text>
<text text-anchor="start" x="82.5" y="-961.5" font-family="Helvetica,sans-Serif" font-size="10.00">+ AllUniqueNames()</text>
<text text-anchor="start" x="82.5" y="-950.5" font-family="Helvetica,sans-Serif" font-size="10.00">&#45; AddCurve()</text>
<text text-anchor="start" x="82.5" y="-939.5" font-family="Helvetica,sans-Serif" font-size="10.00">&#45; qHash()</text>
<text text-anchor="start" x="82.5" y="-928.5" font-family="Helvetica,sans-Serif" font-size="10.00">&#45; GetObject()</text>
<text text-anchor="start" x="82.5" y="-917.5" font-family="Helvetica,sans-Serif" font-size="10.00">&#45; UpdateObject()</text>
<text text-anchor="start" x="82.5" y="-906.5" font-family="Helvetica,sans-Serif" font-size="10.00">&#45; DataVar()</text>
<text text-anchor="start" x="82.5" y="-895.5" font-family="Helvetica,sans-Serif" font-size="10.00">&#45; AddObject()</text>
</a>
</g>
</g>
<!-- Node5&#45;&gt;Node3 -->
<g id="edge4" class="edge">
<title>Node5&#45;&gt;Node3</title>
<path fill="none" stroke="#404040" d="M164,-888.25C164,-876.57 164,-864.81 164,-853.07"/>
<polygon fill="none" stroke="#404040" points="164,-852.84 160,-846.84 164,-840.84 168,-846.84 164,-852.84"/>
<text text-anchor="middle" x="181" y="-862" font-family="Helvetica,sans-Serif" font-size="10.00"> #data</text>
</g>
<!-- Node6 -->
<g id="node6" class="node">
<title>Node6</title>
<g id="a_node6"><a xlink:href="../../d3/d85/classVCurvePathItem.html" target="_top" xlink:title=" ">
<polygon fill="white" stroke="black" points="333.5,-547 333.5,-681 462.5,-681 462.5,-547 333.5,-547"/>
<text text-anchor="middle" x="398" y="-669" font-family="Helvetica,sans-Serif" font-size="10.00">VCurvePathItem</text>
<polyline fill="none" stroke="black" points="333.5,-662 462.5,-662 "/>
<text text-anchor="middle" x="398" y="-650" font-family="Helvetica,sans-Serif" font-size="10.00"> </text>
<polyline fill="none" stroke="black" points="333.5,-643 462.5,-643 "/>
<text text-anchor="start" x="341.5" y="-631" font-family="Helvetica,sans-Serif" font-size="10.00">+ VCurvePathItem()</text>
<text text-anchor="start" x="341.5" y="-620" font-family="Helvetica,sans-Serif" font-size="10.00">+ ~VCurvePathItem()</text>
<text text-anchor="start" x="341.5" y="-609" font-family="Helvetica,sans-Serif" font-size="10.00">+ shape()</text>
<text text-anchor="start" x="341.5" y="-598" font-family="Helvetica,sans-Serif" font-size="10.00">+ paint()</text>
<text text-anchor="start" x="341.5" y="-587" font-family="Helvetica,sans-Serif" font-size="10.00">+ type()</text>
<text text-anchor="start" x="341.5" y="-576" font-family="Helvetica,sans-Serif" font-size="10.00">+ SetDirectionArrows()</text>
<text text-anchor="start" x="341.5" y="-565" font-family="Helvetica,sans-Serif" font-size="10.00">+ SetPoints()</text>
<text text-anchor="start" x="341.5" y="-554" font-family="Helvetica,sans-Serif" font-size="10.00"># ScalePenWidth()</text>
</a>
</g>
</g>
<!-- Node6&#45;&gt;Node2 -->
<g id="edge5" class="edge">
<title>Node6&#45;&gt;Node2</title>
<path fill="none" stroke="midnightblue" d="M398,-536.62C398,-477.55 398,-397.17 398,-344.22"/>
<polygon fill="none" stroke="midnightblue" points="394.5,-536.65 398,-546.65 401.5,-536.65 394.5,-536.65"/>
</g>
<!-- Node7 -->
<g id="node7" class="node">
<title>Node7</title>
<g id="a_node7"><a xlink:title=" ">
<polygon fill="white" stroke="#bfbfbf" points="272,-1075.5 272,-1132.5 382,-1132.5 382,-1075.5 272,-1075.5"/>
<text text-anchor="middle" x="327" y="-1120.5" font-family="Helvetica,sans-Serif" font-size="10.00">QGraphicsPathItem</text>
<polyline fill="none" stroke="#bfbfbf" points="272,-1113.5 382,-1113.5 "/>
<text text-anchor="middle" x="327" y="-1101.5" font-family="Helvetica,sans-Serif" font-size="10.00"> </text>
<polyline fill="none" stroke="#bfbfbf" points="272,-1094.5 382,-1094.5 "/>
<text text-anchor="middle" x="327" y="-1082.5" font-family="Helvetica,sans-Serif" font-size="10.00"> </text>
</a>
</g>
</g>
<!-- Node7&#45;&gt;Node6 -->
<g id="edge6" class="edge">
<title>Node7&#45;&gt;Node6</title>
<path fill="none" stroke="midnightblue" d="M332.47,-1065.43C344.46,-982.97 373.24,-785.19 388.35,-681.3"/>
<polygon fill="none" stroke="midnightblue" points="329,-1064.97 331.02,-1075.36 335.92,-1065.97 329,-1064.97"/>
</g>
<!-- Node8 -->
<g id="node8" class="node">
<title>Node8</title>
<g id="a_node8"><a xlink:href="../../d5/dc2/classQVector.html" target="_top" xlink:title=" ">
<polygon fill="white" stroke="black" points="400,-1070 400,-1138 540,-1138 540,-1070 400,-1070"/>
<text text-anchor="start" x="408" y="-1126" font-family="Helvetica,sans-Serif" font-size="10.00">QVector&lt; QPair&lt; QLineF,</text>
<text text-anchor="middle" x="470" y="-1115" font-family="Helvetica,sans-Serif" font-size="10.00"> QLineF &gt; &gt;</text>
<polyline fill="none" stroke="black" points="400,-1108 540,-1108 "/>
<text text-anchor="middle" x="470" y="-1096" font-family="Helvetica,sans-Serif" font-size="10.00"> </text>
<polyline fill="none" stroke="black" points="400,-1089 540,-1089 "/>
<text text-anchor="middle" x="470" y="-1077" font-family="Helvetica,sans-Serif" font-size="10.00"> </text>
</a>
</g>
</g>
<!-- Node8&#45;&gt;Node6 -->
<g id="edge7" class="edge">
<title>Node8&#45;&gt;Node6</title>
<path fill="none" stroke="#404040" d="M465.11,-1069.84C453.8,-993.21 425.6,-802.09 409.59,-693.55"/>
<polygon fill="none" stroke="#404040" points="409.55,-693.25 404.71,-687.9 407.79,-681.38 412.63,-686.73 409.55,-693.25"/>
<text text-anchor="middle" x="483.5" y="-862" font-family="Helvetica,sans-Serif" font-size="10.00"> &#45;m_directionArrows</text>
</g>
<!-- Node9 -->
<g id="node9" class="node">
<title>Node9</title>
<g id="a_node9"><a xlink:href="../../d5/dc2/classQVector.html" target="_top" xlink:title=" ">
<polygon fill="white" stroke="black" points="558,-1075.5 558,-1132.5 674,-1132.5 674,-1075.5 558,-1075.5"/>
<text text-anchor="middle" x="616" y="-1120.5" font-family="Helvetica,sans-Serif" font-size="10.00">QVector&lt; QPointF &gt;</text>
<polyline fill="none" stroke="black" points="558,-1113.5 674,-1113.5 "/>
<text text-anchor="middle" x="616" y="-1101.5" font-family="Helvetica,sans-Serif" font-size="10.00"> </text>
<polyline fill="none" stroke="black" points="558,-1094.5 674,-1094.5 "/>
<text text-anchor="middle" x="616" y="-1082.5" font-family="Helvetica,sans-Serif" font-size="10.00"> </text>
</a>
</g>
</g>
<!-- Node9&#45;&gt;Node6 -->
<g id="edge8" class="edge">
<title>Node9&#45;&gt;Node6</title>
<path fill="none" stroke="#404040" d="M608.22,-1075.24C596.47,-1034.03 573.01,-954.36 549,-888 544.25,-874.88 547.45,-868.24 537,-859 514.55,-839.14 493.68,-861.7 472,-841 431.74,-802.56 413.36,-741.93 404.98,-693.13"/>
<polygon fill="none" stroke="#404040" points="404.94,-692.86 400.05,-687.56 403.06,-681.01 407.95,-686.31 404.94,-692.86"/>
<text text-anchor="middle" x="571" y="-862" font-family="Helvetica,sans-Serif" font-size="10.00"> &#45;m_points</text>
</g>
<!-- Node10 -->
<g id="node10" class="node">
<title>Node10</title>
<g id="a_node10"><a xlink:href="../../d8/dbf/classVScaledEllipse.html" target="_top" xlink:title=" ">
<polygon fill="white" stroke="black" points="484.5,-243 484.5,-333 599.5,-333 599.5,-243 484.5,-243"/>
<text text-anchor="middle" x="542" y="-321" font-family="Helvetica,sans-Serif" font-size="10.00">VScaledEllipse</text>
<polyline fill="none" stroke="black" points="484.5,-314 599.5,-314 "/>
<text text-anchor="middle" x="542" y="-302" font-family="Helvetica,sans-Serif" font-size="10.00"> </text>
<polyline fill="none" stroke="black" points="484.5,-295 599.5,-295 "/>
<text text-anchor="start" x="492.5" y="-283" font-family="Helvetica,sans-Serif" font-size="10.00">+ VScaledEllipse()</text>
<text text-anchor="start" x="492.5" y="-272" font-family="Helvetica,sans-Serif" font-size="10.00">+ ~VScaledEllipse()</text>
<text text-anchor="start" x="492.5" y="-261" font-family="Helvetica,sans-Serif" font-size="10.00">+ type()</text>
<text text-anchor="start" x="492.5" y="-250" font-family="Helvetica,sans-Serif" font-size="10.00">+ paint()</text>
</a>
</g>
</g>
<!-- Node10&#45;&gt;Node1 -->
<g id="edge9" class="edge">
<title>Node10&#45;&gt;Node1</title>
<path fill="none" stroke="#404040" d="M542,-242.87C542,-218.34 542,-187.01 542,-158.01"/>
<polygon fill="none" stroke="#404040" points="542,-157.75 538,-151.75 542,-145.75 546,-151.75 542,-157.75"/>
<text text-anchor="middle" x="563.5" y="-200" font-family="Helvetica,sans-Serif" font-size="10.00"> #point1</text>
<text text-anchor="middle" x="563.5" y="-189" font-family="Helvetica,sans-Serif" font-size="10.00">#point2</text>
<text text-anchor="middle" x="563.5" y="-178" font-family="Helvetica,sans-Serif" font-size="10.00">#point3</text>
<text text-anchor="middle" x="563.5" y="-167" font-family="Helvetica,sans-Serif" font-size="10.00">#point4</text>
</g>
<!-- Node11 -->
<g id="node11" class="node">
<title>Node11</title>
<g id="a_node11"><a xlink:title=" ">
<polygon fill="white" stroke="#bfbfbf" points="481,-585.5 481,-642.5 603,-642.5 603,-585.5 481,-585.5"/>
<text text-anchor="middle" x="542" y="-630.5" font-family="Helvetica,sans-Serif" font-size="10.00">QGraphicsEllipseItem</text>
<polyline fill="none" stroke="#bfbfbf" points="481,-623.5 603,-623.5 "/>
<text text-anchor="middle" x="542" y="-611.5" font-family="Helvetica,sans-Serif" font-size="10.00"> </text>
<polyline fill="none" stroke="#bfbfbf" points="481,-604.5 603,-604.5 "/>
<text text-anchor="middle" x="542" y="-592.5" font-family="Helvetica,sans-Serif" font-size="10.00"> </text>
</a>
</g>
</g>
<!-- Node11&#45;&gt;Node10 -->
<g id="edge10" class="edge">
<title>Node11&#45;&gt;Node10</title>
<path fill="none" stroke="midnightblue" d="M542,-575.15C542,-514.81 542,-397.09 542,-333.06"/>
<polygon fill="none" stroke="midnightblue" points="538.5,-575.38 542,-585.38 545.5,-575.38 538.5,-575.38"/>
</g>
<!-- Node12 -->
<g id="node12" class="node">
<title>Node12</title>
<g id="a_node12"><a xlink:href="../../dd/da2/classVScaledLine.html" target="_top" xlink:title=" ">
<polygon fill="white" stroke="black" points="620.5,-226.5 620.5,-349.5 727.5,-349.5 727.5,-226.5 620.5,-226.5"/>
<text text-anchor="middle" x="674" y="-337.5" font-family="Helvetica,sans-Serif" font-size="10.00">VScaledLine</text>
<polyline fill="none" stroke="black" points="620.5,-330.5 727.5,-330.5 "/>
<text text-anchor="start" x="628.5" y="-318.5" font-family="Helvetica,sans-Serif" font-size="10.00">&#45; basicWidth</text>
<polyline fill="none" stroke="black" points="620.5,-311.5 727.5,-311.5 "/>
<text text-anchor="start" x="628.5" y="-299.5" font-family="Helvetica,sans-Serif" font-size="10.00">+ VScaledLine()</text>
<text text-anchor="start" x="628.5" y="-288.5" font-family="Helvetica,sans-Serif" font-size="10.00">+ VScaledLine()</text>
<text text-anchor="start" x="628.5" y="-277.5" font-family="Helvetica,sans-Serif" font-size="10.00">+ ~VScaledLine()</text>
<text text-anchor="start" x="628.5" y="-266.5" font-family="Helvetica,sans-Serif" font-size="10.00">+ type()</text>
<text text-anchor="start" x="628.5" y="-255.5" font-family="Helvetica,sans-Serif" font-size="10.00">+ paint()</text>
<text text-anchor="start" x="628.5" y="-244.5" font-family="Helvetica,sans-Serif" font-size="10.00">+ GetBasicWidth()</text>
<text text-anchor="start" x="628.5" y="-233.5" font-family="Helvetica,sans-Serif" font-size="10.00">+ setBasicWidth()</text>
</a>
</g>
</g>
<!-- Node12&#45;&gt;Node1 -->
<g id="edge11" class="edge">
<title>Node12&#45;&gt;Node1</title>
<path fill="none" stroke="#404040" d="M636.35,-226.25C622.81,-204.4 607.3,-179.37 592.82,-156.01"/>
<polygon fill="none" stroke="#404040" points="592.8,-155.97 586.24,-152.97 586.47,-145.77 593.04,-148.76 592.8,-155.97"/>
<text text-anchor="middle" x="653.5" y="-189" font-family="Helvetica,sans-Serif" font-size="10.00"> #helpLine1</text>
<text text-anchor="middle" x="653.5" y="-178" font-family="Helvetica,sans-Serif" font-size="10.00">#helpLine2</text>
</g>
<!-- Node13 -->
<g id="node13" class="node">
<title>Node13</title>
<g id="a_node13"><a xlink:title=" ">
<polygon fill="white" stroke="#bfbfbf" points="621,-585.5 621,-642.5 731,-642.5 731,-585.5 621,-585.5"/>
<text text-anchor="middle" x="676" y="-630.5" font-family="Helvetica,sans-Serif" font-size="10.00">QGraphicsLineItem</text>
<polyline fill="none" stroke="#bfbfbf" points="621,-623.5 731,-623.5 "/>
<text text-anchor="middle" x="676" y="-611.5" font-family="Helvetica,sans-Serif" font-size="10.00"> </text>
<polyline fill="none" stroke="#bfbfbf" points="621,-604.5 731,-604.5 "/>
<text text-anchor="middle" x="676" y="-592.5" font-family="Helvetica,sans-Serif" font-size="10.00"> </text>
</a>
</g>
</g>
<!-- Node13&#45;&gt;Node12 -->
<g id="edge12" class="edge">
<title>Node13&#45;&gt;Node12</title>
<path fill="none" stroke="midnightblue" d="M675.77,-575.29C675.43,-519.85 674.78,-415.79 674.37,-349.56"/>
<polygon fill="none" stroke="midnightblue" points="672.27,-575.4 675.83,-585.38 679.27,-575.35 672.27,-575.4"/>
</g>
</g>
</svg>
