<?xml version="1.0" encoding="UTF-8" standalone="no"?>
<!DOCTYPE svg PUBLIC "-//W3C//DTD SVG 1.1//EN"
 "http://www.w3.org/Graphics/SVG/1.1/DTD/svg11.dtd">
<!-- Generated by graphviz version 2.43.0 (0)
 -->
<!-- Title: src/libs/qmuparser/qmuparserdef.h Pages: 1 -->
<!--zoomable 642 -->
<svg id="main" version="1.1" xmlns="http://www.w3.org/2000/svg" xmlns:xlink="http://www.w3.org/1999/xlink" xml:space="preserve" onload="init(evt)">
<style type="text/css"><![CDATA[
.edge:hover path { stroke: red; }
.edge:hover polygon { stroke: red; fill: red; }
]]></style>
<script type="text/javascript"><![CDATA[
var edges = document.getElementsByTagName('g');
if (edges && edges.length) {
  for (var i=0;i<edges.length;i++) {
    if (edges[i].id.substr(0,4)=='edge') {
      edges[i].setAttribute('class','edge');
    }
  }
}
]]></script>
        <defs>
                <circle id="rim" cx="0" cy="0" r="7"/>
                <circle id="rim2" cx="0" cy="0" r="3.5"/>
                <g id="zoomPlus">
                        <use xlink:href="#rim" fill="#404040">
                                <set attributeName="fill" to="#808080" begin="zoomplus.mouseover" end="zoomplus.mouseout"/>
                        </use>
                        <path d="M-4,0h8M0,-4v8" fill="none" stroke="white" stroke-width="1.5" pointer-events="none"/>
                </g>
                <g id="zoomMin">
                        <use xlink:href="#rim" fill="#404040">
                                <set attributeName="fill" to="#808080" begin="zoomminus.mouseover" end="zoomminus.mouseout"/>
                        </use>
                        <path d="M-4,0h8" fill="none" stroke="white" stroke-width="1.5" pointer-events="none"/>
                </g>
                <g id="dirArrow">
                        <path fill="none" stroke="white" stroke-width="1.5" d="M0,-3.0v7 M-2.5,-0.5L0,-3.0L2.5,-0.5"/>
                </g>
               <g id="resetDef">
                       <use xlink:href="#rim2" fill="#404040">
                               <set attributeName="fill" to="#808080" begin="reset.mouseover" end="reset.mouseout"/>
                       </use>
               </g>
        </defs>

<script type="text/javascript">
var viewWidth = 1531;
var viewHeight = 642;
var sectionId = 'dynsection-1';
</script>
<script xlink:href="../../svgpan.js"/>
<svg id="graph" class="graph">
<g id="viewport">
<title>src/libs/qmuparser/qmuparserdef.h</title>
<polygon fill="white" stroke="transparent" points="-4,4 -4,-638 1527.17,-638 1527.17,4 -4,4"/>
<!-- Node1 -->
<g id="node1" class="node">
<title>Node1</title>
<g id="a_node1"><a xlink:title="This file contains standard definitions used by the parser.">
<polygon fill="#bfbfbf" stroke="black" points="401.17,-603.5 401.17,-633.5 508.17,-633.5 508.17,-603.5 401.17,-603.5"/>
<text text-anchor="start" x="409.17" y="-621.5" font-family="Helvetica,sans-Serif" font-size="10.00">src/libs/qmuparser</text>
<text text-anchor="middle" x="454.67" y="-610.5" font-family="Helvetica,sans-Serif" font-size="10.00">/qmuparserdef.h</text>
</a>
</g>
</g>
<!-- Node2 -->
<g id="node2" class="node">
<title>Node2</title>
<g id="a_node2"><a xlink:href="../../da/d59/qmuparser_8cpp.html" target="_top" xlink:title="Implementation of the standard floating point QmuParser.">
<polygon fill="white" stroke="black" points="544.17,-201.5 544.17,-231.5 651.17,-231.5 651.17,-201.5 544.17,-201.5"/>
<text text-anchor="start" x="552.17" y="-219.5" font-family="Helvetica,sans-Serif" font-size="10.00">src/libs/qmuparser</text>
<text text-anchor="middle" x="597.67" y="-208.5" font-family="Helvetica,sans-Serif" font-size="10.00">/qmuparser.cpp</text>
</a>
</g>
</g>
<!-- Node1&#45;&gt;Node2 -->
<g id="edge1" class="edge">
<title>Node1&#45;&gt;Node2</title>
<path fill="none" stroke="midnightblue" d="M502.67,-599.37C547.21,-579.06 606.67,-541.46 606.67,-485.5 606.67,-485.5 606.67,-485.5 606.67,-349.5 606.67,-306.55 601.87,-255.91 599.28,-231.74"/>
<polygon fill="midnightblue" stroke="midnightblue" points="501.16,-596.21 493.42,-603.44 503.98,-602.62 501.16,-596.21"/>
</g>
<!-- Node3 -->
<g id="node3" class="node">
<title>Node3</title>
<g id="a_node3"><a xlink:href="../../df/d18/qmuparserbase_8h.html" target="_top" xlink:title="This file contains the class definition of the qmuparser engine.">
<polygon fill="white" stroke="black" points="254.17,-335.5 254.17,-365.5 361.17,-365.5 361.17,-335.5 254.17,-335.5"/>
<text text-anchor="start" x="262.17" y="-353.5" font-family="Helvetica,sans-Serif" font-size="10.00">src/libs/qmuparser</text>
<text text-anchor="middle" x="307.67" y="-342.5" font-family="Helvetica,sans-Serif" font-size="10.00">/qmuparserbase.h</text>
</a>
</g>
</g>
<!-- Node1&#45;&gt;Node3 -->
<g id="edge2" class="edge">
<title>Node1&#45;&gt;Node3</title>
<path fill="none" stroke="midnightblue" d="M415.72,-598.56C380.78,-579.19 331.74,-545.49 309.67,-500 287.95,-455.23 297.85,-393.56 304.03,-365.92"/>
<polygon fill="midnightblue" stroke="midnightblue" points="414.25,-601.74 424.71,-603.41 417.57,-595.58 414.25,-601.74"/>
</g>
<!-- Node18 -->
<g id="node18" class="node">
<title>Node18</title>
<g id="a_node18"><a xlink:href="../../db/dfa/qmuparsertest_8h.html" target="_top" xlink:title="This file contains the parser test class.">
<polygon fill="white" stroke="black" points="1126.17,-201.5 1126.17,-231.5 1233.17,-231.5 1233.17,-201.5 1126.17,-201.5"/>
<text text-anchor="start" x="1134.17" y="-219.5" font-family="Helvetica,sans-Serif" font-size="10.00">src/libs/qmuparser</text>
<text text-anchor="middle" x="1179.67" y="-208.5" font-family="Helvetica,sans-Serif" font-size="10.00">/qmuparsertest.h</text>
</a>
</g>
</g>
<!-- Node1&#45;&gt;Node18 -->
<g id="edge52" class="edge">
<title>Node1&#45;&gt;Node18</title>
<path fill="none" stroke="midnightblue" d="M518.44,-612.41C693.51,-597.59 1168.67,-551.32 1168.67,-485.5 1168.67,-485.5 1168.67,-485.5 1168.67,-349.5 1168.67,-306.5 1174.54,-255.89 1177.71,-231.73"/>
<polygon fill="midnightblue" stroke="midnightblue" points="518.01,-608.94 508.34,-613.26 518.6,-615.91 518.01,-608.94"/>
</g>
<!-- Node22 -->
<g id="node22" class="node">
<title>Node22</title>
<g id="a_node22"><a xlink:href="../../dd/da6/qmuparserbytecode_8h.html" target="_top" xlink:title="Definition of the parser bytecode class.">
<polygon fill="white" stroke="black" points="338.67,-402.5 338.67,-432.5 464.67,-432.5 464.67,-402.5 338.67,-402.5"/>
<text text-anchor="start" x="346.67" y="-420.5" font-family="Helvetica,sans-Serif" font-size="10.00">src/libs/qmuparser</text>
<text text-anchor="middle" x="401.67" y="-409.5" font-family="Helvetica,sans-Serif" font-size="10.00">/qmuparserbytecode.h</text>
</a>
</g>
</g>
<!-- Node1&#45;&gt;Node22 -->
<g id="edge25" class="edge">
<title>Node1&#45;&gt;Node22</title>
<path fill="none" stroke="midnightblue" d="M454.96,-593.09C454.55,-562.97 451.34,-510.63 435.67,-469 430.61,-455.55 421.33,-442.14 413.74,-432.52"/>
<polygon fill="midnightblue" stroke="midnightblue" points="451.46,-593.49 455,-603.48 458.46,-593.46 451.46,-593.49"/>
</g>
<!-- Node24 -->
<g id="node24" class="node">
<title>Node24</title>
<g id="a_node24"><a xlink:href="../../db/d3a/qmuparsercallback_8h.html" target="_top" xlink:title="Definition of the parser callback class.">
<polygon fill="white" stroke="black" points="140.67,-536.5 140.67,-566.5 262.67,-566.5 262.67,-536.5 140.67,-536.5"/>
<text text-anchor="start" x="148.67" y="-554.5" font-family="Helvetica,sans-Serif" font-size="10.00">src/libs/qmuparser</text>
<text text-anchor="middle" x="201.67" y="-543.5" font-family="Helvetica,sans-Serif" font-size="10.00">/qmuparsercallback.h</text>
</a>
</g>
</g>
<!-- Node1&#45;&gt;Node24 -->
<g id="edge28" class="edge">
<title>Node1&#45;&gt;Node24</title>
<path fill="none" stroke="midnightblue" d="M391.29,-601.22C349.83,-590.56 296.2,-576.79 256.56,-566.6"/>
<polygon fill="midnightblue" stroke="midnightblue" points="390.46,-604.62 401.02,-603.72 392.2,-597.84 390.46,-604.62"/>
</g>
<!-- Node27 -->
<g id="node27" class="node">
<title>Node27</title>
<g id="a_node27"><a xlink:href="../../db/d1b/qmuparsertokenreader_8h.html" target="_top" xlink:title="This file contains the parser token reader definition.">
<polygon fill="white" stroke="black" points="67.17,-402.5 67.17,-432.5 206.17,-432.5 206.17,-402.5 67.17,-402.5"/>
<text text-anchor="start" x="75.17" y="-420.5" font-family="Helvetica,sans-Serif" font-size="10.00">src/libs/qmuparser</text>
<text text-anchor="middle" x="136.67" y="-409.5" font-family="Helvetica,sans-Serif" font-size="10.00">/qmuparsertokenreader.h</text>
</a>
</g>
</g>
<!-- Node1&#45;&gt;Node27 -->
<g id="edge53" class="edge">
<title>Node1&#45;&gt;Node27</title>
<path fill="none" stroke="midnightblue" d="M390.8,-613.8C324.55,-608.52 218.68,-596.02 131.67,-567 71.5,-546.93 38.34,-554.37 5.67,-500 -1.42,-488.19 -2.12,-480.36 5.67,-469 19.81,-448.4 43.63,-436.2 67.1,-428.98"/>
<polygon fill="midnightblue" stroke="midnightblue" points="390.85,-617.32 401.08,-614.59 391.38,-610.34 390.85,-617.32"/>
</g>
<!-- Node28 -->
<g id="node28" class="node">
<title>Node28</title>
<g id="a_node28"><a xlink:href="../../da/d49/qmuparsererror_8h.html" target="_top" xlink:title="This file defines the error class used by the parser.">
<polygon fill="white" stroke="black" points="635.17,-536.5 635.17,-566.5 742.17,-566.5 742.17,-536.5 635.17,-536.5"/>
<text text-anchor="start" x="643.17" y="-554.5" font-family="Helvetica,sans-Serif" font-size="10.00">src/libs/qmuparser</text>
<text text-anchor="middle" x="688.67" y="-543.5" font-family="Helvetica,sans-Serif" font-size="10.00">/qmuparsererror.h</text>
</a>
</g>
</g>
<!-- Node1&#45;&gt;Node28 -->
<g id="edge38" class="edge">
<title>Node1&#45;&gt;Node28</title>
<path fill="none" stroke="midnightblue" d="M515.1,-600.71C553.18,-590.14 601.79,-576.63 637.87,-566.61"/>
<polygon fill="midnightblue" stroke="midnightblue" points="513.86,-597.43 505.16,-603.48 515.73,-604.17 513.86,-597.43"/>
</g>
<!-- Node4 -->
<g id="node4" class="node">
<title>Node4</title>
<g id="a_node4"><a xlink:href="../../d6/dc3/qmuparser_8h.html" target="_top" xlink:title="Definition of the standard floating point parser.">
<polygon fill="white" stroke="black" points="673.17,-268.5 673.17,-298.5 780.17,-298.5 780.17,-268.5 673.17,-268.5"/>
<text text-anchor="start" x="681.17" y="-286.5" font-family="Helvetica,sans-Serif" font-size="10.00">src/libs/qmuparser</text>
<text text-anchor="middle" x="726.67" y="-275.5" font-family="Helvetica,sans-Serif" font-size="10.00">/qmuparser.h</text>
</a>
</g>
</g>
<!-- Node3&#45;&gt;Node4 -->
<g id="edge3" class="edge">
<title>Node3&#45;&gt;Node4</title>
<path fill="none" stroke="midnightblue" d="M371.28,-335.8C372.76,-335.52 374.22,-335.26 375.67,-335 480.52,-316.3 603.96,-299.81 672.97,-291.09"/>
<polygon fill="midnightblue" stroke="midnightblue" points="370.59,-332.37 361.43,-337.69 371.91,-339.24 370.59,-332.37"/>
</g>
<!-- Node20 -->
<g id="node20" class="node">
<title>Node20</title>
<g id="a_node20"><a xlink:href="../../d0/d70/qmuparserbase_8cpp.html" target="_top" xlink:title="This file contains the basic implementation of the muparser engine.">
<polygon fill="white" stroke="black" points="249.67,-268.5 249.67,-298.5 365.67,-298.5 365.67,-268.5 249.67,-268.5"/>
<text text-anchor="start" x="257.67" y="-286.5" font-family="Helvetica,sans-Serif" font-size="10.00">src/libs/qmuparser</text>
<text text-anchor="middle" x="307.67" y="-275.5" font-family="Helvetica,sans-Serif" font-size="10.00">/qmuparserbase.cpp</text>
</a>
</g>
</g>
<!-- Node3&#45;&gt;Node20 -->
<g id="edge23" class="edge">
<title>Node3&#45;&gt;Node20</title>
<path fill="none" stroke="midnightblue" d="M307.67,-325.11C307.67,-316.15 307.67,-306.32 307.67,-298.58"/>
<polygon fill="midnightblue" stroke="midnightblue" points="304.17,-325.4 307.67,-335.4 311.17,-325.4 304.17,-325.4"/>
</g>
<!-- Node21 -->
<g id="node21" class="node">
<title>Node21</title>
<g id="a_node21"><a xlink:href="../../df/d10/qmuparsertokenreader_8cpp.html" target="_top" xlink:title="This file contains the parser token reader implementation.">
<polygon fill="white" stroke="black" points="78.67,-268.5 78.67,-298.5 228.67,-298.5 228.67,-268.5 78.67,-268.5"/>
<text text-anchor="start" x="86.67" y="-286.5" font-family="Helvetica,sans-Serif" font-size="10.00">src/libs/qmuparser</text>
<text text-anchor="middle" x="153.67" y="-275.5" font-family="Helvetica,sans-Serif" font-size="10.00">/qmuparsertokenreader.cpp</text>
</a>
</g>
</g>
<!-- Node3&#45;&gt;Node21 -->
<g id="edge24" class="edge">
<title>Node3&#45;&gt;Node21</title>
<path fill="none" stroke="midnightblue" d="M264.8,-331.41C240.22,-321.03 209.81,-308.2 187.02,-298.58"/>
<polygon fill="midnightblue" stroke="midnightblue" points="263.68,-334.73 274.26,-335.4 266.4,-328.28 263.68,-334.73"/>
</g>
<!-- Node4&#45;&gt;Node2 -->
<g id="edge19" class="edge">
<title>Node4&#45;&gt;Node2</title>
<path fill="none" stroke="midnightblue" d="M689.67,-263.85C669.27,-253.58 644.36,-241.03 625.61,-231.58"/>
<polygon fill="midnightblue" stroke="midnightblue" points="688.18,-267.02 698.68,-268.4 691.33,-260.77 688.18,-267.02"/>
</g>
<!-- Node5 -->
<g id="node5" class="node">
<title>Node5</title>
<g id="a_node5"><a xlink:href="../../d7/da3/qmuformulabase_8h.html" target="_top" xlink:title=" ">
<polygon fill="white" stroke="black" points="669.67,-201.5 669.67,-231.5 781.67,-231.5 781.67,-201.5 669.67,-201.5"/>
<text text-anchor="start" x="677.67" y="-219.5" font-family="Helvetica,sans-Serif" font-size="10.00">src/libs/qmuparser</text>
<text text-anchor="middle" x="725.67" y="-208.5" font-family="Helvetica,sans-Serif" font-size="10.00">/qmuformulabase.h</text>
</a>
</g>
</g>
<!-- Node4&#45;&gt;Node5 -->
<g id="edge4" class="edge">
<title>Node4&#45;&gt;Node5</title>
<path fill="none" stroke="midnightblue" d="M726.3,-258.11C726.16,-249.15 726.01,-239.32 725.89,-231.58"/>
<polygon fill="midnightblue" stroke="midnightblue" points="722.8,-258.45 726.45,-268.4 729.8,-258.34 722.8,-258.45"/>
</g>
<!-- Node4&#45;&gt;Node18 -->
<g id="edge20" class="edge">
<title>Node4&#45;&gt;Node18</title>
<path fill="none" stroke="midnightblue" d="M790.41,-275.71C866.96,-267.2 999.13,-251.35 1111.67,-232 1116.31,-231.2 1121.12,-230.31 1125.93,-229.37"/>
<polygon fill="midnightblue" stroke="midnightblue" points="789.99,-272.24 780.44,-276.82 790.76,-279.2 789.99,-272.24"/>
</g>
<!-- Node19 -->
<g id="node19" class="node">
<title>Node19</title>
<g id="a_node19"><a xlink:href="../../df/dbf/qmuparsertest_8cpp.html" target="_top" xlink:title="This file contains the implementation of parser test cases.">
<polygon fill="white" stroke="black" points="1124.17,-134.5 1124.17,-164.5 1235.17,-164.5 1235.17,-134.5 1124.17,-134.5"/>
<text text-anchor="start" x="1132.17" y="-152.5" font-family="Helvetica,sans-Serif" font-size="10.00">src/libs/qmuparser</text>
<text text-anchor="middle" x="1179.67" y="-141.5" font-family="Helvetica,sans-Serif" font-size="10.00">/qmuparsertest.cpp</text>
</a>
</g>
</g>
<!-- Node4&#45;&gt;Node19 -->
<g id="edge22" class="edge">
<title>Node4&#45;&gt;Node19</title>
<path fill="none" stroke="midnightblue" d="M784.52,-265.64C874.78,-239.34 1047.46,-189.03 1131.43,-164.56"/>
<polygon fill="midnightblue" stroke="midnightblue" points="783.34,-262.34 774.72,-268.5 785.3,-269.06 783.34,-262.34"/>
</g>
<!-- Node6 -->
<g id="node6" class="node">
<title>Node6</title>
<g id="a_node6"><a xlink:href="../../d4/d67/qmuformulabase_8cpp.html" target="_top" xlink:title=" ">
<polygon fill="white" stroke="black" points="532.17,-134.5 532.17,-164.5 655.17,-164.5 655.17,-134.5 532.17,-134.5"/>
<text text-anchor="start" x="540.17" y="-152.5" font-family="Helvetica,sans-Serif" font-size="10.00">src/libs/qmuparser</text>
<text text-anchor="middle" x="593.67" y="-141.5" font-family="Helvetica,sans-Serif" font-size="10.00">/qmuformulabase.cpp</text>
</a>
</g>
</g>
<!-- Node5&#45;&gt;Node6 -->
<g id="edge5" class="edge">
<title>Node5&#45;&gt;Node6</title>
<path fill="none" stroke="midnightblue" d="M687.8,-196.85C666.93,-186.58 641.45,-174.03 622.26,-164.58"/>
<polygon fill="midnightblue" stroke="midnightblue" points="686.51,-200.12 697.03,-201.4 689.6,-193.84 686.51,-200.12"/>
</g>
<!-- Node7 -->
<g id="node7" class="node">
<title>Node7</title>
<g id="a_node7"><a xlink:href="../../db/d75/qmutokenparser_8h.html" target="_top" xlink:title=" ">
<polygon fill="white" stroke="black" points="673.17,-134.5 673.17,-164.5 780.17,-164.5 780.17,-134.5 673.17,-134.5"/>
<text text-anchor="start" x="681.17" y="-152.5" font-family="Helvetica,sans-Serif" font-size="10.00">src/libs/qmuparser</text>
<text text-anchor="middle" x="726.67" y="-141.5" font-family="Helvetica,sans-Serif" font-size="10.00">/qmutokenparser.h</text>
</a>
</g>
</g>
<!-- Node5&#45;&gt;Node7 -->
<g id="edge6" class="edge">
<title>Node5&#45;&gt;Node7</title>
<path fill="none" stroke="midnightblue" d="M726.05,-191.11C726.18,-182.15 726.34,-172.32 726.46,-164.58"/>
<polygon fill="midnightblue" stroke="midnightblue" points="722.54,-191.34 725.89,-201.4 729.54,-191.45 722.54,-191.34"/>
</g>
<!-- Node13 -->
<g id="node13" class="node">
<title>Node13</title>
<g id="a_node13"><a xlink:href="../../db/db8/vpatterndb_2calculator_8h.html" target="_top" xlink:title=" ">
<polygon fill="white" stroke="black" points="886.17,-134.5 886.17,-164.5 993.17,-164.5 993.17,-134.5 886.17,-134.5"/>
<text text-anchor="start" x="894.17" y="-152.5" font-family="Helvetica,sans-Serif" font-size="10.00">src/libs/vpatterndb</text>
<text text-anchor="middle" x="939.67" y="-141.5" font-family="Helvetica,sans-Serif" font-size="10.00">/calculator.h</text>
</a>
</g>
</g>
<!-- Node5&#45;&gt;Node13 -->
<g id="edge13" class="edge">
<title>Node5&#45;&gt;Node13</title>
<path fill="none" stroke="midnightblue" d="M781.82,-198.44C816.51,-187.91 860.49,-174.55 893.21,-164.61"/>
<polygon fill="midnightblue" stroke="midnightblue" points="780.39,-195.22 771.84,-201.48 782.43,-201.92 780.39,-195.22"/>
</g>
<!-- Node8 -->
<g id="node8" class="node">
<title>Node8</title>
<g id="a_node8"><a xlink:href="../../dd/d20/qmutokenparser_8cpp.html" target="_top" xlink:title=" ">
<polygon fill="white" stroke="black" points="333.17,-67.5 333.17,-97.5 452.17,-97.5 452.17,-67.5 333.17,-67.5"/>
<text text-anchor="start" x="341.17" y="-85.5" font-family="Helvetica,sans-Serif" font-size="10.00">src/libs/qmuparser</text>
<text text-anchor="middle" x="392.67" y="-74.5" font-family="Helvetica,sans-Serif" font-size="10.00">/qmutokenparser.cpp</text>
</a>
</g>
</g>
<!-- Node7&#45;&gt;Node8 -->
<g id="edge7" class="edge">
<title>Node7&#45;&gt;Node8</title>
<path fill="none" stroke="midnightblue" d="M663.17,-133.95C574.85,-115.89 551.05,-113.98 466.67,-98 462.04,-97.12 457.25,-96.21 452.43,-95.28"/>
<polygon fill="midnightblue" stroke="midnightblue" points="662.59,-137.41 673.09,-135.99 664,-130.55 662.59,-137.41"/>
</g>
<!-- Node9 -->
<g id="node9" class="node">
<title>Node9</title>
<g id="a_node9"><a xlink:href="../../d9/de3/measurements_8cpp.html" target="_top" xlink:title=" ">
<polygon fill="white" stroke="black" points="762.67,-73 762.67,-92 952.67,-92 952.67,-73 762.67,-73"/>
<text text-anchor="middle" x="857.67" y="-80" font-family="Helvetica,sans-Serif" font-size="10.00">src/libs/vformat/measurements.cpp</text>
</a>
</g>
</g>
<!-- Node7&#45;&gt;Node9 -->
<g id="edge8" class="edge">
<title>Node7&#45;&gt;Node9</title>
<path fill="none" stroke="midnightblue" d="M764.35,-129.8C789.47,-117.34 821.28,-101.56 840.53,-92.01"/>
<polygon fill="midnightblue" stroke="midnightblue" points="762.5,-126.82 755.1,-134.4 765.61,-133.09 762.5,-126.82"/>
</g>
<!-- Node10 -->
<g id="node10" class="node">
<title>Node10</title>
<g id="a_node10"><a xlink:href="../../da/db2/vsplinepoint__p_8h.html" target="_top" xlink:title=" ">
<polygon fill="white" stroke="black" points="509.17,-67.5 509.17,-97.5 616.17,-97.5 616.17,-67.5 509.17,-67.5"/>
<text text-anchor="start" x="517.17" y="-85.5" font-family="Helvetica,sans-Serif" font-size="10.00">src/libs/vgeometry</text>
<text text-anchor="middle" x="562.67" y="-74.5" font-family="Helvetica,sans-Serif" font-size="10.00">/vsplinepoint_p.h</text>
</a>
</g>
</g>
<!-- Node7&#45;&gt;Node10 -->
<g id="edge9" class="edge">
<title>Node7&#45;&gt;Node10</title>
<path fill="none" stroke="midnightblue" d="M681.71,-130.68C655.41,-120.26 622.67,-107.28 598.19,-97.58"/>
<polygon fill="midnightblue" stroke="midnightblue" points="680.5,-133.97 691.09,-134.4 683.08,-127.46 680.5,-133.97"/>
</g>
<!-- Node11 -->
<g id="node11" class="node">
<title>Node11</title>
<g id="a_node11"><a xlink:href="../../d5/d81/vsplinepoint_8cpp.html" target="_top" xlink:title=" ">
<polygon fill="white" stroke="black" points="468.17,-0.5 468.17,-30.5 575.17,-30.5 575.17,-0.5 468.17,-0.5"/>
<text text-anchor="start" x="476.17" y="-18.5" font-family="Helvetica,sans-Serif" font-size="10.00">src/libs/vgeometry</text>
<text text-anchor="middle" x="521.67" y="-7.5" font-family="Helvetica,sans-Serif" font-size="10.00">/vsplinepoint.cpp</text>
</a>
</g>
</g>
<!-- Node7&#45;&gt;Node11 -->
<g id="edge11" class="edge">
<title>Node7&#45;&gt;Node11</title>
<path fill="none" stroke="midnightblue" d="M663.14,-134.12C587.22,-120.63 544.52,-153.76 499.67,-98 483.87,-78.36 499.24,-48.32 511.02,-30.72"/>
<polygon fill="midnightblue" stroke="midnightblue" points="662.57,-137.58 673.06,-136.12 663.95,-130.72 662.57,-137.58"/>
</g>
<!-- Node12 -->
<g id="node12" class="node">
<title>Node12</title>
<g id="a_node12"><a xlink:href="../../de/d3e/vtranslatevars_8cpp.html" target="_top" xlink:title=" ">
<polygon fill="white" stroke="black" points="634.67,-67.5 634.67,-97.5 744.67,-97.5 744.67,-67.5 634.67,-67.5"/>
<text text-anchor="start" x="642.67" y="-85.5" font-family="Helvetica,sans-Serif" font-size="10.00">src/libs/vpatterndb</text>
<text text-anchor="middle" x="689.67" y="-74.5" font-family="Helvetica,sans-Serif" font-size="10.00">/vtranslatevars.cpp</text>
</a>
</g>
</g>
<!-- Node7&#45;&gt;Node12 -->
<g id="edge12" class="edge">
<title>Node7&#45;&gt;Node12</title>
<path fill="none" stroke="midnightblue" d="M713.62,-125.58C708.31,-116.24 702.34,-105.75 697.68,-97.58"/>
<polygon fill="midnightblue" stroke="midnightblue" points="710.65,-127.44 718.64,-134.4 716.74,-123.97 710.65,-127.44"/>
</g>
<!-- Node10&#45;&gt;Node11 -->
<g id="edge10" class="edge">
<title>Node10&#45;&gt;Node11</title>
<path fill="none" stroke="midnightblue" d="M548.4,-58.87C542.46,-49.46 535.76,-38.83 530.55,-30.58"/>
<polygon fill="midnightblue" stroke="midnightblue" points="545.48,-60.81 553.78,-67.4 551.4,-57.07 545.48,-60.81"/>
</g>
<!-- Node13&#45;&gt;Node9 -->
<g id="edge14" class="edge">
<title>Node13&#45;&gt;Node9</title>
<path fill="none" stroke="midnightblue" d="M913.82,-128.01C898.6,-115.94 880.13,-101.3 868.64,-92.19"/>
<polygon fill="midnightblue" stroke="midnightblue" points="911.87,-130.93 921.88,-134.4 916.22,-125.44 911.87,-130.93"/>
</g>
<!-- Node14 -->
<g id="node14" class="node">
<title>Node14</title>
<g id="a_node14"><a xlink:href="../../dd/d70/vlayoutpiece_8cpp.html" target="_top" xlink:title=" ">
<polygon fill="white" stroke="black" points="971.17,-73 971.17,-92 1148.17,-92 1148.17,-73 971.17,-73"/>
<text text-anchor="middle" x="1059.67" y="-80" font-family="Helvetica,sans-Serif" font-size="10.00">src/libs/vlayout/vlayoutpiece.cpp</text>
</a>
</g>
</g>
<!-- Node13&#45;&gt;Node14 -->
<g id="edge15" class="edge">
<title>Node13&#45;&gt;Node14</title>
<path fill="none" stroke="midnightblue" d="M974.8,-129.47C997.71,-117.06 1026.49,-101.47 1043.97,-92.01"/>
<polygon fill="midnightblue" stroke="midnightblue" points="972.84,-126.56 965.71,-134.4 976.17,-132.71 972.84,-126.56"/>
</g>
<!-- Node15 -->
<g id="node15" class="node">
<title>Node15</title>
<g id="a_node15"><a xlink:href="../../db/d8e/vpatterndb_2calculator_8cpp.html" target="_top" xlink:title=" ">
<polygon fill="white" stroke="black" points="1416.17,-67.5 1416.17,-97.5 1523.17,-97.5 1523.17,-67.5 1416.17,-67.5"/>
<text text-anchor="start" x="1424.17" y="-85.5" font-family="Helvetica,sans-Serif" font-size="10.00">src/libs/vpatterndb</text>
<text text-anchor="middle" x="1469.67" y="-74.5" font-family="Helvetica,sans-Serif" font-size="10.00">/calculator.cpp</text>
</a>
</g>
</g>
<!-- Node13&#45;&gt;Node15 -->
<g id="edge16" class="edge">
<title>Node13&#45;&gt;Node15</title>
<path fill="none" stroke="midnightblue" d="M1003.28,-139.41C1017.23,-137.53 1031.94,-135.62 1045.67,-134 1206.24,-115.04 1248.17,-124.47 1407.67,-98 1410.4,-97.55 1413.18,-97.05 1415.99,-96.51"/>
<polygon fill="midnightblue" stroke="midnightblue" points="1002.71,-135.96 993.28,-140.78 1003.66,-142.89 1002.71,-135.96"/>
</g>
<!-- Node16 -->
<g id="node16" class="node">
<title>Node16</title>
<g id="a_node16"><a xlink:href="../../db/d11/vformula_8cpp.html" target="_top" xlink:title=" ">
<polygon fill="white" stroke="black" points="1291.17,-67.5 1291.17,-97.5 1398.17,-97.5 1398.17,-67.5 1291.17,-67.5"/>
<text text-anchor="start" x="1299.17" y="-85.5" font-family="Helvetica,sans-Serif" font-size="10.00">src/libs/vpatterndb</text>
<text text-anchor="middle" x="1344.67" y="-74.5" font-family="Helvetica,sans-Serif" font-size="10.00">/vformula.cpp</text>
</a>
</g>
</g>
<!-- Node13&#45;&gt;Node16 -->
<g id="edge17" class="edge">
<title>Node13&#45;&gt;Node16</title>
<path fill="none" stroke="midnightblue" d="M1003.28,-134.77C1004.76,-134.51 1006.22,-134.25 1007.67,-134 1129.16,-113.13 1161.4,-120.06 1282.67,-98 1285.39,-97.51 1288.17,-96.97 1290.97,-96.4"/>
<polygon fill="midnightblue" stroke="midnightblue" points="1002.6,-131.34 993.42,-136.63 1003.89,-138.22 1002.6,-131.34"/>
</g>
<!-- Node17 -->
<g id="node17" class="node">
<title>Node17</title>
<g id="a_node17"><a xlink:href="../../d8/dba/vpiecenode_8cpp.html" target="_top" xlink:title=" ">
<polygon fill="white" stroke="black" points="1166.17,-67.5 1166.17,-97.5 1273.17,-97.5 1273.17,-67.5 1166.17,-67.5"/>
<text text-anchor="start" x="1174.17" y="-85.5" font-family="Helvetica,sans-Serif" font-size="10.00">src/libs/vpatterndb</text>
<text text-anchor="middle" x="1219.67" y="-74.5" font-family="Helvetica,sans-Serif" font-size="10.00">/vpiecenode.cpp</text>
</a>
</g>
</g>
<!-- Node13&#45;&gt;Node17 -->
<g id="edge18" class="edge">
<title>Node13&#45;&gt;Node17</title>
<path fill="none" stroke="midnightblue" d="M1003.3,-133.8C1046.78,-123.74 1105.72,-110.09 1157.67,-98 1160.36,-97.37 1163.12,-96.73 1165.9,-96.08"/>
<polygon fill="midnightblue" stroke="midnightblue" points="1002.39,-130.42 993.43,-136.08 1003.96,-137.24 1002.39,-130.42"/>
</g>
<!-- Node18&#45;&gt;Node19 -->
<g id="edge21" class="edge">
<title>Node18&#45;&gt;Node19</title>
<path fill="none" stroke="midnightblue" d="M1179.67,-191.11C1179.67,-182.15 1179.67,-172.32 1179.67,-164.58"/>
<polygon fill="midnightblue" stroke="midnightblue" points="1176.17,-191.4 1179.67,-201.4 1183.17,-191.4 1176.17,-191.4"/>
</g>
<!-- Node22&#45;&gt;Node3 -->
<g id="edge26" class="edge">
<title>Node22&#45;&gt;Node3</title>
<path fill="none" stroke="midnightblue" d="M372.68,-396.45C358.22,-386.45 341.08,-374.6 328.03,-365.58"/>
<polygon fill="midnightblue" stroke="midnightblue" points="371.06,-399.59 381.28,-402.4 375.04,-393.83 371.06,-399.59"/>
</g>
<!-- Node23 -->
<g id="node23" class="node">
<title>Node23</title>
<g id="a_node23"><a xlink:href="../../d1/d4b/qmuparserbytecode_8cpp.html" target="_top" xlink:title=" ">
<polygon fill="white" stroke="black" points="385.17,-335.5 385.17,-365.5 522.17,-365.5 522.17,-335.5 385.17,-335.5"/>
<text text-anchor="start" x="393.17" y="-353.5" font-family="Helvetica,sans-Serif" font-size="10.00">src/libs/qmuparser</text>
<text text-anchor="middle" x="453.67" y="-342.5" font-family="Helvetica,sans-Serif" font-size="10.00">/qmuparserbytecode.cpp</text>
</a>
</g>
</g>
<!-- Node22&#45;&gt;Node23 -->
<g id="edge27" class="edge">
<title>Node22&#45;&gt;Node23</title>
<path fill="none" stroke="midnightblue" d="M419.31,-394.45C426.95,-384.9 435.67,-374 442.41,-365.58"/>
<polygon fill="midnightblue" stroke="midnightblue" points="416.47,-392.4 412.96,-402.4 421.94,-396.77 416.47,-392.4"/>
</g>
<!-- Node24&#45;&gt;Node3 -->
<g id="edge29" class="edge">
<title>Node24&#45;&gt;Node3</title>
<path fill="none" stroke="midnightblue" d="M207.7,-526.3C216.04,-495.7 233.01,-442.18 258.67,-402 267.48,-388.2 280.5,-375.01 290.9,-365.58"/>
<polygon fill="midnightblue" stroke="midnightblue" points="204.28,-525.54 205.12,-536.11 211.05,-527.33 204.28,-525.54"/>
</g>
<!-- Node25 -->
<g id="node25" class="node">
<title>Node25</title>
<g id="a_node25"><a xlink:href="../../db/d3d/qmuparsercallback_8cpp.html" target="_top" xlink:title="Implementation of the parser callback class.">
<polygon fill="white" stroke="black" points="15.17,-469.5 15.17,-499.5 148.17,-499.5 148.17,-469.5 15.17,-469.5"/>
<text text-anchor="start" x="23.17" y="-487.5" font-family="Helvetica,sans-Serif" font-size="10.00">src/libs/qmuparser</text>
<text text-anchor="middle" x="81.67" y="-476.5" font-family="Helvetica,sans-Serif" font-size="10.00">/qmuparsercallback.cpp</text>
</a>
</g>
</g>
<!-- Node24&#45;&gt;Node25 -->
<g id="edge30" class="edge">
<title>Node24&#45;&gt;Node25</title>
<path fill="none" stroke="midnightblue" d="M166.73,-531.57C147.86,-521.35 124.95,-508.94 107.66,-499.58"/>
<polygon fill="midnightblue" stroke="midnightblue" points="165.17,-534.71 175.63,-536.4 168.51,-528.56 165.17,-534.71"/>
</g>
<!-- Node26 -->
<g id="node26" class="node">
<title>Node26</title>
<g id="a_node26"><a xlink:href="../../d7/ddf/qmuparsertoken_8h.html" target="_top" xlink:title="This file contains the parser token definition.">
<polygon fill="white" stroke="black" points="318.67,-469.5 318.67,-499.5 426.67,-499.5 426.67,-469.5 318.67,-469.5"/>
<text text-anchor="start" x="326.67" y="-487.5" font-family="Helvetica,sans-Serif" font-size="10.00">src/libs/qmuparser</text>
<text text-anchor="middle" x="372.67" y="-476.5" font-family="Helvetica,sans-Serif" font-size="10.00">/qmuparsertoken.h</text>
</a>
</g>
</g>
<!-- Node24&#45;&gt;Node26 -->
<g id="edge31" class="edge">
<title>Node24&#45;&gt;Node26</title>
<path fill="none" stroke="midnightblue" d="M248.19,-532.82C275.67,-522.37 310,-509.32 335.64,-499.58"/>
<polygon fill="midnightblue" stroke="midnightblue" points="246.88,-529.57 238.78,-536.4 249.37,-536.11 246.88,-529.57"/>
</g>
<!-- Node24&#45;&gt;Node27 -->
<g id="edge37" class="edge">
<title>Node24&#45;&gt;Node27</title>
<path fill="none" stroke="midnightblue" d="M190.16,-527.12C176.65,-499.68 154.69,-455.09 143.58,-432.52"/>
<polygon fill="midnightblue" stroke="midnightblue" points="187.16,-528.95 194.72,-536.37 193.44,-525.86 187.16,-528.95"/>
</g>
<!-- Node26&#45;&gt;Node3 -->
<g id="edge32" class="edge">
<title>Node26&#45;&gt;Node3</title>
<path fill="none" stroke="midnightblue" d="M350.55,-461.83C343.01,-453.43 335.12,-443.35 329.67,-433 318.14,-411.08 312.24,-382.58 309.57,-365.75"/>
<polygon fill="midnightblue" stroke="midnightblue" points="348.18,-464.43 357.58,-469.33 353.29,-459.64 348.18,-464.43"/>
</g>
<!-- Node26&#45;&gt;Node22 -->
<g id="edge33" class="edge">
<title>Node26&#45;&gt;Node22</title>
<path fill="none" stroke="midnightblue" d="M383.16,-459.99C387.26,-450.8 391.82,-440.58 395.39,-432.58"/>
<polygon fill="midnightblue" stroke="midnightblue" points="379.84,-458.84 378.96,-469.4 386.24,-461.69 379.84,-458.84"/>
</g>
<!-- Node26&#45;&gt;Node27 -->
<g id="edge34" class="edge">
<title>Node26&#45;&gt;Node27</title>
<path fill="none" stroke="midnightblue" d="M311.73,-466.71C273.32,-456.14 224.3,-442.63 187.91,-432.61"/>
<polygon fill="midnightblue" stroke="midnightblue" points="311.18,-470.19 321.75,-469.48 313.04,-463.45 311.18,-470.19"/>
</g>
<!-- Node27&#45;&gt;Node3 -->
<g id="edge35" class="edge">
<title>Node27&#45;&gt;Node3</title>
<path fill="none" stroke="midnightblue" d="M183.19,-398.82C210.67,-388.37 245,-375.32 270.64,-365.58"/>
<polygon fill="midnightblue" stroke="midnightblue" points="181.88,-395.57 173.78,-402.4 184.37,-402.11 181.88,-395.57"/>
</g>
<!-- Node27&#45;&gt;Node21 -->
<g id="edge36" class="edge">
<title>Node27&#45;&gt;Node21</title>
<path fill="none" stroke="midnightblue" d="M139.78,-392.39C143.32,-364.9 148.99,-320.89 151.87,-298.52"/>
<polygon fill="midnightblue" stroke="midnightblue" points="136.3,-392.01 138.49,-402.37 143.24,-392.9 136.3,-392.01"/>
</g>
<!-- Node28&#45;&gt;Node2 -->
<g id="edge39" class="edge">
<title>Node28&#45;&gt;Node2</title>
<path fill="none" stroke="midnightblue" d="M675.93,-527.4C662.93,-501.64 644.67,-458.34 644.67,-418.5 644.67,-418.5 644.67,-418.5 644.67,-349.5 644.67,-304.25 619.86,-255.07 606.29,-231.56"/>
<polygon fill="midnightblue" stroke="midnightblue" points="672.88,-529.12 680.6,-536.37 679.09,-525.88 672.88,-529.12"/>
</g>
<!-- Node28&#45;&gt;Node3 -->
<g id="edge40" class="edge">
<title>Node28&#45;&gt;Node3</title>
<path fill="none" stroke="midnightblue" d="M624.98,-541.46C593.61,-534.4 556.81,-521.93 529.67,-500 490.65,-468.47 512.88,-433.29 473.67,-402 456.13,-388 402.77,-373.19 361.24,-363.26"/>
<polygon fill="midnightblue" stroke="midnightblue" points="624.44,-544.93 634.95,-543.57 625.89,-538.08 624.44,-544.93"/>
</g>
<!-- Node28&#45;&gt;Node8 -->
<g id="edge46" class="edge">
<title>Node28&#45;&gt;Node8</title>
<path fill="none" stroke="midnightblue" d="M670.59,-528.13C663.82,-519.49 656.2,-509.43 649.67,-500 544.04,-347.32 431.5,-151.86 400.8,-97.86"/>
<polygon fill="midnightblue" stroke="midnightblue" points="668.04,-530.55 677,-536.22 673.53,-526.2 668.04,-530.55"/>
</g>
<!-- Node28&#45;&gt;Node9 -->
<g id="edge48" class="edge">
<title>Node28&#45;&gt;Node9</title>
<path fill="none" stroke="midnightblue" d="M752.44,-543.1C782.19,-536.46 815.77,-523.87 837.67,-500 862.88,-472.52 857.67,-455.8 857.67,-418.5 857.67,-418.5 857.67,-418.5 857.67,-215.5 857.67,-168.98 857.67,-113.24 857.67,-92.15"/>
<polygon fill="midnightblue" stroke="midnightblue" points="751.62,-539.7 742.53,-545.13 753.02,-546.56 751.62,-539.7"/>
</g>
<!-- Node28&#45;&gt;Node12 -->
<g id="edge51" class="edge">
<title>Node28&#45;&gt;Node12</title>
<path fill="none" stroke="midnightblue" d="M691.75,-525.99C694.23,-509.58 698.36,-487.64 704.67,-469 731.69,-389.17 768.28,-380.77 788.67,-299 806.42,-227.85 827.9,-195.96 788.67,-134 777.78,-116.8 759.05,-105.2 740.8,-97.51"/>
<polygon fill="midnightblue" stroke="midnightblue" points="688.22,-525.97 690.29,-536.36 695.15,-526.95 688.22,-525.97"/>
</g>
<!-- Node28&#45;&gt;Node15 -->
<g id="edge49" class="edge">
<title>Node28&#45;&gt;Node15</title>
<path fill="none" stroke="midnightblue" d="M752.39,-546.54C807.44,-541.23 888.09,-528.84 952.67,-500 1007.26,-475.63 1059.67,-478.28 1059.67,-418.5 1059.67,-418.5 1059.67,-418.5 1059.67,-215.5 1059.67,-171.55 1078.11,-156.81 1115.67,-134 1227.44,-66.13 1278.94,-120.92 1407.67,-98 1410.39,-97.52 1413.17,-96.99 1415.98,-96.43"/>
<polygon fill="midnightblue" stroke="midnightblue" points="752.05,-543.06 742.41,-547.45 752.69,-550.03 752.05,-543.06"/>
</g>
<!-- Node28&#45;&gt;Node16 -->
<g id="edge50" class="edge">
<title>Node28&#45;&gt;Node16</title>
<path fill="none" stroke="midnightblue" d="M752.13,-538.78C848.76,-519.1 1021.67,-475.86 1021.67,-418.5 1021.67,-418.5 1021.67,-418.5 1021.67,-215.5 1021.67,-177.74 1017.22,-158.83 1045.67,-134 1085.81,-98.97 1230.36,-108.07 1282.67,-98 1285.39,-97.48 1288.16,-96.92 1290.96,-96.34"/>
<polygon fill="midnightblue" stroke="midnightblue" points="751.29,-535.38 742.17,-540.78 752.67,-542.24 751.29,-535.38"/>
</g>
<!-- Node28&#45;&gt;Node18 -->
<g id="edge44" class="edge">
<title>Node28&#45;&gt;Node18</title>
<path fill="none" stroke="midnightblue" d="M752.52,-548.93C848.09,-545.47 1022.59,-534.48 1073.67,-500 1108.15,-476.73 1119.67,-460.09 1119.67,-418.5 1119.67,-418.5 1119.67,-418.5 1119.67,-349.5 1119.67,-302.93 1151.01,-254.73 1168.39,-231.58"/>
<polygon fill="midnightblue" stroke="midnightblue" points="752.27,-545.44 742.39,-549.28 752.51,-552.43 752.27,-545.44"/>
</g>
<!-- Node28&#45;&gt;Node19 -->
<g id="edge47" class="edge">
<title>Node28&#45;&gt;Node19</title>
<path fill="none" stroke="midnightblue" d="M752.71,-549.18C902.23,-544.35 1261.67,-521.99 1261.67,-418.5 1261.67,-418.5 1261.67,-418.5 1261.67,-282.5 1261.67,-245.31 1262.49,-232.47 1242.67,-201 1233.18,-185.94 1217.61,-173.39 1204.31,-164.57"/>
<polygon fill="midnightblue" stroke="midnightblue" points="752.21,-545.69 742.32,-549.49 752.42,-552.69 752.21,-545.69"/>
</g>
<!-- Node28&#45;&gt;Node23 -->
<g id="edge41" class="edge">
<title>Node28&#45;&gt;Node23</title>
<path fill="none" stroke="midnightblue" d="M625.19,-537.23C600.89,-529.61 574.32,-517.86 554.67,-500 518.79,-467.37 535.34,-441.12 506.67,-402 496.6,-388.26 482.55,-375.07 471.45,-365.62"/>
<polygon fill="midnightblue" stroke="midnightblue" points="624.5,-540.68 635.08,-540.16 626.48,-533.97 624.5,-540.68"/>
</g>
<!-- Node28&#45;&gt;Node26 -->
<g id="edge43" class="edge">
<title>Node28&#45;&gt;Node26</title>
<path fill="none" stroke="midnightblue" d="M625.25,-537.46C567.08,-525.49 481.85,-507.96 426.8,-496.63"/>
<polygon fill="midnightblue" stroke="midnightblue" points="624.57,-540.89 635.07,-539.47 625.98,-534.03 624.57,-540.89"/>
</g>
<!-- Node28&#45;&gt;Node27 -->
<g id="edge45" class="edge">
<title>Node28&#45;&gt;Node27</title>
<path fill="none" stroke="midnightblue" d="M624.46,-547.95C548.06,-543.55 417.32,-531.7 309.67,-500 253.62,-483.49 192.87,-451.16 160.37,-432.57"/>
<polygon fill="midnightblue" stroke="midnightblue" points="624.69,-551.47 634.87,-548.52 625.08,-544.48 624.69,-551.47"/>
</g>
<!-- Node29 -->
<g id="node29" class="node">
<title>Node29</title>
<g id="a_node29"><a xlink:href="../../dd/d4f/qmuparsererror_8cpp.html" target="_top" xlink:title=" ">
<polygon fill="white" stroke="black" points="714.17,-469.5 714.17,-499.5 829.17,-499.5 829.17,-469.5 714.17,-469.5"/>
<text text-anchor="start" x="722.17" y="-487.5" font-family="Helvetica,sans-Serif" font-size="10.00">src/libs/qmuparser</text>
<text text-anchor="middle" x="771.67" y="-476.5" font-family="Helvetica,sans-Serif" font-size="10.00">/qmuparsererror.cpp</text>
</a>
</g>
</g>
<!-- Node28&#45;&gt;Node29 -->
<g id="edge42" class="edge">
<title>Node28&#45;&gt;Node29</title>
<path fill="none" stroke="midnightblue" d="M714.63,-530.17C727.33,-520.23 742.28,-508.51 753.7,-499.58"/>
<polygon fill="midnightblue" stroke="midnightblue" points="712.4,-527.47 706.68,-536.4 716.71,-532.99 712.4,-527.47"/>
</g>
</g>
</svg>
        <g id="navigator" transform="translate(0 0)" fill="#404254">
                <rect fill="#f2f5e9" fill-opacity="0.5" stroke="#606060" stroke-width=".5" x="0" y="0" width="60" height="60"/>
                <use id="zoomplus" xlink:href="#zoomPlus" x="17" y="9" onmousedown="handleZoom(evt,'in')"/>
                <use id="zoomminus" xlink:href="#zoomMin" x="42" y="9" onmousedown="handleZoom(evt,'out')"/>
                <use id="reset" xlink:href="#resetDef" x="30" y="36" onmousedown="handleReset()"/>
                <g id="arrowUp" xlink:href="#dirArrow" transform="translate(30 24)" onmousedown="handlePan(0,-1)">
                  <use xlink:href="#rim" fill="#404040">
                        <set attributeName="fill" to="#808080" begin="arrowUp.mouseover" end="arrowUp.mouseout"/>
                  </use>
                  <path fill="none" stroke="white" stroke-width="1.5" d="M0,-3.0v7 M-2.5,-0.5L0,-3.0L2.5,-0.5"/>
                </g>
                <g id="arrowRight" xlink:href="#dirArrow" transform="rotate(90) translate(36 -43)" onmousedown="handlePan(1,0)">
                  <use xlink:href="#rim" fill="#404040">
                        <set attributeName="fill" to="#808080" begin="arrowRight.mouseover" end="arrowRight.mouseout"/>
                  </use>
                  <path fill="none" stroke="white" stroke-width="1.5" d="M0,-3.0v7 M-2.5,-0.5L0,-3.0L2.5,-0.5"/>
                </g>
                <g id="arrowDown" xlink:href="#dirArrow" transform="rotate(180) translate(-30 -48)" onmousedown="handlePan(0,1)">
                  <use xlink:href="#rim" fill="#404040">
                        <set attributeName="fill" to="#808080" begin="arrowDown.mouseover" end="arrowDown.mouseout"/>
                  </use>
                  <path fill="none" stroke="white" stroke-width="1.5" d="M0,-3.0v7 M-2.5,-0.5L0,-3.0L2.5,-0.5"/>
                </g>
                <g id="arrowLeft" xlink:href="#dirArrow" transform="rotate(270) translate(-36 17)" onmousedown="handlePan(-1,0)">
                  <use xlink:href="#rim" fill="#404040">
                        <set attributeName="fill" to="#808080" begin="arrowLeft.mouseover" end="arrowLeft.mouseout"/>
                  </use>
                  <path fill="none" stroke="white" stroke-width="1.5" d="M0,-3.0v7 M-2.5,-0.5L0,-3.0L2.5,-0.5"/>
                </g>
        </g>
        <svg viewBox="0 0 15 15" width="100%" height="30px" preserveAspectRatio="xMaxYMin meet">
         <g id="arrow_out" transform="scale(0.3 0.3)">
          <a xlink:href="qmuparserdef_8h__dep__incl_org.svg" target="_base">
           <rect id="button" ry="5" rx="5" y="6" x="6" height="38" width="38"
                fill="#f2f5e9" fill-opacity="0.5" stroke="#606060" stroke-width="1.0"/>
           <path id="arrow"
             d="M 11.500037,31.436501 C 11.940474,20.09759 22.043105,11.32322 32.158766,21.979434 L 37.068811,17.246167 C 37.068811,17.246167 37.088388,32 37.088388,32 L 22.160133,31.978069 C 22.160133,31.978069 26.997745,27.140456 26.997745,27.140456 C 18.528582,18.264221 13.291696,25.230495 11.500037,31.436501 z"
             style="fill:#404040;"/>
          </a>
         </g>
        </svg>
</svg>
