<?xml version="1.0" encoding="UTF-8" standalone="no"?>
<!DOCTYPE svg PUBLIC "-//W3C//DTD SVG 1.1//EN"
 "http://www.w3.org/Graphics/SVG/1.1/DTD/svg11.dtd">
<!-- Generated by graphviz version 2.43.0 (0)
 -->
<!-- Title: src/libs/vpatterndb/vpiecepath.h Pages: 1 -->
<svg width="6467pt" height="318pt"
 viewBox="0.00 0.00 6466.50 318.00" xmlns="http://www.w3.org/2000/svg" xmlns:xlink="http://www.w3.org/1999/xlink">
<g id="graph0" class="graph" transform="scale(1 1) rotate(0) translate(4 314)">
<title>src/libs/vpatterndb/vpiecepath.h</title>
<polygon fill="white" stroke="transparent" points="-4,4 -4,-314 6462.5,-314 6462.5,4 -4,4"/>
<!-- Node1 -->
<g id="node1" class="node">
<title>Node1</title>
<g id="a_node1"><a xlink:title=" ">
<polygon fill="#bfbfbf" stroke="black" points="6185.5,-279.5 6185.5,-309.5 6292.5,-309.5 6292.5,-279.5 6185.5,-279.5"/>
<text text-anchor="start" x="6193.5" y="-297.5" font-family="Helvetica,sans-Serif" font-size="10.00">src/libs/vpatterndb</text>
<text text-anchor="middle" x="6239" y="-286.5" font-family="Helvetica,sans-Serif" font-size="10.00">/vpiecepath.h</text>
</a>
</g>
</g>
<!-- Node2 -->
<g id="node2" class="node">
<title>Node2</title>
<g id="a_node2"><a xlink:href="../../d3/df7/vcontainer_8h.html" target="_top" xlink:title=" ">
<polygon fill="white" stroke="black" points="5416.5,-212.5 5416.5,-242.5 5523.5,-242.5 5523.5,-212.5 5416.5,-212.5"/>
<text text-anchor="start" x="5424.5" y="-230.5" font-family="Helvetica,sans-Serif" font-size="10.00">src/libs/vpatterndb</text>
<text text-anchor="middle" x="5470" y="-219.5" font-family="Helvetica,sans-Serif" font-size="10.00">/vcontainer.h</text>
</a>
</g>
</g>
<!-- Node1&#45;&gt;Node2 -->
<g id="edge1" class="edge">
<title>Node1&#45;&gt;Node2</title>
<path fill="none" stroke="midnightblue" d="M6174.92,-288.08C6026.46,-275.53 5661.13,-244.66 5523.56,-233.03"/>
<polygon fill="midnightblue" stroke="midnightblue" points="6174.97,-291.6 6185.23,-288.96 6175.56,-284.63 6174.97,-291.6"/>
</g>
<!-- Node67 -->
<g id="node46" class="node">
<title>Node67</title>
<g id="a_node46"><a xlink:href="../../d6/d91/vnodedetail_8cpp.html" target="_top" xlink:title=" ">
<polygon fill="white" stroke="black" points="6155.5,-140 6155.5,-170 6262.5,-170 6262.5,-140 6155.5,-140"/>
<text text-anchor="start" x="6163.5" y="-158" font-family="Helvetica,sans-Serif" font-size="10.00">src/libs/vpatterndb</text>
<text text-anchor="middle" x="6209" y="-147" font-family="Helvetica,sans-Serif" font-size="10.00">/vnodedetail.cpp</text>
</a>
</g>
</g>
<!-- Node1&#45;&gt;Node67 -->
<g id="edge60" class="edge">
<title>Node1&#45;&gt;Node67</title>
<path fill="none" stroke="midnightblue" d="M6233.72,-269.29C6227.46,-240.61 6217.24,-193.78 6212.13,-170.33"/>
<polygon fill="midnightblue" stroke="midnightblue" points="6230.35,-270.28 6235.9,-279.3 6237.19,-268.79 6230.35,-270.28"/>
</g>
<!-- Node68 -->
<g id="node47" class="node">
<title>Node68</title>
<g id="a_node47"><a xlink:href="../../da/de1/vpiecepath_8cpp.html" target="_top" xlink:title=" ">
<polygon fill="white" stroke="black" points="6280.5,-140 6280.5,-170 6387.5,-170 6387.5,-140 6280.5,-140"/>
<text text-anchor="start" x="6288.5" y="-158" font-family="Helvetica,sans-Serif" font-size="10.00">src/libs/vpatterndb</text>
<text text-anchor="middle" x="6334" y="-147" font-family="Helvetica,sans-Serif" font-size="10.00">/vpiecepath.cpp</text>
</a>
</g>
</g>
<!-- Node1&#45;&gt;Node68 -->
<g id="edge63" class="edge">
<title>Node1&#45;&gt;Node68</title>
<path fill="none" stroke="midnightblue" d="M6254.69,-270.79C6274.4,-242.26 6307.62,-194.19 6324.1,-170.33"/>
<polygon fill="midnightblue" stroke="midnightblue" points="6251.61,-269.09 6248.81,-279.3 6257.37,-273.07 6251.61,-269.09"/>
</g>
<!-- Node71 -->
<g id="node50" class="node">
<title>Node71</title>
<g id="a_node50"><a xlink:href="../../d8/da5/vpiece__p_8h.html" target="_top" xlink:title=" ">
<polygon fill="white" stroke="black" points="6351.5,-212.5 6351.5,-242.5 6458.5,-242.5 6458.5,-212.5 6351.5,-212.5"/>
<text text-anchor="start" x="6359.5" y="-230.5" font-family="Helvetica,sans-Serif" font-size="10.00">src/libs/vpatterndb</text>
<text text-anchor="middle" x="6405" y="-219.5" font-family="Helvetica,sans-Serif" font-size="10.00">/vpiece_p.h</text>
</a>
</g>
</g>
<!-- Node1&#45;&gt;Node71 -->
<g id="edge61" class="edge">
<title>Node1&#45;&gt;Node71</title>
<path fill="none" stroke="midnightblue" d="M6284.51,-275.68C6311.13,-265.26 6344.27,-252.28 6369.05,-242.58"/>
<polygon fill="midnightblue" stroke="midnightblue" points="6283.05,-272.49 6275.02,-279.4 6285.61,-279.01 6283.05,-272.49"/>
</g>
<!-- Node3 -->
<g id="node3" class="node">
<title>Node3</title>
<g id="a_node3"><a xlink:href="../../d2/d47/image__dialog_8cpp.html" target="_top" xlink:title=" ">
<polygon fill="white" stroke="black" points="5183,-67.5 5183,-97.5 5295,-97.5 5295,-67.5 5183,-67.5"/>
<text text-anchor="start" x="5191" y="-85.5" font-family="Helvetica,sans-Serif" font-size="10.00">src/libs/tools/image</text>
<text text-anchor="middle" x="5239" y="-74.5" font-family="Helvetica,sans-Serif" font-size="10.00">_dialog.cpp</text>
</a>
</g>
</g>
<!-- Node2&#45;&gt;Node3 -->
<g id="edge2" class="edge">
<title>Node2&#45;&gt;Node3</title>
<path fill="none" stroke="midnightblue" d="M5406.09,-224.93C5327.88,-221.51 5202.22,-210.61 5173,-176 5160.96,-161.74 5164.73,-150.74 5173,-134 5180.8,-118.22 5196.15,-106.01 5210.09,-97.55"/>
<polygon fill="midnightblue" stroke="midnightblue" points="5406.19,-228.44 5416.32,-225.35 5406.48,-221.44 5406.19,-228.44"/>
</g>
<!-- Node4 -->
<g id="node4" class="node">
<title>Node4</title>
<g id="a_node4"><a xlink:href="../../dc/db7/measurements_8h.html" target="_top" xlink:title=" ">
<polygon fill="white" stroke="black" points="5958.5,-145.5 5958.5,-164.5 6137.5,-164.5 6137.5,-145.5 5958.5,-145.5"/>
<text text-anchor="middle" x="6048" y="-152.5" font-family="Helvetica,sans-Serif" font-size="10.00">src/libs/vformat/measurements.h</text>
</a>
</g>
</g>
<!-- Node2&#45;&gt;Node4 -->
<g id="edge3" class="edge">
<title>Node2&#45;&gt;Node4</title>
<path fill="none" stroke="midnightblue" d="M5534.04,-221.39C5625.33,-213.72 5798,-197.78 5944,-176 5965.09,-172.85 5988.43,-168.45 6007.64,-164.58"/>
<polygon fill="midnightblue" stroke="midnightblue" points="5533.53,-217.92 5523.86,-222.24 5534.11,-224.9 5533.53,-217.92"/>
</g>
<!-- Node5 -->
<g id="node5" class="node">
<title>Node5</title>
<g id="a_node5"><a xlink:href="../../d9/de3/measurements_8cpp.html" target="_top" xlink:title=" ">
<polygon fill="white" stroke="black" points="5953,-73 5953,-92 6143,-92 6143,-73 5953,-73"/>
<text text-anchor="middle" x="6048" y="-80" font-family="Helvetica,sans-Serif" font-size="10.00">src/libs/vformat/measurements.cpp</text>
</a>
</g>
</g>
<!-- Node2&#45;&gt;Node5 -->
<g id="edge5" class="edge">
<title>Node2&#45;&gt;Node5</title>
<path fill="none" stroke="midnightblue" d="M5533.83,-223.11C5635.97,-216.99 5831.12,-202.23 5895,-176 5923.13,-164.45 5923.34,-150.31 5949,-134 5975.38,-117.23 6008.01,-101.46 6028.43,-92.14"/>
<polygon fill="midnightblue" stroke="midnightblue" points="5533.43,-219.63 5523.65,-223.71 5533.84,-226.62 5533.43,-219.63"/>
</g>
<!-- Node6 -->
<g id="node6" class="node">
<title>Node6</title>
<g id="a_node6"><a xlink:href="../../d6/de0/vlayoutpiece_8h.html" target="_top" xlink:title=" ">
<polygon fill="white" stroke="black" points="725,-145.5 725,-164.5 891,-164.5 891,-145.5 725,-145.5"/>
<text text-anchor="middle" x="808" y="-152.5" font-family="Helvetica,sans-Serif" font-size="10.00">src/libs/vlayout/vlayoutpiece.h</text>
</a>
</g>
</g>
<!-- Node2&#45;&gt;Node6 -->
<g id="edge6" class="edge">
<title>Node2&#45;&gt;Node6</title>
<path fill="none" stroke="midnightblue" d="M5406.31,-225.54C4895.62,-217.81 1471.52,-166.03 891.42,-157.26"/>
<polygon fill="midnightblue" stroke="midnightblue" points="5406.38,-229.04 5416.44,-225.69 5406.49,-222.04 5406.38,-229.04"/>
</g>
<!-- Node16 -->
<g id="node15" class="node">
<title>Node16</title>
<g id="a_node15"><a xlink:href="../../d8/d70/vtextmanager_8cpp.html" target="_top" xlink:title=" ">
<polygon fill="white" stroke="black" points="1322,-73 1322,-92 1504,-92 1504,-73 1322,-73"/>
<text text-anchor="middle" x="1413" y="-80" font-family="Helvetica,sans-Serif" font-size="10.00">src/libs/vlayout/vtextmanager.cpp</text>
</a>
</g>
</g>
<!-- Node2&#45;&gt;Node16 -->
<g id="edge17" class="edge">
<title>Node2&#45;&gt;Node16</title>
<path fill="none" stroke="midnightblue" d="M5406.34,-225.48C4961.68,-218.19 2314.51,-172.22 1513,-98 1497.19,-96.54 1480.06,-94.3 1464.52,-92.01"/>
<polygon fill="midnightblue" stroke="midnightblue" points="5406.38,-228.98 5416.44,-225.64 5406.49,-221.98 5406.38,-228.98"/>
</g>
<!-- Node17 -->
<g id="node16" class="node">
<title>Node17</title>
<g id="a_node16"><a xlink:href="../../d5/d74/vabstractapplication_8h.html" target="_top" xlink:title=" ">
<polygon fill="white" stroke="red" points="3439.5,-145.5 3439.5,-164.5 3634.5,-164.5 3634.5,-145.5 3439.5,-145.5"/>
<text text-anchor="middle" x="3537" y="-152.5" font-family="Helvetica,sans-Serif" font-size="10.00">src/libs/vmisc/vabstractapplication.h</text>
</a>
</g>
</g>
<!-- Node2&#45;&gt;Node17 -->
<g id="edge18" class="edge">
<title>Node2&#45;&gt;Node17</title>
<path fill="none" stroke="midnightblue" d="M5406.18,-224.17C5122.84,-213.84 3977.75,-172.07 3634.63,-159.56"/>
<polygon fill="midnightblue" stroke="midnightblue" points="5406.16,-227.67 5416.28,-224.54 5406.42,-220.68 5406.16,-227.67"/>
</g>
<!-- Node45 -->
<g id="node31" class="node">
<title>Node45</title>
<g id="a_node31"><a xlink:href="../../d6/d46/vcontainer_8cpp.html" target="_top" xlink:title=" ">
<polygon fill="white" stroke="black" points="4932.5,-67.5 4932.5,-97.5 5039.5,-97.5 5039.5,-67.5 4932.5,-67.5"/>
<text text-anchor="start" x="4940.5" y="-85.5" font-family="Helvetica,sans-Serif" font-size="10.00">src/libs/vpatterndb</text>
<text text-anchor="middle" x="4986" y="-74.5" font-family="Helvetica,sans-Serif" font-size="10.00">/vcontainer.cpp</text>
</a>
</g>
</g>
<!-- Node2&#45;&gt;Node45 -->
<g id="edge52" class="edge">
<title>Node2&#45;&gt;Node45</title>
<path fill="none" stroke="midnightblue" d="M5406.34,-225.49C5335.47,-222.49 5218.6,-211.9 5125,-176 5076.01,-157.21 5026.81,-118.75 5002.19,-97.83"/>
<polygon fill="midnightblue" stroke="midnightblue" points="5406.33,-228.99 5416.46,-225.88 5406.6,-221.99 5406.33,-228.99"/>
</g>
<!-- Node46 -->
<g id="node32" class="node">
<title>Node46</title>
<g id="a_node32"><a xlink:href="../../db/d11/vformula_8cpp.html" target="_top" xlink:title=" ">
<polygon fill="white" stroke="black" points="5057.5,-67.5 5057.5,-97.5 5164.5,-97.5 5164.5,-67.5 5057.5,-67.5"/>
<text text-anchor="start" x="5065.5" y="-85.5" font-family="Helvetica,sans-Serif" font-size="10.00">src/libs/vpatterndb</text>
<text text-anchor="middle" x="5111" y="-74.5" font-family="Helvetica,sans-Serif" font-size="10.00">/vformula.cpp</text>
</a>
</g>
</g>
<!-- Node2&#45;&gt;Node46 -->
<g id="edge54" class="edge">
<title>Node2&#45;&gt;Node46</title>
<path fill="none" stroke="midnightblue" d="M5406.24,-222.56C5327.81,-216.63 5200.34,-203.07 5162,-176 5134.88,-156.86 5120.62,-118.54 5114.59,-97.74"/>
<polygon fill="midnightblue" stroke="midnightblue" points="5406.27,-226.08 5416.5,-223.32 5406.78,-219.09 5406.27,-226.08"/>
</g>
<!-- Node47 -->
<g id="node33" class="node">
<title>Node47</title>
<g id="a_node33"><a xlink:href="../../df/d7a/vpiece_8cpp.html" target="_top" xlink:title=" ">
<polygon fill="white" stroke="black" points="5827.5,-67.5 5827.5,-97.5 5934.5,-97.5 5934.5,-67.5 5827.5,-67.5"/>
<text text-anchor="start" x="5835.5" y="-85.5" font-family="Helvetica,sans-Serif" font-size="10.00">src/libs/vpatterndb</text>
<text text-anchor="middle" x="5881" y="-74.5" font-family="Helvetica,sans-Serif" font-size="10.00">/vpiece.cpp</text>
</a>
</g>
</g>
<!-- Node2&#45;&gt;Node47 -->
<g id="edge56" class="edge">
<title>Node2&#45;&gt;Node47</title>
<path fill="none" stroke="midnightblue" d="M5533.78,-222.86C5641.46,-216.08 5849.91,-199.99 5873,-176 5893.12,-155.09 5888.9,-117.86 5884.62,-97.59"/>
<polygon fill="midnightblue" stroke="midnightblue" points="5533.44,-219.37 5523.68,-223.48 5533.88,-226.36 5533.44,-219.37"/>
</g>
<!-- Node49 -->
<g id="node35" class="node">
<title>Node49</title>
<g id="a_node35"><a xlink:href="../../d8/dba/vpiecenode_8cpp.html" target="_top" xlink:title=" ">
<polygon fill="white" stroke="black" points="5038.5,-0.5 5038.5,-30.5 5145.5,-30.5 5145.5,-0.5 5038.5,-0.5"/>
<text text-anchor="start" x="5046.5" y="-18.5" font-family="Helvetica,sans-Serif" font-size="10.00">src/libs/vpatterndb</text>
<text text-anchor="middle" x="5092" y="-7.5" font-family="Helvetica,sans-Serif" font-size="10.00">/vpiecenode.cpp</text>
</a>
</g>
</g>
<!-- Node2&#45;&gt;Node49 -->
<g id="edge55" class="edge">
<title>Node2&#45;&gt;Node49</title>
<path fill="none" stroke="midnightblue" d="M5406.16,-223.42C5336.05,-218.55 5230.04,-206.27 5205,-176 5193.1,-161.62 5194.29,-149.29 5205,-134 5231.86,-95.65 5277.14,-136.35 5304,-98 5311.9,-86.72 5312.54,-77.81 5304,-67 5284.62,-42.47 5201.93,-28.56 5145.73,-21.79"/>
<polygon fill="midnightblue" stroke="midnightblue" points="5406.03,-226.92 5416.24,-224.09 5406.49,-219.94 5406.03,-226.92"/>
</g>
<!-- Node63 -->
<g id="node44" class="node">
<title>Node63</title>
<g id="a_node44"><a xlink:href="../../d3/d02/custom__variable__p_8h.html" target="_top" xlink:title=" ">
<polygon fill="white" stroke="red" points="5214.5,-140 5214.5,-170 5383.5,-170 5383.5,-140 5214.5,-140"/>
<text text-anchor="start" x="5222.5" y="-158" font-family="Helvetica,sans-Serif" font-size="10.00">src/libs/vpatterndb</text>
<text text-anchor="middle" x="5299" y="-147" font-family="Helvetica,sans-Serif" font-size="10.00">/variables/custom_variable_p.h</text>
</a>
</g>
</g>
<!-- Node2&#45;&gt;Node63 -->
<g id="edge50" class="edge">
<title>Node2&#45;&gt;Node63</title>
<path fill="none" stroke="midnightblue" d="M5426.34,-208.5C5397.38,-196.56 5359.91,-181.11 5333.13,-170.07"/>
<polygon fill="midnightblue" stroke="midnightblue" points="5425.23,-211.83 5435.81,-212.4 5427.9,-205.36 5425.23,-211.83"/>
</g>
<!-- Node65 -->
<g id="node45" class="node">
<title>Node65</title>
<g id="a_node45"><a xlink:href="../../d7/d8a/measurement__variable__p_8h.html" target="_top" xlink:title=" ">
<polygon fill="white" stroke="red" points="5402,-134.5 5402,-175.5 5538,-175.5 5538,-134.5 5402,-134.5"/>
<text text-anchor="start" x="5410" y="-163.5" font-family="Helvetica,sans-Serif" font-size="10.00">src/libs/vpatterndb</text>
<text text-anchor="start" x="5410" y="-152.5" font-family="Helvetica,sans-Serif" font-size="10.00">/variables/measurement</text>
<text text-anchor="middle" x="5470" y="-141.5" font-family="Helvetica,sans-Serif" font-size="10.00">_variable_p.h</text>
</a>
</g>
</g>
<!-- Node2&#45;&gt;Node65 -->
<g id="edge51" class="edge">
<title>Node2&#45;&gt;Node65</title>
<path fill="none" stroke="midnightblue" d="M5470,-201.98C5470,-193.35 5470,-183.76 5470,-175.59"/>
<polygon fill="midnightblue" stroke="midnightblue" points="5466.5,-202.23 5470,-212.23 5473.5,-202.23 5466.5,-202.23"/>
</g>
<!-- Node2&#45;&gt;Node67 -->
<g id="edge53" class="edge">
<title>Node2&#45;&gt;Node67</title>
<path fill="none" stroke="midnightblue" d="M5533.75,-226.65C5654.4,-225.86 5923.97,-218.93 6146,-176 6153.77,-174.5 6161.93,-172.35 6169.71,-170.02"/>
<polygon fill="midnightblue" stroke="midnightblue" points="5533.56,-223.15 5523.58,-226.71 5533.6,-230.15 5533.56,-223.15"/>
</g>
<!-- Node2&#45;&gt;Node68 -->
<g id="edge57" class="edge">
<title>Node2&#45;&gt;Node68</title>
<path fill="none" stroke="midnightblue" d="M5533.93,-224.49C5697.84,-219 6130.03,-202.41 6271,-176 6278.78,-174.54 6286.95,-172.42 6294.72,-170.09"/>
<polygon fill="midnightblue" stroke="midnightblue" points="5533.41,-221 5523.53,-224.83 5533.64,-228 5533.41,-221"/>
</g>
<!-- Node69 -->
<g id="node48" class="node">
<title>Node69</title>
<g id="a_node48"><a xlink:href="../../d1/d3a/abstracttest_8cpp.html" target="_top" xlink:title=" ">
<polygon fill="white" stroke="black" points="5556.5,-145.5 5556.5,-164.5 5717.5,-164.5 5717.5,-145.5 5556.5,-145.5"/>
<text text-anchor="middle" x="5637" y="-152.5" font-family="Helvetica,sans-Serif" font-size="10.00">src/libs/vtest/abstracttest.cpp</text>
</a>
</g>
</g>
<!-- Node2&#45;&gt;Node69 -->
<g id="edge58" class="edge">
<title>Node2&#45;&gt;Node69</title>
<path fill="none" stroke="midnightblue" d="M5512.92,-208.38C5546.32,-194.28 5591.17,-175.35 5616.79,-164.53"/>
<polygon fill="midnightblue" stroke="midnightblue" points="5511.25,-205.29 5503.39,-212.4 5513.97,-211.74 5511.25,-205.29"/>
</g>
<!-- Node70 -->
<g id="node49" class="node">
<title>Node70</title>
<g id="a_node49"><a xlink:href="../../da/db4/piece__tablewidgetitem_8cpp.html" target="_top" xlink:title=" ">
<polygon fill="white" stroke="black" points="5736,-140 5736,-170 5864,-170 5864,-140 5736,-140"/>
<text text-anchor="start" x="5744" y="-158" font-family="Helvetica,sans-Serif" font-size="10.00">src/libs/vwidgets/piece</text>
<text text-anchor="middle" x="5800" y="-147" font-family="Helvetica,sans-Serif" font-size="10.00">_tablewidgetitem.cpp</text>
</a>
</g>
</g>
<!-- Node2&#45;&gt;Node70 -->
<g id="edge59" class="edge">
<title>Node2&#45;&gt;Node70</title>
<path fill="none" stroke="midnightblue" d="M5533.75,-215.19C5585.7,-205.67 5660.86,-191.21 5726,-176 5733.78,-174.18 5741.97,-172.12 5749.96,-170.03"/>
<polygon fill="midnightblue" stroke="midnightblue" points="5532.88,-211.79 5523.67,-217.03 5534.14,-218.68 5532.88,-211.79"/>
</g>
<!-- Node4&#45;&gt;Node5 -->
<g id="edge4" class="edge">
<title>Node4&#45;&gt;Node5</title>
<path fill="none" stroke="midnightblue" d="M6048,-134.94C6048,-121.03 6048,-102.82 6048,-92.22"/>
<polygon fill="midnightblue" stroke="midnightblue" points="6044.5,-135.36 6048,-145.36 6051.5,-135.36 6044.5,-135.36"/>
</g>
<!-- Node7 -->
<g id="node7" class="node">
<title>Node7</title>
<g id="a_node7"><a xlink:href="../../dd/d66/vdxfengine_8cpp.html" target="_top" xlink:title=" ">
<polygon fill="white" stroke="black" points="954,-73 954,-92 1108,-92 1108,-73 954,-73"/>
<text text-anchor="middle" x="1031" y="-80" font-family="Helvetica,sans-Serif" font-size="10.00">src/libs/vdxf/vdxfengine.cpp</text>
</a>
</g>
</g>
<!-- Node6&#45;&gt;Node7 -->
<g id="edge7" class="edge">
<title>Node6&#45;&gt;Node7</title>
<path fill="none" stroke="midnightblue" d="M844.51,-142.46C889.28,-128.3 964.1,-104.65 1004.01,-92.03"/>
<polygon fill="midnightblue" stroke="midnightblue" points="843.38,-139.14 834.9,-145.5 845.49,-145.82 843.38,-139.14"/>
</g>
<!-- Node8 -->
<g id="node8" class="node">
<title>Node8</title>
<g id="a_node8"><a xlink:href="../../de/da8/vbank_8cpp.html" target="_top" xlink:title=" ">
<polygon fill="white" stroke="black" points="0,-73 0,-92 144,-92 144,-73 0,-73"/>
<text text-anchor="middle" x="72" y="-80" font-family="Helvetica,sans-Serif" font-size="10.00">src/libs/vlayout/vbank.cpp</text>
</a>
</g>
</g>
<!-- Node6&#45;&gt;Node8 -->
<g id="edge8" class="edge">
<title>Node6&#45;&gt;Node8</title>
<path fill="none" stroke="midnightblue" d="M714.66,-148.73C587.34,-140.91 352.26,-124.3 153,-98 140.82,-96.39 127.68,-94.23 115.6,-92.06"/>
<polygon fill="midnightblue" stroke="midnightblue" points="714.57,-152.23 724.76,-149.34 714.99,-145.24 714.57,-152.23"/>
</g>
<!-- Node9 -->
<g id="node9" class="node">
<title>Node9</title>
<g id="a_node9"><a xlink:href="../../d3/d39/vlayoutgenerator_8cpp.html" target="_top" xlink:title=" ">
<polygon fill="white" stroke="black" points="162.5,-73 162.5,-92 359.5,-92 359.5,-73 162.5,-73"/>
<text text-anchor="middle" x="261" y="-80" font-family="Helvetica,sans-Serif" font-size="10.00">src/libs/vlayout/vlayoutgenerator.cpp</text>
</a>
</g>
</g>
<!-- Node6&#45;&gt;Node9 -->
<g id="edge9" class="edge">
<title>Node6&#45;&gt;Node9</title>
<path fill="none" stroke="midnightblue" d="M729.77,-144.18C641.96,-133.12 495.23,-114.52 369,-98 354.37,-96.08 338.63,-93.99 323.81,-92"/>
<polygon fill="midnightblue" stroke="midnightblue" points="729.56,-147.68 739.92,-145.46 730.44,-140.73 729.56,-147.68"/>
</g>
<!-- Node10 -->
<g id="node10" class="node">
<title>Node10</title>
<g id="a_node10"><a xlink:href="../../df/d5d/vcontour_8cpp.html" target="_top" xlink:title=" ">
<polygon fill="white" stroke="black" points="378,-73 378,-92 534,-92 534,-73 378,-73"/>
<text text-anchor="middle" x="456" y="-80" font-family="Helvetica,sans-Serif" font-size="10.00">src/libs/vlayout/vcontour.cpp</text>
</a>
</g>
</g>
<!-- Node6&#45;&gt;Node10 -->
<g id="edge10" class="edge">
<title>Node6&#45;&gt;Node10</title>
<path fill="none" stroke="midnightblue" d="M755.62,-143.51C685.69,-129.5 563.18,-104.97 498.61,-92.03"/>
<polygon fill="midnightblue" stroke="midnightblue" points="755.05,-146.96 765.54,-145.5 756.42,-140.1 755.05,-146.96"/>
</g>
<!-- Node11 -->
<g id="node11" class="node">
<title>Node11</title>
<g id="a_node11"><a xlink:href="../../d2/d2d/vlayoutpaper__p_8h.html" target="_top" xlink:title=" ">
<polygon fill="white" stroke="black" points="718.5,-73 718.5,-92 897.5,-92 897.5,-73 718.5,-73"/>
<text text-anchor="middle" x="808" y="-80" font-family="Helvetica,sans-Serif" font-size="10.00">src/libs/vlayout/vlayoutpaper_p.h</text>
</a>
</g>
</g>
<!-- Node6&#45;&gt;Node11 -->
<g id="edge11" class="edge">
<title>Node6&#45;&gt;Node11</title>
<path fill="none" stroke="midnightblue" d="M808,-134.94C808,-121.03 808,-102.82 808,-92.22"/>
<polygon fill="midnightblue" stroke="midnightblue" points="804.5,-135.36 808,-145.36 811.5,-135.36 804.5,-135.36"/>
</g>
<!-- Node12 -->
<g id="node12" class="node">
<title>Node12</title>
<g id="a_node12"><a xlink:href="../../d1/dd1/vlayoutpaper_8cpp.html" target="_top" xlink:title=" ">
<polygon fill="white" stroke="black" points="719,-6 719,-25 897,-25 897,-6 719,-6"/>
<text text-anchor="middle" x="808" y="-13" font-family="Helvetica,sans-Serif" font-size="10.00">src/libs/vlayout/vlayoutpaper.cpp</text>
</a>
</g>
</g>
<!-- Node6&#45;&gt;Node12 -->
<g id="edge13" class="edge">
<title>Node6&#45;&gt;Node12</title>
<path fill="none" stroke="midnightblue" d="M848.69,-141.81C869.77,-133.2 893.63,-119.31 906,-98 912.92,-86.08 913.17,-78.76 906,-67 892.65,-45.1 866.42,-32.29 844.46,-25.06"/>
<polygon fill="midnightblue" stroke="midnightblue" points="847.35,-138.58 839.25,-145.41 849.84,-145.12 847.35,-138.58"/>
</g>
<!-- Node13 -->
<g id="node13" class="node">
<title>Node13</title>
<g id="a_node13"><a xlink:href="../../db/d5c/vposition_8h.html" target="_top" xlink:title=" ">
<polygon fill="white" stroke="red" points="552,-73 552,-92 700,-92 700,-73 552,-73"/>
<text text-anchor="middle" x="626" y="-80" font-family="Helvetica,sans-Serif" font-size="10.00">src/libs/vlayout/vposition.h</text>
</a>
</g>
</g>
<!-- Node6&#45;&gt;Node13 -->
<g id="edge14" class="edge">
<title>Node6&#45;&gt;Node13</title>
<path fill="none" stroke="midnightblue" d="M776.34,-141.74C739.62,-127.51 680.05,-104.44 648.03,-92.03"/>
<polygon fill="midnightblue" stroke="midnightblue" points="775.46,-145.15 786.05,-145.5 777.99,-138.62 775.46,-145.15"/>
</g>
<!-- Node15 -->
<g id="node14" class="node">
<title>Node15</title>
<g id="a_node14"><a xlink:href="../../dd/d70/vlayoutpiece_8cpp.html" target="_top" xlink:title=" ">
<polygon fill="white" stroke="black" points="1126.5,-73 1126.5,-92 1303.5,-92 1303.5,-73 1126.5,-73"/>
<text text-anchor="middle" x="1215" y="-80" font-family="Helvetica,sans-Serif" font-size="10.00">src/libs/vlayout/vlayoutpiece.cpp</text>
</a>
</g>
</g>
<!-- Node6&#45;&gt;Node15 -->
<g id="edge16" class="edge">
<title>Node6&#45;&gt;Node15</title>
<path fill="none" stroke="midnightblue" d="M867.08,-143.77C947.67,-129.81 1090.61,-105.05 1165.73,-92.03"/>
<polygon fill="midnightblue" stroke="midnightblue" points="866.35,-140.34 857.09,-145.5 867.54,-147.24 866.35,-140.34"/>
</g>
<!-- Node11&#45;&gt;Node12 -->
<g id="edge12" class="edge">
<title>Node11&#45;&gt;Node12</title>
<path fill="none" stroke="midnightblue" d="M808,-62.54C808,-50.17 808,-34.62 808,-25.13"/>
<polygon fill="midnightblue" stroke="midnightblue" points="804.5,-62.73 808,-72.73 811.5,-62.73 804.5,-62.73"/>
</g>
<!-- Node13&#45;&gt;Node12 -->
<g id="edge15" class="edge">
<title>Node13&#45;&gt;Node12</title>
<path fill="none" stroke="midnightblue" d="M659.78,-69.44C695.88,-56.54 752.21,-36.42 784.02,-25.06"/>
<polygon fill="midnightblue" stroke="midnightblue" points="658.41,-66.21 650.17,-72.87 660.76,-72.8 658.41,-66.21"/>
</g>
<!-- Node17&#45;&gt;Node3 -->
<g id="edge21" class="edge">
<title>Node17&#45;&gt;Node3</title>
<path fill="none" stroke="midnightblue" d="M3644.59,-152.87C3959.53,-149.17 4875.93,-135.4 5173,-98 5176.26,-97.59 5179.59,-97.1 5182.95,-96.54"/>
<polygon fill="midnightblue" stroke="midnightblue" points="3644.51,-149.37 3634.55,-152.99 3644.59,-156.37 3644.51,-149.37"/>
</g>
<!-- Node17&#45;&gt;Node15 -->
<g id="edge32" class="edge">
<title>Node17&#45;&gt;Node15</title>
<path fill="none" stroke="midnightblue" d="M3429.34,-153.03C3043.59,-149.27 1731.37,-134.08 1313,-98 1297.15,-96.63 1279.96,-94.36 1264.47,-92.02"/>
<polygon fill="midnightblue" stroke="midnightblue" points="3429.35,-156.53 3439.38,-153.12 3429.41,-149.53 3429.35,-156.53"/>
</g>
<!-- Node17&#45;&gt;Node16 -->
<g id="edge31" class="edge">
<title>Node17&#45;&gt;Node16</title>
<path fill="none" stroke="midnightblue" d="M3429.09,-151.75C3037.44,-143.49 1703.88,-114.42 1513,-98 1496.92,-96.62 1479.48,-94.35 1463.74,-92.02"/>
<polygon fill="midnightblue" stroke="midnightblue" points="3429.22,-155.25 3439.29,-151.97 3429.36,-148.26 3429.22,-155.25"/>
</g>
<!-- Node18 -->
<g id="node17" class="node">
<title>Node18</title>
<g id="a_node17"><a xlink:href="../../d4/d90/fvupdater_8cpp.html" target="_top" xlink:title=" ">
<polygon fill="white" stroke="black" points="3098.5,-73 3098.5,-92 3251.5,-92 3251.5,-73 3098.5,-73"/>
<text text-anchor="middle" x="3175" y="-80" font-family="Helvetica,sans-Serif" font-size="10.00">src/libs/fervor/fvupdater.cpp</text>
</a>
</g>
</g>
<!-- Node17&#45;&gt;Node18 -->
<g id="edge19" class="edge">
<title>Node17&#45;&gt;Node18</title>
<path fill="none" stroke="midnightblue" d="M3483.13,-143.51C3411.22,-129.5 3285.23,-104.97 3218.82,-92.03"/>
<polygon fill="midnightblue" stroke="midnightblue" points="3482.85,-147.02 3493.33,-145.5 3484.19,-140.15 3482.85,-147.02"/>
</g>
<!-- Node19 -->
<g id="node18" class="node">
<title>Node19</title>
<g id="a_node18"><a xlink:href="../../d1/d8d/image__item_8h.html" target="_top" xlink:title=" ">
<polygon fill="white" stroke="red" points="3270,-67.5 3270,-97.5 3382,-97.5 3382,-67.5 3270,-67.5"/>
<text text-anchor="start" x="3278" y="-85.5" font-family="Helvetica,sans-Serif" font-size="10.00">src/libs/tools/image</text>
<text text-anchor="middle" x="3326" y="-74.5" font-family="Helvetica,sans-Serif" font-size="10.00">_item.h</text>
</a>
</g>
</g>
<!-- Node17&#45;&gt;Node19 -->
<g id="edge20" class="edge">
<title>Node17&#45;&gt;Node19</title>
<path fill="none" stroke="midnightblue" d="M3501.74,-142.22C3464.89,-129.91 3407.08,-110.59 3367.92,-97.51"/>
<polygon fill="midnightblue" stroke="midnightblue" points="3500.95,-145.65 3511.55,-145.5 3503.17,-139.01 3500.95,-145.65"/>
</g>
<!-- Node29 -->
<g id="node19" class="node">
<title>Node29</title>
<g id="a_node19"><a xlink:href="../../d9/dc8/dxiface_8cpp.html" target="_top" xlink:title=" ">
<polygon fill="white" stroke="black" points="3400.5,-73 3400.5,-92 3535.5,-92 3535.5,-73 3400.5,-73"/>
<text text-anchor="middle" x="3468" y="-80" font-family="Helvetica,sans-Serif" font-size="10.00">src/libs/vdxf/dxiface.cpp</text>
</a>
</g>
</g>
<!-- Node17&#45;&gt;Node29 -->
<g id="edge22" class="edge">
<title>Node17&#45;&gt;Node29</title>
<path fill="none" stroke="midnightblue" d="M3521.53,-138.19C3507.63,-123.99 3487.74,-103.67 3476.53,-92.22"/>
<polygon fill="midnightblue" stroke="midnightblue" points="3519.04,-140.66 3528.54,-145.36 3524.05,-135.76 3519.04,-140.66"/>
</g>
<!-- Node30 -->
<g id="node20" class="node">
<title>Node30</title>
<g id="a_node20"><a xlink:href="../../da/d75/vabstractarc__p_8h.html" target="_top" xlink:title=" ">
<polygon fill="white" stroke="red" points="3553.5,-67.5 3553.5,-97.5 3660.5,-97.5 3660.5,-67.5 3553.5,-67.5"/>
<text text-anchor="start" x="3561.5" y="-85.5" font-family="Helvetica,sans-Serif" font-size="10.00">src/libs/vgeometry</text>
<text text-anchor="middle" x="3607" y="-74.5" font-family="Helvetica,sans-Serif" font-size="10.00">/vabstractarc_p.h</text>
</a>
</g>
</g>
<!-- Node17&#45;&gt;Node30 -->
<g id="edge23" class="edge">
<title>Node17&#45;&gt;Node30</title>
<path fill="none" stroke="midnightblue" d="M3552.79,-138.09C3564.89,-125.91 3581.41,-109.27 3593.02,-97.58"/>
<polygon fill="midnightblue" stroke="midnightblue" points="3550.15,-135.79 3545.58,-145.36 3555.11,-140.73 3550.15,-135.79"/>
</g>
<!-- Node32 -->
<g id="node21" class="node">
<title>Node32</title>
<g id="a_node21"><a xlink:href="../../dc/da3/varc__p_8h.html" target="_top" xlink:title=" ">
<polygon fill="white" stroke="red" points="3678.5,-67.5 3678.5,-97.5 3785.5,-97.5 3785.5,-67.5 3678.5,-67.5"/>
<text text-anchor="start" x="3686.5" y="-85.5" font-family="Helvetica,sans-Serif" font-size="10.00">src/libs/vgeometry</text>
<text text-anchor="middle" x="3732" y="-74.5" font-family="Helvetica,sans-Serif" font-size="10.00">/varc_p.h</text>
</a>
</g>
</g>
<!-- Node17&#45;&gt;Node32 -->
<g id="edge24" class="edge">
<title>Node17&#45;&gt;Node32</title>
<path fill="none" stroke="midnightblue" d="M3570.02,-142.06C3604.1,-129.74 3657.22,-110.54 3693.26,-97.51"/>
<polygon fill="midnightblue" stroke="midnightblue" points="3568.74,-138.8 3560.52,-145.5 3571.12,-145.39 3568.74,-138.8"/>
</g>
<!-- Node34 -->
<g id="node22" class="node">
<title>Node34</title>
<g id="a_node22"><a xlink:href="../../d5/d8e/vcubicbezier__p_8h.html" target="_top" xlink:title=" ">
<polygon fill="white" stroke="red" points="3803.5,-67.5 3803.5,-97.5 3910.5,-97.5 3910.5,-67.5 3803.5,-67.5"/>
<text text-anchor="start" x="3811.5" y="-85.5" font-family="Helvetica,sans-Serif" font-size="10.00">src/libs/vgeometry</text>
<text text-anchor="middle" x="3857" y="-74.5" font-family="Helvetica,sans-Serif" font-size="10.00">/vcubicbezier_p.h</text>
</a>
</g>
</g>
<!-- Node17&#45;&gt;Node34 -->
<g id="edge25" class="edge">
<title>Node17&#45;&gt;Node34</title>
<path fill="none" stroke="midnightblue" d="M3587.03,-143.28C3638.85,-132.13 3722.15,-114.1 3794,-98 3797.07,-97.31 3800.22,-96.6 3803.39,-95.88"/>
<polygon fill="midnightblue" stroke="midnightblue" points="3586.14,-139.89 3577.1,-145.41 3587.61,-146.73 3586.14,-139.89"/>
</g>
<!-- Node36 -->
<g id="node23" class="node">
<title>Node36</title>
<g id="a_node23"><a xlink:href="../../df/dde/vellipticalarc__p_8h.html" target="_top" xlink:title=" ">
<polygon fill="white" stroke="black" points="1647.5,-67.5 1647.5,-97.5 1754.5,-97.5 1754.5,-67.5 1647.5,-67.5"/>
<text text-anchor="start" x="1655.5" y="-85.5" font-family="Helvetica,sans-Serif" font-size="10.00">src/libs/vgeometry</text>
<text text-anchor="middle" x="1701" y="-74.5" font-family="Helvetica,sans-Serif" font-size="10.00">/vellipticalarc_p.h</text>
</a>
</g>
</g>
<!-- Node17&#45;&gt;Node36 -->
<g id="edge26" class="edge">
<title>Node17&#45;&gt;Node36</title>
<path fill="none" stroke="midnightblue" d="M3429.3,-151.82C3070.38,-144.39 1928.39,-119.31 1764,-98 1760.99,-97.61 1757.92,-97.14 1754.83,-96.62"/>
<polygon fill="midnightblue" stroke="midnightblue" points="3429.36,-155.32 3439.43,-152.03 3429.5,-148.32 3429.36,-155.32"/>
</g>
<!-- Node37 -->
<g id="node24" class="node">
<title>Node37</title>
<g id="a_node24"><a xlink:href="../../d6/dfb/vellipticalarc_8cpp.html" target="_top" xlink:title=" ">
<polygon fill="white" stroke="black" points="2766.5,-0.5 2766.5,-30.5 2873.5,-30.5 2873.5,-0.5 2766.5,-0.5"/>
<text text-anchor="start" x="2774.5" y="-18.5" font-family="Helvetica,sans-Serif" font-size="10.00">src/libs/vgeometry</text>
<text text-anchor="middle" x="2820" y="-7.5" font-family="Helvetica,sans-Serif" font-size="10.00">/vellipticalarc.cpp</text>
</a>
</g>
</g>
<!-- Node17&#45;&gt;Node37 -->
<g id="edge28" class="edge">
<title>Node17&#45;&gt;Node37</title>
<path fill="none" stroke="midnightblue" d="M3644.89,-153.34C3745.17,-150.16 3884.15,-138.33 3919,-98 3928.01,-87.58 3928.52,-76.96 3919,-67 3882.54,-28.82 3089.1,-18.92 2873.6,-16.93"/>
<polygon fill="midnightblue" stroke="midnightblue" points="3644.6,-149.85 3634.7,-153.64 3644.8,-156.85 3644.6,-149.85"/>
</g>
<!-- Node38 -->
<g id="node25" class="node">
<title>Node38</title>
<g id="a_node25"><a xlink:href="../../d1/d76/vspline__p_8h.html" target="_top" xlink:title=" ">
<polygon fill="white" stroke="red" points="3967.5,-67.5 3967.5,-97.5 4074.5,-97.5 4074.5,-67.5 3967.5,-67.5"/>
<text text-anchor="start" x="3975.5" y="-85.5" font-family="Helvetica,sans-Serif" font-size="10.00">src/libs/vgeometry</text>
<text text-anchor="middle" x="4021" y="-74.5" font-family="Helvetica,sans-Serif" font-size="10.00">/vspline_p.h</text>
</a>
</g>
</g>
<!-- Node17&#45;&gt;Node38 -->
<g id="edge29" class="edge">
<title>Node17&#45;&gt;Node38</title>
<path fill="none" stroke="midnightblue" d="M3623.61,-144.29C3707.96,-134.38 3839.68,-117.68 3953,-98 3957.64,-97.19 3962.44,-96.3 3967.25,-95.36"/>
<polygon fill="midnightblue" stroke="midnightblue" points="3623.08,-140.83 3613.56,-145.47 3623.9,-147.78 3623.08,-140.83"/>
</g>
<!-- Node40 -->
<g id="node26" class="node">
<title>Node40</title>
<g id="a_node26"><a xlink:href="../../d9/d15/vabstractpiece_8cpp.html" target="_top" xlink:title=" ">
<polygon fill="white" stroke="black" points="4093,-73 4093,-92 4279,-92 4279,-73 4093,-73"/>
<text text-anchor="middle" x="4186" y="-80" font-family="Helvetica,sans-Serif" font-size="10.00">src/libs/vlayout/vabstractpiece.cpp</text>
</a>
</g>
</g>
<!-- Node17&#45;&gt;Node40 -->
<g id="edge30" class="edge">
<title>Node17&#45;&gt;Node40</title>
<path fill="none" stroke="midnightblue" d="M3640.93,-144.51C3750.88,-134.21 3929.36,-116.69 4083,-98 4097.7,-96.21 4113.55,-94.08 4128.31,-92.01"/>
<polygon fill="midnightblue" stroke="midnightblue" points="3640.47,-141.04 3630.84,-145.46 3641.12,-148.01 3640.47,-141.04"/>
</g>
<!-- Node41 -->
<g id="node27" class="node">
<title>Node41</title>
<g id="a_node27"><a xlink:href="../../d6/d0b/def_8cpp.html" target="_top" xlink:title=" ">
<polygon fill="white" stroke="black" points="4297,-73 4297,-92 4419,-92 4419,-73 4297,-73"/>
<text text-anchor="middle" x="4358" y="-80" font-family="Helvetica,sans-Serif" font-size="10.00">src/libs/vmisc/def.cpp</text>
</a>
</g>
</g>
<!-- Node17&#45;&gt;Node41 -->
<g id="edge33" class="edge">
<title>Node17&#45;&gt;Node41</title>
<path fill="none" stroke="midnightblue" d="M3644.97,-150.35C3791.28,-144.41 4060.4,-129.92 4288,-98 4298.94,-96.47 4310.73,-94.25 4321.46,-92"/>
<polygon fill="midnightblue" stroke="midnightblue" points="3644.5,-146.87 3634.65,-150.77 3644.78,-153.86 3644.5,-146.87"/>
</g>
<!-- Node42 -->
<g id="node28" class="node">
<title>Node42</title>
<g id="a_node28"><a xlink:href="../../db/d65/dialogexporttocsv_8cpp.html" target="_top" xlink:title=" ">
<polygon fill="white" stroke="black" points="4437.5,-67.5 4437.5,-97.5 4564.5,-97.5 4564.5,-67.5 4437.5,-67.5"/>
<text text-anchor="start" x="4445.5" y="-85.5" font-family="Helvetica,sans-Serif" font-size="10.00">src/libs/vmisc/dialogs</text>
<text text-anchor="middle" x="4501" y="-74.5" font-family="Helvetica,sans-Serif" font-size="10.00">/dialogexporttocsv.cpp</text>
</a>
</g>
</g>
<!-- Node17&#45;&gt;Node42 -->
<g id="edge34" class="edge">
<title>Node17&#45;&gt;Node42</title>
<path fill="none" stroke="midnightblue" d="M3644.73,-151.86C3812.7,-147.48 4146.91,-134.58 4428,-98 4431.08,-97.6 4434.22,-97.15 4437.38,-96.66"/>
<polygon fill="midnightblue" stroke="midnightblue" points="3644.55,-148.36 3634.64,-152.12 3644.73,-155.36 3644.55,-148.36"/>
</g>
<!-- Node43 -->
<g id="node29" class="node">
<title>Node43</title>
<g id="a_node29"><a xlink:href="../../d0/df6/vabstractapplication_8cpp.html" target="_top" xlink:title=" ">
<polygon fill="white" stroke="black" points="4583,-73 4583,-92 4789,-92 4789,-73 4583,-73"/>
<text text-anchor="middle" x="4686" y="-80" font-family="Helvetica,sans-Serif" font-size="10.00">src/libs/vmisc/vabstractapplication.cpp</text>
</a>
</g>
</g>
<!-- Node17&#45;&gt;Node43 -->
<g id="edge35" class="edge">
<title>Node17&#45;&gt;Node43</title>
<path fill="none" stroke="midnightblue" d="M3644.85,-150.79C3833.38,-144.58 4235.03,-128.78 4573,-98 4590.24,-96.43 4608.89,-94.24 4625.98,-92.04"/>
<polygon fill="midnightblue" stroke="midnightblue" points="3644.54,-147.29 3634.66,-151.12 3644.77,-154.29 3644.54,-147.29"/>
</g>
<!-- Node44 -->
<g id="node30" class="node">
<title>Node44</title>
<g id="a_node30"><a xlink:href="../../d4/d4f/pmsystems_8cpp.html" target="_top" xlink:title=" ">
<polygon fill="white" stroke="black" points="1522.5,-67.5 1522.5,-97.5 1629.5,-97.5 1629.5,-67.5 1522.5,-67.5"/>
<text text-anchor="start" x="1530.5" y="-85.5" font-family="Helvetica,sans-Serif" font-size="10.00">src/libs/vpatterndb</text>
<text text-anchor="middle" x="1576" y="-74.5" font-family="Helvetica,sans-Serif" font-size="10.00">/pmsystems.cpp</text>
</a>
</g>
</g>
<!-- Node17&#45;&gt;Node44 -->
<g id="edge36" class="edge">
<title>Node17&#45;&gt;Node44</title>
<path fill="none" stroke="midnightblue" d="M3429.39,-152.09C3053.95,-145.23 1815.25,-121.1 1638,-98 1635.26,-97.64 1632.46,-97.22 1629.65,-96.74"/>
<polygon fill="midnightblue" stroke="midnightblue" points="3429.38,-155.59 3439.44,-152.27 3429.51,-148.59 3429.38,-155.59"/>
</g>
<!-- Node17&#45;&gt;Node45 -->
<g id="edge37" class="edge">
<title>Node17&#45;&gt;Node45</title>
<path fill="none" stroke="midnightblue" d="M3644.99,-152.23C3926.24,-147.21 4676.62,-131.04 4923,-98 4926,-97.6 4929.07,-97.12 4932.16,-96.58"/>
<polygon fill="midnightblue" stroke="midnightblue" points="3644.71,-148.74 3634.78,-152.41 3644.84,-155.73 3644.71,-148.74"/>
</g>
<!-- Node17&#45;&gt;Node46 -->
<g id="edge38" class="edge">
<title>Node17&#45;&gt;Node46</title>
<path fill="none" stroke="midnightblue" d="M3645.09,-152.65C3943.82,-148.5 4776.51,-133.94 5048,-98 5051,-97.6 5054.08,-97.13 5057.17,-96.6"/>
<polygon fill="midnightblue" stroke="midnightblue" points="3644.64,-149.16 3634.69,-152.79 3644.73,-156.16 3644.64,-149.16"/>
</g>
<!-- Node17&#45;&gt;Node47 -->
<g id="edge39" class="edge">
<title>Node17&#45;&gt;Node47</title>
<path fill="none" stroke="midnightblue" d="M3644.87,-150.76C4057.33,-138.35 5526.5,-94.16 5827.05,-85.12"/>
<polygon fill="midnightblue" stroke="midnightblue" points="3644.62,-147.26 3634.73,-151.06 3644.84,-154.26 3644.62,-147.26"/>
</g>
<!-- Node48 -->
<g id="node34" class="node">
<title>Node48</title>
<g id="a_node34"><a xlink:href="../../df/dba/vpiecenode__p_8h.html" target="_top" xlink:title=" ">
<polygon fill="white" stroke="black" points="4807.5,-67.5 4807.5,-97.5 4914.5,-97.5 4914.5,-67.5 4807.5,-67.5"/>
<text text-anchor="start" x="4815.5" y="-85.5" font-family="Helvetica,sans-Serif" font-size="10.00">src/libs/vpatterndb</text>
<text text-anchor="middle" x="4861" y="-74.5" font-family="Helvetica,sans-Serif" font-size="10.00">/vpiecenode_p.h</text>
</a>
</g>
</g>
<!-- Node17&#45;&gt;Node48 -->
<g id="edge40" class="edge">
<title>Node17&#45;&gt;Node48</title>
<path fill="none" stroke="midnightblue" d="M3644.92,-151.73C3907.93,-145.79 4576.63,-128.14 4798,-98 4801,-97.59 4804.07,-97.11 4807.16,-96.57"/>
<polygon fill="midnightblue" stroke="midnightblue" points="3644.51,-148.24 3634.6,-151.96 3644.67,-155.24 3644.51,-148.24"/>
</g>
<!-- Node50 -->
<g id="node36" class="node">
<title>Node50</title>
<g id="a_node36"><a xlink:href="../../de/d3e/vtranslatevars_8cpp.html" target="_top" xlink:title=" ">
<polygon fill="white" stroke="black" points="1773,-67.5 1773,-97.5 1883,-97.5 1883,-67.5 1773,-67.5"/>
<text text-anchor="start" x="1781" y="-85.5" font-family="Helvetica,sans-Serif" font-size="10.00">src/libs/vpatterndb</text>
<text text-anchor="middle" x="1828" y="-74.5" font-family="Helvetica,sans-Serif" font-size="10.00">/vtranslatevars.cpp</text>
</a>
</g>
</g>
<!-- Node17&#45;&gt;Node50 -->
<g id="edge42" class="edge">
<title>Node17&#45;&gt;Node50</title>
<path fill="none" stroke="midnightblue" d="M3429.36,-152.99C3113.18,-149.6 2190.76,-136.58 1892,-98 1889.06,-97.62 1886.06,-97.17 1883.04,-96.66"/>
<polygon fill="midnightblue" stroke="midnightblue" points="3429.41,-156.49 3439.44,-153.1 3429.48,-149.49 3429.41,-156.49"/>
</g>
<!-- Node23 -->
<g id="node37" class="node">
<title>Node23</title>
<g id="a_node37"><a xlink:href="../../df/d40/export__format__combobox_8cpp.html" target="_top" xlink:title=" ">
<polygon fill="white" stroke="black" points="1901.5,-67.5 1901.5,-97.5 2034.5,-97.5 2034.5,-67.5 1901.5,-67.5"/>
<text text-anchor="start" x="1909.5" y="-85.5" font-family="Helvetica,sans-Serif" font-size="10.00">src/libs/vwidgets/export</text>
<text text-anchor="middle" x="1968" y="-74.5" font-family="Helvetica,sans-Serif" font-size="10.00">_format_combobox.cpp</text>
</a>
</g>
</g>
<!-- Node17&#45;&gt;Node23 -->
<g id="edge43" class="edge">
<title>Node17&#45;&gt;Node23</title>
<path fill="none" stroke="midnightblue" d="M3428.95,-152.07C3132.82,-146.44 2312.48,-128.47 2044,-98 2040.93,-97.65 2037.8,-97.25 2034.64,-96.8"/>
<polygon fill="midnightblue" stroke="midnightblue" points="3429.2,-155.57 3439.26,-152.26 3429.33,-148.57 3429.2,-155.57"/>
</g>
<!-- Node51 -->
<g id="node38" class="node">
<title>Node51</title>
<g id="a_node38"><a xlink:href="../../d3/d4f/mouse__coordinates_8cpp.html" target="_top" xlink:title=" ">
<polygon fill="white" stroke="black" points="2053,-67.5 2053,-97.5 2187,-97.5 2187,-67.5 2053,-67.5"/>
<text text-anchor="start" x="2061" y="-85.5" font-family="Helvetica,sans-Serif" font-size="10.00">src/libs/vwidgets/mouse</text>
<text text-anchor="middle" x="2120" y="-74.5" font-family="Helvetica,sans-Serif" font-size="10.00">_coordinates.cpp</text>
</a>
</g>
</g>
<!-- Node17&#45;&gt;Node51 -->
<g id="edge44" class="edge">
<title>Node17&#45;&gt;Node51</title>
<path fill="none" stroke="midnightblue" d="M3429.14,-154.85C3200.83,-155.47 2652.22,-150.76 2196,-98 2193.06,-97.66 2190.07,-97.27 2187.05,-96.85"/>
<polygon fill="midnightblue" stroke="midnightblue" points="3429.45,-158.35 3439.44,-154.82 3429.43,-151.35 3429.45,-158.35"/>
</g>
<!-- Node26 -->
<g id="node39" class="node">
<title>Node26</title>
<g id="a_node39"><a xlink:href="../../d2/d28/page__format__combobox_8cpp.html" target="_top" xlink:title=" ">
<polygon fill="white" stroke="black" points="2205.5,-67.5 2205.5,-97.5 2336.5,-97.5 2336.5,-67.5 2205.5,-67.5"/>
<text text-anchor="start" x="2213.5" y="-85.5" font-family="Helvetica,sans-Serif" font-size="10.00">src/libs/vwidgets/page</text>
<text text-anchor="middle" x="2271" y="-74.5" font-family="Helvetica,sans-Serif" font-size="10.00">_format_combobox.cpp</text>
</a>
</g>
</g>
<!-- Node17&#45;&gt;Node26 -->
<g id="edge45" class="edge">
<title>Node17&#45;&gt;Node26</title>
<path fill="none" stroke="midnightblue" d="M3429.17,-154.21C3219.53,-153.46 2742.64,-146.04 2345,-98 2342.27,-97.67 2339.49,-97.3 2336.69,-96.89"/>
<polygon fill="midnightblue" stroke="midnightblue" points="3429.24,-157.71 3439.25,-154.24 3429.27,-150.71 3429.24,-157.71"/>
</g>
<!-- Node52 -->
<g id="node40" class="node">
<title>Node52</title>
<g id="a_node40"><a xlink:href="../../d7/d1b/pen__toolbar_8cpp.html" target="_top" xlink:title=" ">
<polygon fill="white" stroke="black" points="2354.5,-67.5 2354.5,-97.5 2473.5,-97.5 2473.5,-67.5 2354.5,-67.5"/>
<text text-anchor="start" x="2362.5" y="-85.5" font-family="Helvetica,sans-Serif" font-size="10.00">src/libs/vwidgets/pen</text>
<text text-anchor="middle" x="2414" y="-74.5" font-family="Helvetica,sans-Serif" font-size="10.00">_toolbar.cpp</text>
</a>
</g>
</g>
<!-- Node17&#45;&gt;Node52 -->
<g id="edge46" class="edge">
<title>Node17&#45;&gt;Node52</title>
<path fill="none" stroke="midnightblue" d="M3429.12,-153.74C3237.75,-152.05 2826.62,-142.96 2483,-98 2479.97,-97.6 2476.87,-97.15 2473.74,-96.64"/>
<polygon fill="midnightblue" stroke="midnightblue" points="3429.15,-157.24 3439.18,-153.82 3429.21,-150.24 3429.15,-157.24"/>
</g>
<!-- Node53 -->
<g id="node41" class="node">
<title>Node53</title>
<g id="a_node41"><a xlink:href="../../d8/d76/scene__rect_8cpp.html" target="_top" xlink:title=" ">
<polygon fill="white" stroke="black" points="2492,-67.5 2492,-97.5 2622,-97.5 2622,-67.5 2492,-67.5"/>
<text text-anchor="start" x="2500" y="-85.5" font-family="Helvetica,sans-Serif" font-size="10.00">src/libs/vwidgets/scene</text>
<text text-anchor="middle" x="2557" y="-74.5" font-family="Helvetica,sans-Serif" font-size="10.00">_rect.cpp</text>
</a>
</g>
</g>
<!-- Node17&#45;&gt;Node53 -->
<g id="edge47" class="edge">
<title>Node17&#45;&gt;Node53</title>
<path fill="none" stroke="midnightblue" d="M3429.18,-151.93C3258.97,-147.62 2917.83,-134.8 2631,-98 2628.14,-97.63 2625.23,-97.22 2622.29,-96.78"/>
<polygon fill="midnightblue" stroke="midnightblue" points="3429.31,-155.43 3439.4,-152.18 3429.49,-148.43 3429.31,-155.43"/>
</g>
<!-- Node54 -->
<g id="node42" class="node">
<title>Node54</title>
<g id="a_node42"><a xlink:href="../../dd/df6/vabstractmainwindow_8cpp.html" target="_top" xlink:title=" ">
<polygon fill="white" stroke="black" points="2640.5,-73 2640.5,-92 2869.5,-92 2869.5,-73 2640.5,-73"/>
<text text-anchor="middle" x="2755" y="-80" font-family="Helvetica,sans-Serif" font-size="10.00">src/libs/vwidgets/vabstractmainwindow.cpp</text>
</a>
</g>
</g>
<!-- Node17&#45;&gt;Node54 -->
<g id="edge48" class="edge">
<title>Node17&#45;&gt;Node54</title>
<path fill="none" stroke="midnightblue" d="M3429.48,-145.94C3298.94,-135.91 3072.14,-117.69 2878,-98 2860.46,-96.22 2841.53,-94.09 2823.91,-92.02"/>
<polygon fill="midnightblue" stroke="midnightblue" points="3429.25,-149.44 3439.49,-146.71 3429.78,-142.46 3429.25,-149.44"/>
</g>
<!-- Node55 -->
<g id="node43" class="node">
<title>Node55</title>
<g id="a_node43"><a xlink:href="../../d1/d90/vgrainlineitem_8cpp.html" target="_top" xlink:title=" ">
<polygon fill="white" stroke="black" points="2887.5,-73 2887.5,-92 3080.5,-92 3080.5,-73 2887.5,-73"/>
<text text-anchor="middle" x="2984" y="-80" font-family="Helvetica,sans-Serif" font-size="10.00">src/libs/vwidgets/vgrainlineitem.cpp</text>
</a>
</g>
</g>
<!-- Node17&#45;&gt;Node55 -->
<g id="edge49" class="edge">
<title>Node17&#45;&gt;Node55</title>
<path fill="none" stroke="midnightblue" d="M3456.25,-144.22C3366.52,-133.29 3217.33,-114.88 3089,-98 3074.68,-96.12 3059.27,-94.02 3044.78,-92.03"/>
<polygon fill="midnightblue" stroke="midnightblue" points="3456,-147.72 3466.35,-145.45 3456.85,-140.77 3456,-147.72"/>
</g>
<!-- Node36&#45;&gt;Node37 -->
<g id="edge27" class="edge">
<title>Node36&#45;&gt;Node37</title>
<path fill="none" stroke="midnightblue" d="M1764.79,-67.11C1980.07,-39.33 2582.92,-22.43 2766.39,-17.8"/>
<polygon fill="midnightblue" stroke="midnightblue" points="1764.29,-63.65 1754.84,-68.44 1765.21,-70.59 1764.29,-63.65"/>
</g>
<!-- Node48&#45;&gt;Node49 -->
<g id="edge41" class="edge">
<title>Node48&#45;&gt;Node49</title>
<path fill="none" stroke="midnightblue" d="M4920.65,-64.71C4958.24,-54.14 5006.23,-40.63 5041.85,-30.61"/>
<polygon fill="midnightblue" stroke="midnightblue" points="4919.52,-61.4 4910.84,-67.48 4921.41,-68.14 4919.52,-61.4"/>
</g>
<!-- Node71&#45;&gt;Node47 -->
<g id="edge62" class="edge">
<title>Node71&#45;&gt;Node47</title>
<path fill="none" stroke="midnightblue" d="M6410.64,-202.18C6413.94,-181.13 6414.53,-151.41 6397,-134 6361.17,-98.42 5993.9,-105.68 5944,-98 5940.89,-97.52 5937.71,-96.97 5934.51,-96.38"/>
<polygon fill="midnightblue" stroke="midnightblue" points="6407.15,-201.82 6408.75,-212.29 6414.03,-203.1 6407.15,-201.82"/>
</g>
</g>
</svg>
