<?xml version="1.0" encoding="UTF-8" standalone="no"?>
<!DOCTYPE svg PUBLIC "-//W3C//DTD SVG 1.1//EN"
 "http://www.w3.org/Graphics/SVG/1.1/DTD/svg11.dtd">
<!-- Generated by graphviz version 2.43.0 (0)
 -->
<!-- Title: src/libs/vpatterndb/vpiecepath.h Pages: 1 -->
<svg width="6778pt" height="307pt"
 viewBox="0.00 0.00 6777.50 307.00" xmlns="http://www.w3.org/2000/svg" xmlns:xlink="http://www.w3.org/1999/xlink">
<g id="graph0" class="graph" transform="scale(1 1) rotate(0) translate(4 303)">
<title>src/libs/vpatterndb/vpiecepath.h</title>
<polygon fill="white" stroke="transparent" points="-4,4 -4,-303 6773.5,-303 6773.5,4 -4,4"/>
<!-- Node1 -->
<g id="node1" class="node">
<title>Node1</title>
<g id="a_node1"><a xlink:title=" ">
<polygon fill="#bfbfbf" stroke="black" points="6496.5,-268.5 6496.5,-298.5 6603.5,-298.5 6603.5,-268.5 6496.5,-268.5"/>
<text text-anchor="start" x="6504.5" y="-286.5" font-family="Helvetica,sans-Serif" font-size="10.00">src/libs/vpatterndb</text>
<text text-anchor="middle" x="6550" y="-275.5" font-family="Helvetica,sans-Serif" font-size="10.00">/vpiecepath.h</text>
</a>
</g>
</g>
<!-- Node2 -->
<g id="node2" class="node">
<title>Node2</title>
<g id="a_node2"><a xlink:href="../../d3/df7/vcontainer_8h.html" target="_top" xlink:title=" ">
<polygon fill="white" stroke="black" points="5697.5,-201.5 5697.5,-231.5 5804.5,-231.5 5804.5,-201.5 5697.5,-201.5"/>
<text text-anchor="start" x="5705.5" y="-219.5" font-family="Helvetica,sans-Serif" font-size="10.00">src/libs/vpatterndb</text>
<text text-anchor="middle" x="5751" y="-208.5" font-family="Helvetica,sans-Serif" font-size="10.00">/vcontainer.h</text>
</a>
</g>
</g>
<!-- Node1&#45;&gt;Node2 -->
<g id="edge1" class="edge">
<title>Node1&#45;&gt;Node2</title>
<path fill="none" stroke="midnightblue" d="M6486.15,-277.31C6333,-264.85 5946.93,-233.44 5804.69,-221.87"/>
<polygon fill="midnightblue" stroke="midnightblue" points="6486.08,-280.81 6496.33,-278.13 6486.65,-273.83 6486.08,-280.81"/>
</g>
<!-- Node58 -->
<g id="node46" class="node">
<title>Node58</title>
<g id="a_node46"><a xlink:href="../../d6/d91/vnodedetail_8cpp.html" target="_top" xlink:title=" ">
<polygon fill="white" stroke="black" points="6466.5,-134.5 6466.5,-164.5 6573.5,-164.5 6573.5,-134.5 6466.5,-134.5"/>
<text text-anchor="start" x="6474.5" y="-152.5" font-family="Helvetica,sans-Serif" font-size="10.00">src/libs/vpatterndb</text>
<text text-anchor="middle" x="6520" y="-141.5" font-family="Helvetica,sans-Serif" font-size="10.00">/vnodedetail.cpp</text>
</a>
</g>
</g>
<!-- Node1&#45;&gt;Node58 -->
<g id="edge59" class="edge">
<title>Node1&#45;&gt;Node58</title>
<path fill="none" stroke="midnightblue" d="M6544.52,-258.39C6538.27,-230.9 6528.27,-186.89 6523.19,-164.52"/>
<polygon fill="midnightblue" stroke="midnightblue" points="6541.16,-259.4 6546.79,-268.37 6547.99,-257.85 6541.16,-259.4"/>
</g>
<!-- Node59 -->
<g id="node47" class="node">
<title>Node59</title>
<g id="a_node47"><a xlink:href="../../da/de1/vpiecepath_8cpp.html" target="_top" xlink:title=" ">
<polygon fill="white" stroke="black" points="6591.5,-134.5 6591.5,-164.5 6698.5,-164.5 6698.5,-134.5 6591.5,-134.5"/>
<text text-anchor="start" x="6599.5" y="-152.5" font-family="Helvetica,sans-Serif" font-size="10.00">src/libs/vpatterndb</text>
<text text-anchor="middle" x="6645" y="-141.5" font-family="Helvetica,sans-Serif" font-size="10.00">/vpiecepath.cpp</text>
</a>
</g>
</g>
<!-- Node1&#45;&gt;Node59 -->
<g id="edge62" class="edge">
<title>Node1&#45;&gt;Node59</title>
<path fill="none" stroke="midnightblue" d="M6566.06,-260.19C6585.73,-232.86 6618.46,-187.38 6634.91,-164.52"/>
<polygon fill="midnightblue" stroke="midnightblue" points="6563.17,-258.21 6560.17,-268.37 6568.85,-262.3 6563.17,-258.21"/>
</g>
<!-- Node62 -->
<g id="node50" class="node">
<title>Node62</title>
<g id="a_node50"><a xlink:href="../../d8/da5/vpiece__p_8h.html" target="_top" xlink:title=" ">
<polygon fill="white" stroke="black" points="6662.5,-201.5 6662.5,-231.5 6769.5,-231.5 6769.5,-201.5 6662.5,-201.5"/>
<text text-anchor="start" x="6670.5" y="-219.5" font-family="Helvetica,sans-Serif" font-size="10.00">src/libs/vpatterndb</text>
<text text-anchor="middle" x="6716" y="-208.5" font-family="Helvetica,sans-Serif" font-size="10.00">/vpiece_p.h</text>
</a>
</g>
</g>
<!-- Node1&#45;&gt;Node62 -->
<g id="edge60" class="edge">
<title>Node1&#45;&gt;Node62</title>
<path fill="none" stroke="midnightblue" d="M6595.51,-264.68C6622.13,-254.26 6655.27,-241.28 6680.05,-231.58"/>
<polygon fill="midnightblue" stroke="midnightblue" points="6594.05,-261.49 6586.02,-268.4 6596.61,-268.01 6594.05,-261.49"/>
</g>
<!-- Node3 -->
<g id="node3" class="node">
<title>Node3</title>
<g id="a_node3"><a xlink:href="../../d4/dd6/vmeasurements_8h.html" target="_top" xlink:title=" ">
<polygon fill="white" stroke="black" points="160.5,-140 160.5,-159 345.5,-159 345.5,-140 160.5,-140"/>
<text text-anchor="middle" x="253" y="-147" font-family="Helvetica,sans-Serif" font-size="10.00">src/libs/vformat/vmeasurements.h</text>
</a>
</g>
</g>
<!-- Node2&#45;&gt;Node3 -->
<g id="edge2" class="edge">
<title>Node2&#45;&gt;Node3</title>
<path fill="none" stroke="midnightblue" d="M5687.39,-215.47C5257.1,-215.13 2727.4,-211.2 668,-165 557.19,-162.51 429.79,-157.78 345.69,-154.4"/>
<polygon fill="midnightblue" stroke="midnightblue" points="5687.45,-218.97 5697.46,-215.48 5687.46,-211.97 5687.45,-218.97"/>
</g>
<!-- Node4 -->
<g id="node4" class="node">
<title>Node4</title>
<g id="a_node4"><a xlink:href="../../de/db3/vmeasurements_8cpp.html" target="_top" xlink:title=" ">
<polygon fill="white" stroke="black" points="0,-73 0,-92 196,-92 196,-73 0,-73"/>
<text text-anchor="middle" x="98" y="-80" font-family="Helvetica,sans-Serif" font-size="10.00">src/libs/vformat/vmeasurements.cpp</text>
</a>
</g>
</g>
<!-- Node2&#45;&gt;Node4 -->
<g id="edge4" class="edge">
<title>Node2&#45;&gt;Node4</title>
<path fill="none" stroke="midnightblue" d="M5686.8,-215.65C5183.08,-216.74 1858.85,-221.66 856,-165 595.01,-150.26 285.57,-109.75 157.77,-92.01"/>
<polygon fill="midnightblue" stroke="midnightblue" points="5687.15,-219.15 5697.15,-215.63 5687.14,-212.15 5687.15,-219.15"/>
</g>
<!-- Node5 -->
<g id="node5" class="node">
<title>Node5</title>
<g id="a_node5"><a xlink:href="../../d6/de0/vlayoutpiece_8h.html" target="_top" xlink:title=" ">
<polygon fill="white" stroke="black" points="865,-140 865,-159 1031,-159 1031,-140 865,-140"/>
<text text-anchor="middle" x="948" y="-147" font-family="Helvetica,sans-Serif" font-size="10.00">src/libs/vlayout/vlayoutpiece.h</text>
</a>
</g>
</g>
<!-- Node2&#45;&gt;Node5 -->
<g id="edge5" class="edge">
<title>Node2&#45;&gt;Node5</title>
<path fill="none" stroke="midnightblue" d="M5687.15,-214.64C5166.43,-207.59 1621.55,-159.62 1031.25,-151.63"/>
<polygon fill="midnightblue" stroke="midnightblue" points="5687.43,-218.14 5697.47,-214.78 5687.52,-211.14 5687.43,-218.14"/>
</g>
<!-- Node15 -->
<g id="node14" class="node">
<title>Node15</title>
<g id="a_node14"><a xlink:href="../../d8/d70/vtextmanager_8cpp.html" target="_top" xlink:title=" ">
<polygon fill="white" stroke="black" points="1536,-73 1536,-92 1718,-92 1718,-73 1536,-73"/>
<text text-anchor="middle" x="1627" y="-80" font-family="Helvetica,sans-Serif" font-size="10.00">src/libs/vlayout/vtextmanager.cpp</text>
</a>
</g>
</g>
<!-- Node2&#45;&gt;Node15 -->
<g id="edge16" class="edge">
<title>Node2&#45;&gt;Node15</title>
<path fill="none" stroke="midnightblue" d="M5687.41,-214.5C5417.01,-210.17 4335.99,-192.02 3448,-165 2682.89,-141.72 2489.27,-167.91 1727,-98 1711.19,-96.55 1694.06,-94.31 1678.52,-92.03"/>
<polygon fill="midnightblue" stroke="midnightblue" points="5687.38,-218 5697.43,-214.66 5687.49,-211 5687.38,-218"/>
</g>
<!-- Node16 -->
<g id="node15" class="node">
<title>Node16</title>
<g id="a_node15"><a xlink:href="../../d5/d74/vabstractapplication_8h.html" target="_top" xlink:title=" ">
<polygon fill="white" stroke="red" points="3457.5,-140 3457.5,-159 3652.5,-159 3652.5,-140 3457.5,-140"/>
<text text-anchor="middle" x="3555" y="-147" font-family="Helvetica,sans-Serif" font-size="10.00">src/libs/vmisc/vabstractapplication.h</text>
</a>
</g>
</g>
<!-- Node2&#45;&gt;Node16 -->
<g id="edge17" class="edge">
<title>Node2&#45;&gt;Node16</title>
<path fill="none" stroke="midnightblue" d="M5687.1,-213.61C5377.02,-204.43 4028.7,-164.52 3652.68,-153.39"/>
<polygon fill="midnightblue" stroke="midnightblue" points="5687.16,-217.11 5697.26,-213.91 5687.37,-210.11 5687.16,-217.11"/>
</g>
<!-- Node34 -->
<g id="node29" class="node">
<title>Node34</title>
<g id="a_node29"><a xlink:href="../../d6/d46/vcontainer_8cpp.html" target="_top" xlink:title=" ">
<polygon fill="white" stroke="black" points="5602.5,-67.5 5602.5,-97.5 5709.5,-97.5 5709.5,-67.5 5602.5,-67.5"/>
<text text-anchor="start" x="5610.5" y="-85.5" font-family="Helvetica,sans-Serif" font-size="10.00">src/libs/vpatterndb</text>
<text text-anchor="middle" x="5656" y="-74.5" font-family="Helvetica,sans-Serif" font-size="10.00">/vcontainer.cpp</text>
</a>
</g>
</g>
<!-- Node2&#45;&gt;Node34 -->
<g id="edge51" class="edge">
<title>Node2&#45;&gt;Node34</title>
<path fill="none" stroke="midnightblue" d="M5732.82,-193.3C5725.85,-184.59 5717.91,-174.44 5711,-165 5694.06,-141.86 5675.67,-113.99 5665.03,-97.57"/>
<polygon fill="midnightblue" stroke="midnightblue" points="5730.14,-195.56 5739.15,-201.14 5735.59,-191.16 5730.14,-195.56"/>
</g>
<!-- Node35 -->
<g id="node30" class="node">
<title>Node35</title>
<g id="a_node30"><a xlink:href="../../db/d11/vformula_8cpp.html" target="_top" xlink:title=" ">
<polygon fill="white" stroke="black" points="5727.5,-67.5 5727.5,-97.5 5834.5,-97.5 5834.5,-67.5 5727.5,-67.5"/>
<text text-anchor="start" x="5735.5" y="-85.5" font-family="Helvetica,sans-Serif" font-size="10.00">src/libs/vpatterndb</text>
<text text-anchor="middle" x="5781" y="-74.5" font-family="Helvetica,sans-Serif" font-size="10.00">/vformula.cpp</text>
</a>
</g>
</g>
<!-- Node2&#45;&gt;Node35 -->
<g id="edge52" class="edge">
<title>Node2&#45;&gt;Node35</title>
<path fill="none" stroke="midnightblue" d="M5731.88,-193.4C5719.97,-176.82 5708.55,-153.69 5718,-134 5725.46,-118.46 5740.3,-106.19 5753.7,-97.64"/>
<polygon fill="midnightblue" stroke="midnightblue" points="5729.18,-195.63 5738.05,-201.43 5734.73,-191.36 5729.18,-195.63"/>
</g>
<!-- Node36 -->
<g id="node31" class="node">
<title>Node36</title>
<g id="a_node31"><a xlink:href="../../df/d7a/vpiece_8cpp.html" target="_top" xlink:title=" ">
<polygon fill="white" stroke="black" points="5852.5,-67.5 5852.5,-97.5 5959.5,-97.5 5959.5,-67.5 5852.5,-67.5"/>
<text text-anchor="start" x="5860.5" y="-85.5" font-family="Helvetica,sans-Serif" font-size="10.00">src/libs/vpatterndb</text>
<text text-anchor="middle" x="5906" y="-74.5" font-family="Helvetica,sans-Serif" font-size="10.00">/vpiece.cpp</text>
</a>
</g>
</g>
<!-- Node2&#45;&gt;Node36 -->
<g id="edge54" class="edge">
<title>Node2&#45;&gt;Node36</title>
<path fill="none" stroke="midnightblue" d="M5745.87,-191.39C5743.56,-173.72 5743.65,-150.12 5756,-134 5762.37,-125.68 5814.38,-109.35 5855.39,-97.51"/>
<polygon fill="midnightblue" stroke="midnightblue" points="5742.46,-192.19 5747.53,-201.49 5749.36,-191.06 5742.46,-192.19"/>
</g>
<!-- Node38 -->
<g id="node33" class="node">
<title>Node38</title>
<g id="a_node33"><a xlink:href="../../d8/dba/vpiecenode_8cpp.html" target="_top" xlink:title=" ">
<polygon fill="white" stroke="black" points="4749.5,-0.5 4749.5,-30.5 4856.5,-30.5 4856.5,-0.5 4749.5,-0.5"/>
<text text-anchor="start" x="4757.5" y="-18.5" font-family="Helvetica,sans-Serif" font-size="10.00">src/libs/vpatterndb</text>
<text text-anchor="middle" x="4803" y="-7.5" font-family="Helvetica,sans-Serif" font-size="10.00">/vpiecenode.cpp</text>
</a>
</g>
</g>
<!-- Node2&#45;&gt;Node38 -->
<g id="edge55" class="edge">
<title>Node2&#45;&gt;Node38</title>
<path fill="none" stroke="midnightblue" d="M5755.99,-191.46C5761.11,-172.95 5770.97,-148.19 5789,-134 5855.77,-81.48 6026.75,-128.35 5968,-67 5929.12,-26.4 5080.63,-18.24 4856.76,-16.79"/>
<polygon fill="midnightblue" stroke="midnightblue" points="5752.57,-190.71 5753.56,-201.26 5759.37,-192.4 5752.57,-190.71"/>
</g>
<!-- Node54 -->
<g id="node44" class="node">
<title>Node54</title>
<g id="a_node44"><a xlink:href="../../d1/de1/vincrement__p_8h.html" target="_top" xlink:title=" ">
<polygon fill="white" stroke="red" points="5798.5,-134.5 5798.5,-164.5 5941.5,-164.5 5941.5,-134.5 5798.5,-134.5"/>
<text text-anchor="start" x="5806.5" y="-152.5" font-family="Helvetica,sans-Serif" font-size="10.00">src/libs/vpatterndb</text>
<text text-anchor="middle" x="5870" y="-141.5" font-family="Helvetica,sans-Serif" font-size="10.00">/variables/vincrement_p.h</text>
</a>
</g>
</g>
<!-- Node2&#45;&gt;Node54 -->
<g id="edge49" class="edge">
<title>Node2&#45;&gt;Node54</title>
<path fill="none" stroke="midnightblue" d="M5785.65,-196.57C5804.37,-186.35 5827.09,-173.94 5844.23,-164.58"/>
<polygon fill="midnightblue" stroke="midnightblue" points="5783.92,-193.53 5776.82,-201.4 5787.28,-199.67 5783.92,-193.53"/>
</g>
<!-- Node56 -->
<g id="node45" class="node">
<title>Node56</title>
<g id="a_node45"><a xlink:href="../../d6/dc1/vmeasurement__p_8h.html" target="_top" xlink:title=" ">
<polygon fill="white" stroke="red" points="5960,-134.5 5960,-164.5 6122,-164.5 6122,-134.5 5960,-134.5"/>
<text text-anchor="start" x="5968" y="-152.5" font-family="Helvetica,sans-Serif" font-size="10.00">src/libs/vpatterndb</text>
<text text-anchor="middle" x="6041" y="-141.5" font-family="Helvetica,sans-Serif" font-size="10.00">/variables/vmeasurement_p.h</text>
</a>
</g>
</g>
<!-- Node2&#45;&gt;Node56 -->
<g id="edge50" class="edge">
<title>Node2&#45;&gt;Node56</title>
<path fill="none" stroke="midnightblue" d="M5814.32,-201.31C5863.02,-190.39 5929.96,-175.39 5978.46,-164.52"/>
<polygon fill="midnightblue" stroke="midnightblue" points="5813.52,-197.9 5804.53,-203.5 5815.05,-204.73 5813.52,-197.9"/>
</g>
<!-- Node2&#45;&gt;Node58 -->
<g id="edge53" class="edge">
<title>Node2&#45;&gt;Node58</title>
<path fill="none" stroke="midnightblue" d="M5815,-214.23C5939.37,-211.05 6222.07,-200.22 6457,-165 6460.11,-164.53 6463.29,-164 6466.49,-163.41"/>
<polygon fill="midnightblue" stroke="midnightblue" points="5814.8,-210.74 5804.89,-214.49 5814.98,-217.74 5814.8,-210.74"/>
</g>
<!-- Node2&#45;&gt;Node59 -->
<g id="edge56" class="edge">
<title>Node2&#45;&gt;Node59</title>
<path fill="none" stroke="midnightblue" d="M5814.89,-215.21C5954.71,-213.79 6298,-206.02 6582,-165 6585.11,-164.55 6588.29,-164.03 6591.5,-163.45"/>
<polygon fill="midnightblue" stroke="midnightblue" points="5814.75,-211.71 5804.78,-215.31 5814.82,-218.71 5814.75,-211.71"/>
</g>
<!-- Node60 -->
<g id="node48" class="node">
<title>Node60</title>
<g id="a_node48"><a xlink:href="../../d1/d3a/abstracttest_8cpp.html" target="_top" xlink:title=" ">
<polygon fill="white" stroke="black" points="6140.5,-140 6140.5,-159 6301.5,-159 6301.5,-140 6140.5,-140"/>
<text text-anchor="middle" x="6221" y="-147" font-family="Helvetica,sans-Serif" font-size="10.00">src/libs/vtest/abstracttest.cpp</text>
</a>
</g>
</g>
<!-- Node2&#45;&gt;Node60 -->
<g id="edge57" class="edge">
<title>Node2&#45;&gt;Node60</title>
<path fill="none" stroke="midnightblue" d="M5814.85,-207.56C5890.42,-198.04 6020,-181.31 6131,-165 6143.53,-163.16 6157.01,-161.05 6169.64,-159.03"/>
<polygon fill="midnightblue" stroke="midnightblue" points="5814.04,-204.14 5804.56,-208.86 5814.91,-211.08 5814.04,-204.14"/>
</g>
<!-- Node61 -->
<g id="node49" class="node">
<title>Node61</title>
<g id="a_node49"><a xlink:href="../../da/db4/piece__tablewidgetitem_8cpp.html" target="_top" xlink:title=" ">
<polygon fill="white" stroke="black" points="6320,-134.5 6320,-164.5 6448,-164.5 6448,-134.5 6320,-134.5"/>
<text text-anchor="start" x="6328" y="-152.5" font-family="Helvetica,sans-Serif" font-size="10.00">src/libs/vwidgets/piece</text>
<text text-anchor="middle" x="6384" y="-141.5" font-family="Helvetica,sans-Serif" font-size="10.00">_tablewidgetitem.cpp</text>
</a>
</g>
</g>
<!-- Node2&#45;&gt;Node61 -->
<g id="edge58" class="edge">
<title>Node2&#45;&gt;Node61</title>
<path fill="none" stroke="midnightblue" d="M5814.82,-211.89C5918.88,-205.52 6131.45,-190.49 6310,-165 6313.24,-164.54 6316.55,-164.03 6319.89,-163.48"/>
<polygon fill="midnightblue" stroke="midnightblue" points="5814.56,-208.4 5804.79,-212.5 5814.98,-215.39 5814.56,-208.4"/>
</g>
<!-- Node3&#45;&gt;Node4 -->
<g id="edge3" class="edge">
<title>Node3&#45;&gt;Node4</title>
<path fill="none" stroke="midnightblue" d="M223.07,-135.95C192.38,-123.08 145.46,-103.4 118.67,-92.17"/>
<polygon fill="midnightblue" stroke="midnightblue" points="221.84,-139.23 232.42,-139.87 224.55,-132.77 221.84,-139.23"/>
</g>
<!-- Node6 -->
<g id="node6" class="node">
<title>Node6</title>
<g id="a_node6"><a xlink:href="../../dd/d66/vdxfengine_8cpp.html" target="_top" xlink:title=" ">
<polygon fill="white" stroke="black" points="214,-73 214,-92 368,-92 368,-73 214,-73"/>
<text text-anchor="middle" x="291" y="-80" font-family="Helvetica,sans-Serif" font-size="10.00">src/libs/vdxf/vdxfengine.cpp</text>
</a>
</g>
</g>
<!-- Node5&#45;&gt;Node6 -->
<g id="edge6" class="edge">
<title>Node5&#45;&gt;Node6</title>
<path fill="none" stroke="midnightblue" d="M854.54,-142.5C741.25,-134.71 544.68,-119.52 377,-98 364.23,-96.36 350.47,-94.21 337.77,-92.07"/>
<polygon fill="midnightblue" stroke="midnightblue" points="854.35,-146 864.56,-143.19 854.82,-139.02 854.35,-146"/>
</g>
<!-- Node7 -->
<g id="node7" class="node">
<title>Node7</title>
<g id="a_node7"><a xlink:href="../../de/da8/vbank_8cpp.html" target="_top" xlink:title=" ">
<polygon fill="white" stroke="black" points="386,-73 386,-92 530,-92 530,-73 386,-73"/>
<text text-anchor="middle" x="458" y="-80" font-family="Helvetica,sans-Serif" font-size="10.00">src/libs/vlayout/vbank.cpp</text>
</a>
</g>
</g>
<!-- Node5&#45;&gt;Node7 -->
<g id="edge7" class="edge">
<title>Node5&#45;&gt;Node7</title>
<path fill="none" stroke="midnightblue" d="M858.5,-138.87C775.51,-129.6 648.68,-114.58 539,-98 527.42,-96.25 514.94,-94.13 503.34,-92.06"/>
<polygon fill="midnightblue" stroke="midnightblue" points="858.33,-142.37 868.65,-139.99 859.1,-135.41 858.33,-142.37"/>
</g>
<!-- Node8 -->
<g id="node8" class="node">
<title>Node8</title>
<g id="a_node8"><a xlink:href="../../df/d5d/vcontour_8cpp.html" target="_top" xlink:title=" ">
<polygon fill="white" stroke="black" points="548,-73 548,-92 704,-92 704,-73 548,-73"/>
<text text-anchor="middle" x="626" y="-80" font-family="Helvetica,sans-Serif" font-size="10.00">src/libs/vlayout/vcontour.cpp</text>
</a>
</g>
</g>
<!-- Node5&#45;&gt;Node8 -->
<g id="edge8" class="edge">
<title>Node5&#45;&gt;Node8</title>
<path fill="none" stroke="midnightblue" d="M895.39,-137.88C831.97,-125.08 726.66,-103.82 668.26,-92.03"/>
<polygon fill="midnightblue" stroke="midnightblue" points="895.08,-141.39 905.57,-139.94 896.46,-134.53 895.08,-141.39"/>
</g>
<!-- Node9 -->
<g id="node9" class="node">
<title>Node9</title>
<g id="a_node9"><a xlink:href="../../d3/d39/vlayoutgenerator_8cpp.html" target="_top" xlink:title=" ">
<polygon fill="white" stroke="black" points="722.5,-73 722.5,-92 919.5,-92 919.5,-73 722.5,-73"/>
<text text-anchor="middle" x="821" y="-80" font-family="Helvetica,sans-Serif" font-size="10.00">src/libs/vlayout/vlayoutgenerator.cpp</text>
</a>
</g>
</g>
<!-- Node5&#45;&gt;Node9 -->
<g id="edge9" class="edge">
<title>Node5&#45;&gt;Node9</title>
<path fill="none" stroke="midnightblue" d="M922.16,-135.27C897,-122.4 859.51,-103.21 837.93,-92.17"/>
<polygon fill="midnightblue" stroke="midnightblue" points="920.64,-138.43 931.14,-139.87 923.83,-132.2 920.64,-138.43"/>
</g>
<!-- Node10 -->
<g id="node10" class="node">
<title>Node10</title>
<g id="a_node10"><a xlink:href="../../d1/dd1/vlayoutpaper_8cpp.html" target="_top" xlink:title=" ">
<polygon fill="white" stroke="black" points="977,-6 977,-25 1155,-25 1155,-6 977,-6"/>
<text text-anchor="middle" x="1066" y="-13" font-family="Helvetica,sans-Serif" font-size="10.00">src/libs/vlayout/vlayoutpaper.cpp</text>
</a>
</g>
</g>
<!-- Node5&#45;&gt;Node10 -->
<g id="edge10" class="edge">
<title>Node5&#45;&gt;Node10</title>
<path fill="none" stroke="midnightblue" d="M948,-129.85C948.92,-111.97 952.83,-85.11 967,-67 983.65,-45.73 1011.7,-32.62 1033.7,-25.11"/>
<polygon fill="midnightblue" stroke="midnightblue" points="944.5,-129.8 947.75,-139.88 951.49,-129.98 944.5,-129.8"/>
</g>
<!-- Node11 -->
<g id="node11" class="node">
<title>Node11</title>
<g id="a_node11"><a xlink:href="../../d2/d2d/vlayoutpaper__p_8h.html" target="_top" xlink:title=" ">
<polygon fill="white" stroke="black" points="976.5,-73 976.5,-92 1155.5,-92 1155.5,-73 976.5,-73"/>
<text text-anchor="middle" x="1066" y="-80" font-family="Helvetica,sans-Serif" font-size="10.00">src/libs/vlayout/vlayoutpaper_p.h</text>
</a>
</g>
</g>
<!-- Node5&#45;&gt;Node11 -->
<g id="edge11" class="edge">
<title>Node5&#45;&gt;Node11</title>
<path fill="none" stroke="midnightblue" d="M972.89,-134.79C996.28,-121.9 1030.56,-103.02 1050.34,-92.13"/>
<polygon fill="midnightblue" stroke="midnightblue" points="970.98,-131.84 963.91,-139.73 974.36,-137.97 970.98,-131.84"/>
</g>
<!-- Node12 -->
<g id="node12" class="node">
<title>Node12</title>
<g id="a_node12"><a xlink:href="../../dd/d70/vlayoutpiece_8cpp.html" target="_top" xlink:title=" ">
<polygon fill="white" stroke="black" points="1340.5,-73 1340.5,-92 1517.5,-92 1517.5,-73 1340.5,-73"/>
<text text-anchor="middle" x="1429" y="-80" font-family="Helvetica,sans-Serif" font-size="10.00">src/libs/vlayout/vlayoutpiece.cpp</text>
</a>
</g>
</g>
<!-- Node5&#45;&gt;Node12 -->
<g id="edge13" class="edge">
<title>Node5&#45;&gt;Node12</title>
<path fill="none" stroke="midnightblue" d="M1025.3,-138.67C1102.69,-128.75 1225.16,-112.81 1331,-98 1344.46,-96.12 1358.94,-94.02 1372.54,-92.01"/>
<polygon fill="midnightblue" stroke="midnightblue" points="1024.63,-135.23 1015.15,-139.97 1025.52,-142.17 1024.63,-135.23"/>
</g>
<!-- Node13 -->
<g id="node13" class="node">
<title>Node13</title>
<g id="a_node13"><a xlink:href="../../db/d5c/vposition_8h.html" target="_top" xlink:title=" ">
<polygon fill="white" stroke="red" points="1174,-73 1174,-92 1322,-92 1322,-73 1174,-73"/>
<text text-anchor="middle" x="1248" y="-80" font-family="Helvetica,sans-Serif" font-size="10.00">src/libs/vlayout/vposition.h</text>
</a>
</g>
</g>
<!-- Node5&#45;&gt;Node13 -->
<g id="edge14" class="edge">
<title>Node5&#45;&gt;Node13</title>
<path fill="none" stroke="midnightblue" d="M997.37,-137.8C1056.41,-125.01 1154.04,-103.86 1208.38,-92.08"/>
<polygon fill="midnightblue" stroke="midnightblue" points="996.56,-134.4 987.53,-139.94 998.04,-141.24 996.56,-134.4"/>
</g>
<!-- Node11&#45;&gt;Node10 -->
<g id="edge12" class="edge">
<title>Node11&#45;&gt;Node10</title>
<path fill="none" stroke="midnightblue" d="M1066,-62.54C1066,-50.17 1066,-34.62 1066,-25.13"/>
<polygon fill="midnightblue" stroke="midnightblue" points="1062.5,-62.73 1066,-72.73 1069.5,-62.73 1062.5,-62.73"/>
</g>
<!-- Node13&#45;&gt;Node10 -->
<g id="edge15" class="edge">
<title>Node13&#45;&gt;Node10</title>
<path fill="none" stroke="midnightblue" d="M1214.22,-69.44C1178.12,-56.54 1121.79,-36.42 1089.98,-25.06"/>
<polygon fill="midnightblue" stroke="midnightblue" points="1213.24,-72.8 1223.83,-72.87 1215.59,-66.21 1213.24,-72.8"/>
</g>
<!-- Node16&#45;&gt;Node12 -->
<g id="edge28" class="edge">
<title>Node16&#45;&gt;Node12</title>
<path fill="none" stroke="midnightblue" d="M3447.13,-147.55C3083.62,-144.09 1905.07,-130.55 1527,-98 1511.15,-96.64 1493.96,-94.36 1478.47,-92.02"/>
<polygon fill="midnightblue" stroke="midnightblue" points="3447.35,-151.05 3457.39,-147.65 3447.42,-144.05 3447.35,-151.05"/>
</g>
<!-- Node16&#45;&gt;Node15 -->
<g id="edge29" class="edge">
<title>Node16&#45;&gt;Node15</title>
<path fill="none" stroke="midnightblue" d="M3447.16,-147.17C3107.79,-142.73 2064.22,-127.01 1727,-98 1710.92,-96.62 1693.48,-94.36 1677.74,-92.02"/>
<polygon fill="midnightblue" stroke="midnightblue" points="3447.2,-150.67 3457.24,-147.3 3447.29,-143.67 3447.2,-150.67"/>
</g>
<!-- Node17 -->
<g id="node16" class="node">
<title>Node17</title>
<g id="a_node16"><a xlink:href="../../d4/d90/fvupdater_8cpp.html" target="_top" xlink:title=" ">
<polygon fill="white" stroke="black" points="1736.5,-73 1736.5,-92 1889.5,-92 1889.5,-73 1736.5,-73"/>
<text text-anchor="middle" x="1813" y="-80" font-family="Helvetica,sans-Serif" font-size="10.00">src/libs/fervor/fvupdater.cpp</text>
</a>
</g>
</g>
<!-- Node16&#45;&gt;Node17 -->
<g id="edge18" class="edge">
<title>Node16&#45;&gt;Node17</title>
<path fill="none" stroke="midnightblue" d="M3447.22,-147.17C3129.52,-142.93 2200.07,-128.22 1898,-98 1884.3,-96.63 1869.46,-94.37 1856.08,-92.04"/>
<polygon fill="midnightblue" stroke="midnightblue" points="3447.31,-150.67 3457.35,-147.3 3447.4,-143.67 3447.31,-150.67"/>
</g>
<!-- Node18 -->
<g id="node17" class="node">
<title>Node18</title>
<g id="a_node17"><a xlink:href="../../d9/dc8/dxiface_8cpp.html" target="_top" xlink:title=" ">
<polygon fill="white" stroke="black" points="1907.5,-73 1907.5,-92 2042.5,-92 2042.5,-73 1907.5,-73"/>
<text text-anchor="middle" x="1975" y="-80" font-family="Helvetica,sans-Serif" font-size="10.00">src/libs/vdxf/dxiface.cpp</text>
</a>
</g>
</g>
<!-- Node16&#45;&gt;Node18 -->
<g id="edge19" class="edge">
<title>Node16&#45;&gt;Node18</title>
<path fill="none" stroke="midnightblue" d="M3446.95,-147.05C3149.32,-142.7 2321.72,-128.19 2051,-98 2038.72,-96.63 2025.45,-94.37 2013.49,-92.04"/>
<polygon fill="midnightblue" stroke="midnightblue" points="3447.26,-150.55 3457.31,-147.2 3447.37,-143.55 3447.26,-150.55"/>
</g>
<!-- Node19 -->
<g id="node18" class="node">
<title>Node19</title>
<g id="a_node18"><a xlink:href="../../da/d75/vabstractarc__p_8h.html" target="_top" xlink:title=" ">
<polygon fill="white" stroke="red" points="2060.5,-67.5 2060.5,-97.5 2167.5,-97.5 2167.5,-67.5 2060.5,-67.5"/>
<text text-anchor="start" x="2068.5" y="-85.5" font-family="Helvetica,sans-Serif" font-size="10.00">src/libs/vgeometry</text>
<text text-anchor="middle" x="2114" y="-74.5" font-family="Helvetica,sans-Serif" font-size="10.00">/vabstractarc_p.h</text>
</a>
</g>
</g>
<!-- Node16&#45;&gt;Node19 -->
<g id="edge20" class="edge">
<title>Node16&#45;&gt;Node19</title>
<path fill="none" stroke="midnightblue" d="M3447.05,-147.24C3166.82,-143.54 2420.96,-130.82 2176,-98 2173.26,-97.63 2170.47,-97.2 2167.65,-96.72"/>
<polygon fill="midnightblue" stroke="midnightblue" points="3447.18,-150.74 3457.23,-147.37 3447.27,-143.74 3447.18,-150.74"/>
</g>
<!-- Node21 -->
<g id="node19" class="node">
<title>Node21</title>
<g id="a_node19"><a xlink:href="../../dc/da3/varc__p_8h.html" target="_top" xlink:title=" ">
<polygon fill="white" stroke="red" points="2185.5,-67.5 2185.5,-97.5 2292.5,-97.5 2292.5,-67.5 2185.5,-67.5"/>
<text text-anchor="start" x="2193.5" y="-85.5" font-family="Helvetica,sans-Serif" font-size="10.00">src/libs/vgeometry</text>
<text text-anchor="middle" x="2239" y="-74.5" font-family="Helvetica,sans-Serif" font-size="10.00">/varc_p.h</text>
</a>
</g>
</g>
<!-- Node16&#45;&gt;Node21 -->
<g id="edge21" class="edge">
<title>Node16&#45;&gt;Node21</title>
<path fill="none" stroke="midnightblue" d="M3447.2,-146.78C3185.32,-142.19 2520.98,-127.88 2301,-98 2298.26,-97.63 2295.47,-97.19 2292.65,-96.7"/>
<polygon fill="midnightblue" stroke="midnightblue" points="3447.42,-150.29 3457.48,-146.96 3447.54,-143.29 3447.42,-150.29"/>
</g>
<!-- Node23 -->
<g id="node20" class="node">
<title>Node23</title>
<g id="a_node20"><a xlink:href="../../d5/d8e/vcubicbezier__p_8h.html" target="_top" xlink:title=" ">
<polygon fill="white" stroke="red" points="2310.5,-67.5 2310.5,-97.5 2417.5,-97.5 2417.5,-67.5 2310.5,-67.5"/>
<text text-anchor="start" x="2318.5" y="-85.5" font-family="Helvetica,sans-Serif" font-size="10.00">src/libs/vgeometry</text>
<text text-anchor="middle" x="2364" y="-74.5" font-family="Helvetica,sans-Serif" font-size="10.00">/vcubicbezier_p.h</text>
</a>
</g>
</g>
<!-- Node16&#45;&gt;Node23 -->
<g id="edge22" class="edge">
<title>Node16&#45;&gt;Node23</title>
<path fill="none" stroke="midnightblue" d="M3446.89,-145.92C3204.97,-139.76 2626.06,-122.88 2432,-98 2427.33,-97.4 2422.51,-96.65 2417.68,-95.8"/>
<polygon fill="midnightblue" stroke="midnightblue" points="3447.01,-149.42 3457.1,-146.17 3447.19,-142.42 3447.01,-149.42"/>
</g>
<!-- Node25 -->
<g id="node21" class="node">
<title>Node25</title>
<g id="a_node21"><a xlink:href="../../d6/dfb/vellipticalarc_8cpp.html" target="_top" xlink:title=" ">
<polygon fill="white" stroke="black" points="2433.5,-0.5 2433.5,-30.5 2540.5,-30.5 2540.5,-0.5 2433.5,-0.5"/>
<text text-anchor="start" x="2441.5" y="-18.5" font-family="Helvetica,sans-Serif" font-size="10.00">src/libs/vgeometry</text>
<text text-anchor="middle" x="2487" y="-7.5" font-family="Helvetica,sans-Serif" font-size="10.00">/vellipticalarc.cpp</text>
</a>
</g>
</g>
<!-- Node16&#45;&gt;Node25 -->
<g id="edge23" class="edge">
<title>Node16&#45;&gt;Node25</title>
<path fill="none" stroke="midnightblue" d="M3446.89,-147.47C3178.07,-144.39 2498.54,-133.13 2465,-98 2447.39,-79.56 2463.88,-48.53 2476.25,-30.55"/>
<polygon fill="midnightblue" stroke="midnightblue" points="3447.02,-150.97 3457.05,-147.59 3447.09,-143.97 3447.02,-150.97"/>
</g>
<!-- Node26 -->
<g id="node22" class="node">
<title>Node26</title>
<g id="a_node22"><a xlink:href="../../df/dde/vellipticalarc__p_8h.html" target="_top" xlink:title=" ">
<polygon fill="white" stroke="black" points="2474.5,-67.5 2474.5,-97.5 2581.5,-97.5 2581.5,-67.5 2474.5,-67.5"/>
<text text-anchor="start" x="2482.5" y="-85.5" font-family="Helvetica,sans-Serif" font-size="10.00">src/libs/vgeometry</text>
<text text-anchor="middle" x="2528" y="-74.5" font-family="Helvetica,sans-Serif" font-size="10.00">/vellipticalarc_p.h</text>
</a>
</g>
</g>
<!-- Node16&#45;&gt;Node26 -->
<g id="edge24" class="edge">
<title>Node16&#45;&gt;Node26</title>
<path fill="none" stroke="midnightblue" d="M3446.99,-149.07C3267.94,-148.63 2898.76,-141.83 2590,-98 2587.26,-97.61 2584.47,-97.16 2581.66,-96.66"/>
<polygon fill="midnightblue" stroke="midnightblue" points="3447.19,-152.57 3457.2,-149.09 3447.2,-145.57 3447.19,-152.57"/>
</g>
<!-- Node27 -->
<g id="node23" class="node">
<title>Node27</title>
<g id="a_node23"><a xlink:href="../../d1/d76/vspline__p_8h.html" target="_top" xlink:title=" ">
<polygon fill="white" stroke="red" points="2599.5,-67.5 2599.5,-97.5 2706.5,-97.5 2706.5,-67.5 2599.5,-67.5"/>
<text text-anchor="start" x="2607.5" y="-85.5" font-family="Helvetica,sans-Serif" font-size="10.00">src/libs/vgeometry</text>
<text text-anchor="middle" x="2653" y="-74.5" font-family="Helvetica,sans-Serif" font-size="10.00">/vspline_p.h</text>
</a>
</g>
</g>
<!-- Node16&#45;&gt;Node27 -->
<g id="edge26" class="edge">
<title>Node16&#45;&gt;Node27</title>
<path fill="none" stroke="midnightblue" d="M3446.91,-147.72C3286.57,-145.26 2976.57,-135.56 2716,-98 2712.89,-97.55 2709.71,-97.03 2706.5,-96.45"/>
<polygon fill="midnightblue" stroke="midnightblue" points="3447.21,-151.22 3457.26,-147.87 3447.31,-144.22 3447.21,-151.22"/>
</g>
<!-- Node29 -->
<g id="node24" class="node">
<title>Node29</title>
<g id="a_node24"><a xlink:href="../../d9/d15/vabstractpiece_8cpp.html" target="_top" xlink:title=" ">
<polygon fill="white" stroke="black" points="2725,-73 2725,-92 2911,-92 2911,-73 2725,-73"/>
<text text-anchor="middle" x="2818" y="-80" font-family="Helvetica,sans-Serif" font-size="10.00">src/libs/vlayout/vabstractpiece.cpp</text>
</a>
</g>
</g>
<!-- Node16&#45;&gt;Node29 -->
<g id="edge27" class="edge">
<title>Node16&#45;&gt;Node29</title>
<path fill="none" stroke="midnightblue" d="M3447.39,-141.98C3320.93,-133.84 3104.88,-118.47 2920,-98 2904.89,-96.33 2888.57,-94.17 2873.51,-92.03"/>
<polygon fill="midnightblue" stroke="midnightblue" points="3447.26,-145.48 3457.46,-142.62 3447.7,-138.49 3447.26,-145.48"/>
</g>
<!-- Node30 -->
<g id="node25" class="node">
<title>Node30</title>
<g id="a_node25"><a xlink:href="../../d6/d0b/def_8cpp.html" target="_top" xlink:title=" ">
<polygon fill="white" stroke="black" points="2929,-73 2929,-92 3051,-92 3051,-73 2929,-73"/>
<text text-anchor="middle" x="2990" y="-80" font-family="Helvetica,sans-Serif" font-size="10.00">src/libs/vmisc/def.cpp</text>
</a>
</g>
</g>
<!-- Node16&#45;&gt;Node30 -->
<g id="edge30" class="edge">
<title>Node16&#45;&gt;Node30</title>
<path fill="none" stroke="midnightblue" d="M3447.25,-140.71C3346.7,-132.69 3192.68,-118.46 3060,-98 3049.45,-96.37 3038.09,-94.2 3027.65,-92.04"/>
<polygon fill="midnightblue" stroke="midnightblue" points="3447.17,-144.22 3457.41,-141.52 3447.72,-137.24 3447.17,-144.22"/>
</g>
<!-- Node31 -->
<g id="node26" class="node">
<title>Node31</title>
<g id="a_node26"><a xlink:href="../../db/d65/dialogexporttocsv_8cpp.html" target="_top" xlink:title=" ">
<polygon fill="white" stroke="black" points="3069.5,-67.5 3069.5,-97.5 3196.5,-97.5 3196.5,-67.5 3069.5,-67.5"/>
<text text-anchor="start" x="3077.5" y="-85.5" font-family="Helvetica,sans-Serif" font-size="10.00">src/libs/vmisc/dialogs</text>
<text text-anchor="middle" x="3133" y="-74.5" font-family="Helvetica,sans-Serif" font-size="10.00">/dialogexporttocsv.cpp</text>
</a>
</g>
</g>
<!-- Node16&#45;&gt;Node31 -->
<g id="edge31" class="edge">
<title>Node16&#45;&gt;Node31</title>
<path fill="none" stroke="midnightblue" d="M3478.73,-138.63C3407.91,-129.2 3299.6,-114.06 3206,-98 3202.94,-97.48 3199.82,-96.92 3196.66,-96.35"/>
<polygon fill="midnightblue" stroke="midnightblue" points="3478.53,-142.14 3488.91,-139.99 3479.45,-135.2 3478.53,-142.14"/>
</g>
<!-- Node32 -->
<g id="node27" class="node">
<title>Node32</title>
<g id="a_node27"><a xlink:href="../../d0/df6/vabstractapplication_8cpp.html" target="_top" xlink:title=" ">
<polygon fill="white" stroke="black" points="3215,-73 3215,-92 3421,-92 3421,-73 3215,-73"/>
<text text-anchor="middle" x="3318" y="-80" font-family="Helvetica,sans-Serif" font-size="10.00">src/libs/vmisc/vabstractapplication.cpp</text>
</a>
</g>
</g>
<!-- Node16&#45;&gt;Node32 -->
<g id="edge32" class="edge">
<title>Node16&#45;&gt;Node32</title>
<path fill="none" stroke="midnightblue" d="M3513.7,-137.17C3466.83,-124.32 3391.44,-103.64 3349.22,-92.06"/>
<polygon fill="midnightblue" stroke="midnightblue" points="3512.96,-140.6 3523.53,-139.87 3514.81,-133.85 3512.96,-140.6"/>
</g>
<!-- Node33 -->
<g id="node28" class="node">
<title>Node33</title>
<g id="a_node28"><a xlink:href="../../d4/d4f/pmsystems_8cpp.html" target="_top" xlink:title=" ">
<polygon fill="white" stroke="black" points="3439.5,-67.5 3439.5,-97.5 3546.5,-97.5 3546.5,-67.5 3439.5,-67.5"/>
<text text-anchor="start" x="3447.5" y="-85.5" font-family="Helvetica,sans-Serif" font-size="10.00">src/libs/vpatterndb</text>
<text text-anchor="middle" x="3493" y="-74.5" font-family="Helvetica,sans-Serif" font-size="10.00">/pmsystems.cpp</text>
</a>
</g>
</g>
<!-- Node16&#45;&gt;Node33 -->
<g id="edge33" class="edge">
<title>Node16&#45;&gt;Node33</title>
<path fill="none" stroke="midnightblue" d="M3539.55,-132.3C3529.37,-121.63 3516.18,-107.8 3506.44,-97.59"/>
<polygon fill="midnightblue" stroke="midnightblue" points="3537.2,-134.91 3546.64,-139.73 3542.27,-130.08 3537.2,-134.91"/>
</g>
<!-- Node16&#45;&gt;Node34 -->
<g id="edge34" class="edge">
<title>Node16&#45;&gt;Node34</title>
<path fill="none" stroke="midnightblue" d="M3662.62,-148.69C4027.27,-148.89 5214.35,-145.77 5593,-98 5596.01,-97.62 5599.08,-97.16 5602.17,-96.64"/>
<polygon fill="midnightblue" stroke="midnightblue" points="3662.6,-145.19 3652.6,-148.69 3662.59,-152.19 3662.6,-145.19"/>
</g>
<!-- Node16&#45;&gt;Node35 -->
<g id="edge35" class="edge">
<title>Node16&#45;&gt;Node35</title>
<path fill="none" stroke="midnightblue" d="M3662.68,-148.87C4041.83,-149.74 5313.81,-148.7 5718,-98 5721.01,-97.62 5724.08,-97.16 5727.17,-96.64"/>
<polygon fill="midnightblue" stroke="midnightblue" points="3662.55,-145.37 3652.54,-148.85 3662.53,-152.37 3662.55,-145.37"/>
</g>
<!-- Node16&#45;&gt;Node36 -->
<g id="edge36" class="edge">
<title>Node16&#45;&gt;Node36</title>
<path fill="none" stroke="midnightblue" d="M3662.84,-147.41C4086.72,-142.97 5625.76,-125.11 5843,-98 5846.01,-97.62 5849.08,-97.17 5852.17,-96.65"/>
<polygon fill="midnightblue" stroke="midnightblue" points="3662.7,-143.92 3652.74,-147.52 3662.77,-150.92 3662.7,-143.92"/>
</g>
<!-- Node37 -->
<g id="node32" class="node">
<title>Node37</title>
<g id="a_node32"><a xlink:href="../../df/dba/vpiecenode__p_8h.html" target="_top" xlink:title=" ">
<polygon fill="white" stroke="black" points="3564.5,-67.5 3564.5,-97.5 3671.5,-97.5 3671.5,-67.5 3564.5,-67.5"/>
<text text-anchor="start" x="3572.5" y="-85.5" font-family="Helvetica,sans-Serif" font-size="10.00">src/libs/vpatterndb</text>
<text text-anchor="middle" x="3618" y="-74.5" font-family="Helvetica,sans-Serif" font-size="10.00">/vpiecenode_p.h</text>
</a>
</g>
</g>
<!-- Node16&#45;&gt;Node37 -->
<g id="edge37" class="edge">
<title>Node16&#45;&gt;Node37</title>
<path fill="none" stroke="midnightblue" d="M3570.7,-132.3C3581.04,-121.63 3594.45,-107.8 3604.34,-97.59"/>
<polygon fill="midnightblue" stroke="midnightblue" points="3567.94,-130.12 3563.5,-139.73 3572.97,-134.99 3567.94,-130.12"/>
</g>
<!-- Node39 -->
<g id="node34" class="node">
<title>Node39</title>
<g id="a_node34"><a xlink:href="../../de/d3e/vtranslatevars_8cpp.html" target="_top" xlink:title=" ">
<polygon fill="white" stroke="black" points="3690,-67.5 3690,-97.5 3800,-97.5 3800,-67.5 3690,-67.5"/>
<text text-anchor="start" x="3698" y="-85.5" font-family="Helvetica,sans-Serif" font-size="10.00">src/libs/vpatterndb</text>
<text text-anchor="middle" x="3745" y="-74.5" font-family="Helvetica,sans-Serif" font-size="10.00">/vtranslatevars.cpp</text>
</a>
</g>
</g>
<!-- Node16&#45;&gt;Node39 -->
<g id="edge39" class="edge">
<title>Node16&#45;&gt;Node39</title>
<path fill="none" stroke="midnightblue" d="M3590.11,-136.49C3622.32,-125.47 3670.04,-109.14 3703.99,-97.53"/>
<polygon fill="midnightblue" stroke="midnightblue" points="3588.56,-133.32 3580.23,-139.87 3590.83,-139.94 3588.56,-133.32"/>
</g>
<!-- Node40 -->
<g id="node35" class="node">
<title>Node40</title>
<g id="a_node35"><a xlink:href="../../df/d40/export__format__combobox_8cpp.html" target="_top" xlink:title=" ">
<polygon fill="white" stroke="black" points="3818.5,-67.5 3818.5,-97.5 3951.5,-97.5 3951.5,-67.5 3818.5,-67.5"/>
<text text-anchor="start" x="3826.5" y="-85.5" font-family="Helvetica,sans-Serif" font-size="10.00">src/libs/vwidgets/export</text>
<text text-anchor="middle" x="3885" y="-74.5" font-family="Helvetica,sans-Serif" font-size="10.00">_format_combobox.cpp</text>
</a>
</g>
</g>
<!-- Node16&#45;&gt;Node40 -->
<g id="edge40" class="edge">
<title>Node16&#45;&gt;Node40</title>
<path fill="none" stroke="midnightblue" d="M3608.4,-137.98C3665.59,-126.72 3756.43,-108.83 3818.28,-96.64"/>
<polygon fill="midnightblue" stroke="midnightblue" points="3607.62,-134.57 3598.48,-139.94 3608.97,-141.44 3607.62,-134.57"/>
</g>
<!-- Node41 -->
<g id="node36" class="node">
<title>Node41</title>
<g id="a_node36"><a xlink:href="../../d3/d4f/mouse__coordinates_8cpp.html" target="_top" xlink:title=" ">
<polygon fill="white" stroke="black" points="3970,-67.5 3970,-97.5 4104,-97.5 4104,-67.5 3970,-67.5"/>
<text text-anchor="start" x="3978" y="-85.5" font-family="Helvetica,sans-Serif" font-size="10.00">src/libs/vwidgets/mouse</text>
<text text-anchor="middle" x="4037" y="-74.5" font-family="Helvetica,sans-Serif" font-size="10.00">_coordinates.cpp</text>
</a>
</g>
</g>
<!-- Node16&#45;&gt;Node41 -->
<g id="edge41" class="edge">
<title>Node16&#45;&gt;Node41</title>
<path fill="none" stroke="midnightblue" d="M3645.19,-138.88C3727.41,-129.72 3852.14,-114.86 3960,-98 3963.23,-97.5 3966.52,-96.96 3969.85,-96.4"/>
<polygon fill="midnightblue" stroke="midnightblue" points="3644.68,-135.41 3635.12,-139.99 3645.45,-142.37 3644.68,-135.41"/>
</g>
<!-- Node42 -->
<g id="node37" class="node">
<title>Node42</title>
<g id="a_node37"><a xlink:href="../../d7/d1b/pen__toolbar_8cpp.html" target="_top" xlink:title=" ">
<polygon fill="white" stroke="black" points="4122.5,-67.5 4122.5,-97.5 4241.5,-97.5 4241.5,-67.5 4122.5,-67.5"/>
<text text-anchor="start" x="4130.5" y="-85.5" font-family="Helvetica,sans-Serif" font-size="10.00">src/libs/vwidgets/pen</text>
<text text-anchor="middle" x="4182" y="-74.5" font-family="Helvetica,sans-Serif" font-size="10.00">_toolbar.cpp</text>
</a>
</g>
</g>
<!-- Node16&#45;&gt;Node42 -->
<g id="edge42" class="edge">
<title>Node16&#45;&gt;Node42</title>
<path fill="none" stroke="midnightblue" d="M3662.7,-142.5C3775.41,-135.34 3957.29,-121.33 4113,-98 4116.03,-97.55 4119.12,-97.04 4122.24,-96.5"/>
<polygon fill="midnightblue" stroke="midnightblue" points="3662.45,-139.01 3652.69,-143.13 3662.89,-145.99 3662.45,-139.01"/>
</g>
<!-- Node43 -->
<g id="node38" class="node">
<title>Node43</title>
<g id="a_node38"><a xlink:href="../../d8/d76/scene__rect_8cpp.html" target="_top" xlink:title=" ">
<polygon fill="white" stroke="black" points="4260,-67.5 4260,-97.5 4390,-97.5 4390,-67.5 4260,-67.5"/>
<text text-anchor="start" x="4268" y="-85.5" font-family="Helvetica,sans-Serif" font-size="10.00">src/libs/vwidgets/scene</text>
<text text-anchor="middle" x="4325" y="-74.5" font-family="Helvetica,sans-Serif" font-size="10.00">_rect.cpp</text>
</a>
</g>
</g>
<!-- Node16&#45;&gt;Node43 -->
<g id="edge43" class="edge">
<title>Node16&#45;&gt;Node43</title>
<path fill="none" stroke="midnightblue" d="M3662.71,-144.63C3799.67,-138.8 4043.2,-125.41 4250,-98 4253.16,-97.58 4256.38,-97.11 4259.63,-96.61"/>
<polygon fill="midnightblue" stroke="midnightblue" points="3662.48,-141.14 3652.63,-145.05 3662.77,-148.13 3662.48,-141.14"/>
</g>
<!-- Node44 -->
<g id="node39" class="node">
<title>Node44</title>
<g id="a_node39"><a xlink:href="../../dd/df6/vabstractmainwindow_8cpp.html" target="_top" xlink:title=" ">
<polygon fill="white" stroke="black" points="4408.5,-73 4408.5,-92 4637.5,-92 4637.5,-73 4408.5,-73"/>
<text text-anchor="middle" x="4523" y="-80" font-family="Helvetica,sans-Serif" font-size="10.00">src/libs/vwidgets/vabstractmainwindow.cpp</text>
</a>
</g>
</g>
<!-- Node16&#45;&gt;Node44 -->
<g id="edge44" class="edge">
<title>Node16&#45;&gt;Node44</title>
<path fill="none" stroke="midnightblue" d="M3662.96,-144C3823.62,-136.86 4135.02,-121.31 4399,-98 4417.57,-96.36 4437.65,-94.19 4456.14,-92.02"/>
<polygon fill="midnightblue" stroke="midnightblue" points="3662.44,-140.52 3652.6,-144.46 3662.75,-147.51 3662.44,-140.52"/>
</g>
<!-- Node45 -->
<g id="node40" class="node">
<title>Node45</title>
<g id="a_node40"><a xlink:href="../../de/d45/vcontrolpointspline_8cpp.html" target="_top" xlink:title=" ">
<polygon fill="white" stroke="black" points="4655.5,-73 4655.5,-92 4870.5,-92 4870.5,-73 4655.5,-73"/>
<text text-anchor="middle" x="4763" y="-80" font-family="Helvetica,sans-Serif" font-size="10.00">src/libs/vwidgets/vcontrolpointspline.cpp</text>
</a>
</g>
</g>
<!-- Node16&#45;&gt;Node45 -->
<g id="edge45" class="edge">
<title>Node16&#45;&gt;Node45</title>
<path fill="none" stroke="midnightblue" d="M3662.6,-146.27C3858.52,-141.59 4286.43,-128.56 4646,-98 4664.05,-96.47 4683.6,-94.26 4701.46,-92.03"/>
<polygon fill="midnightblue" stroke="midnightblue" points="3662.51,-142.77 3652.59,-146.5 3662.67,-149.77 3662.51,-142.77"/>
</g>
<!-- Node46 -->
<g id="node41" class="node">
<title>Node46</title>
<g id="a_node41"><a xlink:href="../../d1/d90/vgrainlineitem_8cpp.html" target="_top" xlink:title=" ">
<polygon fill="white" stroke="black" points="4888.5,-73 4888.5,-92 5081.5,-92 5081.5,-73 4888.5,-73"/>
<text text-anchor="middle" x="4985" y="-80" font-family="Helvetica,sans-Serif" font-size="10.00">src/libs/vwidgets/vgrainlineitem.cpp</text>
</a>
</g>
</g>
<!-- Node16&#45;&gt;Node46 -->
<g id="edge46" class="edge">
<title>Node16&#45;&gt;Node46</title>
<path fill="none" stroke="midnightblue" d="M3662.99,-147.95C3889.05,-146.03 4428.47,-137.31 4879,-98 4895.75,-96.54 4913.9,-94.3 4930.37,-92.01"/>
<polygon fill="midnightblue" stroke="midnightblue" points="3662.76,-144.46 3652.79,-148.04 3662.82,-151.46 3662.76,-144.46"/>
</g>
<!-- Node47 -->
<g id="node42" class="node">
<title>Node47</title>
<g id="a_node42"><a xlink:href="../../de/dec/vgraphicssimpletextitem_8cpp.html" target="_top" xlink:title=" ">
<polygon fill="white" stroke="black" points="5100,-73 5100,-92 5344,-92 5344,-73 5100,-73"/>
<text text-anchor="middle" x="5222" y="-80" font-family="Helvetica,sans-Serif" font-size="10.00">src/libs/vwidgets/vgraphicssimpletextitem.cpp</text>
</a>
</g>
</g>
<!-- Node16&#45;&gt;Node47 -->
<g id="edge47" class="edge">
<title>Node16&#45;&gt;Node47</title>
<path fill="none" stroke="midnightblue" d="M3662.76,-147.79C3913.45,-145.51 4555.18,-136.12 5090,-98 5110.7,-96.52 5133.16,-94.29 5153.58,-92.02"/>
<polygon fill="midnightblue" stroke="midnightblue" points="3662.53,-144.29 3652.56,-147.88 3662.59,-151.29 3662.53,-144.29"/>
</g>
<!-- Node48 -->
<g id="node43" class="node">
<title>Node48</title>
<g id="a_node43"><a xlink:href="../../d1/d88/vmaingraphicsscene_8cpp.html" target="_top" xlink:title=" ">
<polygon fill="white" stroke="black" points="5362,-73 5362,-92 5584,-92 5584,-73 5362,-73"/>
<text text-anchor="middle" x="5473" y="-80" font-family="Helvetica,sans-Serif" font-size="10.00">src/libs/vwidgets/vmaingraphicsscene.cpp</text>
</a>
</g>
</g>
<!-- Node16&#45;&gt;Node48 -->
<g id="edge48" class="edge">
<title>Node16&#45;&gt;Node48</title>
<path fill="none" stroke="midnightblue" d="M3662.75,-148.93C3942.21,-149.3 4713.16,-145.54 5353,-98 5372.15,-96.58 5392.94,-94.32 5411.75,-92"/>
<polygon fill="midnightblue" stroke="midnightblue" points="3662.62,-145.43 3652.61,-148.92 3662.61,-152.43 3662.62,-145.43"/>
</g>
<!-- Node26&#45;&gt;Node25 -->
<g id="edge25" class="edge">
<title>Node26&#45;&gt;Node25</title>
<path fill="none" stroke="midnightblue" d="M2513.72,-58.87C2507.79,-49.46 2501.09,-38.83 2495.88,-30.58"/>
<polygon fill="midnightblue" stroke="midnightblue" points="2510.81,-60.81 2519.1,-67.4 2516.73,-57.07 2510.81,-60.81"/>
</g>
<!-- Node37&#45;&gt;Node38 -->
<g id="edge38" class="edge">
<title>Node37&#45;&gt;Node38</title>
<path fill="none" stroke="midnightblue" d="M3681.77,-67.12C3910.71,-37.82 4558.46,-21.82 4749.43,-17.62"/>
<polygon fill="midnightblue" stroke="midnightblue" points="3681.29,-63.65 3671.84,-68.43 3682.21,-70.59 3681.29,-63.65"/>
</g>
<!-- Node62&#45;&gt;Node36 -->
<g id="edge61" class="edge">
<title>Node62&#45;&gt;Node36</title>
<path fill="none" stroke="midnightblue" d="M6721.1,-191.38C6723.44,-173 6722.96,-148.45 6708,-134 6654.34,-82.18 6130.56,-81.7 5959.64,-82.94"/>
<polygon fill="midnightblue" stroke="midnightblue" points="6717.62,-190.95 6719.48,-201.38 6724.53,-192.06 6717.62,-190.95"/>
</g>
</g>
</svg>
