<?xml version="1.0" encoding="UTF-8" standalone="no"?>
<!DOCTYPE svg PUBLIC "-//W3C//DTD SVG 1.1//EN"
 "http://www.w3.org/Graphics/SVG/1.1/DTD/svg11.dtd">
<!-- Generated by graphviz version 2.43.0 (0)
 -->
<!-- Title: VPE::VLineColorProperty Pages: 1 -->
<svg width="464pt" height="541pt"
 viewBox="0.00 0.00 463.50 541.00" xmlns="http://www.w3.org/2000/svg" xmlns:xlink="http://www.w3.org/1999/xlink">
<g id="graph0" class="graph" transform="scale(1 1) rotate(0) translate(4 537)">
<title>VPE::VLineColorProperty</title>
<polygon fill="white" stroke="transparent" points="-4,4 -4,-537 459.5,-537 459.5,4 -4,4"/>
<!-- Node1 -->
<g id="node1" class="node">
<title>Node1</title>
<g id="a_node1"><a xlink:title=" ">
<polygon fill="#bfbfbf" stroke="black" points="286.5,-0.5 286.5,-200.5 426.5,-200.5 426.5,-0.5 286.5,-0.5"/>
<text text-anchor="middle" x="356.5" y="-188.5" font-family="Helvetica,sans-Serif" font-size="10.00">VPE::VLineColorProperty</text>
<polyline fill="none" stroke="black" points="286.5,-181.5 426.5,-181.5 "/>
<text text-anchor="start" x="294.5" y="-169.5" font-family="Helvetica,sans-Serif" font-size="10.00"># indexList</text>
<text text-anchor="start" x="294.5" y="-158.5" font-family="Helvetica,sans-Serif" font-size="10.00"># m_iconWidth</text>
<text text-anchor="start" x="294.5" y="-147.5" font-family="Helvetica,sans-Serif" font-size="10.00"># m_iconHeight</text>
<polyline fill="none" stroke="black" points="286.5,-140.5 426.5,-140.5 "/>
<text text-anchor="start" x="294.5" y="-128.5" font-family="Helvetica,sans-Serif" font-size="10.00">+ VLineColorProperty()</text>
<text text-anchor="start" x="294.5" y="-117.5" font-family="Helvetica,sans-Serif" font-size="10.00">+ ~VLineColorProperty()</text>
<text text-anchor="start" x="294.5" y="-106.5" font-family="Helvetica,sans-Serif" font-size="10.00">+ data()</text>
<text text-anchor="start" x="294.5" y="-95.5" font-family="Helvetica,sans-Serif" font-size="10.00">+ createEditor()</text>
<text text-anchor="start" x="294.5" y="-84.5" font-family="Helvetica,sans-Serif" font-size="10.00">+ getEditorData()</text>
<text text-anchor="start" x="294.5" y="-73.5" font-family="Helvetica,sans-Serif" font-size="10.00">+ setColors()</text>
<text text-anchor="start" x="294.5" y="-62.5" font-family="Helvetica,sans-Serif" font-size="10.00">+ getColors()</text>
<text text-anchor="start" x="294.5" y="-51.5" font-family="Helvetica,sans-Serif" font-size="10.00">+ setValue()</text>
<text text-anchor="start" x="294.5" y="-40.5" font-family="Helvetica,sans-Serif" font-size="10.00">+ type()</text>
<text text-anchor="start" x="294.5" y="-29.5" font-family="Helvetica,sans-Serif" font-size="10.00">+ clone()</text>
<text text-anchor="start" x="294.5" y="-18.5" font-family="Helvetica,sans-Serif" font-size="10.00">+ indexOfColor()</text>
<text text-anchor="start" x="294.5" y="-7.5" font-family="Helvetica,sans-Serif" font-size="10.00">+ currentIndexChanged()</text>
</a>
</g>
</g>
<!-- Node2 -->
<g id="node2" class="node">
<title>Node2</title>
<g id="a_node2"><a xlink:href="../../db/df9/classVPE_1_1VProperty.html" target="_top" xlink:title=" ">
<polygon fill="white" stroke="black" points="163.5,-248.5 163.5,-437.5 291.5,-437.5 291.5,-248.5 163.5,-248.5"/>
<text text-anchor="middle" x="227.5" y="-425.5" font-family="Helvetica,sans-Serif" font-size="10.00">VPE::VProperty</text>
<polyline fill="none" stroke="black" points="163.5,-418.5 291.5,-418.5 "/>
<text text-anchor="middle" x="227.5" y="-406.5" font-family="Helvetica,sans-Serif" font-size="10.00"> </text>
<polyline fill="none" stroke="black" points="163.5,-399.5 291.5,-399.5 "/>
<text text-anchor="start" x="171.5" y="-387.5" font-family="Helvetica,sans-Serif" font-size="10.00">+ VProperty()</text>
<text text-anchor="start" x="171.5" y="-376.5" font-family="Helvetica,sans-Serif" font-size="10.00">+ ~VProperty()</text>
<text text-anchor="start" x="171.5" y="-365.5" font-family="Helvetica,sans-Serif" font-size="10.00">+ type()</text>
<text text-anchor="start" x="171.5" y="-354.5" font-family="Helvetica,sans-Serif" font-size="10.00">+ data()</text>
<text text-anchor="start" x="171.5" y="-343.5" font-family="Helvetica,sans-Serif" font-size="10.00">+ setData()</text>
<text text-anchor="start" x="171.5" y="-332.5" font-family="Helvetica,sans-Serif" font-size="10.00">+ paint()</text>
<text text-anchor="start" x="171.5" y="-321.5" font-family="Helvetica,sans-Serif" font-size="10.00">+ createEditor()</text>
<text text-anchor="start" x="171.5" y="-310.5" font-family="Helvetica,sans-Serif" font-size="10.00">+ setEditorData()</text>
<text text-anchor="start" x="171.5" y="-299.5" font-family="Helvetica,sans-Serif" font-size="10.00">+ getEditorData()</text>
<text text-anchor="start" x="171.5" y="-288.5" font-family="Helvetica,sans-Serif" font-size="10.00">+ flags()</text>
<text text-anchor="start" x="171.5" y="-277.5" font-family="Helvetica,sans-Serif" font-size="10.00">and 29 more...</text>
<text text-anchor="start" x="171.5" y="-266.5" font-family="Helvetica,sans-Serif" font-size="10.00">+ childValueChanged()</text>
<text text-anchor="start" x="171.5" y="-255.5" font-family="Helvetica,sans-Serif" font-size="10.00"># VProperty()</text>
</a>
</g>
</g>
<!-- Node2&#45;&gt;Node1 -->
<g id="edge1" class="edge">
<title>Node2&#45;&gt;Node1</title>
<path fill="none" stroke="midnightblue" d="M282.47,-239.51C289.34,-226.71 296.35,-213.63 303.2,-200.88"/>
<polygon fill="none" stroke="midnightblue" points="279.39,-237.86 277.74,-248.33 285.56,-241.17 279.39,-237.86"/>
</g>
<!-- Node4 -->
<g id="node4" class="node">
<title>Node4</title>
<g id="a_node4"><a xlink:href="../../db/d53/classVPE_1_1VPropertyPrivate.html" target="_top" xlink:title=" ">
<polygon fill="white" stroke="black" points="98.5,-17 98.5,-184 224.5,-184 224.5,-17 98.5,-17"/>
<text text-anchor="middle" x="161.5" y="-172" font-family="Helvetica,sans-Serif" font-size="10.00">VPE::VPropertyPrivate</text>
<polyline fill="none" stroke="black" points="98.5,-165 224.5,-165 "/>
<text text-anchor="start" x="106.5" y="-153" font-family="Helvetica,sans-Serif" font-size="10.00">+ VariantValue</text>
<text text-anchor="start" x="106.5" y="-142" font-family="Helvetica,sans-Serif" font-size="10.00">+ Name</text>
<text text-anchor="start" x="106.5" y="-131" font-family="Helvetica,sans-Serif" font-size="10.00">+ Description</text>
<text text-anchor="start" x="106.5" y="-120" font-family="Helvetica,sans-Serif" font-size="10.00">+ IsEmpty</text>
<text text-anchor="start" x="106.5" y="-109" font-family="Helvetica,sans-Serif" font-size="10.00">+ PropertyVariantType</text>
<text text-anchor="start" x="106.5" y="-98" font-family="Helvetica,sans-Serif" font-size="10.00">+ updateParent</text>
<text text-anchor="start" x="106.5" y="-87" font-family="Helvetica,sans-Serif" font-size="10.00">+ UpdateChildren</text>
<text text-anchor="start" x="106.5" y="-76" font-family="Helvetica,sans-Serif" font-size="10.00">+ editor</text>
<text text-anchor="start" x="106.5" y="-65" font-family="Helvetica,sans-Serif" font-size="10.00">+ type</text>
<polyline fill="none" stroke="black" points="98.5,-58 224.5,-58 "/>
<text text-anchor="start" x="106.5" y="-46" font-family="Helvetica,sans-Serif" font-size="10.00">+ VPropertyPrivate()</text>
<text text-anchor="start" x="106.5" y="-35" font-family="Helvetica,sans-Serif" font-size="10.00">+ VPropertyPrivate()</text>
<text text-anchor="start" x="106.5" y="-24" font-family="Helvetica,sans-Serif" font-size="10.00">+ ~VPropertyPrivate()</text>
</a>
</g>
</g>
<!-- Node2&#45;&gt;Node4 -->
<g id="edge5" class="edge">
<title>Node2&#45;&gt;Node4</title>
<path fill="none" stroke="#404040" d="M164.94,-248.37C162.43,-242.3 160.24,-236.15 158.5,-230 155.48,-219.36 153.75,-208.02 152.91,-196.65"/>
<polygon fill="none" stroke="#404040" points="152.9,-196.32 148.62,-190.52 152.34,-184.34 156.61,-190.14 152.9,-196.32"/>
<text text-anchor="middle" x="180" y="-222" font-family="Helvetica,sans-Serif" font-size="10.00"> +Parent</text>
</g>
<!-- Node3 -->
<g id="node3" class="node">
<title>Node3</title>
<g id="a_node3"><a xlink:title=" ">
<polygon fill="white" stroke="#bfbfbf" points="199.5,-475.5 199.5,-532.5 255.5,-532.5 255.5,-475.5 199.5,-475.5"/>
<text text-anchor="middle" x="227.5" y="-520.5" font-family="Helvetica,sans-Serif" font-size="10.00">QObject</text>
<polyline fill="none" stroke="#bfbfbf" points="199.5,-513.5 255.5,-513.5 "/>
<text text-anchor="middle" x="227.5" y="-501.5" font-family="Helvetica,sans-Serif" font-size="10.00"> </text>
<polyline fill="none" stroke="#bfbfbf" points="199.5,-494.5 255.5,-494.5 "/>
<text text-anchor="middle" x="227.5" y="-482.5" font-family="Helvetica,sans-Serif" font-size="10.00"> </text>
</a>
</g>
</g>
<!-- Node3&#45;&gt;Node2 -->
<g id="edge2" class="edge">
<title>Node3&#45;&gt;Node2</title>
<path fill="none" stroke="midnightblue" d="M227.5,-465.08C227.5,-456.6 227.5,-447.24 227.5,-437.6"/>
<polygon fill="none" stroke="midnightblue" points="224,-465.3 227.5,-475.3 231,-465.3 224,-465.3"/>
</g>
<!-- Node4&#45;&gt;Node2 -->
<g id="edge3" class="edge">
<title>Node4&#45;&gt;Node2</title>
<path fill="none" stroke="#404040" d="M194.53,-184.01C198.56,-195.65 202.36,-207.55 205.5,-219 207.03,-224.59 208.49,-230.35 209.86,-236.19"/>
<polygon fill="none" stroke="#404040" points="209.94,-236.54 215.15,-241.52 212.56,-248.25 207.35,-243.27 209.94,-236.54"/>
<text text-anchor="middle" x="227" y="-222" font-family="Helvetica,sans-Serif" font-size="10.00"> #d_ptr</text>
</g>
<!-- Node5 -->
<g id="node5" class="node">
<title>Node5</title>
<g id="a_node5"><a xlink:href="../../d1/d4a/classQList.html" target="_top" xlink:title=" ">
<polygon fill="white" stroke="black" points="0,-314.5 0,-371.5 145,-371.5 145,-314.5 0,-314.5"/>
<text text-anchor="middle" x="72.5" y="-359.5" font-family="Helvetica,sans-Serif" font-size="10.00">QList&lt; VPE::VProperty * &gt;</text>
<polyline fill="none" stroke="black" points="0,-352.5 145,-352.5 "/>
<text text-anchor="middle" x="72.5" y="-340.5" font-family="Helvetica,sans-Serif" font-size="10.00"> </text>
<polyline fill="none" stroke="black" points="0,-333.5 145,-333.5 "/>
<text text-anchor="middle" x="72.5" y="-321.5" font-family="Helvetica,sans-Serif" font-size="10.00"> </text>
</a>
</g>
</g>
<!-- Node5&#45;&gt;Node4 -->
<g id="edge4" class="edge">
<title>Node5&#45;&gt;Node4</title>
<path fill="none" stroke="#404040" d="M76.77,-314.06C81.12,-288.75 88.89,-250.67 100.5,-219 103.38,-211.15 106.67,-203.16 110.19,-195.23"/>
<polygon fill="none" stroke="#404040" points="110.31,-194.98 109.18,-187.86 115.32,-184.08 116.45,-191.2 110.31,-194.98"/>
<text text-anchor="middle" x="126.5" y="-222" font-family="Helvetica,sans-Serif" font-size="10.00"> +Children</text>
</g>
<!-- Node6 -->
<g id="node6" class="node">
<title>Node6</title>
<g id="a_node6"><a xlink:href="../../d0/d4c/classQMap.html" target="_top" xlink:title=" ">
<polygon fill="white" stroke="black" points="309.5,-314.5 309.5,-371.5 455.5,-371.5 455.5,-314.5 309.5,-314.5"/>
<text text-anchor="middle" x="382.5" y="-359.5" font-family="Helvetica,sans-Serif" font-size="10.00">QMap&lt; QString, QString &gt;</text>
<polyline fill="none" stroke="black" points="309.5,-352.5 455.5,-352.5 "/>
<text text-anchor="middle" x="382.5" y="-340.5" font-family="Helvetica,sans-Serif" font-size="10.00"> </text>
<polyline fill="none" stroke="black" points="309.5,-333.5 455.5,-333.5 "/>
<text text-anchor="middle" x="382.5" y="-321.5" font-family="Helvetica,sans-Serif" font-size="10.00"> </text>
</a>
</g>
</g>
<!-- Node6&#45;&gt;Node1 -->
<g id="edge6" class="edge">
<title>Node6&#45;&gt;Node1</title>
<path fill="none" stroke="#404040" d="M379.52,-314.41C376.8,-289.31 372.61,-250.53 368.54,-212.91"/>
<polygon fill="none" stroke="#404040" points="368.52,-212.69 363.9,-207.15 367.23,-200.76 371.85,-206.29 368.52,-212.69"/>
<text text-anchor="middle" x="390" y="-222" font-family="Helvetica,sans-Serif" font-size="10.00"> #colors</text>
</g>
</g>
</svg>
