<?xml version="1.0" encoding="UTF-8" standalone="no"?>
<!DOCTYPE svg PUBLIC "-//W3C//DTD SVG 1.1//EN"
 "http://www.w3.org/Graphics/SVG/1.1/DTD/svg11.dtd">
<!-- Generated by graphviz version 2.43.0 (0)
 -->
<!-- Title: src/libs/vwidgets/lineweight_combobox.cpp Pages: 1 -->
<svg width="549pt" height="151pt"
 viewBox="0.00 0.00 549.00 151.00" xmlns="http://www.w3.org/2000/svg" xmlns:xlink="http://www.w3.org/1999/xlink">
<g id="graph0" class="graph" transform="scale(1 1) rotate(0) translate(4 147)">
<title>src/libs/vwidgets/lineweight_combobox.cpp</title>
<polygon fill="white" stroke="transparent" points="-4,4 -4,-147 545,-147 545,4 -4,4"/>
<!-- Node1 -->
<g id="node1" class="node">
<title>Node1</title>
<g id="a_node1"><a xlink:title=" ">
<polygon fill="#bfbfbf" stroke="black" points="267.5,-112.5 267.5,-142.5 419.5,-142.5 419.5,-112.5 267.5,-112.5"/>
<text text-anchor="start" x="275.5" y="-130.5" font-family="Helvetica,sans-Serif" font-size="10.00">src/libs/vwidgets/lineweight</text>
<text text-anchor="middle" x="343.5" y="-119.5" font-family="Helvetica,sans-Serif" font-size="10.00">_combobox.cpp</text>
</a>
</g>
</g>
<!-- Node2 -->
<g id="node2" class="node">
<title>Node2</title>
<g id="a_node2"><a xlink:href="../../d5/d53/lineweight__combobox_8h.html" target="_top" xlink:title=" ">
<polygon fill="white" stroke="black" points="15,-56.5 15,-75.5 148,-75.5 148,-56.5 15,-56.5"/>
<text text-anchor="middle" x="81.5" y="-63.5" font-family="Helvetica,sans-Serif" font-size="10.00">lineweight_combobox.h</text>
</a>
</g>
</g>
<!-- Node1&#45;&gt;Node2 -->
<g id="edge1" class="edge">
<title>Node1&#45;&gt;Node2</title>
<path fill="none" stroke="midnightblue" d="M281.74,-112.47C234.96,-101.85 171.65,-87.47 128.84,-77.75"/>
<polygon fill="midnightblue" stroke="midnightblue" points="129.48,-74.31 118.96,-75.51 127.93,-81.13 129.48,-74.31"/>
</g>
<!-- Node5 -->
<g id="node5" class="node">
<title>Node5</title>
<g id="a_node5"><a xlink:title=" ">
<polygon fill="white" stroke="#bfbfbf" points="166,-56.5 166,-75.5 277,-75.5 277,-56.5 166,-56.5"/>
<text text-anchor="middle" x="221.5" y="-63.5" font-family="Helvetica,sans-Serif" font-size="10.00">QAbstractItemView</text>
</a>
</g>
</g>
<!-- Node1&#45;&gt;Node5 -->
<g id="edge4" class="edge">
<title>Node1&#45;&gt;Node5</title>
<path fill="none" stroke="midnightblue" d="M314.59,-112.4C294.48,-102.59 267.88,-89.62 248.26,-80.05"/>
<polygon fill="midnightblue" stroke="midnightblue" points="249.77,-76.9 239.25,-75.66 246.71,-83.19 249.77,-76.9"/>
</g>
<!-- Node6 -->
<g id="node6" class="node">
<title>Node6</title>
<g id="a_node6"><a xlink:title=" ">
<polygon fill="white" stroke="#bfbfbf" points="295.5,-56.5 295.5,-75.5 337.5,-75.5 337.5,-56.5 295.5,-56.5"/>
<text text-anchor="middle" x="316.5" y="-63.5" font-family="Helvetica,sans-Serif" font-size="10.00">QPen</text>
</a>
</g>
</g>
<!-- Node1&#45;&gt;Node6 -->
<g id="edge5" class="edge">
<title>Node1&#45;&gt;Node6</title>
<path fill="none" stroke="midnightblue" d="M337.1,-112.4C333.38,-104.2 328.65,-93.78 324.67,-84.99"/>
<polygon fill="midnightblue" stroke="midnightblue" points="327.75,-83.32 320.43,-75.66 321.37,-86.21 327.75,-83.32"/>
</g>
<!-- Node7 -->
<g id="node7" class="node">
<title>Node7</title>
<g id="a_node7"><a xlink:title=" ">
<polygon fill="white" stroke="#bfbfbf" points="356,-56.5 356,-75.5 385,-75.5 385,-56.5 356,-56.5"/>
<text text-anchor="middle" x="370.5" y="-63.5" font-family="Helvetica,sans-Serif" font-size="10.00">Qt</text>
</a>
</g>
</g>
<!-- Node1&#45;&gt;Node7 -->
<g id="edge6" class="edge">
<title>Node1&#45;&gt;Node7</title>
<path fill="none" stroke="midnightblue" d="M349.9,-112.4C353.62,-104.2 358.35,-93.78 362.33,-84.99"/>
<polygon fill="midnightblue" stroke="midnightblue" points="365.63,-86.21 366.57,-75.66 359.25,-83.32 365.63,-86.21"/>
</g>
<!-- Node8 -->
<g id="node8" class="node">
<title>Node8</title>
<g id="a_node8"><a xlink:title=" ">
<polygon fill="white" stroke="#bfbfbf" points="403.5,-56.5 403.5,-75.5 461.5,-75.5 461.5,-56.5 403.5,-56.5"/>
<text text-anchor="middle" x="432.5" y="-63.5" font-family="Helvetica,sans-Serif" font-size="10.00">QPainter</text>
</a>
</g>
</g>
<!-- Node1&#45;&gt;Node8 -->
<g id="edge7" class="edge">
<title>Node1&#45;&gt;Node8</title>
<path fill="none" stroke="midnightblue" d="M364.59,-112.4C378.59,-103.04 396.91,-90.79 410.99,-81.38"/>
<polygon fill="midnightblue" stroke="midnightblue" points="413.18,-84.13 419.55,-75.66 409.29,-78.31 413.18,-84.13"/>
</g>
<!-- Node9 -->
<g id="node9" class="node">
<title>Node9</title>
<g id="a_node9"><a xlink:title=" ">
<polygon fill="white" stroke="#bfbfbf" points="480,-56.5 480,-75.5 541,-75.5 541,-56.5 480,-56.5"/>
<text text-anchor="middle" x="510.5" y="-63.5" font-family="Helvetica,sans-Serif" font-size="10.00">QPixmap</text>
</a>
</g>
</g>
<!-- Node1&#45;&gt;Node9 -->
<g id="edge8" class="edge">
<title>Node1&#45;&gt;Node9</title>
<path fill="none" stroke="midnightblue" d="M383.08,-112.4C411.6,-102.24 449.67,-88.67 476.76,-79.02"/>
<polygon fill="midnightblue" stroke="midnightblue" points="477.95,-82.31 486.2,-75.66 475.61,-75.72 477.95,-82.31"/>
</g>
<!-- Node3 -->
<g id="node3" class="node">
<title>Node3</title>
<g id="a_node3"><a xlink:title=" ">
<polygon fill="white" stroke="#bfbfbf" points="0,-0.5 0,-19.5 77,-19.5 77,-0.5 0,-0.5"/>
<text text-anchor="middle" x="38.5" y="-7.5" font-family="Helvetica,sans-Serif" font-size="10.00">QComboBox</text>
</a>
</g>
</g>
<!-- Node2&#45;&gt;Node3 -->
<g id="edge2" class="edge">
<title>Node2&#45;&gt;Node3</title>
<path fill="none" stroke="midnightblue" d="M74.4,-56.08C68.26,-48.38 59.23,-37.03 51.76,-27.65"/>
<polygon fill="midnightblue" stroke="midnightblue" points="54.44,-25.39 45.47,-19.75 48.96,-29.75 54.44,-25.39"/>
</g>
<!-- Node4 -->
<g id="node4" class="node">
<title>Node4</title>
<g id="a_node4"><a xlink:title=" ">
<polygon fill="white" stroke="#bfbfbf" points="95,-0.5 95,-19.5 154,-19.5 154,-0.5 95,-0.5"/>
<text text-anchor="middle" x="124.5" y="-7.5" font-family="Helvetica,sans-Serif" font-size="10.00">QWidget</text>
</a>
</g>
</g>
<!-- Node2&#45;&gt;Node4 -->
<g id="edge3" class="edge">
<title>Node2&#45;&gt;Node4</title>
<path fill="none" stroke="midnightblue" d="M88.6,-56.08C94.74,-48.38 103.77,-37.03 111.24,-27.65"/>
<polygon fill="midnightblue" stroke="midnightblue" points="114.04,-29.75 117.53,-19.75 108.56,-25.39 114.04,-29.75"/>
</g>
</g>
</svg>
