<?xml version="1.0" encoding="UTF-8" standalone="no"?>
<!DOCTYPE svg PUBLIC "-//W3C//DTD SVG 1.1//EN"
 "http://www.w3.org/Graphics/SVG/1.1/DTD/svg11.dtd">
<!-- Generated by graphviz version 2.43.0 (0)
 -->
<!-- Title: src/app/seamly2d/dialogs/show_info_dialog.cpp Pages: 1 -->
<!--zoomable 319 -->
<svg id="main" version="1.1" xmlns="http://www.w3.org/2000/svg" xmlns:xlink="http://www.w3.org/1999/xlink" xml:space="preserve" onload="init(evt)">
<style type="text/css"><![CDATA[
.edge:hover path { stroke: red; }
.edge:hover polygon { stroke: red; fill: red; }
]]></style>
<script type="text/javascript"><![CDATA[
var edges = document.getElementsByTagName('g');
if (edges && edges.length) {
  for (var i=0;i<edges.length;i++) {
    if (edges[i].id.substr(0,4)=='edge') {
      edges[i].setAttribute('class','edge');
    }
  }
}
]]></script>
        <defs>
                <circle id="rim" cx="0" cy="0" r="7"/>
                <circle id="rim2" cx="0" cy="0" r="3.5"/>
                <g id="zoomPlus">
                        <use xlink:href="#rim" fill="#404040">
                                <set attributeName="fill" to="#808080" begin="zoomplus.mouseover" end="zoomplus.mouseout"/>
                        </use>
                        <path d="M-4,0h8M0,-4v8" fill="none" stroke="white" stroke-width="1.5" pointer-events="none"/>
                </g>
                <g id="zoomMin">
                        <use xlink:href="#rim" fill="#404040">
                                <set attributeName="fill" to="#808080" begin="zoomminus.mouseover" end="zoomminus.mouseout"/>
                        </use>
                        <path d="M-4,0h8" fill="none" stroke="white" stroke-width="1.5" pointer-events="none"/>
                </g>
                <g id="dirArrow">
                        <path fill="none" stroke="white" stroke-width="1.5" d="M0,-3.0v7 M-2.5,-0.5L0,-3.0L2.5,-0.5"/>
                </g>
               <g id="resetDef">
                       <use xlink:href="#rim2" fill="#404040">
                               <set attributeName="fill" to="#808080" begin="reset.mouseover" end="reset.mouseout"/>
                       </use>
               </g>
        </defs>

<script type="text/javascript">
var viewWidth = 2721;
var viewHeight = 319;
var sectionId = 'dynsection-0';
</script>
<script xlink:href="../../svgpan.js"/>
<svg id="graph" class="graph">
<g id="viewport">
<title>src/app/seamly2d/dialogs/show_info_dialog.cpp</title>
<polygon fill="white" stroke="transparent" points="-4,4 -4,-315 2717,-315 2717,4 -4,4"/>
<!-- Node1 -->
<g id="node1" class="node">
<title>Node1</title>
<g id="a_node1"><a xlink:title=" ">
<polygon fill="#bfbfbf" stroke="black" points="939,-280.5 939,-310.5 1080,-310.5 1080,-280.5 939,-280.5"/>
<text text-anchor="start" x="947" y="-298.5" font-family="Helvetica,sans-Serif" font-size="10.00">src/app/seamly2d/dialogs</text>
<text text-anchor="middle" x="1009.5" y="-287.5" font-family="Helvetica,sans-Serif" font-size="10.00">/show_info_dialog.cpp</text>
</a>
</g>
</g>
<!-- Node2 -->
<g id="node2" class="node">
<title>Node2</title>
<g id="a_node2"><a xlink:href="../../dd/de2/show__info__dialog_8h.html" target="_top" xlink:title=" ">
<polygon fill="white" stroke="black" points="124.5,-224.5 124.5,-243.5 234.5,-243.5 234.5,-224.5 124.5,-224.5"/>
<text text-anchor="middle" x="179.5" y="-231.5" font-family="Helvetica,sans-Serif" font-size="10.00">show_info_dialog.h</text>
</a>
</g>
</g>
<!-- Node1&#45;&gt;Node2 -->
<g id="edge1" class="edge">
<title>Node1&#45;&gt;Node2</title>
<path fill="none" stroke="midnightblue" d="M938.82,-291.31C804.24,-284.9 502,-268.92 248.5,-244 247.39,-243.89 246.27,-243.78 245.14,-243.66"/>
<polygon fill="midnightblue" stroke="midnightblue" points="245.15,-240.14 234.83,-242.53 244.39,-247.1 245.15,-240.14"/>
</g>
<!-- Node4 -->
<g id="node4" class="node">
<title>Node4</title>
<g id="a_node4"><a xlink:title=" ">
<polygon fill="white" stroke="#bfbfbf" points="178,-168.5 178,-187.5 233,-187.5 233,-168.5 178,-168.5"/>
<text text-anchor="middle" x="205.5" y="-175.5" font-family="Helvetica,sans-Serif" font-size="10.00">QImage</text>
</a>
</g>
</g>
<!-- Node1&#45;&gt;Node4 -->
<g id="edge15" class="edge">
<title>Node1&#45;&gt;Node4</title>
<path fill="none" stroke="midnightblue" d="M938.93,-294.04C784.02,-292.29 418.74,-283.92 302.5,-244 271.52,-233.36 241.01,-210.26 222.72,-194.67"/>
<polygon fill="midnightblue" stroke="midnightblue" points="224.59,-191.66 214.77,-187.7 219.98,-196.92 224.59,-191.66"/>
</g>
<!-- Node5 -->
<g id="node5" class="node">
<title>Node5</title>
<g id="a_node5"><a xlink:href="../../d4/d38/vpattern_8h.html" target="_top" xlink:title=" ">
<polygon fill="white" stroke="black" points="251.5,-168.5 251.5,-187.5 349.5,-187.5 349.5,-168.5 251.5,-168.5"/>
<text text-anchor="middle" x="300.5" y="-175.5" font-family="Helvetica,sans-Serif" font-size="10.00">../xml/vpattern.h</text>
</a>
</g>
</g>
<!-- Node1&#45;&gt;Node5 -->
<g id="edge64" class="edge">
<title>Node1&#45;&gt;Node5</title>
<path fill="none" stroke="midnightblue" d="M938.81,-293.83C772.5,-291.61 366.88,-282.29 319.5,-244 305.95,-233.05 301.72,-212.99 300.56,-198.04"/>
<polygon fill="midnightblue" stroke="midnightblue" points="304.05,-197.7 300.17,-187.84 297.06,-197.97 304.05,-197.7"/>
</g>
<!-- Node10 -->
<g id="node10" class="node">
<title>Node10</title>
<g id="a_node10"><a xlink:title=" ">
<polygon fill="white" stroke="#bfbfbf" points="329,-224.5 329,-243.5 454,-243.5 454,-224.5 329,-224.5"/>
<text text-anchor="middle" x="391.5" y="-231.5" font-family="Helvetica,sans-Serif" font-size="10.00">ui_show_info_dialog.h</text>
</a>
</g>
</g>
<!-- Node1&#45;&gt;Node10 -->
<g id="edge9" class="edge">
<title>Node1&#45;&gt;Node10</title>
<path fill="none" stroke="midnightblue" d="M938.61,-288.73C836.18,-280.22 640.57,-263.33 464.19,-244.16"/>
<polygon fill="midnightblue" stroke="midnightblue" points="464.53,-240.67 454.21,-243.07 463.77,-247.63 464.53,-240.67"/>
</g>
<!-- Node11 -->
<g id="node11" class="node">
<title>Node11</title>
<g id="a_node11"><a xlink:title=" ">
<polygon fill="white" stroke="#bfbfbf" points="472,-224.5 472,-243.5 551,-243.5 551,-224.5 472,-224.5"/>
<text text-anchor="middle" x="511.5" y="-231.5" font-family="Helvetica,sans-Serif" font-size="10.00">QApplication</text>
</a>
</g>
</g>
<!-- Node1&#45;&gt;Node11 -->
<g id="edge10" class="edge">
<title>Node1&#45;&gt;Node11</title>
<path fill="none" stroke="midnightblue" d="M938.75,-288.18C852.02,-280.08 700.35,-264.73 561.02,-244.14"/>
<polygon fill="midnightblue" stroke="midnightblue" points="561.42,-240.66 551.01,-242.65 560.39,-247.58 561.42,-240.66"/>
</g>
<!-- Node12 -->
<g id="node12" class="node">
<title>Node12</title>
<g id="a_node12"><a xlink:title=" ">
<polygon fill="white" stroke="#bfbfbf" points="569,-224.5 569,-243.5 640,-243.5 640,-224.5 569,-224.5"/>
<text text-anchor="middle" x="604.5" y="-231.5" font-family="Helvetica,sans-Serif" font-size="10.00">QClipboard</text>
</a>
</g>
</g>
<!-- Node1&#45;&gt;Node12 -->
<g id="edge11" class="edge">
<title>Node1&#45;&gt;Node12</title>
<path fill="none" stroke="midnightblue" d="M938.74,-285.94C868.02,-277.07 755.95,-262.21 649.92,-244.16"/>
<polygon fill="midnightblue" stroke="midnightblue" points="650.45,-240.7 640.01,-242.46 649.27,-247.6 650.45,-240.7"/>
</g>
<!-- Node13 -->
<g id="node13" class="node">
<title>Node13</title>
<g id="a_node13"><a xlink:title=" ">
<polygon fill="white" stroke="#bfbfbf" points="658,-224.5 658,-243.5 731,-243.5 731,-224.5 658,-224.5"/>
<text text-anchor="middle" x="694.5" y="-231.5" font-family="Helvetica,sans-Serif" font-size="10.00">QFileDialog</text>
</a>
</g>
</g>
<!-- Node1&#45;&gt;Node13 -->
<g id="edge12" class="edge">
<title>Node1&#45;&gt;Node13</title>
<path fill="none" stroke="midnightblue" d="M938.96,-281.56C886.91,-271.95 814.05,-258.38 741.55,-244.38"/>
<polygon fill="midnightblue" stroke="midnightblue" points="741.81,-240.87 731.33,-242.4 740.48,-247.74 741.81,-240.87"/>
</g>
<!-- Node14 -->
<g id="node14" class="node">
<title>Node14</title>
<g id="a_node14"><a xlink:title=" ">
<polygon fill="white" stroke="#bfbfbf" points="749,-224.5 749,-243.5 794,-243.5 794,-224.5 749,-224.5"/>
<text text-anchor="middle" x="771.5" y="-231.5" font-family="Helvetica,sans-Serif" font-size="10.00">QFont</text>
</a>
</g>
</g>
<!-- Node1&#45;&gt;Node14 -->
<g id="edge13" class="edge">
<title>Node1&#45;&gt;Node14</title>
<path fill="none" stroke="midnightblue" d="M949.09,-280.49C910.05,-271.27 857.95,-258.65 803.91,-244.3"/>
<polygon fill="midnightblue" stroke="midnightblue" points="804.72,-240.9 794.16,-241.7 802.91,-247.66 804.72,-240.9"/>
</g>
<!-- Node15 -->
<g id="node15" class="node">
<title>Node15</title>
<g id="a_node15"><a xlink:title=" ">
<polygon fill="white" stroke="#bfbfbf" points="812,-224.5 812,-243.5 907,-243.5 907,-224.5 812,-224.5"/>
<text text-anchor="middle" x="859.5" y="-231.5" font-family="Helvetica,sans-Serif" font-size="10.00">QGuiApplication</text>
</a>
</g>
</g>
<!-- Node1&#45;&gt;Node15 -->
<g id="edge14" class="edge">
<title>Node1&#45;&gt;Node15</title>
<path fill="none" stroke="midnightblue" d="M973.95,-280.4C948.67,-270.37 915.03,-257.03 890.77,-247.4"/>
<polygon fill="midnightblue" stroke="midnightblue" points="891.91,-244.09 881.33,-243.66 889.33,-250.6 891.91,-244.09"/>
</g>
<!-- Node16 -->
<g id="node16" class="node">
<title>Node16</title>
<g id="a_node16"><a xlink:title=" ">
<polygon fill="white" stroke="#bfbfbf" points="925.5,-224.5 925.5,-243.5 1005.5,-243.5 1005.5,-224.5 925.5,-224.5"/>
<text text-anchor="middle" x="965.5" y="-231.5" font-family="Helvetica,sans-Serif" font-size="10.00">QPageLayout</text>
</a>
</g>
</g>
<!-- Node1&#45;&gt;Node16 -->
<g id="edge16" class="edge">
<title>Node1&#45;&gt;Node16</title>
<path fill="none" stroke="midnightblue" d="M999.07,-280.4C992.74,-271.84 984.63,-260.87 977.97,-251.86"/>
<polygon fill="midnightblue" stroke="midnightblue" points="980.66,-249.62 971.9,-243.66 975.03,-253.78 980.66,-249.62"/>
</g>
<!-- Node17 -->
<g id="node17" class="node">
<title>Node17</title>
<g id="a_node17"><a xlink:title=" ">
<polygon fill="white" stroke="#bfbfbf" points="1024,-224.5 1024,-243.5 1085,-243.5 1085,-224.5 1024,-224.5"/>
<text text-anchor="middle" x="1054.5" y="-231.5" font-family="Helvetica,sans-Serif" font-size="10.00">QPixmap</text>
</a>
</g>
</g>
<!-- Node1&#45;&gt;Node17 -->
<g id="edge17" class="edge">
<title>Node1&#45;&gt;Node17</title>
<path fill="none" stroke="midnightblue" d="M1020.16,-280.4C1026.64,-271.84 1034.93,-260.87 1041.75,-251.86"/>
<polygon fill="midnightblue" stroke="midnightblue" points="1044.71,-253.74 1047.95,-243.66 1039.13,-249.52 1044.71,-253.74"/>
</g>
<!-- Node18 -->
<g id="node18" class="node">
<title>Node18</title>
<g id="a_node18"><a xlink:title=" ">
<polygon fill="white" stroke="#bfbfbf" points="954.5,-56.5 954.5,-75.5 1010.5,-75.5 1010.5,-56.5 954.5,-56.5"/>
<text text-anchor="middle" x="982.5" y="-63.5" font-family="Helvetica,sans-Serif" font-size="10.00">QPrinter</text>
</a>
</g>
</g>
<!-- Node1&#45;&gt;Node18 -->
<g id="edge18" class="edge">
<title>Node1&#45;&gt;Node18</title>
<path fill="none" stroke="midnightblue" d="M1049.99,-280.5C1066.56,-272.54 1084.03,-260.74 1093.5,-244 1097.88,-236.26 1096.19,-232.47 1093.5,-224 1088.44,-208.09 1023.51,-121.17 995.37,-83.94"/>
<polygon fill="midnightblue" stroke="midnightblue" points="997.89,-81.48 989.06,-75.62 992.31,-85.7 997.89,-81.48"/>
</g>
<!-- Node19 -->
<g id="node19" class="node">
<title>Node19</title>
<g id="a_node19"><a xlink:title=" ">
<polygon fill="white" stroke="#bfbfbf" points="1317.5,-224.5 1317.5,-243.5 1395.5,-243.5 1395.5,-224.5 1317.5,-224.5"/>
<text text-anchor="middle" x="1356.5" y="-231.5" font-family="Helvetica,sans-Serif" font-size="10.00">QPrintDialog</text>
</a>
</g>
</g>
<!-- Node1&#45;&gt;Node19 -->
<g id="edge19" class="edge">
<title>Node1&#45;&gt;Node19</title>
<path fill="none" stroke="midnightblue" d="M1080.29,-282.78C1140.7,-272.72 1229.86,-257.71 1307.5,-244 1307.6,-243.98 1307.7,-243.96 1307.8,-243.95"/>
<polygon fill="midnightblue" stroke="midnightblue" points="1308.23,-247.43 1317.46,-242.22 1307,-240.53 1308.23,-247.43"/>
</g>
<!-- Node20 -->
<g id="node20" class="node">
<title>Node20</title>
<g id="a_node20"><a xlink:title=" ">
<polygon fill="white" stroke="#bfbfbf" points="1414,-224.5 1414,-243.5 1531,-243.5 1531,-224.5 1414,-224.5"/>
<text text-anchor="middle" x="1472.5" y="-231.5" font-family="Helvetica,sans-Serif" font-size="10.00">QPrintPreviewDialog</text>
</a>
</g>
</g>
<!-- Node1&#45;&gt;Node20 -->
<g id="edge20" class="edge">
<title>Node1&#45;&gt;Node20</title>
<path fill="none" stroke="midnightblue" d="M1080.15,-285.56C1157.03,-275.82 1283.87,-259.67 1403.8,-244.09"/>
<polygon fill="midnightblue" stroke="midnightblue" points="1404.43,-247.53 1413.9,-242.77 1403.53,-240.59 1404.43,-247.53"/>
</g>
<!-- Node21 -->
<g id="node21" class="node">
<title>Node21</title>
<g id="a_node21"><a xlink:title=" ">
<polygon fill="white" stroke="#bfbfbf" points="1549,-224.5 1549,-243.5 1606,-243.5 1606,-224.5 1549,-224.5"/>
<text text-anchor="middle" x="1577.5" y="-231.5" font-family="Helvetica,sans-Serif" font-size="10.00">QScreen</text>
</a>
</g>
</g>
<!-- Node1&#45;&gt;Node21 -->
<g id="edge21" class="edge">
<title>Node1&#45;&gt;Node21</title>
<path fill="none" stroke="midnightblue" d="M1080.2,-290.86C1180.24,-285.03 1368.9,-271.5 1539.06,-243.83"/>
<polygon fill="midnightblue" stroke="midnightblue" points="1539.65,-247.28 1548.95,-242.21 1538.52,-240.38 1539.65,-247.28"/>
</g>
<!-- Node22 -->
<g id="node22" class="node">
<title>Node22</title>
<g id="a_node22"><a xlink:title=" ">
<polygon fill="white" stroke="#bfbfbf" points="1624.5,-224.5 1624.5,-243.5 1702.5,-243.5 1702.5,-224.5 1624.5,-224.5"/>
<text text-anchor="middle" x="1663.5" y="-231.5" font-family="Helvetica,sans-Serif" font-size="10.00">QShowEvent</text>
</a>
</g>
</g>
<!-- Node1&#45;&gt;Node22 -->
<g id="edge22" class="edge">
<title>Node1&#45;&gt;Node22</title>
<path fill="none" stroke="midnightblue" d="M1080.07,-290.87C1191.32,-284.64 1414.44,-270.14 1614.15,-243.9"/>
<polygon fill="midnightblue" stroke="midnightblue" points="1614.79,-247.35 1624.24,-242.56 1613.87,-240.41 1614.79,-247.35"/>
</g>
<!-- Node23 -->
<g id="node23" class="node">
<title>Node23</title>
<g id="a_node23"><a xlink:title=" ">
<polygon fill="white" stroke="#bfbfbf" points="1067,-56.5 1067,-75.5 1120,-75.5 1120,-56.5 1067,-56.5"/>
<text text-anchor="middle" x="1093.5" y="-63.5" font-family="Helvetica,sans-Serif" font-size="10.00">QString</text>
</a>
</g>
</g>
<!-- Node1&#45;&gt;Node23 -->
<g id="edge23" class="edge">
<title>Node1&#45;&gt;Node23</title>
<path fill="none" stroke="midnightblue" d="M1057.55,-280.43C1076.4,-272.6 1096.56,-260.92 1109.5,-244 1145.67,-196.7 1153.31,-167.79 1132.5,-112 1128.33,-100.81 1119.98,-90.56 1112.08,-82.68"/>
<polygon fill="midnightblue" stroke="midnightblue" points="1114.2,-79.87 1104.49,-75.63 1109.44,-85 1114.2,-79.87"/>
</g>
<!-- Node24 -->
<g id="node24" class="node">
<title>Node24</title>
<g id="a_node24"><a xlink:title=" ">
<polygon fill="white" stroke="#bfbfbf" points="1721,-224.5 1721,-243.5 1816,-243.5 1816,-224.5 1721,-224.5"/>
<text text-anchor="middle" x="1768.5" y="-231.5" font-family="Helvetica,sans-Serif" font-size="10.00">QTextDocument</text>
</a>
</g>
</g>
<!-- Node1&#45;&gt;Node24 -->
<g id="edge24" class="edge">
<title>Node1&#45;&gt;Node24</title>
<path fill="none" stroke="midnightblue" d="M1080.18,-291.4C1205.17,-285.49 1473.57,-270.83 1710.75,-243.98"/>
<polygon fill="midnightblue" stroke="midnightblue" points="1711.42,-247.43 1720.96,-242.82 1710.62,-240.47 1711.42,-247.43"/>
</g>
<!-- Node25 -->
<g id="node25" class="node">
<title>Node25</title>
<g id="a_node25"><a xlink:title=" ">
<polygon fill="white" stroke="#bfbfbf" points="1834.5,-224.5 1834.5,-243.5 1902.5,-243.5 1902.5,-224.5 1834.5,-224.5"/>
<text text-anchor="middle" x="1868.5" y="-231.5" font-family="Helvetica,sans-Serif" font-size="10.00">QtWidgets</text>
</a>
</g>
</g>
<!-- Node1&#45;&gt;Node25 -->
<g id="edge25" class="edge">
<title>Node1&#45;&gt;Node25</title>
<path fill="none" stroke="midnightblue" d="M1080.14,-293.44C1221.87,-290.59 1550.81,-280.29 1824.5,-244 1824.6,-243.99 1824.7,-243.97 1824.8,-243.96"/>
<polygon fill="midnightblue" stroke="midnightblue" points="1825.13,-247.45 1834.47,-242.45 1824.05,-240.53 1825.13,-247.45"/>
</g>
<!-- Node26 -->
<g id="node26" class="node">
<title>Node26</title>
<g id="a_node26"><a xlink:href="../../d9/d02/vapplication_8h.html" target="_top" xlink:title=" ">
<polygon fill="white" stroke="black" points="1180,-224.5 1180,-243.5 1299,-243.5 1299,-224.5 1180,-224.5"/>
<text text-anchor="middle" x="1239.5" y="-231.5" font-family="Helvetica,sans-Serif" font-size="10.00">../core/vapplication.h</text>
</a>
</g>
</g>
<!-- Node1&#45;&gt;Node26 -->
<g id="edge26" class="edge">
<title>Node1&#45;&gt;Node26</title>
<path fill="none" stroke="midnightblue" d="M1063.72,-280.47C1104.26,-269.99 1158.95,-255.84 1196.51,-246.12"/>
<polygon fill="midnightblue" stroke="midnightblue" points="1197.81,-249.4 1206.62,-243.51 1196.06,-242.62 1197.81,-249.4"/>
</g>
<!-- Node3 -->
<g id="node3" class="node">
<title>Node3</title>
<g id="a_node3"><a xlink:title=" ">
<polygon fill="white" stroke="#bfbfbf" points="103.5,-168.5 103.5,-187.5 159.5,-187.5 159.5,-168.5 103.5,-168.5"/>
<text text-anchor="middle" x="131.5" y="-175.5" font-family="Helvetica,sans-Serif" font-size="10.00">QDialog</text>
</a>
</g>
</g>
<!-- Node2&#45;&gt;Node3 -->
<g id="edge2" class="edge">
<title>Node2&#45;&gt;Node3</title>
<path fill="none" stroke="midnightblue" d="M171.57,-224.08C164.65,-216.3 154.43,-204.8 146.05,-195.37"/>
<polygon fill="midnightblue" stroke="midnightblue" points="148.54,-192.9 139.28,-187.75 143.31,-197.55 148.54,-192.9"/>
</g>
<!-- Node2&#45;&gt;Node4 -->
<g id="edge3" class="edge">
<title>Node2&#45;&gt;Node4</title>
<path fill="none" stroke="midnightblue" d="M183.79,-224.08C187.35,-216.69 192.52,-205.95 196.92,-196.81"/>
<polygon fill="midnightblue" stroke="midnightblue" points="200.1,-198.28 201.29,-187.75 193.79,-195.24 200.1,-198.28"/>
</g>
<!-- Node2&#45;&gt;Node5 -->
<g id="edge4" class="edge">
<title>Node2&#45;&gt;Node5</title>
<path fill="none" stroke="midnightblue" d="M198.67,-224.44C218.41,-215.64 249.39,-201.81 271.99,-191.72"/>
<polygon fill="midnightblue" stroke="midnightblue" points="273.71,-194.79 281.42,-187.52 270.86,-188.4 273.71,-194.79"/>
</g>
<!-- Node6 -->
<g id="node6" class="node">
<title>Node6</title>
<g id="a_node6"><a xlink:title=" ">
<polygon fill="white" stroke="#bfbfbf" points="481.5,-112.5 481.5,-131.5 633.5,-131.5 633.5,-112.5 481.5,-112.5"/>
<text text-anchor="middle" x="557.5" y="-119.5" font-family="Helvetica,sans-Serif" font-size="10.00">../ifc/xml/vabstractpattern.h</text>
</a>
</g>
</g>
<!-- Node5&#45;&gt;Node6 -->
<g id="edge5" class="edge">
<title>Node5&#45;&gt;Node6</title>
<path fill="none" stroke="midnightblue" d="M341.22,-168.44C386.15,-159 458.5,-143.8 507,-133.61"/>
<polygon fill="midnightblue" stroke="midnightblue" points="507.9,-137 516.97,-131.52 506.46,-130.15 507.9,-137"/>
</g>
<!-- Node7 -->
<g id="node7" class="node">
<title>Node7</title>
<g id="a_node7"><a xlink:title=" ">
<polygon fill="white" stroke="#bfbfbf" points="0,-112.5 0,-131.5 127,-131.5 127,-112.5 0,-112.5"/>
<text text-anchor="middle" x="63.5" y="-119.5" font-family="Helvetica,sans-Serif" font-size="10.00">../ifc/xml/vtoolrecord.h</text>
</a>
</g>
</g>
<!-- Node5&#45;&gt;Node7 -->
<g id="edge6" class="edge">
<title>Node5&#45;&gt;Node7</title>
<path fill="none" stroke="midnightblue" d="M262.95,-168.44C221.69,-159.04 155.36,-143.93 110.63,-133.74"/>
<polygon fill="midnightblue" stroke="midnightblue" points="111.41,-130.33 100.88,-131.52 109.85,-137.15 111.41,-130.33"/>
</g>
<!-- Node8 -->
<g id="node8" class="node">
<title>Node8</title>
<g id="a_node8"><a xlink:title=" ">
<polygon fill="white" stroke="#bfbfbf" points="145.5,-112.5 145.5,-131.5 287.5,-131.5 287.5,-112.5 145.5,-112.5"/>
<text text-anchor="middle" x="216.5" y="-119.5" font-family="Helvetica,sans-Serif" font-size="10.00">../vpatterndb/vcontainer.h</text>
</a>
</g>
</g>
<!-- Node5&#45;&gt;Node8 -->
<g id="edge7" class="edge">
<title>Node5&#45;&gt;Node8</title>
<path fill="none" stroke="midnightblue" d="M287,-168.32C273.9,-159.9 253.79,-146.97 238.39,-137.07"/>
<polygon fill="midnightblue" stroke="midnightblue" points="240.27,-134.12 229.96,-131.65 236.48,-140.01 240.27,-134.12"/>
</g>
<!-- Node9 -->
<g id="node9" class="node">
<title>Node9</title>
<g id="a_node9"><a xlink:title=" ">
<polygon fill="white" stroke="#bfbfbf" points="305.5,-112.5 305.5,-131.5 463.5,-131.5 463.5,-112.5 305.5,-112.5"/>
<text text-anchor="middle" x="384.5" y="-119.5" font-family="Helvetica,sans-Serif" font-size="10.00">../ifc/xml/vpatternconverter.h</text>
</a>
</g>
</g>
<!-- Node5&#45;&gt;Node9 -->
<g id="edge8" class="edge">
<title>Node5&#45;&gt;Node9</title>
<path fill="none" stroke="midnightblue" d="M314,-168.32C327.1,-159.9 347.21,-146.97 362.61,-137.07"/>
<polygon fill="midnightblue" stroke="midnightblue" points="364.52,-140.01 371.04,-131.65 360.73,-134.12 364.52,-140.01"/>
</g>
<!-- Node27 -->
<g id="node27" class="node">
<title>Node27</title>
<g id="a_node27"><a xlink:title=" ">
<polygon fill="white" stroke="#bfbfbf" points="2197,-168.5 2197,-187.5 2364,-187.5 2364,-168.5 2197,-168.5"/>
<text text-anchor="middle" x="2280.5" y="-175.5" font-family="Helvetica,sans-Serif" font-size="10.00">../vmisc/vabstractapplication.h</text>
</a>
</g>
</g>
<!-- Node26&#45;&gt;Node27 -->
<g id="edge27" class="edge">
<title>Node26&#45;&gt;Node27</title>
<path fill="none" stroke="midnightblue" d="M1299.3,-224.87C1302.41,-224.55 1305.49,-224.26 1308.5,-224 1695.18,-190.94 1796.28,-214.65 2186.62,-188.09"/>
<polygon fill="midnightblue" stroke="midnightblue" points="2187.04,-191.57 2196.78,-187.39 2186.56,-184.59 2187.04,-191.57"/>
</g>
<!-- Node28 -->
<g id="node28" class="node">
<title>Node28</title>
<g id="a_node28"><a xlink:href="../../d7/d5b/options_8h.html" target="_top" xlink:title=" ">
<polygon fill="white" stroke="black" points="1659,-168.5 1659,-187.5 1730,-187.5 1730,-168.5 1659,-168.5"/>
<text text-anchor="middle" x="1694.5" y="-175.5" font-family="Helvetica,sans-Serif" font-size="10.00">../options.h</text>
</a>
</g>
</g>
<!-- Node26&#45;&gt;Node28 -->
<g id="edge28" class="edge">
<title>Node26&#45;&gt;Node28</title>
<path fill="none" stroke="midnightblue" d="M1299.33,-225.14C1302.43,-224.75 1305.5,-224.37 1308.5,-224 1431.35,-208.83 1576.38,-192.29 1648.7,-184.14"/>
<polygon fill="midnightblue" stroke="midnightblue" points="1649.28,-187.59 1658.83,-182.99 1648.5,-180.64 1649.28,-187.59"/>
</g>
<!-- Node33 -->
<g id="node33" class="node">
<title>Node33</title>
<g id="a_node33"><a xlink:title=" ">
<polygon fill="white" stroke="#bfbfbf" points="2381.5,-168.5 2381.5,-187.5 2557.5,-187.5 2557.5,-168.5 2381.5,-168.5"/>
<text text-anchor="middle" x="2469.5" y="-175.5" font-family="Helvetica,sans-Serif" font-size="10.00">../vwidgets/vmaingraphicsview.h</text>
</a>
</g>
</g>
<!-- Node26&#45;&gt;Node33 -->
<g id="edge33" class="edge">
<title>Node26&#45;&gt;Node33</title>
<path fill="none" stroke="midnightblue" d="M1299.3,-224.84C1302.41,-224.53 1305.49,-224.25 1308.5,-224 1777.18,-185.6 1899.13,-217.66 2371.22,-188.11"/>
<polygon fill="midnightblue" stroke="midnightblue" points="2371.61,-191.59 2381.37,-187.47 2371.17,-184.61 2371.61,-191.59"/>
</g>
<!-- Node34 -->
<g id="node34" class="node">
<title>Node34</title>
<g id="a_node34"><a xlink:title=" ">
<polygon fill="white" stroke="#bfbfbf" points="1180,-168.5 1180,-187.5 1341,-187.5 1341,-168.5 1180,-168.5"/>
<text text-anchor="middle" x="1260.5" y="-175.5" font-family="Helvetica,sans-Serif" font-size="10.00">../vpatterndb/vtranslatevars.h</text>
</a>
</g>
</g>
<!-- Node26&#45;&gt;Node34 -->
<g id="edge34" class="edge">
<title>Node26&#45;&gt;Node34</title>
<path fill="none" stroke="midnightblue" d="M1242.97,-224.08C1245.81,-216.77 1249.93,-206.18 1253.46,-197.1"/>
<polygon fill="midnightblue" stroke="midnightblue" points="1256.73,-198.34 1257.1,-187.75 1250.21,-195.8 1256.73,-198.34"/>
</g>
<!-- Node35 -->
<g id="node35" class="node">
<title>Node35</title>
<g id="a_node35"><a xlink:href="../../dd/db2/vsettings_8h.html" target="_top" xlink:title=" ">
<polygon fill="white" stroke="black" points="1359,-168.5 1359,-187.5 1430,-187.5 1430,-168.5 1359,-168.5"/>
<text text-anchor="middle" x="1394.5" y="-175.5" font-family="Helvetica,sans-Serif" font-size="10.00">vsettings.h</text>
</a>
</g>
</g>
<!-- Node26&#45;&gt;Node35 -->
<g id="edge35" class="edge">
<title>Node26&#45;&gt;Node35</title>
<path fill="none" stroke="midnightblue" d="M1264.06,-224.44C1290.02,-215.4 1331.17,-201.06 1360.3,-190.92"/>
<polygon fill="midnightblue" stroke="midnightblue" points="1361.76,-194.11 1370.05,-187.52 1359.46,-187.5 1361.76,-194.11"/>
</g>
<!-- Node56 -->
<g id="node44" class="node">
<title>Node56</title>
<g id="a_node44"><a xlink:href="../../dd/d57/vcmdexport_8h.html" target="_top" xlink:title=" ">
<polygon fill="white" stroke="red" points="2095.5,-168.5 2095.5,-187.5 2179.5,-187.5 2179.5,-168.5 2095.5,-168.5"/>
<text text-anchor="middle" x="2137.5" y="-175.5" font-family="Helvetica,sans-Serif" font-size="10.00">vcmdexport.h</text>
</a>
</g>
</g>
<!-- Node26&#45;&gt;Node56 -->
<g id="edge55" class="edge">
<title>Node26&#45;&gt;Node56</title>
<path fill="none" stroke="midnightblue" d="M1299.31,-224.92C1302.41,-224.59 1305.49,-224.28 1308.5,-224 1601.26,-197 1953.79,-184.46 2084.98,-180.47"/>
<polygon fill="midnightblue" stroke="midnightblue" points="2085.25,-183.97 2095.14,-180.17 2085.04,-176.97 2085.25,-183.97"/>
</g>
<!-- Node29 -->
<g id="node29" class="node">
<title>Node29</title>
<g id="a_node29"><a xlink:title=" ">
<polygon fill="white" stroke="#bfbfbf" points="2367,-56.5 2367,-75.5 2444,-75.5 2444,-56.5 2367,-56.5"/>
<text text-anchor="middle" x="2405.5" y="-63.5" font-family="Helvetica,sans-Serif" font-size="10.00">../ifc/ifcdef.h</text>
</a>
</g>
</g>
<!-- Node28&#45;&gt;Node29 -->
<g id="edge29" class="edge">
<title>Node28&#45;&gt;Node29</title>
<path fill="none" stroke="midnightblue" d="M1665.03,-168.42C1631.12,-157.16 1582.83,-135.98 1605.5,-112 1618.47,-98.28 2185.25,-75.45 2356.81,-68.84"/>
<polygon fill="midnightblue" stroke="midnightblue" points="2356.96,-72.34 2366.82,-68.46 2356.69,-65.35 2356.96,-72.34"/>
</g>
<!-- Node30 -->
<g id="node30" class="node">
<title>Node30</title>
<g id="a_node30"><a xlink:title=" ">
<polygon fill="white" stroke="#bfbfbf" points="1615,-112.5 1615,-131.5 1774,-131.5 1774,-112.5 1615,-112.5"/>
<text text-anchor="middle" x="1694.5" y="-119.5" font-family="Helvetica,sans-Serif" font-size="10.00">../vgeometry/vgeometrydef.h</text>
</a>
</g>
</g>
<!-- Node28&#45;&gt;Node30 -->
<g id="edge30" class="edge">
<title>Node28&#45;&gt;Node30</title>
<path fill="none" stroke="midnightblue" d="M1694.5,-168.08C1694.5,-161.01 1694.5,-150.86 1694.5,-141.99"/>
<polygon fill="midnightblue" stroke="midnightblue" points="1698,-141.75 1694.5,-131.75 1691,-141.75 1698,-141.75"/>
</g>
<!-- Node31 -->
<g id="node31" class="node">
<title>Node31</title>
<g id="a_node31"><a xlink:title=" ">
<polygon fill="white" stroke="#bfbfbf" points="1792,-112.5 1792,-131.5 1919,-131.5 1919,-112.5 1792,-112.5"/>
<text text-anchor="middle" x="1855.5" y="-119.5" font-family="Helvetica,sans-Serif" font-size="10.00">../qmuparser/qmudef.h</text>
</a>
</g>
</g>
<!-- Node28&#45;&gt;Node31 -->
<g id="edge31" class="edge">
<title>Node28&#45;&gt;Node31</title>
<path fill="none" stroke="midnightblue" d="M1720.01,-168.44C1747.1,-159.36 1790.09,-144.94 1820.37,-134.78"/>
<polygon fill="midnightblue" stroke="midnightblue" points="1821.74,-138.01 1830.11,-131.52 1819.51,-131.38 1821.74,-138.01"/>
</g>
<!-- Node32 -->
<g id="node32" class="node">
<title>Node32</title>
<g id="a_node32"><a xlink:title=" ">
<polygon fill="white" stroke="#bfbfbf" points="1937.5,-112.5 1937.5,-131.5 2019.5,-131.5 2019.5,-112.5 1937.5,-112.5"/>
<text text-anchor="middle" x="1978.5" y="-119.5" font-family="Helvetica,sans-Serif" font-size="10.00">../vmisc/def.h</text>
</a>
</g>
</g>
<!-- Node28&#45;&gt;Node32 -->
<g id="edge32" class="edge">
<title>Node28&#45;&gt;Node32</title>
<path fill="none" stroke="midnightblue" d="M1730.18,-170.22C1779.93,-160.76 1870.42,-143.55 1927.35,-132.73"/>
<polygon fill="midnightblue" stroke="midnightblue" points="1928.05,-136.16 1937.22,-130.85 1926.74,-129.28 1928.05,-136.16"/>
</g>
<!-- Node35&#45;&gt;Node23 -->
<g id="edge39" class="edge">
<title>Node35&#45;&gt;Node23</title>
<path fill="none" stroke="midnightblue" d="M1361.73,-168.45C1330.9,-160.12 1283.6,-146.6 1243.5,-132 1199.65,-116.03 1150.26,-93.76 1120.52,-79.87"/>
<polygon fill="midnightblue" stroke="midnightblue" points="1121.77,-76.59 1111.23,-75.51 1118.79,-82.93 1121.77,-76.59"/>
</g>
<!-- Node36 -->
<g id="node36" class="node">
<title>Node36</title>
<g id="a_node36"><a xlink:title=" ">
<polygon fill="white" stroke="#bfbfbf" points="1260.5,-56.5 1260.5,-75.5 1340.5,-75.5 1340.5,-56.5 1260.5,-56.5"/>
<text text-anchor="middle" x="1300.5" y="-63.5" font-family="Helvetica,sans-Serif" font-size="10.00">QMetaObject</text>
</a>
</g>
</g>
<!-- Node35&#45;&gt;Node36 -->
<g id="edge36" class="edge">
<title>Node35&#45;&gt;Node36</title>
<path fill="none" stroke="midnightblue" d="M1363.3,-168.46C1334.12,-159.77 1293.67,-145.66 1284.5,-132 1275.01,-117.87 1281.62,-98.63 1289.01,-84.76"/>
<polygon fill="midnightblue" stroke="midnightblue" points="1292.25,-86.15 1294.31,-75.75 1286.22,-82.59 1292.25,-86.15"/>
</g>
<!-- Node37 -->
<g id="node37" class="node">
<title>Node37</title>
<g id="a_node37"><a xlink:title=" ">
<polygon fill="white" stroke="#bfbfbf" points="1396.5,-56.5 1396.5,-75.5 1452.5,-75.5 1452.5,-56.5 1396.5,-56.5"/>
<text text-anchor="middle" x="1424.5" y="-63.5" font-family="Helvetica,sans-Serif" font-size="10.00">QObject</text>
</a>
</g>
</g>
<!-- Node35&#45;&gt;Node37 -->
<g id="edge37" class="edge">
<title>Node35&#45;&gt;Node37</title>
<path fill="none" stroke="midnightblue" d="M1399.5,-168.34C1404.37,-159.5 1411.59,-145.23 1415.5,-132 1419.99,-116.79 1422.26,-98.9 1423.39,-85.74"/>
<polygon fill="midnightblue" stroke="midnightblue" points="1426.9,-85.81 1424.13,-75.58 1419.92,-85.31 1426.9,-85.81"/>
</g>
<!-- Node38 -->
<g id="node38" class="node">
<title>Node38</title>
<g id="a_node38"><a xlink:title=" ">
<polygon fill="white" stroke="#bfbfbf" points="1470.5,-56.5 1470.5,-75.5 1534.5,-75.5 1534.5,-56.5 1470.5,-56.5"/>
<text text-anchor="middle" x="1502.5" y="-63.5" font-family="Helvetica,sans-Serif" font-size="10.00">QSettings</text>
</a>
</g>
</g>
<!-- Node35&#45;&gt;Node38 -->
<g id="edge38" class="edge">
<title>Node35&#45;&gt;Node38</title>
<path fill="none" stroke="midnightblue" d="M1402.97,-168.37C1421.11,-149.89 1463.92,-106.29 1487.04,-82.74"/>
<polygon fill="midnightblue" stroke="midnightblue" points="1489.56,-85.18 1494.06,-75.59 1484.56,-80.28 1489.56,-85.18"/>
</g>
<!-- Node39 -->
<g id="node39" class="node">
<title>Node39</title>
<g id="a_node39"><a xlink:title=" ">
<polygon fill="white" stroke="#bfbfbf" points="1250,-0.5 1250,-19.5 1309,-19.5 1309,-0.5 1250,-0.5"/>
<text text-anchor="middle" x="1279.5" y="-7.5" font-family="Helvetica,sans-Serif" font-size="10.00">QtGlobal</text>
</a>
</g>
</g>
<!-- Node35&#45;&gt;Node39 -->
<g id="edge40" class="edge">
<title>Node35&#45;&gt;Node39</title>
<path fill="none" stroke="midnightblue" d="M1420.08,-168.42C1455.37,-155.02 1517.59,-125.4 1543.5,-76 1547.63,-68.13 1549.23,-62.79 1543.5,-56 1515.32,-22.61 1386.22,-13.99 1319.58,-11.77"/>
<polygon fill="midnightblue" stroke="midnightblue" points="1319.54,-8.27 1309.44,-11.47 1319.33,-15.26 1319.54,-8.27"/>
</g>
<!-- Node40 -->
<g id="node40" class="node">
<title>Node40</title>
<g id="a_node40"><a xlink:title=" ">
<polygon fill="white" stroke="#bfbfbf" points="2054,-56.5 2054,-75.5 2117,-75.5 2117,-56.5 2054,-56.5"/>
<text text-anchor="middle" x="2085.5" y="-63.5" font-family="Helvetica,sans-Serif" font-size="10.00">QMargins</text>
</a>
</g>
</g>
<!-- Node35&#45;&gt;Node40 -->
<g id="edge41" class="edge">
<title>Node35&#45;&gt;Node40</title>
<path fill="none" stroke="midnightblue" d="M1421.02,-168.44C1447.61,-159.73 1489.64,-145.61 1525.5,-132 1547.11,-123.8 1551.06,-117.52 1573.5,-112 1744.19,-70.01 1955.36,-66 2043.64,-66.38"/>
<polygon fill="midnightblue" stroke="midnightblue" points="2043.76,-69.88 2053.78,-66.44 2043.81,-62.88 2043.76,-69.88"/>
</g>
<!-- Node41 -->
<g id="node41" class="node">
<title>Node41</title>
<g id="a_node41"><a xlink:href="../../d4/da4/def_8h.html" target="_top" xlink:title=" ">
<polygon fill="white" stroke="red" points="1041.5,-112.5 1041.5,-131.5 1123.5,-131.5 1123.5,-112.5 1041.5,-112.5"/>
<text text-anchor="middle" x="1082.5" y="-119.5" font-family="Helvetica,sans-Serif" font-size="10.00">../vmisc/def.h</text>
</a>
</g>
</g>
<!-- Node35&#45;&gt;Node41 -->
<g id="edge42" class="edge">
<title>Node35&#45;&gt;Node41</title>
<path fill="none" stroke="midnightblue" d="M1358.66,-169.73C1355.56,-169.13 1352.48,-168.55 1349.5,-168 1274.58,-154.2 1187.52,-139.84 1133.71,-131.16"/>
<polygon fill="midnightblue" stroke="midnightblue" points="1134.16,-127.68 1123.73,-129.55 1133.05,-134.6 1134.16,-127.68"/>
</g>
<!-- Node49 -->
<g id="node42" class="node">
<title>Node49</title>
<g id="a_node42"><a xlink:href="../../de/dec/vbank_8h.html" target="_top" xlink:title=" ">
<polygon fill="white" stroke="red" points="1138.5,-56.5 1138.5,-75.5 1242.5,-75.5 1242.5,-56.5 1138.5,-56.5"/>
<text text-anchor="middle" x="1190.5" y="-63.5" font-family="Helvetica,sans-Serif" font-size="10.00">../vlayout/vbank.h</text>
</a>
</g>
</g>
<!-- Node35&#45;&gt;Node49 -->
<g id="edge46" class="edge">
<title>Node35&#45;&gt;Node49</title>
<path fill="none" stroke="midnightblue" d="M1365.36,-168.44C1340.84,-160.64 1305.27,-147.93 1276.5,-132 1250.85,-117.79 1224.38,-96.63 1207.7,-82.34"/>
<polygon fill="midnightblue" stroke="midnightblue" points="1209.77,-79.5 1199.93,-75.57 1205.17,-84.78 1209.77,-79.5"/>
</g>
<!-- Node53 -->
<g id="node43" class="node">
<title>Node53</title>
<g id="a_node43"><a xlink:href="../../d4/d5c/vcommonsettings_8h.html" target="_top" xlink:title=" ">
<polygon fill="white" stroke="red" points="1294,-112.5 1294,-131.5 1407,-131.5 1407,-112.5 1294,-112.5"/>
<text text-anchor="middle" x="1350.5" y="-119.5" font-family="Helvetica,sans-Serif" font-size="10.00">vcommonsettings.h</text>
</a>
</g>
</g>
<!-- Node35&#45;&gt;Node53 -->
<g id="edge48" class="edge">
<title>Node35&#45;&gt;Node53</title>
<path fill="none" stroke="midnightblue" d="M1387.23,-168.08C1380.96,-160.38 1371.71,-149.03 1364.07,-139.65"/>
<polygon fill="midnightblue" stroke="midnightblue" points="1366.66,-137.29 1357.63,-131.75 1361.23,-141.71 1366.66,-137.29"/>
</g>
<!-- Node41&#45;&gt;Node18 -->
<g id="edge45" class="edge">
<title>Node41&#45;&gt;Node18</title>
<path fill="none" stroke="midnightblue" d="M1066.43,-112.32C1050.54,-103.74 1025.99,-90.49 1007.54,-80.52"/>
<polygon fill="midnightblue" stroke="midnightblue" points="1008.99,-77.33 998.53,-75.65 1005.66,-83.49 1008.99,-77.33"/>
</g>
<!-- Node41&#45;&gt;Node23 -->
<g id="edge43" class="edge">
<title>Node41&#45;&gt;Node23</title>
<path fill="none" stroke="midnightblue" d="M1084.32,-112.08C1085.77,-104.93 1087.87,-94.64 1089.69,-85.69"/>
<polygon fill="midnightblue" stroke="midnightblue" points="1093.15,-86.25 1091.72,-75.75 1086.29,-84.85 1093.15,-86.25"/>
</g>
<!-- Node41&#45;&gt;Node39 -->
<g id="edge44" class="edge">
<title>Node41&#45;&gt;Node39</title>
<path fill="none" stroke="midnightblue" d="M1073.95,-112.12C1062.08,-98.7 1043.57,-73.04 1057.5,-56 1080.06,-28.41 1181.92,-17.33 1239.51,-13.21"/>
<polygon fill="midnightblue" stroke="midnightblue" points="1239.98,-16.69 1249.72,-12.52 1239.51,-9.71 1239.98,-16.69"/>
</g>
<!-- Node49&#45;&gt;Node39 -->
<g id="edge47" class="edge">
<title>Node49&#45;&gt;Node39</title>
<path fill="none" stroke="midnightblue" d="M1204.8,-56.32C1218.68,-47.9 1239.99,-34.97 1256.3,-25.07"/>
<polygon fill="midnightblue" stroke="midnightblue" points="1258.5,-27.83 1265.24,-19.65 1254.87,-21.85 1258.5,-27.83"/>
</g>
<!-- Node53&#45;&gt;Node23 -->
<g id="edge52" class="edge">
<title>Node53&#45;&gt;Node23</title>
<path fill="none" stroke="midnightblue" d="M1305.51,-112.44C1262.86,-104.2 1196.77,-91.07 1130.05,-76.05"/>
<polygon fill="midnightblue" stroke="midnightblue" points="1130.73,-72.61 1120.21,-73.82 1129.19,-79.44 1130.73,-72.61"/>
</g>
<!-- Node53&#45;&gt;Node36 -->
<g id="edge49" class="edge">
<title>Node53&#45;&gt;Node36</title>
<path fill="none" stroke="midnightblue" d="M1342.24,-112.08C1335.04,-104.3 1324.39,-92.8 1315.65,-83.37"/>
<polygon fill="midnightblue" stroke="midnightblue" points="1317.97,-80.71 1308.6,-75.75 1312.83,-85.47 1317.97,-80.71"/>
</g>
<!-- Node53&#45;&gt;Node37 -->
<g id="edge50" class="edge">
<title>Node53&#45;&gt;Node37</title>
<path fill="none" stroke="midnightblue" d="M1362.39,-112.32C1373.65,-104.11 1390.79,-91.6 1404.21,-81.81"/>
<polygon fill="midnightblue" stroke="midnightblue" points="1406.38,-84.56 1412.39,-75.83 1402.25,-78.9 1406.38,-84.56"/>
</g>
<!-- Node53&#45;&gt;Node38 -->
<g id="edge51" class="edge">
<title>Node53&#45;&gt;Node38</title>
<path fill="none" stroke="midnightblue" d="M1374.58,-112.44C1400.04,-103.4 1440.39,-89.06 1468.96,-78.92"/>
<polygon fill="midnightblue" stroke="midnightblue" points="1470.28,-82.16 1478.53,-75.52 1467.93,-75.57 1470.28,-82.16"/>
</g>
<!-- Node53&#45;&gt;Node39 -->
<g id="edge53" class="edge">
<title>Node53&#45;&gt;Node39</title>
<path fill="none" stroke="midnightblue" d="M1352.8,-112.35C1355.78,-99.23 1359.48,-73.95 1349.5,-56 1341.57,-41.74 1327.01,-31.3 1313.22,-24.09"/>
<polygon fill="midnightblue" stroke="midnightblue" points="1314.41,-20.78 1303.88,-19.61 1311.38,-27.09 1314.41,-20.78"/>
</g>
<!-- Node53&#45;&gt;Node49 -->
<g id="edge54" class="edge">
<title>Node53&#45;&gt;Node49</title>
<path fill="none" stroke="midnightblue" d="M1325.15,-112.44C1298.23,-103.36 1255.5,-88.94 1225.41,-78.78"/>
<polygon fill="midnightblue" stroke="midnightblue" points="1226.33,-75.4 1215.73,-75.52 1224.09,-82.03 1226.33,-75.4"/>
</g>
<!-- Node57 -->
<g id="node45" class="node">
<title>Node57</title>
<g id="a_node45"><a xlink:title=" ">
<polygon fill="white" stroke="#bfbfbf" points="2037.5,-112.5 2037.5,-131.5 2095.5,-131.5 2095.5,-112.5 2037.5,-112.5"/>
<text text-anchor="middle" x="2066.5" y="-119.5" font-family="Helvetica,sans-Serif" font-size="10.00">memory</text>
</a>
</g>
</g>
<!-- Node56&#45;&gt;Node57 -->
<g id="edge56" class="edge">
<title>Node56&#45;&gt;Node57</title>
<path fill="none" stroke="midnightblue" d="M2126.09,-168.32C2115.39,-160.18 2099.16,-147.84 2086.34,-138.09"/>
<polygon fill="midnightblue" stroke="midnightblue" points="2088.19,-135.1 2078.11,-131.83 2083.96,-140.67 2088.19,-135.1"/>
</g>
<!-- Node58 -->
<g id="node46" class="node">
<title>Node58</title>
<g id="a_node46"><a xlink:title=" ">
<polygon fill="white" stroke="#bfbfbf" points="2114,-112.5 2114,-131.5 2161,-131.5 2161,-112.5 2114,-112.5"/>
<text text-anchor="middle" x="2137.5" y="-119.5" font-family="Helvetica,sans-Serif" font-size="10.00">vector</text>
</a>
</g>
</g>
<!-- Node56&#45;&gt;Node58 -->
<g id="edge57" class="edge">
<title>Node56&#45;&gt;Node58</title>
<path fill="none" stroke="midnightblue" d="M2137.5,-168.08C2137.5,-161.01 2137.5,-150.86 2137.5,-141.99"/>
<polygon fill="midnightblue" stroke="midnightblue" points="2141,-141.75 2137.5,-131.75 2134,-141.75 2141,-141.75"/>
</g>
<!-- Node59 -->
<g id="node47" class="node">
<title>Node59</title>
<g id="a_node47"><a xlink:title=" ">
<polygon fill="white" stroke="#bfbfbf" points="2179.5,-112.5 2179.5,-131.5 2259.5,-131.5 2259.5,-112.5 2179.5,-112.5"/>
<text text-anchor="middle" x="2219.5" y="-119.5" font-family="Helvetica,sans-Serif" font-size="10.00">QTextStream</text>
</a>
</g>
</g>
<!-- Node56&#45;&gt;Node59 -->
<g id="edge58" class="edge">
<title>Node56&#45;&gt;Node59</title>
<path fill="none" stroke="midnightblue" d="M2150.67,-168.32C2163.35,-159.98 2182.73,-147.21 2197.71,-137.35"/>
<polygon fill="midnightblue" stroke="midnightblue" points="2199.93,-140.08 2206.36,-131.65 2196.08,-134.23 2199.93,-140.08"/>
</g>
<!-- Node60 -->
<g id="node48" class="node">
<title>Node60</title>
<g id="a_node48"><a xlink:title=" ">
<polygon fill="white" stroke="#bfbfbf" points="2278,-112.5 2278,-131.5 2379,-131.5 2379,-112.5 2278,-112.5"/>
<text text-anchor="middle" x="2328.5" y="-119.5" font-family="Helvetica,sans-Serif" font-size="10.00">QCoreApplication</text>
</a>
</g>
</g>
<!-- Node56&#45;&gt;Node60 -->
<g id="edge59" class="edge">
<title>Node56&#45;&gt;Node60</title>
<path fill="none" stroke="midnightblue" d="M2167.76,-168.44C2200.46,-159.2 2252.68,-144.44 2288.68,-134.26"/>
<polygon fill="midnightblue" stroke="midnightblue" points="2289.71,-137.61 2298.38,-131.52 2287.8,-130.87 2289.71,-137.61"/>
</g>
<!-- Node61 -->
<g id="node49" class="node">
<title>Node61</title>
<g id="a_node49"><a xlink:title=" ">
<polygon fill="white" stroke="#bfbfbf" points="2397,-112.5 2397,-131.5 2522,-131.5 2522,-112.5 2397,-112.5"/>
<text text-anchor="middle" x="2459.5" y="-119.5" font-family="Helvetica,sans-Serif" font-size="10.00">QCommandLineParser</text>
</a>
</g>
</g>
<!-- Node56&#45;&gt;Node61 -->
<g id="edge60" class="edge">
<title>Node56&#45;&gt;Node61</title>
<path fill="none" stroke="midnightblue" d="M2179.52,-169.55C2182.56,-169.02 2185.58,-168.5 2188.5,-168 2260.08,-155.74 2342.39,-142.14 2397.34,-133.14"/>
<polygon fill="midnightblue" stroke="midnightblue" points="2397.97,-136.58 2407.27,-131.51 2396.83,-129.67 2397.97,-136.58"/>
</g>
<!-- Node62 -->
<g id="node50" class="node">
<title>Node62</title>
<g id="a_node50"><a xlink:href="../../d2/d2b/dialoglayoutsettings_8h.html" target="_top" xlink:title=" ">
<polygon fill="white" stroke="red" points="2540,-112.5 2540,-131.5 2713,-131.5 2713,-112.5 2540,-112.5"/>
<text text-anchor="middle" x="2626.5" y="-119.5" font-family="Helvetica,sans-Serif" font-size="10.00">../dialogs/dialoglayoutsettings.h</text>
</a>
</g>
</g>
<!-- Node56&#45;&gt;Node62 -->
<g id="edge61" class="edge">
<title>Node56&#45;&gt;Node62</title>
<path fill="none" stroke="midnightblue" d="M2179.76,-169.3C2182.72,-168.84 2185.65,-168.4 2188.5,-168 2221.37,-163.42 2411.26,-144.34 2529.97,-132.54"/>
<polygon fill="midnightblue" stroke="midnightblue" points="2530.56,-136 2540.16,-131.53 2529.87,-129.04 2530.56,-136"/>
</g>
<!-- Node62&#45;&gt;Node29 -->
<g id="edge62" class="edge">
<title>Node62&#45;&gt;Node29</title>
<path fill="none" stroke="midnightblue" d="M2591.48,-112.44C2553.25,-103.1 2491.93,-88.12 2450.24,-77.93"/>
<polygon fill="midnightblue" stroke="midnightblue" points="2450.9,-74.49 2440.35,-75.52 2449.24,-81.29 2450.9,-74.49"/>
</g>
<!-- Node62&#45;&gt;Node40 -->
<g id="edge63" class="edge">
<title>Node62&#45;&gt;Node40</title>
<path fill="none" stroke="midnightblue" d="M2541.08,-112.47C2423.34,-100.72 2215.72,-80 2127.29,-71.17"/>
<polygon fill="midnightblue" stroke="midnightblue" points="2127.4,-67.67 2117.11,-70.15 2126.71,-74.63 2127.4,-67.67"/>
</g>
</g>
</svg>
        <g id="navigator" transform="translate(0 0)" fill="#404254">
                <rect fill="#f2f5e9" fill-opacity="0.5" stroke="#606060" stroke-width=".5" x="0" y="0" width="60" height="60"/>
                <use id="zoomplus" xlink:href="#zoomPlus" x="17" y="9" onmousedown="handleZoom(evt,'in')"/>
                <use id="zoomminus" xlink:href="#zoomMin" x="42" y="9" onmousedown="handleZoom(evt,'out')"/>
                <use id="reset" xlink:href="#resetDef" x="30" y="36" onmousedown="handleReset()"/>
                <g id="arrowUp" xlink:href="#dirArrow" transform="translate(30 24)" onmousedown="handlePan(0,-1)">
                  <use xlink:href="#rim" fill="#404040">
                        <set attributeName="fill" to="#808080" begin="arrowUp.mouseover" end="arrowUp.mouseout"/>
                  </use>
                  <path fill="none" stroke="white" stroke-width="1.5" d="M0,-3.0v7 M-2.5,-0.5L0,-3.0L2.5,-0.5"/>
                </g>
                <g id="arrowRight" xlink:href="#dirArrow" transform="rotate(90) translate(36 -43)" onmousedown="handlePan(1,0)">
                  <use xlink:href="#rim" fill="#404040">
                        <set attributeName="fill" to="#808080" begin="arrowRight.mouseover" end="arrowRight.mouseout"/>
                  </use>
                  <path fill="none" stroke="white" stroke-width="1.5" d="M0,-3.0v7 M-2.5,-0.5L0,-3.0L2.5,-0.5"/>
                </g>
                <g id="arrowDown" xlink:href="#dirArrow" transform="rotate(180) translate(-30 -48)" onmousedown="handlePan(0,1)">
                  <use xlink:href="#rim" fill="#404040">
                        <set attributeName="fill" to="#808080" begin="arrowDown.mouseover" end="arrowDown.mouseout"/>
                  </use>
                  <path fill="none" stroke="white" stroke-width="1.5" d="M0,-3.0v7 M-2.5,-0.5L0,-3.0L2.5,-0.5"/>
                </g>
                <g id="arrowLeft" xlink:href="#dirArrow" transform="rotate(270) translate(-36 17)" onmousedown="handlePan(-1,0)">
                  <use xlink:href="#rim" fill="#404040">
                        <set attributeName="fill" to="#808080" begin="arrowLeft.mouseover" end="arrowLeft.mouseout"/>
                  </use>
                  <path fill="none" stroke="white" stroke-width="1.5" d="M0,-3.0v7 M-2.5,-0.5L0,-3.0L2.5,-0.5"/>
                </g>
        </g>
        <svg viewBox="0 0 15 15" width="100%" height="30px" preserveAspectRatio="xMaxYMin meet">
         <g id="arrow_out" transform="scale(0.3 0.3)">
          <a xlink:href="show__info__dialog_8cpp__incl_org.svg" target="_base">
           <rect id="button" ry="5" rx="5" y="6" x="6" height="38" width="38"
                fill="#f2f5e9" fill-opacity="0.5" stroke="#606060" stroke-width="1.0"/>
           <path id="arrow"
             d="M 11.500037,31.436501 C 11.940474,20.09759 22.043105,11.32322 32.158766,21.979434 L 37.068811,17.246167 C 37.068811,17.246167 37.088388,32 37.088388,32 L 22.160133,31.978069 C 22.160133,31.978069 26.997745,27.140456 26.997745,27.140456 C 18.528582,18.264221 13.291696,25.230495 11.500037,31.436501 z"
             style="fill:#404040;"/>
          </a>
         </g>
        </svg>
</svg>
