<?xml version="1.0" encoding="UTF-8" standalone="no"?>
<!DOCTYPE svg PUBLIC "-//W3C//DTD SVG 1.1//EN"
 "http://www.w3.org/Graphics/SVG/1.1/DTD/svg11.dtd">
<!-- Generated by graphviz version 2.43.0 (0)
 -->
<!-- Title: src/libs/vwidgets/mouse_coordinates.h Pages: 1 -->
<svg width="897pt" height="207pt"
 viewBox="0.00 0.00 896.50 207.00" xmlns="http://www.w3.org/2000/svg" xmlns:xlink="http://www.w3.org/1999/xlink">
<g id="graph0" class="graph" transform="scale(1 1) rotate(0) translate(4 203)">
<title>src/libs/vwidgets/mouse_coordinates.h</title>
<polygon fill="white" stroke="transparent" points="-4,4 -4,-203 892.5,-203 892.5,4 -4,4"/>
<!-- Node1 -->
<g id="node1" class="node">
<title>Node1</title>
<g id="a_node1"><a xlink:title=" ">
<polygon fill="#bfbfbf" stroke="black" points="317,-168.5 317,-198.5 451,-198.5 451,-168.5 317,-168.5"/>
<text text-anchor="start" x="325" y="-186.5" font-family="Helvetica,sans-Serif" font-size="10.00">src/libs/vwidgets/mouse</text>
<text text-anchor="middle" x="384" y="-175.5" font-family="Helvetica,sans-Serif" font-size="10.00">_coordinates.h</text>
</a>
</g>
</g>
<!-- Node2 -->
<g id="node2" class="node">
<title>Node2</title>
<g id="a_node2"><a xlink:title=" ">
<polygon fill="white" stroke="#bfbfbf" points="281.5,-112.5 281.5,-131.5 336.5,-131.5 336.5,-112.5 281.5,-112.5"/>
<text text-anchor="middle" x="309" y="-119.5" font-family="Helvetica,sans-Serif" font-size="10.00">QPointF</text>
</a>
</g>
</g>
<!-- Node1&#45;&gt;Node2 -->
<g id="edge1" class="edge">
<title>Node1&#45;&gt;Node2</title>
<path fill="none" stroke="midnightblue" d="M366.23,-168.4C354.65,-159.22 339.58,-147.26 327.8,-137.92"/>
<polygon fill="midnightblue" stroke="midnightblue" points="329.92,-135.13 319.91,-131.66 325.57,-140.61 329.92,-135.13"/>
</g>
<!-- Node3 -->
<g id="node3" class="node">
<title>Node3</title>
<g id="a_node3"><a xlink:title=" ">
<polygon fill="white" stroke="#bfbfbf" points="354.5,-112.5 354.5,-131.5 413.5,-131.5 413.5,-112.5 354.5,-112.5"/>
<text text-anchor="middle" x="384" y="-119.5" font-family="Helvetica,sans-Serif" font-size="10.00">QWidget</text>
</a>
</g>
</g>
<!-- Node1&#45;&gt;Node3 -->
<g id="edge2" class="edge">
<title>Node1&#45;&gt;Node3</title>
<path fill="none" stroke="midnightblue" d="M384,-168.4C384,-160.47 384,-150.46 384,-141.86"/>
<polygon fill="midnightblue" stroke="midnightblue" points="387.5,-141.66 384,-131.66 380.5,-141.66 387.5,-141.66"/>
</g>
<!-- Node4 -->
<g id="node4" class="node">
<title>Node4</title>
<g id="a_node4"><a xlink:href="../../d4/da4/def_8h.html" target="_top" xlink:title=" ">
<polygon fill="white" stroke="black" points="432,-112.5 432,-131.5 514,-131.5 514,-112.5 432,-112.5"/>
<text text-anchor="middle" x="473" y="-119.5" font-family="Helvetica,sans-Serif" font-size="10.00">../vmisc/def.h</text>
</a>
</g>
</g>
<!-- Node1&#45;&gt;Node4 -->
<g id="edge3" class="edge">
<title>Node1&#45;&gt;Node4</title>
<path fill="none" stroke="midnightblue" d="M405.09,-168.4C419.09,-159.04 437.41,-146.79 451.49,-137.38"/>
<polygon fill="midnightblue" stroke="midnightblue" points="453.68,-140.13 460.05,-131.66 449.79,-134.31 453.68,-140.13"/>
</g>
<!-- Node5 -->
<g id="node5" class="node">
<title>Node5</title>
<g id="a_node5"><a xlink:title=" ">
<polygon fill="white" stroke="#bfbfbf" points="0,-56.5 0,-75.5 120,-75.5 120,-56.5 0,-56.5"/>
<text text-anchor="middle" x="60" y="-63.5" font-family="Helvetica,sans-Serif" font-size="10.00">qcompilerdetection.h</text>
</a>
</g>
</g>
<!-- Node4&#45;&gt;Node5 -->
<g id="edge4" class="edge">
<title>Node4&#45;&gt;Node5</title>
<path fill="none" stroke="midnightblue" d="M431.83,-113.4C428.84,-112.91 425.88,-112.44 423,-112 296.44,-92.85 261.85,-92.38 130.38,-76.04"/>
<polygon fill="midnightblue" stroke="midnightblue" points="130.68,-72.55 120.33,-74.78 129.81,-79.49 130.68,-72.55"/>
</g>
<!-- Node6 -->
<g id="node6" class="node">
<title>Node6</title>
<g id="a_node6"><a xlink:title=" ">
<polygon fill="white" stroke="#bfbfbf" points="138.5,-56.5 138.5,-75.5 211.5,-75.5 211.5,-56.5 138.5,-56.5"/>
<text text-anchor="middle" x="175" y="-63.5" font-family="Helvetica,sans-Serif" font-size="10.00">QFileDialog</text>
</a>
</g>
</g>
<!-- Node4&#45;&gt;Node6 -->
<g id="edge5" class="edge">
<title>Node4&#45;&gt;Node6</title>
<path fill="none" stroke="midnightblue" d="M431.8,-113.58C428.82,-113.04 425.87,-112.51 423,-112 336.3,-96.47 312.26,-92.99 221.54,-76.08"/>
<polygon fill="midnightblue" stroke="midnightblue" points="222.12,-72.62 211.65,-74.23 220.83,-79.5 222.12,-72.62"/>
</g>
<!-- Node7 -->
<g id="node7" class="node">
<title>Node7</title>
<g id="a_node7"><a xlink:title=" ">
<polygon fill="white" stroke="#bfbfbf" points="230,-56.5 230,-75.5 280,-75.5 280,-56.5 230,-56.5"/>
<text text-anchor="middle" x="255" y="-63.5" font-family="Helvetica,sans-Serif" font-size="10.00">QLineF</text>
</a>
</g>
</g>
<!-- Node4&#45;&gt;Node7 -->
<g id="edge6" class="edge">
<title>Node4&#45;&gt;Node7</title>
<path fill="none" stroke="midnightblue" d="M437.89,-112.48C401.03,-103.51 341.4,-88.93 290,-76 289.9,-75.98 289.8,-75.95 289.7,-75.93"/>
<polygon fill="midnightblue" stroke="midnightblue" points="290.78,-72.59 280.23,-73.52 289.06,-79.37 290.78,-72.59"/>
</g>
<!-- Node8 -->
<g id="node8" class="node">
<title>Node8</title>
<g id="a_node8"><a xlink:title=" ">
<polygon fill="white" stroke="#bfbfbf" points="298.5,-56.5 298.5,-75.5 351.5,-75.5 351.5,-56.5 298.5,-56.5"/>
<text text-anchor="middle" x="325" y="-63.5" font-family="Helvetica,sans-Serif" font-size="10.00">QString</text>
</a>
</g>
</g>
<!-- Node4&#45;&gt;Node8 -->
<g id="edge7" class="edge">
<title>Node4&#45;&gt;Node8</title>
<path fill="none" stroke="midnightblue" d="M449.55,-112.44C424.87,-103.44 385.81,-89.19 358.02,-79.05"/>
<polygon fill="midnightblue" stroke="midnightblue" points="358.94,-75.66 348.34,-75.52 356.54,-82.23 358.94,-75.66"/>
</g>
<!-- Node9 -->
<g id="node9" class="node">
<title>Node9</title>
<g id="a_node9"><a xlink:title=" ">
<polygon fill="white" stroke="#bfbfbf" points="370,-56.5 370,-75.5 440,-75.5 440,-56.5 370,-56.5"/>
<text text-anchor="middle" x="405" y="-63.5" font-family="Helvetica,sans-Serif" font-size="10.00">QStringList</text>
</a>
</g>
</g>
<!-- Node4&#45;&gt;Node9 -->
<g id="edge8" class="edge">
<title>Node4&#45;&gt;Node9</title>
<path fill="none" stroke="midnightblue" d="M462.07,-112.32C451.83,-104.18 436.28,-91.84 424,-82.09"/>
<polygon fill="midnightblue" stroke="midnightblue" points="426.13,-79.31 416.12,-75.83 421.78,-84.79 426.13,-79.31"/>
</g>
<!-- Node10 -->
<g id="node10" class="node">
<title>Node10</title>
<g id="a_node10"><a xlink:title=" ">
<polygon fill="white" stroke="#bfbfbf" points="458.5,-56.5 458.5,-75.5 487.5,-75.5 487.5,-56.5 458.5,-56.5"/>
<text text-anchor="middle" x="473" y="-63.5" font-family="Helvetica,sans-Serif" font-size="10.00">Qt</text>
</a>
</g>
</g>
<!-- Node4&#45;&gt;Node10 -->
<g id="edge9" class="edge">
<title>Node4&#45;&gt;Node10</title>
<path fill="none" stroke="midnightblue" d="M473,-112.08C473,-105.01 473,-94.86 473,-85.99"/>
<polygon fill="midnightblue" stroke="midnightblue" points="476.5,-85.75 473,-75.75 469.5,-85.75 476.5,-85.75"/>
</g>
<!-- Node11 -->
<g id="node11" class="node">
<title>Node11</title>
<g id="a_node11"><a xlink:title=" ">
<polygon fill="white" stroke="#bfbfbf" points="505.5,-56.5 505.5,-75.5 564.5,-75.5 564.5,-56.5 505.5,-56.5"/>
<text text-anchor="middle" x="535" y="-63.5" font-family="Helvetica,sans-Serif" font-size="10.00">QtGlobal</text>
</a>
</g>
</g>
<!-- Node4&#45;&gt;Node11 -->
<g id="edge10" class="edge">
<title>Node4&#45;&gt;Node11</title>
<path fill="none" stroke="midnightblue" d="M482.96,-112.32C492.13,-104.34 505.94,-92.31 517.03,-82.65"/>
<polygon fill="midnightblue" stroke="midnightblue" points="519.62,-85.04 524.86,-75.83 515.02,-79.76 519.62,-85.04"/>
</g>
<!-- Node12 -->
<g id="node12" class="node">
<title>Node12</title>
<g id="a_node12"><a xlink:title=" ">
<polygon fill="white" stroke="#bfbfbf" points="583,-56.5 583,-75.5 639,-75.5 639,-56.5 583,-56.5"/>
<text text-anchor="middle" x="611" y="-63.5" font-family="Helvetica,sans-Serif" font-size="10.00">QPrinter</text>
</a>
</g>
</g>
<!-- Node4&#45;&gt;Node12 -->
<g id="edge11" class="edge">
<title>Node4&#45;&gt;Node12</title>
<path fill="none" stroke="midnightblue" d="M494.87,-112.44C517.78,-103.48 553.98,-89.31 579.87,-79.18"/>
<polygon fill="midnightblue" stroke="midnightblue" points="581.2,-82.42 589.24,-75.52 578.65,-75.9 581.2,-82.42"/>
</g>
<!-- Node13 -->
<g id="node13" class="node">
<title>Node13</title>
<g id="a_node13"><a xlink:title=" ">
<polygon fill="white" stroke="#bfbfbf" points="657.5,-56.5 657.5,-75.5 718.5,-75.5 718.5,-56.5 657.5,-56.5"/>
<text text-anchor="middle" x="688" y="-63.5" font-family="Helvetica,sans-Serif" font-size="10.00">QPixmap</text>
</a>
</g>
</g>
<!-- Node4&#45;&gt;Node13 -->
<g id="edge12" class="edge">
<title>Node4&#45;&gt;Node13</title>
<path fill="none" stroke="midnightblue" d="M507.07,-112.44C545.16,-102.88 606.83,-87.39 647.39,-77.2"/>
<polygon fill="midnightblue" stroke="midnightblue" points="648.38,-80.56 657.23,-74.73 646.68,-73.77 648.38,-80.56"/>
</g>
<!-- Node14 -->
<g id="node14" class="node">
<title>Node14</title>
<g id="a_node14"><a xlink:title=" ">
<polygon fill="white" stroke="#bfbfbf" points="736.5,-56.5 736.5,-75.5 787.5,-75.5 787.5,-56.5 736.5,-56.5"/>
<text text-anchor="middle" x="762" y="-63.5" font-family="Helvetica,sans-Serif" font-size="10.00">csignal</text>
</a>
</g>
</g>
<!-- Node4&#45;&gt;Node14 -->
<g id="edge13" class="edge">
<title>Node4&#45;&gt;Node14</title>
<path fill="none" stroke="midnightblue" d="M514.28,-114.81C562.91,-107.28 646.31,-93.6 726.66,-76.16"/>
<polygon fill="midnightblue" stroke="midnightblue" points="727.42,-79.58 736.44,-74.01 725.92,-72.74 727.42,-79.58"/>
</g>
<!-- Node15 -->
<g id="node15" class="node">
<title>Node15</title>
<g id="a_node15"><a xlink:href="../../d4/d82/debugbreak_8h.html" target="_top" xlink:title=" ">
<polygon fill="white" stroke="black" points="805.5,-56.5 805.5,-75.5 888.5,-75.5 888.5,-56.5 805.5,-56.5"/>
<text text-anchor="middle" x="847" y="-63.5" font-family="Helvetica,sans-Serif" font-size="10.00">debugbreak.h</text>
</a>
</g>
</g>
<!-- Node4&#45;&gt;Node15 -->
<g id="edge14" class="edge">
<title>Node4&#45;&gt;Node15</title>
<path fill="none" stroke="midnightblue" d="M514.25,-115.81C574.02,-108.17 688.43,-93.1 795.3,-76.22"/>
<polygon fill="midnightblue" stroke="midnightblue" points="795.95,-79.66 805.28,-74.64 794.85,-72.75 795.95,-79.66"/>
</g>
<!-- Node16 -->
<g id="node16" class="node">
<title>Node16</title>
<g id="a_node16"><a xlink:title=" ">
<polygon fill="white" stroke="#bfbfbf" points="819.5,-0.5 819.5,-19.5 874.5,-19.5 874.5,-0.5 819.5,-0.5"/>
<text text-anchor="middle" x="847" y="-7.5" font-family="Helvetica,sans-Serif" font-size="10.00">signal.h</text>
</a>
</g>
</g>
<!-- Node15&#45;&gt;Node16 -->
<g id="edge15" class="edge">
<title>Node15&#45;&gt;Node16</title>
<path fill="none" stroke="midnightblue" d="M847,-56.08C847,-49.01 847,-38.86 847,-29.99"/>
<polygon fill="midnightblue" stroke="midnightblue" points="850.5,-29.75 847,-19.75 843.5,-29.75 850.5,-29.75"/>
</g>
</g>
</svg>
