<?xml version="1.0" encoding="UTF-8" standalone="no"?>
<!DOCTYPE svg PUBLIC "-//W3C//DTD SVG 1.1//EN"
 "http://www.w3.org/Graphics/SVG/1.1/DTD/svg11.dtd">
<!-- Generated by graphviz version 2.43.0 (0)
 -->
<!-- Title: src/libs/xerces&#45;c/macx/include/xercesc/dom/impl/DOMXPathExpressionImpl.hpp Pages: 1 -->
<svg width="555pt" height="106pt"
 viewBox="0.00 0.00 554.50 106.00" xmlns="http://www.w3.org/2000/svg" xmlns:xlink="http://www.w3.org/1999/xlink">
<g id="graph0" class="graph" transform="scale(1 1) rotate(0) translate(4 102)">
<title>src/libs/xerces&#45;c/macx/include/xercesc/dom/impl/DOMXPathExpressionImpl.hpp</title>
<polygon fill="white" stroke="transparent" points="-4,4 -4,-102 550.5,-102 550.5,4 -4,4"/>
<!-- Node1 -->
<g id="node1" class="node">
<title>Node1</title>
<g id="a_node1"><a xlink:title=" ">
<polygon fill="#bfbfbf" stroke="black" points="157.5,-56.5 157.5,-97.5 324.5,-97.5 324.5,-56.5 157.5,-56.5"/>
<text text-anchor="start" x="165.5" y="-85.5" font-family="Helvetica,sans-Serif" font-size="10.00">src/libs/xerces&#45;c/macx</text>
<text text-anchor="start" x="165.5" y="-74.5" font-family="Helvetica,sans-Serif" font-size="10.00">/include/xercesc/dom/impl</text>
<text text-anchor="middle" x="241" y="-63.5" font-family="Helvetica,sans-Serif" font-size="10.00">/DOMXPathExpressionImpl.hpp</text>
</a>
</g>
</g>
<!-- Node2 -->
<g id="node2" class="node">
<title>Node2</title>
<g id="a_node2"><a xlink:title=" ">
<polygon fill="white" stroke="#bfbfbf" points="0,-0.5 0,-19.5 142,-19.5 142,-0.5 0,-0.5"/>
<text text-anchor="middle" x="71" y="-7.5" font-family="Helvetica,sans-Serif" font-size="10.00">xercesc/util/XMemory.hpp</text>
</a>
</g>
</g>
<!-- Node1&#45;&gt;Node2 -->
<g id="edge1" class="edge">
<title>Node1&#45;&gt;Node2</title>
<path fill="none" stroke="midnightblue" d="M189.99,-56.5C161.8,-45.72 127.63,-32.65 103.15,-23.29"/>
<polygon fill="midnightblue" stroke="midnightblue" points="104.22,-19.95 93.63,-19.65 101.72,-26.49 104.22,-19.95"/>
</g>
<!-- Node3 -->
<g id="node3" class="node">
<title>Node3</title>
<g id="a_node3"><a xlink:title=" ">
<polygon fill="white" stroke="#bfbfbf" points="160.5,-0.5 160.5,-19.5 321.5,-19.5 321.5,-0.5 160.5,-0.5"/>
<text text-anchor="middle" x="241" y="-7.5" font-family="Helvetica,sans-Serif" font-size="10.00">xercesc/util/PlatformUtils.hpp</text>
</a>
</g>
</g>
<!-- Node1&#45;&gt;Node3 -->
<g id="edge2" class="edge">
<title>Node1&#45;&gt;Node3</title>
<path fill="none" stroke="midnightblue" d="M241,-56.5C241,-48.07 241,-38.24 241,-29.87"/>
<polygon fill="midnightblue" stroke="midnightblue" points="244.5,-29.65 241,-19.65 237.5,-29.65 244.5,-29.65"/>
</g>
<!-- Node4 -->
<g id="node4" class="node">
<title>Node4</title>
<g id="a_node4"><a xlink:title=" ">
<polygon fill="white" stroke="#bfbfbf" points="339.5,-0.5 339.5,-19.5 546.5,-19.5 546.5,-0.5 339.5,-0.5"/>
<text text-anchor="middle" x="443" y="-7.5" font-family="Helvetica,sans-Serif" font-size="10.00">xercesc/dom/DOMXPathExpression.hpp</text>
</a>
</g>
</g>
<!-- Node1&#45;&gt;Node4 -->
<g id="edge3" class="edge">
<title>Node1&#45;&gt;Node4</title>
<path fill="none" stroke="midnightblue" d="M301.61,-56.5C335.81,-45.49 377.41,-32.11 406.6,-22.71"/>
<polygon fill="midnightblue" stroke="midnightblue" points="407.93,-25.96 416.38,-19.57 405.78,-19.3 407.93,-25.96"/>
</g>
</g>
</svg>
