<?xml version="1.0" encoding="UTF-8" standalone="no"?>
<!DOCTYPE svg PUBLIC "-//W3C//DTD SVG 1.1//EN"
 "http://www.w3.org/Graphics/SVG/1.1/DTD/svg11.dtd">
<!-- Generated by graphviz version 2.43.0 (0)
 -->
<!-- Title: src/libs/vtools/undocommands/label/showdoublepointname.h Pages: 1 -->
<svg width="1039pt" height="151pt"
 viewBox="0.00 0.00 1038.50 151.00" xmlns="http://www.w3.org/2000/svg" xmlns:xlink="http://www.w3.org/1999/xlink">
<g id="graph0" class="graph" transform="scale(1 1) rotate(0) translate(4 147)">
<title>src/libs/vtools/undocommands/label/showdoublepointname.h</title>
<polygon fill="white" stroke="transparent" points="-4,4 -4,-147 1034.5,-147 1034.5,4 -4,4"/>
<!-- Node1 -->
<g id="node1" class="node">
<title>Node1</title>
<g id="a_node1"><a xlink:title=" ">
<polygon fill="#bfbfbf" stroke="black" points="406.5,-112.5 406.5,-142.5 573.5,-142.5 573.5,-112.5 406.5,-112.5"/>
<text text-anchor="start" x="414.5" y="-130.5" font-family="Helvetica,sans-Serif" font-size="10.00">src/libs/vtools/undocommands</text>
<text text-anchor="middle" x="490" y="-119.5" font-family="Helvetica,sans-Serif" font-size="10.00">/label/showdoublepointname.h</text>
</a>
</g>
</g>
<!-- Node2 -->
<g id="node2" class="node">
<title>Node2</title>
<g id="a_node2"><a xlink:href="../../d6/dbe/vundocommand_8h.html" target="_top" xlink:title=" ">
<polygon fill="white" stroke="black" points="433.5,-56.5 433.5,-75.5 546.5,-75.5 546.5,-56.5 433.5,-56.5"/>
<text text-anchor="middle" x="490" y="-63.5" font-family="Helvetica,sans-Serif" font-size="10.00">../vundocommand.h</text>
</a>
</g>
</g>
<!-- Node1&#45;&gt;Node2 -->
<g id="edge1" class="edge">
<title>Node1&#45;&gt;Node2</title>
<path fill="none" stroke="midnightblue" d="M490,-112.4C490,-104.47 490,-94.46 490,-85.86"/>
<polygon fill="midnightblue" stroke="midnightblue" points="493.5,-85.66 490,-75.66 486.5,-85.66 493.5,-85.66"/>
</g>
<!-- Node3 -->
<g id="node3" class="node">
<title>Node3</title>
<g id="a_node3"><a xlink:title=" ">
<polygon fill="white" stroke="#bfbfbf" points="0,-0.5 0,-19.5 120,-19.5 120,-0.5 0,-0.5"/>
<text text-anchor="middle" x="60" y="-7.5" font-family="Helvetica,sans-Serif" font-size="10.00">qcompilerdetection.h</text>
</a>
</g>
</g>
<!-- Node2&#45;&gt;Node3 -->
<g id="edge2" class="edge">
<title>Node2&#45;&gt;Node3</title>
<path fill="none" stroke="midnightblue" d="M433.4,-58.05C364.4,-49.54 243.92,-34.63 130.46,-20.18"/>
<polygon fill="midnightblue" stroke="midnightblue" points="130.57,-16.67 120.21,-18.87 129.69,-23.61 130.57,-16.67"/>
</g>
<!-- Node4 -->
<g id="node4" class="node">
<title>Node4</title>
<g id="a_node4"><a xlink:title=" ">
<polygon fill="white" stroke="#bfbfbf" points="138,-0.5 138,-19.5 226,-19.5 226,-0.5 138,-0.5"/>
<text text-anchor="middle" x="182" y="-7.5" font-family="Helvetica,sans-Serif" font-size="10.00">QDomElement</text>
</a>
</g>
</g>
<!-- Node2&#45;&gt;Node4 -->
<g id="edge3" class="edge">
<title>Node2&#45;&gt;Node4</title>
<path fill="none" stroke="midnightblue" d="M441.2,-56.44C385.35,-46.65 294.15,-30.66 236.16,-20.49"/>
<polygon fill="midnightblue" stroke="midnightblue" points="236.54,-17.01 226.08,-18.73 235.33,-23.9 236.54,-17.01"/>
</g>
<!-- Node5 -->
<g id="node5" class="node">
<title>Node5</title>
<g id="a_node5"><a xlink:title=" ">
<polygon fill="white" stroke="#bfbfbf" points="244,-0.5 244,-19.5 324,-19.5 324,-0.5 244,-0.5"/>
<text text-anchor="middle" x="284" y="-7.5" font-family="Helvetica,sans-Serif" font-size="10.00">QMetaObject</text>
</a>
</g>
</g>
<!-- Node2&#45;&gt;Node5 -->
<g id="edge4" class="edge">
<title>Node2&#45;&gt;Node5</title>
<path fill="none" stroke="midnightblue" d="M457.36,-56.44C421.95,-47.16 365.29,-32.31 326.45,-22.13"/>
<polygon fill="midnightblue" stroke="midnightblue" points="327.05,-18.67 316.49,-19.52 325.27,-25.44 327.05,-18.67"/>
</g>
<!-- Node6 -->
<g id="node6" class="node">
<title>Node6</title>
<g id="a_node6"><a xlink:title=" ">
<polygon fill="white" stroke="#bfbfbf" points="342,-0.5 342,-19.5 398,-19.5 398,-0.5 342,-0.5"/>
<text text-anchor="middle" x="370" y="-7.5" font-family="Helvetica,sans-Serif" font-size="10.00">QObject</text>
</a>
</g>
</g>
<!-- Node2&#45;&gt;Node6 -->
<g id="edge5" class="edge">
<title>Node2&#45;&gt;Node6</title>
<path fill="none" stroke="midnightblue" d="M470.99,-56.44C451.41,-47.64 420.69,-33.81 398.27,-23.72"/>
<polygon fill="midnightblue" stroke="midnightblue" points="399.48,-20.43 388.93,-19.52 396.61,-26.81 399.48,-20.43"/>
</g>
<!-- Node7 -->
<g id="node7" class="node">
<title>Node7</title>
<g id="a_node7"><a xlink:title=" ">
<polygon fill="white" stroke="#bfbfbf" points="416.5,-0.5 416.5,-19.5 469.5,-19.5 469.5,-0.5 416.5,-0.5"/>
<text text-anchor="middle" x="443" y="-7.5" font-family="Helvetica,sans-Serif" font-size="10.00">QString</text>
</a>
</g>
</g>
<!-- Node2&#45;&gt;Node7 -->
<g id="edge6" class="edge">
<title>Node2&#45;&gt;Node7</title>
<path fill="none" stroke="midnightblue" d="M482.24,-56.08C475.46,-48.3 465.46,-36.8 457.24,-27.37"/>
<polygon fill="midnightblue" stroke="midnightblue" points="459.82,-25 450.62,-19.75 454.54,-29.59 459.82,-25"/>
</g>
<!-- Node8 -->
<g id="node8" class="node">
<title>Node8</title>
<g id="a_node8"><a xlink:title=" ">
<polygon fill="white" stroke="#bfbfbf" points="488,-0.5 488,-19.5 588,-19.5 588,-0.5 488,-0.5"/>
<text text-anchor="middle" x="538" y="-7.5" font-family="Helvetica,sans-Serif" font-size="10.00">QUndoCommand</text>
</a>
</g>
</g>
<!-- Node2&#45;&gt;Node8 -->
<g id="edge7" class="edge">
<title>Node2&#45;&gt;Node8</title>
<path fill="none" stroke="midnightblue" d="M497.93,-56.08C504.85,-48.3 515.07,-36.8 523.45,-27.37"/>
<polygon fill="midnightblue" stroke="midnightblue" points="526.19,-29.55 530.22,-19.75 520.96,-24.9 526.19,-29.55"/>
</g>
<!-- Node9 -->
<g id="node9" class="node">
<title>Node9</title>
<g id="a_node9"><a xlink:title=" ">
<polygon fill="white" stroke="#bfbfbf" points="606.5,-0.5 606.5,-19.5 661.5,-19.5 661.5,-0.5 606.5,-0.5"/>
<text text-anchor="middle" x="634" y="-7.5" font-family="Helvetica,sans-Serif" font-size="10.00">QVector</text>
</a>
</g>
</g>
<!-- Node2&#45;&gt;Node9 -->
<g id="edge8" class="edge">
<title>Node2&#45;&gt;Node9</title>
<path fill="none" stroke="midnightblue" d="M512.82,-56.44C536.83,-47.44 574.83,-33.19 601.87,-23.05"/>
<polygon fill="midnightblue" stroke="midnightblue" points="603.16,-26.3 611.29,-19.52 600.7,-19.75 603.16,-26.3"/>
</g>
<!-- Node10 -->
<g id="node10" class="node">
<title>Node10</title>
<g id="a_node10"><a xlink:title=" ">
<polygon fill="white" stroke="#bfbfbf" points="679.5,-0.5 679.5,-19.5 738.5,-19.5 738.5,-0.5 679.5,-0.5"/>
<text text-anchor="middle" x="709" y="-7.5" font-family="Helvetica,sans-Serif" font-size="10.00">QtGlobal</text>
</a>
</g>
</g>
<!-- Node2&#45;&gt;Node10 -->
<g id="edge9" class="edge">
<title>Node2&#45;&gt;Node10</title>
<path fill="none" stroke="midnightblue" d="M524.7,-56.44C564.14,-46.72 628.39,-30.88 669.66,-20.7"/>
<polygon fill="midnightblue" stroke="midnightblue" points="670.51,-24.1 679.38,-18.3 668.83,-17.3 670.51,-24.1"/>
</g>
<!-- Node11 -->
<g id="node11" class="node">
<title>Node11</title>
<g id="a_node11"><a xlink:title=" ">
<polygon fill="white" stroke="#bfbfbf" points="757,-0.5 757,-19.5 909,-19.5 909,-0.5 757,-0.5"/>
<text text-anchor="middle" x="833" y="-7.5" font-family="Helvetica,sans-Serif" font-size="10.00">../ifc/xml/vabstractpattern.h</text>
</a>
</g>
</g>
<!-- Node2&#45;&gt;Node11 -->
<g id="edge10" class="edge">
<title>Node2&#45;&gt;Node11</title>
<path fill="none" stroke="midnightblue" d="M544.35,-56.44C605.31,-46.85 704.11,-31.29 768.82,-21.1"/>
<polygon fill="midnightblue" stroke="midnightblue" points="769.57,-24.53 778.9,-19.52 768.48,-17.61 769.57,-24.53"/>
</g>
<!-- Node12 -->
<g id="node12" class="node">
<title>Node12</title>
<g id="a_node12"><a xlink:title=" ">
<polygon fill="white" stroke="#bfbfbf" points="927.5,-0.5 927.5,-19.5 1030.5,-19.5 1030.5,-0.5 927.5,-0.5"/>
<text text-anchor="middle" x="979" y="-7.5" font-family="Helvetica,sans-Serif" font-size="10.00">../vmisc/logging.h</text>
</a>
</g>
</g>
<!-- Node2&#45;&gt;Node12 -->
<g id="edge11" class="edge">
<title>Node2&#45;&gt;Node12</title>
<path fill="none" stroke="midnightblue" d="M546.51,-59.82C626.57,-52.3 777.83,-37.49 917.41,-20.02"/>
<polygon fill="midnightblue" stroke="midnightblue" points="917.95,-23.48 927.44,-18.76 917.08,-16.54 917.95,-23.48"/>
</g>
</g>
</svg>
