<?xml version="1.0" encoding="UTF-8" standalone="no"?>
<!DOCTYPE svg PUBLIC "-//W3C//DTD SVG 1.1//EN"
 "http://www.w3.org/Graphics/SVG/1.1/DTD/svg11.dtd">
<!-- Generated by graphviz version 2.43.0 (0)
 -->
<!-- Title: src/libs/ifc/exception/vexceptionbadid.h Pages: 1 -->
<svg width="6409pt" height="318pt"
 viewBox="0.00 0.00 6409.00 318.00" xmlns="http://www.w3.org/2000/svg" xmlns:xlink="http://www.w3.org/1999/xlink">
<g id="graph0" class="graph" transform="scale(1 1) rotate(0) translate(4 314)">
<title>src/libs/ifc/exception/vexceptionbadid.h</title>
<polygon fill="white" stroke="transparent" points="-4,4 -4,-314 6405,-314 6405,4 -4,4"/>
<!-- Node1 -->
<g id="node1" class="node">
<title>Node1</title>
<g id="a_node1"><a xlink:title=" ">
<polygon fill="#bfbfbf" stroke="black" points="5211.5,-279.5 5211.5,-309.5 5328.5,-309.5 5328.5,-279.5 5211.5,-279.5"/>
<text text-anchor="start" x="5219.5" y="-297.5" font-family="Helvetica,sans-Serif" font-size="10.00">src/libs/ifc/exception</text>
<text text-anchor="middle" x="5270" y="-286.5" font-family="Helvetica,sans-Serif" font-size="10.00">/vexceptionbadid.h</text>
</a>
</g>
</g>
<!-- Node2 -->
<g id="node2" class="node">
<title>Node2</title>
<g id="a_node2"><a xlink:href="../../d5/d85/vexceptionbadid_8cpp.html" target="_top" xlink:title=" ">
<polygon fill="white" stroke="black" points="5036.5,-212.5 5036.5,-242.5 5157.5,-242.5 5157.5,-212.5 5036.5,-212.5"/>
<text text-anchor="start" x="5044.5" y="-230.5" font-family="Helvetica,sans-Serif" font-size="10.00">src/libs/ifc/exception</text>
<text text-anchor="middle" x="5097" y="-219.5" font-family="Helvetica,sans-Serif" font-size="10.00">/vexceptionbadid.cpp</text>
</a>
</g>
</g>
<!-- Node1&#45;&gt;Node2 -->
<g id="edge1" class="edge">
<title>Node1&#45;&gt;Node2</title>
<path fill="none" stroke="midnightblue" d="M5222.94,-275.82C5195.13,-265.37 5160.41,-252.32 5134.47,-242.58"/>
<polygon fill="midnightblue" stroke="midnightblue" points="5221.87,-279.16 5232.46,-279.4 5224.33,-272.6 5221.87,-279.16"/>
</g>
<!-- Node3 -->
<g id="node3" class="node">
<title>Node3</title>
<g id="a_node3"><a xlink:href="../../d7/d49/vdomdocument_8cpp.html" target="_top" xlink:title=" ">
<polygon fill="white" stroke="black" points="5176,-218 5176,-237 5364,-237 5364,-218 5176,-218"/>
<text text-anchor="middle" x="5270" y="-225" font-family="Helvetica,sans-Serif" font-size="10.00">src/libs/ifc/xml/vdomdocument.cpp</text>
</a>
</g>
</g>
<!-- Node1&#45;&gt;Node3 -->
<g id="edge2" class="edge">
<title>Node1&#45;&gt;Node3</title>
<path fill="none" stroke="midnightblue" d="M5270,-269.25C5270,-258.02 5270,-245.38 5270,-237.19"/>
<polygon fill="midnightblue" stroke="midnightblue" points="5266.5,-269.4 5270,-279.4 5273.5,-269.4 5266.5,-269.4"/>
</g>
<!-- Node4 -->
<g id="node4" class="node">
<title>Node4</title>
<g id="a_node4"><a xlink:href="../../d3/df7/vcontainer_8h.html" target="_top" xlink:title=" ">
<polygon fill="white" stroke="black" points="5382.5,-212.5 5382.5,-242.5 5489.5,-242.5 5489.5,-212.5 5382.5,-212.5"/>
<text text-anchor="start" x="5390.5" y="-230.5" font-family="Helvetica,sans-Serif" font-size="10.00">src/libs/vpatterndb</text>
<text text-anchor="middle" x="5436" y="-219.5" font-family="Helvetica,sans-Serif" font-size="10.00">/vcontainer.h</text>
</a>
</g>
</g>
<!-- Node1&#45;&gt;Node4 -->
<g id="edge3" class="edge">
<title>Node1&#45;&gt;Node4</title>
<path fill="none" stroke="midnightblue" d="M5315.51,-275.68C5342.13,-265.26 5375.27,-252.28 5400.05,-242.58"/>
<polygon fill="midnightblue" stroke="midnightblue" points="5314.05,-272.49 5306.02,-279.4 5316.61,-279.01 5314.05,-272.49"/>
</g>
<!-- Node5 -->
<g id="node5" class="node">
<title>Node5</title>
<g id="a_node5"><a xlink:href="../../dc/db7/measurements_8h.html" target="_top" xlink:title=" ">
<polygon fill="white" stroke="black" points="142.5,-145.5 142.5,-164.5 321.5,-164.5 321.5,-145.5 142.5,-145.5"/>
<text text-anchor="middle" x="232" y="-152.5" font-family="Helvetica,sans-Serif" font-size="10.00">src/libs/vformat/measurements.h</text>
</a>
</g>
</g>
<!-- Node4&#45;&gt;Node5 -->
<g id="edge4" class="edge">
<title>Node4&#45;&gt;Node5</title>
<path fill="none" stroke="midnightblue" d="M5372.03,-212.16C4802.22,-150.79 1135.77,-191.89 610,-176 511.31,-173.02 398.25,-166.65 321.69,-161.89"/>
<polygon fill="midnightblue" stroke="midnightblue" points="5371.85,-215.66 5382.18,-213.3 5372.63,-208.7 5371.85,-215.66"/>
</g>
<!-- Node6 -->
<g id="node6" class="node">
<title>Node6</title>
<g id="a_node6"><a xlink:href="../../d9/de3/measurements_8cpp.html" target="_top" xlink:title=" ">
<polygon fill="white" stroke="black" points="0,-73 0,-92 190,-92 190,-73 0,-73"/>
<text text-anchor="middle" x="95" y="-80" font-family="Helvetica,sans-Serif" font-size="10.00">src/libs/vformat/measurements.cpp</text>
</a>
</g>
</g>
<!-- Node4&#45;&gt;Node6 -->
<g id="edge6" class="edge">
<title>Node4&#45;&gt;Node6</title>
<path fill="none" stroke="midnightblue" d="M5371.98,-212.15C4820.85,-153.16 1285.84,-211.8 780,-176 539.1,-158.95 253.62,-111.54 142.54,-92.04"/>
<polygon fill="midnightblue" stroke="midnightblue" points="5371.85,-215.66 5382.18,-213.3 5372.63,-208.7 5371.85,-215.66"/>
</g>
<!-- Node7 -->
<g id="node7" class="node">
<title>Node7</title>
<g id="a_node7"><a xlink:href="../../d6/de0/vlayoutpiece_8h.html" target="_top" xlink:title=" ">
<polygon fill="white" stroke="black" points="789,-145.5 789,-164.5 955,-164.5 955,-145.5 789,-145.5"/>
<text text-anchor="middle" x="872" y="-152.5" font-family="Helvetica,sans-Serif" font-size="10.00">src/libs/vlayout/vlayoutpiece.h</text>
</a>
</g>
</g>
<!-- Node4&#45;&gt;Node7 -->
<g id="edge7" class="edge">
<title>Node4&#45;&gt;Node7</title>
<path fill="none" stroke="midnightblue" d="M5371.99,-212.17C5009.26,-173.78 2792.97,-179.97 2474,-176 1892.72,-168.76 1192.8,-160.01 955.39,-157.04"/>
<polygon fill="midnightblue" stroke="midnightblue" points="5371.85,-215.67 5382.18,-213.32 5372.63,-208.72 5371.85,-215.67"/>
</g>
<!-- Node17 -->
<g id="node16" class="node">
<title>Node17</title>
<g id="a_node16"><a xlink:href="../../d8/d70/vtextmanager_8cpp.html" target="_top" xlink:title=" ">
<polygon fill="white" stroke="black" points="1529,-73 1529,-92 1711,-92 1711,-73 1529,-73"/>
<text text-anchor="middle" x="1620" y="-80" font-family="Helvetica,sans-Serif" font-size="10.00">src/libs/vlayout/vtextmanager.cpp</text>
</a>
</g>
</g>
<!-- Node4&#45;&gt;Node17 -->
<g id="edge18" class="edge">
<title>Node4&#45;&gt;Node17</title>
<path fill="none" stroke="midnightblue" d="M5372.18,-212.13C4915.96,-158.38 3815.59,-190.35 3375,-176 2639.02,-152.03 2453.01,-168.25 1720,-98 1704.37,-96.5 1687.45,-94.28 1672.04,-92.02"/>
<polygon fill="midnightblue" stroke="midnightblue" points="5371.83,-215.61 5382.17,-213.34 5372.67,-208.66 5371.83,-215.61"/>
</g>
<!-- Node18 -->
<g id="node17" class="node">
<title>Node18</title>
<g id="a_node17"><a xlink:href="../../d5/d74/vabstractapplication_8h.html" target="_top" xlink:title=" ">
<polygon fill="white" stroke="red" points="3384.5,-145.5 3384.5,-164.5 3579.5,-164.5 3579.5,-145.5 3384.5,-145.5"/>
<text text-anchor="middle" x="3482" y="-152.5" font-family="Helvetica,sans-Serif" font-size="10.00">src/libs/vmisc/vabstractapplication.h</text>
</a>
</g>
</g>
<!-- Node4&#45;&gt;Node18 -->
<g id="edge19" class="edge">
<title>Node4&#45;&gt;Node18</title>
<path fill="none" stroke="midnightblue" d="M5372.2,-212.12C5001.07,-166.57 3912.51,-157.97 3579.72,-156.36"/>
<polygon fill="midnightblue" stroke="midnightblue" points="5371.81,-215.6 5382.17,-213.38 5372.69,-208.66 5371.81,-215.6"/>
</g>
<!-- Node36 -->
<g id="node31" class="node">
<title>Node36</title>
<g id="a_node31"><a xlink:href="../../db/d11/vformula_8cpp.html" target="_top" xlink:title=" ">
<polygon fill="white" stroke="black" points="5241.5,-67.5 5241.5,-97.5 5348.5,-97.5 5348.5,-67.5 5241.5,-67.5"/>
<text text-anchor="start" x="5249.5" y="-85.5" font-family="Helvetica,sans-Serif" font-size="10.00">src/libs/vpatterndb</text>
<text text-anchor="middle" x="5295" y="-74.5" font-family="Helvetica,sans-Serif" font-size="10.00">/vformula.cpp</text>
</a>
</g>
</g>
<!-- Node4&#45;&gt;Node36 -->
<g id="edge52" class="edge">
<title>Node4&#45;&gt;Node36</title>
<path fill="none" stroke="midnightblue" d="M5414.7,-204.9C5385.48,-175.26 5333.75,-122.8 5308.98,-97.68"/>
<polygon fill="midnightblue" stroke="midnightblue" points="5412.45,-207.6 5421.96,-212.27 5417.44,-202.69 5412.45,-207.6"/>
</g>
<!-- Node37 -->
<g id="node32" class="node">
<title>Node37</title>
<g id="a_node32"><a xlink:href="../../d6/d46/vcontainer_8cpp.html" target="_top" xlink:title=" ">
<polygon fill="white" stroke="black" points="5366.5,-67.5 5366.5,-97.5 5473.5,-97.5 5473.5,-67.5 5366.5,-67.5"/>
<text text-anchor="start" x="5374.5" y="-85.5" font-family="Helvetica,sans-Serif" font-size="10.00">src/libs/vpatterndb</text>
<text text-anchor="middle" x="5420" y="-74.5" font-family="Helvetica,sans-Serif" font-size="10.00">/vcontainer.cpp</text>
</a>
</g>
</g>
<!-- Node4&#45;&gt;Node37 -->
<g id="edge53" class="edge">
<title>Node4&#45;&gt;Node37</title>
<path fill="none" stroke="midnightblue" d="M5428,-202.37C5425.61,-194.1 5423.28,-184.73 5422,-176 5417.96,-148.51 5418.46,-115.93 5419.22,-97.7"/>
<polygon fill="midnightblue" stroke="midnightblue" points="5424.71,-203.58 5430.98,-212.12 5431.4,-201.53 5424.71,-203.58"/>
</g>
<!-- Node39 -->
<g id="node34" class="node">
<title>Node39</title>
<g id="a_node34"><a xlink:href="../../d8/dba/vpiecenode_8cpp.html" target="_top" xlink:title=" ">
<polygon fill="white" stroke="black" points="4215.5,-0.5 4215.5,-30.5 4322.5,-30.5 4322.5,-0.5 4215.5,-0.5"/>
<text text-anchor="start" x="4223.5" y="-18.5" font-family="Helvetica,sans-Serif" font-size="10.00">src/libs/vpatterndb</text>
<text text-anchor="middle" x="4269" y="-7.5" font-family="Helvetica,sans-Serif" font-size="10.00">/vpiecenode.cpp</text>
</a>
</g>
</g>
<!-- Node4&#45;&gt;Node39 -->
<g id="edge55" class="edge">
<title>Node4&#45;&gt;Node39</title>
<path fill="none" stroke="midnightblue" d="M5447.81,-203.4C5460.57,-179.26 5480.71,-143.56 5493,-134 5535.28,-101.12 5576.29,-141.16 5608,-98 5616.16,-86.9 5617.56,-76.92 5608,-67 5562.72,-19.98 4567.1,-16.59 4322.77,-16.47"/>
<polygon fill="midnightblue" stroke="midnightblue" points="5444.68,-201.84 5443.16,-212.32 5450.89,-205.08 5444.68,-201.84"/>
</g>
<!-- Node40 -->
<g id="node35" class="node">
<title>Node40</title>
<g id="a_node35"><a xlink:href="../../df/d7a/vpiece_8cpp.html" target="_top" xlink:title=" ">
<polygon fill="white" stroke="black" points="5491.5,-67.5 5491.5,-97.5 5598.5,-97.5 5598.5,-67.5 5491.5,-67.5"/>
<text text-anchor="start" x="5499.5" y="-85.5" font-family="Helvetica,sans-Serif" font-size="10.00">src/libs/vpatterndb</text>
<text text-anchor="middle" x="5545" y="-74.5" font-family="Helvetica,sans-Serif" font-size="10.00">/vpiece.cpp</text>
</a>
</g>
</g>
<!-- Node4&#45;&gt;Node40 -->
<g id="edge56" class="edge">
<title>Node4&#45;&gt;Node40</title>
<path fill="none" stroke="midnightblue" d="M5437.28,-202.03C5439.43,-181.99 5445.12,-153.81 5460,-134 5472.17,-117.81 5491.18,-105.81 5508.14,-97.59"/>
<polygon fill="midnightblue" stroke="midnightblue" points="5433.77,-201.96 5436.41,-212.22 5440.74,-202.55 5433.77,-201.96"/>
</g>
<!-- Node57 -->
<g id="node45" class="node">
<title>Node57</title>
<g id="a_node45"><a xlink:href="../../d3/d02/custom__variable__p_8h.html" target="_top" xlink:title=" ">
<polygon fill="white" stroke="red" points="5501.5,-140 5501.5,-170 5670.5,-170 5670.5,-140 5501.5,-140"/>
<text text-anchor="start" x="5509.5" y="-158" font-family="Helvetica,sans-Serif" font-size="10.00">src/libs/vpatterndb</text>
<text text-anchor="middle" x="5586" y="-147" font-family="Helvetica,sans-Serif" font-size="10.00">/variables/custom_variable_p.h</text>
</a>
</g>
</g>
<!-- Node4&#45;&gt;Node57 -->
<g id="edge50" class="edge">
<title>Node4&#45;&gt;Node57</title>
<path fill="none" stroke="midnightblue" d="M5475.3,-208.03C5500.56,-196.16 5532.87,-180.97 5556.06,-170.07"/>
<polygon fill="midnightblue" stroke="midnightblue" points="5473.56,-204.98 5465.99,-212.4 5476.53,-211.32 5473.56,-204.98"/>
</g>
<!-- Node59 -->
<g id="node46" class="node">
<title>Node59</title>
<g id="a_node46"><a xlink:href="../../d7/d8a/measurement__variable__p_8h.html" target="_top" xlink:title=" ">
<polygon fill="white" stroke="red" points="5689,-134.5 5689,-175.5 5825,-175.5 5825,-134.5 5689,-134.5"/>
<text text-anchor="start" x="5697" y="-163.5" font-family="Helvetica,sans-Serif" font-size="10.00">src/libs/vpatterndb</text>
<text text-anchor="start" x="5697" y="-152.5" font-family="Helvetica,sans-Serif" font-size="10.00">/variables/measurement</text>
<text text-anchor="middle" x="5757" y="-141.5" font-family="Helvetica,sans-Serif" font-size="10.00">_variable_p.h</text>
</a>
</g>
</g>
<!-- Node4&#45;&gt;Node59 -->
<g id="edge51" class="edge">
<title>Node4&#45;&gt;Node59</title>
<path fill="none" stroke="midnightblue" d="M5499.85,-214.19C5549.19,-204.46 5619.11,-190.2 5680,-176 5682.82,-175.34 5685.7,-174.66 5688.61,-173.95"/>
<polygon fill="midnightblue" stroke="midnightblue" points="5499.1,-210.77 5489.96,-216.14 5500.45,-217.64 5499.1,-210.77"/>
</g>
<!-- Node61 -->
<g id="node47" class="node">
<title>Node61</title>
<g id="a_node47"><a xlink:href="../../d6/d91/vnodedetail_8cpp.html" target="_top" xlink:title=" ">
<polygon fill="white" stroke="black" points="5843.5,-140 5843.5,-170 5950.5,-170 5950.5,-140 5843.5,-140"/>
<text text-anchor="start" x="5851.5" y="-158" font-family="Helvetica,sans-Serif" font-size="10.00">src/libs/vpatterndb</text>
<text text-anchor="middle" x="5897" y="-147" font-family="Helvetica,sans-Serif" font-size="10.00">/vnodedetail.cpp</text>
</a>
</g>
</g>
<!-- Node4&#45;&gt;Node61 -->
<g id="edge54" class="edge">
<title>Node4&#45;&gt;Node61</title>
<path fill="none" stroke="midnightblue" d="M5499.93,-221.98C5579.07,-215.56 5717.64,-201.63 5834,-176 5841.4,-174.37 5849.17,-172.25 5856.63,-170.01"/>
<polygon fill="midnightblue" stroke="midnightblue" points="5499.33,-218.51 5489.64,-222.8 5499.88,-225.49 5499.33,-218.51"/>
</g>
<!-- Node62 -->
<g id="node48" class="node">
<title>Node62</title>
<g id="a_node48"><a xlink:href="../../da/de1/vpiecepath_8cpp.html" target="_top" xlink:title=" ">
<polygon fill="white" stroke="black" points="5968.5,-140 5968.5,-170 6075.5,-170 6075.5,-140 5968.5,-140"/>
<text text-anchor="start" x="5976.5" y="-158" font-family="Helvetica,sans-Serif" font-size="10.00">src/libs/vpatterndb</text>
<text text-anchor="middle" x="6022" y="-147" font-family="Helvetica,sans-Serif" font-size="10.00">/vpiecepath.cpp</text>
</a>
</g>
</g>
<!-- Node4&#45;&gt;Node62 -->
<g id="edge57" class="edge">
<title>Node4&#45;&gt;Node62</title>
<path fill="none" stroke="midnightblue" d="M5499.93,-224.78C5599.3,-221.11 5796.42,-209.85 5960,-176 5967.42,-174.46 5975.2,-172.36 5982.65,-170.1"/>
<polygon fill="midnightblue" stroke="midnightblue" points="5499.62,-221.29 5489.75,-225.14 5499.87,-228.28 5499.62,-221.29"/>
</g>
<!-- Node63 -->
<g id="node49" class="node">
<title>Node63</title>
<g id="a_node49"><a xlink:href="../../d1/d3a/abstracttest_8cpp.html" target="_top" xlink:title=" ">
<polygon fill="white" stroke="black" points="6093.5,-145.5 6093.5,-164.5 6254.5,-164.5 6254.5,-145.5 6093.5,-145.5"/>
<text text-anchor="middle" x="6174" y="-152.5" font-family="Helvetica,sans-Serif" font-size="10.00">src/libs/vtest/abstracttest.cpp</text>
</a>
</g>
</g>
<!-- Node4&#45;&gt;Node63 -->
<g id="edge58" class="edge">
<title>Node4&#45;&gt;Node63</title>
<path fill="none" stroke="midnightblue" d="M5499.91,-224.57C5616.68,-220.36 5872.1,-208.03 6085,-176 6103.79,-173.17 6124.52,-168.6 6141.24,-164.54"/>
<polygon fill="midnightblue" stroke="midnightblue" points="5499.59,-221.07 5489.72,-224.92 5499.83,-228.07 5499.59,-221.07"/>
</g>
<!-- Node64 -->
<g id="node50" class="node">
<title>Node64</title>
<g id="a_node50"><a xlink:href="../../da/db4/piece__tablewidgetitem_8cpp.html" target="_top" xlink:title=" ">
<polygon fill="white" stroke="black" points="6273,-140 6273,-170 6401,-170 6401,-140 6273,-140"/>
<text text-anchor="start" x="6281" y="-158" font-family="Helvetica,sans-Serif" font-size="10.00">src/libs/vwidgets/piece</text>
<text text-anchor="middle" x="6337" y="-147" font-family="Helvetica,sans-Serif" font-size="10.00">_tablewidgetitem.cpp</text>
</a>
</g>
</g>
<!-- Node4&#45;&gt;Node64 -->
<g id="edge59" class="edge">
<title>Node4&#45;&gt;Node64</title>
<path fill="none" stroke="midnightblue" d="M5499.8,-227.07C5639.38,-227.35 5981.92,-222.73 6264,-176 6272.95,-174.52 6282.37,-172.38 6291.37,-170.05"/>
<polygon fill="midnightblue" stroke="midnightblue" points="5499.72,-223.57 5489.71,-227.04 5499.7,-230.57 5499.72,-223.57"/>
</g>
<!-- Node5&#45;&gt;Node6 -->
<g id="edge5" class="edge">
<title>Node5&#45;&gt;Node6</title>
<path fill="none" stroke="midnightblue" d="M206.37,-140.81C178.62,-126.53 135.17,-104.17 111.58,-92.03"/>
<polygon fill="midnightblue" stroke="midnightblue" points="204.98,-144.03 215.47,-145.5 208.18,-137.81 204.98,-144.03"/>
</g>
<!-- Node8 -->
<g id="node8" class="node">
<title>Node8</title>
<g id="a_node8"><a xlink:href="../../dd/d66/vdxfengine_8cpp.html" target="_top" xlink:title=" ">
<polygon fill="white" stroke="black" points="628,-73 628,-92 782,-92 782,-73 628,-73"/>
<text text-anchor="middle" x="705" y="-80" font-family="Helvetica,sans-Serif" font-size="10.00">src/libs/vdxf/vdxfengine.cpp</text>
</a>
</g>
</g>
<!-- Node7&#45;&gt;Node8 -->
<g id="edge8" class="edge">
<title>Node7&#45;&gt;Node8</title>
<path fill="none" stroke="midnightblue" d="M842.51,-141.55C808.79,-127.32 754.47,-104.38 725.22,-92.03"/>
<polygon fill="midnightblue" stroke="midnightblue" points="841.28,-144.83 851.86,-145.5 844,-138.38 841.28,-144.83"/>
</g>
<!-- Node9 -->
<g id="node9" class="node">
<title>Node9</title>
<g id="a_node9"><a xlink:href="../../de/da8/vbank_8cpp.html" target="_top" xlink:title=" ">
<polygon fill="white" stroke="black" points="800,-73 800,-92 944,-92 944,-73 800,-73"/>
<text text-anchor="middle" x="872" y="-80" font-family="Helvetica,sans-Serif" font-size="10.00">src/libs/vlayout/vbank.cpp</text>
</a>
</g>
</g>
<!-- Node7&#45;&gt;Node9 -->
<g id="edge9" class="edge">
<title>Node7&#45;&gt;Node9</title>
<path fill="none" stroke="midnightblue" d="M872,-134.94C872,-121.03 872,-102.82 872,-92.22"/>
<polygon fill="midnightblue" stroke="midnightblue" points="868.5,-135.36 872,-145.36 875.5,-135.36 868.5,-135.36"/>
</g>
<!-- Node10 -->
<g id="node10" class="node">
<title>Node10</title>
<g id="a_node10"><a xlink:href="../../df/d5d/vcontour_8cpp.html" target="_top" xlink:title=" ">
<polygon fill="white" stroke="black" points="962,-73 962,-92 1118,-92 1118,-73 962,-73"/>
<text text-anchor="middle" x="1040" y="-80" font-family="Helvetica,sans-Serif" font-size="10.00">src/libs/vlayout/vcontour.cpp</text>
</a>
</g>
</g>
<!-- Node7&#45;&gt;Node10 -->
<g id="edge10" class="edge">
<title>Node7&#45;&gt;Node10</title>
<path fill="none" stroke="midnightblue" d="M901.66,-141.55C935.59,-127.32 990.23,-104.38 1019.66,-92.03"/>
<polygon fill="midnightblue" stroke="midnightblue" points="900.13,-138.4 892.26,-145.5 902.84,-144.85 900.13,-138.4"/>
</g>
<!-- Node11 -->
<g id="node11" class="node">
<title>Node11</title>
<g id="a_node11"><a xlink:href="../../d2/d2d/vlayoutpaper__p_8h.html" target="_top" xlink:title=" ">
<polygon fill="white" stroke="black" points="1136.5,-73 1136.5,-92 1315.5,-92 1315.5,-73 1136.5,-73"/>
<text text-anchor="middle" x="1226" y="-80" font-family="Helvetica,sans-Serif" font-size="10.00">src/libs/vlayout/vlayoutpaper_p.h</text>
</a>
</g>
</g>
<!-- Node7&#45;&gt;Node11 -->
<g id="edge11" class="edge">
<title>Node7&#45;&gt;Node11</title>
<path fill="none" stroke="midnightblue" d="M924.68,-143.51C995,-129.5 1118.21,-104.97 1183.15,-92.03"/>
<polygon fill="midnightblue" stroke="midnightblue" points="923.82,-140.11 914.7,-145.5 925.19,-146.98 923.82,-140.11"/>
</g>
<!-- Node12 -->
<g id="node12" class="node">
<title>Node12</title>
<g id="a_node12"><a xlink:href="../../d1/dd1/vlayoutpaper_8cpp.html" target="_top" xlink:title=" ">
<polygon fill="white" stroke="black" points="295,-6 295,-25 473,-25 473,-6 295,-6"/>
<text text-anchor="middle" x="384" y="-13" font-family="Helvetica,sans-Serif" font-size="10.00">src/libs/vlayout/vlayoutpaper.cpp</text>
</a>
</g>
</g>
<!-- Node7&#45;&gt;Node12 -->
<g id="edge14" class="edge">
<title>Node7&#45;&gt;Node12</title>
<path fill="none" stroke="midnightblue" d="M778.72,-145.62C645.94,-133.29 416.83,-110.39 403,-98 382,-79.2 381.92,-42.09 383.11,-25.22"/>
<polygon fill="midnightblue" stroke="midnightblue" points="778.62,-149.12 788.9,-146.56 779.27,-142.15 778.62,-149.12"/>
</g>
<!-- Node13 -->
<g id="node13" class="node">
<title>Node13</title>
<g id="a_node13"><a xlink:href="../../d3/d39/vlayoutgenerator_8cpp.html" target="_top" xlink:title=" ">
<polygon fill="white" stroke="black" points="412.5,-73 412.5,-92 609.5,-92 609.5,-73 412.5,-73"/>
<text text-anchor="middle" x="511" y="-80" font-family="Helvetica,sans-Serif" font-size="10.00">src/libs/vlayout/vlayoutgenerator.cpp</text>
</a>
</g>
</g>
<!-- Node7&#45;&gt;Node13 -->
<g id="edge13" class="edge">
<title>Node7&#45;&gt;Node13</title>
<path fill="none" stroke="midnightblue" d="M818.28,-143.51C746.57,-129.5 620.93,-104.97 554.7,-92.03"/>
<polygon fill="midnightblue" stroke="midnightblue" points="817.97,-147.01 828.45,-145.5 819.31,-140.14 817.97,-147.01"/>
</g>
<!-- Node14 -->
<g id="node14" class="node">
<title>Node14</title>
<g id="a_node14"><a xlink:href="../../db/d5c/vposition_8h.html" target="_top" xlink:title=" ">
<polygon fill="white" stroke="red" points="208,-73 208,-92 356,-92 356,-73 208,-73"/>
<text text-anchor="middle" x="282" y="-80" font-family="Helvetica,sans-Serif" font-size="10.00">src/libs/vlayout/vposition.h</text>
</a>
</g>
</g>
<!-- Node7&#45;&gt;Node14 -->
<g id="edge15" class="edge">
<title>Node7&#45;&gt;Node14</title>
<path fill="none" stroke="midnightblue" d="M778.61,-145.05C677.67,-135.04 512.14,-117.63 370,-98 357.27,-96.24 343.54,-94.1 330.81,-92.01"/>
<polygon fill="midnightblue" stroke="midnightblue" points="778.49,-148.56 788.78,-146.06 779.18,-141.59 778.49,-148.56"/>
</g>
<!-- Node16 -->
<g id="node15" class="node">
<title>Node16</title>
<g id="a_node15"><a xlink:href="../../dd/d70/vlayoutpiece_8cpp.html" target="_top" xlink:title=" ">
<polygon fill="white" stroke="black" points="1333.5,-73 1333.5,-92 1510.5,-92 1510.5,-73 1333.5,-73"/>
<text text-anchor="middle" x="1422" y="-80" font-family="Helvetica,sans-Serif" font-size="10.00">src/libs/vlayout/vlayoutpiece.cpp</text>
</a>
</g>
</g>
<!-- Node7&#45;&gt;Node16 -->
<g id="edge17" class="edge">
<title>Node7&#45;&gt;Node16</title>
<path fill="none" stroke="midnightblue" d="M955.22,-144.29C1045.96,-133.56 1195.43,-115.47 1324,-98 1337.63,-96.15 1352.32,-94.04 1366.06,-92.01"/>
<polygon fill="midnightblue" stroke="midnightblue" points="954.79,-140.81 945.27,-145.46 955.61,-147.77 954.79,-140.81"/>
</g>
<!-- Node11&#45;&gt;Node12 -->
<g id="edge12" class="edge">
<title>Node11&#45;&gt;Node12</title>
<path fill="none" stroke="midnightblue" d="M1163.23,-71.56C1151.22,-69.87 1138.74,-68.26 1127,-67 891.58,-41.8 612.77,-26.81 473.12,-20.32"/>
<polygon fill="midnightblue" stroke="midnightblue" points="1162.78,-75.03 1173.18,-72.99 1163.78,-68.1 1162.78,-75.03"/>
</g>
<!-- Node14&#45;&gt;Node12 -->
<g id="edge16" class="edge">
<title>Node14&#45;&gt;Node12</title>
<path fill="none" stroke="midnightblue" d="M304.33,-67.27C324.52,-54.4 353.59,-35.88 370.46,-25.13"/>
<polygon fill="midnightblue" stroke="midnightblue" points="302.31,-64.41 295.76,-72.73 306.07,-70.31 302.31,-64.41"/>
</g>
<!-- Node18&#45;&gt;Node16 -->
<g id="edge30" class="edge">
<title>Node18&#45;&gt;Node16</title>
<path fill="none" stroke="midnightblue" d="M3374.28,-152.61C3018.75,-147.75 1884.59,-130.06 1520,-98 1504.24,-96.61 1487.15,-94.35 1471.72,-92.02"/>
<polygon fill="midnightblue" stroke="midnightblue" points="3374.27,-156.11 3384.32,-152.74 3374.37,-149.11 3374.27,-156.11"/>
</g>
<!-- Node18&#45;&gt;Node17 -->
<g id="edge31" class="edge">
<title>Node18&#45;&gt;Node17</title>
<path fill="none" stroke="midnightblue" d="M3374.37,-152.16C3043.44,-146.27 2043.82,-126.53 1720,-98 1704.01,-96.59 1686.68,-94.34 1671,-92.02"/>
<polygon fill="midnightblue" stroke="midnightblue" points="3374.38,-155.67 3384.44,-152.34 3374.5,-148.67 3374.38,-155.67"/>
</g>
<!-- Node19 -->
<g id="node18" class="node">
<title>Node19</title>
<g id="a_node18"><a xlink:href="../../d4/d90/fvupdater_8cpp.html" target="_top" xlink:title=" ">
<polygon fill="white" stroke="black" points="4542.5,-73 4542.5,-92 4695.5,-92 4695.5,-73 4542.5,-73"/>
<text text-anchor="middle" x="4619" y="-80" font-family="Helvetica,sans-Serif" font-size="10.00">src/libs/fervor/fvupdater.cpp</text>
</a>
</g>
</g>
<!-- Node18&#45;&gt;Node19 -->
<g id="edge20" class="edge">
<title>Node18&#45;&gt;Node19</title>
<path fill="none" stroke="midnightblue" d="M3589.77,-152.3C3780.5,-148.39 4189.76,-135.96 4533,-98 4546.39,-96.52 4560.87,-94.32 4574.06,-92.07"/>
<polygon fill="midnightblue" stroke="midnightblue" points="3589.67,-148.8 3579.75,-152.5 3589.81,-155.8 3589.67,-148.8"/>
</g>
<!-- Node20 -->
<g id="node19" class="node">
<title>Node20</title>
<g id="a_node19"><a xlink:href="../../d9/dc8/dxiface_8cpp.html" target="_top" xlink:title=" ">
<polygon fill="white" stroke="black" points="4713.5,-73 4713.5,-92 4848.5,-92 4848.5,-73 4713.5,-73"/>
<text text-anchor="middle" x="4781" y="-80" font-family="Helvetica,sans-Serif" font-size="10.00">src/libs/vdxf/dxiface.cpp</text>
</a>
</g>
</g>
<!-- Node18&#45;&gt;Node20 -->
<g id="edge21" class="edge">
<title>Node18&#45;&gt;Node20</title>
<path fill="none" stroke="midnightblue" d="M3590.06,-154.13C3803.64,-153.26 4294.61,-145.69 4704,-98 4716.3,-96.57 4729.58,-94.32 4741.6,-92.02"/>
<polygon fill="midnightblue" stroke="midnightblue" points="3589.78,-150.63 3579.79,-154.16 3589.81,-157.63 3589.78,-150.63"/>
</g>
<!-- Node21 -->
<g id="node20" class="node">
<title>Node21</title>
<g id="a_node20"><a xlink:href="../../da/d75/vabstractarc__p_8h.html" target="_top" xlink:title=" ">
<polygon fill="white" stroke="red" points="4866.5,-67.5 4866.5,-97.5 4973.5,-97.5 4973.5,-67.5 4866.5,-67.5"/>
<text text-anchor="start" x="4874.5" y="-85.5" font-family="Helvetica,sans-Serif" font-size="10.00">src/libs/vgeometry</text>
<text text-anchor="middle" x="4920" y="-74.5" font-family="Helvetica,sans-Serif" font-size="10.00">/vabstractarc_p.h</text>
</a>
</g>
</g>
<!-- Node18&#45;&gt;Node21 -->
<g id="edge22" class="edge">
<title>Node18&#45;&gt;Node21</title>
<path fill="none" stroke="midnightblue" d="M3590.13,-152.19C3869.93,-147.08 4612.87,-130.78 4857,-98 4860,-97.6 4863.07,-97.12 4866.16,-96.58"/>
<polygon fill="midnightblue" stroke="midnightblue" points="3589.91,-148.69 3579.97,-152.37 3590.04,-155.69 3589.91,-148.69"/>
</g>
<!-- Node23 -->
<g id="node21" class="node">
<title>Node23</title>
<g id="a_node21"><a xlink:href="../../dc/da3/varc__p_8h.html" target="_top" xlink:title=" ">
<polygon fill="white" stroke="red" points="4991.5,-67.5 4991.5,-97.5 5098.5,-97.5 5098.5,-67.5 4991.5,-67.5"/>
<text text-anchor="start" x="4999.5" y="-85.5" font-family="Helvetica,sans-Serif" font-size="10.00">src/libs/vgeometry</text>
<text text-anchor="middle" x="5045" y="-74.5" font-family="Helvetica,sans-Serif" font-size="10.00">/varc_p.h</text>
</a>
</g>
</g>
<!-- Node18&#45;&gt;Node23 -->
<g id="edge23" class="edge">
<title>Node18&#45;&gt;Node23</title>
<path fill="none" stroke="midnightblue" d="M3590.09,-152.62C3887.33,-148.39 4712.73,-133.69 4982,-98 4985,-97.6 4988.08,-97.13 4991.17,-96.59"/>
<polygon fill="midnightblue" stroke="midnightblue" points="3589.69,-149.12 3579.74,-152.76 3589.79,-156.12 3589.69,-149.12"/>
</g>
<!-- Node25 -->
<g id="node22" class="node">
<title>Node25</title>
<g id="a_node22"><a xlink:href="../../d5/d8e/vcubicbezier__p_8h.html" target="_top" xlink:title=" ">
<polygon fill="white" stroke="red" points="5116.5,-67.5 5116.5,-97.5 5223.5,-97.5 5223.5,-67.5 5116.5,-67.5"/>
<text text-anchor="start" x="5124.5" y="-85.5" font-family="Helvetica,sans-Serif" font-size="10.00">src/libs/vgeometry</text>
<text text-anchor="middle" x="5170" y="-74.5" font-family="Helvetica,sans-Serif" font-size="10.00">/vcubicbezier_p.h</text>
</a>
</g>
</g>
<!-- Node18&#45;&gt;Node25 -->
<g id="edge24" class="edge">
<title>Node18&#45;&gt;Node25</title>
<path fill="none" stroke="midnightblue" d="M3589.72,-152.98C3903.36,-149.59 4812.38,-136.62 5107,-98 5110,-97.61 5113.08,-97.13 5116.17,-96.6"/>
<polygon fill="midnightblue" stroke="midnightblue" points="3589.67,-149.48 3579.71,-153.09 3589.75,-156.48 3589.67,-149.48"/>
</g>
<!-- Node27 -->
<g id="node23" class="node">
<title>Node27</title>
<g id="a_node23"><a xlink:href="../../df/dde/vellipticalarc__p_8h.html" target="_top" xlink:title=" ">
<polygon fill="white" stroke="black" points="1729.5,-67.5 1729.5,-97.5 1836.5,-97.5 1836.5,-67.5 1729.5,-67.5"/>
<text text-anchor="start" x="1737.5" y="-85.5" font-family="Helvetica,sans-Serif" font-size="10.00">src/libs/vgeometry</text>
<text text-anchor="middle" x="1783" y="-74.5" font-family="Helvetica,sans-Serif" font-size="10.00">/vellipticalarc_p.h</text>
</a>
</g>
</g>
<!-- Node18&#45;&gt;Node27 -->
<g id="edge25" class="edge">
<title>Node18&#45;&gt;Node27</title>
<path fill="none" stroke="midnightblue" d="M3374.32,-151.4C3034.92,-143.06 2001.07,-116.43 1851,-98 1846.33,-97.43 1841.5,-96.69 1836.67,-95.86"/>
<polygon fill="midnightblue" stroke="midnightblue" points="3374.32,-154.9 3384.4,-151.65 3374.49,-147.91 3374.32,-154.9"/>
</g>
<!-- Node28 -->
<g id="node24" class="node">
<title>Node28</title>
<g id="a_node24"><a xlink:href="../../d6/dfb/vellipticalarc_8cpp.html" target="_top" xlink:title=" ">
<polygon fill="white" stroke="black" points="1770.5,-0.5 1770.5,-30.5 1877.5,-30.5 1877.5,-0.5 1770.5,-0.5"/>
<text text-anchor="start" x="1778.5" y="-18.5" font-family="Helvetica,sans-Serif" font-size="10.00">src/libs/vgeometry</text>
<text text-anchor="middle" x="1824" y="-7.5" font-family="Helvetica,sans-Serif" font-size="10.00">/vellipticalarc.cpp</text>
</a>
</g>
</g>
<!-- Node18&#45;&gt;Node28 -->
<g id="edge27" class="edge">
<title>Node18&#45;&gt;Node28</title>
<path fill="none" stroke="midnightblue" d="M3374.11,-151.48C3020.47,-143.05 1916.97,-115.4 1884,-98 1856.34,-83.4 1838.14,-49.7 1829.61,-30.52"/>
<polygon fill="midnightblue" stroke="midnightblue" points="3374.28,-154.98 3384.36,-151.72 3374.44,-147.98 3374.28,-154.98"/>
</g>
<!-- Node29 -->
<g id="node25" class="node">
<title>Node29</title>
<g id="a_node25"><a xlink:href="../../d1/d76/vspline__p_8h.html" target="_top" xlink:title=" ">
<polygon fill="white" stroke="red" points="1893.5,-67.5 1893.5,-97.5 2000.5,-97.5 2000.5,-67.5 1893.5,-67.5"/>
<text text-anchor="start" x="1901.5" y="-85.5" font-family="Helvetica,sans-Serif" font-size="10.00">src/libs/vgeometry</text>
<text text-anchor="middle" x="1947" y="-74.5" font-family="Helvetica,sans-Serif" font-size="10.00">/vspline_p.h</text>
</a>
</g>
</g>
<!-- Node18&#45;&gt;Node29 -->
<g id="edge28" class="edge">
<title>Node18&#45;&gt;Node29</title>
<path fill="none" stroke="midnightblue" d="M3374.1,-152.53C3080.88,-148.11 2273.69,-133.04 2010,-98 2007,-97.6 2003.93,-97.12 2000.83,-96.59"/>
<polygon fill="midnightblue" stroke="midnightblue" points="3374.26,-156.03 3384.32,-152.68 3374.37,-149.03 3374.26,-156.03"/>
</g>
<!-- Node31 -->
<g id="node26" class="node">
<title>Node31</title>
<g id="a_node26"><a xlink:href="../../d9/d15/vabstractpiece_8cpp.html" target="_top" xlink:title=" ">
<polygon fill="white" stroke="black" points="2019,-73 2019,-92 2205,-92 2205,-73 2019,-73"/>
<text text-anchor="middle" x="2112" y="-80" font-family="Helvetica,sans-Serif" font-size="10.00">src/libs/vlayout/vabstractpiece.cpp</text>
</a>
</g>
</g>
<!-- Node18&#45;&gt;Node31 -->
<g id="edge29" class="edge">
<title>Node18&#45;&gt;Node31</title>
<path fill="none" stroke="midnightblue" d="M3374.13,-152.76C3155.05,-149.47 2642.45,-137.82 2214,-98 2197.97,-96.51 2180.61,-94.28 2164.82,-92"/>
<polygon fill="midnightblue" stroke="midnightblue" points="3374.29,-156.27 3384.34,-152.91 3374.39,-149.27 3374.29,-156.27"/>
</g>
<!-- Node32 -->
<g id="node27" class="node">
<title>Node32</title>
<g id="a_node27"><a xlink:href="../../db/d65/dialogexporttocsv_8cpp.html" target="_top" xlink:title=" ">
<polygon fill="white" stroke="black" points="2223.5,-67.5 2223.5,-97.5 2350.5,-97.5 2350.5,-67.5 2223.5,-67.5"/>
<text text-anchor="start" x="2231.5" y="-85.5" font-family="Helvetica,sans-Serif" font-size="10.00">src/libs/vmisc/dialogs</text>
<text text-anchor="middle" x="2287" y="-74.5" font-family="Helvetica,sans-Serif" font-size="10.00">/dialogexporttocsv.cpp</text>
</a>
</g>
</g>
<!-- Node18&#45;&gt;Node32 -->
<g id="edge32" class="edge">
<title>Node18&#45;&gt;Node32</title>
<path fill="none" stroke="midnightblue" d="M3374.18,-153.85C3173.69,-152.4 2730.28,-143.77 2360,-98 2356.92,-97.62 2353.78,-97.18 2350.61,-96.7"/>
<polygon fill="midnightblue" stroke="midnightblue" points="3374.39,-157.35 3384.41,-153.92 3374.43,-150.35 3374.39,-157.35"/>
</g>
<!-- Node33 -->
<g id="node28" class="node">
<title>Node33</title>
<g id="a_node28"><a xlink:href="../../d6/d0b/def_8cpp.html" target="_top" xlink:title=" ">
<polygon fill="white" stroke="black" points="2369,-73 2369,-92 2491,-92 2491,-73 2369,-73"/>
<text text-anchor="middle" x="2430" y="-80" font-family="Helvetica,sans-Serif" font-size="10.00">src/libs/vmisc/def.cpp</text>
</a>
</g>
</g>
<!-- Node18&#45;&gt;Node33 -->
<g id="edge33" class="edge">
<title>Node18&#45;&gt;Node33</title>
<path fill="none" stroke="midnightblue" d="M3374.27,-153.03C3193.02,-150.25 2815.93,-139.5 2500,-98 2488.93,-96.55 2476.99,-94.32 2466.16,-92.05"/>
<polygon fill="midnightblue" stroke="midnightblue" points="3374.29,-156.53 3384.34,-153.18 3374.39,-149.54 3374.29,-156.53"/>
</g>
<!-- Node34 -->
<g id="node29" class="node">
<title>Node34</title>
<g id="a_node29"><a xlink:href="../../d0/df6/vabstractapplication_8cpp.html" target="_top" xlink:title=" ">
<polygon fill="white" stroke="black" points="2509,-73 2509,-92 2715,-92 2715,-73 2509,-73"/>
<text text-anchor="middle" x="2612" y="-80" font-family="Helvetica,sans-Serif" font-size="10.00">src/libs/vmisc/vabstractapplication.cpp</text>
</a>
</g>
</g>
<!-- Node18&#45;&gt;Node34 -->
<g id="edge34" class="edge">
<title>Node18&#45;&gt;Node34</title>
<path fill="none" stroke="midnightblue" d="M3373.95,-147.89C3226.76,-139.14 2955.09,-121.48 2724,-98 2707.42,-96.32 2689.5,-94.15 2672.96,-92.01"/>
<polygon fill="midnightblue" stroke="midnightblue" points="3374.14,-151.41 3384.33,-148.51 3374.55,-144.42 3374.14,-151.41"/>
</g>
<!-- Node35 -->
<g id="node30" class="node">
<title>Node35</title>
<g id="a_node30"><a xlink:href="../../d4/d4f/pmsystems_8cpp.html" target="_top" xlink:title=" ">
<polygon fill="white" stroke="black" points="2733.5,-67.5 2733.5,-97.5 2840.5,-97.5 2840.5,-67.5 2733.5,-67.5"/>
<text text-anchor="start" x="2741.5" y="-85.5" font-family="Helvetica,sans-Serif" font-size="10.00">src/libs/vpatterndb</text>
<text text-anchor="middle" x="2787" y="-74.5" font-family="Helvetica,sans-Serif" font-size="10.00">/pmsystems.cpp</text>
</a>
</g>
</g>
<!-- Node18&#45;&gt;Node35 -->
<g id="edge35" class="edge">
<title>Node18&#45;&gt;Node35</title>
<path fill="none" stroke="midnightblue" d="M3374.35,-149.12C3247.93,-142.33 3032.22,-127.38 2849,-98 2846.27,-97.56 2843.48,-97.07 2840.68,-96.54"/>
<polygon fill="midnightblue" stroke="midnightblue" points="3374.25,-152.62 3384.42,-149.66 3374.62,-145.63 3374.25,-152.62"/>
</g>
<!-- Node18&#45;&gt;Node36 -->
<g id="edge36" class="edge">
<title>Node18&#45;&gt;Node36</title>
<path fill="none" stroke="midnightblue" d="M3589.6,-153.29C3919.22,-150.7 4912.02,-139.54 5232,-98 5235.01,-97.61 5238.08,-97.14 5241.17,-96.61"/>
<polygon fill="midnightblue" stroke="midnightblue" points="3589.54,-149.79 3579.57,-153.37 3589.6,-156.79 3589.54,-149.79"/>
</g>
<!-- Node18&#45;&gt;Node37 -->
<g id="edge37" class="edge">
<title>Node18&#45;&gt;Node37</title>
<path fill="none" stroke="midnightblue" d="M3589.77,-153.56C3935.09,-151.72 5011.67,-142.46 5357,-98 5360.01,-97.61 5363.08,-97.15 5366.17,-96.62"/>
<polygon fill="midnightblue" stroke="midnightblue" points="3589.75,-150.06 3579.76,-153.61 3589.78,-157.06 3589.75,-150.06"/>
</g>
<!-- Node38 -->
<g id="node33" class="node">
<title>Node38</title>
<g id="a_node33"><a xlink:href="../../df/dba/vpiecenode__p_8h.html" target="_top" xlink:title=" ">
<polygon fill="white" stroke="black" points="2858.5,-67.5 2858.5,-97.5 2965.5,-97.5 2965.5,-67.5 2858.5,-67.5"/>
<text text-anchor="start" x="2866.5" y="-85.5" font-family="Helvetica,sans-Serif" font-size="10.00">src/libs/vpatterndb</text>
<text text-anchor="middle" x="2912" y="-74.5" font-family="Helvetica,sans-Serif" font-size="10.00">/vpiecenode_p.h</text>
</a>
</g>
</g>
<!-- Node18&#45;&gt;Node38 -->
<g id="edge38" class="edge">
<title>Node18&#45;&gt;Node38</title>
<path fill="none" stroke="midnightblue" d="M3374.24,-145.75C3271.26,-137.01 3111.88,-121.23 2975,-98 2971.9,-97.47 2968.73,-96.89 2965.53,-96.27"/>
<polygon fill="midnightblue" stroke="midnightblue" points="3374.08,-149.25 3384.34,-146.6 3374.67,-142.28 3374.08,-149.25"/>
</g>
<!-- Node18&#45;&gt;Node40 -->
<g id="edge40" class="edge">
<title>Node18&#45;&gt;Node40</title>
<path fill="none" stroke="midnightblue" d="M3589.74,-153.8C3950.06,-152.68 5111.18,-145.39 5482,-98 5485.01,-97.62 5488.08,-97.15 5491.17,-96.63"/>
<polygon fill="midnightblue" stroke="midnightblue" points="3589.56,-150.3 3579.57,-153.83 3589.58,-157.3 3589.56,-150.3"/>
</g>
<!-- Node41 -->
<g id="node36" class="node">
<title>Node41</title>
<g id="a_node36"><a xlink:href="../../de/d3e/vtranslatevars_8cpp.html" target="_top" xlink:title=" ">
<polygon fill="white" stroke="black" points="2984,-67.5 2984,-97.5 3094,-97.5 3094,-67.5 2984,-67.5"/>
<text text-anchor="start" x="2992" y="-85.5" font-family="Helvetica,sans-Serif" font-size="10.00">src/libs/vpatterndb</text>
<text text-anchor="middle" x="3039" y="-74.5" font-family="Helvetica,sans-Serif" font-size="10.00">/vtranslatevars.cpp</text>
</a>
</g>
</g>
<!-- Node18&#45;&gt;Node41 -->
<g id="edge41" class="edge">
<title>Node18&#45;&gt;Node41</title>
<path fill="none" stroke="midnightblue" d="M3403.53,-144.18C3326.69,-134.14 3206.4,-117.32 3103,-98 3100.09,-97.46 3097.11,-96.87 3094.1,-96.26"/>
<polygon fill="midnightblue" stroke="midnightblue" points="3403.25,-147.67 3413.62,-145.49 3404.15,-140.73 3403.25,-147.67"/>
</g>
<!-- Node42 -->
<g id="node37" class="node">
<title>Node42</title>
<g id="a_node37"><a xlink:href="../../df/d40/export__format__combobox_8cpp.html" target="_top" xlink:title=" ">
<polygon fill="white" stroke="black" points="3112.5,-67.5 3112.5,-97.5 3245.5,-97.5 3245.5,-67.5 3112.5,-67.5"/>
<text text-anchor="start" x="3120.5" y="-85.5" font-family="Helvetica,sans-Serif" font-size="10.00">src/libs/vwidgets/export</text>
<text text-anchor="middle" x="3179" y="-74.5" font-family="Helvetica,sans-Serif" font-size="10.00">_format_combobox.cpp</text>
</a>
</g>
</g>
<!-- Node18&#45;&gt;Node42 -->
<g id="edge42" class="edge">
<title>Node18&#45;&gt;Node42</title>
<path fill="none" stroke="midnightblue" d="M3435.71,-143.23C3383.08,-130.98 3297,-110.96 3239.2,-97.51"/>
<polygon fill="midnightblue" stroke="midnightblue" points="3434.92,-146.64 3445.45,-145.5 3436.5,-139.82 3434.92,-146.64"/>
</g>
<!-- Node43 -->
<g id="node38" class="node">
<title>Node43</title>
<g id="a_node38"><a xlink:href="../../d3/d4f/mouse__coordinates_8cpp.html" target="_top" xlink:title=" ">
<polygon fill="white" stroke="black" points="3264,-67.5 3264,-97.5 3398,-97.5 3398,-67.5 3264,-67.5"/>
<text text-anchor="start" x="3272" y="-85.5" font-family="Helvetica,sans-Serif" font-size="10.00">src/libs/vwidgets/mouse</text>
<text text-anchor="middle" x="3331" y="-74.5" font-family="Helvetica,sans-Serif" font-size="10.00">_coordinates.cpp</text>
</a>
</g>
</g>
<!-- Node18&#45;&gt;Node43 -->
<g id="edge43" class="edge">
<title>Node18&#45;&gt;Node43</title>
<path fill="none" stroke="midnightblue" d="M3454.71,-141.26C3428.28,-128.92 3388.31,-110.26 3361,-97.51"/>
<polygon fill="midnightblue" stroke="midnightblue" points="3453.24,-144.44 3463.79,-145.5 3456.21,-138.09 3453.24,-144.44"/>
</g>
<!-- Node44 -->
<g id="node39" class="node">
<title>Node44</title>
<g id="a_node39"><a xlink:href="../../d2/d28/page__format__combobox_8cpp.html" target="_top" xlink:title=" ">
<polygon fill="white" stroke="black" points="3416.5,-67.5 3416.5,-97.5 3547.5,-97.5 3547.5,-67.5 3416.5,-67.5"/>
<text text-anchor="start" x="3424.5" y="-85.5" font-family="Helvetica,sans-Serif" font-size="10.00">src/libs/vwidgets/page</text>
<text text-anchor="middle" x="3482" y="-74.5" font-family="Helvetica,sans-Serif" font-size="10.00">_format_combobox.cpp</text>
</a>
</g>
</g>
<!-- Node18&#45;&gt;Node44 -->
<g id="edge44" class="edge">
<title>Node18&#45;&gt;Node44</title>
<path fill="none" stroke="midnightblue" d="M3482,-135.24C3482,-123.41 3482,-108.38 3482,-97.58"/>
<polygon fill="midnightblue" stroke="midnightblue" points="3478.5,-135.36 3482,-145.36 3485.5,-135.36 3478.5,-135.36"/>
</g>
<!-- Node45 -->
<g id="node40" class="node">
<title>Node45</title>
<g id="a_node40"><a xlink:href="../../d7/d1b/pen__toolbar_8cpp.html" target="_top" xlink:title=" ">
<polygon fill="white" stroke="black" points="3565.5,-67.5 3565.5,-97.5 3684.5,-97.5 3684.5,-67.5 3565.5,-67.5"/>
<text text-anchor="start" x="3573.5" y="-85.5" font-family="Helvetica,sans-Serif" font-size="10.00">src/libs/vwidgets/pen</text>
<text text-anchor="middle" x="3625" y="-74.5" font-family="Helvetica,sans-Serif" font-size="10.00">_toolbar.cpp</text>
</a>
</g>
</g>
<!-- Node18&#45;&gt;Node45 -->
<g id="edge45" class="edge">
<title>Node18&#45;&gt;Node45</title>
<path fill="none" stroke="midnightblue" d="M3508.5,-140.93C3533.53,-128.59 3570.96,-110.14 3596.59,-97.51"/>
<polygon fill="midnightblue" stroke="midnightblue" points="3506.67,-137.93 3499.25,-145.5 3509.77,-144.21 3506.67,-137.93"/>
</g>
<!-- Node46 -->
<g id="node41" class="node">
<title>Node46</title>
<g id="a_node41"><a xlink:href="../../d8/d76/scene__rect_8cpp.html" target="_top" xlink:title=" ">
<polygon fill="white" stroke="black" points="3703,-67.5 3703,-97.5 3833,-97.5 3833,-67.5 3703,-67.5"/>
<text text-anchor="start" x="3711" y="-85.5" font-family="Helvetica,sans-Serif" font-size="10.00">src/libs/vwidgets/scene</text>
<text text-anchor="middle" x="3768" y="-74.5" font-family="Helvetica,sans-Serif" font-size="10.00">_rect.cpp</text>
</a>
</g>
</g>
<!-- Node18&#45;&gt;Node46 -->
<g id="edge46" class="edge">
<title>Node18&#45;&gt;Node46</title>
<path fill="none" stroke="midnightblue" d="M3526.31,-143.08C3576.04,-130.82 3656.85,-110.9 3711.18,-97.51"/>
<polygon fill="midnightblue" stroke="midnightblue" points="3525.37,-139.7 3516.5,-145.5 3527.05,-146.5 3525.37,-139.7"/>
</g>
<!-- Node47 -->
<g id="node42" class="node">
<title>Node47</title>
<g id="a_node42"><a xlink:href="../../dd/df6/vabstractmainwindow_8cpp.html" target="_top" xlink:title=" ">
<polygon fill="white" stroke="black" points="3851.5,-73 3851.5,-92 4080.5,-92 4080.5,-73 3851.5,-73"/>
<text text-anchor="middle" x="3966" y="-80" font-family="Helvetica,sans-Serif" font-size="10.00">src/libs/vwidgets/vabstractmainwindow.cpp</text>
</a>
</g>
</g>
<!-- Node18&#45;&gt;Node47 -->
<g id="edge47" class="edge">
<title>Node18&#45;&gt;Node47</title>
<path fill="none" stroke="midnightblue" d="M3550.51,-144.02C3646.02,-130.11 3817.53,-105.13 3907.41,-92.03"/>
<polygon fill="midnightblue" stroke="midnightblue" points="3549.77,-140.59 3540.38,-145.5 3550.78,-147.52 3549.77,-140.59"/>
</g>
<!-- Node48 -->
<g id="node43" class="node">
<title>Node48</title>
<g id="a_node43"><a xlink:href="../../d1/d90/vgrainlineitem_8cpp.html" target="_top" xlink:title=" ">
<polygon fill="white" stroke="black" points="4098.5,-73 4098.5,-92 4291.5,-92 4291.5,-73 4098.5,-73"/>
<text text-anchor="middle" x="4195" y="-80" font-family="Helvetica,sans-Serif" font-size="10.00">src/libs/vwidgets/vgrainlineitem.cpp</text>
</a>
</g>
</g>
<!-- Node18&#45;&gt;Node48 -->
<g id="edge48" class="edge">
<title>Node18&#45;&gt;Node48</title>
<path fill="none" stroke="midnightblue" d="M3589.69,-145.5C3711.15,-135.59 3914.51,-117.97 4089,-98 4104.32,-96.25 4120.84,-94.11 4136.19,-92.01"/>
<polygon fill="midnightblue" stroke="midnightblue" points="3589.33,-142.02 3579.64,-146.32 3589.89,-149 3589.33,-142.02"/>
</g>
<!-- Node49 -->
<g id="node44" class="node">
<title>Node49</title>
<g id="a_node44"><a xlink:href="../../de/d45/vcontrolpointspline_8cpp.html" target="_top" xlink:title=" ">
<polygon fill="white" stroke="black" points="4309.5,-73 4309.5,-92 4524.5,-92 4524.5,-73 4309.5,-73"/>
<text text-anchor="middle" x="4417" y="-80" font-family="Helvetica,sans-Serif" font-size="10.00">src/libs/vwidgets/vcontrolpointspline.cpp</text>
</a>
</g>
</g>
<!-- Node18&#45;&gt;Node49 -->
<g id="edge49" class="edge">
<title>Node18&#45;&gt;Node49</title>
<path fill="none" stroke="midnightblue" d="M3589.83,-148.51C3746.45,-140.11 4045.93,-122.42 4300,-98 4317.32,-96.34 4336.03,-94.18 4353.31,-92.04"/>
<polygon fill="midnightblue" stroke="midnightblue" points="3589.53,-145.02 3579.73,-149.05 3589.9,-152.01 3589.53,-145.02"/>
</g>
<!-- Node27&#45;&gt;Node28 -->
<g id="edge26" class="edge">
<title>Node27&#45;&gt;Node28</title>
<path fill="none" stroke="midnightblue" d="M1797.28,-58.87C1803.21,-49.46 1809.91,-38.83 1815.12,-30.58"/>
<polygon fill="midnightblue" stroke="midnightblue" points="1794.27,-57.07 1791.9,-67.4 1800.19,-60.81 1794.27,-57.07"/>
</g>
<!-- Node38&#45;&gt;Node39 -->
<g id="edge39" class="edge">
<title>Node38&#45;&gt;Node39</title>
<path fill="none" stroke="midnightblue" d="M2975.79,-67.12C3240.47,-33.88 4005.84,-20.4 4215.42,-17.25"/>
<polygon fill="midnightblue" stroke="midnightblue" points="2975.3,-63.65 2965.83,-68.41 2976.2,-70.6 2975.3,-63.65"/>
</g>
</g>
</svg>
