<?xml version="1.0" encoding="UTF-8" standalone="no"?>
<!DOCTYPE svg PUBLIC "-//W3C//DTD SVG 1.1//EN"
 "http://www.w3.org/Graphics/SVG/1.1/DTD/svg11.dtd">
<!-- Generated by graphviz version 2.43.0 (0)
 -->
<!-- Title: ModifierOp Pages: 1 -->
<!--zoomable 1317 -->
<svg id="main" version="1.1" xmlns="http://www.w3.org/2000/svg" xmlns:xlink="http://www.w3.org/1999/xlink" xml:space="preserve" onload="init(evt)">
<style type="text/css"><![CDATA[
.edge:hover path { stroke: red; }
.edge:hover polygon { stroke: red; fill: red; }
]]></style>
<script type="text/javascript"><![CDATA[
var edges = document.getElementsByTagName('g');
if (edges && edges.length) {
  for (var i=0;i<edges.length;i++) {
    if (edges[i].id.substr(0,4)=='edge') {
      edges[i].setAttribute('class','edge');
    }
  }
}
]]></script>
        <defs>
                <circle id="rim" cx="0" cy="0" r="7"/>
                <circle id="rim2" cx="0" cy="0" r="3.5"/>
                <g id="zoomPlus">
                        <use xlink:href="#rim" fill="#404040">
                                <set attributeName="fill" to="#808080" begin="zoomplus.mouseover" end="zoomplus.mouseout"/>
                        </use>
                        <path d="M-4,0h8M0,-4v8" fill="none" stroke="white" stroke-width="1.5" pointer-events="none"/>
                </g>
                <g id="zoomMin">
                        <use xlink:href="#rim" fill="#404040">
                                <set attributeName="fill" to="#808080" begin="zoomminus.mouseover" end="zoomminus.mouseout"/>
                        </use>
                        <path d="M-4,0h8" fill="none" stroke="white" stroke-width="1.5" pointer-events="none"/>
                </g>
                <g id="dirArrow">
                        <path fill="none" stroke="white" stroke-width="1.5" d="M0,-3.0v7 M-2.5,-0.5L0,-3.0L2.5,-0.5"/>
                </g>
               <g id="resetDef">
                       <use xlink:href="#rim2" fill="#404040">
                               <set attributeName="fill" to="#808080" begin="reset.mouseover" end="reset.mouseout"/>
                       </use>
               </g>
        </defs>

<script type="text/javascript">
var viewWidth = 318;
var viewHeight = 1317;
var sectionId = 'dynsection-1';
</script>
<script xlink:href="../../svgpan.js"/>
<svg id="graph" class="graph">
<g id="viewport">
<title>ModifierOp</title>
<polygon fill="white" stroke="transparent" points="-4,4 -4,-1313 314,-1313 314,4 -4,4"/>
<!-- Node1 -->
<g id="node1" class="node">
<title>Node1</title>
<g id="a_node1"><a xlink:title=" ">
<polygon fill="#bfbfbf" stroke="black" points="6.5,-0.5 6.5,-255.5 103.5,-255.5 103.5,-0.5 6.5,-0.5"/>
<text text-anchor="middle" x="55" y="-243.5" font-family="Helvetica,sans-Serif" font-size="10.00">ModifierOp</text>
<polyline fill="none" stroke="black" points="6.5,-236.5 103.5,-236.5 "/>
<text text-anchor="start" x="14.5" y="-224.5" font-family="Helvetica,sans-Serif" font-size="10.00">&#45; fVal1</text>
<text text-anchor="start" x="14.5" y="-213.5" font-family="Helvetica,sans-Serif" font-size="10.00">&#45; fVal2</text>
<polyline fill="none" stroke="black" points="6.5,-206.5 103.5,-206.5 "/>
<text text-anchor="start" x="14.5" y="-194.5" font-family="Helvetica,sans-Serif" font-size="10.00">+ ModifierOp()</text>
<text text-anchor="start" x="14.5" y="-183.5" font-family="Helvetica,sans-Serif" font-size="10.00">+ ~ModifierOp()</text>
<text text-anchor="start" x="14.5" y="-172.5" font-family="Helvetica,sans-Serif" font-size="10.00">+ getData()</text>
<text text-anchor="start" x="14.5" y="-161.5" font-family="Helvetica,sans-Serif" font-size="10.00">+ getData2()</text>
<text text-anchor="start" x="14.5" y="-150.5" font-family="Helvetica,sans-Serif" font-size="10.00">+ ModifierOp()</text>
<text text-anchor="start" x="14.5" y="-139.5" font-family="Helvetica,sans-Serif" font-size="10.00">+ ~ModifierOp()</text>
<text text-anchor="start" x="14.5" y="-128.5" font-family="Helvetica,sans-Serif" font-size="10.00">+ getData()</text>
<text text-anchor="start" x="14.5" y="-117.5" font-family="Helvetica,sans-Serif" font-size="10.00">+ getData2()</text>
<text text-anchor="start" x="14.5" y="-106.5" font-family="Helvetica,sans-Serif" font-size="10.00">+ ModifierOp()</text>
<text text-anchor="start" x="14.5" y="-95.5" font-family="Helvetica,sans-Serif" font-size="10.00">+ ~ModifierOp()</text>
<text text-anchor="start" x="14.5" y="-84.5" font-family="Helvetica,sans-Serif" font-size="10.00">+ getData()</text>
<text text-anchor="start" x="14.5" y="-73.5" font-family="Helvetica,sans-Serif" font-size="10.00">+ getData2()</text>
<text text-anchor="start" x="14.5" y="-62.5" font-family="Helvetica,sans-Serif" font-size="10.00">&#45; ModifierOp()</text>
<text text-anchor="start" x="14.5" y="-51.5" font-family="Helvetica,sans-Serif" font-size="10.00">&#45; operator=()</text>
<text text-anchor="start" x="14.5" y="-40.5" font-family="Helvetica,sans-Serif" font-size="10.00">&#45; ModifierOp()</text>
<text text-anchor="start" x="14.5" y="-29.5" font-family="Helvetica,sans-Serif" font-size="10.00">&#45; operator=()</text>
<text text-anchor="start" x="14.5" y="-18.5" font-family="Helvetica,sans-Serif" font-size="10.00">&#45; ModifierOp()</text>
<text text-anchor="start" x="14.5" y="-7.5" font-family="Helvetica,sans-Serif" font-size="10.00">&#45; operator=()</text>
</a>
</g>
</g>
<!-- Node2 -->
<g id="node2" class="node">
<title>Node2</title>
<g id="a_node2"><a xlink:href="../../da/d70/classChildOp.html" target="_top" xlink:title=" ">
<polygon fill="white" stroke="black" points="14,-293.5 14,-537.5 96,-537.5 96,-293.5 14,-293.5"/>
<text text-anchor="middle" x="55" y="-525.5" font-family="Helvetica,sans-Serif" font-size="10.00">ChildOp</text>
<polyline fill="none" stroke="black" points="14,-518.5 96,-518.5 "/>
<text text-anchor="middle" x="55" y="-506.5" font-family="Helvetica,sans-Serif" font-size="10.00"> </text>
<polyline fill="none" stroke="black" points="14,-499.5 96,-499.5 "/>
<text text-anchor="start" x="22" y="-487.5" font-family="Helvetica,sans-Serif" font-size="10.00">+ ChildOp()</text>
<text text-anchor="start" x="22" y="-476.5" font-family="Helvetica,sans-Serif" font-size="10.00">+ ~ChildOp()</text>
<text text-anchor="start" x="22" y="-465.5" font-family="Helvetica,sans-Serif" font-size="10.00">+ getChild()</text>
<text text-anchor="start" x="22" y="-454.5" font-family="Helvetica,sans-Serif" font-size="10.00">+ setChild()</text>
<text text-anchor="start" x="22" y="-443.5" font-family="Helvetica,sans-Serif" font-size="10.00">+ ChildOp()</text>
<text text-anchor="start" x="22" y="-432.5" font-family="Helvetica,sans-Serif" font-size="10.00">+ ~ChildOp()</text>
<text text-anchor="start" x="22" y="-421.5" font-family="Helvetica,sans-Serif" font-size="10.00">+ getChild()</text>
<text text-anchor="start" x="22" y="-410.5" font-family="Helvetica,sans-Serif" font-size="10.00">+ setChild()</text>
<text text-anchor="start" x="22" y="-399.5" font-family="Helvetica,sans-Serif" font-size="10.00">+ ChildOp()</text>
<text text-anchor="start" x="22" y="-388.5" font-family="Helvetica,sans-Serif" font-size="10.00">+ ~ChildOp()</text>
<text text-anchor="start" x="22" y="-377.5" font-family="Helvetica,sans-Serif" font-size="10.00">+ getChild()</text>
<text text-anchor="start" x="22" y="-366.5" font-family="Helvetica,sans-Serif" font-size="10.00">+ setChild()</text>
<text text-anchor="start" x="22" y="-355.5" font-family="Helvetica,sans-Serif" font-size="10.00">&#45; ChildOp()</text>
<text text-anchor="start" x="22" y="-344.5" font-family="Helvetica,sans-Serif" font-size="10.00">&#45; operator=()</text>
<text text-anchor="start" x="22" y="-333.5" font-family="Helvetica,sans-Serif" font-size="10.00">&#45; ChildOp()</text>
<text text-anchor="start" x="22" y="-322.5" font-family="Helvetica,sans-Serif" font-size="10.00">&#45; operator=()</text>
<text text-anchor="start" x="22" y="-311.5" font-family="Helvetica,sans-Serif" font-size="10.00">&#45; ChildOp()</text>
<text text-anchor="start" x="22" y="-300.5" font-family="Helvetica,sans-Serif" font-size="10.00">&#45; operator=()</text>
</a>
</g>
</g>
<!-- Node2&#45;&gt;Node1 -->
<g id="edge1" class="edge">
<title>Node2&#45;&gt;Node1</title>
<path fill="none" stroke="midnightblue" d="M41.54,-283.16C41.48,-274.03 41.49,-264.85 41.58,-255.75"/>
<polygon fill="none" stroke="midnightblue" points="38.04,-283.46 41.64,-293.42 45.04,-283.39 38.04,-283.46"/>
</g>
<!-- Node2&#45;&gt;Node1 -->
<g id="edge11" class="edge">
<title>Node2&#45;&gt;Node1</title>
<path fill="none" stroke="midnightblue" d="M55,-283.16C55,-274.03 55,-264.85 55,-255.75"/>
<polygon fill="none" stroke="midnightblue" points="51.5,-283.42 55,-293.42 58.5,-283.42 51.5,-283.42"/>
</g>
<!-- Node2&#45;&gt;Node1 -->
<g id="edge12" class="edge">
<title>Node2&#45;&gt;Node1</title>
<path fill="none" stroke="midnightblue" d="M68.46,-283.16C68.52,-274.03 68.51,-264.85 68.42,-255.75"/>
<polygon fill="none" stroke="midnightblue" points="64.96,-283.39 68.36,-293.42 71.96,-283.46 64.96,-283.39"/>
</g>
<!-- Node3 -->
<g id="node3" class="node">
<title>Node3</title>
<g id="a_node3"><a xlink:href="../../d8/d65/classOp.html" target="_top" xlink:title=" ">
<polygon fill="white" stroke="black" points="11,-585.5 11,-851.5 99,-851.5 99,-585.5 11,-585.5"/>
<text text-anchor="middle" x="55" y="-839.5" font-family="Helvetica,sans-Serif" font-size="10.00">Op</text>
<polyline fill="none" stroke="black" points="11,-832.5 99,-832.5 "/>
<text text-anchor="start" x="19" y="-820.5" font-family="Helvetica,sans-Serif" font-size="10.00">&#45; fOpType</text>
<polyline fill="none" stroke="black" points="11,-813.5 99,-813.5 "/>
<text text-anchor="start" x="19" y="-801.5" font-family="Helvetica,sans-Serif" font-size="10.00">+ ~Op()</text>
<text text-anchor="start" x="19" y="-790.5" font-family="Helvetica,sans-Serif" font-size="10.00">+ getOpType()</text>
<text text-anchor="start" x="19" y="-779.5" font-family="Helvetica,sans-Serif" font-size="10.00">+ getNextOp()</text>
<text text-anchor="start" x="19" y="-768.5" font-family="Helvetica,sans-Serif" font-size="10.00">+ getData()</text>
<text text-anchor="start" x="19" y="-757.5" font-family="Helvetica,sans-Serif" font-size="10.00">+ getData2()</text>
<text text-anchor="start" x="19" y="-746.5" font-family="Helvetica,sans-Serif" font-size="10.00">+ getSize()</text>
<text text-anchor="start" x="19" y="-735.5" font-family="Helvetica,sans-Serif" font-size="10.00">+ elementAt()</text>
<text text-anchor="start" x="19" y="-724.5" font-family="Helvetica,sans-Serif" font-size="10.00">+ getChild()</text>
<text text-anchor="start" x="19" y="-713.5" font-family="Helvetica,sans-Serif" font-size="10.00">+ getToken()</text>
<text text-anchor="start" x="19" y="-702.5" font-family="Helvetica,sans-Serif" font-size="10.00">+ getLiteral()</text>
<text text-anchor="start" x="19" y="-691.5" font-family="Helvetica,sans-Serif" font-size="10.00">and 26 more...</text>
<text text-anchor="start" x="19" y="-680.5" font-family="Helvetica,sans-Serif" font-size="10.00"># Op()</text>
<text text-anchor="start" x="19" y="-669.5" font-family="Helvetica,sans-Serif" font-size="10.00"># Op()</text>
<text text-anchor="start" x="19" y="-658.5" font-family="Helvetica,sans-Serif" font-size="10.00"># Op()</text>
<text text-anchor="start" x="19" y="-647.5" font-family="Helvetica,sans-Serif" font-size="10.00">&#45; Op()</text>
<text text-anchor="start" x="19" y="-636.5" font-family="Helvetica,sans-Serif" font-size="10.00">&#45; operator=()</text>
<text text-anchor="start" x="19" y="-625.5" font-family="Helvetica,sans-Serif" font-size="10.00">&#45; Op()</text>
<text text-anchor="start" x="19" y="-614.5" font-family="Helvetica,sans-Serif" font-size="10.00">&#45; operator=()</text>
<text text-anchor="start" x="19" y="-603.5" font-family="Helvetica,sans-Serif" font-size="10.00">&#45; Op()</text>
<text text-anchor="start" x="19" y="-592.5" font-family="Helvetica,sans-Serif" font-size="10.00">&#45; operator=()</text>
</a>
</g>
</g>
<!-- Node3&#45;&gt;Node2 -->
<g id="edge2" class="edge">
<title>Node3&#45;&gt;Node2</title>
<path fill="none" stroke="midnightblue" d="M41.52,-575.35C41.46,-562.69 41.53,-549.96 41.73,-537.5"/>
<polygon fill="none" stroke="midnightblue" points="38.02,-575.5 41.59,-585.48 45.02,-575.45 38.02,-575.5"/>
</g>
<!-- Node3&#45;&gt;Node2 -->
<g id="edge8" class="edge">
<title>Node3&#45;&gt;Node2</title>
<path fill="none" stroke="midnightblue" d="M55,-575.35C55,-562.69 55,-549.96 55,-537.5"/>
<polygon fill="none" stroke="midnightblue" points="51.5,-575.48 55,-585.48 58.5,-575.48 51.5,-575.48"/>
</g>
<!-- Node3&#45;&gt;Node2 -->
<g id="edge9" class="edge">
<title>Node3&#45;&gt;Node2</title>
<path fill="none" stroke="midnightblue" d="M68.48,-575.35C68.54,-562.69 68.47,-549.96 68.27,-537.5"/>
<polygon fill="none" stroke="midnightblue" points="64.98,-575.45 68.41,-585.48 71.98,-575.5 64.98,-575.45"/>
</g>
<!-- Node3&#45;&gt;Node2 -->
<g id="edge10" class="edge">
<title>Node3&#45;&gt;Node2</title>
<path fill="none" stroke="#404040" d="M84.85,-585.09C85.2,-575.27 84.98,-565.49 84,-556 83.79,-553.93 83.56,-551.84 83.31,-549.74"/>
<polygon fill="none" stroke="#404040" points="83.28,-549.52 78.54,-544.09 81.73,-537.62 86.47,-543.06 83.28,-549.52"/>
<text text-anchor="middle" x="103" y="-559" font-family="Helvetica,sans-Serif" font-size="10.00"> &#45;fChild</text>
</g>
<!-- Node3&#45;&gt;Node3 -->
<g id="edge7" class="edge">
<title>Node3&#45;&gt;Node3</title>
<path fill="none" stroke="#404040" d="M99.02,-747.17C109.37,-744.82 117,-735.26 117,-718.5 117,-708.29 114.17,-700.75 109.61,-695.89"/>
<polygon fill="none" stroke="#404040" points="109.44,-695.79 102.25,-696.28 99.02,-689.83 106.22,-689.34 109.44,-695.79"/>
<text text-anchor="middle" x="141" y="-716" font-family="Helvetica,sans-Serif" font-size="10.00"> &#45;fNextOp</text>
</g>
<!-- Node4 -->
<g id="node4" class="node">
<title>Node4</title>
<g id="a_node4"><a xlink:href="../../d5/d80/classXMemory.html" target="_top" xlink:title=" ">
<polygon fill="white" stroke="black" points="0,-927 0,-1281 110,-1281 110,-927 0,-927"/>
<text text-anchor="middle" x="55" y="-1269" font-family="Helvetica,sans-Serif" font-size="10.00">XMemory</text>
<polyline fill="none" stroke="black" points="0,-1262 110,-1262 "/>
<text text-anchor="middle" x="55" y="-1250" font-family="Helvetica,sans-Serif" font-size="10.00"> </text>
<polyline fill="none" stroke="black" points="0,-1243 110,-1243 "/>
<text text-anchor="start" x="8" y="-1231" font-family="Helvetica,sans-Serif" font-size="10.00">+ operator new()</text>
<text text-anchor="start" x="8" y="-1220" font-family="Helvetica,sans-Serif" font-size="10.00">+ operator new()</text>
<text text-anchor="start" x="8" y="-1209" font-family="Helvetica,sans-Serif" font-size="10.00">+ operator new()</text>
<text text-anchor="start" x="8" y="-1198" font-family="Helvetica,sans-Serif" font-size="10.00">+ operator delete()</text>
<text text-anchor="start" x="8" y="-1187" font-family="Helvetica,sans-Serif" font-size="10.00">+ operator delete()</text>
<text text-anchor="start" x="8" y="-1176" font-family="Helvetica,sans-Serif" font-size="10.00">+ operator delete()</text>
<text text-anchor="start" x="8" y="-1165" font-family="Helvetica,sans-Serif" font-size="10.00">+ operator new()</text>
<text text-anchor="start" x="8" y="-1154" font-family="Helvetica,sans-Serif" font-size="10.00">+ operator new()</text>
<text text-anchor="start" x="8" y="-1143" font-family="Helvetica,sans-Serif" font-size="10.00">+ operator new()</text>
<text text-anchor="start" x="8" y="-1132" font-family="Helvetica,sans-Serif" font-size="10.00">+ operator delete()</text>
<text text-anchor="start" x="8" y="-1121" font-family="Helvetica,sans-Serif" font-size="10.00">and 8 more...</text>
<text text-anchor="start" x="8" y="-1110" font-family="Helvetica,sans-Serif" font-size="10.00"># XMemory()</text>
<text text-anchor="start" x="8" y="-1099" font-family="Helvetica,sans-Serif" font-size="10.00"># XMemory()</text>
<text text-anchor="start" x="8" y="-1088" font-family="Helvetica,sans-Serif" font-size="10.00"># XMemory()</text>
<text text-anchor="start" x="8" y="-1077" font-family="Helvetica,sans-Serif" font-size="10.00">* operator new()</text>
<text text-anchor="start" x="8" y="-1066" font-family="Helvetica,sans-Serif" font-size="10.00">* operator new()</text>
<text text-anchor="start" x="8" y="-1055" font-family="Helvetica,sans-Serif" font-size="10.00">* operator new()</text>
<text text-anchor="start" x="8" y="-1044" font-family="Helvetica,sans-Serif" font-size="10.00">* operator delete()</text>
<text text-anchor="start" x="8" y="-1033" font-family="Helvetica,sans-Serif" font-size="10.00">* operator delete()</text>
<text text-anchor="start" x="8" y="-1022" font-family="Helvetica,sans-Serif" font-size="10.00">* operator delete()</text>
<text text-anchor="start" x="8" y="-1011" font-family="Helvetica,sans-Serif" font-size="10.00">* operator new()</text>
<text text-anchor="start" x="8" y="-1000" font-family="Helvetica,sans-Serif" font-size="10.00">* operator new()</text>
<text text-anchor="start" x="8" y="-989" font-family="Helvetica,sans-Serif" font-size="10.00">* operator new()</text>
<text text-anchor="start" x="8" y="-978" font-family="Helvetica,sans-Serif" font-size="10.00">* operator delete()</text>
<text text-anchor="start" x="8" y="-967" font-family="Helvetica,sans-Serif" font-size="10.00">and 8 more...</text>
<text text-anchor="start" x="8" y="-956" font-family="Helvetica,sans-Serif" font-size="10.00">* XMemory()</text>
<text text-anchor="start" x="8" y="-945" font-family="Helvetica,sans-Serif" font-size="10.00">* XMemory()</text>
<text text-anchor="start" x="8" y="-934" font-family="Helvetica,sans-Serif" font-size="10.00">* XMemory()</text>
</a>
</g>
</g>
<!-- Node4&#45;&gt;Node3 -->
<g id="edge3" class="edge">
<title>Node4&#45;&gt;Node3</title>
<path fill="none" stroke="midnightblue" d="M41.51,-916.87C41.46,-894.87 41.66,-872.77 42.1,-851.73"/>
<polygon fill="none" stroke="midnightblue" points="38.01,-916.98 41.54,-926.96 45.01,-916.95 38.01,-916.98"/>
</g>
<!-- Node4&#45;&gt;Node3 -->
<g id="edge4" class="edge">
<title>Node4&#45;&gt;Node3</title>
<path fill="none" stroke="midnightblue" d="M55,-916.87C55,-894.87 55,-872.77 55,-851.73"/>
<polygon fill="none" stroke="midnightblue" points="51.5,-916.96 55,-926.96 58.5,-916.96 51.5,-916.96"/>
</g>
<!-- Node4&#45;&gt;Node3 -->
<g id="edge5" class="edge">
<title>Node4&#45;&gt;Node3</title>
<path fill="none" stroke="midnightblue" d="M68.49,-916.87C68.54,-894.87 68.34,-872.77 67.9,-851.73"/>
<polygon fill="none" stroke="midnightblue" points="64.99,-916.95 68.46,-926.96 71.99,-916.98 64.99,-916.95"/>
</g>
<!-- Node5 -->
<g id="node5" class="node">
<title>Node5</title>
<g id="a_node5"><a xlink:href="../../d6/d9a/classMemoryManager.html" target="_top" xlink:title=" ">
<polygon fill="white" stroke="black" points="128,-899.5 128,-1308.5 310,-1308.5 310,-899.5 128,-899.5"/>
<text text-anchor="middle" x="219" y="-1296.5" font-family="Helvetica,sans-Serif" font-size="10.00">MemoryManager</text>
<polyline fill="none" stroke="black" points="128,-1289.5 310,-1289.5 "/>
<text text-anchor="middle" x="219" y="-1277.5" font-family="Helvetica,sans-Serif" font-size="10.00"> </text>
<polyline fill="none" stroke="black" points="128,-1270.5 310,-1270.5 "/>
<text text-anchor="start" x="136" y="-1258.5" font-family="Helvetica,sans-Serif" font-size="10.00">+ ~MemoryManager()</text>
<text text-anchor="start" x="136" y="-1247.5" font-family="Helvetica,sans-Serif" font-size="10.00">+ getExceptionMemoryManager()</text>
<text text-anchor="start" x="136" y="-1236.5" font-family="Helvetica,sans-Serif" font-size="10.00">+ ~MemoryManager()</text>
<text text-anchor="start" x="136" y="-1225.5" font-family="Helvetica,sans-Serif" font-size="10.00">+ getExceptionMemoryManager()</text>
<text text-anchor="start" x="136" y="-1214.5" font-family="Helvetica,sans-Serif" font-size="10.00">+ ~MemoryManager()</text>
<text text-anchor="start" x="136" y="-1203.5" font-family="Helvetica,sans-Serif" font-size="10.00">+ getExceptionMemoryManager()</text>
<text text-anchor="start" x="136" y="-1192.5" font-family="Helvetica,sans-Serif" font-size="10.00">+ allocate()</text>
<text text-anchor="start" x="136" y="-1181.5" font-family="Helvetica,sans-Serif" font-size="10.00">+ deallocate()</text>
<text text-anchor="start" x="136" y="-1170.5" font-family="Helvetica,sans-Serif" font-size="10.00">+ allocate()</text>
<text text-anchor="start" x="136" y="-1159.5" font-family="Helvetica,sans-Serif" font-size="10.00">+ deallocate()</text>
<text text-anchor="start" x="136" y="-1148.5" font-family="Helvetica,sans-Serif" font-size="10.00">+ allocate()</text>
<text text-anchor="start" x="136" y="-1137.5" font-family="Helvetica,sans-Serif" font-size="10.00">+ deallocate()</text>
<text text-anchor="start" x="136" y="-1126.5" font-family="Helvetica,sans-Serif" font-size="10.00">* ~MemoryManager()</text>
<text text-anchor="start" x="136" y="-1115.5" font-family="Helvetica,sans-Serif" font-size="10.00">* getExceptionMemoryManager()</text>
<text text-anchor="start" x="136" y="-1104.5" font-family="Helvetica,sans-Serif" font-size="10.00">* ~MemoryManager()</text>
<text text-anchor="start" x="136" y="-1093.5" font-family="Helvetica,sans-Serif" font-size="10.00">* getExceptionMemoryManager()</text>
<text text-anchor="start" x="136" y="-1082.5" font-family="Helvetica,sans-Serif" font-size="10.00">* ~MemoryManager()</text>
<text text-anchor="start" x="136" y="-1071.5" font-family="Helvetica,sans-Serif" font-size="10.00">* getExceptionMemoryManager()</text>
<text text-anchor="start" x="136" y="-1060.5" font-family="Helvetica,sans-Serif" font-size="10.00">* allocate()</text>
<text text-anchor="start" x="136" y="-1049.5" font-family="Helvetica,sans-Serif" font-size="10.00">* deallocate()</text>
<text text-anchor="start" x="136" y="-1038.5" font-family="Helvetica,sans-Serif" font-size="10.00">* allocate()</text>
<text text-anchor="start" x="136" y="-1027.5" font-family="Helvetica,sans-Serif" font-size="10.00">* deallocate()</text>
<text text-anchor="start" x="136" y="-1016.5" font-family="Helvetica,sans-Serif" font-size="10.00">* allocate()</text>
<text text-anchor="start" x="136" y="-1005.5" font-family="Helvetica,sans-Serif" font-size="10.00">* deallocate()</text>
<text text-anchor="start" x="136" y="-994.5" font-family="Helvetica,sans-Serif" font-size="10.00">* MemoryManager()</text>
<text text-anchor="start" x="136" y="-983.5" font-family="Helvetica,sans-Serif" font-size="10.00">* MemoryManager()</text>
<text text-anchor="start" x="136" y="-972.5" font-family="Helvetica,sans-Serif" font-size="10.00">* MemoryManager()</text>
<text text-anchor="start" x="136" y="-961.5" font-family="Helvetica,sans-Serif" font-size="10.00">* MemoryManager()</text>
<text text-anchor="start" x="136" y="-950.5" font-family="Helvetica,sans-Serif" font-size="10.00">* operator=()</text>
<text text-anchor="start" x="136" y="-939.5" font-family="Helvetica,sans-Serif" font-size="10.00">* MemoryManager()</text>
<text text-anchor="start" x="136" y="-928.5" font-family="Helvetica,sans-Serif" font-size="10.00">* operator=()</text>
<text text-anchor="start" x="136" y="-917.5" font-family="Helvetica,sans-Serif" font-size="10.00">* MemoryManager()</text>
<text text-anchor="start" x="136" y="-906.5" font-family="Helvetica,sans-Serif" font-size="10.00">* operator=()</text>
</a>
</g>
</g>
<!-- Node5&#45;&gt;Node3 -->
<g id="edge6" class="edge">
<title>Node5&#45;&gt;Node3</title>
<path fill="none" stroke="#404040" d="M131.96,-899.46C122.34,-876.97 112.82,-854.7 103.91,-833.88"/>
<polygon fill="none" stroke="#404040" points="103.9,-833.84 97.86,-829.9 99.18,-822.81 105.22,-826.75 103.9,-833.84"/>
<text text-anchor="middle" x="172.5" y="-873" font-family="Helvetica,sans-Serif" font-size="10.00"> #fMemoryManager</text>
</g>
</g>
</svg>
        <g id="navigator" transform="translate(0 0)" fill="#404254">
                <rect fill="#f2f5e9" fill-opacity="0.5" stroke="#606060" stroke-width=".5" x="0" y="0" width="60" height="60"/>
                <use id="zoomplus" xlink:href="#zoomPlus" x="17" y="9" onmousedown="handleZoom(evt,'in')"/>
                <use id="zoomminus" xlink:href="#zoomMin" x="42" y="9" onmousedown="handleZoom(evt,'out')"/>
                <use id="reset" xlink:href="#resetDef" x="30" y="36" onmousedown="handleReset()"/>
                <g id="arrowUp" xlink:href="#dirArrow" transform="translate(30 24)" onmousedown="handlePan(0,-1)">
                  <use xlink:href="#rim" fill="#404040">
                        <set attributeName="fill" to="#808080" begin="arrowUp.mouseover" end="arrowUp.mouseout"/>
                  </use>
                  <path fill="none" stroke="white" stroke-width="1.5" d="M0,-3.0v7 M-2.5,-0.5L0,-3.0L2.5,-0.5"/>
                </g>
                <g id="arrowRight" xlink:href="#dirArrow" transform="rotate(90) translate(36 -43)" onmousedown="handlePan(1,0)">
                  <use xlink:href="#rim" fill="#404040">
                        <set attributeName="fill" to="#808080" begin="arrowRight.mouseover" end="arrowRight.mouseout"/>
                  </use>
                  <path fill="none" stroke="white" stroke-width="1.5" d="M0,-3.0v7 M-2.5,-0.5L0,-3.0L2.5,-0.5"/>
                </g>
                <g id="arrowDown" xlink:href="#dirArrow" transform="rotate(180) translate(-30 -48)" onmousedown="handlePan(0,1)">
                  <use xlink:href="#rim" fill="#404040">
                        <set attributeName="fill" to="#808080" begin="arrowDown.mouseover" end="arrowDown.mouseout"/>
                  </use>
                  <path fill="none" stroke="white" stroke-width="1.5" d="M0,-3.0v7 M-2.5,-0.5L0,-3.0L2.5,-0.5"/>
                </g>
                <g id="arrowLeft" xlink:href="#dirArrow" transform="rotate(270) translate(-36 17)" onmousedown="handlePan(-1,0)">
                  <use xlink:href="#rim" fill="#404040">
                        <set attributeName="fill" to="#808080" begin="arrowLeft.mouseover" end="arrowLeft.mouseout"/>
                  </use>
                  <path fill="none" stroke="white" stroke-width="1.5" d="M0,-3.0v7 M-2.5,-0.5L0,-3.0L2.5,-0.5"/>
                </g>
        </g>
        <svg viewBox="0 0 15 15" width="100%" height="30px" preserveAspectRatio="xMaxYMin meet">
         <g id="arrow_out" transform="scale(0.3 0.3)">
          <a xlink:href="classModifierOp__coll__graph_org.svg" target="_base">
           <rect id="button" ry="5" rx="5" y="6" x="6" height="38" width="38"
                fill="#f2f5e9" fill-opacity="0.5" stroke="#606060" stroke-width="1.0"/>
           <path id="arrow"
             d="M 11.500037,31.436501 C 11.940474,20.09759 22.043105,11.32322 32.158766,21.979434 L 37.068811,17.246167 C 37.068811,17.246167 37.088388,32 37.088388,32 L 22.160133,31.978069 C 22.160133,31.978069 26.997745,27.140456 26.997745,27.140456 C 18.528582,18.264221 13.291696,25.230495 11.500037,31.436501 z"
             style="fill:#404040;"/>
          </a>
         </g>
        </svg>
</svg>
