<?xml version="1.0" encoding="UTF-8" standalone="no"?>
<!DOCTYPE svg PUBLIC "-//W3C//DTD SVG 1.1//EN"
 "http://www.w3.org/Graphics/SVG/1.1/DTD/svg11.dtd">
<!-- Generated by graphviz version 2.43.0 (0)
 -->
<!-- Title: VPE::VBoolProperty Pages: 1 -->
<svg width="136pt" height="463pt"
 viewBox="0.00 0.00 136.00 463.00" xmlns="http://www.w3.org/2000/svg" xmlns:xlink="http://www.w3.org/1999/xlink">
<g id="graph0" class="graph" transform="scale(1 1) rotate(0) translate(4 459)">
<title>VPE::VBoolProperty</title>
<polygon fill="white" stroke="transparent" points="-4,4 -4,-459 132,-459 132,4 -4,4"/>
<!-- Node1 -->
<g id="node1" class="node">
<title>Node1</title>
<g id="a_node1"><a xlink:title="The VBoolProperty can take two states: True or False.">
<polygon fill="#bfbfbf" stroke="black" points="7.5,-0.5 7.5,-134.5 120.5,-134.5 120.5,-0.5 7.5,-0.5"/>
<text text-anchor="middle" x="64" y="-122.5" font-family="Helvetica,sans-Serif" font-size="10.00">VPE::VBoolProperty</text>
<polyline fill="none" stroke="black" points="7.5,-115.5 120.5,-115.5 "/>
<text text-anchor="start" x="15.5" y="-103.5" font-family="Helvetica,sans-Serif" font-size="10.00"># TrueText</text>
<text text-anchor="start" x="15.5" y="-92.5" font-family="Helvetica,sans-Serif" font-size="10.00"># FalseText</text>
<polyline fill="none" stroke="black" points="7.5,-85.5 120.5,-85.5 "/>
<text text-anchor="start" x="15.5" y="-73.5" font-family="Helvetica,sans-Serif" font-size="10.00">+ VBoolProperty()</text>
<text text-anchor="start" x="15.5" y="-62.5" font-family="Helvetica,sans-Serif" font-size="10.00">+ ~VBoolProperty()</text>
<text text-anchor="start" x="15.5" y="-51.5" font-family="Helvetica,sans-Serif" font-size="10.00">+ data()</text>
<text text-anchor="start" x="15.5" y="-40.5" font-family="Helvetica,sans-Serif" font-size="10.00">+ setData()</text>
<text text-anchor="start" x="15.5" y="-29.5" font-family="Helvetica,sans-Serif" font-size="10.00">+ flags()</text>
<text text-anchor="start" x="15.5" y="-18.5" font-family="Helvetica,sans-Serif" font-size="10.00">+ type()</text>
<text text-anchor="start" x="15.5" y="-7.5" font-family="Helvetica,sans-Serif" font-size="10.00">+ clone()</text>
</a>
</g>
</g>
<!-- Node2 -->
<g id="node2" class="node">
<title>Node2</title>
<g id="a_node2"><a xlink:href="../../db/df9/classVPE_1_1VProperty.html" target="_top" xlink:title=" ">
<polygon fill="white" stroke="black" points="0,-171.5 0,-360.5 128,-360.5 128,-171.5 0,-171.5"/>
<text text-anchor="middle" x="64" y="-348.5" font-family="Helvetica,sans-Serif" font-size="10.00">VPE::VProperty</text>
<polyline fill="none" stroke="black" points="0,-341.5 128,-341.5 "/>
<text text-anchor="start" x="8" y="-329.5" font-family="Helvetica,sans-Serif" font-size="10.00"># d_ptr</text>
<polyline fill="none" stroke="black" points="0,-322.5 128,-322.5 "/>
<text text-anchor="start" x="8" y="-310.5" font-family="Helvetica,sans-Serif" font-size="10.00">+ VProperty()</text>
<text text-anchor="start" x="8" y="-299.5" font-family="Helvetica,sans-Serif" font-size="10.00">+ ~VProperty()</text>
<text text-anchor="start" x="8" y="-288.5" font-family="Helvetica,sans-Serif" font-size="10.00">+ type()</text>
<text text-anchor="start" x="8" y="-277.5" font-family="Helvetica,sans-Serif" font-size="10.00">+ data()</text>
<text text-anchor="start" x="8" y="-266.5" font-family="Helvetica,sans-Serif" font-size="10.00">+ setData()</text>
<text text-anchor="start" x="8" y="-255.5" font-family="Helvetica,sans-Serif" font-size="10.00">+ paint()</text>
<text text-anchor="start" x="8" y="-244.5" font-family="Helvetica,sans-Serif" font-size="10.00">+ createEditor()</text>
<text text-anchor="start" x="8" y="-233.5" font-family="Helvetica,sans-Serif" font-size="10.00">+ setEditorData()</text>
<text text-anchor="start" x="8" y="-222.5" font-family="Helvetica,sans-Serif" font-size="10.00">+ getEditorData()</text>
<text text-anchor="start" x="8" y="-211.5" font-family="Helvetica,sans-Serif" font-size="10.00">+ flags()</text>
<text text-anchor="start" x="8" y="-200.5" font-family="Helvetica,sans-Serif" font-size="10.00">and 29 more...</text>
<text text-anchor="start" x="8" y="-189.5" font-family="Helvetica,sans-Serif" font-size="10.00">+ childValueChanged()</text>
<text text-anchor="start" x="8" y="-178.5" font-family="Helvetica,sans-Serif" font-size="10.00"># VProperty()</text>
</a>
</g>
</g>
<!-- Node2&#45;&gt;Node1 -->
<g id="edge1" class="edge">
<title>Node2&#45;&gt;Node1</title>
<path fill="none" stroke="midnightblue" d="M64,-161.21C64,-152.24 64,-143.33 64,-134.78"/>
<polygon fill="none" stroke="midnightblue" points="60.5,-161.35 64,-171.35 67.5,-161.35 60.5,-161.35"/>
</g>
<!-- Node3 -->
<g id="node3" class="node">
<title>Node3</title>
<g id="a_node3"><a xlink:title=" ">
<polygon fill="white" stroke="#bfbfbf" points="36,-397.5 36,-454.5 92,-454.5 92,-397.5 36,-397.5"/>
<text text-anchor="middle" x="64" y="-442.5" font-family="Helvetica,sans-Serif" font-size="10.00">QObject</text>
<polyline fill="none" stroke="#bfbfbf" points="36,-435.5 92,-435.5 "/>
<text text-anchor="middle" x="64" y="-423.5" font-family="Helvetica,sans-Serif" font-size="10.00"> </text>
<polyline fill="none" stroke="#bfbfbf" points="36,-416.5 92,-416.5 "/>
<text text-anchor="middle" x="64" y="-404.5" font-family="Helvetica,sans-Serif" font-size="10.00"> </text>
</a>
</g>
</g>
<!-- Node3&#45;&gt;Node2 -->
<g id="edge2" class="edge">
<title>Node3&#45;&gt;Node2</title>
<path fill="none" stroke="midnightblue" d="M64,-387.22C64,-379.01 64,-369.99 64,-360.68"/>
<polygon fill="none" stroke="midnightblue" points="60.5,-387.48 64,-397.48 67.5,-387.48 60.5,-387.48"/>
</g>
</g>
</svg>
