<?xml version="1.0" encoding="UTF-8" standalone="no"?>
<!DOCTYPE svg PUBLIC "-//W3C//DTD SVG 1.1//EN"
 "http://www.w3.org/Graphics/SVG/1.1/DTD/svg11.dtd">
<!-- Generated by graphviz version 2.43.0 (0)
 -->
<!-- Title: src/libs/vpropertyexplorer/checkablemessagebox.h Pages: 1 -->
<svg width="900pt" height="95pt"
 viewBox="0.00 0.00 899.50 95.00" xmlns="http://www.w3.org/2000/svg" xmlns:xlink="http://www.w3.org/1999/xlink">
<g id="graph0" class="graph" transform="scale(1 1) rotate(0) translate(4 91)">
<title>src/libs/vpropertyexplorer/checkablemessagebox.h</title>
<polygon fill="white" stroke="transparent" points="-4,4 -4,-91 895.5,-91 895.5,4 -4,4"/>
<!-- Node1 -->
<g id="node1" class="node">
<title>Node1</title>
<g id="a_node1"><a xlink:title=" ">
<polygon fill="#bfbfbf" stroke="black" points="428,-56.5 428,-86.5 570,-86.5 570,-56.5 428,-56.5"/>
<text text-anchor="start" x="436" y="-74.5" font-family="Helvetica,sans-Serif" font-size="10.00">src/libs/vpropertyexplorer</text>
<text text-anchor="middle" x="499" y="-63.5" font-family="Helvetica,sans-Serif" font-size="10.00">/checkablemessagebox.h</text>
</a>
</g>
</g>
<!-- Node2 -->
<g id="node2" class="node">
<title>Node2</title>
<g id="a_node2"><a xlink:title=" ">
<polygon fill="white" stroke="#bfbfbf" points="0,-0.5 0,-19.5 120,-19.5 120,-0.5 0,-0.5"/>
<text text-anchor="middle" x="60" y="-7.5" font-family="Helvetica,sans-Serif" font-size="10.00">qcompilerdetection.h</text>
</a>
</g>
</g>
<!-- Node1&#45;&gt;Node2 -->
<g id="edge1" class="edge">
<title>Node1&#45;&gt;Node2</title>
<path fill="none" stroke="midnightblue" d="M427.98,-60.87C346.06,-49.77 212.21,-31.63 130.51,-20.56"/>
<polygon fill="midnightblue" stroke="midnightblue" points="130.7,-17.05 120.32,-19.18 129.76,-23.99 130.7,-17.05"/>
</g>
<!-- Node3 -->
<g id="node3" class="node">
<title>Node3</title>
<g id="a_node3"><a xlink:title=" ">
<polygon fill="white" stroke="#bfbfbf" points="138,-0.5 138,-19.5 194,-19.5 194,-0.5 138,-0.5"/>
<text text-anchor="middle" x="166" y="-7.5" font-family="Helvetica,sans-Serif" font-size="10.00">QDialog</text>
</a>
</g>
</g>
<!-- Node1&#45;&gt;Node3 -->
<g id="edge2" class="edge">
<title>Node1&#45;&gt;Node3</title>
<path fill="none" stroke="midnightblue" d="M427.87,-59.79C370.09,-50.76 286.31,-36.93 204.23,-20.14"/>
<polygon fill="midnightblue" stroke="midnightblue" points="204.74,-16.67 194.24,-18.08 203.32,-23.53 204.74,-16.67"/>
</g>
<!-- Node4 -->
<g id="node4" class="node">
<title>Node4</title>
<g id="a_node4"><a xlink:title=" ">
<polygon fill="white" stroke="#bfbfbf" points="212.5,-0.5 212.5,-19.5 319.5,-19.5 319.5,-0.5 212.5,-0.5"/>
<text text-anchor="middle" x="266" y="-7.5" font-family="Helvetica,sans-Serif" font-size="10.00">QDialogButtonBox</text>
</a>
</g>
</g>
<!-- Node1&#45;&gt;Node4 -->
<g id="edge3" class="edge">
<title>Node1&#45;&gt;Node4</title>
<path fill="none" stroke="midnightblue" d="M444.08,-56.47C402.83,-45.94 347.12,-31.72 309.07,-22"/>
<polygon fill="midnightblue" stroke="midnightblue" points="309.87,-18.59 299.31,-19.51 308.13,-25.37 309.87,-18.59"/>
</g>
<!-- Node5 -->
<g id="node5" class="node">
<title>Node5</title>
<g id="a_node5"><a xlink:title=" ">
<polygon fill="white" stroke="#bfbfbf" points="338,-0.5 338,-19.5 388,-19.5 388,-0.5 338,-0.5"/>
<text text-anchor="middle" x="363" y="-7.5" font-family="Helvetica,sans-Serif" font-size="10.00">QFlags</text>
</a>
</g>
</g>
<!-- Node1&#45;&gt;Node5 -->
<g id="edge4" class="edge">
<title>Node1&#45;&gt;Node5</title>
<path fill="none" stroke="midnightblue" d="M466.77,-56.4C444.16,-46.51 414.16,-33.38 392.24,-23.79"/>
<polygon fill="midnightblue" stroke="midnightblue" points="393.35,-20.46 382.79,-19.66 390.55,-26.87 393.35,-20.46"/>
</g>
<!-- Node6 -->
<g id="node6" class="node">
<title>Node6</title>
<g id="a_node6"><a xlink:title=" ">
<polygon fill="white" stroke="#bfbfbf" points="406,-0.5 406,-19.5 492,-19.5 492,-0.5 406,-0.5"/>
<text text-anchor="middle" x="449" y="-7.5" font-family="Helvetica,sans-Serif" font-size="10.00">QMessageBox</text>
</a>
</g>
</g>
<!-- Node1&#45;&gt;Node6 -->
<g id="edge5" class="edge">
<title>Node1&#45;&gt;Node6</title>
<path fill="none" stroke="midnightblue" d="M487.15,-56.4C479.89,-47.75 470.55,-36.64 462.93,-27.58"/>
<polygon fill="midnightblue" stroke="midnightblue" points="465.39,-25.06 456.28,-19.66 460.03,-29.57 465.39,-25.06"/>
</g>
<!-- Node7 -->
<g id="node7" class="node">
<title>Node7</title>
<g id="a_node7"><a xlink:title=" ">
<polygon fill="white" stroke="#bfbfbf" points="510,-0.5 510,-19.5 590,-19.5 590,-0.5 510,-0.5"/>
<text text-anchor="middle" x="550" y="-7.5" font-family="Helvetica,sans-Serif" font-size="10.00">QMetaObject</text>
</a>
</g>
</g>
<!-- Node1&#45;&gt;Node7 -->
<g id="edge6" class="edge">
<title>Node1&#45;&gt;Node7</title>
<path fill="none" stroke="midnightblue" d="M511.09,-56.4C518.57,-47.66 528.22,-36.41 536.03,-27.3"/>
<polygon fill="midnightblue" stroke="midnightblue" points="538.73,-29.53 542.58,-19.66 533.41,-24.97 538.73,-29.53"/>
</g>
<!-- Node8 -->
<g id="node8" class="node">
<title>Node8</title>
<g id="a_node8"><a xlink:title=" ">
<polygon fill="white" stroke="#bfbfbf" points="608,-0.5 608,-19.5 664,-19.5 664,-0.5 608,-0.5"/>
<text text-anchor="middle" x="636" y="-7.5" font-family="Helvetica,sans-Serif" font-size="10.00">QObject</text>
</a>
</g>
</g>
<!-- Node1&#45;&gt;Node8 -->
<g id="edge7" class="edge">
<title>Node1&#45;&gt;Node8</title>
<path fill="none" stroke="midnightblue" d="M531.47,-56.4C554.35,-46.46 584.73,-33.26 606.84,-23.66"/>
<polygon fill="midnightblue" stroke="midnightblue" points="608.29,-26.85 616.07,-19.66 605.5,-20.43 608.29,-26.85"/>
</g>
<!-- Node9 -->
<g id="node9" class="node">
<title>Node9</title>
<g id="a_node9"><a xlink:title=" ">
<polygon fill="white" stroke="#bfbfbf" points="682.5,-0.5 682.5,-19.5 743.5,-19.5 743.5,-0.5 682.5,-0.5"/>
<text text-anchor="middle" x="713" y="-7.5" font-family="Helvetica,sans-Serif" font-size="10.00">QPixmap</text>
</a>
</g>
</g>
<!-- Node1&#45;&gt;Node9 -->
<g id="edge8" class="edge">
<title>Node1&#45;&gt;Node9</title>
<path fill="none" stroke="midnightblue" d="M549.44,-56.47C587.01,-46.03 637.62,-31.96 672.55,-22.25"/>
<polygon fill="midnightblue" stroke="midnightblue" points="673.71,-25.56 682.41,-19.51 671.83,-18.81 673.71,-25.56"/>
</g>
<!-- Node10 -->
<g id="node10" class="node">
<title>Node10</title>
<g id="a_node10"><a xlink:title=" ">
<polygon fill="white" stroke="#bfbfbf" points="761.5,-0.5 761.5,-19.5 814.5,-19.5 814.5,-0.5 761.5,-0.5"/>
<text text-anchor="middle" x="788" y="-7.5" font-family="Helvetica,sans-Serif" font-size="10.00">QString</text>
</a>
</g>
</g>
<!-- Node1&#45;&gt;Node10 -->
<g id="edge9" class="edge">
<title>Node1&#45;&gt;Node10</title>
<path fill="none" stroke="midnightblue" d="M570.12,-57.45C618.77,-48.27 684.97,-35.29 751.47,-20.26"/>
<polygon fill="midnightblue" stroke="midnightblue" points="752.31,-23.66 761.28,-18.03 750.76,-16.84 752.31,-23.66"/>
</g>
<!-- Node11 -->
<g id="node11" class="node">
<title>Node11</title>
<g id="a_node11"><a xlink:title=" ">
<polygon fill="white" stroke="#bfbfbf" points="832.5,-0.5 832.5,-19.5 891.5,-19.5 891.5,-0.5 832.5,-0.5"/>
<text text-anchor="middle" x="862" y="-7.5" font-family="Helvetica,sans-Serif" font-size="10.00">QtGlobal</text>
</a>
</g>
</g>
<!-- Node1&#45;&gt;Node11 -->
<g id="edge10" class="edge">
<title>Node1&#45;&gt;Node11</title>
<path fill="none" stroke="midnightblue" d="M570.29,-61.06C634,-52.25 730.1,-38.05 822.13,-20.26"/>
<polygon fill="midnightblue" stroke="midnightblue" points="823.03,-23.65 832.18,-18.3 821.69,-16.78 823.03,-23.65"/>
</g>
</g>
</svg>
