<?xml version="1.0" encoding="UTF-8" standalone="no"?>
<!DOCTYPE svg PUBLIC "-//W3C//DTD SVG 1.1//EN"
 "http://www.w3.org/Graphics/SVG/1.1/DTD/svg11.dtd">
<!-- Generated by graphviz version 2.43.0 (0)
 -->
<!-- Title: TST_TSTranslation Pages: 1 -->
<svg width="436pt" height="402pt"
 viewBox="0.00 0.00 436.00 402.00" xmlns="http://www.w3.org/2000/svg" xmlns:xlink="http://www.w3.org/1999/xlink">
<g id="graph0" class="graph" transform="scale(1 1) rotate(0) translate(4 398)">
<title>TST_TSTranslation</title>
<!-- Node1 -->
<g id="node1" class="node">
<title>Node1</title>
<g id="a_node1"><a xlink:title=" ">
<polygon fill="#999999" stroke="#666666" points="66.5,-0.5 66.5,-288.5 221.5,-288.5 221.5,-0.5 66.5,-0.5"/>
<text text-anchor="middle" x="144" y="-276.5" font-family="Helvetica,sans-Serif" font-size="10.00">TST_TSTranslation</text>
<polyline fill="none" stroke="#666666" points="66.5,-269.5 221.5,-269.5 "/>
<text text-anchor="start" x="74.5" y="-257.5" font-family="Helvetica,sans-Serif" font-size="10.00">&#45; TagName</text>
<text text-anchor="start" x="74.5" y="-246.5" font-family="Helvetica,sans-Serif" font-size="10.00">&#45; TagMessage</text>
<text text-anchor="start" x="74.5" y="-235.5" font-family="Helvetica,sans-Serif" font-size="10.00">&#45; TagSource</text>
<text text-anchor="start" x="74.5" y="-224.5" font-family="Helvetica,sans-Serif" font-size="10.00">&#45; TagTranslation</text>
<text text-anchor="start" x="74.5" y="-213.5" font-family="Helvetica,sans-Serif" font-size="10.00">&#45; AttrType</text>
<text text-anchor="start" x="74.5" y="-202.5" font-family="Helvetica,sans-Serif" font-size="10.00">&#45; AttrValVanished</text>
<text text-anchor="start" x="74.5" y="-191.5" font-family="Helvetica,sans-Serif" font-size="10.00">&#45; AttrValUnfinished</text>
<text text-anchor="start" x="74.5" y="-180.5" font-family="Helvetica,sans-Serif" font-size="10.00">&#45; AttrValObsolete</text>
<polyline fill="none" stroke="#666666" points="66.5,-173.5 221.5,-173.5 "/>
<text text-anchor="start" x="74.5" y="-161.5" font-family="Helvetica,sans-Serif" font-size="10.00">+ TST_TSTranslation()</text>
<text text-anchor="start" x="74.5" y="-150.5" font-family="Helvetica,sans-Serif" font-size="10.00">&#45; LoadTSFile()</text>
<text text-anchor="start" x="74.5" y="-139.5" font-family="Helvetica,sans-Serif" font-size="10.00">&#45; CheckEnglishLocalization</text>
<text text-anchor="start" x="74.5" y="-128.5" font-family="Helvetica,sans-Serif" font-size="10.00">_data()</text>
<text text-anchor="start" x="74.5" y="-117.5" font-family="Helvetica,sans-Serif" font-size="10.00">&#45; CheckEnglishLocalization()</text>
<text text-anchor="start" x="74.5" y="-106.5" font-family="Helvetica,sans-Serif" font-size="10.00">&#45; CheckEmptyToolButton</text>
<text text-anchor="start" x="74.5" y="-95.5" font-family="Helvetica,sans-Serif" font-size="10.00">_data()</text>
<text text-anchor="start" x="74.5" y="-84.5" font-family="Helvetica,sans-Serif" font-size="10.00">&#45; CheckEmptyToolButton()</text>
<text text-anchor="start" x="74.5" y="-73.5" font-family="Helvetica,sans-Serif" font-size="10.00">&#45; CheckPlaceMarkerExist</text>
<text text-anchor="start" x="74.5" y="-62.5" font-family="Helvetica,sans-Serif" font-size="10.00">_data()</text>
<text text-anchor="start" x="74.5" y="-51.5" font-family="Helvetica,sans-Serif" font-size="10.00">&#45; CheckPlaceMarkerExist()</text>
<text text-anchor="start" x="74.5" y="-40.5" font-family="Helvetica,sans-Serif" font-size="10.00">&#45; TestPunctuation_data()</text>
<text text-anchor="start" x="74.5" y="-29.5" font-family="Helvetica,sans-Serif" font-size="10.00">&#45; TestPunctuation()</text>
<text text-anchor="start" x="74.5" y="-18.5" font-family="Helvetica,sans-Serif" font-size="10.00">&#45; TestHTMLTags_data()</text>
<text text-anchor="start" x="74.5" y="-7.5" font-family="Helvetica,sans-Serif" font-size="10.00">&#45; TestHTMLTags()</text>
</a>
</g>
</g>
<!-- Node2 -->
<g id="node2" class="node">
<title>Node2</title>
<g id="a_node2"><a xlink:title=" ">
<polygon fill="white" stroke="#666666" points="0,-336.5 0,-393.5 56,-393.5 56,-336.5 0,-336.5"/>
<text text-anchor="middle" x="28" y="-381.5" font-family="Helvetica,sans-Serif" font-size="10.00">QObject</text>
<polyline fill="none" stroke="#666666" points="0,-374.5 56,-374.5 "/>
<text text-anchor="middle" x="28" y="-362.5" font-family="Helvetica,sans-Serif" font-size="10.00"> </text>
<polyline fill="none" stroke="#666666" points="0,-355.5 56,-355.5 "/>
<text text-anchor="middle" x="28" y="-343.5" font-family="Helvetica,sans-Serif" font-size="10.00"> </text>
</a>
</g>
</g>
<!-- Node2&#45;&gt;Node1 -->
<g id="edge1" class="edge">
<title>Node2&#45;&gt;Node1</title>
<path fill="none" stroke="#63b8ff" d="M47.47,-327.32C53.46,-316.05 60.44,-302.89 67.87,-288.9"/>
<polygon fill="none" stroke="#63b8ff" points="44.29,-325.85 42.69,-336.33 50.47,-329.14 44.29,-325.85"/>
</g>
<!-- Node3 -->
<g id="node3" class="node">
<title>Node3</title>
<g id="a_node3"><a xlink:href="../../dd/daa/classQSharedPointer.html" target="_top" xlink:title=" ">
<polygon fill="white" stroke="#666666" points="74,-336.5 74,-393.5 214,-393.5 214,-336.5 74,-336.5"/>
<text text-anchor="middle" x="144" y="-381.5" font-family="Helvetica,sans-Serif" font-size="10.00">QSharedPointer&lt; QFile &gt;</text>
<polyline fill="none" stroke="#666666" points="74,-374.5 214,-374.5 "/>
<text text-anchor="middle" x="144" y="-362.5" font-family="Helvetica,sans-Serif" font-size="10.00"> </text>
<polyline fill="none" stroke="#666666" points="74,-355.5 214,-355.5 "/>
<text text-anchor="middle" x="144" y="-343.5" font-family="Helvetica,sans-Serif" font-size="10.00"> </text>
</a>
</g>
</g>
<!-- Node3&#45;&gt;Node1 -->
<g id="edge2" class="edge">
<title>Node3&#45;&gt;Node1</title>
<path fill="none" stroke="#404040" d="M144,-336.33C144,-326.39 144,-314.37 144,-301.24"/>
<polygon fill="none" stroke="#404040" points="144,-300.9 140,-294.9 144,-288.9 148,-294.9 144,-300.9"/>
<text text-anchor="middle" x="161" y="-310" font-family="Helvetica,sans-Serif" font-size="10.00"> &#45;tsFile</text>
</g>
<!-- Node4 -->
<g id="node4" class="node">
<title>Node4</title>
<g id="a_node4"><a xlink:href="../../dd/daa/classQSharedPointer.html" target="_top" xlink:title=" ">
<polygon fill="white" stroke="#666666" points="232,-336.5 232,-393.5 428,-393.5 428,-336.5 232,-336.5"/>
<text text-anchor="middle" x="330" y="-381.5" font-family="Helvetica,sans-Serif" font-size="10.00">QSharedPointer&lt; QDomDocument &gt;</text>
<polyline fill="none" stroke="#666666" points="232,-374.5 428,-374.5 "/>
<text text-anchor="middle" x="330" y="-362.5" font-family="Helvetica,sans-Serif" font-size="10.00"> </text>
<polyline fill="none" stroke="#666666" points="232,-355.5 428,-355.5 "/>
<text text-anchor="middle" x="330" y="-343.5" font-family="Helvetica,sans-Serif" font-size="10.00"> </text>
</a>
</g>
</g>
<!-- Node4&#45;&gt;Node1 -->
<g id="edge3" class="edge">
<title>Node4&#45;&gt;Node1</title>
<path fill="none" stroke="#404040" d="M306.44,-336.33C286.87,-313.34 257.78,-279.16 229.59,-246.05"/>
<polygon fill="none" stroke="#404040" points="229.45,-245.88 222.52,-243.91 221.67,-236.75 228.61,-238.72 229.45,-245.88"/>
<text text-anchor="middle" x="307.5" y="-310" font-family="Helvetica,sans-Serif" font-size="10.00"> &#45;tsXML</text>
</g>
</g>
</svg>
