<?xml version="1.0" encoding="UTF-8" standalone="no"?>
<!DOCTYPE svg PUBLIC "-//W3C//DTD SVG 1.1//EN"
 "http://www.w3.org/Graphics/SVG/1.1/DTD/svg11.dtd">
<!-- Generated by graphviz version 2.43.0 (0)
 -->
<!-- Title: src/libs/vpatterndb/variables/varcradius.cpp Pages: 1 -->
<svg width="971pt" height="263pt"
 viewBox="0.00 0.00 970.50 263.00" xmlns="http://www.w3.org/2000/svg" xmlns:xlink="http://www.w3.org/1999/xlink">
<g id="graph0" class="graph" transform="scale(1 1) rotate(0) translate(4 259)">
<title>src/libs/vpatterndb/variables/varcradius.cpp</title>
<polygon fill="white" stroke="transparent" points="-4,4 -4,-259 966.5,-259 966.5,4 -4,4"/>
<!-- Node1 -->
<g id="node1" class="node">
<title>Node1</title>
<g id="a_node1"><a xlink:title=" ">
<polygon fill="#bfbfbf" stroke="black" points="500,-224.5 500,-254.5 639,-254.5 639,-224.5 500,-224.5"/>
<text text-anchor="start" x="508" y="-242.5" font-family="Helvetica,sans-Serif" font-size="10.00">src/libs/vpatterndb</text>
<text text-anchor="middle" x="569.5" y="-231.5" font-family="Helvetica,sans-Serif" font-size="10.00">/variables/varcradius.cpp</text>
</a>
</g>
</g>
<!-- Node2 -->
<g id="node2" class="node">
<title>Node2</title>
<g id="a_node2"><a xlink:href="../../d1/d1c/varcradius_8h.html" target="_top" xlink:title=" ">
<polygon fill="white" stroke="black" points="339,-168.5 339,-187.5 416,-187.5 416,-168.5 339,-168.5"/>
<text text-anchor="middle" x="377.5" y="-175.5" font-family="Helvetica,sans-Serif" font-size="10.00">varcradius.h</text>
</a>
</g>
</g>
<!-- Node1&#45;&gt;Node2 -->
<g id="edge1" class="edge">
<title>Node1&#45;&gt;Node2</title>
<path fill="none" stroke="midnightblue" d="M524,-224.4C490.68,-214.07 446.01,-200.23 414.79,-190.56"/>
<polygon fill="midnightblue" stroke="midnightblue" points="415.75,-187.19 405.16,-187.57 413.67,-193.87 415.75,-187.19"/>
</g>
<!-- Node6 -->
<g id="node6" class="node">
<title>Node6</title>
<g id="a_node6"><a xlink:title=" ">
<polygon fill="white" stroke="#bfbfbf" points="425,-112.5 425,-131.5 502,-131.5 502,-112.5 425,-112.5"/>
<text text-anchor="middle" x="463.5" y="-119.5" font-family="Helvetica,sans-Serif" font-size="10.00">../ifc/ifcdef.h</text>
</a>
</g>
</g>
<!-- Node1&#45;&gt;Node6 -->
<g id="edge19" class="edge">
<title>Node1&#45;&gt;Node6</title>
<path fill="none" stroke="midnightblue" d="M553.69,-224.41C542.88,-214.54 528.41,-200.87 516.5,-188 502.03,-172.37 486.8,-153.39 476.39,-139.98"/>
<polygon fill="midnightblue" stroke="midnightblue" points="478.9,-137.5 470.03,-131.7 473.35,-141.76 478.9,-137.5"/>
</g>
<!-- Node11 -->
<g id="node11" class="node">
<title>Node11</title>
<g id="a_node11"><a xlink:title=" ">
<polygon fill="white" stroke="#bfbfbf" points="464,-0.5 464,-19.5 517,-19.5 517,-0.5 464,-0.5"/>
<text text-anchor="middle" x="490.5" y="-7.5" font-family="Helvetica,sans-Serif" font-size="10.00">QString</text>
</a>
</g>
</g>
<!-- Node1&#45;&gt;Node11 -->
<g id="edge18" class="edge">
<title>Node1&#45;&gt;Node11</title>
<path fill="none" stroke="midnightblue" d="M564.05,-224.4C560.18,-214.29 554.91,-200.35 550.5,-188 529.88,-130.33 507.05,-61.48 496.48,-29.29"/>
<polygon fill="midnightblue" stroke="midnightblue" points="499.71,-27.92 493.27,-19.51 493.06,-30.1 499.71,-27.92"/>
</g>
<!-- Node12 -->
<g id="node12" class="node">
<title>Node12</title>
<g id="a_node12"><a xlink:title=" ">
<polygon fill="white" stroke="#bfbfbf" points="559,-168.5 559,-187.5 660,-187.5 660,-168.5 559,-168.5"/>
<text text-anchor="middle" x="609.5" y="-175.5" font-family="Helvetica,sans-Serif" font-size="10.00">QMessageLogger</text>
</a>
</g>
</g>
<!-- Node1&#45;&gt;Node12 -->
<g id="edge17" class="edge">
<title>Node1&#45;&gt;Node12</title>
<path fill="none" stroke="midnightblue" d="M578.98,-224.4C584.67,-215.93 591.95,-205.1 597.98,-196.14"/>
<polygon fill="midnightblue" stroke="midnightblue" points="601.01,-197.91 603.68,-187.66 595.2,-194 601.01,-197.91"/>
</g>
<!-- Node13 -->
<g id="node13" class="node">
<title>Node13</title>
<g id="a_node13"><a xlink:title=" ">
<polygon fill="white" stroke="#bfbfbf" points="678.5,-168.5 678.5,-187.5 790.5,-187.5 790.5,-168.5 678.5,-168.5"/>
<text text-anchor="middle" x="734.5" y="-175.5" font-family="Helvetica,sans-Serif" font-size="10.00">../vgeometry/varc.h</text>
</a>
</g>
</g>
<!-- Node1&#45;&gt;Node13 -->
<g id="edge20" class="edge">
<title>Node1&#45;&gt;Node13</title>
<path fill="none" stroke="midnightblue" d="M608.6,-224.4C636.66,-214.28 674.07,-200.79 700.81,-191.15"/>
<polygon fill="midnightblue" stroke="midnightblue" points="702.27,-194.34 710.49,-187.66 699.9,-187.76 702.27,-194.34"/>
</g>
<!-- Node14 -->
<g id="node14" class="node">
<title>Node14</title>
<g id="a_node14"><a xlink:title=" ">
<polygon fill="white" stroke="#bfbfbf" points="808.5,-168.5 808.5,-187.5 962.5,-187.5 962.5,-168.5 808.5,-168.5"/>
<text text-anchor="middle" x="885.5" y="-175.5" font-family="Helvetica,sans-Serif" font-size="10.00">../vgeometry/vellipticalarc.h</text>
</a>
</g>
</g>
<!-- Node1&#45;&gt;Node14 -->
<g id="edge21" class="edge">
<title>Node1&#45;&gt;Node14</title>
<path fill="none" stroke="midnightblue" d="M639.24,-225.37C696.78,-214.53 777.32,-199.37 830.42,-189.37"/>
<polygon fill="midnightblue" stroke="midnightblue" points="831.15,-192.8 840.33,-187.51 829.85,-185.92 831.15,-192.8"/>
</g>
<!-- Node3 -->
<g id="node3" class="node">
<title>Node3</title>
<g id="a_node3"><a xlink:title=" ">
<polygon fill="white" stroke="#bfbfbf" points="261.5,-56.5 261.5,-75.5 381.5,-75.5 381.5,-56.5 261.5,-56.5"/>
<text text-anchor="middle" x="321.5" y="-63.5" font-family="Helvetica,sans-Serif" font-size="10.00">qcompilerdetection.h</text>
</a>
</g>
</g>
<!-- Node2&#45;&gt;Node3 -->
<g id="edge2" class="edge">
<title>Node2&#45;&gt;Node3</title>
<path fill="none" stroke="midnightblue" d="M373.11,-168.37C363.95,-150.38 342.65,-108.55 330.47,-84.63"/>
<polygon fill="midnightblue" stroke="midnightblue" points="333.53,-82.92 325.87,-75.59 327.29,-86.09 333.53,-82.92"/>
</g>
<!-- Node4 -->
<g id="node4" class="node">
<title>Node4</title>
<g id="a_node4"><a xlink:title=" ">
<polygon fill="white" stroke="#bfbfbf" points="0,-0.5 0,-19.5 59,-19.5 59,-0.5 0,-0.5"/>
<text text-anchor="middle" x="29.5" y="-7.5" font-family="Helvetica,sans-Serif" font-size="10.00">QtGlobal</text>
</a>
</g>
</g>
<!-- Node2&#45;&gt;Node4 -->
<g id="edge3" class="edge">
<title>Node2&#45;&gt;Node4</title>
<path fill="none" stroke="midnightblue" d="M338.97,-175.05C289.75,-171.42 202.78,-161.1 134.5,-132 95.24,-115.27 83.03,-109.43 56.5,-76 45.59,-62.26 38.42,-43.48 34.23,-29.64"/>
<polygon fill="midnightblue" stroke="midnightblue" points="37.55,-28.49 31.5,-19.79 30.8,-30.36 37.55,-28.49"/>
</g>
<!-- Node5 -->
<g id="node5" class="node">
<title>Node5</title>
<g id="a_node5"><a xlink:title=" ">
<polygon fill="white" stroke="#bfbfbf" points="336.5,-0.5 336.5,-19.5 418.5,-19.5 418.5,-0.5 336.5,-0.5"/>
<text text-anchor="middle" x="377.5" y="-7.5" font-family="Helvetica,sans-Serif" font-size="10.00">../vmisc/def.h</text>
</a>
</g>
</g>
<!-- Node2&#45;&gt;Node5 -->
<g id="edge4" class="edge">
<title>Node2&#45;&gt;Node5</title>
<path fill="none" stroke="midnightblue" d="M379.87,-168.47C385.04,-148.66 396.45,-98.05 390.5,-56 389.23,-47.04 386.61,-37.37 384.05,-29.3"/>
<polygon fill="midnightblue" stroke="midnightblue" points="387.36,-28.16 380.84,-19.8 380.73,-30.4 387.36,-28.16"/>
</g>
<!-- Node2&#45;&gt;Node6 -->
<g id="edge5" class="edge">
<title>Node2&#45;&gt;Node6</title>
<path fill="none" stroke="midnightblue" d="M391.32,-168.32C404.73,-159.9 425.32,-146.97 441.09,-137.07"/>
<polygon fill="midnightblue" stroke="midnightblue" points="443.11,-139.94 449.72,-131.65 439.39,-134.01 443.11,-139.94"/>
</g>
<!-- Node7 -->
<g id="node7" class="node">
<title>Node7</title>
<g id="a_node7"><a xlink:href="../../d2/db0/vcurvevariable_8h.html" target="_top" xlink:title=" ">
<polygon fill="white" stroke="black" points="143.5,-112.5 143.5,-131.5 241.5,-131.5 241.5,-112.5 143.5,-112.5"/>
<text text-anchor="middle" x="192.5" y="-119.5" font-family="Helvetica,sans-Serif" font-size="10.00">vcurvevariable.h</text>
</a>
</g>
</g>
<!-- Node2&#45;&gt;Node7 -->
<g id="edge6" class="edge">
<title>Node2&#45;&gt;Node7</title>
<path fill="none" stroke="midnightblue" d="M348.19,-168.44C316.66,-159.24 266.37,-144.56 231.51,-134.39"/>
<polygon fill="midnightblue" stroke="midnightblue" points="232.26,-130.96 221.68,-131.52 230.3,-137.68 232.26,-130.96"/>
</g>
<!-- Node7&#45;&gt;Node3 -->
<g id="edge7" class="edge">
<title>Node7&#45;&gt;Node3</title>
<path fill="none" stroke="midnightblue" d="M212.94,-112.44C234.17,-103.56 267.6,-89.56 291.75,-79.45"/>
<polygon fill="midnightblue" stroke="midnightblue" points="293.28,-82.61 301.16,-75.52 290.58,-76.15 293.28,-82.61"/>
</g>
<!-- Node7&#45;&gt;Node4 -->
<g id="edge10" class="edge">
<title>Node7&#45;&gt;Node4</title>
<path fill="none" stroke="midnightblue" d="M157.94,-112.48C134.22,-105.44 102.92,-93.69 79.5,-76 62.52,-63.17 48.32,-43.16 39.44,-28.73"/>
<polygon fill="midnightblue" stroke="midnightblue" points="42.27,-26.63 34.18,-19.79 36.24,-30.18 42.27,-26.63"/>
</g>
<!-- Node8 -->
<g id="node8" class="node">
<title>Node8</title>
<g id="a_node8"><a xlink:title=" ">
<polygon fill="white" stroke="#bfbfbf" points="171.5,-0.5 171.5,-19.5 287.5,-19.5 287.5,-0.5 171.5,-0.5"/>
<text text-anchor="middle" x="229.5" y="-7.5" font-family="Helvetica,sans-Serif" font-size="10.00">QSharedDataPointer</text>
</a>
</g>
</g>
<!-- Node7&#45;&gt;Node8 -->
<g id="edge8" class="edge">
<title>Node7&#45;&gt;Node8</title>
<path fill="none" stroke="midnightblue" d="M197.21,-112.25C201.86,-103.33 208.91,-89.01 213.5,-76 218.88,-60.74 223.14,-42.86 225.91,-29.71"/>
<polygon fill="midnightblue" stroke="midnightblue" points="229.41,-30.06 227.95,-19.57 222.54,-28.68 229.41,-30.06"/>
</g>
<!-- Node9 -->
<g id="node9" class="node">
<title>Node9</title>
<g id="a_node9"><a xlink:title=" ">
<polygon fill="white" stroke="#bfbfbf" points="84,-0.5 84,-19.5 149,-19.5 149,-0.5 84,-0.5"/>
<text text-anchor="middle" x="116.5" y="-7.5" font-family="Helvetica,sans-Serif" font-size="10.00">QTypeInfo</text>
</a>
</g>
</g>
<!-- Node7&#45;&gt;Node9 -->
<g id="edge9" class="edge">
<title>Node7&#45;&gt;Node9</title>
<path fill="none" stroke="midnightblue" d="M143.28,-112.61C122.07,-106.3 99.24,-95.26 86.5,-76 76.27,-60.55 88.13,-41.06 99.82,-27.46"/>
<polygon fill="midnightblue" stroke="midnightblue" points="102.64,-29.56 106.87,-19.85 97.51,-24.81 102.64,-29.56"/>
</g>
<!-- Node10 -->
<g id="node10" class="node">
<title>Node10</title>
<g id="a_node10"><a xlink:href="../../d4/df4/vinternalvariable_8h.html" target="_top" xlink:title=" ">
<polygon fill="white" stroke="black" points="96,-56.5 96,-75.5 205,-75.5 205,-56.5 96,-56.5"/>
<text text-anchor="middle" x="150.5" y="-63.5" font-family="Helvetica,sans-Serif" font-size="10.00">vinternalvariable.h</text>
</a>
</g>
</g>
<!-- Node7&#45;&gt;Node10 -->
<g id="edge11" class="edge">
<title>Node7&#45;&gt;Node10</title>
<path fill="none" stroke="midnightblue" d="M185.56,-112.08C179.57,-104.38 170.75,-93.03 163.45,-83.65"/>
<polygon fill="midnightblue" stroke="midnightblue" points="166.21,-81.5 157.31,-75.75 160.68,-85.79 166.21,-81.5"/>
</g>
<!-- Node10&#45;&gt;Node4 -->
<g id="edge15" class="edge">
<title>Node10&#45;&gt;Node4</title>
<path fill="none" stroke="midnightblue" d="M131.33,-56.44C111.59,-47.64 80.61,-33.81 58.01,-23.72"/>
<polygon fill="midnightblue" stroke="midnightblue" points="59.14,-20.4 48.58,-19.52 56.29,-26.79 59.14,-20.4"/>
</g>
<!-- Node10&#45;&gt;Node5 -->
<g id="edge16" class="edge">
<title>Node10&#45;&gt;Node5</title>
<path fill="none" stroke="midnightblue" d="M186.47,-56.44C225.82,-47.08 288.99,-32.06 331.81,-21.87"/>
<polygon fill="midnightblue" stroke="midnightblue" points="332.78,-25.24 341.7,-19.52 331.16,-18.43 332.78,-25.24"/>
</g>
<!-- Node10&#45;&gt;Node8 -->
<g id="edge12" class="edge">
<title>Node10&#45;&gt;Node8</title>
<path fill="none" stroke="midnightblue" d="M163.19,-56.32C175.4,-47.98 194.08,-35.21 208.5,-25.35"/>
<polygon fill="midnightblue" stroke="midnightblue" points="210.56,-28.19 216.84,-19.65 206.61,-22.41 210.56,-28.19"/>
</g>
<!-- Node10&#45;&gt;Node9 -->
<g id="edge14" class="edge">
<title>Node10&#45;&gt;Node9</title>
<path fill="none" stroke="midnightblue" d="M144.89,-56.08C140.13,-48.53 133.18,-37.49 127.35,-28.23"/>
<polygon fill="midnightblue" stroke="midnightblue" points="130.3,-26.35 122.01,-19.75 124.38,-30.08 130.3,-26.35"/>
</g>
<!-- Node10&#45;&gt;Node11 -->
<g id="edge13" class="edge">
<title>Node10&#45;&gt;Node11</title>
<path fill="none" stroke="midnightblue" d="M204.37,-56.44C273.97,-45.39 393.31,-26.44 453.49,-16.88"/>
<polygon fill="midnightblue" stroke="midnightblue" points="454.34,-20.29 463.67,-15.26 453.24,-13.37 454.34,-20.29"/>
</g>
</g>
</svg>
