<?xml version="1.0" encoding="UTF-8" standalone="no"?>
<!DOCTYPE svg PUBLIC "-//W3C//DTD SVG 1.1//EN"
 "http://www.w3.org/Graphics/SVG/1.1/DTD/svg11.dtd">
<!-- Generated by graphviz version 2.43.0 (0)
 -->
<!-- Title: SavePiecePathOptions Pages: 1 -->
<!--zoomable 2103 -->
<svg id="main" version="1.1" xmlns="http://www.w3.org/2000/svg" xmlns:xlink="http://www.w3.org/1999/xlink" xml:space="preserve" onload="init(evt)">
<style type="text/css"><![CDATA[
.edge:hover path { stroke: red; }
.edge:hover polygon { stroke: red; fill: red; }
]]></style>
<script type="text/javascript"><![CDATA[
var edges = document.getElementsByTagName('g');
if (edges && edges.length) {
  for (var i=0;i<edges.length;i++) {
    if (edges[i].id.substr(0,4)=='edge') {
      edges[i].setAttribute('class','edge');
    }
  }
}
]]></script>
        <defs>
                <circle id="rim" cx="0" cy="0" r="7"/>
                <circle id="rim2" cx="0" cy="0" r="3.5"/>
                <g id="zoomPlus">
                        <use xlink:href="#rim" fill="#404040">
                                <set attributeName="fill" to="#808080" begin="zoomplus.mouseover" end="zoomplus.mouseout"/>
                        </use>
                        <path d="M-4,0h8M0,-4v8" fill="none" stroke="white" stroke-width="1.5" pointer-events="none"/>
                </g>
                <g id="zoomMin">
                        <use xlink:href="#rim" fill="#404040">
                                <set attributeName="fill" to="#808080" begin="zoomminus.mouseover" end="zoomminus.mouseout"/>
                        </use>
                        <path d="M-4,0h8" fill="none" stroke="white" stroke-width="1.5" pointer-events="none"/>
                </g>
                <g id="dirArrow">
                        <path fill="none" stroke="white" stroke-width="1.5" d="M0,-3.0v7 M-2.5,-0.5L0,-3.0L2.5,-0.5"/>
                </g>
               <g id="resetDef">
                       <use xlink:href="#rim2" fill="#404040">
                               <set attributeName="fill" to="#808080" begin="reset.mouseover" end="reset.mouseout"/>
                       </use>
               </g>
        </defs>

<script type="text/javascript">
var viewWidth = 1117;
var viewHeight = 2103;
var sectionId = 'dynsection-1';
</script>
<script xlink:href="../../svgpan.js"/>
<svg id="graph" class="graph">
<g id="viewport">
<title>SavePiecePathOptions</title>
<polygon fill="white" stroke="transparent" points="-4,4 -4,-2099 1112.5,-2099 1112.5,4 -4,4"/>
<!-- Node1 -->
<g id="node1" class="node">
<title>Node1</title>
<g id="a_node1"><a xlink:title=" ">
<polygon fill="#bfbfbf" stroke="black" points="448,-0.5 448,-134.5 600,-134.5 600,-0.5 448,-0.5"/>
<text text-anchor="middle" x="524" y="-122.5" font-family="Helvetica,sans-Serif" font-size="10.00">SavePiecePathOptions</text>
<polyline fill="none" stroke="black" points="448,-115.5 600,-115.5 "/>
<text text-anchor="middle" x="524" y="-103.5" font-family="Helvetica,sans-Serif" font-size="10.00"> </text>
<polyline fill="none" stroke="black" points="448,-96.5 600,-96.5 "/>
<text text-anchor="start" x="456" y="-84.5" font-family="Helvetica,sans-Serif" font-size="10.00">+ SavePiecePathOptions()</text>
<text text-anchor="start" x="456" y="-73.5" font-family="Helvetica,sans-Serif" font-size="10.00">+ ~SavePiecePathOptions()</text>
<text text-anchor="start" x="456" y="-62.5" font-family="Helvetica,sans-Serif" font-size="10.00">+ undo()</text>
<text text-anchor="start" x="456" y="-51.5" font-family="Helvetica,sans-Serif" font-size="10.00">+ redo()</text>
<text text-anchor="start" x="456" y="-40.5" font-family="Helvetica,sans-Serif" font-size="10.00">+ mergeWith()</text>
<text text-anchor="start" x="456" y="-29.5" font-family="Helvetica,sans-Serif" font-size="10.00">+ id()</text>
<text text-anchor="start" x="456" y="-18.5" font-family="Helvetica,sans-Serif" font-size="10.00">+ PathId()</text>
<text text-anchor="start" x="456" y="-7.5" font-family="Helvetica,sans-Serif" font-size="10.00">+ NewPath()</text>
</a>
</g>
</g>
<!-- Node2 -->
<g id="node2" class="node">
<title>Node2</title>
<g id="a_node2"><a xlink:href="../../de/d04/classVUndoCommand.html" target="_top" xlink:title=" ">
<polygon fill="white" stroke="black" points="264.5,-314.5 264.5,-503.5 413.5,-503.5 413.5,-314.5 264.5,-314.5"/>
<text text-anchor="middle" x="339" y="-491.5" font-family="Helvetica,sans-Serif" font-size="10.00">VUndoCommand</text>
<polyline fill="none" stroke="black" points="264.5,-484.5 413.5,-484.5 "/>
<text text-anchor="start" x="272.5" y="-472.5" font-family="Helvetica,sans-Serif" font-size="10.00"># xml</text>
<text text-anchor="start" x="272.5" y="-461.5" font-family="Helvetica,sans-Serif" font-size="10.00"># nodeId</text>
<text text-anchor="start" x="272.5" y="-450.5" font-family="Helvetica,sans-Serif" font-size="10.00"># redoFlag</text>
<polyline fill="none" stroke="black" points="264.5,-443.5 413.5,-443.5 "/>
<text text-anchor="start" x="272.5" y="-431.5" font-family="Helvetica,sans-Serif" font-size="10.00">+ VUndoCommand()</text>
<text text-anchor="start" x="272.5" y="-420.5" font-family="Helvetica,sans-Serif" font-size="10.00">+ ~VUndoCommand()</text>
<text text-anchor="start" x="272.5" y="-409.5" font-family="Helvetica,sans-Serif" font-size="10.00"># RedoFullParsing()</text>
<text text-anchor="start" x="272.5" y="-398.5" font-family="Helvetica,sans-Serif" font-size="10.00"># UndoDeleteAfterSibling()</text>
<text text-anchor="start" x="272.5" y="-387.5" font-family="Helvetica,sans-Serif" font-size="10.00"># IncrementReferences()</text>
<text text-anchor="start" x="272.5" y="-376.5" font-family="Helvetica,sans-Serif" font-size="10.00"># DecrementReferences()</text>
<text text-anchor="start" x="272.5" y="-365.5" font-family="Helvetica,sans-Serif" font-size="10.00"># IncrementReferences()</text>
<text text-anchor="start" x="272.5" y="-354.5" font-family="Helvetica,sans-Serif" font-size="10.00"># DecrementReferences()</text>
<text text-anchor="start" x="272.5" y="-343.5" font-family="Helvetica,sans-Serif" font-size="10.00"># IncrementReferences()</text>
<text text-anchor="start" x="272.5" y="-332.5" font-family="Helvetica,sans-Serif" font-size="10.00"># DecrementReferences()</text>
<text text-anchor="start" x="272.5" y="-321.5" font-family="Helvetica,sans-Serif" font-size="10.00"># getDestinationObject()</text>
</a>
</g>
</g>
<!-- Node2&#45;&gt;Node1 -->
<g id="edge1" class="edge">
<title>Node2&#45;&gt;Node1</title>
<path fill="none" stroke="midnightblue" d="M371.35,-304.62C384.69,-268.18 401.8,-227.67 422,-193 433.67,-172.96 448.5,-152.83 463.21,-134.77"/>
<polygon fill="none" stroke="midnightblue" points="367.97,-303.69 367.87,-314.29 374.55,-306.07 367.97,-303.69"/>
</g>
<!-- Node3 -->
<g id="node3" class="node">
<title>Node3</title>
<g id="a_node3"><a xlink:title=" ">
<polygon fill="white" stroke="#bfbfbf" points="0,-1729 0,-1786 56,-1786 56,-1729 0,-1729"/>
<text text-anchor="middle" x="28" y="-1774" font-family="Helvetica,sans-Serif" font-size="10.00">QObject</text>
<polyline fill="none" stroke="#bfbfbf" points="0,-1767 56,-1767 "/>
<text text-anchor="middle" x="28" y="-1755" font-family="Helvetica,sans-Serif" font-size="10.00"> </text>
<polyline fill="none" stroke="#bfbfbf" points="0,-1748 56,-1748 "/>
<text text-anchor="middle" x="28" y="-1736" font-family="Helvetica,sans-Serif" font-size="10.00"> </text>
</a>
</g>
</g>
<!-- Node3&#45;&gt;Node2 -->
<g id="edge2" class="edge">
<title>Node3&#45;&gt;Node2</title>
<path fill="none" stroke="midnightblue" d="M33.37,-1718.89C40.08,-1673 52.22,-1593.1 65,-1525 136.52,-1143.82 144.93,-1045.61 249,-672 264.75,-615.48 285.92,-553.32 303.78,-503.74"/>
<polygon fill="none" stroke="midnightblue" points="29.88,-1718.58 31.91,-1728.98 36.81,-1719.58 29.88,-1718.58"/>
</g>
<!-- Node5 -->
<g id="node5" class="node">
<title>Node5</title>
<g id="a_node5"><a xlink:href="../../d8/dba/classVAbstractPattern.html" target="_top" xlink:title=" ">
<polygon fill="white" stroke="black" points="258,-672.5 258,-1477.5 420,-1477.5 420,-672.5 258,-672.5"/>
<text text-anchor="middle" x="339" y="-1465.5" font-family="Helvetica,sans-Serif" font-size="10.00">VAbstractPattern</text>
<polyline fill="none" stroke="black" points="258,-1458.5 420,-1458.5 "/>
<text text-anchor="start" x="266" y="-1446.5" font-family="Helvetica,sans-Serif" font-size="10.00">+ TagPattern</text>
<text text-anchor="start" x="266" y="-1435.5" font-family="Helvetica,sans-Serif" font-size="10.00">+ TagCalculation</text>
<text text-anchor="start" x="266" y="-1424.5" font-family="Helvetica,sans-Serif" font-size="10.00">+ TagModeling</text>
<text text-anchor="start" x="266" y="-1413.5" font-family="Helvetica,sans-Serif" font-size="10.00">+ TagPieces</text>
<text text-anchor="start" x="266" y="-1402.5" font-family="Helvetica,sans-Serif" font-size="10.00">+ TagPiece</text>
<text text-anchor="start" x="266" y="-1391.5" font-family="Helvetica,sans-Serif" font-size="10.00">+ TagDescription</text>
<text text-anchor="start" x="266" y="-1380.5" font-family="Helvetica,sans-Serif" font-size="10.00">+ TagImage</text>
<text text-anchor="start" x="266" y="-1369.5" font-family="Helvetica,sans-Serif" font-size="10.00">+ TagNotes</text>
<text text-anchor="start" x="266" y="-1358.5" font-family="Helvetica,sans-Serif" font-size="10.00">+ TagMeasurements</text>
<text text-anchor="start" x="266" y="-1347.5" font-family="Helvetica,sans-Serif" font-size="10.00">+ TagVariables</text>
<text text-anchor="start" x="266" y="-1336.5" font-family="Helvetica,sans-Serif" font-size="10.00">and 142 more...</text>
<text text-anchor="start" x="266" y="-1325.5" font-family="Helvetica,sans-Serif" font-size="10.00"># activeDraftBlock</text>
<text text-anchor="start" x="266" y="-1314.5" font-family="Helvetica,sans-Serif" font-size="10.00"># m_DefaultLineColor</text>
<text text-anchor="start" x="266" y="-1303.5" font-family="Helvetica,sans-Serif" font-size="10.00"># m_DefaultLineWeight</text>
<text text-anchor="start" x="266" y="-1292.5" font-family="Helvetica,sans-Serif" font-size="10.00"># m_DefaultLineType</text>
<text text-anchor="start" x="266" y="-1281.5" font-family="Helvetica,sans-Serif" font-size="10.00"># defaultBasePoint</text>
<text text-anchor="start" x="266" y="-1270.5" font-family="Helvetica,sans-Serif" font-size="10.00"># lastSavedExportFormat</text>
<text text-anchor="start" x="266" y="-1259.5" font-family="Helvetica,sans-Serif" font-size="10.00"># cursor</text>
<text text-anchor="start" x="266" y="-1248.5" font-family="Helvetica,sans-Serif" font-size="10.00"># patternPieces</text>
<text text-anchor="start" x="266" y="-1237.5" font-family="Helvetica,sans-Serif" font-size="10.00"># modified</text>
<text text-anchor="start" x="266" y="-1226.5" font-family="Helvetica,sans-Serif" font-size="10.00"># patternLabelWasChanged</text>
<polyline fill="none" stroke="black" points="258,-1219.5 420,-1219.5 "/>
<text text-anchor="start" x="266" y="-1207.5" font-family="Helvetica,sans-Serif" font-size="10.00">+ VAbstractPattern()</text>
<text text-anchor="start" x="266" y="-1196.5" font-family="Helvetica,sans-Serif" font-size="10.00">+ ~VAbstractPattern()</text>
<text text-anchor="start" x="266" y="-1185.5" font-family="Helvetica,sans-Serif" font-size="10.00">+ ListMeasurements()</text>
<text text-anchor="start" x="266" y="-1174.5" font-family="Helvetica,sans-Serif" font-size="10.00">+ ListExpressions()</text>
<text text-anchor="start" x="266" y="-1163.5" font-family="Helvetica,sans-Serif" font-size="10.00">+ listVariableExpressions()</text>
<text text-anchor="start" x="266" y="-1152.5" font-family="Helvetica,sans-Serif" font-size="10.00">+ CreateEmptyFile()</text>
<text text-anchor="start" x="266" y="-1141.5" font-family="Helvetica,sans-Serif" font-size="10.00">+ changeActiveDraftBlock()</text>
<text text-anchor="start" x="266" y="-1130.5" font-family="Helvetica,sans-Serif" font-size="10.00">+ getActiveDraftBlockName()</text>
<text text-anchor="start" x="266" y="-1119.5" font-family="Helvetica,sans-Serif" font-size="10.00">+ draftBlockNameExists()</text>
<text text-anchor="start" x="266" y="-1108.5" font-family="Helvetica,sans-Serif" font-size="10.00">+ draftBlockCount()</text>
<text text-anchor="start" x="266" y="-1097.5" font-family="Helvetica,sans-Serif" font-size="10.00">and 96 more...</text>
<text text-anchor="start" x="266" y="-1086.5" font-family="Helvetica,sans-Serif" font-size="10.00">+ getTool()</text>
<text text-anchor="start" x="266" y="-1075.5" font-family="Helvetica,sans-Serif" font-size="10.00">+ AddTool()</text>
<text text-anchor="start" x="266" y="-1064.5" font-family="Helvetica,sans-Serif" font-size="10.00">+ RemoveTool()</text>
<text text-anchor="start" x="266" y="-1053.5" font-family="Helvetica,sans-Serif" font-size="10.00">+ ParsePieceNodes()</text>
<text text-anchor="start" x="266" y="-1042.5" font-family="Helvetica,sans-Serif" font-size="10.00">+ ParsePieceCSARecords()</text>
<text text-anchor="start" x="266" y="-1031.5" font-family="Helvetica,sans-Serif" font-size="10.00">+ ParsePieceInternalPaths()</text>
<text text-anchor="start" x="266" y="-1020.5" font-family="Helvetica,sans-Serif" font-size="10.00">+ ParsePieceAnchors()</text>
<text text-anchor="start" x="266" y="-1009.5" font-family="Helvetica,sans-Serif" font-size="10.00">+ LiteParseTree()</text>
<text text-anchor="start" x="266" y="-998.5" font-family="Helvetica,sans-Serif" font-size="10.00">+ haveLiteChange()</text>
<text text-anchor="start" x="266" y="-987.5" font-family="Helvetica,sans-Serif" font-size="10.00">+ NeedFullParsing()</text>
<text text-anchor="start" x="266" y="-976.5" font-family="Helvetica,sans-Serif" font-size="10.00">+ ClearScene()</text>
<text text-anchor="start" x="266" y="-965.5" font-family="Helvetica,sans-Serif" font-size="10.00">+ updatePieceList()</text>
<text text-anchor="start" x="266" y="-954.5" font-family="Helvetica,sans-Serif" font-size="10.00">+ selectedPiece()</text>
<text text-anchor="start" x="266" y="-943.5" font-family="Helvetica,sans-Serif" font-size="10.00"># setActiveDraftBlock()</text>
<text text-anchor="start" x="266" y="-932.5" font-family="Helvetica,sans-Serif" font-size="10.00"># CheckTagExists()</text>
<text text-anchor="start" x="266" y="-921.5" font-family="Helvetica,sans-Serif" font-size="10.00"># InsertTag()</text>
<text text-anchor="start" x="266" y="-910.5" font-family="Helvetica,sans-Serif" font-size="10.00"># SetChildTag()</text>
<text text-anchor="start" x="266" y="-899.5" font-family="Helvetica,sans-Serif" font-size="10.00"># getActiveDraftBlockIndex()</text>
<text text-anchor="start" x="266" y="-888.5" font-family="Helvetica,sans-Serif" font-size="10.00"># getActiveDraftElement()</text>
<text text-anchor="start" x="266" y="-877.5" font-family="Helvetica,sans-Serif" font-size="10.00"># hasGroupItem()</text>
<text text-anchor="start" x="266" y="-866.5" font-family="Helvetica,sans-Serif" font-size="10.00"># ToolExists()</text>
<text text-anchor="start" x="266" y="-855.5" font-family="Helvetica,sans-Serif" font-size="10.00"># ParsePathNodes()</text>
<text text-anchor="start" x="266" y="-844.5" font-family="Helvetica,sans-Serif" font-size="10.00"># ParseSANode()</text>
<text text-anchor="start" x="266" y="-833.5" font-family="Helvetica,sans-Serif" font-size="10.00">&#45; listVariables()</text>
<text text-anchor="start" x="266" y="-822.5" font-family="Helvetica,sans-Serif" font-size="10.00">&#45; ListPointExpressions()</text>
<text text-anchor="start" x="266" y="-811.5" font-family="Helvetica,sans-Serif" font-size="10.00">&#45; ListArcExpressions()</text>
<text text-anchor="start" x="266" y="-800.5" font-family="Helvetica,sans-Serif" font-size="10.00">&#45; ListElArcExpressions()</text>
<text text-anchor="start" x="266" y="-789.5" font-family="Helvetica,sans-Serif" font-size="10.00">&#45; ListSplineExpressions()</text>
<text text-anchor="start" x="266" y="-778.5" font-family="Helvetica,sans-Serif" font-size="10.00">&#45; ListPathPointExpressions()</text>
<text text-anchor="start" x="266" y="-767.5" font-family="Helvetica,sans-Serif" font-size="10.00">&#45; ListOperationExpressions()</text>
<text text-anchor="start" x="266" y="-756.5" font-family="Helvetica,sans-Serif" font-size="10.00">&#45; ListNodesExpressions()</text>
<text text-anchor="start" x="266" y="-745.5" font-family="Helvetica,sans-Serif" font-size="10.00">&#45; ListPathExpressions()</text>
<text text-anchor="start" x="266" y="-734.5" font-family="Helvetica,sans-Serif" font-size="10.00">&#45; ListGrainlineExpressions()</text>
<text text-anchor="start" x="266" y="-723.5" font-family="Helvetica,sans-Serif" font-size="10.00">&#45; ListPieceExpressions()</text>
<text text-anchor="start" x="266" y="-712.5" font-family="Helvetica,sans-Serif" font-size="10.00">&#45; IsVariable()</text>
<text text-anchor="start" x="266" y="-701.5" font-family="Helvetica,sans-Serif" font-size="10.00">&#45; IsPostfixOperator()</text>
<text text-anchor="start" x="266" y="-690.5" font-family="Helvetica,sans-Serif" font-size="10.00">&#45; IsFunction()</text>
<text text-anchor="start" x="266" y="-679.5" font-family="Helvetica,sans-Serif" font-size="10.00">&#45; ParseItemElement()</text>
</a>
</g>
</g>
<!-- Node3&#45;&gt;Node5 -->
<g id="edge5" class="edge">
<title>Node3&#45;&gt;Node5</title>
<path fill="none" stroke="midnightblue" d="M21.94,-1718.84C16.03,-1667.55 14.23,-1576.27 65,-1525 98.62,-1491.05 133.95,-1537.18 171,-1507 207.19,-1477.52 235.61,-1439.2 257.91,-1397.59"/>
<polygon fill="none" stroke="midnightblue" points="18.48,-1719.36 23.21,-1728.85 25.42,-1718.49 18.48,-1719.36"/>
</g>
<!-- Node4 -->
<g id="node4" class="node">
<title>Node4</title>
<g id="a_node4"><a xlink:title=" ">
<polygon fill="white" stroke="#bfbfbf" points="438,-1046.5 438,-1103.5 538,-1103.5 538,-1046.5 438,-1046.5"/>
<text text-anchor="middle" x="488" y="-1091.5" font-family="Helvetica,sans-Serif" font-size="10.00">QUndoCommand</text>
<polyline fill="none" stroke="#bfbfbf" points="438,-1084.5 538,-1084.5 "/>
<text text-anchor="middle" x="488" y="-1072.5" font-family="Helvetica,sans-Serif" font-size="10.00"> </text>
<polyline fill="none" stroke="#bfbfbf" points="438,-1065.5 538,-1065.5 "/>
<text text-anchor="middle" x="488" y="-1053.5" font-family="Helvetica,sans-Serif" font-size="10.00"> </text>
</a>
</g>
</g>
<!-- Node4&#45;&gt;Node2 -->
<g id="edge3" class="edge">
<title>Node4&#45;&gt;Node2</title>
<path fill="none" stroke="midnightblue" d="M484.79,-1036.02C478.2,-964.16 460.99,-803.7 429,-672 415.18,-615.1 394.15,-553.06 375.89,-503.64"/>
<polygon fill="none" stroke="midnightblue" points="481.34,-1036.72 485.72,-1046.37 488.31,-1036.09 481.34,-1036.72"/>
</g>
<!-- Node5&#45;&gt;Node2 -->
<g id="edge4" class="edge">
<title>Node5&#45;&gt;Node2</title>
<path fill="none" stroke="#404040" d="M339,-672.43C339,-614.89 339,-560.26 339,-515.9"/>
<polygon fill="none" stroke="#404040" points="339,-515.67 335,-509.67 339,-503.67 343,-509.67 339,-515.67"/>
<text text-anchor="middle" x="353.5" y="-646" font-family="Helvetica,sans-Serif" font-size="10.00"> #doc</text>
</g>
<!-- Node6 -->
<g id="node6" class="node">
<title>Node6</title>
<g id="a_node6"><a xlink:href="../../d6/deb/classVDomDocument.html" target="_top" xlink:title="The VDomDocument class represents a Seamly2D document (.val file).">
<polygon fill="white" stroke="black" points="74.5,-1525.5 74.5,-1989.5 231.5,-1989.5 231.5,-1525.5 74.5,-1525.5"/>
<text text-anchor="middle" x="153" y="-1977.5" font-family="Helvetica,sans-Serif" font-size="10.00">VDomDocument</text>
<polyline fill="none" stroke="black" points="74.5,-1970.5 231.5,-1970.5 "/>
<text text-anchor="start" x="82.5" y="-1958.5" font-family="Helvetica,sans-Serif" font-size="10.00">+ AttrId</text>
<text text-anchor="start" x="82.5" y="-1947.5" font-family="Helvetica,sans-Serif" font-size="10.00">+ AttrText</text>
<text text-anchor="start" x="82.5" y="-1936.5" font-family="Helvetica,sans-Serif" font-size="10.00">+ AttrBold</text>
<text text-anchor="start" x="82.5" y="-1925.5" font-family="Helvetica,sans-Serif" font-size="10.00">+ AttrItalic</text>
<text text-anchor="start" x="82.5" y="-1914.5" font-family="Helvetica,sans-Serif" font-size="10.00">+ AttrAlignment</text>
<text text-anchor="start" x="82.5" y="-1903.5" font-family="Helvetica,sans-Serif" font-size="10.00">+ AttrFSIncrement</text>
<text text-anchor="start" x="82.5" y="-1892.5" font-family="Helvetica,sans-Serif" font-size="10.00">+ TagVersion</text>
<text text-anchor="start" x="82.5" y="-1881.5" font-family="Helvetica,sans-Serif" font-size="10.00">+ TagUnit</text>
<text text-anchor="start" x="82.5" y="-1870.5" font-family="Helvetica,sans-Serif" font-size="10.00">+ TagLine</text>
<polyline fill="none" stroke="black" points="74.5,-1863.5 231.5,-1863.5 "/>
<text text-anchor="start" x="82.5" y="-1851.5" font-family="Helvetica,sans-Serif" font-size="10.00">+ VDomDocument()</text>
<text text-anchor="start" x="82.5" y="-1840.5" font-family="Helvetica,sans-Serif" font-size="10.00">+ ~VDomDocument()</text>
<text text-anchor="start" x="82.5" y="-1829.5" font-family="Helvetica,sans-Serif" font-size="10.00">+ elementById()</text>
<text text-anchor="start" x="82.5" y="-1818.5" font-family="Helvetica,sans-Serif" font-size="10.00">+ SetAttribute()</text>
<text text-anchor="start" x="82.5" y="-1807.5" font-family="Helvetica,sans-Serif" font-size="10.00">+ measurementUnits()</text>
<text text-anchor="start" x="82.5" y="-1796.5" font-family="Helvetica,sans-Serif" font-size="10.00">+ setXMLContent()</text>
<text text-anchor="start" x="82.5" y="-1785.5" font-family="Helvetica,sans-Serif" font-size="10.00">+ SaveDocument()</text>
<text text-anchor="start" x="82.5" y="-1774.5" font-family="Helvetica,sans-Serif" font-size="10.00">+ Major()</text>
<text text-anchor="start" x="82.5" y="-1763.5" font-family="Helvetica,sans-Serif" font-size="10.00">+ Minor()</text>
<text text-anchor="start" x="82.5" y="-1752.5" font-family="Helvetica,sans-Serif" font-size="10.00">+ Patch()</text>
<text text-anchor="start" x="82.5" y="-1741.5" font-family="Helvetica,sans-Serif" font-size="10.00">and 8 more...</text>
<text text-anchor="start" x="82.5" y="-1730.5" font-family="Helvetica,sans-Serif" font-size="10.00">+ GetParametrUInt()</text>
<text text-anchor="start" x="82.5" y="-1719.5" font-family="Helvetica,sans-Serif" font-size="10.00">+ getParameterBool()</text>
<text text-anchor="start" x="82.5" y="-1708.5" font-family="Helvetica,sans-Serif" font-size="10.00">+ GetParametrUsage()</text>
<text text-anchor="start" x="82.5" y="-1697.5" font-family="Helvetica,sans-Serif" font-size="10.00">+ SetParametrUsage()</text>
<text text-anchor="start" x="82.5" y="-1686.5" font-family="Helvetica,sans-Serif" font-size="10.00">+ GetParametrString()</text>
<text text-anchor="start" x="82.5" y="-1675.5" font-family="Helvetica,sans-Serif" font-size="10.00">+ GetParametrEmptyString()</text>
<text text-anchor="start" x="82.5" y="-1664.5" font-family="Helvetica,sans-Serif" font-size="10.00">+ GetParametrDouble()</text>
<text text-anchor="start" x="82.5" y="-1653.5" font-family="Helvetica,sans-Serif" font-size="10.00">+ getParameterId()</text>
<text text-anchor="start" x="82.5" y="-1642.5" font-family="Helvetica,sans-Serif" font-size="10.00">+ ValidateXML()</text>
<text text-anchor="start" x="82.5" y="-1631.5" font-family="Helvetica,sans-Serif" font-size="10.00">+ UnitsHelpString()</text>
<text text-anchor="start" x="82.5" y="-1620.5" font-family="Helvetica,sans-Serif" font-size="10.00">+ RemoveAllChildren()</text>
<text text-anchor="start" x="82.5" y="-1609.5" font-family="Helvetica,sans-Serif" font-size="10.00">+ SafeCopy()</text>
<text text-anchor="start" x="82.5" y="-1598.5" font-family="Helvetica,sans-Serif" font-size="10.00"># setTagText()</text>
<text text-anchor="start" x="82.5" y="-1587.5" font-family="Helvetica,sans-Serif" font-size="10.00"># setTagText()</text>
<text text-anchor="start" x="82.5" y="-1576.5" font-family="Helvetica,sans-Serif" font-size="10.00"># UniqueTagText()</text>
<text text-anchor="start" x="82.5" y="-1565.5" font-family="Helvetica,sans-Serif" font-size="10.00"># TestUniqueId()</text>
<text text-anchor="start" x="82.5" y="-1554.5" font-family="Helvetica,sans-Serif" font-size="10.00"># CollectId()</text>
<text text-anchor="start" x="82.5" y="-1543.5" font-family="Helvetica,sans-Serif" font-size="10.00">&#45; find()</text>
<text text-anchor="start" x="82.5" y="-1532.5" font-family="Helvetica,sans-Serif" font-size="10.00">&#45; SaveCanonicalXML()</text>
</a>
</g>
</g>
<!-- Node6&#45;&gt;Node5 -->
<g id="edge6" class="edge">
<title>Node6&#45;&gt;Node5</title>
<path fill="none" stroke="midnightblue" d="M218.92,-1515.33C231.56,-1469.07 244.94,-1420.13 258,-1372.36"/>
<polygon fill="none" stroke="midnightblue" points="215.49,-1514.6 216.23,-1525.16 222.24,-1516.44 215.49,-1514.6"/>
</g>
<!-- Node7 -->
<g id="node7" class="node">
<title>Node7</title>
<g id="a_node7"><a xlink:title=" ">
<polygon fill="white" stroke="#bfbfbf" points="24,-2037.5 24,-2094.5 122,-2094.5 122,-2037.5 24,-2037.5"/>
<text text-anchor="middle" x="73" y="-2082.5" font-family="Helvetica,sans-Serif" font-size="10.00">QDomDocument</text>
<polyline fill="none" stroke="#bfbfbf" points="24,-2075.5 122,-2075.5 "/>
<text text-anchor="middle" x="73" y="-2063.5" font-family="Helvetica,sans-Serif" font-size="10.00"> </text>
<polyline fill="none" stroke="#bfbfbf" points="24,-2056.5 122,-2056.5 "/>
<text text-anchor="middle" x="73" y="-2044.5" font-family="Helvetica,sans-Serif" font-size="10.00"> </text>
</a>
</g>
</g>
<!-- Node7&#45;&gt;Node6 -->
<g id="edge7" class="edge">
<title>Node7&#45;&gt;Node6</title>
<path fill="none" stroke="midnightblue" d="M82.82,-2027.38C85.67,-2016.45 89.01,-2003.65 92.66,-1989.67"/>
<polygon fill="none" stroke="midnightblue" points="79.38,-2026.7 80.24,-2037.26 86.15,-2028.47 79.38,-2026.7"/>
</g>
<!-- Node8 -->
<g id="node8" class="node">
<title>Node8</title>
<g id="a_node8"><a xlink:href="../../da/da1/classQHash.html" target="_top" xlink:title=" ">
<polygon fill="white" stroke="black" points="140.5,-2037.5 140.5,-2094.5 325.5,-2094.5 325.5,-2037.5 140.5,-2037.5"/>
<text text-anchor="middle" x="233" y="-2082.5" font-family="Helvetica,sans-Serif" font-size="10.00">QHash&lt; quint32, QDomElement &gt;</text>
<polyline fill="none" stroke="black" points="140.5,-2075.5 325.5,-2075.5 "/>
<text text-anchor="middle" x="233" y="-2063.5" font-family="Helvetica,sans-Serif" font-size="10.00"> </text>
<polyline fill="none" stroke="black" points="140.5,-2056.5 325.5,-2056.5 "/>
<text text-anchor="middle" x="233" y="-2044.5" font-family="Helvetica,sans-Serif" font-size="10.00"> </text>
</a>
</g>
</g>
<!-- Node8&#45;&gt;Node6 -->
<g id="edge8" class="edge">
<title>Node8&#45;&gt;Node6</title>
<path fill="none" stroke="#404040" d="M225.76,-2037.26C223.16,-2027.3 219.98,-2015.12 216.42,-2001.46"/>
<polygon fill="none" stroke="#404040" points="216.37,-2001.28 210.98,-1996.48 213.34,-1989.67 218.72,-1994.46 216.37,-2001.28"/>
<text text-anchor="middle" x="234.5" y="-2011" font-family="Helvetica,sans-Serif" font-size="10.00"> &#45;map</text>
</g>
<!-- Node9 -->
<g id="node9" class="node">
<title>Node9</title>
<g id="a_node9"><a xlink:href="../../da/da1/classQHash.html" target="_top" xlink:title=" ">
<polygon fill="white" stroke="black" points="250,-1729 250,-1786 422,-1786 422,-1729 250,-1729"/>
<text text-anchor="middle" x="336" y="-1774" font-family="Helvetica,sans-Serif" font-size="10.00">QHash&lt; quint32, VDataTool * &gt;</text>
<polyline fill="none" stroke="black" points="250,-1767 422,-1767 "/>
<text text-anchor="middle" x="336" y="-1755" font-family="Helvetica,sans-Serif" font-size="10.00"> </text>
<polyline fill="none" stroke="black" points="250,-1748 422,-1748 "/>
<text text-anchor="middle" x="336" y="-1736" font-family="Helvetica,sans-Serif" font-size="10.00"> </text>
</a>
</g>
</g>
<!-- Node9&#45;&gt;Node5 -->
<g id="edge9" class="edge">
<title>Node9&#45;&gt;Node5</title>
<path fill="none" stroke="#404040" d="M336.12,-1728.98C336.32,-1684.61 336.73,-1591.86 337.18,-1489.84"/>
<polygon fill="none" stroke="#404040" points="337.18,-1489.68 333.2,-1483.66 337.23,-1477.68 341.2,-1483.7 337.18,-1489.68"/>
<text text-anchor="middle" x="356" y="-1499" font-family="Helvetica,sans-Serif" font-size="10.00"> #tools</text>
</g>
<!-- Node10 -->
<g id="node10" class="node">
<title>Node10</title>
<g id="a_node10"><a xlink:href="../../d0/d4c/classQMap.html" target="_top" xlink:title=" ">
<polygon fill="white" stroke="black" points="440,-1729 440,-1786 606,-1786 606,-1729 440,-1729"/>
<text text-anchor="middle" x="523" y="-1774" font-family="Helvetica,sans-Serif" font-size="10.00">QMap&lt; qint32, ImageItem * &gt;</text>
<polyline fill="none" stroke="black" points="440,-1767 606,-1767 "/>
<text text-anchor="middle" x="523" y="-1755" font-family="Helvetica,sans-Serif" font-size="10.00"> </text>
<polyline fill="none" stroke="black" points="440,-1748 606,-1748 "/>
<text text-anchor="middle" x="523" y="-1736" font-family="Helvetica,sans-Serif" font-size="10.00"> </text>
</a>
</g>
</g>
<!-- Node10&#45;&gt;Node5 -->
<g id="edge10" class="edge">
<title>Node10&#45;&gt;Node5</title>
<path fill="none" stroke="#404040" d="M512.54,-1728.74C494.05,-1678.98 455.06,-1571.12 429,-1478 427.05,-1471.02 425.11,-1463.97 423.18,-1456.85"/>
<polygon fill="none" stroke="#404040" points="423.18,-1456.82 417.76,-1452.06 420.07,-1445.23 425.49,-1449.99 423.18,-1456.82"/>
<text text-anchor="middle" x="475.5" y="-1499" font-family="Helvetica,sans-Serif" font-size="10.00"> #m_imageMap</text>
</g>
<!-- Node11 -->
<g id="node11" class="node">
<title>Node11</title>
<g id="a_node11"><a xlink:href="../../d5/dc2/classQVector.html" target="_top" xlink:title=" ">
<polygon fill="white" stroke="black" points="624,-1729 624,-1786 800,-1786 800,-1729 624,-1729"/>
<text text-anchor="middle" x="712" y="-1774" font-family="Helvetica,sans-Serif" font-size="10.00">QVector&lt; VLabelTemplateLine &gt;</text>
<polyline fill="none" stroke="black" points="624,-1767 800,-1767 "/>
<text text-anchor="middle" x="712" y="-1755" font-family="Helvetica,sans-Serif" font-size="10.00"> </text>
<polyline fill="none" stroke="black" points="624,-1748 800,-1748 "/>
<text text-anchor="middle" x="712" y="-1736" font-family="Helvetica,sans-Serif" font-size="10.00"> </text>
</a>
</g>
</g>
<!-- Node11&#45;&gt;Node5 -->
<g id="edge11" class="edge">
<title>Node11&#45;&gt;Node5</title>
<path fill="none" stroke="#404040" d="M708.18,-1728.95C700.01,-1680.58 676.33,-1580.3 615,-1525 581.9,-1495.15 562.24,-1506.83 519,-1496 479.43,-1486.09 458.17,-1506.51 429,-1478 428.81,-1477.81 428.62,-1477.62 428.43,-1477.44"/>
<polygon fill="none" stroke="#404040" points="428.4,-1477.41 421.36,-1475.86 420.07,-1468.77 427.12,-1470.31 428.4,-1477.41"/>
<text text-anchor="middle" x="634.5" y="-1499" font-family="Helvetica,sans-Serif" font-size="10.00"> #patternLabelLines</text>
</g>
<!-- Node12 -->
<g id="node12" class="node">
<title>Node12</title>
<g id="a_node12"><a xlink:href="../../d5/dc2/classQVector.html" target="_top" xlink:title=" ">
<polygon fill="white" stroke="black" points="818.5,-1729 818.5,-1786 953.5,-1786 953.5,-1729 818.5,-1729"/>
<text text-anchor="middle" x="886" y="-1774" font-family="Helvetica,sans-Serif" font-size="10.00">QVector&lt; VDataTool * &gt;</text>
<polyline fill="none" stroke="black" points="818.5,-1767 953.5,-1767 "/>
<text text-anchor="middle" x="886" y="-1755" font-family="Helvetica,sans-Serif" font-size="10.00"> </text>
<polyline fill="none" stroke="black" points="818.5,-1748 953.5,-1748 "/>
<text text-anchor="middle" x="886" y="-1736" font-family="Helvetica,sans-Serif" font-size="10.00"> </text>
</a>
</g>
</g>
<!-- Node12&#45;&gt;Node5 -->
<g id="edge12" class="edge">
<title>Node12&#45;&gt;Node5</title>
<path fill="none" stroke="#404040" d="M885.08,-1728.74C881.92,-1680.04 868.14,-1579.27 809,-1525 768.25,-1487.61 742.66,-1504.39 688,-1496 661.77,-1491.97 483.13,-1496.03 430.89,-1475.91"/>
<polygon fill="none" stroke="#404040" points="430.82,-1475.87 423.64,-1476.48 420.31,-1470.09 427.49,-1469.48 430.82,-1475.87"/>
<text text-anchor="middle" x="826" y="-1499" font-family="Helvetica,sans-Serif" font-size="10.00"> #toolsOnRemove</text>
</g>
<!-- Node13 -->
<g id="node13" class="node">
<title>Node13</title>
<g id="a_node13"><a xlink:href="../../d5/dc2/classQVector.html" target="_top" xlink:title=" ">
<polygon fill="white" stroke="black" points="971.5,-1729 971.5,-1786 1108.5,-1786 1108.5,-1729 971.5,-1729"/>
<text text-anchor="middle" x="1040" y="-1774" font-family="Helvetica,sans-Serif" font-size="10.00">QVector&lt; VToolRecord &gt;</text>
<polyline fill="none" stroke="black" points="971.5,-1767 1108.5,-1767 "/>
<text text-anchor="middle" x="1040" y="-1755" font-family="Helvetica,sans-Serif" font-size="10.00"> </text>
<polyline fill="none" stroke="black" points="971.5,-1748 1108.5,-1748 "/>
<text text-anchor="middle" x="1040" y="-1736" font-family="Helvetica,sans-Serif" font-size="10.00"> </text>
</a>
</g>
</g>
<!-- Node13&#45;&gt;Node5 -->
<g id="edge13" class="edge">
<title>Node13&#45;&gt;Node5</title>
<path fill="none" stroke="#404040" d="M1038.59,-1728.85C1034.64,-1680.77 1019.68,-1581.53 963,-1525 933.84,-1495.92 915.52,-1503.35 875,-1496 828.96,-1487.65 506.76,-1507.32 431.06,-1476.35"/>
<polygon fill="none" stroke="#404040" points="430.65,-1476.12 423.46,-1476.65 420.2,-1470.21 427.39,-1469.68 430.65,-1476.12"/>
<text text-anchor="middle" x="960" y="-1499" font-family="Helvetica,sans-Serif" font-size="10.00"> #history</text>
</g>
<!-- Node14 -->
<g id="node14" class="node">
<title>Node14</title>
<g id="a_node14"><a xlink:href="../../df/de1/classVPiecePath.html" target="_top" xlink:title=" ">
<polygon fill="white" stroke="black" points="431.5,-287 431.5,-531 616.5,-531 616.5,-287 431.5,-287"/>
<text text-anchor="middle" x="524" y="-519" font-family="Helvetica,sans-Serif" font-size="10.00">VPiecePath</text>
<polyline fill="none" stroke="black" points="431.5,-512 616.5,-512 "/>
<text text-anchor="start" x="439.5" y="-500" font-family="Helvetica,sans-Serif" font-size="10.00">&#45; d</text>
<polyline fill="none" stroke="black" points="431.5,-493 616.5,-493 "/>
<text text-anchor="start" x="439.5" y="-481" font-family="Helvetica,sans-Serif" font-size="10.00">+ VPiecePath()</text>
<text text-anchor="start" x="439.5" y="-470" font-family="Helvetica,sans-Serif" font-size="10.00">+ VPiecePath()</text>
<text text-anchor="start" x="439.5" y="-459" font-family="Helvetica,sans-Serif" font-size="10.00">+ VPiecePath()</text>
<text text-anchor="start" x="439.5" y="-448" font-family="Helvetica,sans-Serif" font-size="10.00">+ ~VPiecePath()</text>
<text text-anchor="start" x="439.5" y="-437" font-family="Helvetica,sans-Serif" font-size="10.00">+ operator=()</text>
<text text-anchor="start" x="439.5" y="-426" font-family="Helvetica,sans-Serif" font-size="10.00">+ Swap()</text>
<text text-anchor="start" x="439.5" y="-415" font-family="Helvetica,sans-Serif" font-size="10.00">+ Append()</text>
<text text-anchor="start" x="439.5" y="-404" font-family="Helvetica,sans-Serif" font-size="10.00">+ Clear()</text>
<text text-anchor="start" x="439.5" y="-393" font-family="Helvetica,sans-Serif" font-size="10.00">+ CountNodes()</text>
<text text-anchor="start" x="439.5" y="-382" font-family="Helvetica,sans-Serif" font-size="10.00">+ operator[]()</text>
<text text-anchor="start" x="439.5" y="-371" font-family="Helvetica,sans-Serif" font-size="10.00">and 27 more...</text>
<text text-anchor="start" x="439.5" y="-360" font-family="Helvetica,sans-Serif" font-size="10.00">+ indexOfNode()</text>
<text text-anchor="start" x="439.5" y="-349" font-family="Helvetica,sans-Serif" font-size="10.00">+ FindInLoopNotExcludedUp()</text>
<text text-anchor="start" x="439.5" y="-338" font-family="Helvetica,sans-Serif" font-size="10.00">+ FindInLoopNotExcludedDown()</text>
<text text-anchor="start" x="439.5" y="-327" font-family="Helvetica,sans-Serif" font-size="10.00">+ StartSegment()</text>
<text text-anchor="start" x="439.5" y="-316" font-family="Helvetica,sans-Serif" font-size="10.00">+ EndSegment()</text>
<text text-anchor="start" x="439.5" y="-305" font-family="Helvetica,sans-Serif" font-size="10.00">+ PreparePointEkv()</text>
<text text-anchor="start" x="439.5" y="-294" font-family="Helvetica,sans-Serif" font-size="10.00">+ CurveSeamAllowanceSegment()</text>
</a>
</g>
</g>
<!-- Node14&#45;&gt;Node1 -->
<g id="edge14" class="edge">
<title>Node14&#45;&gt;Node1</title>
<path fill="none" stroke="#404040" d="M524,-286.87C524,-240.35 524,-188.5 524,-147.01"/>
<polygon fill="none" stroke="#404040" points="524,-146.76 520,-140.76 524,-134.76 528,-140.76 524,-146.76"/>
<text text-anchor="middle" x="556" y="-167" font-family="Helvetica,sans-Serif" font-size="10.00"> &#45;m_newPath</text>
<text text-anchor="middle" x="556" y="-156" font-family="Helvetica,sans-Serif" font-size="10.00">&#45;m_oldPath</text>
</g>
<!-- Node15 -->
<g id="node15" class="node">
<title>Node15</title>
<g id="a_node15"><a xlink:href="../../d2/d83/classVContainer.html" target="_top" xlink:title="Manages a collection of geometric objects, pieces, paths, and variables.">
<polygon fill="white" stroke="black" points="634,-193.5 634,-624.5 802,-624.5 802,-193.5 634,-193.5"/>
<text text-anchor="middle" x="718" y="-612.5" font-family="Helvetica,sans-Serif" font-size="10.00">VContainer</text>
<polyline fill="none" stroke="black" points="634,-605.5 802,-605.5 "/>
<text text-anchor="start" x="642" y="-593.5" font-family="Helvetica,sans-Serif" font-size="10.00">&#45; d</text>
<text text-anchor="start" x="642" y="-582.5" font-family="Helvetica,sans-Serif" font-size="10.00">&#45; _id</text>
<text text-anchor="start" x="642" y="-571.5" font-family="Helvetica,sans-Serif" font-size="10.00">&#45; _size</text>
<text text-anchor="start" x="642" y="-560.5" font-family="Helvetica,sans-Serif" font-size="10.00">&#45; _height</text>
<text text-anchor="start" x="642" y="-549.5" font-family="Helvetica,sans-Serif" font-size="10.00">&#45; uniqueNames</text>
<polyline fill="none" stroke="black" points="634,-542.5 802,-542.5 "/>
<text text-anchor="start" x="642" y="-530.5" font-family="Helvetica,sans-Serif" font-size="10.00">+ VContainer()</text>
<text text-anchor="start" x="642" y="-519.5" font-family="Helvetica,sans-Serif" font-size="10.00">+ VContainer()</text>
<text text-anchor="start" x="642" y="-508.5" font-family="Helvetica,sans-Serif" font-size="10.00">+ ~VContainer()</text>
<text text-anchor="start" x="642" y="-497.5" font-family="Helvetica,sans-Serif" font-size="10.00">+ operator=()</text>
<text text-anchor="start" x="642" y="-486.5" font-family="Helvetica,sans-Serif" font-size="10.00">+ Swap()</text>
<text text-anchor="start" x="642" y="-475.5" font-family="Helvetica,sans-Serif" font-size="10.00">+ GeometricObject()</text>
<text text-anchor="start" x="642" y="-464.5" font-family="Helvetica,sans-Serif" font-size="10.00">+ GetGObject()</text>
<text text-anchor="start" x="642" y="-453.5" font-family="Helvetica,sans-Serif" font-size="10.00">+ GetPiece()</text>
<text text-anchor="start" x="642" y="-442.5" font-family="Helvetica,sans-Serif" font-size="10.00">+ GetPiecePath()</text>
<text text-anchor="start" x="642" y="-431.5" font-family="Helvetica,sans-Serif" font-size="10.00">+ getVariable()</text>
<text text-anchor="start" x="642" y="-420.5" font-family="Helvetica,sans-Serif" font-size="10.00">and 34 more...</text>
<text text-anchor="start" x="642" y="-409.5" font-family="Helvetica,sans-Serif" font-size="10.00">+ GetFakeGObject()</text>
<text text-anchor="start" x="642" y="-398.5" font-family="Helvetica,sans-Serif" font-size="10.00">+ getId()</text>
<text text-anchor="start" x="642" y="-387.5" font-family="Helvetica,sans-Serif" font-size="10.00">+ getNextId()</text>
<text text-anchor="start" x="642" y="-376.5" font-family="Helvetica,sans-Serif" font-size="10.00">+ UpdateId()</text>
<text text-anchor="start" x="642" y="-365.5" font-family="Helvetica,sans-Serif" font-size="10.00">+ ClearUniqueNames()</text>
<text text-anchor="start" x="642" y="-354.5" font-family="Helvetica,sans-Serif" font-size="10.00">+ clearUniqueVariableNames()</text>
<text text-anchor="start" x="642" y="-343.5" font-family="Helvetica,sans-Serif" font-size="10.00">+ setSize()</text>
<text text-anchor="start" x="642" y="-332.5" font-family="Helvetica,sans-Serif" font-size="10.00">+ setHeight()</text>
<text text-anchor="start" x="642" y="-321.5" font-family="Helvetica,sans-Serif" font-size="10.00">+ size()</text>
<text text-anchor="start" x="642" y="-310.5" font-family="Helvetica,sans-Serif" font-size="10.00">+ rsize()</text>
<text text-anchor="start" x="642" y="-299.5" font-family="Helvetica,sans-Serif" font-size="10.00">+ height()</text>
<text text-anchor="start" x="642" y="-288.5" font-family="Helvetica,sans-Serif" font-size="10.00">+ rheight()</text>
<text text-anchor="start" x="642" y="-277.5" font-family="Helvetica,sans-Serif" font-size="10.00">+ IsUnique()</text>
<text text-anchor="start" x="642" y="-266.5" font-family="Helvetica,sans-Serif" font-size="10.00">+ AllUniqueNames()</text>
<text text-anchor="start" x="642" y="-255.5" font-family="Helvetica,sans-Serif" font-size="10.00">&#45; AddCurve()</text>
<text text-anchor="start" x="642" y="-244.5" font-family="Helvetica,sans-Serif" font-size="10.00">&#45; qHash()</text>
<text text-anchor="start" x="642" y="-233.5" font-family="Helvetica,sans-Serif" font-size="10.00">&#45; GetObject()</text>
<text text-anchor="start" x="642" y="-222.5" font-family="Helvetica,sans-Serif" font-size="10.00">&#45; UpdateObject()</text>
<text text-anchor="start" x="642" y="-211.5" font-family="Helvetica,sans-Serif" font-size="10.00">&#45; DataVar()</text>
<text text-anchor="start" x="642" y="-200.5" font-family="Helvetica,sans-Serif" font-size="10.00">&#45; AddObject()</text>
</a>
</g>
</g>
<!-- Node15&#45;&gt;Node1 -->
<g id="edge15" class="edge">
<title>Node15&#45;&gt;Node1</title>
<path fill="none" stroke="#404040" d="M633.87,-208.18C630.96,-203.03 628,-197.96 625,-193 614.96,-176.44 602.93,-159.69 590.71,-144.07"/>
<polygon fill="none" stroke="#404040" points="590.57,-143.9 583.71,-141.69 583.1,-134.51 589.97,-136.71 590.57,-143.9"/>
<text text-anchor="middle" x="635" y="-161.5" font-family="Helvetica,sans-Serif" font-size="10.00"> &#45;m_data</text>
</g>
</g>
</svg>
        <g id="navigator" transform="translate(0 0)" fill="#404254">
                <rect fill="#f2f5e9" fill-opacity="0.5" stroke="#606060" stroke-width=".5" x="0" y="0" width="60" height="60"/>
                <use id="zoomplus" xlink:href="#zoomPlus" x="17" y="9" onmousedown="handleZoom(evt,'in')"/>
                <use id="zoomminus" xlink:href="#zoomMin" x="42" y="9" onmousedown="handleZoom(evt,'out')"/>
                <use id="reset" xlink:href="#resetDef" x="30" y="36" onmousedown="handleReset()"/>
                <g id="arrowUp" xlink:href="#dirArrow" transform="translate(30 24)" onmousedown="handlePan(0,-1)">
                  <use xlink:href="#rim" fill="#404040">
                        <set attributeName="fill" to="#808080" begin="arrowUp.mouseover" end="arrowUp.mouseout"/>
                  </use>
                  <path fill="none" stroke="white" stroke-width="1.5" d="M0,-3.0v7 M-2.5,-0.5L0,-3.0L2.5,-0.5"/>
                </g>
                <g id="arrowRight" xlink:href="#dirArrow" transform="rotate(90) translate(36 -43)" onmousedown="handlePan(1,0)">
                  <use xlink:href="#rim" fill="#404040">
                        <set attributeName="fill" to="#808080" begin="arrowRight.mouseover" end="arrowRight.mouseout"/>
                  </use>
                  <path fill="none" stroke="white" stroke-width="1.5" d="M0,-3.0v7 M-2.5,-0.5L0,-3.0L2.5,-0.5"/>
                </g>
                <g id="arrowDown" xlink:href="#dirArrow" transform="rotate(180) translate(-30 -48)" onmousedown="handlePan(0,1)">
                  <use xlink:href="#rim" fill="#404040">
                        <set attributeName="fill" to="#808080" begin="arrowDown.mouseover" end="arrowDown.mouseout"/>
                  </use>
                  <path fill="none" stroke="white" stroke-width="1.5" d="M0,-3.0v7 M-2.5,-0.5L0,-3.0L2.5,-0.5"/>
                </g>
                <g id="arrowLeft" xlink:href="#dirArrow" transform="rotate(270) translate(-36 17)" onmousedown="handlePan(-1,0)">
                  <use xlink:href="#rim" fill="#404040">
                        <set attributeName="fill" to="#808080" begin="arrowLeft.mouseover" end="arrowLeft.mouseout"/>
                  </use>
                  <path fill="none" stroke="white" stroke-width="1.5" d="M0,-3.0v7 M-2.5,-0.5L0,-3.0L2.5,-0.5"/>
                </g>
        </g>
        <svg viewBox="0 0 15 15" width="100%" height="30px" preserveAspectRatio="xMaxYMin meet">
         <g id="arrow_out" transform="scale(0.3 0.3)">
          <a xlink:href="classSavePiecePathOptions__coll__graph_org.svg" target="_base">
           <rect id="button" ry="5" rx="5" y="6" x="6" height="38" width="38"
                fill="#f2f5e9" fill-opacity="0.5" stroke="#606060" stroke-width="1.0"/>
           <path id="arrow"
             d="M 11.500037,31.436501 C 11.940474,20.09759 22.043105,11.32322 32.158766,21.979434 L 37.068811,17.246167 C 37.068811,17.246167 37.088388,32 37.088388,32 L 22.160133,31.978069 C 22.160133,31.978069 26.997745,27.140456 26.997745,27.140456 C 18.528582,18.264221 13.291696,25.230495 11.500037,31.436501 z"
             style="fill:#404040;"/>
          </a>
         </g>
        </svg>
</svg>
