<?xml version="1.0" encoding="UTF-8" standalone="no"?>
<!DOCTYPE svg PUBLIC "-//W3C//DTD SVG 1.1//EN"
 "http://www.w3.org/Graphics/SVG/1.1/DTD/svg11.dtd">
<!-- Generated by graphviz version 2.43.0 (0)
 -->
<!-- Title: VPiecePathData Pages: 1 -->
<svg width="129pt" height="248pt"
 viewBox="0.00 0.00 129.00 248.00" xmlns="http://www.w3.org/2000/svg" xmlns:xlink="http://www.w3.org/1999/xlink">
<g id="graph0" class="graph" transform="scale(1 1) rotate(0) translate(4 244)">
<title>VPiecePathData</title>
<polygon fill="white" stroke="transparent" points="-4,4 -4,-244 125,-244 125,4 -4,4"/>
<!-- Node1 -->
<g id="node1" class="node">
<title>Node1</title>
<g id="a_node1"><a xlink:title=" ">
<polygon fill="#bfbfbf" stroke="black" points="0,-0.5 0,-145.5 121,-145.5 121,-0.5 0,-0.5"/>
<text text-anchor="middle" x="60.5" y="-133.5" font-family="Helvetica,sans-Serif" font-size="10.00">VPiecePathData</text>
<polyline fill="none" stroke="black" points="0,-126.5 121,-126.5 "/>
<text text-anchor="start" x="8" y="-114.5" font-family="Helvetica,sans-Serif" font-size="10.00">+ m_nodes</text>
<text text-anchor="start" x="8" y="-103.5" font-family="Helvetica,sans-Serif" font-size="10.00">+ m_type</text>
<text text-anchor="start" x="8" y="-92.5" font-family="Helvetica,sans-Serif" font-size="10.00">+ m_name</text>
<text text-anchor="start" x="8" y="-81.5" font-family="Helvetica,sans-Serif" font-size="10.00">+ m_penType</text>
<text text-anchor="start" x="8" y="-70.5" font-family="Helvetica,sans-Serif" font-size="10.00">+ m_cut</text>
<polyline fill="none" stroke="black" points="0,-63.5 121,-63.5 "/>
<text text-anchor="start" x="8" y="-51.5" font-family="Helvetica,sans-Serif" font-size="10.00">+ VPiecePathData()</text>
<text text-anchor="start" x="8" y="-40.5" font-family="Helvetica,sans-Serif" font-size="10.00">+ VPiecePathData()</text>
<text text-anchor="start" x="8" y="-29.5" font-family="Helvetica,sans-Serif" font-size="10.00">+ VPiecePathData()</text>
<text text-anchor="start" x="8" y="-18.5" font-family="Helvetica,sans-Serif" font-size="10.00">+ ~VPiecePathData()</text>
<text text-anchor="start" x="8" y="-7.5" font-family="Helvetica,sans-Serif" font-size="10.00">&#45; operator=()</text>
</a>
</g>
</g>
<!-- Node2 -->
<g id="node2" class="node">
<title>Node2</title>
<g id="a_node2"><a xlink:title=" ">
<polygon fill="white" stroke="#bfbfbf" points="20,-182.5 20,-239.5 101,-239.5 101,-182.5 20,-182.5"/>
<text text-anchor="middle" x="60.5" y="-227.5" font-family="Helvetica,sans-Serif" font-size="10.00">QSharedData</text>
<polyline fill="none" stroke="#bfbfbf" points="20,-220.5 101,-220.5 "/>
<text text-anchor="middle" x="60.5" y="-208.5" font-family="Helvetica,sans-Serif" font-size="10.00"> </text>
<polyline fill="none" stroke="#bfbfbf" points="20,-201.5 101,-201.5 "/>
<text text-anchor="middle" x="60.5" y="-189.5" font-family="Helvetica,sans-Serif" font-size="10.00"> </text>
</a>
</g>
</g>
<!-- Node2&#45;&gt;Node1 -->
<g id="edge1" class="edge">
<title>Node2&#45;&gt;Node1</title>
<path fill="none" stroke="midnightblue" d="M60.5,-172.36C60.5,-164 60.5,-154.87 60.5,-145.66"/>
<polygon fill="none" stroke="midnightblue" points="57,-172.48 60.5,-182.48 64,-172.48 57,-172.48"/>
</g>
</g>
</svg>
