<?xml version="1.0" encoding="UTF-8" standalone="no"?>
<!DOCTYPE svg PUBLIC "-//W3C//DTD SVG 1.1//EN"
 "http://www.w3.org/Graphics/SVG/1.1/DTD/svg11.dtd">
<!-- Generated by graphviz version 2.43.0 (0)
 -->
<!-- Title: src/libs/ifc/xml/abstract_converter.cpp Pages: 1 -->
<svg width="2610pt" height="375pt"
 viewBox="0.00 0.00 2609.50 375.00" xmlns="http://www.w3.org/2000/svg" xmlns:xlink="http://www.w3.org/1999/xlink">
<g id="graph0" class="graph" transform="scale(1 1) rotate(0) translate(4 371)">
<title>src/libs/ifc/xml/abstract_converter.cpp</title>
<polygon fill="white" stroke="transparent" points="-4,4 -4,-371 2605.5,-371 2605.5,4 -4,4"/>
<!-- Node1 -->
<g id="node1" class="node">
<title>Node1</title>
<g id="a_node1"><a xlink:title=" ">
<polygon fill="#bfbfbf" stroke="black" points="1807.5,-336.5 1807.5,-366.5 1938.5,-366.5 1938.5,-336.5 1807.5,-336.5"/>
<text text-anchor="start" x="1815.5" y="-354.5" font-family="Helvetica,sans-Serif" font-size="10.00">src/libs/ifc/xml/abstract</text>
<text text-anchor="middle" x="1873" y="-343.5" font-family="Helvetica,sans-Serif" font-size="10.00">_converter.cpp</text>
</a>
</g>
</g>
<!-- Node2 -->
<g id="node2" class="node">
<title>Node2</title>
<g id="a_node2"><a xlink:href="../../d0/da1/abstract__converter_8h.html" target="_top" xlink:title=" ">
<polygon fill="white" stroke="black" points="778,-280.5 778,-299.5 894,-299.5 894,-280.5 778,-280.5"/>
<text text-anchor="middle" x="836" y="-287.5" font-family="Helvetica,sans-Serif" font-size="10.00">abstract_converter.h</text>
</a>
</g>
</g>
<!-- Node1&#45;&gt;Node2 -->
<g id="edge1" class="edge">
<title>Node1&#45;&gt;Node2</title>
<path fill="none" stroke="midnightblue" d="M1807.34,-346.73C1621.54,-336.07 1093.31,-305.76 904.3,-294.92"/>
<polygon fill="midnightblue" stroke="midnightblue" points="904.4,-291.42 894.22,-294.34 904,-298.41 904.4,-291.42"/>
</g>
<!-- Node8 -->
<g id="node8" class="node">
<title>Node8</title>
<g id="a_node8"><a xlink:href="../../d8/da5/vdomdocument_8h.html" target="_top" xlink:title=" ">
<polygon fill="white" stroke="black" points="1445,-224.5 1445,-243.5 1547,-243.5 1547,-224.5 1445,-224.5"/>
<text text-anchor="middle" x="1496" y="-231.5" font-family="Helvetica,sans-Serif" font-size="10.00">vdomdocument.h</text>
</a>
</g>
</g>
<!-- Node1&#45;&gt;Node8 -->
<g id="edge68" class="edge">
<title>Node1&#45;&gt;Node8</title>
<path fill="none" stroke="midnightblue" d="M1827.15,-336.45C1751.77,-313.36 1603.12,-267.82 1533.55,-246.51"/>
<polygon fill="midnightblue" stroke="midnightblue" points="1534.47,-243.13 1523.88,-243.54 1532.42,-249.82 1534.47,-243.13"/>
</g>
<!-- Node10 -->
<g id="node10" class="node">
<title>Node10</title>
<g id="a_node10"><a xlink:title=" ">
<polygon fill="white" stroke="#bfbfbf" points="1696,-168.5 1696,-187.5 1784,-187.5 1784,-168.5 1696,-168.5"/>
<text text-anchor="middle" x="1740" y="-175.5" font-family="Helvetica,sans-Serif" font-size="10.00">QDomElement</text>
</a>
</g>
</g>
<!-- Node1&#45;&gt;Node10 -->
<g id="edge25" class="edge">
<title>Node1&#45;&gt;Node10</title>
<path fill="none" stroke="midnightblue" d="M1839.58,-336.32C1822.86,-327.83 1803.38,-315.63 1790,-300 1763.73,-269.32 1749.84,-222.93 1743.8,-197.42"/>
<polygon fill="midnightblue" stroke="midnightblue" points="1747.2,-196.59 1741.62,-187.59 1740.37,-198.11 1747.2,-196.59"/>
</g>
<!-- Node11 -->
<g id="node11" class="node">
<title>Node11</title>
<g id="a_node11"><a xlink:title=" ">
<polygon fill="white" stroke="#bfbfbf" points="1802.5,-168.5 1802.5,-187.5 1875.5,-187.5 1875.5,-168.5 1802.5,-168.5"/>
<text text-anchor="middle" x="1839" y="-175.5" font-family="Helvetica,sans-Serif" font-size="10.00">QDomNode</text>
</a>
</g>
</g>
<!-- Node1&#45;&gt;Node11 -->
<g id="edge26" class="edge">
<title>Node1&#45;&gt;Node11</title>
<path fill="none" stroke="midnightblue" d="M1840.85,-336.34C1826.17,-328.03 1810.25,-316 1802,-300 1786.51,-269.98 1790.61,-255.8 1802,-224 1805.94,-213 1813.86,-202.77 1821.36,-194.85"/>
<polygon fill="midnightblue" stroke="midnightblue" points="1823.89,-197.27 1828.56,-187.76 1818.98,-192.28 1823.89,-197.27"/>
</g>
<!-- Node13 -->
<g id="node13" class="node">
<title>Node13</title>
<g id="a_node13"><a xlink:title=" ">
<polygon fill="white" stroke="#bfbfbf" points="1893.5,-168.5 1893.5,-187.5 1976.5,-187.5 1976.5,-168.5 1893.5,-168.5"/>
<text text-anchor="middle" x="1935" y="-175.5" font-family="Helvetica,sans-Serif" font-size="10.00">QLatin1String</text>
</a>
</g>
</g>
<!-- Node1&#45;&gt;Node13 -->
<g id="edge30" class="edge">
<title>Node1&#45;&gt;Node13</title>
<path fill="none" stroke="midnightblue" d="M1860.39,-336.19C1852.86,-326.66 1844.01,-313.45 1840,-300 1830.36,-267.63 1821.94,-252.54 1840,-224 1850.05,-208.13 1867.37,-197.74 1884.5,-191"/>
<polygon fill="midnightblue" stroke="midnightblue" points="1885.71,-194.28 1893.95,-187.62 1883.35,-187.69 1885.71,-194.28"/>
</g>
<!-- Node14 -->
<g id="node14" class="node">
<title>Node14</title>
<g id="a_node14"><a xlink:title=" ">
<polygon fill="white" stroke="#bfbfbf" points="1995,-168.5 1995,-187.5 2099,-187.5 2099,-168.5 1995,-168.5"/>
<text text-anchor="middle" x="2047" y="-175.5" font-family="Helvetica,sans-Serif" font-size="10.00">QStaticStringData</text>
</a>
</g>
</g>
<!-- Node1&#45;&gt;Node14 -->
<g id="edge34" class="edge">
<title>Node1&#45;&gt;Node14</title>
<path fill="none" stroke="midnightblue" d="M1868.62,-336.11C1861.79,-310.49 1851.9,-256.6 1878,-224 1885.49,-214.64 1948.04,-199.71 1994.88,-189.64"/>
<polygon fill="midnightblue" stroke="midnightblue" points="1995.86,-193.01 2004.91,-187.5 1994.4,-186.16 1995.86,-193.01"/>
</g>
<!-- Node15 -->
<g id="node15" class="node">
<title>Node15</title>
<g id="a_node15"><a xlink:title=" ">
<polygon fill="white" stroke="#bfbfbf" points="2117,-168.5 2117,-187.5 2193,-187.5 2193,-168.5 2117,-168.5"/>
<text text-anchor="middle" x="2155" y="-175.5" font-family="Helvetica,sans-Serif" font-size="10.00">QStringData</text>
</a>
</g>
</g>
<!-- Node1&#45;&gt;Node15 -->
<g id="edge35" class="edge">
<title>Node1&#45;&gt;Node15</title>
<path fill="none" stroke="midnightblue" d="M1873.41,-336.2C1874.99,-309.74 1882.35,-253.17 1916,-224 1979.23,-169.18 2019.7,-201.61 2106.79,-188.06"/>
<polygon fill="midnightblue" stroke="midnightblue" points="2107.52,-191.48 2116.78,-186.33 2106.33,-184.58 2107.52,-191.48"/>
</g>
<!-- Node16 -->
<g id="node16" class="node">
<title>Node16</title>
<g id="a_node16"><a xlink:title=" ">
<polygon fill="white" stroke="#bfbfbf" points="2211.5,-168.5 2211.5,-187.5 2300.5,-187.5 2300.5,-168.5 2211.5,-168.5"/>
<text text-anchor="middle" x="2256" y="-175.5" font-family="Helvetica,sans-Serif" font-size="10.00">QStringDataPtr</text>
</a>
</g>
</g>
<!-- Node1&#45;&gt;Node16 -->
<g id="edge36" class="edge">
<title>Node1&#45;&gt;Node16</title>
<path fill="none" stroke="midnightblue" d="M1884.78,-336.4C1898.66,-320.62 1923.11,-295.27 1949,-280 2030.43,-231.98 2137.65,-203.42 2201.45,-189.5"/>
<polygon fill="midnightblue" stroke="midnightblue" points="2202.26,-192.91 2211.3,-187.39 2200.79,-186.06 2202.26,-192.91"/>
</g>
<!-- Node22 -->
<g id="node22" class="node">
<title>Node22</title>
<g id="a_node22"><a xlink:title=" ">
<polygon fill="white" stroke="#bfbfbf" points="1958,-280.5 1958,-299.5 1996,-299.5 1996,-280.5 1958,-280.5"/>
<text text-anchor="middle" x="1977" y="-287.5" font-family="Helvetica,sans-Serif" font-size="10.00">QDir</text>
</a>
</g>
</g>
<!-- Node1&#45;&gt;Node22 -->
<g id="edge24" class="edge">
<title>Node1&#45;&gt;Node22</title>
<path fill="none" stroke="midnightblue" d="M1897.65,-336.4C1914.32,-326.86 1936.23,-314.32 1952.81,-304.84"/>
<polygon fill="midnightblue" stroke="midnightblue" points="1954.93,-307.66 1961.87,-299.66 1951.45,-301.59 1954.93,-307.66"/>
</g>
<!-- Node23 -->
<g id="node23" class="node">
<title>Node23</title>
<g id="a_node23"><a xlink:title=" ">
<polygon fill="white" stroke="#bfbfbf" points="2014,-280.5 2014,-299.5 2104,-299.5 2104,-280.5 2014,-280.5"/>
<text text-anchor="middle" x="2059" y="-287.5" font-family="Helvetica,sans-Serif" font-size="10.00">QDomNodeList</text>
</a>
</g>
</g>
<!-- Node1&#45;&gt;Node23 -->
<g id="edge27" class="edge">
<title>Node1&#45;&gt;Node23</title>
<path fill="none" stroke="midnightblue" d="M1917.08,-336.4C1949.22,-326.12 1992.26,-312.35 2022.48,-302.68"/>
<polygon fill="midnightblue" stroke="midnightblue" points="2023.75,-305.95 2032.21,-299.57 2021.62,-299.28 2023.75,-305.95"/>
</g>
<!-- Node24 -->
<g id="node24" class="node">
<title>Node24</title>
<g id="a_node24"><a xlink:title=" ">
<polygon fill="white" stroke="#bfbfbf" points="2122.5,-280.5 2122.5,-299.5 2163.5,-299.5 2163.5,-280.5 2122.5,-280.5"/>
<text text-anchor="middle" x="2143" y="-287.5" font-family="Helvetica,sans-Serif" font-size="10.00">QFile</text>
</a>
</g>
</g>
<!-- Node1&#45;&gt;Node24 -->
<g id="edge28" class="edge">
<title>Node1&#45;&gt;Node24</title>
<path fill="none" stroke="midnightblue" d="M1938.53,-338.26C1984.61,-329.29 2047.87,-316.27 2112.45,-299.96"/>
<polygon fill="midnightblue" stroke="midnightblue" points="2113.58,-303.29 2122.41,-297.43 2111.85,-296.5 2113.58,-303.29"/>
</g>
<!-- Node25 -->
<g id="node25" class="node">
<title>Node25</title>
<g id="a_node25"><a xlink:title=" ">
<polygon fill="white" stroke="#bfbfbf" points="2182,-280.5 2182,-299.5 2242,-299.5 2242,-280.5 2182,-280.5"/>
<text text-anchor="middle" x="2212" y="-287.5" font-family="Helvetica,sans-Serif" font-size="10.00">QFileInfo</text>
</a>
</g>
</g>
<!-- Node1&#45;&gt;Node25 -->
<g id="edge29" class="edge">
<title>Node1&#45;&gt;Node25</title>
<path fill="none" stroke="midnightblue" d="M1938.75,-340.59C1997.41,-331.49 2085.85,-317.12 2171.87,-300.13"/>
<polygon fill="midnightblue" stroke="midnightblue" points="2172.68,-303.54 2181.8,-298.16 2171.31,-296.67 2172.68,-303.54"/>
</g>
<!-- Node26 -->
<g id="node26" class="node">
<title>Node26</title>
<g id="a_node26"><a xlink:title=" ">
<polygon fill="white" stroke="#bfbfbf" points="2260.5,-280.5 2260.5,-299.5 2305.5,-299.5 2305.5,-280.5 2260.5,-280.5"/>
<text text-anchor="middle" x="2283" y="-287.5" font-family="Helvetica,sans-Serif" font-size="10.00">QMap</text>
</a>
</g>
</g>
<!-- Node1&#45;&gt;Node26 -->
<g id="edge31" class="edge">
<title>Node1&#45;&gt;Node26</title>
<path fill="none" stroke="midnightblue" d="M1938.69,-344.57C2012.32,-337.28 2135.34,-323.2 2250.34,-299.86"/>
<polygon fill="midnightblue" stroke="midnightblue" points="2251.28,-303.24 2260.37,-297.79 2249.87,-296.38 2251.28,-303.24"/>
</g>
<!-- Node27 -->
<g id="node27" class="node">
<title>Node27</title>
<g id="a_node27"><a xlink:title=" ">
<polygon fill="white" stroke="#bfbfbf" points="2323.5,-280.5 2323.5,-299.5 2438.5,-299.5 2438.5,-280.5 2323.5,-280.5"/>
<text text-anchor="middle" x="2381" y="-287.5" font-family="Helvetica,sans-Serif" font-size="10.00">QRegularExpression</text>
</a>
</g>
</g>
<!-- Node1&#45;&gt;Node27 -->
<g id="edge32" class="edge">
<title>Node1&#45;&gt;Node27</title>
<path fill="none" stroke="midnightblue" d="M1938.58,-343.46C2022.91,-334.3 2174.16,-317.54 2313.41,-300.18"/>
<polygon fill="midnightblue" stroke="midnightblue" points="2313.93,-303.64 2323.42,-298.93 2313.06,-296.7 2313.93,-303.64"/>
</g>
<!-- Node28 -->
<g id="node28" class="node">
<title>Node28</title>
<g id="a_node28"><a xlink:title=" ">
<polygon fill="white" stroke="#bfbfbf" points="2456.5,-280.5 2456.5,-299.5 2601.5,-299.5 2601.5,-280.5 2456.5,-280.5"/>
<text text-anchor="middle" x="2529" y="-287.5" font-family="Helvetica,sans-Serif" font-size="10.00">QRegularExpressionMatch</text>
</a>
</g>
</g>
<!-- Node1&#45;&gt;Node28 -->
<g id="edge33" class="edge">
<title>Node1&#45;&gt;Node28</title>
<path fill="none" stroke="midnightblue" d="M1938.58,-345.24C2043.51,-336.7 2255.89,-318.98 2445.97,-300.18"/>
<polygon fill="midnightblue" stroke="midnightblue" points="2446.55,-303.64 2456.15,-299.17 2445.85,-296.68 2446.55,-303.64"/>
</g>
<!-- Node29 -->
<g id="node29" class="node">
<title>Node29</title>
<g id="a_node29"><a xlink:title=" ">
<polygon fill="white" stroke="#bfbfbf" points="138,-56.5 138,-75.5 208,-75.5 208,-56.5 138,-56.5"/>
<text text-anchor="middle" x="173" y="-63.5" font-family="Helvetica,sans-Serif" font-size="10.00">QStringList</text>
</a>
</g>
</g>
<!-- Node1&#45;&gt;Node29 -->
<g id="edge37" class="edge">
<title>Node1&#45;&gt;Node29</title>
<path fill="none" stroke="midnightblue" d="M1807.15,-349.69C1567.97,-346.51 745.56,-333.36 485,-300 352.69,-283.06 192,-368.39 192,-235 192,-235 192,-235 192,-177 192,-144.49 183.84,-107.35 178.22,-85.61"/>
<polygon fill="midnightblue" stroke="midnightblue" points="181.54,-84.5 175.56,-75.75 174.78,-86.32 181.54,-84.5"/>
</g>
<!-- Node30 -->
<g id="node30" class="node">
<title>Node30</title>
<g id="a_node30"><a xlink:href="../../d1/d44/vexception_8h.html" target="_top" xlink:title=" ">
<polygon fill="white" stroke="black" points="403,-224.5 403,-243.5 543,-243.5 543,-224.5 403,-224.5"/>
<text text-anchor="middle" x="473" y="-231.5" font-family="Helvetica,sans-Serif" font-size="10.00">../exception/vexception.h</text>
</a>
</g>
</g>
<!-- Node1&#45;&gt;Node30 -->
<g id="edge38" class="edge">
<title>Node1&#45;&gt;Node30</title>
<path fill="none" stroke="midnightblue" d="M1807.33,-349.92C1542.09,-347.33 561.33,-335.39 506,-300 489.87,-289.68 481.28,-268.86 476.95,-253.55"/>
<polygon fill="midnightblue" stroke="midnightblue" points="480.29,-252.48 474.51,-243.61 473.5,-254.16 480.29,-252.48"/>
</g>
<!-- Node43 -->
<g id="node43" class="node">
<title>Node43</title>
<g id="a_node43"><a xlink:href="../../d0/d21/vexceptionwrongid_8h.html" target="_top" xlink:title=" ">
<polygon fill="white" stroke="black" points="515.5,-280.5 515.5,-299.5 694.5,-299.5 694.5,-280.5 515.5,-280.5"/>
<text text-anchor="middle" x="605" y="-287.5" font-family="Helvetica,sans-Serif" font-size="10.00">../exception/vexceptionwrongid.h</text>
</a>
</g>
</g>
<!-- Node1&#45;&gt;Node43 -->
<g id="edge62" class="edge">
<title>Node1&#45;&gt;Node43</title>
<path fill="none" stroke="midnightblue" d="M1807.35,-347.71C1636.34,-340.38 1163.03,-319.82 769,-300 748.32,-298.96 726.18,-297.79 705.06,-296.64"/>
<polygon fill="midnightblue" stroke="midnightblue" points="704.97,-293.13 694.79,-296.08 704.59,-300.12 704.97,-293.13"/>
</g>
<!-- Node3 -->
<g id="node3" class="node">
<title>Node3</title>
<g id="a_node3"><a xlink:title=" ">
<polygon fill="white" stroke="#bfbfbf" points="0,-56.5 0,-75.5 120,-75.5 120,-56.5 0,-56.5"/>
<text text-anchor="middle" x="60" y="-63.5" font-family="Helvetica,sans-Serif" font-size="10.00">qcompilerdetection.h</text>
</a>
</g>
</g>
<!-- Node2&#45;&gt;Node3 -->
<g id="edge2" class="edge">
<title>Node2&#45;&gt;Node3</title>
<path fill="none" stroke="midnightblue" d="M808.3,-280.36C743.18,-260.13 575.22,-208.31 434,-168 314.26,-133.82 172.1,-96.25 102.57,-78.07"/>
<polygon fill="midnightblue" stroke="midnightblue" points="103.42,-74.68 92.86,-75.53 101.65,-81.45 103.42,-74.68"/>
</g>
<!-- Node4 -->
<g id="node4" class="node">
<title>Node4</title>
<g id="a_node4"><a xlink:title=" ">
<polygon fill="white" stroke="#bfbfbf" points="751.5,-168.5 751.5,-187.5 852.5,-187.5 852.5,-168.5 751.5,-168.5"/>
<text text-anchor="middle" x="802" y="-175.5" font-family="Helvetica,sans-Serif" font-size="10.00">QCoreApplication</text>
</a>
</g>
</g>
<!-- Node2&#45;&gt;Node4 -->
<g id="edge3" class="edge">
<title>Node2&#45;&gt;Node4</title>
<path fill="none" stroke="midnightblue" d="M818.8,-280.39C805.75,-272.79 788.77,-260.39 781,-244 773.64,-228.48 781.33,-209.71 789.4,-196.34"/>
<polygon fill="midnightblue" stroke="midnightblue" points="792.53,-197.96 795.13,-187.68 786.69,-194.09 792.53,-197.96"/>
</g>
<!-- Node5 -->
<g id="node5" class="node">
<title>Node5</title>
<g id="a_node5"><a xlink:title=" ">
<polygon fill="white" stroke="#bfbfbf" points="757.5,-56.5 757.5,-75.5 810.5,-75.5 810.5,-56.5 757.5,-56.5"/>
<text text-anchor="middle" x="784" y="-63.5" font-family="Helvetica,sans-Serif" font-size="10.00">QString</text>
</a>
</g>
</g>
<!-- Node2&#45;&gt;Node5 -->
<g id="edge4" class="edge">
<title>Node2&#45;&gt;Node5</title>
<path fill="none" stroke="midnightblue" d="M821.13,-280.43C807.89,-272.28 788.57,-259.05 775,-244 755.65,-222.55 749.6,-215.87 742,-188 739.66,-179.42 739.68,-176.58 742,-168 746.83,-150.12 755.44,-148.91 763,-132 769.8,-116.77 775.47,-98.66 779.19,-85.43"/>
<polygon fill="midnightblue" stroke="midnightblue" points="782.61,-86.2 781.85,-75.63 775.86,-84.37 782.61,-86.2"/>
</g>
<!-- Node6 -->
<g id="node6" class="node">
<title>Node6</title>
<g id="a_node6"><a xlink:title=" ">
<polygon fill="white" stroke="#bfbfbf" points="789.5,-224.5 789.5,-243.5 882.5,-243.5 882.5,-224.5 789.5,-224.5"/>
<text text-anchor="middle" x="836" y="-231.5" font-family="Helvetica,sans-Serif" font-size="10.00">QTemporaryFile</text>
</a>
</g>
</g>
<!-- Node2&#45;&gt;Node6 -->
<g id="edge5" class="edge">
<title>Node2&#45;&gt;Node6</title>
<path fill="none" stroke="midnightblue" d="M836,-280.08C836,-273.01 836,-262.86 836,-253.99"/>
<polygon fill="midnightblue" stroke="midnightblue" points="839.5,-253.75 836,-243.75 832.5,-253.75 839.5,-253.75"/>
</g>
<!-- Node7 -->
<g id="node7" class="node">
<title>Node7</title>
<g id="a_node7"><a xlink:title=" ">
<polygon fill="white" stroke="#bfbfbf" points="829.5,-56.5 829.5,-75.5 888.5,-75.5 888.5,-56.5 829.5,-56.5"/>
<text text-anchor="middle" x="859" y="-63.5" font-family="Helvetica,sans-Serif" font-size="10.00">QtGlobal</text>
</a>
</g>
</g>
<!-- Node2&#45;&gt;Node7 -->
<g id="edge6" class="edge">
<title>Node2&#45;&gt;Node7</title>
<path fill="none" stroke="midnightblue" d="M853.2,-280.39C866.25,-272.79 883.23,-260.39 891,-244 916.69,-189.78 885.8,-117.25 868.78,-84.43"/>
<polygon fill="midnightblue" stroke="midnightblue" points="871.84,-82.74 864.02,-75.59 865.68,-86.05 871.84,-82.74"/>
</g>
<!-- Node2&#45;&gt;Node8 -->
<g id="edge7" class="edge">
<title>Node2&#45;&gt;Node8</title>
<path fill="none" stroke="midnightblue" d="M894.28,-284.23C1018.38,-274.08 1307.71,-250.41 1434.56,-240.03"/>
<polygon fill="midnightblue" stroke="midnightblue" points="1435.18,-243.49 1444.86,-239.18 1434.61,-236.51 1435.18,-243.49"/>
</g>
<!-- Node8&#45;&gt;Node4 -->
<g id="edge8" class="edge">
<title>Node8&#45;&gt;Node4</title>
<path fill="none" stroke="midnightblue" d="M1445,-229.31C1342.6,-221.86 1104.73,-204.33 905,-188 891.25,-186.88 876.48,-185.62 862.53,-184.4"/>
<polygon fill="midnightblue" stroke="midnightblue" points="862.81,-180.91 852.55,-183.53 862.2,-187.89 862.81,-180.91"/>
</g>
<!-- Node8&#45;&gt;Node5 -->
<g id="edge15" class="edge">
<title>Node8&#45;&gt;Node5</title>
<path fill="none" stroke="midnightblue" d="M1444.65,-232.37C1326.24,-230.36 1037.28,-222 947,-188 884.86,-164.6 825.9,-110.11 799.1,-82.96"/>
<polygon fill="midnightblue" stroke="midnightblue" points="801.6,-80.52 792.13,-75.78 796.58,-85.39 801.6,-80.52"/>
</g>
<!-- Node8&#45;&gt;Node7 -->
<g id="edge18" class="edge">
<title>Node8&#45;&gt;Node7</title>
<path fill="none" stroke="midnightblue" d="M1444.79,-233.37C1330.39,-233.45 1057.79,-229.15 977,-188 937.14,-167.7 942.66,-143.61 911,-112 900.44,-101.46 887.79,-90.48 877.62,-82.01"/>
<polygon fill="midnightblue" stroke="midnightblue" points="879.7,-79.19 869.75,-75.54 875.25,-84.6 879.7,-79.19"/>
</g>
<!-- Node9 -->
<g id="node9" class="node">
<title>Node9</title>
<g id="a_node9"><a xlink:title=" ">
<polygon fill="white" stroke="#bfbfbf" points="1242,-168.5 1242,-187.5 1340,-187.5 1340,-168.5 1242,-168.5"/>
<text text-anchor="middle" x="1291" y="-175.5" font-family="Helvetica,sans-Serif" font-size="10.00">QDomDocument</text>
</a>
</g>
</g>
<!-- Node8&#45;&gt;Node9 -->
<g id="edge9" class="edge">
<title>Node8&#45;&gt;Node9</title>
<path fill="none" stroke="midnightblue" d="M1463.52,-224.44C1428.28,-215.16 1371.9,-200.31 1333.24,-190.13"/>
<polygon fill="midnightblue" stroke="midnightblue" points="1333.89,-186.68 1323.33,-187.52 1332.11,-193.45 1333.89,-186.68"/>
</g>
<!-- Node8&#45;&gt;Node10 -->
<g id="edge10" class="edge">
<title>Node8&#45;&gt;Node10</title>
<path fill="none" stroke="midnightblue" d="M1534.66,-224.44C1577.14,-215.04 1645.43,-199.93 1691.47,-189.74"/>
<polygon fill="midnightblue" stroke="midnightblue" points="1692.51,-193.09 1701.52,-187.52 1691,-186.26 1692.51,-193.09"/>
</g>
<!-- Node8&#45;&gt;Node11 -->
<g id="edge11" class="edge">
<title>Node8&#45;&gt;Node11</title>
<path fill="none" stroke="midnightblue" d="M1547.08,-225.94C1604.26,-217.88 1699.91,-203.96 1792.29,-188.06"/>
<polygon fill="midnightblue" stroke="midnightblue" points="1793.11,-191.47 1802.37,-186.31 1791.92,-184.57 1793.11,-191.47"/>
</g>
<!-- Node12 -->
<g id="node12" class="node">
<title>Node12</title>
<g id="a_node12"><a xlink:title=" ">
<polygon fill="white" stroke="#bfbfbf" points="1358.5,-168.5 1358.5,-187.5 1407.5,-187.5 1407.5,-168.5 1358.5,-168.5"/>
<text text-anchor="middle" x="1383" y="-175.5" font-family="Helvetica,sans-Serif" font-size="10.00">QHash</text>
</a>
</g>
</g>
<!-- Node8&#45;&gt;Node12 -->
<g id="edge12" class="edge">
<title>Node8&#45;&gt;Node12</title>
<path fill="none" stroke="midnightblue" d="M1478.09,-224.44C1459.75,-215.68 1430.99,-201.94 1409.91,-191.86"/>
<polygon fill="midnightblue" stroke="midnightblue" points="1411.35,-188.67 1400.82,-187.52 1408.33,-194.99 1411.35,-188.67"/>
</g>
<!-- Node8&#45;&gt;Node13 -->
<g id="edge13" class="edge">
<title>Node8&#45;&gt;Node13</title>
<path fill="none" stroke="midnightblue" d="M1547.11,-228.12C1619.64,-220.97 1756.8,-206.61 1883.06,-188.21"/>
<polygon fill="midnightblue" stroke="midnightblue" points="1883.91,-191.63 1893.29,-186.71 1882.89,-184.7 1883.91,-191.63"/>
</g>
<!-- Node8&#45;&gt;Node14 -->
<g id="edge14" class="edge">
<title>Node8&#45;&gt;Node14</title>
<path fill="none" stroke="midnightblue" d="M1547.24,-229.23C1634.69,-222.58 1818.58,-207.72 1984.39,-188.13"/>
<polygon fill="midnightblue" stroke="midnightblue" points="1985.27,-191.55 1994.78,-186.9 1984.44,-184.6 1985.27,-191.55"/>
</g>
<!-- Node8&#45;&gt;Node15 -->
<g id="edge16" class="edge">
<title>Node8&#45;&gt;Node15</title>
<path fill="none" stroke="midnightblue" d="M1547.38,-231.23C1651.21,-227.23 1893.52,-215.67 2106.71,-188.02"/>
<polygon fill="midnightblue" stroke="midnightblue" points="2107.38,-191.46 2116.84,-186.69 2106.47,-184.52 2107.38,-191.46"/>
</g>
<!-- Node8&#45;&gt;Node16 -->
<g id="edge17" class="edge">
<title>Node8&#45;&gt;Node16</title>
<path fill="none" stroke="midnightblue" d="M1547.1,-231.52C1662.06,-227.81 1949.94,-216.38 2201.21,-187.96"/>
<polygon fill="midnightblue" stroke="midnightblue" points="2201.72,-191.43 2211.26,-186.82 2200.93,-184.47 2201.72,-191.43"/>
</g>
<!-- Node17 -->
<g id="node17" class="node">
<title>Node17</title>
<g id="a_node17"><a xlink:title=" ">
<polygon fill="white" stroke="#bfbfbf" points="1426,-168.5 1426,-187.5 1482,-187.5 1482,-168.5 1426,-168.5"/>
<text text-anchor="middle" x="1454" y="-175.5" font-family="Helvetica,sans-Serif" font-size="10.00">QLocale</text>
</a>
</g>
</g>
<!-- Node8&#45;&gt;Node17 -->
<g id="edge19" class="edge">
<title>Node8&#45;&gt;Node17</title>
<path fill="none" stroke="midnightblue" d="M1489.06,-224.08C1483.07,-216.38 1474.25,-205.03 1466.95,-195.65"/>
<polygon fill="midnightblue" stroke="midnightblue" points="1469.71,-193.5 1460.81,-187.75 1464.18,-197.79 1469.71,-193.5"/>
</g>
<!-- Node18 -->
<g id="node18" class="node">
<title>Node18</title>
<g id="a_node18"><a xlink:title=" ">
<polygon fill="white" stroke="#bfbfbf" points="1500.5,-168.5 1500.5,-187.5 1577.5,-187.5 1577.5,-168.5 1500.5,-168.5"/>
<text text-anchor="middle" x="1539" y="-175.5" font-family="Helvetica,sans-Serif" font-size="10.00">../ifc/ifcdef.h</text>
</a>
</g>
</g>
<!-- Node8&#45;&gt;Node18 -->
<g id="edge20" class="edge">
<title>Node8&#45;&gt;Node18</title>
<path fill="none" stroke="midnightblue" d="M1503.1,-224.08C1509.24,-216.38 1518.27,-205.03 1525.74,-195.65"/>
<polygon fill="midnightblue" stroke="midnightblue" points="1528.54,-197.75 1532.03,-187.75 1523.06,-193.39 1528.54,-197.75"/>
</g>
<!-- Node19 -->
<g id="node19" class="node">
<title>Node19</title>
<g id="a_node19"><a xlink:title=" ">
<polygon fill="white" stroke="#bfbfbf" points="1596,-168.5 1596,-187.5 1678,-187.5 1678,-168.5 1596,-168.5"/>
<text text-anchor="middle" x="1637" y="-175.5" font-family="Helvetica,sans-Serif" font-size="10.00">../vmisc/def.h</text>
</a>
</g>
</g>
<!-- Node8&#45;&gt;Node19 -->
<g id="edge21" class="edge">
<title>Node8&#45;&gt;Node19</title>
<path fill="none" stroke="midnightblue" d="M1518.34,-224.44C1541.75,-215.48 1578.74,-201.31 1605.19,-191.18"/>
<polygon fill="midnightblue" stroke="midnightblue" points="1606.68,-194.36 1614.76,-187.52 1604.17,-187.82 1606.68,-194.36"/>
</g>
<!-- Node20 -->
<g id="node20" class="node">
<title>Node20</title>
<g id="a_node20"><a xlink:title=" ">
<polygon fill="white" stroke="#bfbfbf" points="985.5,-168.5 985.5,-187.5 1102.5,-187.5 1102.5,-168.5 985.5,-168.5"/>
<text text-anchor="middle" x="1044" y="-175.5" font-family="Helvetica,sans-Serif" font-size="10.00">../vmisc/diagnostic.h</text>
</a>
</g>
</g>
<!-- Node8&#45;&gt;Node20 -->
<g id="edge22" class="edge">
<title>Node8&#45;&gt;Node20</title>
<path fill="none" stroke="midnightblue" d="M1444.73,-227.24C1373.01,-219.12 1238.4,-203.7 1112.78,-188.08"/>
<polygon fill="midnightblue" stroke="midnightblue" points="1112.95,-184.58 1102.6,-186.81 1112.09,-191.52 1112.95,-184.58"/>
</g>
<!-- Node21 -->
<g id="node21" class="node">
<title>Node21</title>
<g id="a_node21"><a xlink:title=" ">
<polygon fill="white" stroke="#bfbfbf" points="1120.5,-168.5 1120.5,-187.5 1223.5,-187.5 1223.5,-168.5 1120.5,-168.5"/>
<text text-anchor="middle" x="1172" y="-175.5" font-family="Helvetica,sans-Serif" font-size="10.00">../vmisc/logging.h</text>
</a>
</g>
</g>
<!-- Node8&#45;&gt;Node21 -->
<g id="edge23" class="edge">
<title>Node8&#45;&gt;Node21</title>
<path fill="none" stroke="midnightblue" d="M1444.66,-224.44C1387.19,-214.87 1294.13,-199.36 1233,-189.17"/>
<polygon fill="midnightblue" stroke="midnightblue" points="1233.54,-185.71 1223.1,-187.52 1232.39,-192.61 1233.54,-185.71"/>
</g>
<!-- Node30&#45;&gt;Node3 -->
<g id="edge39" class="edge">
<title>Node30&#45;&gt;Node3</title>
<path fill="none" stroke="midnightblue" d="M446.62,-224.38C420.42,-215.67 379.17,-201.61 344,-188 249.11,-151.28 138.77,-102.48 88.09,-79.71"/>
<polygon fill="midnightblue" stroke="midnightblue" points="89.32,-76.43 78.76,-75.51 86.45,-82.81 89.32,-76.43"/>
</g>
<!-- Node30&#45;&gt;Node4 -->
<g id="edge40" class="edge">
<title>Node30&#45;&gt;Node4</title>
<path fill="none" stroke="midnightblue" d="M525.13,-224.44C583.92,-214.79 679.37,-199.13 741.42,-188.94"/>
<polygon fill="midnightblue" stroke="midnightblue" points="742.16,-192.37 751.46,-187.29 741.03,-185.46 742.16,-192.37"/>
</g>
<!-- Node30&#45;&gt;Node5 -->
<g id="edge42" class="edge">
<title>Node30&#45;&gt;Node5</title>
<path fill="none" stroke="midnightblue" d="M475.33,-224.2C481.85,-201.42 502.59,-140.33 544,-112 617.39,-61.8 655.31,-92.88 747.34,-75.88"/>
<polygon fill="midnightblue" stroke="midnightblue" points="748.19,-79.28 757.31,-73.89 746.82,-72.42 748.19,-79.28"/>
</g>
<!-- Node31 -->
<g id="node31" class="node">
<title>Node31</title>
<g id="a_node31"><a xlink:title=" ">
<polygon fill="white" stroke="#bfbfbf" points="353,-168.5 353,-187.5 425,-187.5 425,-168.5 353,-168.5"/>
<text text-anchor="middle" x="389" y="-175.5" font-family="Helvetica,sans-Serif" font-size="10.00">QException</text>
</a>
</g>
</g>
<!-- Node30&#45;&gt;Node31 -->
<g id="edge41" class="edge">
<title>Node30&#45;&gt;Node31</title>
<path fill="none" stroke="midnightblue" d="M459.5,-224.32C446.4,-215.9 426.29,-202.97 410.89,-193.07"/>
<polygon fill="midnightblue" stroke="midnightblue" points="412.77,-190.12 402.46,-187.65 408.98,-196.01 412.77,-190.12"/>
</g>
<!-- Node32 -->
<g id="node32" class="node">
<title>Node32</title>
<g id="a_node32"><a xlink:href="../../d3/da5/ifcdef_8h.html" target="_top" xlink:title=" ">
<polygon fill="white" stroke="black" points="519,-168.5 519,-187.5 581,-187.5 581,-168.5 519,-168.5"/>
<text text-anchor="middle" x="550" y="-175.5" font-family="Helvetica,sans-Serif" font-size="10.00">../ifcdef.h</text>
</a>
</g>
</g>
<!-- Node30&#45;&gt;Node32 -->
<g id="edge43" class="edge">
<title>Node30&#45;&gt;Node32</title>
<path fill="none" stroke="midnightblue" d="M485.37,-224.32C497.16,-216.06 515.13,-203.45 529.14,-193.63"/>
<polygon fill="midnightblue" stroke="midnightblue" points="531.48,-196.26 537.66,-187.65 527.46,-190.53 531.48,-196.26"/>
</g>
<!-- Node32&#45;&gt;Node5 -->
<g id="edge44" class="edge">
<title>Node32&#45;&gt;Node5</title>
<path fill="none" stroke="midnightblue" d="M547.99,-168.11C545.41,-154.21 542.83,-127.34 557,-112 613.5,-50.85 660.13,-91.31 747.33,-75.84"/>
<polygon fill="midnightblue" stroke="midnightblue" points="748.18,-79.24 757.3,-73.86 746.81,-72.38 748.18,-79.24"/>
</g>
<!-- Node32&#45;&gt;Node7 -->
<g id="edge46" class="edge">
<title>Node32&#45;&gt;Node7</title>
<path fill="none" stroke="midnightblue" d="M557.65,-168.21C570.61,-153.96 598.34,-125.98 628,-112 706.14,-75.17 734.4,-93.48 819,-76 819.1,-75.98 819.21,-75.96 819.31,-75.94"/>
<polygon fill="midnightblue" stroke="midnightblue" points="820.27,-79.31 829.32,-73.8 818.81,-72.46 820.27,-79.31"/>
</g>
<!-- Node32&#45;&gt;Node29 -->
<g id="edge45" class="edge">
<title>Node32&#45;&gt;Node29</title>
<path fill="none" stroke="midnightblue" d="M518.68,-170.71C483.44,-163.21 424.76,-149.48 376,-132 356.16,-124.89 352.76,-119.32 333,-112 295.03,-97.94 250.62,-85.77 218.23,-77.65"/>
<polygon fill="midnightblue" stroke="midnightblue" points="218.71,-74.16 208.16,-75.15 217.03,-80.95 218.71,-74.16"/>
</g>
<!-- Node33 -->
<g id="node33" class="node">
<title>Node33</title>
<g id="a_node33"><a xlink:href="../../d4/da4/def_8h.html" target="_top" xlink:title=" ">
<polygon fill="white" stroke="black" points="385,-112.5 385,-131.5 467,-131.5 467,-112.5 385,-112.5"/>
<text text-anchor="middle" x="426" y="-119.5" font-family="Helvetica,sans-Serif" font-size="10.00">../vmisc/def.h</text>
</a>
</g>
</g>
<!-- Node32&#45;&gt;Node33 -->
<g id="edge47" class="edge">
<title>Node32&#45;&gt;Node33</title>
<path fill="none" stroke="midnightblue" d="M530.35,-168.44C510.04,-159.6 478.1,-145.69 454.9,-135.59"/>
<polygon fill="midnightblue" stroke="midnightblue" points="456.12,-132.3 445.56,-131.52 453.33,-138.72 456.12,-132.3"/>
</g>
<!-- Node42 -->
<g id="node42" class="node">
<title>Node42</title>
<g id="a_node42"><a xlink:href="../../d6/dcd/diagnostic_8h.html" target="_top" xlink:title=" ">
<polygon fill="white" stroke="black" points="637.5,-112.5 637.5,-131.5 754.5,-131.5 754.5,-112.5 637.5,-112.5"/>
<text text-anchor="middle" x="696" y="-119.5" font-family="Helvetica,sans-Serif" font-size="10.00">../vmisc/diagnostic.h</text>
</a>
</g>
</g>
<!-- Node32&#45;&gt;Node42 -->
<g id="edge60" class="edge">
<title>Node32&#45;&gt;Node42</title>
<path fill="none" stroke="midnightblue" d="M573.13,-168.44C597.48,-159.44 636.01,-145.19 663.42,-135.05"/>
<polygon fill="midnightblue" stroke="midnightblue" points="664.81,-138.27 672.97,-131.52 662.38,-131.7 664.81,-138.27"/>
</g>
<!-- Node33&#45;&gt;Node3 -->
<g id="edge48" class="edge">
<title>Node33&#45;&gt;Node3</title>
<path fill="none" stroke="midnightblue" d="M384.73,-114.91C322.32,-105.7 203.27,-88.14 127.95,-77.03"/>
<polygon fill="midnightblue" stroke="midnightblue" points="128.03,-73.5 117.62,-75.5 127,-80.42 128.03,-73.5"/>
</g>
<!-- Node33&#45;&gt;Node5 -->
<g id="edge51" class="edge">
<title>Node33&#45;&gt;Node5</title>
<path fill="none" stroke="midnightblue" d="M467.13,-114.14C471.8,-113.4 476.5,-112.67 481,-112 596.31,-94.8 628.71,-98.35 747.49,-75.9"/>
<polygon fill="midnightblue" stroke="midnightblue" points="748.17,-79.33 757.34,-74.02 746.86,-72.46 748.17,-79.33"/>
</g>
<!-- Node33&#45;&gt;Node7 -->
<g id="edge54" class="edge">
<title>Node33&#45;&gt;Node7</title>
<path fill="none" stroke="midnightblue" d="M467.22,-117.75C539.02,-111.75 691.53,-97.57 819,-76 819.11,-75.98 819.21,-75.96 819.32,-75.95"/>
<polygon fill="midnightblue" stroke="midnightblue" points="820.19,-79.34 829.36,-74.04 818.89,-72.47 820.19,-79.34"/>
</g>
<!-- Node33&#45;&gt;Node29 -->
<g id="edge52" class="edge">
<title>Node33&#45;&gt;Node29</title>
<path fill="none" stroke="midnightblue" d="M385.91,-112.44C340.22,-102.69 265.71,-86.79 218.05,-76.62"/>
<polygon fill="midnightblue" stroke="midnightblue" points="218.52,-73.14 208.01,-74.47 217.06,-79.98 218.52,-73.14"/>
</g>
<!-- Node34 -->
<g id="node34" class="node">
<title>Node34</title>
<g id="a_node34"><a xlink:title=" ">
<polygon fill="white" stroke="#bfbfbf" points="327.5,-56.5 327.5,-75.5 400.5,-75.5 400.5,-56.5 327.5,-56.5"/>
<text text-anchor="middle" x="364" y="-63.5" font-family="Helvetica,sans-Serif" font-size="10.00">QFileDialog</text>
</a>
</g>
</g>
<!-- Node33&#45;&gt;Node34 -->
<g id="edge49" class="edge">
<title>Node33&#45;&gt;Node34</title>
<path fill="none" stroke="midnightblue" d="M416.04,-112.32C406.87,-104.34 393.06,-92.31 381.97,-82.65"/>
<polygon fill="midnightblue" stroke="midnightblue" points="383.98,-79.76 374.14,-75.83 379.38,-85.04 383.98,-79.76"/>
</g>
<!-- Node35 -->
<g id="node35" class="node">
<title>Node35</title>
<g id="a_node35"><a xlink:title=" ">
<polygon fill="white" stroke="#bfbfbf" points="419,-56.5 419,-75.5 469,-75.5 469,-56.5 419,-56.5"/>
<text text-anchor="middle" x="444" y="-63.5" font-family="Helvetica,sans-Serif" font-size="10.00">QLineF</text>
</a>
</g>
</g>
<!-- Node33&#45;&gt;Node35 -->
<g id="edge50" class="edge">
<title>Node33&#45;&gt;Node35</title>
<path fill="none" stroke="midnightblue" d="M428.97,-112.08C431.38,-104.85 434.86,-94.41 437.87,-85.4"/>
<polygon fill="midnightblue" stroke="midnightblue" points="441.24,-86.34 441.08,-75.75 434.6,-84.13 441.24,-86.34"/>
</g>
<!-- Node36 -->
<g id="node36" class="node">
<title>Node36</title>
<g id="a_node36"><a xlink:title=" ">
<polygon fill="white" stroke="#bfbfbf" points="487.5,-56.5 487.5,-75.5 516.5,-75.5 516.5,-56.5 487.5,-56.5"/>
<text text-anchor="middle" x="502" y="-63.5" font-family="Helvetica,sans-Serif" font-size="10.00">Qt</text>
</a>
</g>
</g>
<!-- Node33&#45;&gt;Node36 -->
<g id="edge53" class="edge">
<title>Node33&#45;&gt;Node36</title>
<path fill="none" stroke="midnightblue" d="M438.21,-112.32C449.78,-104.11 467.38,-91.6 481.16,-81.81"/>
<polygon fill="midnightblue" stroke="midnightblue" points="483.44,-84.48 489.57,-75.83 479.39,-78.77 483.44,-84.48"/>
</g>
<!-- Node37 -->
<g id="node37" class="node">
<title>Node37</title>
<g id="a_node37"><a xlink:title=" ">
<polygon fill="white" stroke="#bfbfbf" points="535,-56.5 535,-75.5 591,-75.5 591,-56.5 535,-56.5"/>
<text text-anchor="middle" x="563" y="-63.5" font-family="Helvetica,sans-Serif" font-size="10.00">QPrinter</text>
</a>
</g>
</g>
<!-- Node33&#45;&gt;Node37 -->
<g id="edge55" class="edge">
<title>Node33&#45;&gt;Node37</title>
<path fill="none" stroke="midnightblue" d="M447.71,-112.44C470.35,-103.52 506.07,-89.44 531.75,-79.32"/>
<polygon fill="midnightblue" stroke="midnightblue" points="533.37,-82.44 541.39,-75.52 530.81,-75.93 533.37,-82.44"/>
</g>
<!-- Node38 -->
<g id="node38" class="node">
<title>Node38</title>
<g id="a_node38"><a xlink:title=" ">
<polygon fill="white" stroke="#bfbfbf" points="609.5,-56.5 609.5,-75.5 670.5,-75.5 670.5,-56.5 609.5,-56.5"/>
<text text-anchor="middle" x="640" y="-63.5" font-family="Helvetica,sans-Serif" font-size="10.00">QPixmap</text>
</a>
</g>
</g>
<!-- Node33&#45;&gt;Node38 -->
<g id="edge56" class="edge">
<title>Node33&#45;&gt;Node38</title>
<path fill="none" stroke="midnightblue" d="M459.91,-112.44C497.83,-102.88 559.2,-87.39 599.58,-77.2"/>
<polygon fill="midnightblue" stroke="midnightblue" points="600.53,-80.57 609.37,-74.73 598.82,-73.78 600.53,-80.57"/>
</g>
<!-- Node39 -->
<g id="node39" class="node">
<title>Node39</title>
<g id="a_node39"><a xlink:title=" ">
<polygon fill="white" stroke="#bfbfbf" points="688.5,-56.5 688.5,-75.5 739.5,-75.5 739.5,-56.5 688.5,-56.5"/>
<text text-anchor="middle" x="714" y="-63.5" font-family="Helvetica,sans-Serif" font-size="10.00">csignal</text>
</a>
</g>
</g>
<!-- Node33&#45;&gt;Node39 -->
<g id="edge57" class="edge">
<title>Node33&#45;&gt;Node39</title>
<path fill="none" stroke="midnightblue" d="M467.25,-114.05C524.38,-104.37 625.63,-86.97 678.53,-75.93"/>
<polygon fill="midnightblue" stroke="midnightblue" points="679.39,-79.33 688.44,-73.81 677.93,-72.48 679.39,-79.33"/>
</g>
<!-- Node40 -->
<g id="node40" class="node">
<title>Node40</title>
<g id="a_node40"><a xlink:href="../../d4/d82/debugbreak_8h.html" target="_top" xlink:title=" ">
<polygon fill="white" stroke="black" points="226.5,-56.5 226.5,-75.5 309.5,-75.5 309.5,-56.5 226.5,-56.5"/>
<text text-anchor="middle" x="268" y="-63.5" font-family="Helvetica,sans-Serif" font-size="10.00">debugbreak.h</text>
</a>
</g>
</g>
<!-- Node33&#45;&gt;Node40 -->
<g id="edge58" class="edge">
<title>Node33&#45;&gt;Node40</title>
<path fill="none" stroke="midnightblue" d="M400.96,-112.44C374.38,-103.36 332.19,-88.94 302.48,-78.78"/>
<polygon fill="midnightblue" stroke="midnightblue" points="303.51,-75.44 292.92,-75.52 301.25,-82.06 303.51,-75.44"/>
</g>
<!-- Node41 -->
<g id="node41" class="node">
<title>Node41</title>
<g id="a_node41"><a xlink:title=" ">
<polygon fill="white" stroke="#bfbfbf" points="240.5,-0.5 240.5,-19.5 295.5,-19.5 295.5,-0.5 240.5,-0.5"/>
<text text-anchor="middle" x="268" y="-7.5" font-family="Helvetica,sans-Serif" font-size="10.00">signal.h</text>
</a>
</g>
</g>
<!-- Node40&#45;&gt;Node41 -->
<g id="edge59" class="edge">
<title>Node40&#45;&gt;Node41</title>
<path fill="none" stroke="midnightblue" d="M268,-56.08C268,-49.01 268,-38.86 268,-29.99"/>
<polygon fill="midnightblue" stroke="midnightblue" points="271.5,-29.75 268,-19.75 264.5,-29.75 271.5,-29.75"/>
</g>
<!-- Node42&#45;&gt;Node7 -->
<g id="edge61" class="edge">
<title>Node42&#45;&gt;Node7</title>
<path fill="none" stroke="midnightblue" d="M721.83,-112.44C749.25,-103.36 792.78,-88.94 823.43,-78.78"/>
<polygon fill="midnightblue" stroke="midnightblue" points="824.9,-81.98 833.29,-75.52 822.7,-75.34 824.9,-81.98"/>
</g>
<!-- Node43&#45;&gt;Node3 -->
<g id="edge63" class="edge">
<title>Node43&#45;&gt;Node3</title>
<path fill="none" stroke="midnightblue" d="M544.24,-280.48C501.42,-273.41 443.19,-261.63 394,-244 292.21,-207.51 273.37,-182.98 178,-132 145.37,-114.56 108,-93.85 84.22,-80.57"/>
<polygon fill="midnightblue" stroke="midnightblue" points="85.64,-77.36 75.21,-75.54 82.23,-83.47 85.64,-77.36"/>
</g>
<!-- Node43&#45;&gt;Node5 -->
<g id="edge64" class="edge">
<title>Node43&#45;&gt;Node5</title>
<path fill="none" stroke="midnightblue" d="M603.17,-280.33C597.75,-252.19 584.8,-162.31 628,-112 632,-107.34 702.88,-88.16 747.71,-76.4"/>
<polygon fill="midnightblue" stroke="midnightblue" points="748.6,-79.78 757.39,-73.86 746.83,-73.01 748.6,-79.78"/>
</g>
<!-- Node43&#45;&gt;Node7 -->
<g id="edge65" class="edge">
<title>Node43&#45;&gt;Node7</title>
<path fill="none" stroke="midnightblue" d="M614.6,-280.45C636.9,-260.62 693.95,-209.95 742,-168 776.95,-137.48 818.06,-102.11 841.07,-82.37"/>
<polygon fill="midnightblue" stroke="midnightblue" points="843.64,-84.78 848.95,-75.61 839.08,-79.46 843.64,-84.78"/>
</g>
<!-- Node43&#45;&gt;Node30 -->
<g id="edge67" class="edge">
<title>Node43&#45;&gt;Node30</title>
<path fill="none" stroke="midnightblue" d="M584.08,-280.44C562.26,-271.52 527.85,-257.44 503.11,-247.32"/>
<polygon fill="midnightblue" stroke="midnightblue" points="504.4,-244.06 493.82,-243.52 501.75,-250.54 504.4,-244.06"/>
</g>
<!-- Node43&#45;&gt;Node32 -->
<g id="edge66" class="edge">
<title>Node43&#45;&gt;Node32</title>
<path fill="none" stroke="midnightblue" d="M600.68,-280.37C591.69,-262.38 570.78,-220.55 558.81,-196.63"/>
<polygon fill="midnightblue" stroke="midnightblue" points="561.9,-194.97 554.3,-187.59 555.64,-198.1 561.9,-194.97"/>
</g>
</g>
</svg>
