<?xml version="1.0" encoding="UTF-8" standalone="no"?>
<!DOCTYPE svg PUBLIC "-//W3C//DTD SVG 1.1//EN"
 "http://www.w3.org/Graphics/SVG/1.1/DTD/svg11.dtd">
<!-- Generated by graphviz version 2.43.0 (0)
 -->
<!-- Title: DialogSeamlyMePreferences Pages: 1 -->
<!--zoomable 442 -->
<svg id="main" version="1.1" xmlns="http://www.w3.org/2000/svg" xmlns:xlink="http://www.w3.org/1999/xlink" xml:space="preserve" onload="init(evt)">
<style type="text/css"><![CDATA[
.edge:hover path { stroke: red; }
.edge:hover polygon { stroke: red; fill: red; }
]]></style>
<script type="text/javascript"><![CDATA[
var edges = document.getElementsByTagName('g');
if (edges && edges.length) {
  for (var i=0;i<edges.length;i++) {
    if (edges[i].id.substr(0,4)=='edge') {
      edges[i].setAttribute('class','edge');
    }
  }
}
]]></script>
        <defs>
                <circle id="rim" cx="0" cy="0" r="7"/>
                <circle id="rim2" cx="0" cy="0" r="3.5"/>
                <g id="zoomPlus">
                        <use xlink:href="#rim" fill="#404040">
                                <set attributeName="fill" to="#808080" begin="zoomplus.mouseover" end="zoomplus.mouseout"/>
                        </use>
                        <path d="M-4,0h8M0,-4v8" fill="none" stroke="white" stroke-width="1.5" pointer-events="none"/>
                </g>
                <g id="zoomMin">
                        <use xlink:href="#rim" fill="#404040">
                                <set attributeName="fill" to="#808080" begin="zoomminus.mouseover" end="zoomminus.mouseout"/>
                        </use>
                        <path d="M-4,0h8" fill="none" stroke="white" stroke-width="1.5" pointer-events="none"/>
                </g>
                <g id="dirArrow">
                        <path fill="none" stroke="white" stroke-width="1.5" d="M0,-3.0v7 M-2.5,-0.5L0,-3.0L2.5,-0.5"/>
                </g>
               <g id="resetDef">
                       <use xlink:href="#rim2" fill="#404040">
                               <set attributeName="fill" to="#808080" begin="reset.mouseover" end="reset.mouseout"/>
                       </use>
               </g>
        </defs>

<script type="text/javascript">
var viewWidth = 505;
var viewHeight = 442;
var sectionId = 'dynsection-1';
</script>
<script xlink:href="../../svgpan.js"/>
<svg id="graph" class="graph">
<g id="viewport">
<title>DialogSeamlyMePreferences</title>
<polygon fill="white" stroke="transparent" points="-4,4 -4,-438 500.5,-438 500.5,4 -4,4"/>
<!-- Node1 -->
<g id="node1" class="node">
<title>Node1</title>
<g id="a_node1"><a xlink:title=" ">
<polygon fill="#bfbfbf" stroke="black" points="76.5,-0.5 76.5,-134.5 261.5,-134.5 261.5,-0.5 76.5,-0.5"/>
<text text-anchor="middle" x="169" y="-122.5" font-family="Helvetica,sans-Serif" font-size="10.00">DialogSeamlyMePreferences</text>
<polyline fill="none" stroke="black" points="76.5,-115.5 261.5,-115.5 "/>
<text text-anchor="start" x="84.5" y="-103.5" font-family="Helvetica,sans-Serif" font-size="10.00">&#45; ui</text>
<text text-anchor="start" x="84.5" y="-92.5" font-family="Helvetica,sans-Serif" font-size="10.00">&#45; m_isInitialized</text>
<polyline fill="none" stroke="black" points="76.5,-85.5 261.5,-85.5 "/>
<text text-anchor="start" x="84.5" y="-73.5" font-family="Helvetica,sans-Serif" font-size="10.00">+ DialogSeamlyMePreferences()</text>
<text text-anchor="start" x="84.5" y="-62.5" font-family="Helvetica,sans-Serif" font-size="10.00">+ ~DialogSeamlyMePreferences()</text>
<text text-anchor="start" x="84.5" y="-51.5" font-family="Helvetica,sans-Serif" font-size="10.00"># showEvent()</text>
<text text-anchor="start" x="84.5" y="-40.5" font-family="Helvetica,sans-Serif" font-size="10.00"># resizeEvent()</text>
<text text-anchor="start" x="84.5" y="-29.5" font-family="Helvetica,sans-Serif" font-size="10.00">&#45; Apply()</text>
<text text-anchor="start" x="84.5" y="-18.5" font-family="Helvetica,sans-Serif" font-size="10.00">&#45; Ok()</text>
<text text-anchor="start" x="84.5" y="-7.5" font-family="Helvetica,sans-Serif" font-size="10.00">&#45; PageChanged()</text>
</a>
</g>
</g>
<!-- Node2 -->
<g id="node2" class="node">
<title>Node2</title>
<g id="a_node2"><a xlink:title=" ">
<polygon fill="white" stroke="#bfbfbf" points="0,-232 0,-289 56,-289 56,-232 0,-232"/>
<text text-anchor="middle" x="28" y="-277" font-family="Helvetica,sans-Serif" font-size="10.00">QDialog</text>
<polyline fill="none" stroke="#bfbfbf" points="0,-270 56,-270 "/>
<text text-anchor="middle" x="28" y="-258" font-family="Helvetica,sans-Serif" font-size="10.00"> </text>
<polyline fill="none" stroke="#bfbfbf" points="0,-251 56,-251 "/>
<text text-anchor="middle" x="28" y="-239" font-family="Helvetica,sans-Serif" font-size="10.00"> </text>
</a>
</g>
</g>
<!-- Node2&#45;&gt;Node1 -->
<g id="edge1" class="edge">
<title>Node2&#45;&gt;Node1</title>
<path fill="none" stroke="midnightblue" d="M42.93,-222.55C48.98,-209.29 56.54,-194.53 65,-182 75.91,-165.83 89.06,-149.65 102.28,-134.78"/>
<polygon fill="none" stroke="midnightblue" points="39.65,-221.33 38.8,-231.89 46.05,-224.16 39.65,-221.33"/>
</g>
<!-- Node3 -->
<g id="node3" class="node">
<title>Node3</title>
<g id="a_node3"><a xlink:href="../../d7/d92/classSeamlyMePreferencesPathPage.html" target="_top" xlink:title=" ">
<polygon fill="white" stroke="black" points="74.5,-199 74.5,-322 263.5,-322 263.5,-199 74.5,-199"/>
<text text-anchor="middle" x="169" y="-310" font-family="Helvetica,sans-Serif" font-size="10.00">SeamlyMePreferencesPathPage</text>
<polyline fill="none" stroke="black" points="74.5,-303 263.5,-303 "/>
<text text-anchor="start" x="82.5" y="-291" font-family="Helvetica,sans-Serif" font-size="10.00">&#45; ui</text>
<polyline fill="none" stroke="black" points="74.5,-284 263.5,-284 "/>
<text text-anchor="start" x="82.5" y="-272" font-family="Helvetica,sans-Serif" font-size="10.00">+ SeamlyMePreferencesPathPage()</text>
<text text-anchor="start" x="82.5" y="-261" font-family="Helvetica,sans-Serif" font-size="10.00">+ ~SeamlyMePreferencesPath</text>
<text text-anchor="start" x="82.5" y="-250" font-family="Helvetica,sans-Serif" font-size="10.00">Page()</text>
<text text-anchor="start" x="82.5" y="-239" font-family="Helvetica,sans-Serif" font-size="10.00">+ Apply()</text>
<text text-anchor="start" x="82.5" y="-228" font-family="Helvetica,sans-Serif" font-size="10.00">&#45; InitTable()</text>
<text text-anchor="start" x="82.5" y="-217" font-family="Helvetica,sans-Serif" font-size="10.00">&#45; DefaultPath()</text>
<text text-anchor="start" x="82.5" y="-206" font-family="Helvetica,sans-Serif" font-size="10.00">&#45; EditPath()</text>
</a>
</g>
</g>
<!-- Node3&#45;&gt;Node1 -->
<g id="edge2" class="edge">
<title>Node3&#45;&gt;Node1</title>
<path fill="none" stroke="#404040" d="M169,-198.8C169,-182.29 169,-164.16 169,-146.82"/>
<polygon fill="none" stroke="#404040" points="169,-146.66 165,-140.66 169,-134.66 173,-140.66 169,-146.66"/>
<text text-anchor="middle" x="202.5" y="-156" font-family="Helvetica,sans-Serif" font-size="10.00"> &#45;m_pathPage</text>
</g>
<!-- Node4 -->
<g id="node4" class="node">
<title>Node4</title>
<g id="a_node4"><a xlink:title=" ">
<polygon fill="white" stroke="#bfbfbf" points="248.5,-376.5 248.5,-433.5 307.5,-433.5 307.5,-376.5 248.5,-376.5"/>
<text text-anchor="middle" x="278" y="-421.5" font-family="Helvetica,sans-Serif" font-size="10.00">QWidget</text>
<polyline fill="none" stroke="#bfbfbf" points="248.5,-414.5 307.5,-414.5 "/>
<text text-anchor="middle" x="278" y="-402.5" font-family="Helvetica,sans-Serif" font-size="10.00"> </text>
<polyline fill="none" stroke="#bfbfbf" points="248.5,-395.5 307.5,-395.5 "/>
<text text-anchor="middle" x="278" y="-383.5" font-family="Helvetica,sans-Serif" font-size="10.00"> </text>
</a>
</g>
</g>
<!-- Node4&#45;&gt;Node3 -->
<g id="edge3" class="edge">
<title>Node4&#45;&gt;Node3</title>
<path fill="none" stroke="midnightblue" d="M250.38,-367.89C239.78,-354.03 227.37,-337.81 215.48,-322.27"/>
<polygon fill="none" stroke="midnightblue" points="247.87,-370.37 256.72,-376.19 253.43,-366.12 247.87,-370.37"/>
</g>
<!-- Node5 -->
<g id="node5" class="node">
<title>Node5</title>
<g id="a_node5"><a xlink:href="../../df/de0/classSeamlyMePreferencesConfigurationPage.html" target="_top" xlink:title=" ">
<polygon fill="white" stroke="black" points="281.5,-182.5 281.5,-338.5 496.5,-338.5 496.5,-182.5 281.5,-182.5"/>
<text text-anchor="middle" x="389" y="-326.5" font-family="Helvetica,sans-Serif" font-size="10.00">SeamlyMePreferencesConfigurationPage</text>
<polyline fill="none" stroke="black" points="281.5,-319.5 496.5,-319.5 "/>
<text text-anchor="start" x="289.5" y="-307.5" font-family="Helvetica,sans-Serif" font-size="10.00">&#45; ui</text>
<text text-anchor="start" x="289.5" y="-296.5" font-family="Helvetica,sans-Serif" font-size="10.00">&#45; m_langChanged</text>
<text text-anchor="start" x="289.5" y="-285.5" font-family="Helvetica,sans-Serif" font-size="10.00">&#45; m_systemChanged</text>
<text text-anchor="start" x="289.5" y="-274.5" font-family="Helvetica,sans-Serif" font-size="10.00">&#45; m_defGradationChanged</text>
<polyline fill="none" stroke="black" points="281.5,-267.5 496.5,-267.5 "/>
<text text-anchor="start" x="289.5" y="-255.5" font-family="Helvetica,sans-Serif" font-size="10.00">+ SeamlyMePreferencesConfiguration</text>
<text text-anchor="start" x="289.5" y="-244.5" font-family="Helvetica,sans-Serif" font-size="10.00">Page()</text>
<text text-anchor="start" x="289.5" y="-233.5" font-family="Helvetica,sans-Serif" font-size="10.00">+ ~SeamlyMePreferencesConfiguration</text>
<text text-anchor="start" x="289.5" y="-222.5" font-family="Helvetica,sans-Serif" font-size="10.00">Page()</text>
<text text-anchor="start" x="289.5" y="-211.5" font-family="Helvetica,sans-Serif" font-size="10.00">+ Apply()</text>
<text text-anchor="start" x="289.5" y="-200.5" font-family="Helvetica,sans-Serif" font-size="10.00"># changeEvent()</text>
<text text-anchor="start" x="289.5" y="-189.5" font-family="Helvetica,sans-Serif" font-size="10.00">&#45; RetranslateUi()</text>
</a>
</g>
</g>
<!-- Node4&#45;&gt;Node5 -->
<g id="edge5" class="edge">
<title>Node4&#45;&gt;Node5</title>
<path fill="none" stroke="midnightblue" d="M305.92,-368.16C312.99,-359.08 320.87,-348.96 328.88,-338.69"/>
<polygon fill="none" stroke="midnightblue" points="303.05,-366.15 299.67,-376.19 308.57,-370.45 303.05,-366.15"/>
</g>
<!-- Node5&#45;&gt;Node1 -->
<g id="edge4" class="edge">
<title>Node5&#45;&gt;Node1</title>
<path fill="none" stroke="#404040" d="M300.15,-182.36C285.04,-169.25 269.38,-155.65 254.36,-142.61"/>
<polygon fill="none" stroke="#404040" points="254.17,-142.44 247.01,-141.53 245.11,-134.57 252.26,-135.49 254.17,-142.44"/>
<text text-anchor="middle" x="333.5" y="-156" font-family="Helvetica,sans-Serif" font-size="10.00"> &#45;m_configurationPage</text>
</g>
</g>
</svg>
        <g id="navigator" transform="translate(0 0)" fill="#404254">
                <rect fill="#f2f5e9" fill-opacity="0.5" stroke="#606060" stroke-width=".5" x="0" y="0" width="60" height="60"/>
                <use id="zoomplus" xlink:href="#zoomPlus" x="17" y="9" onmousedown="handleZoom(evt,'in')"/>
                <use id="zoomminus" xlink:href="#zoomMin" x="42" y="9" onmousedown="handleZoom(evt,'out')"/>
                <use id="reset" xlink:href="#resetDef" x="30" y="36" onmousedown="handleReset()"/>
                <g id="arrowUp" xlink:href="#dirArrow" transform="translate(30 24)" onmousedown="handlePan(0,-1)">
                  <use xlink:href="#rim" fill="#404040">
                        <set attributeName="fill" to="#808080" begin="arrowUp.mouseover" end="arrowUp.mouseout"/>
                  </use>
                  <path fill="none" stroke="white" stroke-width="1.5" d="M0,-3.0v7 M-2.5,-0.5L0,-3.0L2.5,-0.5"/>
                </g>
                <g id="arrowRight" xlink:href="#dirArrow" transform="rotate(90) translate(36 -43)" onmousedown="handlePan(1,0)">
                  <use xlink:href="#rim" fill="#404040">
                        <set attributeName="fill" to="#808080" begin="arrowRight.mouseover" end="arrowRight.mouseout"/>
                  </use>
                  <path fill="none" stroke="white" stroke-width="1.5" d="M0,-3.0v7 M-2.5,-0.5L0,-3.0L2.5,-0.5"/>
                </g>
                <g id="arrowDown" xlink:href="#dirArrow" transform="rotate(180) translate(-30 -48)" onmousedown="handlePan(0,1)">
                  <use xlink:href="#rim" fill="#404040">
                        <set attributeName="fill" to="#808080" begin="arrowDown.mouseover" end="arrowDown.mouseout"/>
                  </use>
                  <path fill="none" stroke="white" stroke-width="1.5" d="M0,-3.0v7 M-2.5,-0.5L0,-3.0L2.5,-0.5"/>
                </g>
                <g id="arrowLeft" xlink:href="#dirArrow" transform="rotate(270) translate(-36 17)" onmousedown="handlePan(-1,0)">
                  <use xlink:href="#rim" fill="#404040">
                        <set attributeName="fill" to="#808080" begin="arrowLeft.mouseover" end="arrowLeft.mouseout"/>
                  </use>
                  <path fill="none" stroke="white" stroke-width="1.5" d="M0,-3.0v7 M-2.5,-0.5L0,-3.0L2.5,-0.5"/>
                </g>
        </g>
        <svg viewBox="0 0 15 15" width="100%" height="30px" preserveAspectRatio="xMaxYMin meet">
         <g id="arrow_out" transform="scale(0.3 0.3)">
          <a xlink:href="classDialogSeamlyMePreferences__coll__graph_org.svg" target="_base">
           <rect id="button" ry="5" rx="5" y="6" x="6" height="38" width="38"
                fill="#f2f5e9" fill-opacity="0.5" stroke="#606060" stroke-width="1.0"/>
           <path id="arrow"
             d="M 11.500037,31.436501 C 11.940474,20.09759 22.043105,11.32322 32.158766,21.979434 L 37.068811,17.246167 C 37.068811,17.246167 37.088388,32 37.088388,32 L 22.160133,31.978069 C 22.160133,31.978069 26.997745,27.140456 26.997745,27.140456 C 18.528582,18.264221 13.291696,25.230495 11.500037,31.436501 z"
             style="fill:#404040;"/>
          </a>
         </g>
        </svg>
</svg>
