<?xml version="1.0" encoding="UTF-8" standalone="no"?>
<!DOCTYPE svg PUBLIC "-//W3C//DTD SVG 1.1//EN"
 "http://www.w3.org/Graphics/SVG/1.1/DTD/svg11.dtd">
<!-- Generated by graphviz version 2.43.0 (0)
 -->
<!-- Title: src/libs/vwidgets/page_format_combobox.h Pages: 1 -->
<svg width="3197pt" height="285pt"
 viewBox="0.00 0.00 3197.00 285.00" xmlns="http://www.w3.org/2000/svg" xmlns:xlink="http://www.w3.org/1999/xlink">
<g id="graph0" class="graph" transform="scale(1 1) rotate(0) translate(4 281)">
<title>src/libs/vwidgets/page_format_combobox.h</title>
<polygon fill="white" stroke="transparent" points="-4,4 -4,-281 3193,-281 3193,4 -4,4"/>
<!-- Node1 -->
<g id="node1" class="node">
<title>Node1</title>
<g id="a_node1"><a xlink:title=" ">
<polygon fill="#bfbfbf" stroke="black" points="1537,-246.5 1537,-276.5 1662,-276.5 1662,-246.5 1537,-246.5"/>
<text text-anchor="start" x="1545" y="-264.5" font-family="Helvetica,sans-Serif" font-size="10.00">src/libs/vwidgets/page</text>
<text text-anchor="middle" x="1599.5" y="-253.5" font-family="Helvetica,sans-Serif" font-size="10.00">_format_combobox.h</text>
</a>
</g>
</g>
<!-- Node2 -->
<g id="node2" class="node">
<title>Node2</title>
<g id="a_node2"><a xlink:title=" ">
<polygon fill="white" stroke="#bfbfbf" points="1413,-190.5 1413,-209.5 1490,-209.5 1490,-190.5 1413,-190.5"/>
<text text-anchor="middle" x="1451.5" y="-197.5" font-family="Helvetica,sans-Serif" font-size="10.00">QComboBox</text>
</a>
</g>
</g>
<!-- Node1&#45;&gt;Node2 -->
<g id="edge1" class="edge">
<title>Node1&#45;&gt;Node2</title>
<path fill="none" stroke="midnightblue" d="M1564.43,-246.4C1539.48,-236.37 1506.29,-223.03 1482.36,-213.4"/>
<polygon fill="midnightblue" stroke="midnightblue" points="1483.62,-210.14 1473.04,-209.66 1481.01,-216.64 1483.62,-210.14"/>
</g>
<!-- Node3 -->
<g id="node3" class="node">
<title>Node3</title>
<g id="a_node3"><a xlink:title=" ">
<polygon fill="white" stroke="#bfbfbf" points="1508,-190.5 1508,-209.5 1567,-209.5 1567,-190.5 1508,-190.5"/>
<text text-anchor="middle" x="1537.5" y="-197.5" font-family="Helvetica,sans-Serif" font-size="10.00">QWidget</text>
</a>
</g>
</g>
<!-- Node1&#45;&gt;Node3 -->
<g id="edge2" class="edge">
<title>Node1&#45;&gt;Node3</title>
<path fill="none" stroke="midnightblue" d="M1584.81,-246.4C1575.52,-237.49 1563.5,-225.95 1553.9,-216.74"/>
<polygon fill="midnightblue" stroke="midnightblue" points="1556.16,-214.06 1546.52,-209.66 1551.31,-219.11 1556.16,-214.06"/>
</g>
<!-- Node4 -->
<g id="node4" class="node">
<title>Node4</title>
<g id="a_node4"><a xlink:href="../../d4/da4/def_8h.html" target="_top" xlink:title=" ">
<polygon fill="white" stroke="black" points="2689.5,-129 2689.5,-148 2771.5,-148 2771.5,-129 2689.5,-129"/>
<text text-anchor="middle" x="2730.5" y="-136" font-family="Helvetica,sans-Serif" font-size="10.00">../vmisc/def.h</text>
</a>
</g>
</g>
<!-- Node1&#45;&gt;Node4 -->
<g id="edge3" class="edge">
<title>Node1&#45;&gt;Node4</title>
<path fill="none" stroke="midnightblue" d="M1662.32,-253.78C1864.35,-232.16 2494.89,-164.71 2679.33,-144.97"/>
<polygon fill="midnightblue" stroke="midnightblue" points="2679.74,-148.45 2689.31,-143.91 2678.99,-141.49 2679.74,-148.45"/>
</g>
<!-- Node17 -->
<g id="node17" class="node">
<title>Node17</title>
<g id="a_node17"><a xlink:href="../../d0/d89/vabstractpattern_8h.html" target="_top" xlink:title=" ">
<polygon fill="white" stroke="black" points="1585.5,-190.5 1585.5,-209.5 1737.5,-209.5 1737.5,-190.5 1585.5,-190.5"/>
<text text-anchor="middle" x="1661.5" y="-197.5" font-family="Helvetica,sans-Serif" font-size="10.00">../ifc/xml/vabstractpattern.h</text>
</a>
</g>
</g>
<!-- Node1&#45;&gt;Node17 -->
<g id="edge16" class="edge">
<title>Node1&#45;&gt;Node17</title>
<path fill="none" stroke="midnightblue" d="M1614.19,-246.4C1623.48,-237.49 1635.5,-225.95 1645.1,-216.74"/>
<polygon fill="midnightblue" stroke="midnightblue" points="1647.69,-219.11 1652.48,-209.66 1642.84,-214.06 1647.69,-219.11"/>
</g>
<!-- Node5 -->
<g id="node5" class="node">
<title>Node5</title>
<g id="a_node5"><a xlink:title=" ">
<polygon fill="white" stroke="#bfbfbf" points="2450.5,-62 2450.5,-81 2570.5,-81 2570.5,-62 2450.5,-62"/>
<text text-anchor="middle" x="2510.5" y="-69" font-family="Helvetica,sans-Serif" font-size="10.00">qcompilerdetection.h</text>
</a>
</g>
</g>
<!-- Node4&#45;&gt;Node5 -->
<g id="edge4" class="edge">
<title>Node4&#45;&gt;Node5</title>
<path fill="none" stroke="midnightblue" d="M2701.29,-128.87C2662.14,-117.3 2592.57,-96.75 2549.13,-83.91"/>
<polygon fill="midnightblue" stroke="midnightblue" points="2550.07,-80.54 2539.48,-81.06 2548.08,-87.25 2550.07,-80.54"/>
</g>
<!-- Node6 -->
<g id="node6" class="node">
<title>Node6</title>
<g id="a_node6"><a xlink:title=" ">
<polygon fill="white" stroke="#bfbfbf" points="3116,-62 3116,-81 3189,-81 3189,-62 3116,-62"/>
<text text-anchor="middle" x="3152.5" y="-69" font-family="Helvetica,sans-Serif" font-size="10.00">QFileDialog</text>
</a>
</g>
</g>
<!-- Node4&#45;&gt;Node6 -->
<g id="edge5" class="edge">
<title>Node4&#45;&gt;Node6</title>
<path fill="none" stroke="midnightblue" d="M2771.65,-134.41C2841.41,-128.63 2987.06,-114.24 3107.5,-87 3111.16,-86.17 3114.94,-85.18 3118.69,-84.1"/>
<polygon fill="midnightblue" stroke="midnightblue" points="3119.89,-87.4 3128.43,-81.13 3117.85,-80.7 3119.89,-87.4"/>
</g>
<!-- Node7 -->
<g id="node7" class="node">
<title>Node7</title>
<g id="a_node7"><a xlink:title=" ">
<polygon fill="white" stroke="#bfbfbf" points="2676.5,-62 2676.5,-81 2726.5,-81 2726.5,-62 2676.5,-62"/>
<text text-anchor="middle" x="2701.5" y="-69" font-family="Helvetica,sans-Serif" font-size="10.00">QLineF</text>
</a>
</g>
</g>
<!-- Node4&#45;&gt;Node7 -->
<g id="edge6" class="edge">
<title>Node4&#45;&gt;Node7</title>
<path fill="none" stroke="midnightblue" d="M2726.59,-128.73C2722.24,-118.99 2715.1,-102.98 2709.54,-90.53"/>
<polygon fill="midnightblue" stroke="midnightblue" points="2712.62,-88.83 2705.35,-81.13 2706.23,-91.69 2712.62,-88.83"/>
</g>
<!-- Node8 -->
<g id="node8" class="node">
<title>Node8</title>
<g id="a_node8"><a xlink:title=" ">
<polygon fill="white" stroke="#bfbfbf" points="1528,-62 1528,-81 1581,-81 1581,-62 1528,-62"/>
<text text-anchor="middle" x="1554.5" y="-69" font-family="Helvetica,sans-Serif" font-size="10.00">QString</text>
</a>
</g>
</g>
<!-- Node4&#45;&gt;Node8 -->
<g id="edge7" class="edge">
<title>Node4&#45;&gt;Node8</title>
<path fill="none" stroke="midnightblue" d="M2689.19,-136.5C2497.5,-131.73 1699.41,-110.62 1590.5,-87 1587.66,-86.38 1584.76,-85.56 1581.89,-84.63"/>
<polygon fill="midnightblue" stroke="midnightblue" points="1583.03,-81.32 1572.43,-81.11 1580.59,-87.88 1583.03,-81.32"/>
</g>
<!-- Node9 -->
<g id="node9" class="node">
<title>Node9</title>
<g id="a_node9"><a xlink:title=" ">
<polygon fill="white" stroke="#bfbfbf" points="2588.5,-62 2588.5,-81 2658.5,-81 2658.5,-62 2588.5,-62"/>
<text text-anchor="middle" x="2623.5" y="-69" font-family="Helvetica,sans-Serif" font-size="10.00">QStringList</text>
</a>
</g>
</g>
<!-- Node4&#45;&gt;Node9 -->
<g id="edge8" class="edge">
<title>Node4&#45;&gt;Node9</title>
<path fill="none" stroke="midnightblue" d="M2716.07,-128.73C2698.18,-117.87 2667.48,-99.22 2646.37,-86.39"/>
<polygon fill="midnightblue" stroke="midnightblue" points="2648.07,-83.33 2637.7,-81.13 2644.43,-89.31 2648.07,-83.33"/>
</g>
<!-- Node10 -->
<g id="node10" class="node">
<title>Node10</title>
<g id="a_node10"><a xlink:title=" ">
<polygon fill="white" stroke="#bfbfbf" points="2745,-62 2745,-81 2774,-81 2774,-62 2745,-62"/>
<text text-anchor="middle" x="2759.5" y="-69" font-family="Helvetica,sans-Serif" font-size="10.00">Qt</text>
</a>
</g>
</g>
<!-- Node4&#45;&gt;Node10 -->
<g id="edge9" class="edge">
<title>Node4&#45;&gt;Node10</title>
<path fill="none" stroke="midnightblue" d="M2734.41,-128.73C2738.76,-118.99 2745.9,-102.98 2751.46,-90.53"/>
<polygon fill="midnightblue" stroke="midnightblue" points="2754.77,-91.69 2755.65,-81.13 2748.38,-88.83 2754.77,-91.69"/>
</g>
<!-- Node11 -->
<g id="node11" class="node">
<title>Node11</title>
<g id="a_node11"><a xlink:title=" ">
<polygon fill="white" stroke="#bfbfbf" points="1451,-62 1451,-81 1510,-81 1510,-62 1451,-62"/>
<text text-anchor="middle" x="1480.5" y="-69" font-family="Helvetica,sans-Serif" font-size="10.00">QtGlobal</text>
</a>
</g>
</g>
<!-- Node4&#45;&gt;Node11 -->
<g id="edge10" class="edge">
<title>Node4&#45;&gt;Node11</title>
<path fill="none" stroke="midnightblue" d="M2689.31,-136.55C2490.62,-131.86 1636.05,-110.48 1519.5,-87 1516.24,-86.34 1512.9,-85.46 1509.6,-84.44"/>
<polygon fill="midnightblue" stroke="midnightblue" points="1510.58,-81.08 1499.99,-81.11 1508.29,-87.69 1510.58,-81.08"/>
</g>
<!-- Node12 -->
<g id="node12" class="node">
<title>Node12</title>
<g id="a_node12"><a xlink:title=" ">
<polygon fill="white" stroke="#bfbfbf" points="2792.5,-62 2792.5,-81 2848.5,-81 2848.5,-62 2792.5,-62"/>
<text text-anchor="middle" x="2820.5" y="-69" font-family="Helvetica,sans-Serif" font-size="10.00">QPrinter</text>
</a>
</g>
</g>
<!-- Node4&#45;&gt;Node12 -->
<g id="edge11" class="edge">
<title>Node4&#45;&gt;Node12</title>
<path fill="none" stroke="midnightblue" d="M2742.64,-128.73C2757.35,-118.11 2782.36,-100.05 2800.06,-87.26"/>
<polygon fill="midnightblue" stroke="midnightblue" points="2802.5,-89.82 2808.55,-81.13 2798.4,-84.14 2802.5,-89.82"/>
</g>
<!-- Node13 -->
<g id="node13" class="node">
<title>Node13</title>
<g id="a_node13"><a xlink:title=" ">
<polygon fill="white" stroke="#bfbfbf" points="2867,-62 2867,-81 2928,-81 2928,-62 2867,-62"/>
<text text-anchor="middle" x="2897.5" y="-69" font-family="Helvetica,sans-Serif" font-size="10.00">QPixmap</text>
</a>
</g>
</g>
<!-- Node4&#45;&gt;Node13 -->
<g id="edge12" class="edge">
<title>Node4&#45;&gt;Node13</title>
<path fill="none" stroke="midnightblue" d="M2752.68,-128.87C2781.7,-117.57 2832.77,-97.7 2865.85,-84.82"/>
<polygon fill="midnightblue" stroke="midnightblue" points="2867.45,-87.95 2875.5,-81.06 2864.91,-81.43 2867.45,-87.95"/>
</g>
<!-- Node14 -->
<g id="node14" class="node">
<title>Node14</title>
<g id="a_node14"><a xlink:title=" ">
<polygon fill="white" stroke="#bfbfbf" points="2946,-62 2946,-81 2997,-81 2997,-62 2946,-62"/>
<text text-anchor="middle" x="2971.5" y="-69" font-family="Helvetica,sans-Serif" font-size="10.00">csignal</text>
</a>
</g>
</g>
<!-- Node4&#45;&gt;Node14 -->
<g id="edge13" class="edge">
<title>Node4&#45;&gt;Node14</title>
<path fill="none" stroke="midnightblue" d="M2771.52,-129.57C2813.69,-120.93 2880.99,-105.8 2937.5,-87 2939.42,-86.36 2941.38,-85.66 2943.34,-84.92"/>
<polygon fill="midnightblue" stroke="midnightblue" points="2945.03,-88.02 2953.01,-81.04 2942.42,-81.52 2945.03,-88.02"/>
</g>
<!-- Node15 -->
<g id="node15" class="node">
<title>Node15</title>
<g id="a_node15"><a xlink:href="../../d4/d82/debugbreak_8h.html" target="_top" xlink:title=" ">
<polygon fill="white" stroke="black" points="3015,-62 3015,-81 3098,-81 3098,-62 3015,-62"/>
<text text-anchor="middle" x="3056.5" y="-69" font-family="Helvetica,sans-Serif" font-size="10.00">debugbreak.h</text>
</a>
</g>
</g>
<!-- Node4&#45;&gt;Node15 -->
<g id="edge14" class="edge">
<title>Node4&#45;&gt;Node15</title>
<path fill="none" stroke="midnightblue" d="M2771.92,-131.26C2826.15,-122.79 2924,-106.46 3006.5,-87 3010.61,-86.03 3014.88,-84.93 3019.12,-83.79"/>
<polygon fill="midnightblue" stroke="midnightblue" points="3020.18,-87.12 3028.86,-81.06 3018.29,-80.38 3020.18,-87.12"/>
</g>
<!-- Node16 -->
<g id="node16" class="node">
<title>Node16</title>
<g id="a_node16"><a xlink:title=" ">
<polygon fill="white" stroke="#bfbfbf" points="3029,-0.5 3029,-19.5 3084,-19.5 3084,-0.5 3029,-0.5"/>
<text text-anchor="middle" x="3056.5" y="-7.5" font-family="Helvetica,sans-Serif" font-size="10.00">signal.h</text>
</a>
</g>
</g>
<!-- Node15&#45;&gt;Node16 -->
<g id="edge15" class="edge">
<title>Node15&#45;&gt;Node16</title>
<path fill="none" stroke="midnightblue" d="M3056.5,-61.98C3056.5,-53.58 3056.5,-40.48 3056.5,-29.66"/>
<polygon fill="midnightblue" stroke="midnightblue" points="3060,-29.51 3056.5,-19.51 3053,-29.51 3060,-29.51"/>
</g>
<!-- Node17&#45;&gt;Node5 -->
<g id="edge17" class="edge">
<title>Node17&#45;&gt;Node5</title>
<path fill="none" stroke="midnightblue" d="M1737.7,-194.3C1830.25,-187.99 1990.94,-175.05 2127.5,-154 2251.57,-134.87 2395.94,-100.93 2466.76,-83.5"/>
<polygon fill="midnightblue" stroke="midnightblue" points="2467.8,-86.85 2476.67,-81.05 2466.12,-80.06 2467.8,-86.85"/>
</g>
<!-- Node17&#45;&gt;Node8 -->
<g id="edge23" class="edge">
<title>Node17&#45;&gt;Node8</title>
<path fill="none" stroke="midnightblue" d="M1651.66,-190.49C1641.81,-181.76 1626.43,-167.58 1614.5,-154 1596.1,-133.06 1577.47,-106.78 1565.95,-89.82"/>
<polygon fill="midnightblue" stroke="midnightblue" points="1568.81,-87.8 1560.34,-81.44 1563,-91.7 1568.81,-87.8"/>
</g>
<!-- Node17&#45;&gt;Node9 -->
<g id="edge24" class="edge">
<title>Node17&#45;&gt;Node9</title>
<path fill="none" stroke="midnightblue" d="M1737.72,-195.39C1845.56,-189.7 2048.71,-176.88 2220.5,-154 2381.39,-132.57 2422.29,-127.38 2579.5,-87 2582.87,-86.13 2586.37,-85.14 2589.84,-84.1"/>
<polygon fill="midnightblue" stroke="midnightblue" points="2590.98,-87.41 2599.46,-81.06 2588.88,-80.73 2590.98,-87.41"/>
</g>
<!-- Node17&#45;&gt;Node11 -->
<g id="edge26" class="edge">
<title>Node17&#45;&gt;Node11</title>
<path fill="none" stroke="midnightblue" d="M1645.72,-190.42C1630.09,-181.75 1605.66,-167.71 1585.5,-154 1553.78,-132.42 1518.98,-104.5 1498.47,-87.57"/>
<polygon fill="midnightblue" stroke="midnightblue" points="1500.54,-84.74 1490.61,-81.04 1496.07,-90.12 1500.54,-84.74"/>
</g>
<!-- Node18 -->
<g id="node18" class="node">
<title>Node18</title>
<g id="a_node18"><a xlink:title=" ">
<polygon fill="white" stroke="#bfbfbf" points="1283,-62 1283,-81 1332,-81 1332,-62 1283,-62"/>
<text text-anchor="middle" x="1307.5" y="-69" font-family="Helvetica,sans-Serif" font-size="10.00">QHash</text>
</a>
</g>
</g>
<!-- Node17&#45;&gt;Node18 -->
<g id="edge18" class="edge">
<title>Node17&#45;&gt;Node18</title>
<path fill="none" stroke="midnightblue" d="M1595.5,-190.48C1519.82,-180.35 1403.79,-163.62 1385.5,-154 1356.46,-138.71 1332.01,-108.52 1318.59,-89.48"/>
<polygon fill="midnightblue" stroke="midnightblue" points="1321.44,-87.44 1312.92,-81.15 1315.65,-91.38 1321.44,-87.44"/>
</g>
<!-- Node19 -->
<g id="node19" class="node">
<title>Node19</title>
<g id="a_node19"><a xlink:title=" ">
<polygon fill="white" stroke="#bfbfbf" points="1665,-129 1665,-148 1710,-148 1710,-129 1665,-129"/>
<text text-anchor="middle" x="1687.5" y="-136" font-family="Helvetica,sans-Serif" font-size="10.00">QMap</text>
</a>
</g>
</g>
<!-- Node17&#45;&gt;Node19 -->
<g id="edge19" class="edge">
<title>Node17&#45;&gt;Node19</title>
<path fill="none" stroke="midnightblue" d="M1665.23,-190.48C1668.97,-181.9 1674.86,-168.43 1679.64,-157.48"/>
<polygon fill="midnightblue" stroke="midnightblue" points="1682.98,-158.57 1683.78,-148.01 1676.57,-155.77 1682.98,-158.57"/>
</g>
<!-- Node20 -->
<g id="node20" class="node">
<title>Node20</title>
<g id="a_node20"><a xlink:title=" ">
<polygon fill="white" stroke="#bfbfbf" points="1599.5,-62 1599.5,-81 1679.5,-81 1679.5,-62 1599.5,-62"/>
<text text-anchor="middle" x="1639.5" y="-69" font-family="Helvetica,sans-Serif" font-size="10.00">QMetaObject</text>
</a>
</g>
</g>
<!-- Node17&#45;&gt;Node20 -->
<g id="edge20" class="edge">
<title>Node17&#45;&gt;Node20</title>
<path fill="none" stroke="midnightblue" d="M1650.51,-190.37C1641.05,-182.17 1628.06,-168.92 1622.5,-154 1614.64,-132.92 1622.62,-107.33 1630.09,-90.52"/>
<polygon fill="midnightblue" stroke="midnightblue" points="1633.34,-91.84 1634.53,-81.31 1627.04,-88.8 1633.34,-91.84"/>
</g>
<!-- Node21 -->
<g id="node21" class="node">
<title>Node21</title>
<g id="a_node21"><a xlink:title=" ">
<polygon fill="white" stroke="#bfbfbf" points="1728.5,-129 1728.5,-148 1784.5,-148 1784.5,-129 1728.5,-129"/>
<text text-anchor="middle" x="1756.5" y="-136" font-family="Helvetica,sans-Serif" font-size="10.00">QObject</text>
</a>
</g>
</g>
<!-- Node17&#45;&gt;Node21 -->
<g id="edge21" class="edge">
<title>Node17&#45;&gt;Node21</title>
<path fill="none" stroke="midnightblue" d="M1675.11,-190.48C1690.56,-180.8 1715.99,-164.87 1734.32,-153.39"/>
<polygon fill="midnightblue" stroke="midnightblue" points="1736.3,-156.28 1742.91,-148.01 1732.58,-150.35 1736.3,-156.28"/>
</g>
<!-- Node22 -->
<g id="node22" class="node">
<title>Node22</title>
<g id="a_node22"><a xlink:title=" ">
<polygon fill="white" stroke="#bfbfbf" points="1802.5,-129 1802.5,-148 1844.5,-148 1844.5,-129 1802.5,-129"/>
<text text-anchor="middle" x="1823.5" y="-136" font-family="Helvetica,sans-Serif" font-size="10.00">QPair</text>
</a>
</g>
</g>
<!-- Node17&#45;&gt;Node22 -->
<g id="edge22" class="edge">
<title>Node17&#45;&gt;Node22</title>
<path fill="none" stroke="midnightblue" d="M1689.68,-190.49C1716.65,-182.09 1758.33,-168.43 1793.5,-154 1794.7,-153.51 1795.93,-152.99 1797.16,-152.45"/>
<polygon fill="midnightblue" stroke="midnightblue" points="1798.9,-155.5 1806.53,-148.15 1795.98,-149.14 1798.9,-155.5"/>
</g>
<!-- Node23 -->
<g id="node23" class="node">
<title>Node23</title>
<g id="a_node23"><a xlink:title=" ">
<polygon fill="white" stroke="#bfbfbf" points="1698,-62 1698,-81 1753,-81 1753,-62 1698,-62"/>
<text text-anchor="middle" x="1725.5" y="-69" font-family="Helvetica,sans-Serif" font-size="10.00">QVector</text>
</a>
</g>
</g>
<!-- Node17&#45;&gt;Node23 -->
<g id="edge25" class="edge">
<title>Node17&#45;&gt;Node23</title>
<path fill="none" stroke="midnightblue" d="M1658.25,-190.45C1653.22,-175.76 1645.25,-145.17 1656.5,-123 1664.84,-106.56 1681.34,-94.18 1696.1,-85.8"/>
<polygon fill="midnightblue" stroke="midnightblue" points="1697.79,-88.86 1704.99,-81.09 1694.51,-82.68 1697.79,-88.86"/>
</g>
<!-- Node24 -->
<g id="node24" class="node">
<title>Node24</title>
<g id="a_node24"><a xlink:href="../../d8/da5/vdomdocument_8h.html" target="_top" xlink:title=" ">
<polygon fill="white" stroke="black" points="834.5,-129 834.5,-148 936.5,-148 936.5,-129 834.5,-129"/>
<text text-anchor="middle" x="885.5" y="-136" font-family="Helvetica,sans-Serif" font-size="10.00">vdomdocument.h</text>
</a>
</g>
</g>
<!-- Node17&#45;&gt;Node24 -->
<g id="edge27" class="edge">
<title>Node17&#45;&gt;Node24</title>
<path fill="none" stroke="midnightblue" d="M1585.06,-190.79C1582.17,-190.51 1579.31,-190.25 1576.5,-190 1344.25,-169.22 1067.52,-150.96 946.84,-143.31"/>
<polygon fill="midnightblue" stroke="midnightblue" points="946.89,-139.81 936.69,-142.67 946.45,-146.79 946.89,-139.81"/>
</g>
<!-- Node35 -->
<g id="node35" class="node">
<title>Node35</title>
<g id="a_node35"><a xlink:title=" ">
<polygon fill="white" stroke="#bfbfbf" points="1350.5,-62 1350.5,-81 1432.5,-81 1432.5,-62 1350.5,-62"/>
<text text-anchor="middle" x="1391.5" y="-69" font-family="Helvetica,sans-Serif" font-size="10.00">../vmisc/def.h</text>
</a>
</g>
</g>
<!-- Node17&#45;&gt;Node35 -->
<g id="edge48" class="edge">
<title>Node17&#45;&gt;Node35</title>
<path fill="none" stroke="midnightblue" d="M1587.87,-190.5C1516.56,-181.57 1417.35,-167.05 1404.5,-154 1388.35,-137.6 1387.35,-109.69 1388.84,-91.17"/>
<polygon fill="midnightblue" stroke="midnightblue" points="1392.34,-91.37 1389.99,-81.04 1385.39,-90.59 1392.34,-91.37"/>
</g>
<!-- Node38 -->
<g id="node38" class="node">
<title>Node38</title>
<g id="a_node38"><a xlink:href="../../d9/d47/vtoolrecord_8h.html" target="_top" xlink:title=" ">
<polygon fill="white" stroke="black" points="1413,-129 1413,-148 1494,-148 1494,-129 1413,-129"/>
<text text-anchor="middle" x="1453.5" y="-136" font-family="Helvetica,sans-Serif" font-size="10.00">vtoolrecord.h</text>
</a>
</g>
</g>
<!-- Node17&#45;&gt;Node38 -->
<g id="edge44" class="edge">
<title>Node17&#45;&gt;Node38</title>
<path fill="none" stroke="midnightblue" d="M1631.7,-190.48C1595.25,-180.05 1533.42,-162.36 1493.03,-150.81"/>
<polygon fill="midnightblue" stroke="midnightblue" points="1493.82,-147.39 1483.25,-148.01 1491.9,-154.12 1493.82,-147.39"/>
</g>
<!-- Node39 -->
<g id="node39" class="node">
<title>Node39</title>
<g id="a_node39"><a xlink:title=" ">
<polygon fill="white" stroke="#bfbfbf" points="1863,-129 1863,-148 2002,-148 2002,-129 1863,-129"/>
<text text-anchor="middle" x="1932.5" y="-136" font-family="Helvetica,sans-Serif" font-size="10.00">../vwidgets/pen_toolbar.h</text>
</a>
</g>
</g>
<!-- Node17&#45;&gt;Node39 -->
<g id="edge49" class="edge">
<title>Node17&#45;&gt;Node39</title>
<path fill="none" stroke="midnightblue" d="M1700.33,-190.48C1748.62,-179.87 1831.11,-161.76 1883.65,-150.22"/>
<polygon fill="midnightblue" stroke="midnightblue" points="1884.73,-153.57 1893.74,-148.01 1883.23,-146.74 1884.73,-153.57"/>
</g>
<!-- Node40 -->
<g id="node40" class="node">
<title>Node40</title>
<g id="a_node40"><a xlink:href="../../d1/d8d/image__item_8h.html" target="_top" xlink:title=" ">
<polygon fill="white" stroke="black" points="2020.5,-123.5 2020.5,-153.5 2118.5,-153.5 2118.5,-123.5 2020.5,-123.5"/>
<text text-anchor="start" x="2028.5" y="-141.5" font-family="Helvetica,sans-Serif" font-size="10.00">../../tools/images</text>
<text text-anchor="middle" x="2069.5" y="-130.5" font-family="Helvetica,sans-Serif" font-size="10.00">/image_item.h</text>
</a>
</g>
</g>
<!-- Node17&#45;&gt;Node40 -->
<g id="edge50" class="edge">
<title>Node17&#45;&gt;Node40</title>
<path fill="none" stroke="midnightblue" d="M1737.69,-191.8C1806.57,-184.7 1910.9,-172.48 2010.31,-154.09"/>
<polygon fill="midnightblue" stroke="midnightblue" points="2011.04,-157.52 2020.23,-152.24 2009.75,-150.64 2011.04,-157.52"/>
</g>
<!-- Node24&#45;&gt;Node8 -->
<g id="edge35" class="edge">
<title>Node24&#45;&gt;Node8</title>
<path fill="none" stroke="midnightblue" d="M936.9,-135.48C1067.44,-130.01 1409.19,-113.54 1519.5,-87 1522.02,-86.39 1524.59,-85.63 1527.14,-84.78"/>
<polygon fill="midnightblue" stroke="midnightblue" points="1528.6,-87.97 1536.7,-81.14 1526.1,-81.42 1528.6,-87.97"/>
</g>
<!-- Node24&#45;&gt;Node11 -->
<g id="edge38" class="edge">
<title>Node24&#45;&gt;Node11</title>
<path fill="none" stroke="midnightblue" d="M936.8,-137.36C1035.7,-136.09 1259.08,-128.42 1441.5,-87 1444.57,-86.3 1447.73,-85.42 1450.85,-84.44"/>
<polygon fill="midnightblue" stroke="midnightblue" points="1452.27,-87.65 1460.57,-81.07 1449.97,-81.04 1452.27,-87.65"/>
</g>
<!-- Node24&#45;&gt;Node18 -->
<g id="edge32" class="edge">
<title>Node24&#45;&gt;Node18</title>
<path fill="none" stroke="midnightblue" d="M936.77,-135.48C1012.07,-131.49 1156.41,-119.88 1274.5,-87 1276.66,-86.4 1278.85,-85.68 1281.04,-84.9"/>
<polygon fill="midnightblue" stroke="midnightblue" points="1282.41,-88.12 1290.37,-81.13 1279.79,-81.63 1282.41,-88.12"/>
</g>
<!-- Node25 -->
<g id="node25" class="node">
<title>Node25</title>
<g id="a_node25"><a xlink:title=" ">
<polygon fill="white" stroke="#bfbfbf" points="0,-62 0,-81 101,-81 101,-62 0,-62"/>
<text text-anchor="middle" x="50.5" y="-69" font-family="Helvetica,sans-Serif" font-size="10.00">QCoreApplication</text>
</a>
</g>
</g>
<!-- Node24&#45;&gt;Node25 -->
<g id="edge28" class="edge">
<title>Node24&#45;&gt;Node25</title>
<path fill="none" stroke="midnightblue" d="M834.39,-137.2C709.86,-135.81 381.09,-128.2 110.5,-87 104.24,-86.05 97.68,-84.76 91.28,-83.35"/>
<polygon fill="midnightblue" stroke="midnightblue" points="91.97,-79.92 81.44,-81.05 90.38,-86.73 91.97,-79.92"/>
</g>
<!-- Node26 -->
<g id="node26" class="node">
<title>Node26</title>
<g id="a_node26"><a xlink:title=" ">
<polygon fill="white" stroke="#bfbfbf" points="119.5,-62 119.5,-81 217.5,-81 217.5,-62 119.5,-62"/>
<text text-anchor="middle" x="168.5" y="-69" font-family="Helvetica,sans-Serif" font-size="10.00">QDomDocument</text>
</a>
</g>
</g>
<!-- Node24&#45;&gt;Node26 -->
<g id="edge29" class="edge">
<title>Node24&#45;&gt;Node26</title>
<path fill="none" stroke="midnightblue" d="M834.3,-136.51C723.02,-133.71 451.05,-123.41 226.5,-87 220.66,-86.05 214.54,-84.81 208.56,-83.45"/>
<polygon fill="midnightblue" stroke="midnightblue" points="209.24,-80.01 198.7,-81.07 207.61,-86.82 209.24,-80.01"/>
</g>
<!-- Node27 -->
<g id="node27" class="node">
<title>Node27</title>
<g id="a_node27"><a xlink:title=" ">
<polygon fill="white" stroke="#bfbfbf" points="235.5,-62 235.5,-81 323.5,-81 323.5,-62 235.5,-62"/>
<text text-anchor="middle" x="279.5" y="-69" font-family="Helvetica,sans-Serif" font-size="10.00">QDomElement</text>
</a>
</g>
</g>
<!-- Node24&#45;&gt;Node27 -->
<g id="edge30" class="edge">
<title>Node24&#45;&gt;Node27</title>
<path fill="none" stroke="midnightblue" d="M834.4,-135.84C736.35,-131.98 515.35,-120.1 332.5,-87 327.41,-86.08 322.1,-84.9 316.88,-83.61"/>
<polygon fill="midnightblue" stroke="midnightblue" points="317.63,-80.18 307.07,-81.03 315.85,-86.95 317.63,-80.18"/>
</g>
<!-- Node28 -->
<g id="node28" class="node">
<title>Node28</title>
<g id="a_node28"><a xlink:title=" ">
<polygon fill="white" stroke="#bfbfbf" points="342,-62 342,-81 415,-81 415,-62 342,-62"/>
<text text-anchor="middle" x="378.5" y="-69" font-family="Helvetica,sans-Serif" font-size="10.00">QDomNode</text>
</a>
</g>
</g>
<!-- Node24&#45;&gt;Node28 -->
<g id="edge31" class="edge">
<title>Node24&#45;&gt;Node28</title>
<path fill="none" stroke="midnightblue" d="M834.37,-135.3C748.61,-130.86 570.66,-118.41 423.5,-87 419.64,-86.18 415.64,-85.15 411.69,-84.02"/>
<polygon fill="midnightblue" stroke="midnightblue" points="412.66,-80.66 402.08,-81.09 410.62,-87.36 412.66,-80.66"/>
</g>
<!-- Node29 -->
<g id="node29" class="node">
<title>Node29</title>
<g id="a_node29"><a xlink:title=" ">
<polygon fill="white" stroke="#bfbfbf" points="433,-62 433,-81 516,-81 516,-62 433,-62"/>
<text text-anchor="middle" x="474.5" y="-69" font-family="Helvetica,sans-Serif" font-size="10.00">QLatin1String</text>
</a>
</g>
</g>
<!-- Node24&#45;&gt;Node29 -->
<g id="edge33" class="edge">
<title>Node24&#45;&gt;Node29</title>
<path fill="none" stroke="midnightblue" d="M834.44,-132.58C764.32,-125.3 634.49,-110.02 525.5,-87 521.02,-86.05 516.36,-84.93 511.75,-83.73"/>
<polygon fill="midnightblue" stroke="midnightblue" points="512.42,-80.28 501.85,-81.03 510.58,-87.04 512.42,-80.28"/>
</g>
<!-- Node30 -->
<g id="node30" class="node">
<title>Node30</title>
<g id="a_node30"><a xlink:title=" ">
<polygon fill="white" stroke="#bfbfbf" points="534.5,-62 534.5,-81 638.5,-81 638.5,-62 534.5,-62"/>
<text text-anchor="middle" x="586.5" y="-69" font-family="Helvetica,sans-Serif" font-size="10.00">QStaticStringData</text>
</a>
</g>
</g>
<!-- Node24&#45;&gt;Node30 -->
<g id="edge34" class="edge">
<title>Node24&#45;&gt;Node30</title>
<path fill="none" stroke="midnightblue" d="M843.73,-128.96C796.15,-119.15 716.11,-102.43 647.5,-87 642.39,-85.85 637.04,-84.62 631.73,-83.38"/>
<polygon fill="midnightblue" stroke="midnightblue" points="632.16,-79.89 621.63,-81 630.56,-86.7 632.16,-79.89"/>
</g>
<!-- Node31 -->
<g id="node31" class="node">
<title>Node31</title>
<g id="a_node31"><a xlink:title=" ">
<polygon fill="white" stroke="#bfbfbf" points="656.5,-62 656.5,-81 732.5,-81 732.5,-62 656.5,-62"/>
<text text-anchor="middle" x="694.5" y="-69" font-family="Helvetica,sans-Serif" font-size="10.00">QStringData</text>
</a>
</g>
</g>
<!-- Node24&#45;&gt;Node31 -->
<g id="edge36" class="edge">
<title>Node24&#45;&gt;Node31</title>
<path fill="none" stroke="midnightblue" d="M860.14,-128.87C826.51,-117.42 767.02,-97.18 729.24,-84.32"/>
<polygon fill="midnightblue" stroke="midnightblue" points="730.26,-80.97 719.66,-81.06 728,-87.6 730.26,-80.97"/>
</g>
<!-- Node32 -->
<g id="node32" class="node">
<title>Node32</title>
<g id="a_node32"><a xlink:title=" ">
<polygon fill="white" stroke="#bfbfbf" points="751,-62 751,-81 840,-81 840,-62 751,-62"/>
<text text-anchor="middle" x="795.5" y="-69" font-family="Helvetica,sans-Serif" font-size="10.00">QStringDataPtr</text>
</a>
</g>
</g>
<!-- Node24&#45;&gt;Node32 -->
<g id="edge37" class="edge">
<title>Node24&#45;&gt;Node32</title>
<path fill="none" stroke="midnightblue" d="M873.36,-128.73C858.65,-118.11 833.64,-100.05 815.94,-87.26"/>
<polygon fill="midnightblue" stroke="midnightblue" points="817.6,-84.14 807.45,-81.13 813.5,-89.82 817.6,-84.14"/>
</g>
<!-- Node33 -->
<g id="node33" class="node">
<title>Node33</title>
<g id="a_node33"><a xlink:title=" ">
<polygon fill="white" stroke="#bfbfbf" points="857.5,-62 857.5,-81 913.5,-81 913.5,-62 857.5,-62"/>
<text text-anchor="middle" x="885.5" y="-69" font-family="Helvetica,sans-Serif" font-size="10.00">QLocale</text>
</a>
</g>
</g>
<!-- Node24&#45;&gt;Node33 -->
<g id="edge39" class="edge">
<title>Node24&#45;&gt;Node33</title>
<path fill="none" stroke="midnightblue" d="M885.5,-128.73C885.5,-119.18 885.5,-103.62 885.5,-91.28"/>
<polygon fill="midnightblue" stroke="midnightblue" points="889,-91.13 885.5,-81.13 882,-91.13 889,-91.13"/>
</g>
<!-- Node34 -->
<g id="node34" class="node">
<title>Node34</title>
<g id="a_node34"><a xlink:title=" ">
<polygon fill="white" stroke="#bfbfbf" points="932,-62 932,-81 1009,-81 1009,-62 932,-62"/>
<text text-anchor="middle" x="970.5" y="-69" font-family="Helvetica,sans-Serif" font-size="10.00">../ifc/ifcdef.h</text>
</a>
</g>
</g>
<!-- Node24&#45;&gt;Node34 -->
<g id="edge40" class="edge">
<title>Node24&#45;&gt;Node34</title>
<path fill="none" stroke="midnightblue" d="M896.96,-128.73C910.86,-118.11 934.48,-100.05 951.19,-87.26"/>
<polygon fill="midnightblue" stroke="midnightblue" points="953.4,-89.98 959.22,-81.13 949.15,-84.42 953.4,-89.98"/>
</g>
<!-- Node24&#45;&gt;Node35 -->
<g id="edge41" class="edge">
<title>Node24&#45;&gt;Node35</title>
<path fill="none" stroke="midnightblue" d="M936.54,-134.72C1021.32,-129.46 1196.19,-115.89 1341.5,-87 1346.01,-86.1 1350.7,-84.99 1355.33,-83.78"/>
<polygon fill="midnightblue" stroke="midnightblue" points="1356.54,-87.08 1365.24,-81.03 1354.67,-80.33 1356.54,-87.08"/>
</g>
<!-- Node36 -->
<g id="node36" class="node">
<title>Node36</title>
<g id="a_node36"><a xlink:title=" ">
<polygon fill="white" stroke="#bfbfbf" points="1027,-62 1027,-81 1144,-81 1144,-62 1027,-62"/>
<text text-anchor="middle" x="1085.5" y="-69" font-family="Helvetica,sans-Serif" font-size="10.00">../vmisc/diagnostic.h</text>
</a>
</g>
</g>
<!-- Node24&#45;&gt;Node36 -->
<g id="edge42" class="edge">
<title>Node24&#45;&gt;Node36</title>
<path fill="none" stroke="midnightblue" d="M912.06,-128.87C947.42,-117.38 1010.09,-97.01 1049.63,-84.16"/>
<polygon fill="midnightblue" stroke="midnightblue" points="1050.72,-87.48 1059.15,-81.06 1048.56,-80.83 1050.72,-87.48"/>
</g>
<!-- Node37 -->
<g id="node37" class="node">
<title>Node37</title>
<g id="a_node37"><a xlink:title=" ">
<polygon fill="white" stroke="#bfbfbf" points="1162,-62 1162,-81 1265,-81 1265,-62 1162,-62"/>
<text text-anchor="middle" x="1213.5" y="-69" font-family="Helvetica,sans-Serif" font-size="10.00">../vmisc/logging.h</text>
</a>
</g>
</g>
<!-- Node24&#45;&gt;Node37 -->
<g id="edge43" class="edge">
<title>Node24&#45;&gt;Node37</title>
<path fill="none" stroke="midnightblue" d="M935.05,-128.94C988.95,-119.45 1077.58,-103.31 1153.5,-87 1158.8,-85.86 1164.36,-84.6 1169.85,-83.32"/>
<polygon fill="midnightblue" stroke="midnightblue" points="1170.69,-86.72 1179.62,-81.01 1169.08,-79.91 1170.69,-86.72"/>
</g>
<!-- Node38&#45;&gt;Node8 -->
<g id="edge45" class="edge">
<title>Node38&#45;&gt;Node8</title>
<path fill="none" stroke="midnightblue" d="M1467.12,-128.73C1483.93,-117.92 1512.73,-99.38 1532.64,-86.57"/>
<polygon fill="midnightblue" stroke="midnightblue" points="1534.58,-89.48 1541.09,-81.13 1530.79,-83.6 1534.58,-89.48"/>
</g>
<!-- Node38&#45;&gt;Node11 -->
<g id="edge46" class="edge">
<title>Node38&#45;&gt;Node11</title>
<path fill="none" stroke="midnightblue" d="M1457.14,-128.73C1461.19,-118.99 1467.84,-102.98 1473.01,-90.53"/>
<polygon fill="midnightblue" stroke="midnightblue" points="1476.31,-91.7 1476.92,-81.13 1469.85,-89.02 1476.31,-91.7"/>
</g>
<!-- Node38&#45;&gt;Node35 -->
<g id="edge47" class="edge">
<title>Node38&#45;&gt;Node35</title>
<path fill="none" stroke="midnightblue" d="M1445.14,-128.73C1435.38,-118.5 1419.03,-101.36 1406.95,-88.69"/>
<polygon fill="midnightblue" stroke="midnightblue" points="1409.16,-85.95 1399.73,-81.13 1404.1,-90.78 1409.16,-85.95"/>
</g>
<!-- Node40&#45;&gt;Node5 -->
<g id="edge51" class="edge">
<title>Node40&#45;&gt;Node5</title>
<path fill="none" stroke="midnightblue" d="M2118.72,-131.97C2190.09,-123.68 2326.38,-106.88 2441.5,-87 2448.23,-85.84 2455.3,-84.49 2462.24,-83.1"/>
<polygon fill="midnightblue" stroke="midnightblue" points="2463.18,-86.48 2472.27,-81.05 2461.77,-79.63 2463.18,-86.48"/>
</g>
<!-- Node40&#45;&gt;Node8 -->
<g id="edge57" class="edge">
<title>Node40&#45;&gt;Node8</title>
<path fill="none" stroke="midnightblue" d="M2020.25,-124.62C2017.3,-124.02 2014.37,-123.48 2011.5,-123 1826.26,-92.13 1773.17,-130.56 1590.5,-87 1587.83,-86.36 1585.09,-85.56 1582.38,-84.66"/>
<polygon fill="midnightblue" stroke="midnightblue" points="1583.43,-81.32 1572.84,-81.11 1580.99,-87.88 1583.43,-81.32"/>
</g>
<!-- Node40&#45;&gt;Node20 -->
<g id="edge55" class="edge">
<title>Node40&#45;&gt;Node20</title>
<path fill="none" stroke="midnightblue" d="M2020.24,-124.71C2017.29,-124.09 2014.36,-123.52 2011.5,-123 1869.78,-97.48 1830.72,-115.16 1689.5,-87 1684.99,-86.1 1680.3,-84.99 1675.68,-83.78"/>
<polygon fill="midnightblue" stroke="midnightblue" points="1676.33,-80.33 1665.76,-81.03 1674.46,-87.07 1676.33,-80.33"/>
</g>
<!-- Node40&#45;&gt;Node23 -->
<g id="edge59" class="edge">
<title>Node40&#45;&gt;Node23</title>
<path fill="none" stroke="midnightblue" d="M2020.22,-124.82C2017.27,-124.17 2014.35,-123.56 2011.5,-123 1901.79,-101.41 1870.6,-115.59 1762.5,-87 1759.84,-86.3 1757.11,-85.46 1754.4,-84.55"/>
<polygon fill="midnightblue" stroke="midnightblue" points="1755.4,-81.19 1744.81,-81.03 1752.99,-87.76 1755.4,-81.19"/>
</g>
<!-- Node40&#45;&gt;Node35 -->
<g id="edge52" class="edge">
<title>Node40&#45;&gt;Node35</title>
<path fill="none" stroke="midnightblue" d="M2020.26,-124.54C2017.31,-123.97 2014.37,-123.45 2011.5,-123 1761.11,-84.11 1692.24,-129.89 1442.5,-87 1437.6,-86.16 1432.49,-85.03 1427.49,-83.76"/>
<polygon fill="midnightblue" stroke="midnightblue" points="1428.03,-80.28 1417.46,-81.04 1426.19,-87.04 1428.03,-80.28"/>
</g>
<!-- Node41 -->
<g id="node41" class="node">
<title>Node41</title>
<g id="a_node41"><a xlink:title=" ">
<polygon fill="white" stroke="#bfbfbf" points="1994.5,-56.5 1994.5,-86.5 2096.5,-86.5 2096.5,-56.5 1994.5,-56.5"/>
<text text-anchor="start" x="2002.5" y="-74.5" font-family="Helvetica,sans-Serif" font-size="10.00">../vwidgets/resize</text>
<text text-anchor="middle" x="2045.5" y="-63.5" font-family="Helvetica,sans-Serif" font-size="10.00">_handle.h</text>
</a>
</g>
</g>
<!-- Node40&#45;&gt;Node41 -->
<g id="edge53" class="edge">
<title>Node40&#45;&gt;Node41</title>
<path fill="none" stroke="midnightblue" d="M2064.29,-123.4C2061.34,-115.39 2057.56,-105.16 2054.17,-95.98"/>
<polygon fill="midnightblue" stroke="midnightblue" points="2057.44,-94.75 2050.7,-86.58 2050.88,-97.17 2057.44,-94.75"/>
</g>
<!-- Node42 -->
<g id="node42" class="node">
<title>Node42</title>
<g id="a_node42"><a xlink:title=" ">
<polygon fill="white" stroke="#bfbfbf" points="2115,-62 2115,-81 2282,-81 2282,-62 2115,-62"/>
<text text-anchor="middle" x="2198.5" y="-69" font-family="Helvetica,sans-Serif" font-size="10.00">../vmisc/vabstractapplication.h</text>
</a>
</g>
</g>
<!-- Node40&#45;&gt;Node42 -->
<g id="edge54" class="edge">
<title>Node40&#45;&gt;Node42</title>
<path fill="none" stroke="midnightblue" d="M2097.49,-123.4C2119.83,-112.14 2150.87,-96.5 2172.63,-85.54"/>
<polygon fill="midnightblue" stroke="midnightblue" points="2174.26,-88.63 2181.62,-81.01 2171.11,-82.38 2174.26,-88.63"/>
</g>
<!-- Node43 -->
<g id="node43" class="node">
<title>Node43</title>
<g id="a_node43"><a xlink:title=" ">
<polygon fill="white" stroke="#bfbfbf" points="2300,-62 2300,-81 2355,-81 2355,-62 2300,-62"/>
<text text-anchor="middle" x="2327.5" y="-69" font-family="Helvetica,sans-Serif" font-size="10.00">QPointF</text>
</a>
</g>
</g>
<!-- Node40&#45;&gt;Node43 -->
<g id="edge56" class="edge">
<title>Node40&#45;&gt;Node43</title>
<path fill="none" stroke="midnightblue" d="M2118.6,-128.67C2163.98,-119.95 2233.03,-105.3 2291.5,-87 2293.78,-86.29 2296.12,-85.49 2298.45,-84.66"/>
<polygon fill="midnightblue" stroke="midnightblue" points="2299.8,-87.89 2307.9,-81.05 2297.31,-81.35 2299.8,-87.89"/>
</g>
<!-- Node44 -->
<g id="node44" class="node">
<title>Node44</title>
<g id="a_node44"><a xlink:title=" ">
<polygon fill="white" stroke="#bfbfbf" points="2373,-62 2373,-81 2432,-81 2432,-62 2373,-62"/>
<text text-anchor="middle" x="2402.5" y="-69" font-family="Helvetica,sans-Serif" font-size="10.00">QVariant</text>
</a>
</g>
</g>
<!-- Node40&#45;&gt;Node44 -->
<g id="edge58" class="edge">
<title>Node40&#45;&gt;Node44</title>
<path fill="none" stroke="midnightblue" d="M2118.68,-132.06C2177.77,-124.84 2279.55,-110.24 2364.5,-87 2367.15,-86.27 2369.88,-85.43 2372.6,-84.53"/>
<polygon fill="midnightblue" stroke="midnightblue" points="2374,-87.74 2382.23,-81.07 2371.64,-81.15 2374,-87.74"/>
</g>
<!-- Node45 -->
<g id="node45" class="node">
<title>Node45</title>
<g id="a_node45"><a xlink:title=" ">
<polygon fill="white" stroke="#bfbfbf" points="1771.5,-62 1771.5,-81 1869.5,-81 1869.5,-62 1771.5,-62"/>
<text text-anchor="middle" x="1820.5" y="-69" font-family="Helvetica,sans-Serif" font-size="10.00">QtCore/qglobal.h</text>
</a>
</g>
</g>
<!-- Node40&#45;&gt;Node45 -->
<g id="edge60" class="edge">
<title>Node40&#45;&gt;Node45</title>
<path fill="none" stroke="midnightblue" d="M2020.31,-124.66C1974.42,-112.68 1906.66,-94.99 1863.05,-83.61"/>
<polygon fill="midnightblue" stroke="midnightblue" points="1863.88,-80.21 1853.32,-81.07 1862.11,-86.98 1863.88,-80.21"/>
</g>
<!-- Node46 -->
<g id="node46" class="node">
<title>Node46</title>
<g id="a_node46"><a xlink:title=" ">
<polygon fill="white" stroke="#bfbfbf" points="1888,-62 1888,-81 1977,-81 1977,-62 1888,-62"/>
<text text-anchor="middle" x="1932.5" y="-69" font-family="Helvetica,sans-Serif" font-size="10.00">QGraphicsItem</text>
</a>
</g>
</g>
<!-- Node40&#45;&gt;Node46 -->
<g id="edge61" class="edge">
<title>Node40&#45;&gt;Node46</title>
<path fill="none" stroke="midnightblue" d="M2039.77,-123.4C2015.95,-112.09 1982.79,-96.36 1959.67,-85.39"/>
<polygon fill="midnightblue" stroke="midnightblue" points="1960.97,-82.13 1950.43,-81.01 1957.96,-88.46 1960.97,-82.13"/>
</g>
</g>
</svg>
