<?xml version="1.0" encoding="UTF-8" standalone="no"?>
<!DOCTYPE svg PUBLIC "-//W3C//DTD SVG 1.1//EN"
 "http://www.w3.org/Graphics/SVG/1.1/DTD/svg11.dtd">
<!-- Generated by graphviz version 2.43.0 (0)
 -->
<!-- Title: src/libs/vtools/dialogs/support/edit_formula_dialog.h Pages: 1 -->
<svg width="4053pt" height="128pt"
 viewBox="0.00 0.00 4052.50 128.00" xmlns="http://www.w3.org/2000/svg" xmlns:xlink="http://www.w3.org/1999/xlink">
<g id="graph0" class="graph" transform="scale(1 1) rotate(0) translate(4 124)">
<title>src/libs/vtools/dialogs/support/edit_formula_dialog.h</title>
<polygon fill="white" stroke="transparent" points="-4,4 -4,-124 4048.5,-124 4048.5,4 -4,4"/>
<!-- Node1 -->
<g id="node1" class="node">
<title>Node1</title>
<g id="a_node1"><a xlink:title=" ">
<polygon fill="#bfbfbf" stroke="black" points="1959,-78.5 1959,-119.5 2081,-119.5 2081,-78.5 1959,-78.5"/>
<text text-anchor="start" x="1967" y="-107.5" font-family="Helvetica,sans-Serif" font-size="10.00">src/libs/vtools/dialogs</text>
<text text-anchor="start" x="1967" y="-96.5" font-family="Helvetica,sans-Serif" font-size="10.00">/support/edit_formula</text>
<text text-anchor="middle" x="2020" y="-85.5" font-family="Helvetica,sans-Serif" font-size="10.00">_dialog.h</text>
</a>
</g>
</g>
<!-- Node2 -->
<g id="node2" class="node">
<title>Node2</title>
<g id="a_node2"><a xlink:href="../../d7/d8d/edit__formula__dialog_8cpp.html" target="_top" xlink:title=" ">
<polygon fill="white" stroke="black" points="0,-0.5 0,-41.5 122,-41.5 122,-0.5 0,-0.5"/>
<text text-anchor="start" x="8" y="-29.5" font-family="Helvetica,sans-Serif" font-size="10.00">src/libs/vtools/dialogs</text>
<text text-anchor="start" x="8" y="-18.5" font-family="Helvetica,sans-Serif" font-size="10.00">/support/edit_formula</text>
<text text-anchor="middle" x="61" y="-7.5" font-family="Helvetica,sans-Serif" font-size="10.00">_dialog.cpp</text>
</a>
</g>
</g>
<!-- Node1&#45;&gt;Node2 -->
<g id="edge1" class="edge">
<title>Node1&#45;&gt;Node2</title>
<path fill="none" stroke="midnightblue" d="M1948.41,-98.25C1648.36,-98.95 491.07,-97.88 131,-42 128.13,-41.55 125.21,-41.03 122.27,-40.44"/>
<polygon fill="midnightblue" stroke="midnightblue" points="1948.72,-101.75 1958.71,-98.23 1948.71,-94.75 1948.72,-101.75"/>
</g>
<!-- Node3 -->
<g id="node3" class="node">
<title>Node3</title>
<g id="a_node3"><a xlink:href="../../d1/d37/dialogarc_8cpp.html" target="_top" xlink:title=" ">
<polygon fill="white" stroke="black" points="140,-6 140,-36 262,-36 262,-6 140,-6"/>
<text text-anchor="start" x="148" y="-24" font-family="Helvetica,sans-Serif" font-size="10.00">src/libs/vtools/dialogs</text>
<text text-anchor="middle" x="201" y="-13" font-family="Helvetica,sans-Serif" font-size="10.00">/tools/dialogarc.cpp</text>
</a>
</g>
</g>
<!-- Node1&#45;&gt;Node3 -->
<g id="edge2" class="edge">
<title>Node1&#45;&gt;Node3</title>
<path fill="none" stroke="midnightblue" d="M1948.58,-98.05C1662.95,-97.91 602.33,-93.82 271,-42 262.13,-40.61 252.8,-38.46 243.94,-36.07"/>
<polygon fill="midnightblue" stroke="midnightblue" points="1948.81,-101.55 1958.81,-98.06 1948.81,-94.55 1948.81,-101.55"/>
</g>
<!-- Node4 -->
<g id="node4" class="node">
<title>Node4</title>
<g id="a_node4"><a xlink:href="../../d6/d5d/dialogalongline_8cpp.html" target="_top" xlink:title=" ">
<polygon fill="white" stroke="black" points="280,-6 280,-36 422,-36 422,-6 280,-6"/>
<text text-anchor="start" x="288" y="-24" font-family="Helvetica,sans-Serif" font-size="10.00">src/libs/vtools/dialogs</text>
<text text-anchor="middle" x="351" y="-13" font-family="Helvetica,sans-Serif" font-size="10.00">/tools/dialogalongline.cpp</text>
</a>
</g>
</g>
<!-- Node1&#45;&gt;Node4 -->
<g id="edge3" class="edge">
<title>Node1&#45;&gt;Node4</title>
<path fill="none" stroke="midnightblue" d="M1948.99,-97.48C1680.89,-95.19 730.38,-84.22 431,-42 420.93,-40.58 410.3,-38.41 400.18,-36.01"/>
<polygon fill="midnightblue" stroke="midnightblue" points="1948.96,-100.98 1958.99,-97.56 1949.02,-93.98 1948.96,-100.98"/>
</g>
<!-- Node5 -->
<g id="node5" class="node">
<title>Node5</title>
<g id="a_node5"><a xlink:href="../../da/dfa/dialogbisector_8cpp.html" target="_top" xlink:title=" ">
<polygon fill="white" stroke="black" points="440.5,-6 440.5,-36 575.5,-36 575.5,-6 440.5,-6"/>
<text text-anchor="start" x="448.5" y="-24" font-family="Helvetica,sans-Serif" font-size="10.00">src/libs/vtools/dialogs</text>
<text text-anchor="middle" x="508" y="-13" font-family="Helvetica,sans-Serif" font-size="10.00">/tools/dialogbisector.cpp</text>
</a>
</g>
</g>
<!-- Node1&#45;&gt;Node5 -->
<g id="edge4" class="edge">
<title>Node1&#45;&gt;Node5</title>
<path fill="none" stroke="midnightblue" d="M1948.84,-97.25C1697.56,-94.27 852.6,-81.5 585,-42 575.44,-40.59 565.34,-38.45 555.73,-36.1"/>
<polygon fill="midnightblue" stroke="midnightblue" points="1948.9,-100.75 1958.94,-97.37 1948.99,-93.75 1948.9,-100.75"/>
</g>
<!-- Node6 -->
<g id="node6" class="node">
<title>Node6</title>
<g id="a_node6"><a xlink:href="../../d2/d29/dialogarcwithlength_8cpp.html" target="_top" xlink:title=" ">
<polygon fill="white" stroke="black" points="594,-6 594,-36 758,-36 758,-6 594,-6"/>
<text text-anchor="start" x="602" y="-24" font-family="Helvetica,sans-Serif" font-size="10.00">src/libs/vtools/dialogs</text>
<text text-anchor="middle" x="676" y="-13" font-family="Helvetica,sans-Serif" font-size="10.00">/tools/dialogarcwithlength.cpp</text>
</a>
</g>
</g>
<!-- Node1&#45;&gt;Node6 -->
<g id="edge5" class="edge">
<title>Node1&#45;&gt;Node6</title>
<path fill="none" stroke="midnightblue" d="M1948.42,-96.42C1718.13,-91.07 997.97,-72.31 767,-42 755.93,-40.55 744.22,-38.43 733.02,-36.1"/>
<polygon fill="midnightblue" stroke="midnightblue" points="1948.61,-99.92 1958.68,-96.65 1948.77,-92.93 1948.61,-99.92"/>
</g>
<!-- Node7 -->
<g id="node7" class="node">
<title>Node7</title>
<g id="a_node7"><a xlink:href="../../dd/d39/dialogcurveintersectaxis_8cpp.html" target="_top" xlink:title=" ">
<polygon fill="white" stroke="black" points="776.5,-6 776.5,-36 963.5,-36 963.5,-6 776.5,-6"/>
<text text-anchor="start" x="784.5" y="-24" font-family="Helvetica,sans-Serif" font-size="10.00">src/libs/vtools/dialogs</text>
<text text-anchor="middle" x="870" y="-13" font-family="Helvetica,sans-Serif" font-size="10.00">/tools/dialogcurveintersectaxis.cpp</text>
</a>
</g>
</g>
<!-- Node1&#45;&gt;Node7 -->
<g id="edge6" class="edge">
<title>Node1&#45;&gt;Node7</title>
<path fill="none" stroke="midnightblue" d="M1948.84,-97.63C1779.12,-96 1337.47,-87.37 972,-42 959.73,-40.48 946.73,-38.34 934.26,-36.02"/>
<polygon fill="midnightblue" stroke="midnightblue" points="1948.87,-101.13 1958.9,-97.72 1948.93,-94.13 1948.87,-101.13"/>
</g>
<!-- Node8 -->
<g id="node8" class="node">
<title>Node8</title>
<g id="a_node8"><a xlink:href="../../d9/d90/dialogcutarc_8cpp.html" target="_top" xlink:title=" ">
<polygon fill="white" stroke="black" points="981.5,-6 981.5,-36 1108.5,-36 1108.5,-6 981.5,-6"/>
<text text-anchor="start" x="989.5" y="-24" font-family="Helvetica,sans-Serif" font-size="10.00">src/libs/vtools/dialogs</text>
<text text-anchor="middle" x="1045" y="-13" font-family="Helvetica,sans-Serif" font-size="10.00">/tools/dialogcutarc.cpp</text>
</a>
</g>
</g>
<!-- Node1&#45;&gt;Node8 -->
<g id="edge7" class="edge">
<title>Node1&#45;&gt;Node8</title>
<path fill="none" stroke="midnightblue" d="M1948.78,-98.61C1795.51,-98.84 1423.44,-93.48 1117,-42 1108.17,-40.52 1098.87,-38.38 1090,-36.05"/>
<polygon fill="midnightblue" stroke="midnightblue" points="1949.01,-102.11 1959,-98.59 1948.99,-95.11 1949.01,-102.11"/>
</g>
<!-- Node9 -->
<g id="node9" class="node">
<title>Node9</title>
<g id="a_node9"><a xlink:href="../../d3/d2e/dialogcutspline_8cpp.html" target="_top" xlink:title=" ">
<polygon fill="white" stroke="black" points="1126.5,-6 1126.5,-36 1267.5,-36 1267.5,-6 1126.5,-6"/>
<text text-anchor="start" x="1134.5" y="-24" font-family="Helvetica,sans-Serif" font-size="10.00">src/libs/vtools/dialogs</text>
<text text-anchor="middle" x="1197" y="-13" font-family="Helvetica,sans-Serif" font-size="10.00">/tools/dialogcutspline.cpp</text>
</a>
</g>
</g>
<!-- Node1&#45;&gt;Node9 -->
<g id="edge8" class="edge">
<title>Node1&#45;&gt;Node9</title>
<path fill="none" stroke="midnightblue" d="M1948.86,-96.65C1816.03,-93.24 1521.57,-81.49 1277,-42 1267.39,-40.45 1257.24,-38.31 1247.52,-36.01"/>
<polygon fill="midnightblue" stroke="midnightblue" points="1948.83,-100.15 1958.91,-96.9 1949,-93.15 1948.83,-100.15"/>
</g>
<!-- Node10 -->
<g id="node10" class="node">
<title>Node10</title>
<g id="a_node10"><a xlink:href="../../df/ded/tooldialogs_8h.html" target="_top" xlink:title=" ">
<polygon fill="white" stroke="black" points="1286,-6 1286,-36 1408,-36 1408,-6 1286,-6"/>
<text text-anchor="start" x="1294" y="-24" font-family="Helvetica,sans-Serif" font-size="10.00">src/libs/vtools/dialogs</text>
<text text-anchor="middle" x="1347" y="-13" font-family="Helvetica,sans-Serif" font-size="10.00">/tooldialogs.h</text>
</a>
</g>
</g>
<!-- Node1&#45;&gt;Node10 -->
<g id="edge9" class="edge">
<title>Node1&#45;&gt;Node10</title>
<path fill="none" stroke="midnightblue" d="M1948.42,-95.65C1834.87,-90.96 1606.89,-77.63 1417,-42 1408.68,-40.44 1399.92,-38.32 1391.52,-36.05"/>
<polygon fill="midnightblue" stroke="midnightblue" points="1948.58,-99.16 1958.71,-96.06 1948.86,-92.16 1948.58,-99.16"/>
</g>
<!-- Node11 -->
<g id="node11" class="node">
<title>Node11</title>
<g id="a_node11"><a xlink:href="../../df/d30/dialogcutsplinepath_8cpp.html" target="_top" xlink:title=" ">
<polygon fill="white" stroke="black" points="1426.5,-6 1426.5,-36 1589.5,-36 1589.5,-6 1426.5,-6"/>
<text text-anchor="start" x="1434.5" y="-24" font-family="Helvetica,sans-Serif" font-size="10.00">src/libs/vtools/dialogs</text>
<text text-anchor="middle" x="1508" y="-13" font-family="Helvetica,sans-Serif" font-size="10.00">/tools/dialogcutsplinepath.cpp</text>
</a>
</g>
</g>
<!-- Node1&#45;&gt;Node11 -->
<g id="edge10" class="edge">
<title>Node1&#45;&gt;Node11</title>
<path fill="none" stroke="midnightblue" d="M1948.99,-90.48C1864.9,-81.14 1720.73,-63.74 1598,-42 1588.23,-40.27 1577.91,-38.2 1567.89,-36.07"/>
<polygon fill="midnightblue" stroke="midnightblue" points="1948.62,-93.96 1958.95,-91.58 1949.39,-87 1948.62,-93.96"/>
</g>
<!-- Node12 -->
<g id="node12" class="node">
<title>Node12</title>
<g id="a_node12"><a xlink:href="../../d3/d15/dialogendline_8cpp.html" target="_top" xlink:title=" ">
<polygon fill="white" stroke="black" points="1607.5,-6 1607.5,-36 1740.5,-36 1740.5,-6 1607.5,-6"/>
<text text-anchor="start" x="1615.5" y="-24" font-family="Helvetica,sans-Serif" font-size="10.00">src/libs/vtools/dialogs</text>
<text text-anchor="middle" x="1674" y="-13" font-family="Helvetica,sans-Serif" font-size="10.00">/tools/dialogendline.cpp</text>
</a>
</g>
</g>
<!-- Node1&#45;&gt;Node12 -->
<g id="edge11" class="edge">
<title>Node1&#45;&gt;Node12</title>
<path fill="none" stroke="midnightblue" d="M1949.02,-84.34C1894.44,-73.58 1817.23,-57.81 1750,-42 1742.16,-40.16 1733.9,-38.1 1725.83,-36.03"/>
<polygon fill="midnightblue" stroke="midnightblue" points="1948.46,-87.8 1958.94,-86.29 1949.81,-80.93 1948.46,-87.8"/>
</g>
<!-- Node13 -->
<g id="node13" class="node">
<title>Node13</title>
<g id="a_node13"><a xlink:href="../../d9/d68/dialogellipticalarc_8cpp.html" target="_top" xlink:title=" ">
<polygon fill="white" stroke="black" points="1759,-6 1759,-36 1913,-36 1913,-6 1759,-6"/>
<text text-anchor="start" x="1767" y="-24" font-family="Helvetica,sans-Serif" font-size="10.00">src/libs/vtools/dialogs</text>
<text text-anchor="middle" x="1836" y="-13" font-family="Helvetica,sans-Serif" font-size="10.00">/tools/dialogellipticalarc.cpp</text>
</a>
</g>
</g>
<!-- Node1&#45;&gt;Node13 -->
<g id="edge12" class="edge">
<title>Node1&#45;&gt;Node13</title>
<path fill="none" stroke="midnightblue" d="M1963.37,-74.61C1932.88,-62.02 1896.28,-46.9 1870.15,-36.11"/>
<polygon fill="midnightblue" stroke="midnightblue" points="1962.04,-77.85 1972.62,-78.43 1964.71,-71.38 1962.04,-77.85"/>
</g>
<!-- Node14 -->
<g id="node14" class="node">
<title>Node14</title>
<g id="a_node14"><a xlink:href="../../de/d3c/dialoglineintersectaxis_8cpp.html" target="_top" xlink:title=" ">
<polygon fill="white" stroke="black" points="1931,-6 1931,-36 2109,-36 2109,-6 1931,-6"/>
<text text-anchor="start" x="1939" y="-24" font-family="Helvetica,sans-Serif" font-size="10.00">src/libs/vtools/dialogs</text>
<text text-anchor="middle" x="2020" y="-13" font-family="Helvetica,sans-Serif" font-size="10.00">/tools/dialoglineintersectaxis.cpp</text>
</a>
</g>
</g>
<!-- Node1&#45;&gt;Node14 -->
<g id="edge13" class="edge">
<title>Node1&#45;&gt;Node14</title>
<path fill="none" stroke="midnightblue" d="M2020,-68.28C2020,-57.25 2020,-45.25 2020,-36.23"/>
<polygon fill="midnightblue" stroke="midnightblue" points="2016.5,-68.43 2020,-78.43 2023.5,-68.43 2016.5,-68.43"/>
</g>
<!-- Node15 -->
<g id="node15" class="node">
<title>Node15</title>
<g id="a_node15"><a xlink:href="../../d2/d51/dialogmove_8cpp.html" target="_top" xlink:title=" ">
<polygon fill="white" stroke="black" points="2126.5,-6 2126.5,-36 2251.5,-36 2251.5,-6 2126.5,-6"/>
<text text-anchor="start" x="2134.5" y="-24" font-family="Helvetica,sans-Serif" font-size="10.00">src/libs/vtools/dialogs</text>
<text text-anchor="middle" x="2189" y="-13" font-family="Helvetica,sans-Serif" font-size="10.00">/tools/dialogmove.cpp</text>
</a>
</g>
</g>
<!-- Node1&#45;&gt;Node15 -->
<g id="edge14" class="edge">
<title>Node1&#45;&gt;Node15</title>
<path fill="none" stroke="midnightblue" d="M2072.74,-74.28C2100.6,-61.76 2133.84,-46.81 2157.63,-36.11"/>
<polygon fill="midnightblue" stroke="midnightblue" points="2071.21,-71.13 2063.52,-78.43 2074.08,-77.52 2071.21,-71.13"/>
</g>
<!-- Node16 -->
<g id="node16" class="node">
<title>Node16</title>
<g id="a_node16"><a xlink:href="../../da/df4/dialognormal_8cpp.html" target="_top" xlink:title=" ">
<polygon fill="white" stroke="black" points="2269.5,-6 2269.5,-36 2400.5,-36 2400.5,-6 2269.5,-6"/>
<text text-anchor="start" x="2277.5" y="-24" font-family="Helvetica,sans-Serif" font-size="10.00">src/libs/vtools/dialogs</text>
<text text-anchor="middle" x="2335" y="-13" font-family="Helvetica,sans-Serif" font-size="10.00">/tools/dialognormal.cpp</text>
</a>
</g>
</g>
<!-- Node1&#45;&gt;Node16 -->
<g id="edge15" class="edge">
<title>Node1&#45;&gt;Node16</title>
<path fill="none" stroke="midnightblue" d="M2091.05,-82.19C2139.13,-71.32 2204.02,-56.32 2261,-42 2268.49,-40.12 2276.38,-38.06 2284.11,-36.01"/>
<polygon fill="midnightblue" stroke="midnightblue" points="2090.04,-78.83 2081.06,-84.44 2091.58,-85.66 2090.04,-78.83"/>
</g>
<!-- Node17 -->
<g id="node17" class="node">
<title>Node17</title>
<g id="a_node17"><a xlink:href="../../d9/df4/dialogpointofcontact_8cpp.html" target="_top" xlink:title=" ">
<polygon fill="white" stroke="black" points="2418.5,-6 2418.5,-36 2585.5,-36 2585.5,-6 2418.5,-6"/>
<text text-anchor="start" x="2426.5" y="-24" font-family="Helvetica,sans-Serif" font-size="10.00">src/libs/vtools/dialogs</text>
<text text-anchor="middle" x="2502" y="-13" font-family="Helvetica,sans-Serif" font-size="10.00">/tools/dialogpointofcontact.cpp</text>
</a>
</g>
</g>
<!-- Node1&#45;&gt;Node17 -->
<g id="edge16" class="edge">
<title>Node1&#45;&gt;Node17</title>
<path fill="none" stroke="midnightblue" d="M2091.26,-89.32C2169.63,-79.41 2299.19,-61.97 2410,-42 2419.81,-40.23 2430.17,-38.17 2440.26,-36.06"/>
<polygon fill="midnightblue" stroke="midnightblue" points="2090.5,-85.89 2081.01,-90.61 2091.37,-92.83 2090.5,-85.89"/>
</g>
<!-- Node18 -->
<g id="node18" class="node">
<title>Node18</title>
<g id="a_node18"><a xlink:href="../../dc/d64/dialogrotation_8cpp.html" target="_top" xlink:title=" ">
<polygon fill="white" stroke="black" points="2603.5,-6 2603.5,-36 2738.5,-36 2738.5,-6 2603.5,-6"/>
<text text-anchor="start" x="2611.5" y="-24" font-family="Helvetica,sans-Serif" font-size="10.00">src/libs/vtools/dialogs</text>
<text text-anchor="middle" x="2671" y="-13" font-family="Helvetica,sans-Serif" font-size="10.00">/tools/dialogrotation.cpp</text>
</a>
</g>
</g>
<!-- Node1&#45;&gt;Node18 -->
<g id="edge17" class="edge">
<title>Node1&#45;&gt;Node18</title>
<path fill="none" stroke="midnightblue" d="M2091.53,-94.72C2200.77,-88.89 2415.43,-74.16 2595,-42 2603.86,-40.41 2613.21,-38.31 2622.2,-36.07"/>
<polygon fill="midnightblue" stroke="midnightblue" points="2091.09,-91.24 2081.29,-95.26 2091.46,-98.23 2091.09,-91.24"/>
</g>
<!-- Node19 -->
<g id="node19" class="node">
<title>Node19</title>
<g id="a_node19"><a xlink:href="../../df/de5/dialogspline_8cpp.html" target="_top" xlink:title=" ">
<polygon fill="white" stroke="black" points="2757,-6 2757,-36 2883,-36 2883,-6 2757,-6"/>
<text text-anchor="start" x="2765" y="-24" font-family="Helvetica,sans-Serif" font-size="10.00">src/libs/vtools/dialogs</text>
<text text-anchor="middle" x="2820" y="-13" font-family="Helvetica,sans-Serif" font-size="10.00">/tools/dialogspline.cpp</text>
</a>
</g>
</g>
<!-- Node1&#45;&gt;Node19 -->
<g id="edge18" class="edge">
<title>Node1&#45;&gt;Node19</title>
<path fill="none" stroke="midnightblue" d="M2091.69,-97.09C2222.9,-94.4 2510.05,-83.79 2748,-42 2756.69,-40.47 2765.84,-38.35 2774.6,-36.05"/>
<polygon fill="midnightblue" stroke="midnightblue" points="2091.31,-93.59 2081.38,-97.29 2091.45,-100.59 2091.31,-93.59"/>
</g>
<!-- Node20 -->
<g id="node20" class="node">
<title>Node20</title>
<g id="a_node20"><a xlink:href="../../d3/d23/dialogshoulderpoint_8cpp.html" target="_top" xlink:title=" ">
<polygon fill="white" stroke="black" points="2901,-6 2901,-36 3065,-36 3065,-6 2901,-6"/>
<text text-anchor="start" x="2909" y="-24" font-family="Helvetica,sans-Serif" font-size="10.00">src/libs/vtools/dialogs</text>
<text text-anchor="middle" x="2983" y="-13" font-family="Helvetica,sans-Serif" font-size="10.00">/tools/dialogshoulderpoint.cpp</text>
</a>
</g>
</g>
<!-- Node1&#45;&gt;Node20 -->
<g id="edge19" class="edge">
<title>Node1&#45;&gt;Node20</title>
<path fill="none" stroke="midnightblue" d="M2091.51,-97.08C2240.91,-94.37 2596.78,-83.67 2892,-42 2902.89,-40.46 2914.42,-38.33 2925.47,-36.03"/>
<polygon fill="midnightblue" stroke="midnightblue" points="2091.05,-93.59 2081.11,-97.27 2091.17,-100.59 2091.05,-93.59"/>
</g>
<!-- Node21 -->
<g id="node21" class="node">
<title>Node21</title>
<g id="a_node21"><a xlink:href="../../dc/dc2/dialogsplinepath_8cpp.html" target="_top" xlink:title=" ">
<polygon fill="white" stroke="black" points="3083,-6 3083,-36 3231,-36 3231,-6 3083,-6"/>
<text text-anchor="start" x="3091" y="-24" font-family="Helvetica,sans-Serif" font-size="10.00">src/libs/vtools/dialogs</text>
<text text-anchor="middle" x="3157" y="-13" font-family="Helvetica,sans-Serif" font-size="10.00">/tools/dialogsplinepath.cpp</text>
</a>
</g>
</g>
<!-- Node1&#45;&gt;Node21 -->
<g id="edge20" class="edge">
<title>Node1&#45;&gt;Node21</title>
<path fill="none" stroke="midnightblue" d="M2091.4,-98.7C2262.16,-99.4 2707.28,-95.46 3074,-42 3084.12,-40.52 3094.81,-38.39 3105.04,-36.06"/>
<polygon fill="midnightblue" stroke="midnightblue" points="2091.29,-95.2 2081.28,-98.65 2091.26,-102.2 2091.29,-95.2"/>
</g>
<!-- Node22 -->
<g id="node22" class="node">
<title>Node22</title>
<g id="a_node22"><a xlink:href="../../d5/de8/intersect__circles__dialog_8cpp.html" target="_top" xlink:title=" ">
<polygon fill="white" stroke="black" points="3249,-0.5 3249,-41.5 3375,-41.5 3375,-0.5 3249,-0.5"/>
<text text-anchor="start" x="3257" y="-29.5" font-family="Helvetica,sans-Serif" font-size="10.00">src/libs/vtools/dialogs</text>
<text text-anchor="start" x="3257" y="-18.5" font-family="Helvetica,sans-Serif" font-size="10.00">/tools/intersect_circles</text>
<text text-anchor="middle" x="3312" y="-7.5" font-family="Helvetica,sans-Serif" font-size="10.00">_dialog.cpp</text>
</a>
</g>
</g>
<!-- Node1&#45;&gt;Node22 -->
<g id="edge21" class="edge">
<title>Node1&#45;&gt;Node22</title>
<path fill="none" stroke="midnightblue" d="M2091.33,-96.83C2317.44,-92.8 3016.53,-77.7 3240,-42 3242.95,-41.53 3245.94,-40.98 3248.96,-40.37"/>
<polygon fill="midnightblue" stroke="midnightblue" points="2091.18,-93.33 2081.24,-97.01 2091.3,-100.33 2091.18,-93.33"/>
</g>
<!-- Node23 -->
<g id="node23" class="node">
<title>Node23</title>
<g id="a_node23"><a xlink:href="../../dc/d82/dialoginternalpath_8cpp.html" target="_top" xlink:title=" ">
<polygon fill="white" stroke="black" points="3393.5,-6 3393.5,-36 3578.5,-36 3578.5,-6 3393.5,-6"/>
<text text-anchor="start" x="3401.5" y="-24" font-family="Helvetica,sans-Serif" font-size="10.00">src/libs/vtools/dialogs</text>
<text text-anchor="middle" x="3486" y="-13" font-family="Helvetica,sans-Serif" font-size="10.00">/tools/piece/dialoginternalpath.cpp</text>
</a>
</g>
</g>
<!-- Node1&#45;&gt;Node23 -->
<g id="edge22" class="edge">
<title>Node1&#45;&gt;Node23</title>
<path fill="none" stroke="midnightblue" d="M2091.22,-96.51C2334.26,-91.21 3129.91,-71.95 3384,-42 3396.46,-40.53 3409.67,-38.39 3422.3,-36.04"/>
<polygon fill="midnightblue" stroke="midnightblue" points="2091.01,-93.02 2081.09,-96.73 2091.16,-100.01 2091.01,-93.02"/>
</g>
<!-- Node24 -->
<g id="node24" class="node">
<title>Node24</title>
<g id="a_node24"><a xlink:href="../../de/d46/pattern__piece__dialog_8cpp.html" target="_top" xlink:title=" ">
<polygon fill="white" stroke="black" points="3596.5,-0.5 3596.5,-41.5 3739.5,-41.5 3739.5,-0.5 3596.5,-0.5"/>
<text text-anchor="start" x="3604.5" y="-29.5" font-family="Helvetica,sans-Serif" font-size="10.00">src/libs/vtools/dialogs</text>
<text text-anchor="start" x="3604.5" y="-18.5" font-family="Helvetica,sans-Serif" font-size="10.00">/tools/piece/pattern_piece</text>
<text text-anchor="middle" x="3668" y="-7.5" font-family="Helvetica,sans-Serif" font-size="10.00">_dialog.cpp</text>
</a>
</g>
</g>
<!-- Node1&#45;&gt;Node24 -->
<g id="edge23" class="edge">
<title>Node1&#45;&gt;Node24</title>
<path fill="none" stroke="midnightblue" d="M2091.37,-97.43C2357.66,-95.01 3293.06,-83.67 3588,-42 3590.69,-41.62 3593.43,-41.19 3596.18,-40.71"/>
<polygon fill="midnightblue" stroke="midnightblue" points="2091.02,-93.94 2081.06,-97.53 2091.09,-100.94 2091.02,-93.94"/>
</g>
<!-- Node25 -->
<g id="node25" class="node">
<title>Node25</title>
<g id="a_node25"><a xlink:href="../../d5/d5a/intersect__circletangent__dialog_8cpp.html" target="_top" xlink:title=" ">
<polygon fill="white" stroke="black" points="3758,-0.5 3758,-41.5 3916,-41.5 3916,-0.5 3758,-0.5"/>
<text text-anchor="start" x="3766" y="-29.5" font-family="Helvetica,sans-Serif" font-size="10.00">src/libs/vtools/dialogs</text>
<text text-anchor="start" x="3766" y="-18.5" font-family="Helvetica,sans-Serif" font-size="10.00">/tools/intersect_circletangent</text>
<text text-anchor="middle" x="3837" y="-7.5" font-family="Helvetica,sans-Serif" font-size="10.00">_dialog.cpp</text>
</a>
</g>
</g>
<!-- Node1&#45;&gt;Node25 -->
<g id="edge24" class="edge">
<title>Node1&#45;&gt;Node25</title>
<path fill="none" stroke="midnightblue" d="M2091.48,-97.51C2374.96,-95.26 3420.55,-84.25 3749,-42 3751.95,-41.62 3754.95,-41.19 3757.97,-40.71"/>
<polygon fill="midnightblue" stroke="midnightblue" points="2091.3,-94.01 2081.33,-97.58 2091.35,-101.01 2091.3,-94.01"/>
</g>
<!-- Node26 -->
<g id="node26" class="node">
<title>Node26</title>
<g id="a_node26"><a xlink:href="../../d9/d4e/vabstracttool_8cpp.html" target="_top" xlink:title=" ">
<polygon fill="white" stroke="black" points="3933.5,-6 3933.5,-36 4044.5,-36 4044.5,-6 3933.5,-6"/>
<text text-anchor="start" x="3941.5" y="-24" font-family="Helvetica,sans-Serif" font-size="10.00">src/libs/vtools/tools</text>
<text text-anchor="middle" x="3989" y="-13" font-family="Helvetica,sans-Serif" font-size="10.00">/vabstracttool.cpp</text>
</a>
</g>
</g>
<!-- Node1&#45;&gt;Node26 -->
<g id="edge25" class="edge">
<title>Node1&#45;&gt;Node26</title>
<path fill="none" stroke="midnightblue" d="M2091.38,-97.06C2415.63,-92.61 3741.91,-72.7 3925,-42 3933.15,-40.63 3941.7,-38.49 3949.81,-36.1"/>
<polygon fill="midnightblue" stroke="midnightblue" points="2091.13,-93.56 2081.17,-97.2 2091.22,-100.56 2091.13,-93.56"/>
</g>
</g>
</svg>
