<?xml version="1.0" encoding="UTF-8" standalone="no"?>
<!DOCTYPE svg PUBLIC "-//W3C//DTD SVG 1.1//EN"
 "http://www.w3.org/Graphics/SVG/1.1/DTD/svg11.dtd">
<!-- Generated by graphviz version 2.43.0 (0)
 -->
<!-- Title: src/libs/vtools/dialogs/support/edit_formula_dialog.h Pages: 1 -->
<svg width="4051pt" height="128pt"
 viewBox="0.00 0.00 4050.50 128.00" xmlns="http://www.w3.org/2000/svg" xmlns:xlink="http://www.w3.org/1999/xlink">
<g id="graph0" class="graph" transform="scale(1 1) rotate(0) translate(4 124)">
<title>src/libs/vtools/dialogs/support/edit_formula_dialog.h</title>
<polygon fill="white" stroke="transparent" points="-4,4 -4,-124 4046.5,-124 4046.5,4 -4,4"/>
<!-- Node1 -->
<g id="node1" class="node">
<title>Node1</title>
<g id="a_node1"><a xlink:title=" ">
<polygon fill="#bfbfbf" stroke="black" points="1958,-78.5 1958,-119.5 2080,-119.5 2080,-78.5 1958,-78.5"/>
<text text-anchor="start" x="1966" y="-107.5" font-family="Helvetica,sans-Serif" font-size="10.00">src/libs/vtools/dialogs</text>
<text text-anchor="start" x="1966" y="-96.5" font-family="Helvetica,sans-Serif" font-size="10.00">/support/edit_formula</text>
<text text-anchor="middle" x="2019" y="-85.5" font-family="Helvetica,sans-Serif" font-size="10.00">_dialog.h</text>
</a>
</g>
</g>
<!-- Node2 -->
<g id="node2" class="node">
<title>Node2</title>
<g id="a_node2"><a xlink:href="../../d7/d8d/edit__formula__dialog_8cpp.html" target="_top" xlink:title=" ">
<polygon fill="white" stroke="black" points="0,-0.5 0,-41.5 122,-41.5 122,-0.5 0,-0.5"/>
<text text-anchor="start" x="8" y="-29.5" font-family="Helvetica,sans-Serif" font-size="10.00">src/libs/vtools/dialogs</text>
<text text-anchor="start" x="8" y="-18.5" font-family="Helvetica,sans-Serif" font-size="10.00">/support/edit_formula</text>
<text text-anchor="middle" x="61" y="-7.5" font-family="Helvetica,sans-Serif" font-size="10.00">_dialog.cpp</text>
</a>
</g>
</g>
<!-- Node1&#45;&gt;Node2 -->
<g id="edge1" class="edge">
<title>Node1&#45;&gt;Node2</title>
<path fill="none" stroke="midnightblue" d="M1947.44,-98.25C1647.55,-98.94 490.88,-97.85 131,-42 128.13,-41.55 125.21,-41.03 122.27,-40.44"/>
<polygon fill="midnightblue" stroke="midnightblue" points="1947.76,-101.75 1957.75,-98.23 1947.74,-94.75 1947.76,-101.75"/>
</g>
<!-- Node3 -->
<g id="node3" class="node">
<title>Node3</title>
<g id="a_node3"><a xlink:href="../../d6/d5d/dialogalongline_8cpp.html" target="_top" xlink:title=" ">
<polygon fill="white" stroke="black" points="140,-6 140,-36 282,-36 282,-6 140,-6"/>
<text text-anchor="start" x="148" y="-24" font-family="Helvetica,sans-Serif" font-size="10.00">src/libs/vtools/dialogs</text>
<text text-anchor="middle" x="211" y="-13" font-family="Helvetica,sans-Serif" font-size="10.00">/tools/dialogalongline.cpp</text>
</a>
</g>
</g>
<!-- Node1&#45;&gt;Node3 -->
<g id="edge2" class="edge">
<title>Node1&#45;&gt;Node3</title>
<path fill="none" stroke="midnightblue" d="M1947.53,-97.71C1664.11,-96.24 618.78,-87.75 291,-42 280.93,-40.59 270.3,-38.43 260.18,-36.04"/>
<polygon fill="midnightblue" stroke="midnightblue" points="1947.67,-101.21 1957.69,-97.76 1947.7,-94.21 1947.67,-101.21"/>
</g>
<!-- Node4 -->
<g id="node4" class="node">
<title>Node4</title>
<g id="a_node4"><a xlink:href="../../d1/d37/dialogarc_8cpp.html" target="_top" xlink:title=" ">
<polygon fill="white" stroke="black" points="300,-6 300,-36 422,-36 422,-6 300,-6"/>
<text text-anchor="start" x="308" y="-24" font-family="Helvetica,sans-Serif" font-size="10.00">src/libs/vtools/dialogs</text>
<text text-anchor="middle" x="361" y="-13" font-family="Helvetica,sans-Serif" font-size="10.00">/tools/dialogarc.cpp</text>
</a>
</g>
</g>
<!-- Node1&#45;&gt;Node4 -->
<g id="edge3" class="edge">
<title>Node1&#45;&gt;Node4</title>
<path fill="none" stroke="midnightblue" d="M1947.98,-97.79C1679.89,-96.62 729.45,-89.18 431,-42 422.14,-40.6 412.8,-38.44 403.95,-36.04"/>
<polygon fill="midnightblue" stroke="midnightblue" points="1947.97,-101.29 1957.98,-97.83 1948,-94.29 1947.97,-101.29"/>
</g>
<!-- Node5 -->
<g id="node5" class="node">
<title>Node5</title>
<g id="a_node5"><a xlink:href="../../df/ded/tooldialogs_8h.html" target="_top" xlink:title=" ">
<polygon fill="white" stroke="black" points="440,-6 440,-36 562,-36 562,-6 440,-6"/>
<text text-anchor="start" x="448" y="-24" font-family="Helvetica,sans-Serif" font-size="10.00">src/libs/vtools/dialogs</text>
<text text-anchor="middle" x="501" y="-13" font-family="Helvetica,sans-Serif" font-size="10.00">/tooldialogs.h</text>
</a>
</g>
</g>
<!-- Node1&#45;&gt;Node5 -->
<g id="edge4" class="edge">
<title>Node1&#45;&gt;Node5</title>
<path fill="none" stroke="midnightblue" d="M1947.59,-97.5C1694.45,-95.37 840.68,-85.1 571,-42 562.14,-40.58 552.81,-38.41 543.95,-36.02"/>
<polygon fill="midnightblue" stroke="midnightblue" points="1947.74,-101 1957.77,-97.58 1947.8,-94 1947.74,-101"/>
</g>
<!-- Node6 -->
<g id="node6" class="node">
<title>Node6</title>
<g id="a_node6"><a xlink:href="../../d2/d29/dialogarcwithlength_8cpp.html" target="_top" xlink:title=" ">
<polygon fill="white" stroke="black" points="580,-6 580,-36 744,-36 744,-6 580,-6"/>
<text text-anchor="start" x="588" y="-24" font-family="Helvetica,sans-Serif" font-size="10.00">src/libs/vtools/dialogs</text>
<text text-anchor="middle" x="662" y="-13" font-family="Helvetica,sans-Serif" font-size="10.00">/tools/dialogarcwithlength.cpp</text>
</a>
</g>
</g>
<!-- Node1&#45;&gt;Node6 -->
<g id="edge5" class="edge">
<title>Node1&#45;&gt;Node6</title>
<path fill="none" stroke="midnightblue" d="M1947.48,-96.46C1715.67,-91.2 986.64,-72.61 753,-42 741.77,-40.53 729.88,-38.37 718.53,-36"/>
<polygon fill="midnightblue" stroke="midnightblue" points="1947.73,-99.96 1957.81,-96.69 1947.89,-92.97 1947.73,-99.96"/>
</g>
<!-- Node7 -->
<g id="node7" class="node">
<title>Node7</title>
<g id="a_node7"><a xlink:href="../../da/dfa/dialogbisector_8cpp.html" target="_top" xlink:title=" ">
<polygon fill="white" stroke="black" points="762.5,-6 762.5,-36 897.5,-36 897.5,-6 762.5,-6"/>
<text text-anchor="start" x="770.5" y="-24" font-family="Helvetica,sans-Serif" font-size="10.00">src/libs/vtools/dialogs</text>
<text text-anchor="middle" x="830" y="-13" font-family="Helvetica,sans-Serif" font-size="10.00">/tools/dialogbisector.cpp</text>
</a>
</g>
</g>
<!-- Node1&#45;&gt;Node7 -->
<g id="edge6" class="edge">
<title>Node1&#45;&gt;Node7</title>
<path fill="none" stroke="midnightblue" d="M1947.86,-96.35C1735.46,-91.11 1108.1,-73.33 906,-42 896.56,-40.54 886.6,-38.38 877.11,-36.01"/>
<polygon fill="midnightblue" stroke="midnightblue" points="1947.88,-99.85 1957.96,-96.59 1948.05,-92.85 1947.88,-99.85"/>
</g>
<!-- Node8 -->
<g id="node8" class="node">
<title>Node8</title>
<g id="a_node8"><a xlink:href="../../dd/d39/dialogcurveintersectaxis_8cpp.html" target="_top" xlink:title=" ">
<polygon fill="white" stroke="black" points="915.5,-6 915.5,-36 1102.5,-36 1102.5,-6 915.5,-6"/>
<text text-anchor="start" x="923.5" y="-24" font-family="Helvetica,sans-Serif" font-size="10.00">src/libs/vtools/dialogs</text>
<text text-anchor="middle" x="1009" y="-13" font-family="Helvetica,sans-Serif" font-size="10.00">/tools/dialogcurveintersectaxis.cpp</text>
</a>
</g>
</g>
<!-- Node1&#45;&gt;Node8 -->
<g id="edge7" class="edge">
<title>Node1&#45;&gt;Node8</title>
<path fill="none" stroke="midnightblue" d="M1947.66,-96.8C1794.08,-93.51 1420.91,-81.76 1111,-42 1098.92,-40.45 1086.12,-38.33 1073.81,-36.04"/>
<polygon fill="midnightblue" stroke="midnightblue" points="1947.83,-100.3 1957.9,-97.01 1947.97,-93.3 1947.83,-100.3"/>
</g>
<!-- Node9 -->
<g id="node9" class="node">
<title>Node9</title>
<g id="a_node9"><a xlink:href="../../d9/d90/dialogcutarc_8cpp.html" target="_top" xlink:title=" ">
<polygon fill="white" stroke="black" points="1120.5,-6 1120.5,-36 1247.5,-36 1247.5,-6 1120.5,-6"/>
<text text-anchor="start" x="1128.5" y="-24" font-family="Helvetica,sans-Serif" font-size="10.00">src/libs/vtools/dialogs</text>
<text text-anchor="middle" x="1184" y="-13" font-family="Helvetica,sans-Serif" font-size="10.00">/tools/dialogcutarc.cpp</text>
</a>
</g>
</g>
<!-- Node1&#45;&gt;Node9 -->
<g id="edge8" class="edge">
<title>Node1&#45;&gt;Node9</title>
<path fill="none" stroke="midnightblue" d="M1947.4,-97.45C1811.58,-95.36 1507.57,-85.73 1256,-42 1247.31,-40.49 1238.15,-38.37 1229.4,-36.07"/>
<polygon fill="midnightblue" stroke="midnightblue" points="1947.62,-100.95 1957.67,-97.59 1947.72,-93.95 1947.62,-100.95"/>
</g>
<!-- Node10 -->
<g id="node10" class="node">
<title>Node10</title>
<g id="a_node10"><a xlink:href="../../d3/d2e/dialogcutspline_8cpp.html" target="_top" xlink:title=" ">
<polygon fill="white" stroke="black" points="1265.5,-6 1265.5,-36 1406.5,-36 1406.5,-6 1265.5,-6"/>
<text text-anchor="start" x="1273.5" y="-24" font-family="Helvetica,sans-Serif" font-size="10.00">src/libs/vtools/dialogs</text>
<text text-anchor="middle" x="1336" y="-13" font-family="Helvetica,sans-Serif" font-size="10.00">/tools/dialogcutspline.cpp</text>
</a>
</g>
</g>
<!-- Node1&#45;&gt;Node10 -->
<g id="edge9" class="edge">
<title>Node1&#45;&gt;Node10</title>
<path fill="none" stroke="midnightblue" d="M1947.42,-94.97C1833.86,-89.35 1605.73,-74.78 1415,-42 1405.8,-40.42 1396.09,-38.32 1386.75,-36.08"/>
<polygon fill="midnightblue" stroke="midnightblue" points="1947.56,-98.48 1957.72,-95.47 1947.9,-91.49 1947.56,-98.48"/>
</g>
<!-- Node11 -->
<g id="node11" class="node">
<title>Node11</title>
<g id="a_node11"><a xlink:href="../../df/d30/dialogcutsplinepath_8cpp.html" target="_top" xlink:title=" ">
<polygon fill="white" stroke="black" points="1424.5,-6 1424.5,-36 1587.5,-36 1587.5,-6 1424.5,-6"/>
<text text-anchor="start" x="1432.5" y="-24" font-family="Helvetica,sans-Serif" font-size="10.00">src/libs/vtools/dialogs</text>
<text text-anchor="middle" x="1506" y="-13" font-family="Helvetica,sans-Serif" font-size="10.00">/tools/dialogcutsplinepath.cpp</text>
</a>
</g>
</g>
<!-- Node1&#45;&gt;Node11 -->
<g id="edge10" class="edge">
<title>Node1&#45;&gt;Node11</title>
<path fill="none" stroke="midnightblue" d="M1948,-90.43C1863.91,-81.04 1719.75,-63.59 1597,-42 1587.12,-40.26 1576.69,-38.19 1566.56,-36.06"/>
<polygon fill="midnightblue" stroke="midnightblue" points="1947.63,-93.91 1957.95,-91.54 1948.4,-86.95 1947.63,-93.91"/>
</g>
<!-- Node12 -->
<g id="node12" class="node">
<title>Node12</title>
<g id="a_node12"><a xlink:href="../../d9/d68/dialogellipticalarc_8cpp.html" target="_top" xlink:title=" ">
<polygon fill="white" stroke="black" points="1606,-6 1606,-36 1760,-36 1760,-6 1606,-6"/>
<text text-anchor="start" x="1614" y="-24" font-family="Helvetica,sans-Serif" font-size="10.00">src/libs/vtools/dialogs</text>
<text text-anchor="middle" x="1683" y="-13" font-family="Helvetica,sans-Serif" font-size="10.00">/tools/dialogellipticalarc.cpp</text>
</a>
</g>
</g>
<!-- Node1&#45;&gt;Node12 -->
<g id="edge11" class="edge">
<title>Node1&#45;&gt;Node12</title>
<path fill="none" stroke="midnightblue" d="M1947.77,-82.21C1897.73,-71.07 1829.24,-55.75 1769,-42 1760.63,-40.09 1751.81,-38.06 1743.13,-36.05"/>
<polygon fill="midnightblue" stroke="midnightblue" points="1947.32,-85.69 1957.84,-84.45 1948.84,-78.86 1947.32,-85.69"/>
</g>
<!-- Node13 -->
<g id="node13" class="node">
<title>Node13</title>
<g id="a_node13"><a xlink:href="../../d3/d15/dialogendline_8cpp.html" target="_top" xlink:title=" ">
<polygon fill="white" stroke="black" points="1778.5,-6 1778.5,-36 1911.5,-36 1911.5,-6 1778.5,-6"/>
<text text-anchor="start" x="1786.5" y="-24" font-family="Helvetica,sans-Serif" font-size="10.00">src/libs/vtools/dialogs</text>
<text text-anchor="middle" x="1845" y="-13" font-family="Helvetica,sans-Serif" font-size="10.00">/tools/dialogendline.cpp</text>
</a>
</g>
</g>
<!-- Node1&#45;&gt;Node13 -->
<g id="edge12" class="edge">
<title>Node1&#45;&gt;Node13</title>
<path fill="none" stroke="midnightblue" d="M1964.7,-74.28C1936.02,-61.76 1901.79,-46.81 1877.3,-36.11"/>
<polygon fill="midnightblue" stroke="midnightblue" points="1963.63,-77.63 1974.19,-78.43 1966.43,-71.22 1963.63,-77.63"/>
</g>
<!-- Node14 -->
<g id="node14" class="node">
<title>Node14</title>
<g id="a_node14"><a xlink:href="../../de/d3c/dialoglineintersectaxis_8cpp.html" target="_top" xlink:title=" ">
<polygon fill="white" stroke="black" points="1930,-6 1930,-36 2108,-36 2108,-6 1930,-6"/>
<text text-anchor="start" x="1938" y="-24" font-family="Helvetica,sans-Serif" font-size="10.00">src/libs/vtools/dialogs</text>
<text text-anchor="middle" x="2019" y="-13" font-family="Helvetica,sans-Serif" font-size="10.00">/tools/dialoglineintersectaxis.cpp</text>
</a>
</g>
</g>
<!-- Node1&#45;&gt;Node14 -->
<g id="edge13" class="edge">
<title>Node1&#45;&gt;Node14</title>
<path fill="none" stroke="midnightblue" d="M2019,-68.28C2019,-57.25 2019,-45.25 2019,-36.23"/>
<polygon fill="midnightblue" stroke="midnightblue" points="2015.5,-68.43 2019,-78.43 2022.5,-68.43 2015.5,-68.43"/>
</g>
<!-- Node15 -->
<g id="node15" class="node">
<title>Node15</title>
<g id="a_node15"><a xlink:href="../../d2/d51/dialogmove_8cpp.html" target="_top" xlink:title=" ">
<polygon fill="white" stroke="black" points="2125.5,-6 2125.5,-36 2250.5,-36 2250.5,-6 2125.5,-6"/>
<text text-anchor="start" x="2133.5" y="-24" font-family="Helvetica,sans-Serif" font-size="10.00">src/libs/vtools/dialogs</text>
<text text-anchor="middle" x="2188" y="-13" font-family="Helvetica,sans-Serif" font-size="10.00">/tools/dialogmove.cpp</text>
</a>
</g>
</g>
<!-- Node1&#45;&gt;Node15 -->
<g id="edge14" class="edge">
<title>Node1&#45;&gt;Node15</title>
<path fill="none" stroke="midnightblue" d="M2071.74,-74.28C2099.6,-61.76 2132.84,-46.81 2156.63,-36.11"/>
<polygon fill="midnightblue" stroke="midnightblue" points="2070.21,-71.13 2062.52,-78.43 2073.08,-77.52 2070.21,-71.13"/>
</g>
<!-- Node16 -->
<g id="node16" class="node">
<title>Node16</title>
<g id="a_node16"><a xlink:href="../../da/df4/dialognormal_8cpp.html" target="_top" xlink:title=" ">
<polygon fill="white" stroke="black" points="2268.5,-6 2268.5,-36 2399.5,-36 2399.5,-6 2268.5,-6"/>
<text text-anchor="start" x="2276.5" y="-24" font-family="Helvetica,sans-Serif" font-size="10.00">src/libs/vtools/dialogs</text>
<text text-anchor="middle" x="2334" y="-13" font-family="Helvetica,sans-Serif" font-size="10.00">/tools/dialognormal.cpp</text>
</a>
</g>
</g>
<!-- Node1&#45;&gt;Node16 -->
<g id="edge15" class="edge">
<title>Node1&#45;&gt;Node16</title>
<path fill="none" stroke="midnightblue" d="M2090.05,-82.19C2138.13,-71.32 2203.02,-56.32 2260,-42 2267.49,-40.12 2275.38,-38.06 2283.11,-36.01"/>
<polygon fill="midnightblue" stroke="midnightblue" points="2089.04,-78.83 2080.06,-84.44 2090.58,-85.66 2089.04,-78.83"/>
</g>
<!-- Node17 -->
<g id="node17" class="node">
<title>Node17</title>
<g id="a_node17"><a xlink:href="../../d9/df4/dialogpointofcontact_8cpp.html" target="_top" xlink:title=" ">
<polygon fill="white" stroke="black" points="2417.5,-6 2417.5,-36 2584.5,-36 2584.5,-6 2417.5,-6"/>
<text text-anchor="start" x="2425.5" y="-24" font-family="Helvetica,sans-Serif" font-size="10.00">src/libs/vtools/dialogs</text>
<text text-anchor="middle" x="2501" y="-13" font-family="Helvetica,sans-Serif" font-size="10.00">/tools/dialogpointofcontact.cpp</text>
</a>
</g>
</g>
<!-- Node1&#45;&gt;Node17 -->
<g id="edge16" class="edge">
<title>Node1&#45;&gt;Node17</title>
<path fill="none" stroke="midnightblue" d="M2090.26,-89.32C2168.63,-79.41 2298.19,-61.97 2409,-42 2418.81,-40.23 2429.17,-38.17 2439.26,-36.06"/>
<polygon fill="midnightblue" stroke="midnightblue" points="2089.5,-85.89 2080.01,-90.61 2090.37,-92.83 2089.5,-85.89"/>
</g>
<!-- Node18 -->
<g id="node18" class="node">
<title>Node18</title>
<g id="a_node18"><a xlink:href="../../dc/d64/dialogrotation_8cpp.html" target="_top" xlink:title=" ">
<polygon fill="white" stroke="black" points="2602.5,-6 2602.5,-36 2737.5,-36 2737.5,-6 2602.5,-6"/>
<text text-anchor="start" x="2610.5" y="-24" font-family="Helvetica,sans-Serif" font-size="10.00">src/libs/vtools/dialogs</text>
<text text-anchor="middle" x="2670" y="-13" font-family="Helvetica,sans-Serif" font-size="10.00">/tools/dialogrotation.cpp</text>
</a>
</g>
</g>
<!-- Node1&#45;&gt;Node18 -->
<g id="edge17" class="edge">
<title>Node1&#45;&gt;Node18</title>
<path fill="none" stroke="midnightblue" d="M2090.53,-94.72C2199.77,-88.89 2414.43,-74.16 2594,-42 2602.86,-40.41 2612.21,-38.31 2621.2,-36.07"/>
<polygon fill="midnightblue" stroke="midnightblue" points="2090.09,-91.24 2080.29,-95.26 2090.46,-98.23 2090.09,-91.24"/>
</g>
<!-- Node19 -->
<g id="node19" class="node">
<title>Node19</title>
<g id="a_node19"><a xlink:href="../../d3/d23/dialogshoulderpoint_8cpp.html" target="_top" xlink:title=" ">
<polygon fill="white" stroke="black" points="2756,-6 2756,-36 2920,-36 2920,-6 2756,-6"/>
<text text-anchor="start" x="2764" y="-24" font-family="Helvetica,sans-Serif" font-size="10.00">src/libs/vtools/dialogs</text>
<text text-anchor="middle" x="2838" y="-13" font-family="Helvetica,sans-Serif" font-size="10.00">/tools/dialogshoulderpoint.cpp</text>
</a>
</g>
</g>
<!-- Node1&#45;&gt;Node19 -->
<g id="edge18" class="edge">
<title>Node1&#45;&gt;Node19</title>
<path fill="none" stroke="midnightblue" d="M2090.49,-95.81C2221.36,-91.07 2508,-77.28 2747,-42 2757.72,-40.42 2769.06,-38.29 2779.97,-36.02"/>
<polygon fill="midnightblue" stroke="midnightblue" points="2090.07,-92.32 2080.2,-96.18 2090.32,-99.32 2090.07,-92.32"/>
</g>
<!-- Node20 -->
<g id="node20" class="node">
<title>Node20</title>
<g id="a_node20"><a xlink:href="../../df/de5/dialogspline_8cpp.html" target="_top" xlink:title=" ">
<polygon fill="white" stroke="black" points="2938,-6 2938,-36 3064,-36 3064,-6 2938,-6"/>
<text text-anchor="start" x="2946" y="-24" font-family="Helvetica,sans-Serif" font-size="10.00">src/libs/vtools/dialogs</text>
<text text-anchor="middle" x="3001" y="-13" font-family="Helvetica,sans-Serif" font-size="10.00">/tools/dialogspline.cpp</text>
</a>
</g>
</g>
<!-- Node1&#45;&gt;Node20 -->
<g id="edge19" class="edge">
<title>Node1&#45;&gt;Node20</title>
<path fill="none" stroke="midnightblue" d="M2090.48,-98.66C2244.76,-98.99 2619.99,-93.84 2929,-42 2937.83,-40.52 2947.13,-38.38 2956,-36.05"/>
<polygon fill="midnightblue" stroke="midnightblue" points="2090.21,-95.16 2080.2,-98.63 2090.19,-102.16 2090.21,-95.16"/>
</g>
<!-- Node21 -->
<g id="node21" class="node">
<title>Node21</title>
<g id="a_node21"><a xlink:href="../../dc/dc2/dialogsplinepath_8cpp.html" target="_top" xlink:title=" ">
<polygon fill="white" stroke="black" points="3082,-6 3082,-36 3230,-36 3230,-6 3082,-6"/>
<text text-anchor="start" x="3090" y="-24" font-family="Helvetica,sans-Serif" font-size="10.00">src/libs/vtools/dialogs</text>
<text text-anchor="middle" x="3156" y="-13" font-family="Helvetica,sans-Serif" font-size="10.00">/tools/dialogsplinepath.cpp</text>
</a>
</g>
</g>
<!-- Node1&#45;&gt;Node21 -->
<g id="edge20" class="edge">
<title>Node1&#45;&gt;Node21</title>
<path fill="none" stroke="midnightblue" d="M2090.4,-98.7C2261.16,-99.4 2706.28,-95.46 3073,-42 3083.12,-40.52 3093.81,-38.39 3104.04,-36.06"/>
<polygon fill="midnightblue" stroke="midnightblue" points="2090.29,-95.2 2080.28,-98.65 2090.26,-102.2 2090.29,-95.2"/>
</g>
<!-- Node22 -->
<g id="node22" class="node">
<title>Node22</title>
<g id="a_node22"><a xlink:href="../../d5/de8/intersect__circles__dialog_8cpp.html" target="_top" xlink:title=" ">
<polygon fill="white" stroke="black" points="3248,-0.5 3248,-41.5 3374,-41.5 3374,-0.5 3248,-0.5"/>
<text text-anchor="start" x="3256" y="-29.5" font-family="Helvetica,sans-Serif" font-size="10.00">src/libs/vtools/dialogs</text>
<text text-anchor="start" x="3256" y="-18.5" font-family="Helvetica,sans-Serif" font-size="10.00">/tools/intersect_circles</text>
<text text-anchor="middle" x="3311" y="-7.5" font-family="Helvetica,sans-Serif" font-size="10.00">_dialog.cpp</text>
</a>
</g>
</g>
<!-- Node1&#45;&gt;Node22 -->
<g id="edge21" class="edge">
<title>Node1&#45;&gt;Node22</title>
<path fill="none" stroke="midnightblue" d="M2090.33,-96.83C2316.44,-92.8 3015.53,-77.7 3239,-42 3241.95,-41.53 3244.94,-40.98 3247.96,-40.37"/>
<polygon fill="midnightblue" stroke="midnightblue" points="2090.18,-93.33 2080.24,-97.01 2090.3,-100.33 2090.18,-93.33"/>
</g>
<!-- Node23 -->
<g id="node23" class="node">
<title>Node23</title>
<g id="a_node23"><a xlink:href="../../d5/d5a/intersect__circletangent__dialog_8cpp.html" target="_top" xlink:title=" ">
<polygon fill="white" stroke="black" points="3392,-0.5 3392,-41.5 3550,-41.5 3550,-0.5 3392,-0.5"/>
<text text-anchor="start" x="3400" y="-29.5" font-family="Helvetica,sans-Serif" font-size="10.00">src/libs/vtools/dialogs</text>
<text text-anchor="start" x="3400" y="-18.5" font-family="Helvetica,sans-Serif" font-size="10.00">/tools/intersect_circletangent</text>
<text text-anchor="middle" x="3471" y="-7.5" font-family="Helvetica,sans-Serif" font-size="10.00">_dialog.cpp</text>
</a>
</g>
</g>
<!-- Node1&#45;&gt;Node23 -->
<g id="edge22" class="edge">
<title>Node1&#45;&gt;Node23</title>
<path fill="none" stroke="midnightblue" d="M2090.25,-96.79C2333.4,-92.4 3129.39,-75.74 3383,-42 3385.95,-41.61 3388.95,-41.16 3391.97,-40.68"/>
<polygon fill="midnightblue" stroke="midnightblue" points="2090.06,-93.29 2080.12,-96.97 2090.18,-100.29 2090.06,-93.29"/>
</g>
<!-- Node24 -->
<g id="node24" class="node">
<title>Node24</title>
<g id="a_node24"><a xlink:href="../../dc/d82/dialoginternalpath_8cpp.html" target="_top" xlink:title=" ">
<polygon fill="white" stroke="black" points="3567.5,-6 3567.5,-36 3752.5,-36 3752.5,-6 3567.5,-6"/>
<text text-anchor="start" x="3575.5" y="-24" font-family="Helvetica,sans-Serif" font-size="10.00">src/libs/vtools/dialogs</text>
<text text-anchor="middle" x="3660" y="-13" font-family="Helvetica,sans-Serif" font-size="10.00">/tools/piece/dialoginternalpath.cpp</text>
</a>
</g>
</g>
<!-- Node1&#45;&gt;Node24 -->
<g id="edge23" class="edge">
<title>Node1&#45;&gt;Node24</title>
<path fill="none" stroke="midnightblue" d="M2090.37,-96.91C2353.47,-92.67 3268.9,-75.78 3559,-42 3571.43,-40.55 3584.61,-38.4 3597.21,-36.04"/>
<polygon fill="midnightblue" stroke="midnightblue" points="2090.12,-93.42 2080.17,-97.08 2090.23,-100.42 2090.12,-93.42"/>
</g>
<!-- Node25 -->
<g id="node25" class="node">
<title>Node25</title>
<g id="a_node25"><a xlink:href="../../de/d46/pattern__piece__dialog_8cpp.html" target="_top" xlink:title=" ">
<polygon fill="white" stroke="black" points="3770.5,-0.5 3770.5,-41.5 3913.5,-41.5 3913.5,-0.5 3770.5,-0.5"/>
<text text-anchor="start" x="3778.5" y="-29.5" font-family="Helvetica,sans-Serif" font-size="10.00">src/libs/vtools/dialogs</text>
<text text-anchor="start" x="3778.5" y="-18.5" font-family="Helvetica,sans-Serif" font-size="10.00">/tools/piece/pattern_piece</text>
<text text-anchor="middle" x="3842" y="-7.5" font-family="Helvetica,sans-Serif" font-size="10.00">_dialog.cpp</text>
</a>
</g>
</g>
<!-- Node1&#45;&gt;Node25 -->
<g id="edge24" class="edge">
<title>Node1&#45;&gt;Node25</title>
<path fill="none" stroke="midnightblue" d="M2090.61,-97.73C2375.79,-96.34 3431.18,-88.13 3762,-42 3764.69,-41.62 3767.43,-41.19 3770.18,-40.72"/>
<polygon fill="midnightblue" stroke="midnightblue" points="2090.38,-94.23 2080.39,-97.78 2090.41,-101.23 2090.38,-94.23"/>
</g>
<!-- Node26 -->
<g id="node26" class="node">
<title>Node26</title>
<g id="a_node26"><a xlink:href="../../d9/d4e/vabstracttool_8cpp.html" target="_top" xlink:title=" ">
<polygon fill="white" stroke="black" points="3931.5,-6 3931.5,-36 4042.5,-36 4042.5,-6 3931.5,-6"/>
<text text-anchor="start" x="3939.5" y="-24" font-family="Helvetica,sans-Serif" font-size="10.00">src/libs/vtools/tools</text>
<text text-anchor="middle" x="3987" y="-13" font-family="Helvetica,sans-Serif" font-size="10.00">/vabstracttool.cpp</text>
</a>
</g>
</g>
<!-- Node1&#45;&gt;Node26 -->
<g id="edge25" class="edge">
<title>Node1&#45;&gt;Node26</title>
<path fill="none" stroke="midnightblue" d="M2090.34,-97.06C2414.42,-92.61 3740,-72.69 3923,-42 3931.15,-40.63 3939.7,-38.49 3947.81,-36.1"/>
<polygon fill="midnightblue" stroke="midnightblue" points="2090.09,-93.56 2080.14,-97.19 2090.19,-100.56 2090.09,-93.56"/>
</g>
</g>
</svg>
