<?xml version="1.0" encoding="UTF-8" standalone="no"?>
<!DOCTYPE svg PUBLIC "-//W3C//DTD SVG 1.1//EN"
 "http://www.w3.org/Graphics/SVG/1.1/DTD/svg11.dtd">
<!-- Generated by graphviz version 2.43.0 (0)
 -->
<!-- Title: src/libs/vtools/dialogs/support/edit_formula_dialog.h Pages: 1 -->
<svg width="4053pt" height="128pt"
 viewBox="0.00 0.00 4052.50 128.00" xmlns="http://www.w3.org/2000/svg" xmlns:xlink="http://www.w3.org/1999/xlink">
<g id="graph0" class="graph" transform="scale(1 1) rotate(0) translate(4 124)">
<title>src/libs/vtools/dialogs/support/edit_formula_dialog.h</title>
<polygon fill="white" stroke="transparent" points="-4,4 -4,-124 4048.5,-124 4048.5,4 -4,4"/>
<!-- Node1 -->
<g id="node1" class="node">
<title>Node1</title>
<g id="a_node1"><a xlink:title=" ">
<polygon fill="#bfbfbf" stroke="black" points="1985,-78.5 1985,-119.5 2107,-119.5 2107,-78.5 1985,-78.5"/>
<text text-anchor="start" x="1993" y="-107.5" font-family="Helvetica,sans-Serif" font-size="10.00">src/libs/vtools/dialogs</text>
<text text-anchor="start" x="1993" y="-96.5" font-family="Helvetica,sans-Serif" font-size="10.00">/support/edit_formula</text>
<text text-anchor="middle" x="2046" y="-85.5" font-family="Helvetica,sans-Serif" font-size="10.00">_dialog.h</text>
</a>
</g>
</g>
<!-- Node2 -->
<g id="node2" class="node">
<title>Node2</title>
<g id="a_node2"><a xlink:href="../../d7/d8d/edit__formula__dialog_8cpp.html" target="_top" xlink:title=" ">
<polygon fill="white" stroke="black" points="0,-0.5 0,-41.5 122,-41.5 122,-0.5 0,-0.5"/>
<text text-anchor="start" x="8" y="-29.5" font-family="Helvetica,sans-Serif" font-size="10.00">src/libs/vtools/dialogs</text>
<text text-anchor="start" x="8" y="-18.5" font-family="Helvetica,sans-Serif" font-size="10.00">/support/edit_formula</text>
<text text-anchor="middle" x="61" y="-7.5" font-family="Helvetica,sans-Serif" font-size="10.00">_dialog.cpp</text>
</a>
</g>
</g>
<!-- Node1&#45;&gt;Node2 -->
<g id="edge1" class="edge">
<title>Node1&#45;&gt;Node2</title>
<path fill="none" stroke="midnightblue" d="M1974.43,-98.29C1671.86,-99.13 496.44,-98.64 131,-42 128.13,-41.55 125.21,-41.03 122.27,-40.44"/>
<polygon fill="midnightblue" stroke="midnightblue" points="1974.83,-101.79 1984.82,-98.26 1974.81,-94.79 1974.83,-101.79"/>
</g>
<!-- Node3 -->
<g id="node3" class="node">
<title>Node3</title>
<g id="a_node3"><a xlink:href="../../d6/d5d/dialogalongline_8cpp.html" target="_top" xlink:title=" ">
<polygon fill="white" stroke="black" points="140,-6 140,-36 282,-36 282,-6 140,-6"/>
<text text-anchor="start" x="148" y="-24" font-family="Helvetica,sans-Serif" font-size="10.00">src/libs/vtools/dialogs</text>
<text text-anchor="middle" x="211" y="-13" font-family="Helvetica,sans-Serif" font-size="10.00">/tools/dialogalongline.cpp</text>
</a>
</g>
</g>
<!-- Node1&#45;&gt;Node3 -->
<g id="edge2" class="edge">
<title>Node1&#45;&gt;Node3</title>
<path fill="none" stroke="midnightblue" d="M1974.38,-97.75C1687.95,-96.43 624.28,-88.44 291,-42 280.93,-40.6 270.3,-38.43 260.18,-36.04"/>
<polygon fill="midnightblue" stroke="midnightblue" points="1974.62,-101.25 1984.64,-97.79 1974.66,-94.25 1974.62,-101.25"/>
</g>
<!-- Node4 -->
<g id="node4" class="node">
<title>Node4</title>
<g id="a_node4"><a xlink:href="../../d1/d37/dialogarc_8cpp.html" target="_top" xlink:title=" ">
<polygon fill="white" stroke="black" points="300,-6 300,-36 422,-36 422,-6 300,-6"/>
<text text-anchor="start" x="308" y="-24" font-family="Helvetica,sans-Serif" font-size="10.00">src/libs/vtools/dialogs</text>
<text text-anchor="middle" x="361" y="-13" font-family="Helvetica,sans-Serif" font-size="10.00">/tools/dialogarc.cpp</text>
</a>
</g>
</g>
<!-- Node1&#45;&gt;Node4 -->
<g id="edge3" class="edge">
<title>Node1&#45;&gt;Node4</title>
<path fill="none" stroke="midnightblue" d="M1974.7,-97.83C1703.31,-96.84 734.87,-89.94 431,-42 422.14,-40.6 412.8,-38.44 403.95,-36.05"/>
<polygon fill="midnightblue" stroke="midnightblue" points="1974.8,-101.33 1984.82,-97.87 1974.83,-94.33 1974.8,-101.33"/>
</g>
<!-- Node5 -->
<g id="node5" class="node">
<title>Node5</title>
<g id="a_node5"><a xlink:href="../../d2/d29/dialogarcwithlength_8cpp.html" target="_top" xlink:title=" ">
<polygon fill="white" stroke="black" points="440,-6 440,-36 604,-36 604,-6 440,-6"/>
<text text-anchor="start" x="448" y="-24" font-family="Helvetica,sans-Serif" font-size="10.00">src/libs/vtools/dialogs</text>
<text text-anchor="middle" x="522" y="-13" font-family="Helvetica,sans-Serif" font-size="10.00">/tools/dialogarcwithlength.cpp</text>
</a>
</g>
</g>
<!-- Node1&#45;&gt;Node5 -->
<g id="edge4" class="edge">
<title>Node1&#45;&gt;Node5</title>
<path fill="none" stroke="midnightblue" d="M1974.56,-96.88C1723.26,-92.7 880.78,-76.38 613,-42 601.77,-40.56 589.88,-38.41 578.52,-36.05"/>
<polygon fill="midnightblue" stroke="midnightblue" points="1974.61,-100.39 1984.67,-97.05 1974.73,-93.39 1974.61,-100.39"/>
</g>
<!-- Node6 -->
<g id="node6" class="node">
<title>Node6</title>
<g id="a_node6"><a xlink:href="../../da/dfa/dialogbisector_8cpp.html" target="_top" xlink:title=" ">
<polygon fill="white" stroke="black" points="622.5,-6 622.5,-36 757.5,-36 757.5,-6 622.5,-6"/>
<text text-anchor="start" x="630.5" y="-24" font-family="Helvetica,sans-Serif" font-size="10.00">src/libs/vtools/dialogs</text>
<text text-anchor="middle" x="690" y="-13" font-family="Helvetica,sans-Serif" font-size="10.00">/tools/dialogbisector.cpp</text>
</a>
</g>
</g>
<!-- Node1&#45;&gt;Node6 -->
<g id="edge5" class="edge">
<title>Node1&#45;&gt;Node6</title>
<path fill="none" stroke="midnightblue" d="M1974.78,-96.89C1741.52,-92.92 1001.93,-77.78 766,-42 756.56,-40.57 746.6,-38.42 737.11,-36.06"/>
<polygon fill="midnightblue" stroke="midnightblue" points="1974.79,-100.39 1984.85,-97.06 1974.91,-93.39 1974.79,-100.39"/>
</g>
<!-- Node7 -->
<g id="node7" class="node">
<title>Node7</title>
<g id="a_node7"><a xlink:href="../../dd/d39/dialogcurveintersectaxis_8cpp.html" target="_top" xlink:title=" ">
<polygon fill="white" stroke="black" points="775.5,-6 775.5,-36 962.5,-36 962.5,-6 775.5,-6"/>
<text text-anchor="start" x="783.5" y="-24" font-family="Helvetica,sans-Serif" font-size="10.00">src/libs/vtools/dialogs</text>
<text text-anchor="middle" x="869" y="-13" font-family="Helvetica,sans-Serif" font-size="10.00">/tools/dialogcurveintersectaxis.cpp</text>
</a>
</g>
</g>
<!-- Node1&#45;&gt;Node7 -->
<g id="edge6" class="edge">
<title>Node1&#45;&gt;Node7</title>
<path fill="none" stroke="midnightblue" d="M1974.58,-97.76C1801.67,-96.44 1347.02,-88.42 971,-42 958.73,-40.49 945.73,-38.35 933.26,-36.03"/>
<polygon fill="midnightblue" stroke="midnightblue" points="1974.8,-101.27 1984.82,-97.84 1974.85,-94.27 1974.8,-101.27"/>
</g>
<!-- Node8 -->
<g id="node8" class="node">
<title>Node8</title>
<g id="a_node8"><a xlink:href="../../d9/d90/dialogcutarc_8cpp.html" target="_top" xlink:title=" ">
<polygon fill="white" stroke="black" points="980.5,-6 980.5,-36 1107.5,-36 1107.5,-6 980.5,-6"/>
<text text-anchor="start" x="988.5" y="-24" font-family="Helvetica,sans-Serif" font-size="10.00">src/libs/vtools/dialogs</text>
<text text-anchor="middle" x="1044" y="-13" font-family="Helvetica,sans-Serif" font-size="10.00">/tools/dialogcutarc.cpp</text>
</a>
</g>
</g>
<!-- Node1&#45;&gt;Node8 -->
<g id="edge7" class="edge">
<title>Node1&#45;&gt;Node8</title>
<path fill="none" stroke="midnightblue" d="M1974.4,-98.8C1817.65,-99.44 1432.79,-94.93 1116,-42 1107.17,-40.52 1097.87,-38.39 1088.99,-36.06"/>
<polygon fill="midnightblue" stroke="midnightblue" points="1974.86,-102.3 1984.84,-98.75 1974.82,-95.3 1974.86,-102.3"/>
</g>
<!-- Node9 -->
<g id="node9" class="node">
<title>Node9</title>
<g id="a_node9"><a xlink:href="../../d3/d2e/dialogcutspline_8cpp.html" target="_top" xlink:title=" ">
<polygon fill="white" stroke="black" points="1125.5,-6 1125.5,-36 1266.5,-36 1266.5,-6 1125.5,-6"/>
<text text-anchor="start" x="1133.5" y="-24" font-family="Helvetica,sans-Serif" font-size="10.00">src/libs/vtools/dialogs</text>
<text text-anchor="middle" x="1196" y="-13" font-family="Helvetica,sans-Serif" font-size="10.00">/tools/dialogcutspline.cpp</text>
</a>
</g>
</g>
<!-- Node1&#45;&gt;Node9 -->
<g id="edge8" class="edge">
<title>Node1&#45;&gt;Node9</title>
<path fill="none" stroke="midnightblue" d="M1974.27,-96.98C1837.43,-94.11 1530.02,-83.22 1275,-42 1265.5,-40.47 1255.48,-38.33 1245.87,-36.03"/>
<polygon fill="midnightblue" stroke="midnightblue" points="1974.54,-100.49 1984.61,-97.19 1974.68,-93.49 1974.54,-100.49"/>
</g>
<!-- Node10 -->
<g id="node10" class="node">
<title>Node10</title>
<g id="a_node10"><a xlink:href="../../df/d30/dialogcutsplinepath_8cpp.html" target="_top" xlink:title=" ">
<polygon fill="white" stroke="black" points="1284.5,-6 1284.5,-36 1447.5,-36 1447.5,-6 1284.5,-6"/>
<text text-anchor="start" x="1292.5" y="-24" font-family="Helvetica,sans-Serif" font-size="10.00">src/libs/vtools/dialogs</text>
<text text-anchor="middle" x="1366" y="-13" font-family="Helvetica,sans-Serif" font-size="10.00">/tools/dialogcutsplinepath.cpp</text>
</a>
</g>
</g>
<!-- Node1&#45;&gt;Node10 -->
<g id="edge9" class="edge">
<title>Node1&#45;&gt;Node10</title>
<path fill="none" stroke="midnightblue" d="M1974.87,-94.11C1863.65,-87.38 1642.02,-71.38 1456,-42 1445.72,-40.38 1434.86,-38.29 1424.38,-36.08"/>
<polygon fill="midnightblue" stroke="midnightblue" points="1974.77,-97.61 1984.96,-94.71 1975.19,-90.62 1974.77,-97.61"/>
</g>
<!-- Node11 -->
<g id="node11" class="node">
<title>Node11</title>
<g id="a_node11"><a xlink:href="../../d3/d15/dialogendline_8cpp.html" target="_top" xlink:title=" ">
<polygon fill="white" stroke="black" points="1465.5,-6 1465.5,-36 1598.5,-36 1598.5,-6 1465.5,-6"/>
<text text-anchor="start" x="1473.5" y="-24" font-family="Helvetica,sans-Serif" font-size="10.00">src/libs/vtools/dialogs</text>
<text text-anchor="middle" x="1532" y="-13" font-family="Helvetica,sans-Serif" font-size="10.00">/tools/dialogendline.cpp</text>
</a>
</g>
</g>
<!-- Node1&#45;&gt;Node11 -->
<g id="edge10" class="edge">
<title>Node1&#45;&gt;Node11</title>
<path fill="none" stroke="midnightblue" d="M1974.63,-91.75C1887.56,-83.47 1736.12,-66.94 1608,-42 1599.43,-40.33 1590.39,-38.25 1581.66,-36.06"/>
<polygon fill="midnightblue" stroke="midnightblue" points="1974.38,-95.25 1984.66,-92.7 1975.03,-88.28 1974.38,-95.25"/>
</g>
<!-- Node12 -->
<g id="node12" class="node">
<title>Node12</title>
<g id="a_node12"><a xlink:href="../../d9/d68/dialogellipticalarc_8cpp.html" target="_top" xlink:title=" ">
<polygon fill="white" stroke="black" points="1617,-6 1617,-36 1771,-36 1771,-6 1617,-6"/>
<text text-anchor="start" x="1625" y="-24" font-family="Helvetica,sans-Serif" font-size="10.00">src/libs/vtools/dialogs</text>
<text text-anchor="middle" x="1694" y="-13" font-family="Helvetica,sans-Serif" font-size="10.00">/tools/dialogellipticalarc.cpp</text>
</a>
</g>
</g>
<!-- Node1&#45;&gt;Node12 -->
<g id="edge11" class="edge">
<title>Node1&#45;&gt;Node12</title>
<path fill="none" stroke="midnightblue" d="M1974.82,-83.44C1921.2,-72.37 1845.9,-56.6 1780,-42 1771.47,-40.11 1762.47,-38.07 1753.64,-36.04"/>
<polygon fill="midnightblue" stroke="midnightblue" points="1974.41,-86.93 1984.91,-85.52 1975.82,-80.07 1974.41,-86.93"/>
</g>
<!-- Node13 -->
<g id="node13" class="node">
<title>Node13</title>
<g id="a_node13"><a xlink:href="../../de/d3c/dialoglineintersectaxis_8cpp.html" target="_top" xlink:title=" ">
<polygon fill="white" stroke="black" points="1789,-6 1789,-36 1967,-36 1967,-6 1789,-6"/>
<text text-anchor="start" x="1797" y="-24" font-family="Helvetica,sans-Serif" font-size="10.00">src/libs/vtools/dialogs</text>
<text text-anchor="middle" x="1878" y="-13" font-family="Helvetica,sans-Serif" font-size="10.00">/tools/dialoglineintersectaxis.cpp</text>
</a>
</g>
</g>
<!-- Node1&#45;&gt;Node13 -->
<g id="edge12" class="edge">
<title>Node1&#45;&gt;Node13</title>
<path fill="none" stroke="midnightblue" d="M1993.57,-74.28C1965.88,-61.76 1932.83,-46.81 1909.18,-36.11"/>
<polygon fill="midnightblue" stroke="midnightblue" points="1992.18,-77.5 2002.74,-78.43 1995.07,-71.12 1992.18,-77.5"/>
</g>
<!-- Node14 -->
<g id="node14" class="node">
<title>Node14</title>
<g id="a_node14"><a xlink:href="../../df/ded/tooldialogs_8h.html" target="_top" xlink:title=" ">
<polygon fill="white" stroke="black" points="1985,-6 1985,-36 2107,-36 2107,-6 1985,-6"/>
<text text-anchor="start" x="1993" y="-24" font-family="Helvetica,sans-Serif" font-size="10.00">src/libs/vtools/dialogs</text>
<text text-anchor="middle" x="2046" y="-13" font-family="Helvetica,sans-Serif" font-size="10.00">/tooldialogs.h</text>
</a>
</g>
</g>
<!-- Node1&#45;&gt;Node14 -->
<g id="edge13" class="edge">
<title>Node1&#45;&gt;Node14</title>
<path fill="none" stroke="midnightblue" d="M2046,-68.28C2046,-57.25 2046,-45.25 2046,-36.23"/>
<polygon fill="midnightblue" stroke="midnightblue" points="2042.5,-68.43 2046,-78.43 2049.5,-68.43 2042.5,-68.43"/>
</g>
<!-- Node15 -->
<g id="node15" class="node">
<title>Node15</title>
<g id="a_node15"><a xlink:href="../../d2/d51/dialogmove_8cpp.html" target="_top" xlink:title=" ">
<polygon fill="white" stroke="black" points="2125.5,-6 2125.5,-36 2250.5,-36 2250.5,-6 2125.5,-6"/>
<text text-anchor="start" x="2133.5" y="-24" font-family="Helvetica,sans-Serif" font-size="10.00">src/libs/vtools/dialogs</text>
<text text-anchor="middle" x="2188" y="-13" font-family="Helvetica,sans-Serif" font-size="10.00">/tools/dialogmove.cpp</text>
</a>
</g>
</g>
<!-- Node1&#45;&gt;Node15 -->
<g id="edge14" class="edge">
<title>Node1&#45;&gt;Node15</title>
<path fill="none" stroke="midnightblue" d="M2091.51,-73.64C2114.58,-61.3 2141.79,-46.73 2161.42,-36.23"/>
<polygon fill="midnightblue" stroke="midnightblue" points="2089.73,-70.62 2082.57,-78.43 2093.04,-76.8 2089.73,-70.62"/>
</g>
<!-- Node16 -->
<g id="node16" class="node">
<title>Node16</title>
<g id="a_node16"><a xlink:href="../../da/df4/dialognormal_8cpp.html" target="_top" xlink:title=" ">
<polygon fill="white" stroke="black" points="2268.5,-6 2268.5,-36 2399.5,-36 2399.5,-6 2268.5,-6"/>
<text text-anchor="start" x="2276.5" y="-24" font-family="Helvetica,sans-Serif" font-size="10.00">src/libs/vtools/dialogs</text>
<text text-anchor="middle" x="2334" y="-13" font-family="Helvetica,sans-Serif" font-size="10.00">/tools/dialognormal.cpp</text>
</a>
</g>
</g>
<!-- Node1&#45;&gt;Node16 -->
<g id="edge15" class="edge">
<title>Node1&#45;&gt;Node16</title>
<path fill="none" stroke="midnightblue" d="M2117.16,-79.53C2158.81,-68.68 2212.41,-54.66 2260,-42 2267.2,-40.08 2274.79,-38.05 2282.26,-36.04"/>
<polygon fill="midnightblue" stroke="midnightblue" points="2116.17,-76.17 2107.38,-82.08 2117.94,-82.95 2116.17,-76.17"/>
</g>
<!-- Node17 -->
<g id="node17" class="node">
<title>Node17</title>
<g id="a_node17"><a xlink:href="../../d9/df4/dialogpointofcontact_8cpp.html" target="_top" xlink:title=" ">
<polygon fill="white" stroke="black" points="2417.5,-6 2417.5,-36 2584.5,-36 2584.5,-6 2417.5,-6"/>
<text text-anchor="start" x="2425.5" y="-24" font-family="Helvetica,sans-Serif" font-size="10.00">src/libs/vtools/dialogs</text>
<text text-anchor="middle" x="2501" y="-13" font-family="Helvetica,sans-Serif" font-size="10.00">/tools/dialogpointofcontact.cpp</text>
</a>
</g>
</g>
<!-- Node1&#45;&gt;Node17 -->
<g id="edge16" class="edge">
<title>Node1&#45;&gt;Node17</title>
<path fill="none" stroke="midnightblue" d="M2117.26,-88.32C2190.61,-78.04 2308.1,-60.73 2409,-42 2418.64,-40.21 2428.82,-38.16 2438.75,-36.07"/>
<polygon fill="midnightblue" stroke="midnightblue" points="2116.63,-84.87 2107.21,-89.72 2117.6,-91.8 2116.63,-84.87"/>
</g>
<!-- Node18 -->
<g id="node18" class="node">
<title>Node18</title>
<g id="a_node18"><a xlink:href="../../d3/d23/dialogshoulderpoint_8cpp.html" target="_top" xlink:title=" ">
<polygon fill="white" stroke="black" points="2603,-6 2603,-36 2767,-36 2767,-6 2603,-6"/>
<text text-anchor="start" x="2611" y="-24" font-family="Helvetica,sans-Serif" font-size="10.00">src/libs/vtools/dialogs</text>
<text text-anchor="middle" x="2685" y="-13" font-family="Helvetica,sans-Serif" font-size="10.00">/tools/dialogshoulderpoint.cpp</text>
</a>
</g>
</g>
<!-- Node1&#45;&gt;Node18 -->
<g id="edge17" class="edge">
<title>Node1&#45;&gt;Node18</title>
<path fill="none" stroke="midnightblue" d="M2117.27,-93.33C2222.15,-85.88 2424.03,-69.27 2594,-42 2604.38,-40.33 2615.36,-38.23 2625.96,-36.01"/>
<polygon fill="midnightblue" stroke="midnightblue" points="2116.85,-89.86 2107.12,-94.05 2117.34,-96.84 2116.85,-89.86"/>
</g>
<!-- Node19 -->
<g id="node19" class="node">
<title>Node19</title>
<g id="a_node19"><a xlink:href="../../dc/d64/dialogrotation_8cpp.html" target="_top" xlink:title=" ">
<polygon fill="white" stroke="black" points="2785.5,-6 2785.5,-36 2920.5,-36 2920.5,-6 2785.5,-6"/>
<text text-anchor="start" x="2793.5" y="-24" font-family="Helvetica,sans-Serif" font-size="10.00">src/libs/vtools/dialogs</text>
<text text-anchor="middle" x="2853" y="-13" font-family="Helvetica,sans-Serif" font-size="10.00">/tools/dialogrotation.cpp</text>
</a>
</g>
</g>
<!-- Node1&#45;&gt;Node19 -->
<g id="edge18" class="edge">
<title>Node1&#45;&gt;Node19</title>
<path fill="none" stroke="midnightblue" d="M2117.32,-96.72C2248.54,-93.44 2536.74,-81.92 2776,-42 2785.26,-40.45 2795.04,-38.32 2804.4,-36.02"/>
<polygon fill="midnightblue" stroke="midnightblue" points="2116.92,-93.23 2107.01,-96.97 2117.09,-100.23 2116.92,-93.23"/>
</g>
<!-- Node20 -->
<g id="node20" class="node">
<title>Node20</title>
<g id="a_node20"><a xlink:href="../../df/de5/dialogspline_8cpp.html" target="_top" xlink:title=" ">
<polygon fill="white" stroke="black" points="2939,-6 2939,-36 3065,-36 3065,-6 2939,-6"/>
<text text-anchor="start" x="2947" y="-24" font-family="Helvetica,sans-Serif" font-size="10.00">src/libs/vtools/dialogs</text>
<text text-anchor="middle" x="3002" y="-13" font-family="Helvetica,sans-Serif" font-size="10.00">/tools/dialogspline.cpp</text>
</a>
</g>
</g>
<!-- Node1&#45;&gt;Node20 -->
<g id="edge19" class="edge">
<title>Node1&#45;&gt;Node20</title>
<path fill="none" stroke="midnightblue" d="M2117.12,-98.48C2268.02,-98.4 2630.94,-92.44 2930,-42 2938.83,-40.51 2948.13,-38.37 2957,-36.04"/>
<polygon fill="midnightblue" stroke="midnightblue" points="2117.06,-94.98 2107.05,-98.47 2117.05,-101.98 2117.06,-94.98"/>
</g>
<!-- Node21 -->
<g id="node21" class="node">
<title>Node21</title>
<g id="a_node21"><a xlink:href="../../dc/dc2/dialogsplinepath_8cpp.html" target="_top" xlink:title=" ">
<polygon fill="white" stroke="black" points="3083,-6 3083,-36 3231,-36 3231,-6 3083,-6"/>
<text text-anchor="start" x="3091" y="-24" font-family="Helvetica,sans-Serif" font-size="10.00">src/libs/vtools/dialogs</text>
<text text-anchor="middle" x="3157" y="-13" font-family="Helvetica,sans-Serif" font-size="10.00">/tools/dialogsplinepath.cpp</text>
</a>
</g>
</g>
<!-- Node1&#45;&gt;Node21 -->
<g id="edge20" class="edge">
<title>Node1&#45;&gt;Node21</title>
<path fill="none" stroke="midnightblue" d="M2117.41,-98.56C2285.25,-98.92 2717.59,-94.2 3074,-42 3084.12,-40.52 3094.81,-38.38 3105.04,-36.05"/>
<polygon fill="midnightblue" stroke="midnightblue" points="2117.23,-95.06 2107.22,-98.53 2117.21,-102.06 2117.23,-95.06"/>
</g>
<!-- Node22 -->
<g id="node22" class="node">
<title>Node22</title>
<g id="a_node22"><a xlink:href="../../d5/de8/intersect__circles__dialog_8cpp.html" target="_top" xlink:title=" ">
<polygon fill="white" stroke="black" points="3249,-0.5 3249,-41.5 3375,-41.5 3375,-0.5 3249,-0.5"/>
<text text-anchor="start" x="3257" y="-29.5" font-family="Helvetica,sans-Serif" font-size="10.00">src/libs/vtools/dialogs</text>
<text text-anchor="start" x="3257" y="-18.5" font-family="Helvetica,sans-Serif" font-size="10.00">/tools/intersect_circles</text>
<text text-anchor="middle" x="3312" y="-7.5" font-family="Helvetica,sans-Serif" font-size="10.00">_dialog.cpp</text>
</a>
</g>
</g>
<!-- Node1&#45;&gt;Node22 -->
<g id="edge21" class="edge">
<title>Node1&#45;&gt;Node22</title>
<path fill="none" stroke="midnightblue" d="M2117.29,-96.75C2340.15,-92.52 3021.78,-76.97 3240,-42 3242.95,-41.53 3245.94,-40.98 3248.96,-40.37"/>
<polygon fill="midnightblue" stroke="midnightblue" points="2116.96,-93.26 2107.03,-96.94 2117.09,-100.25 2116.96,-93.26"/>
</g>
<!-- Node23 -->
<g id="node23" class="node">
<title>Node23</title>
<g id="a_node23"><a xlink:href="../../dc/d82/dialoginternalpath_8cpp.html" target="_top" xlink:title=" ">
<polygon fill="white" stroke="black" points="3393.5,-6 3393.5,-36 3578.5,-36 3578.5,-6 3393.5,-6"/>
<text text-anchor="start" x="3401.5" y="-24" font-family="Helvetica,sans-Serif" font-size="10.00">src/libs/vtools/dialogs</text>
<text text-anchor="middle" x="3486" y="-13" font-family="Helvetica,sans-Serif" font-size="10.00">/tools/piece/dialoginternalpath.cpp</text>
</a>
</g>
</g>
<!-- Node1&#45;&gt;Node23 -->
<g id="edge22" class="edge">
<title>Node1&#45;&gt;Node23</title>
<path fill="none" stroke="midnightblue" d="M2117.09,-96.45C2356.94,-91 3135.19,-71.43 3384,-42 3396.45,-40.53 3409.66,-38.38 3422.3,-36.03"/>
<polygon fill="midnightblue" stroke="midnightblue" points="2117.01,-92.95 2107.09,-96.68 2117.17,-99.95 2117.01,-92.95"/>
</g>
<!-- Node24 -->
<g id="node24" class="node">
<title>Node24</title>
<g id="a_node24"><a xlink:href="../../d5/d5a/intersect__circletangent__dialog_8cpp.html" target="_top" xlink:title=" ">
<polygon fill="white" stroke="black" points="3596,-0.5 3596,-41.5 3754,-41.5 3754,-0.5 3596,-0.5"/>
<text text-anchor="start" x="3604" y="-29.5" font-family="Helvetica,sans-Serif" font-size="10.00">src/libs/vtools/dialogs</text>
<text text-anchor="start" x="3604" y="-18.5" font-family="Helvetica,sans-Serif" font-size="10.00">/tools/intersect_circletangent</text>
<text text-anchor="middle" x="3675" y="-7.5" font-family="Helvetica,sans-Serif" font-size="10.00">_dialog.cpp</text>
</a>
</g>
</g>
<!-- Node1&#45;&gt;Node24 -->
<g id="edge23" class="edge">
<title>Node1&#45;&gt;Node24</title>
<path fill="none" stroke="midnightblue" d="M2117.49,-97.2C2381.07,-93.99 3298.07,-80.24 3588,-42 3590.61,-41.66 3593.26,-41.27 3595.93,-40.85"/>
<polygon fill="midnightblue" stroke="midnightblue" points="2117.24,-93.71 2107.28,-97.33 2117.33,-100.71 2117.24,-93.71"/>
</g>
<!-- Node25 -->
<g id="node25" class="node">
<title>Node25</title>
<g id="a_node25"><a xlink:href="../../de/d46/pattern__piece__dialog_8cpp.html" target="_top" xlink:title=" ">
<polygon fill="white" stroke="black" points="3772.5,-0.5 3772.5,-41.5 3915.5,-41.5 3915.5,-0.5 3772.5,-0.5"/>
<text text-anchor="start" x="3780.5" y="-29.5" font-family="Helvetica,sans-Serif" font-size="10.00">src/libs/vtools/dialogs</text>
<text text-anchor="start" x="3780.5" y="-18.5" font-family="Helvetica,sans-Serif" font-size="10.00">/tools/piece/pattern_piece</text>
<text text-anchor="middle" x="3844" y="-7.5" font-family="Helvetica,sans-Serif" font-size="10.00">_dialog.cpp</text>
</a>
</g>
</g>
<!-- Node1&#45;&gt;Node25 -->
<g id="edge24" class="edge">
<title>Node1&#45;&gt;Node25</title>
<path fill="none" stroke="midnightblue" d="M2117.48,-97.66C2399.77,-96.02 3437.42,-87 3763,-42 3766.01,-41.58 3769.08,-41.1 3772.16,-40.57"/>
<polygon fill="midnightblue" stroke="midnightblue" points="2117.35,-94.16 2107.37,-97.72 2117.39,-101.16 2117.35,-94.16"/>
</g>
<!-- Node26 -->
<g id="node26" class="node">
<title>Node26</title>
<g id="a_node26"><a xlink:href="../../d9/d4e/vabstracttool_8cpp.html" target="_top" xlink:title=" ">
<polygon fill="white" stroke="black" points="3933.5,-6 3933.5,-36 4044.5,-36 4044.5,-6 3933.5,-6"/>
<text text-anchor="start" x="3941.5" y="-24" font-family="Helvetica,sans-Serif" font-size="10.00">src/libs/vtools/tools</text>
<text text-anchor="middle" x="3989" y="-13" font-family="Helvetica,sans-Serif" font-size="10.00">/vabstracttool.cpp</text>
</a>
</g>
</g>
<!-- Node1&#45;&gt;Node26 -->
<g id="edge25" class="edge">
<title>Node1&#45;&gt;Node26</title>
<path fill="none" stroke="midnightblue" d="M2117.2,-97.03C2438.39,-92.49 3744.56,-72.29 3925,-42 3933.15,-40.63 3941.7,-38.48 3949.81,-36.09"/>
<polygon fill="midnightblue" stroke="midnightblue" points="2117.04,-93.53 2107.09,-97.17 2117.14,-100.53 2117.04,-93.53"/>
</g>
</g>
</svg>
