<?xml version="1.0" encoding="UTF-8" standalone="no"?>
<!DOCTYPE svg PUBLIC "-//W3C//DTD SVG 1.1//EN"
 "http://www.w3.org/Graphics/SVG/1.1/DTD/svg11.dtd">
<!-- Generated by graphviz version 2.43.0 (0)
 -->
<!-- Title: VPE::PlainTextProperty Pages: 1 -->
<svg width="369pt" height="585pt"
 viewBox="0.00 0.00 369.00 585.00" xmlns="http://www.w3.org/2000/svg" xmlns:xlink="http://www.w3.org/1999/xlink">
<g id="graph0" class="graph" transform="scale(1 1) rotate(0) translate(4 581)">
<title>VPE::PlainTextProperty</title>
<polygon fill="white" stroke="transparent" points="-4,4 -4,-581 365,-581 365,4 -4,4"/>
<!-- Node1 -->
<g id="node1" class="node">
<title>Node1</title>
<g id="a_node1"><a xlink:title="Class for holding a plain text property.">
<polygon fill="#bfbfbf" stroke="black" points="220,-0.5 220,-244.5 361,-244.5 361,-0.5 220,-0.5"/>
<text text-anchor="middle" x="290.5" y="-232.5" font-family="Helvetica,sans-Serif" font-size="10.00">VPE::PlainTextProperty</text>
<polyline fill="none" stroke="black" points="220,-225.5 361,-225.5 "/>
<text text-anchor="start" x="228" y="-213.5" font-family="Helvetica,sans-Serif" font-size="10.00"># m_readOnly</text>
<text text-anchor="start" x="228" y="-202.5" font-family="Helvetica,sans-Serif" font-size="10.00"># m_typeForParent</text>
<text text-anchor="start" x="228" y="-191.5" font-family="Helvetica,sans-Serif" font-size="10.00"># m_osSeparator</text>
<polyline fill="none" stroke="black" points="220,-184.5 361,-184.5 "/>
<text text-anchor="start" x="228" y="-172.5" font-family="Helvetica,sans-Serif" font-size="10.00">+ PlainTextProperty()</text>
<text text-anchor="start" x="228" y="-161.5" font-family="Helvetica,sans-Serif" font-size="10.00">+ PlainTextProperty()</text>
<text text-anchor="start" x="228" y="-150.5" font-family="Helvetica,sans-Serif" font-size="10.00">+ createEditor()</text>
<text text-anchor="start" x="228" y="-139.5" font-family="Helvetica,sans-Serif" font-size="10.00">+ getEditorData()</text>
<text text-anchor="start" x="228" y="-128.5" font-family="Helvetica,sans-Serif" font-size="10.00">+ setReadOnly()</text>
<text text-anchor="start" x="228" y="-117.5" font-family="Helvetica,sans-Serif" font-size="10.00">+ setOsSeparator()</text>
<text text-anchor="start" x="228" y="-106.5" font-family="Helvetica,sans-Serif" font-size="10.00">+ setClearButtonEnable()</text>
<text text-anchor="start" x="228" y="-95.5" font-family="Helvetica,sans-Serif" font-size="10.00">+ setSetting()</text>
<text text-anchor="start" x="228" y="-84.5" font-family="Helvetica,sans-Serif" font-size="10.00">+ getSetting()</text>
<text text-anchor="start" x="228" y="-73.5" font-family="Helvetica,sans-Serif" font-size="10.00">+ getSettingKeys()</text>
<text text-anchor="start" x="228" y="-62.5" font-family="Helvetica,sans-Serif" font-size="10.00">+ type()</text>
<text text-anchor="start" x="228" y="-51.5" font-family="Helvetica,sans-Serif" font-size="10.00">+ clone()</text>
<text text-anchor="start" x="228" y="-40.5" font-family="Helvetica,sans-Serif" font-size="10.00">+ updateParent()</text>
<text text-anchor="start" x="228" y="-29.5" font-family="Helvetica,sans-Serif" font-size="10.00">+ getTypeForParent()</text>
<text text-anchor="start" x="228" y="-18.5" font-family="Helvetica,sans-Serif" font-size="10.00">+ setTypeForParent()</text>
<text text-anchor="start" x="228" y="-7.5" font-family="Helvetica,sans-Serif" font-size="10.00"># eventFilter()</text>
</a>
</g>
</g>
<!-- Node2 -->
<g id="node2" class="node">
<title>Node2</title>
<g id="a_node2"><a xlink:href="../../db/df9/classVPE_1_1VProperty.html" target="_top" xlink:title=" ">
<polygon fill="white" stroke="black" points="163.5,-292.5 163.5,-481.5 291.5,-481.5 291.5,-292.5 163.5,-292.5"/>
<text text-anchor="middle" x="227.5" y="-469.5" font-family="Helvetica,sans-Serif" font-size="10.00">VPE::VProperty</text>
<polyline fill="none" stroke="black" points="163.5,-462.5 291.5,-462.5 "/>
<text text-anchor="middle" x="227.5" y="-450.5" font-family="Helvetica,sans-Serif" font-size="10.00"> </text>
<polyline fill="none" stroke="black" points="163.5,-443.5 291.5,-443.5 "/>
<text text-anchor="start" x="171.5" y="-431.5" font-family="Helvetica,sans-Serif" font-size="10.00">+ VProperty()</text>
<text text-anchor="start" x="171.5" y="-420.5" font-family="Helvetica,sans-Serif" font-size="10.00">+ ~VProperty()</text>
<text text-anchor="start" x="171.5" y="-409.5" font-family="Helvetica,sans-Serif" font-size="10.00">+ type()</text>
<text text-anchor="start" x="171.5" y="-398.5" font-family="Helvetica,sans-Serif" font-size="10.00">+ data()</text>
<text text-anchor="start" x="171.5" y="-387.5" font-family="Helvetica,sans-Serif" font-size="10.00">+ setData()</text>
<text text-anchor="start" x="171.5" y="-376.5" font-family="Helvetica,sans-Serif" font-size="10.00">+ paint()</text>
<text text-anchor="start" x="171.5" y="-365.5" font-family="Helvetica,sans-Serif" font-size="10.00">+ createEditor()</text>
<text text-anchor="start" x="171.5" y="-354.5" font-family="Helvetica,sans-Serif" font-size="10.00">+ setEditorData()</text>
<text text-anchor="start" x="171.5" y="-343.5" font-family="Helvetica,sans-Serif" font-size="10.00">+ getEditorData()</text>
<text text-anchor="start" x="171.5" y="-332.5" font-family="Helvetica,sans-Serif" font-size="10.00">+ flags()</text>
<text text-anchor="start" x="171.5" y="-321.5" font-family="Helvetica,sans-Serif" font-size="10.00">and 29 more...</text>
<text text-anchor="start" x="171.5" y="-310.5" font-family="Helvetica,sans-Serif" font-size="10.00">+ childValueChanged()</text>
<text text-anchor="start" x="171.5" y="-299.5" font-family="Helvetica,sans-Serif" font-size="10.00"># VProperty()</text>
</a>
</g>
</g>
<!-- Node2&#45;&gt;Node1 -->
<g id="edge1" class="edge">
<title>Node2&#45;&gt;Node1</title>
<path fill="none" stroke="midnightblue" d="M262.27,-282.6C263.04,-279.71 263.79,-276.84 264.5,-274 266.88,-264.48 269.12,-254.57 271.2,-244.58"/>
<polygon fill="none" stroke="midnightblue" points="258.82,-281.92 259.52,-292.49 265.57,-283.79 258.82,-281.92"/>
</g>
<!-- Node4 -->
<g id="node4" class="node">
<title>Node4</title>
<g id="a_node4"><a xlink:href="../../db/d53/classVPE_1_1VPropertyPrivate.html" target="_top" xlink:title=" ">
<polygon fill="white" stroke="black" points="75.5,-39 75.5,-206 201.5,-206 201.5,-39 75.5,-39"/>
<text text-anchor="middle" x="138.5" y="-194" font-family="Helvetica,sans-Serif" font-size="10.00">VPE::VPropertyPrivate</text>
<polyline fill="none" stroke="black" points="75.5,-187 201.5,-187 "/>
<text text-anchor="start" x="83.5" y="-175" font-family="Helvetica,sans-Serif" font-size="10.00">+ VariantValue</text>
<text text-anchor="start" x="83.5" y="-164" font-family="Helvetica,sans-Serif" font-size="10.00">+ Name</text>
<text text-anchor="start" x="83.5" y="-153" font-family="Helvetica,sans-Serif" font-size="10.00">+ Description</text>
<text text-anchor="start" x="83.5" y="-142" font-family="Helvetica,sans-Serif" font-size="10.00">+ IsEmpty</text>
<text text-anchor="start" x="83.5" y="-131" font-family="Helvetica,sans-Serif" font-size="10.00">+ PropertyVariantType</text>
<text text-anchor="start" x="83.5" y="-120" font-family="Helvetica,sans-Serif" font-size="10.00">+ updateParent</text>
<text text-anchor="start" x="83.5" y="-109" font-family="Helvetica,sans-Serif" font-size="10.00">+ UpdateChildren</text>
<text text-anchor="start" x="83.5" y="-98" font-family="Helvetica,sans-Serif" font-size="10.00">+ editor</text>
<text text-anchor="start" x="83.5" y="-87" font-family="Helvetica,sans-Serif" font-size="10.00">+ type</text>
<polyline fill="none" stroke="black" points="75.5,-80 201.5,-80 "/>
<text text-anchor="start" x="83.5" y="-68" font-family="Helvetica,sans-Serif" font-size="10.00">+ VPropertyPrivate()</text>
<text text-anchor="start" x="83.5" y="-57" font-family="Helvetica,sans-Serif" font-size="10.00">+ VPropertyPrivate()</text>
<text text-anchor="start" x="83.5" y="-46" font-family="Helvetica,sans-Serif" font-size="10.00">+ ~VPropertyPrivate()</text>
</a>
</g>
</g>
<!-- Node2&#45;&gt;Node4 -->
<g id="edge5" class="edge">
<title>Node2&#45;&gt;Node4</title>
<path fill="none" stroke="#404040" d="M163.35,-294.89C160,-288 156.99,-281 154.5,-274 148.26,-256.45 144.25,-237.08 141.71,-218.25"/>
<polygon fill="none" stroke="#404040" points="141.7,-218.21 137.02,-212.73 140.28,-206.29 144.96,-211.77 141.7,-218.21"/>
<text text-anchor="middle" x="176" y="-266" font-family="Helvetica,sans-Serif" font-size="10.00"> +Parent</text>
</g>
<!-- Node3 -->
<g id="node3" class="node">
<title>Node3</title>
<g id="a_node3"><a xlink:title=" ">
<polygon fill="white" stroke="#bfbfbf" points="199.5,-519.5 199.5,-576.5 255.5,-576.5 255.5,-519.5 199.5,-519.5"/>
<text text-anchor="middle" x="227.5" y="-564.5" font-family="Helvetica,sans-Serif" font-size="10.00">QObject</text>
<polyline fill="none" stroke="#bfbfbf" points="199.5,-557.5 255.5,-557.5 "/>
<text text-anchor="middle" x="227.5" y="-545.5" font-family="Helvetica,sans-Serif" font-size="10.00"> </text>
<polyline fill="none" stroke="#bfbfbf" points="199.5,-538.5 255.5,-538.5 "/>
<text text-anchor="middle" x="227.5" y="-526.5" font-family="Helvetica,sans-Serif" font-size="10.00"> </text>
</a>
</g>
</g>
<!-- Node3&#45;&gt;Node2 -->
<g id="edge2" class="edge">
<title>Node3&#45;&gt;Node2</title>
<path fill="none" stroke="midnightblue" d="M227.5,-509.08C227.5,-500.6 227.5,-491.24 227.5,-481.6"/>
<polygon fill="none" stroke="midnightblue" points="224,-509.3 227.5,-519.3 231,-509.3 224,-509.3"/>
</g>
<!-- Node4&#45;&gt;Node2 -->
<g id="edge3" class="edge">
<title>Node4&#45;&gt;Node2</title>
<path fill="none" stroke="#404040" d="M179.31,-206.06C187.43,-224.51 195.34,-244.18 201.5,-263 203.38,-268.75 205.16,-274.7 206.84,-280.74"/>
<polygon fill="none" stroke="#404040" points="206.86,-280.82 212.27,-285.59 209.94,-292.42 204.53,-287.65 206.86,-280.82"/>
<text text-anchor="middle" x="223" y="-266" font-family="Helvetica,sans-Serif" font-size="10.00"> #d_ptr</text>
</g>
<!-- Node5 -->
<g id="node5" class="node">
<title>Node5</title>
<g id="a_node5"><a xlink:href="../../d1/d4a/classQList.html" target="_top" xlink:title=" ">
<polygon fill="white" stroke="black" points="0,-358.5 0,-415.5 145,-415.5 145,-358.5 0,-358.5"/>
<text text-anchor="middle" x="72.5" y="-403.5" font-family="Helvetica,sans-Serif" font-size="10.00">QList&lt; VPE::VProperty * &gt;</text>
<polyline fill="none" stroke="black" points="0,-396.5 145,-396.5 "/>
<text text-anchor="middle" x="72.5" y="-384.5" font-family="Helvetica,sans-Serif" font-size="10.00"> </text>
<polyline fill="none" stroke="black" points="0,-377.5 145,-377.5 "/>
<text text-anchor="middle" x="72.5" y="-365.5" font-family="Helvetica,sans-Serif" font-size="10.00"> </text>
</a>
</g>
</g>
<!-- Node5&#45;&gt;Node4 -->
<g id="edge4" class="edge">
<title>Node5&#45;&gt;Node4</title>
<path fill="none" stroke="#404040" d="M71.73,-358.26C71.63,-333.08 73,-295.09 80.5,-263 84.02,-247.94 88.99,-232.41 94.57,-217.44"/>
<polygon fill="none" stroke="#404040" points="94.62,-217.31 93.04,-210.27 98.93,-206.11 100.51,-213.15 94.62,-217.31"/>
<text text-anchor="middle" x="106.5" y="-266" font-family="Helvetica,sans-Serif" font-size="10.00"> +Children</text>
</g>
</g>
</svg>
