<?xml version="1.0" encoding="UTF-8" standalone="no"?>
<!DOCTYPE svg PUBLIC "-//W3C//DTD SVG 1.1//EN"
 "http://www.w3.org/Graphics/SVG/1.1/DTD/svg11.dtd">
<!-- Generated by graphviz version 2.43.0 (0)
 -->
<!-- Title: src/libs/vpatterndb/floatItemData/vpatternlabeldata.h Pages: 1 -->
<!--zoomable 296 -->
<svg id="main" version="1.1" xmlns="http://www.w3.org/2000/svg" xmlns:xlink="http://www.w3.org/1999/xlink" xml:space="preserve" onload="init(evt)">
<style type="text/css"><![CDATA[
.edge:hover path { stroke: red; }
.edge:hover polygon { stroke: red; fill: red; }
]]></style>
<script type="text/javascript"><![CDATA[
var edges = document.getElementsByTagName('g');
if (edges && edges.length) {
  for (var i=0;i<edges.length;i++) {
    if (edges[i].id.substr(0,4)=='edge') {
      edges[i].setAttribute('class','edge');
    }
  }
}
]]></script>
        <defs>
                <circle id="rim" cx="0" cy="0" r="7"/>
                <circle id="rim2" cx="0" cy="0" r="3.5"/>
                <g id="zoomPlus">
                        <use xlink:href="#rim" fill="#404040">
                                <set attributeName="fill" to="#808080" begin="zoomplus.mouseover" end="zoomplus.mouseout"/>
                        </use>
                        <path d="M-4,0h8M0,-4v8" fill="none" stroke="white" stroke-width="1.5" pointer-events="none"/>
                </g>
                <g id="zoomMin">
                        <use xlink:href="#rim" fill="#404040">
                                <set attributeName="fill" to="#808080" begin="zoomminus.mouseover" end="zoomminus.mouseout"/>
                        </use>
                        <path d="M-4,0h8" fill="none" stroke="white" stroke-width="1.5" pointer-events="none"/>
                </g>
                <g id="dirArrow">
                        <path fill="none" stroke="white" stroke-width="1.5" d="M0,-3.0v7 M-2.5,-0.5L0,-3.0L2.5,-0.5"/>
                </g>
               <g id="resetDef">
                       <use xlink:href="#rim2" fill="#404040">
                               <set attributeName="fill" to="#808080" begin="reset.mouseover" end="reset.mouseout"/>
                       </use>
               </g>
        </defs>

<script type="text/javascript">
var viewWidth = 1451;
var viewHeight = 296;
var sectionId = 'dynsection-1';
</script>
<script xlink:href="../../svgpan.js"/>
<svg id="graph" class="graph">
<g id="viewport">
<title>src/libs/vpatterndb/floatItemData/vpatternlabeldata.h</title>
<polygon fill="white" stroke="transparent" points="-4,4 -4,-292 1447.47,-292 1447.47,4 -4,4"/>
<!-- Node1 -->
<g id="node1" class="node">
<title>Node1</title>
<g id="a_node1"><a xlink:title=" ">
<polygon fill="#bfbfbf" stroke="black" points="404.97,-257.5 404.97,-287.5 590.97,-287.5 590.97,-257.5 404.97,-257.5"/>
<text text-anchor="start" x="412.97" y="-275.5" font-family="Helvetica,sans-Serif" font-size="10.00">src/libs/vpatterndb</text>
<text text-anchor="middle" x="497.97" y="-264.5" font-family="Helvetica,sans-Serif" font-size="10.00">/floatItemData/vpatternlabeldata.h</text>
</a>
</g>
</g>
<!-- Node2 -->
<g id="node2" class="node">
<title>Node2</title>
<g id="a_node2"><a xlink:href="../../d6/d2f/vlayoutpiece__p_8h.html" target="_top" xlink:title=" ">
<polygon fill="white" stroke="black" points="15.47,-129 15.47,-148 192.47,-148 192.47,-129 15.47,-129"/>
<text text-anchor="middle" x="103.97" y="-136" font-family="Helvetica,sans-Serif" font-size="10.00">src/libs/vlayout/vlayoutpiece_p.h</text>
</a>
</g>
</g>
<!-- Node1&#45;&gt;Node2 -->
<g id="edge1" class="edge">
<title>Node1&#45;&gt;Node2</title>
<path fill="none" stroke="midnightblue" d="M443.99,-254.27C413.91,-244.61 375.82,-232.27 341.97,-221 263.86,-194.99 171.74,-163.09 128.59,-148.08"/>
<polygon fill="midnightblue" stroke="midnightblue" points="443.27,-257.72 453.86,-257.44 445.41,-251.05 443.27,-257.72"/>
</g>
<!-- Node3 -->
<g id="node3" class="node">
<title>Node3</title>
<g id="a_node3"><a xlink:href="../../dd/d70/vlayoutpiece_8cpp.html" target="_top" xlink:title=" ">
<polygon fill="white" stroke="black" points="16.47,-62 16.47,-81 193.47,-81 193.47,-62 16.47,-62"/>
<text text-anchor="middle" x="104.97" y="-69" font-family="Helvetica,sans-Serif" font-size="10.00">src/libs/vlayout/vlayoutpiece.cpp</text>
</a>
</g>
</g>
<!-- Node1&#45;&gt;Node3 -->
<g id="edge15" class="edge">
<title>Node1&#45;&gt;Node3</title>
<path fill="none" stroke="midnightblue" d="M394.93,-261.98C264.86,-247.56 52.41,-215.12 5.97,-154 -2.37,-143.03 -1.23,-134.75 5.97,-123 19.37,-101.12 45.57,-88.34 67.65,-81.12"/>
<polygon fill="midnightblue" stroke="midnightblue" points="394.61,-265.47 404.93,-263.08 395.37,-258.51 394.61,-265.47"/>
</g>
<!-- Node4 -->
<g id="node4" class="node">
<title>Node4</title>
<g id="a_node4"><a xlink:href="../../d6/de0/vlayoutpiece_8h.html" target="_top" xlink:title=" ">
<polygon fill="white" stroke="black" points="653.97,-129 653.97,-148 819.97,-148 819.97,-129 653.97,-129"/>
<text text-anchor="middle" x="736.97" y="-136" font-family="Helvetica,sans-Serif" font-size="10.00">src/libs/vlayout/vlayoutpiece.h</text>
</a>
</g>
</g>
<!-- Node1&#45;&gt;Node4 -->
<g id="edge3" class="edge">
<title>Node1&#45;&gt;Node4</title>
<path fill="none" stroke="midnightblue" d="M515,-249.53C530.24,-231.24 554.1,-205.75 579.97,-190 614.7,-168.86 659.2,-155.64 691.96,-148.05"/>
<polygon fill="midnightblue" stroke="midnightblue" points="512.23,-247.39 508.63,-257.36 517.66,-251.81 512.23,-247.39"/>
</g>
<!-- Node13 -->
<g id="node13" class="node">
<title>Node13</title>
<g id="a_node13"><a xlink:href="../../dd/d40/vpatternlabeldata_8cpp.html" target="_top" xlink:title=" ">
<polygon fill="white" stroke="black" points="622.47,-190.5 622.47,-220.5 819.47,-220.5 819.47,-190.5 622.47,-190.5"/>
<text text-anchor="start" x="630.47" y="-208.5" font-family="Helvetica,sans-Serif" font-size="10.00">src/libs/vpatterndb</text>
<text text-anchor="middle" x="720.97" y="-197.5" font-family="Helvetica,sans-Serif" font-size="10.00">/floatItemData/vpatternlabeldata.cpp</text>
</a>
</g>
</g>
<!-- Node1&#45;&gt;Node13 -->
<g id="edge16" class="edge">
<title>Node1&#45;&gt;Node13</title>
<path fill="none" stroke="midnightblue" d="M556.02,-254.58C592.24,-244.02 638.31,-230.59 672.56,-220.61"/>
<polygon fill="midnightblue" stroke="midnightblue" points="554.7,-251.32 546.08,-257.48 556.66,-258.04 554.7,-251.32"/>
</g>
<!-- Node14 -->
<g id="node14" class="node">
<title>Node14</title>
<g id="a_node14"><a xlink:href="../../d8/dbc/vpiecelabeldata_8h.html" target="_top" xlink:title=" ">
<polygon fill="white" stroke="black" points="351.47,-190.5 351.47,-220.5 528.47,-220.5 528.47,-190.5 351.47,-190.5"/>
<text text-anchor="start" x="359.47" y="-208.5" font-family="Helvetica,sans-Serif" font-size="10.00">src/libs/vpatterndb</text>
<text text-anchor="middle" x="439.97" y="-197.5" font-family="Helvetica,sans-Serif" font-size="10.00">/floatItemData/vpiecelabeldata.h</text>
</a>
</g>
</g>
<!-- Node1&#45;&gt;Node14 -->
<g id="edge17" class="edge">
<title>Node1&#45;&gt;Node14</title>
<path fill="none" stroke="midnightblue" d="M478.55,-249.74C469.97,-240.12 460.12,-229.09 452.53,-220.58"/>
<polygon fill="midnightblue" stroke="midnightblue" points="476.11,-252.26 485.38,-257.4 481.34,-247.6 476.11,-252.26"/>
</g>
<!-- Node17 -->
<g id="node17" class="node">
<title>Node17</title>
<g id="a_node17"><a xlink:href="../../d8/da5/vpiece__p_8h.html" target="_top" xlink:title=" ">
<polygon fill="white" stroke="black" points="838.47,-123.5 838.47,-153.5 945.47,-153.5 945.47,-123.5 838.47,-123.5"/>
<text text-anchor="start" x="846.47" y="-141.5" font-family="Helvetica,sans-Serif" font-size="10.00">src/libs/vpatterndb</text>
<text text-anchor="middle" x="891.97" y="-130.5" font-family="Helvetica,sans-Serif" font-size="10.00">/vpiece_p.h</text>
</a>
</g>
</g>
<!-- Node1&#45;&gt;Node17 -->
<g id="edge25" class="edge">
<title>Node1&#45;&gt;Node17</title>
<path fill="none" stroke="midnightblue" d="M529.89,-252.08C544.25,-243.02 561.24,-231.87 575.97,-221 593.23,-208.26 593.48,-198.97 612.97,-190 701.38,-149.32 733.5,-172.92 828.97,-154 832.05,-153.39 835.21,-152.74 838.4,-152.06"/>
<polygon fill="midnightblue" stroke="midnightblue" points="527.96,-249.15 521.33,-257.42 531.67,-255.09 527.96,-249.15"/>
</g>
<!-- Node2&#45;&gt;Node3 -->
<g id="edge2" class="edge">
<title>Node2&#45;&gt;Node3</title>
<path fill="none" stroke="midnightblue" d="M104.26,-118.54C104.45,-106.17 104.69,-90.62 104.83,-81.13"/>
<polygon fill="midnightblue" stroke="midnightblue" points="100.76,-118.68 104.1,-128.73 107.76,-118.79 100.76,-118.68"/>
</g>
<!-- Node4&#45;&gt;Node3 -->
<g id="edge14" class="edge">
<title>Node4&#45;&gt;Node3</title>
<path fill="none" stroke="midnightblue" d="M677.26,-127.42C666.53,-125.8 655.43,-124.25 644.97,-123 448.82,-99.61 398.21,-109.61 201.97,-87 187.5,-85.33 171.88,-83.16 157.49,-81.01"/>
<polygon fill="midnightblue" stroke="midnightblue" points="676.99,-130.92 687.41,-128.99 678.06,-124 676.99,-130.92"/>
</g>
<!-- Node5 -->
<g id="node5" class="node">
<title>Node5</title>
<g id="a_node5"><a xlink:href="../../dd/d66/vdxfengine_8cpp.html" target="_top" xlink:title=" ">
<polygon fill="white" stroke="black" points="989.97,-62 989.97,-81 1143.97,-81 1143.97,-62 989.97,-62"/>
<text text-anchor="middle" x="1066.97" y="-69" font-family="Helvetica,sans-Serif" font-size="10.00">src/libs/vdxf/vdxfengine.cpp</text>
</a>
</g>
</g>
<!-- Node4&#45;&gt;Node5 -->
<g id="edge4" class="edge">
<title>Node4&#45;&gt;Node5</title>
<path fill="none" stroke="midnightblue" d="M790.49,-126.96C855.44,-114.16 963.69,-92.84 1023.65,-81.03"/>
<polygon fill="midnightblue" stroke="midnightblue" points="789.58,-123.57 780.45,-128.94 790.94,-130.44 789.58,-123.57"/>
</g>
<!-- Node6 -->
<g id="node6" class="node">
<title>Node6</title>
<g id="a_node6"><a xlink:href="../../df/d5d/vcontour_8cpp.html" target="_top" xlink:title=" ">
<polygon fill="white" stroke="black" points="1161.97,-62 1161.97,-81 1317.97,-81 1317.97,-62 1161.97,-62"/>
<text text-anchor="middle" x="1239.97" y="-69" font-family="Helvetica,sans-Serif" font-size="10.00">src/libs/vlayout/vcontour.cpp</text>
</a>
</g>
</g>
<!-- Node4&#45;&gt;Node6 -->
<g id="edge5" class="edge">
<title>Node4&#45;&gt;Node6</title>
<path fill="none" stroke="midnightblue" d="M798.52,-127.4C808.68,-125.85 819.11,-124.32 828.97,-123 972.56,-103.72 1009.46,-106.92 1152.97,-87 1165.56,-85.25 1179.13,-83.11 1191.72,-81.02"/>
<polygon fill="midnightblue" stroke="midnightblue" points="797.83,-123.97 788.48,-128.96 798.9,-130.88 797.83,-123.97"/>
</g>
<!-- Node7 -->
<g id="node7" class="node">
<title>Node7</title>
<g id="a_node7"><a xlink:href="../../d3/d39/vlayoutgenerator_8cpp.html" target="_top" xlink:title=" ">
<polygon fill="white" stroke="black" points="211.47,-62 211.47,-81 408.47,-81 408.47,-62 211.47,-62"/>
<text text-anchor="middle" x="309.97" y="-69" font-family="Helvetica,sans-Serif" font-size="10.00">src/libs/vlayout/vlayoutgenerator.cpp</text>
</a>
</g>
</g>
<!-- Node4&#45;&gt;Node7 -->
<g id="edge6" class="edge">
<title>Node4&#45;&gt;Node7</title>
<path fill="none" stroke="midnightblue" d="M672.91,-127.35C663.54,-125.88 654,-124.39 644.97,-123 547.45,-107.97 433.89,-90.95 367.19,-81.01"/>
<polygon fill="midnightblue" stroke="midnightblue" points="672.56,-130.83 682.98,-128.93 673.64,-123.92 672.56,-130.83"/>
</g>
<!-- Node8 -->
<g id="node8" class="node">
<title>Node8</title>
<g id="a_node8"><a xlink:href="../../d2/d2d/vlayoutpaper__p_8h.html" target="_top" xlink:title=" ">
<polygon fill="white" stroke="black" points="426.47,-62 426.47,-81 605.47,-81 605.47,-62 426.47,-62"/>
<text text-anchor="middle" x="515.97" y="-69" font-family="Helvetica,sans-Serif" font-size="10.00">src/libs/vlayout/vlayoutpaper_p.h</text>
</a>
</g>
</g>
<!-- Node4&#45;&gt;Node8 -->
<g id="edge7" class="edge">
<title>Node4&#45;&gt;Node8</title>
<path fill="none" stroke="midnightblue" d="M697.9,-126.01C654.16,-113.15 584.29,-92.59 545.08,-81.06"/>
<polygon fill="midnightblue" stroke="midnightblue" points="697.04,-129.4 707.62,-128.87 699.01,-122.69 697.04,-129.4"/>
</g>
<!-- Node9 -->
<g id="node9" class="node">
<title>Node9</title>
<g id="a_node9"><a xlink:href="../../d1/dd1/vlayoutpaper_8cpp.html" target="_top" xlink:title=" ">
<polygon fill="white" stroke="black" points="502.97,-0.5 502.97,-19.5 680.97,-19.5 680.97,-0.5 502.97,-0.5"/>
<text text-anchor="middle" x="591.97" y="-7.5" font-family="Helvetica,sans-Serif" font-size="10.00">src/libs/vlayout/vlayoutpaper.cpp</text>
</a>
</g>
</g>
<!-- Node4&#45;&gt;Node9 -->
<g id="edge10" class="edge">
<title>Node4&#45;&gt;Node9</title>
<path fill="none" stroke="midnightblue" d="M709.68,-124.27C692.4,-115.16 670.16,-102.02 652.97,-87 629.01,-66.08 607.34,-34.9 597.52,-19.81"/>
<polygon fill="midnightblue" stroke="midnightblue" points="708.21,-127.45 718.7,-128.91 711.41,-121.23 708.21,-127.45"/>
</g>
<!-- Node10 -->
<g id="node10" class="node">
<title>Node10</title>
<g id="a_node10"><a xlink:href="../../de/da8/vbank_8cpp.html" target="_top" xlink:title=" ">
<polygon fill="white" stroke="black" points="827.97,-62 827.97,-81 971.97,-81 971.97,-62 827.97,-62"/>
<text text-anchor="middle" x="899.97" y="-69" font-family="Helvetica,sans-Serif" font-size="10.00">src/libs/vlayout/vbank.cpp</text>
</a>
</g>
</g>
<!-- Node4&#45;&gt;Node10 -->
<g id="edge9" class="edge">
<title>Node4&#45;&gt;Node10</title>
<path fill="none" stroke="midnightblue" d="M768.05,-125.1C800.42,-112.2 850.25,-92.33 878.49,-81.06"/>
<polygon fill="midnightblue" stroke="midnightblue" points="766.6,-121.91 758.61,-128.87 769.2,-128.42 766.6,-121.91"/>
</g>
<!-- Node11 -->
<g id="node11" class="node">
<title>Node11</title>
<g id="a_node11"><a xlink:href="../../db/d5c/vposition_8h.html" target="_top" xlink:title=" ">
<polygon fill="white" stroke="black" points="661.97,-62 661.97,-81 809.97,-81 809.97,-62 661.97,-62"/>
<text text-anchor="middle" x="735.97" y="-69" font-family="Helvetica,sans-Serif" font-size="10.00">src/libs/vlayout/vposition.h</text>
</a>
</g>
</g>
<!-- Node4&#45;&gt;Node11 -->
<g id="edge11" class="edge">
<title>Node4&#45;&gt;Node11</title>
<path fill="none" stroke="midnightblue" d="M736.68,-118.54C736.49,-106.17 736.25,-90.62 736.1,-81.13"/>
<polygon fill="midnightblue" stroke="midnightblue" points="733.18,-118.79 736.83,-128.73 740.18,-118.68 733.18,-118.79"/>
</g>
<!-- Node8&#45;&gt;Node9 -->
<g id="edge8" class="edge">
<title>Node8&#45;&gt;Node9</title>
<path fill="none" stroke="midnightblue" d="M534.75,-55.79C549.33,-44.38 569.03,-28.96 581.1,-19.51"/>
<polygon fill="midnightblue" stroke="midnightblue" points="532.57,-53.05 526.86,-61.98 536.89,-58.57 532.57,-53.05"/>
</g>
<!-- Node11&#45;&gt;Node9 -->
<g id="edge12" class="edge">
<title>Node11&#45;&gt;Node9</title>
<path fill="none" stroke="midnightblue" d="M706.03,-58.13C678.06,-46.57 637.03,-29.62 612.56,-19.51"/>
<polygon fill="midnightblue" stroke="midnightblue" points="704.76,-61.39 715.34,-61.98 707.43,-54.92 704.76,-61.39"/>
</g>
<!-- Node12 -->
<g id="node12" class="node">
<title>Node12</title>
<g id="a_node12"><a xlink:href="../../df/d76/vposition_8cpp.html" target="_top" xlink:title=" ">
<polygon fill="white" stroke="black" points="698.47,-0.5 698.47,-19.5 857.47,-19.5 857.47,-0.5 698.47,-0.5"/>
<text text-anchor="middle" x="777.97" y="-7.5" font-family="Helvetica,sans-Serif" font-size="10.00">src/libs/vlayout/vposition.cpp</text>
</a>
</g>
</g>
<!-- Node11&#45;&gt;Node12 -->
<g id="edge13" class="edge">
<title>Node11&#45;&gt;Node12</title>
<path fill="none" stroke="midnightblue" d="M747.96,-53.51C755.81,-42.39 765.73,-28.34 771.96,-19.51"/>
<polygon fill="midnightblue" stroke="midnightblue" points="744.89,-51.79 741.98,-61.98 750.61,-55.82 744.89,-51.79"/>
</g>
<!-- Node14&#45;&gt;Node2 -->
<g id="edge18" class="edge">
<title>Node14&#45;&gt;Node2</title>
<path fill="none" stroke="midnightblue" d="M357.49,-188.54C291.36,-175.75 201.13,-158.3 148.05,-148.03"/>
<polygon fill="midnightblue" stroke="midnightblue" points="356.99,-192.01 367.47,-190.48 358.32,-185.14 356.99,-192.01"/>
</g>
<!-- Node14&#45;&gt;Node3 -->
<g id="edge20" class="edge">
<title>Node14&#45;&gt;Node3</title>
<path fill="none" stroke="midnightblue" d="M341.56,-188.79C307.89,-181.1 270.72,-169.94 238.97,-154 219.49,-144.22 219.15,-135.02 200.97,-123 175.52,-106.17 143.84,-90.42 124,-81.12"/>
<polygon fill="midnightblue" stroke="midnightblue" points="340.91,-192.23 351.43,-190.97 342.42,-185.39 340.91,-192.23"/>
</g>
<!-- Node14&#45;&gt;Node4 -->
<g id="edge19" class="edge">
<title>Node14&#45;&gt;Node4</title>
<path fill="none" stroke="midnightblue" d="M513.95,-188.31C572.31,-175.54 651.37,-158.23 698,-148.03"/>
<polygon fill="midnightblue" stroke="midnightblue" points="513.07,-184.92 504.05,-190.48 514.56,-191.76 513.07,-184.92"/>
</g>
<!-- Node15 -->
<g id="node15" class="node">
<title>Node15</title>
<g id="a_node15"><a xlink:href="../../d8/d70/vtextmanager_8cpp.html" target="_top" xlink:title=" ">
<polygon fill="white" stroke="black" points="247.97,-129 247.97,-148 429.97,-148 429.97,-129 247.97,-129"/>
<text text-anchor="middle" x="338.97" y="-136" font-family="Helvetica,sans-Serif" font-size="10.00">src/libs/vlayout/vtextmanager.cpp</text>
</a>
</g>
</g>
<!-- Node14&#45;&gt;Node15 -->
<g id="edge21" class="edge">
<title>Node14&#45;&gt;Node15</title>
<path fill="none" stroke="midnightblue" d="M409.63,-184.97C390.48,-172.65 366.7,-157.35 352.19,-148.01"/>
<polygon fill="midnightblue" stroke="midnightblue" points="407.75,-187.93 418.05,-190.4 411.54,-182.04 407.75,-187.93"/>
</g>
<!-- Node16 -->
<g id="node16" class="node">
<title>Node16</title>
<g id="a_node16"><a xlink:href="../../de/d4a/vpiecelabeldata_8cpp.html" target="_top" xlink:title=" ">
<polygon fill="white" stroke="black" points="447.97,-123.5 447.97,-153.5 635.97,-153.5 635.97,-123.5 447.97,-123.5"/>
<text text-anchor="start" x="455.97" y="-141.5" font-family="Helvetica,sans-Serif" font-size="10.00">src/libs/vpatterndb</text>
<text text-anchor="middle" x="541.97" y="-130.5" font-family="Helvetica,sans-Serif" font-size="10.00">/floatItemData/vpiecelabeldata.cpp</text>
</a>
</g>
</g>
<!-- Node14&#45;&gt;Node16 -->
<g id="edge22" class="edge">
<title>Node14&#45;&gt;Node16</title>
<path fill="none" stroke="midnightblue" d="M470.54,-185.02C486.42,-174.9 505.45,-162.77 519.88,-153.58"/>
<polygon fill="midnightblue" stroke="midnightblue" points="468.65,-182.07 462.1,-190.4 472.41,-187.97 468.65,-182.07"/>
</g>
<!-- Node14&#45;&gt;Node17 -->
<g id="edge23" class="edge">
<title>Node14&#45;&gt;Node17</title>
<path fill="none" stroke="midnightblue" d="M539.2,-194.31C618.05,-185.56 730.98,-171.59 828.97,-154 832.06,-153.44 835.23,-152.84 838.42,-152.2"/>
<polygon fill="midnightblue" stroke="midnightblue" points="538.35,-190.88 528.79,-195.45 539.12,-197.84 538.35,-190.88"/>
</g>
<!-- Node18 -->
<g id="node18" class="node">
<title>Node18</title>
<g id="a_node18"><a xlink:href="../../df/d7a/vpiece_8cpp.html" target="_top" xlink:title=" ">
<polygon fill="white" stroke="black" points="1336.47,-56.5 1336.47,-86.5 1443.47,-86.5 1443.47,-56.5 1336.47,-56.5"/>
<text text-anchor="start" x="1344.47" y="-74.5" font-family="Helvetica,sans-Serif" font-size="10.00">src/libs/vpatterndb</text>
<text text-anchor="middle" x="1389.97" y="-63.5" font-family="Helvetica,sans-Serif" font-size="10.00">/vpiece.cpp</text>
</a>
</g>
</g>
<!-- Node17&#45;&gt;Node18 -->
<g id="edge24" class="edge">
<title>Node17&#45;&gt;Node18</title>
<path fill="none" stroke="midnightblue" d="M955.49,-132.34C1040.49,-124.94 1195.76,-109.64 1326.97,-87 1330.06,-86.47 1333.24,-85.87 1336.43,-85.25"/>
<polygon fill="midnightblue" stroke="midnightblue" points="955.14,-128.86 945.48,-133.21 955.74,-135.84 955.14,-128.86"/>
</g>
</g>
</svg>
        <g id="navigator" transform="translate(0 0)" fill="#404254">
                <rect fill="#f2f5e9" fill-opacity="0.5" stroke="#606060" stroke-width=".5" x="0" y="0" width="60" height="60"/>
                <use id="zoomplus" xlink:href="#zoomPlus" x="17" y="9" onmousedown="handleZoom(evt,'in')"/>
                <use id="zoomminus" xlink:href="#zoomMin" x="42" y="9" onmousedown="handleZoom(evt,'out')"/>
                <use id="reset" xlink:href="#resetDef" x="30" y="36" onmousedown="handleReset()"/>
                <g id="arrowUp" xlink:href="#dirArrow" transform="translate(30 24)" onmousedown="handlePan(0,-1)">
                  <use xlink:href="#rim" fill="#404040">
                        <set attributeName="fill" to="#808080" begin="arrowUp.mouseover" end="arrowUp.mouseout"/>
                  </use>
                  <path fill="none" stroke="white" stroke-width="1.5" d="M0,-3.0v7 M-2.5,-0.5L0,-3.0L2.5,-0.5"/>
                </g>
                <g id="arrowRight" xlink:href="#dirArrow" transform="rotate(90) translate(36 -43)" onmousedown="handlePan(1,0)">
                  <use xlink:href="#rim" fill="#404040">
                        <set attributeName="fill" to="#808080" begin="arrowRight.mouseover" end="arrowRight.mouseout"/>
                  </use>
                  <path fill="none" stroke="white" stroke-width="1.5" d="M0,-3.0v7 M-2.5,-0.5L0,-3.0L2.5,-0.5"/>
                </g>
                <g id="arrowDown" xlink:href="#dirArrow" transform="rotate(180) translate(-30 -48)" onmousedown="handlePan(0,1)">
                  <use xlink:href="#rim" fill="#404040">
                        <set attributeName="fill" to="#808080" begin="arrowDown.mouseover" end="arrowDown.mouseout"/>
                  </use>
                  <path fill="none" stroke="white" stroke-width="1.5" d="M0,-3.0v7 M-2.5,-0.5L0,-3.0L2.5,-0.5"/>
                </g>
                <g id="arrowLeft" xlink:href="#dirArrow" transform="rotate(270) translate(-36 17)" onmousedown="handlePan(-1,0)">
                  <use xlink:href="#rim" fill="#404040">
                        <set attributeName="fill" to="#808080" begin="arrowLeft.mouseover" end="arrowLeft.mouseout"/>
                  </use>
                  <path fill="none" stroke="white" stroke-width="1.5" d="M0,-3.0v7 M-2.5,-0.5L0,-3.0L2.5,-0.5"/>
                </g>
        </g>
        <svg viewBox="0 0 15 15" width="100%" height="30px" preserveAspectRatio="xMaxYMin meet">
         <g id="arrow_out" transform="scale(0.3 0.3)">
          <a xlink:href="vpatternlabeldata_8h__dep__incl_org.svg" target="_base">
           <rect id="button" ry="5" rx="5" y="6" x="6" height="38" width="38"
                fill="#f2f5e9" fill-opacity="0.5" stroke="#606060" stroke-width="1.0"/>
           <path id="arrow"
             d="M 11.500037,31.436501 C 11.940474,20.09759 22.043105,11.32322 32.158766,21.979434 L 37.068811,17.246167 C 37.068811,17.246167 37.088388,32 37.088388,32 L 22.160133,31.978069 C 22.160133,31.978069 26.997745,27.140456 26.997745,27.140456 C 18.528582,18.264221 13.291696,25.230495 11.500037,31.436501 z"
             style="fill:#404040;"/>
          </a>
         </g>
        </svg>
</svg>
