<?xml version="1.0" encoding="UTF-8" standalone="no"?>
<!DOCTYPE svg PUBLIC "-//W3C//DTD SVG 1.1//EN"
 "http://www.w3.org/Graphics/SVG/1.1/DTD/svg11.dtd">
<!-- Generated by graphviz version 2.43.0 (0)
 -->
<!-- Title: SeamlyMeWelcomeDialog Pages: 1 -->
<svg width="180pt" height="237pt"
 viewBox="0.00 0.00 180.00 237.00" xmlns="http://www.w3.org/2000/svg" xmlns:xlink="http://www.w3.org/1999/xlink">
<g id="graph0" class="graph" transform="scale(1 1) rotate(0) translate(4 233)">
<title>SeamlyMeWelcomeDialog</title>
<polygon fill="white" stroke="transparent" points="-4,4 -4,-233 176,-233 176,4 -4,4"/>
<!-- Node1 -->
<g id="node1" class="node">
<title>Node1</title>
<g id="a_node1"><a xlink:title=" ">
<polygon fill="#bfbfbf" stroke="black" points="0,-0.5 0,-134.5 172,-134.5 172,-0.5 0,-0.5"/>
<text text-anchor="middle" x="86" y="-122.5" font-family="Helvetica,sans-Serif" font-size="10.00">SeamlyMeWelcomeDialog</text>
<polyline fill="none" stroke="black" points="0,-115.5 172,-115.5 "/>
<text text-anchor="start" x="8" y="-103.5" font-family="Helvetica,sans-Serif" font-size="10.00">&#45; ui</text>
<text text-anchor="start" x="8" y="-92.5" font-family="Helvetica,sans-Serif" font-size="10.00">&#45; m_langChanged</text>
<text text-anchor="start" x="8" y="-81.5" font-family="Helvetica,sans-Serif" font-size="10.00">&#45; settings</text>
<polyline fill="none" stroke="black" points="0,-74.5 172,-74.5 "/>
<text text-anchor="start" x="8" y="-62.5" font-family="Helvetica,sans-Serif" font-size="10.00">+ SeamlyMeWelcomeDialog()</text>
<text text-anchor="start" x="8" y="-51.5" font-family="Helvetica,sans-Serif" font-size="10.00">+ ~SeamlyMeWelcomeDialog()</text>
<text text-anchor="start" x="8" y="-40.5" font-family="Helvetica,sans-Serif" font-size="10.00">+ apply()</text>
<text text-anchor="start" x="8" y="-29.5" font-family="Helvetica,sans-Serif" font-size="10.00"># changeEvent()</text>
<text text-anchor="start" x="8" y="-18.5" font-family="Helvetica,sans-Serif" font-size="10.00"># seperatorChanged()</text>
<text text-anchor="start" x="8" y="-7.5" font-family="Helvetica,sans-Serif" font-size="10.00">&#45; initUnits()</text>
</a>
</g>
</g>
<!-- Node2 -->
<g id="node2" class="node">
<title>Node2</title>
<g id="a_node2"><a xlink:title=" ">
<polygon fill="white" stroke="#bfbfbf" points="58,-171.5 58,-228.5 114,-228.5 114,-171.5 58,-171.5"/>
<text text-anchor="middle" x="86" y="-216.5" font-family="Helvetica,sans-Serif" font-size="10.00">QDialog</text>
<polyline fill="none" stroke="#bfbfbf" points="58,-209.5 114,-209.5 "/>
<text text-anchor="middle" x="86" y="-197.5" font-family="Helvetica,sans-Serif" font-size="10.00"> </text>
<polyline fill="none" stroke="#bfbfbf" points="58,-190.5 114,-190.5 "/>
<text text-anchor="middle" x="86" y="-178.5" font-family="Helvetica,sans-Serif" font-size="10.00"> </text>
</a>
</g>
</g>
<!-- Node2&#45;&gt;Node1 -->
<g id="edge1" class="edge">
<title>Node2&#45;&gt;Node1</title>
<path fill="none" stroke="midnightblue" d="M86,-161.16C86,-152.78 86,-143.67 86,-134.53"/>
<polygon fill="none" stroke="midnightblue" points="82.5,-161.32 86,-171.32 89.5,-161.32 82.5,-161.32"/>
</g>
</g>
</svg>
