<?xml version="1.0" encoding="UTF-8" standalone="no"?>
<!DOCTYPE svg PUBLIC "-//W3C//DTD SVG 1.1//EN"
 "http://www.w3.org/Graphics/SVG/1.1/DTD/svg11.dtd">
<!-- Generated by graphviz version 2.43.0 (0)
 -->
<!-- Title: src/libs/vlayout/vlayoutdef.h Pages: 1 -->
<svg width="1456pt" height="196pt"
 viewBox="0.00 0.00 1455.89 196.00" xmlns="http://www.w3.org/2000/svg" xmlns:xlink="http://www.w3.org/1999/xlink">
<g id="graph0" class="graph" transform="scale(1 1) rotate(0) translate(4 192)">
<title>src/libs/vlayout/vlayoutdef.h</title>
<polygon fill="white" stroke="transparent" points="-4,4 -4,-192 1451.89,-192 1451.89,4 -4,4"/>
<!-- Node1 -->
<g id="node1" class="node">
<title>Node1</title>
<g id="a_node1"><a xlink:title=" ">
<polygon fill="#bfbfbf" stroke="black" points="670.89,-168.5 670.89,-187.5 825.89,-187.5 825.89,-168.5 670.89,-168.5"/>
<text text-anchor="middle" x="748.39" y="-175.5" font-family="Helvetica,sans-Serif" font-size="10.00">src/libs/vlayout/vlayoutdef.h</text>
</a>
</g>
</g>
<!-- Node2 -->
<g id="node2" class="node">
<title>Node2</title>
<g id="a_node2"><a xlink:href="../../de/d2f/vcontour_8h.html" target="_top" xlink:title=" ">
<polygon fill="white" stroke="black" points="216.89,-112.5 216.89,-131.5 361.89,-131.5 361.89,-112.5 216.89,-112.5"/>
<text text-anchor="middle" x="289.39" y="-119.5" font-family="Helvetica,sans-Serif" font-size="10.00">src/libs/vlayout/vcontour.h</text>
</a>
</g>
</g>
<!-- Node1&#45;&gt;Node2 -->
<g id="edge1" class="edge">
<title>Node1&#45;&gt;Node2</title>
<path fill="none" stroke="midnightblue" d="M665.86,-167.29C579.26,-157.1 444.48,-141.25 361.86,-131.53"/>
<polygon fill="midnightblue" stroke="midnightblue" points="665.57,-170.78 675.91,-168.47 666.39,-163.83 665.57,-170.78"/>
</g>
<!-- Node6 -->
<g id="node6" class="node">
<title>Node6</title>
<g id="a_node6"><a xlink:href="../../db/d5c/vposition_8h.html" target="_top" xlink:title=" ">
<polygon fill="white" stroke="black" points="385.39,-56.5 385.39,-75.5 533.39,-75.5 533.39,-56.5 385.39,-56.5"/>
<text text-anchor="middle" x="459.39" y="-63.5" font-family="Helvetica,sans-Serif" font-size="10.00">src/libs/vlayout/vposition.h</text>
</a>
</g>
</g>
<!-- Node1&#45;&gt;Node6 -->
<g id="edge19" class="edge">
<title>Node1&#45;&gt;Node6</title>
<path fill="none" stroke="midnightblue" d="M660.75,-173.02C591,-168.02 500.86,-156.83 474.39,-132 458.67,-117.26 457.88,-89.63 458.61,-75.62"/>
<polygon fill="midnightblue" stroke="midnightblue" points="660.66,-176.53 670.88,-173.72 661.14,-169.54 660.66,-176.53"/>
</g>
<!-- Node8 -->
<g id="node8" class="node">
<title>Node8</title>
<g id="a_node8"><a xlink:href="../../df/d35/vbestsquare_8h.html" target="_top" xlink:title=" ">
<polygon fill="white" stroke="black" points="483.89,-112.5 483.89,-131.5 646.89,-131.5 646.89,-112.5 483.89,-112.5"/>
<text text-anchor="middle" x="565.39" y="-119.5" font-family="Helvetica,sans-Serif" font-size="10.00">src/libs/vlayout/vbestsquare.h</text>
</a>
</g>
</g>
<!-- Node1&#45;&gt;Node8 -->
<g id="edge9" class="edge">
<title>Node1&#45;&gt;Node8</title>
<path fill="none" stroke="midnightblue" d="M709.64,-165.57C675.12,-155.38 625.38,-140.7 594.25,-131.52"/>
<polygon fill="midnightblue" stroke="midnightblue" points="708.81,-168.97 719.39,-168.44 710.79,-162.26 708.81,-168.97"/>
</g>
<!-- Node10 -->
<g id="node10" class="node">
<title>Node10</title>
<g id="a_node10"><a xlink:href="../../dc/d3c/vlayoutgenerator_8h.html" target="_top" xlink:title=" ">
<polygon fill="white" stroke="black" points="849.39,-112.5 849.39,-131.5 1035.39,-131.5 1035.39,-112.5 849.39,-112.5"/>
<text text-anchor="middle" x="942.39" y="-119.5" font-family="Helvetica,sans-Serif" font-size="10.00">src/libs/vlayout/vlayoutgenerator.h</text>
</a>
</g>
</g>
<!-- Node1&#45;&gt;Node10 -->
<g id="edge13" class="edge">
<title>Node1&#45;&gt;Node10</title>
<path fill="none" stroke="midnightblue" d="M788.99,-165.7C825.6,-155.51 878.64,-140.74 911.79,-131.52"/>
<polygon fill="midnightblue" stroke="midnightblue" points="787.82,-162.39 779.13,-168.44 789.7,-169.13 787.82,-162.39"/>
</g>
<!-- Node12 -->
<g id="node12" class="node">
<title>Node12</title>
<g id="a_node12"><a xlink:href="../../d9/d61/vlayoutpiecepath_8cpp.html" target="_top" xlink:title=" ">
<polygon fill="white" stroke="black" points="1053.89,-112.5 1053.89,-131.5 1252.89,-131.5 1252.89,-112.5 1053.89,-112.5"/>
<text text-anchor="middle" x="1153.39" y="-119.5" font-family="Helvetica,sans-Serif" font-size="10.00">src/libs/vlayout/vlayoutpiecepath.cpp</text>
</a>
</g>
</g>
<!-- Node1&#45;&gt;Node12 -->
<g id="edge15" class="edge">
<title>Node1&#45;&gt;Node12</title>
<path fill="none" stroke="midnightblue" d="M822.6,-167.1C899.08,-156.91 1017.06,-141.18 1089.51,-131.52"/>
<polygon fill="midnightblue" stroke="midnightblue" points="822.01,-163.65 812.56,-168.44 822.93,-170.59 822.01,-163.65"/>
</g>
<!-- Node13 -->
<g id="node13" class="node">
<title>Node13</title>
<g id="a_node13"><a xlink:href="../../d1/d07/vlayoutpaper_8h.html" target="_top" xlink:title=" ">
<polygon fill="white" stroke="black" points="664.89,-112.5 664.89,-131.5 831.89,-131.5 831.89,-112.5 664.89,-112.5"/>
<text text-anchor="middle" x="748.39" y="-119.5" font-family="Helvetica,sans-Serif" font-size="10.00">src/libs/vlayout/vlayoutpaper.h</text>
</a>
</g>
</g>
<!-- Node1&#45;&gt;Node13 -->
<g id="edge16" class="edge">
<title>Node1&#45;&gt;Node13</title>
<path fill="none" stroke="midnightblue" d="M748.39,-157.8C748.39,-148.91 748.39,-138.78 748.39,-131.75"/>
<polygon fill="midnightblue" stroke="midnightblue" points="744.89,-158.08 748.39,-168.08 751.89,-158.08 744.89,-158.08"/>
</g>
<!-- Node14 -->
<g id="node14" class="node">
<title>Node14</title>
<g id="a_node14"><a xlink:href="../../dd/d70/vlayoutpiece_8cpp.html" target="_top" xlink:title=" ">
<polygon fill="white" stroke="black" points="1270.89,-112.5 1270.89,-131.5 1447.89,-131.5 1447.89,-112.5 1270.89,-112.5"/>
<text text-anchor="middle" x="1359.39" y="-119.5" font-family="Helvetica,sans-Serif" font-size="10.00">src/libs/vlayout/vlayoutpiece.cpp</text>
</a>
</g>
</g>
<!-- Node1&#45;&gt;Node14 -->
<g id="edge20" class="edge">
<title>Node1&#45;&gt;Node14</title>
<path fill="none" stroke="midnightblue" d="M835.87,-169.48C938.17,-160.65 1112.59,-145.51 1262.39,-132 1265.17,-131.75 1267.99,-131.49 1270.84,-131.23"/>
<polygon fill="midnightblue" stroke="midnightblue" points="835.56,-165.99 825.9,-170.34 836.16,-172.97 835.56,-165.99"/>
</g>
<!-- Node3 -->
<g id="node3" class="node">
<title>Node3</title>
<g id="a_node3"><a xlink:href="../../df/d5d/vcontour_8cpp.html" target="_top" xlink:title=" ">
<polygon fill="white" stroke="black" points="211.39,-56.5 211.39,-75.5 367.39,-75.5 367.39,-56.5 211.39,-56.5"/>
<text text-anchor="middle" x="289.39" y="-63.5" font-family="Helvetica,sans-Serif" font-size="10.00">src/libs/vlayout/vcontour.cpp</text>
</a>
</g>
</g>
<!-- Node2&#45;&gt;Node3 -->
<g id="edge2" class="edge">
<title>Node2&#45;&gt;Node3</title>
<path fill="none" stroke="midnightblue" d="M289.39,-101.8C289.39,-92.91 289.39,-82.78 289.39,-75.75"/>
<polygon fill="midnightblue" stroke="midnightblue" points="285.89,-102.08 289.39,-112.08 292.89,-102.08 285.89,-102.08"/>
</g>
<!-- Node4 -->
<g id="node4" class="node">
<title>Node4</title>
<g id="a_node4"><a xlink:href="../../d2/d2d/vlayoutpaper__p_8h.html" target="_top" xlink:title=" ">
<polygon fill="white" stroke="black" points="13.89,-56.5 13.89,-75.5 192.89,-75.5 192.89,-56.5 13.89,-56.5"/>
<text text-anchor="middle" x="103.39" y="-63.5" font-family="Helvetica,sans-Serif" font-size="10.00">src/libs/vlayout/vlayoutpaper_p.h</text>
</a>
</g>
</g>
<!-- Node2&#45;&gt;Node4 -->
<g id="edge3" class="edge">
<title>Node2&#45;&gt;Node4</title>
<path fill="none" stroke="midnightblue" d="M250.01,-109.57C214.92,-99.38 164.36,-84.7 132.72,-75.52"/>
<polygon fill="midnightblue" stroke="midnightblue" points="249.33,-113.02 259.91,-112.44 251.29,-106.29 249.33,-113.02"/>
</g>
<!-- Node5 -->
<g id="node5" class="node">
<title>Node5</title>
<g id="a_node5"><a xlink:href="../../d1/dd1/vlayoutpaper_8cpp.html" target="_top" xlink:title=" ">
<polygon fill="white" stroke="black" points="277.39,-0.5 277.39,-19.5 455.39,-19.5 455.39,-0.5 277.39,-0.5"/>
<text text-anchor="middle" x="366.39" y="-7.5" font-family="Helvetica,sans-Serif" font-size="10.00">src/libs/vlayout/vlayoutpaper.cpp</text>
</a>
</g>
</g>
<!-- Node2&#45;&gt;Node5 -->
<g id="edge5" class="edge">
<title>Node2&#45;&gt;Node5</title>
<path fill="none" stroke="midnightblue" d="M206.44,-119.45C131.79,-116.09 29.99,-105.96 4.39,-76 -1.39,-69.24 -1.5,-62.66 4.39,-56 22.21,-35.83 175.99,-22.6 277.31,-15.99"/>
<polygon fill="midnightblue" stroke="midnightblue" points="206.65,-122.96 216.79,-119.88 206.94,-115.97 206.65,-122.96"/>
</g>
<!-- Node2&#45;&gt;Node6 -->
<g id="edge6" class="edge">
<title>Node2&#45;&gt;Node6</title>
<path fill="none" stroke="midnightblue" d="M326.21,-109.3C358.24,-99.13 403.9,-84.62 432.58,-75.52"/>
<polygon fill="midnightblue" stroke="midnightblue" points="324.79,-106.08 316.32,-112.44 326.91,-112.75 324.79,-106.08"/>
</g>
<!-- Node4&#45;&gt;Node5 -->
<g id="edge4" class="edge">
<title>Node4&#45;&gt;Node5</title>
<path fill="none" stroke="midnightblue" d="M154.97,-54.41C204.67,-44.2 278.92,-28.96 324.91,-19.52"/>
<polygon fill="midnightblue" stroke="midnightblue" points="154.15,-51 145.06,-56.44 155.56,-57.86 154.15,-51"/>
</g>
<!-- Node6&#45;&gt;Node5 -->
<g id="edge7" class="edge">
<title>Node6&#45;&gt;Node5</title>
<path fill="none" stroke="midnightblue" d="M435.58,-51.18C418.47,-41.24 395.92,-28.15 381.29,-19.65"/>
<polygon fill="midnightblue" stroke="midnightblue" points="434.04,-54.33 444.44,-56.32 437.55,-48.28 434.04,-54.33"/>
</g>
<!-- Node7 -->
<g id="node7" class="node">
<title>Node7</title>
<g id="a_node7"><a xlink:href="../../df/d76/vposition_8cpp.html" target="_top" xlink:title=" ">
<polygon fill="white" stroke="black" points="472.89,-0.5 472.89,-19.5 631.89,-19.5 631.89,-0.5 472.89,-0.5"/>
<text text-anchor="middle" x="552.39" y="-7.5" font-family="Helvetica,sans-Serif" font-size="10.00">src/libs/vlayout/vposition.cpp</text>
</a>
</g>
</g>
<!-- Node6&#45;&gt;Node7 -->
<g id="edge8" class="edge">
<title>Node6&#45;&gt;Node7</title>
<path fill="none" stroke="midnightblue" d="M483.19,-51.18C500.3,-41.24 522.85,-28.15 537.48,-19.65"/>
<polygon fill="midnightblue" stroke="midnightblue" points="481.22,-48.28 474.33,-56.32 484.73,-54.33 481.22,-48.28"/>
</g>
<!-- Node8&#45;&gt;Node5 -->
<g id="edge11" class="edge">
<title>Node8&#45;&gt;Node5</title>
<path fill="none" stroke="midnightblue" d="M563.55,-102.5C561.12,-87.87 555.48,-67.97 542.39,-56 524.93,-40.04 467.5,-27.33 422.94,-19.55"/>
<polygon fill="midnightblue" stroke="midnightblue" points="560.09,-102.99 564.85,-112.45 567.03,-102.08 560.09,-102.99"/>
</g>
<!-- Node8&#45;&gt;Node6 -->
<g id="edge12" class="edge">
<title>Node8&#45;&gt;Node6</title>
<path fill="none" stroke="midnightblue" d="M539.33,-107.73C519.7,-97.73 493.36,-84.31 476.37,-75.65"/>
<polygon fill="midnightblue" stroke="midnightblue" points="537.86,-110.9 548.36,-112.32 541.03,-104.67 537.86,-110.9"/>
</g>
<!-- Node9 -->
<g id="node9" class="node">
<title>Node9</title>
<g id="a_node9"><a xlink:href="../../d8/d5f/vbestsquare_8cpp.html" target="_top" xlink:title=" ">
<polygon fill="white" stroke="black" points="589.39,-56.5 589.39,-75.5 763.39,-75.5 763.39,-56.5 589.39,-56.5"/>
<text text-anchor="middle" x="676.39" y="-63.5" font-family="Helvetica,sans-Serif" font-size="10.00">src/libs/vlayout/vbestsquare.cpp</text>
</a>
</g>
</g>
<!-- Node8&#45;&gt;Node9 -->
<g id="edge10" class="edge">
<title>Node8&#45;&gt;Node9</title>
<path fill="none" stroke="midnightblue" d="M592.39,-107.86C612.97,-97.85 640.73,-84.35 658.6,-75.65"/>
<polygon fill="midnightblue" stroke="midnightblue" points="590.68,-104.8 583.22,-112.32 593.74,-111.1 590.68,-104.8"/>
</g>
<!-- Node11 -->
<g id="node11" class="node">
<title>Node11</title>
<g id="a_node11"><a xlink:href="../../d3/d39/vlayoutgenerator_8cpp.html" target="_top" xlink:title=" ">
<polygon fill="white" stroke="black" points="833.89,-56.5 833.89,-75.5 1030.89,-75.5 1030.89,-56.5 833.89,-56.5"/>
<text text-anchor="middle" x="932.39" y="-63.5" font-family="Helvetica,sans-Serif" font-size="10.00">src/libs/vlayout/vlayoutgenerator.cpp</text>
</a>
</g>
</g>
<!-- Node10&#45;&gt;Node11 -->
<g id="edge14" class="edge">
<title>Node10&#45;&gt;Node11</title>
<path fill="none" stroke="midnightblue" d="M938.89,-102.1C937.23,-93.14 935.32,-82.86 934.01,-75.75"/>
<polygon fill="midnightblue" stroke="midnightblue" points="935.47,-102.89 940.73,-112.08 942.36,-101.61 935.47,-102.89"/>
</g>
<!-- Node13&#45;&gt;Node5 -->
<g id="edge18" class="edge">
<title>Node13&#45;&gt;Node5</title>
<path fill="none" stroke="midnightblue" d="M763.01,-104.38C773.78,-90.08 784.61,-69.66 772.39,-56 767.13,-50.13 573.44,-30.72 455.52,-19.4"/>
<polygon fill="midnightblue" stroke="midnightblue" points="760.1,-102.41 756.52,-112.38 765.54,-106.82 760.1,-102.41"/>
</g>
<!-- Node13&#45;&gt;Node11 -->
<g id="edge17" class="edge">
<title>Node13&#45;&gt;Node11</title>
<path fill="none" stroke="midnightblue" d="M787.34,-109.57C822.05,-99.38 872.06,-84.7 903.37,-75.52"/>
<polygon fill="midnightblue" stroke="midnightblue" points="786.15,-106.27 777.54,-112.44 788.12,-112.99 786.15,-106.27"/>
</g>
</g>
</svg>
