<?xml version="1.0" encoding="UTF-8" standalone="no"?>
<!DOCTYPE svg PUBLIC "-//W3C//DTD SVG 1.1//EN"
 "http://www.w3.org/Graphics/SVG/1.1/DTD/svg11.dtd">
<!-- Generated by graphviz version 2.43.0 (0)
 -->
<!-- Title: src/libs/ifc/xml/vdomdocument.h Pages: 1 -->
<svg width="3223pt" height="274pt"
 viewBox="0.00 0.00 3223.00 274.00" xmlns="http://www.w3.org/2000/svg" xmlns:xlink="http://www.w3.org/1999/xlink">
<g id="graph0" class="graph" transform="scale(1 1) rotate(0) translate(4 270)">
<title>src/libs/ifc/xml/vdomdocument.h</title>
<polygon fill="white" stroke="transparent" points="-4,4 -4,-270 3219,-270 3219,4 -4,4"/>
<!-- Node1 -->
<g id="node1" class="node">
<title>Node1</title>
<g id="a_node1"><a xlink:title=" ">
<polygon fill="#bfbfbf" stroke="black" points="1284.5,-246.5 1284.5,-265.5 1460.5,-265.5 1460.5,-246.5 1284.5,-246.5"/>
<text text-anchor="middle" x="1372.5" y="-253.5" font-family="Helvetica,sans-Serif" font-size="10.00">src/libs/ifc/xml/vdomdocument.h</text>
</a>
</g>
</g>
<!-- Node2 -->
<g id="node2" class="node">
<title>Node2</title>
<g id="a_node2"><a xlink:href="../../d4/d9f/vabstractconverter_8cpp.html" target="_top" xlink:title=" ">
<polygon fill="white" stroke="black" points="109,-129 109,-148 312,-148 312,-129 109,-129"/>
<text text-anchor="middle" x="210.5" y="-136" font-family="Helvetica,sans-Serif" font-size="10.00">src/libs/ifc/xml/vabstractconverter.cpp</text>
</a>
</g>
</g>
<!-- Node1&#45;&gt;Node2 -->
<g id="edge1" class="edge">
<title>Node1&#45;&gt;Node2</title>
<path fill="none" stroke="midnightblue" d="M1273.94,-247.4C1166.73,-238.97 990.34,-224.62 838.5,-210 608.44,-187.85 550.99,-181.41 321.5,-154 306.06,-152.16 289.43,-150.05 273.86,-148.02"/>
<polygon fill="midnightblue" stroke="midnightblue" points="1273.85,-250.91 1284.1,-248.2 1274.4,-243.93 1273.85,-250.91"/>
</g>
<!-- Node3 -->
<g id="node3" class="node">
<title>Node3</title>
<g id="a_node3"><a xlink:href="../../df/de4/vabstractconverter_8h.html" target="_top" xlink:title=" ">
<polygon fill="white" stroke="black" points="848,-190.5 848,-209.5 1039,-209.5 1039,-190.5 848,-190.5"/>
<text text-anchor="middle" x="943.5" y="-197.5" font-family="Helvetica,sans-Serif" font-size="10.00">src/libs/ifc/xml/vabstractconverter.h</text>
</a>
</g>
</g>
<!-- Node1&#45;&gt;Node3 -->
<g id="edge2" class="edge">
<title>Node1&#45;&gt;Node3</title>
<path fill="none" stroke="midnightblue" d="M1294.38,-245.17C1213.39,-234.97 1088.06,-219.2 1011.16,-209.52"/>
<polygon fill="midnightblue" stroke="midnightblue" points="1294.16,-248.67 1304.52,-246.44 1295.04,-241.72 1294.16,-248.67"/>
</g>
<!-- Node16 -->
<g id="node16" class="node">
<title>Node16</title>
<g id="a_node16"><a xlink:href="../../de/d7d/vabstractpattern_8cpp.html" target="_top" xlink:title=" ">
<polygon fill="white" stroke="black" points="1400.5,-62 1400.5,-81 1592.5,-81 1592.5,-62 1400.5,-62"/>
<text text-anchor="middle" x="1496.5" y="-69" font-family="Helvetica,sans-Serif" font-size="10.00">src/libs/ifc/xml/vabstractpattern.cpp</text>
</a>
</g>
</g>
<!-- Node1&#45;&gt;Node16 -->
<g id="edge46" class="edge">
<title>Node1&#45;&gt;Node16</title>
<path fill="none" stroke="midnightblue" d="M1423.28,-243.25C1441.74,-236.49 1461.09,-226.03 1473.5,-210 1504.17,-170.38 1500.28,-104.93 1497.67,-81.33"/>
<polygon fill="midnightblue" stroke="midnightblue" points="1422.11,-239.95 1413.75,-246.46 1424.34,-246.59 1422.11,-239.95"/>
</g>
<!-- Node18 -->
<g id="node18" class="node">
<title>Node18</title>
<g id="a_node18"><a xlink:href="../../d0/d89/vabstractpattern_8h.html" target="_top" xlink:title=" ">
<polygon fill="white" stroke="black" points="2038,-190.5 2038,-209.5 2219,-209.5 2219,-190.5 2038,-190.5"/>
<text text-anchor="middle" x="2128.5" y="-197.5" font-family="Helvetica,sans-Serif" font-size="10.00">src/libs/ifc/xml/vabstractpattern.h</text>
</a>
</g>
</g>
<!-- Node1&#45;&gt;Node18 -->
<g id="edge25" class="edge">
<title>Node1&#45;&gt;Node18</title>
<path fill="none" stroke="midnightblue" d="M1471.11,-247.96C1618.75,-237.41 1895.12,-217.67 2037.93,-207.47"/>
<polygon fill="midnightblue" stroke="midnightblue" points="1470.43,-244.5 1460.7,-248.7 1470.93,-251.48 1470.43,-244.5"/>
</g>
<!-- Node36 -->
<g id="node36" class="node">
<title>Node36</title>
<g id="a_node36"><a xlink:href="../../d7/d49/vdomdocument_8cpp.html" target="_top" xlink:title=" ">
<polygon fill="white" stroke="black" points="2237.5,-190.5 2237.5,-209.5 2425.5,-209.5 2425.5,-190.5 2237.5,-190.5"/>
<text text-anchor="middle" x="2331.5" y="-197.5" font-family="Helvetica,sans-Serif" font-size="10.00">src/libs/ifc/xml/vdomdocument.cpp</text>
</a>
</g>
</g>
<!-- Node1&#45;&gt;Node36 -->
<g id="edge47" class="edge">
<title>Node1&#45;&gt;Node36</title>
<path fill="none" stroke="midnightblue" d="M1470.8,-250.91C1629.9,-244.04 1953.63,-229.05 2227.5,-210 2230.75,-209.77 2234.07,-209.53 2237.41,-209.29"/>
<polygon fill="midnightblue" stroke="midnightblue" points="1470.4,-247.42 1460.56,-251.35 1470.71,-254.41 1470.4,-247.42"/>
</g>
<!-- Node37 -->
<g id="node37" class="node">
<title>Node37</title>
<g id="a_node37"><a xlink:href="../../d2/d8a/vlabeltemplate_8h.html" target="_top" xlink:title=" ">
<polygon fill="white" stroke="black" points="99,-190.5 99,-209.5 278,-209.5 278,-190.5 99,-190.5"/>
<text text-anchor="middle" x="188.5" y="-197.5" font-family="Helvetica,sans-Serif" font-size="10.00">src/libs/vformat/vlabeltemplate.h</text>
</a>
</g>
</g>
<!-- Node1&#45;&gt;Node37 -->
<g id="edge48" class="edge">
<title>Node1&#45;&gt;Node37</title>
<path fill="none" stroke="midnightblue" d="M1274.3,-250.52C1048.61,-240.23 495.66,-215.01 278.32,-205.1"/>
<polygon fill="midnightblue" stroke="midnightblue" points="1274.33,-254.03 1284.47,-250.99 1274.64,-247.03 1274.33,-254.03"/>
</g>
<!-- Node38 -->
<g id="node38" class="node">
<title>Node38</title>
<g id="a_node38"><a xlink:href="../../d4/dd6/vmeasurements_8h.html" target="_top" xlink:title=" ">
<polygon fill="white" stroke="black" points="1280,-190.5 1280,-209.5 1465,-209.5 1465,-190.5 1280,-190.5"/>
<text text-anchor="middle" x="1372.5" y="-197.5" font-family="Helvetica,sans-Serif" font-size="10.00">src/libs/vformat/vmeasurements.h</text>
</a>
</g>
</g>
<!-- Node1&#45;&gt;Node38 -->
<g id="edge50" class="edge">
<title>Node1&#45;&gt;Node38</title>
<path fill="none" stroke="midnightblue" d="M1372.5,-235.8C1372.5,-226.91 1372.5,-216.78 1372.5,-209.75"/>
<polygon fill="midnightblue" stroke="midnightblue" points="1369,-236.08 1372.5,-246.08 1376,-236.08 1369,-236.08"/>
</g>
<!-- Node3&#45;&gt;Node2 -->
<g id="edge4" class="edge">
<title>Node3&#45;&gt;Node2</title>
<path fill="none" stroke="midnightblue" d="M837.74,-193.21C713.85,-186 502.49,-172.35 321.5,-154 305.06,-152.33 287.31,-150.18 270.92,-148.04"/>
<polygon fill="midnightblue" stroke="midnightblue" points="837.8,-196.72 847.98,-193.8 838.2,-189.73 837.8,-196.72"/>
</g>
<!-- Node4 -->
<g id="node4" class="node">
<title>Node4</title>
<g id="a_node4"><a xlink:href="../../d4/d90/fvupdater_8cpp.html" target="_top" xlink:title=" ">
<polygon fill="white" stroke="black" points="607,-129 607,-148 760,-148 760,-129 607,-129"/>
<text text-anchor="middle" x="683.5" y="-136" font-family="Helvetica,sans-Serif" font-size="10.00">src/libs/fervor/fvupdater.cpp</text>
</a>
</g>
</g>
<!-- Node3&#45;&gt;Node4 -->
<g id="edge3" class="edge">
<title>Node3&#45;&gt;Node4</title>
<path fill="none" stroke="midnightblue" d="M896.25,-188.19C845.8,-176.64 766.89,-158.58 720.68,-148.01"/>
<polygon fill="midnightblue" stroke="midnightblue" points="895.72,-191.66 906.25,-190.48 897.28,-184.83 895.72,-191.66"/>
</g>
<!-- Node5 -->
<g id="node5" class="node">
<title>Node5</title>
<g id="a_node5"><a xlink:href="../../dd/d2b/vabstractmconverter_8cpp.html" target="_top" xlink:title=" ">
<polygon fill="white" stroke="black" points="472.5,-62 472.5,-81 684.5,-81 684.5,-62 472.5,-62"/>
<text text-anchor="middle" x="578.5" y="-69" font-family="Helvetica,sans-Serif" font-size="10.00">src/libs/ifc/xml/vabstractmconverter.cpp</text>
</a>
</g>
</g>
<!-- Node3&#45;&gt;Node5 -->
<g id="edge5" class="edge">
<title>Node3&#45;&gt;Node5</title>
<path fill="none" stroke="midnightblue" d="M837.82,-198.13C749.26,-195.14 631.94,-185.16 597.5,-154 576.6,-135.09 576.47,-98.04 577.63,-81.2"/>
<polygon fill="midnightblue" stroke="midnightblue" points="837.82,-201.63 847.92,-198.44 838.03,-194.63 837.82,-201.63"/>
</g>
<!-- Node6 -->
<g id="node6" class="node">
<title>Node6</title>
<g id="a_node6"><a xlink:href="../../d6/d2d/vabstractmconverter_8h.html" target="_top" xlink:title=" ">
<polygon fill="white" stroke="black" points="778,-129 778,-148 979,-148 979,-129 778,-129"/>
<text text-anchor="middle" x="878.5" y="-136" font-family="Helvetica,sans-Serif" font-size="10.00">src/libs/ifc/xml/vabstractmconverter.h</text>
</a>
</g>
</g>
<!-- Node3&#45;&gt;Node6 -->
<g id="edge6" class="edge">
<title>Node3&#45;&gt;Node6</title>
<path fill="none" stroke="midnightblue" d="M926.73,-183.65C914.34,-172.31 897.92,-157.28 887.8,-148.01"/>
<polygon fill="midnightblue" stroke="midnightblue" points="924.45,-186.3 934.19,-190.48 929.17,-181.14 924.45,-186.3"/>
</g>
<!-- Node8 -->
<g id="node8" class="node">
<title>Node8</title>
<g id="a_node8"><a xlink:href="../../d1/d8f/vvitconverter_8h.html" target="_top" xlink:title=" ">
<polygon fill="white" stroke="black" points="778.5,-62 778.5,-81 942.5,-81 942.5,-62 778.5,-62"/>
<text text-anchor="middle" x="860.5" y="-69" font-family="Helvetica,sans-Serif" font-size="10.00">src/libs/ifc/xml/vvitconverter.h</text>
</a>
</g>
</g>
<!-- Node3&#45;&gt;Node8 -->
<g id="edge23" class="edge">
<title>Node3&#45;&gt;Node8</title>
<path fill="none" stroke="midnightblue" d="M962.78,-183.85C980.25,-168.23 1001.31,-143.35 987.5,-123 972.18,-100.42 944.99,-87.94 919.7,-81.03"/>
<polygon fill="midnightblue" stroke="midnightblue" points="960.5,-181.19 955.14,-190.32 965.03,-186.53 960.5,-181.19"/>
</g>
<!-- Node10 -->
<g id="node10" class="node">
<title>Node10</title>
<g id="a_node10"><a xlink:href="../../d2/d10/vvstconverter_8h.html" target="_top" xlink:title=" ">
<polygon fill="white" stroke="black" points="961,-62 961,-81 1128,-81 1128,-62 961,-62"/>
<text text-anchor="middle" x="1044.5" y="-69" font-family="Helvetica,sans-Serif" font-size="10.00">src/libs/ifc/xml/vvstconverter.h</text>
</a>
</g>
</g>
<!-- Node3&#45;&gt;Node10 -->
<g id="edge24" class="edge">
<title>Node3&#45;&gt;Node10</title>
<path fill="none" stroke="midnightblue" d="M967.95,-184.88C980.08,-176.97 994.28,-166.24 1004.5,-154 1023.8,-130.89 1036.56,-96.9 1041.81,-81.13"/>
<polygon fill="midnightblue" stroke="midnightblue" points="965.8,-182.09 959.17,-190.36 969.51,-188.03 965.8,-182.09"/>
</g>
<!-- Node12 -->
<g id="node12" class="node">
<title>Node12</title>
<g id="a_node12"><a xlink:href="../../d5/d35/vlabeltemplateconverter_8h.html" target="_top" xlink:title=" ">
<polygon fill="white" stroke="black" points="330.5,-129 330.5,-148 550.5,-148 550.5,-129 330.5,-129"/>
<text text-anchor="middle" x="440.5" y="-136" font-family="Helvetica,sans-Serif" font-size="10.00">src/libs/ifc/xml/vlabeltemplateconverter.h</text>
</a>
</g>
</g>
<!-- Node3&#45;&gt;Node12 -->
<g id="edge16" class="edge">
<title>Node3&#45;&gt;Node12</title>
<path fill="none" stroke="midnightblue" d="M861.38,-189.29C764.42,-177.82 604.72,-158.93 512.43,-148.01"/>
<polygon fill="midnightblue" stroke="midnightblue" points="861.09,-192.78 871.43,-190.48 861.91,-185.82 861.09,-192.78"/>
</g>
<!-- Node15 -->
<g id="node15" class="node">
<title>Node15</title>
<g id="a_node15"><a xlink:href="../../df/d2f/vpatternconverter_8h.html" target="_top" xlink:title=" ">
<polygon fill="white" stroke="black" points="1152,-129 1152,-148 1339,-148 1339,-129 1152,-129"/>
<text text-anchor="middle" x="1245.5" y="-136" font-family="Helvetica,sans-Serif" font-size="10.00">src/libs/ifc/xml/vpatternconverter.h</text>
</a>
</g>
</g>
<!-- Node3&#45;&gt;Node15 -->
<g id="edge19" class="edge">
<title>Node3&#45;&gt;Node15</title>
<path fill="none" stroke="midnightblue" d="M996.93,-188.47C1055.45,-176.94 1148.19,-158.67 1202.31,-148.01"/>
<polygon fill="midnightblue" stroke="midnightblue" points="995.9,-185.11 986.77,-190.48 997.26,-191.98 995.9,-185.11"/>
</g>
<!-- Node17 -->
<g id="node17" class="node">
<title>Node17</title>
<g id="a_node17"><a xlink:href="../../d5/d2c/vpatternconverter_8cpp.html" target="_top" xlink:title=" ">
<polygon fill="white" stroke="black" points="1146.5,-62 1146.5,-81 1344.5,-81 1344.5,-62 1146.5,-62"/>
<text text-anchor="middle" x="1245.5" y="-69" font-family="Helvetica,sans-Serif" font-size="10.00">src/libs/ifc/xml/vpatternconverter.cpp</text>
</a>
</g>
</g>
<!-- Node3&#45;&gt;Node17 -->
<g id="edge22" class="edge">
<title>Node3&#45;&gt;Node17</title>
<path fill="none" stroke="midnightblue" d="M973.77,-186.32C1035.16,-160.61 1172.89,-102.92 1225,-81.09"/>
<polygon fill="midnightblue" stroke="midnightblue" points="972.13,-183.21 964.26,-190.31 974.83,-189.67 972.13,-183.21"/>
</g>
<!-- Node6&#45;&gt;Node5 -->
<g id="edge7" class="edge">
<title>Node6&#45;&gt;Node5</title>
<path fill="none" stroke="midnightblue" d="M829.13,-126.8C770.09,-114.01 672.46,-92.86 618.12,-81.08"/>
<polygon fill="midnightblue" stroke="midnightblue" points="828.46,-130.24 838.97,-128.94 829.94,-123.4 828.46,-130.24"/>
</g>
<!-- Node7 -->
<g id="node7" class="node">
<title>Node7</title>
<g id="a_node7"><a xlink:href="../../d5/dba/vvitconverter_8cpp.html" target="_top" xlink:title=" ">
<polygon fill="white" stroke="black" points="624.5,-0.5 624.5,-19.5 800.5,-19.5 800.5,-0.5 624.5,-0.5"/>
<text text-anchor="middle" x="712.5" y="-7.5" font-family="Helvetica,sans-Serif" font-size="10.00">src/libs/ifc/xml/vvitconverter.cpp</text>
</a>
</g>
</g>
<!-- Node6&#45;&gt;Node7 -->
<g id="edge8" class="edge">
<title>Node6&#45;&gt;Node7</title>
<path fill="none" stroke="midnightblue" d="M835.22,-125.94C811.25,-117.93 782.04,-105.36 760.5,-87 737.94,-67.76 722.42,-35.22 715.93,-19.71"/>
<polygon fill="midnightblue" stroke="midnightblue" points="834.2,-129.29 844.79,-128.99 836.33,-122.62 834.2,-129.29"/>
</g>
<!-- Node6&#45;&gt;Node8 -->
<g id="edge9" class="edge">
<title>Node6&#45;&gt;Node8</title>
<path fill="none" stroke="midnightblue" d="M873.35,-118.91C869.91,-106.49 865.54,-90.72 862.89,-81.13"/>
<polygon fill="midnightblue" stroke="midnightblue" points="870.03,-120.03 876.07,-128.73 876.78,-118.16 870.03,-120.03"/>
</g>
<!-- Node6&#45;&gt;Node10 -->
<g id="edge12" class="edge">
<title>Node6&#45;&gt;Node10</title>
<path fill="none" stroke="midnightblue" d="M910.16,-125.1C943.12,-112.2 993.86,-92.33 1022.63,-81.06"/>
<polygon fill="midnightblue" stroke="midnightblue" points="908.58,-121.96 900.54,-128.87 911.13,-128.48 908.58,-121.96"/>
</g>
<!-- Node11 -->
<g id="node11" class="node">
<title>Node11</title>
<g id="a_node11"><a xlink:href="../../d0/dd6/vvstconverter_8cpp.html" target="_top" xlink:title=" ">
<polygon fill="white" stroke="black" points="818.5,-0.5 818.5,-19.5 996.5,-19.5 996.5,-0.5 818.5,-0.5"/>
<text text-anchor="middle" x="907.5" y="-7.5" font-family="Helvetica,sans-Serif" font-size="10.00">src/libs/ifc/xml/vvstconverter.cpp</text>
</a>
</g>
</g>
<!-- Node6&#45;&gt;Node11 -->
<g id="edge15" class="edge">
<title>Node6&#45;&gt;Node11</title>
<path fill="none" stroke="midnightblue" d="M824.71,-125.85C803.76,-118.41 781.87,-106.36 769.5,-87 762.08,-75.39 761.41,-67.15 769.5,-56 783.19,-37.13 805.01,-26.03 827.29,-19.53"/>
<polygon fill="midnightblue" stroke="midnightblue" points="823.63,-129.18 834.22,-128.96 825.8,-122.53 823.63,-129.18"/>
</g>
<!-- Node8&#45;&gt;Node7 -->
<g id="edge10" class="edge">
<title>Node8&#45;&gt;Node7</title>
<path fill="none" stroke="midnightblue" d="M829.73,-58.13C800.98,-46.57 758.82,-29.62 733.67,-19.51"/>
<polygon fill="midnightblue" stroke="midnightblue" points="828.71,-61.49 839.3,-61.98 831.32,-55 828.71,-61.49"/>
</g>
<!-- Node9 -->
<g id="node9" class="node">
<title>Node9</title>
<g id="a_node9"><a xlink:href="../../de/db3/vmeasurements_8cpp.html" target="_top" xlink:title=" ">
<polygon fill="white" stroke="black" points="1014.5,-0.5 1014.5,-19.5 1210.5,-19.5 1210.5,-0.5 1014.5,-0.5"/>
<text text-anchor="middle" x="1112.5" y="-7.5" font-family="Helvetica,sans-Serif" font-size="10.00">src/libs/vformat/vmeasurements.cpp</text>
</a>
</g>
</g>
<!-- Node8&#45;&gt;Node9 -->
<g id="edge11" class="edge">
<title>Node8&#45;&gt;Node9</title>
<path fill="none" stroke="midnightblue" d="M906.61,-59.61C955.52,-48.07 1031.77,-30.06 1076.46,-19.51"/>
<polygon fill="midnightblue" stroke="midnightblue" points="905.53,-56.27 896.61,-61.98 907.14,-63.08 905.53,-56.27"/>
</g>
<!-- Node10&#45;&gt;Node9 -->
<g id="edge14" class="edge">
<title>Node10&#45;&gt;Node9</title>
<path fill="none" stroke="midnightblue" d="M1062.04,-55.15C1075.01,-43.81 1092.18,-28.78 1102.78,-19.51"/>
<polygon fill="midnightblue" stroke="midnightblue" points="1059.46,-52.76 1054.24,-61.98 1064.07,-58.02 1059.46,-52.76"/>
</g>
<!-- Node10&#45;&gt;Node11 -->
<g id="edge13" class="edge">
<title>Node10&#45;&gt;Node11</title>
<path fill="none" stroke="midnightblue" d="M1015.67,-57.98C989.06,-46.42 950.27,-29.58 927.09,-19.51"/>
<polygon fill="midnightblue" stroke="midnightblue" points="1014.3,-61.2 1024.87,-61.98 1017.09,-54.78 1014.3,-61.2"/>
</g>
<!-- Node13 -->
<g id="node13" class="node">
<title>Node13</title>
<g id="a_node13"><a xlink:href="../../d7/d63/vlabeltemplateconverter_8cpp.html" target="_top" xlink:title=" ">
<polygon fill="white" stroke="black" points="223,-62 223,-81 454,-81 454,-62 223,-62"/>
<text text-anchor="middle" x="338.5" y="-69" font-family="Helvetica,sans-Serif" font-size="10.00">src/libs/ifc/xml/vlabeltemplateconverter.cpp</text>
</a>
</g>
</g>
<!-- Node12&#45;&gt;Node13 -->
<g id="edge17" class="edge">
<title>Node12&#45;&gt;Node13</title>
<path fill="none" stroke="midnightblue" d="M418.17,-123.27C397.98,-110.4 368.91,-91.88 352.04,-81.13"/>
<polygon fill="midnightblue" stroke="midnightblue" points="416.43,-126.31 426.74,-128.73 420.19,-120.41 416.43,-126.31"/>
</g>
<!-- Node14 -->
<g id="node14" class="node">
<title>Node14</title>
<g id="a_node14"><a xlink:href="../../d9/daf/vlabeltemplate_8cpp.html" target="_top" xlink:title=" ">
<polygon fill="white" stroke="black" points="0,-62 0,-81 191,-81 191,-62 0,-62"/>
<text text-anchor="middle" x="95.5" y="-69" font-family="Helvetica,sans-Serif" font-size="10.00">src/libs/vformat/vlabeltemplate.cpp</text>
</a>
</g>
</g>
<!-- Node12&#45;&gt;Node14 -->
<g id="edge18" class="edge">
<title>Node12&#45;&gt;Node14</title>
<path fill="none" stroke="midnightblue" d="M384.97,-127.04C317.11,-114.25 203.61,-92.87 140.78,-81.03"/>
<polygon fill="midnightblue" stroke="midnightblue" points="384.57,-130.52 395.04,-128.94 385.86,-123.64 384.57,-130.52"/>
</g>
<!-- Node15&#45;&gt;Node16 -->
<g id="edge20" class="edge">
<title>Node15&#45;&gt;Node16</title>
<path fill="none" stroke="midnightblue" d="M1288.35,-126.4C1337.88,-113.58 1418.36,-92.74 1463.35,-81.08"/>
<polygon fill="midnightblue" stroke="midnightblue" points="1287.38,-123.04 1278.57,-128.94 1289.13,-129.82 1287.38,-123.04"/>
</g>
<!-- Node15&#45;&gt;Node17 -->
<g id="edge21" class="edge">
<title>Node15&#45;&gt;Node17</title>
<path fill="none" stroke="midnightblue" d="M1245.5,-118.54C1245.5,-106.17 1245.5,-90.62 1245.5,-81.13"/>
<polygon fill="midnightblue" stroke="midnightblue" points="1242,-118.73 1245.5,-128.73 1249,-118.73 1242,-118.73"/>
</g>
<!-- Node18&#45;&gt;Node16 -->
<g id="edge26" class="edge">
<title>Node18&#45;&gt;Node16</title>
<path fill="none" stroke="midnightblue" d="M2052.99,-189.1C1993.86,-180.94 1909.65,-168.38 1836.5,-154 1722.14,-131.52 1588.07,-96.92 1528.18,-81.02"/>
<polygon fill="midnightblue" stroke="midnightblue" points="2052.61,-192.59 2063,-190.48 2053.57,-185.65 2052.61,-192.59"/>
</g>
<!-- Node19 -->
<g id="node19" class="node">
<title>Node19</title>
<g id="a_node19"><a xlink:href="../../d6/de0/vlayoutpiece_8h.html" target="_top" xlink:title=" ">
<polygon fill="white" stroke="black" points="2045.5,-129 2045.5,-148 2211.5,-148 2211.5,-129 2045.5,-129"/>
<text text-anchor="middle" x="2128.5" y="-136" font-family="Helvetica,sans-Serif" font-size="10.00">src/libs/vlayout/vlayoutpiece.h</text>
</a>
</g>
</g>
<!-- Node18&#45;&gt;Node19 -->
<g id="edge27" class="edge">
<title>Node18&#45;&gt;Node19</title>
<path fill="none" stroke="midnightblue" d="M2128.5,-180.32C2128.5,-169.5 2128.5,-156.4 2128.5,-148.01"/>
<polygon fill="midnightblue" stroke="midnightblue" points="2125,-180.48 2128.5,-190.48 2132,-180.48 2125,-180.48"/>
</g>
<!-- Node29 -->
<g id="node29" class="node">
<title>Node29</title>
<g id="a_node29"><a xlink:href="../../d8/d70/vtextmanager_8cpp.html" target="_top" xlink:title=" ">
<polygon fill="white" stroke="black" points="1845.5,-129 1845.5,-148 2027.5,-148 2027.5,-129 1845.5,-129"/>
<text text-anchor="middle" x="1936.5" y="-136" font-family="Helvetica,sans-Serif" font-size="10.00">src/libs/vlayout/vtextmanager.cpp</text>
</a>
</g>
</g>
<!-- Node18&#45;&gt;Node29 -->
<g id="edge39" class="edge">
<title>Node18&#45;&gt;Node29</title>
<path fill="none" stroke="midnightblue" d="M2091.01,-187.38C2053.69,-175.82 1997.3,-158.34 1963.96,-148.01"/>
<polygon fill="midnightblue" stroke="midnightblue" points="2090.4,-190.86 2100.99,-190.48 2092.48,-184.17 2090.4,-190.86"/>
</g>
<!-- Node30 -->
<g id="node30" class="node">
<title>Node30</title>
<g id="a_node30"><a xlink:href="../../d0/da5/export__format__combobox_8h.html" target="_top" xlink:title=" ">
<polygon fill="white" stroke="black" points="2377,-123.5 2377,-153.5 2510,-153.5 2510,-123.5 2377,-123.5"/>
<text text-anchor="start" x="2385" y="-141.5" font-family="Helvetica,sans-Serif" font-size="10.00">src/libs/vwidgets/export</text>
<text text-anchor="middle" x="2443.5" y="-130.5" font-family="Helvetica,sans-Serif" font-size="10.00">_format_combobox.h</text>
</a>
</g>
</g>
<!-- Node18&#45;&gt;Node30 -->
<g id="edge40" class="edge">
<title>Node18&#45;&gt;Node30</title>
<path fill="none" stroke="midnightblue" d="M2183.84,-188.62C2232.29,-179.52 2304.57,-165.93 2367.5,-154 2370.54,-153.42 2373.64,-152.84 2376.77,-152.24"/>
<polygon fill="midnightblue" stroke="midnightblue" points="2183.06,-185.2 2173.88,-190.49 2184.35,-192.08 2183.06,-185.2"/>
</g>
<!-- Node32 -->
<g id="node32" class="node">
<title>Node32</title>
<g id="a_node32"><a xlink:href="../../d7/df4/group__tablewidgetitem_8cpp.html" target="_top" xlink:title=" ">
<polygon fill="white" stroke="black" points="2230,-123.5 2230,-153.5 2359,-153.5 2359,-123.5 2230,-123.5"/>
<text text-anchor="start" x="2238" y="-141.5" font-family="Helvetica,sans-Serif" font-size="10.00">src/libs/vwidgets/group</text>
<text text-anchor="middle" x="2294.5" y="-130.5" font-family="Helvetica,sans-Serif" font-size="10.00">_tablewidgetitem.cpp</text>
</a>
</g>
</g>
<!-- Node18&#45;&gt;Node32 -->
<g id="edge42" class="edge">
<title>Node18&#45;&gt;Node32</title>
<path fill="none" stroke="midnightblue" d="M2162.05,-186.98C2189.04,-177.3 2227.01,-163.69 2255.38,-153.52"/>
<polygon fill="midnightblue" stroke="midnightblue" points="2160.52,-183.81 2152.28,-190.48 2162.88,-190.4 2160.52,-183.81"/>
</g>
<!-- Node33 -->
<g id="node33" class="node">
<title>Node33</title>
<g id="a_node33"><a xlink:href="../../d3/d86/page__format__combobox_8h.html" target="_top" xlink:title=" ">
<polygon fill="white" stroke="black" points="2911,-123.5 2911,-153.5 3036,-153.5 3036,-123.5 2911,-123.5"/>
<text text-anchor="start" x="2919" y="-141.5" font-family="Helvetica,sans-Serif" font-size="10.00">src/libs/vwidgets/page</text>
<text text-anchor="middle" x="2973.5" y="-130.5" font-family="Helvetica,sans-Serif" font-size="10.00">_format_combobox.h</text>
</a>
</g>
</g>
<!-- Node18&#45;&gt;Node33 -->
<g id="edge43" class="edge">
<title>Node18&#45;&gt;Node33</title>
<path fill="none" stroke="midnightblue" d="M2229.24,-189.96C2488.78,-169.59 2784.03,-151.03 2910.67,-143.29"/>
<polygon fill="midnightblue" stroke="midnightblue" points="2228.94,-186.47 2219.24,-190.75 2229.49,-193.45 2228.94,-186.47"/>
</g>
<!-- Node35 -->
<g id="node35" class="node">
<title>Node35</title>
<g id="a_node35"><a xlink:href="../../de/d22/vsimplecurve_8cpp.html" target="_top" xlink:title=" ">
<polygon fill="white" stroke="black" points="2528.5,-129 2528.5,-148 2716.5,-148 2716.5,-129 2528.5,-129"/>
<text text-anchor="middle" x="2622.5" y="-136" font-family="Helvetica,sans-Serif" font-size="10.00">src/libs/vwidgets/vsimplecurve.cpp</text>
</a>
</g>
</g>
<!-- Node18&#45;&gt;Node35 -->
<g id="edge45" class="edge">
<title>Node18&#45;&gt;Node35</title>
<path fill="none" stroke="midnightblue" d="M2217.53,-189.4C2296.83,-180.7 2415.99,-167.24 2519.5,-154 2533.83,-152.17 2549.26,-150.06 2563.71,-148.04"/>
<polygon fill="midnightblue" stroke="midnightblue" points="2217.14,-185.92 2207.58,-190.49 2217.9,-192.88 2217.14,-185.92"/>
</g>
<!-- Node20 -->
<g id="node20" class="node">
<title>Node20</title>
<g id="a_node20"><a xlink:href="../../dd/d66/vdxfengine_8cpp.html" target="_top" xlink:title=" ">
<polygon fill="white" stroke="black" points="2598.5,-62 2598.5,-81 2752.5,-81 2752.5,-62 2598.5,-62"/>
<text text-anchor="middle" x="2675.5" y="-69" font-family="Helvetica,sans-Serif" font-size="10.00">src/libs/vdxf/vdxfengine.cpp</text>
</a>
</g>
</g>
<!-- Node19&#45;&gt;Node20 -->
<g id="edge28" class="edge">
<title>Node19&#45;&gt;Node20</title>
<path fill="none" stroke="midnightblue" d="M2188.97,-127.45C2199.47,-125.85 2210.29,-124.3 2220.5,-123 2383.96,-102.16 2426.16,-108.71 2589.5,-87 2602.11,-85.32 2615.7,-83.19 2628.28,-81.07"/>
<polygon fill="midnightblue" stroke="midnightblue" points="2188.39,-124 2179.04,-128.98 2189.46,-130.91 2188.39,-124"/>
</g>
<!-- Node21 -->
<g id="node21" class="node">
<title>Node21</title>
<g id="a_node21"><a xlink:href="../../de/da8/vbank_8cpp.html" target="_top" xlink:title=" ">
<polygon fill="white" stroke="black" points="2770.5,-62 2770.5,-81 2914.5,-81 2914.5,-62 2770.5,-62"/>
<text text-anchor="middle" x="2842.5" y="-69" font-family="Helvetica,sans-Serif" font-size="10.00">src/libs/vlayout/vbank.cpp</text>
</a>
</g>
</g>
<!-- Node19&#45;&gt;Node21 -->
<g id="edge29" class="edge">
<title>Node19&#45;&gt;Node21</title>
<path fill="none" stroke="midnightblue" d="M2187.48,-127.4C2198.43,-125.75 2209.8,-124.2 2220.5,-123 2459.98,-96.21 2522.31,-116.28 2761.5,-87 2773.98,-85.47 2787.45,-83.28 2799.76,-81.06"/>
<polygon fill="midnightblue" stroke="midnightblue" points="2186.92,-123.95 2177.57,-128.93 2187.98,-130.86 2186.92,-123.95"/>
</g>
<!-- Node22 -->
<g id="node22" class="node">
<title>Node22</title>
<g id="a_node22"><a xlink:href="../../df/d5d/vcontour_8cpp.html" target="_top" xlink:title=" ">
<polygon fill="white" stroke="black" points="1610.5,-62 1610.5,-81 1766.5,-81 1766.5,-62 1610.5,-62"/>
<text text-anchor="middle" x="1688.5" y="-69" font-family="Helvetica,sans-Serif" font-size="10.00">src/libs/vlayout/vcontour.cpp</text>
</a>
</g>
</g>
<!-- Node19&#45;&gt;Node22 -->
<g id="edge30" class="edge">
<title>Node19&#45;&gt;Node22</title>
<path fill="none" stroke="midnightblue" d="M2065.49,-127.4C2055.79,-125.9 2045.88,-124.39 2036.5,-123 1920.66,-105.88 1891.26,-104.63 1775.5,-87 1763.39,-85.16 1750.35,-83.05 1738.15,-81.02"/>
<polygon fill="midnightblue" stroke="midnightblue" points="2065.08,-130.88 2075.5,-128.97 2066.16,-123.97 2065.08,-130.88"/>
</g>
<!-- Node23 -->
<g id="node23" class="node">
<title>Node23</title>
<g id="a_node23"><a xlink:href="../../d3/d39/vlayoutgenerator_8cpp.html" target="_top" xlink:title=" ">
<polygon fill="white" stroke="black" points="1785,-62 1785,-81 1982,-81 1982,-62 1785,-62"/>
<text text-anchor="middle" x="1883.5" y="-69" font-family="Helvetica,sans-Serif" font-size="10.00">src/libs/vlayout/vlayoutgenerator.cpp</text>
</a>
</g>
</g>
<!-- Node19&#45;&gt;Node23 -->
<g id="edge31" class="edge">
<title>Node19&#45;&gt;Node23</title>
<path fill="none" stroke="midnightblue" d="M2086.37,-126.32C2038,-113.49 1959.68,-92.71 1915.85,-81.08"/>
<polygon fill="midnightblue" stroke="midnightblue" points="2085.66,-129.75 2096.22,-128.94 2087.45,-122.99 2085.66,-129.75"/>
</g>
<!-- Node24 -->
<g id="node24" class="node">
<title>Node24</title>
<g id="a_node24"><a xlink:href="../../d2/d2d/vlayoutpaper__p_8h.html" target="_top" xlink:title=" ">
<polygon fill="white" stroke="black" points="2039,-62 2039,-81 2218,-81 2218,-62 2039,-62"/>
<text text-anchor="middle" x="2128.5" y="-69" font-family="Helvetica,sans-Serif" font-size="10.00">src/libs/vlayout/vlayoutpaper_p.h</text>
</a>
</g>
</g>
<!-- Node19&#45;&gt;Node24 -->
<g id="edge32" class="edge">
<title>Node19&#45;&gt;Node24</title>
<path fill="none" stroke="midnightblue" d="M2128.5,-118.54C2128.5,-106.17 2128.5,-90.62 2128.5,-81.13"/>
<polygon fill="midnightblue" stroke="midnightblue" points="2125,-118.73 2128.5,-128.73 2132,-118.73 2125,-118.73"/>
</g>
<!-- Node25 -->
<g id="node25" class="node">
<title>Node25</title>
<g id="a_node25"><a xlink:href="../../d1/dd1/vlayoutpaper_8cpp.html" target="_top" xlink:title=" ">
<polygon fill="white" stroke="black" points="2037.5,-0.5 2037.5,-19.5 2215.5,-19.5 2215.5,-0.5 2037.5,-0.5"/>
<text text-anchor="middle" x="2126.5" y="-7.5" font-family="Helvetica,sans-Serif" font-size="10.00">src/libs/vlayout/vlayoutpaper.cpp</text>
</a>
</g>
</g>
<!-- Node19&#45;&gt;Node25 -->
<g id="edge35" class="edge">
<title>Node19&#45;&gt;Node25</title>
<path fill="none" stroke="midnightblue" d="M2081.67,-125.5C2061.99,-117.89 2041.02,-105.81 2029.5,-87 2022.3,-75.25 2022.09,-67.61 2029.5,-56 2041.59,-37.07 2063.92,-25.98 2084.11,-19.55"/>
<polygon fill="midnightblue" stroke="midnightblue" points="2080.59,-128.83 2091.18,-128.88 2082.93,-122.23 2080.59,-128.83"/>
</g>
<!-- Node26 -->
<g id="node26" class="node">
<title>Node26</title>
<g id="a_node26"><a xlink:href="../../dd/d70/vlayoutpiece_8cpp.html" target="_top" xlink:title=" ">
<polygon fill="white" stroke="black" points="2403,-62 2403,-81 2580,-81 2580,-62 2403,-62"/>
<text text-anchor="middle" x="2491.5" y="-69" font-family="Helvetica,sans-Serif" font-size="10.00">src/libs/vlayout/vlayoutpiece.cpp</text>
</a>
</g>
</g>
<!-- Node19&#45;&gt;Node26 -->
<g id="edge34" class="edge">
<title>Node19&#45;&gt;Node26</title>
<path fill="none" stroke="midnightblue" d="M2186.49,-127.12C2257.84,-114.34 2377.62,-92.89 2443.85,-81.03"/>
<polygon fill="midnightblue" stroke="midnightblue" points="2185.56,-123.73 2176.33,-128.94 2186.79,-130.62 2185.56,-123.73"/>
</g>
<!-- Node27 -->
<g id="node27" class="node">
<title>Node27</title>
<g id="a_node27"><a xlink:href="../../db/d5c/vposition_8h.html" target="_top" xlink:title=" ">
<polygon fill="white" stroke="black" points="2236.5,-62 2236.5,-81 2384.5,-81 2384.5,-62 2236.5,-62"/>
<text text-anchor="middle" x="2310.5" y="-69" font-family="Helvetica,sans-Serif" font-size="10.00">src/libs/vlayout/vposition.h</text>
</a>
</g>
</g>
<!-- Node19&#45;&gt;Node27 -->
<g id="edge36" class="edge">
<title>Node19&#45;&gt;Node27</title>
<path fill="none" stroke="midnightblue" d="M2162.28,-125.44C2198.38,-112.54 2254.71,-92.42 2286.52,-81.06"/>
<polygon fill="midnightblue" stroke="midnightblue" points="2160.91,-122.21 2152.67,-128.87 2163.26,-128.8 2160.91,-122.21"/>
</g>
<!-- Node24&#45;&gt;Node25 -->
<g id="edge33" class="edge">
<title>Node24&#45;&gt;Node25</title>
<path fill="none" stroke="midnightblue" d="M2127.87,-51.82C2127.51,-41 2127.07,-27.9 2126.79,-19.51"/>
<polygon fill="midnightblue" stroke="midnightblue" points="2124.38,-52.1 2128.21,-61.98 2131.38,-51.86 2124.38,-52.1"/>
</g>
<!-- Node27&#45;&gt;Node25 -->
<g id="edge37" class="edge">
<title>Node27&#45;&gt;Node25</title>
<path fill="none" stroke="midnightblue" d="M2274.57,-58.88C2238.8,-47.32 2184.76,-29.84 2152.81,-19.51"/>
<polygon fill="midnightblue" stroke="midnightblue" points="2273.55,-62.23 2284.14,-61.98 2275.7,-55.57 2273.55,-62.23"/>
</g>
<!-- Node28 -->
<g id="node28" class="node">
<title>Node28</title>
<g id="a_node28"><a xlink:href="../../df/d76/vposition_8cpp.html" target="_top" xlink:title=" ">
<polygon fill="white" stroke="black" points="2233,-0.5 2233,-19.5 2392,-19.5 2392,-0.5 2233,-0.5"/>
<text text-anchor="middle" x="2312.5" y="-7.5" font-family="Helvetica,sans-Serif" font-size="10.00">src/libs/vlayout/vposition.cpp</text>
</a>
</g>
</g>
<!-- Node27&#45;&gt;Node28 -->
<g id="edge38" class="edge">
<title>Node27&#45;&gt;Node28</title>
<path fill="none" stroke="midnightblue" d="M2311.13,-51.82C2311.49,-41 2311.93,-27.9 2312.21,-19.51"/>
<polygon fill="midnightblue" stroke="midnightblue" points="2307.62,-51.86 2310.79,-61.98 2314.62,-52.1 2307.62,-51.86"/>
</g>
<!-- Node31 -->
<g id="node31" class="node">
<title>Node31</title>
<g id="a_node31"><a xlink:href="../../df/d40/export__format__combobox_8cpp.html" target="_top" xlink:title=" ">
<polygon fill="white" stroke="black" points="2933,-56.5 2933,-86.5 3066,-86.5 3066,-56.5 2933,-56.5"/>
<text text-anchor="start" x="2941" y="-74.5" font-family="Helvetica,sans-Serif" font-size="10.00">src/libs/vwidgets/export</text>
<text text-anchor="middle" x="2999.5" y="-63.5" font-family="Helvetica,sans-Serif" font-size="10.00">_format_combobox.cpp</text>
</a>
</g>
</g>
<!-- Node30&#45;&gt;Node31 -->
<g id="edge41" class="edge">
<title>Node30&#45;&gt;Node31</title>
<path fill="none" stroke="midnightblue" d="M2520.21,-123C2699.77,-98.56 2748.19,-111.47 2923.5,-87 2926.56,-86.57 2929.68,-86.11 2932.83,-85.61"/>
<polygon fill="midnightblue" stroke="midnightblue" points="2519.59,-119.56 2510.17,-124.39 2520.55,-126.49 2519.59,-119.56"/>
</g>
<!-- Node34 -->
<g id="node34" class="node">
<title>Node34</title>
<g id="a_node34"><a xlink:href="../../d2/d28/page__format__combobox_8cpp.html" target="_top" xlink:title=" ">
<polygon fill="white" stroke="black" points="3084,-56.5 3084,-86.5 3215,-86.5 3215,-56.5 3084,-56.5"/>
<text text-anchor="start" x="3092" y="-74.5" font-family="Helvetica,sans-Serif" font-size="10.00">src/libs/vwidgets/page</text>
<text text-anchor="middle" x="3149.5" y="-63.5" font-family="Helvetica,sans-Serif" font-size="10.00">_format_combobox.cpp</text>
</a>
</g>
</g>
<!-- Node33&#45;&gt;Node34 -->
<g id="edge44" class="edge">
<title>Node33&#45;&gt;Node34</title>
<path fill="none" stroke="midnightblue" d="M3021.38,-119.82C3049.67,-109.37 3084.99,-96.32 3111.39,-86.58"/>
<polygon fill="midnightblue" stroke="midnightblue" points="3019.86,-116.65 3011.69,-123.4 3022.28,-123.21 3019.86,-116.65"/>
</g>
<!-- Node37&#45;&gt;Node14 -->
<g id="edge49" class="edge">
<title>Node37&#45;&gt;Node14</title>
<path fill="none" stroke="midnightblue" d="M143.4,-186.8C126.79,-179.95 109.59,-169.54 99.5,-154 84.77,-131.31 89.79,-97.11 93.29,-81.21"/>
<polygon fill="midnightblue" stroke="midnightblue" points="142.46,-190.19 153.05,-190.44 144.93,-183.64 142.46,-190.19"/>
</g>
<!-- Node38&#45;&gt;Node9 -->
<g id="edge51" class="edge">
<title>Node38&#45;&gt;Node9</title>
<path fill="none" stroke="midnightblue" d="M1376.26,-180.02C1381.1,-149.53 1385.45,-89.67 1353.5,-56 1333.8,-35.24 1268.27,-23.87 1210.52,-17.76"/>
<polygon fill="midnightblue" stroke="midnightblue" points="1372.76,-179.69 1374.46,-190.15 1379.66,-180.92 1372.76,-179.69"/>
</g>
</g>
</svg>
