<?xml version="1.0" encoding="UTF-8" standalone="no"?>
<!DOCTYPE svg PUBLIC "-//W3C//DTD SVG 1.1//EN"
 "http://www.w3.org/Graphics/SVG/1.1/DTD/svg11.dtd">
<!-- Generated by graphviz version 2.43.0 (0)
 -->
<!-- Title: src/libs/vtools/tools/drawTools/operation/vabstractoperation.h Pages: 1 -->
<svg width="1962pt" height="351pt"
 viewBox="0.00 0.00 1961.50 351.00" xmlns="http://www.w3.org/2000/svg" xmlns:xlink="http://www.w3.org/1999/xlink">
<g id="graph0" class="graph" transform="scale(1 1) rotate(0) translate(4 347)">
<title>src/libs/vtools/tools/drawTools/operation/vabstractoperation.h</title>
<polygon fill="white" stroke="transparent" points="-4,4 -4,-347 1957.5,-347 1957.5,4 -4,4"/>
<!-- Node1 -->
<g id="node1" class="node">
<title>Node1</title>
<g id="a_node1"><a xlink:title=" ">
<polygon fill="#bfbfbf" stroke="black" points="797.5,-301.5 797.5,-342.5 918.5,-342.5 918.5,-301.5 797.5,-301.5"/>
<text text-anchor="start" x="805.5" y="-330.5" font-family="Helvetica,sans-Serif" font-size="10.00">src/libs/vtools/tools</text>
<text text-anchor="start" x="805.5" y="-319.5" font-family="Helvetica,sans-Serif" font-size="10.00">/drawTools/operation</text>
<text text-anchor="middle" x="858" y="-308.5" font-family="Helvetica,sans-Serif" font-size="10.00">/vabstractoperation.h</text>
</a>
</g>
</g>
<!-- Node2 -->
<g id="node2" class="node">
<title>Node2</title>
<g id="a_node2"><a xlink:href="../../dd/dfa/image__dialog_8h.html" target="_top" xlink:title=" ">
<polygon fill="white" stroke="black" points="130,-229 130,-259 242,-259 242,-229 130,-229"/>
<text text-anchor="start" x="138" y="-247" font-family="Helvetica,sans-Serif" font-size="10.00">src/libs/tools/image</text>
<text text-anchor="middle" x="186" y="-236" font-family="Helvetica,sans-Serif" font-size="10.00">_dialog.h</text>
</a>
</g>
</g>
<!-- Node1&#45;&gt;Node2 -->
<g id="edge1" class="edge">
<title>Node1&#45;&gt;Node2</title>
<path fill="none" stroke="midnightblue" d="M787.03,-316.16C679.1,-308.32 467.41,-291.04 289,-265 273.77,-262.78 257.37,-259.84 242.24,-256.91"/>
<polygon fill="midnightblue" stroke="midnightblue" points="786.92,-319.66 797.14,-316.89 787.42,-312.68 786.92,-319.66"/>
</g>
<!-- Node4 -->
<g id="node4" class="node">
<title>Node4</title>
<g id="a_node4"><a xlink:href="../../d2/d47/image__dialog_8cpp.html" target="_top" xlink:title=" ">
<polygon fill="white" stroke="black" points="130,-151 130,-181 242,-181 242,-151 130,-151"/>
<text text-anchor="start" x="138" y="-169" font-family="Helvetica,sans-Serif" font-size="10.00">src/libs/tools/image</text>
<text text-anchor="middle" x="186" y="-158" font-family="Helvetica,sans-Serif" font-size="10.00">_dialog.cpp</text>
</a>
</g>
</g>
<!-- Node1&#45;&gt;Node4 -->
<g id="edge4" class="edge">
<title>Node1&#45;&gt;Node4</title>
<path fill="none" stroke="midnightblue" d="M786.92,-316.99C666.46,-309.57 427.51,-291.94 348,-265 290.72,-245.59 232.09,-203.45 203.64,-181.29"/>
<polygon fill="midnightblue" stroke="midnightblue" points="786.95,-320.5 797.15,-317.62 787.38,-313.51 786.95,-320.5"/>
</g>
<!-- Node5 -->
<g id="node5" class="node">
<title>Node5</title>
<g id="a_node5"><a xlink:href="../../d8/da9/dialogmirrorbyaxis_8h.html" target="_top" xlink:title=" ">
<polygon fill="white" stroke="black" points="702,-229 702,-259 850,-259 850,-229 702,-229"/>
<text text-anchor="start" x="710" y="-247" font-family="Helvetica,sans-Serif" font-size="10.00">src/libs/vtools/dialogs</text>
<text text-anchor="middle" x="776" y="-236" font-family="Helvetica,sans-Serif" font-size="10.00">/tools/dialogmirrorbyaxis.h</text>
</a>
</g>
</g>
<!-- Node1&#45;&gt;Node5 -->
<g id="edge5" class="edge">
<title>Node1&#45;&gt;Node5</title>
<path fill="none" stroke="midnightblue" d="M829.22,-294.32C816.47,-282.51 801.98,-269.08 791.35,-259.23"/>
<polygon fill="midnightblue" stroke="midnightblue" points="827.17,-297.2 836.88,-301.43 831.93,-292.06 827.17,-297.2"/>
</g>
<!-- Node9 -->
<g id="node9" class="node">
<title>Node9</title>
<g id="a_node9"><a xlink:href="../../d4/d1d/dialogmove_8h.html" target="_top" xlink:title=" ">
<polygon fill="white" stroke="black" points="402,-229 402,-259 524,-259 524,-229 402,-229"/>
<text text-anchor="start" x="410" y="-247" font-family="Helvetica,sans-Serif" font-size="10.00">src/libs/vtools/dialogs</text>
<text text-anchor="middle" x="463" y="-236" font-family="Helvetica,sans-Serif" font-size="10.00">/tools/dialogmove.h</text>
</a>
</g>
</g>
<!-- Node1&#45;&gt;Node9 -->
<g id="edge9" class="edge">
<title>Node1&#45;&gt;Node9</title>
<path fill="none" stroke="midnightblue" d="M787.52,-311.1C721.39,-301.28 619.94,-284.85 533,-265 525.36,-263.26 517.32,-261.18 509.51,-259.04"/>
<polygon fill="midnightblue" stroke="midnightblue" points="787.01,-314.56 797.42,-312.56 788.03,-307.63 787.01,-314.56"/>
</g>
<!-- Node10 -->
<g id="node10" class="node">
<title>Node10</title>
<g id="a_node10"><a xlink:href="../../d2/d51/dialogmove_8cpp.html" target="_top" xlink:title=" ">
<polygon fill="white" stroke="black" points="260.5,-151 260.5,-181 385.5,-181 385.5,-151 260.5,-151"/>
<text text-anchor="start" x="268.5" y="-169" font-family="Helvetica,sans-Serif" font-size="10.00">src/libs/vtools/dialogs</text>
<text text-anchor="middle" x="323" y="-158" font-family="Helvetica,sans-Serif" font-size="10.00">/tools/dialogmove.cpp</text>
</a>
</g>
</g>
<!-- Node1&#45;&gt;Node10 -->
<g id="edge13" class="edge">
<title>Node1&#45;&gt;Node10</title>
<path fill="none" stroke="midnightblue" d="M786.76,-319.36C673.35,-315.61 457.94,-303.51 393,-265 359.91,-245.38 338.22,-203.34 328.64,-181.24"/>
<polygon fill="midnightblue" stroke="midnightblue" points="786.97,-322.87 797.07,-319.69 787.19,-315.87 786.97,-322.87"/>
</g>
<!-- Node12 -->
<g id="node12" class="node">
<title>Node12</title>
<g id="a_node12"><a xlink:href="../../db/d11/dialogmirrorbyline_8h.html" target="_top" xlink:title=" ">
<polygon fill="white" stroke="black" points="892,-229 892,-259 1038,-259 1038,-229 892,-229"/>
<text text-anchor="start" x="900" y="-247" font-family="Helvetica,sans-Serif" font-size="10.00">src/libs/vtools/dialogs</text>
<text text-anchor="middle" x="965" y="-236" font-family="Helvetica,sans-Serif" font-size="10.00">/tools/dialogmirrorbyline.h</text>
</a>
</g>
</g>
<!-- Node1&#45;&gt;Node12 -->
<g id="edge14" class="edge">
<title>Node1&#45;&gt;Node12</title>
<path fill="none" stroke="midnightblue" d="M894.15,-295.32C911.12,-283.27 930.7,-269.36 944.97,-259.23"/>
<polygon fill="midnightblue" stroke="midnightblue" points="891.68,-292.78 885.56,-301.43 895.73,-298.49 891.68,-292.78"/>
</g>
<!-- Node15 -->
<g id="node15" class="node">
<title>Node15</title>
<g id="a_node15"><a xlink:href="../../d7/de1/dialogrotation_8h.html" target="_top" xlink:title=" ">
<polygon fill="white" stroke="black" points="1444,-229 1444,-259 1568,-259 1568,-229 1444,-229"/>
<text text-anchor="start" x="1452" y="-247" font-family="Helvetica,sans-Serif" font-size="10.00">src/libs/vtools/dialogs</text>
<text text-anchor="middle" x="1506" y="-236" font-family="Helvetica,sans-Serif" font-size="10.00">/tools/dialogrotation.h</text>
</a>
</g>
</g>
<!-- Node1&#45;&gt;Node15 -->
<g id="edge18" class="edge">
<title>Node1&#45;&gt;Node15</title>
<path fill="none" stroke="midnightblue" d="M928.98,-318.18C1038.42,-312.91 1254.61,-298.88 1435,-265 1443.43,-263.42 1452.31,-261.29 1460.83,-259.02"/>
<polygon fill="midnightblue" stroke="midnightblue" points="928.55,-314.69 918.72,-318.66 928.88,-321.68 928.55,-314.69"/>
</g>
<!-- Node18 -->
<g id="node18" class="node">
<title>Node18</title>
<g id="a_node18"><a xlink:href="../../db/d1f/vabstractmirror_8h.html" target="_top" xlink:title=" ">
<polygon fill="white" stroke="black" points="1152.5,-223.5 1152.5,-264.5 1289.5,-264.5 1289.5,-223.5 1152.5,-223.5"/>
<text text-anchor="start" x="1160.5" y="-252.5" font-family="Helvetica,sans-Serif" font-size="10.00">src/libs/vtools/tools</text>
<text text-anchor="start" x="1160.5" y="-241.5" font-family="Helvetica,sans-Serif" font-size="10.00">/drawTools/operation</text>
<text text-anchor="middle" x="1221" y="-230.5" font-family="Helvetica,sans-Serif" font-size="10.00">/mirror/vabstractmirror.h</text>
</a>
</g>
</g>
<!-- Node1&#45;&gt;Node18 -->
<g id="edge22" class="edge">
<title>Node1&#45;&gt;Node18</title>
<path fill="none" stroke="midnightblue" d="M928.86,-306.16C993.48,-292.63 1088.36,-272.77 1152.3,-259.38"/>
<polygon fill="midnightblue" stroke="midnightblue" points="927.83,-302.8 918.76,-308.28 929.26,-309.66 927.83,-302.8"/>
</g>
<!-- Node24 -->
<g id="node24" class="node">
<title>Node24</title>
<g id="a_node24"><a xlink:href="../../d8/de3/vabstractoperation_8cpp.html" target="_top" xlink:title=" ">
<polygon fill="white" stroke="black" points="1586,-223.5 1586,-264.5 1718,-264.5 1718,-223.5 1586,-223.5"/>
<text text-anchor="start" x="1594" y="-252.5" font-family="Helvetica,sans-Serif" font-size="10.00">src/libs/vtools/tools</text>
<text text-anchor="start" x="1594" y="-241.5" font-family="Helvetica,sans-Serif" font-size="10.00">/drawTools/operation</text>
<text text-anchor="middle" x="1652" y="-230.5" font-family="Helvetica,sans-Serif" font-size="10.00">/vabstractoperation.cpp</text>
</a>
</g>
</g>
<!-- Node1&#45;&gt;Node24 -->
<g id="edge31" class="edge">
<title>Node1&#45;&gt;Node24</title>
<path fill="none" stroke="midnightblue" d="M928.77,-319.77C1058.28,-316.57 1341.78,-305.17 1577,-265 1579.92,-264.5 1582.9,-263.94 1585.89,-263.33"/>
<polygon fill="midnightblue" stroke="midnightblue" points="928.5,-316.27 918.59,-320.01 928.67,-323.27 928.5,-316.27"/>
</g>
<!-- Node25 -->
<g id="node25" class="node">
<title>Node25</title>
<g id="a_node25"><a xlink:href="../../d3/d95/vtoolmove_8h.html" target="_top" xlink:title=" ">
<polygon fill="white" stroke="black" points="542,-223.5 542,-264.5 660,-264.5 660,-223.5 542,-223.5"/>
<text text-anchor="start" x="550" y="-252.5" font-family="Helvetica,sans-Serif" font-size="10.00">src/libs/vtools/tools</text>
<text text-anchor="start" x="550" y="-241.5" font-family="Helvetica,sans-Serif" font-size="10.00">/drawTools/operation</text>
<text text-anchor="middle" x="601" y="-230.5" font-family="Helvetica,sans-Serif" font-size="10.00">/vtoolmove.h</text>
</a>
</g>
</g>
<!-- Node1&#45;&gt;Node25 -->
<g id="edge32" class="edge">
<title>Node1&#45;&gt;Node25</title>
<path fill="none" stroke="midnightblue" d="M787.74,-300.22C747.78,-288.4 698.28,-273.77 660.29,-262.53"/>
<polygon fill="midnightblue" stroke="midnightblue" points="786.84,-303.61 797.42,-303.09 788.82,-296.89 786.84,-303.61"/>
</g>
<!-- Node26 -->
<g id="node26" class="node">
<title>Node26</title>
<g id="a_node26"><a xlink:href="../../d6/da5/vtoolrotation_8h.html" target="_top" xlink:title=" ">
<polygon fill="white" stroke="black" points="1308,-223.5 1308,-264.5 1426,-264.5 1426,-223.5 1308,-223.5"/>
<text text-anchor="start" x="1316" y="-252.5" font-family="Helvetica,sans-Serif" font-size="10.00">src/libs/vtools/tools</text>
<text text-anchor="start" x="1316" y="-241.5" font-family="Helvetica,sans-Serif" font-size="10.00">/drawTools/operation</text>
<text text-anchor="middle" x="1367" y="-230.5" font-family="Helvetica,sans-Serif" font-size="10.00">/vtoolrotation.h</text>
</a>
</g>
</g>
<!-- Node1&#45;&gt;Node26 -->
<g id="edge35" class="edge">
<title>Node1&#45;&gt;Node26</title>
<path fill="none" stroke="midnightblue" d="M928.7,-315.41C1016.09,-307.73 1169.08,-291.72 1298,-265 1301.18,-264.34 1304.42,-263.61 1307.68,-262.83"/>
<polygon fill="midnightblue" stroke="midnightblue" points="928.29,-311.94 918.63,-316.29 928.9,-318.91 928.29,-311.94"/>
</g>
<!-- Node27 -->
<g id="node27" class="node">
<title>Node27</title>
<g id="a_node27"><a xlink:href="../../d4/d1a/vundocommand_8cpp.html" target="_top" xlink:title=" ">
<polygon fill="white" stroke="black" points="1736.5,-229 1736.5,-259 1901.5,-259 1901.5,-229 1736.5,-229"/>
<text text-anchor="start" x="1744.5" y="-247" font-family="Helvetica,sans-Serif" font-size="10.00">src/libs/vtools/undocommands</text>
<text text-anchor="middle" x="1819" y="-236" font-family="Helvetica,sans-Serif" font-size="10.00">/vundocommand.cpp</text>
</a>
</g>
</g>
<!-- Node1&#45;&gt;Node27 -->
<g id="edge38" class="edge">
<title>Node1&#45;&gt;Node27</title>
<path fill="none" stroke="midnightblue" d="M928.98,-320.02C1077.69,-317.17 1432.57,-306.25 1727,-265 1738.01,-263.46 1749.66,-261.32 1760.83,-259.02"/>
<polygon fill="midnightblue" stroke="midnightblue" points="928.56,-316.52 918.63,-320.21 928.69,-323.52 928.56,-316.52"/>
</g>
<!-- Node3 -->
<g id="node3" class="node">
<title>Node3</title>
<g id="a_node3"><a xlink:href="../../df/d1e/image__item_8cpp.html" target="_top" xlink:title=" ">
<polygon fill="white" stroke="black" points="0,-151 0,-181 112,-181 112,-151 0,-151"/>
<text text-anchor="start" x="8" y="-169" font-family="Helvetica,sans-Serif" font-size="10.00">src/libs/tools/image</text>
<text text-anchor="middle" x="56" y="-158" font-family="Helvetica,sans-Serif" font-size="10.00">_item.cpp</text>
</a>
</g>
</g>
<!-- Node2&#45;&gt;Node3 -->
<g id="edge2" class="edge">
<title>Node2&#45;&gt;Node3</title>
<path fill="none" stroke="midnightblue" d="M153.19,-223.82C130.42,-210.51 100.59,-193.07 80.02,-181.04"/>
<polygon fill="midnightblue" stroke="midnightblue" points="151.45,-226.86 161.85,-228.88 154.99,-220.81 151.45,-226.86"/>
</g>
<!-- Node2&#45;&gt;Node4 -->
<g id="edge3" class="edge">
<title>Node2&#45;&gt;Node4</title>
<path fill="none" stroke="midnightblue" d="M186,-218.59C186,-206.26 186,-191.72 186,-181.23"/>
<polygon fill="midnightblue" stroke="midnightblue" points="182.5,-218.7 186,-228.7 189.5,-218.71 182.5,-218.7"/>
</g>
<!-- Node6 -->
<g id="node6" class="node">
<title>Node6</title>
<g id="a_node6"><a xlink:href="../../df/ded/tooldialogs_8h.html" target="_top" xlink:title=" ">
<polygon fill="white" stroke="black" points="793,-151 793,-181 915,-181 915,-151 793,-151"/>
<text text-anchor="start" x="801" y="-169" font-family="Helvetica,sans-Serif" font-size="10.00">src/libs/vtools/dialogs</text>
<text text-anchor="middle" x="854" y="-158" font-family="Helvetica,sans-Serif" font-size="10.00">/tooldialogs.h</text>
</a>
</g>
</g>
<!-- Node5&#45;&gt;Node6 -->
<g id="edge6" class="edge">
<title>Node5&#45;&gt;Node6</title>
<path fill="none" stroke="midnightblue" d="M798.03,-221.53C811.27,-208.63 827.76,-192.57 839.39,-181.23"/>
<polygon fill="midnightblue" stroke="midnightblue" points="795.39,-219.22 790.67,-228.7 800.28,-224.23 795.39,-219.22"/>
</g>
<!-- Node7 -->
<g id="node7" class="node">
<title>Node7</title>
<g id="a_node7"><a xlink:href="../../d9/d34/dialogmirrorbyaxis_8cpp.html" target="_top" xlink:title=" ">
<polygon fill="white" stroke="black" points="615.5,-151 615.5,-181 774.5,-181 774.5,-151 615.5,-151"/>
<text text-anchor="start" x="623.5" y="-169" font-family="Helvetica,sans-Serif" font-size="10.00">src/libs/vtools/dialogs</text>
<text text-anchor="middle" x="695" y="-158" font-family="Helvetica,sans-Serif" font-size="10.00">/tools/dialogmirrorbyaxis.cpp</text>
</a>
</g>
</g>
<!-- Node5&#45;&gt;Node7 -->
<g id="edge7" class="edge">
<title>Node5&#45;&gt;Node7</title>
<path fill="none" stroke="midnightblue" d="M753.12,-221.53C739.37,-208.63 722.25,-192.57 710.17,-181.23"/>
<polygon fill="midnightblue" stroke="midnightblue" points="751.08,-224.41 760.76,-228.7 755.87,-219.31 751.08,-224.41"/>
</g>
<!-- Node8 -->
<g id="node8" class="node">
<title>Node8</title>
<g id="a_node8"><a xlink:href="../../d5/d3b/vtoolmirrorbyaxis_8cpp.html" target="_top" xlink:title=" ">
<polygon fill="white" stroke="black" points="712,-67.5 712,-108.5 872,-108.5 872,-67.5 712,-67.5"/>
<text text-anchor="start" x="720" y="-96.5" font-family="Helvetica,sans-Serif" font-size="10.00">src/libs/vtools/tools</text>
<text text-anchor="start" x="720" y="-85.5" font-family="Helvetica,sans-Serif" font-size="10.00">/drawTools/operation</text>
<text text-anchor="middle" x="792" y="-74.5" font-family="Helvetica,sans-Serif" font-size="10.00">/mirror/vtoolmirrorbyaxis.cpp</text>
</a>
</g>
</g>
<!-- Node5&#45;&gt;Node8 -->
<g id="edge8" class="edge">
<title>Node5&#45;&gt;Node8</title>
<path fill="none" stroke="midnightblue" d="M697.3,-226.47C658.43,-216.54 617.42,-202.78 606,-187 595.06,-171.88 594.86,-159.98 606,-145 619.2,-127.24 667.76,-112.97 711.95,-103.28"/>
<polygon fill="midnightblue" stroke="midnightblue" points="696.57,-229.89 707.12,-228.91 698.26,-223.1 696.57,-229.89"/>
</g>
<!-- Node9&#45;&gt;Node6 -->
<g id="edge10" class="edge">
<title>Node9&#45;&gt;Node6</title>
<path fill="none" stroke="midnightblue" d="M518.61,-226.38C523.46,-225.15 528.3,-224 533,-223 642.78,-199.53 673.18,-210.27 783,-187 791.02,-185.3 799.46,-183.2 807.62,-181.01"/>
<polygon fill="midnightblue" stroke="midnightblue" points="517.5,-223.05 508.71,-228.98 519.28,-229.82 517.5,-223.05"/>
</g>
<!-- Node9&#45;&gt;Node10 -->
<g id="edge11" class="edge">
<title>Node9&#45;&gt;Node10</title>
<path fill="none" stroke="midnightblue" d="M428,-224C403.43,-210.66 371.12,-193.12 348.87,-181.04"/>
<polygon fill="midnightblue" stroke="midnightblue" points="426.54,-227.19 437,-228.88 429.88,-221.04 426.54,-227.19"/>
</g>
<!-- Node11 -->
<g id="node11" class="node">
<title>Node11</title>
<g id="a_node11"><a xlink:href="../../d3/d2b/vtoolmove_8cpp.html" target="_top" xlink:title=" ">
<polygon fill="white" stroke="black" points="404,-145.5 404,-186.5 522,-186.5 522,-145.5 404,-145.5"/>
<text text-anchor="start" x="412" y="-174.5" font-family="Helvetica,sans-Serif" font-size="10.00">src/libs/vtools/tools</text>
<text text-anchor="start" x="412" y="-163.5" font-family="Helvetica,sans-Serif" font-size="10.00">/drawTools/operation</text>
<text text-anchor="middle" x="463" y="-152.5" font-family="Helvetica,sans-Serif" font-size="10.00">/vtoolmove.cpp</text>
</a>
</g>
</g>
<!-- Node9&#45;&gt;Node11 -->
<g id="edge12" class="edge">
<title>Node9&#45;&gt;Node11</title>
<path fill="none" stroke="midnightblue" d="M463,-218.66C463,-208.33 463,-196.44 463,-186.68"/>
<polygon fill="midnightblue" stroke="midnightblue" points="459.5,-218.7 463,-228.7 466.5,-218.71 459.5,-218.7"/>
</g>
<!-- Node12&#45;&gt;Node6 -->
<g id="edge15" class="edge">
<title>Node12&#45;&gt;Node6</title>
<path fill="none" stroke="midnightblue" d="M935.95,-223.11C916.64,-209.89 891.76,-192.86 874.51,-181.04"/>
<polygon fill="midnightblue" stroke="midnightblue" points="934.15,-226.12 944.38,-228.88 938.11,-220.35 934.15,-226.12"/>
</g>
<!-- Node13 -->
<g id="node13" class="node">
<title>Node13</title>
<g id="a_node13"><a xlink:href="../../df/d5e/dialogmirrorbyline_8cpp.html" target="_top" xlink:title=" ">
<polygon fill="white" stroke="black" points="933.5,-151 933.5,-181 1090.5,-181 1090.5,-151 933.5,-151"/>
<text text-anchor="start" x="941.5" y="-169" font-family="Helvetica,sans-Serif" font-size="10.00">src/libs/vtools/dialogs</text>
<text text-anchor="middle" x="1012" y="-158" font-family="Helvetica,sans-Serif" font-size="10.00">/tools/dialogmirrorbyline.cpp</text>
</a>
</g>
</g>
<!-- Node12&#45;&gt;Node13 -->
<g id="edge16" class="edge">
<title>Node12&#45;&gt;Node13</title>
<path fill="none" stroke="midnightblue" d="M979.18,-220.07C986.99,-207.44 996.45,-192.15 1003.2,-181.23"/>
<polygon fill="midnightblue" stroke="midnightblue" points="976.12,-218.36 973.84,-228.7 982.08,-222.04 976.12,-218.36"/>
</g>
<!-- Node14 -->
<g id="node14" class="node">
<title>Node14</title>
<g id="a_node14"><a xlink:href="../../d2/d3c/vtoolmirrorbyline_8cpp.html" target="_top" xlink:title=" ">
<polygon fill="white" stroke="black" points="1067,-67.5 1067,-108.5 1225,-108.5 1225,-67.5 1067,-67.5"/>
<text text-anchor="start" x="1075" y="-96.5" font-family="Helvetica,sans-Serif" font-size="10.00">src/libs/vtools/tools</text>
<text text-anchor="start" x="1075" y="-85.5" font-family="Helvetica,sans-Serif" font-size="10.00">/drawTools/operation</text>
<text text-anchor="middle" x="1146" y="-74.5" font-family="Helvetica,sans-Serif" font-size="10.00">/mirror/vtoolmirrorbyline.cpp</text>
</a>
</g>
</g>
<!-- Node12&#45;&gt;Node14 -->
<g id="edge17" class="edge">
<title>Node12&#45;&gt;Node14</title>
<path fill="none" stroke="midnightblue" d="M1032.53,-225.58C1055.75,-216.97 1080.52,-204.55 1099,-187 1121.71,-165.43 1134.73,-130.63 1141.08,-108.82"/>
<polygon fill="midnightblue" stroke="midnightblue" points="1031.31,-222.3 1023.04,-228.92 1033.63,-228.9 1031.31,-222.3"/>
</g>
<!-- Node15&#45;&gt;Node6 -->
<g id="edge19" class="edge">
<title>Node15&#45;&gt;Node6</title>
<path fill="none" stroke="midnightblue" d="M1451.41,-226.42C1445.9,-225.11 1440.36,-223.93 1435,-223 1210.7,-183.93 1148.22,-226.49 924,-187 915.41,-185.49 906.37,-183.34 897.74,-181"/>
<polygon fill="midnightblue" stroke="midnightblue" points="1450.69,-229.85 1461.25,-228.9 1452.41,-223.06 1450.69,-229.85"/>
</g>
<!-- Node16 -->
<g id="node16" class="node">
<title>Node16</title>
<g id="a_node16"><a xlink:href="../../dc/d64/dialogrotation_8cpp.html" target="_top" xlink:title=" ">
<polygon fill="white" stroke="black" points="1818.5,-151 1818.5,-181 1953.5,-181 1953.5,-151 1818.5,-151"/>
<text text-anchor="start" x="1826.5" y="-169" font-family="Helvetica,sans-Serif" font-size="10.00">src/libs/vtools/dialogs</text>
<text text-anchor="middle" x="1886" y="-158" font-family="Helvetica,sans-Serif" font-size="10.00">/tools/dialogrotation.cpp</text>
</a>
</g>
</g>
<!-- Node15&#45;&gt;Node16 -->
<g id="edge20" class="edge">
<title>Node15&#45;&gt;Node16</title>
<path fill="none" stroke="midnightblue" d="M1562.66,-226.38C1567.49,-225.17 1572.32,-224.02 1577,-223 1678.96,-200.81 1706.82,-208.14 1809,-187 1817.39,-185.26 1826.23,-183.2 1834.81,-181.06"/>
<polygon fill="midnightblue" stroke="midnightblue" points="1561.57,-223.05 1552.77,-228.96 1563.33,-229.82 1561.57,-223.05"/>
</g>
<!-- Node17 -->
<g id="node17" class="node">
<title>Node17</title>
<g id="a_node17"><a xlink:href="../../df/dd2/vtoolrotation_8cpp.html" target="_top" xlink:title=" ">
<polygon fill="white" stroke="black" points="1682,-145.5 1682,-186.5 1800,-186.5 1800,-145.5 1682,-145.5"/>
<text text-anchor="start" x="1690" y="-174.5" font-family="Helvetica,sans-Serif" font-size="10.00">src/libs/vtools/tools</text>
<text text-anchor="start" x="1690" y="-163.5" font-family="Helvetica,sans-Serif" font-size="10.00">/drawTools/operation</text>
<text text-anchor="middle" x="1741" y="-152.5" font-family="Helvetica,sans-Serif" font-size="10.00">/vtoolrotation.cpp</text>
</a>
</g>
</g>
<!-- Node15&#45;&gt;Node17 -->
<g id="edge21" class="edge">
<title>Node15&#45;&gt;Node17</title>
<path fill="none" stroke="midnightblue" d="M1559.34,-225.75C1595.84,-213.94 1644.26,-198.28 1681.94,-186.1"/>
<polygon fill="midnightblue" stroke="midnightblue" points="1557.81,-222.56 1549.38,-228.97 1559.97,-229.22 1557.81,-222.56"/>
</g>
<!-- Node19 -->
<g id="node19" class="node">
<title>Node19</title>
<g id="a_node19"><a xlink:href="../../da/ddc/vabstractmirror_8cpp.html" target="_top" xlink:title=" ">
<polygon fill="white" stroke="black" points="1478,-145.5 1478,-186.5 1626,-186.5 1626,-145.5 1478,-145.5"/>
<text text-anchor="start" x="1486" y="-174.5" font-family="Helvetica,sans-Serif" font-size="10.00">src/libs/vtools/tools</text>
<text text-anchor="start" x="1486" y="-163.5" font-family="Helvetica,sans-Serif" font-size="10.00">/drawTools/operation</text>
<text text-anchor="middle" x="1552" y="-152.5" font-family="Helvetica,sans-Serif" font-size="10.00">/mirror/vabstractmirror.cpp</text>
</a>
</g>
</g>
<!-- Node18&#45;&gt;Node19 -->
<g id="edge23" class="edge">
<title>Node18&#45;&gt;Node19</title>
<path fill="none" stroke="midnightblue" d="M1299.92,-222.83C1375.89,-205.27 1396.76,-203.35 1469,-187 1471.89,-186.35 1474.84,-185.67 1477.81,-184.98"/>
<polygon fill="midnightblue" stroke="midnightblue" points="1298.81,-219.5 1289.86,-225.17 1300.4,-226.32 1298.81,-219.5"/>
</g>
<!-- Node20 -->
<g id="node20" class="node">
<title>Node20</title>
<g id="a_node20"><a xlink:href="../../df/db5/vtoolmirrorbyaxis_8h.html" target="_top" xlink:title=" ">
<polygon fill="white" stroke="black" points="1146.5,-145.5 1146.5,-186.5 1295.5,-186.5 1295.5,-145.5 1146.5,-145.5"/>
<text text-anchor="start" x="1154.5" y="-174.5" font-family="Helvetica,sans-Serif" font-size="10.00">src/libs/vtools/tools</text>
<text text-anchor="start" x="1154.5" y="-163.5" font-family="Helvetica,sans-Serif" font-size="10.00">/drawTools/operation</text>
<text text-anchor="middle" x="1221" y="-152.5" font-family="Helvetica,sans-Serif" font-size="10.00">/mirror/vtoolmirrorbyaxis.h</text>
</a>
</g>
</g>
<!-- Node18&#45;&gt;Node20 -->
<g id="edge24" class="edge">
<title>Node18&#45;&gt;Node20</title>
<path fill="none" stroke="midnightblue" d="M1221,-213.3C1221,-204.3 1221,-194.65 1221,-186.51"/>
<polygon fill="midnightblue" stroke="midnightblue" points="1217.5,-213.43 1221,-223.43 1224.5,-213.43 1217.5,-213.43"/>
</g>
<!-- Node23 -->
<g id="node23" class="node">
<title>Node23</title>
<g id="a_node23"><a xlink:href="../../dc/d5e/vtoolmirrorbyline_8h.html" target="_top" xlink:title=" ">
<polygon fill="white" stroke="black" points="1314,-145.5 1314,-186.5 1460,-186.5 1460,-145.5 1314,-145.5"/>
<text text-anchor="start" x="1322" y="-174.5" font-family="Helvetica,sans-Serif" font-size="10.00">src/libs/vtools/tools</text>
<text text-anchor="start" x="1322" y="-163.5" font-family="Helvetica,sans-Serif" font-size="10.00">/drawTools/operation</text>
<text text-anchor="middle" x="1387" y="-152.5" font-family="Helvetica,sans-Serif" font-size="10.00">/mirror/vtoolmirrorbyline.h</text>
</a>
</g>
</g>
<!-- Node18&#45;&gt;Node23 -->
<g id="edge28" class="edge">
<title>Node18&#45;&gt;Node23</title>
<path fill="none" stroke="midnightblue" d="M1273.01,-219.19C1295.97,-208.67 1322.63,-196.47 1344.4,-186.51"/>
<polygon fill="midnightblue" stroke="midnightblue" points="1271.38,-216.08 1263.75,-223.43 1274.3,-222.45 1271.38,-216.08"/>
</g>
<!-- Node20&#45;&gt;Node8 -->
<g id="edge25" class="edge">
<title>Node20&#45;&gt;Node8</title>
<path fill="none" stroke="midnightblue" d="M1136.16,-149.97C1059.43,-136.38 947.27,-116.51 872.05,-103.18"/>
<polygon fill="midnightblue" stroke="midnightblue" points="1135.82,-153.46 1146.27,-151.76 1137.04,-146.57 1135.82,-153.46"/>
</g>
<!-- Node21 -->
<g id="node21" class="node">
<title>Node21</title>
<g id="a_node21"><a xlink:href="../../d4/d56/drawtools_8h.html" target="_top" xlink:title=" ">
<polygon fill="white" stroke="black" points="1296,-73 1296,-103 1424,-103 1424,-73 1296,-73"/>
<text text-anchor="start" x="1304" y="-91" font-family="Helvetica,sans-Serif" font-size="10.00">src/libs/vtools/tools</text>
<text text-anchor="middle" x="1360" y="-80" font-family="Helvetica,sans-Serif" font-size="10.00">/drawTools/drawtools.h</text>
</a>
</g>
</g>
<!-- Node20&#45;&gt;Node21 -->
<g id="edge26" class="edge">
<title>Node20&#45;&gt;Node21</title>
<path fill="none" stroke="midnightblue" d="M1265.85,-140.48C1288.36,-128.17 1314.85,-113.69 1333.98,-103.23"/>
<polygon fill="midnightblue" stroke="midnightblue" points="1263.89,-137.56 1256.8,-145.43 1267.25,-143.7 1263.89,-137.56"/>
</g>
<!-- Node22 -->
<g id="node22" class="node">
<title>Node22</title>
<g id="a_node22"><a xlink:href="../../d5/da5/tools_8h.html" target="_top" xlink:title=" ">
<polygon fill="white" stroke="black" points="1304.5,-0.5 1304.5,-30.5 1415.5,-30.5 1415.5,-0.5 1304.5,-0.5"/>
<text text-anchor="start" x="1312.5" y="-18.5" font-family="Helvetica,sans-Serif" font-size="10.00">src/libs/vtools/tools</text>
<text text-anchor="middle" x="1360" y="-7.5" font-family="Helvetica,sans-Serif" font-size="10.00">/tools.h</text>
</a>
</g>
</g>
<!-- Node21&#45;&gt;Node22 -->
<g id="edge27" class="edge">
<title>Node21&#45;&gt;Node22</title>
<path fill="none" stroke="midnightblue" d="M1360,-62.73C1360,-52.07 1360,-39.91 1360,-30.75"/>
<polygon fill="midnightblue" stroke="midnightblue" points="1356.5,-62.73 1360,-72.73 1363.5,-62.73 1356.5,-62.73"/>
</g>
<!-- Node23&#45;&gt;Node14 -->
<g id="edge29" class="edge">
<title>Node23&#45;&gt;Node14</title>
<path fill="none" stroke="midnightblue" d="M1315.03,-142.3C1280.91,-131.55 1240.57,-118.82 1207.85,-108.51"/>
<polygon fill="midnightblue" stroke="midnightblue" points="1314.35,-145.76 1324.94,-145.43 1316.45,-139.08 1314.35,-145.76"/>
</g>
<!-- Node23&#45;&gt;Node21 -->
<g id="edge30" class="edge">
<title>Node23&#45;&gt;Node21</title>
<path fill="none" stroke="midnightblue" d="M1376.68,-135.96C1372.7,-124.75 1368.32,-112.43 1365.05,-103.23"/>
<polygon fill="midnightblue" stroke="midnightblue" points="1373.4,-137.18 1380.05,-145.43 1380,-134.83 1373.4,-137.18"/>
</g>
<!-- Node25&#45;&gt;Node11 -->
<g id="edge33" class="edge">
<title>Node25&#45;&gt;Node11</title>
<path fill="none" stroke="midnightblue" d="M556.49,-218.49C537.69,-208.13 516.11,-196.25 498.42,-186.51"/>
<polygon fill="midnightblue" stroke="midnightblue" points="555.01,-221.67 565.46,-223.43 558.39,-215.54 555.01,-221.67"/>
</g>
<!-- Node25&#45;&gt;Node21 -->
<g id="edge34" class="edge">
<title>Node25&#45;&gt;Node21</title>
<path fill="none" stroke="midnightblue" d="M593.19,-213.6C589.3,-191.65 588.58,-162.53 606,-145 655.27,-95.42 1164.51,-116.49 1234,-109 1254.15,-106.83 1275.99,-103.65 1295.74,-100.47"/>
<polygon fill="midnightblue" stroke="midnightblue" points="589.76,-214.33 595.21,-223.42 596.62,-212.92 589.76,-214.33"/>
</g>
<!-- Node26&#45;&gt;Node17 -->
<g id="edge36" class="edge">
<title>Node26&#45;&gt;Node17</title>
<path fill="none" stroke="midnightblue" d="M1436.08,-222.91C1539.05,-200.67 1568.63,-208.22 1668,-187 1672.5,-186.04 1677.13,-184.97 1681.78,-183.83"/>
<polygon fill="midnightblue" stroke="midnightblue" points="1435.23,-219.51 1426.22,-225.08 1436.74,-226.35 1435.23,-219.51"/>
</g>
<!-- Node26&#45;&gt;Node21 -->
<g id="edge37" class="edge">
<title>Node26&#45;&gt;Node21</title>
<path fill="none" stroke="midnightblue" d="M1436.26,-222.96C1538.41,-202.11 1693.41,-216.51 1635,-145 1608.88,-113.02 1496.79,-98.84 1424.03,-92.91"/>
<polygon fill="midnightblue" stroke="midnightblue" points="1435.25,-219.6 1426.24,-225.17 1436.76,-226.44 1435.25,-219.6"/>
</g>
</g>
</svg>
