<?xml version="1.0" encoding="UTF-8" standalone="no"?>
<!DOCTYPE svg PUBLIC "-//W3C//DTD SVG 1.1//EN"
 "http://www.w3.org/Graphics/SVG/1.1/DTD/svg11.dtd">
<!-- Generated by graphviz version 2.43.0 (0)
 -->
<!-- Title: src/libs/vtools/tools/drawTools/operation/vabstractoperation.h Pages: 1 -->
<svg width="1701pt" height="351pt"
 viewBox="0.00 0.00 1701.00 351.00" xmlns="http://www.w3.org/2000/svg" xmlns:xlink="http://www.w3.org/1999/xlink">
<g id="graph0" class="graph" transform="scale(1 1) rotate(0) translate(4 347)">
<title>src/libs/vtools/tools/drawTools/operation/vabstractoperation.h</title>
<polygon fill="white" stroke="transparent" points="-4,4 -4,-347 1697,-347 1697,4 -4,4"/>
<!-- Node1 -->
<g id="node1" class="node">
<title>Node1</title>
<g id="a_node1"><a xlink:title=" ">
<polygon fill="#bfbfbf" stroke="black" points="819,-301.5 819,-342.5 940,-342.5 940,-301.5 819,-301.5"/>
<text text-anchor="start" x="827" y="-330.5" font-family="Helvetica,sans-Serif" font-size="10.00">src/libs/vtools/tools</text>
<text text-anchor="start" x="827" y="-319.5" font-family="Helvetica,sans-Serif" font-size="10.00">/drawTools/operation</text>
<text text-anchor="middle" x="879.5" y="-308.5" font-family="Helvetica,sans-Serif" font-size="10.00">/vabstractoperation.h</text>
</a>
</g>
</g>
<!-- Node2 -->
<g id="node2" class="node">
<title>Node2</title>
<g id="a_node2"><a xlink:href="../../d8/da9/dialogmirrorbyaxis_8h.html" target="_top" xlink:title=" ">
<polygon fill="white" stroke="black" points="489.5,-229 489.5,-259 637.5,-259 637.5,-229 489.5,-229"/>
<text text-anchor="start" x="497.5" y="-247" font-family="Helvetica,sans-Serif" font-size="10.00">src/libs/vtools/dialogs</text>
<text text-anchor="middle" x="563.5" y="-236" font-family="Helvetica,sans-Serif" font-size="10.00">/tools/dialogmirrorbyaxis.h</text>
</a>
</g>
</g>
<!-- Node1&#45;&gt;Node2 -->
<g id="edge1" class="edge">
<title>Node1&#45;&gt;Node2</title>
<path fill="none" stroke="midnightblue" d="M809.04,-304.05C752.67,-290.5 674.58,-271.71 621.71,-259"/>
<polygon fill="midnightblue" stroke="midnightblue" points="808.4,-307.5 818.95,-306.44 810.04,-300.69 808.4,-307.5"/>
</g>
<!-- Node6 -->
<g id="node6" class="node">
<title>Node6</title>
<g id="a_node6"><a xlink:href="../../d4/d1d/dialogmove_8h.html" target="_top" xlink:title=" ">
<polygon fill="white" stroke="black" points="141.5,-229 141.5,-259 263.5,-259 263.5,-229 141.5,-229"/>
<text text-anchor="start" x="149.5" y="-247" font-family="Helvetica,sans-Serif" font-size="10.00">src/libs/vtools/dialogs</text>
<text text-anchor="middle" x="202.5" y="-236" font-family="Helvetica,sans-Serif" font-size="10.00">/tools/dialogmove.h</text>
</a>
</g>
</g>
<!-- Node1&#45;&gt;Node6 -->
<g id="edge5" class="edge">
<title>Node1&#45;&gt;Node6</title>
<path fill="none" stroke="midnightblue" d="M808.34,-318.73C694.36,-314.13 464.16,-300.9 272.5,-265 264.18,-263.44 255.42,-261.33 247.02,-259.06"/>
<polygon fill="midnightblue" stroke="midnightblue" points="808.55,-322.24 818.68,-319.13 808.82,-315.24 808.55,-322.24"/>
</g>
<!-- Node7 -->
<g id="node7" class="node">
<title>Node7</title>
<g id="a_node7"><a xlink:href="../../d2/d51/dialogmove_8cpp.html" target="_top" xlink:title=" ">
<polygon fill="white" stroke="black" points="0,-151 0,-181 125,-181 125,-151 0,-151"/>
<text text-anchor="start" x="8" y="-169" font-family="Helvetica,sans-Serif" font-size="10.00">src/libs/vtools/dialogs</text>
<text text-anchor="middle" x="62.5" y="-158" font-family="Helvetica,sans-Serif" font-size="10.00">/tools/dialogmove.cpp</text>
</a>
</g>
</g>
<!-- Node1&#45;&gt;Node7 -->
<g id="edge13" class="edge">
<title>Node1&#45;&gt;Node7</title>
<path fill="none" stroke="midnightblue" d="M808.76,-319.1C633.77,-313.9 190.52,-297.66 132.5,-265 98.79,-246.03 77.25,-203.3 67.89,-181.05"/>
<polygon fill="midnightblue" stroke="midnightblue" points="808.8,-322.6 818.9,-319.39 809,-315.6 808.8,-322.6"/>
</g>
<!-- Node9 -->
<g id="node9" class="node">
<title>Node9</title>
<g id="a_node9"><a xlink:href="../../db/d11/dialogmirrorbyline_8h.html" target="_top" xlink:title=" ">
<polygon fill="white" stroke="black" points="702.5,-229 702.5,-259 848.5,-259 848.5,-229 702.5,-229"/>
<text text-anchor="start" x="710.5" y="-247" font-family="Helvetica,sans-Serif" font-size="10.00">src/libs/vtools/dialogs</text>
<text text-anchor="middle" x="775.5" y="-236" font-family="Helvetica,sans-Serif" font-size="10.00">/tools/dialogmirrorbyline.h</text>
</a>
</g>
</g>
<!-- Node1&#45;&gt;Node9 -->
<g id="edge9" class="edge">
<title>Node1&#45;&gt;Node9</title>
<path fill="none" stroke="midnightblue" d="M844.36,-295.32C827.87,-283.27 808.84,-269.36 794.97,-259.23"/>
<polygon fill="midnightblue" stroke="midnightblue" points="842.58,-298.35 852.72,-301.43 846.71,-292.7 842.58,-298.35"/>
</g>
<!-- Node12 -->
<g id="node12" class="node">
<title>Node12</title>
<g id="a_node12"><a xlink:href="../../d7/de1/dialogrotation_8h.html" target="_top" xlink:title=" ">
<polygon fill="white" stroke="black" points="1183.5,-229 1183.5,-259 1307.5,-259 1307.5,-229 1183.5,-229"/>
<text text-anchor="start" x="1191.5" y="-247" font-family="Helvetica,sans-Serif" font-size="10.00">src/libs/vtools/dialogs</text>
<text text-anchor="middle" x="1245.5" y="-236" font-family="Helvetica,sans-Serif" font-size="10.00">/tools/dialogrotation.h</text>
</a>
</g>
</g>
<!-- Node1&#45;&gt;Node12 -->
<g id="edge14" class="edge">
<title>Node1&#45;&gt;Node12</title>
<path fill="none" stroke="midnightblue" d="M950.4,-309.32C1010.38,-299.02 1098.47,-282.89 1174.5,-265 1182.1,-263.21 1190.12,-261.14 1197.91,-259.02"/>
<polygon fill="midnightblue" stroke="midnightblue" points="949.55,-305.92 940.28,-311.05 950.72,-312.82 949.55,-305.92"/>
</g>
<!-- Node15 -->
<g id="node15" class="node">
<title>Node15</title>
<g id="a_node15"><a xlink:href="../../db/d1f/vabstractmirror_8h.html" target="_top" xlink:title=" ">
<polygon fill="white" stroke="black" points="892,-223.5 892,-264.5 1029,-264.5 1029,-223.5 892,-223.5"/>
<text text-anchor="start" x="900" y="-252.5" font-family="Helvetica,sans-Serif" font-size="10.00">src/libs/vtools/tools</text>
<text text-anchor="start" x="900" y="-241.5" font-family="Helvetica,sans-Serif" font-size="10.00">/drawTools/operation</text>
<text text-anchor="middle" x="960.5" y="-230.5" font-family="Helvetica,sans-Serif" font-size="10.00">/mirror/vabstractmirror.h</text>
</a>
</g>
</g>
<!-- Node1&#45;&gt;Node15 -->
<g id="edge18" class="edge">
<title>Node1&#45;&gt;Node15</title>
<path fill="none" stroke="midnightblue" d="M907.75,-294.49C918.26,-284.63 929.99,-273.63 939.71,-264.51"/>
<polygon fill="midnightblue" stroke="midnightblue" points="905.26,-292.03 900.36,-301.43 910.05,-297.14 905.26,-292.03"/>
</g>
<!-- Node21 -->
<g id="node21" class="node">
<title>Node21</title>
<g id="a_node21"><a xlink:href="../../d8/de3/vabstractoperation_8cpp.html" target="_top" xlink:title=" ">
<polygon fill="white" stroke="black" points="1325.5,-223.5 1325.5,-264.5 1457.5,-264.5 1457.5,-223.5 1325.5,-223.5"/>
<text text-anchor="start" x="1333.5" y="-252.5" font-family="Helvetica,sans-Serif" font-size="10.00">src/libs/vtools/tools</text>
<text text-anchor="start" x="1333.5" y="-241.5" font-family="Helvetica,sans-Serif" font-size="10.00">/drawTools/operation</text>
<text text-anchor="middle" x="1391.5" y="-230.5" font-family="Helvetica,sans-Serif" font-size="10.00">/vabstractoperation.cpp</text>
</a>
</g>
</g>
<!-- Node1&#45;&gt;Node21 -->
<g id="edge27" class="edge">
<title>Node1&#45;&gt;Node21</title>
<path fill="none" stroke="midnightblue" d="M950.35,-314.85C1037.18,-306.64 1188.53,-290.15 1316.5,-265 1319.41,-264.43 1322.37,-263.81 1325.36,-263.15"/>
<polygon fill="midnightblue" stroke="midnightblue" points="949.98,-311.37 940.35,-315.78 950.63,-318.34 949.98,-311.37"/>
</g>
<!-- Node22 -->
<g id="node22" class="node">
<title>Node22</title>
<g id="a_node22"><a xlink:href="../../d3/d95/vtoolmove_8h.html" target="_top" xlink:title=" ">
<polygon fill="white" stroke="black" points="281.5,-223.5 281.5,-264.5 399.5,-264.5 399.5,-223.5 281.5,-223.5"/>
<text text-anchor="start" x="289.5" y="-252.5" font-family="Helvetica,sans-Serif" font-size="10.00">src/libs/vtools/tools</text>
<text text-anchor="start" x="289.5" y="-241.5" font-family="Helvetica,sans-Serif" font-size="10.00">/drawTools/operation</text>
<text text-anchor="middle" x="340.5" y="-230.5" font-family="Helvetica,sans-Serif" font-size="10.00">/vtoolmove.h</text>
</a>
</g>
</g>
<!-- Node1&#45;&gt;Node22 -->
<g id="edge28" class="edge">
<title>Node1&#45;&gt;Node22</title>
<path fill="none" stroke="midnightblue" d="M809.07,-311.17C729.34,-300.03 595.57,-281.29 480.5,-265 454,-261.25 424.69,-257.07 399.76,-253.5"/>
<polygon fill="midnightblue" stroke="midnightblue" points="808.61,-314.64 818.99,-312.56 809.58,-307.7 808.61,-314.64"/>
</g>
<!-- Node23 -->
<g id="node23" class="node">
<title>Node23</title>
<g id="a_node23"><a xlink:href="../../d6/da5/vtoolrotation_8h.html" target="_top" xlink:title=" ">
<polygon fill="white" stroke="black" points="1047.5,-223.5 1047.5,-264.5 1165.5,-264.5 1165.5,-223.5 1047.5,-223.5"/>
<text text-anchor="start" x="1055.5" y="-252.5" font-family="Helvetica,sans-Serif" font-size="10.00">src/libs/vtools/tools</text>
<text text-anchor="start" x="1055.5" y="-241.5" font-family="Helvetica,sans-Serif" font-size="10.00">/drawTools/operation</text>
<text text-anchor="middle" x="1106.5" y="-230.5" font-family="Helvetica,sans-Serif" font-size="10.00">/vtoolrotation.h</text>
</a>
</g>
</g>
<!-- Node1&#45;&gt;Node23 -->
<g id="edge31" class="edge">
<title>Node1&#45;&gt;Node23</title>
<path fill="none" stroke="midnightblue" d="M947.7,-298.17C979.75,-287.44 1017.56,-274.78 1048.24,-264.51"/>
<polygon fill="midnightblue" stroke="midnightblue" points="946.33,-294.93 937.96,-301.43 948.55,-301.57 946.33,-294.93"/>
</g>
<!-- Node24 -->
<g id="node24" class="node">
<title>Node24</title>
<g id="a_node24"><a xlink:href="../../d4/d1a/vundocommand_8cpp.html" target="_top" xlink:title=" ">
<polygon fill="white" stroke="black" points="1476,-229 1476,-259 1641,-259 1641,-229 1476,-229"/>
<text text-anchor="start" x="1484" y="-247" font-family="Helvetica,sans-Serif" font-size="10.00">src/libs/vtools/undocommands</text>
<text text-anchor="middle" x="1558.5" y="-236" font-family="Helvetica,sans-Serif" font-size="10.00">/vundocommand.cpp</text>
</a>
</g>
</g>
<!-- Node1&#45;&gt;Node24 -->
<g id="edge34" class="edge">
<title>Node1&#45;&gt;Node24</title>
<path fill="none" stroke="midnightblue" d="M950.25,-316.98C1060.89,-310.07 1281.36,-293.85 1466.5,-265 1477,-263.36 1488.1,-261.27 1498.81,-259.05"/>
<polygon fill="midnightblue" stroke="midnightblue" points="949.98,-313.49 940.22,-317.6 950.41,-320.47 949.98,-313.49"/>
</g>
<!-- Node3 -->
<g id="node3" class="node">
<title>Node3</title>
<g id="a_node3"><a xlink:href="../../df/ded/tooldialogs_8h.html" target="_top" xlink:title=" ">
<polygon fill="white" stroke="black" points="532.5,-151 532.5,-181 654.5,-181 654.5,-151 532.5,-151"/>
<text text-anchor="start" x="540.5" y="-169" font-family="Helvetica,sans-Serif" font-size="10.00">src/libs/vtools/dialogs</text>
<text text-anchor="middle" x="593.5" y="-158" font-family="Helvetica,sans-Serif" font-size="10.00">/tooldialogs.h</text>
</a>
</g>
</g>
<!-- Node2&#45;&gt;Node3 -->
<g id="edge2" class="edge">
<title>Node2&#45;&gt;Node3</title>
<path fill="none" stroke="midnightblue" d="M572.84,-219.33C577.77,-206.85 583.66,-191.94 587.88,-181.23"/>
<polygon fill="midnightblue" stroke="midnightblue" points="569.56,-218.12 569.14,-228.7 576.07,-220.69 569.56,-218.12"/>
</g>
<!-- Node4 -->
<g id="node4" class="node">
<title>Node4</title>
<g id="a_node4"><a xlink:href="../../d9/d34/dialogmirrorbyaxis_8cpp.html" target="_top" xlink:title=" ">
<polygon fill="white" stroke="black" points="355,-151 355,-181 514,-181 514,-151 355,-151"/>
<text text-anchor="start" x="363" y="-169" font-family="Helvetica,sans-Serif" font-size="10.00">src/libs/vtools/dialogs</text>
<text text-anchor="middle" x="434.5" y="-158" font-family="Helvetica,sans-Serif" font-size="10.00">/tools/dialogmirrorbyaxis.cpp</text>
</a>
</g>
</g>
<!-- Node2&#45;&gt;Node4 -->
<g id="edge3" class="edge">
<title>Node2&#45;&gt;Node4</title>
<path fill="none" stroke="midnightblue" d="M530.65,-223.64C508.09,-210.35 478.66,-193.02 458.33,-181.04"/>
<polygon fill="midnightblue" stroke="midnightblue" points="529.15,-226.82 539.54,-228.88 532.7,-220.79 529.15,-226.82"/>
</g>
<!-- Node5 -->
<g id="node5" class="node">
<title>Node5</title>
<g id="a_node5"><a xlink:href="../../d5/d3b/vtoolmirrorbyaxis_8cpp.html" target="_top" xlink:title=" ">
<polygon fill="white" stroke="black" points="492.5,-67.5 492.5,-108.5 652.5,-108.5 652.5,-67.5 492.5,-67.5"/>
<text text-anchor="start" x="500.5" y="-96.5" font-family="Helvetica,sans-Serif" font-size="10.00">src/libs/vtools/tools</text>
<text text-anchor="start" x="500.5" y="-85.5" font-family="Helvetica,sans-Serif" font-size="10.00">/drawTools/operation</text>
<text text-anchor="middle" x="572.5" y="-74.5" font-family="Helvetica,sans-Serif" font-size="10.00">/mirror/vtoolmirrorbyaxis.cpp</text>
</a>
</g>
</g>
<!-- Node2&#45;&gt;Node5 -->
<g id="edge4" class="edge">
<title>Node2&#45;&gt;Node5</title>
<path fill="none" stroke="midnightblue" d="M479.07,-234.31C401.46,-222.88 304.24,-197.68 345.5,-145 363.71,-121.75 434.55,-106.84 492.31,-98.3"/>
<polygon fill="midnightblue" stroke="midnightblue" points="479,-237.84 489.4,-235.77 479.98,-230.91 479,-237.84"/>
</g>
<!-- Node6&#45;&gt;Node3 -->
<g id="edge6" class="edge">
<title>Node6&#45;&gt;Node3</title>
<path fill="none" stroke="midnightblue" d="M258.11,-226.38C262.96,-225.15 267.8,-224 272.5,-223 382.28,-199.53 412.68,-210.27 522.5,-187 530.52,-185.3 538.96,-183.2 547.12,-181.01"/>
<polygon fill="midnightblue" stroke="midnightblue" points="257,-223.05 248.21,-228.98 258.78,-229.82 257,-223.05"/>
</g>
<!-- Node6&#45;&gt;Node7 -->
<g id="edge7" class="edge">
<title>Node6&#45;&gt;Node7</title>
<path fill="none" stroke="midnightblue" d="M167.5,-224C142.93,-210.66 110.62,-193.12 88.37,-181.04"/>
<polygon fill="midnightblue" stroke="midnightblue" points="166.04,-227.19 176.5,-228.88 169.38,-221.04 166.04,-227.19"/>
</g>
<!-- Node8 -->
<g id="node8" class="node">
<title>Node8</title>
<g id="a_node8"><a xlink:href="../../d3/d2b/vtoolmove_8cpp.html" target="_top" xlink:title=" ">
<polygon fill="white" stroke="black" points="143.5,-145.5 143.5,-186.5 261.5,-186.5 261.5,-145.5 143.5,-145.5"/>
<text text-anchor="start" x="151.5" y="-174.5" font-family="Helvetica,sans-Serif" font-size="10.00">src/libs/vtools/tools</text>
<text text-anchor="start" x="151.5" y="-163.5" font-family="Helvetica,sans-Serif" font-size="10.00">/drawTools/operation</text>
<text text-anchor="middle" x="202.5" y="-152.5" font-family="Helvetica,sans-Serif" font-size="10.00">/vtoolmove.cpp</text>
</a>
</g>
</g>
<!-- Node6&#45;&gt;Node8 -->
<g id="edge8" class="edge">
<title>Node6&#45;&gt;Node8</title>
<path fill="none" stroke="midnightblue" d="M202.5,-218.66C202.5,-208.33 202.5,-196.44 202.5,-186.68"/>
<polygon fill="midnightblue" stroke="midnightblue" points="199,-218.7 202.5,-228.7 206,-218.71 199,-218.7"/>
</g>
<!-- Node9&#45;&gt;Node3 -->
<g id="edge10" class="edge">
<title>Node9&#45;&gt;Node3</title>
<path fill="none" stroke="midnightblue" d="M732.09,-224.87C699.92,-211.44 656.7,-193.39 627.13,-181.04"/>
<polygon fill="midnightblue" stroke="midnightblue" points="731.12,-228.26 741.69,-228.88 733.81,-221.8 731.12,-228.26"/>
</g>
<!-- Node10 -->
<g id="node10" class="node">
<title>Node10</title>
<g id="a_node10"><a xlink:href="../../df/d5e/dialogmirrorbyline_8cpp.html" target="_top" xlink:title=" ">
<polygon fill="white" stroke="black" points="673,-151 673,-181 830,-181 830,-151 673,-151"/>
<text text-anchor="start" x="681" y="-169" font-family="Helvetica,sans-Serif" font-size="10.00">src/libs/vtools/dialogs</text>
<text text-anchor="middle" x="751.5" y="-158" font-family="Helvetica,sans-Serif" font-size="10.00">/tools/dialogmirrorbyline.cpp</text>
</a>
</g>
</g>
<!-- Node9&#45;&gt;Node10 -->
<g id="edge11" class="edge">
<title>Node9&#45;&gt;Node10</title>
<path fill="none" stroke="midnightblue" d="M767.91,-218.96C763.99,-206.55 759.34,-191.83 755.99,-181.23"/>
<polygon fill="midnightblue" stroke="midnightblue" points="764.64,-220.22 770.99,-228.7 771.31,-218.12 764.64,-220.22"/>
</g>
<!-- Node11 -->
<g id="node11" class="node">
<title>Node11</title>
<g id="a_node11"><a xlink:href="../../d2/d3c/vtoolmirrorbyline_8cpp.html" target="_top" xlink:title=" ">
<polygon fill="white" stroke="black" points="847.5,-67.5 847.5,-108.5 1005.5,-108.5 1005.5,-67.5 847.5,-67.5"/>
<text text-anchor="start" x="855.5" y="-96.5" font-family="Helvetica,sans-Serif" font-size="10.00">src/libs/vtools/tools</text>
<text text-anchor="start" x="855.5" y="-85.5" font-family="Helvetica,sans-Serif" font-size="10.00">/drawTools/operation</text>
<text text-anchor="middle" x="926.5" y="-74.5" font-family="Helvetica,sans-Serif" font-size="10.00">/mirror/vtoolmirrorbyline.cpp</text>
</a>
</g>
</g>
<!-- Node9&#45;&gt;Node11 -->
<g id="edge12" class="edge">
<title>Node9&#45;&gt;Node11</title>
<path fill="none" stroke="midnightblue" d="M800.07,-222.29C811.96,-211.99 826.28,-199.16 838.5,-187 842.15,-183.37 884.17,-136.4 908.8,-108.82"/>
<polygon fill="midnightblue" stroke="midnightblue" points="797.58,-219.82 792.28,-228.99 802.14,-225.13 797.58,-219.82"/>
</g>
<!-- Node12&#45;&gt;Node3 -->
<g id="edge15" class="edge">
<title>Node12&#45;&gt;Node3</title>
<path fill="none" stroke="midnightblue" d="M1190.91,-226.42C1185.4,-225.11 1179.86,-223.93 1174.5,-223 950.2,-183.93 887.72,-226.49 663.5,-187 654.91,-185.49 645.87,-183.34 637.24,-181"/>
<polygon fill="midnightblue" stroke="midnightblue" points="1190.19,-229.85 1200.75,-228.9 1191.91,-223.06 1190.19,-229.85"/>
</g>
<!-- Node13 -->
<g id="node13" class="node">
<title>Node13</title>
<g id="a_node13"><a xlink:href="../../dc/d64/dialogrotation_8cpp.html" target="_top" xlink:title=" ">
<polygon fill="white" stroke="black" points="1558,-151 1558,-181 1693,-181 1693,-151 1558,-151"/>
<text text-anchor="start" x="1566" y="-169" font-family="Helvetica,sans-Serif" font-size="10.00">src/libs/vtools/dialogs</text>
<text text-anchor="middle" x="1625.5" y="-158" font-family="Helvetica,sans-Serif" font-size="10.00">/tools/dialogrotation.cpp</text>
</a>
</g>
</g>
<!-- Node12&#45;&gt;Node13 -->
<g id="edge16" class="edge">
<title>Node12&#45;&gt;Node13</title>
<path fill="none" stroke="midnightblue" d="M1302.16,-226.38C1306.99,-225.17 1311.82,-224.02 1316.5,-223 1418.46,-200.81 1446.32,-208.14 1548.5,-187 1556.89,-185.26 1565.73,-183.2 1574.31,-181.06"/>
<polygon fill="midnightblue" stroke="midnightblue" points="1301.07,-223.05 1292.27,-228.96 1302.83,-229.82 1301.07,-223.05"/>
</g>
<!-- Node14 -->
<g id="node14" class="node">
<title>Node14</title>
<g id="a_node14"><a xlink:href="../../df/dd2/vtoolrotation_8cpp.html" target="_top" xlink:title=" ">
<polygon fill="white" stroke="black" points="1421.5,-145.5 1421.5,-186.5 1539.5,-186.5 1539.5,-145.5 1421.5,-145.5"/>
<text text-anchor="start" x="1429.5" y="-174.5" font-family="Helvetica,sans-Serif" font-size="10.00">src/libs/vtools/tools</text>
<text text-anchor="start" x="1429.5" y="-163.5" font-family="Helvetica,sans-Serif" font-size="10.00">/drawTools/operation</text>
<text text-anchor="middle" x="1480.5" y="-152.5" font-family="Helvetica,sans-Serif" font-size="10.00">/vtoolrotation.cpp</text>
</a>
</g>
</g>
<!-- Node12&#45;&gt;Node14 -->
<g id="edge17" class="edge">
<title>Node12&#45;&gt;Node14</title>
<path fill="none" stroke="midnightblue" d="M1298.84,-225.75C1335.34,-213.94 1383.76,-198.28 1421.44,-186.1"/>
<polygon fill="midnightblue" stroke="midnightblue" points="1297.31,-222.56 1288.88,-228.97 1299.47,-229.22 1297.31,-222.56"/>
</g>
<!-- Node16 -->
<g id="node16" class="node">
<title>Node16</title>
<g id="a_node16"><a xlink:href="../../da/ddc/vabstractmirror_8cpp.html" target="_top" xlink:title=" ">
<polygon fill="white" stroke="black" points="1053.5,-145.5 1053.5,-186.5 1201.5,-186.5 1201.5,-145.5 1053.5,-145.5"/>
<text text-anchor="start" x="1061.5" y="-174.5" font-family="Helvetica,sans-Serif" font-size="10.00">src/libs/vtools/tools</text>
<text text-anchor="start" x="1061.5" y="-163.5" font-family="Helvetica,sans-Serif" font-size="10.00">/drawTools/operation</text>
<text text-anchor="middle" x="1127.5" y="-152.5" font-family="Helvetica,sans-Serif" font-size="10.00">/mirror/vabstractmirror.cpp</text>
</a>
</g>
</g>
<!-- Node15&#45;&gt;Node16 -->
<g id="edge19" class="edge">
<title>Node15&#45;&gt;Node16</title>
<path fill="none" stroke="midnightblue" d="M1012.82,-219.19C1035.92,-208.67 1062.75,-196.47 1084.64,-186.51"/>
<polygon fill="midnightblue" stroke="midnightblue" points="1011.16,-216.1 1003.51,-223.43 1014.06,-222.47 1011.16,-216.1"/>
</g>
<!-- Node17 -->
<g id="node17" class="node">
<title>Node17</title>
<g id="a_node17"><a xlink:href="../../df/db5/vtoolmirrorbyaxis_8h.html" target="_top" xlink:title=" ">
<polygon fill="white" stroke="black" points="886,-145.5 886,-186.5 1035,-186.5 1035,-145.5 886,-145.5"/>
<text text-anchor="start" x="894" y="-174.5" font-family="Helvetica,sans-Serif" font-size="10.00">src/libs/vtools/tools</text>
<text text-anchor="start" x="894" y="-163.5" font-family="Helvetica,sans-Serif" font-size="10.00">/drawTools/operation</text>
<text text-anchor="middle" x="960.5" y="-152.5" font-family="Helvetica,sans-Serif" font-size="10.00">/mirror/vtoolmirrorbyaxis.h</text>
</a>
</g>
</g>
<!-- Node15&#45;&gt;Node17 -->
<g id="edge20" class="edge">
<title>Node15&#45;&gt;Node17</title>
<path fill="none" stroke="midnightblue" d="M960.5,-213.3C960.5,-204.3 960.5,-194.65 960.5,-186.51"/>
<polygon fill="midnightblue" stroke="midnightblue" points="957,-213.43 960.5,-223.43 964,-213.43 957,-213.43"/>
</g>
<!-- Node20 -->
<g id="node20" class="node">
<title>Node20</title>
<g id="a_node20"><a xlink:href="../../dc/d5e/vtoolmirrorbyline_8h.html" target="_top" xlink:title=" ">
<polygon fill="white" stroke="black" points="1219.5,-145.5 1219.5,-186.5 1365.5,-186.5 1365.5,-145.5 1219.5,-145.5"/>
<text text-anchor="start" x="1227.5" y="-174.5" font-family="Helvetica,sans-Serif" font-size="10.00">src/libs/vtools/tools</text>
<text text-anchor="start" x="1227.5" y="-163.5" font-family="Helvetica,sans-Serif" font-size="10.00">/drawTools/operation</text>
<text text-anchor="middle" x="1292.5" y="-152.5" font-family="Helvetica,sans-Serif" font-size="10.00">/mirror/vtoolmirrorbyline.h</text>
</a>
</g>
</g>
<!-- Node15&#45;&gt;Node20 -->
<g id="edge24" class="edge">
<title>Node15&#45;&gt;Node20</title>
<path fill="none" stroke="midnightblue" d="M1039.52,-222.81C1116.28,-205.18 1137.45,-203.55 1210.5,-187 1213.36,-186.35 1216.27,-185.68 1219.21,-185"/>
<polygon fill="midnightblue" stroke="midnightblue" points="1038.32,-219.5 1029.36,-225.17 1039.89,-226.32 1038.32,-219.5"/>
</g>
<!-- Node17&#45;&gt;Node5 -->
<g id="edge21" class="edge">
<title>Node17&#45;&gt;Node5</title>
<path fill="none" stroke="midnightblue" d="M875.69,-148.39C809.39,-135.4 717.87,-117.47 652.76,-104.72"/>
<polygon fill="midnightblue" stroke="midnightblue" points="875.2,-151.86 885.69,-150.35 876.55,-144.99 875.2,-151.86"/>
</g>
<!-- Node18 -->
<g id="node18" class="node">
<title>Node18</title>
<g id="a_node18"><a xlink:href="../../d4/d56/drawtools_8h.html" target="_top" xlink:title=" ">
<polygon fill="white" stroke="black" points="1159.5,-73 1159.5,-103 1287.5,-103 1287.5,-73 1159.5,-73"/>
<text text-anchor="start" x="1167.5" y="-91" font-family="Helvetica,sans-Serif" font-size="10.00">src/libs/vtools/tools</text>
<text text-anchor="middle" x="1223.5" y="-80" font-family="Helvetica,sans-Serif" font-size="10.00">/drawTools/drawtools.h</text>
</a>
</g>
</g>
<!-- Node17&#45;&gt;Node18 -->
<g id="edge22" class="edge">
<title>Node17&#45;&gt;Node18</title>
<path fill="none" stroke="midnightblue" d="M1038.08,-142.58C1082.31,-129.8 1136.37,-114.18 1174.68,-103.11"/>
<polygon fill="midnightblue" stroke="midnightblue" points="1036.86,-139.29 1028.23,-145.43 1038.81,-146.01 1036.86,-139.29"/>
</g>
<!-- Node19 -->
<g id="node19" class="node">
<title>Node19</title>
<g id="a_node19"><a xlink:href="../../d5/da5/tools_8h.html" target="_top" xlink:title=" ">
<polygon fill="white" stroke="black" points="1168,-0.5 1168,-30.5 1279,-30.5 1279,-0.5 1168,-0.5"/>
<text text-anchor="start" x="1176" y="-18.5" font-family="Helvetica,sans-Serif" font-size="10.00">src/libs/vtools/tools</text>
<text text-anchor="middle" x="1223.5" y="-7.5" font-family="Helvetica,sans-Serif" font-size="10.00">/tools.h</text>
</a>
</g>
</g>
<!-- Node18&#45;&gt;Node19 -->
<g id="edge23" class="edge">
<title>Node18&#45;&gt;Node19</title>
<path fill="none" stroke="midnightblue" d="M1223.5,-62.73C1223.5,-52.07 1223.5,-39.91 1223.5,-30.75"/>
<polygon fill="midnightblue" stroke="midnightblue" points="1220,-62.73 1223.5,-72.73 1227,-62.73 1220,-62.73"/>
</g>
<!-- Node20&#45;&gt;Node11 -->
<g id="edge25" class="edge">
<title>Node20&#45;&gt;Node11</title>
<path fill="none" stroke="midnightblue" d="M1209.2,-144.75C1134.81,-128.49 1060.28,-113.95 1005.66,-103.63"/>
<polygon fill="midnightblue" stroke="midnightblue" points="1208.7,-148.23 1219.22,-146.96 1210.2,-141.39 1208.7,-148.23"/>
</g>
<!-- Node20&#45;&gt;Node18 -->
<g id="edge26" class="edge">
<title>Node20&#45;&gt;Node18</title>
<path fill="none" stroke="midnightblue" d="M1267.98,-137.99C1257.32,-126.25 1245.28,-112.99 1236.42,-103.23"/>
<polygon fill="midnightblue" stroke="midnightblue" points="1265.42,-140.38 1274.73,-145.43 1270.6,-135.67 1265.42,-140.38"/>
</g>
<!-- Node22&#45;&gt;Node8 -->
<g id="edge29" class="edge">
<title>Node22&#45;&gt;Node8</title>
<path fill="none" stroke="midnightblue" d="M295.99,-218.49C277.19,-208.13 255.61,-196.25 237.92,-186.51"/>
<polygon fill="midnightblue" stroke="midnightblue" points="294.51,-221.67 304.96,-223.43 297.89,-215.54 294.51,-221.67"/>
</g>
<!-- Node22&#45;&gt;Node18 -->
<g id="edge30" class="edge">
<title>Node22&#45;&gt;Node18</title>
<path fill="none" stroke="midnightblue" d="M332.67,-213.58C328.77,-191.62 328.05,-162.5 345.5,-145 371.78,-118.64 977.38,-111.77 1014.5,-109 1063.03,-105.37 1117.78,-100.09 1159.07,-95.87"/>
<polygon fill="midnightblue" stroke="midnightblue" points="329.25,-214.32 334.7,-223.41 336.1,-212.9 329.25,-214.32"/>
</g>
<!-- Node23&#45;&gt;Node14 -->
<g id="edge32" class="edge">
<title>Node23&#45;&gt;Node14</title>
<path fill="none" stroke="midnightblue" d="M1175.58,-222.91C1278.55,-200.67 1308.13,-208.22 1407.5,-187 1412,-186.04 1416.63,-184.97 1421.28,-183.83"/>
<polygon fill="midnightblue" stroke="midnightblue" points="1174.73,-219.51 1165.72,-225.08 1176.24,-226.35 1174.73,-219.51"/>
</g>
<!-- Node23&#45;&gt;Node18 -->
<g id="edge33" class="edge">
<title>Node23&#45;&gt;Node18</title>
<path fill="none" stroke="midnightblue" d="M1175.73,-223.17C1233,-213.52 1347.23,-219.62 1374.5,-187 1386.47,-172.68 1385.16,-160.32 1374.5,-145 1354.86,-116.77 1319.23,-102.74 1287.52,-95.78"/>
<polygon fill="midnightblue" stroke="midnightblue" points="1174.86,-219.78 1165.74,-225.17 1176.23,-226.64 1174.86,-219.78"/>
</g>
</g>
</svg>
