<?xml version="1.0" encoding="UTF-8" standalone="no"?>
<!DOCTYPE svg PUBLIC "-//W3C//DTD SVG 1.1//EN"
 "http://www.w3.org/Graphics/SVG/1.1/DTD/svg11.dtd">
<!-- Generated by graphviz version 2.43.0 (0)
 -->
<!-- Title: src/libs/vtools/visualization/line/vistoollineintersectaxis.cpp Pages: 1 -->
<svg width="4363pt" height="587pt"
 viewBox="0.00 0.00 4362.50 587.00" xmlns="http://www.w3.org/2000/svg" xmlns:xlink="http://www.w3.org/1999/xlink">
<g id="graph0" class="graph" transform="scale(1 1) rotate(0) translate(4 583)">
<title>src/libs/vtools/visualization/line/vistoollineintersectaxis.cpp</title>
<polygon fill="white" stroke="transparent" points="-4,4 -4,-583 4358.5,-583 4358.5,4 -4,4"/>
<!-- Node1 -->
<g id="node1" class="node">
<title>Node1</title>
<g id="a_node1"><a xlink:title=" ">
<polygon fill="#bfbfbf" stroke="black" points="3755.5,-548.5 3755.5,-578.5 3930.5,-578.5 3930.5,-548.5 3755.5,-548.5"/>
<text text-anchor="start" x="3763.5" y="-566.5" font-family="Helvetica,sans-Serif" font-size="10.00">src/libs/vtools/visualization</text>
<text text-anchor="middle" x="3843" y="-555.5" font-family="Helvetica,sans-Serif" font-size="10.00">/line/vistoollineintersectaxis.cpp</text>
</a>
</g>
</g>
<!-- Node2 -->
<g id="node2" class="node">
<title>Node2</title>
<g id="a_node2"><a xlink:href="../../d0/d71/vistoollineintersectaxis_8h.html" target="_top" xlink:title=" ">
<polygon fill="white" stroke="black" points="3237,-246.5 3237,-265.5 3377,-265.5 3377,-246.5 3237,-246.5"/>
<text text-anchor="middle" x="3307" y="-253.5" font-family="Helvetica,sans-Serif" font-size="10.00">vistoollineintersectaxis.h</text>
</a>
</g>
</g>
<!-- Node1&#45;&gt;Node2 -->
<g id="edge1" class="edge">
<title>Node1&#45;&gt;Node2</title>
<path fill="none" stroke="midnightblue" d="M3775.32,-548.49C3750.56,-540.84 3723.59,-529.26 3703,-512 3668.82,-483.35 3653,-469.6 3653,-425 3653,-425 3653,-425 3653,-367 3653,-311.49 3489.21,-280.29 3387.01,-266.23"/>
<polygon fill="midnightblue" stroke="midnightblue" points="3387.4,-262.75 3377.02,-264.88 3386.46,-269.69 3387.4,-262.75"/>
</g>
<!-- Node11 -->
<g id="node11" class="node">
<title>Node11</title>
<g id="a_node11"><a xlink:href="../../d8/d51/visline_8h.html" target="_top" xlink:title=" ">
<polygon fill="white" stroke="black" points="3334,-185 3334,-204 3392,-204 3392,-185 3334,-185"/>
<text text-anchor="middle" x="3363" y="-192" font-family="Helvetica,sans-Serif" font-size="10.00">visline.h</text>
</a>
</g>
</g>
<!-- Node1&#45;&gt;Node11 -->
<g id="edge142" class="edge">
<title>Node1&#45;&gt;Node11</title>
<path fill="none" stroke="midnightblue" d="M3839.94,-548.17C3828.29,-497.36 3781.63,-324.6 3671,-246 3628.48,-215.79 3475.71,-202.46 3402.57,-197.7"/>
<polygon fill="midnightblue" stroke="midnightblue" points="3402.58,-194.2 3392.38,-197.06 3402.14,-201.18 3402.58,-194.2"/>
</g>
<!-- Node12 -->
<g id="node12" class="node">
<title>Node12</title>
<g id="a_node12"><a xlink:title=" ">
<polygon fill="white" stroke="#bfbfbf" points="3336,-123.5 3336,-142.5 3386,-142.5 3386,-123.5 3336,-123.5"/>
<text text-anchor="middle" x="3361" y="-130.5" font-family="Helvetica,sans-Serif" font-size="10.00">QColor</text>
</a>
</g>
</g>
<!-- Node1&#45;&gt;Node12 -->
<g id="edge25" class="edge">
<title>Node1&#45;&gt;Node12</title>
<path fill="none" stroke="midnightblue" d="M3849.62,-548.4C3860.51,-523.89 3881,-471.56 3881,-425 3881,-425 3881,-425 3881,-311 3881,-208.35 3513.27,-153.17 3396.29,-138.22"/>
<polygon fill="midnightblue" stroke="midnightblue" points="3396.44,-134.71 3386.08,-136.94 3395.57,-141.66 3396.44,-134.71"/>
</g>
<!-- Node13 -->
<g id="node13" class="node">
<title>Node13</title>
<g id="a_node13"><a xlink:title=" ">
<polygon fill="white" stroke="#bfbfbf" points="3548,-123.5 3548,-142.5 3658,-142.5 3658,-123.5 3548,-123.5"/>
<text text-anchor="middle" x="3603" y="-130.5" font-family="Helvetica,sans-Serif" font-size="10.00">QGraphicsLineItem</text>
</a>
</g>
</g>
<!-- Node1&#45;&gt;Node13 -->
<g id="edge26" class="edge">
<title>Node1&#45;&gt;Node13</title>
<path fill="none" stroke="midnightblue" d="M3879.41,-548.45C3924.38,-528.42 3995,-487.09 3995,-425 3995,-425 3995,-425 3995,-367 3995,-216.91 3780.02,-161.34 3668.47,-142.6"/>
<polygon fill="midnightblue" stroke="midnightblue" points="3668.76,-139.11 3658.33,-140.96 3667.64,-146.02 3668.76,-139.11"/>
</g>
<!-- Node14 -->
<g id="node14" class="node">
<title>Node14</title>
<g id="a_node14"><a xlink:title=" ">
<polygon fill="white" stroke="#bfbfbf" points="1522.5,-123.5 1522.5,-142.5 1577.5,-142.5 1577.5,-123.5 1522.5,-123.5"/>
<text text-anchor="middle" x="1550" y="-130.5" font-family="Helvetica,sans-Serif" font-size="10.00">QPointF</text>
</a>
</g>
</g>
<!-- Node1&#45;&gt;Node14 -->
<g id="edge28" class="edge">
<title>Node1&#45;&gt;Node14</title>
<path fill="none" stroke="midnightblue" d="M3755.21,-561.53C3201.77,-555.13 219,-516.39 219,-425 219,-425 219,-425 219,-367 219,-333.24 1295.51,-171.75 1512.25,-139.58"/>
<polygon fill="midnightblue" stroke="midnightblue" points="1512.82,-143.04 1522.2,-138.11 1511.79,-136.11 1512.82,-143.04"/>
</g>
<!-- Node15 -->
<g id="node15" class="node">
<title>Node15</title>
<g id="a_node15"><a xlink:title=" ">
<polygon fill="white" stroke="#bfbfbf" points="3343.5,-62 3343.5,-81 3372.5,-81 3372.5,-62 3343.5,-62"/>
<text text-anchor="middle" x="3358" y="-69" font-family="Helvetica,sans-Serif" font-size="10.00">Qt</text>
</a>
</g>
</g>
<!-- Node1&#45;&gt;Node15 -->
<g id="edge30" class="edge">
<title>Node1&#45;&gt;Node15</title>
<path fill="none" stroke="midnightblue" d="M3922.1,-548.48C3987.96,-531.71 4071,-496.42 4071,-425 4071,-425 4071,-425 4071,-311 4071,-162.6 3508.48,-89.66 3382.73,-75.21"/>
<polygon fill="midnightblue" stroke="midnightblue" points="3382.9,-71.71 3372.57,-74.06 3382.11,-78.66 3382.9,-71.71"/>
</g>
<!-- Node18 -->
<g id="node18" class="node">
<title>Node18</title>
<g id="a_node18"><a xlink:title=" ">
<polygon fill="white" stroke="#bfbfbf" points="4145,-481.5 4145,-500.5 4189,-500.5 4189,-481.5 4145,-481.5"/>
<text text-anchor="middle" x="4167" y="-488.5" font-family="Helvetica,sans-Serif" font-size="10.00">QLine</text>
</a>
</g>
</g>
<!-- Node1&#45;&gt;Node18 -->
<g id="edge27" class="edge">
<title>Node1&#45;&gt;Node18</title>
<path fill="none" stroke="midnightblue" d="M3930.62,-554.81C3988.71,-547.86 4065.92,-535.05 4131,-512 4135.8,-510.3 4140.72,-508 4145.32,-505.56"/>
<polygon fill="midnightblue" stroke="midnightblue" points="4147.21,-508.51 4154.16,-500.51 4143.74,-502.43 4147.21,-508.51"/>
</g>
<!-- Node19 -->
<g id="node19" class="node">
<title>Node19</title>
<g id="a_node19"><a xlink:title=" ">
<polygon fill="white" stroke="#bfbfbf" points="4207,-481.5 4207,-500.5 4299,-500.5 4299,-481.5 4207,-481.5"/>
<text text-anchor="middle" x="4253" y="-488.5" font-family="Helvetica,sans-Serif" font-size="10.00">QSharedPointer</text>
</a>
</g>
</g>
<!-- Node1&#45;&gt;Node19 -->
<g id="edge29" class="edge">
<title>Node1&#45;&gt;Node19</title>
<path fill="none" stroke="midnightblue" d="M3930.78,-555.13C4003.23,-547.83 4108.32,-534.43 4198,-512 4206.34,-509.91 4215.17,-507.02 4223.26,-504.09"/>
<polygon fill="midnightblue" stroke="midnightblue" points="4224.56,-507.34 4232.68,-500.53 4222.09,-500.79 4224.56,-507.34"/>
</g>
<!-- Node20 -->
<g id="node20" class="node">
<title>Node20</title>
<g id="a_node20"><a xlink:title=" ">
<polygon fill="white" stroke="#bfbfbf" points="4317.5,-481.5 4317.5,-500.5 4354.5,-500.5 4354.5,-481.5 4317.5,-481.5"/>
<text text-anchor="middle" x="4336" y="-488.5" font-family="Helvetica,sans-Serif" font-size="10.00">new</text>
</a>
</g>
</g>
<!-- Node1&#45;&gt;Node20 -->
<g id="edge31" class="edge">
<title>Node1&#45;&gt;Node20</title>
<path fill="none" stroke="midnightblue" d="M3930.8,-558.27C4045.93,-551.82 4241.13,-537.49 4308,-512 4311.62,-510.62 4315.2,-508.66 4318.53,-506.5"/>
<polygon fill="midnightblue" stroke="midnightblue" points="4320.62,-509.3 4326.61,-500.57 4316.48,-503.66 4320.62,-509.3"/>
</g>
<!-- Node21 -->
<g id="node21" class="node">
<title>Node21</title>
<g id="a_node21"><a xlink:href="../../de/d1f/vtoollineintersectaxis_8h.html" target="_top" xlink:title=" ">
<polygon fill="white" stroke="black" points="1889.5,-470.5 1889.5,-511.5 2088.5,-511.5 2088.5,-470.5 1889.5,-470.5"/>
<text text-anchor="start" x="1897.5" y="-499.5" font-family="Helvetica,sans-Serif" font-size="10.00">../../tools/drawTools</text>
<text text-anchor="start" x="1897.5" y="-488.5" font-family="Helvetica,sans-Serif" font-size="10.00">/toolpoint/toolsinglepoint</text>
<text text-anchor="middle" x="1989" y="-477.5" font-family="Helvetica,sans-Serif" font-size="10.00">/toollinepoint/vtoollineintersectaxis.h</text>
</a>
</g>
</g>
<!-- Node1&#45;&gt;Node21 -->
<g id="edge32" class="edge">
<title>Node1&#45;&gt;Node21</title>
<path fill="none" stroke="midnightblue" d="M3755.45,-559.17C3450.59,-547.58 2435.96,-509 2098.91,-496.18"/>
<polygon fill="midnightblue" stroke="midnightblue" points="2098.78,-492.67 2088.65,-495.79 2098.51,-499.67 2098.78,-492.67"/>
</g>
<!-- Node40 -->
<g id="node37" class="node">
<title>Node40</title>
<g id="a_node37"><a xlink:title=" ">
<polygon fill="white" stroke="#bfbfbf" points="3995,-0.5 3995,-19.5 4137,-19.5 4137,-0.5 3995,-0.5"/>
<text text-anchor="middle" x="4066" y="-7.5" font-family="Helvetica,sans-Serif" font-size="10.00">../vpatterndb/vcontainer.h</text>
</a>
</g>
</g>
<!-- Node1&#45;&gt;Node40 -->
<g id="edge140" class="edge">
<title>Node1&#45;&gt;Node40</title>
<path fill="none" stroke="midnightblue" d="M3930.65,-558.45C3970.84,-552.56 4016.81,-539.63 4050,-512 4079.2,-487.69 4077.05,-471.15 4085,-434 4117.82,-280.71 4082.77,-89.27 4070.16,-29.62"/>
<polygon fill="midnightblue" stroke="midnightblue" points="4073.56,-28.8 4068.02,-19.77 4066.72,-30.29 4073.56,-28.8"/>
</g>
<!-- Node58 -->
<g id="node39" class="node">
<title>Node58</title>
<g id="a_node39"><a xlink:title=" ">
<polygon fill="white" stroke="#bfbfbf" points="2734.5,-185 2734.5,-204 2859.5,-204 2859.5,-185 2734.5,-185"/>
<text text-anchor="middle" x="2797" y="-192" font-family="Helvetica,sans-Serif" font-size="10.00">../vgeometry/vpointf.h</text>
</a>
</g>
</g>
<!-- Node1&#45;&gt;Node58 -->
<g id="edge139" class="edge">
<title>Node1&#45;&gt;Node58</title>
<path fill="none" stroke="midnightblue" d="M3755.1,-557.89C3532.48,-545.06 2964,-504.5 2964,-425 2964,-425 2964,-425 2964,-367 2964,-336.77 2961.59,-326.58 2944,-302 2912.78,-258.38 2858.1,-225.69 2824.95,-208.67"/>
<polygon fill="midnightblue" stroke="midnightblue" points="2826.31,-205.44 2815.81,-204.1 2823.18,-211.7 2826.31,-205.44"/>
</g>
<!-- Node53 -->
<g id="node42" class="node">
<title>Node53</title>
<g id="a_node42"><a xlink:title=" ">
<polygon fill="white" stroke="#bfbfbf" points="3585.5,-246.5 3585.5,-265.5 3662.5,-265.5 3662.5,-246.5 3585.5,-246.5"/>
<text text-anchor="middle" x="3624" y="-253.5" font-family="Helvetica,sans-Serif" font-size="10.00">../ifc/ifcdef.h</text>
</a>
</g>
</g>
<!-- Node1&#45;&gt;Node53 -->
<g id="edge138" class="edge">
<title>Node1&#45;&gt;Node53</title>
<path fill="none" stroke="midnightblue" d="M3806.59,-548.45C3761.62,-528.42 3691,-487.09 3691,-425 3691,-425 3691,-425 3691,-367 3691,-336.2 3683.31,-328.12 3667,-302 3660.23,-291.16 3650.55,-280.74 3642.08,-272.66"/>
<polygon fill="midnightblue" stroke="midnightblue" points="3644.21,-269.86 3634.47,-265.69 3639.48,-275.02 3644.21,-269.86"/>
</g>
<!-- Node69 -->
<g id="node43" class="node">
<title>Node69</title>
<g id="a_node43"><a xlink:href="../../d2/d02/visualization_8h.html" target="_top" xlink:title=" ">
<polygon fill="white" stroke="black" points="924,-179.5 924,-209.5 1030,-209.5 1030,-179.5 924,-179.5"/>
<text text-anchor="start" x="932" y="-197.5" font-family="Helvetica,sans-Serif" font-size="10.00">../../../visualization</text>
<text text-anchor="middle" x="977" y="-186.5" font-family="Helvetica,sans-Serif" font-size="10.00">/visualization.h</text>
</a>
</g>
</g>
<!-- Node1&#45;&gt;Node69 -->
<g id="edge141" class="edge">
<title>Node1&#45;&gt;Node69</title>
<path fill="none" stroke="midnightblue" d="M3755.43,-562.73C3208.02,-563.97 277.5,-568.01 205,-512 173.26,-487.48 181,-465.11 181,-425 181,-425 181,-425 181,-311 181,-271.08 206.86,-262.96 243,-246 302.92,-217.87 747.03,-202.19 913.89,-197.23"/>
<polygon fill="midnightblue" stroke="midnightblue" points="914.1,-200.73 924,-196.94 913.9,-193.73 914.1,-200.73"/>
</g>
<!-- Node3 -->
<g id="node3" class="node">
<title>Node3</title>
<g id="a_node3"><a xlink:title=" ">
<polygon fill="white" stroke="#bfbfbf" points="2741,-0.5 2741,-19.5 2861,-19.5 2861,-0.5 2741,-0.5"/>
<text text-anchor="middle" x="2801" y="-7.5" font-family="Helvetica,sans-Serif" font-size="10.00">qcompilerdetection.h</text>
</a>
</g>
</g>
<!-- Node2&#45;&gt;Node3 -->
<g id="edge2" class="edge">
<title>Node2&#45;&gt;Node3</title>
<path fill="none" stroke="midnightblue" d="M3305.36,-246.05C3302.37,-231.29 3295.12,-201.26 3282,-179 3272.54,-162.95 3184.59,-64.48 3168,-56 3117.66,-30.26 2962.84,-18.64 2871.16,-13.89"/>
<polygon fill="midnightblue" stroke="midnightblue" points="2871.28,-10.39 2861.12,-13.39 2870.93,-17.38 2871.28,-10.39"/>
</g>
<!-- Node4 -->
<g id="node4" class="node">
<title>Node4</title>
<g id="a_node4"><a xlink:title=" ">
<polygon fill="white" stroke="#bfbfbf" points="2886.5,-123.5 2886.5,-142.5 2975.5,-142.5 2975.5,-123.5 2886.5,-123.5"/>
<text text-anchor="middle" x="2931" y="-130.5" font-family="Helvetica,sans-Serif" font-size="10.00">QGraphicsItem</text>
</a>
</g>
</g>
<!-- Node2&#45;&gt;Node4 -->
<g id="edge3" class="edge">
<title>Node2&#45;&gt;Node4</title>
<path fill="none" stroke="midnightblue" d="M3294.6,-246.46C3271.04,-230.65 3217.71,-196.81 3168,-179 3107.63,-157.37 3034.7,-145.52 2985.82,-139.48"/>
<polygon fill="midnightblue" stroke="midnightblue" points="2986.12,-135.99 2975.77,-138.28 2985.29,-142.94 2986.12,-135.99"/>
</g>
<!-- Node5 -->
<g id="node5" class="node">
<title>Node5</title>
<g id="a_node5"><a xlink:title=" ">
<polygon fill="white" stroke="#bfbfbf" points="3480,-123.5 3480,-142.5 3530,-142.5 3530,-123.5 3480,-123.5"/>
<text text-anchor="middle" x="3505" y="-130.5" font-family="Helvetica,sans-Serif" font-size="10.00">QLineF</text>
</a>
</g>
</g>
<!-- Node2&#45;&gt;Node5 -->
<g id="edge4" class="edge">
<title>Node2&#45;&gt;Node5</title>
<path fill="none" stroke="midnightblue" d="M3377.03,-248.73C3428.92,-242.46 3493.39,-230.69 3510,-210 3522.9,-193.93 3518.24,-169.25 3512.62,-152.41"/>
<polygon fill="midnightblue" stroke="midnightblue" points="3515.75,-150.78 3508.96,-142.64 3509.19,-153.24 3515.75,-150.78"/>
</g>
<!-- Node6 -->
<g id="node6" class="node">
<title>Node6</title>
<g id="a_node6"><a xlink:title=" ">
<polygon fill="white" stroke="#bfbfbf" points="3760,-0.5 3760,-19.5 3840,-19.5 3840,-0.5 3760,-0.5"/>
<text text-anchor="middle" x="3800" y="-7.5" font-family="Helvetica,sans-Serif" font-size="10.00">QMetaObject</text>
</a>
</g>
</g>
<!-- Node2&#45;&gt;Node6 -->
<g id="edge5" class="edge">
<title>Node2&#45;&gt;Node6</title>
<path fill="none" stroke="midnightblue" d="M3370.79,-246.44C3415.78,-239.35 3477.03,-227.57 3529,-210 3593.59,-188.17 3611.38,-182.44 3667,-143 3716.33,-108.02 3764.14,-54.24 3786.63,-27.41"/>
<polygon fill="midnightblue" stroke="midnightblue" points="3789.34,-29.64 3793.02,-19.7 3783.94,-25.17 3789.34,-29.64"/>
</g>
<!-- Node7 -->
<g id="node7" class="node">
<title>Node7</title>
<g id="a_node7"><a xlink:title=" ">
<polygon fill="white" stroke="#bfbfbf" points="181,-0.5 181,-19.5 237,-19.5 237,-0.5 181,-0.5"/>
<text text-anchor="middle" x="209" y="-7.5" font-family="Helvetica,sans-Serif" font-size="10.00">QObject</text>
</a>
</g>
</g>
<!-- Node2&#45;&gt;Node7 -->
<g id="edge6" class="edge">
<title>Node2&#45;&gt;Node7</title>
<path fill="none" stroke="midnightblue" d="M3236.69,-253.76C2847.68,-246.92 974.42,-213.79 915,-210 641.05,-192.51 550.06,-258.43 301,-143 268.2,-127.8 262.73,-116.62 242,-87 229.4,-69 220.09,-45.42 214.63,-29.33"/>
<polygon fill="midnightblue" stroke="midnightblue" points="217.87,-27.99 211.47,-19.55 211.21,-30.14 217.87,-27.99"/>
</g>
<!-- Node8 -->
<g id="node8" class="node">
<title>Node8</title>
<g id="a_node8"><a xlink:title=" ">
<polygon fill="white" stroke="#bfbfbf" points="3262.5,-0.5 3262.5,-19.5 3315.5,-19.5 3315.5,-0.5 3262.5,-0.5"/>
<text text-anchor="middle" x="3289" y="-7.5" font-family="Helvetica,sans-Serif" font-size="10.00">QString</text>
</a>
</g>
</g>
<!-- Node2&#45;&gt;Node8 -->
<g id="edge7" class="edge">
<title>Node2&#45;&gt;Node8</title>
<path fill="none" stroke="midnightblue" d="M3347.15,-246.43C3366.97,-239.95 3389.14,-228.83 3401,-210 3408.34,-198.34 3401.73,-192.76 3401,-179 3399.66,-154 3408.55,-144.04 3395,-123 3377.95,-96.53 3356.28,-109.24 3334,-87 3317.11,-70.13 3304.12,-45.67 3296.53,-29.09"/>
<polygon fill="midnightblue" stroke="midnightblue" points="3299.74,-27.68 3292.52,-19.93 3293.32,-30.49 3299.74,-27.68"/>
</g>
<!-- Node9 -->
<g id="node9" class="node">
<title>Node9</title>
<g id="a_node9"><a xlink:title=" ">
<polygon fill="white" stroke="#bfbfbf" points="1766.5,-0.5 1766.5,-19.5 1825.5,-19.5 1825.5,-0.5 1766.5,-0.5"/>
<text text-anchor="middle" x="1796" y="-7.5" font-family="Helvetica,sans-Serif" font-size="10.00">QtGlobal</text>
</a>
</g>
</g>
<!-- Node2&#45;&gt;Node9 -->
<g id="edge8" class="edge">
<title>Node2&#45;&gt;Node9</title>
<path fill="none" stroke="midnightblue" d="M3299.4,-246.46C3284.84,-230.63 3251.3,-196.77 3216,-179 3121.25,-131.31 3088.65,-140.34 2984,-123 2811.4,-94.4 2756.5,-146.57 2592,-87 2569.16,-78.73 2569.96,-63.91 2547,-56 2479.68,-32.82 1982.23,-16.48 1836.19,-12.15"/>
<polygon fill="midnightblue" stroke="midnightblue" points="1836,-8.64 1825.9,-11.84 1835.79,-15.64 1836,-8.64"/>
</g>
<!-- Node10 -->
<g id="node10" class="node">
<title>Node10</title>
<g id="a_node10"><a xlink:title=" ">
<polygon fill="white" stroke="#bfbfbf" points="1660,-62 1660,-81 1742,-81 1742,-62 1660,-62"/>
<text text-anchor="middle" x="1701" y="-69" font-family="Helvetica,sans-Serif" font-size="10.00">../vmisc/def.h</text>
</a>
</g>
</g>
<!-- Node2&#45;&gt;Node10 -->
<g id="edge9" class="edge">
<title>Node2&#45;&gt;Node10</title>
<path fill="none" stroke="midnightblue" d="M3266.97,-246.48C3190.06,-230.46 3016.12,-195.94 2868,-179 2585.83,-146.72 2512.74,-169.78 2230,-143 2053.96,-126.33 1846.4,-95.33 1752.15,-80.64"/>
<polygon fill="midnightblue" stroke="midnightblue" points="1752.45,-77.14 1742.03,-79.05 1751.37,-84.06 1752.45,-77.14"/>
</g>
<!-- Node2&#45;&gt;Node11 -->
<g id="edge10" class="edge">
<title>Node2&#45;&gt;Node11</title>
<path fill="none" stroke="midnightblue" d="M3315.02,-246.48C3323.59,-237.37 3337.36,-222.74 3347.96,-211.48"/>
<polygon fill="midnightblue" stroke="midnightblue" points="3350.69,-213.69 3354.99,-204.01 3345.59,-208.89 3350.69,-213.69"/>
</g>
<!-- Node11&#45;&gt;Node3 -->
<g id="edge11" class="edge">
<title>Node11&#45;&gt;Node3</title>
<path fill="none" stroke="midnightblue" d="M3344.42,-184.84C3326.2,-175.84 3298.14,-160.63 3277,-143 3237.79,-110.3 3247.15,-79.83 3202,-56 3146.27,-26.59 2970.87,-16.3 2871.49,-12.77"/>
<polygon fill="midnightblue" stroke="midnightblue" points="2871.35,-9.26 2861.23,-12.42 2871.11,-16.26 2871.35,-9.26"/>
</g>
<!-- Node11&#45;&gt;Node4 -->
<g id="edge13" class="edge">
<title>Node11&#45;&gt;Node4</title>
<path fill="none" stroke="midnightblue" d="M3333.98,-189.5C3262.78,-179.7 3078.48,-154.31 2985.85,-141.55"/>
<polygon fill="midnightblue" stroke="midnightblue" points="2986.21,-138.07 2975.83,-140.17 2985.26,-145.01 2986.21,-138.07"/>
</g>
<!-- Node11&#45;&gt;Node5 -->
<g id="edge15" class="edge">
<title>Node11&#45;&gt;Node5</title>
<path fill="none" stroke="midnightblue" d="M3383.35,-184.98C3407.39,-174.9 3447.6,-158.05 3475.16,-146.5"/>
<polygon fill="midnightblue" stroke="midnightblue" points="3476.82,-149.6 3484.69,-142.51 3474.12,-143.15 3476.82,-149.6"/>
</g>
<!-- Node11&#45;&gt;Node6 -->
<g id="edge16" class="edge">
<title>Node11&#45;&gt;Node6</title>
<path fill="none" stroke="midnightblue" d="M3352.63,-184.69C3338.09,-171.23 3314.71,-144.78 3327,-123 3330.54,-116.73 3431.19,-58.36 3438,-56 3544.81,-19.01 3678.63,-11.73 3749.89,-10.71"/>
<polygon fill="midnightblue" stroke="midnightblue" points="3749.98,-14.2 3759.94,-10.6 3749.91,-7.2 3749.98,-14.2"/>
</g>
<!-- Node11&#45;&gt;Node7 -->
<g id="edge17" class="edge">
<title>Node11&#45;&gt;Node7</title>
<path fill="none" stroke="midnightblue" d="M3333.79,-192.22C3198.25,-186.18 2633.96,-160.24 2557,-143 2491.2,-128.26 2473.91,-121.54 2416,-87 2397.57,-76.01 2399.09,-63.54 2379,-56 2275.27,-17.07 530.07,-11.69 247.5,-11.07"/>
<polygon fill="midnightblue" stroke="midnightblue" points="247.34,-7.57 237.33,-11.05 247.33,-14.57 247.34,-7.57"/>
</g>
<!-- Node11&#45;&gt;Node8 -->
<g id="edge19" class="edge">
<title>Node11&#45;&gt;Node8</title>
<path fill="none" stroke="midnightblue" d="M3339.68,-184.91C3321.96,-177 3298.84,-163.37 3288,-143 3268.69,-106.71 3276.93,-56.47 3283.59,-29.65"/>
<polygon fill="midnightblue" stroke="midnightblue" points="3287.05,-30.26 3286.27,-19.69 3280.29,-28.44 3287.05,-30.26"/>
</g>
<!-- Node11&#45;&gt;Node9 -->
<g id="edge21" class="edge">
<title>Node11&#45;&gt;Node9</title>
<path fill="none" stroke="midnightblue" d="M3333.76,-186.68C3259.76,-169.42 3069.89,-125.24 3056,-123 2887.2,-95.81 2839.49,-125.91 2673,-87 2635.47,-78.23 2629.69,-64.07 2592,-56 2445.25,-24.57 1975.96,-14.1 1835.86,-11.63"/>
<polygon fill="midnightblue" stroke="midnightblue" points="1835.65,-8.13 1825.59,-11.45 1835.53,-15.13 1835.65,-8.13"/>
</g>
<!-- Node11&#45;&gt;Node10 -->
<g id="edge23" class="edge">
<title>Node11&#45;&gt;Node10</title>
<path fill="none" stroke="midnightblue" d="M3333.94,-191.17C3295.85,-188.16 3226.94,-182.84 3168,-179 2566.55,-139.83 2414.55,-148.77 1815,-87 1794.38,-84.88 1771.72,-82.09 1752.08,-79.52"/>
<polygon fill="midnightblue" stroke="midnightblue" points="1752.48,-76.05 1742.1,-78.21 1751.56,-82.99 1752.48,-76.05"/>
</g>
<!-- Node11&#45;&gt;Node12 -->
<g id="edge12" class="edge">
<title>Node11&#45;&gt;Node12</title>
<path fill="none" stroke="midnightblue" d="M3362.71,-184.98C3362.43,-176.58 3361.99,-163.48 3361.63,-152.66"/>
<polygon fill="midnightblue" stroke="midnightblue" points="3365.12,-152.39 3361.29,-142.51 3358.12,-152.62 3365.12,-152.39"/>
</g>
<!-- Node11&#45;&gt;Node13 -->
<g id="edge14" class="edge">
<title>Node11&#45;&gt;Node13</title>
<path fill="none" stroke="midnightblue" d="M3392.43,-186.2C3434.03,-175.89 3510.35,-156.97 3558.79,-144.96"/>
<polygon fill="midnightblue" stroke="midnightblue" points="3559.81,-148.31 3568.68,-142.51 3558.13,-141.52 3559.81,-148.31"/>
</g>
<!-- Node11&#45;&gt;Node14 -->
<g id="edge18" class="edge">
<title>Node11&#45;&gt;Node14</title>
<path fill="none" stroke="midnightblue" d="M3333.79,-192.54C3122.29,-185.6 1827.13,-143.1 1587.96,-135.25"/>
<polygon fill="midnightblue" stroke="midnightblue" points="1587.8,-131.74 1577.69,-134.91 1587.57,-138.73 1587.8,-131.74"/>
</g>
<!-- Node11&#45;&gt;Node15 -->
<g id="edge20" class="edge">
<title>Node11&#45;&gt;Node15</title>
<path fill="none" stroke="midnightblue" d="M3342.49,-184.91C3326.03,-176.78 3304.07,-162.86 3294,-143 3281.77,-118.9 3311.26,-96.83 3334.17,-84.03"/>
<polygon fill="midnightblue" stroke="midnightblue" points="3335.94,-87.05 3343.14,-79.28 3332.67,-80.86 3335.94,-87.05"/>
</g>
<!-- Node16 -->
<g id="node16" class="node">
<title>Node16</title>
<g id="a_node16"><a xlink:title=" ">
<polygon fill="white" stroke="#bfbfbf" points="3038.5,-56.5 3038.5,-86.5 3159.5,-86.5 3159.5,-56.5 3038.5,-56.5"/>
<text text-anchor="start" x="3046.5" y="-74.5" font-family="Helvetica,sans-Serif" font-size="10.00">../vtools/visualization</text>
<text text-anchor="middle" x="3099" y="-63.5" font-family="Helvetica,sans-Serif" font-size="10.00">/visualization.h</text>
</a>
</g>
</g>
<!-- Node11&#45;&gt;Node16 -->
<g id="edge22" class="edge">
<title>Node11&#45;&gt;Node16</title>
<path fill="none" stroke="midnightblue" d="M3333.69,-187.08C3289.12,-177.05 3206.64,-157.3 3180,-143 3156.29,-130.27 3133.56,-109.47 3118.24,-93.76"/>
<polygon fill="midnightblue" stroke="midnightblue" points="3120.78,-91.35 3111.35,-86.51 3115.71,-96.17 3120.78,-91.35"/>
</g>
<!-- Node17 -->
<g id="node17" class="node">
<title>Node17</title>
<g id="a_node17"><a xlink:title=" ">
<polygon fill="white" stroke="#bfbfbf" points="1264,-123.5 1264,-142.5 1428,-142.5 1428,-123.5 1264,-123.5"/>
<text text-anchor="middle" x="1346" y="-130.5" font-family="Helvetica,sans-Serif" font-size="10.00">../vwidgets/scalesceneitems.h</text>
</a>
</g>
</g>
<!-- Node11&#45;&gt;Node17 -->
<g id="edge24" class="edge">
<title>Node11&#45;&gt;Node17</title>
<path fill="none" stroke="midnightblue" d="M3333.99,-192.62C3257.68,-190.32 3045.04,-183.94 2868,-179 2265.8,-162.18 2114.95,-167.21 1513,-143 1488.88,-142.03 1462.82,-140.74 1438.62,-139.44"/>
<polygon fill="midnightblue" stroke="midnightblue" points="1438.55,-135.93 1428.37,-138.89 1438.17,-142.92 1438.55,-135.93"/>
</g>
<!-- Node21&#45;&gt;Node3 -->
<g id="edge33" class="edge">
<title>Node21&#45;&gt;Node3</title>
<path fill="none" stroke="midnightblue" d="M2088.58,-490.51C2379.72,-490.68 3209,-481.31 3209,-369 3209,-369 3209,-369 3209,-311 3209,-134.27 2957.44,-50.11 2849.38,-22.11"/>
<polygon fill="midnightblue" stroke="midnightblue" points="2849.94,-18.64 2839.38,-19.58 2848.22,-25.43 2849.94,-18.64"/>
</g>
<!-- Node21&#45;&gt;Node4 -->
<g id="edge35" class="edge">
<title>Node21&#45;&gt;Node4</title>
<path fill="none" stroke="midnightblue" d="M2088.65,-489.19C2375.29,-486.36 3184.03,-474.78 3223,-434 3262.73,-392.43 3516.36,-526.53 3059,-179 3037.57,-162.72 3009.77,-152 2985.56,-145.13"/>
<polygon fill="midnightblue" stroke="midnightblue" points="2986.35,-141.72 2975.78,-142.51 2984.53,-148.48 2986.35,-141.72"/>
</g>
<!-- Node21&#45;&gt;Node5 -->
<g id="edge36" class="edge">
<title>Node21&#45;&gt;Node5</title>
<path fill="none" stroke="midnightblue" d="M2088.7,-490.47C2352.14,-490.96 3062.13,-487.15 3290,-434 3470.23,-391.96 3569.93,-421.03 3671,-266 3709.21,-207.39 3599.25,-163.07 3540.02,-144.11"/>
<polygon fill="midnightblue" stroke="midnightblue" points="3540.88,-140.71 3530.29,-141.08 3538.8,-147.39 3540.88,-140.71"/>
</g>
<!-- Node21&#45;&gt;Node6 -->
<g id="edge37" class="edge">
<title>Node21&#45;&gt;Node6</title>
<path fill="none" stroke="midnightblue" d="M2088.58,-489.61C2371.77,-487.97 3177.97,-479.31 3438,-434 3594.31,-406.76 3644.31,-381.59 3753,-266 3795.64,-220.65 3806.52,-203.77 3820,-143 3825.4,-118.67 3822.33,-111.92 3823,-87 3823.37,-73.23 3826.22,-69.4 3823,-56 3820.69,-46.42 3815.98,-36.58 3811.42,-28.56"/>
<polygon fill="midnightblue" stroke="midnightblue" points="3814.29,-26.54 3806.1,-19.81 3808.31,-30.17 3814.29,-26.54"/>
</g>
<!-- Node21&#45;&gt;Node7 -->
<g id="edge38" class="edge">
<title>Node21&#45;&gt;Node7</title>
<path fill="none" stroke="midnightblue" d="M1889.34,-489.21C1486.51,-485.37 0,-464.7 0,-369 0,-369 0,-369 0,-132 0,-53.92 110.6,-25.41 170.89,-15.67"/>
<polygon fill="midnightblue" stroke="midnightblue" points="171.45,-19.12 180.81,-14.16 170.4,-12.2 171.45,-19.12"/>
</g>
<!-- Node21&#45;&gt;Node8 -->
<g id="edge40" class="edge">
<title>Node21&#45;&gt;Node8</title>
<path fill="none" stroke="midnightblue" d="M2088.53,-488.58C2360.62,-484.27 3112.86,-469.41 3358,-434 3459.14,-419.39 3489.53,-423.56 3581,-378 3676.37,-330.5 3724.65,-312.97 3752,-210 3770.98,-138.53 3753.49,-92.19 3689,-56 3627.28,-21.36 3412.82,-13.37 3325.96,-11.54"/>
<polygon fill="midnightblue" stroke="midnightblue" points="3325.84,-8.03 3315.77,-11.34 3325.7,-15.03 3325.84,-8.03"/>
</g>
<!-- Node21&#45;&gt;Node9 -->
<g id="edge41" class="edge">
<title>Node21&#45;&gt;Node9</title>
<path fill="none" stroke="midnightblue" d="M1889.47,-489.83C1596.82,-488.77 742.52,-481.58 468,-434 386.7,-419.91 356.38,-428.33 291,-378 221.42,-324.43 210.11,-294.72 187,-210 156.55,-98.34 285.8,-88.1 397,-56 530.46,-17.48 1541.47,-11.87 1756.05,-11.11"/>
<polygon fill="midnightblue" stroke="midnightblue" points="1756.24,-14.61 1766.23,-11.08 1756.22,-7.61 1756.24,-14.61"/>
</g>
<!-- Node21&#45;&gt;Node10 -->
<g id="edge44" class="edge">
<title>Node21&#45;&gt;Node10</title>
<path fill="none" stroke="midnightblue" d="M1889.17,-487.85C1711.84,-483.18 1349.17,-469.49 1228,-434 1169.79,-416.95 1108,-429.65 1108,-369 1108,-369 1108,-369 1108,-255 1108,-167.19 1174.61,-158.33 1255,-123 1407.07,-56.17 1462.64,-111 1627,-87 1634.83,-85.86 1643.09,-84.44 1651.14,-82.95"/>
<polygon fill="midnightblue" stroke="midnightblue" points="1652.01,-86.35 1661.18,-81.04 1650.7,-79.47 1652.01,-86.35"/>
</g>
<!-- Node21&#45;&gt;Node14 -->
<g id="edge39" class="edge">
<title>Node21&#45;&gt;Node14</title>
<path fill="none" stroke="midnightblue" d="M1889.43,-486.7C1726.5,-480.5 1410.31,-464.85 1303,-434 1251.04,-419.06 1223.09,-424.2 1195,-378 1113.32,-243.64 1405.26,-165.4 1512.21,-141.72"/>
<polygon fill="midnightblue" stroke="midnightblue" points="1513.23,-145.08 1522.26,-139.54 1511.74,-138.24 1513.23,-145.08"/>
</g>
<!-- Node22 -->
<g id="node22" class="node">
<title>Node22</title>
<g id="a_node22"><a xlink:title=" ">
<polygon fill="white" stroke="#bfbfbf" points="1440,-185 1440,-204 1528,-204 1528,-185 1440,-185"/>
<text text-anchor="middle" x="1484" y="-192" font-family="Helvetica,sans-Serif" font-size="10.00">QDomElement</text>
</a>
</g>
</g>
<!-- Node21&#45;&gt;Node22 -->
<g id="edge34" class="edge">
<title>Node21&#45;&gt;Node22</title>
<path fill="none" stroke="midnightblue" d="M1889.24,-483.08C1687.6,-468.06 1246.92,-429.65 1203,-378 1164.02,-332.16 1371.59,-241.21 1452.65,-208.01"/>
<polygon fill="midnightblue" stroke="midnightblue" points="1454.39,-211.08 1462.33,-204.07 1451.75,-204.6 1454.39,-211.08"/>
</g>
<!-- Node23 -->
<g id="node23" class="node">
<title>Node23</title>
<g id="a_node23"><a xlink:title=" ">
<polygon fill="white" stroke="#bfbfbf" points="1414,-62 1414,-81 1566,-81 1566,-62 1414,-62"/>
<text text-anchor="middle" x="1490" y="-69" font-family="Helvetica,sans-Serif" font-size="10.00">../ifc/xml/vabstractpattern.h</text>
</a>
</g>
</g>
<!-- Node21&#45;&gt;Node23 -->
<g id="edge42" class="edge">
<title>Node21&#45;&gt;Node23</title>
<path fill="none" stroke="midnightblue" d="M1889.36,-488.13C1526.24,-480.67 295,-449.44 295,-369 295,-369 295,-369 295,-255 295,-189.41 305.99,-158.72 361,-123 371.92,-115.91 1141.1,-85.85 1403.45,-75.79"/>
<polygon fill="midnightblue" stroke="midnightblue" points="1403.83,-79.28 1413.69,-75.4 1403.56,-72.29 1403.83,-79.28"/>
</g>
<!-- Node24 -->
<g id="node24" class="node">
<title>Node24</title>
<g id="a_node24"><a xlink:title=" ">
<polygon fill="white" stroke="#bfbfbf" points="1212.5,-358.5 1212.5,-377.5 1347.5,-377.5 1347.5,-358.5 1212.5,-358.5"/>
<text text-anchor="middle" x="1280" y="-365.5" font-family="Helvetica,sans-Serif" font-size="10.00">../vpatterndb/vformula.h</text>
</a>
</g>
</g>
<!-- Node21&#45;&gt;Node24 -->
<g id="edge43" class="edge">
<title>Node21&#45;&gt;Node24</title>
<path fill="none" stroke="midnightblue" d="M1889.3,-472.98C1739.79,-447.47 1462.08,-400.07 1340.1,-379.26"/>
<polygon fill="midnightblue" stroke="midnightblue" points="1340.63,-375.8 1330.19,-377.57 1339.46,-382.7 1340.63,-375.8"/>
</g>
<!-- Node25 -->
<g id="node25" class="node">
<title>Node25</title>
<g id="a_node25"><a xlink:href="../../df/dd0/vtoollinepoint_8h.html" target="_top" xlink:title=" ">
<polygon fill="white" stroke="black" points="2003.5,-414.5 2003.5,-433.5 2096.5,-433.5 2096.5,-414.5 2003.5,-414.5"/>
<text text-anchor="middle" x="2050" y="-421.5" font-family="Helvetica,sans-Serif" font-size="10.00">vtoollinepoint.h</text>
</a>
</g>
</g>
<!-- Node21&#45;&gt;Node25 -->
<g id="edge45" class="edge">
<title>Node21&#45;&gt;Node25</title>
<path fill="none" stroke="midnightblue" d="M2007.3,-470.5C2016.11,-461.11 2026.55,-449.98 2034.91,-441.08"/>
<polygon fill="midnightblue" stroke="midnightblue" points="2037.59,-443.34 2041.88,-433.65 2032.48,-438.55 2037.59,-443.34"/>
</g>
<!-- Node25&#45;&gt;Node3 -->
<g id="edge46" class="edge">
<title>Node25&#45;&gt;Node3</title>
<path fill="none" stroke="midnightblue" d="M2096.56,-422.57C2287.69,-420.22 3002,-405.24 3002,-313 3002,-313 3002,-313 3002,-255 3002,-180.41 2925.27,-199.87 2877,-143 2872.81,-138.07 2830.62,-63.55 2810.97,-28.71"/>
<polygon fill="midnightblue" stroke="midnightblue" points="2813.83,-26.65 2805.87,-19.66 2807.73,-30.09 2813.83,-26.65"/>
</g>
<!-- Node25&#45;&gt;Node4 -->
<g id="edge47" class="edge">
<title>Node25&#45;&gt;Node4</title>
<path fill="none" stroke="midnightblue" d="M2096.67,-422.46C2285.13,-420.09 2981.64,-409.23 3016,-378 3081.78,-318.21 3084.93,-253.21 3036,-179 3024.51,-161.58 3004.73,-150.88 2985.41,-144.31"/>
<polygon fill="midnightblue" stroke="midnightblue" points="2986.29,-140.92 2975.7,-141.33 2984.23,-147.61 2986.29,-140.92"/>
</g>
<!-- Node25&#45;&gt;Node6 -->
<g id="edge48" class="edge">
<title>Node25&#45;&gt;Node6</title>
<path fill="none" stroke="midnightblue" d="M2096.61,-423.36C2260.02,-424.19 2822,-423.33 3283,-378 3438.9,-362.67 3484.28,-376.9 3631,-322 3705.3,-294.19 3729.8,-278.4 3770,-210 3805.72,-149.22 3814.19,-126.22 3808,-56 3807.22,-47.2 3805.61,-37.54 3804.03,-29.43"/>
<polygon fill="midnightblue" stroke="midnightblue" points="3807.44,-28.65 3801.99,-19.57 3800.59,-30.07 3807.44,-28.65"/>
</g>
<!-- Node25&#45;&gt;Node7 -->
<g id="edge49" class="edge">
<title>Node25&#45;&gt;Node7</title>
<path fill="none" stroke="midnightblue" d="M2003.48,-422.23C1873.71,-419.71 1509.76,-409.91 1395,-378 1376.23,-372.78 1374.78,-363.17 1356,-358 1112.98,-291.09 1041.14,-343.55 790,-322 559.28,-302.2 489.91,-344.34 272,-266 229.43,-250.69 212.7,-247.23 187,-210 169.66,-184.89 175.35,-173.33 172,-143 169.18,-117.48 174.85,-61.96 177,-56 180.73,-45.67 187.53,-35.57 193.9,-27.57"/>
<polygon fill="midnightblue" stroke="midnightblue" points="196.7,-29.69 200.49,-19.8 191.36,-25.16 196.7,-29.69"/>
</g>
<!-- Node25&#45;&gt;Node8 -->
<g id="edge50" class="edge">
<title>Node25&#45;&gt;Node8</title>
<path fill="none" stroke="midnightblue" d="M2096.55,-422.93C2238.49,-422.27 2678.21,-417 3040,-378 3333.63,-346.35 3450.79,-432.09 3695,-266 3773.7,-212.47 3738.21,-98.41 3653,-56 3596.06,-27.66 3406.31,-16.15 3325.72,-12.46"/>
<polygon fill="midnightblue" stroke="midnightblue" points="3325.69,-8.95 3315.54,-12.01 3325.38,-15.95 3325.69,-8.95"/>
</g>
<!-- Node25&#45;&gt;Node9 -->
<g id="edge51" class="edge">
<title>Node25&#45;&gt;Node9</title>
<path fill="none" stroke="midnightblue" d="M2003.18,-421.57C1881.12,-417.5 1555.38,-404.44 1451,-378 1436.25,-374.26 1335.16,-334.15 1326,-322 1287.45,-270.84 1298.69,-224.28 1344,-179 1375.35,-147.67 1411.95,-179.56 1437,-143 1453.2,-119.35 1415.19,-113.79 1405,-87 1400.1,-74.12 1395.83,-66.28 1405,-56 1428.12,-30.07 1661.28,-16.94 1756.16,-12.64"/>
<polygon fill="midnightblue" stroke="midnightblue" points="1756.39,-16.13 1766.23,-12.19 1756.08,-9.14 1756.39,-16.13"/>
</g>
<!-- Node25&#45;&gt;Node10 -->
<g id="edge137" class="edge">
<title>Node25&#45;&gt;Node10</title>
<path fill="none" stroke="midnightblue" d="M2003.3,-419.73C1852.83,-408.72 1387.84,-370.99 1343,-322 1298.82,-273.73 1328.55,-221.85 1378,-179 1411.19,-150.25 1429.63,-160.27 1470,-143 1489.38,-134.71 1493.19,-130.21 1513,-123 1559.06,-106.24 1613.28,-92.26 1651.62,-83.29"/>
<polygon fill="midnightblue" stroke="midnightblue" points="1652.55,-86.67 1661.5,-81.01 1650.97,-79.85 1652.55,-86.67"/>
</g>
<!-- Node25&#45;&gt;Node24 -->
<g id="edge52" class="edge">
<title>Node25&#45;&gt;Node24</title>
<path fill="none" stroke="midnightblue" d="M2003.34,-418.94C1984.05,-417.31 1961.45,-415.48 1941,-414 1683.84,-395.39 1618.88,-400.07 1362,-378 1360.53,-377.87 1359.04,-377.74 1357.55,-377.61"/>
<polygon fill="midnightblue" stroke="midnightblue" points="1357.83,-374.12 1347.54,-376.67 1357.17,-381.09 1357.83,-374.12"/>
</g>
<!-- Node26 -->
<g id="node26" class="node">
<title>Node26</title>
<g id="a_node26"><a xlink:href="../../d3/dc2/vtoolsinglepoint_8h.html" target="_top" xlink:title=" ">
<polygon fill="white" stroke="black" points="2591.5,-358.5 2591.5,-377.5 2704.5,-377.5 2704.5,-358.5 2591.5,-358.5"/>
<text text-anchor="middle" x="2648" y="-365.5" font-family="Helvetica,sans-Serif" font-size="10.00">../vtoolsinglepoint.h</text>
</a>
</g>
</g>
<!-- Node25&#45;&gt;Node26 -->
<g id="edge53" class="edge">
<title>Node25&#45;&gt;Node26</title>
<path fill="none" stroke="midnightblue" d="M2096.92,-418.76C2202.57,-409.22 2459.38,-386.03 2581.44,-375.01"/>
<polygon fill="midnightblue" stroke="midnightblue" points="2581.77,-378.5 2591.41,-374.11 2581.14,-371.52 2581.77,-378.5"/>
</g>
<!-- Node26&#45;&gt;Node3 -->
<g id="edge54" class="edge">
<title>Node26&#45;&gt;Node3</title>
<path fill="none" stroke="midnightblue" d="M2653.46,-358.3C2662.82,-344.16 2683.3,-316.34 2708,-302 2769.53,-266.27 2804.82,-305.51 2864,-266 2889.44,-249.02 2894.67,-239.13 2904,-210 2908.2,-196.88 2910.79,-190.99 2904,-179 2888.68,-151.94 2863.38,-167.32 2844,-143 2816.93,-109.02 2806.66,-57.45 2802.96,-29.91"/>
<polygon fill="midnightblue" stroke="midnightblue" points="2806.4,-29.21 2801.74,-19.69 2799.45,-30.04 2806.4,-29.21"/>
</g>
<!-- Node26&#45;&gt;Node4 -->
<g id="edge55" class="edge">
<title>Node26&#45;&gt;Node4</title>
<path fill="none" stroke="midnightblue" d="M2704.77,-363.9C2779.39,-358.89 2905.51,-346.95 2944,-322 3003.71,-283.29 3052.7,-239.96 3016,-179 3006.71,-163.57 2990.17,-153.16 2974.13,-146.27"/>
<polygon fill="midnightblue" stroke="midnightblue" points="2975.39,-143.01 2964.8,-142.61 2972.83,-149.52 2975.39,-143.01"/>
</g>
<!-- Node26&#45;&gt;Node6 -->
<g id="edge56" class="edge">
<title>Node26&#45;&gt;Node6</title>
<path fill="none" stroke="midnightblue" d="M2704.57,-364.71C2910.54,-355.92 3612.72,-322.09 3695,-266 3776.67,-210.33 3794.9,-78.61 3798.9,-29.7"/>
<polygon fill="midnightblue" stroke="midnightblue" points="3802.4,-29.84 3799.61,-19.62 3795.42,-29.35 3802.4,-29.84"/>
</g>
<!-- Node26&#45;&gt;Node7 -->
<g id="edge57" class="edge">
<title>Node26&#45;&gt;Node7</title>
<path fill="none" stroke="midnightblue" d="M2591.41,-366.13C2289.77,-361.2 868.76,-334.7 435,-266 336.62,-250.42 293.29,-275.21 218,-210 165.22,-164.29 171.26,-124.02 187,-56 189.23,-46.36 193.82,-36.41 198.24,-28.31"/>
<polygon fill="midnightblue" stroke="midnightblue" points="201.35,-29.92 203.36,-19.52 195.3,-26.4 201.35,-29.92"/>
</g>
<!-- Node26&#45;&gt;Node8 -->
<g id="edge59" class="edge">
<title>Node26&#45;&gt;Node8</title>
<path fill="none" stroke="midnightblue" d="M2704.75,-358.68C2798.65,-345.15 2992.32,-318.27 3157,-302 3213.97,-296.37 3627.53,-303.25 3671,-266 3720.18,-223.86 3728.52,-180.64 3699,-123 3675.78,-77.66 3653.26,-75.02 3606,-56 3510.17,-17.43 3386.42,-11.14 3325.78,-10.6"/>
<polygon fill="midnightblue" stroke="midnightblue" points="3325.58,-7.1 3315.56,-10.55 3325.55,-14.09 3325.58,-7.1"/>
</g>
<!-- Node26&#45;&gt;Node9 -->
<g id="edge61" class="edge">
<title>Node26&#45;&gt;Node9</title>
<path fill="none" stroke="midnightblue" d="M2591.36,-367.81C2428.67,-368.84 1947.08,-362.85 1563,-266 1501.21,-250.42 1466.18,-263.14 1431,-210 1370.87,-119.17 1497.44,-200.86 1586,-143 1626.41,-116.6 1611.58,-83.85 1651,-56 1682.53,-33.73 1725.43,-22.21 1756.38,-16.43"/>
<polygon fill="midnightblue" stroke="midnightblue" points="1757.14,-19.85 1766.39,-14.69 1755.94,-12.96 1757.14,-19.85"/>
</g>
<!-- Node26&#45;&gt;Node10 -->
<g id="edge135" class="edge">
<title>Node26&#45;&gt;Node10</title>
<path fill="none" stroke="midnightblue" d="M2591.34,-367.01C2357.47,-366.77 1477.45,-363.14 1436,-322 1390.86,-277.2 1391.44,-228.8 1431,-179 1474.99,-123.62 1520.56,-169.83 1586,-143 1621.99,-128.24 1659.7,-102.95 1681.74,-87.01"/>
<polygon fill="midnightblue" stroke="midnightblue" points="1683.92,-89.75 1689.91,-81.01 1679.78,-84.11 1683.92,-89.75"/>
</g>
<!-- Node26&#45;&gt;Node14 -->
<g id="edge58" class="edge">
<title>Node26&#45;&gt;Node14</title>
<path fill="none" stroke="midnightblue" d="M2591.47,-367.19C2348.51,-367.71 1403.33,-366.87 1360,-322 1311.88,-272.17 1364.1,-217.03 1422,-179 1449.76,-160.77 1485.77,-148.97 1512.52,-142.05"/>
<polygon fill="midnightblue" stroke="midnightblue" points="1513.41,-145.43 1522.28,-139.63 1511.73,-138.64 1513.41,-145.43"/>
</g>
<!-- Node27 -->
<g id="node27" class="node">
<title>Node27</title>
<g id="a_node27"><a xlink:title=" ">
<polygon fill="white" stroke="#bfbfbf" points="2717.5,-302.5 2717.5,-321.5 2776.5,-321.5 2776.5,-302.5 2717.5,-302.5"/>
<text text-anchor="middle" x="2747" y="-309.5" font-family="Helvetica,sans-Serif" font-size="10.00">QVariant</text>
</a>
</g>
</g>
<!-- Node26&#45;&gt;Node27 -->
<g id="edge60" class="edge">
<title>Node26&#45;&gt;Node27</title>
<path fill="none" stroke="midnightblue" d="M2663.91,-358.32C2679.64,-349.74 2703.94,-336.49 2722.21,-326.52"/>
<polygon fill="midnightblue" stroke="midnightblue" points="2724.03,-329.52 2731.13,-321.65 2720.68,-323.37 2724.03,-329.52"/>
</g>
<!-- Node28 -->
<g id="node28" class="node">
<title>Node28</title>
<g id="a_node28"><a xlink:href="../../d6/de8/vabstractpoint_8h.html" target="_top" xlink:title=" ">
<polygon fill="white" stroke="black" points="2555.5,-302.5 2555.5,-321.5 2660.5,-321.5 2660.5,-302.5 2555.5,-302.5"/>
<text text-anchor="middle" x="2608" y="-309.5" font-family="Helvetica,sans-Serif" font-size="10.00">../vabstractpoint.h</text>
</a>
</g>
</g>
<!-- Node26&#45;&gt;Node28 -->
<g id="edge62" class="edge">
<title>Node26&#45;&gt;Node28</title>
<path fill="none" stroke="midnightblue" d="M2641.39,-358.08C2635.74,-350.46 2627.46,-339.26 2620.55,-329.94"/>
<polygon fill="midnightblue" stroke="midnightblue" points="2623.25,-327.7 2614.48,-321.75 2617.62,-331.87 2623.25,-327.7"/>
</g>
<!-- Node76 -->
<g id="node50" class="node">
<title>Node76</title>
<g id="a_node50"><a xlink:title=" ">
<polygon fill="white" stroke="#bfbfbf" points="2794.5,-302.5 2794.5,-321.5 2935.5,-321.5 2935.5,-302.5 2794.5,-302.5"/>
<text text-anchor="middle" x="2865" y="-309.5" font-family="Helvetica,sans-Serif" font-size="10.00">../vwidgets/vscenepoint.h</text>
</a>
</g>
</g>
<!-- Node26&#45;&gt;Node76 -->
<g id="edge136" class="edge">
<title>Node26&#45;&gt;Node76</title>
<path fill="none" stroke="midnightblue" d="M2682.38,-358.44C2719.92,-349.1 2780.13,-334.12 2821.07,-323.93"/>
<polygon fill="midnightblue" stroke="midnightblue" points="2821.92,-327.33 2830.78,-321.52 2820.23,-320.53 2821.92,-327.33"/>
</g>
<!-- Node28&#45;&gt;Node3 -->
<g id="edge63" class="edge">
<title>Node28&#45;&gt;Node3</title>
<path fill="none" stroke="midnightblue" d="M2659.36,-302.47C2721.25,-291.93 2818.88,-274.36 2834,-266 2864,-249.43 2874.32,-241.84 2887,-210 2892.1,-197.2 2894.51,-190.55 2887,-179 2865.53,-145.97 2828.09,-175.62 2806,-143 2782.72,-108.62 2789.87,-56.84 2796.05,-29.48"/>
<polygon fill="midnightblue" stroke="midnightblue" points="2799.47,-30.21 2798.47,-19.66 2792.68,-28.54 2799.47,-30.21"/>
</g>
<!-- Node28&#45;&gt;Node6 -->
<g id="edge65" class="edge">
<title>Node28&#45;&gt;Node6</title>
<path fill="none" stroke="midnightblue" d="M2660.64,-305.83C2675.91,-304.44 2692.61,-303.05 2708,-302 2881.78,-290.19 3320.52,-301.72 3491,-266 3515.24,-260.92 3519.87,-254.83 3543,-246 3585.18,-229.9 3600.03,-234.43 3638,-210 3703.28,-167.99 3716.48,-149.88 3762,-87 3775.2,-68.77 3786.16,-45.27 3792.87,-29.26"/>
<polygon fill="midnightblue" stroke="midnightblue" points="3796.13,-30.54 3796.64,-19.95 3789.64,-27.91 3796.13,-30.54"/>
</g>
<!-- Node28&#45;&gt;Node7 -->
<g id="edge66" class="edge">
<title>Node28&#45;&gt;Node7</title>
<path fill="none" stroke="midnightblue" d="M2555.48,-311.11C2228.57,-311.45 479.49,-308.63 265,-210 227.59,-192.8 218.34,-180.35 201,-143 184.68,-107.84 189.18,-94.32 195,-56 196.37,-47 199.19,-37.33 201.95,-29.26"/>
<polygon fill="midnightblue" stroke="midnightblue" points="205.27,-30.37 205.4,-19.78 198.69,-27.98 205.27,-30.37"/>
</g>
<!-- Node28&#45;&gt;Node8 -->
<g id="edge69" class="edge">
<title>Node28&#45;&gt;Node8</title>
<path fill="none" stroke="midnightblue" d="M2660.64,-305.85C2675.91,-304.47 2692.61,-303.07 2708,-302 2872.69,-290.6 3288.57,-300.55 3450,-266 3458.34,-264.21 3585.54,-214.14 3593,-210 3636.6,-185.8 3660.62,-187.56 3683,-143 3717,-75.3 3429.99,-29.83 3325.83,-15.69"/>
<polygon fill="midnightblue" stroke="midnightblue" points="3326.14,-12.2 3315.77,-14.34 3325.21,-19.14 3326.14,-12.2"/>
</g>
<!-- Node28&#45;&gt;Node9 -->
<g id="edge71" class="edge">
<title>Node28&#45;&gt;Node9</title>
<path fill="none" stroke="midnightblue" d="M2555.43,-310.72C2400.89,-309.48 1950,-302.71 1808,-266 1752.57,-251.67 1722.43,-258.49 1692,-210 1663.56,-164.69 1736.84,-109.97 1751,-87 1763.15,-67.3 1776.61,-44.41 1785.62,-28.94"/>
<polygon fill="midnightblue" stroke="midnightblue" points="1788.84,-30.36 1790.84,-19.95 1782.79,-26.84 1788.84,-30.36"/>
</g>
<!-- Node28&#45;&gt;Node10 -->
<g id="edge113" class="edge">
<title>Node28&#45;&gt;Node10</title>
<path fill="none" stroke="midnightblue" d="M2555.45,-310.69C2350.43,-309.23 1614.01,-301.53 1580,-266 1553.26,-238.07 1559.16,-211.57 1580,-179 1600.58,-146.84 1629.49,-168.4 1658,-143 1674.18,-128.59 1686.24,-106.62 1693.41,-91.04"/>
<polygon fill="midnightblue" stroke="midnightblue" points="1696.8,-92.02 1697.58,-81.45 1690.38,-89.23 1696.8,-92.02"/>
</g>
<!-- Node28&#45;&gt;Node12 -->
<g id="edge64" class="edge">
<title>Node28&#45;&gt;Node12</title>
<path fill="none" stroke="midnightblue" d="M2660.65,-305.9C2675.91,-304.52 2692.61,-303.1 2708,-302 2783.25,-296.62 3327.39,-313.5 3386,-266 3416.48,-241.3 3414.94,-215.68 3401,-179 3396.66,-167.6 3387.97,-157.24 3379.79,-149.34"/>
<polygon fill="midnightblue" stroke="midnightblue" points="3382.04,-146.66 3372.27,-142.57 3377.36,-151.86 3382.04,-146.66"/>
</g>
<!-- Node28&#45;&gt;Node14 -->
<g id="edge68" class="edge">
<title>Node28&#45;&gt;Node14</title>
<path fill="none" stroke="midnightblue" d="M2555.17,-310.08C2353.74,-306.39 1640.37,-291.61 1542,-266 1488.53,-252.08 1459.97,-257.06 1431,-210 1423.78,-198.27 1423.17,-190.34 1431,-179 1440.63,-165.06 1481.45,-151.67 1512.62,-143.17"/>
<polygon fill="midnightblue" stroke="midnightblue" points="1513.58,-146.54 1522.35,-140.59 1511.78,-139.77 1513.58,-146.54"/>
</g>
<!-- Node28&#45;&gt;Node15 -->
<g id="edge70" class="edge">
<title>Node28&#45;&gt;Node15</title>
<path fill="none" stroke="midnightblue" d="M2660.65,-305.88C2675.91,-304.5 2692.61,-303.09 2708,-302 2863.6,-291.01 3257.64,-303.68 3409,-266 3439.82,-258.33 3650.15,-169.92 3667,-143 3671.72,-135.47 3672.76,-129.77 3667,-123 3630.4,-79.94 3449.41,-73.51 3382.73,-72.62"/>
<polygon fill="midnightblue" stroke="midnightblue" points="3382.73,-69.12 3372.7,-72.51 3382.66,-76.12 3382.73,-69.12"/>
</g>
<!-- Node29 -->
<g id="node29" class="node">
<title>Node29</title>
<g id="a_node29"><a xlink:title=" ">
<polygon fill="white" stroke="#bfbfbf" points="2730,-246.5 2730,-265.5 2772,-265.5 2772,-246.5 2730,-246.5"/>
<text text-anchor="middle" x="2751" y="-253.5" font-family="Helvetica,sans-Serif" font-size="10.00">QPen</text>
</a>
</g>
</g>
<!-- Node28&#45;&gt;Node29 -->
<g id="edge67" class="edge">
<title>Node28&#45;&gt;Node29</title>
<path fill="none" stroke="midnightblue" d="M2630.66,-302.44C2654.82,-293.32 2693.24,-278.81 2720.15,-268.65"/>
<polygon fill="midnightblue" stroke="midnightblue" points="2721.73,-271.8 2729.85,-264.99 2719.25,-265.25 2721.73,-271.8"/>
</g>
<!-- Node30 -->
<g id="node30" class="node">
<title>Node30</title>
<g id="a_node30"><a xlink:href="../../d2/dba/vdrawtool_8h.html" target="_top" xlink:title=" ">
<polygon fill="white" stroke="red" points="2263.5,-246.5 2263.5,-265.5 2346.5,-265.5 2346.5,-246.5 2263.5,-246.5"/>
<text text-anchor="middle" x="2305" y="-253.5" font-family="Helvetica,sans-Serif" font-size="10.00">../vdrawtool.h</text>
</a>
</g>
</g>
<!-- Node28&#45;&gt;Node30 -->
<g id="edge72" class="edge">
<title>Node28&#45;&gt;Node30</title>
<path fill="none" stroke="midnightblue" d="M2559.99,-302.44C2504.58,-292.57 2413.79,-276.39 2356.81,-266.23"/>
<polygon fill="midnightblue" stroke="midnightblue" points="2357.39,-262.78 2346.93,-264.47 2356.16,-269.67 2357.39,-262.78"/>
</g>
<!-- Node32 -->
<g id="node32" class="node">
<title>Node32</title>
<g id="a_node32"><a xlink:href="../../d1/de6/vabstracttool_8h.html" target="_top" xlink:title=" ">
<polygon fill="white" stroke="red" points="2566,-123.5 2566,-142.5 2656,-142.5 2656,-123.5 2566,-123.5"/>
<text text-anchor="middle" x="2611" y="-130.5" font-family="Helvetica,sans-Serif" font-size="10.00">vabstracttool.h</text>
</a>
</g>
</g>
<!-- Node28&#45;&gt;Node32 -->
<g id="edge134" class="edge">
<title>Node28&#45;&gt;Node32</title>
<path fill="none" stroke="midnightblue" d="M2655.97,-302.45C2704.52,-293.34 2775.91,-278.51 2801,-266 2844.67,-244.22 2899.39,-216.37 2868,-179 2842.75,-148.94 2733.85,-138.96 2666.17,-135.64"/>
<polygon fill="midnightblue" stroke="midnightblue" points="2666.24,-132.14 2656.09,-135.18 2665.92,-139.14 2666.24,-132.14"/>
</g>
<!-- Node36 -->
<g id="node33" class="node">
<title>Node36</title>
<g id="a_node33"><a xlink:title=" ">
<polygon fill="white" stroke="#bfbfbf" points="2203.5,-62 2203.5,-81 2370.5,-81 2370.5,-62 2203.5,-62"/>
<text text-anchor="middle" x="2287" y="-69" font-family="Helvetica,sans-Serif" font-size="10.00">../vmisc/vabstractapplication.h</text>
</a>
</g>
</g>
<!-- Node28&#45;&gt;Node36 -->
<g id="edge111" class="edge">
<title>Node28&#45;&gt;Node36</title>
<path fill="none" stroke="midnightblue" d="M2608.27,-302.34C2608.51,-279.22 2605.97,-215.35 2573,-179 2568.54,-174.08 2395.52,-111.5 2320.8,-84.63"/>
<polygon fill="midnightblue" stroke="midnightblue" points="2321.53,-81.17 2310.93,-81.08 2319.16,-87.76 2321.53,-81.17"/>
</g>
<!-- Node37 -->
<g id="node34" class="node">
<title>Node37</title>
<g id="a_node34"><a xlink:title=" ">
<polygon fill="white" stroke="#bfbfbf" points="1824,-62 1824,-81 2006,-81 2006,-62 1824,-62"/>
<text text-anchor="middle" x="1915" y="-69" font-family="Helvetica,sans-Serif" font-size="10.00">../vwidgets/vmaingraphicsscene.h</text>
</a>
</g>
</g>
<!-- Node28&#45;&gt;Node37 -->
<g id="edge114" class="edge">
<title>Node28&#45;&gt;Node37</title>
<path fill="none" stroke="midnightblue" d="M2555.31,-309.14C2370.42,-302.07 1759.25,-273.99 1702,-210 1692.81,-199.73 1693.94,-190.18 1702,-179 1731.58,-137.95 1764.59,-165.3 1810,-143 1842.1,-127.23 1875.87,-102.99 1896.18,-87.44"/>
<polygon fill="midnightblue" stroke="midnightblue" points="1898.51,-90.06 1904.26,-81.16 1894.22,-84.53 1898.51,-90.06"/>
</g>
<!-- Node28&#45;&gt;Node40 -->
<g id="edge112" class="edge">
<title>Node28&#45;&gt;Node40</title>
<path fill="none" stroke="midnightblue" d="M2660.64,-305.8C2675.91,-304.42 2692.61,-303.03 2708,-302 2890.66,-289.79 3352.8,-307.91 3531,-266 3552.31,-260.99 3555.72,-254.22 3576,-246 3619,-228.57 3631.46,-228.53 3674,-210 3816.8,-147.78 3981.04,-58.3 4041.79,-24.56"/>
<polygon fill="midnightblue" stroke="midnightblue" points="4043.6,-27.56 4050.63,-19.63 4040.19,-21.44 4043.6,-27.56"/>
</g>
<!-- Node28&#45;&gt;Node58 -->
<g id="edge110" class="edge">
<title>Node28&#45;&gt;Node58</title>
<path fill="none" stroke="midnightblue" d="M2660.59,-303.43C2705.14,-295.96 2764.37,-283.16 2781,-266 2794.21,-252.37 2797.4,-230.23 2797.79,-214.39"/>
<polygon fill="midnightblue" stroke="midnightblue" points="2801.29,-214.16 2797.69,-204.19 2794.29,-214.23 2801.29,-214.16"/>
</g>
<!-- Node28&#45;&gt;Node53 -->
<g id="edge109" class="edge">
<title>Node28&#45;&gt;Node53</title>
<path fill="none" stroke="midnightblue" d="M2660.64,-305.78C2675.91,-304.4 2692.61,-303.01 2708,-302 3091.06,-276.79 3189.22,-306.21 3571,-266 3572.31,-265.86 3573.63,-265.71 3574.96,-265.55"/>
<polygon fill="midnightblue" stroke="midnightblue" points="3575.85,-268.96 3585.29,-264.15 3574.91,-262.03 3575.85,-268.96"/>
</g>
<!-- Node28&#45;&gt;Node69 -->
<g id="edge115" class="edge">
<title>Node28&#45;&gt;Node69</title>
<path fill="none" stroke="midnightblue" d="M2555.31,-310.8C2393.5,-309.79 1889.51,-303.62 1474,-266 1317.19,-251.8 1134.18,-222.53 1040.05,-206.53"/>
<polygon fill="midnightblue" stroke="midnightblue" points="1040.56,-203.07 1030.12,-204.84 1039.39,-209.97 1040.56,-203.07"/>
</g>
<!-- Node30&#45;&gt;Node3 -->
<g id="edge102" class="edge">
<title>Node30&#45;&gt;Node3</title>
<path fill="none" stroke="midnightblue" d="M2328.5,-246.44C2349.34,-238.4 2380.22,-225.31 2405,-210 2423.54,-198.54 2425.29,-191.71 2443,-179 2526.56,-119.05 2544.91,-97.53 2639,-56 2673.7,-40.68 2714.91,-29.32 2747.08,-21.85"/>
<polygon fill="midnightblue" stroke="midnightblue" points="2748.21,-25.18 2757.19,-19.56 2746.66,-18.35 2748.21,-25.18"/>
</g>
<!-- Node30&#45;&gt;Node6 -->
<g id="edge105" class="edge">
<title>Node30&#45;&gt;Node6</title>
<path fill="none" stroke="midnightblue" d="M2346.57,-254.25C2540.98,-250.64 3353.12,-234.15 3401,-210 3445.31,-187.65 3430.34,-151.46 3471,-123 3558.22,-61.95 3681.5,-31.85 3749.7,-19.04"/>
<polygon fill="midnightblue" stroke="midnightblue" points="3750.54,-22.44 3759.75,-17.2 3749.28,-15.56 3750.54,-22.44"/>
</g>
<!-- Node30&#45;&gt;Node7 -->
<g id="edge106" class="edge">
<title>Node30&#45;&gt;Node7</title>
<path fill="none" stroke="midnightblue" d="M2263.18,-255.07C1997.36,-255.37 548.32,-254.92 357,-210 322.84,-201.98 233.39,-172.25 214,-143 191.06,-108.39 198.07,-56.71 204.14,-29.42"/>
<polygon fill="midnightblue" stroke="midnightblue" points="207.55,-30.18 206.51,-19.63 200.75,-28.53 207.55,-30.18"/>
</g>
<!-- Node30&#45;&gt;Node8 -->
<g id="edge107" class="edge">
<title>Node30&#45;&gt;Node8</title>
<path fill="none" stroke="midnightblue" d="M2346.61,-251.79C2418.62,-245.75 2563.18,-231.34 2609,-210 2627.84,-201.23 2625.94,-189.27 2644,-179 2800.15,-90.21 2854.53,-98.75 3029,-56 3107.51,-36.76 3201.31,-22.67 3252.03,-15.76"/>
<polygon fill="midnightblue" stroke="midnightblue" points="3252.73,-19.2 3262.17,-14.4 3251.8,-12.26 3252.73,-19.2"/>
</g>
<!-- Node30&#45;&gt;Node9 -->
<g id="edge108" class="edge">
<title>Node30&#45;&gt;Node9</title>
<path fill="none" stroke="midnightblue" d="M2276.9,-246.44C2253.71,-238.73 2220.45,-226.14 2194,-210 2104.41,-155.34 2109.2,-102.27 2015,-56 1956.66,-27.34 1880.94,-16.92 1835.54,-13.14"/>
<polygon fill="midnightblue" stroke="midnightblue" points="1835.74,-9.65 1825.5,-12.37 1835.2,-16.63 1835.74,-9.65"/>
</g>
<!-- Node30&#45;&gt;Node10 -->
<g id="edge98" class="edge">
<title>Node30&#45;&gt;Node10</title>
<path fill="none" stroke="midnightblue" d="M2263.37,-255.07C2133.19,-254.88 1740.22,-250.88 1702,-210 1694.09,-201.54 1697.6,-126.94 1699.76,-91.3"/>
<polygon fill="midnightblue" stroke="midnightblue" points="1703.25,-91.43 1700.39,-81.23 1696.27,-90.99 1703.25,-91.43"/>
</g>
<!-- Node30&#45;&gt;Node12 -->
<g id="edge103" class="edge">
<title>Node30&#45;&gt;Node12</title>
<path fill="none" stroke="midnightblue" d="M2346.55,-252.62C2411.06,-248.22 2538.84,-236.71 2644,-210 2681.36,-200.51 2687.37,-187.34 2725,-179 2841.07,-153.28 3210.1,-139.04 3325.89,-135.12"/>
<polygon fill="midnightblue" stroke="midnightblue" points="3326.1,-138.62 3335.98,-134.79 3325.87,-131.62 3326.1,-138.62"/>
</g>
<!-- Node30&#45;&gt;Node22 -->
<g id="edge104" class="edge">
<title>Node30&#45;&gt;Node22</title>
<path fill="none" stroke="midnightblue" d="M2263.22,-252.32C2160.1,-245.66 1885.17,-227.6 1656,-210 1616.6,-206.97 1572.16,-203.22 1538.32,-200.29"/>
<polygon fill="midnightblue" stroke="midnightblue" points="1538.44,-196.78 1528.17,-199.41 1537.83,-203.76 1538.44,-196.78"/>
</g>
<!-- Node31 -->
<g id="node31" class="node">
<title>Node31</title>
<g id="a_node31"><a xlink:href="../../d9/dde/vinteractivetool_8h.html" target="_top" xlink:title=" ">
<polygon fill="white" stroke="red" points="2452,-185 2452,-204 2564,-204 2564,-185 2452,-185"/>
<text text-anchor="middle" x="2508" y="-192" font-family="Helvetica,sans-Serif" font-size="10.00">../vinteractivetool.h</text>
</a>
</g>
</g>
<!-- Node30&#45;&gt;Node31 -->
<g id="edge73" class="edge">
<title>Node30&#45;&gt;Node31</title>
<path fill="none" stroke="midnightblue" d="M2334.08,-246.48C2369.58,-236.07 2429.75,-218.44 2469.17,-206.88"/>
<polygon fill="midnightblue" stroke="midnightblue" points="2470.36,-210.18 2478.97,-204.01 2468.39,-203.46 2470.36,-210.18"/>
</g>
<!-- Node30&#45;&gt;Node36 -->
<g id="edge97" class="edge">
<title>Node30&#45;&gt;Node36</title>
<path fill="none" stroke="midnightblue" d="M2263.39,-247.41C2242.07,-241.18 2217.92,-229.98 2205,-210 2176.6,-166.08 2234.26,-112.43 2266.81,-87.09"/>
<polygon fill="midnightblue" stroke="midnightblue" points="2268.99,-89.83 2274.85,-81 2264.76,-84.24 2268.99,-89.83"/>
</g>
<!-- Node30&#45;&gt;Node37 -->
<g id="edge100" class="edge">
<title>Node30&#45;&gt;Node37</title>
<path fill="none" stroke="midnightblue" d="M2263.3,-254.94C2136.72,-254.33 1763.27,-249.2 1727,-210 1661.49,-139.2 1755.78,-199.54 1848,-143 1870.62,-129.13 1890.72,-105.72 1902.87,-89.71"/>
<polygon fill="midnightblue" stroke="midnightblue" points="1905.97,-91.4 1909.06,-81.27 1900.32,-87.26 1905.97,-91.4"/>
</g>
<!-- Node38 -->
<g id="node35" class="node">
<title>Node38</title>
<g id="a_node35"><a xlink:href="../../d8/ddf/vdatatool_8h.html" target="_top" xlink:title=" ">
<polygon fill="white" stroke="black" points="2682,-62 2682,-81 2754,-81 2754,-62 2682,-62"/>
<text text-anchor="middle" x="2718" y="-69" font-family="Helvetica,sans-Serif" font-size="10.00">vdatatool.h</text>
</a>
</g>
</g>
<!-- Node30&#45;&gt;Node38 -->
<g id="edge95" class="edge">
<title>Node30&#45;&gt;Node38</title>
<path fill="none" stroke="midnightblue" d="M2346.58,-253.9C2400.71,-251.17 2497.32,-241.81 2573,-210 2574.46,-209.39 2663.87,-144.11 2665,-143 2681.47,-126.78 2696.94,-105.18 2706.87,-90.18"/>
<polygon fill="midnightblue" stroke="midnightblue" points="2710.05,-91.7 2712.54,-81.4 2704.18,-87.9 2710.05,-91.7"/>
</g>
<!-- Node57 -->
<g id="node38" class="node">
<title>Node57</title>
<g id="a_node38"><a xlink:title=" ">
<polygon fill="white" stroke="#bfbfbf" points="2214,-185 2214,-204 2396,-204 2396,-185 2214,-185"/>
<text text-anchor="middle" x="2305" y="-192" font-family="Helvetica,sans-Serif" font-size="10.00">../ifc/exception/vexceptionbadid.h</text>
</a>
</g>
</g>
<!-- Node30&#45;&gt;Node57 -->
<g id="edge94" class="edge">
<title>Node30&#45;&gt;Node57</title>
<path fill="none" stroke="midnightblue" d="M2305,-246.48C2305,-238.08 2305,-224.98 2305,-214.16"/>
<polygon fill="midnightblue" stroke="midnightblue" points="2308.5,-214.01 2305,-204.01 2301.5,-214.01 2308.5,-214.01"/>
</g>
<!-- Node30&#45;&gt;Node58 -->
<g id="edge96" class="edge">
<title>Node30&#45;&gt;Node58</title>
<path fill="none" stroke="midnightblue" d="M2346.57,-250.13C2416.05,-241.97 2560.15,-224.95 2682,-210 2695.66,-208.32 2710.23,-206.51 2724.25,-204.75"/>
<polygon fill="midnightblue" stroke="midnightblue" points="2724.86,-208.2 2734.34,-203.48 2723.98,-201.25 2724.86,-208.2"/>
</g>
<!-- Node59 -->
<g id="node40" class="node">
<title>Node59</title>
<g id="a_node40"><a xlink:title=" ">
<polygon fill="white" stroke="#bfbfbf" points="1736.5,-185 1736.5,-204 1925.5,-204 1925.5,-185 1736.5,-185"/>
<text text-anchor="middle" x="1831" y="-192" font-family="Helvetica,sans-Serif" font-size="10.00">../vwidgets/vabstractmainwindow.h</text>
</a>
</g>
</g>
<!-- Node30&#45;&gt;Node59 -->
<g id="edge99" class="edge">
<title>Node30&#45;&gt;Node59</title>
<path fill="none" stroke="midnightblue" d="M2263.35,-250.18C2194.83,-242.18 2054.03,-225.53 1935,-210 1923.95,-208.56 1912.26,-206.98 1900.85,-205.41"/>
<polygon fill="midnightblue" stroke="midnightblue" points="1901.31,-201.94 1890.92,-204.04 1900.35,-208.87 1901.31,-201.94"/>
</g>
<!-- Node60 -->
<g id="node41" class="node">
<title>Node60</title>
<g id="a_node41"><a xlink:title=" ">
<polygon fill="white" stroke="#bfbfbf" points="1944,-185 1944,-204 2120,-204 2120,-185 1944,-185"/>
<text text-anchor="middle" x="2032" y="-192" font-family="Helvetica,sans-Serif" font-size="10.00">../vwidgets/vmaingraphicsview.h</text>
</a>
</g>
</g>
<!-- Node30&#45;&gt;Node60 -->
<g id="edge101" class="edge">
<title>Node30&#45;&gt;Node60</title>
<path fill="none" stroke="midnightblue" d="M2265.89,-246.48C2217.13,-235.85 2133.79,-217.68 2080.88,-206.15"/>
<polygon fill="midnightblue" stroke="midnightblue" points="2081.56,-202.72 2071.04,-204.01 2080.07,-209.56 2081.56,-202.72"/>
</g>
<!-- Node31&#45;&gt;Node32 -->
<g id="edge74" class="edge">
<title>Node31&#45;&gt;Node32</title>
<path fill="none" stroke="midnightblue" d="M2522.76,-184.98C2539.66,-175.21 2567.58,-159.08 2587.49,-147.58"/>
<polygon fill="midnightblue" stroke="midnightblue" points="2589.36,-150.54 2596.27,-142.51 2585.86,-144.48 2589.36,-150.54"/>
</g>
<!-- Node32&#45;&gt;Node3 -->
<g id="edge75" class="edge">
<title>Node32&#45;&gt;Node3</title>
<path fill="none" stroke="midnightblue" d="M2615.81,-123.4C2624.97,-107.8 2646.38,-74.69 2673,-56 2695.7,-40.06 2724.61,-29.26 2749.2,-22.25"/>
<polygon fill="midnightblue" stroke="midnightblue" points="2750.36,-25.56 2759.1,-19.56 2748.53,-18.8 2750.36,-25.56"/>
</g>
<!-- Node32&#45;&gt;Node6 -->
<g id="edge76" class="edge">
<title>Node32&#45;&gt;Node6</title>
<path fill="none" stroke="midnightblue" d="M2656.17,-124.21C2707.17,-115.38 2792.6,-100.46 2866,-87 2938.53,-73.7 2955.82,-65.06 3029,-56 3299.23,-22.56 3625.91,-13.86 3749.43,-11.69"/>
<polygon fill="midnightblue" stroke="midnightblue" points="3749.76,-15.18 3759.7,-11.51 3749.64,-8.18 3749.76,-15.18"/>
</g>
<!-- Node32&#45;&gt;Node7 -->
<g id="edge77" class="edge">
<title>Node32&#45;&gt;Node7</title>
<path fill="none" stroke="midnightblue" d="M2591.58,-123.42C2549.62,-105.06 2451.46,-63.04 2416,-56 2195.4,-12.2 523.72,-10.89 247.57,-10.97"/>
<polygon fill="midnightblue" stroke="midnightblue" points="247.26,-7.47 237.26,-10.98 247.26,-14.47 247.26,-7.47"/>
</g>
<!-- Node32&#45;&gt;Node8 -->
<g id="edge78" class="edge">
<title>Node32&#45;&gt;Node8</title>
<path fill="none" stroke="midnightblue" d="M2640.57,-123.47C2695.29,-107.97 2816.21,-75.02 2920,-56 3040.81,-33.86 3185.94,-19.77 3252.45,-13.99"/>
<polygon fill="midnightblue" stroke="midnightblue" points="3252.77,-17.48 3262.44,-13.14 3252.17,-10.51 3252.77,-17.48"/>
</g>
<!-- Node32&#45;&gt;Node9 -->
<g id="edge80" class="edge">
<title>Node32&#45;&gt;Node9</title>
<path fill="none" stroke="midnightblue" d="M2602.74,-123.38C2586.2,-106.8 2547.09,-70.76 2506,-56 2442.91,-33.33 1976.23,-16.75 1835.84,-12.23"/>
<polygon fill="midnightblue" stroke="midnightblue" points="1835.65,-8.72 1825.54,-11.9 1835.43,-15.72 1835.65,-8.72"/>
</g>
<!-- Node32&#45;&gt;Node10 -->
<g id="edge84" class="edge">
<title>Node32&#45;&gt;Node10</title>
<path fill="none" stroke="midnightblue" d="M2565.63,-127.4C2549.36,-125.86 2530.87,-124.22 2514,-123 2203.73,-100.63 2124.85,-114.64 1815,-87 1794.35,-85.16 1771.69,-82.42 1752.05,-79.82"/>
<polygon fill="midnightblue" stroke="midnightblue" points="1752.45,-76.35 1742.08,-78.48 1751.52,-83.28 1752.45,-76.35"/>
</g>
<!-- Node32&#45;&gt;Node15 -->
<g id="edge79" class="edge">
<title>Node32&#45;&gt;Node15</title>
<path fill="none" stroke="midnightblue" d="M2656.05,-128.41C2796.8,-117.2 3225.36,-83.06 3333.18,-74.48"/>
<polygon fill="midnightblue" stroke="midnightblue" points="3333.7,-77.95 3343.39,-73.66 3333.15,-70.97 3333.7,-77.95"/>
</g>
<!-- Node32&#45;&gt;Node16 -->
<g id="edge82" class="edge">
<title>Node32&#45;&gt;Node16</title>
<path fill="none" stroke="midnightblue" d="M2656.04,-126.51C2741.12,-116.13 2926.1,-93.58 3028.04,-81.15"/>
<polygon fill="midnightblue" stroke="midnightblue" points="3028.74,-84.59 3038.24,-79.91 3027.89,-77.64 3028.74,-84.59"/>
</g>
<!-- Node32&#45;&gt;Node23 -->
<g id="edge81" class="edge">
<title>Node32&#45;&gt;Node23</title>
<path fill="none" stroke="midnightblue" d="M2565.98,-130.58C2428.65,-126.09 2003.06,-111.09 1651,-87 1626.75,-85.34 1600.47,-83.14 1576.32,-80.96"/>
<polygon fill="midnightblue" stroke="midnightblue" points="1576.39,-77.45 1566.11,-80.03 1575.75,-84.43 1576.39,-77.45"/>
</g>
<!-- Node32&#45;&gt;Node36 -->
<g id="edge83" class="edge">
<title>Node32&#45;&gt;Node36</title>
<path fill="none" stroke="midnightblue" d="M2565.95,-123.73C2507.89,-113.06 2406.91,-94.52 2343.7,-82.91"/>
<polygon fill="midnightblue" stroke="midnightblue" points="2343.97,-79.4 2333.5,-81.04 2342.71,-86.29 2343.97,-79.4"/>
</g>
<!-- Node32&#45;&gt;Node37 -->
<g id="edge85" class="edge">
<title>Node32&#45;&gt;Node37</title>
<path fill="none" stroke="midnightblue" d="M2565.61,-127.71C2549.33,-126.19 2530.85,-124.49 2514,-123 2339.12,-107.52 2135.43,-90.58 2016.3,-80.78"/>
<polygon fill="midnightblue" stroke="midnightblue" points="2016.35,-77.27 2006.1,-79.94 2015.78,-84.25 2016.35,-77.27"/>
</g>
<!-- Node32&#45;&gt;Node38 -->
<g id="edge86" class="edge">
<title>Node32&#45;&gt;Node38</title>
<path fill="none" stroke="midnightblue" d="M2626.33,-123.48C2643.97,-113.67 2673.16,-97.43 2693.86,-85.92"/>
<polygon fill="midnightblue" stroke="midnightblue" points="2695.66,-88.93 2702.7,-81.01 2692.26,-82.81 2695.66,-88.93"/>
</g>
<!-- Node38&#45;&gt;Node3 -->
<g id="edge87" class="edge">
<title>Node38&#45;&gt;Node3</title>
<path fill="none" stroke="midnightblue" d="M2729.89,-61.98C2743.2,-52.43 2765,-36.81 2780.96,-25.37"/>
<polygon fill="midnightblue" stroke="midnightblue" points="2783.04,-28.18 2789.13,-19.51 2778.96,-22.49 2783.04,-28.18"/>
</g>
<!-- Node38&#45;&gt;Node6 -->
<g id="edge88" class="edge">
<title>Node38&#45;&gt;Node6</title>
<path fill="none" stroke="midnightblue" d="M2754.11,-67.68C2794.51,-64.58 2861.92,-59.57 2920,-56 3235.48,-36.61 3614.95,-19.21 3749.61,-13.21"/>
<polygon fill="midnightblue" stroke="midnightblue" points="3749.8,-16.71 3759.64,-12.77 3749.49,-9.72 3749.8,-16.71"/>
</g>
<!-- Node38&#45;&gt;Node7 -->
<g id="edge89" class="edge">
<title>Node38&#45;&gt;Node7</title>
<path fill="none" stroke="midnightblue" d="M2681.64,-67.47C2639.44,-64.08 2567.73,-58.71 2506,-56 1590.06,-15.73 467.08,-11.5 247.31,-11.05"/>
<polygon fill="midnightblue" stroke="midnightblue" points="247.25,-7.55 237.24,-11.03 247.23,-14.55 247.25,-7.55"/>
</g>
<!-- Node38&#45;&gt;Node8 -->
<g id="edge90" class="edge">
<title>Node38&#45;&gt;Node8</title>
<path fill="none" stroke="midnightblue" d="M2754.15,-66.73C2856.78,-56.04 3149.14,-25.57 3252.36,-14.82"/>
<polygon fill="midnightblue" stroke="midnightblue" points="3252.73,-18.3 3262.31,-13.78 3252,-11.34 3252.73,-18.3"/>
</g>
<!-- Node38&#45;&gt;Node9 -->
<g id="edge91" class="edge">
<title>Node38&#45;&gt;Node9</title>
<path fill="none" stroke="midnightblue" d="M2681.73,-63.61C2665.9,-60.84 2647.09,-57.86 2630,-56 2325.66,-22.82 1956.06,-13.76 1835.84,-11.6"/>
<polygon fill="midnightblue" stroke="midnightblue" points="1835.7,-8.1 1825.64,-11.43 1835.58,-15.1 1835.7,-8.1"/>
</g>
<!-- Node39 -->
<g id="node36" class="node">
<title>Node39</title>
<g id="a_node36"><a xlink:title=" ">
<polygon fill="white" stroke="#bfbfbf" points="2196.5,-0.5 2196.5,-19.5 2299.5,-19.5 2299.5,-0.5 2196.5,-0.5"/>
<text text-anchor="middle" x="2248" y="-7.5" font-family="Helvetica,sans-Serif" font-size="10.00">../vmisc/logging.h</text>
</a>
</g>
</g>
<!-- Node38&#45;&gt;Node39 -->
<g id="edge92" class="edge">
<title>Node38&#45;&gt;Node39</title>
<path fill="none" stroke="midnightblue" d="M2681.67,-64.13C2665.82,-61.45 2647.02,-58.4 2630,-56 2517.43,-40.1 2385.65,-25.45 2309.99,-17.41"/>
<polygon fill="midnightblue" stroke="midnightblue" points="2310,-13.9 2299.69,-16.33 2309.27,-20.86 2310,-13.9"/>
</g>
<!-- Node38&#45;&gt;Node40 -->
<g id="edge93" class="edge">
<title>Node38&#45;&gt;Node40</title>
<path fill="none" stroke="midnightblue" d="M2754.39,-68.77C2812.45,-66.01 2929.65,-60.47 3029,-56 3385.1,-39.97 3810.03,-21.85 3984.82,-14.43"/>
<polygon fill="midnightblue" stroke="midnightblue" points="3985.12,-17.92 3994.96,-14 3984.82,-10.93 3985.12,-17.92"/>
</g>
<!-- Node69&#45;&gt;Node3 -->
<g id="edge130" class="edge">
<title>Node69&#45;&gt;Node3</title>
<path fill="none" stroke="midnightblue" d="M1001.4,-179.39C1018.85,-169.28 1042.89,-155.34 1064,-143 1079.14,-134.15 1081.68,-129.39 1098,-123 1228.04,-72.07 1266.41,-73.21 1405,-56 1536.79,-39.63 2465.33,-18.32 2730.47,-12.52"/>
<polygon fill="midnightblue" stroke="midnightblue" points="2730.81,-16.01 2740.74,-12.29 2730.66,-9.01 2730.81,-16.01"/>
</g>
<!-- Node69&#45;&gt;Node4 -->
<g id="edge131" class="edge">
<title>Node69&#45;&gt;Node4</title>
<path fill="none" stroke="midnightblue" d="M1030.12,-191.76C1114.88,-188.98 1285.97,-183.43 1431,-179 1979.42,-162.24 2116.59,-160.28 2665,-143 2738.11,-140.7 2822.51,-137.8 2876.29,-135.93"/>
<polygon fill="midnightblue" stroke="midnightblue" points="2876.42,-139.42 2886.29,-135.58 2876.17,-132.43 2876.42,-139.42"/>
</g>
<!-- Node69&#45;&gt;Node7 -->
<g id="edge132" class="edge">
<title>Node69&#45;&gt;Node7</title>
<path fill="none" stroke="midnightblue" d="M923.98,-191.63C778.59,-186.17 380.88,-169.03 328,-143 301.05,-129.74 246.26,-60.3 221.57,-27.8"/>
<polygon fill="midnightblue" stroke="midnightblue" points="224.27,-25.57 215.45,-19.69 218.68,-29.78 224.27,-25.57"/>
</g>
<!-- Node69&#45;&gt;Node9 -->
<g id="edge133" class="edge">
<title>Node69&#45;&gt;Node9</title>
<path fill="none" stroke="midnightblue" d="M933.25,-179.32C916.32,-171.45 898.71,-159.77 889,-143 869.62,-109.54 862.34,-84.01 889,-56 919.31,-24.15 1585.52,-13.64 1756.36,-11.46"/>
<polygon fill="midnightblue" stroke="midnightblue" points="1756.48,-14.96 1766.43,-11.34 1756.39,-7.96 1756.48,-14.96"/>
</g>
<!-- Node69&#45;&gt;Node10 -->
<g id="edge123" class="edge">
<title>Node69&#45;&gt;Node10</title>
<path fill="none" stroke="midnightblue" d="M1010.74,-179.42C1059.99,-158.86 1145.78,-123.05 1146,-123 1346.22,-74.75 1403.43,-110.88 1608,-87 1621.58,-85.41 1636.22,-83.32 1649.77,-81.21"/>
<polygon fill="midnightblue" stroke="midnightblue" points="1650.56,-84.63 1659.89,-79.61 1649.46,-77.72 1650.56,-84.63"/>
</g>
<!-- Node69&#45;&gt;Node17 -->
<g id="edge127" class="edge">
<title>Node69&#45;&gt;Node17</title>
<path fill="none" stroke="midnightblue" d="M1030.26,-184.91C1097.13,-174.13 1211.67,-155.66 1282.87,-144.18"/>
<polygon fill="midnightblue" stroke="midnightblue" points="1283.74,-147.58 1293.05,-142.54 1282.62,-140.67 1283.74,-147.58"/>
</g>
<!-- Node69&#45;&gt;Node36 -->
<g id="edge125" class="edge">
<title>Node69&#45;&gt;Node36</title>
<path fill="none" stroke="midnightblue" d="M1030.12,-183.12C1075.16,-173.9 1141.28,-159.37 1198,-143 1223.79,-135.55 1228.65,-128.13 1255,-123 1420.96,-90.67 1846.14,-95.5 2015,-87 2074.22,-84.02 2140.68,-80.48 2193.09,-77.64"/>
<polygon fill="midnightblue" stroke="midnightblue" points="2193.58,-81.12 2203.37,-77.09 2193.2,-74.13 2193.58,-81.12"/>
</g>
<!-- Node69&#45;&gt;Node37 -->
<g id="edge129" class="edge">
<title>Node69&#45;&gt;Node37</title>
<path fill="none" stroke="midnightblue" d="M1021.57,-179.44C1081.07,-160.89 1183.42,-129.78 1222,-123 1454.09,-82.19 1516.06,-105.38 1751,-87 1771.33,-85.41 1793.06,-83.58 1813.83,-81.77"/>
<polygon fill="midnightblue" stroke="midnightblue" points="1814.29,-85.24 1823.94,-80.88 1813.68,-78.27 1814.29,-85.24"/>
</g>
<!-- Node69&#45;&gt;Node39 -->
<g id="edge124" class="edge">
<title>Node69&#45;&gt;Node39</title>
<path fill="none" stroke="midnightblue" d="M923.88,-193.16C781.37,-191.72 398.79,-184.01 361,-143 354.98,-136.46 355.12,-129.67 361,-123 517.38,54.48 653.2,-74.82 889,-56 1146.25,-35.46 1955.37,-17.18 2186.05,-12.28"/>
<polygon fill="midnightblue" stroke="midnightblue" points="2186.35,-15.78 2196.27,-12.07 2186.2,-8.78 2186.35,-15.78"/>
</g>
<!-- Node70 -->
<g id="node44" class="node">
<title>Node70</title>
<g id="a_node44"><a xlink:href="../../d4/df4/vinternalvariable_8h.html" target="_top" xlink:title=" ">
<polygon fill="white" stroke="black" points="898.5,-123.5 898.5,-142.5 1055.5,-142.5 1055.5,-123.5 898.5,-123.5"/>
<text text-anchor="middle" x="977" y="-130.5" font-family="Helvetica,sans-Serif" font-size="10.00">variables/vinternalvariable.h</text>
</a>
</g>
</g>
<!-- Node69&#45;&gt;Node70 -->
<g id="edge116" class="edge">
<title>Node69&#45;&gt;Node70</title>
<path fill="none" stroke="midnightblue" d="M977,-179.4C977,-171.47 977,-161.46 977,-152.86"/>
<polygon fill="midnightblue" stroke="midnightblue" points="980.5,-152.66 977,-142.66 973.5,-152.66 980.5,-152.66"/>
</g>
<!-- Node73 -->
<g id="node47" class="node">
<title>Node73</title>
<g id="a_node47"><a xlink:title=" ">
<polygon fill="white" stroke="#bfbfbf" points="678,-123.5 678,-142.5 842,-142.5 842,-123.5 678,-123.5"/>
<text text-anchor="middle" x="760" y="-130.5" font-family="Helvetica,sans-Serif" font-size="10.00">../vgeometry/vabstractcurve.h</text>
</a>
</g>
</g>
<!-- Node69&#45;&gt;Node73 -->
<g id="edge122" class="edge">
<title>Node69&#45;&gt;Node73</title>
<path fill="none" stroke="midnightblue" d="M925.85,-179.47C887.76,-169.03 836.43,-154.96 801.02,-145.25"/>
<polygon fill="midnightblue" stroke="midnightblue" points="801.59,-141.78 791.02,-142.51 799.74,-148.53 801.59,-141.78"/>
</g>
<!-- Node74 -->
<g id="node48" class="node">
<title>Node74</title>
<g id="a_node48"><a xlink:title=" ">
<polygon fill="white" stroke="#bfbfbf" points="370,-123.5 370,-142.5 482,-142.5 482,-123.5 370,-123.5"/>
<text text-anchor="middle" x="426" y="-130.5" font-family="Helvetica,sans-Serif" font-size="10.00">../vwidgets/global.h</text>
</a>
</g>
</g>
<!-- Node69&#45;&gt;Node74 -->
<g id="edge126" class="edge">
<title>Node69&#45;&gt;Node74</title>
<path fill="none" stroke="midnightblue" d="M923.72,-188.56C836.05,-180.31 655.65,-162.77 492.24,-143.11"/>
<polygon fill="midnightblue" stroke="midnightblue" points="492.35,-139.6 482,-141.88 491.51,-146.55 492.35,-139.6"/>
</g>
<!-- Node75 -->
<g id="node49" class="node">
<title>Node75</title>
<g id="a_node49"><a xlink:title=" ">
<polygon fill="white" stroke="#bfbfbf" points="500.5,-123.5 500.5,-142.5 659.5,-142.5 659.5,-123.5 500.5,-123.5"/>
<text text-anchor="middle" x="580" y="-130.5" font-family="Helvetica,sans-Serif" font-size="10.00">../vwidgets/vcurvepathitem.h</text>
</a>
</g>
</g>
<!-- Node69&#45;&gt;Node75 -->
<g id="edge128" class="edge">
<title>Node69&#45;&gt;Node75</title>
<path fill="none" stroke="midnightblue" d="M923.87,-185.54C852.39,-174.82 725.24,-155.77 647.19,-144.07"/>
<polygon fill="midnightblue" stroke="midnightblue" points="647.39,-140.56 636.99,-142.54 646.36,-147.48 647.39,-140.56"/>
</g>
<!-- Node70&#45;&gt;Node8 -->
<g id="edge118" class="edge">
<title>Node70&#45;&gt;Node8</title>
<path fill="none" stroke="midnightblue" d="M1055.67,-126.1C1217.82,-113.94 1574.22,-87.18 1575,-87 1610.51,-78.64 1615.3,-63.51 1651,-56 1691.5,-47.48 3012.87,-17.24 3252.07,-11.83"/>
<polygon fill="midnightblue" stroke="midnightblue" points="3252.4,-15.33 3262.32,-11.6 3252.25,-8.33 3252.4,-15.33"/>
</g>
<!-- Node70&#45;&gt;Node9 -->
<g id="edge120" class="edge">
<title>Node70&#45;&gt;Node9</title>
<path fill="none" stroke="midnightblue" d="M1009.29,-123.45C1036.02,-115.75 1074.57,-103.15 1106,-87 1127.28,-76.07 1127.46,-64.01 1150,-56 1262.58,-15.97 1633.55,-11.39 1756.23,-10.99"/>
<polygon fill="midnightblue" stroke="midnightblue" points="1756.32,-14.49 1766.31,-10.96 1756.3,-7.49 1756.32,-14.49"/>
</g>
<!-- Node70&#45;&gt;Node10 -->
<g id="edge121" class="edge">
<title>Node70&#45;&gt;Node10</title>
<path fill="none" stroke="midnightblue" d="M1055.64,-126.57C1218.75,-115.28 1581.01,-90.06 1608,-87 1621.59,-85.46 1636.23,-83.38 1649.78,-81.27"/>
<polygon fill="midnightblue" stroke="midnightblue" points="1650.57,-84.69 1659.9,-79.66 1649.47,-77.78 1650.57,-84.69"/>
</g>
<!-- Node71 -->
<g id="node45" class="node">
<title>Node71</title>
<g id="a_node45"><a xlink:title=" ">
<polygon fill="white" stroke="#bfbfbf" points="898,-62 898,-81 1014,-81 1014,-62 898,-62"/>
<text text-anchor="middle" x="956" y="-69" font-family="Helvetica,sans-Serif" font-size="10.00">QSharedDataPointer</text>
</a>
</g>
</g>
<!-- Node70&#45;&gt;Node71 -->
<g id="edge117" class="edge">
<title>Node70&#45;&gt;Node71</title>
<path fill="none" stroke="midnightblue" d="M973.99,-123.48C970.97,-114.9 966.21,-101.43 962.35,-90.48"/>
<polygon fill="midnightblue" stroke="midnightblue" points="965.63,-89.27 959,-81.01 959.03,-91.6 965.63,-89.27"/>
</g>
<!-- Node72 -->
<g id="node46" class="node">
<title>Node72</title>
<g id="a_node46"><a xlink:title=" ">
<polygon fill="white" stroke="#bfbfbf" points="1032.5,-62 1032.5,-81 1097.5,-81 1097.5,-62 1032.5,-62"/>
<text text-anchor="middle" x="1065" y="-69" font-family="Helvetica,sans-Serif" font-size="10.00">QTypeInfo</text>
</a>
</g>
</g>
<!-- Node70&#45;&gt;Node72 -->
<g id="edge119" class="edge">
<title>Node70&#45;&gt;Node72</title>
<path fill="none" stroke="midnightblue" d="M989.61,-123.48C1003.72,-113.93 1026.83,-98.31 1043.75,-86.87"/>
<polygon fill="midnightblue" stroke="midnightblue" points="1046.09,-89.51 1052.42,-81.01 1042.17,-83.71 1046.09,-89.51"/>
</g>
</g>
</svg>
