<?xml version="1.0" encoding="UTF-8" standalone="no"?>
<!DOCTYPE svg PUBLIC "-//W3C//DTD SVG 1.1//EN"
 "http://www.w3.org/Graphics/SVG/1.1/DTD/svg11.dtd">
<!-- Generated by graphviz version 2.43.0 (0)
 -->
<!-- Title: src/libs/vpatterndb Pages: 1 -->
<svg width="354pt" height="383pt"
 viewBox="0.00 0.00 354.00 383.00" xmlns="http://www.w3.org/2000/svg" xmlns:xlink="http://www.w3.org/1999/xlink">
<g id="graph0" class="graph" transform="scale(1 1) rotate(0) translate(4 379)">
<title>src/libs/vpatterndb</title>
<polygon fill="white" stroke="transparent" points="-4,4 -4,-379 350,-379 350,4 -4,4"/>
<g id="clust1" class="cluster">
<title>clusterdir_87a455bccb09a92130c26a11a880c98a</title>
<g id="a_clust1"><a xlink:href="dir_87a455bccb09a92130c26a11a880c98a.html" target="_top" xlink:title="libs">
<polygon fill="#ddddee" stroke="black" points="8,-8 8,-367 338,-367 338,-8 8,-8"/>
<text text-anchor="middle" x="173" y="-355" font-family="Helvetica,sans-Serif" font-size="10.00">libs</text>
</a>
</g>
</g>
<g id="clust2" class="cluster">
<title>clusterdir_223cdb8d508b79a19c2b95144d044f4d</title>
<g id="a_clust2"><a xlink:href="dir_223cdb8d508b79a19c2b95144d044f4d.html" target="_top">
<polygon fill="#eeeeff" stroke="black" points="48,-80 48,-204 228,-204 228,-80 48,-80"/>
</a>
</g>
</g>
<!-- dir_0b43e84fad29eea21cbcad91e99d52fe -->
<g id="node1" class="node">
<title>dir_0b43e84fad29eea21cbcad91e99d52fe</title>
<g id="a_node1"><a xlink:href="dir_0b43e84fad29eea21cbcad91e99d52fe.html" target="_top" xlink:title="qmuparser">
<polygon fill="none" stroke="black" points="288.5,-340 219.5,-340 219.5,-304 288.5,-304 288.5,-340"/>
<text text-anchor="middle" x="254" y="-319.5" font-family="Helvetica,sans-Serif" font-size="10.00">qmuparser</text>
</a>
</g>
</g>
<!-- dir_6cff1c16a5044c24e75e85aac7391f76 -->
<g id="node4" class="node">
<title>dir_6cff1c16a5044c24e75e85aac7391f76</title>
<g id="a_node4"><a xlink:href="dir_6cff1c16a5044c24e75e85aac7391f76.html" target="_top" xlink:title="vmisc">
<polygon fill="white" stroke="red" points="281,-268 227,-268 227,-232 281,-232 281,-268"/>
<text text-anchor="middle" x="254" y="-247.5" font-family="Helvetica,sans-Serif" font-size="10.00">vmisc</text>
</a>
</g>
</g>
<!-- dir_0b43e84fad29eea21cbcad91e99d52fe&#45;&gt;dir_6cff1c16a5044c24e75e85aac7391f76 -->
<g id="edge17" class="edge">
<title>dir_0b43e84fad29eea21cbcad91e99d52fe&#45;&gt;dir_6cff1c16a5044c24e75e85aac7391f76</title>
<path fill="none" stroke="black" d="M254,-303.7C254,-295.98 254,-286.71 254,-278.11"/>
<polygon fill="black" stroke="black" points="257.5,-278.1 254,-268.1 250.5,-278.1 257.5,-278.1"/>
<g id="a_edge17&#45;headlabel"><a xlink:href="dir_000014_000019.html" target="_top" xlink:title="4">
<text text-anchor="middle" x="260.34" y="-279.2" font-family="Helvetica,sans-Serif" font-size="10.00">4</text>
</a>
</g>
</g>
<!-- dir_45e7935e40ba1081fb9a668a2bba47b4 -->
<g id="node2" class="node">
<title>dir_45e7935e40ba1081fb9a668a2bba47b4</title>
<g id="a_node2"><a xlink:href="dir_45e7935e40ba1081fb9a668a2bba47b4.html" target="_top" xlink:title="vgeometry">
<polygon fill="none" stroke="black" points="328,-124 258,-124 258,-88 328,-88 328,-124"/>
<text text-anchor="middle" x="293" y="-103.5" font-family="Helvetica,sans-Serif" font-size="10.00">vgeometry</text>
</a>
</g>
</g>
<!-- dir_45e7935e40ba1081fb9a668a2bba47b4&#45;&gt;dir_0b43e84fad29eea21cbcad91e99d52fe -->
<g id="edge18" class="edge">
<title>dir_45e7935e40ba1081fb9a668a2bba47b4&#45;&gt;dir_0b43e84fad29eea21cbcad91e99d52fe</title>
<path fill="none" stroke="black" d="M298.82,-124.44C301.93,-134.67 305.43,-147.92 307,-160 309.52,-179.39 309.53,-184.61 307,-204 303.19,-233.18 302.22,-241.23 290,-268 285.68,-277.46 279.71,-287.08 273.88,-295.49"/>
<polygon fill="black" stroke="black" points="270.93,-293.59 267.92,-303.74 276.61,-297.68 270.93,-293.59"/>
<g id="a_edge18&#45;headlabel"><a xlink:href="dir_000017_000014.html" target="_top" xlink:title="2">
<text text-anchor="middle" x="270.74" y="-286.51" font-family="Helvetica,sans-Serif" font-size="10.00">2</text>
</a>
</g>
</g>
<!-- dir_45e7935e40ba1081fb9a668a2bba47b4&#45;&gt;dir_6cff1c16a5044c24e75e85aac7391f76 -->
<g id="edge19" class="edge">
<title>dir_45e7935e40ba1081fb9a668a2bba47b4&#45;&gt;dir_6cff1c16a5044c24e75e85aac7391f76</title>
<path fill="none" stroke="black" d="M298.48,-124.22C303.87,-144.22 309.85,-177.81 299,-204 295.85,-211.61 290.72,-218.6 285.03,-224.69"/>
<polygon fill="black" stroke="black" points="282.35,-222.42 277.63,-231.9 287.23,-227.43 282.35,-222.42"/>
<g id="a_edge19&#45;headlabel"><a xlink:href="dir_000017_000019.html" target="_top" xlink:title="32">
<text text-anchor="middle" x="282.94" y="-215.37" font-family="Helvetica,sans-Serif" font-size="10.00">32</text>
</a>
</g>
</g>
<!-- dir_adb9cc6631100b6c69049e067c60c42f -->
<g id="node5" class="node">
<title>dir_adb9cc6631100b6c69049e067c60c42f</title>
<g id="a_node5"><a xlink:href="dir_adb9cc6631100b6c69049e067c60c42f.html" target="_top" xlink:title="ifc">
<polygon fill="white" stroke="red" points="70,-52 16,-52 16,-16 70,-16 70,-52"/>
<text text-anchor="middle" x="43" y="-31.5" font-family="Helvetica,sans-Serif" font-size="10.00">ifc</text>
</a>
</g>
</g>
<!-- dir_45e7935e40ba1081fb9a668a2bba47b4&#45;&gt;dir_adb9cc6631100b6c69049e067c60c42f -->
<g id="edge20" class="edge">
<title>dir_45e7935e40ba1081fb9a668a2bba47b4&#45;&gt;dir_adb9cc6631100b6c69049e067c60c42f</title>
<path fill="none" stroke="black" d="M262.42,-87.92C256.43,-85 250.11,-82.2 244,-80 188.61,-60.03 121.31,-47.13 80.35,-40.47"/>
<polygon fill="black" stroke="black" points="80.7,-36.98 70.27,-38.87 79.6,-43.9 80.7,-36.98"/>
<g id="a_edge20&#45;headlabel"><a xlink:href="dir_000017_000013.html" target="_top" xlink:title="12">
<text text-anchor="middle" x="84.69" y="-32.24" font-family="Helvetica,sans-Serif" font-size="10.00">12</text>
</a>
</g>
</g>
<!-- dir_4a67e96e005fcfd63a781ee60f20496b -->
<g id="node3" class="node">
<title>dir_4a67e96e005fcfd63a781ee60f20496b</title>
<g id="a_node3"><a xlink:href="dir_4a67e96e005fcfd63a781ee60f20496b.html" target="_top" xlink:title="vlayout">
<polygon fill="none" stroke="black" points="290,-196 236,-196 236,-160 290,-160 290,-196"/>
<text text-anchor="middle" x="263" y="-175.5" font-family="Helvetica,sans-Serif" font-size="10.00">vlayout</text>
</a>
</g>
</g>
<!-- dir_4a67e96e005fcfd63a781ee60f20496b&#45;&gt;dir_45e7935e40ba1081fb9a668a2bba47b4 -->
<g id="edge2" class="edge">
<title>dir_4a67e96e005fcfd63a781ee60f20496b&#45;&gt;dir_45e7935e40ba1081fb9a668a2bba47b4</title>
<path fill="none" stroke="black" d="M270.42,-159.7C273.79,-151.81 277.87,-142.3 281.62,-133.55"/>
<polygon fill="black" stroke="black" points="284.95,-134.67 285.67,-124.1 278.51,-131.92 284.95,-134.67"/>
<g id="a_edge2&#45;headlabel"><a xlink:href="dir_000018_000017.html" target="_top" xlink:title="3">
<text text-anchor="middle" x="286.14" y="-136.6" font-family="Helvetica,sans-Serif" font-size="10.00">3</text>
</a>
</g>
</g>
<!-- dir_4a67e96e005fcfd63a781ee60f20496b&#45;&gt;dir_6cff1c16a5044c24e75e85aac7391f76 -->
<g id="edge3" class="edge">
<title>dir_4a67e96e005fcfd63a781ee60f20496b&#45;&gt;dir_6cff1c16a5044c24e75e85aac7391f76</title>
<path fill="none" stroke="black" d="M266.7,-196.1C266.51,-203.79 265.56,-213.05 264.12,-221.67"/>
<polygon fill="black" stroke="black" points="260.64,-221.21 262.14,-231.7 267.51,-222.56 260.64,-221.21"/>
<g id="a_edge3&#45;headlabel"><a xlink:href="dir_000018_000019.html" target="_top" xlink:title="22">
<text text-anchor="middle" x="258.55" y="-214.63" font-family="Helvetica,sans-Serif" font-size="10.00">22</text>
</a>
</g>
</g>
<!-- dir_4a67e96e005fcfd63a781ee60f20496b&#45;&gt;dir_adb9cc6631100b6c69049e067c60c42f -->
<g id="edge4" class="edge">
<title>dir_4a67e96e005fcfd63a781ee60f20496b&#45;&gt;dir_adb9cc6631100b6c69049e067c60c42f</title>
<path fill="none" stroke="black" d="M258.44,-159.61C251.37,-133.22 237.96,-85.53 232,-80 210.22,-59.81 128.99,-46.11 80.39,-39.52"/>
<polygon fill="black" stroke="black" points="80.63,-36.02 70.26,-38.18 79.72,-42.96 80.63,-36.02"/>
<g id="a_edge4&#45;headlabel"><a xlink:href="dir_000018_000013.html" target="_top" xlink:title="3">
<text text-anchor="middle" x="84.56" y="-31.17" font-family="Helvetica,sans-Serif" font-size="10.00">3</text>
</a>
</g>
</g>
<!-- dir_223cdb8d508b79a19c2b95144d044f4d -->
<g id="node6" class="node">
<title>dir_223cdb8d508b79a19c2b95144d044f4d</title>
<text text-anchor="middle" x="183" y="-175.5" font-family="Helvetica,sans-Serif" font-size="10.00">vpatterndb</text>
</g>
<!-- dir_4a67e96e005fcfd63a781ee60f20496b&#45;&gt;dir_223cdb8d508b79a19c2b95144d044f4d -->
<g id="edge1" class="edge">
<title>dir_4a67e96e005fcfd63a781ee60f20496b&#45;&gt;dir_223cdb8d508b79a19c2b95144d044f4d</title>
<path fill="none" stroke="black" d="M235.77,-178C233.31,-178 230.86,-178 228.4,-178"/>
<polygon fill="black" stroke="black" points="228.31,-174.5 218.31,-178 228.31,-181.5 228.31,-174.5"/>
<g id="a_edge1&#45;headlabel"><a xlink:href="dir_000018_000021.html" target="_top" xlink:title="11">
<text text-anchor="middle" x="231.91" y="-169.16" font-family="Helvetica,sans-Serif" font-size="10.00">11</text>
</a>
</g>
</g>
<!-- dir_fc60e5b36873c7f373d7dac5754b2278 -->
<g id="node7" class="node">
<title>dir_fc60e5b36873c7f373d7dac5754b2278</title>
<g id="a_node7"><a xlink:href="dir_fc60e5b36873c7f373d7dac5754b2278.html" target="_top" xlink:title="floatItemData">
<polygon fill="white" stroke="black" points="220,-124 136,-124 136,-88 220,-88 220,-124"/>
<text text-anchor="middle" x="178" y="-103.5" font-family="Helvetica,sans-Serif" font-size="10.00">floatItemData</text>
</a>
</g>
</g>
<!-- dir_4a67e96e005fcfd63a781ee60f20496b&#45;&gt;dir_fc60e5b36873c7f373d7dac5754b2278 -->
<g id="edge5" class="edge">
<title>dir_4a67e96e005fcfd63a781ee60f20496b&#45;&gt;dir_fc60e5b36873c7f373d7dac5754b2278</title>
<path fill="none" stroke="black" d="M241.99,-159.7C231.28,-150.88 218.11,-140.03 206.5,-130.47"/>
<polygon fill="black" stroke="black" points="208.71,-127.76 198.77,-124.1 204.26,-133.16 208.71,-127.76"/>
<g id="a_edge5&#45;headlabel"><a xlink:href="dir_000018_000034.html" target="_top" xlink:title="8">
<text text-anchor="middle" x="213.29" y="-125.35" font-family="Helvetica,sans-Serif" font-size="10.00">8</text>
</a>
</g>
</g>
<!-- dir_6cff1c16a5044c24e75e85aac7391f76&#45;&gt;dir_4a67e96e005fcfd63a781ee60f20496b -->
<g id="edge15" class="edge">
<title>dir_6cff1c16a5044c24e75e85aac7391f76&#45;&gt;dir_4a67e96e005fcfd63a781ee60f20496b</title>
<path fill="none" stroke="black" d="M250.31,-231.7C250.51,-223.98 251.47,-214.71 252.92,-206.11"/>
<polygon fill="black" stroke="black" points="256.39,-206.59 254.91,-196.1 249.53,-205.23 256.39,-206.59"/>
<g id="a_edge15&#45;headlabel"><a xlink:href="dir_000019_000018.html" target="_top" xlink:title="2">
<text text-anchor="middle" x="258.48" y="-208.17" font-family="Helvetica,sans-Serif" font-size="10.00">2</text>
</a>
</g>
</g>
<!-- dir_6cff1c16a5044c24e75e85aac7391f76&#45;&gt;dir_adb9cc6631100b6c69049e067c60c42f -->
<g id="edge16" class="edge">
<title>dir_6cff1c16a5044c24e75e85aac7391f76&#45;&gt;dir_adb9cc6631100b6c69049e067c60c42f</title>
<path fill="none" stroke="black" d="M226.83,-247.33C173.85,-243.22 60.63,-230.95 35,-204 -1.04,-166.11 12.62,-99.05 27.28,-61.82"/>
<polygon fill="black" stroke="black" points="30.7,-62.72 31.4,-52.15 24.26,-59.98 30.7,-62.72"/>
<g id="a_edge16&#45;headlabel"><a xlink:href="dir_000019_000013.html" target="_top" xlink:title="1">
<text text-anchor="middle" x="31.9" y="-64.64" font-family="Helvetica,sans-Serif" font-size="10.00">1</text>
</a>
</g>
</g>
<!-- dir_6cff1c16a5044c24e75e85aac7391f76&#45;&gt;dir_223cdb8d508b79a19c2b95144d044f4d -->
<g id="edge14" class="edge">
<title>dir_6cff1c16a5044c24e75e85aac7391f76&#45;&gt;dir_223cdb8d508b79a19c2b95144d044f4d</title>
<path fill="none" stroke="black" d="M242.37,-231.7C234.49,-223.05 223.91,-212.45 213.82,-203.03"/>
<polygon fill="black" stroke="black" points="215.99,-200.27 206.24,-196.1 211.26,-205.43 215.99,-200.27"/>
<g id="a_edge14&#45;headlabel"><a xlink:href="dir_000019_000021.html" target="_top" xlink:title="3">
<text text-anchor="middle" x="220.55" y="-198.1" font-family="Helvetica,sans-Serif" font-size="10.00">3</text>
</a>
</g>
</g>
<!-- dir_adb9cc6631100b6c69049e067c60c42f&#45;&gt;dir_6cff1c16a5044c24e75e85aac7391f76 -->
<g id="edge6" class="edge">
<title>dir_adb9cc6631100b6c69049e067c60c42f&#45;&gt;dir_6cff1c16a5044c24e75e85aac7391f76</title>
<path fill="none" stroke="black" d="M41.45,-52.15C33.63,-86.19 13.57,-162.54 53,-204 75.42,-227.57 164.83,-239.91 216.65,-245.39"/>
<polygon fill="black" stroke="black" points="216.49,-248.89 226.79,-246.42 217.2,-241.92 216.49,-248.89"/>
<g id="a_edge6&#45;headlabel"><a xlink:href="dir_000013_000019.html" target="_top" xlink:title="3">
<text text-anchor="middle" x="212.62" y="-248.85" font-family="Helvetica,sans-Serif" font-size="10.00">3</text>
</a>
</g>
</g>
<!-- dir_223cdb8d508b79a19c2b95144d044f4d&#45;&gt;dir_0b43e84fad29eea21cbcad91e99d52fe -->
<g id="edge7" class="edge">
<title>dir_223cdb8d508b79a19c2b95144d044f4d&#45;&gt;dir_0b43e84fad29eea21cbcad91e99d52fe</title>
<path fill="none" stroke="black" d="M188.5,-196.23C194.63,-214.53 205.37,-244.07 218,-268 222.93,-277.35 229.16,-287.05 235.05,-295.57"/>
<polygon fill="black" stroke="black" points="232.35,-297.81 240.98,-303.94 238.06,-293.76 232.35,-297.81"/>
<g id="a_edge7&#45;headlabel"><a xlink:href="dir_000021_000014.html" target="_top" xlink:title="8">
<text text-anchor="middle" x="227.95" y="-294.02" font-family="Helvetica,sans-Serif" font-size="10.00">8</text>
</a>
</g>
</g>
<!-- dir_223cdb8d508b79a19c2b95144d044f4d&#45;&gt;dir_45e7935e40ba1081fb9a668a2bba47b4 -->
<g id="edge9" class="edge">
<title>dir_223cdb8d508b79a19c2b95144d044f4d&#45;&gt;dir_45e7935e40ba1081fb9a668a2bba47b4</title>
<path fill="none" stroke="black" d="M209.91,-159.88C224.16,-150.81 241.85,-139.55 257.24,-129.76"/>
<polygon fill="black" stroke="black" points="259.43,-132.51 265.99,-124.19 255.67,-126.61 259.43,-132.51"/>
<g id="a_edge9&#45;headlabel"><a xlink:href="dir_000021_000017.html" target="_top" xlink:title="17">
<text text-anchor="middle" x="257.92" y="-134.34" font-family="Helvetica,sans-Serif" font-size="10.00">17</text>
</a>
</g>
</g>
<!-- dir_223cdb8d508b79a19c2b95144d044f4d&#45;&gt;dir_4a67e96e005fcfd63a781ee60f20496b -->
<g id="edge10" class="edge">
<title>dir_223cdb8d508b79a19c2b95144d044f4d&#45;&gt;dir_4a67e96e005fcfd63a781ee60f20496b</title>
<path fill="none" stroke="black" d="M218.31,-178C220.77,-178 223.22,-178 225.68,-178"/>
<polygon fill="black" stroke="black" points="225.77,-181.5 235.77,-178 225.77,-174.5 225.77,-181.5"/>
<g id="a_edge10&#45;headlabel"><a xlink:href="dir_000021_000018.html" target="_top" xlink:title="2">
<text text-anchor="middle" x="222.17" y="-181.84" font-family="Helvetica,sans-Serif" font-size="10.00">2</text>
</a>
</g>
</g>
<!-- dir_223cdb8d508b79a19c2b95144d044f4d&#45;&gt;dir_6cff1c16a5044c24e75e85aac7391f76 -->
<g id="edge11" class="edge">
<title>dir_223cdb8d508b79a19c2b95144d044f4d&#45;&gt;dir_6cff1c16a5044c24e75e85aac7391f76</title>
<path fill="none" stroke="black" d="M194.45,-196.1C202.29,-204.72 212.85,-215.32 222.95,-224.76"/>
<polygon fill="black" stroke="black" points="220.79,-227.53 230.53,-231.7 225.52,-222.36 220.79,-227.53"/>
<g id="a_edge11&#45;headlabel"><a xlink:href="dir_000021_000019.html" target="_top" xlink:title="26">
<text text-anchor="middle" x="216.23" y="-224.69" font-family="Helvetica,sans-Serif" font-size="10.00">26</text>
</a>
</g>
</g>
<!-- dir_223cdb8d508b79a19c2b95144d044f4d&#45;&gt;dir_adb9cc6631100b6c69049e067c60c42f -->
<g id="edge12" class="edge">
<title>dir_223cdb8d508b79a19c2b95144d044f4d&#45;&gt;dir_adb9cc6631100b6c69049e067c60c42f</title>
<path fill="none" stroke="black" d="M147.75,-161.53C146.49,-161.01 145.23,-160.5 144,-160 101.35,-142.81 74.1,-161.15 47,-124 34.16,-106.39 34.24,-81.2 36.91,-62.12"/>
<polygon fill="black" stroke="black" points="40.37,-62.67 38.6,-52.22 33.47,-61.5 40.37,-62.67"/>
<g id="a_edge12&#45;headlabel"><a xlink:href="dir_000021_000013.html" target="_top" xlink:title="7">
<text text-anchor="middle" x="42.56" y="-64.19" font-family="Helvetica,sans-Serif" font-size="10.00">7</text>
</a>
</g>
</g>
<!-- dir_223cdb8d508b79a19c2b95144d044f4d&#45;&gt;dir_fc60e5b36873c7f373d7dac5754b2278 -->
<g id="edge13" class="edge">
<title>dir_223cdb8d508b79a19c2b95144d044f4d&#45;&gt;dir_fc60e5b36873c7f373d7dac5754b2278</title>
<path fill="none" stroke="black" d="M181.76,-159.7C181.21,-151.98 180.55,-142.71 179.94,-134.11"/>
<polygon fill="black" stroke="black" points="183.43,-133.83 179.22,-124.1 176.44,-134.33 183.43,-133.83"/>
<g id="a_edge13&#45;headlabel"><a xlink:href="dir_000021_000034.html" target="_top" xlink:title="3">
<text text-anchor="middle" x="186.51" y="-134.71" font-family="Helvetica,sans-Serif" font-size="10.00">3</text>
</a>
</g>
</g>
<!-- dir_3ca4be1edb5cabe1332bbec92b525c91 -->
<g id="node8" class="node">
<title>dir_3ca4be1edb5cabe1332bbec92b525c91</title>
<g id="a_node8"><a xlink:href="dir_3ca4be1edb5cabe1332bbec92b525c91.html" target="_top" xlink:title="variables">
<polygon fill="white" stroke="black" points="118,-124 56,-124 56,-88 118,-88 118,-124"/>
<text text-anchor="middle" x="87" y="-103.5" font-family="Helvetica,sans-Serif" font-size="10.00">variables</text>
</a>
</g>
</g>
<!-- dir_223cdb8d508b79a19c2b95144d044f4d&#45;&gt;dir_3ca4be1edb5cabe1332bbec92b525c91 -->
<g id="edge8" class="edge">
<title>dir_223cdb8d508b79a19c2b95144d044f4d&#45;&gt;dir_3ca4be1edb5cabe1332bbec92b525c91</title>
<path fill="none" stroke="black" d="M159.27,-159.7C147.06,-150.8 132.01,-139.82 118.82,-130.2"/>
<polygon fill="black" stroke="black" points="120.6,-127.17 110.46,-124.1 116.48,-132.82 120.6,-127.17"/>
<g id="a_edge8&#45;headlabel"><a xlink:href="dir_000021_000035.html" target="_top" xlink:title="21">
<text text-anchor="middle" x="125.18" y="-124.49" font-family="Helvetica,sans-Serif" font-size="10.00">21</text>
</a>
</g>
</g>
</g>
</svg>
