<?xml version="1.0" encoding="UTF-8" standalone="no"?>
<!DOCTYPE svg PUBLIC "-//W3C//DTD SVG 1.1//EN"
 "http://www.w3.org/Graphics/SVG/1.1/DTD/svg11.dtd">
<!-- Generated by graphviz version 2.43.0 (0)
 -->
<!-- Title: src/libs/vtools/tools/drawTools Pages: 1 -->
<svg width="410pt" height="255pt"
 viewBox="0.00 0.00 409.50 255.00" xmlns="http://www.w3.org/2000/svg" xmlns:xlink="http://www.w3.org/1999/xlink">
<g id="graph0" class="graph" transform="scale(1 1) rotate(0) translate(4 251)">
<title>src/libs/vtools/tools/drawTools</title>
<polygon fill="white" stroke="transparent" points="-4,4 -4,-251 405.5,-251 405.5,4 -4,4"/>
<g id="clust1" class="cluster">
<title>clusterdir_93a7de65b6c5c2d2866ed2f7bf29219a</title>
<g id="a_clust1"><a xlink:href="dir_93a7de65b6c5c2d2866ed2f7bf29219a.html" target="_top" xlink:title="tools">
<polygon fill="#ddddee" stroke="black" points="8,-8 8,-239 202,-239 202,-8 8,-8"/>
<text text-anchor="middle" x="105" y="-227" font-family="Helvetica,sans-Serif" font-size="10.00">tools</text>
</a>
</g>
</g>
<g id="clust2" class="cluster">
<title>clusterdir_9b6bd0170ff56259d331a59e6a9c04fc</title>
<g id="a_clust2"><a xlink:href="dir_9b6bd0170ff56259d331a59e6a9c04fc.html" target="_top">
<polygon fill="#eeeeff" stroke="black" points="16,-16 16,-212 194,-212 194,-16 16,-16"/>
</a>
</g>
</g>
<!-- dir_9b6bd0170ff56259d331a59e6a9c04fc -->
<g id="node1" class="node">
<title>dir_9b6bd0170ff56259d331a59e6a9c04fc</title>
<text text-anchor="middle" x="153" y="-183.5" font-family="Helvetica,sans-Serif" font-size="10.00">drawTools</text>
</g>
<!-- dir_9bc22c611f90d6d2e9423cc3acfe8e0b -->
<g id="node2" class="node">
<title>dir_9bc22c611f90d6d2e9423cc3acfe8e0b</title>
<g id="a_node2"><a xlink:href="dir_9bc22c611f90d6d2e9423cc3acfe8e0b.html" target="_top" xlink:title="operation">
<polygon fill="white" stroke="red" points="185.5,-132 122.5,-132 122.5,-96 185.5,-96 185.5,-132"/>
<text text-anchor="middle" x="154" y="-111.5" font-family="Helvetica,sans-Serif" font-size="10.00">operation</text>
</a>
</g>
</g>
<!-- dir_9b6bd0170ff56259d331a59e6a9c04fc&#45;&gt;dir_9bc22c611f90d6d2e9423cc3acfe8e0b -->
<g id="edge18" class="edge">
<title>dir_9b6bd0170ff56259d331a59e6a9c04fc&#45;&gt;dir_9bc22c611f90d6d2e9423cc3acfe8e0b</title>
<path fill="none" stroke="black" d="M153.25,-167.7C153.36,-159.98 153.49,-150.71 153.61,-142.11"/>
<polygon fill="black" stroke="black" points="157.11,-142.15 153.76,-132.1 150.11,-142.05 157.11,-142.15"/>
<g id="a_edge18&#45;headlabel"><a xlink:href="dir_000043_000044.html" target="_top" xlink:title="4">
<text text-anchor="middle" x="159.9" y="-143.29" font-family="Helvetica,sans-Serif" font-size="10.00">4</text>
</a>
</g>
</g>
<!-- dir_a1dbbf4e2455ea04da13f8b7f34b2655 -->
<g id="node3" class="node">
<title>dir_a1dbbf4e2455ea04da13f8b7f34b2655</title>
<g id="a_node3"><a xlink:href="dir_a1dbbf4e2455ea04da13f8b7f34b2655.html" target="_top" xlink:title="toolcurve">
<polygon fill="white" stroke="black" points="186,-60 124,-60 124,-24 186,-24 186,-60"/>
<text text-anchor="middle" x="155" y="-39.5" font-family="Helvetica,sans-Serif" font-size="10.00">toolcurve</text>
</a>
</g>
</g>
<!-- dir_9b6bd0170ff56259d331a59e6a9c04fc&#45;&gt;dir_a1dbbf4e2455ea04da13f8b7f34b2655 -->
<g id="edge19" class="edge">
<title>dir_9b6bd0170ff56259d331a59e6a9c04fc&#45;&gt;dir_a1dbbf4e2455ea04da13f8b7f34b2655</title>
<path fill="none" stroke="black" d="M120.4,-180.23C92.42,-174.23 53.73,-160.94 35,-132 26.31,-118.57 26.27,-109.41 35,-96 52.31,-69.43 86.28,-56.09 113.67,-49.44"/>
<polygon fill="black" stroke="black" points="114.79,-52.78 123.8,-47.21 113.28,-45.94 114.79,-52.78"/>
<g id="a_edge19&#45;headlabel"><a xlink:href="dir_000043_000046.html" target="_top" xlink:title="8">
<text text-anchor="middle" x="111.89" y="-53.83" font-family="Helvetica,sans-Serif" font-size="10.00">8</text>
</a>
</g>
</g>
<!-- dir_6a3c028641a1575fc592a8b79d90d210 -->
<g id="node4" class="node">
<title>dir_6a3c028641a1575fc592a8b79d90d210</title>
<g id="a_node4"><a xlink:href="dir_6a3c028641a1575fc592a8b79d90d210.html" target="_top" xlink:title="toolpoint">
<polygon fill="white" stroke="red" points="104,-132 44,-132 44,-96 104,-96 104,-132"/>
<text text-anchor="middle" x="74" y="-111.5" font-family="Helvetica,sans-Serif" font-size="10.00">toolpoint</text>
</a>
</g>
</g>
<!-- dir_9b6bd0170ff56259d331a59e6a9c04fc&#45;&gt;dir_6a3c028641a1575fc592a8b79d90d210 -->
<g id="edge16" class="edge">
<title>dir_9b6bd0170ff56259d331a59e6a9c04fc&#45;&gt;dir_6a3c028641a1575fc592a8b79d90d210</title>
<path fill="none" stroke="black" d="M133.47,-167.7C123.62,-158.97 111.51,-148.24 100.8,-138.75"/>
<polygon fill="black" stroke="black" points="103.11,-136.12 93.3,-132.1 98.47,-141.36 103.11,-136.12"/>
<g id="a_edge16&#45;headlabel"><a xlink:href="dir_000043_000047.html" target="_top" xlink:title="25">
<text text-anchor="middle" x="107.68" y="-133.88" font-family="Helvetica,sans-Serif" font-size="10.00">25</text>
</a>
</g>
</g>
<!-- dir_24aba5d426d350688647464bdd8b2102 -->
<g id="node5" class="node">
<title>dir_24aba5d426d350688647464bdd8b2102</title>
<g id="a_node5"><a xlink:href="dir_24aba5d426d350688647464bdd8b2102.html" target="_top" xlink:title="visualization">
<polygon fill="white" stroke="red" points="288.5,-60 209.5,-60 209.5,-24 288.5,-24 288.5,-60"/>
<text text-anchor="middle" x="249" y="-39.5" font-family="Helvetica,sans-Serif" font-size="10.00">visualization</text>
</a>
</g>
</g>
<!-- dir_9b6bd0170ff56259d331a59e6a9c04fc&#45;&gt;dir_24aba5d426d350688647464bdd8b2102 -->
<g id="edge14" class="edge">
<title>dir_9b6bd0170ff56259d331a59e6a9c04fc&#45;&gt;dir_24aba5d426d350688647464bdd8b2102</title>
<path fill="none" stroke="black" d="M167.14,-167.68C175.27,-157.49 185.52,-144.24 194,-132 208.36,-111.28 223.32,-86.86 234,-68.85"/>
<polygon fill="black" stroke="black" points="237.12,-70.46 239.17,-60.07 231.08,-66.91 237.12,-70.46"/>
<g id="a_edge14&#45;headlabel"><a xlink:href="dir_000043_000055.html" target="_top" xlink:title="68">
<text text-anchor="middle" x="237.74" y="-72.5" font-family="Helvetica,sans-Serif" font-size="10.00">68</text>
</a>
</g>
</g>
<!-- dir_40cd43732585e03d4f2cc5ec85e7c710 -->
<g id="node6" class="node">
<title>dir_40cd43732585e03d4f2cc5ec85e7c710</title>
<g id="a_node6"><a xlink:href="dir_40cd43732585e03d4f2cc5ec85e7c710.html" target="_top" xlink:title="undocommands">
<polygon fill="white" stroke="red" points="401.5,-60 306.5,-60 306.5,-24 401.5,-24 401.5,-60"/>
<text text-anchor="middle" x="354" y="-39.5" font-family="Helvetica,sans-Serif" font-size="10.00">undocommands</text>
</a>
</g>
</g>
<!-- dir_9b6bd0170ff56259d331a59e6a9c04fc&#45;&gt;dir_40cd43732585e03d4f2cc5ec85e7c710 -->
<g id="edge15" class="edge">
<title>dir_9b6bd0170ff56259d331a59e6a9c04fc&#45;&gt;dir_40cd43732585e03d4f2cc5ec85e7c710</title>
<path fill="none" stroke="black" d="M185.79,-185.45C227.57,-184.12 299.02,-175.13 338,-132 353.01,-115.39 356.26,-89.67 356.2,-70.14"/>
<polygon fill="black" stroke="black" points="359.69,-69.91 355.88,-60.03 352.7,-70.14 359.69,-69.91"/>
<g id="a_edge15&#45;headlabel"><a xlink:href="dir_000043_000053.html" target="_top" xlink:title="14">
<text text-anchor="middle" x="362.65" y="-70.92" font-family="Helvetica,sans-Serif" font-size="10.00">14</text>
</a>
</g>
</g>
<!-- dir_8784069e3db88429259ac6c2c4d6aa45 -->
<g id="node7" class="node">
<title>dir_8784069e3db88429259ac6c2c4d6aa45</title>
<g id="a_node7"><a xlink:href="dir_8784069e3db88429259ac6c2c4d6aa45.html" target="_top" xlink:title="dialogs">
<polygon fill="white" stroke="red" points="296,-132 242,-132 242,-96 296,-96 296,-132"/>
<text text-anchor="middle" x="269" y="-111.5" font-family="Helvetica,sans-Serif" font-size="10.00">dialogs</text>
</a>
</g>
</g>
<!-- dir_9b6bd0170ff56259d331a59e6a9c04fc&#45;&gt;dir_8784069e3db88429259ac6c2c4d6aa45 -->
<g id="edge17" class="edge">
<title>dir_9b6bd0170ff56259d331a59e6a9c04fc&#45;&gt;dir_8784069e3db88429259ac6c2c4d6aa45</title>
<path fill="none" stroke="black" d="M181.38,-167.88C196.88,-158.52 216.25,-146.83 232.83,-136.83"/>
<polygon fill="black" stroke="black" points="234.96,-139.63 241.71,-131.47 231.34,-133.64 234.96,-139.63"/>
<g id="a_edge17&#45;headlabel"><a xlink:href="dir_000043_000038.html" target="_top" xlink:title="68">
<text text-anchor="middle" x="233.35" y="-141.42" font-family="Helvetica,sans-Serif" font-size="10.00">68</text>
</a>
</g>
</g>
<!-- dir_9bc22c611f90d6d2e9423cc3acfe8e0b&#45;&gt;dir_24aba5d426d350688647464bdd8b2102 -->
<g id="edge1" class="edge">
<title>dir_9bc22c611f90d6d2e9423cc3acfe8e0b&#45;&gt;dir_24aba5d426d350688647464bdd8b2102</title>
<path fill="none" stroke="black" d="M177.48,-95.7C189.56,-86.8 204.45,-75.82 217.52,-66.2"/>
<polygon fill="black" stroke="black" points="219.81,-68.85 225.79,-60.1 215.66,-63.22 219.81,-68.85"/>
<g id="a_edge1&#45;headlabel"><a xlink:href="dir_000044_000055.html" target="_top" xlink:title="8">
<text text-anchor="middle" x="218.6" y="-70.77" font-family="Helvetica,sans-Serif" font-size="10.00">8</text>
</a>
</g>
</g>
<!-- dir_9bc22c611f90d6d2e9423cc3acfe8e0b&#45;&gt;dir_40cd43732585e03d4f2cc5ec85e7c710 -->
<g id="edge2" class="edge">
<title>dir_9bc22c611f90d6d2e9423cc3acfe8e0b&#45;&gt;dir_40cd43732585e03d4f2cc5ec85e7c710</title>
<path fill="none" stroke="black" d="M185.76,-100C215.46,-89.05 260.35,-73.27 296.34,-61.08"/>
<polygon fill="black" stroke="black" points="297.87,-64.26 306.23,-57.75 295.64,-57.63 297.87,-64.26"/>
<g id="a_edge2&#45;headlabel"><a xlink:href="dir_000044_000053.html" target="_top" xlink:title="2">
<text text-anchor="middle" x="295.37" y="-65.6" font-family="Helvetica,sans-Serif" font-size="10.00">2</text>
</a>
</g>
</g>
<!-- dir_9bc22c611f90d6d2e9423cc3acfe8e0b&#45;&gt;dir_8784069e3db88429259ac6c2c4d6aa45 -->
<g id="edge3" class="edge">
<title>dir_9bc22c611f90d6d2e9423cc3acfe8e0b&#45;&gt;dir_8784069e3db88429259ac6c2c4d6aa45</title>
<path fill="none" stroke="black" d="M185.89,-114C201.16,-114 216.43,-114 231.7,-114"/>
<polygon fill="black" stroke="black" points="231.73,-117.5 241.73,-114 231.73,-110.5 231.73,-117.5"/>
<g id="a_edge3&#45;headlabel"><a xlink:href="dir_000044_000038.html" target="_top" xlink:title="8">
<text text-anchor="middle" x="228.14" y="-117.84" font-family="Helvetica,sans-Serif" font-size="10.00">8</text>
</a>
</g>
</g>
<!-- dir_a1dbbf4e2455ea04da13f8b7f34b2655&#45;&gt;dir_24aba5d426d350688647464bdd8b2102 -->
<g id="edge8" class="edge">
<title>dir_a1dbbf4e2455ea04da13f8b7f34b2655&#45;&gt;dir_24aba5d426d350688647464bdd8b2102</title>
<path fill="none" stroke="black" d="M186.21,-42C190.53,-42 194.86,-42 199.18,-42"/>
<polygon fill="black" stroke="black" points="199.27,-45.5 209.27,-42 199.27,-38.5 199.27,-45.5"/>
<g id="a_edge8&#45;headlabel"><a xlink:href="dir_000046_000055.html" target="_top" xlink:title="16">
<text text-anchor="middle" x="195.67" y="-45.84" font-family="Helvetica,sans-Serif" font-size="10.00">16</text>
</a>
</g>
</g>
<!-- dir_a1dbbf4e2455ea04da13f8b7f34b2655&#45;&gt;dir_40cd43732585e03d4f2cc5ec85e7c710 -->
<g id="edge9" class="edge">
<title>dir_a1dbbf4e2455ea04da13f8b7f34b2655&#45;&gt;dir_40cd43732585e03d4f2cc5ec85e7c710</title>
<path fill="none" stroke="black" d="M175.83,-60.08C185.29,-67.13 197.03,-74.38 209,-78 242.6,-88.17 253.98,-86.68 288,-78 298.64,-75.29 309.41,-70.47 319.08,-65.23"/>
<polygon fill="black" stroke="black" points="321.05,-68.13 327.98,-60.12 317.56,-62.06 321.05,-68.13"/>
<g id="a_edge9&#45;headlabel"><a xlink:href="dir_000046_000053.html" target="_top" xlink:title="3">
<text text-anchor="middle" x="319.34" y="-69.89" font-family="Helvetica,sans-Serif" font-size="10.00">3</text>
</a>
</g>
</g>
<!-- dir_a1dbbf4e2455ea04da13f8b7f34b2655&#45;&gt;dir_8784069e3db88429259ac6c2c4d6aa45 -->
<g id="edge10" class="edge">
<title>dir_a1dbbf4e2455ea04da13f8b7f34b2655&#45;&gt;dir_8784069e3db88429259ac6c2c4d6aa45</title>
<path fill="none" stroke="black" d="M183.01,-60.2C198.18,-69.51 217.08,-81.12 233.29,-91.07"/>
<polygon fill="black" stroke="black" points="231.63,-94.16 241.98,-96.41 235.29,-88.2 231.63,-94.16"/>
<g id="a_edge10&#45;headlabel"><a xlink:href="dir_000046_000038.html" target="_top" xlink:title="14">
<text text-anchor="middle" x="227.08" y="-92.2" font-family="Helvetica,sans-Serif" font-size="10.00">14</text>
</a>
</g>
</g>
<!-- dir_6a3c028641a1575fc592a8b79d90d210&#45;&gt;dir_a1dbbf4e2455ea04da13f8b7f34b2655 -->
<g id="edge7" class="edge">
<title>dir_6a3c028641a1575fc592a8b79d90d210&#45;&gt;dir_a1dbbf4e2455ea04da13f8b7f34b2655</title>
<path fill="none" stroke="black" d="M94.02,-95.7C104.13,-86.97 116.54,-76.24 127.52,-66.75"/>
<polygon fill="black" stroke="black" points="129.93,-69.29 135.21,-60.1 125.35,-63.99 129.93,-69.29"/>
<g id="a_edge7&#45;headlabel"><a xlink:href="dir_000047_000046.html" target="_top" xlink:title="1">
<text text-anchor="middle" x="129.07" y="-71.29" font-family="Helvetica,sans-Serif" font-size="10.00">1</text>
</a>
</g>
</g>
<!-- dir_6a3c028641a1575fc592a8b79d90d210&#45;&gt;dir_24aba5d426d350688647464bdd8b2102 -->
<g id="edge4" class="edge">
<title>dir_6a3c028641a1575fc592a8b79d90d210&#45;&gt;dir_24aba5d426d350688647464bdd8b2102</title>
<path fill="none" stroke="black" d="M103.59,-96.17C103.73,-96.11 103.86,-96.06 104,-96 135.43,-83.03 171.28,-69.1 199.57,-58.77"/>
<polygon fill="black" stroke="black" points="201.03,-61.97 209.24,-55.28 198.65,-55.38 201.03,-61.97"/>
<g id="a_edge4&#45;headlabel"><a xlink:href="dir_000047_000055.html" target="_top" xlink:title="42">
<text text-anchor="middle" x="198.61" y="-63.36" font-family="Helvetica,sans-Serif" font-size="10.00">42</text>
</a>
</g>
</g>
<!-- dir_6a3c028641a1575fc592a8b79d90d210&#45;&gt;dir_40cd43732585e03d4f2cc5ec85e7c710 -->
<g id="edge5" class="edge">
<title>dir_6a3c028641a1575fc592a8b79d90d210&#45;&gt;dir_40cd43732585e03d4f2cc5ec85e7c710</title>
<path fill="none" stroke="black" d="M104.42,-98.99C107.29,-97.9 110.18,-96.88 113,-96 189.6,-72.12 214.27,-79.33 296.44,-59.98"/>
<polygon fill="black" stroke="black" points="297.3,-63.37 306.2,-57.62 295.66,-56.57 297.3,-63.37"/>
<g id="a_edge5&#45;headlabel"><a xlink:href="dir_000047_000053.html" target="_top" xlink:title="7">
<text text-anchor="middle" x="294.47" y="-64.48" font-family="Helvetica,sans-Serif" font-size="10.00">7</text>
</a>
</g>
</g>
<!-- dir_6a3c028641a1575fc592a8b79d90d210&#45;&gt;dir_8784069e3db88429259ac6c2c4d6aa45 -->
<g id="edge6" class="edge">
<title>dir_6a3c028641a1575fc592a8b79d90d210&#45;&gt;dir_8784069e3db88429259ac6c2c4d6aa45</title>
<path fill="none" stroke="black" d="M92.42,-132.24C100.74,-139.22 111.13,-146.38 122,-150 162.9,-163.63 177.97,-163.23 219,-150 226.87,-147.46 234.55,-143.17 241.44,-138.42"/>
<polygon fill="black" stroke="black" points="243.78,-141.04 249.69,-132.25 239.58,-135.43 243.78,-141.04"/>
<g id="a_edge6&#45;headlabel"><a xlink:href="dir_000047_000038.html" target="_top" xlink:title="44">
<text text-anchor="middle" x="242.6" y="-142.97" font-family="Helvetica,sans-Serif" font-size="10.00">44</text>
</a>
</g>
</g>
<!-- dir_24aba5d426d350688647464bdd8b2102&#45;&gt;dir_6a3c028641a1575fc592a8b79d90d210 -->
<g id="edge20" class="edge">
<title>dir_24aba5d426d350688647464bdd8b2102&#45;&gt;dir_6a3c028641a1575fc592a8b79d90d210</title>
<path fill="none" stroke="black" d="M211.66,-60.1C186.25,-70.27 152.1,-83.58 122,-96 119.22,-97.15 116.34,-98.36 113.43,-99.58"/>
<polygon fill="black" stroke="black" points="111.95,-96.41 104.07,-103.49 114.65,-102.87 111.95,-96.41"/>
<g id="a_edge20&#45;headlabel"><a xlink:href="dir_000055_000047.html" target="_top" xlink:title="15">
<text text-anchor="middle" x="114.17" y="-89.9" font-family="Helvetica,sans-Serif" font-size="10.00">15</text>
</a>
</g>
</g>
<!-- dir_40cd43732585e03d4f2cc5ec85e7c710&#45;&gt;dir_9b6bd0170ff56259d331a59e6a9c04fc -->
<g id="edge21" class="edge">
<title>dir_40cd43732585e03d4f2cc5ec85e7c710&#45;&gt;dir_9b6bd0170ff56259d331a59e6a9c04fc</title>
<path fill="none" stroke="black" d="M348.76,-60.18C341.83,-80.14 327.77,-112.76 305,-132 273.89,-158.28 228.94,-171.82 195.99,-178.6"/>
<polygon fill="black" stroke="black" points="194.91,-175.25 185.75,-180.57 196.23,-182.12 194.91,-175.25"/>
<g id="a_edge21&#45;headlabel"><a xlink:href="dir_000053_000043.html" target="_top" xlink:title="2">
<text text-anchor="middle" x="197.9" y="-169.28" font-family="Helvetica,sans-Serif" font-size="10.00">2</text>
</a>
</g>
</g>
<!-- dir_40cd43732585e03d4f2cc5ec85e7c710&#45;&gt;dir_9bc22c611f90d6d2e9423cc3acfe8e0b -->
<g id="edge22" class="edge">
<title>dir_40cd43732585e03d4f2cc5ec85e7c710&#45;&gt;dir_9bc22c611f90d6d2e9423cc3acfe8e0b</title>
<path fill="none" stroke="black" d="M311.13,-60.07C276.86,-72.52 229.24,-89.12 195.37,-100.39"/>
<polygon fill="black" stroke="black" points="194.16,-97.1 185.76,-103.56 196.35,-103.75 194.16,-97.1"/>
<g id="a_edge22&#45;headlabel"><a xlink:href="dir_000053_000044.html" target="_top" xlink:title="1">
<text text-anchor="middle" x="196.68" y="-90.78" font-family="Helvetica,sans-Serif" font-size="10.00">1</text>
</a>
</g>
</g>
<!-- dir_40cd43732585e03d4f2cc5ec85e7c710&#45;&gt;dir_a1dbbf4e2455ea04da13f8b7f34b2655 -->
<g id="edge23" class="edge">
<title>dir_40cd43732585e03d4f2cc5ec85e7c710&#45;&gt;dir_a1dbbf4e2455ea04da13f8b7f34b2655</title>
<path fill="none" stroke="black" d="M327.98,-60.12C316.31,-67.18 302.04,-74.42 288,-78 253.98,-86.68 242.6,-88.17 209,-78 200.4,-75.4 191.91,-70.92 184.31,-65.99"/>
<polygon fill="black" stroke="black" points="186.03,-62.92 175.83,-60.08 182.03,-68.67 186.03,-62.92"/>
<g id="a_edge23&#45;headlabel"><a xlink:href="dir_000053_000046.html" target="_top" xlink:title="1">
<text text-anchor="middle" x="190.6" y="-60.15" font-family="Helvetica,sans-Serif" font-size="10.00">1</text>
</a>
</g>
</g>
<!-- dir_8784069e3db88429259ac6c2c4d6aa45&#45;&gt;dir_9bc22c611f90d6d2e9423cc3acfe8e0b -->
<g id="edge13" class="edge">
<title>dir_8784069e3db88429259ac6c2c4d6aa45&#45;&gt;dir_9bc22c611f90d6d2e9423cc3acfe8e0b</title>
<path fill="none" stroke="black" d="M241.73,-114C226.46,-114 211.2,-114 195.93,-114"/>
<polygon fill="black" stroke="black" points="195.89,-110.5 185.89,-114 195.89,-117.5 195.89,-110.5"/>
<g id="a_edge13&#45;headlabel"><a xlink:href="dir_000038_000044.html" target="_top" xlink:title="5">
<text text-anchor="middle" x="199.49" y="-105.16" font-family="Helvetica,sans-Serif" font-size="10.00">5</text>
</a>
</g>
</g>
<!-- dir_8784069e3db88429259ac6c2c4d6aa45&#45;&gt;dir_24aba5d426d350688647464bdd8b2102 -->
<g id="edge11" class="edge">
<title>dir_8784069e3db88429259ac6c2c4d6aa45&#45;&gt;dir_24aba5d426d350688647464bdd8b2102</title>
<path fill="none" stroke="black" d="M264.06,-95.7C261.83,-87.9 259.15,-78.51 256.67,-69.83"/>
<polygon fill="black" stroke="black" points="260,-68.76 253.89,-60.1 253.27,-70.68 260,-68.76"/>
<g id="a_edge11&#45;headlabel"><a xlink:href="dir_000038_000055.html" target="_top" xlink:title="71">
<text text-anchor="middle" x="263.72" y="-68.93" font-family="Helvetica,sans-Serif" font-size="10.00">71</text>
</a>
</g>
</g>
<!-- dir_8784069e3db88429259ac6c2c4d6aa45&#45;&gt;dir_40cd43732585e03d4f2cc5ec85e7c710 -->
<g id="edge12" class="edge">
<title>dir_8784069e3db88429259ac6c2c4d6aa45&#45;&gt;dir_40cd43732585e03d4f2cc5ec85e7c710</title>
<path fill="none" stroke="black" d="M290.01,-95.7C300.72,-86.88 313.89,-76.03 325.5,-66.47"/>
<polygon fill="black" stroke="black" points="327.74,-69.16 333.23,-60.1 323.29,-63.76 327.74,-69.16"/>
<g id="a_edge12&#45;headlabel"><a xlink:href="dir_000038_000053.html" target="_top" xlink:title="1">
<text text-anchor="middle" x="326.77" y="-71.14" font-family="Helvetica,sans-Serif" font-size="10.00">1</text>
</a>
</g>
</g>
</g>
</svg>
