<?xml version="1.0" encoding="UTF-8" standalone="no"?>
<!DOCTYPE svg PUBLIC "-//W3C//DTD SVG 1.1//EN"
 "http://www.w3.org/Graphics/SVG/1.1/DTD/svg11.dtd">
<!-- Generated by graphviz version 2.43.0 (0)
 -->
<!-- Title: src/app/seamly2d Pages: 1 -->
<svg width="248pt" height="255pt"
 viewBox="0.00 0.00 248.00 255.00" xmlns="http://www.w3.org/2000/svg" xmlns:xlink="http://www.w3.org/1999/xlink">
<g id="graph0" class="graph" transform="scale(1 1) rotate(0) translate(4 251)">
<title>src/app/seamly2d</title>
<polygon fill="white" stroke="transparent" points="-4,4 -4,-251 244,-251 244,4 -4,4"/>
<g id="clust1" class="cluster">
<title>clusterdir_5194e5fea318fda12687127c23f8aba1</title>
<g id="a_clust1"><a xlink:href="dir_5194e5fea318fda12687127c23f8aba1.html" target="_top" xlink:title="app">
<polygon fill="#ddddee" stroke="black" points="8,-8 8,-239 178,-239 178,-8 8,-8"/>
<text text-anchor="middle" x="93" y="-227" font-family="Helvetica,sans-Serif" font-size="10.00">app</text>
</a>
</g>
</g>
<g id="clust2" class="cluster">
<title>clusterdir_ae5dd9defefe3c74d512678fc1a876cc</title>
<g id="a_clust2"><a xlink:href="dir_ae5dd9defefe3c74d512678fc1a876cc.html" target="_top">
<polygon fill="#eeeeff" stroke="black" points="16,-16 16,-212 170,-212 170,-16 16,-16"/>
</a>
</g>
</g>
<!-- dir_ae5dd9defefe3c74d512678fc1a876cc -->
<g id="node1" class="node">
<title>dir_ae5dd9defefe3c74d512678fc1a876cc</title>
<text text-anchor="middle" x="129" y="-183.5" font-family="Helvetica,sans-Serif" font-size="10.00">seamly2d</text>
</g>
<!-- dir_e83d8c2e3e50889a02889b58f7b170a9 -->
<g id="node2" class="node">
<title>dir_e83d8c2e3e50889a02889b58f7b170a9</title>
<g id="a_node2"><a xlink:href="dir_e83d8c2e3e50889a02889b58f7b170a9.html" target="_top" xlink:title="core">
<polygon fill="white" stroke="black" points="78,-204 24,-204 24,-168 78,-168 78,-204"/>
<text text-anchor="middle" x="51" y="-183.5" font-family="Helvetica,sans-Serif" font-size="10.00">core</text>
</a>
</g>
</g>
<!-- dir_97d355521c4cf933b349974c8906fc73 -->
<g id="node3" class="node">
<title>dir_97d355521c4cf933b349974c8906fc73</title>
<g id="a_node3"><a xlink:href="dir_97d355521c4cf933b349974c8906fc73.html" target="_top" xlink:title="dialogs">
<polygon fill="white" stroke="red" points="78,-132 24,-132 24,-96 78,-96 78,-132"/>
<text text-anchor="middle" x="51" y="-111.5" font-family="Helvetica,sans-Serif" font-size="10.00">dialogs</text>
</a>
</g>
</g>
<!-- dir_e83d8c2e3e50889a02889b58f7b170a9&#45;&gt;dir_97d355521c4cf933b349974c8906fc73 -->
<g id="edge5" class="edge">
<title>dir_e83d8c2e3e50889a02889b58f7b170a9&#45;&gt;dir_97d355521c4cf933b349974c8906fc73</title>
<path fill="none" stroke="black" d="M45.08,-167.7C44.29,-159.98 44.06,-150.71 44.4,-142.11"/>
<polygon fill="black" stroke="black" points="47.9,-142.32 45.1,-132.1 40.92,-141.84 47.9,-142.32"/>
<g id="a_edge5&#45;headlabel"><a xlink:href="dir_000003_000004.html" target="_top" xlink:title="2">
<text text-anchor="middle" x="50.48" y="-143.61" font-family="Helvetica,sans-Serif" font-size="10.00">2</text>
</a>
</g>
</g>
<!-- dir_87a455bccb09a92130c26a11a880c98a -->
<g id="node5" class="node">
<title>dir_87a455bccb09a92130c26a11a880c98a</title>
<g id="a_node5"><a xlink:href="dir_87a455bccb09a92130c26a11a880c98a.html" target="_top" xlink:title="libs">
<polygon fill="white" stroke="red" points="240,-132 186,-132 186,-96 240,-96 240,-132"/>
<text text-anchor="middle" x="213" y="-111.5" font-family="Helvetica,sans-Serif" font-size="10.00">libs</text>
</a>
</g>
</g>
<!-- dir_e83d8c2e3e50889a02889b58f7b170a9&#45;&gt;dir_87a455bccb09a92130c26a11a880c98a -->
<g id="edge4" class="edge">
<title>dir_e83d8c2e3e50889a02889b58f7b170a9&#45;&gt;dir_87a455bccb09a92130c26a11a880c98a</title>
<path fill="none" stroke="black" d="M78.03,-172.45C81.38,-170.93 84.76,-169.42 88,-168 125.94,-151.35 135.9,-148.28 174,-132 174.83,-131.64 175.67,-131.28 176.52,-130.92"/>
<polygon fill="black" stroke="black" points="177.95,-134.12 185.75,-126.94 175.18,-127.69 177.95,-134.12"/>
<g id="a_edge4&#45;headlabel"><a xlink:href="dir_000003_000007.html" target="_top" xlink:title="1">
<text text-anchor="middle" x="175.78" y="-135.65" font-family="Helvetica,sans-Serif" font-size="10.00">1</text>
</a>
</g>
</g>
<!-- dir_97d355521c4cf933b349974c8906fc73&#45;&gt;dir_e83d8c2e3e50889a02889b58f7b170a9 -->
<g id="edge3" class="edge">
<title>dir_97d355521c4cf933b349974c8906fc73&#45;&gt;dir_e83d8c2e3e50889a02889b58f7b170a9</title>
<path fill="none" stroke="black" d="M56.9,-132.1C57.7,-139.79 57.94,-149.05 57.6,-157.67"/>
<polygon fill="black" stroke="black" points="54.11,-157.48 56.92,-167.7 61.09,-157.96 54.11,-157.48"/>
<g id="a_edge3&#45;headlabel"><a xlink:href="dir_000004_000003.html" target="_top" xlink:title="16">
<text text-anchor="middle" x="51.52" y="-151.2" font-family="Helvetica,sans-Serif" font-size="10.00">16</text>
</a>
</g>
</g>
<!-- dir_4a806acb29bd472c75b3989df6527801 -->
<g id="node4" class="node">
<title>dir_4a806acb29bd472c75b3989df6527801</title>
<g id="a_node4"><a xlink:href="dir_4a806acb29bd472c75b3989df6527801.html" target="_top" xlink:title="xml">
<polygon fill="white" stroke="black" points="101,-60 47,-60 47,-24 101,-24 101,-60"/>
<text text-anchor="middle" x="74" y="-39.5" font-family="Helvetica,sans-Serif" font-size="10.00">xml</text>
</a>
</g>
</g>
<!-- dir_97d355521c4cf933b349974c8906fc73&#45;&gt;dir_4a806acb29bd472c75b3989df6527801 -->
<g id="edge2" class="edge">
<title>dir_97d355521c4cf933b349974c8906fc73&#45;&gt;dir_4a806acb29bd472c75b3989df6527801</title>
<path fill="none" stroke="black" d="M56.69,-95.7C59.25,-87.9 62.33,-78.51 65.18,-69.83"/>
<polygon fill="black" stroke="black" points="68.58,-70.7 68.38,-60.1 61.93,-68.51 68.58,-70.7"/>
<g id="a_edge2&#45;headlabel"><a xlink:href="dir_000004_000028.html" target="_top" xlink:title="5">
<text text-anchor="middle" x="70.16" y="-72.5" font-family="Helvetica,sans-Serif" font-size="10.00">5</text>
</a>
</g>
</g>
<!-- dir_4a806acb29bd472c75b3989df6527801&#45;&gt;dir_e83d8c2e3e50889a02889b58f7b170a9 -->
<g id="edge1" class="edge">
<title>dir_4a806acb29bd472c75b3989df6527801&#45;&gt;dir_e83d8c2e3e50889a02889b58f7b170a9</title>
<path fill="none" stroke="black" d="M80.86,-60.07C87.17,-78.24 94.48,-107.67 87,-132 83.99,-141.78 78.49,-151.38 72.68,-159.67"/>
<polygon fill="black" stroke="black" points="69.81,-157.67 66.61,-167.77 75.41,-161.87 69.81,-157.67"/>
<g id="a_edge1&#45;headlabel"><a xlink:href="dir_000028_000003.html" target="_top" xlink:title="1">
<text text-anchor="middle" x="69.69" y="-150.59" font-family="Helvetica,sans-Serif" font-size="10.00">1</text>
</a>
</g>
</g>
</g>
</svg>
