<?xml version="1.0" encoding="UTF-8" standalone="no"?>
<!DOCTYPE svg PUBLIC "-//W3C//DTD SVG 1.1//EN"
 "http://www.w3.org/Graphics/SVG/1.1/DTD/svg11.dtd">
<!-- Generated by graphviz version 2.43.0 (0)
 -->
<!-- Title: Graphical Class Hierarchy Pages: 1 -->
<svg width="420pt" height="66pt"
 viewBox="0.00 0.00 420.00 66.00" xmlns="http://www.w3.org/2000/svg" xmlns:xlink="http://www.w3.org/1999/xlink">
<g id="graph0" class="graph" transform="scale(1 1) rotate(0) translate(4 62)">
<title>Graphical Class Hierarchy</title>
<polygon fill="white" stroke="transparent" points="-4,4 -4,-62 416,-62 416,4 -4,4"/>
<!-- Node0 -->
<g id="node1" class="node">
<title>Node0</title>
<g id="a_node1"><a xlink:href="d4/dc0/classVAbstractFloatItemData.html" target="_top" xlink:title=" ">
<polygon fill="white" stroke="black" points="0,-19.5 0,-38.5 134,-38.5 134,-19.5 0,-19.5"/>
<text text-anchor="middle" x="67" y="-26.5" font-family="Helvetica,sans-Serif" font-size="10.00">VAbstractFloatItemData</text>
</a>
</g>
</g>
<!-- Node1 -->
<g id="node2" class="node">
<title>Node1</title>
<g id="a_node2"><a xlink:href="da/d7f/classVGrainlineData.html" target="_top" xlink:title="The VGrainlineData class holds information about a grainline like position, size, rotation and visibi...">
<polygon fill="white" stroke="black" points="178,-38.5 178,-57.5 269,-57.5 269,-38.5 178,-38.5"/>
<text text-anchor="middle" x="223.5" y="-45.5" font-family="Helvetica,sans-Serif" font-size="10.00">VGrainlineData</text>
</a>
</g>
</g>
<!-- Node0&#45;&gt;Node1 -->
<g id="edge1" class="edge">
<title>Node0&#45;&gt;Node1</title>
<path fill="none" stroke="midnightblue" d="M144.48,-38.41C155.97,-39.82 167.48,-41.23 177.99,-42.53"/>
<polygon fill="midnightblue" stroke="midnightblue" points="144.77,-34.91 134.42,-37.17 143.92,-41.86 144.77,-34.91"/>
</g>
<!-- Node2 -->
<g id="node3" class="node">
<title>Node2</title>
<g id="a_node3"><a xlink:href="df/da3/classVPatternLabelData.html" target="_top" xlink:title="The VPatternLabelData class holds the information about pattern info label geometry.">
<polygon fill="white" stroke="black" points="170,-0.5 170,-19.5 277,-19.5 277,-0.5 170,-0.5"/>
<text text-anchor="middle" x="223.5" y="-7.5" font-family="Helvetica,sans-Serif" font-size="10.00">VPatternLabelData</text>
</a>
</g>
</g>
<!-- Node0&#45;&gt;Node2 -->
<g id="edge2" class="edge">
<title>Node0&#45;&gt;Node2</title>
<path fill="none" stroke="midnightblue" d="M144.41,-19.6C152.95,-18.55 161.5,-17.5 169.65,-16.5"/>
<polygon fill="midnightblue" stroke="midnightblue" points="143.92,-16.14 134.42,-20.83 144.77,-23.09 143.92,-16.14"/>
</g>
<!-- Node3 -->
<g id="node4" class="node">
<title>Node3</title>
<g id="a_node4"><a xlink:href="de/d3b/classVPieceLabelData.html" target="_top" xlink:title="The VPieceLabelData class holds some information about a single piece like letter,...">
<polygon fill="white" stroke="black" points="313,-0.5 313,-19.5 412,-19.5 412,-0.5 313,-0.5"/>
<text text-anchor="middle" x="362.5" y="-7.5" font-family="Helvetica,sans-Serif" font-size="10.00">VPieceLabelData</text>
</a>
</g>
</g>
<!-- Node2&#45;&gt;Node3 -->
<g id="edge3" class="edge">
<title>Node2&#45;&gt;Node3</title>
<path fill="none" stroke="midnightblue" d="M287.13,-10C295.78,-10 304.55,-10 312.89,-10"/>
<polygon fill="midnightblue" stroke="midnightblue" points="287.08,-6.5 277.08,-10 287.08,-13.5 287.08,-6.5"/>
</g>
</g>
</svg>
