<?xml version="1.0" encoding="UTF-8" standalone="no"?>
<!DOCTYPE svg PUBLIC "-//W3C//DTD SVG 1.1//EN"
 "http://www.w3.org/Graphics/SVG/1.1/DTD/svg11.dtd">
<!-- Generated by graphviz version 2.43.0 (0)
 -->
<!-- Title: src/libs/xerces&#45;c/mingw/include/xercesc/validators/schema/XSDDOMParser.hpp Pages: 1 -->
<svg width="551pt" height="117pt"
 viewBox="0.00 0.00 551.00 117.00" xmlns="http://www.w3.org/2000/svg" xmlns:xlink="http://www.w3.org/1999/xlink">
<g id="graph0" class="graph" transform="scale(1 1) rotate(0) translate(4 113)">
<title>src/libs/xerces&#45;c/mingw/include/xercesc/validators/schema/XSDDOMParser.hpp</title>
<polygon fill="white" stroke="transparent" points="-4,4 -4,-113 547,-113 547,4 -4,4"/>
<!-- Node1 -->
<g id="node1" class="node">
<title>Node1</title>
<g id="a_node1"><a xlink:title=" ">
<polygon fill="#bfbfbf" stroke="black" points="227,-67.5 227,-108.5 382,-108.5 382,-67.5 227,-67.5"/>
<text text-anchor="start" x="235" y="-96.5" font-family="Helvetica,sans-Serif" font-size="10.00">src/libs/xerces&#45;c/mingw</text>
<text text-anchor="start" x="235" y="-85.5" font-family="Helvetica,sans-Serif" font-size="10.00">/include/xercesc/validators</text>
<text text-anchor="middle" x="304.5" y="-74.5" font-family="Helvetica,sans-Serif" font-size="10.00">/schema/XSDDOMParser.hpp</text>
</a>
</g>
</g>
<!-- Node2 -->
<g id="node2" class="node">
<title>Node2</title>
<g id="a_node2"><a xlink:title=" ">
<polygon fill="white" stroke="#bfbfbf" points="0,-6 0,-25 203,-25 203,-6 0,-6"/>
<text text-anchor="middle" x="101.5" y="-13" font-family="Helvetica,sans-Serif" font-size="10.00">xercesc/parsers/XercesDOMParser.hpp</text>
</a>
</g>
</g>
<!-- Node1&#45;&gt;Node2 -->
<g id="edge1" class="edge">
<title>Node1&#45;&gt;Node2</title>
<path fill="none" stroke="midnightblue" d="M248.22,-67.46C212.17,-54.93 166.55,-39.09 135.82,-28.42"/>
<polygon fill="midnightblue" stroke="midnightblue" points="136.61,-24.99 126.01,-25.01 134.31,-31.6 136.61,-24.99"/>
</g>
<!-- Node3 -->
<g id="node3" class="node">
<title>Node3</title>
<g id="a_node3"><a xlink:title=" ">
<polygon fill="white" stroke="#bfbfbf" points="221,-0.5 221,-30.5 388,-30.5 388,-0.5 221,-0.5"/>
<text text-anchor="start" x="229" y="-18.5" font-family="Helvetica,sans-Serif" font-size="10.00">xercesc/validators</text>
<text text-anchor="middle" x="304.5" y="-7.5" font-family="Helvetica,sans-Serif" font-size="10.00">/schema/XSDErrorReporter.hpp</text>
</a>
</g>
</g>
<!-- Node1&#45;&gt;Node3 -->
<g id="edge2" class="edge">
<title>Node1&#45;&gt;Node3</title>
<path fill="none" stroke="midnightblue" d="M304.5,-67.36C304.5,-59.23 304.5,-49.7 304.5,-41.11"/>
<polygon fill="midnightblue" stroke="midnightblue" points="308,-40.89 304.5,-30.89 301,-40.89 308,-40.89"/>
</g>
<!-- Node4 -->
<g id="node4" class="node">
<title>Node4</title>
<g id="a_node4"><a xlink:title=" ">
<polygon fill="white" stroke="#bfbfbf" points="406,-0.5 406,-30.5 543,-30.5 543,-0.5 406,-0.5"/>
<text text-anchor="start" x="414" y="-18.5" font-family="Helvetica,sans-Serif" font-size="10.00">xercesc/validators</text>
<text text-anchor="middle" x="474.5" y="-7.5" font-family="Helvetica,sans-Serif" font-size="10.00">/schema/XSDLocator.hpp</text>
</a>
</g>
</g>
<!-- Node1&#45;&gt;Node4 -->
<g id="edge3" class="edge">
<title>Node1&#45;&gt;Node4</title>
<path fill="none" stroke="midnightblue" d="M351.85,-67.36C376.75,-57.04 407.04,-44.48 431.29,-34.42"/>
<polygon fill="midnightblue" stroke="midnightblue" points="432.7,-37.62 440.6,-30.56 430.02,-31.16 432.7,-37.62"/>
</g>
</g>
</svg>
