<?xml version="1.0" encoding="UTF-8" standalone="no"?>
<!DOCTYPE svg PUBLIC "-//W3C//DTD SVG 1.1//EN"
 "http://www.w3.org/Graphics/SVG/1.1/DTD/svg11.dtd">
<!-- Generated by graphviz version 2.43.0 (0)
 -->
<!-- Title: src/libs/vpatterndb/vtranslatemeasurements.cpp Pages: 1 -->
<svg width="440pt" height="207pt"
 viewBox="0.00 0.00 439.50 207.00" xmlns="http://www.w3.org/2000/svg" xmlns:xlink="http://www.w3.org/1999/xlink">
<g id="graph0" class="graph" transform="scale(1 1) rotate(0) translate(4 203)">
<title>src/libs/vpatterndb/vtranslatemeasurements.cpp</title>
<polygon fill="white" stroke="transparent" points="-4,4 -4,-203 435.5,-203 435.5,4 -4,4"/>
<!-- Node1 -->
<g id="node1" class="node">
<title>Node1</title>
<g id="a_node1"><a xlink:title=" ">
<polygon fill="#bfbfbf" stroke="black" points="180,-168.5 180,-198.5 343,-198.5 343,-168.5 180,-168.5"/>
<text text-anchor="start" x="188" y="-186.5" font-family="Helvetica,sans-Serif" font-size="10.00">src/libs/vpatterndb</text>
<text text-anchor="middle" x="261.5" y="-175.5" font-family="Helvetica,sans-Serif" font-size="10.00">/vtranslatemeasurements.cpp</text>
</a>
</g>
</g>
<!-- Node2 -->
<g id="node2" class="node">
<title>Node2</title>
<g id="a_node2"><a xlink:href="../../d0/de0/vtranslatemeasurements_8h.html" target="_top" xlink:title=" ">
<polygon fill="white" stroke="black" points="57,-112.5 57,-131.5 206,-131.5 206,-112.5 57,-112.5"/>
<text text-anchor="middle" x="131.5" y="-119.5" font-family="Helvetica,sans-Serif" font-size="10.00">vtranslatemeasurements.h</text>
</a>
</g>
</g>
<!-- Node1&#45;&gt;Node2 -->
<g id="edge1" class="edge">
<title>Node1&#45;&gt;Node2</title>
<path fill="none" stroke="midnightblue" d="M230.69,-168.4C209.17,-158.55 180.66,-145.5 159.73,-135.92"/>
<polygon fill="midnightblue" stroke="midnightblue" points="160.97,-132.64 150.42,-131.66 158.05,-139 160.97,-132.64"/>
</g>
<!-- Node6 -->
<g id="node6" class="node">
<title>Node6</title>
<g id="a_node6"><a xlink:href="../../da/da3/qmutranslation_8h.html" target="_top" xlink:title="The VTranslation class help store string for translation.">
<polygon fill="white" stroke="black" points="179.5,-56.5 179.5,-75.5 343.5,-75.5 343.5,-56.5 179.5,-56.5"/>
<text text-anchor="middle" x="261.5" y="-63.5" font-family="Helvetica,sans-Serif" font-size="10.00">../qmuparser/qmutranslation.h</text>
</a>
</g>
</g>
<!-- Node1&#45;&gt;Node6 -->
<g id="edge7" class="edge">
<title>Node1&#45;&gt;Node6</title>
<path fill="none" stroke="midnightblue" d="M261.5,-168.34C261.5,-147.62 261.5,-109.02 261.5,-85.9"/>
<polygon fill="midnightblue" stroke="midnightblue" points="265,-85.67 261.5,-75.67 258,-85.67 265,-85.67"/>
</g>
<!-- Node7 -->
<g id="node7" class="node">
<title>Node7</title>
<g id="a_node7"><a xlink:href="../../dc/db7/measurements_8h.html" target="_top" xlink:title=" ">
<polygon fill="white" stroke="black" points="318,-112.5 318,-131.5 417,-131.5 417,-112.5 318,-112.5"/>
<text text-anchor="middle" x="367.5" y="-119.5" font-family="Helvetica,sans-Serif" font-size="10.00">measurements.h</text>
</a>
</g>
</g>
<!-- Node1&#45;&gt;Node7 -->
<g id="edge8" class="edge">
<title>Node1&#45;&gt;Node7</title>
<path fill="none" stroke="midnightblue" d="M286.62,-168.4C303.77,-158.77 326.36,-146.09 343.31,-136.58"/>
<polygon fill="midnightblue" stroke="midnightblue" points="345.07,-139.6 352.08,-131.66 341.64,-133.5 345.07,-139.6"/>
</g>
<!-- Node3 -->
<g id="node3" class="node">
<title>Node3</title>
<g id="a_node3"><a xlink:title=" ">
<polygon fill="white" stroke="#bfbfbf" points="0,-56.5 0,-75.5 45,-75.5 45,-56.5 0,-56.5"/>
<text text-anchor="middle" x="22.5" y="-63.5" font-family="Helvetica,sans-Serif" font-size="10.00">QMap</text>
</a>
</g>
</g>
<!-- Node2&#45;&gt;Node3 -->
<g id="edge2" class="edge">
<title>Node2&#45;&gt;Node3</title>
<path fill="none" stroke="midnightblue" d="M113.99,-112.32C96.43,-103.62 69.17,-90.12 48.97,-80.11"/>
<polygon fill="midnightblue" stroke="midnightblue" points="50.48,-76.96 39.97,-75.65 47.38,-83.23 50.48,-76.96"/>
</g>
<!-- Node4 -->
<g id="node4" class="node">
<title>Node4</title>
<g id="a_node4"><a xlink:title=" ">
<polygon fill="white" stroke="#bfbfbf" points="141,-0.5 141,-19.5 194,-19.5 194,-0.5 141,-0.5"/>
<text text-anchor="middle" x="167.5" y="-7.5" font-family="Helvetica,sans-Serif" font-size="10.00">QString</text>
</a>
</g>
</g>
<!-- Node2&#45;&gt;Node4 -->
<g id="edge3" class="edge">
<title>Node2&#45;&gt;Node4</title>
<path fill="none" stroke="midnightblue" d="M119.89,-112.46C104.59,-100.11 80.89,-76.5 92.5,-56 100.97,-41.04 116.61,-30.51 131.43,-23.42"/>
<polygon fill="midnightblue" stroke="midnightblue" points="133.21,-26.46 140.97,-19.25 130.4,-20.05 133.21,-26.46"/>
</g>
<!-- Node5 -->
<g id="node5" class="node">
<title>Node5</title>
<g id="a_node5"><a xlink:title=" ">
<polygon fill="white" stroke="#bfbfbf" points="102,-56.5 102,-75.5 161,-75.5 161,-56.5 102,-56.5"/>
<text text-anchor="middle" x="131.5" y="-63.5" font-family="Helvetica,sans-Serif" font-size="10.00">QtGlobal</text>
</a>
</g>
</g>
<!-- Node2&#45;&gt;Node5 -->
<g id="edge4" class="edge">
<title>Node2&#45;&gt;Node5</title>
<path fill="none" stroke="midnightblue" d="M131.5,-112.08C131.5,-105.01 131.5,-94.86 131.5,-85.99"/>
<polygon fill="midnightblue" stroke="midnightblue" points="135,-85.75 131.5,-75.75 128,-85.75 135,-85.75"/>
</g>
<!-- Node2&#45;&gt;Node6 -->
<g id="edge5" class="edge">
<title>Node2&#45;&gt;Node6</title>
<path fill="none" stroke="midnightblue" d="M152.1,-112.44C173.49,-103.56 207.18,-89.56 231.52,-79.45"/>
<polygon fill="midnightblue" stroke="midnightblue" points="233.11,-82.58 241,-75.52 230.42,-76.12 233.11,-82.58"/>
</g>
<!-- Node6&#45;&gt;Node4 -->
<g id="edge6" class="edge">
<title>Node6&#45;&gt;Node4</title>
<path fill="none" stroke="midnightblue" d="M246.4,-56.32C231.6,-47.82 208.81,-34.73 191.52,-24.8"/>
<polygon fill="midnightblue" stroke="midnightblue" points="192.98,-21.6 182.57,-19.65 189.49,-27.67 192.98,-21.6"/>
</g>
<!-- Node8 -->
<g id="node8" class="node">
<title>Node8</title>
<g id="a_node8"><a xlink:title=" ">
<polygon fill="white" stroke="#bfbfbf" points="361.5,-56.5 361.5,-75.5 431.5,-75.5 431.5,-56.5 361.5,-56.5"/>
<text text-anchor="middle" x="396.5" y="-63.5" font-family="Helvetica,sans-Serif" font-size="10.00">QStringList</text>
</a>
</g>
</g>
<!-- Node7&#45;&gt;Node8 -->
<g id="edge9" class="edge">
<title>Node7&#45;&gt;Node8</title>
<path fill="none" stroke="midnightblue" d="M372.29,-112.08C376.26,-104.69 382.03,-93.95 386.93,-84.81"/>
<polygon fill="midnightblue" stroke="midnightblue" points="390.15,-86.22 391.8,-75.75 383.99,-82.91 390.15,-86.22"/>
</g>
</g>
</svg>
