<?xml version="1.0" encoding="UTF-8" standalone="no"?>
<!DOCTYPE svg PUBLIC "-//W3C//DTD SVG 1.1//EN"
 "http://www.w3.org/Graphics/SVG/1.1/DTD/svg11.dtd">
<!-- Generated by graphviz version 2.43.0 (0)
 -->
<!-- Title: src/app/seamly2d/dialogs/groups_widget.h Pages: 1 -->
<svg width="548pt" height="106pt"
 viewBox="0.00 0.00 547.50 106.00" xmlns="http://www.w3.org/2000/svg" xmlns:xlink="http://www.w3.org/1999/xlink">
<g id="graph0" class="graph" transform="scale(1 1) rotate(0) translate(4 102)">
<title>src/app/seamly2d/dialogs/groups_widget.h</title>
<polygon fill="white" stroke="transparent" points="-4,4 -4,-102 543.5,-102 543.5,4 -4,4"/>
<!-- Node1 -->
<g id="node1" class="node">
<title>Node1</title>
<g id="a_node1"><a xlink:title=" ">
<polygon fill="#bfbfbf" stroke="black" points="264.5,-67.5 264.5,-97.5 405.5,-97.5 405.5,-67.5 264.5,-67.5"/>
<text text-anchor="start" x="272.5" y="-85.5" font-family="Helvetica,sans-Serif" font-size="10.00">src/app/seamly2d/dialogs</text>
<text text-anchor="middle" x="335" y="-74.5" font-family="Helvetica,sans-Serif" font-size="10.00">/groups_widget.h</text>
</a>
</g>
</g>
<!-- Node2 -->
<g id="node2" class="node">
<title>Node2</title>
<g id="a_node2"><a xlink:title=" ">
<polygon fill="white" stroke="#bfbfbf" points="0,-6 0,-25 152,-25 152,-6 0,-6"/>
<text text-anchor="middle" x="76" y="-13" font-family="Helvetica,sans-Serif" font-size="10.00">../ifc/xml/vabstractpattern.h</text>
</a>
</g>
</g>
<!-- Node1&#45;&gt;Node2 -->
<g id="edge1" class="edge">
<title>Node1&#45;&gt;Node2</title>
<path fill="none" stroke="midnightblue" d="M279.12,-67.48C231.38,-55.5 163.67,-38.5 119.78,-27.49"/>
<polygon fill="midnightblue" stroke="midnightblue" points="120.53,-24.07 109.98,-25.03 118.83,-30.86 120.53,-24.07"/>
</g>
<!-- Node3 -->
<g id="node3" class="node">
<title>Node3</title>
<g id="a_node3"><a xlink:title=" ">
<polygon fill="white" stroke="#bfbfbf" points="170.5,-0.5 170.5,-30.5 291.5,-30.5 291.5,-0.5 170.5,-0.5"/>
<text text-anchor="start" x="178.5" y="-18.5" font-family="Helvetica,sans-Serif" font-size="10.00">../vtools/dialogs/tools</text>
<text text-anchor="middle" x="231" y="-7.5" font-family="Helvetica,sans-Serif" font-size="10.00">/editgroup_dialog.h</text>
</a>
</g>
</g>
<!-- Node1&#45;&gt;Node3 -->
<g id="edge2" class="edge">
<title>Node1&#45;&gt;Node3</title>
<path fill="none" stroke="midnightblue" d="M312.43,-67.4C297.71,-58.2 278.31,-46.07 262.13,-35.95"/>
<polygon fill="midnightblue" stroke="midnightblue" points="263.86,-32.91 253.52,-30.58 260.15,-38.84 263.86,-32.91"/>
</g>
<!-- Node4 -->
<g id="node4" class="node">
<title>Node4</title>
<g id="a_node4"><a xlink:title=" ">
<polygon fill="white" stroke="#bfbfbf" points="310,-6 310,-25 360,-25 360,-6 310,-6"/>
<text text-anchor="middle" x="335" y="-13" font-family="Helvetica,sans-Serif" font-size="10.00">QColor</text>
</a>
</g>
</g>
<!-- Node1&#45;&gt;Node4 -->
<g id="edge3" class="edge">
<title>Node1&#45;&gt;Node4</title>
<path fill="none" stroke="midnightblue" d="M335,-67.4C335,-58.06 335,-45.71 335,-35.52"/>
<polygon fill="midnightblue" stroke="midnightblue" points="338.5,-35.19 335,-25.19 331.5,-35.19 338.5,-35.19"/>
</g>
<!-- Node5 -->
<g id="node5" class="node">
<title>Node5</title>
<g id="a_node5"><a xlink:title=" ">
<polygon fill="white" stroke="#bfbfbf" points="378,-6 378,-25 462,-25 462,-6 378,-6"/>
<text text-anchor="middle" x="420" y="-13" font-family="Helvetica,sans-Serif" font-size="10.00">QTableWidget</text>
</a>
</g>
</g>
<!-- Node1&#45;&gt;Node5 -->
<g id="edge4" class="edge">
<title>Node1&#45;&gt;Node5</title>
<path fill="none" stroke="midnightblue" d="M353.44,-67.4C367.35,-56.76 386.39,-42.2 400.54,-31.38"/>
<polygon fill="midnightblue" stroke="midnightblue" points="402.81,-34.05 408.63,-25.19 398.56,-28.49 402.81,-34.05"/>
</g>
<!-- Node6 -->
<g id="node6" class="node">
<title>Node6</title>
<g id="a_node6"><a xlink:title=" ">
<polygon fill="white" stroke="#bfbfbf" points="480.5,-6 480.5,-25 539.5,-25 539.5,-6 480.5,-6"/>
<text text-anchor="middle" x="510" y="-13" font-family="Helvetica,sans-Serif" font-size="10.00">QWidget</text>
</a>
</g>
</g>
<!-- Node1&#45;&gt;Node6 -->
<g id="edge5" class="edge">
<title>Node1&#45;&gt;Node6</title>
<path fill="none" stroke="midnightblue" d="M372.81,-67.46C400.1,-57.33 437.83,-43.33 471,-31 473.09,-30.22 475.24,-29.42 477.42,-28.62"/>
<polygon fill="midnightblue" stroke="midnightblue" points="478.75,-31.85 486.9,-25.09 476.31,-25.29 478.75,-31.85"/>
</g>
</g>
</svg>
