<?xml version="1.0" encoding="UTF-8" standalone="no"?>
<!DOCTYPE svg PUBLIC "-//W3C//DTD SVG 1.1//EN"
 "http://www.w3.org/Graphics/SVG/1.1/DTD/svg11.dtd">
<!-- Generated by graphviz version 2.43.0 (0)
 -->
<!-- Title: src/libs/vtools/dialogs/tools/dialogtool.cpp Pages: 1 -->
<svg width="4789pt" height="151pt"
 viewBox="0.00 0.00 4789.00 151.00" xmlns="http://www.w3.org/2000/svg" xmlns:xlink="http://www.w3.org/1999/xlink">
<g id="graph0" class="graph" transform="scale(1 1) rotate(0) translate(4 147)">
<title>src/libs/vtools/dialogs/tools/dialogtool.cpp</title>
<polygon fill="white" stroke="transparent" points="-4,4 -4,-147 4785,-147 4785,4 -4,4"/>
<!-- Node1 -->
<g id="node1" class="node">
<title>Node1</title>
<g id="a_node1"><a xlink:title=" ">
<polygon fill="#bfbfbf" stroke="black" points="1917.5,-112.5 1917.5,-142.5 2039.5,-142.5 2039.5,-112.5 1917.5,-112.5"/>
<text text-anchor="start" x="1925.5" y="-130.5" font-family="Helvetica,sans-Serif" font-size="10.00">src/libs/vtools/dialogs</text>
<text text-anchor="middle" x="1978.5" y="-119.5" font-family="Helvetica,sans-Serif" font-size="10.00">/tools/dialogtool.cpp</text>
</a>
</g>
</g>
<!-- Node2 -->
<g id="node2" class="node">
<title>Node2</title>
<g id="a_node2"><a xlink:href="../../d1/d30/dialogtool_8h.html" target="_top" xlink:title=" ">
<polygon fill="white" stroke="red" points="522.5,-56.5 522.5,-75.5 596.5,-75.5 596.5,-56.5 522.5,-56.5"/>
<text text-anchor="middle" x="559.5" y="-63.5" font-family="Helvetica,sans-Serif" font-size="10.00">dialogtool.h</text>
</a>
</g>
</g>
<!-- Node1&#45;&gt;Node2 -->
<g id="edge1" class="edge">
<title>Node1&#45;&gt;Node2</title>
<path fill="none" stroke="midnightblue" d="M1917.25,-125.36C1686.44,-120.9 869.28,-103.48 610.5,-76 609.24,-75.87 607.97,-75.72 606.69,-75.56"/>
<polygon fill="midnightblue" stroke="midnightblue" points="607.13,-72.09 596.74,-74.18 606.16,-79.02 607.13,-72.09"/>
</g>
<!-- Node6 -->
<g id="node6" class="node">
<title>Node6</title>
<g id="a_node6"><a xlink:title=" ">
<polygon fill="white" stroke="#bfbfbf" points="595,-0.5 595,-19.5 672,-19.5 672,-0.5 595,-0.5"/>
<text text-anchor="middle" x="633.5" y="-7.5" font-family="Helvetica,sans-Serif" font-size="10.00">QComboBox</text>
</a>
</g>
</g>
<!-- Node1&#45;&gt;Node6 -->
<g id="edge14" class="edge">
<title>Node1&#45;&gt;Node6</title>
<path fill="none" stroke="midnightblue" d="M1917.24,-126.15C1680.74,-124.49 834.76,-115.83 721.5,-76 692.81,-65.91 665.59,-43.02 649.22,-27.29"/>
<polygon fill="midnightblue" stroke="midnightblue" points="651.26,-24.38 641.7,-19.81 646.33,-29.34 651.26,-24.38"/>
</g>
<!-- Node9 -->
<g id="node7" class="node">
<title>Node9</title>
<g id="a_node7"><a xlink:title=" ">
<polygon fill="white" stroke="#bfbfbf" points="690,-0.5 690,-19.5 753,-19.5 753,-0.5 690,-0.5"/>
<text text-anchor="middle" x="721.5" y="-7.5" font-family="Helvetica,sans-Serif" font-size="10.00">QLineEdit</text>
</a>
</g>
</g>
<!-- Node1&#45;&gt;Node9 -->
<g id="edge21" class="edge">
<title>Node1&#45;&gt;Node9</title>
<path fill="none" stroke="midnightblue" d="M1917.14,-125.99C1673.6,-123.72 786.04,-112.92 739.5,-76 725.9,-65.21 722.02,-45.13 721.16,-30.13"/>
<polygon fill="midnightblue" stroke="midnightblue" points="724.65,-29.82 720.97,-19.89 717.65,-29.95 724.65,-29.82"/>
</g>
<!-- Node17 -->
<g id="node8" class="node">
<title>Node17</title>
<g id="a_node8"><a xlink:title=" ">
<polygon fill="white" stroke="#bfbfbf" points="771.5,-0.5 771.5,-19.5 851.5,-19.5 851.5,-0.5 771.5,-0.5"/>
<text text-anchor="middle" x="811.5" y="-7.5" font-family="Helvetica,sans-Serif" font-size="10.00">QPushButton</text>
</a>
</g>
</g>
<!-- Node1&#45;&gt;Node17 -->
<g id="edge27" class="edge">
<title>Node1&#45;&gt;Node17</title>
<path fill="none" stroke="midnightblue" d="M1917.33,-126.31C1674.58,-125.26 790.3,-118.51 749.5,-76 732.44,-58.22 760.06,-37.62 783.71,-24.46"/>
<polygon fill="midnightblue" stroke="midnightblue" points="785.61,-27.42 792.8,-19.64 782.33,-21.23 785.61,-27.42"/>
</g>
<!-- Node23 -->
<g id="node9" class="node">
<title>Node23</title>
<g id="a_node9"><a xlink:title=" ">
<polygon fill="white" stroke="#bfbfbf" points="264.5,-0.5 264.5,-19.5 416.5,-19.5 416.5,-0.5 264.5,-0.5"/>
<text text-anchor="middle" x="340.5" y="-7.5" font-family="Helvetica,sans-Serif" font-size="10.00">../ifc/xml/vabstractpattern.h</text>
</a>
</g>
</g>
<!-- Node1&#45;&gt;Node23 -->
<g id="edge55" class="edge">
<title>Node1&#45;&gt;Node23</title>
<path fill="none" stroke="midnightblue" d="M1917.37,-125.56C1657.63,-121.42 652.4,-103.71 513.5,-76 459.37,-65.2 399.88,-39.57 366.66,-23.91"/>
<polygon fill="midnightblue" stroke="midnightblue" points="368.16,-20.74 357.63,-19.59 365.14,-27.06 368.16,-20.74"/>
</g>
<!-- Node29 -->
<g id="node10" class="node">
<title>Node29</title>
<g id="a_node10"><a xlink:title=" ">
<polygon fill="white" stroke="#bfbfbf" points="870,-0.5 870,-19.5 1025,-19.5 1025,-0.5 870,-0.5"/>
<text text-anchor="middle" x="947.5" y="-7.5" font-family="Helvetica,sans-Serif" font-size="10.00">../vmisc/vcommonsettings.h</text>
</a>
</g>
</g>
<!-- Node1&#45;&gt;Node29 -->
<g id="edge58" class="edge">
<title>Node1&#45;&gt;Node29</title>
<path fill="none" stroke="midnightblue" d="M1917.37,-126.29C1675.81,-125.17 798.98,-118.19 758.5,-76 752.35,-69.59 752.99,-62.98 758.5,-56 771.69,-39.3 817.79,-28.13 861.15,-21.1"/>
<polygon fill="midnightblue" stroke="midnightblue" points="861.88,-24.53 871.22,-19.53 860.8,-17.61 861.88,-24.53"/>
</g>
<!-- Node31 -->
<g id="node11" class="node">
<title>Node31</title>
<g id="a_node11"><a xlink:title=" ">
<polygon fill="white" stroke="#bfbfbf" points="767,-56.5 767,-75.5 820,-75.5 820,-56.5 767,-56.5"/>
<text text-anchor="middle" x="793.5" y="-63.5" font-family="Helvetica,sans-Serif" font-size="10.00">limits.h</text>
</a>
</g>
</g>
<!-- Node1&#45;&gt;Node31 -->
<g id="edge10" class="edge">
<title>Node1&#45;&gt;Node31</title>
<path fill="none" stroke="midnightblue" d="M1917.31,-125.43C1714.09,-121.64 1061.9,-107.4 830.17,-75.71"/>
<polygon fill="midnightblue" stroke="midnightblue" points="830.51,-72.23 820.12,-74.29 829.53,-79.16 830.51,-72.23"/>
</g>
<!-- Node32 -->
<g id="node12" class="node">
<title>Node32</title>
<g id="a_node12"><a xlink:title=" ">
<polygon fill="white" stroke="#bfbfbf" points="838,-56.5 838,-75.5 905,-75.5 905,-56.5 838,-56.5"/>
<text text-anchor="middle" x="871.5" y="-63.5" font-family="Helvetica,sans-Serif" font-size="10.00">qiterator.h</text>
</a>
</g>
</g>
<!-- Node1&#45;&gt;Node32 -->
<g id="edge11" class="edge">
<title>Node1&#45;&gt;Node32</title>
<path fill="none" stroke="midnightblue" d="M1917.33,-126.98C1755.26,-127.54 1301.39,-124.41 915.19,-75.85"/>
<polygon fill="midnightblue" stroke="midnightblue" points="915.58,-72.37 905.22,-74.59 914.69,-79.32 915.58,-72.37"/>
</g>
<!-- Node33 -->
<g id="node13" class="node">
<title>Node33</title>
<g id="a_node13"><a xlink:title=" ">
<polygon fill="white" stroke="#bfbfbf" points="923,-56.5 923,-75.5 994,-75.5 994,-56.5 923,-56.5"/>
<text text-anchor="middle" x="958.5" y="-63.5" font-family="Helvetica,sans-Serif" font-size="10.00">qnumeric.h</text>
</a>
</g>
</g>
<!-- Node1&#45;&gt;Node33 -->
<g id="edge12" class="edge">
<title>Node1&#45;&gt;Node33</title>
<path fill="none" stroke="midnightblue" d="M1917.48,-126.42C1765.01,-125.55 1355.13,-119.16 1004.38,-75.9"/>
<polygon fill="midnightblue" stroke="midnightblue" points="1004.64,-72.41 994.28,-74.65 1003.78,-79.35 1004.64,-72.41"/>
</g>
<!-- Node34 -->
<g id="node14" class="node">
<title>Node34</title>
<g id="a_node14"><a xlink:title=" ">
<polygon fill="white" stroke="#bfbfbf" points="1012,-56.5 1012,-75.5 1091,-75.5 1091,-56.5 1012,-56.5"/>
<text text-anchor="middle" x="1051.5" y="-63.5" font-family="Helvetica,sans-Serif" font-size="10.00">QCloseEvent</text>
</a>
</g>
</g>
<!-- Node1&#45;&gt;Node34 -->
<g id="edge13" class="edge">
<title>Node1&#45;&gt;Node34</title>
<path fill="none" stroke="midnightblue" d="M1917.25,-125.67C1775.34,-123.18 1412.95,-113.48 1101.38,-76.09"/>
<polygon fill="midnightblue" stroke="midnightblue" points="1101.6,-72.59 1091.25,-74.86 1100.76,-79.54 1101.6,-72.59"/>
</g>
<!-- Node35 -->
<g id="node15" class="node">
<title>Node35</title>
<g id="a_node15"><a xlink:title=" ">
<polygon fill="white" stroke="#bfbfbf" points="1108.5,-56.5 1108.5,-75.5 1206.5,-75.5 1206.5,-56.5 1108.5,-56.5"/>
<text text-anchor="middle" x="1157.5" y="-63.5" font-family="Helvetica,sans-Serif" font-size="10.00">QDoubleSpinBox</text>
</a>
</g>
</g>
<!-- Node1&#45;&gt;Node35 -->
<g id="edge15" class="edge">
<title>Node1&#45;&gt;Node35</title>
<path fill="none" stroke="midnightblue" d="M1917.02,-124.26C1788.8,-119.21 1483.33,-105.08 1216.77,-76.04"/>
<polygon fill="midnightblue" stroke="midnightblue" points="1216.83,-72.53 1206.51,-74.91 1216.07,-79.49 1216.83,-72.53"/>
</g>
<!-- Node36 -->
<g id="node16" class="node">
<title>Node36</title>
<g id="a_node16"><a xlink:title=" ">
<polygon fill="white" stroke="#bfbfbf" points="1224.5,-56.5 1224.5,-75.5 1276.5,-75.5 1276.5,-56.5 1224.5,-56.5"/>
<text text-anchor="middle" x="1250.5" y="-63.5" font-family="Helvetica,sans-Serif" font-size="10.00">QEvent</text>
</a>
</g>
</g>
<!-- Node1&#45;&gt;Node36 -->
<g id="edge16" class="edge">
<title>Node1&#45;&gt;Node36</title>
<path fill="none" stroke="midnightblue" d="M1917.46,-125.57C1798.04,-122.97 1525.14,-113.3 1286.64,-75.69"/>
<polygon fill="midnightblue" stroke="midnightblue" points="1287.16,-72.23 1276.74,-74.11 1286.06,-79.15 1287.16,-72.23"/>
</g>
<!-- Node37 -->
<g id="node17" class="node">
<title>Node37</title>
<g id="a_node17"><a xlink:title=" ">
<polygon fill="white" stroke="#bfbfbf" points="1295,-56.5 1295,-75.5 1344,-75.5 1344,-56.5 1295,-56.5"/>
<text text-anchor="middle" x="1319.5" y="-63.5" font-family="Helvetica,sans-Serif" font-size="10.00">QHash</text>
</a>
</g>
</g>
<!-- Node1&#45;&gt;Node37 -->
<g id="edge17" class="edge">
<title>Node1&#45;&gt;Node37</title>
<path fill="none" stroke="midnightblue" d="M1917.28,-125.17C1806.59,-121.97 1565.84,-111.41 1354.32,-75.82"/>
<polygon fill="midnightblue" stroke="midnightblue" points="1354.72,-72.33 1344.27,-74.1 1353.54,-79.23 1354.72,-72.33"/>
</g>
<!-- Node38 -->
<g id="node18" class="node">
<title>Node38</title>
<g id="a_node18"><a xlink:title=" ">
<polygon fill="white" stroke="#bfbfbf" points="1362.5,-56.5 1362.5,-75.5 1406.5,-75.5 1406.5,-56.5 1362.5,-56.5"/>
<text text-anchor="middle" x="1384.5" y="-63.5" font-family="Helvetica,sans-Serif" font-size="10.00">QIcon</text>
</a>
</g>
</g>
<!-- Node1&#45;&gt;Node38 -->
<g id="edge18" class="edge">
<title>Node1&#45;&gt;Node38</title>
<path fill="none" stroke="midnightblue" d="M1917.15,-124.87C1814.96,-121.3 1603.45,-110.33 1416.73,-75.88"/>
<polygon fill="midnightblue" stroke="midnightblue" points="1417.2,-72.41 1406.73,-74.01 1415.91,-79.29 1417.2,-72.41"/>
</g>
<!-- Node39 -->
<g id="node19" class="node">
<title>Node39</title>
<g id="a_node19"><a xlink:title=" ">
<polygon fill="white" stroke="#bfbfbf" points="1424.5,-56.5 1424.5,-75.5 1494.5,-75.5 1494.5,-56.5 1424.5,-56.5"/>
<text text-anchor="middle" x="1459.5" y="-63.5" font-family="Helvetica,sans-Serif" font-size="10.00">QKeyEvent</text>
</a>
</g>
</g>
<!-- Node1&#45;&gt;Node39 -->
<g id="edge19" class="edge">
<title>Node1&#45;&gt;Node39</title>
<path fill="none" stroke="midnightblue" d="M1917.15,-121.87C1828.35,-114.75 1658.7,-99.58 1504.63,-76.04"/>
<polygon fill="midnightblue" stroke="midnightblue" points="1504.93,-72.54 1494.51,-74.48 1503.86,-79.46 1504.93,-72.54"/>
</g>
<!-- Node40 -->
<g id="node20" class="node">
<title>Node40</title>
<g id="a_node20"><a xlink:title=" ">
<polygon fill="white" stroke="#bfbfbf" points="1512.5,-56.5 1512.5,-75.5 1562.5,-75.5 1562.5,-56.5 1512.5,-56.5"/>
<text text-anchor="middle" x="1537.5" y="-63.5" font-family="Helvetica,sans-Serif" font-size="10.00">QLabel</text>
</a>
</g>
</g>
<!-- Node1&#45;&gt;Node40 -->
<g id="edge20" class="edge">
<title>Node1&#45;&gt;Node40</title>
<path fill="none" stroke="midnightblue" d="M1917.25,-121.34C1837.43,-114.06 1693.75,-99.03 1572.5,-76 1572.4,-75.98 1572.3,-75.96 1572.2,-75.94"/>
<polygon fill="midnightblue" stroke="midnightblue" points="1573.16,-72.57 1562.65,-73.88 1571.68,-79.41 1573.16,-72.57"/>
</g>
<!-- Node41 -->
<g id="node21" class="node">
<title>Node41</title>
<g id="a_node21"><a xlink:title=" ">
<polygon fill="white" stroke="#bfbfbf" points="1581,-56.5 1581,-75.5 1662,-75.5 1662,-56.5 1581,-56.5"/>
<text text-anchor="middle" x="1621.5" y="-63.5" font-family="Helvetica,sans-Serif" font-size="10.00">QMapIterator</text>
</a>
</g>
</g>
<!-- Node1&#45;&gt;Node41 -->
<g id="edge22" class="edge">
<title>Node1&#45;&gt;Node41</title>
<path fill="none" stroke="midnightblue" d="M1917.29,-116.71C1857.48,-107.08 1763.56,-91.79 1672.13,-76.09"/>
<polygon fill="midnightblue" stroke="midnightblue" points="1672.6,-72.62 1662.15,-74.37 1671.41,-79.52 1672.6,-72.62"/>
</g>
<!-- Node42 -->
<g id="node22" class="node">
<title>Node42</title>
<g id="a_node22"><a xlink:title=" ">
<polygon fill="white" stroke="#bfbfbf" points="1680,-56.5 1680,-75.5 1781,-75.5 1781,-56.5 1680,-56.5"/>
<text text-anchor="middle" x="1730.5" y="-63.5" font-family="Helvetica,sans-Serif" font-size="10.00">QMessageLogger</text>
</a>
</g>
</g>
<!-- Node1&#45;&gt;Node42 -->
<g id="edge23" class="edge">
<title>Node1&#45;&gt;Node42</title>
<path fill="none" stroke="midnightblue" d="M1920.04,-112.47C1875.95,-101.9 1816.34,-87.59 1775.82,-77.87"/>
<polygon fill="midnightblue" stroke="midnightblue" points="1776.5,-74.44 1765.96,-75.51 1774.86,-81.24 1776.5,-74.44"/>
</g>
<!-- Node43 -->
<g id="node23" class="node">
<title>Node43</title>
<g id="a_node23"><a xlink:title=" ">
<polygon fill="white" stroke="#bfbfbf" points="1799.5,-56.5 1799.5,-75.5 1857.5,-75.5 1857.5,-56.5 1799.5,-56.5"/>
<text text-anchor="middle" x="1828.5" y="-63.5" font-family="Helvetica,sans-Serif" font-size="10.00">QPalette</text>
</a>
</g>
</g>
<!-- Node1&#45;&gt;Node43 -->
<g id="edge24" class="edge">
<title>Node1&#45;&gt;Node43</title>
<path fill="none" stroke="midnightblue" d="M1942.95,-112.4C1917.67,-102.37 1884.03,-89.03 1859.77,-79.4"/>
<polygon fill="midnightblue" stroke="midnightblue" points="1860.91,-76.09 1850.33,-75.66 1858.33,-82.6 1860.91,-76.09"/>
</g>
<!-- Node44 -->
<g id="node24" class="node">
<title>Node44</title>
<g id="a_node24"><a xlink:title=" ">
<polygon fill="white" stroke="#bfbfbf" points="0,-0.5 0,-19.5 61,-19.5 61,-0.5 0,-0.5"/>
<text text-anchor="middle" x="30.5" y="-7.5" font-family="Helvetica,sans-Serif" font-size="10.00">QPixmap</text>
</a>
</g>
</g>
<!-- Node1&#45;&gt;Node44 -->
<g id="edge25" class="edge">
<title>Node1&#45;&gt;Node44</title>
<path fill="none" stroke="midnightblue" d="M1917.38,-126.13C1603.16,-124.07 180.98,-112.76 95.5,-76 72.46,-66.09 53.21,-43.85 41.78,-28.16"/>
<polygon fill="midnightblue" stroke="midnightblue" points="44.57,-26.03 35.99,-19.81 38.82,-30.02 44.57,-26.03"/>
</g>
<!-- Node45 -->
<g id="node25" class="node">
<title>Node45</title>
<g id="a_node25"><a xlink:title=" ">
<polygon fill="white" stroke="#bfbfbf" points="1876,-56.5 1876,-75.5 1963,-75.5 1963,-56.5 1876,-56.5"/>
<text text-anchor="middle" x="1919.5" y="-63.5" font-family="Helvetica,sans-Serif" font-size="10.00">QPlainTextEdit</text>
</a>
</g>
</g>
<!-- Node1&#45;&gt;Node45 -->
<g id="edge26" class="edge">
<title>Node1&#45;&gt;Node45</title>
<path fill="none" stroke="midnightblue" d="M1964.52,-112.4C1955.77,-103.58 1944.47,-92.18 1935.38,-83.02"/>
<polygon fill="midnightblue" stroke="midnightblue" points="1937.61,-80.29 1928.09,-75.66 1932.64,-85.22 1937.61,-80.29"/>
</g>
<!-- Node46 -->
<g id="node26" class="node">
<title>Node46</title>
<g id="a_node26"><a xlink:title=" ">
<polygon fill="white" stroke="#bfbfbf" points="1981,-56.5 1981,-75.5 2096,-75.5 2096,-56.5 1981,-56.5"/>
<text text-anchor="middle" x="2038.5" y="-63.5" font-family="Helvetica,sans-Serif" font-size="10.00">QRegularExpression</text>
</a>
</g>
</g>
<!-- Node1&#45;&gt;Node46 -->
<g id="edge28" class="edge">
<title>Node1&#45;&gt;Node46</title>
<path fill="none" stroke="midnightblue" d="M1992.72,-112.4C2001.71,-103.49 2013.34,-91.95 2022.63,-82.74"/>
<polygon fill="midnightblue" stroke="midnightblue" points="2025.13,-85.18 2029.77,-75.66 2020.2,-80.21 2025.13,-85.18"/>
</g>
<!-- Node47 -->
<g id="node27" class="node">
<title>Node47</title>
<g id="a_node27"><a xlink:title=" ">
<polygon fill="white" stroke="#bfbfbf" points="2114,-56.5 2114,-75.5 2259,-75.5 2259,-56.5 2114,-56.5"/>
<text text-anchor="middle" x="2186.5" y="-63.5" font-family="Helvetica,sans-Serif" font-size="10.00">QRegularExpressionMatch</text>
</a>
</g>
</g>
<!-- Node1&#45;&gt;Node47 -->
<g id="edge29" class="edge">
<title>Node1&#45;&gt;Node47</title>
<path fill="none" stroke="midnightblue" d="M2027.53,-112.47C2063.88,-102.08 2112.81,-88.08 2146.75,-78.37"/>
<polygon fill="midnightblue" stroke="midnightblue" points="2148.11,-81.62 2156.76,-75.51 2146.19,-74.89 2148.11,-81.62"/>
</g>
<!-- Node48 -->
<g id="node28" class="node">
<title>Node48</title>
<g id="a_node28"><a xlink:title=" ">
<polygon fill="white" stroke="#bfbfbf" points="2277.5,-56.5 2277.5,-75.5 2371.5,-75.5 2371.5,-56.5 2277.5,-56.5"/>
<text text-anchor="middle" x="2324.5" y="-63.5" font-family="Helvetica,sans-Serif" font-size="10.00">QScopedPointer</text>
</a>
</g>
</g>
<!-- Node1&#45;&gt;Node48 -->
<g id="edge30" class="edge">
<title>Node1&#45;&gt;Node48</title>
<path fill="none" stroke="midnightblue" d="M2039.56,-116C2103.88,-104.94 2204.38,-87.66 2267.23,-76.85"/>
<polygon fill="midnightblue" stroke="midnightblue" points="2268.1,-80.25 2277.37,-75.11 2266.92,-73.35 2268.1,-80.25"/>
</g>
<!-- Node49 -->
<g id="node29" class="node">
<title>Node49</title>
<g id="a_node29"><a xlink:title=" ">
<polygon fill="white" stroke="#bfbfbf" points="2389.5,-56.5 2389.5,-75.5 2481.5,-75.5 2481.5,-56.5 2389.5,-56.5"/>
<text text-anchor="middle" x="2435.5" y="-63.5" font-family="Helvetica,sans-Serif" font-size="10.00">QSharedPointer</text>
</a>
</g>
</g>
<!-- Node1&#45;&gt;Node49 -->
<g id="edge31" class="edge">
<title>Node1&#45;&gt;Node49</title>
<path fill="none" stroke="midnightblue" d="M2039.55,-119.55C2116.33,-110.64 2252.47,-94.33 2379.04,-76.17"/>
<polygon fill="midnightblue" stroke="midnightblue" points="2379.91,-79.58 2389.31,-74.69 2378.91,-72.65 2379.91,-79.58"/>
</g>
<!-- Node50 -->
<g id="node30" class="node">
<title>Node50</title>
<g id="a_node30"><a xlink:title=" ">
<polygon fill="white" stroke="#bfbfbf" points="2499.5,-56.5 2499.5,-75.5 2577.5,-75.5 2577.5,-56.5 2499.5,-56.5"/>
<text text-anchor="middle" x="2538.5" y="-63.5" font-family="Helvetica,sans-Serif" font-size="10.00">QShowEvent</text>
</a>
</g>
</g>
<!-- Node1&#45;&gt;Node50 -->
<g id="edge32" class="edge">
<title>Node1&#45;&gt;Node50</title>
<path fill="none" stroke="midnightblue" d="M2039.79,-122.19C2134.18,-115.17 2320.99,-99.75 2489.22,-76.07"/>
<polygon fill="midnightblue" stroke="midnightblue" points="2489.85,-79.52 2499.25,-74.65 2488.86,-72.59 2489.85,-79.52"/>
</g>
<!-- Node51 -->
<g id="node31" class="node">
<title>Node51</title>
<g id="a_node31"><a xlink:title=" ">
<polygon fill="white" stroke="#bfbfbf" points="2595.5,-56.5 2595.5,-75.5 2639.5,-75.5 2639.5,-56.5 2595.5,-56.5"/>
<text text-anchor="middle" x="2617.5" y="-63.5" font-family="Helvetica,sans-Serif" font-size="10.00">QSize</text>
</a>
</g>
</g>
<!-- Node1&#45;&gt;Node51 -->
<g id="edge33" class="edge">
<title>Node1&#45;&gt;Node51</title>
<path fill="none" stroke="midnightblue" d="M2039.87,-125.44C2148.4,-122.69 2381.21,-112.84 2585.27,-75.87"/>
<polygon fill="midnightblue" stroke="midnightblue" points="2586.07,-79.28 2595.28,-74.03 2584.81,-72.39 2586.07,-79.28"/>
</g>
<!-- Node52 -->
<g id="node32" class="node">
<title>Node52</title>
<g id="a_node32"><a xlink:title=" ">
<polygon fill="white" stroke="#bfbfbf" points="2657.5,-56.5 2657.5,-75.5 2733.5,-75.5 2733.5,-56.5 2657.5,-56.5"/>
<text text-anchor="middle" x="2695.5" y="-63.5" font-family="Helvetica,sans-Serif" font-size="10.00">QTextCursor</text>
</a>
</g>
</g>
<!-- Node1&#45;&gt;Node52 -->
<g id="edge34" class="edge">
<title>Node1&#45;&gt;Node52</title>
<path fill="none" stroke="midnightblue" d="M2039.71,-124.22C2156.12,-119.38 2417.53,-106.08 2647.12,-76.04"/>
<polygon fill="midnightblue" stroke="midnightblue" points="2647.88,-79.46 2657.34,-74.68 2646.97,-72.53 2647.88,-79.46"/>
</g>
<!-- Node53 -->
<g id="node33" class="node">
<title>Node53</title>
<g id="a_node33"><a xlink:title=" ">
<polygon fill="white" stroke="#bfbfbf" points="2752,-56.5 2752,-75.5 2805,-75.5 2805,-56.5 2752,-56.5"/>
<text text-anchor="middle" x="2778.5" y="-63.5" font-family="Helvetica,sans-Serif" font-size="10.00">QTimer</text>
</a>
</g>
</g>
<!-- Node1&#45;&gt;Node53 -->
<g id="edge35" class="edge">
<title>Node1&#45;&gt;Node53</title>
<path fill="none" stroke="midnightblue" d="M2039.82,-126.16C2168.38,-124.64 2475.53,-116.81 2741.63,-75.82"/>
<polygon fill="midnightblue" stroke="midnightblue" points="2742.53,-79.22 2751.87,-74.22 2741.45,-72.3 2742.53,-79.22"/>
</g>
<!-- Node54 -->
<g id="node34" class="node">
<title>Node54</title>
<g id="a_node34"><a xlink:title=" ">
<polygon fill="white" stroke="#bfbfbf" points="2823,-56.5 2823,-75.5 2882,-75.5 2882,-56.5 2823,-56.5"/>
<text text-anchor="middle" x="2852.5" y="-63.5" font-family="Helvetica,sans-Serif" font-size="10.00">QWidget</text>
</a>
</g>
</g>
<!-- Node1&#45;&gt;Node54 -->
<g id="edge36" class="edge">
<title>Node1&#45;&gt;Node54</title>
<path fill="none" stroke="midnightblue" d="M2039.71,-126.4C2176.82,-125.4 2519.01,-118.59 2812.73,-76.03"/>
<polygon fill="midnightblue" stroke="midnightblue" points="2813.34,-79.48 2822.72,-74.56 2812.32,-72.55 2813.34,-79.48"/>
</g>
<!-- Node55 -->
<g id="node35" class="node">
<title>Node55</title>
<g id="a_node35"><a xlink:title=" ">
<polygon fill="white" stroke="#bfbfbf" points="79,-0.5 79,-19.5 108,-19.5 108,-0.5 79,-0.5"/>
<text text-anchor="middle" x="93.5" y="-7.5" font-family="Helvetica,sans-Serif" font-size="10.00">Qt</text>
</a>
</g>
</g>
<!-- Node1&#45;&gt;Node55 -->
<g id="edge37" class="edge">
<title>Node1&#45;&gt;Node55</title>
<path fill="none" stroke="midnightblue" d="M1917.47,-125.83C1599.84,-122.22 149.06,-104.19 112.5,-76 98.7,-65.36 94.51,-45.25 93.43,-30.21"/>
<polygon fill="midnightblue" stroke="midnightblue" points="96.92,-29.81 93.1,-19.93 89.92,-30.03 96.92,-29.81"/>
</g>
<!-- Node56 -->
<g id="node36" class="node">
<title>Node56</title>
<g id="a_node36"><a xlink:title=" ">
<polygon fill="white" stroke="#bfbfbf" points="2900,-56.5 2900,-75.5 2959,-75.5 2959,-56.5 2900,-56.5"/>
<text text-anchor="middle" x="2929.5" y="-63.5" font-family="Helvetica,sans-Serif" font-size="10.00">QtDebug</text>
</a>
</g>
</g>
<!-- Node1&#45;&gt;Node56 -->
<g id="edge38" class="edge">
<title>Node1&#45;&gt;Node56</title>
<path fill="none" stroke="midnightblue" d="M2039.5,-126.85C2185.27,-126.87 2565.26,-122.23 2889.66,-76.03"/>
<polygon fill="midnightblue" stroke="midnightblue" points="2890.33,-79.47 2899.73,-74.58 2889.33,-72.54 2890.33,-79.47"/>
</g>
<!-- Node57 -->
<g id="node37" class="node">
<title>Node57</title>
<g id="a_node37"><a xlink:title=" ">
<polygon fill="white" stroke="#bfbfbf" points="2977,-56.5 2977,-75.5 3014,-75.5 3014,-56.5 2977,-56.5"/>
<text text-anchor="middle" x="2995.5" y="-63.5" font-family="Helvetica,sans-Serif" font-size="10.00">new</text>
</a>
</g>
</g>
<!-- Node1&#45;&gt;Node57 -->
<g id="edge39" class="edge">
<title>Node1&#45;&gt;Node57</title>
<path fill="none" stroke="midnightblue" d="M2039.63,-125.54C2223.42,-122.34 2769.91,-110.26 2966.84,-75.78"/>
<polygon fill="midnightblue" stroke="midnightblue" points="2967.58,-79.2 2976.79,-73.96 2966.32,-72.31 2967.58,-79.2"/>
</g>
<!-- Node58 -->
<g id="node38" class="node">
<title>Node58</title>
<g id="a_node38"><a xlink:title=" ">
<polygon fill="white" stroke="#bfbfbf" points="3032,-56.5 3032,-75.5 3085,-75.5 3085,-56.5 3032,-56.5"/>
<text text-anchor="middle" x="3058.5" y="-63.5" font-family="Helvetica,sans-Serif" font-size="10.00">QBuffer</text>
</a>
</g>
</g>
<!-- Node1&#45;&gt;Node58 -->
<g id="edge40" class="edge">
<title>Node1&#45;&gt;Node58</title>
<path fill="none" stroke="midnightblue" d="M2039.83,-125.17C2230.59,-120.8 2812.72,-105.46 3021.89,-75.91"/>
<polygon fill="midnightblue" stroke="midnightblue" points="3022.48,-79.36 3031.86,-74.45 3021.46,-72.43 3022.48,-79.36"/>
</g>
<!-- Node59 -->
<g id="node39" class="node">
<title>Node59</title>
<g id="a_node39"><a xlink:title=" ">
<polygon fill="white" stroke="#bfbfbf" points="3103,-56.5 3103,-75.5 3148,-75.5 3148,-56.5 3103,-56.5"/>
<text text-anchor="middle" x="3125.5" y="-63.5" font-family="Helvetica,sans-Serif" font-size="10.00">QFont</text>
</a>
</g>
</g>
<!-- Node1&#45;&gt;Node59 -->
<g id="edge41" class="edge">
<title>Node1&#45;&gt;Node59</title>
<path fill="none" stroke="midnightblue" d="M2039.73,-125.64C2239.14,-122.55 2869.44,-110.37 3092.94,-75.82"/>
<polygon fill="midnightblue" stroke="midnightblue" points="3093.64,-79.26 3102.96,-74.22 3092.53,-72.35 3093.64,-79.26"/>
</g>
<!-- Node60 -->
<g id="node40" class="node">
<title>Node60</title>
<g id="a_node40"><a xlink:title=" ">
<polygon fill="white" stroke="#bfbfbf" points="3166.5,-56.5 3166.5,-75.5 3314.5,-75.5 3314.5,-56.5 3166.5,-56.5"/>
<text text-anchor="middle" x="3240.5" y="-63.5" font-family="Helvetica,sans-Serif" font-size="10.00">../ifc/xml/vdomdocument.h</text>
</a>
</g>
</g>
<!-- Node1&#45;&gt;Node60 -->
<g id="edge42" class="edge">
<title>Node1&#45;&gt;Node60</title>
<path fill="none" stroke="midnightblue" d="M2039.64,-125.29C2212.91,-121.55 2722.23,-108.48 3156.08,-76.06"/>
<polygon fill="midnightblue" stroke="midnightblue" points="3156.6,-79.53 3166.31,-75.29 3156.08,-72.55 3156.6,-79.53"/>
</g>
<!-- Node61 -->
<g id="node41" class="node">
<title>Node61</title>
<g id="a_node41"><a xlink:title=" ">
<polygon fill="white" stroke="#bfbfbf" points="3333,-56.5 3333,-75.5 3460,-75.5 3460,-56.5 3333,-56.5"/>
<text text-anchor="middle" x="3396.5" y="-63.5" font-family="Helvetica,sans-Serif" font-size="10.00">../qmuparser/qmudef.h</text>
</a>
</g>
</g>
<!-- Node1&#45;&gt;Node61 -->
<g id="edge43" class="edge">
<title>Node1&#45;&gt;Node61</title>
<path fill="none" stroke="midnightblue" d="M2039.6,-126.06C2228.7,-124.29 2821.24,-115.8 3322.86,-75.97"/>
<polygon fill="midnightblue" stroke="midnightblue" points="3323.14,-79.46 3332.83,-75.17 3322.58,-72.48 3323.14,-79.46"/>
</g>
<!-- Node62 -->
<g id="node42" class="node">
<title>Node62</title>
<g id="a_node42"><a xlink:title=" ">
<polygon fill="white" stroke="#bfbfbf" points="3478,-56.5 3478,-75.5 3643,-75.5 3643,-56.5 3478,-56.5"/>
<text text-anchor="middle" x="3560.5" y="-63.5" font-family="Helvetica,sans-Serif" font-size="10.00">../qmuparser/qmuparsererror.h</text>
</a>
</g>
</g>
<!-- Node1&#45;&gt;Node62 -->
<g id="edge44" class="edge">
<title>Node1&#45;&gt;Node62</title>
<path fill="none" stroke="midnightblue" d="M2039.64,-125.85C2241.76,-123.39 2906.97,-112.89 3467.38,-76.1"/>
<polygon fill="midnightblue" stroke="midnightblue" points="3467.94,-79.57 3477.69,-75.42 3467.48,-72.59 3467.94,-79.57"/>
</g>
<!-- Node63 -->
<g id="node43" class="node">
<title>Node63</title>
<g id="a_node43"><a xlink:title=" ">
<polygon fill="white" stroke="#bfbfbf" points="3661,-56.5 3661,-75.5 3786,-75.5 3786,-56.5 3661,-56.5"/>
<text text-anchor="middle" x="3723.5" y="-63.5" font-family="Helvetica,sans-Serif" font-size="10.00">../vgeometry/vpointf.h</text>
</a>
</g>
</g>
<!-- Node1&#45;&gt;Node63 -->
<g id="edge45" class="edge">
<title>Node1&#45;&gt;Node63</title>
<path fill="none" stroke="midnightblue" d="M2039.8,-126.77C2257.75,-127.28 3015.64,-125.23 3650.54,-76.08"/>
<polygon fill="midnightblue" stroke="midnightblue" points="3651.12,-79.54 3660.81,-75.28 3650.57,-72.56 3651.12,-79.54"/>
</g>
<!-- Node64 -->
<g id="node44" class="node">
<title>Node64</title>
<g id="a_node44"><a xlink:title=" ">
<polygon fill="white" stroke="#bfbfbf" points="3804.5,-56.5 3804.5,-75.5 3942.5,-75.5 3942.5,-56.5 3804.5,-56.5"/>
<text text-anchor="middle" x="3873.5" y="-63.5" font-family="Helvetica,sans-Serif" font-size="10.00">../vpatterndb/calculator.h</text>
</a>
</g>
</g>
<!-- Node1&#45;&gt;Node64 -->
<g id="edge46" class="edge">
<title>Node1&#45;&gt;Node64</title>
<path fill="none" stroke="midnightblue" d="M2039.77,-126.73C2269.21,-127.18 3099.56,-125.16 3793.99,-76.04"/>
<polygon fill="midnightblue" stroke="midnightblue" points="3794.48,-79.51 3804.21,-75.31 3793.98,-72.53 3794.48,-79.51"/>
</g>
<!-- Node65 -->
<g id="node45" class="node">
<title>Node65</title>
<g id="a_node45"><a xlink:title=" ">
<polygon fill="white" stroke="#bfbfbf" points="3960.5,-56.5 3960.5,-75.5 4102.5,-75.5 4102.5,-56.5 3960.5,-56.5"/>
<text text-anchor="middle" x="4031.5" y="-63.5" font-family="Helvetica,sans-Serif" font-size="10.00">../vpatterndb/vcontainer.h</text>
</a>
</g>
</g>
<!-- Node1&#45;&gt;Node65 -->
<g id="edge47" class="edge">
<title>Node1&#45;&gt;Node65</title>
<path fill="none" stroke="midnightblue" d="M2039.55,-126.86C2280.77,-127.87 3190.99,-127.86 3950.38,-76.01"/>
<polygon fill="midnightblue" stroke="midnightblue" points="3950.69,-79.49 3960.43,-75.32 3950.21,-72.51 3950.69,-79.49"/>
</g>
<!-- Node66 -->
<g id="node46" class="node">
<title>Node66</title>
<g id="a_node46"><a xlink:title=" ">
<polygon fill="white" stroke="#bfbfbf" points="4121,-56.5 4121,-75.5 4282,-75.5 4282,-56.5 4121,-56.5"/>
<text text-anchor="middle" x="4201.5" y="-63.5" font-family="Helvetica,sans-Serif" font-size="10.00">../vpatterndb/vtranslatevars.h</text>
</a>
</g>
</g>
<!-- Node1&#45;&gt;Node66 -->
<g id="edge48" class="edge">
<title>Node1&#45;&gt;Node66</title>
<path fill="none" stroke="midnightblue" d="M2039.66,-126.75C2292.92,-127.43 3284.55,-126.57 4110.56,-76"/>
<polygon fill="midnightblue" stroke="midnightblue" points="4110.8,-79.49 4120.57,-75.39 4110.37,-72.51 4110.8,-79.49"/>
</g>
<!-- Node67 -->
<g id="node47" class="node">
<title>Node67</title>
<g id="a_node47"><a xlink:title=" ">
<polygon fill="white" stroke="#bfbfbf" points="4300,-56.5 4300,-75.5 4447,-75.5 4447,-56.5 4300,-56.5"/>
<text text-anchor="middle" x="4373.5" y="-63.5" font-family="Helvetica,sans-Serif" font-size="10.00">../vpatterndb/vpiecenode.h</text>
</a>
</g>
</g>
<!-- Node1&#45;&gt;Node67 -->
<g id="edge49" class="edge">
<title>Node1&#45;&gt;Node67</title>
<path fill="none" stroke="midnightblue" d="M2039.58,-125.89C2356.21,-122.63 3814,-106.22 4289.74,-76.05"/>
<polygon fill="midnightblue" stroke="midnightblue" points="4290.02,-79.54 4299.77,-75.4 4289.56,-72.55 4290.02,-79.54"/>
</g>
<!-- Node68 -->
<g id="node48" class="node">
<title>Node68</title>
<g id="a_node48"><a xlink:href="../../d1/de6/vabstracttool_8h.html" target="_top" xlink:title=" ">
<polygon fill="white" stroke="red" points="122,-56.5 122,-75.5 257,-75.5 257,-56.5 122,-56.5"/>
<text text-anchor="middle" x="189.5" y="-63.5" font-family="Helvetica,sans-Serif" font-size="10.00">../../tools/vabstracttool.h</text>
</a>
</g>
</g>
<!-- Node1&#45;&gt;Node68 -->
<g id="edge50" class="edge">
<title>Node1&#45;&gt;Node68</title>
<path fill="none" stroke="midnightblue" d="M1917.32,-124.76C1706.82,-118.72 993,-97.85 403.5,-76 358.45,-74.33 308.08,-72.22 267.53,-70.47"/>
<polygon fill="midnightblue" stroke="midnightblue" points="267.58,-66.97 257.44,-70.03 267.28,-73.96 267.58,-66.97"/>
</g>
<!-- Node71 -->
<g id="node49" class="node">
<title>Node71</title>
<g id="a_node49"><a xlink:title=" ">
<polygon fill="white" stroke="#bfbfbf" points="4465.5,-56.5 4465.5,-75.5 4629.5,-75.5 4629.5,-56.5 4465.5,-56.5"/>
<text text-anchor="middle" x="4547.5" y="-63.5" font-family="Helvetica,sans-Serif" font-size="10.00">../vgeometry/vabstractcurve.h</text>
</a>
</g>
</g>
<!-- Node1&#45;&gt;Node71 -->
<g id="edge56" class="edge">
<title>Node1&#45;&gt;Node71</title>
<path fill="none" stroke="midnightblue" d="M2039.51,-125.91C2369.45,-122.59 3944,-105.5 4455.15,-76.02"/>
<polygon fill="midnightblue" stroke="midnightblue" points="4455.41,-79.51 4465.18,-75.43 4455,-72.52 4455.41,-79.51"/>
</g>
<!-- Node72 -->
<g id="node50" class="node">
<title>Node72</title>
<g id="a_node50"><a xlink:title=" ">
<polygon fill="white" stroke="#bfbfbf" points="4648,-56.5 4648,-75.5 4781,-75.5 4781,-56.5 4648,-56.5"/>
<text text-anchor="middle" x="4714.5" y="-63.5" font-family="Helvetica,sans-Serif" font-size="10.00">../vgeometry/vgobject.h</text>
</a>
</g>
</g>
<!-- Node1&#45;&gt;Node72 -->
<g id="edge57" class="edge">
<title>Node1&#45;&gt;Node72</title>
<path fill="none" stroke="midnightblue" d="M2039.69,-126.16C2384.43,-124.13 4088.03,-112.43 4637.81,-75.95"/>
<polygon fill="midnightblue" stroke="midnightblue" points="4638.07,-79.44 4647.81,-75.28 4637.59,-72.46 4638.07,-79.44"/>
</g>
<!-- Node3 -->
<g id="node3" class="node">
<title>Node3</title>
<g id="a_node3"><a xlink:title=" ">
<polygon fill="white" stroke="#bfbfbf" points="126.5,-0.5 126.5,-19.5 246.5,-19.5 246.5,-0.5 126.5,-0.5"/>
<text text-anchor="middle" x="186.5" y="-7.5" font-family="Helvetica,sans-Serif" font-size="10.00">qcompilerdetection.h</text>
</a>
</g>
</g>
<!-- Node2&#45;&gt;Node3 -->
<g id="edge2" class="edge">
<title>Node2&#45;&gt;Node3</title>
<path fill="none" stroke="midnightblue" d="M522.37,-59.62C460.3,-50.64 334.5,-32.43 255.72,-21.02"/>
<polygon fill="midnightblue" stroke="midnightblue" points="255.8,-17.5 245.4,-19.53 254.79,-24.42 255.8,-17.5"/>
</g>
<!-- Node4 -->
<g id="node4" class="node">
<title>Node4</title>
<g id="a_node4"><a xlink:title=" ">
<polygon fill="white" stroke="#bfbfbf" points="435,-0.5 435,-19.5 508,-19.5 508,-0.5 435,-0.5"/>
<text text-anchor="middle" x="471.5" y="-7.5" font-family="Helvetica,sans-Serif" font-size="10.00">QCheckBox</text>
</a>
</g>
</g>
<!-- Node2&#45;&gt;Node4 -->
<g id="edge3" class="edge">
<title>Node2&#45;&gt;Node4</title>
<path fill="none" stroke="midnightblue" d="M545.36,-56.32C531.63,-47.9 510.56,-34.97 494.44,-25.07"/>
<polygon fill="midnightblue" stroke="midnightblue" points="495.96,-21.9 485.6,-19.65 492.3,-27.87 495.96,-21.9"/>
</g>
<!-- Node5 -->
<g id="node5" class="node">
<title>Node5</title>
<g id="a_node5"><a xlink:title=" ">
<polygon fill="white" stroke="#bfbfbf" points="526.5,-0.5 526.5,-19.5 576.5,-19.5 576.5,-0.5 526.5,-0.5"/>
<text text-anchor="middle" x="551.5" y="-7.5" font-family="Helvetica,sans-Serif" font-size="10.00">QColor</text>
</a>
</g>
</g>
<!-- Node2&#45;&gt;Node5 -->
<g id="edge4" class="edge">
<title>Node2&#45;&gt;Node5</title>
<path fill="none" stroke="midnightblue" d="M558.18,-56.08C557.12,-48.93 555.59,-38.64 554.27,-29.69"/>
<polygon fill="midnightblue" stroke="midnightblue" points="557.72,-29.13 552.8,-19.75 550.8,-30.16 557.72,-29.13"/>
</g>
<!-- Node2&#45;&gt;Node6 -->
<g id="edge5" class="edge">
<title>Node2&#45;&gt;Node6</title>
<path fill="none" stroke="midnightblue" d="M571.39,-56.32C582.65,-48.11 599.79,-35.6 613.21,-25.81"/>
<polygon fill="midnightblue" stroke="midnightblue" points="615.38,-28.56 621.39,-19.83 611.25,-22.9 615.38,-28.56"/>
</g>
<!-- Node2&#45;&gt;Node9 -->
<g id="edge6" class="edge">
<title>Node2&#45;&gt;Node9</title>
<path fill="none" stroke="midnightblue" d="M585.17,-56.44C612.42,-47.36 655.68,-32.94 686.15,-22.78"/>
<polygon fill="midnightblue" stroke="midnightblue" points="687.57,-26 695.95,-19.52 685.36,-19.36 687.57,-26"/>
</g>
<!-- Node2&#45;&gt;Node17 -->
<g id="edge7" class="edge">
<title>Node2&#45;&gt;Node17</title>
<path fill="none" stroke="midnightblue" d="M596.68,-57.03C640.4,-47.66 713.13,-32.08 761.69,-21.67"/>
<polygon fill="midnightblue" stroke="midnightblue" points="762.62,-25.05 771.67,-19.54 761.15,-18.21 762.62,-25.05"/>
</g>
<!-- Node2&#45;&gt;Node23 -->
<g id="edge8" class="edge">
<title>Node2&#45;&gt;Node23</title>
<path fill="none" stroke="midnightblue" d="M524.8,-56.44C486.92,-47.1 426.15,-32.12 384.84,-21.93"/>
<polygon fill="midnightblue" stroke="midnightblue" points="385.59,-18.51 375.04,-19.52 383.91,-25.31 385.59,-18.51"/>
</g>
<!-- Node2&#45;&gt;Node29 -->
<g id="edge9" class="edge">
<title>Node2&#45;&gt;Node29</title>
<path fill="none" stroke="midnightblue" d="M596.7,-59.82C660.98,-50.88 793.84,-32.39 876.34,-20.9"/>
<polygon fill="midnightblue" stroke="midnightblue" points="876.97,-24.35 886.39,-19.5 876,-17.42 876.97,-24.35"/>
</g>
<!-- Node68&#45;&gt;Node3 -->
<g id="edge51" class="edge">
<title>Node68&#45;&gt;Node3</title>
<path fill="none" stroke="midnightblue" d="M189,-56.08C188.61,-49.01 188.05,-38.86 187.55,-29.99"/>
<polygon fill="midnightblue" stroke="midnightblue" points="191.04,-29.54 186.99,-19.75 184.05,-29.93 191.04,-29.54"/>
</g>
<!-- Node68&#45;&gt;Node23 -->
<g id="edge54" class="edge">
<title>Node68&#45;&gt;Node23</title>
<path fill="none" stroke="midnightblue" d="M213.43,-56.44C238.72,-47.4 278.8,-33.06 307.18,-22.92"/>
<polygon fill="midnightblue" stroke="midnightblue" points="308.45,-26.18 316.69,-19.52 306.09,-19.59 308.45,-26.18"/>
</g>
<!-- Node68&#45;&gt;Node44 -->
<g id="edge53" class="edge">
<title>Node68&#45;&gt;Node44</title>
<path fill="none" stroke="midnightblue" d="M164.31,-56.44C137.56,-47.36 95.1,-32.94 65.19,-22.78"/>
<polygon fill="midnightblue" stroke="midnightblue" points="66.17,-19.42 55.58,-19.52 63.92,-26.05 66.17,-19.42"/>
</g>
<!-- Node68&#45;&gt;Node55 -->
<g id="edge52" class="edge">
<title>Node68&#45;&gt;Node55</title>
<path fill="none" stroke="midnightblue" d="M174.08,-56.32C158.78,-47.72 135.13,-34.42 117.4,-24.45"/>
<polygon fill="midnightblue" stroke="midnightblue" points="118.69,-21.15 108.26,-19.3 115.26,-27.25 118.69,-21.15"/>
</g>
</g>
</svg>
