<?xml version="1.0" encoding="UTF-8" standalone="no"?>
<!DOCTYPE svg PUBLIC "-//W3C//DTD SVG 1.1//EN"
 "http://www.w3.org/Graphics/SVG/1.1/DTD/svg11.dtd">
<!-- Generated by graphviz version 2.43.0 (0)
 -->
<!-- Title: src/libs/vpatterndb/variables/vincrement.h Pages: 1 -->
<svg width="6550pt" height="385pt"
 viewBox="0.00 0.00 6549.50 385.00" xmlns="http://www.w3.org/2000/svg" xmlns:xlink="http://www.w3.org/1999/xlink">
<g id="graph0" class="graph" transform="scale(1 1) rotate(0) translate(4 381)">
<title>src/libs/vpatterndb/variables/vincrement.h</title>
<polygon fill="white" stroke="transparent" points="-4,4 -4,-381 6545.5,-381 6545.5,4 -4,4"/>
<!-- Node1 -->
<g id="node1" class="node">
<title>Node1</title>
<g id="a_node1"><a xlink:title=" ">
<polygon fill="#bfbfbf" stroke="black" points="5262,-346.5 5262,-376.5 5394,-376.5 5394,-346.5 5262,-346.5"/>
<text text-anchor="start" x="5270" y="-364.5" font-family="Helvetica,sans-Serif" font-size="10.00">src/libs/vpatterndb</text>
<text text-anchor="middle" x="5328" y="-353.5" font-family="Helvetica,sans-Serif" font-size="10.00">/variables/vincrement.h</text>
</a>
</g>
</g>
<!-- Node2 -->
<g id="node2" class="node">
<title>Node2</title>
<g id="a_node2"><a xlink:href="../../d6/de6/vincrement_8cpp.html" target="_top" xlink:title=" ">
<polygon fill="white" stroke="black" points="5437.5,-67.5 5437.5,-97.5 5580.5,-97.5 5580.5,-67.5 5437.5,-67.5"/>
<text text-anchor="start" x="5445.5" y="-85.5" font-family="Helvetica,sans-Serif" font-size="10.00">src/libs/vpatterndb</text>
<text text-anchor="middle" x="5509" y="-74.5" font-family="Helvetica,sans-Serif" font-size="10.00">/variables/vincrement.cpp</text>
</a>
</g>
</g>
<!-- Node1&#45;&gt;Node2 -->
<g id="edge1" class="edge">
<title>Node1&#45;&gt;Node2</title>
<path fill="none" stroke="midnightblue" d="M5327.33,-336.24C5327.4,-290.95 5333.9,-192.82 5385,-134 5400.09,-116.63 5422.06,-105.14 5443.32,-97.58"/>
<polygon fill="midnightblue" stroke="midnightblue" points="5323.83,-336.35 5327.43,-346.31 5330.83,-336.28 5323.83,-336.35"/>
</g>
<!-- Node3 -->
<g id="node3" class="node">
<title>Node3</title>
<g id="a_node3"><a xlink:href="../../de/dca/variables_8h.html" target="_top" xlink:title=" ">
<polygon fill="white" stroke="black" points="5384.5,-279.5 5384.5,-309.5 5491.5,-309.5 5491.5,-279.5 5384.5,-279.5"/>
<text text-anchor="start" x="5392.5" y="-297.5" font-family="Helvetica,sans-Serif" font-size="10.00">src/libs/vpatterndb</text>
<text text-anchor="middle" x="5438" y="-286.5" font-family="Helvetica,sans-Serif" font-size="10.00">/variables.h</text>
</a>
</g>
</g>
<!-- Node1&#45;&gt;Node3 -->
<g id="edge2" class="edge">
<title>Node1&#45;&gt;Node3</title>
<path fill="none" stroke="midnightblue" d="M5360.5,-341.3C5377.71,-331.12 5398.48,-318.85 5414.18,-309.58"/>
<polygon fill="midnightblue" stroke="midnightblue" points="5358.7,-338.3 5351.87,-346.4 5362.26,-344.32 5358.7,-338.3"/>
</g>
<!-- Node36 -->
<g id="node31" class="node">
<title>Node36</title>
<g id="a_node31"><a xlink:href="../../d6/d46/vcontainer_8cpp.html" target="_top" xlink:title=" ">
<polygon fill="white" stroke="black" points="1320.5,-67.5 1320.5,-97.5 1427.5,-97.5 1427.5,-67.5 1320.5,-67.5"/>
<text text-anchor="start" x="1328.5" y="-85.5" font-family="Helvetica,sans-Serif" font-size="10.00">src/libs/vpatterndb</text>
<text text-anchor="middle" x="1374" y="-74.5" font-family="Helvetica,sans-Serif" font-size="10.00">/vcontainer.cpp</text>
</a>
</g>
</g>
<!-- Node1&#45;&gt;Node36 -->
<g id="edge61" class="edge">
<title>Node1&#45;&gt;Node36</title>
<path fill="none" stroke="midnightblue" d="M5251.72,-359.17C4793.4,-350.83 2401.11,-301.81 1679,-176 1579.24,-158.62 1466.25,-118.82 1409.92,-97.54"/>
<polygon fill="midnightblue" stroke="midnightblue" points="5251.8,-362.68 5261.87,-359.36 5251.93,-355.68 5251.8,-362.68"/>
</g>
<!-- Node4 -->
<g id="node4" class="node">
<title>Node4</title>
<g id="a_node4"><a xlink:href="../../d3/df7/vcontainer_8h.html" target="_top" xlink:title=" ">
<polygon fill="white" stroke="black" points="5462.5,-212.5 5462.5,-242.5 5569.5,-242.5 5569.5,-212.5 5462.5,-212.5"/>
<text text-anchor="start" x="5470.5" y="-230.5" font-family="Helvetica,sans-Serif" font-size="10.00">src/libs/vpatterndb</text>
<text text-anchor="middle" x="5516" y="-219.5" font-family="Helvetica,sans-Serif" font-size="10.00">/vcontainer.h</text>
</a>
</g>
</g>
<!-- Node3&#45;&gt;Node4 -->
<g id="edge3" class="edge">
<title>Node3&#45;&gt;Node4</title>
<path fill="none" stroke="midnightblue" d="M5462.74,-272.88C5474.59,-263.01 5488.48,-251.43 5499.11,-242.58"/>
<polygon fill="midnightblue" stroke="midnightblue" points="5460.37,-270.31 5454.92,-279.4 5464.85,-275.68 5460.37,-270.31"/>
</g>
<!-- Node5 -->
<g id="node5" class="node">
<title>Node5</title>
<g id="a_node5"><a xlink:href="../../dc/db7/measurements_8h.html" target="_top" xlink:title=" ">
<polygon fill="white" stroke="black" points="6362.5,-145.5 6362.5,-164.5 6541.5,-164.5 6541.5,-145.5 6362.5,-145.5"/>
<text text-anchor="middle" x="6452" y="-152.5" font-family="Helvetica,sans-Serif" font-size="10.00">src/libs/vformat/measurements.h</text>
</a>
</g>
</g>
<!-- Node4&#45;&gt;Node5 -->
<g id="edge4" class="edge">
<title>Node4&#45;&gt;Node5</title>
<path fill="none" stroke="midnightblue" d="M5579.87,-225.44C5719.64,-222.49 6062.96,-211.91 6348,-176 6369.89,-173.24 6394.11,-168.68 6413.67,-164.6"/>
<polygon fill="midnightblue" stroke="midnightblue" points="5579.68,-221.94 5569.76,-225.64 5579.83,-228.94 5579.68,-221.94"/>
</g>
<!-- Node6 -->
<g id="node6" class="node">
<title>Node6</title>
<g id="a_node6"><a xlink:href="../../d9/de3/measurements_8cpp.html" target="_top" xlink:title=" ">
<polygon fill="white" stroke="black" points="6298,-73 6298,-92 6488,-92 6488,-73 6298,-73"/>
<text text-anchor="middle" x="6393" y="-80" font-family="Helvetica,sans-Serif" font-size="10.00">src/libs/vformat/measurements.cpp</text>
</a>
</g>
</g>
<!-- Node4&#45;&gt;Node6 -->
<g id="edge6" class="edge">
<title>Node4&#45;&gt;Node6</title>
<path fill="none" stroke="midnightblue" d="M5579.82,-225.33C5757.66,-221.68 6250.08,-208.71 6315,-176 6324.66,-171.13 6369.28,-114.2 6386.34,-92.15"/>
<polygon fill="midnightblue" stroke="midnightblue" points="5579.5,-221.84 5569.57,-225.54 5579.64,-228.84 5579.5,-221.84"/>
</g>
<!-- Node7 -->
<g id="node7" class="node">
<title>Node7</title>
<g id="a_node7"><a xlink:href="../../d6/de0/vlayoutpiece_8h.html" target="_top" xlink:title=" ">
<polygon fill="white" stroke="black" points="547,-145.5 547,-164.5 713,-164.5 713,-145.5 547,-145.5"/>
<text text-anchor="middle" x="630" y="-152.5" font-family="Helvetica,sans-Serif" font-size="10.00">src/libs/vlayout/vlayoutpiece.h</text>
</a>
</g>
</g>
<!-- Node4&#45;&gt;Node7 -->
<g id="edge7" class="edge">
<title>Node4&#45;&gt;Node7</title>
<path fill="none" stroke="midnightblue" d="M5452.14,-225.67C5096.33,-221.02 3322.44,-197.71 1873,-176 1436.27,-169.46 913.24,-160.76 713.28,-157.4"/>
<polygon fill="midnightblue" stroke="midnightblue" points="5452.2,-229.17 5462.25,-225.8 5452.3,-222.17 5452.2,-229.17"/>
</g>
<!-- Node17 -->
<g id="node16" class="node">
<title>Node17</title>
<g id="a_node16"><a xlink:href="../../d8/d70/vtextmanager_8cpp.html" target="_top" xlink:title=" ">
<polygon fill="white" stroke="black" points="1446,-73 1446,-92 1628,-92 1628,-73 1446,-73"/>
<text text-anchor="middle" x="1537" y="-80" font-family="Helvetica,sans-Serif" font-size="10.00">src/libs/vlayout/vtextmanager.cpp</text>
</a>
</g>
</g>
<!-- Node4&#45;&gt;Node17 -->
<g id="edge18" class="edge">
<title>Node4&#45;&gt;Node17</title>
<path fill="none" stroke="midnightblue" d="M5451.88,-225.46C5010.9,-218.12 2421.54,-172.37 1637,-98 1621.28,-96.51 1604.26,-94.28 1588.78,-92"/>
<polygon fill="midnightblue" stroke="midnightblue" points="5452.14,-228.96 5462.19,-225.63 5452.25,-221.96 5452.14,-228.96"/>
</g>
<!-- Node18 -->
<g id="node17" class="node">
<title>Node18</title>
<g id="a_node17"><a xlink:href="../../d5/d74/vabstractapplication_8h.html" target="_top" xlink:title=" ">
<polygon fill="white" stroke="red" points="3377.5,-145.5 3377.5,-164.5 3572.5,-164.5 3572.5,-145.5 3377.5,-145.5"/>
<text text-anchor="middle" x="3475" y="-152.5" font-family="Helvetica,sans-Serif" font-size="10.00">src/libs/vmisc/vabstractapplication.h</text>
</a>
</g>
</g>
<!-- Node4&#45;&gt;Node18 -->
<g id="edge19" class="edge">
<title>Node4&#45;&gt;Node18</title>
<path fill="none" stroke="midnightblue" d="M5452.39,-224.3C5158.35,-214.15 3929.86,-171.71 3572.75,-159.38"/>
<polygon fill="midnightblue" stroke="midnightblue" points="5452.34,-227.8 5462.46,-224.65 5452.58,-220.81 5452.34,-227.8"/>
</g>
<!-- Node4&#45;&gt;Node36 -->
<g id="edge53" class="edge">
<title>Node4&#45;&gt;Node36</title>
<path fill="none" stroke="midnightblue" d="M5452.09,-226.3C5049.43,-224.92 2859.1,-215.66 2190,-176 1854.13,-156.09 1768.9,-153.17 1437,-98 1433.9,-97.48 1430.72,-96.91 1427.53,-96.29"/>
<polygon fill="midnightblue" stroke="midnightblue" points="5452.37,-229.8 5462.38,-226.33 5452.39,-222.8 5452.37,-229.8"/>
</g>
<!-- Node37 -->
<g id="node32" class="node">
<title>Node37</title>
<g id="a_node32"><a xlink:href="../../db/d11/vformula_8cpp.html" target="_top" xlink:title=" ">
<polygon fill="white" stroke="black" points="5187.5,-67.5 5187.5,-97.5 5294.5,-97.5 5294.5,-67.5 5187.5,-67.5"/>
<text text-anchor="start" x="5195.5" y="-85.5" font-family="Helvetica,sans-Serif" font-size="10.00">src/libs/vpatterndb</text>
<text text-anchor="middle" x="5241" y="-74.5" font-family="Helvetica,sans-Serif" font-size="10.00">/vformula.cpp</text>
</a>
</g>
</g>
<!-- Node4&#45;&gt;Node37 -->
<g id="edge55" class="edge">
<title>Node4&#45;&gt;Node37</title>
<path fill="none" stroke="midnightblue" d="M5452.54,-210.42C5424.54,-202.08 5391.76,-190.55 5364,-176 5321.64,-153.8 5278.38,-117.42 5256.19,-97.54"/>
<polygon fill="midnightblue" stroke="midnightblue" points="5451.65,-213.81 5462.23,-213.24 5453.6,-207.09 5451.65,-213.81"/>
</g>
<!-- Node39 -->
<g id="node34" class="node">
<title>Node39</title>
<g id="a_node34"><a xlink:href="../../d8/dba/vpiecenode_8cpp.html" target="_top" xlink:title=" ">
<polygon fill="white" stroke="black" points="5308.5,-0.5 5308.5,-30.5 5415.5,-30.5 5415.5,-0.5 5308.5,-0.5"/>
<text text-anchor="start" x="5316.5" y="-18.5" font-family="Helvetica,sans-Serif" font-size="10.00">src/libs/vpatterndb</text>
<text text-anchor="middle" x="5362" y="-7.5" font-family="Helvetica,sans-Serif" font-size="10.00">/vpiecenode.cpp</text>
</a>
</g>
</g>
<!-- Node4&#45;&gt;Node39 -->
<g id="edge56" class="edge">
<title>Node4&#45;&gt;Node39</title>
<path fill="none" stroke="midnightblue" d="M5532.14,-203.97C5558.71,-165.57 5606.99,-89.43 5589,-67 5567.69,-40.43 5475.84,-26.94 5415.7,-20.84"/>
<polygon fill="midnightblue" stroke="midnightblue" points="5529.09,-202.23 5526.22,-212.43 5534.82,-206.25 5529.09,-202.23"/>
</g>
<!-- Node40 -->
<g id="node35" class="node">
<title>Node40</title>
<g id="a_node35"><a xlink:href="../../df/d7a/vpiece_8cpp.html" target="_top" xlink:title=" ">
<polygon fill="white" stroke="black" points="5312.5,-67.5 5312.5,-97.5 5419.5,-97.5 5419.5,-67.5 5312.5,-67.5"/>
<text text-anchor="start" x="5320.5" y="-85.5" font-family="Helvetica,sans-Serif" font-size="10.00">src/libs/vpatterndb</text>
<text text-anchor="middle" x="5366" y="-74.5" font-family="Helvetica,sans-Serif" font-size="10.00">/vpiece.cpp</text>
</a>
</g>
</g>
<!-- Node4&#45;&gt;Node40 -->
<g id="edge58" class="edge">
<title>Node4&#45;&gt;Node40</title>
<path fill="none" stroke="midnightblue" d="M5452.4,-215.54C5428.04,-208.24 5402.03,-196.11 5385,-176 5366.14,-153.73 5364.32,-117.71 5364.96,-97.83"/>
<polygon fill="midnightblue" stroke="midnightblue" points="5451.78,-219 5462.35,-218.3 5453.65,-212.26 5451.78,-219"/>
</g>
<!-- Node57 -->
<g id="node45" class="node">
<title>Node57</title>
<g id="a_node45"><a xlink:href="../../d7/d8a/measurement__variable__p_8h.html" target="_top" xlink:title=" ">
<polygon fill="white" stroke="red" points="5594,-134.5 5594,-175.5 5730,-175.5 5730,-134.5 5594,-134.5"/>
<text text-anchor="start" x="5602" y="-163.5" font-family="Helvetica,sans-Serif" font-size="10.00">src/libs/vpatterndb</text>
<text text-anchor="start" x="5602" y="-152.5" font-family="Helvetica,sans-Serif" font-size="10.00">/variables/measurement</text>
<text text-anchor="middle" x="5662" y="-141.5" font-family="Helvetica,sans-Serif" font-size="10.00">_variable_p.h</text>
</a>
</g>
</g>
<!-- Node4&#45;&gt;Node57 -->
<g id="edge50" class="edge">
<title>Node4&#45;&gt;Node57</title>
<path fill="none" stroke="midnightblue" d="M5554.32,-208C5575,-198.01 5600.52,-185.69 5621.52,-175.55"/>
<polygon fill="midnightblue" stroke="midnightblue" points="5552.68,-204.9 5545.19,-212.4 5555.72,-211.21 5552.68,-204.9"/>
</g>
<!-- Node59 -->
<g id="node46" class="node">
<title>Node59</title>
<g id="a_node46"><a xlink:href="../../d1/de1/vincrement__p_8h.html" target="_top" xlink:title=" ">
<polygon fill="white" stroke="black" points="5394.5,-140 5394.5,-170 5537.5,-170 5537.5,-140 5394.5,-140"/>
<text text-anchor="start" x="5402.5" y="-158" font-family="Helvetica,sans-Serif" font-size="10.00">src/libs/vpatterndb</text>
<text text-anchor="middle" x="5466" y="-147" font-family="Helvetica,sans-Serif" font-size="10.00">/variables/vincrement_p.h</text>
</a>
</g>
</g>
<!-- Node4&#45;&gt;Node59 -->
<g id="edge51" class="edge">
<title>Node4&#45;&gt;Node59</title>
<path fill="none" stroke="midnightblue" d="M5499.96,-203.89C5492.13,-192.84 5482.94,-179.89 5476.1,-170.25"/>
<polygon fill="midnightblue" stroke="midnightblue" points="5497.24,-206.1 5505.88,-212.23 5502.95,-202.05 5497.24,-206.1"/>
</g>
<!-- Node60 -->
<g id="node47" class="node">
<title>Node60</title>
<g id="a_node47"><a xlink:href="../../d6/d91/vnodedetail_8cpp.html" target="_top" xlink:title=" ">
<polygon fill="white" stroke="black" points="5748.5,-140 5748.5,-170 5855.5,-170 5855.5,-140 5748.5,-140"/>
<text text-anchor="start" x="5756.5" y="-158" font-family="Helvetica,sans-Serif" font-size="10.00">src/libs/vpatterndb</text>
<text text-anchor="middle" x="5802" y="-147" font-family="Helvetica,sans-Serif" font-size="10.00">/vnodedetail.cpp</text>
</a>
</g>
</g>
<!-- Node4&#45;&gt;Node60 -->
<g id="edge54" class="edge">
<title>Node4&#45;&gt;Node60</title>
<path fill="none" stroke="midnightblue" d="M5579.81,-213.55C5624.59,-204.1 5685.75,-190.45 5739,-176 5745.64,-174.2 5752.64,-172.14 5759.45,-170.05"/>
<polygon fill="midnightblue" stroke="midnightblue" points="5579,-210.14 5569.94,-215.62 5580.44,-216.99 5579,-210.14"/>
</g>
<!-- Node61 -->
<g id="node48" class="node">
<title>Node61</title>
<g id="a_node48"><a xlink:href="../../da/de1/vpiecepath_8cpp.html" target="_top" xlink:title=" ">
<polygon fill="white" stroke="black" points="5873.5,-140 5873.5,-170 5980.5,-170 5980.5,-140 5873.5,-140"/>
<text text-anchor="start" x="5881.5" y="-158" font-family="Helvetica,sans-Serif" font-size="10.00">src/libs/vpatterndb</text>
<text text-anchor="middle" x="5927" y="-147" font-family="Helvetica,sans-Serif" font-size="10.00">/vpiecepath.cpp</text>
</a>
</g>
</g>
<!-- Node4&#45;&gt;Node61 -->
<g id="edge57" class="edge">
<title>Node4&#45;&gt;Node61</title>
<path fill="none" stroke="midnightblue" d="M5579.58,-220.43C5649.79,-212.99 5765.89,-198.53 5864,-176 5871.16,-174.36 5878.67,-172.28 5885.92,-170.1"/>
<polygon fill="midnightblue" stroke="midnightblue" points="5579.14,-216.95 5569.56,-221.47 5579.87,-223.91 5579.14,-216.95"/>
</g>
<!-- Node62 -->
<g id="node49" class="node">
<title>Node62</title>
<g id="a_node49"><a xlink:href="../../d1/d3a/abstracttest_8cpp.html" target="_top" xlink:title=" ">
<polygon fill="white" stroke="black" points="5998.5,-145.5 5998.5,-164.5 6159.5,-164.5 6159.5,-145.5 5998.5,-145.5"/>
<text text-anchor="middle" x="6079" y="-152.5" font-family="Helvetica,sans-Serif" font-size="10.00">src/libs/vtest/abstracttest.cpp</text>
</a>
</g>
</g>
<!-- Node4&#45;&gt;Node62 -->
<g id="edge59" class="edge">
<title>Node4&#45;&gt;Node62</title>
<path fill="none" stroke="midnightblue" d="M5579.77,-222.05C5671.08,-215.14 5844.16,-200.07 5990,-176 6008.44,-172.96 6028.79,-168.47 6045.37,-164.52"/>
<polygon fill="midnightblue" stroke="midnightblue" points="5579.29,-218.57 5569.58,-222.81 5579.82,-225.55 5579.29,-218.57"/>
</g>
<!-- Node63 -->
<g id="node50" class="node">
<title>Node63</title>
<g id="a_node50"><a xlink:href="../../da/db4/piece__tablewidgetitem_8cpp.html" target="_top" xlink:title=" ">
<polygon fill="white" stroke="black" points="6178,-140 6178,-170 6306,-170 6306,-140 6178,-140"/>
<text text-anchor="start" x="6186" y="-158" font-family="Helvetica,sans-Serif" font-size="10.00">src/libs/vwidgets/piece</text>
<text text-anchor="middle" x="6242" y="-147" font-family="Helvetica,sans-Serif" font-size="10.00">_tablewidgetitem.cpp</text>
</a>
</g>
</g>
<!-- Node4&#45;&gt;Node63 -->
<g id="edge60" class="edge">
<title>Node4&#45;&gt;Node63</title>
<path fill="none" stroke="midnightblue" d="M5580.01,-225.58C5697.54,-222.99 5955.32,-213.18 6169,-176 6177.8,-174.47 6187.08,-172.34 6195.96,-170.04"/>
<polygon fill="midnightblue" stroke="midnightblue" points="5579.68,-222.08 5569.75,-225.79 5579.83,-229.08 5579.68,-222.08"/>
</g>
<!-- Node5&#45;&gt;Node6 -->
<g id="edge5" class="edge">
<title>Node5&#45;&gt;Node6</title>
<path fill="none" stroke="midnightblue" d="M6438.11,-137.4C6426.26,-123.24 6409.7,-103.46 6400.29,-92.22"/>
<polygon fill="midnightblue" stroke="midnightblue" points="6435.66,-139.93 6444.77,-145.36 6441.03,-135.44 6435.66,-139.93"/>
</g>
<!-- Node8 -->
<g id="node8" class="node">
<title>Node8</title>
<g id="a_node8"><a xlink:href="../../dd/d66/vdxfengine_8cpp.html" target="_top" xlink:title=" ">
<polygon fill="white" stroke="black" points="953,-73 953,-92 1107,-92 1107,-73 953,-73"/>
<text text-anchor="middle" x="1030" y="-80" font-family="Helvetica,sans-Serif" font-size="10.00">src/libs/vdxf/vdxfengine.cpp</text>
</a>
</g>
</g>
<!-- Node7&#45;&gt;Node8 -->
<g id="edge8" class="edge">
<title>Node7&#45;&gt;Node8</title>
<path fill="none" stroke="midnightblue" d="M688.55,-143.68C767.84,-129.71 907.9,-105.02 981.58,-92.03"/>
<polygon fill="midnightblue" stroke="midnightblue" points="687.49,-140.31 678.25,-145.5 688.71,-147.21 687.49,-140.31"/>
</g>
<!-- Node9 -->
<g id="node9" class="node">
<title>Node9</title>
<g id="a_node9"><a xlink:href="../../de/da8/vbank_8cpp.html" target="_top" xlink:title=" ">
<polygon fill="white" stroke="black" points="0,-73 0,-92 144,-92 144,-73 0,-73"/>
<text text-anchor="middle" x="72" y="-80" font-family="Helvetica,sans-Serif" font-size="10.00">src/libs/vlayout/vbank.cpp</text>
</a>
</g>
</g>
<!-- Node7&#45;&gt;Node9 -->
<g id="edge9" class="edge">
<title>Node7&#45;&gt;Node9</title>
<path fill="none" stroke="midnightblue" d="M536.64,-144.72C440.32,-134.75 285.84,-117.67 153,-98 141.27,-96.26 128.63,-94.13 116.91,-92.04"/>
<polygon fill="midnightblue" stroke="midnightblue" points="536.34,-148.21 546.65,-145.75 537.06,-141.25 536.34,-148.21"/>
</g>
<!-- Node10 -->
<g id="node10" class="node">
<title>Node10</title>
<g id="a_node10"><a xlink:href="../../df/d5d/vcontour_8cpp.html" target="_top" xlink:title=" ">
<polygon fill="white" stroke="black" points="162,-73 162,-92 318,-92 318,-73 162,-73"/>
<text text-anchor="middle" x="240" y="-80" font-family="Helvetica,sans-Serif" font-size="10.00">src/libs/vlayout/vcontour.cpp</text>
</a>
</g>
</g>
<!-- Node7&#45;&gt;Node10 -->
<g id="edge10" class="edge">
<title>Node7&#45;&gt;Node10</title>
<path fill="none" stroke="midnightblue" d="M572.91,-143.68C495.6,-129.71 359.05,-105.02 287.21,-92.03"/>
<polygon fill="midnightblue" stroke="midnightblue" points="572.49,-147.16 582.96,-145.5 573.74,-140.27 572.49,-147.16"/>
</g>
<!-- Node11 -->
<g id="node11" class="node">
<title>Node11</title>
<g id="a_node11"><a xlink:href="../../d2/d2d/vlayoutpaper__p_8h.html" target="_top" xlink:title=" ">
<polygon fill="white" stroke="black" points="540.5,-73 540.5,-92 719.5,-92 719.5,-73 540.5,-73"/>
<text text-anchor="middle" x="630" y="-80" font-family="Helvetica,sans-Serif" font-size="10.00">src/libs/vlayout/vlayoutpaper_p.h</text>
</a>
</g>
</g>
<!-- Node7&#45;&gt;Node11 -->
<g id="edge11" class="edge">
<title>Node7&#45;&gt;Node11</title>
<path fill="none" stroke="midnightblue" d="M630,-134.94C630,-121.03 630,-102.82 630,-92.22"/>
<polygon fill="midnightblue" stroke="midnightblue" points="626.5,-135.36 630,-145.36 633.5,-135.36 626.5,-135.36"/>
</g>
<!-- Node12 -->
<g id="node12" class="node">
<title>Node12</title>
<g id="a_node12"><a xlink:href="../../d1/dd1/vlayoutpaper_8cpp.html" target="_top" xlink:title=" ">
<polygon fill="white" stroke="black" points="423,-6 423,-25 601,-25 601,-6 423,-6"/>
<text text-anchor="middle" x="512" y="-13" font-family="Helvetica,sans-Serif" font-size="10.00">src/libs/vlayout/vlayoutpaper.cpp</text>
</a>
</g>
</g>
<!-- Node7&#45;&gt;Node12 -->
<g id="edge17" class="edge">
<title>Node7&#45;&gt;Node12</title>
<path fill="none" stroke="midnightblue" d="M592.88,-141.61C571.7,-132.69 546.39,-118.56 531,-98 514.28,-75.67 511.95,-40.99 511.83,-25.05"/>
<polygon fill="midnightblue" stroke="midnightblue" points="591.68,-144.9 602.27,-145.34 594.27,-138.39 591.68,-144.9"/>
</g>
<!-- Node13 -->
<g id="node13" class="node">
<title>Node13</title>
<g id="a_node13"><a xlink:href="../../d3/d39/vlayoutgenerator_8cpp.html" target="_top" xlink:title=" ">
<polygon fill="white" stroke="black" points="737.5,-73 737.5,-92 934.5,-92 934.5,-73 737.5,-73"/>
<text text-anchor="middle" x="836" y="-80" font-family="Helvetica,sans-Serif" font-size="10.00">src/libs/vlayout/vlayoutgenerator.cpp</text>
</a>
</g>
</g>
<!-- Node7&#45;&gt;Node13 -->
<g id="edge13" class="edge">
<title>Node7&#45;&gt;Node13</title>
<path fill="none" stroke="midnightblue" d="M664.51,-142.19C705.95,-128.01 774.43,-104.57 811.06,-92.03"/>
<polygon fill="midnightblue" stroke="midnightblue" points="663.18,-138.95 654.85,-145.5 665.44,-145.57 663.18,-138.95"/>
</g>
<!-- Node14 -->
<g id="node14" class="node">
<title>Node14</title>
<g id="a_node14"><a xlink:href="../../dd/d70/vlayoutpiece_8cpp.html" target="_top" xlink:title=" ">
<polygon fill="white" stroke="black" points="1125.5,-73 1125.5,-92 1302.5,-92 1302.5,-73 1125.5,-73"/>
<text text-anchor="middle" x="1214" y="-80" font-family="Helvetica,sans-Serif" font-size="10.00">src/libs/vlayout/vlayoutpiece.cpp</text>
</a>
</g>
</g>
<!-- Node7&#45;&gt;Node14 -->
<g id="edge14" class="edge">
<title>Node7&#45;&gt;Node14</title>
<path fill="none" stroke="midnightblue" d="M721.07,-144.39C818.81,-133.87 978.55,-116.08 1116,-98 1129.81,-96.18 1144.7,-94.06 1158.59,-92.02"/>
<polygon fill="midnightblue" stroke="midnightblue" points="720.5,-140.93 710.93,-145.48 721.25,-147.89 720.5,-140.93"/>
</g>
<!-- Node15 -->
<g id="node15" class="node">
<title>Node15</title>
<g id="a_node15"><a xlink:href="../../db/d5c/vposition_8h.html" target="_top" xlink:title=" ">
<polygon fill="white" stroke="red" points="336,-73 336,-92 484,-92 484,-73 336,-73"/>
<text text-anchor="middle" x="410" y="-80" font-family="Helvetica,sans-Serif" font-size="10.00">src/libs/vlayout/vposition.h</text>
</a>
</g>
</g>
<!-- Node7&#45;&gt;Node15 -->
<g id="edge15" class="edge">
<title>Node7&#45;&gt;Node15</title>
<path fill="none" stroke="midnightblue" d="M593.7,-142.37C549.51,-128.21 475.92,-104.62 436.63,-92.03"/>
<polygon fill="midnightblue" stroke="midnightblue" points="592.87,-145.78 603.46,-145.5 595.01,-139.11 592.87,-145.78"/>
</g>
<!-- Node11&#45;&gt;Node12 -->
<g id="edge12" class="edge">
<title>Node11&#45;&gt;Node12</title>
<path fill="none" stroke="midnightblue" d="M605.11,-67.79C581.72,-54.9 547.44,-36.02 527.66,-25.13"/>
<polygon fill="midnightblue" stroke="midnightblue" points="603.64,-70.97 614.09,-72.73 607.02,-64.84 603.64,-70.97"/>
</g>
<!-- Node15&#45;&gt;Node12 -->
<g id="edge16" class="edge">
<title>Node15&#45;&gt;Node12</title>
<path fill="none" stroke="midnightblue" d="M432.33,-67.27C452.52,-54.4 481.59,-35.88 498.46,-25.13"/>
<polygon fill="midnightblue" stroke="midnightblue" points="430.31,-64.41 423.76,-72.73 434.07,-70.31 430.31,-64.41"/>
</g>
<!-- Node18&#45;&gt;Node14 -->
<g id="edge30" class="edge">
<title>Node18&#45;&gt;Node14</title>
<path fill="none" stroke="midnightblue" d="M3367.06,-152.96C2987.73,-149.02 1716.91,-133.46 1311,-98 1295.39,-96.64 1278.48,-94.38 1263.21,-92.05"/>
<polygon fill="midnightblue" stroke="midnightblue" points="3367.17,-156.46 3377.21,-153.06 3367.24,-149.46 3367.17,-156.46"/>
</g>
<!-- Node18&#45;&gt;Node17 -->
<g id="edge31" class="edge">
<title>Node18&#45;&gt;Node17</title>
<path fill="none" stroke="midnightblue" d="M3367.2,-150.15C3249.64,-145.99 3055.96,-139.25 2889,-134 2332.6,-116.51 2191.6,-146.02 1637,-98 1620.92,-96.61 1603.48,-94.34 1587.74,-92.01"/>
<polygon fill="midnightblue" stroke="midnightblue" points="3367.16,-153.65 3377.28,-150.5 3367.41,-146.65 3367.16,-153.65"/>
</g>
<!-- Node19 -->
<g id="node18" class="node">
<title>Node19</title>
<g id="a_node18"><a xlink:href="../../d4/d90/fvupdater_8cpp.html" target="_top" xlink:title=" ">
<polygon fill="white" stroke="black" points="3398.5,-73 3398.5,-92 3551.5,-92 3551.5,-73 3398.5,-73"/>
<text text-anchor="middle" x="3475" y="-80" font-family="Helvetica,sans-Serif" font-size="10.00">src/libs/fervor/fvupdater.cpp</text>
</a>
</g>
</g>
<!-- Node18&#45;&gt;Node19 -->
<g id="edge20" class="edge">
<title>Node18&#45;&gt;Node19</title>
<path fill="none" stroke="midnightblue" d="M3475,-134.94C3475,-121.03 3475,-102.82 3475,-92.22"/>
<polygon fill="midnightblue" stroke="midnightblue" points="3471.5,-135.36 3475,-145.36 3478.5,-135.36 3471.5,-135.36"/>
</g>
<!-- Node20 -->
<g id="node19" class="node">
<title>Node20</title>
<g id="a_node19"><a xlink:href="../../d9/dc8/dxiface_8cpp.html" target="_top" xlink:title=" ">
<polygon fill="white" stroke="black" points="3569.5,-73 3569.5,-92 3704.5,-92 3704.5,-73 3569.5,-73"/>
<text text-anchor="middle" x="3637" y="-80" font-family="Helvetica,sans-Serif" font-size="10.00">src/libs/vdxf/dxiface.cpp</text>
</a>
</g>
</g>
<!-- Node18&#45;&gt;Node20 -->
<g id="edge21" class="edge">
<title>Node18&#45;&gt;Node20</title>
<path fill="none" stroke="midnightblue" d="M3504.02,-141.37C3536.77,-127.12 3589.13,-104.33 3617.39,-92.03"/>
<polygon fill="midnightblue" stroke="midnightblue" points="3502.31,-138.3 3494.54,-145.5 3505.11,-144.71 3502.31,-138.3"/>
</g>
<!-- Node21 -->
<g id="node20" class="node">
<title>Node21</title>
<g id="a_node20"><a xlink:href="../../da/d75/vabstractarc__p_8h.html" target="_top" xlink:title=" ">
<polygon fill="white" stroke="red" points="3722.5,-67.5 3722.5,-97.5 3829.5,-97.5 3829.5,-67.5 3722.5,-67.5"/>
<text text-anchor="start" x="3730.5" y="-85.5" font-family="Helvetica,sans-Serif" font-size="10.00">src/libs/vgeometry</text>
<text text-anchor="middle" x="3776" y="-74.5" font-family="Helvetica,sans-Serif" font-size="10.00">/vabstractarc_p.h</text>
</a>
</g>
</g>
<!-- Node18&#45;&gt;Node21 -->
<g id="edge22" class="edge">
<title>Node18&#45;&gt;Node21</title>
<path fill="none" stroke="midnightblue" d="M3521.33,-143.15C3575.53,-130.45 3665.11,-109.47 3722.3,-96.08"/>
<polygon fill="midnightblue" stroke="midnightblue" points="3520.25,-139.81 3511.31,-145.5 3521.84,-146.62 3520.25,-139.81"/>
</g>
<!-- Node23 -->
<g id="node21" class="node">
<title>Node23</title>
<g id="a_node21"><a xlink:href="../../dc/da3/varc__p_8h.html" target="_top" xlink:title=" ">
<polygon fill="white" stroke="red" points="3847.5,-67.5 3847.5,-97.5 3954.5,-97.5 3954.5,-67.5 3847.5,-67.5"/>
<text text-anchor="start" x="3855.5" y="-85.5" font-family="Helvetica,sans-Serif" font-size="10.00">src/libs/vgeometry</text>
<text text-anchor="middle" x="3901" y="-74.5" font-family="Helvetica,sans-Serif" font-size="10.00">/varc_p.h</text>
</a>
</g>
</g>
<!-- Node18&#45;&gt;Node23 -->
<g id="edge23" class="edge">
<title>Node18&#45;&gt;Node23</title>
<path fill="none" stroke="midnightblue" d="M3549.94,-144.07C3623.53,-133.94 3738.86,-117.03 3838,-98 3841.09,-97.41 3844.25,-96.77 3847.44,-96.11"/>
<polygon fill="midnightblue" stroke="midnightblue" points="3549.27,-140.63 3539.83,-145.46 3550.22,-147.57 3549.27,-140.63"/>
</g>
<!-- Node25 -->
<g id="node22" class="node">
<title>Node25</title>
<g id="a_node22"><a xlink:href="../../d5/d8e/vcubicbezier__p_8h.html" target="_top" xlink:title=" ">
<polygon fill="white" stroke="red" points="3972.5,-67.5 3972.5,-97.5 4079.5,-97.5 4079.5,-67.5 3972.5,-67.5"/>
<text text-anchor="start" x="3980.5" y="-85.5" font-family="Helvetica,sans-Serif" font-size="10.00">src/libs/vgeometry</text>
<text text-anchor="middle" x="4026" y="-74.5" font-family="Helvetica,sans-Serif" font-size="10.00">/vcubicbezier_p.h</text>
</a>
</g>
</g>
<!-- Node18&#45;&gt;Node25 -->
<g id="edge24" class="edge">
<title>Node18&#45;&gt;Node25</title>
<path fill="none" stroke="midnightblue" d="M3582.71,-145.13C3681.92,-136.14 3832.99,-120.35 3963,-98 3966.1,-97.47 3969.27,-96.88 3972.47,-96.25"/>
<polygon fill="midnightblue" stroke="midnightblue" points="3582.32,-141.65 3572.68,-146.03 3582.95,-148.62 3582.32,-141.65"/>
</g>
<!-- Node27 -->
<g id="node23" class="node">
<title>Node27</title>
<g id="a_node23"><a xlink:href="../../df/dde/vellipticalarc__p_8h.html" target="_top" xlink:title=" ">
<polygon fill="white" stroke="black" points="4097.5,-67.5 4097.5,-97.5 4204.5,-97.5 4204.5,-67.5 4097.5,-67.5"/>
<text text-anchor="start" x="4105.5" y="-85.5" font-family="Helvetica,sans-Serif" font-size="10.00">src/libs/vgeometry</text>
<text text-anchor="middle" x="4151" y="-74.5" font-family="Helvetica,sans-Serif" font-size="10.00">/vellipticalarc_p.h</text>
</a>
</g>
</g>
<!-- Node18&#45;&gt;Node27 -->
<g id="edge25" class="edge">
<title>Node18&#45;&gt;Node27</title>
<path fill="none" stroke="midnightblue" d="M3582.81,-148.57C3705.68,-141.36 3912.23,-126.12 4088,-98 4091.1,-97.5 4094.28,-96.94 4097.48,-96.34"/>
<polygon fill="midnightblue" stroke="midnightblue" points="3582.43,-145.09 3572.65,-149.16 3582.84,-152.07 3582.43,-145.09"/>
</g>
<!-- Node28 -->
<g id="node24" class="node">
<title>Node28</title>
<g id="a_node24"><a xlink:href="../../d6/dfb/vellipticalarc_8cpp.html" target="_top" xlink:title=" ">
<polygon fill="white" stroke="black" points="2912.5,-0.5 2912.5,-30.5 3019.5,-30.5 3019.5,-0.5 2912.5,-0.5"/>
<text text-anchor="start" x="2920.5" y="-18.5" font-family="Helvetica,sans-Serif" font-size="10.00">src/libs/vgeometry</text>
<text text-anchor="middle" x="2966" y="-7.5" font-family="Helvetica,sans-Serif" font-size="10.00">/vellipticalarc.cpp</text>
</a>
</g>
</g>
<!-- Node18&#45;&gt;Node28 -->
<g id="edge27" class="edge">
<title>Node18&#45;&gt;Node28</title>
<path fill="none" stroke="midnightblue" d="M3367.2,-150.29C3249.64,-146.25 3055.94,-139.61 2889,-134 2828.56,-131.97 1843.05,-141.47 1801,-98 1791.42,-88.1 1791.47,-76.95 1801,-67 1839.88,-26.4 2688.37,-18.24 2912.24,-16.79"/>
<polygon fill="midnightblue" stroke="midnightblue" points="3367.16,-153.79 3377.28,-150.63 3367.4,-146.79 3367.16,-153.79"/>
</g>
<!-- Node29 -->
<g id="node25" class="node">
<title>Node29</title>
<g id="a_node25"><a xlink:href="../../d1/d76/vspline__p_8h.html" target="_top" xlink:title=" ">
<polygon fill="white" stroke="red" points="4222.5,-67.5 4222.5,-97.5 4329.5,-97.5 4329.5,-67.5 4222.5,-67.5"/>
<text text-anchor="start" x="4230.5" y="-85.5" font-family="Helvetica,sans-Serif" font-size="10.00">src/libs/vgeometry</text>
<text text-anchor="middle" x="4276" y="-74.5" font-family="Helvetica,sans-Serif" font-size="10.00">/vspline_p.h</text>
</a>
</g>
</g>
<!-- Node18&#45;&gt;Node29 -->
<g id="edge28" class="edge">
<title>Node18&#45;&gt;Node29</title>
<path fill="none" stroke="midnightblue" d="M3582.71,-150.9C3726.94,-145.6 3990.48,-131.85 4213,-98 4216.11,-97.53 4219.29,-96.98 4222.49,-96.39"/>
<polygon fill="midnightblue" stroke="midnightblue" points="3582.4,-147.41 3572.53,-151.27 3582.65,-154.41 3582.4,-147.41"/>
</g>
<!-- Node31 -->
<g id="node26" class="node">
<title>Node31</title>
<g id="a_node26"><a xlink:href="../../d9/d15/vabstractpiece_8cpp.html" target="_top" xlink:title=" ">
<polygon fill="white" stroke="black" points="4348,-73 4348,-92 4534,-92 4534,-73 4348,-73"/>
<text text-anchor="middle" x="4441" y="-80" font-family="Helvetica,sans-Serif" font-size="10.00">src/libs/vlayout/vabstractpiece.cpp</text>
</a>
</g>
</g>
<!-- Node18&#45;&gt;Node31 -->
<g id="edge29" class="edge">
<title>Node18&#45;&gt;Node31</title>
<path fill="none" stroke="midnightblue" d="M3582.65,-149.61C3746.17,-142.36 4066.81,-125.85 4338,-98 4353.63,-96.4 4370.53,-94.21 4386.04,-92.02"/>
<polygon fill="midnightblue" stroke="midnightblue" points="3582.43,-146.12 3572.59,-150.06 3582.73,-153.11 3582.43,-146.12"/>
</g>
<!-- Node32 -->
<g id="node27" class="node">
<title>Node32</title>
<g id="a_node27"><a xlink:href="../../db/d65/dialogexporttocsv_8cpp.html" target="_top" xlink:title=" ">
<polygon fill="white" stroke="black" points="4552.5,-67.5 4552.5,-97.5 4679.5,-97.5 4679.5,-67.5 4552.5,-67.5"/>
<text text-anchor="start" x="4560.5" y="-85.5" font-family="Helvetica,sans-Serif" font-size="10.00">src/libs/vmisc/dialogs</text>
<text text-anchor="middle" x="4616" y="-74.5" font-family="Helvetica,sans-Serif" font-size="10.00">/dialogexporttocsv.cpp</text>
</a>
</g>
</g>
<!-- Node18&#45;&gt;Node32 -->
<g id="edge32" class="edge">
<title>Node18&#45;&gt;Node32</title>
<path fill="none" stroke="midnightblue" d="M3582.75,-153.46C3775.93,-151.35 4193.67,-141.62 4543,-98 4546.08,-97.62 4549.22,-97.18 4552.39,-96.69"/>
<polygon fill="midnightblue" stroke="midnightblue" points="3582.56,-149.96 3572.6,-153.56 3582.64,-156.96 3582.56,-149.96"/>
</g>
<!-- Node33 -->
<g id="node28" class="node">
<title>Node33</title>
<g id="a_node28"><a xlink:href="../../d6/d0b/def_8cpp.html" target="_top" xlink:title=" ">
<polygon fill="white" stroke="black" points="4698,-73 4698,-92 4820,-92 4820,-73 4698,-73"/>
<text text-anchor="middle" x="4759" y="-80" font-family="Helvetica,sans-Serif" font-size="10.00">src/libs/vmisc/def.cpp</text>
</a>
</g>
</g>
<!-- Node18&#45;&gt;Node33 -->
<g id="edge33" class="edge">
<title>Node18&#45;&gt;Node33</title>
<path fill="none" stroke="midnightblue" d="M3582.74,-154.62C3795.07,-154.62 4282.26,-148.49 4688,-98 4699.36,-96.59 4711.62,-94.35 4722.69,-92.04"/>
<polygon fill="midnightblue" stroke="midnightblue" points="3582.53,-151.12 3572.53,-154.62 3582.52,-158.12 3582.53,-151.12"/>
</g>
<!-- Node34 -->
<g id="node29" class="node">
<title>Node34</title>
<g id="a_node29"><a xlink:href="../../d0/df6/vabstractapplication_8cpp.html" target="_top" xlink:title=" ">
<polygon fill="white" stroke="black" points="4838,-73 4838,-92 5044,-92 5044,-73 4838,-73"/>
<text text-anchor="middle" x="4941" y="-80" font-family="Helvetica,sans-Serif" font-size="10.00">src/libs/vmisc/vabstractapplication.cpp</text>
</a>
</g>
</g>
<!-- Node18&#45;&gt;Node34 -->
<g id="edge34" class="edge">
<title>Node18&#45;&gt;Node34</title>
<path fill="none" stroke="midnightblue" d="M3582.91,-152.74C3812.55,-149.35 4366.45,-137.43 4829,-98 4846.48,-96.51 4865.43,-94.29 4882.68,-92.03"/>
<polygon fill="midnightblue" stroke="midnightblue" points="3582.83,-149.24 3572.89,-152.88 3582.94,-156.24 3582.83,-149.24"/>
</g>
<!-- Node35 -->
<g id="node30" class="node">
<title>Node35</title>
<g id="a_node30"><a xlink:href="../../d4/d4f/pmsystems_8cpp.html" target="_top" xlink:title=" ">
<polygon fill="white" stroke="black" points="1646.5,-67.5 1646.5,-97.5 1753.5,-97.5 1753.5,-67.5 1646.5,-67.5"/>
<text text-anchor="start" x="1654.5" y="-85.5" font-family="Helvetica,sans-Serif" font-size="10.00">src/libs/vpatterndb</text>
<text text-anchor="middle" x="1700" y="-74.5" font-family="Helvetica,sans-Serif" font-size="10.00">/pmsystems.cpp</text>
</a>
</g>
</g>
<!-- Node18&#45;&gt;Node35 -->
<g id="edge35" class="edge">
<title>Node18&#45;&gt;Node35</title>
<path fill="none" stroke="midnightblue" d="M3367.2,-150.26C3249.64,-146.19 3055.95,-139.53 2889,-134 2390.79,-117.5 2262.83,-158.22 1768,-98 1763.33,-97.43 1758.5,-96.7 1753.67,-95.87"/>
<polygon fill="midnightblue" stroke="midnightblue" points="3367.16,-153.76 3377.28,-150.6 3367.41,-146.76 3367.16,-153.76"/>
</g>
<!-- Node18&#45;&gt;Node36 -->
<g id="edge36" class="edge">
<title>Node18&#45;&gt;Node36</title>
<path fill="none" stroke="midnightblue" d="M3367.38,-153.86C3002.72,-152.96 1815.62,-146.28 1437,-98 1433.99,-97.62 1430.92,-97.15 1427.83,-96.63"/>
<polygon fill="midnightblue" stroke="midnightblue" points="3367.39,-157.36 3377.4,-153.89 3367.41,-150.36 3367.39,-157.36"/>
</g>
<!-- Node18&#45;&gt;Node37 -->
<g id="edge37" class="edge">
<title>Node18&#45;&gt;Node37</title>
<path fill="none" stroke="midnightblue" d="M3583.01,-153.18C3907.05,-150.28 4867.68,-138.43 5178,-98 5181,-97.61 5184.08,-97.14 5187.17,-96.61"/>
<polygon fill="midnightblue" stroke="midnightblue" points="3582.65,-149.68 3572.68,-153.27 3582.71,-156.68 3582.65,-149.68"/>
</g>
<!-- Node38 -->
<g id="node33" class="node">
<title>Node38</title>
<g id="a_node33"><a xlink:href="../../df/dba/vpiecenode__p_8h.html" target="_top" xlink:title=" ">
<polygon fill="white" stroke="black" points="5062.5,-67.5 5062.5,-97.5 5169.5,-97.5 5169.5,-67.5 5062.5,-67.5"/>
<text text-anchor="start" x="5070.5" y="-85.5" font-family="Helvetica,sans-Serif" font-size="10.00">src/libs/vpatterndb</text>
<text text-anchor="middle" x="5116" y="-74.5" font-family="Helvetica,sans-Serif" font-size="10.00">/vpiecenode_p.h</text>
</a>
</g>
</g>
<!-- Node18&#45;&gt;Node38 -->
<g id="edge38" class="edge">
<title>Node18&#45;&gt;Node38</title>
<path fill="none" stroke="midnightblue" d="M3582.75,-152.85C3890.22,-149.15 4767.89,-135.52 5053,-98 5056,-97.6 5059.08,-97.13 5062.17,-96.6"/>
<polygon fill="midnightblue" stroke="midnightblue" points="3582.46,-149.36 3572.5,-152.98 3582.54,-156.36 3582.46,-149.36"/>
</g>
<!-- Node18&#45;&gt;Node40 -->
<g id="edge40" class="edge">
<title>Node18&#45;&gt;Node40</title>
<path fill="none" stroke="midnightblue" d="M3582.67,-153.46C3922.11,-151.34 4967.19,-141.36 5303,-98 5306.01,-97.61 5309.08,-97.14 5312.17,-96.62"/>
<polygon fill="midnightblue" stroke="midnightblue" points="3582.57,-149.97 3572.59,-153.53 3582.61,-156.97 3582.57,-149.97"/>
</g>
<!-- Node41 -->
<g id="node36" class="node">
<title>Node41</title>
<g id="a_node36"><a xlink:href="../../de/d3e/vtranslatevars_8cpp.html" target="_top" xlink:title=" ">
<polygon fill="white" stroke="black" points="1810,-67.5 1810,-97.5 1920,-97.5 1920,-67.5 1810,-67.5"/>
<text text-anchor="start" x="1818" y="-85.5" font-family="Helvetica,sans-Serif" font-size="10.00">src/libs/vpatterndb</text>
<text text-anchor="middle" x="1865" y="-74.5" font-family="Helvetica,sans-Serif" font-size="10.00">/vtranslatevars.cpp</text>
</a>
</g>
</g>
<!-- Node18&#45;&gt;Node41 -->
<g id="edge41" class="edge">
<title>Node18&#45;&gt;Node41</title>
<path fill="none" stroke="midnightblue" d="M3367.14,-150.23C3019.03,-138.03 1946.84,-100.32 1929,-98 1926.06,-97.62 1923.06,-97.16 1920.04,-96.66"/>
<polygon fill="midnightblue" stroke="midnightblue" points="3367.11,-153.73 3377.23,-150.58 3367.35,-146.73 3367.11,-153.73"/>
</g>
<!-- Node42 -->
<g id="node37" class="node">
<title>Node42</title>
<g id="a_node37"><a xlink:href="../../df/d40/export__format__combobox_8cpp.html" target="_top" xlink:title=" ">
<polygon fill="white" stroke="black" points="1938.5,-67.5 1938.5,-97.5 2071.5,-97.5 2071.5,-67.5 1938.5,-67.5"/>
<text text-anchor="start" x="1946.5" y="-85.5" font-family="Helvetica,sans-Serif" font-size="10.00">src/libs/vwidgets/export</text>
<text text-anchor="middle" x="2005" y="-74.5" font-family="Helvetica,sans-Serif" font-size="10.00">_format_combobox.cpp</text>
</a>
</g>
</g>
<!-- Node18&#45;&gt;Node42 -->
<g id="edge42" class="edge">
<title>Node18&#45;&gt;Node42</title>
<path fill="none" stroke="midnightblue" d="M3367.18,-150.11C3051.02,-138.63 2144.49,-105.29 2081,-98 2077.93,-97.65 2074.8,-97.24 2071.64,-96.79"/>
<polygon fill="midnightblue" stroke="midnightblue" points="3367.15,-153.61 3377.27,-150.47 3367.4,-146.61 3367.15,-153.61"/>
</g>
<!-- Node43 -->
<g id="node38" class="node">
<title>Node43</title>
<g id="a_node38"><a xlink:href="../../d3/d4f/mouse__coordinates_8cpp.html" target="_top" xlink:title=" ">
<polygon fill="white" stroke="black" points="2090,-67.5 2090,-97.5 2224,-97.5 2224,-67.5 2090,-67.5"/>
<text text-anchor="start" x="2098" y="-85.5" font-family="Helvetica,sans-Serif" font-size="10.00">src/libs/vwidgets/mouse</text>
<text text-anchor="middle" x="2157" y="-74.5" font-family="Helvetica,sans-Serif" font-size="10.00">_coordinates.cpp</text>
</a>
</g>
</g>
<!-- Node18&#45;&gt;Node43 -->
<g id="edge43" class="edge">
<title>Node18&#45;&gt;Node43</title>
<path fill="none" stroke="midnightblue" d="M3366.86,-150.01C3085.33,-139.51 2343.78,-111 2233,-98 2230.06,-97.66 2227.07,-97.26 2224.06,-96.83"/>
<polygon fill="midnightblue" stroke="midnightblue" points="3366.97,-153.52 3377.09,-150.4 3367.23,-146.53 3366.97,-153.52"/>
</g>
<!-- Node44 -->
<g id="node39" class="node">
<title>Node44</title>
<g id="a_node39"><a xlink:href="../../d7/d1b/pen__toolbar_8cpp.html" target="_top" xlink:title=" ">
<polygon fill="white" stroke="black" points="2242.5,-67.5 2242.5,-97.5 2361.5,-97.5 2361.5,-67.5 2242.5,-67.5"/>
<text text-anchor="start" x="2250.5" y="-85.5" font-family="Helvetica,sans-Serif" font-size="10.00">src/libs/vwidgets/pen</text>
<text text-anchor="middle" x="2302" y="-74.5" font-family="Helvetica,sans-Serif" font-size="10.00">_toolbar.cpp</text>
</a>
</g>
</g>
<!-- Node18&#45;&gt;Node44 -->
<g id="edge44" class="edge">
<title>Node18&#45;&gt;Node44</title>
<path fill="none" stroke="midnightblue" d="M3367.3,-150.73C3128.48,-143.13 2560.58,-122.99 2370,-98 2367.25,-97.64 2364.44,-97.23 2361.61,-96.77"/>
<polygon fill="midnightblue" stroke="midnightblue" points="3367.28,-154.23 3377.38,-151.05 3367.5,-147.24 3367.28,-154.23"/>
</g>
<!-- Node45 -->
<g id="node40" class="node">
<title>Node45</title>
<g id="a_node40"><a xlink:href="../../d2/d28/page__format__combobox_8cpp.html" target="_top" xlink:title=" ">
<polygon fill="white" stroke="black" points="2379.5,-67.5 2379.5,-97.5 2510.5,-97.5 2510.5,-67.5 2379.5,-67.5"/>
<text text-anchor="start" x="2387.5" y="-85.5" font-family="Helvetica,sans-Serif" font-size="10.00">src/libs/vwidgets/page</text>
<text text-anchor="middle" x="2445" y="-74.5" font-family="Helvetica,sans-Serif" font-size="10.00">_format_combobox.cpp</text>
</a>
</g>
</g>
<!-- Node18&#45;&gt;Node45 -->
<g id="edge45" class="edge">
<title>Node18&#45;&gt;Node45</title>
<path fill="none" stroke="midnightblue" d="M3367.23,-152.32C3189.89,-148.52 2825.73,-136.35 2520,-98 2516.97,-97.62 2513.89,-97.19 2510.77,-96.73"/>
<polygon fill="midnightblue" stroke="midnightblue" points="3367.27,-155.82 3377.34,-152.53 3367.42,-148.83 3367.27,-155.82"/>
</g>
<!-- Node46 -->
<g id="node41" class="node">
<title>Node46</title>
<g id="a_node41"><a xlink:href="../../d8/d76/scene__rect_8cpp.html" target="_top" xlink:title=" ">
<polygon fill="white" stroke="black" points="2529,-67.5 2529,-97.5 2659,-97.5 2659,-67.5 2529,-67.5"/>
<text text-anchor="start" x="2537" y="-85.5" font-family="Helvetica,sans-Serif" font-size="10.00">src/libs/vwidgets/scene</text>
<text text-anchor="middle" x="2594" y="-74.5" font-family="Helvetica,sans-Serif" font-size="10.00">_rect.cpp</text>
</a>
</g>
</g>
<!-- Node18&#45;&gt;Node46 -->
<g id="edge46" class="edge">
<title>Node18&#45;&gt;Node46</title>
<path fill="none" stroke="midnightblue" d="M3367.39,-150.78C3212.29,-145.18 2917.15,-130.92 2668,-98 2665.14,-97.62 2662.23,-97.2 2659.3,-96.75"/>
<polygon fill="midnightblue" stroke="midnightblue" points="3367.29,-154.28 3377.41,-151.14 3367.54,-147.29 3367.29,-154.28"/>
</g>
<!-- Node47 -->
<g id="node42" class="node">
<title>Node47</title>
<g id="a_node42"><a xlink:href="../../dd/df6/vabstractmainwindow_8cpp.html" target="_top" xlink:title=" ">
<polygon fill="white" stroke="black" points="2677.5,-73 2677.5,-92 2906.5,-92 2906.5,-73 2677.5,-73"/>
<text text-anchor="middle" x="2792" y="-80" font-family="Helvetica,sans-Serif" font-size="10.00">src/libs/vwidgets/vabstractmainwindow.cpp</text>
</a>
</g>
</g>
<!-- Node18&#45;&gt;Node47 -->
<g id="edge47" class="edge">
<title>Node18&#45;&gt;Node47</title>
<path fill="none" stroke="midnightblue" d="M3374.47,-144.49C3262.34,-133.75 3075.6,-115.49 2915,-98 2898.01,-96.15 2879.71,-94.05 2862.55,-92.03"/>
<polygon fill="midnightblue" stroke="midnightblue" points="3374.46,-148 3384.75,-145.47 3375.13,-141.03 3374.46,-148"/>
</g>
<!-- Node48 -->
<g id="node43" class="node">
<title>Node48</title>
<g id="a_node43"><a xlink:href="../../d1/d90/vgrainlineitem_8cpp.html" target="_top" xlink:title=" ">
<polygon fill="white" stroke="black" points="2924.5,-73 2924.5,-92 3117.5,-92 3117.5,-73 2924.5,-73"/>
<text text-anchor="middle" x="3021" y="-80" font-family="Helvetica,sans-Serif" font-size="10.00">src/libs/vwidgets/vgrainlineitem.cpp</text>
</a>
</g>
</g>
<!-- Node18&#45;&gt;Node48 -->
<g id="edge48" class="edge">
<title>Node18&#45;&gt;Node48</title>
<path fill="none" stroke="midnightblue" d="M3410.19,-143.94C3320.5,-130.01 3160.1,-105.1 3075.96,-92.03"/>
<polygon fill="midnightblue" stroke="midnightblue" points="3409.82,-147.42 3420.24,-145.5 3410.89,-140.5 3409.82,-147.42"/>
</g>
<!-- Node49 -->
<g id="node44" class="node">
<title>Node49</title>
<g id="a_node44"><a xlink:href="../../de/dec/vgraphicssimpletextitem_8cpp.html" target="_top" xlink:title=" ">
<polygon fill="white" stroke="black" points="3136,-73 3136,-92 3380,-92 3380,-73 3136,-73"/>
<text text-anchor="middle" x="3258" y="-80" font-family="Helvetica,sans-Serif" font-size="10.00">src/libs/vwidgets/vgraphicssimpletextitem.cpp</text>
</a>
</g>
</g>
<!-- Node18&#45;&gt;Node49 -->
<g id="edge49" class="edge">
<title>Node18&#45;&gt;Node49</title>
<path fill="none" stroke="midnightblue" d="M3439.2,-142.37C3395.6,-128.21 3323.02,-104.62 3284.27,-92.03"/>
<polygon fill="midnightblue" stroke="midnightblue" points="3438.23,-145.73 3448.82,-145.5 3440.4,-139.08 3438.23,-145.73"/>
</g>
<!-- Node27&#45;&gt;Node28 -->
<g id="edge26" class="edge">
<title>Node27&#45;&gt;Node28</title>
<path fill="none" stroke="midnightblue" d="M4087.23,-67.12C3858.29,-37.82 3210.54,-21.82 3019.57,-17.62"/>
<polygon fill="midnightblue" stroke="midnightblue" points="4086.79,-70.59 4097.16,-68.43 4087.71,-63.65 4086.79,-70.59"/>
</g>
<!-- Node38&#45;&gt;Node39 -->
<g id="edge39" class="edge">
<title>Node38&#45;&gt;Node39</title>
<path fill="none" stroke="midnightblue" d="M5178.76,-64.92C5218.9,-54.31 5270.42,-40.7 5308.6,-30.61"/>
<polygon fill="midnightblue" stroke="midnightblue" points="5177.85,-61.54 5169.08,-67.48 5179.64,-68.31 5177.85,-61.54"/>
</g>
<!-- Node59&#45;&gt;Node2 -->
<g id="edge52" class="edge">
<title>Node59&#45;&gt;Node2</title>
<path fill="none" stroke="midnightblue" d="M5479.99,-131.06C5486.69,-120.09 5494.49,-107.3 5500.31,-97.75"/>
<polygon fill="midnightblue" stroke="midnightblue" points="5476.92,-129.37 5474.7,-139.73 5482.9,-133.02 5476.92,-129.37"/>
</g>
</g>
</svg>
